%TF.GenerationSoftware,KiCad,Pcbnew,7.0.1*%
%TF.CreationDate,2023-03-15T00:19:44+00:00*%
%TF.ProjectId,CPC464-2MINI,43504334-3634-42d3-924d-494e492e6b69,rev?*%
%TF.SameCoordinates,Original*%
%TF.FileFunction,Soldermask,Bot*%
%TF.FilePolarity,Negative*%
%FSLAX46Y46*%
G04 Gerber Fmt 4.6, Leading zero omitted, Abs format (unit mm)*
G04 Created by KiCad (PCBNEW 7.0.1) date 2023-03-15 00:19:44*
%MOMM*%
%LPD*%
G01*
G04 APERTURE LIST*
G04 Aperture macros list*
%AMRoundRect*
0 Rectangle with rounded corners*
0 $1 Rounding radius*
0 $2 $3 $4 $5 $6 $7 $8 $9 X,Y pos of 4 corners*
0 Add a 4 corners polygon primitive as box body*
4,1,4,$2,$3,$4,$5,$6,$7,$8,$9,$2,$3,0*
0 Add four circle primitives for the rounded corners*
1,1,$1+$1,$2,$3*
1,1,$1+$1,$4,$5*
1,1,$1+$1,$6,$7*
1,1,$1+$1,$8,$9*
0 Add four rect primitives between the rounded corners*
20,1,$1+$1,$2,$3,$4,$5,0*
20,1,$1+$1,$4,$5,$6,$7,0*
20,1,$1+$1,$6,$7,$8,$9,0*
20,1,$1+$1,$8,$9,$2,$3,0*%
G04 Aperture macros list end*
%ADD10C,4.500000*%
%ADD11R,1.600000X1.600000*%
%ADD12O,1.600000X1.600000*%
%ADD13R,1.050000X1.500000*%
%ADD14O,1.050000X1.500000*%
%ADD15R,1.700000X1.700000*%
%ADD16O,1.700000X1.700000*%
%ADD17C,4.000000*%
%ADD18C,1.600000*%
%ADD19C,1.200000*%
%ADD20O,2.616000X1.308000*%
%ADD21O,1.308000X2.616000*%
%ADD22C,3.800000*%
%ADD23C,2.400000*%
%ADD24R,1.950000X1.950000*%
%ADD25C,1.950000*%
%ADD26C,2.150000*%
%ADD27C,1.500000*%
%ADD28RoundRect,0.250000X0.600000X-0.600000X0.600000X0.600000X-0.600000X0.600000X-0.600000X-0.600000X0*%
%ADD29C,1.700000*%
%ADD30R,1.422400X1.422400*%
%ADD31C,1.422400*%
%ADD32R,3.500000X3.500000*%
%ADD33RoundRect,0.750000X-1.000000X0.750000X-1.000000X-0.750000X1.000000X-0.750000X1.000000X0.750000X0*%
%ADD34RoundRect,0.875000X-0.875000X0.875000X-0.875000X-0.875000X0.875000X-0.875000X0.875000X0.875000X0*%
G04 APERTURE END LIST*
D10*
%TO.C,H9*%
X35788600Y-43840400D03*
%TD*%
D11*
%TO.C,SW1*%
X102930000Y-91725000D03*
D12*
X105470000Y-91725000D03*
X108010000Y-91725000D03*
X110550000Y-91725000D03*
X110550000Y-84105000D03*
X108010000Y-84105000D03*
X105470000Y-84105000D03*
X102930000Y-84105000D03*
%TD*%
D11*
%TO.C,IC111*%
X118525000Y-58075000D03*
D12*
X121065000Y-58075000D03*
X123605000Y-58075000D03*
X126145000Y-58075000D03*
X128685000Y-58075000D03*
X131225000Y-58075000D03*
X133765000Y-58075000D03*
X136305000Y-58075000D03*
X138845000Y-58075000D03*
X141385000Y-58075000D03*
X143925000Y-58075000D03*
X146465000Y-58075000D03*
X149005000Y-58075000D03*
X151545000Y-58075000D03*
X154085000Y-58075000D03*
X156625000Y-58075000D03*
X159165000Y-58075000D03*
X161705000Y-58075000D03*
X164245000Y-58075000D03*
X166785000Y-58075000D03*
X166785000Y-42835000D03*
X164245000Y-42835000D03*
X161705000Y-42835000D03*
X159165000Y-42835000D03*
X156625000Y-42835000D03*
X154085000Y-42835000D03*
X151545000Y-42835000D03*
X149005000Y-42835000D03*
X146465000Y-42835000D03*
X143925000Y-42835000D03*
X141385000Y-42835000D03*
X138845000Y-42835000D03*
X136305000Y-42835000D03*
X133765000Y-42835000D03*
X131225000Y-42835000D03*
X128685000Y-42835000D03*
X126145000Y-42835000D03*
X123605000Y-42835000D03*
X121065000Y-42835000D03*
X118525000Y-42835000D03*
%TD*%
D13*
%TO.C,Q101*%
X236825600Y-83668400D03*
D14*
X238095600Y-83668400D03*
X239365600Y-83668400D03*
%TD*%
D11*
%TO.C,IC118*%
X181651200Y-88061600D03*
D12*
X184191200Y-88061600D03*
X186731200Y-88061600D03*
X189271200Y-88061600D03*
X191811200Y-88061600D03*
X194351200Y-88061600D03*
X196891200Y-88061600D03*
X199431200Y-88061600D03*
X199431200Y-80441600D03*
X196891200Y-80441600D03*
X194351200Y-80441600D03*
X191811200Y-80441600D03*
X189271200Y-80441600D03*
X186731200Y-80441600D03*
X184191200Y-80441600D03*
X181651200Y-80441600D03*
%TD*%
D10*
%TO.C,H4*%
X244500400Y-102920800D03*
%TD*%
%TO.C,H5*%
X253746000Y-72593200D03*
%TD*%
%TO.C,H2*%
X224028000Y-31750000D03*
%TD*%
D15*
%TO.C,CP1*%
X238571800Y-107696000D03*
D16*
X241111800Y-107696000D03*
X243651800Y-107696000D03*
X246191800Y-107696000D03*
X248731800Y-107696000D03*
X251271800Y-107696000D03*
X253811800Y-107696000D03*
X256351800Y-107696000D03*
%TD*%
D17*
%TO.C,J102*%
X24116800Y-102649300D03*
X49116800Y-102649300D03*
D11*
X31076800Y-101229300D03*
D18*
X33846800Y-101229300D03*
X36616800Y-101229300D03*
X39386800Y-101229300D03*
X42156800Y-101229300D03*
X32461800Y-104069300D03*
X35231800Y-104069300D03*
X38001800Y-104069300D03*
X40771800Y-104069300D03*
%TD*%
D13*
%TO.C,Q102*%
X254846500Y-65867000D03*
D14*
X256116500Y-65867000D03*
X257386500Y-65867000D03*
%TD*%
D11*
%TO.C,IC121*%
X206975000Y-78054000D03*
D12*
X209515000Y-78054000D03*
X212055000Y-78054000D03*
X214595000Y-78054000D03*
X217135000Y-78054000D03*
X219675000Y-78054000D03*
X222215000Y-78054000D03*
X224755000Y-78054000D03*
X224755000Y-70434000D03*
X222215000Y-70434000D03*
X219675000Y-70434000D03*
X217135000Y-70434000D03*
X214595000Y-70434000D03*
X212055000Y-70434000D03*
X209515000Y-70434000D03*
X206975000Y-70434000D03*
%TD*%
D19*
%TO.C,J103*%
X33295600Y-29300800D03*
X23295600Y-29300800D03*
X33295600Y-31800800D03*
X23295600Y-31800800D03*
X28295600Y-36800800D03*
D20*
X28295600Y-31800800D03*
D21*
X23295600Y-36800800D03*
X33295600Y-36800800D03*
X25795600Y-36800800D03*
X30795600Y-36800800D03*
%TD*%
D11*
%TO.C,IC119*%
X181651200Y-98104600D03*
D12*
X184191200Y-98104600D03*
X186731200Y-98104600D03*
X189271200Y-98104600D03*
X191811200Y-98104600D03*
X194351200Y-98104600D03*
X196891200Y-98104600D03*
X199431200Y-98104600D03*
X199431200Y-90484600D03*
X196891200Y-90484600D03*
X194351200Y-90484600D03*
X191811200Y-90484600D03*
X189271200Y-90484600D03*
X186731200Y-90484600D03*
X184191200Y-90484600D03*
X181651200Y-90484600D03*
%TD*%
D15*
%TO.C,LK5*%
X201850000Y-35400000D03*
D16*
X201850000Y-32860000D03*
%TD*%
D22*
%TO.C,H8*%
X203149200Y-98171000D03*
%TD*%
D11*
%TO.C,IC117*%
X181651200Y-78038600D03*
D12*
X184191200Y-78038600D03*
X186731200Y-78038600D03*
X189271200Y-78038600D03*
X191811200Y-78038600D03*
X194351200Y-78038600D03*
X196891200Y-78038600D03*
X199431200Y-78038600D03*
X199431200Y-70418600D03*
X196891200Y-70418600D03*
X194351200Y-70418600D03*
X191811200Y-70418600D03*
X189271200Y-70418600D03*
X186731200Y-70418600D03*
X184191200Y-70418600D03*
X181651200Y-70418600D03*
%TD*%
D15*
%TO.C,J105*%
X17830800Y-33324800D03*
D16*
X17830800Y-35864800D03*
X17830800Y-38404800D03*
%TD*%
D15*
%TO.C,LK6*%
X205475000Y-35400000D03*
D16*
X205475000Y-32860000D03*
%TD*%
D23*
%TO.C,J101*%
X245327500Y-35273200D03*
X230327500Y-35273200D03*
D24*
X230327500Y-40273200D03*
D25*
X232827500Y-42773200D03*
X237827500Y-40273200D03*
X242827500Y-42773200D03*
X245327500Y-40273200D03*
X237827500Y-45273200D03*
D26*
X242747500Y-30320200D03*
X240327500Y-30273200D03*
X237827500Y-30320200D03*
X235327500Y-30273200D03*
X232747500Y-30320200D03*
%TD*%
D11*
%TO.C,IC141*%
X23140000Y-86340000D03*
D12*
X25680000Y-86340000D03*
X28220000Y-86340000D03*
X30760000Y-86340000D03*
X33300000Y-86340000D03*
X35840000Y-86340000D03*
X38380000Y-86340000D03*
X40920000Y-86340000D03*
X43460000Y-86340000D03*
X46000000Y-86340000D03*
X48540000Y-86340000D03*
X51080000Y-86340000D03*
X53620000Y-86340000D03*
X56160000Y-86340000D03*
X58700000Y-86340000D03*
X61240000Y-86340000D03*
X63780000Y-86340000D03*
X66320000Y-86340000D03*
X68860000Y-86340000D03*
X71400000Y-86340000D03*
X71400000Y-71100000D03*
X68860000Y-71100000D03*
X66320000Y-71100000D03*
X63780000Y-71100000D03*
X61240000Y-71100000D03*
X58700000Y-71100000D03*
X56160000Y-71100000D03*
X53620000Y-71100000D03*
X51080000Y-71100000D03*
X48540000Y-71100000D03*
X46000000Y-71100000D03*
X43460000Y-71100000D03*
X40920000Y-71100000D03*
X38380000Y-71100000D03*
X35840000Y-71100000D03*
X33300000Y-71100000D03*
X30760000Y-71100000D03*
X28220000Y-71100000D03*
X25680000Y-71100000D03*
X23140000Y-71100000D03*
%TD*%
D11*
%TO.C,SW1250*%
X66550000Y-37425000D03*
D12*
X69090000Y-37425000D03*
X71630000Y-37425000D03*
X74170000Y-37425000D03*
X74170000Y-29805000D03*
X71630000Y-29805000D03*
X69090000Y-29805000D03*
X66550000Y-29805000D03*
%TD*%
D27*
%TO.C,X101*%
X245170600Y-83765600D03*
X250050600Y-83765600D03*
%TD*%
D28*
%TO.C,PL1*%
X89159000Y-33660000D03*
D29*
X89159000Y-31120000D03*
X91699000Y-33660000D03*
X91699000Y-31120000D03*
X94239000Y-33660000D03*
X94239000Y-31120000D03*
X96779000Y-33660000D03*
X96779000Y-31120000D03*
X99319000Y-33660000D03*
X99319000Y-31120000D03*
X101859000Y-33660000D03*
X101859000Y-31120000D03*
X104399000Y-33660000D03*
X104399000Y-31120000D03*
X106939000Y-33660000D03*
X106939000Y-31120000D03*
X109479000Y-33660000D03*
X109479000Y-31120000D03*
X112019000Y-33660000D03*
X112019000Y-31120000D03*
X114559000Y-33660000D03*
X114559000Y-31120000D03*
X117099000Y-33660000D03*
X117099000Y-31120000D03*
X119639000Y-33660000D03*
X119639000Y-31120000D03*
X122179000Y-33660000D03*
X122179000Y-31120000D03*
X124719000Y-33660000D03*
X124719000Y-31120000D03*
X127259000Y-33660000D03*
X127259000Y-31120000D03*
X129799000Y-33660000D03*
X129799000Y-31120000D03*
X132339000Y-33660000D03*
X132339000Y-31120000D03*
X134879000Y-33660000D03*
X134879000Y-31120000D03*
X137419000Y-33660000D03*
X137419000Y-31120000D03*
X139959000Y-33660000D03*
X139959000Y-31120000D03*
X142499000Y-33660000D03*
X142499000Y-31120000D03*
X145039000Y-33660000D03*
X145039000Y-31120000D03*
X147579000Y-33660000D03*
X147579000Y-31120000D03*
X150119000Y-33660000D03*
X150119000Y-31120000D03*
%TD*%
D15*
%TO.C,J340*%
X172300000Y-68525000D03*
D16*
X172300000Y-71065000D03*
%TD*%
D15*
%TO.C,LK8*%
X209125000Y-35400000D03*
D16*
X209125000Y-32860000D03*
%TD*%
D10*
%TO.C,H3*%
X18034000Y-107797600D03*
%TD*%
D15*
%TO.C,CP2*%
X17830800Y-43484800D03*
D16*
X17830800Y-46024800D03*
X17830800Y-48564800D03*
X17830800Y-51104800D03*
X17830800Y-53644800D03*
X17830800Y-56184800D03*
X17830800Y-58724800D03*
X17830800Y-61264800D03*
X17830800Y-63804800D03*
X17830800Y-66344800D03*
X17830800Y-68884800D03*
X17830800Y-71424800D03*
X17830800Y-73964800D03*
X17830800Y-76504800D03*
X17830800Y-79044800D03*
X17830800Y-81584800D03*
X17830800Y-84124800D03*
X17830800Y-86664800D03*
X17830800Y-89204800D03*
X17830800Y-91744800D03*
%TD*%
D11*
%TO.C,NR1*%
X38075000Y-96025000D03*
D12*
X35535000Y-96025000D03*
X32995000Y-96025000D03*
X30455000Y-96025000D03*
X27915000Y-96025000D03*
X25375000Y-96025000D03*
X22835000Y-96025000D03*
X20295000Y-96025000D03*
X17755000Y-96025000D03*
%TD*%
D11*
%TO.C,IC116*%
X177043000Y-58171000D03*
D12*
X179583000Y-58171000D03*
X182123000Y-58171000D03*
X184663000Y-58171000D03*
X187203000Y-58171000D03*
X189743000Y-58171000D03*
X192283000Y-58171000D03*
X194823000Y-58171000D03*
X197363000Y-58171000D03*
X199903000Y-58171000D03*
X202443000Y-58171000D03*
X204983000Y-58171000D03*
X207523000Y-58171000D03*
X210063000Y-58171000D03*
X212603000Y-58171000D03*
X215143000Y-58171000D03*
X217683000Y-58171000D03*
X220223000Y-58171000D03*
X222763000Y-58171000D03*
X225303000Y-58171000D03*
X225303000Y-42931000D03*
X222763000Y-42931000D03*
X220223000Y-42931000D03*
X217683000Y-42931000D03*
X215143000Y-42931000D03*
X212603000Y-42931000D03*
X210063000Y-42931000D03*
X207523000Y-42931000D03*
X204983000Y-42931000D03*
X202443000Y-42931000D03*
X199903000Y-42931000D03*
X197363000Y-42931000D03*
X194823000Y-42931000D03*
X192283000Y-42931000D03*
X189743000Y-42931000D03*
X187203000Y-42931000D03*
X184663000Y-42931000D03*
X182123000Y-42931000D03*
X179583000Y-42931000D03*
X177043000Y-42931000D03*
%TD*%
D11*
%TO.C,IC900*%
X168350000Y-37700000D03*
D12*
X170890000Y-37700000D03*
X173430000Y-37700000D03*
X175970000Y-37700000D03*
X178510000Y-37700000D03*
X181050000Y-37700000D03*
X183590000Y-37700000D03*
X186130000Y-37700000D03*
X188670000Y-37700000D03*
X191210000Y-37700000D03*
X191210000Y-30080000D03*
X188670000Y-30080000D03*
X186130000Y-30080000D03*
X183590000Y-30080000D03*
X181050000Y-30080000D03*
X178510000Y-30080000D03*
X175970000Y-30080000D03*
X173430000Y-30080000D03*
X170890000Y-30080000D03*
X168350000Y-30080000D03*
%TD*%
D10*
%TO.C,H6*%
X62788800Y-90474800D03*
%TD*%
D11*
%TO.C,IC122*%
X206975000Y-88077000D03*
D12*
X209515000Y-88077000D03*
X212055000Y-88077000D03*
X214595000Y-88077000D03*
X217135000Y-88077000D03*
X219675000Y-88077000D03*
X222215000Y-88077000D03*
X224755000Y-88077000D03*
X224755000Y-80457000D03*
X222215000Y-80457000D03*
X219675000Y-80457000D03*
X217135000Y-80457000D03*
X214595000Y-80457000D03*
X212055000Y-80457000D03*
X209515000Y-80457000D03*
X206975000Y-80457000D03*
%TD*%
D11*
%TO.C,IC120*%
X181651200Y-108127600D03*
D12*
X184191200Y-108127600D03*
X186731200Y-108127600D03*
X189271200Y-108127600D03*
X191811200Y-108127600D03*
X194351200Y-108127600D03*
X196891200Y-108127600D03*
X199431200Y-108127600D03*
X199431200Y-100507600D03*
X196891200Y-100507600D03*
X194351200Y-100507600D03*
X191811200Y-100507600D03*
X189271200Y-100507600D03*
X186731200Y-100507600D03*
X184191200Y-100507600D03*
X181651200Y-100507600D03*
%TD*%
D11*
%TO.C,C101*%
X253363200Y-47973200D03*
D18*
X255863200Y-47973200D03*
%TD*%
D10*
%TO.C,H1*%
X79756000Y-31750000D03*
%TD*%
D11*
%TO.C,IC123*%
X206975000Y-98120000D03*
D12*
X209515000Y-98120000D03*
X212055000Y-98120000D03*
X214595000Y-98120000D03*
X217135000Y-98120000D03*
X219675000Y-98120000D03*
X222215000Y-98120000D03*
X224755000Y-98120000D03*
X224755000Y-90500000D03*
X222215000Y-90500000D03*
X219675000Y-90500000D03*
X217135000Y-90500000D03*
X214595000Y-90500000D03*
X212055000Y-90500000D03*
X209515000Y-90500000D03*
X206975000Y-90500000D03*
%TD*%
%TO.C,IC102*%
X23150000Y-53100000D03*
X25690000Y-53100000D03*
X28230000Y-53100000D03*
X30770000Y-53100000D03*
X33310000Y-53100000D03*
X35850000Y-53100000D03*
X38390000Y-53100000D03*
X40930000Y-53100000D03*
X43470000Y-53100000D03*
X46010000Y-53100000D03*
X48550000Y-53100000D03*
X51090000Y-53100000D03*
X53630000Y-53100000D03*
X56170000Y-53100000D03*
X56170000Y-68340000D03*
X53630000Y-68340000D03*
X51090000Y-68340000D03*
X48550000Y-68340000D03*
X46010000Y-68340000D03*
X43470000Y-68340000D03*
X40930000Y-68340000D03*
X38390000Y-68340000D03*
X35850000Y-68340000D03*
X33310000Y-68340000D03*
X30770000Y-68340000D03*
X28230000Y-68340000D03*
X25690000Y-68340000D03*
D11*
X23150000Y-68340000D03*
%TD*%
D15*
%TO.C,J900*%
X223525000Y-63063200D03*
D16*
X223525000Y-65603200D03*
X220985000Y-63063200D03*
X220985000Y-65603200D03*
X218445000Y-63063200D03*
X218445000Y-65603200D03*
X215905000Y-63063200D03*
X215905000Y-65603200D03*
X213365000Y-63063200D03*
X213365000Y-65603200D03*
X210825000Y-63063200D03*
X210825000Y-65603200D03*
X208285000Y-63063200D03*
X208285000Y-65603200D03*
X205745000Y-63063200D03*
X205745000Y-65603200D03*
X203205000Y-63063200D03*
X203205000Y-65603200D03*
X200665000Y-63063200D03*
X200665000Y-65603200D03*
X198125000Y-63063200D03*
X198125000Y-65603200D03*
X195585000Y-63063200D03*
X195585000Y-65603200D03*
X193045000Y-63063200D03*
X193045000Y-65603200D03*
X190505000Y-63063200D03*
X190505000Y-65603200D03*
X187965000Y-63063200D03*
X187965000Y-65603200D03*
X185425000Y-63063200D03*
X185425000Y-65603200D03*
X182885000Y-63063200D03*
X182885000Y-65603200D03*
%TD*%
D30*
%TO.C,IC1250*%
X51905000Y-34750000D03*
D31*
X49365000Y-32210000D03*
X49365000Y-34750000D03*
X46825000Y-32210000D03*
X44285000Y-34750000D03*
X46825000Y-34750000D03*
X44285000Y-37290000D03*
X46825000Y-37290000D03*
X44285000Y-39830000D03*
X46825000Y-39830000D03*
X44285000Y-42370000D03*
X46825000Y-42370000D03*
X44285000Y-44910000D03*
X46825000Y-47450000D03*
X46825000Y-44910000D03*
X49365000Y-47450000D03*
X49365000Y-44910000D03*
X51905000Y-47450000D03*
X51905000Y-44910000D03*
X54445000Y-47450000D03*
X56985000Y-44910000D03*
X54445000Y-44910000D03*
X56985000Y-42370000D03*
X54445000Y-42370000D03*
X56985000Y-39830000D03*
X54445000Y-39830000D03*
X56985000Y-37290000D03*
X54445000Y-37290000D03*
X56985000Y-34750000D03*
X54445000Y-32210000D03*
X54445000Y-34750000D03*
X51905000Y-32210000D03*
%TD*%
D10*
%TO.C,H7*%
X123190000Y-82550000D03*
%TD*%
D11*
%TO.C,IC107*%
X64275000Y-58025000D03*
D12*
X66815000Y-58025000D03*
X69355000Y-58025000D03*
X71895000Y-58025000D03*
X74435000Y-58025000D03*
X76975000Y-58025000D03*
X79515000Y-58025000D03*
X82055000Y-58025000D03*
X84595000Y-58025000D03*
X87135000Y-58025000D03*
X89675000Y-58025000D03*
X92215000Y-58025000D03*
X94755000Y-58025000D03*
X97295000Y-58025000D03*
X99835000Y-58025000D03*
X102375000Y-58025000D03*
X104915000Y-58025000D03*
X107455000Y-58025000D03*
X109995000Y-58025000D03*
X112535000Y-58025000D03*
X112535000Y-42785000D03*
X109995000Y-42785000D03*
X107455000Y-42785000D03*
X104915000Y-42785000D03*
X102375000Y-42785000D03*
X99835000Y-42785000D03*
X97295000Y-42785000D03*
X94755000Y-42785000D03*
X92215000Y-42785000D03*
X89675000Y-42785000D03*
X87135000Y-42785000D03*
X84595000Y-42785000D03*
X82055000Y-42785000D03*
X79515000Y-42785000D03*
X76975000Y-42785000D03*
X74435000Y-42785000D03*
X71895000Y-42785000D03*
X69355000Y-42785000D03*
X66815000Y-42785000D03*
X64275000Y-42785000D03*
%TD*%
D11*
%TO.C,IC108*%
X79170000Y-78975000D03*
D12*
X81710000Y-78975000D03*
X84250000Y-78975000D03*
X86790000Y-78975000D03*
X89330000Y-78975000D03*
X91870000Y-78975000D03*
X94410000Y-78975000D03*
X96950000Y-78975000D03*
X99490000Y-78975000D03*
X102030000Y-78975000D03*
X104570000Y-78975000D03*
X107110000Y-78975000D03*
X109650000Y-78975000D03*
X112190000Y-78975000D03*
X114730000Y-78975000D03*
X117270000Y-78975000D03*
X119810000Y-78975000D03*
X122350000Y-78975000D03*
X124890000Y-78975000D03*
X127430000Y-78975000D03*
X127430000Y-63735000D03*
X124890000Y-63735000D03*
X122350000Y-63735000D03*
X119810000Y-63735000D03*
X117270000Y-63735000D03*
X114730000Y-63735000D03*
X112190000Y-63735000D03*
X109650000Y-63735000D03*
X107110000Y-63735000D03*
X104570000Y-63735000D03*
X102030000Y-63735000D03*
X99490000Y-63735000D03*
X96950000Y-63735000D03*
X94410000Y-63735000D03*
X91870000Y-63735000D03*
X89330000Y-63735000D03*
X86790000Y-63735000D03*
X84250000Y-63735000D03*
X81710000Y-63735000D03*
X79170000Y-63735000D03*
%TD*%
D11*
%TO.C,IC124*%
X206975000Y-108143000D03*
D12*
X209515000Y-108143000D03*
X212055000Y-108143000D03*
X214595000Y-108143000D03*
X217135000Y-108143000D03*
X219675000Y-108143000D03*
X222215000Y-108143000D03*
X224755000Y-108143000D03*
X224755000Y-100523000D03*
X222215000Y-100523000D03*
X219675000Y-100523000D03*
X217135000Y-100523000D03*
X214595000Y-100523000D03*
X212055000Y-100523000D03*
X209515000Y-100523000D03*
X206975000Y-100523000D03*
%TD*%
D32*
%TO.C,J104*%
X255398800Y-41400200D03*
D33*
X255398800Y-35400200D03*
D34*
X250698800Y-38400200D03*
%TD*%
M02*
