%TF.GenerationSoftware,KiCad,Pcbnew,7.0.1*%
%TF.CreationDate,2023-03-15T00:19:44+00:00*%
%TF.ProjectId,CPC464-2MINI,43504334-3634-42d3-924d-494e492e6b69,rev?*%
%TF.SameCoordinates,Original*%
%TF.FileFunction,Legend,Bot*%
%TF.FilePolarity,Positive*%
%FSLAX46Y46*%
G04 Gerber Fmt 4.6, Leading zero omitted, Abs format (unit mm)*
G04 Created by KiCad (PCBNEW 7.0.1) date 2023-03-15 00:19:44*
%MOMM*%
%LPD*%
G01*
G04 APERTURE LIST*
%ADD10C,0.150000*%
G04 APERTURE END LIST*
D10*
X47432478Y-110409819D02*
X46861050Y-110409819D01*
X47146764Y-111409819D02*
X47146764Y-110409819D01*
X46527716Y-111409819D02*
X46527716Y-110409819D01*
X46099145Y-111409819D02*
X46099145Y-110886009D01*
X46099145Y-110886009D02*
X46146764Y-110790771D01*
X46146764Y-110790771D02*
X46242002Y-110743152D01*
X46242002Y-110743152D02*
X46384859Y-110743152D01*
X46384859Y-110743152D02*
X46480097Y-110790771D01*
X46480097Y-110790771D02*
X46527716Y-110838390D01*
X45194383Y-111409819D02*
X45194383Y-110886009D01*
X45194383Y-110886009D02*
X45242002Y-110790771D01*
X45242002Y-110790771D02*
X45337240Y-110743152D01*
X45337240Y-110743152D02*
X45527716Y-110743152D01*
X45527716Y-110743152D02*
X45622954Y-110790771D01*
X45194383Y-111362200D02*
X45289621Y-111409819D01*
X45289621Y-111409819D02*
X45527716Y-111409819D01*
X45527716Y-111409819D02*
X45622954Y-111362200D01*
X45622954Y-111362200D02*
X45670573Y-111266961D01*
X45670573Y-111266961D02*
X45670573Y-111171723D01*
X45670573Y-111171723D02*
X45622954Y-111076485D01*
X45622954Y-111076485D02*
X45527716Y-111028866D01*
X45527716Y-111028866D02*
X45289621Y-111028866D01*
X45289621Y-111028866D02*
X45194383Y-110981247D01*
X44718192Y-110743152D02*
X44718192Y-111409819D01*
X44718192Y-110838390D02*
X44670573Y-110790771D01*
X44670573Y-110790771D02*
X44575335Y-110743152D01*
X44575335Y-110743152D02*
X44432478Y-110743152D01*
X44432478Y-110743152D02*
X44337240Y-110790771D01*
X44337240Y-110790771D02*
X44289621Y-110886009D01*
X44289621Y-110886009D02*
X44289621Y-111409819D01*
X43813430Y-111409819D02*
X43813430Y-110409819D01*
X43718192Y-111028866D02*
X43432478Y-111409819D01*
X43432478Y-110743152D02*
X43813430Y-111124104D01*
X43051525Y-111362200D02*
X42956287Y-111409819D01*
X42956287Y-111409819D02*
X42765811Y-111409819D01*
X42765811Y-111409819D02*
X42670573Y-111362200D01*
X42670573Y-111362200D02*
X42622954Y-111266961D01*
X42622954Y-111266961D02*
X42622954Y-111219342D01*
X42622954Y-111219342D02*
X42670573Y-111124104D01*
X42670573Y-111124104D02*
X42765811Y-111076485D01*
X42765811Y-111076485D02*
X42908668Y-111076485D01*
X42908668Y-111076485D02*
X43003906Y-111028866D01*
X43003906Y-111028866D02*
X43051525Y-110933628D01*
X43051525Y-110933628D02*
X43051525Y-110886009D01*
X43051525Y-110886009D02*
X43003906Y-110790771D01*
X43003906Y-110790771D02*
X42908668Y-110743152D01*
X42908668Y-110743152D02*
X42765811Y-110743152D01*
X42765811Y-110743152D02*
X42670573Y-110790771D01*
X41575334Y-110743152D02*
X41194382Y-110743152D01*
X41432477Y-110409819D02*
X41432477Y-111266961D01*
X41432477Y-111266961D02*
X41384858Y-111362200D01*
X41384858Y-111362200D02*
X41289620Y-111409819D01*
X41289620Y-111409819D02*
X41194382Y-111409819D01*
X40718191Y-111409819D02*
X40813429Y-111362200D01*
X40813429Y-111362200D02*
X40861048Y-111314580D01*
X40861048Y-111314580D02*
X40908667Y-111219342D01*
X40908667Y-111219342D02*
X40908667Y-110933628D01*
X40908667Y-110933628D02*
X40861048Y-110838390D01*
X40861048Y-110838390D02*
X40813429Y-110790771D01*
X40813429Y-110790771D02*
X40718191Y-110743152D01*
X40718191Y-110743152D02*
X40575334Y-110743152D01*
X40575334Y-110743152D02*
X40480096Y-110790771D01*
X40480096Y-110790771D02*
X40432477Y-110838390D01*
X40432477Y-110838390D02*
X40384858Y-110933628D01*
X40384858Y-110933628D02*
X40384858Y-111219342D01*
X40384858Y-111219342D02*
X40432477Y-111314580D01*
X40432477Y-111314580D02*
X40480096Y-111362200D01*
X40480096Y-111362200D02*
X40575334Y-111409819D01*
X40575334Y-111409819D02*
X40718191Y-111409819D01*
X38622953Y-111409819D02*
X38956286Y-110933628D01*
X39194381Y-111409819D02*
X39194381Y-110409819D01*
X39194381Y-110409819D02*
X38813429Y-110409819D01*
X38813429Y-110409819D02*
X38718191Y-110457438D01*
X38718191Y-110457438D02*
X38670572Y-110505057D01*
X38670572Y-110505057D02*
X38622953Y-110600295D01*
X38622953Y-110600295D02*
X38622953Y-110743152D01*
X38622953Y-110743152D02*
X38670572Y-110838390D01*
X38670572Y-110838390D02*
X38718191Y-110886009D01*
X38718191Y-110886009D02*
X38813429Y-110933628D01*
X38813429Y-110933628D02*
X39194381Y-110933628D01*
X38051524Y-111409819D02*
X38146762Y-111362200D01*
X38146762Y-111362200D02*
X38194381Y-111314580D01*
X38194381Y-111314580D02*
X38242000Y-111219342D01*
X38242000Y-111219342D02*
X38242000Y-110933628D01*
X38242000Y-110933628D02*
X38194381Y-110838390D01*
X38194381Y-110838390D02*
X38146762Y-110790771D01*
X38146762Y-110790771D02*
X38051524Y-110743152D01*
X38051524Y-110743152D02*
X37908667Y-110743152D01*
X37908667Y-110743152D02*
X37813429Y-110790771D01*
X37813429Y-110790771D02*
X37765810Y-110838390D01*
X37765810Y-110838390D02*
X37718191Y-110933628D01*
X37718191Y-110933628D02*
X37718191Y-111219342D01*
X37718191Y-111219342D02*
X37765810Y-111314580D01*
X37765810Y-111314580D02*
X37813429Y-111362200D01*
X37813429Y-111362200D02*
X37908667Y-111409819D01*
X37908667Y-111409819D02*
X38051524Y-111409819D01*
X37289619Y-111409819D02*
X37289619Y-110409819D01*
X37289619Y-110790771D02*
X37194381Y-110743152D01*
X37194381Y-110743152D02*
X37003905Y-110743152D01*
X37003905Y-110743152D02*
X36908667Y-110790771D01*
X36908667Y-110790771D02*
X36861048Y-110838390D01*
X36861048Y-110838390D02*
X36813429Y-110933628D01*
X36813429Y-110933628D02*
X36813429Y-111219342D01*
X36813429Y-111219342D02*
X36861048Y-111314580D01*
X36861048Y-111314580D02*
X36908667Y-111362200D01*
X36908667Y-111362200D02*
X37003905Y-111409819D01*
X37003905Y-111409819D02*
X37194381Y-111409819D01*
X37194381Y-111409819D02*
X37289619Y-111362200D01*
X35670571Y-110409819D02*
X35670571Y-110600295D01*
X35289619Y-110409819D02*
X35289619Y-110600295D01*
X34861047Y-111409819D02*
X34861047Y-110409819D01*
X34861047Y-110409819D02*
X34480095Y-110409819D01*
X34480095Y-110409819D02*
X34384857Y-110457438D01*
X34384857Y-110457438D02*
X34337238Y-110505057D01*
X34337238Y-110505057D02*
X34289619Y-110600295D01*
X34289619Y-110600295D02*
X34289619Y-110743152D01*
X34289619Y-110743152D02*
X34337238Y-110838390D01*
X34337238Y-110838390D02*
X34384857Y-110886009D01*
X34384857Y-110886009D02*
X34480095Y-110933628D01*
X34480095Y-110933628D02*
X34861047Y-110933628D01*
X33480095Y-111362200D02*
X33575333Y-111409819D01*
X33575333Y-111409819D02*
X33765809Y-111409819D01*
X33765809Y-111409819D02*
X33861047Y-111362200D01*
X33861047Y-111362200D02*
X33908666Y-111266961D01*
X33908666Y-111266961D02*
X33908666Y-110886009D01*
X33908666Y-110886009D02*
X33861047Y-110790771D01*
X33861047Y-110790771D02*
X33765809Y-110743152D01*
X33765809Y-110743152D02*
X33575333Y-110743152D01*
X33575333Y-110743152D02*
X33480095Y-110790771D01*
X33480095Y-110790771D02*
X33432476Y-110886009D01*
X33432476Y-110886009D02*
X33432476Y-110981247D01*
X33432476Y-110981247D02*
X33908666Y-111076485D01*
X32622952Y-111362200D02*
X32718190Y-111409819D01*
X32718190Y-111409819D02*
X32908666Y-111409819D01*
X32908666Y-111409819D02*
X33003904Y-111362200D01*
X33003904Y-111362200D02*
X33051523Y-111266961D01*
X33051523Y-111266961D02*
X33051523Y-110886009D01*
X33051523Y-110886009D02*
X33003904Y-110790771D01*
X33003904Y-110790771D02*
X32908666Y-110743152D01*
X32908666Y-110743152D02*
X32718190Y-110743152D01*
X32718190Y-110743152D02*
X32622952Y-110790771D01*
X32622952Y-110790771D02*
X32575333Y-110886009D01*
X32575333Y-110886009D02*
X32575333Y-110981247D01*
X32575333Y-110981247D02*
X33051523Y-111076485D01*
X32146761Y-110743152D02*
X32146761Y-111743152D01*
X32146761Y-110790771D02*
X32051523Y-110743152D01*
X32051523Y-110743152D02*
X31861047Y-110743152D01*
X31861047Y-110743152D02*
X31765809Y-110790771D01*
X31765809Y-110790771D02*
X31718190Y-110838390D01*
X31718190Y-110838390D02*
X31670571Y-110933628D01*
X31670571Y-110933628D02*
X31670571Y-111219342D01*
X31670571Y-111219342D02*
X31718190Y-111314580D01*
X31718190Y-111314580D02*
X31765809Y-111362200D01*
X31765809Y-111362200D02*
X31861047Y-111409819D01*
X31861047Y-111409819D02*
X32051523Y-111409819D01*
X32051523Y-111409819D02*
X32146761Y-111362200D01*
X31099142Y-111409819D02*
X31194380Y-111362200D01*
X31194380Y-111362200D02*
X31241999Y-111314580D01*
X31241999Y-111314580D02*
X31289618Y-111219342D01*
X31289618Y-111219342D02*
X31289618Y-110933628D01*
X31289618Y-110933628D02*
X31241999Y-110838390D01*
X31241999Y-110838390D02*
X31194380Y-110790771D01*
X31194380Y-110790771D02*
X31099142Y-110743152D01*
X31099142Y-110743152D02*
X30956285Y-110743152D01*
X30956285Y-110743152D02*
X30861047Y-110790771D01*
X30861047Y-110790771D02*
X30813428Y-110838390D01*
X30813428Y-110838390D02*
X30765809Y-110933628D01*
X30765809Y-110933628D02*
X30765809Y-111219342D01*
X30765809Y-111219342D02*
X30813428Y-111314580D01*
X30813428Y-111314580D02*
X30861047Y-111362200D01*
X30861047Y-111362200D02*
X30956285Y-111409819D01*
X30956285Y-111409819D02*
X31099142Y-111409819D01*
X30384856Y-110409819D02*
X30384856Y-110600295D01*
X30003904Y-110409819D02*
X30003904Y-110600295D01*
X28956284Y-110409819D02*
X28384856Y-110409819D01*
X28670570Y-111409819D02*
X28670570Y-110409819D01*
X27622951Y-111409819D02*
X27622951Y-110886009D01*
X27622951Y-110886009D02*
X27670570Y-110790771D01*
X27670570Y-110790771D02*
X27765808Y-110743152D01*
X27765808Y-110743152D02*
X27956284Y-110743152D01*
X27956284Y-110743152D02*
X28051522Y-110790771D01*
X27622951Y-111362200D02*
X27718189Y-111409819D01*
X27718189Y-111409819D02*
X27956284Y-111409819D01*
X27956284Y-111409819D02*
X28051522Y-111362200D01*
X28051522Y-111362200D02*
X28099141Y-111266961D01*
X28099141Y-111266961D02*
X28099141Y-111171723D01*
X28099141Y-111171723D02*
X28051522Y-111076485D01*
X28051522Y-111076485D02*
X27956284Y-111028866D01*
X27956284Y-111028866D02*
X27718189Y-111028866D01*
X27718189Y-111028866D02*
X27622951Y-110981247D01*
X27241998Y-110743152D02*
X27003903Y-111409819D01*
X26765808Y-110743152D02*
X27003903Y-111409819D01*
X27003903Y-111409819D02*
X27099141Y-111647914D01*
X27099141Y-111647914D02*
X27146760Y-111695533D01*
X27146760Y-111695533D02*
X27241998Y-111743152D01*
X26241998Y-111409819D02*
X26337236Y-111362200D01*
X26337236Y-111362200D02*
X26384855Y-111266961D01*
X26384855Y-111266961D02*
X26384855Y-110409819D01*
X25718188Y-111409819D02*
X25813426Y-111362200D01*
X25813426Y-111362200D02*
X25861045Y-111314580D01*
X25861045Y-111314580D02*
X25908664Y-111219342D01*
X25908664Y-111219342D02*
X25908664Y-110933628D01*
X25908664Y-110933628D02*
X25861045Y-110838390D01*
X25861045Y-110838390D02*
X25813426Y-110790771D01*
X25813426Y-110790771D02*
X25718188Y-110743152D01*
X25718188Y-110743152D02*
X25575331Y-110743152D01*
X25575331Y-110743152D02*
X25480093Y-110790771D01*
X25480093Y-110790771D02*
X25432474Y-110838390D01*
X25432474Y-110838390D02*
X25384855Y-110933628D01*
X25384855Y-110933628D02*
X25384855Y-111219342D01*
X25384855Y-111219342D02*
X25432474Y-111314580D01*
X25432474Y-111314580D02*
X25480093Y-111362200D01*
X25480093Y-111362200D02*
X25575331Y-111409819D01*
X25575331Y-111409819D02*
X25718188Y-111409819D01*
X24956283Y-111409819D02*
X24956283Y-110743152D01*
X24956283Y-110933628D02*
X24908664Y-110838390D01*
X24908664Y-110838390D02*
X24861045Y-110790771D01*
X24861045Y-110790771D02*
X24765807Y-110743152D01*
X24765807Y-110743152D02*
X24670569Y-110743152D01*
X23146759Y-111409819D02*
X23146759Y-110886009D01*
X23146759Y-110886009D02*
X23194378Y-110790771D01*
X23194378Y-110790771D02*
X23289616Y-110743152D01*
X23289616Y-110743152D02*
X23480092Y-110743152D01*
X23480092Y-110743152D02*
X23575330Y-110790771D01*
X23146759Y-111362200D02*
X23241997Y-111409819D01*
X23241997Y-111409819D02*
X23480092Y-111409819D01*
X23480092Y-111409819D02*
X23575330Y-111362200D01*
X23575330Y-111362200D02*
X23622949Y-111266961D01*
X23622949Y-111266961D02*
X23622949Y-111171723D01*
X23622949Y-111171723D02*
X23575330Y-111076485D01*
X23575330Y-111076485D02*
X23480092Y-111028866D01*
X23480092Y-111028866D02*
X23241997Y-111028866D01*
X23241997Y-111028866D02*
X23146759Y-110981247D01*
X22670568Y-110743152D02*
X22670568Y-111409819D01*
X22670568Y-110838390D02*
X22622949Y-110790771D01*
X22622949Y-110790771D02*
X22527711Y-110743152D01*
X22527711Y-110743152D02*
X22384854Y-110743152D01*
X22384854Y-110743152D02*
X22289616Y-110790771D01*
X22289616Y-110790771D02*
X22241997Y-110886009D01*
X22241997Y-110886009D02*
X22241997Y-111409819D01*
X21337235Y-111409819D02*
X21337235Y-110409819D01*
X21337235Y-111362200D02*
X21432473Y-111409819D01*
X21432473Y-111409819D02*
X21622949Y-111409819D01*
X21622949Y-111409819D02*
X21718187Y-111362200D01*
X21718187Y-111362200D02*
X21765806Y-111314580D01*
X21765806Y-111314580D02*
X21813425Y-111219342D01*
X21813425Y-111219342D02*
X21813425Y-110933628D01*
X21813425Y-110933628D02*
X21765806Y-110838390D01*
X21765806Y-110838390D02*
X21718187Y-110790771D01*
X21718187Y-110790771D02*
X21622949Y-110743152D01*
X21622949Y-110743152D02*
X21432473Y-110743152D01*
X21432473Y-110743152D02*
X21337235Y-110790771D01*
X19527711Y-111314580D02*
X19575330Y-111362200D01*
X19575330Y-111362200D02*
X19718187Y-111409819D01*
X19718187Y-111409819D02*
X19813425Y-111409819D01*
X19813425Y-111409819D02*
X19956282Y-111362200D01*
X19956282Y-111362200D02*
X20051520Y-111266961D01*
X20051520Y-111266961D02*
X20099139Y-111171723D01*
X20099139Y-111171723D02*
X20146758Y-110981247D01*
X20146758Y-110981247D02*
X20146758Y-110838390D01*
X20146758Y-110838390D02*
X20099139Y-110647914D01*
X20099139Y-110647914D02*
X20051520Y-110552676D01*
X20051520Y-110552676D02*
X19956282Y-110457438D01*
X19956282Y-110457438D02*
X19813425Y-110409819D01*
X19813425Y-110409819D02*
X19718187Y-110409819D01*
X19718187Y-110409819D02*
X19575330Y-110457438D01*
X19575330Y-110457438D02*
X19527711Y-110505057D01*
X19099139Y-111409819D02*
X19099139Y-110409819D01*
X18670568Y-111409819D02*
X18670568Y-110886009D01*
X18670568Y-110886009D02*
X18718187Y-110790771D01*
X18718187Y-110790771D02*
X18813425Y-110743152D01*
X18813425Y-110743152D02*
X18956282Y-110743152D01*
X18956282Y-110743152D02*
X19051520Y-110790771D01*
X19051520Y-110790771D02*
X19099139Y-110838390D01*
X18194377Y-111409819D02*
X18194377Y-110743152D01*
X18194377Y-110933628D02*
X18146758Y-110838390D01*
X18146758Y-110838390D02*
X18099139Y-110790771D01*
X18099139Y-110790771D02*
X18003901Y-110743152D01*
X18003901Y-110743152D02*
X17908663Y-110743152D01*
X17575329Y-111409819D02*
X17575329Y-110743152D01*
X17575329Y-110409819D02*
X17622948Y-110457438D01*
X17622948Y-110457438D02*
X17575329Y-110505057D01*
X17575329Y-110505057D02*
X17527710Y-110457438D01*
X17527710Y-110457438D02*
X17575329Y-110409819D01*
X17575329Y-110409819D02*
X17575329Y-110505057D01*
X17146758Y-111362200D02*
X17051520Y-111409819D01*
X17051520Y-111409819D02*
X16861044Y-111409819D01*
X16861044Y-111409819D02*
X16765806Y-111362200D01*
X16765806Y-111362200D02*
X16718187Y-111266961D01*
X16718187Y-111266961D02*
X16718187Y-111219342D01*
X16718187Y-111219342D02*
X16765806Y-111124104D01*
X16765806Y-111124104D02*
X16861044Y-111076485D01*
X16861044Y-111076485D02*
X17003901Y-111076485D01*
X17003901Y-111076485D02*
X17099139Y-111028866D01*
X17099139Y-111028866D02*
X17146758Y-110933628D01*
X17146758Y-110933628D02*
X17146758Y-110886009D01*
X17146758Y-110886009D02*
X17099139Y-110790771D01*
X17099139Y-110790771D02*
X17003901Y-110743152D01*
X17003901Y-110743152D02*
X16861044Y-110743152D01*
X16861044Y-110743152D02*
X16765806Y-110790771D01*
X16337234Y-111362200D02*
X16241996Y-111409819D01*
X16241996Y-111409819D02*
X16051520Y-111409819D01*
X16051520Y-111409819D02*
X15956282Y-111362200D01*
X15956282Y-111362200D02*
X15908663Y-111266961D01*
X15908663Y-111266961D02*
X15908663Y-111219342D01*
X15908663Y-111219342D02*
X15956282Y-111124104D01*
X15956282Y-111124104D02*
X16051520Y-111076485D01*
X16051520Y-111076485D02*
X16194377Y-111076485D01*
X16194377Y-111076485D02*
X16289615Y-111028866D01*
X16289615Y-111028866D02*
X16337234Y-110933628D01*
X16337234Y-110933628D02*
X16337234Y-110886009D01*
X16337234Y-110886009D02*
X16289615Y-110790771D01*
X16289615Y-110790771D02*
X16194377Y-110743152D01*
X16194377Y-110743152D02*
X16051520Y-110743152D01*
X16051520Y-110743152D02*
X15956282Y-110790771D01*
X15575329Y-110743152D02*
X15337234Y-111409819D01*
X15099139Y-110743152D02*
X15337234Y-111409819D01*
X15337234Y-111409819D02*
X15432472Y-111647914D01*
X15432472Y-111647914D02*
X15480091Y-111695533D01*
X15480091Y-111695533D02*
X15575329Y-111743152D01*
M02*
