%TF.GenerationSoftware,KiCad,Pcbnew,7.0.1*%
%TF.CreationDate,2023-03-15T00:19:41+00:00*%
%TF.ProjectId,CPC464-2MINI,43504334-3634-42d3-924d-494e492e6b69,rev?*%
%TF.SameCoordinates,Original*%
%TF.FileFunction,Drillmap*%
%TF.FilePolarity,Positive*%
%FSLAX45Y45*%
G04 Gerber Fmt 4.5, Leading zero omitted, Abs format (unit mm)*
G04 Created by KiCad (PCBNEW 7.0.1) date 2023-03-15 00:19:41*
%MOMM*%
%LPD*%
G01*
G04 APERTURE LIST*
%ADD10C,0.100000*%
%ADD11C,0.200000*%
%ADD12C,0.120000*%
%ADD13C,0.240000*%
G04 APERTURE END LIST*
D10*
X1442720Y-2727960D02*
X26047700Y-2727960D01*
X26047700Y-11226000D01*
X1442720Y-11226000D01*
X1442720Y-2727960D01*
D11*
D12*
X2269560Y-2870080D02*
X2389560Y-2990080D01*
X2389560Y-2870080D02*
X2269560Y-2990080D01*
X2269560Y-3120080D02*
X2389560Y-3240080D01*
X2389560Y-3120080D02*
X2269560Y-3240080D01*
X2769560Y-3620080D02*
X2889560Y-3740080D01*
X2889560Y-3620080D02*
X2769560Y-3740080D01*
X3269560Y-2870080D02*
X3389560Y-2990080D01*
X3389560Y-2870080D02*
X3269560Y-2990080D01*
X3269560Y-3120080D02*
X3389560Y-3240080D01*
X3389560Y-3120080D02*
X3269560Y-3240080D01*
D13*
X23152750Y-3527320D02*
G75*
G03*
X23152750Y-3527320I-120000J0D01*
G01*
X24652750Y-3527320D02*
G75*
G03*
X24652750Y-3527320I-120000J0D01*
G01*
D11*
X1685339Y-11543524D02*
X1685339Y-11343524D01*
X1685339Y-11343524D02*
X1732958Y-11343524D01*
X1732958Y-11343524D02*
X1761529Y-11353048D01*
X1761529Y-11353048D02*
X1780577Y-11372095D01*
X1780577Y-11372095D02*
X1790101Y-11391143D01*
X1790101Y-11391143D02*
X1799625Y-11429238D01*
X1799625Y-11429238D02*
X1799625Y-11457809D01*
X1799625Y-11457809D02*
X1790101Y-11495905D01*
X1790101Y-11495905D02*
X1780577Y-11514952D01*
X1780577Y-11514952D02*
X1761529Y-11534000D01*
X1761529Y-11534000D02*
X1732958Y-11543524D01*
X1732958Y-11543524D02*
X1685339Y-11543524D01*
X1885339Y-11543524D02*
X1885339Y-11410190D01*
X1885339Y-11448286D02*
X1894863Y-11429238D01*
X1894863Y-11429238D02*
X1904387Y-11419714D01*
X1904387Y-11419714D02*
X1923434Y-11410190D01*
X1923434Y-11410190D02*
X1942482Y-11410190D01*
X2009148Y-11543524D02*
X2009148Y-11410190D01*
X2009148Y-11343524D02*
X1999625Y-11353048D01*
X1999625Y-11353048D02*
X2009148Y-11362571D01*
X2009148Y-11362571D02*
X2018672Y-11353048D01*
X2018672Y-11353048D02*
X2009148Y-11343524D01*
X2009148Y-11343524D02*
X2009148Y-11362571D01*
X2132958Y-11543524D02*
X2113910Y-11534000D01*
X2113910Y-11534000D02*
X2104387Y-11514952D01*
X2104387Y-11514952D02*
X2104387Y-11343524D01*
X2237720Y-11543524D02*
X2218672Y-11534000D01*
X2218672Y-11534000D02*
X2209149Y-11514952D01*
X2209149Y-11514952D02*
X2209149Y-11343524D01*
X2466291Y-11543524D02*
X2466291Y-11343524D01*
X2466291Y-11343524D02*
X2532958Y-11486381D01*
X2532958Y-11486381D02*
X2599625Y-11343524D01*
X2599625Y-11343524D02*
X2599625Y-11543524D01*
X2780577Y-11543524D02*
X2780577Y-11438762D01*
X2780577Y-11438762D02*
X2771053Y-11419714D01*
X2771053Y-11419714D02*
X2752006Y-11410190D01*
X2752006Y-11410190D02*
X2713910Y-11410190D01*
X2713910Y-11410190D02*
X2694863Y-11419714D01*
X2780577Y-11534000D02*
X2761530Y-11543524D01*
X2761530Y-11543524D02*
X2713910Y-11543524D01*
X2713910Y-11543524D02*
X2694863Y-11534000D01*
X2694863Y-11534000D02*
X2685339Y-11514952D01*
X2685339Y-11514952D02*
X2685339Y-11495905D01*
X2685339Y-11495905D02*
X2694863Y-11476857D01*
X2694863Y-11476857D02*
X2713910Y-11467333D01*
X2713910Y-11467333D02*
X2761530Y-11467333D01*
X2761530Y-11467333D02*
X2780577Y-11457809D01*
X2875815Y-11410190D02*
X2875815Y-11610190D01*
X2875815Y-11419714D02*
X2894863Y-11410190D01*
X2894863Y-11410190D02*
X2932958Y-11410190D01*
X2932958Y-11410190D02*
X2952006Y-11419714D01*
X2952006Y-11419714D02*
X2961529Y-11429238D01*
X2961529Y-11429238D02*
X2971053Y-11448286D01*
X2971053Y-11448286D02*
X2971053Y-11505428D01*
X2971053Y-11505428D02*
X2961529Y-11524476D01*
X2961529Y-11524476D02*
X2952006Y-11534000D01*
X2952006Y-11534000D02*
X2932958Y-11543524D01*
X2932958Y-11543524D02*
X2894863Y-11543524D01*
X2894863Y-11543524D02*
X2875815Y-11534000D01*
X3056768Y-11524476D02*
X3066291Y-11534000D01*
X3066291Y-11534000D02*
X3056768Y-11543524D01*
X3056768Y-11543524D02*
X3047244Y-11534000D01*
X3047244Y-11534000D02*
X3056768Y-11524476D01*
X3056768Y-11524476D02*
X3056768Y-11543524D01*
X3056768Y-11419714D02*
X3066291Y-11429238D01*
X3066291Y-11429238D02*
X3056768Y-11438762D01*
X3056768Y-11438762D02*
X3047244Y-11429238D01*
X3047244Y-11429238D02*
X3056768Y-11419714D01*
X3056768Y-11419714D02*
X3056768Y-11438762D01*
D12*
X1317720Y-11811000D02*
X1437720Y-11931000D01*
X1437720Y-11811000D02*
X1317720Y-11931000D01*
D11*
X1790101Y-11963524D02*
X1675815Y-11963524D01*
X1732958Y-11963524D02*
X1732958Y-11763524D01*
X1732958Y-11763524D02*
X1713910Y-11792095D01*
X1713910Y-11792095D02*
X1694863Y-11811143D01*
X1694863Y-11811143D02*
X1675815Y-11820667D01*
X1875815Y-11944476D02*
X1885339Y-11954000D01*
X1885339Y-11954000D02*
X1875815Y-11963524D01*
X1875815Y-11963524D02*
X1866291Y-11954000D01*
X1866291Y-11954000D02*
X1875815Y-11944476D01*
X1875815Y-11944476D02*
X1875815Y-11963524D01*
X1961529Y-11782571D02*
X1971053Y-11773048D01*
X1971053Y-11773048D02*
X1990101Y-11763524D01*
X1990101Y-11763524D02*
X2037720Y-11763524D01*
X2037720Y-11763524D02*
X2056768Y-11773048D01*
X2056768Y-11773048D02*
X2066291Y-11782571D01*
X2066291Y-11782571D02*
X2075815Y-11801619D01*
X2075815Y-11801619D02*
X2075815Y-11820667D01*
X2075815Y-11820667D02*
X2066291Y-11849238D01*
X2066291Y-11849238D02*
X1952006Y-11963524D01*
X1952006Y-11963524D02*
X2075815Y-11963524D01*
X2199625Y-11763524D02*
X2218672Y-11763524D01*
X2218672Y-11763524D02*
X2237720Y-11773048D01*
X2237720Y-11773048D02*
X2247244Y-11782571D01*
X2247244Y-11782571D02*
X2256768Y-11801619D01*
X2256768Y-11801619D02*
X2266291Y-11839714D01*
X2266291Y-11839714D02*
X2266291Y-11887333D01*
X2266291Y-11887333D02*
X2256768Y-11925428D01*
X2256768Y-11925428D02*
X2247244Y-11944476D01*
X2247244Y-11944476D02*
X2237720Y-11954000D01*
X2237720Y-11954000D02*
X2218672Y-11963524D01*
X2218672Y-11963524D02*
X2199625Y-11963524D01*
X2199625Y-11963524D02*
X2180577Y-11954000D01*
X2180577Y-11954000D02*
X2171053Y-11944476D01*
X2171053Y-11944476D02*
X2161530Y-11925428D01*
X2161530Y-11925428D02*
X2152006Y-11887333D01*
X2152006Y-11887333D02*
X2152006Y-11839714D01*
X2152006Y-11839714D02*
X2161530Y-11801619D01*
X2161530Y-11801619D02*
X2171053Y-11782571D01*
X2171053Y-11782571D02*
X2180577Y-11773048D01*
X2180577Y-11773048D02*
X2199625Y-11763524D01*
X2390101Y-11763524D02*
X2409149Y-11763524D01*
X2409149Y-11763524D02*
X2428196Y-11773048D01*
X2428196Y-11773048D02*
X2437720Y-11782571D01*
X2437720Y-11782571D02*
X2447244Y-11801619D01*
X2447244Y-11801619D02*
X2456768Y-11839714D01*
X2456768Y-11839714D02*
X2456768Y-11887333D01*
X2456768Y-11887333D02*
X2447244Y-11925428D01*
X2447244Y-11925428D02*
X2437720Y-11944476D01*
X2437720Y-11944476D02*
X2428196Y-11954000D01*
X2428196Y-11954000D02*
X2409149Y-11963524D01*
X2409149Y-11963524D02*
X2390101Y-11963524D01*
X2390101Y-11963524D02*
X2371053Y-11954000D01*
X2371053Y-11954000D02*
X2361530Y-11944476D01*
X2361530Y-11944476D02*
X2352006Y-11925428D01*
X2352006Y-11925428D02*
X2342482Y-11887333D01*
X2342482Y-11887333D02*
X2342482Y-11839714D01*
X2342482Y-11839714D02*
X2352006Y-11801619D01*
X2352006Y-11801619D02*
X2361530Y-11782571D01*
X2361530Y-11782571D02*
X2371053Y-11773048D01*
X2371053Y-11773048D02*
X2390101Y-11763524D01*
X2542482Y-11963524D02*
X2542482Y-11830190D01*
X2542482Y-11849238D02*
X2552006Y-11839714D01*
X2552006Y-11839714D02*
X2571053Y-11830190D01*
X2571053Y-11830190D02*
X2599625Y-11830190D01*
X2599625Y-11830190D02*
X2618672Y-11839714D01*
X2618672Y-11839714D02*
X2628196Y-11858762D01*
X2628196Y-11858762D02*
X2628196Y-11963524D01*
X2628196Y-11858762D02*
X2637720Y-11839714D01*
X2637720Y-11839714D02*
X2656768Y-11830190D01*
X2656768Y-11830190D02*
X2685339Y-11830190D01*
X2685339Y-11830190D02*
X2704387Y-11839714D01*
X2704387Y-11839714D02*
X2713911Y-11858762D01*
X2713911Y-11858762D02*
X2713911Y-11963524D01*
X2809149Y-11963524D02*
X2809149Y-11830190D01*
X2809149Y-11849238D02*
X2818672Y-11839714D01*
X2818672Y-11839714D02*
X2837720Y-11830190D01*
X2837720Y-11830190D02*
X2866291Y-11830190D01*
X2866291Y-11830190D02*
X2885339Y-11839714D01*
X2885339Y-11839714D02*
X2894863Y-11858762D01*
X2894863Y-11858762D02*
X2894863Y-11963524D01*
X2894863Y-11858762D02*
X2904387Y-11839714D01*
X2904387Y-11839714D02*
X2923434Y-11830190D01*
X2923434Y-11830190D02*
X2952006Y-11830190D01*
X2952006Y-11830190D02*
X2971053Y-11839714D01*
X2971053Y-11839714D02*
X2980577Y-11858762D01*
X2980577Y-11858762D02*
X2980577Y-11963524D01*
X3371053Y-11754000D02*
X3199625Y-12011143D01*
X3628196Y-11763524D02*
X3647244Y-11763524D01*
X3647244Y-11763524D02*
X3666292Y-11773048D01*
X3666292Y-11773048D02*
X3675815Y-11782571D01*
X3675815Y-11782571D02*
X3685339Y-11801619D01*
X3685339Y-11801619D02*
X3694863Y-11839714D01*
X3694863Y-11839714D02*
X3694863Y-11887333D01*
X3694863Y-11887333D02*
X3685339Y-11925428D01*
X3685339Y-11925428D02*
X3675815Y-11944476D01*
X3675815Y-11944476D02*
X3666292Y-11954000D01*
X3666292Y-11954000D02*
X3647244Y-11963524D01*
X3647244Y-11963524D02*
X3628196Y-11963524D01*
X3628196Y-11963524D02*
X3609149Y-11954000D01*
X3609149Y-11954000D02*
X3599625Y-11944476D01*
X3599625Y-11944476D02*
X3590101Y-11925428D01*
X3590101Y-11925428D02*
X3580577Y-11887333D01*
X3580577Y-11887333D02*
X3580577Y-11839714D01*
X3580577Y-11839714D02*
X3590101Y-11801619D01*
X3590101Y-11801619D02*
X3599625Y-11782571D01*
X3599625Y-11782571D02*
X3609149Y-11773048D01*
X3609149Y-11773048D02*
X3628196Y-11763524D01*
X3780577Y-11944476D02*
X3790101Y-11954000D01*
X3790101Y-11954000D02*
X3780577Y-11963524D01*
X3780577Y-11963524D02*
X3771053Y-11954000D01*
X3771053Y-11954000D02*
X3780577Y-11944476D01*
X3780577Y-11944476D02*
X3780577Y-11963524D01*
X3913911Y-11763524D02*
X3932958Y-11763524D01*
X3932958Y-11763524D02*
X3952006Y-11773048D01*
X3952006Y-11773048D02*
X3961530Y-11782571D01*
X3961530Y-11782571D02*
X3971053Y-11801619D01*
X3971053Y-11801619D02*
X3980577Y-11839714D01*
X3980577Y-11839714D02*
X3980577Y-11887333D01*
X3980577Y-11887333D02*
X3971053Y-11925428D01*
X3971053Y-11925428D02*
X3961530Y-11944476D01*
X3961530Y-11944476D02*
X3952006Y-11954000D01*
X3952006Y-11954000D02*
X3932958Y-11963524D01*
X3932958Y-11963524D02*
X3913911Y-11963524D01*
X3913911Y-11963524D02*
X3894863Y-11954000D01*
X3894863Y-11954000D02*
X3885339Y-11944476D01*
X3885339Y-11944476D02*
X3875815Y-11925428D01*
X3875815Y-11925428D02*
X3866292Y-11887333D01*
X3866292Y-11887333D02*
X3866292Y-11839714D01*
X3866292Y-11839714D02*
X3875815Y-11801619D01*
X3875815Y-11801619D02*
X3885339Y-11782571D01*
X3885339Y-11782571D02*
X3894863Y-11773048D01*
X3894863Y-11773048D02*
X3913911Y-11763524D01*
X4152006Y-11830190D02*
X4152006Y-11963524D01*
X4104387Y-11754000D02*
X4056768Y-11896857D01*
X4056768Y-11896857D02*
X4180577Y-11896857D01*
X4237720Y-11763524D02*
X4371054Y-11763524D01*
X4371054Y-11763524D02*
X4285339Y-11963524D01*
X4437720Y-11782571D02*
X4447244Y-11773048D01*
X4447244Y-11773048D02*
X4466292Y-11763524D01*
X4466292Y-11763524D02*
X4513911Y-11763524D01*
X4513911Y-11763524D02*
X4532958Y-11773048D01*
X4532958Y-11773048D02*
X4542482Y-11782571D01*
X4542482Y-11782571D02*
X4552006Y-11801619D01*
X4552006Y-11801619D02*
X4552006Y-11820667D01*
X4552006Y-11820667D02*
X4542482Y-11849238D01*
X4542482Y-11849238D02*
X4428196Y-11963524D01*
X4428196Y-11963524D02*
X4552006Y-11963524D01*
X4628196Y-11763524D02*
X4628196Y-11801619D01*
X4704387Y-11763524D02*
X4704387Y-11801619D01*
X4999625Y-12039714D02*
X4990101Y-12030190D01*
X4990101Y-12030190D02*
X4971054Y-12001619D01*
X4971054Y-12001619D02*
X4961530Y-11982571D01*
X4961530Y-11982571D02*
X4952006Y-11954000D01*
X4952006Y-11954000D02*
X4942482Y-11906381D01*
X4942482Y-11906381D02*
X4942482Y-11868286D01*
X4942482Y-11868286D02*
X4952006Y-11820667D01*
X4952006Y-11820667D02*
X4961530Y-11792095D01*
X4961530Y-11792095D02*
X4971054Y-11773048D01*
X4971054Y-11773048D02*
X4990101Y-11744476D01*
X4990101Y-11744476D02*
X4999625Y-11734952D01*
X5171054Y-11763524D02*
X5075816Y-11763524D01*
X5075816Y-11763524D02*
X5066292Y-11858762D01*
X5066292Y-11858762D02*
X5075816Y-11849238D01*
X5075816Y-11849238D02*
X5094863Y-11839714D01*
X5094863Y-11839714D02*
X5142482Y-11839714D01*
X5142482Y-11839714D02*
X5161530Y-11849238D01*
X5161530Y-11849238D02*
X5171054Y-11858762D01*
X5171054Y-11858762D02*
X5180577Y-11877809D01*
X5180577Y-11877809D02*
X5180577Y-11925428D01*
X5180577Y-11925428D02*
X5171054Y-11944476D01*
X5171054Y-11944476D02*
X5161530Y-11954000D01*
X5161530Y-11954000D02*
X5142482Y-11963524D01*
X5142482Y-11963524D02*
X5094863Y-11963524D01*
X5094863Y-11963524D02*
X5075816Y-11954000D01*
X5075816Y-11954000D02*
X5066292Y-11944476D01*
X5418673Y-11963524D02*
X5418673Y-11763524D01*
X5504387Y-11963524D02*
X5504387Y-11858762D01*
X5504387Y-11858762D02*
X5494863Y-11839714D01*
X5494863Y-11839714D02*
X5475816Y-11830190D01*
X5475816Y-11830190D02*
X5447244Y-11830190D01*
X5447244Y-11830190D02*
X5428197Y-11839714D01*
X5428197Y-11839714D02*
X5418673Y-11849238D01*
X5628196Y-11963524D02*
X5609149Y-11954000D01*
X5609149Y-11954000D02*
X5599625Y-11944476D01*
X5599625Y-11944476D02*
X5590101Y-11925428D01*
X5590101Y-11925428D02*
X5590101Y-11868286D01*
X5590101Y-11868286D02*
X5599625Y-11849238D01*
X5599625Y-11849238D02*
X5609149Y-11839714D01*
X5609149Y-11839714D02*
X5628196Y-11830190D01*
X5628196Y-11830190D02*
X5656768Y-11830190D01*
X5656768Y-11830190D02*
X5675816Y-11839714D01*
X5675816Y-11839714D02*
X5685339Y-11849238D01*
X5685339Y-11849238D02*
X5694863Y-11868286D01*
X5694863Y-11868286D02*
X5694863Y-11925428D01*
X5694863Y-11925428D02*
X5685339Y-11944476D01*
X5685339Y-11944476D02*
X5675816Y-11954000D01*
X5675816Y-11954000D02*
X5656768Y-11963524D01*
X5656768Y-11963524D02*
X5628196Y-11963524D01*
X5809149Y-11963524D02*
X5790101Y-11954000D01*
X5790101Y-11954000D02*
X5780577Y-11934952D01*
X5780577Y-11934952D02*
X5780577Y-11763524D01*
X5961530Y-11954000D02*
X5942482Y-11963524D01*
X5942482Y-11963524D02*
X5904387Y-11963524D01*
X5904387Y-11963524D02*
X5885339Y-11954000D01*
X5885339Y-11954000D02*
X5875816Y-11934952D01*
X5875816Y-11934952D02*
X5875816Y-11858762D01*
X5875816Y-11858762D02*
X5885339Y-11839714D01*
X5885339Y-11839714D02*
X5904387Y-11830190D01*
X5904387Y-11830190D02*
X5942482Y-11830190D01*
X5942482Y-11830190D02*
X5961530Y-11839714D01*
X5961530Y-11839714D02*
X5971054Y-11858762D01*
X5971054Y-11858762D02*
X5971054Y-11877809D01*
X5971054Y-11877809D02*
X5875816Y-11896857D01*
X6047244Y-11954000D02*
X6066292Y-11963524D01*
X6066292Y-11963524D02*
X6104387Y-11963524D01*
X6104387Y-11963524D02*
X6123435Y-11954000D01*
X6123435Y-11954000D02*
X6132958Y-11934952D01*
X6132958Y-11934952D02*
X6132958Y-11925428D01*
X6132958Y-11925428D02*
X6123435Y-11906381D01*
X6123435Y-11906381D02*
X6104387Y-11896857D01*
X6104387Y-11896857D02*
X6075816Y-11896857D01*
X6075816Y-11896857D02*
X6056768Y-11887333D01*
X6056768Y-11887333D02*
X6047244Y-11868286D01*
X6047244Y-11868286D02*
X6047244Y-11858762D01*
X6047244Y-11858762D02*
X6056768Y-11839714D01*
X6056768Y-11839714D02*
X6075816Y-11830190D01*
X6075816Y-11830190D02*
X6104387Y-11830190D01*
X6104387Y-11830190D02*
X6123435Y-11839714D01*
X6199625Y-12039714D02*
X6209149Y-12030190D01*
X6209149Y-12030190D02*
X6228197Y-12001619D01*
X6228197Y-12001619D02*
X6237720Y-11982571D01*
X6237720Y-11982571D02*
X6247244Y-11954000D01*
X6247244Y-11954000D02*
X6256768Y-11906381D01*
X6256768Y-11906381D02*
X6256768Y-11868286D01*
X6256768Y-11868286D02*
X6247244Y-11820667D01*
X6247244Y-11820667D02*
X6237720Y-11792095D01*
X6237720Y-11792095D02*
X6228197Y-11773048D01*
X6228197Y-11773048D02*
X6209149Y-11744476D01*
X6209149Y-11744476D02*
X6199625Y-11734952D01*
X6561530Y-12039714D02*
X6552006Y-12030190D01*
X6552006Y-12030190D02*
X6532958Y-12001619D01*
X6532958Y-12001619D02*
X6523435Y-11982571D01*
X6523435Y-11982571D02*
X6513911Y-11954000D01*
X6513911Y-11954000D02*
X6504387Y-11906381D01*
X6504387Y-11906381D02*
X6504387Y-11868286D01*
X6504387Y-11868286D02*
X6513911Y-11820667D01*
X6513911Y-11820667D02*
X6523435Y-11792095D01*
X6523435Y-11792095D02*
X6532958Y-11773048D01*
X6532958Y-11773048D02*
X6552006Y-11744476D01*
X6552006Y-11744476D02*
X6561530Y-11734952D01*
X6637720Y-11830190D02*
X6637720Y-11963524D01*
X6637720Y-11849238D02*
X6647244Y-11839714D01*
X6647244Y-11839714D02*
X6666292Y-11830190D01*
X6666292Y-11830190D02*
X6694863Y-11830190D01*
X6694863Y-11830190D02*
X6713911Y-11839714D01*
X6713911Y-11839714D02*
X6723435Y-11858762D01*
X6723435Y-11858762D02*
X6723435Y-11963524D01*
X6847244Y-11963524D02*
X6828197Y-11954000D01*
X6828197Y-11954000D02*
X6818673Y-11944476D01*
X6818673Y-11944476D02*
X6809149Y-11925428D01*
X6809149Y-11925428D02*
X6809149Y-11868286D01*
X6809149Y-11868286D02*
X6818673Y-11849238D01*
X6818673Y-11849238D02*
X6828197Y-11839714D01*
X6828197Y-11839714D02*
X6847244Y-11830190D01*
X6847244Y-11830190D02*
X6875816Y-11830190D01*
X6875816Y-11830190D02*
X6894863Y-11839714D01*
X6894863Y-11839714D02*
X6904387Y-11849238D01*
X6904387Y-11849238D02*
X6913911Y-11868286D01*
X6913911Y-11868286D02*
X6913911Y-11925428D01*
X6913911Y-11925428D02*
X6904387Y-11944476D01*
X6904387Y-11944476D02*
X6894863Y-11954000D01*
X6894863Y-11954000D02*
X6875816Y-11963524D01*
X6875816Y-11963524D02*
X6847244Y-11963524D01*
X6971054Y-11830190D02*
X7047244Y-11830190D01*
X6999625Y-11763524D02*
X6999625Y-11934952D01*
X6999625Y-11934952D02*
X7009149Y-11954000D01*
X7009149Y-11954000D02*
X7028197Y-11963524D01*
X7028197Y-11963524D02*
X7047244Y-11963524D01*
X7266292Y-11830190D02*
X7266292Y-12030190D01*
X7266292Y-11839714D02*
X7285339Y-11830190D01*
X7285339Y-11830190D02*
X7323435Y-11830190D01*
X7323435Y-11830190D02*
X7342482Y-11839714D01*
X7342482Y-11839714D02*
X7352006Y-11849238D01*
X7352006Y-11849238D02*
X7361530Y-11868286D01*
X7361530Y-11868286D02*
X7361530Y-11925428D01*
X7361530Y-11925428D02*
X7352006Y-11944476D01*
X7352006Y-11944476D02*
X7342482Y-11954000D01*
X7342482Y-11954000D02*
X7323435Y-11963524D01*
X7323435Y-11963524D02*
X7285339Y-11963524D01*
X7285339Y-11963524D02*
X7266292Y-11954000D01*
X7475816Y-11963524D02*
X7456768Y-11954000D01*
X7456768Y-11954000D02*
X7447244Y-11934952D01*
X7447244Y-11934952D02*
X7447244Y-11763524D01*
X7637720Y-11963524D02*
X7637720Y-11858762D01*
X7637720Y-11858762D02*
X7628197Y-11839714D01*
X7628197Y-11839714D02*
X7609149Y-11830190D01*
X7609149Y-11830190D02*
X7571054Y-11830190D01*
X7571054Y-11830190D02*
X7552006Y-11839714D01*
X7637720Y-11954000D02*
X7618673Y-11963524D01*
X7618673Y-11963524D02*
X7571054Y-11963524D01*
X7571054Y-11963524D02*
X7552006Y-11954000D01*
X7552006Y-11954000D02*
X7542482Y-11934952D01*
X7542482Y-11934952D02*
X7542482Y-11915905D01*
X7542482Y-11915905D02*
X7552006Y-11896857D01*
X7552006Y-11896857D02*
X7571054Y-11887333D01*
X7571054Y-11887333D02*
X7618673Y-11887333D01*
X7618673Y-11887333D02*
X7637720Y-11877809D01*
X7704387Y-11830190D02*
X7780578Y-11830190D01*
X7732959Y-11763524D02*
X7732959Y-11934952D01*
X7732959Y-11934952D02*
X7742482Y-11954000D01*
X7742482Y-11954000D02*
X7761530Y-11963524D01*
X7761530Y-11963524D02*
X7780578Y-11963524D01*
X7923435Y-11954000D02*
X7904387Y-11963524D01*
X7904387Y-11963524D02*
X7866292Y-11963524D01*
X7866292Y-11963524D02*
X7847244Y-11954000D01*
X7847244Y-11954000D02*
X7837720Y-11934952D01*
X7837720Y-11934952D02*
X7837720Y-11858762D01*
X7837720Y-11858762D02*
X7847244Y-11839714D01*
X7847244Y-11839714D02*
X7866292Y-11830190D01*
X7866292Y-11830190D02*
X7904387Y-11830190D01*
X7904387Y-11830190D02*
X7923435Y-11839714D01*
X7923435Y-11839714D02*
X7932959Y-11858762D01*
X7932959Y-11858762D02*
X7932959Y-11877809D01*
X7932959Y-11877809D02*
X7837720Y-11896857D01*
X8104387Y-11963524D02*
X8104387Y-11763524D01*
X8104387Y-11954000D02*
X8085340Y-11963524D01*
X8085340Y-11963524D02*
X8047244Y-11963524D01*
X8047244Y-11963524D02*
X8028197Y-11954000D01*
X8028197Y-11954000D02*
X8018673Y-11944476D01*
X8018673Y-11944476D02*
X8009149Y-11925428D01*
X8009149Y-11925428D02*
X8009149Y-11868286D01*
X8009149Y-11868286D02*
X8018673Y-11849238D01*
X8018673Y-11849238D02*
X8028197Y-11839714D01*
X8028197Y-11839714D02*
X8047244Y-11830190D01*
X8047244Y-11830190D02*
X8085340Y-11830190D01*
X8085340Y-11830190D02*
X8104387Y-11839714D01*
X8180578Y-12039714D02*
X8190101Y-12030190D01*
X8190101Y-12030190D02*
X8209149Y-12001619D01*
X8209149Y-12001619D02*
X8218673Y-11982571D01*
X8218673Y-11982571D02*
X8228197Y-11954000D01*
X8228197Y-11954000D02*
X8237720Y-11906381D01*
X8237720Y-11906381D02*
X8237720Y-11868286D01*
X8237720Y-11868286D02*
X8228197Y-11820667D01*
X8228197Y-11820667D02*
X8218673Y-11792095D01*
X8218673Y-11792095D02*
X8209149Y-11773048D01*
X8209149Y-11773048D02*
X8190101Y-11744476D01*
X8190101Y-11744476D02*
X8180578Y-11734952D01*
X1437720Y-12135000D02*
G75*
G03*
X1437720Y-12135000I-100000J0D01*
G01*
X1675815Y-12046571D02*
X1685339Y-12037048D01*
X1685339Y-12037048D02*
X1704387Y-12027524D01*
X1704387Y-12027524D02*
X1752006Y-12027524D01*
X1752006Y-12027524D02*
X1771053Y-12037048D01*
X1771053Y-12037048D02*
X1780577Y-12046571D01*
X1780577Y-12046571D02*
X1790101Y-12065619D01*
X1790101Y-12065619D02*
X1790101Y-12084667D01*
X1790101Y-12084667D02*
X1780577Y-12113238D01*
X1780577Y-12113238D02*
X1666291Y-12227524D01*
X1666291Y-12227524D02*
X1790101Y-12227524D01*
X1875815Y-12208476D02*
X1885339Y-12218000D01*
X1885339Y-12218000D02*
X1875815Y-12227524D01*
X1875815Y-12227524D02*
X1866291Y-12218000D01*
X1866291Y-12218000D02*
X1875815Y-12208476D01*
X1875815Y-12208476D02*
X1875815Y-12227524D01*
X2056768Y-12094190D02*
X2056768Y-12227524D01*
X2009148Y-12018000D02*
X1961529Y-12160857D01*
X1961529Y-12160857D02*
X2085339Y-12160857D01*
X2199625Y-12027524D02*
X2218672Y-12027524D01*
X2218672Y-12027524D02*
X2237720Y-12037048D01*
X2237720Y-12037048D02*
X2247244Y-12046571D01*
X2247244Y-12046571D02*
X2256768Y-12065619D01*
X2256768Y-12065619D02*
X2266291Y-12103714D01*
X2266291Y-12103714D02*
X2266291Y-12151333D01*
X2266291Y-12151333D02*
X2256768Y-12189428D01*
X2256768Y-12189428D02*
X2247244Y-12208476D01*
X2247244Y-12208476D02*
X2237720Y-12218000D01*
X2237720Y-12218000D02*
X2218672Y-12227524D01*
X2218672Y-12227524D02*
X2199625Y-12227524D01*
X2199625Y-12227524D02*
X2180577Y-12218000D01*
X2180577Y-12218000D02*
X2171053Y-12208476D01*
X2171053Y-12208476D02*
X2161530Y-12189428D01*
X2161530Y-12189428D02*
X2152006Y-12151333D01*
X2152006Y-12151333D02*
X2152006Y-12103714D01*
X2152006Y-12103714D02*
X2161530Y-12065619D01*
X2161530Y-12065619D02*
X2171053Y-12046571D01*
X2171053Y-12046571D02*
X2180577Y-12037048D01*
X2180577Y-12037048D02*
X2199625Y-12027524D01*
X2390101Y-12027524D02*
X2409149Y-12027524D01*
X2409149Y-12027524D02*
X2428196Y-12037048D01*
X2428196Y-12037048D02*
X2437720Y-12046571D01*
X2437720Y-12046571D02*
X2447244Y-12065619D01*
X2447244Y-12065619D02*
X2456768Y-12103714D01*
X2456768Y-12103714D02*
X2456768Y-12151333D01*
X2456768Y-12151333D02*
X2447244Y-12189428D01*
X2447244Y-12189428D02*
X2437720Y-12208476D01*
X2437720Y-12208476D02*
X2428196Y-12218000D01*
X2428196Y-12218000D02*
X2409149Y-12227524D01*
X2409149Y-12227524D02*
X2390101Y-12227524D01*
X2390101Y-12227524D02*
X2371053Y-12218000D01*
X2371053Y-12218000D02*
X2361530Y-12208476D01*
X2361530Y-12208476D02*
X2352006Y-12189428D01*
X2352006Y-12189428D02*
X2342482Y-12151333D01*
X2342482Y-12151333D02*
X2342482Y-12103714D01*
X2342482Y-12103714D02*
X2352006Y-12065619D01*
X2352006Y-12065619D02*
X2361530Y-12046571D01*
X2361530Y-12046571D02*
X2371053Y-12037048D01*
X2371053Y-12037048D02*
X2390101Y-12027524D01*
X2542482Y-12227524D02*
X2542482Y-12094190D01*
X2542482Y-12113238D02*
X2552006Y-12103714D01*
X2552006Y-12103714D02*
X2571053Y-12094190D01*
X2571053Y-12094190D02*
X2599625Y-12094190D01*
X2599625Y-12094190D02*
X2618672Y-12103714D01*
X2618672Y-12103714D02*
X2628196Y-12122762D01*
X2628196Y-12122762D02*
X2628196Y-12227524D01*
X2628196Y-12122762D02*
X2637720Y-12103714D01*
X2637720Y-12103714D02*
X2656768Y-12094190D01*
X2656768Y-12094190D02*
X2685339Y-12094190D01*
X2685339Y-12094190D02*
X2704387Y-12103714D01*
X2704387Y-12103714D02*
X2713911Y-12122762D01*
X2713911Y-12122762D02*
X2713911Y-12227524D01*
X2809149Y-12227524D02*
X2809149Y-12094190D01*
X2809149Y-12113238D02*
X2818672Y-12103714D01*
X2818672Y-12103714D02*
X2837720Y-12094190D01*
X2837720Y-12094190D02*
X2866291Y-12094190D01*
X2866291Y-12094190D02*
X2885339Y-12103714D01*
X2885339Y-12103714D02*
X2894863Y-12122762D01*
X2894863Y-12122762D02*
X2894863Y-12227524D01*
X2894863Y-12122762D02*
X2904387Y-12103714D01*
X2904387Y-12103714D02*
X2923434Y-12094190D01*
X2923434Y-12094190D02*
X2952006Y-12094190D01*
X2952006Y-12094190D02*
X2971053Y-12103714D01*
X2971053Y-12103714D02*
X2980577Y-12122762D01*
X2980577Y-12122762D02*
X2980577Y-12227524D01*
X3371053Y-12018000D02*
X3199625Y-12275143D01*
X3628196Y-12027524D02*
X3647244Y-12027524D01*
X3647244Y-12027524D02*
X3666292Y-12037048D01*
X3666292Y-12037048D02*
X3675815Y-12046571D01*
X3675815Y-12046571D02*
X3685339Y-12065619D01*
X3685339Y-12065619D02*
X3694863Y-12103714D01*
X3694863Y-12103714D02*
X3694863Y-12151333D01*
X3694863Y-12151333D02*
X3685339Y-12189428D01*
X3685339Y-12189428D02*
X3675815Y-12208476D01*
X3675815Y-12208476D02*
X3666292Y-12218000D01*
X3666292Y-12218000D02*
X3647244Y-12227524D01*
X3647244Y-12227524D02*
X3628196Y-12227524D01*
X3628196Y-12227524D02*
X3609149Y-12218000D01*
X3609149Y-12218000D02*
X3599625Y-12208476D01*
X3599625Y-12208476D02*
X3590101Y-12189428D01*
X3590101Y-12189428D02*
X3580577Y-12151333D01*
X3580577Y-12151333D02*
X3580577Y-12103714D01*
X3580577Y-12103714D02*
X3590101Y-12065619D01*
X3590101Y-12065619D02*
X3599625Y-12046571D01*
X3599625Y-12046571D02*
X3609149Y-12037048D01*
X3609149Y-12037048D02*
X3628196Y-12027524D01*
X3780577Y-12208476D02*
X3790101Y-12218000D01*
X3790101Y-12218000D02*
X3780577Y-12227524D01*
X3780577Y-12227524D02*
X3771053Y-12218000D01*
X3771053Y-12218000D02*
X3780577Y-12208476D01*
X3780577Y-12208476D02*
X3780577Y-12227524D01*
X3913911Y-12027524D02*
X3932958Y-12027524D01*
X3932958Y-12027524D02*
X3952006Y-12037048D01*
X3952006Y-12037048D02*
X3961530Y-12046571D01*
X3961530Y-12046571D02*
X3971053Y-12065619D01*
X3971053Y-12065619D02*
X3980577Y-12103714D01*
X3980577Y-12103714D02*
X3980577Y-12151333D01*
X3980577Y-12151333D02*
X3971053Y-12189428D01*
X3971053Y-12189428D02*
X3961530Y-12208476D01*
X3961530Y-12208476D02*
X3952006Y-12218000D01*
X3952006Y-12218000D02*
X3932958Y-12227524D01*
X3932958Y-12227524D02*
X3913911Y-12227524D01*
X3913911Y-12227524D02*
X3894863Y-12218000D01*
X3894863Y-12218000D02*
X3885339Y-12208476D01*
X3885339Y-12208476D02*
X3875815Y-12189428D01*
X3875815Y-12189428D02*
X3866292Y-12151333D01*
X3866292Y-12151333D02*
X3866292Y-12103714D01*
X3866292Y-12103714D02*
X3875815Y-12065619D01*
X3875815Y-12065619D02*
X3885339Y-12046571D01*
X3885339Y-12046571D02*
X3894863Y-12037048D01*
X3894863Y-12037048D02*
X3913911Y-12027524D01*
X4075815Y-12227524D02*
X4113911Y-12227524D01*
X4113911Y-12227524D02*
X4132958Y-12218000D01*
X4132958Y-12218000D02*
X4142482Y-12208476D01*
X4142482Y-12208476D02*
X4161530Y-12179905D01*
X4161530Y-12179905D02*
X4171053Y-12141809D01*
X4171053Y-12141809D02*
X4171053Y-12065619D01*
X4171053Y-12065619D02*
X4161530Y-12046571D01*
X4161530Y-12046571D02*
X4152006Y-12037048D01*
X4152006Y-12037048D02*
X4132958Y-12027524D01*
X4132958Y-12027524D02*
X4094863Y-12027524D01*
X4094863Y-12027524D02*
X4075815Y-12037048D01*
X4075815Y-12037048D02*
X4066292Y-12046571D01*
X4066292Y-12046571D02*
X4056768Y-12065619D01*
X4056768Y-12065619D02*
X4056768Y-12113238D01*
X4056768Y-12113238D02*
X4066292Y-12132286D01*
X4066292Y-12132286D02*
X4075815Y-12141809D01*
X4075815Y-12141809D02*
X4094863Y-12151333D01*
X4094863Y-12151333D02*
X4132958Y-12151333D01*
X4132958Y-12151333D02*
X4152006Y-12141809D01*
X4152006Y-12141809D02*
X4161530Y-12132286D01*
X4161530Y-12132286D02*
X4171053Y-12113238D01*
X4342482Y-12094190D02*
X4342482Y-12227524D01*
X4294863Y-12018000D02*
X4247244Y-12160857D01*
X4247244Y-12160857D02*
X4371054Y-12160857D01*
X4542482Y-12027524D02*
X4447244Y-12027524D01*
X4447244Y-12027524D02*
X4437720Y-12122762D01*
X4437720Y-12122762D02*
X4447244Y-12113238D01*
X4447244Y-12113238D02*
X4466292Y-12103714D01*
X4466292Y-12103714D02*
X4513911Y-12103714D01*
X4513911Y-12103714D02*
X4532958Y-12113238D01*
X4532958Y-12113238D02*
X4542482Y-12122762D01*
X4542482Y-12122762D02*
X4552006Y-12141809D01*
X4552006Y-12141809D02*
X4552006Y-12189428D01*
X4552006Y-12189428D02*
X4542482Y-12208476D01*
X4542482Y-12208476D02*
X4532958Y-12218000D01*
X4532958Y-12218000D02*
X4513911Y-12227524D01*
X4513911Y-12227524D02*
X4466292Y-12227524D01*
X4466292Y-12227524D02*
X4447244Y-12218000D01*
X4447244Y-12218000D02*
X4437720Y-12208476D01*
X4628196Y-12027524D02*
X4628196Y-12065619D01*
X4704387Y-12027524D02*
X4704387Y-12065619D01*
X4999625Y-12303714D02*
X4990101Y-12294190D01*
X4990101Y-12294190D02*
X4971054Y-12265619D01*
X4971054Y-12265619D02*
X4961530Y-12246571D01*
X4961530Y-12246571D02*
X4952006Y-12218000D01*
X4952006Y-12218000D02*
X4942482Y-12170381D01*
X4942482Y-12170381D02*
X4942482Y-12132286D01*
X4942482Y-12132286D02*
X4952006Y-12084667D01*
X4952006Y-12084667D02*
X4961530Y-12056095D01*
X4961530Y-12056095D02*
X4971054Y-12037048D01*
X4971054Y-12037048D02*
X4990101Y-12008476D01*
X4990101Y-12008476D02*
X4999625Y-11998952D01*
X5066292Y-12046571D02*
X5075816Y-12037048D01*
X5075816Y-12037048D02*
X5094863Y-12027524D01*
X5094863Y-12027524D02*
X5142482Y-12027524D01*
X5142482Y-12027524D02*
X5161530Y-12037048D01*
X5161530Y-12037048D02*
X5171054Y-12046571D01*
X5171054Y-12046571D02*
X5180577Y-12065619D01*
X5180577Y-12065619D02*
X5180577Y-12084667D01*
X5180577Y-12084667D02*
X5171054Y-12113238D01*
X5171054Y-12113238D02*
X5056768Y-12227524D01*
X5056768Y-12227524D02*
X5180577Y-12227524D01*
X5418673Y-12227524D02*
X5418673Y-12027524D01*
X5504387Y-12227524D02*
X5504387Y-12122762D01*
X5504387Y-12122762D02*
X5494863Y-12103714D01*
X5494863Y-12103714D02*
X5475816Y-12094190D01*
X5475816Y-12094190D02*
X5447244Y-12094190D01*
X5447244Y-12094190D02*
X5428197Y-12103714D01*
X5428197Y-12103714D02*
X5418673Y-12113238D01*
X5628196Y-12227524D02*
X5609149Y-12218000D01*
X5609149Y-12218000D02*
X5599625Y-12208476D01*
X5599625Y-12208476D02*
X5590101Y-12189428D01*
X5590101Y-12189428D02*
X5590101Y-12132286D01*
X5590101Y-12132286D02*
X5599625Y-12113238D01*
X5599625Y-12113238D02*
X5609149Y-12103714D01*
X5609149Y-12103714D02*
X5628196Y-12094190D01*
X5628196Y-12094190D02*
X5656768Y-12094190D01*
X5656768Y-12094190D02*
X5675816Y-12103714D01*
X5675816Y-12103714D02*
X5685339Y-12113238D01*
X5685339Y-12113238D02*
X5694863Y-12132286D01*
X5694863Y-12132286D02*
X5694863Y-12189428D01*
X5694863Y-12189428D02*
X5685339Y-12208476D01*
X5685339Y-12208476D02*
X5675816Y-12218000D01*
X5675816Y-12218000D02*
X5656768Y-12227524D01*
X5656768Y-12227524D02*
X5628196Y-12227524D01*
X5809149Y-12227524D02*
X5790101Y-12218000D01*
X5790101Y-12218000D02*
X5780577Y-12198952D01*
X5780577Y-12198952D02*
X5780577Y-12027524D01*
X5961530Y-12218000D02*
X5942482Y-12227524D01*
X5942482Y-12227524D02*
X5904387Y-12227524D01*
X5904387Y-12227524D02*
X5885339Y-12218000D01*
X5885339Y-12218000D02*
X5875816Y-12198952D01*
X5875816Y-12198952D02*
X5875816Y-12122762D01*
X5875816Y-12122762D02*
X5885339Y-12103714D01*
X5885339Y-12103714D02*
X5904387Y-12094190D01*
X5904387Y-12094190D02*
X5942482Y-12094190D01*
X5942482Y-12094190D02*
X5961530Y-12103714D01*
X5961530Y-12103714D02*
X5971054Y-12122762D01*
X5971054Y-12122762D02*
X5971054Y-12141809D01*
X5971054Y-12141809D02*
X5875816Y-12160857D01*
X6047244Y-12218000D02*
X6066292Y-12227524D01*
X6066292Y-12227524D02*
X6104387Y-12227524D01*
X6104387Y-12227524D02*
X6123435Y-12218000D01*
X6123435Y-12218000D02*
X6132958Y-12198952D01*
X6132958Y-12198952D02*
X6132958Y-12189428D01*
X6132958Y-12189428D02*
X6123435Y-12170381D01*
X6123435Y-12170381D02*
X6104387Y-12160857D01*
X6104387Y-12160857D02*
X6075816Y-12160857D01*
X6075816Y-12160857D02*
X6056768Y-12151333D01*
X6056768Y-12151333D02*
X6047244Y-12132286D01*
X6047244Y-12132286D02*
X6047244Y-12122762D01*
X6047244Y-12122762D02*
X6056768Y-12103714D01*
X6056768Y-12103714D02*
X6075816Y-12094190D01*
X6075816Y-12094190D02*
X6104387Y-12094190D01*
X6104387Y-12094190D02*
X6123435Y-12103714D01*
X6199625Y-12303714D02*
X6209149Y-12294190D01*
X6209149Y-12294190D02*
X6228197Y-12265619D01*
X6228197Y-12265619D02*
X6237720Y-12246571D01*
X6237720Y-12246571D02*
X6247244Y-12218000D01*
X6247244Y-12218000D02*
X6256768Y-12170381D01*
X6256768Y-12170381D02*
X6256768Y-12132286D01*
X6256768Y-12132286D02*
X6247244Y-12084667D01*
X6247244Y-12084667D02*
X6237720Y-12056095D01*
X6237720Y-12056095D02*
X6228197Y-12037048D01*
X6228197Y-12037048D02*
X6209149Y-12008476D01*
X6209149Y-12008476D02*
X6199625Y-11998952D01*
X6561530Y-12303714D02*
X6552006Y-12294190D01*
X6552006Y-12294190D02*
X6532958Y-12265619D01*
X6532958Y-12265619D02*
X6523435Y-12246571D01*
X6523435Y-12246571D02*
X6513911Y-12218000D01*
X6513911Y-12218000D02*
X6504387Y-12170381D01*
X6504387Y-12170381D02*
X6504387Y-12132286D01*
X6504387Y-12132286D02*
X6513911Y-12084667D01*
X6513911Y-12084667D02*
X6523435Y-12056095D01*
X6523435Y-12056095D02*
X6532958Y-12037048D01*
X6532958Y-12037048D02*
X6552006Y-12008476D01*
X6552006Y-12008476D02*
X6561530Y-11998952D01*
X6637720Y-12094190D02*
X6637720Y-12227524D01*
X6637720Y-12113238D02*
X6647244Y-12103714D01*
X6647244Y-12103714D02*
X6666292Y-12094190D01*
X6666292Y-12094190D02*
X6694863Y-12094190D01*
X6694863Y-12094190D02*
X6713911Y-12103714D01*
X6713911Y-12103714D02*
X6723435Y-12122762D01*
X6723435Y-12122762D02*
X6723435Y-12227524D01*
X6847244Y-12227524D02*
X6828197Y-12218000D01*
X6828197Y-12218000D02*
X6818673Y-12208476D01*
X6818673Y-12208476D02*
X6809149Y-12189428D01*
X6809149Y-12189428D02*
X6809149Y-12132286D01*
X6809149Y-12132286D02*
X6818673Y-12113238D01*
X6818673Y-12113238D02*
X6828197Y-12103714D01*
X6828197Y-12103714D02*
X6847244Y-12094190D01*
X6847244Y-12094190D02*
X6875816Y-12094190D01*
X6875816Y-12094190D02*
X6894863Y-12103714D01*
X6894863Y-12103714D02*
X6904387Y-12113238D01*
X6904387Y-12113238D02*
X6913911Y-12132286D01*
X6913911Y-12132286D02*
X6913911Y-12189428D01*
X6913911Y-12189428D02*
X6904387Y-12208476D01*
X6904387Y-12208476D02*
X6894863Y-12218000D01*
X6894863Y-12218000D02*
X6875816Y-12227524D01*
X6875816Y-12227524D02*
X6847244Y-12227524D01*
X6971054Y-12094190D02*
X7047244Y-12094190D01*
X6999625Y-12027524D02*
X6999625Y-12198952D01*
X6999625Y-12198952D02*
X7009149Y-12218000D01*
X7009149Y-12218000D02*
X7028197Y-12227524D01*
X7028197Y-12227524D02*
X7047244Y-12227524D01*
X7266292Y-12094190D02*
X7266292Y-12294190D01*
X7266292Y-12103714D02*
X7285339Y-12094190D01*
X7285339Y-12094190D02*
X7323435Y-12094190D01*
X7323435Y-12094190D02*
X7342482Y-12103714D01*
X7342482Y-12103714D02*
X7352006Y-12113238D01*
X7352006Y-12113238D02*
X7361530Y-12132286D01*
X7361530Y-12132286D02*
X7361530Y-12189428D01*
X7361530Y-12189428D02*
X7352006Y-12208476D01*
X7352006Y-12208476D02*
X7342482Y-12218000D01*
X7342482Y-12218000D02*
X7323435Y-12227524D01*
X7323435Y-12227524D02*
X7285339Y-12227524D01*
X7285339Y-12227524D02*
X7266292Y-12218000D01*
X7475816Y-12227524D02*
X7456768Y-12218000D01*
X7456768Y-12218000D02*
X7447244Y-12198952D01*
X7447244Y-12198952D02*
X7447244Y-12027524D01*
X7637720Y-12227524D02*
X7637720Y-12122762D01*
X7637720Y-12122762D02*
X7628197Y-12103714D01*
X7628197Y-12103714D02*
X7609149Y-12094190D01*
X7609149Y-12094190D02*
X7571054Y-12094190D01*
X7571054Y-12094190D02*
X7552006Y-12103714D01*
X7637720Y-12218000D02*
X7618673Y-12227524D01*
X7618673Y-12227524D02*
X7571054Y-12227524D01*
X7571054Y-12227524D02*
X7552006Y-12218000D01*
X7552006Y-12218000D02*
X7542482Y-12198952D01*
X7542482Y-12198952D02*
X7542482Y-12179905D01*
X7542482Y-12179905D02*
X7552006Y-12160857D01*
X7552006Y-12160857D02*
X7571054Y-12151333D01*
X7571054Y-12151333D02*
X7618673Y-12151333D01*
X7618673Y-12151333D02*
X7637720Y-12141809D01*
X7704387Y-12094190D02*
X7780578Y-12094190D01*
X7732959Y-12027524D02*
X7732959Y-12198952D01*
X7732959Y-12198952D02*
X7742482Y-12218000D01*
X7742482Y-12218000D02*
X7761530Y-12227524D01*
X7761530Y-12227524D02*
X7780578Y-12227524D01*
X7923435Y-12218000D02*
X7904387Y-12227524D01*
X7904387Y-12227524D02*
X7866292Y-12227524D01*
X7866292Y-12227524D02*
X7847244Y-12218000D01*
X7847244Y-12218000D02*
X7837720Y-12198952D01*
X7837720Y-12198952D02*
X7837720Y-12122762D01*
X7837720Y-12122762D02*
X7847244Y-12103714D01*
X7847244Y-12103714D02*
X7866292Y-12094190D01*
X7866292Y-12094190D02*
X7904387Y-12094190D01*
X7904387Y-12094190D02*
X7923435Y-12103714D01*
X7923435Y-12103714D02*
X7932959Y-12122762D01*
X7932959Y-12122762D02*
X7932959Y-12141809D01*
X7932959Y-12141809D02*
X7837720Y-12160857D01*
X8104387Y-12227524D02*
X8104387Y-12027524D01*
X8104387Y-12218000D02*
X8085340Y-12227524D01*
X8085340Y-12227524D02*
X8047244Y-12227524D01*
X8047244Y-12227524D02*
X8028197Y-12218000D01*
X8028197Y-12218000D02*
X8018673Y-12208476D01*
X8018673Y-12208476D02*
X8009149Y-12189428D01*
X8009149Y-12189428D02*
X8009149Y-12132286D01*
X8009149Y-12132286D02*
X8018673Y-12113238D01*
X8018673Y-12113238D02*
X8028197Y-12103714D01*
X8028197Y-12103714D02*
X8047244Y-12094190D01*
X8047244Y-12094190D02*
X8085340Y-12094190D01*
X8085340Y-12094190D02*
X8104387Y-12103714D01*
X8180578Y-12303714D02*
X8190101Y-12294190D01*
X8190101Y-12294190D02*
X8209149Y-12265619D01*
X8209149Y-12265619D02*
X8218673Y-12246571D01*
X8218673Y-12246571D02*
X8228197Y-12218000D01*
X8228197Y-12218000D02*
X8237720Y-12170381D01*
X8237720Y-12170381D02*
X8237720Y-12132286D01*
X8237720Y-12132286D02*
X8228197Y-12084667D01*
X8228197Y-12084667D02*
X8218673Y-12056095D01*
X8218673Y-12056095D02*
X8209149Y-12037048D01*
X8209149Y-12037048D02*
X8190101Y-12008476D01*
X8190101Y-12008476D02*
X8180578Y-11998952D01*
M02*
