M48
; DRILL file {KiCad 7.0.1} date Wed Mar 15 00:19:41 2023
; FORMAT={-:-/ absolute / inch / decimal}
; #@! TF.CreationDate,2023-03-15T00:19:41+00:00
; #@! TF.GenerationSoftware,Kicad,Pcbnew,7.0.1
; #@! TF.FileFunction,Plated,1,2,PTH
FMAT,2
INCH
; #@! TA.AperFunction,Plated,PTH,ViaDrill
T1C0.0157
; #@! TA.AperFunction,Plated,PTH,ComponentDrill
T2C0.0295
; #@! TA.AperFunction,Plated,PTH,ComponentDrill
T3C0.0315
; #@! TA.AperFunction,Plated,PTH,ComponentDrill
T4C0.0394
; #@! TA.AperFunction,Plated,PTH,ComponentDrill
T5C0.0512
; #@! TA.AperFunction,Plated,PTH,ComponentDrill
T6C0.0610
; #@! TA.AperFunction,Plated,PTH,ComponentDrill
T7C0.0866
; #@! TA.AperFunction,Plated,PTH,ComponentDrill
T8C0.1063
; #@! TA.AperFunction,Plated,PTH,ComponentDrill
T9C0.1260
%
G90
G05
T1
X0.7675Y-2.6217
X0.8099Y-3.1701
X0.8927Y-3.0632
X0.9333Y-2.5634
X0.9361Y-1.9023
X0.9461Y-2.2445
X0.9482Y-2.6187
X0.9582Y-1.9367
X0.9793Y-1.7622
X0.9888Y-2.5639
X0.9987Y-1.9188
X1.0409Y-1.8964
X1.0531Y-1.762
X1.0547Y-3.7463
X1.0674Y-2.5815
X1.0782Y-2.2272
X1.0929Y-2.177
X1.1033Y-1.7946
X1.1201Y-2.1484
X1.1257Y-3.7286
X1.1469Y-1.797
X1.1562Y-2.356
X1.1744Y-2.2685
X1.1855Y-2.5058
X1.2198Y-2.4834
X1.2313Y-3.0551
X1.2345Y-3.1421
X1.2547Y-3.7466
X1.2602Y-2.4323
X1.3325Y-3.9052
X1.3543Y-1.9082
X1.3585Y-2.5059
X1.394Y-2.1883
X1.4403Y-2.6335
X1.4635Y-2.5071
X1.4643Y-2.5535
X1.5646Y-2.138
X1.5659Y-2.9626
X1.5801Y-2.0435
X1.6117Y-1.5385
X1.6509Y-1.6226
X1.6518Y-2.1559
X1.674Y-1.8675
X1.6784Y-2.4219
X1.7028Y-1.9098
X1.7517Y-1.2634
X1.7896Y-2.2381
X1.8145Y-1.1603
X1.8362Y-1.2077
X1.8389Y-2.865
X1.8558Y-2.4628
X1.8639Y-2.1211
X1.8649Y-2.8959
X1.8892Y-2.4343
X1.9268Y-1.6226
X1.9409Y-1.2077
X1.9852Y-2.9567
X2.0112Y-1.1603
X2.0336Y-2.3142
X2.062Y-2.2185
X2.0762Y-1.1938
X2.0827Y-3.1427
X2.104Y-1.1656
X2.1614Y-2.1196
X2.2297Y-3.6669
X2.231Y-2.236
X2.2549Y-3.464
X2.2604Y-3.6372
X2.2697Y-2.1213
X2.2918Y-2.9514
X2.2956Y-1.5753
X2.3021Y-2.3907
X2.3188Y-1.8273
X2.3397Y-2.2855
X2.3408Y-2.7191
X2.3425Y-2.3327
X2.3443Y-1.1919
X2.3475Y-3.595
X2.3517Y-1.4392
X2.354Y-1.6273
X2.3545Y-1.7703
X2.3686Y-2.22
X2.3725Y-2.3606
X2.3889Y-1.8176
X2.3984Y-3.0561
X2.4528Y-2.7191
X2.4598Y-3.0934
X2.4604Y-1.8306
X2.4727Y-1.7912
X2.4754Y-3.1425
X2.4787Y-3.0567
X2.4804Y-2.6334
X2.5089Y-1.9075
X2.5181Y-2.4879
X2.5225Y-4.0872
X2.5456Y-2.5427
X2.5673Y-1.9416
X2.57Y-1.2089
X2.5784Y-4.0878
X2.6248Y-2.5901
X2.6263Y-4.0189
X2.6362Y-1.9701
X2.6469Y-2.466
X2.6824Y-2.229
X2.7128Y-2.6786
X2.7225Y-4.15
X2.7831Y-3.9551
X2.8034Y-2.4735
X2.8096Y-2.6445
X2.8257Y-2.3973
X2.8487Y-2.1894
X2.8777Y-2.3958
X2.8862Y-1.7416
X2.8928Y-2.0918
X2.9262Y-1.7677
X2.9338Y-2.4632
X2.9432Y-2.3961
X2.9774Y-1.7376
X3.0038Y-1.7919
X3.0042Y-2.8875
X3.0106Y-3.1834
X3.0249Y-2.625
X3.0317Y-4.0788
X3.0395Y-3.2148
X3.0433Y-2.1276
X3.0577Y-4.0491
X3.075Y-2.1595
X3.0769Y-2.5743
X3.1108Y-3.6805
X3.1111Y-3.1722
X3.1468Y-3.0247
X3.165Y-2.9166
X3.1732Y-3.5683
X3.1914Y-2.8318
X3.1947Y-3.2989
X3.2099Y-4.0816
X3.2159Y-3.0344
X3.2189Y-2.8603
X3.2436Y-3.8616
X3.2704Y-2.98
X3.2721Y-3.6563
X3.2789Y-3.8212
X3.2978Y-2.8825
X3.3184Y-2.9462
X3.3192Y-3.7907
X3.3389Y-3.1802
X3.3449Y-4.0553
X3.3666Y-3.9745
X3.3715Y-4.1354
X3.3817Y-3.8603
X3.3873Y-3.9174
X3.3936Y-3.7425
X3.3998Y-3.2274
X3.4078Y-3.054
X3.4099Y-4.1727
X3.4185Y-3.1904
X3.4872Y-3.6277
X3.5177Y-1.4296
X3.5478Y-3.265
X3.5506Y-2.5798
X3.5506Y-2.8086
X3.5672Y-4.051
X3.5906Y-1.6424
X3.596Y-3.0262
X3.5974Y-1.518
X3.6023Y-1.3924
X3.6313Y-2.0889
X3.6334Y-2.9514
X3.6441Y-3.6563
X3.6441Y-2.5606
X3.6571Y-3.7311
X3.6746Y-3.8921
X3.6795Y-1.3802
X3.6858Y-3.7581
X3.6974Y-2.1101
X3.7128Y-3.7868
X3.7264Y-2.0
X3.7289Y-3.0538
X3.7402Y-3.6995
X3.7631Y-2.8086
X3.7641Y-1.2815
X3.765Y-4.3192
X3.7676Y-3.841
X3.7687Y-1.4554
X3.7723Y-4.0838
X3.7738Y-2.1865
X3.7776Y-1.5394
X3.7781Y-2.3986
X3.7797Y-2.2276
X3.7859Y-2.0998
X3.7884Y-3.623
X3.8179Y-3.2057
X3.8376Y-3.0326
X3.8421Y-4.304
X3.8545Y-3.8854
X3.8789Y-3.6191
X3.8878Y-3.8337
X3.8898Y-1.9596
X3.8898Y-3.0285
X3.9079Y-1.5558
X3.9247Y-3.4661
X3.9301Y-3.685
X3.9318Y-3.2459
X3.9318Y-3.1917
X3.9333Y-1.4091
X3.9334Y-4.0343
X3.966Y-4.0667
X4.0404Y-1.4891
X4.0565Y-3.9477
X4.0699Y-2.7264
X4.0776Y-4.3352
X4.0784Y-4.0886
X4.0886Y-2.2165
X4.0896Y-1.9311
X4.1261Y-2.8214
X4.1351Y-2.3592
X4.1811Y-2.4537
X4.1836Y-3.7945
X4.186Y-2.3593
X4.2051Y-2.8274
X4.2226Y-1.3875
X4.243Y-1.7608
X4.253Y-2.2156
X4.262Y-1.3927
X4.2752Y-3.8911
X4.2964Y-4.0516
X4.3045Y-1.5596
X4.3195Y-3.0529
X4.3337Y-2.8097
X4.3358Y-4.0516
X4.3669Y-3.164
X4.3876Y-1.5772
X4.3949Y-2.4461
X4.3991Y-3.0352
X4.4064Y-2.1865
X4.4072Y-3.8851
X4.4338Y-1.7803
X4.4508Y-2.0433
X4.4523Y-2.7741
X4.4587Y-1.811
X4.4642Y-2.4598
X4.4739Y-2.0998
X4.4948Y-1.3827
X4.5137Y-3.0352
X4.5156Y-1.4605
X4.5167Y-1.9301
X4.5326Y-3.8866
X4.536Y-4.177
X4.5365Y-4.0853
X4.5391Y-3.2827
X4.5391Y-3.3937
X4.5399Y-2.06
X4.543Y-2.6519
X4.5732Y-1.4472
X4.5886Y-1.7677
X4.6019Y-2.6795
X4.6363Y-3.053
X4.6484Y-2.4182
X4.6683Y-1.4827
X4.6697Y-2.8274
X4.681Y-2.7741
X4.6851Y-1.7943
X4.6909Y-2.4278
X4.6962Y-4.0518
X4.7136Y-1.7333
X4.7199Y-3.1838
X4.7219Y-3.693
X4.7238Y-4.169
X4.7283Y-1.5004
X4.7362Y-2.3593
X4.7589Y-1.7966
X4.7608Y-3.6329
X4.7624Y-2.1872
X4.7909Y-2.4563
X4.8209Y-2.1112
X4.823Y-1.7858
X4.831Y-2.8082
X4.8663Y-2.1159
X4.8691Y-2.3927
X4.8829Y-2.626
X4.8948Y-2.9925
X4.91Y-4.2465
X4.972Y-4.2478
X4.989Y-2.1009
X5.022Y-2.1983
X5.0436Y-1.8143
X5.06Y-3.872
X5.0657Y-3.0751
X5.0703Y-2.5667
X5.0827Y-3.8336
X5.0855Y-3.6299
X5.0859Y-2.9623
X5.0953Y-4.055
X5.1213Y-2.2207
X5.1275Y-2.4719
X5.1289Y-3.6781
X5.1343Y-2.3637
X5.1406Y-2.1707
X5.1451Y-3.5787
X5.1466Y-3.2582
X5.147Y-2.6969
X5.1643Y-2.8007
X5.1772Y-3.7392
X5.1941Y-2.3897
X5.1969Y-3.8638
X5.197Y-3.0303
X5.2205Y-3.8317
X5.2378Y-4.0908
X5.248Y-3.287
X5.2663Y-1.9656
X5.2672Y-1.4482
X5.2717Y-1.5033
X5.2778Y-3.0109
X5.2816Y-1.7869
X5.2844Y-3.9514
X5.2947Y-2.6969
X5.2957Y-2.3374
X5.3079Y-3.8392
X5.3102Y-2.9806
X5.3106Y-2.2516
X5.3112Y-1.5033
X5.332Y-4.0431
X5.3351Y-2.8153
X5.3484Y-1.5823
X5.3584Y-3.0443
X5.3598Y-3.2165
X5.3619Y-1.5038
X5.3663Y-1.9833
X5.3813Y-2.4312
X5.3879Y-1.5833
X5.3914Y-3.1433
X5.3937Y-3.0757
X5.4128Y-3.5743
X5.418Y-2.9165
X5.426Y-2.3646
X5.4347Y-1.5037
X5.4401Y-1.582
X5.4602Y-1.2752
X5.463Y-2.5135
X5.4663Y-1.9833
X5.4707Y-4.2407
X5.4751Y-1.7954
X5.4769Y-1.4769
X5.478Y-3.2513
X5.4859Y-4.07
X5.4951Y-2.945
X5.5098Y-1.9813
X5.5278Y-1.5821
X5.5341Y-1.7935
X5.5352Y-1.9235
X5.5579Y-3.8834
X5.5667Y-3.4582
X5.5726Y-1.8871
X5.5738Y-2.0472
X5.6012Y-3.6994
X5.6094Y-2.0786
X5.6105Y-3.0747
X5.6122Y-2.785
X5.6122Y-2.128
X5.6201Y-1.46
X5.6214Y-3.114
X5.6306Y-1.5241
X5.6373Y-3.8834
X5.6573Y-3.8477
X5.6707Y-2.6703
X5.6934Y-3.7699
X5.6975Y-1.8527
X5.7Y-2.5206
X5.7009Y-2.8286
X5.7226Y-2.9673
X5.724Y-2.638
X5.7256Y-2.5952
X5.7297Y-3.922
X5.7353Y-2.8544
X5.7435Y-2.3624
X5.7486Y-4.0523
X5.7797Y-2.9702
X5.7965Y-3.0097
X5.8026Y-2.2207
X5.8431Y-1.8742
X5.8529Y-2.1042
X5.8665Y-1.5355
X5.8725Y-3.7353
X5.8752Y-3.7748
X5.8803Y-3.3168
X5.881Y-3.9616
X5.8893Y-2.6254
X5.8897Y-2.1614
X5.8959Y-3.5806
X5.9035Y-1.875
X5.9041Y-2.8079
X5.9092Y-2.7685
X5.9186Y-2.3717
X5.9298Y-4.1474
X5.9319Y-2.6014
X5.9363Y-3.5402
X5.9374Y-3.2923
X5.9453Y-2.8206
X5.9541Y-1.1401
X5.9634Y-3.7192
X5.9721Y-2.9345
X5.991Y-2.3469
X5.9948Y-2.5191
X6.0057Y-1.5516
X6.0079Y-3.2017
X6.0138Y-2.1329
X6.0157Y-3.882
X6.0196Y-3.0038
X6.0257Y-2.3752
X6.0297Y-4.2966
X6.0303Y-3.9586
X6.0347Y-2.0716
X6.0385Y-1.1993
X6.0412Y-4.1032
X6.0456Y-3.1586
X6.0516Y-1.4615
X6.0553Y-2.1769
X6.0555Y-3.3303
X6.0556Y-3.531
X6.0595Y-3.4725
X6.0657Y-2.7936
X6.0662Y-1.5741
X6.0666Y-2.3749
X6.0745Y-3.9213
X6.0754Y-2.1029
X6.0771Y-3.1828
X6.0869Y-2.1478
X6.0877Y-4.0897
X6.1031Y-2.0346
X6.1093Y-1.4804
X6.1129Y-3.8829
X6.1173Y-2.9345
X6.1188Y-4.2417
X6.1342Y-3.1773
X6.1366Y-1.5524
X6.1434Y-2.7633
X6.1439Y-3.8411
X6.1504Y-2.9119
X6.1657Y-1.4329
X6.1679Y-3.3464
X6.1742Y-1.5233
X6.1747Y-2.1986
X6.1756Y-2.1029
X6.1771Y-1.2496
X6.1791Y-2.0341
X6.1797Y-3.5015
X6.1864Y-4.1399
X6.197Y-4.2383
X6.2141Y-3.4655
X6.2201Y-1.8742
X6.2314Y-2.1419
X6.2321Y-2.8834
X6.2352Y-1.4329
X6.244Y-4.2146
X6.2451Y-4.2799
X6.2475Y-3.3999
X6.2524Y-2.8479
X6.2547Y-2.0346
X6.2556Y-2.6707
X6.2646Y-3.7982
X6.2655Y-2.3941
X6.2694Y-3.338
X6.2705Y-1.597
X6.272Y-3.2809
X6.2734Y-3.1931
X6.2844Y-1.7608
X6.292Y-1.875
X6.2943Y-2.0748
X6.3066Y-4.1399
X6.3072Y-3.0484
X6.3314Y-1.8739
X6.3344Y-2.5849
X6.3378Y-1.4216
X6.3458Y-3.939
X6.3624Y-3.558
X6.3697Y-4.0872
X6.3707Y-1.8745
X6.3826Y-3.201
X6.3926Y-2.9986
X6.4086Y-1.8316
X6.4243Y-2.9
X6.4414Y-1.2469
X6.4493Y-3.9718
X6.4557Y-2.7235
X6.4564Y-3.8946
X6.4617Y-1.7901
X6.4624Y-1.8316
X6.4628Y-3.1407
X6.4678Y-3.8132
X6.4744Y-2.5729
X6.4798Y-1.3863
X6.4868Y-3.437
X6.4887Y-3.5118
X6.4896Y-1.259
X6.4902Y-2.9349
X6.5004Y-3.754
X6.503Y-2.0581
X6.5147Y-3.0081
X6.5148Y-1.1437
X6.5283Y-3.6975
X6.5318Y-1.8151
X6.5419Y-1.5679
X6.5623Y-2.4324
X6.5659Y-2.0154
X6.5664Y-1.3863
X6.5665Y-2.2245
X6.5687Y-3.6822
X6.5719Y-1.8748
X6.5739Y-3.2878
X6.5879Y-2.7262
X6.5879Y-2.0537
X6.6074Y-1.2686
X6.6103Y-3.5352
X6.6117Y-3.7977
X6.6123Y-3.1486
X6.6123Y-1.8738
X6.6194Y-2.4501
X6.6293Y-2.1181
X6.645Y-2.0672
X6.6451Y-1.3933
X6.6498Y-3.0081
X6.6533Y-2.4032
X6.6536Y-1.5947
X6.6537Y-3.6486
X6.6645Y-2.0162
X6.673Y-3.2142
X6.6774Y-1.8031
X6.6785Y-2.3005
X6.687Y-2.3812
X6.7021Y-2.0672
X6.7285Y-2.1513
X6.7342Y-2.8537
X6.7379Y-3.8025
X6.7529Y-1.2939
X6.7568Y-1.892
X6.7834Y-2.015
X6.786Y-2.1707
X6.7964Y-1.2307
X6.8254Y-1.6401
X6.8296Y-3.0323
X6.8391Y-2.1241
X6.8406Y-1.7924
X6.8427Y-4.0008
X6.8438Y-2.0243
X6.8444Y-2.0651
X6.8519Y-3.1289
X6.8525Y-3.2638
X6.8554Y-2.5297
X6.8703Y-1.7664
X6.8761Y-3.5113
X6.8773Y-2.7568
X6.8879Y-2.9295
X6.8973Y-1.8927
X6.8977Y-2.0152
X6.9073Y-2.7884
X6.9271Y-2.8537
X6.9443Y-2.766
X6.9516Y-1.8127
X6.9528Y-2.477
X6.9626Y-3.793
X6.9672Y-2.0495
X6.981Y-2.4478
X6.9824Y-1.5658
X6.9874Y-2.394
X7.0011Y-4.0015
X7.0057Y-2.0162
X7.0128Y-1.8227
X7.0244Y-3.1306
X7.0331Y-2.6962
X7.043Y-1.5517
X7.0449Y-2.9377
X7.0495Y-3.1849
X7.0542Y-1.892
X7.0601Y-2.3806
X7.0608Y-4.0352
X7.0621Y-2.529
X7.0628Y-3.8181
X7.0742Y-3.3046
X7.1012Y-1.3066
X7.1019Y-2.5024
X7.1227Y-2.6218
X7.1299Y-2.078
X7.1337Y-2.3343
X7.1431Y-1.8924
X7.1441Y-2.7171
X7.1487Y-1.8227
X7.1526Y-2.4091
X7.1773Y-2.9616
X7.1885Y-1.812
X7.1962Y-1.3638
X7.2044Y-2.0156
X7.2187Y-1.8927
X7.2269Y-1.7345
X7.233Y-2.2414
X7.2524Y-1.5386
X7.2561Y-3.743
X7.2592Y-1.7935
X7.2615Y-1.3391
X7.2644Y-2.6942
X7.2689Y-1.8924
X7.2947Y-3.3472
X7.304Y-2.1897
X7.3064Y-2.0155
X7.3112Y-1.2967
X7.3177Y-1.8924
X7.3333Y-2.0495
X7.3442Y-3.2794
X7.3793Y-2.0957
X7.3817Y-2.0149
X7.3959Y-2.6942
X7.4068Y-3.7287
X7.4193Y-2.0437
X7.4268Y-2.2414
X7.4707Y-1.4182
X7.5307Y-3.2599
X7.5341Y-2.3323
X7.5498Y-2.1885
X7.5614Y-1.4182
X7.5767Y-2.35
X7.5817Y-3.8089
X7.5975Y-3.348
X7.6109Y-2.0807
X7.6165Y-1.2967
X7.6239Y-3.7453
X7.6439Y-1.8639
X7.6546Y-2.1649
X7.6565Y-2.9433
X7.658Y-3.2784
X7.6789Y-3.3131
X7.6828Y-1.8925
X7.6991Y-4.2127
X7.7033Y-2.0148
X7.7247Y-3.3131
X7.7296Y-2.6696
X7.7301Y-2.4071
X7.7502Y-2.6291
X7.7742Y-4.1553
X7.7788Y-1.8287
X7.7884Y-2.6648
X7.8056Y-3.3198
X7.8063Y-2.8794
X7.819Y-1.8624
X7.841Y-2.1649
X7.8475Y-2.015
X7.8641Y-1.5679
X7.8704Y-3.7966
X7.875Y-1.891
X7.879Y-2.3676
X7.9038Y-1.8625
X7.927Y-2.9433
X7.9392Y-4.0065
X7.9456Y-3.6296
X7.9457Y-2.1979
X7.9514Y-2.6818
X7.9587Y-3.7402
X7.9726Y-3.2243
X7.9874Y-3.0421
X8.0022Y-2.8413
X8.0314Y-2.8806
X8.0317Y-3.4452
X8.0318Y-3.6585
X8.0657Y-3.4233
X8.0781Y-1.4691
X8.0958Y-1.6373
X8.0987Y-2.0271
X8.133Y-2.9104
X8.1412Y-1.8687
X8.1679Y-4.0736
X8.2031Y-2.3356
X8.2465Y-2.6324
X8.2577Y-3.6656
X8.2602Y-4.0388
X8.2777Y-2.716
X8.3608Y-1.7647
X8.3678Y-2.2245
X8.3727Y-1.1735
X8.3908Y-1.5698
X8.4332Y-2.9925
X8.4354Y-2.1323
X8.4357Y-2.5291
X8.4417Y-4.1651
X8.4909Y-2.1984
X8.5199Y-1.4924
X8.53Y-1.4377
X8.5504Y-1.3818
X8.5539Y-2.6183
X8.5828Y-1.4662
X8.6123Y-1.7526
X8.6132Y-1.561
X8.6145Y-2.075
X8.6145Y-2.2555
X8.6443Y-2.1918
X8.6586Y-1.4082
X8.6743Y-2.1127
X8.7151Y-2.2568
X8.8091Y-1.6203
X8.8383Y-2.2275
X8.8589Y-1.3797
X8.869Y-2.151
X8.8848Y-1.5069
X8.8884Y-2.3656
X8.9054Y-2.4365
X8.9428Y-2.4985
X8.9501Y-3.6079
X8.9818Y-1.4377
X9.0012Y-1.7104
X9.0062Y-2.4494
X9.0286Y-2.2344
X9.038Y-2.1638
X9.0391Y-1.5182
X9.053Y-2.661
X9.0577Y-2.6216
X9.0868Y-2.4556
X9.1018Y-2.7081
X9.1164Y-2.2814
X9.1318Y-3.7755
X9.1358Y-2.1624
X9.146Y-3.6158
X9.1575Y-2.2826
X9.1644Y-2.1949
X9.2037Y-2.0886
X9.2417Y-2.3139
X9.2589Y-2.1043
X9.3325Y-1.9471
X9.404Y-2.4066
X9.4497Y-2.5375
X9.5041Y-2.1729
X9.5993Y-2.0214
X9.626Y-3.8791
X9.6728Y-2.1729
X9.6819Y-2.51
X9.7348Y-3.7941
X9.8657Y-3.7948
X9.8726Y-4.16
X9.9786Y-3.9195
X10.015Y-4.0085
X10.0667Y-3.9881
X10.0795Y-2.312
T2
X9.3238Y-3.294
X9.3738Y-3.294
X9.4238Y-3.294
X10.0333Y-2.5932
X10.0833Y-2.5932
X10.1333Y-2.5932
T3
X0.699Y-3.7805
X0.799Y-3.7805
X0.899Y-3.7805
X0.911Y-2.7992
X0.911Y-3.3992
X0.9114Y-2.0906
X0.9114Y-2.6906
X0.999Y-3.7805
X1.011Y-2.7992
X1.011Y-3.3992
X1.0114Y-2.0906
X1.0114Y-2.6906
X1.099Y-3.7805
X1.111Y-2.7992
X1.111Y-3.3992
X1.1114Y-2.0906
X1.1114Y-2.6906
X1.199Y-3.7805
X1.211Y-2.7992
X1.211Y-3.3992
X1.2114Y-2.0906
X1.2114Y-2.6906
X1.299Y-3.7805
X1.311Y-2.7992
X1.311Y-3.3992
X1.3114Y-2.0906
X1.3114Y-2.6906
X1.399Y-3.7805
X1.411Y-2.7992
X1.411Y-3.3992
X1.4114Y-2.0906
X1.4114Y-2.6906
X1.499Y-3.7805
X1.511Y-2.7992
X1.511Y-3.3992
X1.5114Y-2.0906
X1.5114Y-2.6906
X1.611Y-2.7992
X1.611Y-3.3992
X1.6114Y-2.0906
X1.6114Y-2.6906
X1.711Y-2.7992
X1.711Y-3.3992
X1.7114Y-2.0906
X1.7114Y-2.6906
X1.7435Y-1.3681
X1.7435Y-1.4681
X1.7435Y-1.5681
X1.7435Y-1.6681
X1.7435Y-1.7681
X1.811Y-2.7992
X1.811Y-3.3992
X1.8114Y-2.0906
X1.8114Y-2.6906
X1.8435Y-1.2681
X1.8435Y-1.3681
X1.8435Y-1.4681
X1.8435Y-1.5681
X1.8435Y-1.6681
X1.8435Y-1.7681
X1.8435Y-1.8681
X1.911Y-2.7992
X1.911Y-3.3992
X1.9114Y-2.0906
X1.9114Y-2.6906
X1.9435Y-1.2681
X1.9435Y-1.3681
X1.9435Y-1.7681
X1.9435Y-1.8681
X2.011Y-2.7992
X2.011Y-3.3992
X2.0114Y-2.0906
X2.0114Y-2.6906
X2.0435Y-1.2681
X2.0435Y-1.3681
X2.0435Y-1.7681
X2.0435Y-1.8681
X2.111Y-2.7992
X2.111Y-3.3992
X2.1114Y-2.0906
X2.1114Y-2.6906
X2.1435Y-1.2681
X2.1435Y-1.3681
X2.1435Y-1.4681
X2.1435Y-1.5681
X2.1435Y-1.6681
X2.1435Y-1.7681
X2.1435Y-1.8681
X2.211Y-2.7992
X2.211Y-3.3992
X2.2114Y-2.0906
X2.2114Y-2.6906
X2.2435Y-1.3681
X2.2435Y-1.4681
X2.2435Y-1.5681
X2.2435Y-1.6681
X2.2435Y-1.7681
X2.311Y-2.7992
X2.311Y-3.3992
X2.411Y-2.7992
X2.411Y-3.3992
X2.511Y-2.7992
X2.511Y-3.3992
X2.5305Y-1.6844
X2.5305Y-2.2844
X2.611Y-2.7992
X2.611Y-3.3992
X2.6201Y-1.1734
X2.6201Y-1.4734
X2.6305Y-1.6844
X2.6305Y-2.2844
X2.711Y-2.7992
X2.711Y-3.3992
X2.7201Y-1.1734
X2.7201Y-1.4734
X2.7305Y-1.6844
X2.7305Y-2.2844
X2.811Y-2.7992
X2.811Y-3.3992
X2.8201Y-1.1734
X2.8201Y-1.4734
X2.8305Y-1.6844
X2.8305Y-2.2844
X2.9201Y-1.1734
X2.9201Y-1.4734
X2.9305Y-1.6844
X2.9305Y-2.2844
X3.0305Y-1.6844
X3.0305Y-2.2844
X3.1169Y-2.5093
X3.1169Y-3.1093
X3.1305Y-1.6844
X3.1305Y-2.2844
X3.2169Y-2.5093
X3.2169Y-3.1093
X3.2305Y-1.6844
X3.2305Y-2.2844
X3.3169Y-2.5093
X3.3169Y-3.1093
X3.3305Y-1.6844
X3.3305Y-2.2844
X3.4169Y-2.5093
X3.4169Y-3.1093
X3.4305Y-1.6844
X3.4305Y-2.2844
X3.5169Y-2.5093
X3.5169Y-3.1093
X3.5305Y-1.6844
X3.5305Y-2.2844
X3.6169Y-2.5093
X3.6169Y-3.1093
X3.6305Y-1.6844
X3.6305Y-2.2844
X3.7169Y-2.5093
X3.7169Y-3.1093
X3.7305Y-1.6844
X3.7305Y-2.2844
X3.8169Y-2.5093
X3.8169Y-3.1093
X3.8305Y-1.6844
X3.8305Y-2.2844
X3.9169Y-2.5093
X3.9169Y-3.1093
X3.9305Y-1.6844
X3.9305Y-2.2844
X4.0169Y-2.5093
X4.0169Y-3.1093
X4.0305Y-1.6844
X4.0305Y-2.2844
X4.0524Y-3.3112
X4.0524Y-3.6112
X4.1169Y-2.5093
X4.1169Y-3.1093
X4.1305Y-1.6844
X4.1305Y-2.2844
X4.1524Y-3.3112
X4.1524Y-3.6112
X4.2169Y-2.5093
X4.2169Y-3.1093
X4.2305Y-1.6844
X4.2305Y-2.2844
X4.2524Y-3.3112
X4.2524Y-3.6112
X4.3169Y-2.5093
X4.3169Y-3.1093
X4.3305Y-1.6844
X4.3305Y-2.2844
X4.3524Y-3.3112
X4.3524Y-3.6112
X4.4169Y-2.5093
X4.4169Y-3.1093
X4.4305Y-1.6844
X4.4305Y-2.2844
X4.5169Y-2.5093
X4.5169Y-3.1093
X4.6169Y-2.5093
X4.6169Y-3.1093
X4.6663Y-1.6864
X4.6663Y-2.2864
X4.7169Y-2.5093
X4.7169Y-3.1093
X4.7663Y-1.6864
X4.7663Y-2.2864
X4.8169Y-2.5093
X4.8169Y-3.1093
X4.8663Y-1.6864
X4.8663Y-2.2864
X4.9169Y-2.5093
X4.9169Y-3.1093
X4.9663Y-1.6864
X4.9663Y-2.2864
X5.0169Y-2.5093
X5.0169Y-3.1093
X5.0663Y-1.6864
X5.0663Y-2.2864
X5.1663Y-1.6864
X5.1663Y-2.2864
X5.2663Y-1.6864
X5.2663Y-2.2864
X5.3663Y-1.6864
X5.3663Y-2.2864
X5.4663Y-1.6864
X5.4663Y-2.2864
X5.5663Y-1.6864
X5.5663Y-2.2864
X5.6663Y-1.6864
X5.6663Y-2.2864
X5.7663Y-1.6864
X5.7663Y-2.2864
X5.8663Y-1.6864
X5.8663Y-2.2864
X5.9663Y-1.6864
X5.9663Y-2.2864
X6.0663Y-1.6864
X6.0663Y-2.2864
X6.1663Y-1.6864
X6.1663Y-2.2864
X6.2663Y-1.6864
X6.2663Y-2.2864
X6.3663Y-1.6864
X6.3663Y-2.2864
X6.4663Y-1.6864
X6.4663Y-2.2864
X6.5663Y-1.6864
X6.5663Y-2.2864
X6.628Y-1.1843
X6.628Y-1.4843
X6.728Y-1.1843
X6.728Y-1.4843
X6.828Y-1.1843
X6.828Y-1.4843
X6.928Y-1.1843
X6.928Y-1.4843
X6.9702Y-1.6902
X6.9702Y-2.2902
X7.028Y-1.1843
X7.028Y-1.4843
X7.0702Y-1.6902
X7.0702Y-2.2902
X7.128Y-1.1843
X7.128Y-1.4843
X7.1516Y-2.7724
X7.1516Y-3.0724
X7.1516Y-3.167
X7.1516Y-3.467
X7.1516Y-3.5624
X7.1516Y-3.8624
X7.1516Y-3.957
X7.1516Y-4.257
X7.1702Y-1.6902
X7.1702Y-2.2902
X7.228Y-1.1843
X7.228Y-1.4843
X7.2516Y-2.7724
X7.2516Y-3.0724
X7.2516Y-3.167
X7.2516Y-3.467
X7.2516Y-3.5624
X7.2516Y-3.8624
X7.2516Y-3.957
X7.2516Y-4.257
X7.2702Y-1.6902
X7.2702Y-2.2902
X7.328Y-1.1843
X7.328Y-1.4843
X7.3516Y-2.7724
X7.3516Y-3.0724
X7.3516Y-3.167
X7.3516Y-3.467
X7.3516Y-3.5624
X7.3516Y-3.8624
X7.3516Y-3.957
X7.3516Y-4.257
X7.3702Y-1.6902
X7.3702Y-2.2902
X7.428Y-1.1843
X7.428Y-1.4843
X7.4516Y-2.7724
X7.4516Y-3.0724
X7.4516Y-3.167
X7.4516Y-3.467
X7.4516Y-3.5624
X7.4516Y-3.8624
X7.4516Y-3.957
X7.4516Y-4.257
X7.4702Y-1.6902
X7.4702Y-2.2902
X7.528Y-1.1843
X7.528Y-1.4843
X7.5516Y-2.7724
X7.5516Y-3.0724
X7.5516Y-3.167
X7.5516Y-3.467
X7.5516Y-3.5624
X7.5516Y-3.8624
X7.5516Y-3.957
X7.5516Y-4.257
X7.5702Y-1.6902
X7.5702Y-2.2902
X7.6516Y-2.7724
X7.6516Y-3.0724
X7.6516Y-3.167
X7.6516Y-3.467
X7.6516Y-3.5624
X7.6516Y-3.8624
X7.6516Y-3.957
X7.6516Y-4.257
X7.6702Y-1.6902
X7.6702Y-2.2902
X7.7516Y-2.7724
X7.7516Y-3.0724
X7.7516Y-3.167
X7.7516Y-3.467
X7.7516Y-3.5624
X7.7516Y-3.8624
X7.7516Y-3.957
X7.7516Y-4.257
X7.7702Y-1.6902
X7.7702Y-2.2902
X7.8516Y-2.7724
X7.8516Y-3.0724
X7.8516Y-3.167
X7.8516Y-3.467
X7.8516Y-3.5624
X7.8516Y-3.8624
X7.8516Y-3.957
X7.8516Y-4.257
X7.8702Y-1.6902
X7.8702Y-2.2902
X7.9702Y-1.6902
X7.9702Y-2.2902
X8.0702Y-1.6902
X8.0702Y-2.2902
X8.1486Y-2.773
X8.1486Y-3.073
X8.1486Y-3.1676
X8.1486Y-3.4676
X8.1486Y-3.563
X8.1486Y-3.863
X8.1486Y-3.9576
X8.1486Y-4.2576
X8.1702Y-1.6902
X8.1702Y-2.2902
X8.2486Y-2.773
X8.2486Y-3.073
X8.2486Y-3.1676
X8.2486Y-3.4676
X8.2486Y-3.563
X8.2486Y-3.863
X8.2486Y-3.9576
X8.2486Y-4.2576
X8.2702Y-1.6902
X8.2702Y-2.2902
X8.3486Y-2.773
X8.3486Y-3.073
X8.3486Y-3.1676
X8.3486Y-3.4676
X8.3486Y-3.563
X8.3486Y-3.863
X8.3486Y-3.9576
X8.3486Y-4.2576
X8.3702Y-1.6902
X8.3702Y-2.2902
X8.4486Y-2.773
X8.4486Y-3.073
X8.4486Y-3.1676
X8.4486Y-3.4676
X8.4486Y-3.563
X8.4486Y-3.863
X8.4486Y-3.9576
X8.4486Y-4.2576
X8.4702Y-1.6902
X8.4702Y-2.2902
X8.5486Y-2.773
X8.5486Y-3.073
X8.5486Y-3.1676
X8.5486Y-3.4676
X8.5486Y-3.563
X8.5486Y-3.863
X8.5486Y-3.9576
X8.5486Y-4.2576
X8.5702Y-1.6902
X8.5702Y-2.2902
X8.6486Y-2.773
X8.6486Y-3.073
X8.6486Y-3.1676
X8.6486Y-3.4676
X8.6486Y-3.563
X8.6486Y-3.863
X8.6486Y-3.9576
X8.6486Y-4.2576
X8.6702Y-1.6902
X8.6702Y-2.2902
X8.7486Y-2.773
X8.7486Y-3.073
X8.7486Y-3.1676
X8.7486Y-3.4676
X8.7486Y-3.563
X8.7486Y-3.863
X8.7486Y-3.9576
X8.7486Y-4.2576
X8.7702Y-1.6902
X8.7702Y-2.2902
X8.8486Y-2.773
X8.8486Y-3.073
X8.8486Y-3.1676
X8.8486Y-3.4676
X8.8486Y-3.563
X8.8486Y-3.863
X8.8486Y-3.9576
X8.8486Y-4.2576
X8.8702Y-1.6902
X8.8702Y-2.2902
X9.6524Y-3.2979
X9.8445Y-3.2979
X9.9749Y-1.8887
X10.0734Y-1.8887
T4
X0.702Y-1.312
X0.702Y-1.412
X0.702Y-1.512
X0.702Y-1.712
X0.702Y-1.812
X0.702Y-1.912
X0.702Y-2.012
X0.702Y-2.112
X0.702Y-2.212
X0.702Y-2.312
X0.702Y-2.412
X0.702Y-2.512
X0.702Y-2.612
X0.702Y-2.712
X0.702Y-2.812
X0.702Y-2.912
X0.702Y-3.012
X0.702Y-3.112
X0.702Y-3.212
X0.702Y-3.312
X0.702Y-3.412
X0.702Y-3.512
X0.702Y-3.612
X1.2235Y-3.9854
X1.278Y-4.0972
X1.3326Y-3.9854
X1.3871Y-4.0972
X1.4416Y-3.9854
X1.4961Y-4.0972
X1.5507Y-3.9854
X1.6052Y-4.0972
X1.6597Y-3.9854
X3.5102Y-1.2252
X3.5102Y-1.3252
X3.6102Y-1.2252
X3.6102Y-1.3252
X3.7102Y-1.2252
X3.7102Y-1.3252
X3.8102Y-1.2252
X3.8102Y-1.3252
X3.9102Y-1.2252
X3.9102Y-1.3252
X4.0102Y-1.2252
X4.0102Y-1.3252
X4.1102Y-1.2252
X4.1102Y-1.3252
X4.2102Y-1.2252
X4.2102Y-1.3252
X4.3102Y-1.2252
X4.3102Y-1.3252
X4.4102Y-1.2252
X4.4102Y-1.3252
X4.5102Y-1.2252
X4.5102Y-1.3252
X4.6102Y-1.2252
X4.6102Y-1.3252
X4.7102Y-1.2252
X4.7102Y-1.3252
X4.8102Y-1.2252
X4.8102Y-1.3252
X4.9102Y-1.2252
X4.9102Y-1.3252
X5.0102Y-1.2252
X5.0102Y-1.3252
X5.1102Y-1.2252
X5.1102Y-1.3252
X5.2102Y-1.2252
X5.2102Y-1.3252
X5.3102Y-1.2252
X5.3102Y-1.3252
X5.4102Y-1.2252
X5.4102Y-1.3252
X5.5102Y-1.2252
X5.5102Y-1.3252
X5.6102Y-1.2252
X5.6102Y-1.3252
X5.7102Y-1.2252
X5.7102Y-1.3252
X5.8102Y-1.2252
X5.8102Y-1.3252
X5.9102Y-1.2252
X5.9102Y-1.3252
X6.7835Y-2.6978
X6.7835Y-2.7978
X7.2002Y-2.4828
X7.2002Y-2.5828
X7.3002Y-2.4828
X7.3002Y-2.5828
X7.4002Y-2.4828
X7.4002Y-2.5828
X7.5002Y-2.4828
X7.5002Y-2.5828
X7.6002Y-2.4828
X7.6002Y-2.5828
X7.7002Y-2.4828
X7.7002Y-2.5828
X7.8002Y-2.4828
X7.8002Y-2.5828
X7.9002Y-2.4828
X7.9002Y-2.5828
X7.9469Y-1.2937
X7.9469Y-1.3937
X8.0002Y-2.4828
X8.0002Y-2.5828
X8.0896Y-1.2937
X8.0896Y-1.3937
X8.1002Y-2.4828
X8.1002Y-2.5828
X8.2002Y-2.4828
X8.2002Y-2.5828
X8.2333Y-1.2937
X8.2333Y-1.3937
X8.3002Y-2.4828
X8.3002Y-2.5828
X8.4002Y-2.4828
X8.4002Y-2.5828
X8.5002Y-2.4828
X8.5002Y-2.5828
X8.6002Y-2.4828
X8.6002Y-2.5828
X8.7002Y-2.4828
X8.7002Y-2.5828
X8.8002Y-2.4828
X8.8002Y-2.5828
X9.3926Y-4.24
X9.4926Y-4.24
X9.5926Y-4.24
X9.6926Y-4.24
X9.7926Y-4.24
X9.8926Y-4.24
X9.9926Y-4.24
X10.0926Y-4.24
T5
X9.068Y-1.5856
X9.1664Y-1.684
X9.3633Y-1.5856
X9.3633Y-1.7824
X9.5601Y-1.684
X9.6586Y-1.5856
T6
X9.1633Y-1.1937
X9.2649Y-1.1919
X9.3633Y-1.1937
X9.4617Y-1.1919
X9.557Y-1.1937
T7
X7.998Y-3.865
T8
X0.71Y-4.244
X1.409Y-1.726
X2.472Y-3.562
X3.14Y-1.25
X4.85Y-3.25
X8.82Y-1.25
X9.626Y-4.052
X9.99Y-2.858
T9
X0.9495Y-4.0413
X1.9337Y-4.0413
T3
G00X0.9171Y-1.4351
M15
G01X0.9171Y-1.4626
M16
G05
G00X1.0156Y-1.4351
M15
G01X1.0156Y-1.4626
M16
G05
G00X1.1278Y-1.252
M15
G01X1.1002Y-1.252
M16
G05
G00X1.2124Y-1.4351
M15
G01X1.2124Y-1.4626
M16
G05
G00X1.3109Y-1.4351
M15
G01X1.3109Y-1.4626
M16
G05
T4
G00X9.87Y-1.4724
M15
G01X9.87Y-1.5512
M16
G05
G00X10.0944Y-1.3937
M15
G01X10.0157Y-1.3937
M16
G05
G00X10.0944Y-1.6299
M15
G01X10.0157Y-1.6299
M16
G05
T0
M30
