M48
; DRILL file {KiCad (6.0.0)} date Fri Nov 25 01:18:32 2022
; FORMAT={-:-/ absolute / inch / decimal}
; #@! TF.CreationDate,2022-11-25T01:18:32+00:00
; #@! TF.GenerationSoftware,Kicad,Pcbnew,(6.0.0)
; #@! TF.FileFunction,Plated,1,2,PTH
FMAT,2
INCH
; #@! TA.AperFunction,Plated,PTH,ViaDrill
T1C0.0157
; #@! TA.AperFunction,Plated,PTH,ComponentDrill
T2C0.0394
%
G90
G05
T1
X7.6984Y-2.1452
X9.1997Y-2.1439
X10.036Y-2.198
T2
X7.5742Y-2.3702
X7.5742Y-2.4702
X7.6742Y-2.3702
X7.6742Y-2.4702
X7.7742Y-2.3702
X7.7742Y-2.4702
X7.8742Y-2.3702
X7.8742Y-2.4702
X7.9742Y-2.3702
X7.9742Y-2.4702
X8.0742Y-2.3702
X8.0742Y-2.4702
X8.1742Y-2.3702
X8.1742Y-2.4702
X8.2742Y-2.3702
X8.2742Y-2.4702
X8.3742Y-2.3702
X8.3742Y-2.4702
X8.4742Y-2.3702
X8.4742Y-2.4702
X8.5742Y-2.3702
X8.5742Y-2.4702
X8.6742Y-2.3702
X8.6742Y-2.4702
X8.7742Y-2.3702
X8.7742Y-2.4702
X8.8742Y-2.3702
X8.8742Y-2.4702
X8.9742Y-2.3702
X8.9742Y-2.4702
X9.0742Y-2.3702
X9.0742Y-2.4702
X9.1742Y-2.3702
X9.1742Y-2.4702
X9.2742Y-2.3702
X9.2742Y-2.4702
X9.3742Y-2.3702
X9.3742Y-2.4702
X9.4742Y-2.3702
X9.4742Y-2.4702
X9.5742Y-2.3702
X9.5742Y-2.4702
X9.6742Y-2.3702
X9.6742Y-2.4702
X9.7742Y-2.3702
X9.7742Y-2.4702
X9.8742Y-2.3702
X9.8742Y-2.4702
X9.9742Y-2.3702
X9.9742Y-2.4702
T0
M30
