%TF.GenerationSoftware,KiCad,Pcbnew,(6.0.0)*%
%TF.CreationDate,2022-11-25T01:18:30+00:00*%
%TF.ProjectId,CPC464-2MINI-EDGE,43504334-3634-42d3-924d-494e492d4544,rev?*%
%TF.SameCoordinates,Original*%
%TF.FileFunction,Legend,Bot*%
%TF.FilePolarity,Positive*%
%FSLAX46Y46*%
G04 Gerber Fmt 4.6, Leading zero omitted, Abs format (unit mm)*
G04 Created by KiCad (PCBNEW (6.0.0)) date 2022-11-25 01:18:30*
%MOMM*%
%LPD*%
G01*
G04 APERTURE LIST*
%ADD10C,0.150000*%
G04 APERTURE END LIST*
D10*
X254442476Y-57110380D02*
X253871047Y-57110380D01*
X254156761Y-58110380D02*
X254156761Y-57110380D01*
X253537714Y-58110380D02*
X253537714Y-57110380D01*
X253109142Y-58110380D02*
X253109142Y-57586571D01*
X253156761Y-57491333D01*
X253252000Y-57443714D01*
X253394857Y-57443714D01*
X253490095Y-57491333D01*
X253537714Y-57538952D01*
X252204380Y-58110380D02*
X252204380Y-57586571D01*
X252252000Y-57491333D01*
X252347238Y-57443714D01*
X252537714Y-57443714D01*
X252632952Y-57491333D01*
X252204380Y-58062761D02*
X252299619Y-58110380D01*
X252537714Y-58110380D01*
X252632952Y-58062761D01*
X252680571Y-57967523D01*
X252680571Y-57872285D01*
X252632952Y-57777047D01*
X252537714Y-57729428D01*
X252299619Y-57729428D01*
X252204380Y-57681809D01*
X251728190Y-57443714D02*
X251728190Y-58110380D01*
X251728190Y-57538952D02*
X251680571Y-57491333D01*
X251585333Y-57443714D01*
X251442476Y-57443714D01*
X251347238Y-57491333D01*
X251299619Y-57586571D01*
X251299619Y-58110380D01*
X250823428Y-58110380D02*
X250823428Y-57110380D01*
X250728190Y-57729428D02*
X250442476Y-58110380D01*
X250442476Y-57443714D02*
X250823428Y-57824666D01*
X250061523Y-58062761D02*
X249966285Y-58110380D01*
X249775809Y-58110380D01*
X249680571Y-58062761D01*
X249632952Y-57967523D01*
X249632952Y-57919904D01*
X249680571Y-57824666D01*
X249775809Y-57777047D01*
X249918666Y-57777047D01*
X250013904Y-57729428D01*
X250061523Y-57634190D01*
X250061523Y-57586571D01*
X250013904Y-57491333D01*
X249918666Y-57443714D01*
X249775809Y-57443714D01*
X249680571Y-57491333D01*
X248585333Y-57443714D02*
X248204380Y-57443714D01*
X248442476Y-57110380D02*
X248442476Y-57967523D01*
X248394857Y-58062761D01*
X248299619Y-58110380D01*
X248204380Y-58110380D01*
X247728190Y-58110380D02*
X247823428Y-58062761D01*
X247871047Y-58015142D01*
X247918666Y-57919904D01*
X247918666Y-57634190D01*
X247871047Y-57538952D01*
X247823428Y-57491333D01*
X247728190Y-57443714D01*
X247585333Y-57443714D01*
X247490095Y-57491333D01*
X247442476Y-57538952D01*
X247394857Y-57634190D01*
X247394857Y-57919904D01*
X247442476Y-58015142D01*
X247490095Y-58062761D01*
X247585333Y-58110380D01*
X247728190Y-58110380D01*
X245632952Y-58110380D02*
X245966285Y-57634190D01*
X246204380Y-58110380D02*
X246204380Y-57110380D01*
X245823428Y-57110380D01*
X245728190Y-57158000D01*
X245680571Y-57205619D01*
X245632952Y-57300857D01*
X245632952Y-57443714D01*
X245680571Y-57538952D01*
X245728190Y-57586571D01*
X245823428Y-57634190D01*
X246204380Y-57634190D01*
X245061523Y-58110380D02*
X245156761Y-58062761D01*
X245204380Y-58015142D01*
X245252000Y-57919904D01*
X245252000Y-57634190D01*
X245204380Y-57538952D01*
X245156761Y-57491333D01*
X245061523Y-57443714D01*
X244918666Y-57443714D01*
X244823428Y-57491333D01*
X244775809Y-57538952D01*
X244728190Y-57634190D01*
X244728190Y-57919904D01*
X244775809Y-58015142D01*
X244823428Y-58062761D01*
X244918666Y-58110380D01*
X245061523Y-58110380D01*
X244299619Y-58110380D02*
X244299619Y-57110380D01*
X244299619Y-57491333D02*
X244204380Y-57443714D01*
X244013904Y-57443714D01*
X243918666Y-57491333D01*
X243871047Y-57538952D01*
X243823428Y-57634190D01*
X243823428Y-57919904D01*
X243871047Y-58015142D01*
X243918666Y-58062761D01*
X244013904Y-58110380D01*
X244204380Y-58110380D01*
X244299619Y-58062761D01*
X242680571Y-57110380D02*
X242680571Y-57300857D01*
X242299619Y-57110380D02*
X242299619Y-57300857D01*
X241871047Y-58110380D02*
X241871047Y-57110380D01*
X241490095Y-57110380D01*
X241394857Y-57158000D01*
X241347238Y-57205619D01*
X241299619Y-57300857D01*
X241299619Y-57443714D01*
X241347238Y-57538952D01*
X241394857Y-57586571D01*
X241490095Y-57634190D01*
X241871047Y-57634190D01*
X240490095Y-58062761D02*
X240585333Y-58110380D01*
X240775809Y-58110380D01*
X240871047Y-58062761D01*
X240918666Y-57967523D01*
X240918666Y-57586571D01*
X240871047Y-57491333D01*
X240775809Y-57443714D01*
X240585333Y-57443714D01*
X240490095Y-57491333D01*
X240442476Y-57586571D01*
X240442476Y-57681809D01*
X240918666Y-57777047D01*
X239632952Y-58062761D02*
X239728190Y-58110380D01*
X239918666Y-58110380D01*
X240013904Y-58062761D01*
X240061523Y-57967523D01*
X240061523Y-57586571D01*
X240013904Y-57491333D01*
X239918666Y-57443714D01*
X239728190Y-57443714D01*
X239632952Y-57491333D01*
X239585333Y-57586571D01*
X239585333Y-57681809D01*
X240061523Y-57777047D01*
X239156761Y-57443714D02*
X239156761Y-58443714D01*
X239156761Y-57491333D02*
X239061523Y-57443714D01*
X238871047Y-57443714D01*
X238775809Y-57491333D01*
X238728190Y-57538952D01*
X238680571Y-57634190D01*
X238680571Y-57919904D01*
X238728190Y-58015142D01*
X238775809Y-58062761D01*
X238871047Y-58110380D01*
X239061523Y-58110380D01*
X239156761Y-58062761D01*
X238109142Y-58110380D02*
X238204380Y-58062761D01*
X238252000Y-58015142D01*
X238299619Y-57919904D01*
X238299619Y-57634190D01*
X238252000Y-57538952D01*
X238204380Y-57491333D01*
X238109142Y-57443714D01*
X237966285Y-57443714D01*
X237871047Y-57491333D01*
X237823428Y-57538952D01*
X237775809Y-57634190D01*
X237775809Y-57919904D01*
X237823428Y-58015142D01*
X237871047Y-58062761D01*
X237966285Y-58110380D01*
X238109142Y-58110380D01*
X237394857Y-57110380D02*
X237394857Y-57300857D01*
X237013904Y-57110380D02*
X237013904Y-57300857D01*
X235966285Y-57110380D02*
X235394857Y-57110380D01*
X235680571Y-58110380D02*
X235680571Y-57110380D01*
X234632952Y-58110380D02*
X234632952Y-57586571D01*
X234680571Y-57491333D01*
X234775809Y-57443714D01*
X234966285Y-57443714D01*
X235061523Y-57491333D01*
X234632952Y-58062761D02*
X234728190Y-58110380D01*
X234966285Y-58110380D01*
X235061523Y-58062761D01*
X235109142Y-57967523D01*
X235109142Y-57872285D01*
X235061523Y-57777047D01*
X234966285Y-57729428D01*
X234728190Y-57729428D01*
X234632952Y-57681809D01*
X234252000Y-57443714D02*
X234013904Y-58110380D01*
X233775809Y-57443714D02*
X234013904Y-58110380D01*
X234109142Y-58348476D01*
X234156761Y-58396095D01*
X234252000Y-58443714D01*
X233252000Y-58110380D02*
X233347238Y-58062761D01*
X233394857Y-57967523D01*
X233394857Y-57110380D01*
X232728190Y-58110380D02*
X232823428Y-58062761D01*
X232871047Y-58015142D01*
X232918666Y-57919904D01*
X232918666Y-57634190D01*
X232871047Y-57538952D01*
X232823428Y-57491333D01*
X232728190Y-57443714D01*
X232585333Y-57443714D01*
X232490095Y-57491333D01*
X232442476Y-57538952D01*
X232394857Y-57634190D01*
X232394857Y-57919904D01*
X232442476Y-58015142D01*
X232490095Y-58062761D01*
X232585333Y-58110380D01*
X232728190Y-58110380D01*
X231966285Y-58110380D02*
X231966285Y-57443714D01*
X231966285Y-57634190D02*
X231918666Y-57538952D01*
X231871047Y-57491333D01*
X231775809Y-57443714D01*
X231680571Y-57443714D01*
X230156761Y-58110380D02*
X230156761Y-57586571D01*
X230204380Y-57491333D01*
X230299619Y-57443714D01*
X230490095Y-57443714D01*
X230585333Y-57491333D01*
X230156761Y-58062761D02*
X230252000Y-58110380D01*
X230490095Y-58110380D01*
X230585333Y-58062761D01*
X230632952Y-57967523D01*
X230632952Y-57872285D01*
X230585333Y-57777047D01*
X230490095Y-57729428D01*
X230252000Y-57729428D01*
X230156761Y-57681809D01*
X229680571Y-57443714D02*
X229680571Y-58110380D01*
X229680571Y-57538952D02*
X229632952Y-57491333D01*
X229537714Y-57443714D01*
X229394857Y-57443714D01*
X229299619Y-57491333D01*
X229252000Y-57586571D01*
X229252000Y-58110380D01*
X228347238Y-58110380D02*
X228347238Y-57110380D01*
X228347238Y-58062761D02*
X228442476Y-58110380D01*
X228632952Y-58110380D01*
X228728190Y-58062761D01*
X228775809Y-58015142D01*
X228823428Y-57919904D01*
X228823428Y-57634190D01*
X228775809Y-57538952D01*
X228728190Y-57491333D01*
X228632952Y-57443714D01*
X228442476Y-57443714D01*
X228347238Y-57491333D01*
X226537714Y-58015142D02*
X226585333Y-58062761D01*
X226728190Y-58110380D01*
X226823428Y-58110380D01*
X226966285Y-58062761D01*
X227061523Y-57967523D01*
X227109142Y-57872285D01*
X227156761Y-57681809D01*
X227156761Y-57538952D01*
X227109142Y-57348476D01*
X227061523Y-57253238D01*
X226966285Y-57158000D01*
X226823428Y-57110380D01*
X226728190Y-57110380D01*
X226585333Y-57158000D01*
X226537714Y-57205619D01*
X226109142Y-58110380D02*
X226109142Y-57110380D01*
X225680571Y-58110380D02*
X225680571Y-57586571D01*
X225728190Y-57491333D01*
X225823428Y-57443714D01*
X225966285Y-57443714D01*
X226061523Y-57491333D01*
X226109142Y-57538952D01*
X225204380Y-58110380D02*
X225204380Y-57443714D01*
X225204380Y-57634190D02*
X225156761Y-57538952D01*
X225109142Y-57491333D01*
X225013904Y-57443714D01*
X224918666Y-57443714D01*
X224585333Y-58110380D02*
X224585333Y-57443714D01*
X224585333Y-57110380D02*
X224632952Y-57158000D01*
X224585333Y-57205619D01*
X224537714Y-57158000D01*
X224585333Y-57110380D01*
X224585333Y-57205619D01*
X224156761Y-58062761D02*
X224061523Y-58110380D01*
X223871047Y-58110380D01*
X223775809Y-58062761D01*
X223728190Y-57967523D01*
X223728190Y-57919904D01*
X223775809Y-57824666D01*
X223871047Y-57777047D01*
X224013904Y-57777047D01*
X224109142Y-57729428D01*
X224156761Y-57634190D01*
X224156761Y-57586571D01*
X224109142Y-57491333D01*
X224013904Y-57443714D01*
X223871047Y-57443714D01*
X223775809Y-57491333D01*
X223347238Y-58062761D02*
X223252000Y-58110380D01*
X223061523Y-58110380D01*
X222966285Y-58062761D01*
X222918666Y-57967523D01*
X222918666Y-57919904D01*
X222966285Y-57824666D01*
X223061523Y-57777047D01*
X223204380Y-57777047D01*
X223299619Y-57729428D01*
X223347238Y-57634190D01*
X223347238Y-57586571D01*
X223299619Y-57491333D01*
X223204380Y-57443714D01*
X223061523Y-57443714D01*
X222966285Y-57491333D01*
X222585333Y-57443714D02*
X222347238Y-58110380D01*
X222109142Y-57443714D02*
X222347238Y-58110380D01*
X222442476Y-58348476D01*
X222490095Y-58396095D01*
X222585333Y-58443714D01*
M02*
