%TF.GenerationSoftware,KiCad,Pcbnew,(6.0.0)*%
%TF.CreationDate,2022-11-25T01:18:30+00:00*%
%TF.ProjectId,CPC464-2MINI-EDGE,43504334-3634-42d3-924d-494e492d4544,rev?*%
%TF.SameCoordinates,Original*%
%TF.FileFunction,Copper,L2,Bot*%
%TF.FilePolarity,Positive*%
%FSLAX46Y46*%
G04 Gerber Fmt 4.6, Leading zero omitted, Abs format (unit mm)*
G04 Created by KiCad (PCBNEW (6.0.0)) date 2022-11-25 01:18:30*
%MOMM*%
%LPD*%
G01*
G04 APERTURE LIST*
%TA.AperFunction,ComponentPad*%
%ADD10R,1.700000X1.700000*%
%TD*%
%TA.AperFunction,ComponentPad*%
%ADD11O,1.700000X1.700000*%
%TD*%
%TA.AperFunction,ConnectorPad*%
%ADD12R,1.800000X10.000000*%
%TD*%
%TA.AperFunction,ViaPad*%
%ADD13C,0.800000*%
%TD*%
%TA.AperFunction,Conductor*%
%ADD14C,0.762000*%
%TD*%
%TA.AperFunction,Conductor*%
%ADD15C,0.250000*%
%TD*%
G04 APERTURE END LIST*
D10*
%TO.P,PL2,1,Pin_1*%
%TO.N,SOUND*%
X192384600Y-62743000D03*
D11*
%TO.P,PL2,2,Pin_2*%
%TO.N,GND*%
X192384600Y-60203000D03*
%TO.P,PL2,3,Pin_3*%
%TO.N,/A15*%
X194924600Y-62743000D03*
%TO.P,PL2,4,Pin_4*%
%TO.N,/A14*%
X194924600Y-60203000D03*
%TO.P,PL2,5,Pin_5*%
%TO.N,/A13*%
X197464600Y-62743000D03*
%TO.P,PL2,6,Pin_6*%
%TO.N,/A12*%
X197464600Y-60203000D03*
%TO.P,PL2,7,Pin_7*%
%TO.N,/A11*%
X200004600Y-62743000D03*
%TO.P,PL2,8,Pin_8*%
%TO.N,/A10*%
X200004600Y-60203000D03*
%TO.P,PL2,9,Pin_9*%
%TO.N,/A9*%
X202544600Y-62743000D03*
%TO.P,PL2,10,Pin_10*%
%TO.N,/A8*%
X202544600Y-60203000D03*
%TO.P,PL2,11,Pin_11*%
%TO.N,/A7*%
X205084600Y-62743000D03*
%TO.P,PL2,12,Pin_12*%
%TO.N,/A6*%
X205084600Y-60203000D03*
%TO.P,PL2,13,Pin_13*%
%TO.N,/A5*%
X207624600Y-62743000D03*
%TO.P,PL2,14,Pin_14*%
%TO.N,/A4*%
X207624600Y-60203000D03*
%TO.P,PL2,15,Pin_15*%
%TO.N,/A3*%
X210164600Y-62743000D03*
%TO.P,PL2,16,Pin_16*%
%TO.N,/A2*%
X210164600Y-60203000D03*
%TO.P,PL2,17,Pin_17*%
%TO.N,/A1*%
X212704600Y-62743000D03*
%TO.P,PL2,18,Pin_18*%
%TO.N,/A0*%
X212704600Y-60203000D03*
%TO.P,PL2,19,Pin_19*%
%TO.N,/D7*%
X215244600Y-62743000D03*
%TO.P,PL2,20,Pin_20*%
%TO.N,/D6*%
X215244600Y-60203000D03*
%TO.P,PL2,21,Pin_21*%
%TO.N,/D5*%
X217784600Y-62743000D03*
%TO.P,PL2,22,Pin_22*%
%TO.N,/D4*%
X217784600Y-60203000D03*
%TO.P,PL2,23,Pin_23*%
%TO.N,/D3*%
X220324600Y-62743000D03*
%TO.P,PL2,24,Pin_24*%
%TO.N,/D2*%
X220324600Y-60203000D03*
%TO.P,PL2,25,Pin_25*%
%TO.N,/D1*%
X222864600Y-62743000D03*
%TO.P,PL2,26,Pin_26*%
%TO.N,/D0*%
X222864600Y-60203000D03*
%TO.P,PL2,27,Pin_27*%
%TO.N,+5V*%
X225404600Y-62743000D03*
%TO.P,PL2,28,Pin_28*%
%TO.N,MREQ*%
X225404600Y-60203000D03*
%TO.P,PL2,29,Pin_29*%
%TO.N,M1*%
X227944600Y-62743000D03*
%TO.P,PL2,30,Pin_30*%
%TO.N,RFSH*%
X227944600Y-60203000D03*
%TO.P,PL2,31,Pin_31*%
%TO.N,IORQ*%
X230484600Y-62743000D03*
%TO.P,PL2,32,Pin_32*%
%TO.N,RD*%
X230484600Y-60203000D03*
%TO.P,PL2,33,Pin_33*%
%TO.N,WR*%
X233024600Y-62743000D03*
%TO.P,PL2,34,Pin_34*%
%TO.N,HALT*%
X233024600Y-60203000D03*
%TO.P,PL2,35,Pin_35*%
%TO.N,INT*%
X235564600Y-62743000D03*
%TO.P,PL2,36,Pin_36*%
%TO.N,NMI*%
X235564600Y-60203000D03*
%TO.P,PL2,37,Pin_37*%
%TO.N,BUSRQ*%
X238104600Y-62743000D03*
%TO.P,PL2,38,Pin_38*%
%TO.N,BUSAK*%
X238104600Y-60203000D03*
%TO.P,PL2,39,Pin_39*%
%TO.N,READY*%
X240644600Y-62743000D03*
%TO.P,PL2,40,Pin_40*%
%TO.N,BUS*%
X240644600Y-60203000D03*
%TO.P,PL2,41,Pin_41*%
%TO.N,RESET*%
X243184600Y-62743000D03*
%TO.P,PL2,42,Pin_42*%
%TO.N,ROMEN*%
X243184600Y-60203000D03*
%TO.P,PL2,43,Pin_43*%
%TO.N,ROMDIS*%
X245724600Y-62743000D03*
%TO.P,PL2,44,Pin_44*%
%TO.N,RAMRD*%
X245724600Y-60203000D03*
%TO.P,PL2,45,Pin_45*%
%TO.N,RAMDIS*%
X248264600Y-62743000D03*
%TO.P,PL2,46,Pin_46*%
%TO.N,CURSOR*%
X248264600Y-60203000D03*
%TO.P,PL2,47,Pin_47*%
%TO.N,LPEN*%
X250804600Y-62743000D03*
%TO.P,PL2,48,Pin_48*%
%TO.N,EXP*%
X250804600Y-60203000D03*
%TO.P,PL2,49,Pin_49*%
%TO.N,GND*%
X253344600Y-62743000D03*
%TO.P,PL2,50,Pin_50*%
%TO.N,A100*%
X253344600Y-60203000D03*
%TD*%
D12*
%TO.P,PL3,2,Pin_2*%
%TO.N,GND*%
X192296200Y-48412400D03*
%TO.P,PL3,4,Pin_4*%
%TO.N,/A14*%
X194840568Y-48412400D03*
%TO.P,PL3,6,Pin_6*%
%TO.N,/A12*%
X197384937Y-48412400D03*
%TO.P,PL3,8,Pin_8*%
%TO.N,/A10*%
X199929305Y-48412400D03*
%TO.P,PL3,10,Pin_10*%
%TO.N,/A8*%
X202473674Y-48412400D03*
%TO.P,PL3,12,Pin_12*%
%TO.N,/A6*%
X205018042Y-48412400D03*
%TO.P,PL3,14,Pin_14*%
%TO.N,/A4*%
X207562411Y-48412400D03*
%TO.P,PL3,16,Pin_16*%
%TO.N,/A2*%
X210106779Y-48412400D03*
%TO.P,PL3,18,Pin_18*%
%TO.N,/A0*%
X212651147Y-48412400D03*
%TO.P,PL3,20,Pin_20*%
%TO.N,/D6*%
X215195516Y-48412400D03*
%TO.P,PL3,22,Pin_22*%
%TO.N,/D4*%
X217739884Y-48412400D03*
%TO.P,PL3,24,Pin_24*%
%TO.N,/D2*%
X220284253Y-48412400D03*
%TO.P,PL3,26,Pin_26*%
%TO.N,/D0*%
X222828621Y-48412400D03*
%TO.P,PL3,28,Pin_28*%
%TO.N,MREQ*%
X225372989Y-48412400D03*
%TO.P,PL3,30,Pin_30*%
%TO.N,RFSH*%
X227917358Y-48412400D03*
%TO.P,PL3,32,Pin_32*%
%TO.N,RD*%
X230461726Y-48412400D03*
%TO.P,PL3,34,Pin_34*%
%TO.N,HALT*%
X233006095Y-48412400D03*
%TO.P,PL3,36,Pin_36*%
%TO.N,NMI*%
X235550463Y-48412400D03*
%TO.P,PL3,38,Pin_38*%
%TO.N,BUSAK*%
X238094832Y-48412400D03*
%TO.P,PL3,40,Pin_40*%
%TO.N,BUS*%
X240639200Y-48412400D03*
%TO.P,PL3,42,Pin_42*%
%TO.N,ROMEN*%
X243183568Y-48412400D03*
%TO.P,PL3,44,Pin_44*%
%TO.N,RAMRD*%
X245727200Y-48412400D03*
%TO.P,PL3,46,Pin_46*%
%TO.N,CURSOR*%
X248277200Y-48412400D03*
%TO.P,PL3,48,Pin_48*%
%TO.N,EXP*%
X250817200Y-48412400D03*
%TO.P,PL3,50,Pin_50*%
%TO.N,A100*%
X253357200Y-48412400D03*
%TD*%
D13*
%TO.N,GND*%
X254914000Y-55829200D03*
%TO.N,/A15*%
X195539900Y-54487200D03*
%TO.N,WR*%
X233672600Y-54454400D03*
%TD*%
D14*
%TO.N,GND*%
X192385000Y-48500800D02*
X192340500Y-48456600D01*
X192385000Y-60203000D02*
X192385000Y-48500800D01*
X254914000Y-61173200D02*
X253345000Y-62743000D01*
X254914000Y-55829200D02*
X254914000Y-61173200D01*
X190576000Y-64439800D02*
X190576000Y-60579000D01*
D15*
X192340400Y-48456600D02*
X192296200Y-48412400D01*
D14*
X252850000Y-64439800D02*
X190576000Y-64439800D01*
X192384600Y-60203000D02*
X192385000Y-60203000D01*
D15*
X192340500Y-48456600D02*
X192340400Y-48456600D01*
D14*
X190952000Y-60203000D02*
X192384600Y-60203000D01*
X253345000Y-62743000D02*
X253345000Y-63945100D01*
D15*
X253344600Y-62743000D02*
X253345000Y-62743000D01*
D14*
X190576000Y-60579000D02*
X190952000Y-60203000D01*
X253345000Y-63945100D02*
X252850000Y-64439800D01*
X192340500Y-48456600D02*
X192296000Y-48412400D01*
D15*
%TO.N,/A15*%
X196150100Y-60751700D02*
X196150100Y-55097400D01*
X196150100Y-55097400D02*
X195539900Y-54487200D01*
X194924600Y-62743000D02*
X194924600Y-61517500D01*
X195384300Y-61517500D02*
X196150100Y-60751700D01*
X194924600Y-61517500D02*
X195384300Y-61517500D01*
%TO.N,/A14*%
X194764400Y-53864100D02*
X194764400Y-58817300D01*
X194764400Y-58817300D02*
X194924600Y-58977500D01*
X194840600Y-53787900D02*
X194764400Y-53864100D01*
X194840600Y-48412400D02*
X194840600Y-53787900D01*
X194924600Y-60203000D02*
X194924600Y-58977500D01*
%TO.N,/A12*%
X197384900Y-58897800D02*
X197464600Y-58977500D01*
X197464600Y-60203000D02*
X197464600Y-58977500D01*
X197384900Y-48412400D02*
X197384900Y-58897800D01*
%TO.N,/A10*%
X200004600Y-60203000D02*
X200004600Y-58977500D01*
X199929300Y-48412400D02*
X199929300Y-58902200D01*
X199929300Y-58902200D02*
X200004600Y-58977500D01*
%TO.N,/A8*%
X202390900Y-53870700D02*
X202390900Y-58823800D01*
X202473700Y-53787900D02*
X202390900Y-53870700D01*
X202473700Y-48412400D02*
X202473700Y-53787900D01*
X202390900Y-58823800D02*
X202544600Y-58977500D01*
X202544600Y-60203000D02*
X202544600Y-58977500D01*
%TO.N,/A6*%
X205084600Y-60203000D02*
X205084600Y-58977500D01*
X205018000Y-58910900D02*
X205084600Y-58977500D01*
X205018000Y-48412400D02*
X205018000Y-58910900D01*
%TO.N,/A4*%
X207624600Y-60203000D02*
X207624600Y-58977500D01*
X207562400Y-48412400D02*
X207562400Y-58915300D01*
X207562400Y-58915300D02*
X207624600Y-58977500D01*
%TO.N,/A2*%
X210164600Y-60203000D02*
X210164600Y-58977500D01*
X210106800Y-48412400D02*
X210106800Y-53787900D01*
X210106800Y-53787900D02*
X210017500Y-53877200D01*
X210017500Y-58830400D02*
X210164600Y-58977500D01*
X210017500Y-53877200D02*
X210017500Y-58830400D01*
%TO.N,/A0*%
X212651100Y-58924000D02*
X212704600Y-58977500D01*
X212651100Y-48412400D02*
X212651100Y-58924000D01*
X212704600Y-60203000D02*
X212704600Y-58977500D01*
%TO.N,/D6*%
X215195500Y-53787900D02*
X215101800Y-53881600D01*
X215101800Y-58834700D02*
X215244600Y-58977500D01*
X215195500Y-48412400D02*
X215195500Y-53787900D01*
X215101800Y-53881600D02*
X215101800Y-58834700D01*
X215244600Y-60203000D02*
X215244600Y-58977500D01*
%TO.N,/D4*%
X217739900Y-48412400D02*
X217739900Y-58932800D01*
X217739900Y-58932800D02*
X217784600Y-58977500D01*
X217784600Y-60203000D02*
X217784600Y-58977500D01*
%TO.N,/D2*%
X220324600Y-53828200D02*
X220324600Y-60203000D01*
X220284300Y-48412400D02*
X220284300Y-53787900D01*
X220284300Y-53787900D02*
X220324600Y-53828200D01*
%TO.N,/D0*%
X222828600Y-48412400D02*
X222828600Y-53787900D01*
X222828600Y-53787900D02*
X222864600Y-53823900D01*
X222864600Y-53823900D02*
X222864600Y-60203000D01*
%TO.N,MREQ*%
X225373000Y-48412400D02*
X225373000Y-58945900D01*
X225373000Y-58945900D02*
X225404600Y-58977500D01*
X225404600Y-60203000D02*
X225404600Y-58977500D01*
%TO.N,RFSH*%
X227917400Y-58950300D02*
X227944600Y-58977500D01*
X227917400Y-48412400D02*
X227917400Y-58950300D01*
X227944600Y-60203000D02*
X227944600Y-58977500D01*
%TO.N,RD*%
X230484600Y-53810800D02*
X230484600Y-60203000D01*
X230461700Y-53787900D02*
X230484600Y-53810800D01*
X230461700Y-48412400D02*
X230461700Y-53787900D01*
%TO.N,WR*%
X233484300Y-61517500D02*
X234250100Y-60751700D01*
X234250100Y-55031900D02*
X233672600Y-54454400D01*
X233024600Y-62743000D02*
X233024600Y-61517500D01*
X234250100Y-60751700D02*
X234250100Y-55031900D01*
X233024600Y-61517500D02*
X233484300Y-61517500D01*
%TO.N,HALT*%
X233006100Y-53787900D02*
X232897100Y-53896900D01*
X232897100Y-58850000D02*
X233024600Y-58977500D01*
X233024600Y-60203000D02*
X233024600Y-58977500D01*
X232897100Y-53896900D02*
X232897100Y-58850000D01*
X233006100Y-48412400D02*
X233006100Y-53787900D01*
%TO.N,NMI*%
X235550500Y-53787900D02*
X235564600Y-53802000D01*
X235550500Y-48412400D02*
X235550500Y-53787900D01*
X235564600Y-53802000D02*
X235564600Y-60203000D01*
%TO.N,BUSAK*%
X238094800Y-48412400D02*
X238094800Y-53787900D01*
X238104600Y-53797700D02*
X238104600Y-60203000D01*
X238094800Y-53787900D02*
X238104600Y-53797700D01*
%TO.N,BUS*%
X240523700Y-53903400D02*
X240523700Y-58856600D01*
X240639200Y-53787900D02*
X240523700Y-53903400D01*
X240639200Y-48412400D02*
X240639200Y-53787900D01*
X240523700Y-58856600D02*
X240644600Y-58977500D01*
X240644600Y-60203000D02*
X240644600Y-58977500D01*
%TO.N,ROMEN*%
X243183600Y-48412400D02*
X243183600Y-53787900D01*
X243184600Y-53788900D02*
X243184600Y-60203000D01*
X243183600Y-53787900D02*
X243184600Y-53788900D01*
%TO.N,RAMRD*%
X245727200Y-48412400D02*
X245727200Y-58974900D01*
X245727200Y-58974900D02*
X245724600Y-58977500D01*
X245724600Y-60203000D02*
X245724600Y-58977500D01*
%TO.N,CURSOR*%
X248277200Y-48412400D02*
X248277200Y-53787900D01*
X248264600Y-53800500D02*
X248264600Y-60203000D01*
X248277200Y-53787900D02*
X248264600Y-53800500D01*
%TO.N,EXP*%
X250804600Y-60203000D02*
X250804600Y-58977500D01*
X250817200Y-58964900D02*
X250804600Y-58977500D01*
X250817200Y-48412400D02*
X250817200Y-58964900D01*
%TO.N,A100*%
X253357200Y-53787900D02*
X253344600Y-53800500D01*
X253357200Y-48412400D02*
X253357200Y-53787900D01*
X253344600Y-53800500D02*
X253344600Y-60203000D01*
%TD*%
%TA.AperFunction,Conductor*%
%TO.N,GND*%
G36*
X192492321Y-48178402D02*
G01*
X192538814Y-48232058D01*
X192550200Y-48284400D01*
X192550200Y-53902284D01*
X192554675Y-53917523D01*
X192556065Y-53918728D01*
X192563748Y-53920399D01*
X193240869Y-53920399D01*
X193247690Y-53920029D01*
X193298552Y-53914505D01*
X193313804Y-53910879D01*
X193434254Y-53865724D01*
X193449849Y-53857186D01*
X193492402Y-53825294D01*
X193558908Y-53800446D01*
X193628291Y-53815499D01*
X193643532Y-53825294D01*
X193693863Y-53863015D01*
X193830252Y-53914145D01*
X193892434Y-53920900D01*
X194004900Y-53920900D01*
X194073021Y-53940902D01*
X194119514Y-53994558D01*
X194130900Y-54046900D01*
X194130900Y-58738533D01*
X194130373Y-58749716D01*
X194128698Y-58757209D01*
X194128947Y-58765135D01*
X194128947Y-58765136D01*
X194130838Y-58825286D01*
X194130900Y-58829245D01*
X194130900Y-58857156D01*
X194131397Y-58861090D01*
X194131397Y-58861091D01*
X194131405Y-58861156D01*
X194132338Y-58872993D01*
X194133727Y-58917189D01*
X194139176Y-58935945D01*
X194139378Y-58936639D01*
X194143387Y-58956000D01*
X194144844Y-58967529D01*
X194145926Y-58976097D01*
X194148844Y-58983467D01*
X194150101Y-58988363D01*
X194147667Y-59059317D01*
X194103712Y-59120456D01*
X194019565Y-59183635D01*
X193865229Y-59345138D01*
X193862320Y-59349403D01*
X193862314Y-59349411D01*
X193850004Y-59367457D01*
X193757804Y-59502618D01*
X193757498Y-59503066D01*
X193702587Y-59548069D01*
X193632062Y-59556240D01*
X193568315Y-59524986D01*
X193547618Y-59500502D01*
X193467026Y-59375926D01*
X193460736Y-59367757D01*
X193317406Y-59210240D01*
X193309873Y-59203215D01*
X193142739Y-59071222D01*
X193134152Y-59065517D01*
X192947717Y-58962599D01*
X192938305Y-58958369D01*
X192737559Y-58887280D01*
X192727588Y-58884646D01*
X192656437Y-58871972D01*
X192643140Y-58873432D01*
X192638600Y-58887989D01*
X192638600Y-60331000D01*
X192618598Y-60399121D01*
X192564942Y-60445614D01*
X192512600Y-60457000D01*
X191067825Y-60457000D01*
X191054294Y-60460973D01*
X191052857Y-60470966D01*
X191083165Y-60605446D01*
X191086245Y-60615275D01*
X191166370Y-60812603D01*
X191171013Y-60821794D01*
X191282294Y-61003388D01*
X191288377Y-61011699D01*
X191427813Y-61172667D01*
X191435177Y-61179879D01*
X191440122Y-61183985D01*
X191479756Y-61242889D01*
X191481253Y-61313870D01*
X191444137Y-61374392D01*
X191403864Y-61398910D01*
X191296305Y-61439232D01*
X191296304Y-61439233D01*
X191287895Y-61442385D01*
X191171339Y-61529739D01*
X191083985Y-61646295D01*
X191032855Y-61782684D01*
X191026100Y-61844866D01*
X191026100Y-63641134D01*
X191032855Y-63703316D01*
X191083985Y-63839705D01*
X191171339Y-63956261D01*
X191287895Y-64043615D01*
X191296304Y-64046767D01*
X191296305Y-64046768D01*
X191355123Y-64068818D01*
X191411888Y-64111459D01*
X191436588Y-64178021D01*
X191421381Y-64247370D01*
X191371095Y-64297488D01*
X191310894Y-64312800D01*
X190829200Y-64312800D01*
X190761079Y-64292798D01*
X190714586Y-64239142D01*
X190703200Y-64186800D01*
X190703200Y-59937183D01*
X191048989Y-59937183D01*
X191050512Y-59945607D01*
X191062892Y-59949000D01*
X192112485Y-59949000D01*
X192127724Y-59944525D01*
X192128929Y-59943135D01*
X192130600Y-59935452D01*
X192130600Y-58886102D01*
X192126682Y-58872758D01*
X192112406Y-58870771D01*
X192073924Y-58876660D01*
X192063888Y-58879051D01*
X191861468Y-58945212D01*
X191851959Y-58949209D01*
X191663063Y-59047542D01*
X191654338Y-59053036D01*
X191484033Y-59180905D01*
X191476326Y-59187748D01*
X191329190Y-59341717D01*
X191322704Y-59349727D01*
X191202698Y-59525649D01*
X191197600Y-59534623D01*
X191107938Y-59727783D01*
X191104375Y-59737470D01*
X191048989Y-59937183D01*
X190703200Y-59937183D01*
X190703200Y-53705200D01*
X190723202Y-53637079D01*
X190776858Y-53590586D01*
X190847132Y-53580482D01*
X190911712Y-53609976D01*
X190939719Y-53644690D01*
X190951410Y-53666043D01*
X191027915Y-53768124D01*
X191040476Y-53780685D01*
X191142551Y-53857186D01*
X191158146Y-53865724D01*
X191278594Y-53910878D01*
X191293849Y-53914505D01*
X191344714Y-53920031D01*
X191351528Y-53920400D01*
X192024085Y-53920400D01*
X192039324Y-53915925D01*
X192040529Y-53914535D01*
X192042200Y-53906852D01*
X192042200Y-48284400D01*
X192062202Y-48216279D01*
X192115858Y-48169786D01*
X192168200Y-48158400D01*
X192424200Y-48158400D01*
X192492321Y-48178402D01*
G37*
%TD.AperFunction*%
%TA.AperFunction,Conductor*%
G36*
X252156938Y-63417678D02*
G01*
X252184766Y-63449511D01*
X252242294Y-63543388D01*
X252248377Y-63551699D01*
X252387813Y-63712667D01*
X252395180Y-63719883D01*
X252559034Y-63855916D01*
X252567481Y-63861831D01*
X252751356Y-63969279D01*
X252760642Y-63973729D01*
X252959601Y-64049703D01*
X252969499Y-64052579D01*
X253022338Y-64063329D01*
X253085104Y-64096511D01*
X253119966Y-64158359D01*
X253115857Y-64229236D01*
X253074081Y-64286641D01*
X253007901Y-64312346D01*
X252997218Y-64312800D01*
X251158402Y-64312800D01*
X251090281Y-64292798D01*
X251043788Y-64239142D01*
X251033684Y-64168868D01*
X251063178Y-64104288D01*
X251122194Y-64066114D01*
X251297029Y-64013661D01*
X251297034Y-64013659D01*
X251301984Y-64012174D01*
X251502594Y-63913896D01*
X251684460Y-63784173D01*
X251842696Y-63626489D01*
X251973053Y-63445077D01*
X251974240Y-63445930D01*
X252021560Y-63402362D01*
X252091497Y-63390145D01*
X252156938Y-63417678D01*
G37*
%TD.AperFunction*%
%TA.AperFunction,Conductor*%
G36*
X254900236Y-62928843D02*
G01*
X254930495Y-62993068D01*
X254932000Y-63012483D01*
X254932000Y-64186800D01*
X254911998Y-64254921D01*
X254858342Y-64301414D01*
X254806000Y-64312800D01*
X253696662Y-64312800D01*
X253628541Y-64292798D01*
X253582048Y-64239142D01*
X253571944Y-64168868D01*
X253601438Y-64104288D01*
X253660454Y-64066114D01*
X253836855Y-64013191D01*
X253846442Y-64009433D01*
X254037695Y-63915739D01*
X254046545Y-63910464D01*
X254219928Y-63786792D01*
X254227800Y-63780139D01*
X254378652Y-63629812D01*
X254385330Y-63621965D01*
X254509603Y-63449020D01*
X254514913Y-63440183D01*
X254609270Y-63249267D01*
X254613069Y-63239672D01*
X254674976Y-63035915D01*
X254677155Y-63025834D01*
X254681078Y-62996037D01*
X254709800Y-62931110D01*
X254769065Y-62892018D01*
X254840057Y-62891173D01*
X254900236Y-62928843D01*
G37*
%TD.AperFunction*%
%TA.AperFunction,Conductor*%
G36*
X254900236Y-60392673D02*
G01*
X254930495Y-60456899D01*
X254932000Y-60476313D01*
X254932000Y-62469201D01*
X254911998Y-62537322D01*
X254858342Y-62583815D01*
X254788068Y-62593919D01*
X254723488Y-62564425D01*
X254683796Y-62499897D01*
X254635814Y-62308875D01*
X254632494Y-62299124D01*
X254547572Y-62103814D01*
X254542705Y-62094739D01*
X254427026Y-61915926D01*
X254420736Y-61907757D01*
X254277406Y-61750240D01*
X254269873Y-61743215D01*
X254102739Y-61611222D01*
X254094156Y-61605520D01*
X254057202Y-61585120D01*
X254007231Y-61534687D01*
X253992459Y-61465245D01*
X254017575Y-61398839D01*
X254044927Y-61372232D01*
X254068910Y-61355125D01*
X254224460Y-61244173D01*
X254240921Y-61227770D01*
X254379035Y-61090137D01*
X254382696Y-61086489D01*
X254513053Y-60905077D01*
X254526595Y-60877678D01*
X254609736Y-60709453D01*
X254609737Y-60709451D01*
X254612030Y-60704811D01*
X254676970Y-60491069D01*
X254681078Y-60459867D01*
X254709801Y-60394939D01*
X254769066Y-60355848D01*
X254840057Y-60355003D01*
X254900236Y-60392673D01*
G37*
%TD.AperFunction*%
%TA.AperFunction,Conductor*%
G36*
X254895145Y-53649148D02*
G01*
X254929135Y-53711479D01*
X254932000Y-53738194D01*
X254932000Y-59927148D01*
X254911998Y-59995269D01*
X254858342Y-60041762D01*
X254788068Y-60051866D01*
X254723488Y-60022372D01*
X254683796Y-59957843D01*
X254636292Y-59768723D01*
X254635031Y-59763702D01*
X254545954Y-59558840D01*
X254424614Y-59371277D01*
X254274270Y-59206051D01*
X254270219Y-59202852D01*
X254270215Y-59202848D01*
X254103014Y-59070800D01*
X254103010Y-59070798D01*
X254098959Y-59067598D01*
X254094435Y-59065101D01*
X254094431Y-59065098D01*
X254043208Y-59036822D01*
X253993236Y-58986390D01*
X253978100Y-58926513D01*
X253978100Y-54046900D01*
X253998102Y-53978779D01*
X254051758Y-53932286D01*
X254104100Y-53920900D01*
X254305334Y-53920900D01*
X254367516Y-53914145D01*
X254503905Y-53863015D01*
X254620461Y-53775661D01*
X254705174Y-53662629D01*
X254762033Y-53620114D01*
X254832852Y-53615088D01*
X254895145Y-53649148D01*
G37*
%TD.AperFunction*%
%TD*%
M02*
