%TF.GenerationSoftware,KiCad,Pcbnew,(6.0.7)*%
%TF.CreationDate,2023-01-24T22:55:54+00:00*%
%TF.ProjectId,CPC464-2MINICAS1,43504334-3634-42d3-924d-494e49434153,rev?*%
%TF.SameCoordinates,Original*%
%TF.FileFunction,Copper,L1,Top*%
%TF.FilePolarity,Positive*%
%FSLAX46Y46*%
G04 Gerber Fmt 4.6, Leading zero omitted, Abs format (unit mm)*
G04 Created by KiCad (PCBNEW (6.0.7)) date 2023-01-24 22:55:54*
%MOMM*%
%LPD*%
G01*
G04 APERTURE LIST*
G04 Aperture macros list*
%AMRoundRect*
0 Rectangle with rounded corners*
0 $1 Rounding radius*
0 $2 $3 $4 $5 $6 $7 $8 $9 X,Y pos of 4 corners*
0 Add a 4 corners polygon primitive as box body*
4,1,4,$2,$3,$4,$5,$6,$7,$8,$9,$2,$3,0*
0 Add four circle primitives for the rounded corners*
1,1,$1+$1,$2,$3*
1,1,$1+$1,$4,$5*
1,1,$1+$1,$6,$7*
1,1,$1+$1,$8,$9*
0 Add four rect primitives between the rounded corners*
20,1,$1+$1,$2,$3,$4,$5,0*
20,1,$1+$1,$4,$5,$6,$7,0*
20,1,$1+$1,$6,$7,$8,$9,0*
20,1,$1+$1,$8,$9,$2,$3,0*%
G04 Aperture macros list end*
%TA.AperFunction,SMDPad,CuDef*%
%ADD10RoundRect,0.250000X0.475000X-0.250000X0.475000X0.250000X-0.475000X0.250000X-0.475000X-0.250000X0*%
%TD*%
%TA.AperFunction,ComponentPad*%
%ADD11R,1.600000X1.600000*%
%TD*%
%TA.AperFunction,ComponentPad*%
%ADD12O,1.600000X1.600000*%
%TD*%
%TA.AperFunction,ComponentPad*%
%ADD13C,3.800000*%
%TD*%
%TA.AperFunction,ComponentPad*%
%ADD14R,1.700000X1.700000*%
%TD*%
%TA.AperFunction,ComponentPad*%
%ADD15O,1.700000X1.700000*%
%TD*%
%TA.AperFunction,SMDPad,CuDef*%
%ADD16RoundRect,0.250000X-0.450000X0.262500X-0.450000X-0.262500X0.450000X-0.262500X0.450000X0.262500X0*%
%TD*%
%TA.AperFunction,SMDPad,CuDef*%
%ADD17RoundRect,0.250000X-0.625000X0.375000X-0.625000X-0.375000X0.625000X-0.375000X0.625000X0.375000X0*%
%TD*%
%TA.AperFunction,ViaPad*%
%ADD18C,0.800000*%
%TD*%
%TA.AperFunction,Conductor*%
%ADD19C,0.250000*%
%TD*%
%TA.AperFunction,Conductor*%
%ADD20C,0.500000*%
%TD*%
G04 APERTURE END LIST*
D10*
%TO.P,C708,1*%
%TO.N,+5V*%
X85329000Y-84485200D03*
%TO.P,C708,2*%
%TO.N,GND*%
X85329000Y-82585200D03*
%TD*%
D11*
%TO.P,IC704,1,NC*%
%TO.N,MV*%
X38303200Y-87309800D03*
D12*
%TO.P,IC704,2,DIN*%
%TO.N,/D3*%
X40843200Y-87309800D03*
%TO.P,IC704,3,~{WRITE}*%
%TO.N,MWE*%
X43383200Y-87309800D03*
%TO.P,IC704,4,~{RAS}*%
%TO.N,RAS*%
X45923200Y-87309800D03*
%TO.P,IC704,5,A0*%
%TO.N,/XA0*%
X48463200Y-87309800D03*
%TO.P,IC704,6,A2*%
%TO.N,/XA2*%
X51003200Y-87309800D03*
%TO.P,IC704,7,A1*%
%TO.N,/XA1*%
X53543200Y-87309800D03*
%TO.P,IC704,8,VCC*%
%TO.N,+5V*%
X56083200Y-87309800D03*
%TO.P,IC704,9,A7*%
%TO.N,/XA7*%
X56083200Y-79689800D03*
%TO.P,IC704,10,A5*%
%TO.N,/XA5*%
X53543200Y-79689800D03*
%TO.P,IC704,11,A4*%
%TO.N,/XA4*%
X51003200Y-79689800D03*
%TO.P,IC704,12,A3*%
%TO.N,/XA3*%
X48463200Y-79689800D03*
%TO.P,IC704,13,A6*%
%TO.N,/XA6*%
X45923200Y-79689800D03*
%TO.P,IC704,14,DOUT*%
%TO.N,/GD3*%
X43383200Y-79689800D03*
%TO.P,IC704,15,~{CAS}*%
%TO.N,CAS1*%
X40843200Y-79689800D03*
%TO.P,IC704,16,GND*%
%TO.N,GND*%
X38303200Y-79689800D03*
%TD*%
D13*
%TO.P,H8,1,1*%
%TO.N,GND*%
X59827400Y-78556800D03*
%TD*%
D11*
%TO.P,IC707,1,NC*%
%TO.N,MV*%
X63627000Y-77302200D03*
D12*
%TO.P,IC707,2,DIN*%
%TO.N,/D6*%
X66167000Y-77302200D03*
%TO.P,IC707,3,~{WRITE}*%
%TO.N,MWE*%
X68707000Y-77302200D03*
%TO.P,IC707,4,~{RAS}*%
%TO.N,RAS*%
X71247000Y-77302200D03*
%TO.P,IC707,5,A0*%
%TO.N,/XA0*%
X73787000Y-77302200D03*
%TO.P,IC707,6,A2*%
%TO.N,/XA2*%
X76327000Y-77302200D03*
%TO.P,IC707,7,A1*%
%TO.N,/XA1*%
X78867000Y-77302200D03*
%TO.P,IC707,8,VCC*%
%TO.N,+5V*%
X81407000Y-77302200D03*
%TO.P,IC707,9,A7*%
%TO.N,/XA7*%
X81407000Y-69682200D03*
%TO.P,IC707,10,A5*%
%TO.N,/XA5*%
X78867000Y-69682200D03*
%TO.P,IC707,11,A4*%
%TO.N,/XA4*%
X76327000Y-69682200D03*
%TO.P,IC707,12,A3*%
%TO.N,/XA3*%
X73787000Y-69682200D03*
%TO.P,IC707,13,A6*%
%TO.N,/XA6*%
X71247000Y-69682200D03*
%TO.P,IC707,14,DOUT*%
%TO.N,/GD6*%
X68707000Y-69682200D03*
%TO.P,IC707,15,~{CAS}*%
%TO.N,CAS1*%
X66167000Y-69682200D03*
%TO.P,IC707,16,GND*%
%TO.N,GND*%
X63627000Y-69682200D03*
%TD*%
D14*
%TO.P,J1200,1,Pin_1*%
%TO.N,/XA0*%
X80217200Y-43398400D03*
D15*
%TO.P,J1200,2,Pin_2*%
%TO.N,/XA1*%
X80217200Y-45938400D03*
%TO.P,J1200,3,Pin_3*%
%TO.N,/XA2*%
X77677200Y-43398400D03*
%TO.P,J1200,4,Pin_4*%
%TO.N,/XA3*%
X77677200Y-45938400D03*
%TO.P,J1200,5,Pin_5*%
%TO.N,/XA4*%
X75137200Y-43398400D03*
%TO.P,J1200,6,Pin_6*%
%TO.N,/XA5*%
X75137200Y-45938400D03*
%TO.P,J1200,7,Pin_7*%
%TO.N,/XA6*%
X72597200Y-43398400D03*
%TO.P,J1200,8,Pin_8*%
%TO.N,/XA7*%
X72597200Y-45938400D03*
%TO.P,J1200,9,Pin_9*%
%TO.N,/D0*%
X70057200Y-43398400D03*
%TO.P,J1200,10,Pin_10*%
%TO.N,/D1*%
X70057200Y-45938400D03*
%TO.P,J1200,11,Pin_11*%
%TO.N,/D2*%
X67517200Y-43398400D03*
%TO.P,J1200,12,Pin_12*%
%TO.N,/D3*%
X67517200Y-45938400D03*
%TO.P,J1200,13,Pin_13*%
%TO.N,/D4*%
X64977200Y-43398400D03*
%TO.P,J1200,14,Pin_14*%
%TO.N,/D5*%
X64977200Y-45938400D03*
%TO.P,J1200,15,Pin_15*%
%TO.N,/D6*%
X62437200Y-43398400D03*
%TO.P,J1200,16,Pin_16*%
%TO.N,/D7*%
X62437200Y-45938400D03*
%TO.P,J1200,17,Pin_17*%
%TO.N,GND*%
X59897200Y-43398400D03*
%TO.P,J1200,18,Pin_18*%
X59897200Y-45938400D03*
%TO.P,J1200,19,Pin_19*%
%TO.N,/GD0*%
X57357200Y-43398400D03*
%TO.P,J1200,20,Pin_20*%
%TO.N,/GD1*%
X57357200Y-45938400D03*
%TO.P,J1200,21,Pin_21*%
%TO.N,/GD2*%
X54817200Y-43398400D03*
%TO.P,J1200,22,Pin_22*%
%TO.N,/GD3*%
X54817200Y-45938400D03*
%TO.P,J1200,23,Pin_23*%
%TO.N,/GD4*%
X52277200Y-43398400D03*
%TO.P,J1200,24,Pin_24*%
%TO.N,/GD5*%
X52277200Y-45938400D03*
%TO.P,J1200,25,Pin_25*%
%TO.N,/GD6*%
X49737200Y-43398400D03*
%TO.P,J1200,26,Pin_26*%
%TO.N,/GD7*%
X49737200Y-45938400D03*
%TO.P,J1200,27,Pin_27*%
%TO.N,+5V*%
X47197200Y-43398400D03*
%TO.P,J1200,28,Pin_28*%
%TO.N,CAS1*%
X47197200Y-45938400D03*
%TO.P,J1200,29,Pin_29*%
%TO.N,CAS0*%
X44657200Y-43398400D03*
%TO.P,J1200,30,Pin_30*%
%TO.N,RAS*%
X44657200Y-45938400D03*
%TO.P,J1200,31,Pin_31*%
%TO.N,MWE*%
X42117200Y-43398400D03*
%TO.P,J1200,32,Pin_32*%
%TO.N,RSV2*%
X42117200Y-45938400D03*
%TO.P,J1200,33,Pin_33*%
%TO.N,RSV1*%
X39577200Y-43398400D03*
%TO.P,J1200,34,Pin_34*%
%TO.N,+5V*%
X39577200Y-45938400D03*
%TD*%
D10*
%TO.P,C703,1*%
%TO.N,+5V*%
X34239200Y-74436800D03*
%TO.P,C703,2*%
%TO.N,GND*%
X34239200Y-72536800D03*
%TD*%
%TO.P,C705,1*%
%TO.N,+5V*%
X85329000Y-54513200D03*
%TO.P,C705,2*%
%TO.N,GND*%
X85329000Y-52613200D03*
%TD*%
D11*
%TO.P,IC705,1,NC*%
%TO.N,MV*%
X63627000Y-57236200D03*
D12*
%TO.P,IC705,2,DIN*%
%TO.N,/D4*%
X66167000Y-57236200D03*
%TO.P,IC705,3,~{WRITE}*%
%TO.N,MWE*%
X68707000Y-57236200D03*
%TO.P,IC705,4,~{RAS}*%
%TO.N,RAS*%
X71247000Y-57236200D03*
%TO.P,IC705,5,A0*%
%TO.N,/XA0*%
X73787000Y-57236200D03*
%TO.P,IC705,6,A2*%
%TO.N,/XA2*%
X76327000Y-57236200D03*
%TO.P,IC705,7,A1*%
%TO.N,/XA1*%
X78867000Y-57236200D03*
%TO.P,IC705,8,VCC*%
%TO.N,+5V*%
X81407000Y-57236200D03*
%TO.P,IC705,9,A7*%
%TO.N,/XA7*%
X81407000Y-49616200D03*
%TO.P,IC705,10,A5*%
%TO.N,/XA5*%
X78867000Y-49616200D03*
%TO.P,IC705,11,A4*%
%TO.N,/XA4*%
X76327000Y-49616200D03*
%TO.P,IC705,12,A3*%
%TO.N,/XA3*%
X73787000Y-49616200D03*
%TO.P,IC705,13,A6*%
%TO.N,/XA6*%
X71247000Y-49616200D03*
%TO.P,IC705,14,DOUT*%
%TO.N,/GD4*%
X68707000Y-49616200D03*
%TO.P,IC705,15,~{CAS}*%
%TO.N,CAS1*%
X66167000Y-49616200D03*
%TO.P,IC705,16,GND*%
%TO.N,GND*%
X63627000Y-49616200D03*
%TD*%
D10*
%TO.P,C707,1*%
%TO.N,+5V*%
X85329000Y-74452200D03*
%TO.P,C707,2*%
%TO.N,GND*%
X85329000Y-72552200D03*
%TD*%
D11*
%TO.P,IC701,1,NC*%
%TO.N,MV*%
X38303200Y-57220800D03*
D12*
%TO.P,IC701,2,DIN*%
%TO.N,/D0*%
X40843200Y-57220800D03*
%TO.P,IC701,3,~{WRITE}*%
%TO.N,MWE*%
X43383200Y-57220800D03*
%TO.P,IC701,4,~{RAS}*%
%TO.N,RAS*%
X45923200Y-57220800D03*
%TO.P,IC701,5,A0*%
%TO.N,/XA0*%
X48463200Y-57220800D03*
%TO.P,IC701,6,A2*%
%TO.N,/XA2*%
X51003200Y-57220800D03*
%TO.P,IC701,7,A1*%
%TO.N,/XA1*%
X53543200Y-57220800D03*
%TO.P,IC701,8,VCC*%
%TO.N,+5V*%
X56083200Y-57220800D03*
%TO.P,IC701,9,A7*%
%TO.N,/XA7*%
X56083200Y-49600800D03*
%TO.P,IC701,10,A5*%
%TO.N,/XA5*%
X53543200Y-49600800D03*
%TO.P,IC701,11,A4*%
%TO.N,/XA4*%
X51003200Y-49600800D03*
%TO.P,IC701,12,A3*%
%TO.N,/XA3*%
X48463200Y-49600800D03*
%TO.P,IC701,13,A6*%
%TO.N,/XA6*%
X45923200Y-49600800D03*
%TO.P,IC701,14,DOUT*%
%TO.N,/GD0*%
X43383200Y-49600800D03*
%TO.P,IC701,15,~{CAS}*%
%TO.N,CAS1*%
X40843200Y-49600800D03*
%TO.P,IC701,16,GND*%
%TO.N,GND*%
X38303200Y-49600800D03*
%TD*%
D11*
%TO.P,IC708,1,NC*%
%TO.N,MV*%
X63627000Y-87325200D03*
D12*
%TO.P,IC708,2,DIN*%
%TO.N,/D7*%
X66167000Y-87325200D03*
%TO.P,IC708,3,~{WRITE}*%
%TO.N,MWE*%
X68707000Y-87325200D03*
%TO.P,IC708,4,~{RAS}*%
%TO.N,RAS*%
X71247000Y-87325200D03*
%TO.P,IC708,5,A0*%
%TO.N,/XA0*%
X73787000Y-87325200D03*
%TO.P,IC708,6,A2*%
%TO.N,/XA2*%
X76327000Y-87325200D03*
%TO.P,IC708,7,A1*%
%TO.N,/XA1*%
X78867000Y-87325200D03*
%TO.P,IC708,8,VCC*%
%TO.N,+5V*%
X81407000Y-87325200D03*
%TO.P,IC708,9,A7*%
%TO.N,/XA7*%
X81407000Y-79705200D03*
%TO.P,IC708,10,A5*%
%TO.N,/XA5*%
X78867000Y-79705200D03*
%TO.P,IC708,11,A4*%
%TO.N,/XA4*%
X76327000Y-79705200D03*
%TO.P,IC708,12,A3*%
%TO.N,/XA3*%
X73787000Y-79705200D03*
%TO.P,IC708,13,A6*%
%TO.N,/XA6*%
X71247000Y-79705200D03*
%TO.P,IC708,14,DOUT*%
%TO.N,/GD7*%
X68707000Y-79705200D03*
%TO.P,IC708,15,~{CAS}*%
%TO.N,CAS1*%
X66167000Y-79705200D03*
%TO.P,IC708,16,GND*%
%TO.N,GND*%
X63627000Y-79705200D03*
%TD*%
D10*
%TO.P,C706,1*%
%TO.N,+5V*%
X85329000Y-64292200D03*
%TO.P,C706,2*%
%TO.N,GND*%
X85329000Y-62392200D03*
%TD*%
D16*
%TO.P,R1220,1*%
%TO.N,GND*%
X85344000Y-86087500D03*
%TO.P,R1220,2*%
%TO.N,Net-(R1220-Pad2)*%
X85344000Y-87912500D03*
%TD*%
D11*
%TO.P,IC706,1,NC*%
%TO.N,MV*%
X63627000Y-67259200D03*
D12*
%TO.P,IC706,2,DIN*%
%TO.N,/D5*%
X66167000Y-67259200D03*
%TO.P,IC706,3,~{WRITE}*%
%TO.N,MWE*%
X68707000Y-67259200D03*
%TO.P,IC706,4,~{RAS}*%
%TO.N,RAS*%
X71247000Y-67259200D03*
%TO.P,IC706,5,A0*%
%TO.N,/XA0*%
X73787000Y-67259200D03*
%TO.P,IC706,6,A2*%
%TO.N,/XA2*%
X76327000Y-67259200D03*
%TO.P,IC706,7,A1*%
%TO.N,/XA1*%
X78867000Y-67259200D03*
%TO.P,IC706,8,VCC*%
%TO.N,+5V*%
X81407000Y-67259200D03*
%TO.P,IC706,9,A7*%
%TO.N,/XA7*%
X81407000Y-59639200D03*
%TO.P,IC706,10,A5*%
%TO.N,/XA5*%
X78867000Y-59639200D03*
%TO.P,IC706,11,A4*%
%TO.N,/XA4*%
X76327000Y-59639200D03*
%TO.P,IC706,12,A3*%
%TO.N,/XA3*%
X73787000Y-59639200D03*
%TO.P,IC706,13,A6*%
%TO.N,/XA6*%
X71247000Y-59639200D03*
%TO.P,IC706,14,DOUT*%
%TO.N,/GD5*%
X68707000Y-59639200D03*
%TO.P,IC706,15,~{CAS}*%
%TO.N,CAS1*%
X66167000Y-59639200D03*
%TO.P,IC706,16,GND*%
%TO.N,GND*%
X63627000Y-59639200D03*
%TD*%
D10*
%TO.P,C701,1*%
%TO.N,+5V*%
X34239200Y-54370800D03*
%TO.P,C701,2*%
%TO.N,GND*%
X34239200Y-52470800D03*
%TD*%
%TO.P,C702,1*%
%TO.N,+5V*%
X34239200Y-64530800D03*
%TO.P,C702,2*%
%TO.N,GND*%
X34239200Y-62630800D03*
%TD*%
D11*
%TO.P,IC702,1,NC*%
%TO.N,MV*%
X38303200Y-67243800D03*
D12*
%TO.P,IC702,2,DIN*%
%TO.N,/D1*%
X40843200Y-67243800D03*
%TO.P,IC702,3,~{WRITE}*%
%TO.N,MWE*%
X43383200Y-67243800D03*
%TO.P,IC702,4,~{RAS}*%
%TO.N,RAS*%
X45923200Y-67243800D03*
%TO.P,IC702,5,A0*%
%TO.N,/XA0*%
X48463200Y-67243800D03*
%TO.P,IC702,6,A2*%
%TO.N,/XA2*%
X51003200Y-67243800D03*
%TO.P,IC702,7,A1*%
%TO.N,/XA1*%
X53543200Y-67243800D03*
%TO.P,IC702,8,VCC*%
%TO.N,+5V*%
X56083200Y-67243800D03*
%TO.P,IC702,9,A7*%
%TO.N,/XA7*%
X56083200Y-59623800D03*
%TO.P,IC702,10,A5*%
%TO.N,/XA5*%
X53543200Y-59623800D03*
%TO.P,IC702,11,A4*%
%TO.N,/XA4*%
X51003200Y-59623800D03*
%TO.P,IC702,12,A3*%
%TO.N,/XA3*%
X48463200Y-59623800D03*
%TO.P,IC702,13,A6*%
%TO.N,/XA6*%
X45923200Y-59623800D03*
%TO.P,IC702,14,DOUT*%
%TO.N,/GD1*%
X43383200Y-59623800D03*
%TO.P,IC702,15,~{CAS}*%
%TO.N,CAS1*%
X40843200Y-59623800D03*
%TO.P,IC702,16,GND*%
%TO.N,GND*%
X38303200Y-59623800D03*
%TD*%
D17*
%TO.P,D1220,1,K*%
%TO.N,Net-(R1220-Pad2)*%
X60000000Y-85600000D03*
%TO.P,D1220,2,A*%
%TO.N,+5V*%
X60000000Y-88400000D03*
%TD*%
D10*
%TO.P,C704,1*%
%TO.N,+5V*%
X34239200Y-84469800D03*
%TO.P,C704,2*%
%TO.N,GND*%
X34239200Y-82569800D03*
%TD*%
D11*
%TO.P,IC703,1,NC*%
%TO.N,MV*%
X38303200Y-77286800D03*
D12*
%TO.P,IC703,2,DIN*%
%TO.N,/D2*%
X40843200Y-77286800D03*
%TO.P,IC703,3,~{WRITE}*%
%TO.N,MWE*%
X43383200Y-77286800D03*
%TO.P,IC703,4,~{RAS}*%
%TO.N,RAS*%
X45923200Y-77286800D03*
%TO.P,IC703,5,A0*%
%TO.N,/XA0*%
X48463200Y-77286800D03*
%TO.P,IC703,6,A2*%
%TO.N,/XA2*%
X51003200Y-77286800D03*
%TO.P,IC703,7,A1*%
%TO.N,/XA1*%
X53543200Y-77286800D03*
%TO.P,IC703,8,VCC*%
%TO.N,+5V*%
X56083200Y-77286800D03*
%TO.P,IC703,9,A7*%
%TO.N,/XA7*%
X56083200Y-69666800D03*
%TO.P,IC703,10,A5*%
%TO.N,/XA5*%
X53543200Y-69666800D03*
%TO.P,IC703,11,A4*%
%TO.N,/XA4*%
X51003200Y-69666800D03*
%TO.P,IC703,12,A3*%
%TO.N,/XA3*%
X48463200Y-69666800D03*
%TO.P,IC703,13,A6*%
%TO.N,/XA6*%
X45923200Y-69666800D03*
%TO.P,IC703,14,DOUT*%
%TO.N,/GD2*%
X43383200Y-69666800D03*
%TO.P,IC703,15,~{CAS}*%
%TO.N,CAS1*%
X40843200Y-69666800D03*
%TO.P,IC703,16,GND*%
%TO.N,GND*%
X38303200Y-69666800D03*
%TD*%
D18*
%TO.N,GND*%
X85000000Y-51000000D03*
%TO.N,Net-(R1220-Pad2)*%
X83791900Y-87872500D03*
X81519400Y-85600000D03*
%TO.N,RAS*%
X61543700Y-86348600D03*
%TO.N,/XA6*%
X70105800Y-54172800D03*
%TO.N,/XA5*%
X78246200Y-55373500D03*
%TO.N,/XA7*%
X71949900Y-52547400D03*
%TO.N,/XA3*%
X48904200Y-55088300D03*
%TO.N,CAS1*%
X64048600Y-55571800D03*
X60845500Y-55699100D03*
X61134100Y-50053200D03*
X55693900Y-54668900D03*
%TO.N,/D0*%
X68029200Y-54622900D03*
%TO.N,/D2*%
X35751500Y-76136100D03*
X62714400Y-84172200D03*
%TO.N,/D3*%
X60114300Y-49658500D03*
X60114300Y-60731400D03*
X58186600Y-85056100D03*
%TO.N,/D5*%
X61997600Y-49502100D03*
X61521800Y-62357100D03*
%TO.N,/D7*%
X61509900Y-69590500D03*
X67328000Y-75408600D03*
X59918700Y-47647500D03*
%TO.N,/GD1*%
X39769900Y-47569500D03*
X39204900Y-55255100D03*
%TO.N,/GD2*%
X48166300Y-42310300D03*
X35668100Y-63953200D03*
%TO.N,/GD5*%
X57228000Y-55733800D03*
%TO.N,/GD6*%
X60492700Y-63494200D03*
%TO.N,/GD7*%
X61513000Y-74004000D03*
%TD*%
D19*
%TO.N,GND*%
X38303200Y-69666800D02*
X37109200Y-69666800D01*
X86380300Y-63443500D02*
X86380300Y-71500900D01*
D20*
X85000000Y-52284200D02*
X85329000Y-52613200D01*
D19*
X86380300Y-71500900D02*
X85329000Y-72552200D01*
X34624500Y-52470800D02*
X34239200Y-52470800D01*
X85329000Y-82585200D02*
X86380300Y-83636500D01*
X37178100Y-59691900D02*
X37178100Y-59623800D01*
X86380300Y-53664500D02*
X86380300Y-61340900D01*
X86380300Y-61340900D02*
X85329000Y-62392200D01*
D20*
X85000000Y-51000000D02*
X85000000Y-52284200D01*
D19*
X34239200Y-62630800D02*
X37178100Y-59691900D01*
X85329000Y-52613200D02*
X86380300Y-53664500D01*
X37178100Y-49917200D02*
X34624500Y-52470800D01*
X86380300Y-83636500D02*
X86380300Y-85051200D01*
X37119200Y-79689800D02*
X34239200Y-82569800D01*
X85329000Y-62392200D02*
X86380300Y-63443500D01*
X37178100Y-49600800D02*
X37178100Y-49917200D01*
X38303200Y-79689800D02*
X37119200Y-79689800D01*
X38303200Y-59623800D02*
X37178100Y-59623800D01*
X86380300Y-81533900D02*
X85329000Y-82585200D01*
X38303200Y-49600800D02*
X37178100Y-49600800D01*
X37109200Y-69666800D02*
X34239200Y-72536800D01*
X86380300Y-73603500D02*
X86380300Y-81533900D01*
X85329000Y-72552200D02*
X86380300Y-73603500D01*
X86380300Y-85051200D02*
X85344000Y-86087500D01*
%TO.N,Net-(R1220-Pad2)*%
X60000000Y-85600000D02*
X81519400Y-85600000D01*
X85304000Y-87872500D02*
X85344000Y-87912500D01*
X83791900Y-87872500D02*
X85304000Y-87872500D01*
%TO.N,MV*%
X38619700Y-78411900D02*
X38303200Y-78411900D01*
X38303200Y-86184700D02*
X39428300Y-85059600D01*
X38303200Y-77286800D02*
X38303200Y-78411900D01*
X39428300Y-79220500D02*
X38619700Y-78411900D01*
X39428300Y-85059600D02*
X39428300Y-79220500D01*
X38303200Y-87309800D02*
X38303200Y-86184700D01*
%TO.N,MWE*%
X43383200Y-57220800D02*
X44508300Y-57220800D01*
X67581900Y-57003100D02*
X67581900Y-57236200D01*
X42233700Y-85035200D02*
X43383200Y-86184700D01*
X68707000Y-57236200D02*
X67581900Y-57236200D01*
X65377700Y-54798900D02*
X67581900Y-57003100D01*
X47504000Y-53943800D02*
X58269600Y-53943800D01*
X44519200Y-69188500D02*
X44519200Y-75025700D01*
X43383200Y-77286800D02*
X43383200Y-78411900D01*
X44508300Y-57220800D02*
X44508300Y-64993600D01*
X43383200Y-68368900D02*
X43699600Y-68368900D01*
X43383200Y-77286800D02*
X43383200Y-76161700D01*
X58269600Y-53943800D02*
X59124700Y-54798900D01*
X43383200Y-87309800D02*
X43383200Y-86184700D01*
X59124700Y-54798900D02*
X65377700Y-54798900D01*
X43383200Y-78411900D02*
X43066800Y-78411900D01*
X44508300Y-56939500D02*
X47504000Y-53943800D01*
X44519200Y-75025700D02*
X43383200Y-76161700D01*
X42233700Y-79245000D02*
X42233700Y-85035200D01*
X44508300Y-64993600D02*
X43383200Y-66118700D01*
X44508300Y-57220800D02*
X44508300Y-56939500D01*
X43383200Y-67243800D02*
X43383200Y-68368900D01*
X43383200Y-67243800D02*
X43383200Y-66118700D01*
X43699600Y-68368900D02*
X44519200Y-69188500D01*
X43066800Y-78411900D02*
X42233700Y-79245000D01*
%TO.N,RAS*%
X44773700Y-85035200D02*
X44773700Y-79245000D01*
X45923200Y-87309800D02*
X45923200Y-86184700D01*
X69202300Y-86172500D02*
X61719800Y-86172500D01*
X70121900Y-87325200D02*
X70121900Y-87092100D01*
X71247000Y-87325200D02*
X70121900Y-87325200D01*
X61719800Y-86172500D02*
X61543700Y-86348600D01*
X45923200Y-77286800D02*
X45923200Y-78411900D01*
X45606800Y-78411900D02*
X45923200Y-78411900D01*
X45923200Y-86184700D02*
X44773700Y-85035200D01*
X44773700Y-79245000D02*
X45606800Y-78411900D01*
X70121900Y-87092100D02*
X69202300Y-86172500D01*
%TO.N,/XA6*%
X69830700Y-53897700D02*
X70105800Y-54172800D01*
X45923200Y-69666800D02*
X45923200Y-70791900D01*
X71247000Y-79705200D02*
X71247000Y-78580100D01*
X71247000Y-70807300D02*
X70109000Y-71945300D01*
X71247000Y-45556500D02*
X71247000Y-49616200D01*
X47048300Y-49834000D02*
X50157700Y-52943400D01*
X47048300Y-49600800D02*
X47048300Y-49834000D01*
X59497700Y-53898700D02*
X66773100Y-53898700D01*
X70109000Y-71945300D02*
X70109000Y-77791800D01*
X58542400Y-52943400D02*
X59497700Y-53898700D01*
X66774100Y-53897700D02*
X69830700Y-53897700D01*
X47096800Y-71965500D02*
X47096800Y-78516200D01*
X70897300Y-78580100D02*
X71247000Y-78580100D01*
X72597200Y-43398400D02*
X72597200Y-44573500D01*
X47096800Y-78516200D02*
X45923200Y-79689800D01*
X70109000Y-77791800D02*
X70897300Y-78580100D01*
X71247000Y-69682200D02*
X71247000Y-70807300D01*
X72597200Y-44573500D02*
X72230000Y-44573500D01*
X50157700Y-52943400D02*
X58542400Y-52943400D01*
X45923200Y-70791900D02*
X47096800Y-71965500D01*
X45923200Y-49600800D02*
X47048300Y-49600800D01*
X66773100Y-53898700D02*
X66774100Y-53897700D01*
X72230000Y-44573500D02*
X71247000Y-45556500D01*
%TO.N,/XA5*%
X53543200Y-49600800D02*
X54668300Y-49600800D01*
X53543200Y-68541700D02*
X53226800Y-68541700D01*
X53543200Y-69666800D02*
X53543200Y-68541700D01*
X52406200Y-61885900D02*
X53543200Y-60748900D01*
X54668300Y-49833900D02*
X56885200Y-52050800D01*
X78246200Y-55373500D02*
X77678100Y-55941600D01*
X77678100Y-57674900D02*
X78517300Y-58514100D01*
X78867000Y-79705200D02*
X78867000Y-78580100D01*
X78202900Y-44763200D02*
X78867000Y-45427300D01*
X53226800Y-68541700D02*
X52406200Y-67721100D01*
X54668300Y-49600800D02*
X54668300Y-49833900D01*
X59684200Y-53448600D02*
X66586600Y-53448600D01*
X78867000Y-45427300D02*
X78867000Y-49616200D01*
X58286400Y-52050800D02*
X59684200Y-53448600D01*
X76312400Y-44763200D02*
X78202900Y-44763200D01*
X78867000Y-59639200D02*
X78867000Y-58514100D01*
X78867000Y-70807300D02*
X80005000Y-71945300D01*
X76160700Y-53447600D02*
X78867000Y-50741300D01*
X78867000Y-49616200D02*
X78867000Y-50741300D01*
X79216700Y-78580100D02*
X78867000Y-78580100D01*
X56885200Y-52050800D02*
X58286400Y-52050800D01*
X66587600Y-53447600D02*
X76160700Y-53447600D01*
X80005000Y-71945300D02*
X80005000Y-77791800D01*
X78517300Y-58514100D02*
X78867000Y-58514100D01*
X52406200Y-67721100D02*
X52406200Y-61885900D01*
X78867000Y-69682200D02*
X78867000Y-70807300D01*
X75137200Y-45938400D02*
X76312400Y-44763200D01*
X77678100Y-55941600D02*
X77678100Y-57674900D01*
X80005000Y-77791800D02*
X79216700Y-78580100D01*
X53543200Y-59623800D02*
X53543200Y-60748900D01*
X66586600Y-53448600D02*
X66587600Y-53447600D01*
%TO.N,/XA4*%
X70830400Y-52547400D02*
X65896400Y-52547400D01*
X76327000Y-79705200D02*
X76327000Y-78580100D01*
X65896400Y-52547400D02*
X65895400Y-52548400D01*
X76327000Y-69682200D02*
X76327000Y-70807300D01*
X77476500Y-71956800D02*
X76327000Y-70807300D01*
X56616700Y-48471700D02*
X53024200Y-48471700D01*
X76327000Y-49616200D02*
X75201900Y-49616200D01*
X51003200Y-70791900D02*
X52176800Y-71965500D01*
X74358200Y-50741300D02*
X72636500Y-50741300D01*
X76327000Y-78580100D02*
X76643400Y-78580100D01*
X51003200Y-49600800D02*
X52128300Y-49600800D01*
X52128300Y-49367600D02*
X52128300Y-49600800D01*
X76643400Y-78580100D02*
X77476500Y-77747000D01*
X77476500Y-77747000D02*
X77476500Y-71956800D01*
X52176800Y-71965500D02*
X52176800Y-78516200D01*
X52176800Y-78516200D02*
X51003200Y-79689800D01*
X65895400Y-52548400D02*
X60693400Y-52548400D01*
X75201900Y-49897600D02*
X74358200Y-50741300D01*
X75201900Y-49616200D02*
X75201900Y-49897600D01*
X53024200Y-48471700D02*
X52128300Y-49367600D01*
X60693400Y-52548400D02*
X56616700Y-48471700D01*
X72636500Y-50741300D02*
X70830400Y-52547400D01*
X51003200Y-69666800D02*
X51003200Y-70791900D01*
D20*
%TO.N,+5V*%
X33000000Y-47871600D02*
X33000000Y-43000000D01*
D19*
X34239200Y-74436800D02*
X33064200Y-74436800D01*
D20*
X83968200Y-54513200D02*
X83968200Y-57255800D01*
X83968200Y-41968200D02*
X83968200Y-54513200D01*
X81407000Y-87325200D02*
X79828200Y-88904000D01*
X83448800Y-41448800D02*
X83968200Y-41968200D01*
D19*
X84142700Y-84485200D02*
X83968200Y-84659700D01*
D20*
X83870800Y-67259200D02*
X83968200Y-67356600D01*
X57333200Y-58470800D02*
X56083200Y-57220800D01*
X57243800Y-67243800D02*
X57333200Y-67333200D01*
X83968200Y-84764000D02*
X81407000Y-87325200D01*
X83948600Y-57236200D02*
X83968200Y-57255800D01*
X83968200Y-84659700D02*
X83968200Y-84764000D01*
X83968200Y-67356600D02*
X83968200Y-74452200D01*
X79828200Y-88904000D02*
X57677400Y-88904000D01*
X83968200Y-74452200D02*
X83968200Y-77262600D01*
X33064200Y-64530800D02*
X33064200Y-74436800D01*
X47197200Y-41605200D02*
X47353600Y-41448800D01*
X56083200Y-77286800D02*
X57286800Y-77286800D01*
X47040800Y-41448800D02*
X47197200Y-41605200D01*
X33064200Y-83294800D02*
X34239200Y-84469800D01*
D19*
X85329000Y-84485200D02*
X84142700Y-84485200D01*
D20*
X33000000Y-43000000D02*
X34551200Y-41448800D01*
X81407000Y-77302200D02*
X83928600Y-77302200D01*
X33064200Y-54247000D02*
X33064200Y-64530800D01*
X56083200Y-87309800D02*
X57333200Y-86059800D01*
X81407000Y-67259200D02*
X83870800Y-67259200D01*
X83968200Y-77262600D02*
X83968200Y-84659700D01*
X81407000Y-57236200D02*
X83948600Y-57236200D01*
X39577200Y-45938400D02*
X35061600Y-45938400D01*
D19*
X85329000Y-74452200D02*
X83968200Y-74452200D01*
D20*
X83968200Y-57255800D02*
X83968200Y-64292200D01*
D19*
X34239200Y-64530800D02*
X33064200Y-64530800D01*
X85329000Y-64292200D02*
X83968200Y-64292200D01*
D20*
X57333200Y-86059800D02*
X57333200Y-77333200D01*
X56083200Y-67243800D02*
X57243800Y-67243800D01*
X33064200Y-47935800D02*
X33064200Y-54247000D01*
X47353600Y-41448800D02*
X83448800Y-41448800D01*
D19*
X34239200Y-54370800D02*
X33188000Y-54370800D01*
D20*
X47197200Y-43398400D02*
X47197200Y-41605200D01*
X34551200Y-41448800D02*
X47040800Y-41448800D01*
X83968200Y-64292200D02*
X83968200Y-67356600D01*
X33064200Y-74436800D02*
X33064200Y-83294800D01*
X57677400Y-88904000D02*
X56083200Y-87309800D01*
X35061600Y-45938400D02*
X33064200Y-47935800D01*
X83928600Y-77302200D02*
X83968200Y-77262600D01*
D19*
X85329000Y-54513200D02*
X83968200Y-54513200D01*
D20*
X57286800Y-77286800D02*
X57333200Y-77333200D01*
X33064200Y-47935800D02*
X33000000Y-47871600D01*
X57333200Y-67333200D02*
X57333200Y-58470800D01*
D19*
X33188000Y-54370800D02*
X33064200Y-54247000D01*
D20*
X57333200Y-77333200D02*
X57333200Y-67333200D01*
D19*
%TO.N,/XA7*%
X56083200Y-79689800D02*
X56083200Y-78564700D01*
X56083200Y-49600800D02*
X56473000Y-49600800D01*
X56083200Y-69666800D02*
X56083200Y-70791900D01*
X66401100Y-52997500D02*
X71499800Y-52997500D01*
X66400100Y-52998500D02*
X66401100Y-52997500D01*
X55733500Y-78564700D02*
X56083200Y-78564700D01*
X56083200Y-70791900D02*
X54945200Y-71929900D01*
X54945200Y-77776400D02*
X55733500Y-78564700D01*
X59870700Y-52998500D02*
X66400100Y-52998500D01*
X56473000Y-49600800D02*
X59870700Y-52998500D01*
X71499800Y-52997500D02*
X71949900Y-52547400D01*
X54945200Y-71929900D02*
X54945200Y-77776400D01*
%TO.N,/XA3*%
X73787000Y-78580100D02*
X74103400Y-78580100D01*
X77677200Y-45938400D02*
X76502100Y-45938400D01*
X49601200Y-61886900D02*
X49601200Y-67753400D01*
X48812900Y-58498700D02*
X48463200Y-58498700D01*
X56803500Y-48021500D02*
X50934400Y-48021500D01*
X48463200Y-59623800D02*
X48463200Y-60748900D01*
X73787000Y-49616200D02*
X73787000Y-48491100D01*
X76502100Y-45938400D02*
X76502100Y-46242300D01*
X48463200Y-49600800D02*
X49588300Y-49600800D01*
X73787000Y-49616200D02*
X72661900Y-49616200D01*
X65256300Y-52098300D02*
X60880300Y-52098300D01*
X49588300Y-49367600D02*
X49588300Y-49600800D01*
X48463200Y-69666800D02*
X48463200Y-68541700D01*
X73787000Y-79705200D02*
X73787000Y-78580100D01*
X50934400Y-48021500D02*
X49588300Y-49367600D01*
X70912300Y-51647200D02*
X65707400Y-51647200D01*
X48904200Y-55088300D02*
X49629600Y-55813700D01*
X74923000Y-71943300D02*
X73787000Y-70807300D01*
X49629600Y-57682000D02*
X48812900Y-58498700D01*
X72661900Y-49897600D02*
X70912300Y-51647200D01*
X74103400Y-78580100D02*
X74923000Y-77760500D01*
X73787000Y-69682200D02*
X73787000Y-70807300D01*
X48463200Y-59623800D02*
X48463200Y-58498700D01*
X48812900Y-68541700D02*
X48463200Y-68541700D01*
X48463200Y-60748900D02*
X49601200Y-61886900D01*
X65707400Y-51647200D02*
X65256300Y-52098300D01*
X49629600Y-55813700D02*
X49629600Y-57682000D01*
X74923000Y-77760500D02*
X74923000Y-71943300D01*
X72661900Y-49616200D02*
X72661900Y-49897600D01*
X49601200Y-67753400D02*
X48812900Y-68541700D01*
X60880300Y-52098300D02*
X56803500Y-48021500D01*
X76502100Y-46242300D02*
X74253300Y-48491100D01*
X74253300Y-48491100D02*
X73787000Y-48491100D01*
%TO.N,/XA2*%
X49853700Y-85035200D02*
X51003200Y-86184700D01*
X60882300Y-58362600D02*
X57528400Y-55008700D01*
X51003200Y-57220800D02*
X52128300Y-57220800D01*
X50686800Y-78411900D02*
X49853700Y-79245000D01*
X51003200Y-78411900D02*
X50686800Y-78411900D01*
X51003200Y-77286800D02*
X51003200Y-78411900D01*
X76327000Y-57236200D02*
X75201900Y-57236200D01*
X51003200Y-87309800D02*
X51003200Y-86184700D01*
X74356800Y-58362600D02*
X60882300Y-58362600D01*
X49853700Y-79245000D02*
X49853700Y-85035200D01*
X56379600Y-55008700D02*
X55994300Y-55394000D01*
X57528400Y-55008700D02*
X56379600Y-55008700D01*
X75201900Y-57517500D02*
X74356800Y-58362600D01*
X52128300Y-56987600D02*
X52128300Y-57220800D01*
X53721900Y-55394000D02*
X52128300Y-56987600D01*
X75201900Y-57236200D02*
X75201900Y-57517500D01*
X55994300Y-55394000D02*
X53721900Y-55394000D01*
%TO.N,/XA1*%
X52407200Y-85048700D02*
X53543200Y-86184700D01*
X52407200Y-79231500D02*
X52407200Y-85048700D01*
X53543200Y-57220800D02*
X54668300Y-57220800D01*
X77741900Y-66977900D02*
X77741900Y-67259200D01*
X62819100Y-61429600D02*
X72193600Y-61429600D01*
X54668300Y-57018600D02*
X55608100Y-56078800D01*
X60731900Y-59342400D02*
X62819100Y-61429600D01*
X53543200Y-78411900D02*
X53226800Y-78411900D01*
X53543200Y-87309800D02*
X53543200Y-86184700D01*
X56547600Y-56078800D02*
X59811200Y-59342400D01*
X55608100Y-56078800D02*
X56547600Y-56078800D01*
X59811200Y-59342400D02*
X60731900Y-59342400D01*
X78867000Y-67259200D02*
X77741900Y-67259200D01*
X53543200Y-77286800D02*
X53543200Y-78411900D01*
X54668300Y-57220800D02*
X54668300Y-57018600D01*
X53226800Y-78411900D02*
X52407200Y-79231500D01*
X72193600Y-61429600D02*
X77741900Y-66977900D01*
%TO.N,/XA0*%
X73787000Y-57236200D02*
X73787000Y-56111100D01*
X74136700Y-56111100D02*
X73787000Y-56111100D01*
X80217200Y-44573500D02*
X80584400Y-44573500D01*
X81411300Y-45400400D02*
X81411300Y-46410300D01*
X81411300Y-46410300D02*
X80004800Y-47816800D01*
X47313700Y-85035200D02*
X48463200Y-86184700D01*
X47313700Y-79245000D02*
X47313700Y-85035200D01*
X48463200Y-77286800D02*
X48463200Y-78411900D01*
X48463200Y-78411900D02*
X48146800Y-78411900D01*
X80004800Y-50243000D02*
X74136700Y-56111100D01*
X48146800Y-78411900D02*
X47313700Y-79245000D01*
X80584400Y-44573500D02*
X81411300Y-45400400D01*
X80217200Y-43398400D02*
X80217200Y-44573500D01*
X48463200Y-87309800D02*
X48463200Y-86184700D01*
X80004800Y-47816800D02*
X80004800Y-50243000D01*
%TO.N,CAS1*%
X45158000Y-47113500D02*
X44222400Y-47113500D01*
X46022100Y-46249400D02*
X45158000Y-47113500D01*
X47197200Y-45938400D02*
X46022100Y-45938400D01*
X65041900Y-49616200D02*
X65041900Y-49849300D01*
X40843200Y-79689800D02*
X40843200Y-78564700D01*
X41969000Y-77788600D02*
X41192900Y-78564700D01*
X40843200Y-49600800D02*
X41968300Y-49600800D01*
X41192900Y-78564700D02*
X40843200Y-78564700D01*
X65041900Y-49849300D02*
X64144300Y-50746900D01*
X64144300Y-50746900D02*
X61827800Y-50746900D01*
X59388300Y-55699100D02*
X60845500Y-55699100D01*
X66167000Y-49616200D02*
X65041900Y-49616200D01*
X58247800Y-54558600D02*
X59388300Y-55699100D01*
X46022100Y-45938400D02*
X46022100Y-46249400D01*
X60845500Y-55699100D02*
X63921300Y-55699100D01*
X40843200Y-70791900D02*
X41969000Y-71917700D01*
X41969000Y-71917700D02*
X41969000Y-77788600D01*
X55693900Y-54668900D02*
X55804200Y-54558600D01*
X55804200Y-54558600D02*
X58247800Y-54558600D01*
X40843200Y-69666800D02*
X40843200Y-70791900D01*
X63921300Y-55699100D02*
X64048600Y-55571800D01*
X41968300Y-49367600D02*
X41968300Y-49600800D01*
X44222400Y-47113500D02*
X41968300Y-49367600D01*
X61827800Y-50746900D02*
X61134100Y-50053200D01*
%TO.N,/D0*%
X40843200Y-57220800D02*
X41968300Y-57220800D01*
X58456100Y-53493700D02*
X59311200Y-54348800D01*
X59311200Y-54348800D02*
X67755100Y-54348800D01*
X41968300Y-56987600D02*
X45462200Y-53493700D01*
X67755100Y-54348800D02*
X68029200Y-54622900D01*
X45462200Y-53493700D02*
X58456100Y-53493700D01*
X41968300Y-57220800D02*
X41968300Y-56987600D01*
%TO.N,/D1*%
X56982200Y-47563600D02*
X46360000Y-47563600D01*
X38904600Y-54530000D02*
X37164900Y-56269700D01*
X46360000Y-47563600D02*
X44653200Y-49270400D01*
X44653200Y-49952300D02*
X40075500Y-54530000D01*
X37164900Y-56269700D02*
X37164900Y-58165200D01*
X61066800Y-51648200D02*
X56982200Y-47563600D01*
X37490500Y-58490800D02*
X38778300Y-58490800D01*
X38778300Y-58490800D02*
X39573200Y-59285700D01*
X40843200Y-67243800D02*
X40843200Y-66118700D01*
X65520900Y-51197100D02*
X65069800Y-51648200D01*
X39573200Y-64848700D02*
X40843200Y-66118700D01*
X39573200Y-59285700D02*
X39573200Y-64848700D01*
X70057200Y-45938400D02*
X70057200Y-49889900D01*
X65069800Y-51648200D02*
X61066800Y-51648200D01*
X44653200Y-49270400D02*
X44653200Y-49952300D01*
X70057200Y-49889900D02*
X68750000Y-51197100D01*
X37164900Y-58165200D02*
X37490500Y-58490800D01*
X68750000Y-51197100D02*
X65520900Y-51197100D01*
X40075500Y-54530000D02*
X38904600Y-54530000D01*
%TO.N,/D2*%
X39718100Y-76573500D02*
X39718100Y-77286800D01*
X82539900Y-53991300D02*
X80004800Y-56526400D01*
X68387800Y-84172200D02*
X62714400Y-84172200D01*
X82539900Y-43556000D02*
X82539900Y-53991300D01*
X68692300Y-43398400D02*
X68692300Y-43031200D01*
X67517200Y-43398400D02*
X68692300Y-43398400D01*
X72517000Y-80043000D02*
X68387800Y-84172200D01*
X80004800Y-56526400D02*
X80004800Y-67795300D01*
X79329400Y-68470700D02*
X73391100Y-68470700D01*
X40843200Y-77286800D02*
X39718100Y-77286800D01*
X72517000Y-69344800D02*
X72517000Y-80043000D01*
X68692300Y-43031200D02*
X69500300Y-42223200D01*
X81207100Y-42223200D02*
X82539900Y-43556000D01*
X73391100Y-68470700D02*
X72517000Y-69344800D01*
X80004800Y-67795300D02*
X79329400Y-68470700D01*
X39280700Y-76136100D02*
X39718100Y-76573500D01*
X69500300Y-42223200D02*
X81207100Y-42223200D01*
X35751500Y-76136100D02*
X39280700Y-76136100D01*
%TO.N,/D3*%
X59767600Y-74789300D02*
X59767600Y-61078100D01*
X62088400Y-77110100D02*
X59767600Y-74789300D01*
X61253300Y-51198100D02*
X60114300Y-50059100D01*
X66672400Y-50746700D02*
X65334700Y-50746700D01*
X59767600Y-61078100D02*
X60114300Y-60731400D01*
X65334700Y-50746700D02*
X64883300Y-51198100D01*
X62088400Y-81154300D02*
X62088400Y-77110100D01*
X58186600Y-85056100D02*
X62088400Y-81154300D01*
X67517200Y-49901900D02*
X66672400Y-50746700D01*
X60114300Y-50059100D02*
X60114300Y-49658500D01*
X64883300Y-51198100D02*
X61253300Y-51198100D01*
X67517200Y-45938400D02*
X67517200Y-49901900D01*
%TO.N,/D5*%
X61521800Y-62357100D02*
X65298800Y-66134100D01*
X64977200Y-47113500D02*
X64386200Y-47113500D01*
X64386200Y-47113500D02*
X61997600Y-49502100D01*
X65298800Y-66134100D02*
X66167000Y-66134100D01*
X64977200Y-45938400D02*
X64977200Y-47113500D01*
X66167000Y-67259200D02*
X66167000Y-66134100D01*
%TO.N,/D7*%
X62437200Y-45938400D02*
X61262100Y-45938400D01*
X61262100Y-46304100D02*
X59918700Y-47647500D01*
X61262100Y-45938400D02*
X61262100Y-46304100D01*
X61509900Y-69590500D02*
X67328000Y-75408600D01*
%TO.N,/GD1*%
X43383200Y-59623800D02*
X42258100Y-59623800D01*
X39504700Y-55554900D02*
X39504700Y-57502200D01*
X43387200Y-46347500D02*
X42165200Y-47569500D01*
X55374300Y-47113500D02*
X49188200Y-47113500D01*
X43387200Y-45544300D02*
X43387200Y-46347500D01*
X57357200Y-45938400D02*
X56182100Y-45938400D01*
X48562000Y-46487300D02*
X48562000Y-45620700D01*
X56182100Y-45938400D02*
X56182100Y-46305700D01*
X47696900Y-44755600D02*
X44175900Y-44755600D01*
X49188200Y-47113500D02*
X48562000Y-46487300D01*
X39204900Y-55255100D02*
X39504700Y-55554900D01*
X42165200Y-47569500D02*
X39769900Y-47569500D01*
X42258100Y-59390700D02*
X42258100Y-59623800D01*
X39504700Y-57502200D02*
X40424800Y-58422300D01*
X40424800Y-58422300D02*
X41289700Y-58422300D01*
X48562000Y-45620700D02*
X47696900Y-44755600D01*
X56182100Y-46305700D02*
X55374300Y-47113500D01*
X44175900Y-44755600D02*
X43387200Y-45544300D01*
X41289700Y-58422300D02*
X42258100Y-59390700D01*
%TO.N,/GD2*%
X54817200Y-43398400D02*
X53642000Y-42223200D01*
X42258100Y-69433700D02*
X42258100Y-69666800D01*
X41279700Y-68455300D02*
X42258100Y-69433700D01*
X43383200Y-69666800D02*
X42258100Y-69666800D01*
X35668100Y-63953200D02*
X37141300Y-63953200D01*
X53642000Y-42223200D02*
X48253400Y-42223200D01*
X39514700Y-67542200D02*
X40427800Y-68455300D01*
X40427800Y-68455300D02*
X41279700Y-68455300D01*
X39514700Y-66326600D02*
X39514700Y-67542200D01*
X48253400Y-42223200D02*
X48166300Y-42310300D01*
X37141300Y-63953200D02*
X39514700Y-66326600D01*
%TO.N,/GD4*%
X67853200Y-44573500D02*
X68707000Y-45427300D01*
X53452300Y-43765700D02*
X54260100Y-44573500D01*
X54260100Y-44573500D02*
X67853200Y-44573500D01*
X68707000Y-45427300D02*
X68707000Y-49616200D01*
X52277200Y-43398400D02*
X53452300Y-43398400D01*
X53452300Y-43398400D02*
X53452300Y-43765700D01*
%TO.N,/GD5*%
X66676600Y-60777600D02*
X62803700Y-60777600D01*
X60918400Y-58892300D02*
X60386500Y-58892300D01*
X68707000Y-59639200D02*
X67581900Y-59639200D01*
X62803700Y-60777600D02*
X60918400Y-58892300D01*
X60386500Y-58892300D02*
X57228000Y-55733800D01*
X67581900Y-59639200D02*
X67581900Y-59872300D01*
X67581900Y-59872300D02*
X66676600Y-60777600D01*
%TO.N,/GD6*%
X60492700Y-63494200D02*
X60492700Y-62343600D01*
X61226100Y-61610200D02*
X62279800Y-61610200D01*
X67437000Y-67636800D02*
X68357300Y-68557100D01*
X60492700Y-62343600D02*
X61226100Y-61610200D01*
X68707000Y-69682200D02*
X68707000Y-68557100D01*
X62279800Y-61610200D02*
X67437000Y-66767400D01*
X67437000Y-66767400D02*
X67437000Y-67636800D01*
X68357300Y-68557100D02*
X68707000Y-68557100D01*
%TO.N,/GD7*%
X64828500Y-77583600D02*
X64828500Y-76386900D01*
X67581900Y-79472100D02*
X66613500Y-78503700D01*
X68707000Y-79705200D02*
X67581900Y-79705200D01*
X67581900Y-79705200D02*
X67581900Y-79472100D01*
X66613500Y-78503700D02*
X65748600Y-78503700D01*
X64828500Y-76386900D02*
X62445600Y-74004000D01*
X62445600Y-74004000D02*
X61513000Y-74004000D01*
X65748600Y-78503700D02*
X64828500Y-77583600D01*
%TD*%
M02*
