%TF.GenerationSoftware,KiCad,Pcbnew,(6.0.7)*%
%TF.CreationDate,2023-01-24T22:55:54+00:00*%
%TF.ProjectId,CPC464-2MINICAS1,43504334-3634-42d3-924d-494e49434153,rev?*%
%TF.SameCoordinates,Original*%
%TF.FileFunction,Copper,L2,Bot*%
%TF.FilePolarity,Positive*%
%FSLAX46Y46*%
G04 Gerber Fmt 4.6, Leading zero omitted, Abs format (unit mm)*
G04 Created by KiCad (PCBNEW (6.0.7)) date 2023-01-24 22:55:54*
%MOMM*%
%LPD*%
G01*
G04 APERTURE LIST*
%TA.AperFunction,ComponentPad*%
%ADD10R,1.600000X1.600000*%
%TD*%
%TA.AperFunction,ComponentPad*%
%ADD11O,1.600000X1.600000*%
%TD*%
%TA.AperFunction,ComponentPad*%
%ADD12C,3.800000*%
%TD*%
%TA.AperFunction,ComponentPad*%
%ADD13R,1.700000X1.700000*%
%TD*%
%TA.AperFunction,ComponentPad*%
%ADD14O,1.700000X1.700000*%
%TD*%
%TA.AperFunction,ViaPad*%
%ADD15C,0.800000*%
%TD*%
%TA.AperFunction,Conductor*%
%ADD16C,0.500000*%
%TD*%
%TA.AperFunction,Conductor*%
%ADD17C,0.250000*%
%TD*%
G04 APERTURE END LIST*
D10*
%TO.P,IC704,1,NC*%
%TO.N,MV*%
X38303200Y-87309800D03*
D11*
%TO.P,IC704,2,DIN*%
%TO.N,/D3*%
X40843200Y-87309800D03*
%TO.P,IC704,3,~{WRITE}*%
%TO.N,MWE*%
X43383200Y-87309800D03*
%TO.P,IC704,4,~{RAS}*%
%TO.N,RAS*%
X45923200Y-87309800D03*
%TO.P,IC704,5,A0*%
%TO.N,/XA0*%
X48463200Y-87309800D03*
%TO.P,IC704,6,A2*%
%TO.N,/XA2*%
X51003200Y-87309800D03*
%TO.P,IC704,7,A1*%
%TO.N,/XA1*%
X53543200Y-87309800D03*
%TO.P,IC704,8,VCC*%
%TO.N,+5V*%
X56083200Y-87309800D03*
%TO.P,IC704,9,A7*%
%TO.N,/XA7*%
X56083200Y-79689800D03*
%TO.P,IC704,10,A5*%
%TO.N,/XA5*%
X53543200Y-79689800D03*
%TO.P,IC704,11,A4*%
%TO.N,/XA4*%
X51003200Y-79689800D03*
%TO.P,IC704,12,A3*%
%TO.N,/XA3*%
X48463200Y-79689800D03*
%TO.P,IC704,13,A6*%
%TO.N,/XA6*%
X45923200Y-79689800D03*
%TO.P,IC704,14,DOUT*%
%TO.N,/GD3*%
X43383200Y-79689800D03*
%TO.P,IC704,15,~{CAS}*%
%TO.N,CAS1*%
X40843200Y-79689800D03*
%TO.P,IC704,16,GND*%
%TO.N,GND*%
X38303200Y-79689800D03*
%TD*%
D12*
%TO.P,H8,1,1*%
%TO.N,GND*%
X59827400Y-78556800D03*
%TD*%
D10*
%TO.P,IC707,1,NC*%
%TO.N,MV*%
X63627000Y-77302200D03*
D11*
%TO.P,IC707,2,DIN*%
%TO.N,/D6*%
X66167000Y-77302200D03*
%TO.P,IC707,3,~{WRITE}*%
%TO.N,MWE*%
X68707000Y-77302200D03*
%TO.P,IC707,4,~{RAS}*%
%TO.N,RAS*%
X71247000Y-77302200D03*
%TO.P,IC707,5,A0*%
%TO.N,/XA0*%
X73787000Y-77302200D03*
%TO.P,IC707,6,A2*%
%TO.N,/XA2*%
X76327000Y-77302200D03*
%TO.P,IC707,7,A1*%
%TO.N,/XA1*%
X78867000Y-77302200D03*
%TO.P,IC707,8,VCC*%
%TO.N,+5V*%
X81407000Y-77302200D03*
%TO.P,IC707,9,A7*%
%TO.N,/XA7*%
X81407000Y-69682200D03*
%TO.P,IC707,10,A5*%
%TO.N,/XA5*%
X78867000Y-69682200D03*
%TO.P,IC707,11,A4*%
%TO.N,/XA4*%
X76327000Y-69682200D03*
%TO.P,IC707,12,A3*%
%TO.N,/XA3*%
X73787000Y-69682200D03*
%TO.P,IC707,13,A6*%
%TO.N,/XA6*%
X71247000Y-69682200D03*
%TO.P,IC707,14,DOUT*%
%TO.N,/GD6*%
X68707000Y-69682200D03*
%TO.P,IC707,15,~{CAS}*%
%TO.N,CAS1*%
X66167000Y-69682200D03*
%TO.P,IC707,16,GND*%
%TO.N,GND*%
X63627000Y-69682200D03*
%TD*%
D13*
%TO.P,J1200,1,Pin_1*%
%TO.N,/XA0*%
X80217200Y-43398400D03*
D14*
%TO.P,J1200,2,Pin_2*%
%TO.N,/XA1*%
X80217200Y-45938400D03*
%TO.P,J1200,3,Pin_3*%
%TO.N,/XA2*%
X77677200Y-43398400D03*
%TO.P,J1200,4,Pin_4*%
%TO.N,/XA3*%
X77677200Y-45938400D03*
%TO.P,J1200,5,Pin_5*%
%TO.N,/XA4*%
X75137200Y-43398400D03*
%TO.P,J1200,6,Pin_6*%
%TO.N,/XA5*%
X75137200Y-45938400D03*
%TO.P,J1200,7,Pin_7*%
%TO.N,/XA6*%
X72597200Y-43398400D03*
%TO.P,J1200,8,Pin_8*%
%TO.N,/XA7*%
X72597200Y-45938400D03*
%TO.P,J1200,9,Pin_9*%
%TO.N,/D0*%
X70057200Y-43398400D03*
%TO.P,J1200,10,Pin_10*%
%TO.N,/D1*%
X70057200Y-45938400D03*
%TO.P,J1200,11,Pin_11*%
%TO.N,/D2*%
X67517200Y-43398400D03*
%TO.P,J1200,12,Pin_12*%
%TO.N,/D3*%
X67517200Y-45938400D03*
%TO.P,J1200,13,Pin_13*%
%TO.N,/D4*%
X64977200Y-43398400D03*
%TO.P,J1200,14,Pin_14*%
%TO.N,/D5*%
X64977200Y-45938400D03*
%TO.P,J1200,15,Pin_15*%
%TO.N,/D6*%
X62437200Y-43398400D03*
%TO.P,J1200,16,Pin_16*%
%TO.N,/D7*%
X62437200Y-45938400D03*
%TO.P,J1200,17,Pin_17*%
%TO.N,GND*%
X59897200Y-43398400D03*
%TO.P,J1200,18,Pin_18*%
X59897200Y-45938400D03*
%TO.P,J1200,19,Pin_19*%
%TO.N,/GD0*%
X57357200Y-43398400D03*
%TO.P,J1200,20,Pin_20*%
%TO.N,/GD1*%
X57357200Y-45938400D03*
%TO.P,J1200,21,Pin_21*%
%TO.N,/GD2*%
X54817200Y-43398400D03*
%TO.P,J1200,22,Pin_22*%
%TO.N,/GD3*%
X54817200Y-45938400D03*
%TO.P,J1200,23,Pin_23*%
%TO.N,/GD4*%
X52277200Y-43398400D03*
%TO.P,J1200,24,Pin_24*%
%TO.N,/GD5*%
X52277200Y-45938400D03*
%TO.P,J1200,25,Pin_25*%
%TO.N,/GD6*%
X49737200Y-43398400D03*
%TO.P,J1200,26,Pin_26*%
%TO.N,/GD7*%
X49737200Y-45938400D03*
%TO.P,J1200,27,Pin_27*%
%TO.N,+5V*%
X47197200Y-43398400D03*
%TO.P,J1200,28,Pin_28*%
%TO.N,CAS1*%
X47197200Y-45938400D03*
%TO.P,J1200,29,Pin_29*%
%TO.N,CAS0*%
X44657200Y-43398400D03*
%TO.P,J1200,30,Pin_30*%
%TO.N,RAS*%
X44657200Y-45938400D03*
%TO.P,J1200,31,Pin_31*%
%TO.N,MWE*%
X42117200Y-43398400D03*
%TO.P,J1200,32,Pin_32*%
%TO.N,RSV2*%
X42117200Y-45938400D03*
%TO.P,J1200,33,Pin_33*%
%TO.N,RSV1*%
X39577200Y-43398400D03*
%TO.P,J1200,34,Pin_34*%
%TO.N,+5V*%
X39577200Y-45938400D03*
%TD*%
D10*
%TO.P,IC705,1,NC*%
%TO.N,MV*%
X63627000Y-57236200D03*
D11*
%TO.P,IC705,2,DIN*%
%TO.N,/D4*%
X66167000Y-57236200D03*
%TO.P,IC705,3,~{WRITE}*%
%TO.N,MWE*%
X68707000Y-57236200D03*
%TO.P,IC705,4,~{RAS}*%
%TO.N,RAS*%
X71247000Y-57236200D03*
%TO.P,IC705,5,A0*%
%TO.N,/XA0*%
X73787000Y-57236200D03*
%TO.P,IC705,6,A2*%
%TO.N,/XA2*%
X76327000Y-57236200D03*
%TO.P,IC705,7,A1*%
%TO.N,/XA1*%
X78867000Y-57236200D03*
%TO.P,IC705,8,VCC*%
%TO.N,+5V*%
X81407000Y-57236200D03*
%TO.P,IC705,9,A7*%
%TO.N,/XA7*%
X81407000Y-49616200D03*
%TO.P,IC705,10,A5*%
%TO.N,/XA5*%
X78867000Y-49616200D03*
%TO.P,IC705,11,A4*%
%TO.N,/XA4*%
X76327000Y-49616200D03*
%TO.P,IC705,12,A3*%
%TO.N,/XA3*%
X73787000Y-49616200D03*
%TO.P,IC705,13,A6*%
%TO.N,/XA6*%
X71247000Y-49616200D03*
%TO.P,IC705,14,DOUT*%
%TO.N,/GD4*%
X68707000Y-49616200D03*
%TO.P,IC705,15,~{CAS}*%
%TO.N,CAS1*%
X66167000Y-49616200D03*
%TO.P,IC705,16,GND*%
%TO.N,GND*%
X63627000Y-49616200D03*
%TD*%
D10*
%TO.P,IC701,1,NC*%
%TO.N,MV*%
X38303200Y-57220800D03*
D11*
%TO.P,IC701,2,DIN*%
%TO.N,/D0*%
X40843200Y-57220800D03*
%TO.P,IC701,3,~{WRITE}*%
%TO.N,MWE*%
X43383200Y-57220800D03*
%TO.P,IC701,4,~{RAS}*%
%TO.N,RAS*%
X45923200Y-57220800D03*
%TO.P,IC701,5,A0*%
%TO.N,/XA0*%
X48463200Y-57220800D03*
%TO.P,IC701,6,A2*%
%TO.N,/XA2*%
X51003200Y-57220800D03*
%TO.P,IC701,7,A1*%
%TO.N,/XA1*%
X53543200Y-57220800D03*
%TO.P,IC701,8,VCC*%
%TO.N,+5V*%
X56083200Y-57220800D03*
%TO.P,IC701,9,A7*%
%TO.N,/XA7*%
X56083200Y-49600800D03*
%TO.P,IC701,10,A5*%
%TO.N,/XA5*%
X53543200Y-49600800D03*
%TO.P,IC701,11,A4*%
%TO.N,/XA4*%
X51003200Y-49600800D03*
%TO.P,IC701,12,A3*%
%TO.N,/XA3*%
X48463200Y-49600800D03*
%TO.P,IC701,13,A6*%
%TO.N,/XA6*%
X45923200Y-49600800D03*
%TO.P,IC701,14,DOUT*%
%TO.N,/GD0*%
X43383200Y-49600800D03*
%TO.P,IC701,15,~{CAS}*%
%TO.N,CAS1*%
X40843200Y-49600800D03*
%TO.P,IC701,16,GND*%
%TO.N,GND*%
X38303200Y-49600800D03*
%TD*%
D10*
%TO.P,IC708,1,NC*%
%TO.N,MV*%
X63627000Y-87325200D03*
D11*
%TO.P,IC708,2,DIN*%
%TO.N,/D7*%
X66167000Y-87325200D03*
%TO.P,IC708,3,~{WRITE}*%
%TO.N,MWE*%
X68707000Y-87325200D03*
%TO.P,IC708,4,~{RAS}*%
%TO.N,RAS*%
X71247000Y-87325200D03*
%TO.P,IC708,5,A0*%
%TO.N,/XA0*%
X73787000Y-87325200D03*
%TO.P,IC708,6,A2*%
%TO.N,/XA2*%
X76327000Y-87325200D03*
%TO.P,IC708,7,A1*%
%TO.N,/XA1*%
X78867000Y-87325200D03*
%TO.P,IC708,8,VCC*%
%TO.N,+5V*%
X81407000Y-87325200D03*
%TO.P,IC708,9,A7*%
%TO.N,/XA7*%
X81407000Y-79705200D03*
%TO.P,IC708,10,A5*%
%TO.N,/XA5*%
X78867000Y-79705200D03*
%TO.P,IC708,11,A4*%
%TO.N,/XA4*%
X76327000Y-79705200D03*
%TO.P,IC708,12,A3*%
%TO.N,/XA3*%
X73787000Y-79705200D03*
%TO.P,IC708,13,A6*%
%TO.N,/XA6*%
X71247000Y-79705200D03*
%TO.P,IC708,14,DOUT*%
%TO.N,/GD7*%
X68707000Y-79705200D03*
%TO.P,IC708,15,~{CAS}*%
%TO.N,CAS1*%
X66167000Y-79705200D03*
%TO.P,IC708,16,GND*%
%TO.N,GND*%
X63627000Y-79705200D03*
%TD*%
D10*
%TO.P,IC706,1,NC*%
%TO.N,MV*%
X63627000Y-67259200D03*
D11*
%TO.P,IC706,2,DIN*%
%TO.N,/D5*%
X66167000Y-67259200D03*
%TO.P,IC706,3,~{WRITE}*%
%TO.N,MWE*%
X68707000Y-67259200D03*
%TO.P,IC706,4,~{RAS}*%
%TO.N,RAS*%
X71247000Y-67259200D03*
%TO.P,IC706,5,A0*%
%TO.N,/XA0*%
X73787000Y-67259200D03*
%TO.P,IC706,6,A2*%
%TO.N,/XA2*%
X76327000Y-67259200D03*
%TO.P,IC706,7,A1*%
%TO.N,/XA1*%
X78867000Y-67259200D03*
%TO.P,IC706,8,VCC*%
%TO.N,+5V*%
X81407000Y-67259200D03*
%TO.P,IC706,9,A7*%
%TO.N,/XA7*%
X81407000Y-59639200D03*
%TO.P,IC706,10,A5*%
%TO.N,/XA5*%
X78867000Y-59639200D03*
%TO.P,IC706,11,A4*%
%TO.N,/XA4*%
X76327000Y-59639200D03*
%TO.P,IC706,12,A3*%
%TO.N,/XA3*%
X73787000Y-59639200D03*
%TO.P,IC706,13,A6*%
%TO.N,/XA6*%
X71247000Y-59639200D03*
%TO.P,IC706,14,DOUT*%
%TO.N,/GD5*%
X68707000Y-59639200D03*
%TO.P,IC706,15,~{CAS}*%
%TO.N,CAS1*%
X66167000Y-59639200D03*
%TO.P,IC706,16,GND*%
%TO.N,GND*%
X63627000Y-59639200D03*
%TD*%
D10*
%TO.P,IC702,1,NC*%
%TO.N,MV*%
X38303200Y-67243800D03*
D11*
%TO.P,IC702,2,DIN*%
%TO.N,/D1*%
X40843200Y-67243800D03*
%TO.P,IC702,3,~{WRITE}*%
%TO.N,MWE*%
X43383200Y-67243800D03*
%TO.P,IC702,4,~{RAS}*%
%TO.N,RAS*%
X45923200Y-67243800D03*
%TO.P,IC702,5,A0*%
%TO.N,/XA0*%
X48463200Y-67243800D03*
%TO.P,IC702,6,A2*%
%TO.N,/XA2*%
X51003200Y-67243800D03*
%TO.P,IC702,7,A1*%
%TO.N,/XA1*%
X53543200Y-67243800D03*
%TO.P,IC702,8,VCC*%
%TO.N,+5V*%
X56083200Y-67243800D03*
%TO.P,IC702,9,A7*%
%TO.N,/XA7*%
X56083200Y-59623800D03*
%TO.P,IC702,10,A5*%
%TO.N,/XA5*%
X53543200Y-59623800D03*
%TO.P,IC702,11,A4*%
%TO.N,/XA4*%
X51003200Y-59623800D03*
%TO.P,IC702,12,A3*%
%TO.N,/XA3*%
X48463200Y-59623800D03*
%TO.P,IC702,13,A6*%
%TO.N,/XA6*%
X45923200Y-59623800D03*
%TO.P,IC702,14,DOUT*%
%TO.N,/GD1*%
X43383200Y-59623800D03*
%TO.P,IC702,15,~{CAS}*%
%TO.N,CAS1*%
X40843200Y-59623800D03*
%TO.P,IC702,16,GND*%
%TO.N,GND*%
X38303200Y-59623800D03*
%TD*%
D10*
%TO.P,IC703,1,NC*%
%TO.N,MV*%
X38303200Y-77286800D03*
D11*
%TO.P,IC703,2,DIN*%
%TO.N,/D2*%
X40843200Y-77286800D03*
%TO.P,IC703,3,~{WRITE}*%
%TO.N,MWE*%
X43383200Y-77286800D03*
%TO.P,IC703,4,~{RAS}*%
%TO.N,RAS*%
X45923200Y-77286800D03*
%TO.P,IC703,5,A0*%
%TO.N,/XA0*%
X48463200Y-77286800D03*
%TO.P,IC703,6,A2*%
%TO.N,/XA2*%
X51003200Y-77286800D03*
%TO.P,IC703,7,A1*%
%TO.N,/XA1*%
X53543200Y-77286800D03*
%TO.P,IC703,8,VCC*%
%TO.N,+5V*%
X56083200Y-77286800D03*
%TO.P,IC703,9,A7*%
%TO.N,/XA7*%
X56083200Y-69666800D03*
%TO.P,IC703,10,A5*%
%TO.N,/XA5*%
X53543200Y-69666800D03*
%TO.P,IC703,11,A4*%
%TO.N,/XA4*%
X51003200Y-69666800D03*
%TO.P,IC703,12,A3*%
%TO.N,/XA3*%
X48463200Y-69666800D03*
%TO.P,IC703,13,A6*%
%TO.N,/XA6*%
X45923200Y-69666800D03*
%TO.P,IC703,14,DOUT*%
%TO.N,/GD2*%
X43383200Y-69666800D03*
%TO.P,IC703,15,~{CAS}*%
%TO.N,CAS1*%
X40843200Y-69666800D03*
%TO.P,IC703,16,GND*%
%TO.N,GND*%
X38303200Y-69666800D03*
%TD*%
D15*
%TO.N,GND*%
X85000000Y-51000000D03*
%TO.N,Net-(R1220-Pad2)*%
X83791900Y-87872500D03*
X81519400Y-85600000D03*
%TO.N,RAS*%
X61543700Y-86348600D03*
%TO.N,/XA6*%
X70105800Y-54172800D03*
%TO.N,/XA5*%
X78246200Y-55373500D03*
%TO.N,/XA7*%
X71949900Y-52547400D03*
%TO.N,/XA3*%
X48904200Y-55088300D03*
%TO.N,CAS1*%
X64048600Y-55571800D03*
X60845500Y-55699100D03*
X61134100Y-50053200D03*
X55693900Y-54668900D03*
%TO.N,/D0*%
X68029200Y-54622900D03*
%TO.N,/D2*%
X35751500Y-76136100D03*
X62714400Y-84172200D03*
%TO.N,/D3*%
X60114300Y-49658500D03*
X60114300Y-60731400D03*
X58186600Y-85056100D03*
%TO.N,/D5*%
X61997600Y-49502100D03*
X61521800Y-62357100D03*
%TO.N,/D7*%
X61509900Y-69590500D03*
X67328000Y-75408600D03*
X59918700Y-47647500D03*
%TO.N,/GD1*%
X39769900Y-47569500D03*
X39204900Y-55255100D03*
%TO.N,/GD2*%
X48166300Y-42310300D03*
X35668100Y-63953200D03*
%TO.N,/GD5*%
X57228000Y-55733800D03*
%TO.N,/GD6*%
X60492700Y-63494200D03*
%TO.N,/GD7*%
X61513000Y-74004000D03*
%TD*%
D16*
%TO.N,GND*%
X62412400Y-69682200D02*
X62377000Y-69717600D01*
X38303200Y-79689800D02*
X36621000Y-78007600D01*
X36621000Y-59365600D02*
X36621000Y-51283000D01*
X62397000Y-59639200D02*
X62377000Y-59659200D01*
X41722200Y-83108800D02*
X38303200Y-79689800D01*
X62377000Y-78455200D02*
X63627000Y-79705200D01*
X36911600Y-69666800D02*
X36621000Y-69957400D01*
X36621000Y-69957400D02*
X36621000Y-59365600D01*
X36621000Y-51283000D02*
X38303200Y-49600800D01*
X62377000Y-78455200D02*
X59929000Y-78455200D01*
X86000000Y-51000000D02*
X85000000Y-51000000D01*
X59897200Y-45938400D02*
X59897200Y-43398400D01*
X36621000Y-78007600D02*
X36621000Y-69957400D01*
X59897200Y-45938400D02*
X63575000Y-49616200D01*
X59929000Y-78455200D02*
X59827400Y-78556800D01*
X55275400Y-83108800D02*
X41722200Y-83108800D01*
X62377000Y-69717600D02*
X62377000Y-78455200D01*
X86465600Y-41448800D02*
X86465600Y-50534400D01*
X38303200Y-69666800D02*
X36911600Y-69666800D01*
X60000000Y-41448800D02*
X86465600Y-41448800D01*
X36879300Y-59623800D02*
X36621000Y-59365600D01*
X38303200Y-59623800D02*
X36879300Y-59623800D01*
X86465600Y-50534400D02*
X86000000Y-51000000D01*
X59827400Y-78556800D02*
X55275400Y-83108800D01*
X62377000Y-50866200D02*
X62377000Y-59659200D01*
X62377000Y-59659200D02*
X62377000Y-69717600D01*
X63575000Y-49616200D02*
X63627000Y-49616200D01*
X59897200Y-41551600D02*
X60000000Y-41448800D01*
X63627000Y-59639200D02*
X62397000Y-59639200D01*
X63627000Y-49616200D02*
X62377000Y-50866200D01*
X59897200Y-43398400D02*
X59897200Y-41551600D01*
X63627000Y-69682200D02*
X62412400Y-69682200D01*
D17*
%TO.N,Net-(R1220-Pad2)*%
X83791900Y-87872500D02*
X81519400Y-85600000D01*
%TO.N,MV*%
X64758800Y-60586800D02*
X63627000Y-61718600D01*
X38619600Y-58345900D02*
X39428300Y-59154600D01*
X63627000Y-67259200D02*
X63627000Y-68384300D01*
X64752100Y-69193000D02*
X64752100Y-75052000D01*
X38303200Y-57220800D02*
X38303200Y-58345900D01*
X63627000Y-78427300D02*
X63943400Y-78427300D01*
X64753300Y-79237200D02*
X64753300Y-85073800D01*
X63627000Y-58361300D02*
X63943400Y-58361300D01*
X63943400Y-68384300D02*
X64752100Y-69193000D01*
X64758800Y-59176700D02*
X64758800Y-60586800D01*
X42134300Y-84322500D02*
X61749400Y-84322500D01*
X63627000Y-77302200D02*
X63627000Y-76177100D01*
X38303200Y-77286800D02*
X38303200Y-76161700D01*
X38303200Y-58345900D02*
X38619600Y-58345900D01*
X39428300Y-87309800D02*
X39428300Y-87028500D01*
X38303200Y-67243800D02*
X38303200Y-66118700D01*
X39428300Y-59154600D02*
X39428300Y-64993600D01*
X63943400Y-58361300D02*
X64758800Y-59176700D01*
X38619700Y-68368900D02*
X38303200Y-68368900D01*
X38303200Y-76161700D02*
X39428300Y-75036600D01*
X39428300Y-69177500D02*
X38619700Y-68368900D01*
X63627000Y-61718600D02*
X63627000Y-67259200D01*
X64753300Y-85073800D02*
X63627000Y-86200100D01*
X63943400Y-78427300D02*
X64753300Y-79237200D01*
X38303200Y-87309800D02*
X39428300Y-87309800D01*
X39428300Y-87028500D02*
X42134300Y-84322500D01*
X39428300Y-64993600D02*
X38303200Y-66118700D01*
X38303200Y-67243800D02*
X38303200Y-68368900D01*
X63627000Y-87325200D02*
X63627000Y-86200100D01*
X63627000Y-68384300D02*
X63943400Y-68384300D01*
X63627000Y-57236200D02*
X63627000Y-58361300D01*
X64752100Y-75052000D02*
X63627000Y-76177100D01*
X39428300Y-75036600D02*
X39428300Y-69177500D01*
X61749400Y-84322500D02*
X63627000Y-86200100D01*
X63627000Y-77302200D02*
X63627000Y-78427300D01*
%TO.N,MWE*%
X41968400Y-54680900D02*
X43383200Y-56095700D01*
X68707000Y-58361300D02*
X69023400Y-58361300D01*
X69856500Y-85050600D02*
X68707000Y-86200100D01*
X42117200Y-44573500D02*
X41750000Y-44573500D01*
X68707000Y-78427300D02*
X69023400Y-78427300D01*
X68707000Y-68384300D02*
X69009700Y-68384300D01*
X41750000Y-44573500D02*
X40903200Y-45420300D01*
X68707000Y-61713000D02*
X68707000Y-67259200D01*
X68707000Y-77302200D02*
X68707000Y-76177100D01*
X69023400Y-78427300D02*
X69856500Y-79260400D01*
X69023400Y-58361300D02*
X69836300Y-59174200D01*
X69856500Y-79260400D02*
X69856500Y-85050600D01*
X68707000Y-57236200D02*
X68707000Y-58361300D01*
X42117200Y-43398400D02*
X42117200Y-44573500D01*
X68707000Y-87325200D02*
X68707000Y-86200100D01*
X69009700Y-68384300D02*
X69842700Y-69217300D01*
X68707000Y-67259200D02*
X68707000Y-68384300D01*
X69836300Y-59174200D02*
X69836300Y-60583700D01*
X40903200Y-45420300D02*
X40903200Y-46993000D01*
X41968400Y-48058200D02*
X41968400Y-54680900D01*
X69836300Y-60583700D02*
X68707000Y-61713000D01*
X69842700Y-75041400D02*
X68707000Y-76177100D01*
X40903200Y-46993000D02*
X41968400Y-48058200D01*
X69842700Y-69217300D02*
X69842700Y-75041400D01*
X43383200Y-57220800D02*
X43383200Y-56095700D01*
X68707000Y-77302200D02*
X68707000Y-78427300D01*
%TO.N,RAS*%
X72396500Y-68928400D02*
X72396500Y-75027600D01*
X44783500Y-59135900D02*
X45573500Y-58345900D01*
X44657200Y-45938400D02*
X44657200Y-54829700D01*
X71247000Y-58361300D02*
X71563400Y-58361300D01*
X47048300Y-87309800D02*
X47048300Y-87028500D01*
X71247000Y-67778900D02*
X72396500Y-68928400D01*
X71247000Y-77302200D02*
X71247000Y-76177100D01*
X71584500Y-78427300D02*
X71247000Y-78427300D01*
X61379700Y-86184600D02*
X61543700Y-86348600D01*
X45923200Y-76161700D02*
X44727100Y-74965600D01*
X72372100Y-79214900D02*
X71584500Y-78427300D01*
X71247000Y-86200100D02*
X72372100Y-85075000D01*
X45573500Y-58345900D02*
X45923200Y-58345900D01*
X71563400Y-58361300D02*
X72374100Y-59172000D01*
X72372100Y-85075000D02*
X72372100Y-79214900D01*
X72374100Y-60274000D02*
X71247000Y-61401100D01*
X44783500Y-64979000D02*
X44783500Y-59135900D01*
X45923200Y-87309800D02*
X47048300Y-87309800D01*
X44727100Y-68439900D02*
X45923200Y-67243800D01*
X71247000Y-57236200D02*
X71247000Y-58361300D01*
X47892200Y-86184600D02*
X61379700Y-86184600D01*
X45923200Y-77286800D02*
X45923200Y-76161700D01*
X71247000Y-61401100D02*
X71247000Y-67259200D01*
X72396500Y-75027600D02*
X71247000Y-76177100D01*
X72374100Y-59172000D02*
X72374100Y-60274000D01*
X45923200Y-66118700D02*
X44783500Y-64979000D01*
X45923200Y-57220800D02*
X45923200Y-56095700D01*
X47048300Y-87028500D02*
X47892200Y-86184600D01*
X44657200Y-54829700D02*
X45923200Y-56095700D01*
X71247000Y-67259200D02*
X71247000Y-67778900D01*
X71247000Y-87325200D02*
X71247000Y-86200100D01*
X45923200Y-67243800D02*
X45923200Y-66118700D01*
X45923200Y-57220800D02*
X45923200Y-58345900D01*
X44727100Y-74965600D02*
X44727100Y-68439900D01*
X71247000Y-77302200D02*
X71247000Y-78427300D01*
%TO.N,/XA6*%
X45923200Y-59623800D02*
X45923200Y-60186300D01*
X70105800Y-54172800D02*
X70105800Y-58498000D01*
X71224800Y-53053800D02*
X70105800Y-54172800D01*
X71247000Y-69682200D02*
X71247000Y-68557100D01*
X47074900Y-60186300D02*
X47074900Y-67739700D01*
X70107600Y-61903700D02*
X71247000Y-60764300D01*
X70105800Y-58498000D02*
X71247000Y-59639200D01*
X45923200Y-69666800D02*
X45923200Y-68541700D01*
X71247000Y-49616200D02*
X71247000Y-50741300D01*
X47074900Y-67739700D02*
X46272900Y-68541700D01*
X45923200Y-49600800D02*
X45923200Y-50725900D01*
X70107600Y-67734100D02*
X70107600Y-61903700D01*
X70930600Y-68557100D02*
X70107600Y-67734100D01*
X71247000Y-68557100D02*
X70930600Y-68557100D01*
X71247000Y-59639200D02*
X71247000Y-60764300D01*
X45923200Y-60186300D02*
X47074900Y-60186300D01*
X71224800Y-50763500D02*
X71224800Y-53053800D01*
X47074900Y-51877600D02*
X47074900Y-60186300D01*
X45923200Y-50725900D02*
X47074900Y-51877600D01*
X46272900Y-68541700D02*
X45923200Y-68541700D01*
X71247000Y-50741300D02*
X71224800Y-50763500D01*
%TO.N,/XA5*%
X52384200Y-51884900D02*
X52384200Y-58464800D01*
X52405200Y-77776400D02*
X53193500Y-78564700D01*
X78867000Y-49616200D02*
X78867000Y-50741300D01*
X77741100Y-61890200D02*
X77741100Y-67780900D01*
X53543200Y-50725900D02*
X52384200Y-51884900D01*
X78867000Y-59639200D02*
X78867000Y-60764300D01*
X78867000Y-50741300D02*
X78246200Y-51362100D01*
X52384200Y-58464800D02*
X53543200Y-59623800D01*
X53543200Y-79689800D02*
X53543200Y-78564700D01*
X53543200Y-49600800D02*
X53543200Y-50725900D01*
X52405200Y-76400400D02*
X52405200Y-77776400D01*
X78517300Y-68557100D02*
X78867000Y-68557100D01*
X77741100Y-67780900D02*
X78517300Y-68557100D01*
X53543200Y-75262400D02*
X52405200Y-76400400D01*
X53193500Y-78564700D02*
X53543200Y-78564700D01*
X78246200Y-51362100D02*
X78246200Y-55373500D01*
X78867000Y-69682200D02*
X78867000Y-68557100D01*
X53543200Y-69666800D02*
X53543200Y-75262400D01*
X78867000Y-60764300D02*
X77741100Y-61890200D01*
%TO.N,/XA4*%
X75177500Y-51890800D02*
X75177500Y-58489700D01*
X76327000Y-45466400D02*
X75434100Y-44573500D01*
X51003200Y-68541700D02*
X50686800Y-68541700D01*
X49868500Y-51860600D02*
X49868500Y-58489100D01*
X51003200Y-65482000D02*
X51003200Y-59623800D01*
X75177500Y-58489700D02*
X76327000Y-59639200D01*
X76327000Y-50741300D02*
X75177500Y-51890800D01*
X76327000Y-49616200D02*
X76327000Y-45466400D01*
X75137200Y-43398400D02*
X75137200Y-44573500D01*
X75191700Y-68546900D02*
X76327000Y-69682200D01*
X76327000Y-50178700D02*
X76327000Y-49616200D01*
X51003200Y-50725900D02*
X49868500Y-51860600D01*
X75434100Y-44573500D02*
X75137200Y-44573500D01*
X76327000Y-50178700D02*
X76327000Y-50741300D01*
X49868500Y-58489100D02*
X51003200Y-59623800D01*
X76327000Y-60201700D02*
X76327000Y-60764300D01*
X51003200Y-69666800D02*
X51003200Y-68541700D01*
X76327000Y-60201700D02*
X76327000Y-59639200D01*
X50686800Y-68541700D02*
X49861100Y-67716000D01*
X49861100Y-67716000D02*
X49861100Y-66624100D01*
X76327000Y-60764300D02*
X75191700Y-61899600D01*
X49861100Y-66624100D02*
X51003200Y-65482000D01*
X75191700Y-61899600D02*
X75191700Y-68546900D01*
X51003200Y-49600800D02*
X51003200Y-50725900D01*
%TO.N,/XA7*%
X82551900Y-77784900D02*
X81756700Y-78580100D01*
X56502900Y-51145600D02*
X56502900Y-56034000D01*
X81756700Y-78580100D02*
X81407000Y-78580100D01*
X56432900Y-68541700D02*
X56083200Y-68541700D01*
X82542600Y-67771200D02*
X81756700Y-68557100D01*
X81756700Y-68557100D02*
X81407000Y-68557100D01*
X81407000Y-70807300D02*
X82551900Y-71952200D01*
X56083200Y-59623800D02*
X56083200Y-60748900D01*
X81407000Y-69682200D02*
X81407000Y-68557100D01*
X81407000Y-69682200D02*
X81407000Y-70807300D01*
X80524300Y-44573600D02*
X81407000Y-45456300D01*
X72597200Y-51900100D02*
X72597200Y-45938400D01*
X81407000Y-59639200D02*
X81407000Y-58514100D01*
X72964500Y-44763300D02*
X73772300Y-43955500D01*
X57218800Y-61884500D02*
X57218800Y-67755800D01*
X81407000Y-60764300D02*
X82542600Y-61899900D01*
X79186200Y-44573600D02*
X80524300Y-44573600D01*
X82551900Y-57718900D02*
X81756700Y-58514100D01*
X81407000Y-79705200D02*
X81407000Y-78580100D01*
X81407000Y-50741300D02*
X82551900Y-51886200D01*
X82551900Y-51886200D02*
X82551900Y-57718900D01*
X79042000Y-43039100D02*
X79042000Y-44429400D01*
X56432900Y-58498700D02*
X56083200Y-58498700D01*
X72597200Y-45938400D02*
X72597200Y-44763300D01*
X73772300Y-43059400D02*
X74608500Y-42223200D01*
X82542600Y-61899900D02*
X82542600Y-67771200D01*
X56083200Y-69666800D02*
X56083200Y-68541700D01*
X81407000Y-45456300D02*
X81407000Y-49616200D01*
X57218800Y-67755800D02*
X56432900Y-68541700D01*
X56083200Y-59623800D02*
X56083200Y-58498700D01*
X81756700Y-58514100D02*
X81407000Y-58514100D01*
X56083200Y-60748900D02*
X57218800Y-61884500D01*
X74608500Y-42223200D02*
X78226100Y-42223200D01*
X81407000Y-49616200D02*
X81407000Y-50741300D01*
X79042000Y-44429400D02*
X79186200Y-44573600D01*
X71949900Y-52547400D02*
X72597200Y-51900100D01*
X57248300Y-56779400D02*
X57248300Y-57683300D01*
X56083200Y-49600800D02*
X56083200Y-50725900D01*
X73772300Y-43955500D02*
X73772300Y-43059400D01*
X57248300Y-57683300D02*
X56432900Y-58498700D01*
X78226100Y-42223200D02*
X79042000Y-43039100D01*
X56083200Y-50725900D02*
X56502900Y-51145600D01*
X56502900Y-56034000D02*
X57248300Y-56779400D01*
X72597200Y-44763300D02*
X72964500Y-44763300D01*
X81407000Y-59639200D02*
X81407000Y-60764300D01*
X82551900Y-71952200D02*
X82551900Y-77784900D01*
%TO.N,/XA3*%
X48463200Y-50725900D02*
X48904200Y-51166900D01*
X72652700Y-52870100D02*
X73787000Y-51735800D01*
X72652700Y-58504900D02*
X72652700Y-52870100D01*
X49601200Y-71929900D02*
X49601200Y-77776400D01*
X49601200Y-77776400D02*
X48812900Y-78564700D01*
X48463200Y-69666800D02*
X48463200Y-70791900D01*
X48904200Y-51166900D02*
X48904200Y-55088300D01*
X73787000Y-69682200D02*
X72651700Y-68546900D01*
X73787000Y-60201700D02*
X73787000Y-60764300D01*
X48463200Y-49600800D02*
X48463200Y-50725900D01*
X73787000Y-51735800D02*
X73787000Y-50741300D01*
X72651700Y-61899600D02*
X73787000Y-60764300D01*
X48463200Y-79689800D02*
X48463200Y-78564700D01*
X72651700Y-68546900D02*
X72651700Y-61899600D01*
X48812900Y-78564700D02*
X48463200Y-78564700D01*
X48463200Y-70791900D02*
X49601200Y-71929900D01*
X73787000Y-59639200D02*
X72652700Y-58504900D01*
X73787000Y-49616200D02*
X73787000Y-50741300D01*
X73787000Y-60201700D02*
X73787000Y-59639200D01*
%TO.N,/XA2*%
X52193800Y-74971100D02*
X51003200Y-76161700D01*
X77476500Y-85050600D02*
X76327000Y-86200100D01*
X52139200Y-59165500D02*
X52139200Y-64982700D01*
X52139200Y-64982700D02*
X51003200Y-66118700D01*
X78852300Y-46425100D02*
X78852300Y-45451700D01*
X78852300Y-45451700D02*
X77974200Y-44573600D01*
X77476500Y-75027600D02*
X76327000Y-76177100D01*
X76327000Y-67259200D02*
X76327000Y-68384300D01*
X77476500Y-69217400D02*
X77476500Y-75027600D01*
X52193800Y-67871800D02*
X52193800Y-74971100D01*
X51003200Y-67243800D02*
X51003200Y-66681200D01*
X76327000Y-76739600D02*
X77476500Y-77889100D01*
X76643400Y-68384300D02*
X77476500Y-69217400D01*
X77974200Y-44573600D02*
X77677200Y-44573600D01*
X76327000Y-61401000D02*
X76327000Y-67259200D01*
X76327000Y-68384300D02*
X76643400Y-68384300D01*
X77677200Y-43398400D02*
X77677200Y-44573500D01*
X77460000Y-59177900D02*
X77460000Y-60268000D01*
X51319600Y-58345900D02*
X52139200Y-59165500D01*
X76327000Y-58361300D02*
X76643400Y-58361300D01*
X77481500Y-47795900D02*
X78852300Y-46425100D01*
X51003200Y-57220800D02*
X51003200Y-58345900D01*
X76327000Y-56111100D02*
X77481400Y-54956700D01*
X76327000Y-87325200D02*
X76327000Y-86200100D01*
X76327000Y-76739600D02*
X76327000Y-76177100D01*
X77481400Y-54956700D02*
X77481400Y-47795900D01*
X76327000Y-57798700D02*
X76327000Y-58361300D01*
X77481400Y-47795900D02*
X77481500Y-47795900D01*
X77460000Y-60268000D02*
X76327000Y-61401000D01*
X77476500Y-77889100D02*
X77476500Y-85050600D01*
X51003200Y-77286800D02*
X51003200Y-76161700D01*
X51003200Y-66681200D02*
X52193800Y-67871800D01*
X51003200Y-58345900D02*
X51319600Y-58345900D01*
X76327000Y-57236200D02*
X76327000Y-56111100D01*
X76327000Y-77302200D02*
X76327000Y-76739600D01*
X51003200Y-66681200D02*
X51003200Y-66118700D01*
X76643400Y-58361300D02*
X77460000Y-59177900D01*
X76327000Y-57798700D02*
X76327000Y-57236200D01*
X77677200Y-44573600D02*
X77677200Y-44573500D01*
%TO.N,/XA1*%
X53859600Y-58345900D02*
X54679200Y-59165500D01*
X78867000Y-57236200D02*
X78867000Y-58361300D01*
X53543200Y-66681200D02*
X53543200Y-66118700D01*
X53543200Y-57220800D02*
X53543200Y-58345900D01*
X78867000Y-66696600D02*
X78867000Y-66134100D01*
X53543200Y-77286800D02*
X53543200Y-76161700D01*
X78867000Y-57236200D02*
X78867000Y-56111100D01*
X80057600Y-74986500D02*
X78867000Y-76177100D01*
X53543200Y-58345900D02*
X53859600Y-58345900D01*
X54692700Y-67830700D02*
X54692700Y-75012200D01*
X78867000Y-66696600D02*
X80057600Y-67887200D01*
X78867000Y-77302200D02*
X78867000Y-76739600D01*
X79216700Y-58361300D02*
X78867000Y-58361300D01*
X78867000Y-76739600D02*
X80016500Y-77889100D01*
X80016500Y-77889100D02*
X80016500Y-85050600D01*
X53543200Y-66681200D02*
X54692700Y-67830700D01*
X54679200Y-64982700D02*
X53543200Y-66118700D01*
X80005000Y-59149600D02*
X79216700Y-58361300D01*
X80005000Y-64996100D02*
X80005000Y-59149600D01*
X54692700Y-75012200D02*
X53543200Y-76161700D01*
X80016500Y-85050600D02*
X78867000Y-86200100D01*
X80217200Y-54760900D02*
X78867000Y-56111100D01*
X78867000Y-67259200D02*
X78867000Y-66696600D01*
X78867000Y-66134100D02*
X80005000Y-64996100D01*
X53543200Y-67243800D02*
X53543200Y-66681200D01*
X54679200Y-59165500D02*
X54679200Y-64982700D01*
X80057600Y-67887200D02*
X80057600Y-74986500D01*
X80217200Y-45938400D02*
X80217200Y-54760900D01*
X78867000Y-87325200D02*
X78867000Y-86200100D01*
X78867000Y-76739600D02*
X78867000Y-76177100D01*
%TO.N,/XA0*%
X48463200Y-57220800D02*
X48463200Y-58345900D01*
X48463200Y-87309800D02*
X49588300Y-87309800D01*
X74925000Y-85737200D02*
X74925000Y-79215600D01*
X74936500Y-75027600D02*
X73787000Y-76177100D01*
X47332400Y-69199800D02*
X48163300Y-68368900D01*
X74177900Y-58361300D02*
X74914100Y-59097500D01*
X48163300Y-68368900D02*
X48463200Y-68368900D01*
X73787000Y-87325200D02*
X73337000Y-87325200D01*
X74136700Y-78427300D02*
X73787000Y-78427300D01*
X74914100Y-59097500D02*
X74914100Y-60273900D01*
X49592200Y-64989700D02*
X48463200Y-66118700D01*
X48463200Y-67243800D02*
X48463200Y-68368900D01*
X73787000Y-68384300D02*
X74089700Y-68384300D01*
X48463200Y-77286800D02*
X48463200Y-76161700D01*
X72661900Y-87606500D02*
X71804700Y-88463700D01*
X73787000Y-61401000D02*
X73787000Y-67259200D01*
X48463200Y-76161700D02*
X47332400Y-75030900D01*
X48463200Y-58345900D02*
X48854100Y-58345900D01*
X49592200Y-59084000D02*
X49592200Y-64989700D01*
X48463200Y-67243800D02*
X48463200Y-66118700D01*
X73787000Y-57236200D02*
X73787000Y-58361300D01*
X73787000Y-77302200D02*
X73787000Y-78427300D01*
X71804700Y-88463700D02*
X50509000Y-88463700D01*
X73787000Y-58361300D02*
X74177900Y-58361300D01*
X49588300Y-87543000D02*
X49588300Y-87309800D01*
X74925000Y-79215600D02*
X74136700Y-78427300D01*
X73787000Y-77302200D02*
X73787000Y-76177100D01*
X73337000Y-87325200D02*
X72661900Y-87325200D01*
X74914100Y-60273900D02*
X73787000Y-61401000D01*
X47332400Y-75030900D02*
X47332400Y-69199800D01*
X72661900Y-87325200D02*
X72661900Y-87606500D01*
X74936500Y-69231100D02*
X74936500Y-75027600D01*
X73337000Y-87325200D02*
X74925000Y-85737200D01*
X73787000Y-67259200D02*
X73787000Y-68384300D01*
X50509000Y-88463700D02*
X49588300Y-87543000D01*
X74089700Y-68384300D02*
X74936500Y-69231100D01*
X48854100Y-58345900D02*
X49592200Y-59084000D01*
%TO.N,CAS1*%
X40843200Y-60748900D02*
X41974100Y-61879800D01*
X39709700Y-56244500D02*
X40843200Y-55111000D01*
X66167000Y-58514100D02*
X65850500Y-58514100D01*
X66167000Y-59952900D02*
X66167000Y-59639200D01*
X40843200Y-59061200D02*
X40843200Y-58498700D01*
X66167000Y-69682200D02*
X66167000Y-70807300D01*
X65033500Y-76597100D02*
X65033500Y-77763000D01*
X65041900Y-56565100D02*
X64048600Y-55571800D01*
X40493500Y-58498700D02*
X39709700Y-57714900D01*
X41974100Y-61879800D02*
X41974100Y-67760500D01*
X66167000Y-79705200D02*
X66167000Y-78580100D01*
X47197200Y-45938400D02*
X48372300Y-45938400D01*
X66167000Y-59639200D02*
X66167000Y-58514100D01*
X65817300Y-68557100D02*
X66167000Y-68557100D01*
X60845500Y-55699100D02*
X60845500Y-50341800D01*
X40843200Y-59061200D02*
X40843200Y-59623800D01*
X66167000Y-70807300D02*
X65730100Y-71244200D01*
X52653300Y-47113500D02*
X54747300Y-49207500D01*
X65033500Y-77763000D02*
X65850600Y-78580100D01*
X65850600Y-78580100D02*
X66167000Y-78580100D01*
X66167000Y-60764300D02*
X65031400Y-61899900D01*
X65850500Y-58514100D02*
X65041900Y-57705500D01*
X39709700Y-57714900D02*
X39709700Y-56244500D01*
X41974100Y-67760500D02*
X41192900Y-68541700D01*
X40843200Y-58498700D02*
X40493500Y-58498700D01*
X48372300Y-45938400D02*
X48372300Y-46305700D01*
X54747300Y-49207500D02*
X54747300Y-53722300D01*
X66167000Y-69119600D02*
X66167000Y-68557100D01*
X40843200Y-59623800D02*
X40843200Y-60748900D01*
X40843200Y-69666800D02*
X40843200Y-68541700D01*
X41192900Y-68541700D02*
X40843200Y-68541700D01*
X40843200Y-55111000D02*
X40843200Y-50725900D01*
X60845500Y-50341800D02*
X61134100Y-50053200D01*
X66167000Y-69119600D02*
X66167000Y-69682200D01*
X65041900Y-57705500D02*
X65041900Y-56565100D01*
X65031400Y-61899900D02*
X65031400Y-67771200D01*
X49180100Y-47113500D02*
X52653300Y-47113500D01*
X65730100Y-75900500D02*
X65033500Y-76597100D01*
X48372300Y-46305700D02*
X49180100Y-47113500D01*
X40843200Y-49600800D02*
X40843200Y-50725900D01*
X54747300Y-53722300D02*
X55693900Y-54668900D01*
X65730100Y-71244200D02*
X65730100Y-75900500D01*
X65031400Y-67771200D02*
X65817300Y-68557100D01*
X66167000Y-59952900D02*
X66167000Y-60764300D01*
%TO.N,/D0*%
X69884200Y-48039100D02*
X69884200Y-52767900D01*
X69690000Y-44573500D02*
X68859000Y-45404500D01*
X68859000Y-47013900D02*
X69884200Y-48039100D01*
X68859000Y-45404500D02*
X68859000Y-47013900D01*
X70057200Y-44573500D02*
X69690000Y-44573500D01*
X70057200Y-43398400D02*
X70057200Y-44573500D01*
X69884200Y-52767900D02*
X68029200Y-54622900D01*
%TO.N,/D2*%
X35751500Y-76136100D02*
X35751500Y-78733900D01*
X35751500Y-78733900D02*
X40736100Y-83718500D01*
X62260700Y-83718500D02*
X62714400Y-84172200D01*
X40736100Y-83718500D02*
X62260700Y-83718500D01*
%TO.N,/D3*%
X41968300Y-87028500D02*
X43940700Y-85056100D01*
X60114300Y-49658500D02*
X60114300Y-60731400D01*
X41968300Y-87309800D02*
X41968300Y-87028500D01*
X43940700Y-85056100D02*
X58186600Y-85056100D01*
X40843200Y-87309800D02*
X41968300Y-87309800D01*
%TO.N,/D4*%
X65041900Y-48767400D02*
X63776300Y-47501800D01*
X66167000Y-57236200D02*
X66167000Y-56111100D01*
X66167000Y-56111100D02*
X65041900Y-54986000D01*
X63776300Y-45409100D02*
X64611900Y-44573500D01*
X63776300Y-47501800D02*
X63776300Y-45409100D01*
X65041900Y-54986000D02*
X65041900Y-48767400D01*
X64611900Y-44573500D02*
X64977200Y-44573500D01*
X64977200Y-43398400D02*
X64977200Y-44573500D01*
%TO.N,/D5*%
X61997600Y-50215200D02*
X61801800Y-50411000D01*
X61997600Y-49502100D02*
X61997600Y-50215200D01*
X61801800Y-50411000D02*
X61801800Y-62077100D01*
X61801800Y-62077100D02*
X61521800Y-62357100D01*
%TO.N,/D6*%
X63612300Y-43031200D02*
X64470300Y-42173200D01*
X63612300Y-43398400D02*
X63612300Y-43031200D01*
X62437200Y-43398400D02*
X63612300Y-43398400D01*
X64470300Y-42173200D02*
X65431800Y-42173200D01*
X67292200Y-74377900D02*
X66180200Y-75489900D01*
X66167000Y-77302200D02*
X66167000Y-76177100D01*
X67292200Y-48058800D02*
X67292200Y-74377900D01*
X66152400Y-46919000D02*
X67292200Y-48058800D01*
X66180200Y-76163900D02*
X66167000Y-76177100D01*
X66180200Y-75489900D02*
X66180200Y-76163900D01*
X65431800Y-42173200D02*
X66152400Y-42893800D01*
X66152400Y-42893800D02*
X66152400Y-46919000D01*
%TO.N,/D7*%
X59389200Y-48177000D02*
X59389200Y-61337000D01*
X59389200Y-61337000D02*
X61509900Y-63457700D01*
X66167000Y-87325200D02*
X66167000Y-86200100D01*
X59918700Y-47647500D02*
X59389200Y-48177000D01*
X66167000Y-86200100D02*
X67328000Y-85039100D01*
X61509900Y-63457700D02*
X61509900Y-69590500D01*
X67328000Y-85039100D02*
X67328000Y-75408600D01*
%TO.N,/GD0*%
X50111100Y-44763200D02*
X44131500Y-44763200D01*
X56182100Y-43398400D02*
X56182100Y-43031200D01*
X43383200Y-45511500D02*
X43383200Y-49600800D01*
X51787500Y-42221500D02*
X50973800Y-43035200D01*
X56182100Y-43031200D02*
X55372400Y-42221500D01*
X50973800Y-43900500D02*
X50111100Y-44763200D01*
X50973800Y-43035200D02*
X50973800Y-43900500D01*
X44131500Y-44763200D02*
X43383200Y-45511500D01*
X55372400Y-42221500D02*
X51787500Y-42221500D01*
X57357200Y-43398400D02*
X56182100Y-43398400D01*
%TO.N,/GD1*%
X39428400Y-47911000D02*
X39428400Y-55031600D01*
X39769900Y-47569500D02*
X39428400Y-47911000D01*
X39428400Y-55031600D02*
X39204900Y-55255100D01*
%TO.N,/GD2*%
X35668100Y-63953200D02*
X35668100Y-48136400D01*
X40813800Y-43033500D02*
X41661100Y-42186200D01*
X39991300Y-44668400D02*
X40813800Y-43845900D01*
X35668100Y-48136400D02*
X39136100Y-44668400D01*
X39136100Y-44668400D02*
X39991300Y-44668400D01*
X40813800Y-43845900D02*
X40813800Y-43033500D01*
X41661100Y-42186200D02*
X48042200Y-42186200D01*
X48042200Y-42186200D02*
X48166300Y-42310300D01*
%TO.N,/GD3*%
X55626500Y-78488300D02*
X54813200Y-79301600D01*
X54813200Y-80058400D02*
X54035600Y-80836000D01*
X43383200Y-79689800D02*
X44508300Y-79689800D01*
X54817200Y-47113500D02*
X55845400Y-47113500D01*
X54813200Y-79301600D02*
X54813200Y-80058400D01*
X57953100Y-49221200D02*
X57953100Y-77008200D01*
X45421300Y-80836000D02*
X44508300Y-79923000D01*
X44508300Y-79923000D02*
X44508300Y-79689800D01*
X57953100Y-77008200D02*
X56473000Y-78488300D01*
X56473000Y-78488300D02*
X55626500Y-78488300D01*
X54817200Y-45938400D02*
X54817200Y-47113500D01*
X54035600Y-80836000D02*
X45421300Y-80836000D01*
X55845400Y-47113500D02*
X57953100Y-49221200D01*
%TO.N,/GD5*%
X53452300Y-45938400D02*
X53452300Y-46452500D01*
X56297300Y-48218200D02*
X57228000Y-49148900D01*
X55218000Y-48218200D02*
X56297300Y-48218200D01*
X52277200Y-45938400D02*
X53452300Y-45938400D01*
X57228000Y-49148900D02*
X57228000Y-55733800D01*
X53452300Y-46452500D02*
X55218000Y-48218200D01*
%TO.N,/GD6*%
X58884300Y-61885800D02*
X60492700Y-63494200D01*
X57405400Y-41719300D02*
X58578100Y-42892000D01*
X58578100Y-46379400D02*
X58884300Y-46685600D01*
X49737200Y-43398400D02*
X51416300Y-41719300D01*
X58884300Y-46685600D02*
X58884300Y-61885800D01*
X51416300Y-41719300D02*
X57405400Y-41719300D01*
X58578100Y-42892000D02*
X58578100Y-46379400D01*
%TO.N,/GD7*%
X58403300Y-70894300D02*
X61513000Y-74004000D01*
X50912300Y-45571200D02*
X51720300Y-44763200D01*
X50912300Y-45938400D02*
X50912300Y-45571200D01*
X49737200Y-45938400D02*
X50912300Y-45938400D01*
X55342900Y-44763200D02*
X56087200Y-45507500D01*
X56087200Y-46330300D02*
X58403300Y-48646400D01*
X56087200Y-45507500D02*
X56087200Y-46330300D01*
X51720300Y-44763200D02*
X55342900Y-44763200D01*
X58403300Y-48646400D02*
X58403300Y-70894300D01*
%TD*%
M02*
