%TF.GenerationSoftware,KiCad,Pcbnew,(6.0.7)*%
%TF.CreationDate,2023-01-24T22:55:54+00:00*%
%TF.ProjectId,CPC464-2MINICAS1,43504334-3634-42d3-924d-494e49434153,rev?*%
%TF.SameCoordinates,Original*%
%TF.FileFunction,Soldermask,Top*%
%TF.FilePolarity,Negative*%
%FSLAX46Y46*%
G04 Gerber Fmt 4.6, Leading zero omitted, Abs format (unit mm)*
G04 Created by KiCad (PCBNEW (6.0.7)) date 2023-01-24 22:55:54*
%MOMM*%
%LPD*%
G01*
G04 APERTURE LIST*
G04 Aperture macros list*
%AMRoundRect*
0 Rectangle with rounded corners*
0 $1 Rounding radius*
0 $2 $3 $4 $5 $6 $7 $8 $9 X,Y pos of 4 corners*
0 Add a 4 corners polygon primitive as box body*
4,1,4,$2,$3,$4,$5,$6,$7,$8,$9,$2,$3,0*
0 Add four circle primitives for the rounded corners*
1,1,$1+$1,$2,$3*
1,1,$1+$1,$4,$5*
1,1,$1+$1,$6,$7*
1,1,$1+$1,$8,$9*
0 Add four rect primitives between the rounded corners*
20,1,$1+$1,$2,$3,$4,$5,0*
20,1,$1+$1,$4,$5,$6,$7,0*
20,1,$1+$1,$6,$7,$8,$9,0*
20,1,$1+$1,$8,$9,$2,$3,0*%
G04 Aperture macros list end*
%ADD10RoundRect,0.250000X0.475000X-0.250000X0.475000X0.250000X-0.475000X0.250000X-0.475000X-0.250000X0*%
%ADD11R,1.600000X1.600000*%
%ADD12O,1.600000X1.600000*%
%ADD13C,3.800000*%
%ADD14R,1.700000X1.700000*%
%ADD15O,1.700000X1.700000*%
%ADD16RoundRect,0.250000X-0.450000X0.262500X-0.450000X-0.262500X0.450000X-0.262500X0.450000X0.262500X0*%
%ADD17RoundRect,0.250000X-0.625000X0.375000X-0.625000X-0.375000X0.625000X-0.375000X0.625000X0.375000X0*%
G04 APERTURE END LIST*
D10*
%TO.C,C708*%
X85329000Y-84485200D03*
X85329000Y-82585200D03*
%TD*%
D11*
%TO.C,IC704*%
X38303200Y-87309800D03*
D12*
X40843200Y-87309800D03*
X43383200Y-87309800D03*
X45923200Y-87309800D03*
X48463200Y-87309800D03*
X51003200Y-87309800D03*
X53543200Y-87309800D03*
X56083200Y-87309800D03*
X56083200Y-79689800D03*
X53543200Y-79689800D03*
X51003200Y-79689800D03*
X48463200Y-79689800D03*
X45923200Y-79689800D03*
X43383200Y-79689800D03*
X40843200Y-79689800D03*
X38303200Y-79689800D03*
%TD*%
D13*
%TO.C,H8*%
X59827400Y-78556800D03*
%TD*%
D11*
%TO.C,IC707*%
X63627000Y-77302200D03*
D12*
X66167000Y-77302200D03*
X68707000Y-77302200D03*
X71247000Y-77302200D03*
X73787000Y-77302200D03*
X76327000Y-77302200D03*
X78867000Y-77302200D03*
X81407000Y-77302200D03*
X81407000Y-69682200D03*
X78867000Y-69682200D03*
X76327000Y-69682200D03*
X73787000Y-69682200D03*
X71247000Y-69682200D03*
X68707000Y-69682200D03*
X66167000Y-69682200D03*
X63627000Y-69682200D03*
%TD*%
D14*
%TO.C,J1200*%
X80217200Y-43398400D03*
D15*
X80217200Y-45938400D03*
X77677200Y-43398400D03*
X77677200Y-45938400D03*
X75137200Y-43398400D03*
X75137200Y-45938400D03*
X72597200Y-43398400D03*
X72597200Y-45938400D03*
X70057200Y-43398400D03*
X70057200Y-45938400D03*
X67517200Y-43398400D03*
X67517200Y-45938400D03*
X64977200Y-43398400D03*
X64977200Y-45938400D03*
X62437200Y-43398400D03*
X62437200Y-45938400D03*
X59897200Y-43398400D03*
X59897200Y-45938400D03*
X57357200Y-43398400D03*
X57357200Y-45938400D03*
X54817200Y-43398400D03*
X54817200Y-45938400D03*
X52277200Y-43398400D03*
X52277200Y-45938400D03*
X49737200Y-43398400D03*
X49737200Y-45938400D03*
X47197200Y-43398400D03*
X47197200Y-45938400D03*
X44657200Y-43398400D03*
X44657200Y-45938400D03*
X42117200Y-43398400D03*
X42117200Y-45938400D03*
X39577200Y-43398400D03*
X39577200Y-45938400D03*
%TD*%
D10*
%TO.C,C703*%
X34239200Y-74436800D03*
X34239200Y-72536800D03*
%TD*%
%TO.C,C705*%
X85329000Y-54513200D03*
X85329000Y-52613200D03*
%TD*%
D11*
%TO.C,IC705*%
X63627000Y-57236200D03*
D12*
X66167000Y-57236200D03*
X68707000Y-57236200D03*
X71247000Y-57236200D03*
X73787000Y-57236200D03*
X76327000Y-57236200D03*
X78867000Y-57236200D03*
X81407000Y-57236200D03*
X81407000Y-49616200D03*
X78867000Y-49616200D03*
X76327000Y-49616200D03*
X73787000Y-49616200D03*
X71247000Y-49616200D03*
X68707000Y-49616200D03*
X66167000Y-49616200D03*
X63627000Y-49616200D03*
%TD*%
D10*
%TO.C,C707*%
X85329000Y-74452200D03*
X85329000Y-72552200D03*
%TD*%
D11*
%TO.C,IC701*%
X38303200Y-57220800D03*
D12*
X40843200Y-57220800D03*
X43383200Y-57220800D03*
X45923200Y-57220800D03*
X48463200Y-57220800D03*
X51003200Y-57220800D03*
X53543200Y-57220800D03*
X56083200Y-57220800D03*
X56083200Y-49600800D03*
X53543200Y-49600800D03*
X51003200Y-49600800D03*
X48463200Y-49600800D03*
X45923200Y-49600800D03*
X43383200Y-49600800D03*
X40843200Y-49600800D03*
X38303200Y-49600800D03*
%TD*%
D11*
%TO.C,IC708*%
X63627000Y-87325200D03*
D12*
X66167000Y-87325200D03*
X68707000Y-87325200D03*
X71247000Y-87325200D03*
X73787000Y-87325200D03*
X76327000Y-87325200D03*
X78867000Y-87325200D03*
X81407000Y-87325200D03*
X81407000Y-79705200D03*
X78867000Y-79705200D03*
X76327000Y-79705200D03*
X73787000Y-79705200D03*
X71247000Y-79705200D03*
X68707000Y-79705200D03*
X66167000Y-79705200D03*
X63627000Y-79705200D03*
%TD*%
D10*
%TO.C,C706*%
X85329000Y-64292200D03*
X85329000Y-62392200D03*
%TD*%
D16*
%TO.C,R1220*%
X85344000Y-86087500D03*
X85344000Y-87912500D03*
%TD*%
D11*
%TO.C,IC706*%
X63627000Y-67259200D03*
D12*
X66167000Y-67259200D03*
X68707000Y-67259200D03*
X71247000Y-67259200D03*
X73787000Y-67259200D03*
X76327000Y-67259200D03*
X78867000Y-67259200D03*
X81407000Y-67259200D03*
X81407000Y-59639200D03*
X78867000Y-59639200D03*
X76327000Y-59639200D03*
X73787000Y-59639200D03*
X71247000Y-59639200D03*
X68707000Y-59639200D03*
X66167000Y-59639200D03*
X63627000Y-59639200D03*
%TD*%
D10*
%TO.C,C701*%
X34239200Y-54370800D03*
X34239200Y-52470800D03*
%TD*%
%TO.C,C702*%
X34239200Y-64530800D03*
X34239200Y-62630800D03*
%TD*%
D11*
%TO.C,IC702*%
X38303200Y-67243800D03*
D12*
X40843200Y-67243800D03*
X43383200Y-67243800D03*
X45923200Y-67243800D03*
X48463200Y-67243800D03*
X51003200Y-67243800D03*
X53543200Y-67243800D03*
X56083200Y-67243800D03*
X56083200Y-59623800D03*
X53543200Y-59623800D03*
X51003200Y-59623800D03*
X48463200Y-59623800D03*
X45923200Y-59623800D03*
X43383200Y-59623800D03*
X40843200Y-59623800D03*
X38303200Y-59623800D03*
%TD*%
D17*
%TO.C,D1220*%
X60000000Y-85600000D03*
X60000000Y-88400000D03*
%TD*%
D10*
%TO.C,C704*%
X34239200Y-84469800D03*
X34239200Y-82569800D03*
%TD*%
D11*
%TO.C,IC703*%
X38303200Y-77286800D03*
D12*
X40843200Y-77286800D03*
X43383200Y-77286800D03*
X45923200Y-77286800D03*
X48463200Y-77286800D03*
X51003200Y-77286800D03*
X53543200Y-77286800D03*
X56083200Y-77286800D03*
X56083200Y-69666800D03*
X53543200Y-69666800D03*
X51003200Y-69666800D03*
X48463200Y-69666800D03*
X45923200Y-69666800D03*
X43383200Y-69666800D03*
X40843200Y-69666800D03*
X38303200Y-69666800D03*
%TD*%
M02*
