M48
; DRILL file {KiCad (6.0.7)} date Tue Jan 24 22:55:53 2023
; FORMAT={-:-/ absolute / inch / decimal}
; #@! TF.CreationDate,2023-01-24T22:55:53+00:00
; #@! TF.GenerationSoftware,Kicad,Pcbnew,(6.0.7)
; #@! TF.FileFunction,Plated,1,2,PTH
FMAT,2
INCH
; #@! TA.AperFunction,Plated,PTH,ViaDrill
T1C0.0157
; #@! TA.AperFunction,Plated,PTH,ComponentDrill
T2C0.0315
; #@! TA.AperFunction,Plated,PTH,ComponentDrill
T3C0.0394
; #@! TA.AperFunction,Plated,PTH,ComponentDrill
T4C0.0866
%
G90
G05
T1
X1.4043Y-2.5178
X1.4075Y-2.9975
X1.5435Y-2.1754
X1.5657Y-1.8728
X1.8963Y-1.6658
X1.9254Y-2.1688
X2.1927Y-2.1523
X2.2531Y-2.1942
X2.2908Y-3.3487
X2.359Y-1.8759
X2.3667Y-1.9551
X2.3667Y-2.391
X2.3816Y-2.4998
X2.3955Y-2.1929
X2.4069Y-1.9706
X2.4216Y-2.7398
X2.4218Y-2.9135
X2.4221Y-2.455
X2.423Y-3.3996
X2.4409Y-1.9489
X2.4691Y-3.3139
X2.5216Y-2.1879
X2.6507Y-2.9688
X2.6783Y-2.1505
X2.7601Y-2.1328
X2.8327Y-2.0688
X3.0806Y-2.1801
X3.2094Y-3.3701
X3.2989Y-3.4595
X3.3465Y-2.0079
T2
X1.508Y-1.9528
X1.508Y-2.2528
X1.508Y-2.3474
X1.508Y-2.6474
X1.508Y-2.7428
X1.508Y-3.0428
X1.508Y-3.1374
X1.508Y-3.4374
X1.608Y-1.9528
X1.608Y-2.2528
X1.608Y-2.3474
X1.608Y-2.6474
X1.608Y-2.7428
X1.608Y-3.0428
X1.608Y-3.1374
X1.608Y-3.4374
X1.708Y-1.9528
X1.708Y-2.2528
X1.708Y-2.3474
X1.708Y-2.6474
X1.708Y-2.7428
X1.708Y-3.0428
X1.708Y-3.1374
X1.708Y-3.4374
X1.808Y-1.9528
X1.808Y-2.2528
X1.808Y-2.3474
X1.808Y-2.6474
X1.808Y-2.7428
X1.808Y-3.0428
X1.808Y-3.1374
X1.808Y-3.4374
X1.908Y-1.9528
X1.908Y-2.2528
X1.908Y-2.3474
X1.908Y-2.6474
X1.908Y-2.7428
X1.908Y-3.0428
X1.908Y-3.1374
X1.908Y-3.4374
X2.008Y-1.9528
X2.008Y-2.2528
X2.008Y-2.3474
X2.008Y-2.6474
X2.008Y-2.7428
X2.008Y-3.0428
X2.008Y-3.1374
X2.008Y-3.4374
X2.108Y-1.9528
X2.108Y-2.2528
X2.108Y-2.3474
X2.108Y-2.6474
X2.108Y-2.7428
X2.108Y-3.0428
X2.108Y-3.1374
X2.108Y-3.4374
X2.208Y-1.9528
X2.208Y-2.2528
X2.208Y-2.3474
X2.208Y-2.6474
X2.208Y-2.7428
X2.208Y-3.0428
X2.208Y-3.1374
X2.208Y-3.4374
X2.505Y-1.9534
X2.505Y-2.2534
X2.505Y-2.348
X2.505Y-2.648
X2.505Y-2.7434
X2.505Y-3.0434
X2.505Y-3.138
X2.505Y-3.438
X2.605Y-1.9534
X2.605Y-2.2534
X2.605Y-2.348
X2.605Y-2.648
X2.605Y-2.7434
X2.605Y-3.0434
X2.605Y-3.138
X2.605Y-3.438
X2.705Y-1.9534
X2.705Y-2.2534
X2.705Y-2.348
X2.705Y-2.648
X2.705Y-2.7434
X2.705Y-3.0434
X2.705Y-3.138
X2.705Y-3.438
X2.805Y-1.9534
X2.805Y-2.2534
X2.805Y-2.348
X2.805Y-2.648
X2.805Y-2.7434
X2.805Y-3.0434
X2.805Y-3.138
X2.805Y-3.438
X2.905Y-1.9534
X2.905Y-2.2534
X2.905Y-2.348
X2.905Y-2.648
X2.905Y-2.7434
X2.905Y-3.0434
X2.905Y-3.138
X2.905Y-3.438
X3.005Y-1.9534
X3.005Y-2.2534
X3.005Y-2.348
X3.005Y-2.648
X3.005Y-2.7434
X3.005Y-3.0434
X3.005Y-3.138
X3.005Y-3.438
X3.105Y-1.9534
X3.105Y-2.2534
X3.105Y-2.348
X3.105Y-2.648
X3.105Y-2.7434
X3.105Y-3.0434
X3.105Y-3.138
X3.105Y-3.438
X3.205Y-1.9534
X3.205Y-2.2534
X3.205Y-2.348
X3.205Y-2.648
X3.205Y-2.7434
X3.205Y-3.0434
X3.205Y-3.138
X3.205Y-3.438
T3
X1.5582Y-1.7086
X1.5582Y-1.8086
X1.6582Y-1.7086
X1.6582Y-1.8086
X1.7582Y-1.7086
X1.7582Y-1.8086
X1.8582Y-1.7086
X1.8582Y-1.8086
X1.9582Y-1.7086
X1.9582Y-1.8086
X2.0582Y-1.7086
X2.0582Y-1.8086
X2.1582Y-1.7086
X2.1582Y-1.8086
X2.2582Y-1.7086
X2.2582Y-1.8086
X2.3582Y-1.7086
X2.3582Y-1.8086
X2.4582Y-1.7086
X2.4582Y-1.8086
X2.5582Y-1.7086
X2.5582Y-1.8086
X2.6582Y-1.7086
X2.6582Y-1.8086
X2.7582Y-1.7086
X2.7582Y-1.8086
X2.8582Y-1.7086
X2.8582Y-1.8086
X2.9582Y-1.7086
X2.9582Y-1.8086
X3.0582Y-1.7086
X3.0582Y-1.8086
X3.1582Y-1.7086
X3.1582Y-1.8086
T4
X2.3554Y-3.0928
T0
M30
