M48
; DRILL file {KiCad (6.0.7)} date Fri Dec 30 00:06:56 2022
; FORMAT={-:-/ absolute / inch / decimal}
; #@! TF.CreationDate,2022-12-30T00:06:56+00:00
; #@! TF.GenerationSoftware,Kicad,Pcbnew,(6.0.7)
; #@! TF.FileFunction,Plated,1,2,PTH
FMAT,2
INCH
; #@! TA.AperFunction,Plated,PTH,ComponentDrill
T1C0.0394
%
G90
G05
T1
X2.502Y-2.538
X2.502Y-2.638
X2.502Y-2.738
X2.502Y-2.838
X2.502Y-2.938
X2.502Y-3.038
X2.502Y-3.138
X2.502Y-3.238
X2.502Y-3.338
X2.502Y-3.438
X2.502Y-3.538
X2.502Y-3.638
X2.502Y-3.738
X2.502Y-3.838
X2.502Y-3.938
X2.502Y-4.038
X2.502Y-4.138
X2.602Y-2.538
X2.602Y-2.638
X2.602Y-2.738
X2.602Y-2.838
X2.602Y-2.938
X2.602Y-3.038
X2.602Y-3.138
X2.602Y-3.238
X2.602Y-3.338
X2.602Y-3.438
X2.602Y-3.538
X2.602Y-3.638
X2.602Y-3.738
X2.602Y-3.838
X2.602Y-3.938
X2.602Y-4.038
X2.602Y-4.138
X2.992Y-3.139
X2.992Y-3.239
X2.992Y-3.339
X2.992Y-3.439
X2.992Y-3.539
X2.992Y-3.639
X2.992Y-3.739
X2.992Y-3.839
X2.992Y-3.939
X2.992Y-4.039
X2.992Y-4.139
X2.992Y-4.239
X2.992Y-4.339
X3.092Y-3.139
X3.092Y-3.239
X3.092Y-3.339
X3.092Y-3.439
X3.092Y-3.539
X3.092Y-3.639
X3.092Y-3.739
X3.092Y-3.839
X3.092Y-3.939
X3.092Y-4.039
X3.092Y-4.139
X3.092Y-4.239
X3.092Y-4.339
T0
M30
