%TF.GenerationSoftware,KiCad,Pcbnew,(6.0.7)*%
%TF.CreationDate,2022-12-30T00:06:58+00:00*%
%TF.ProjectId,CPC464-2MINIDDI3ADAPT,43504334-3634-42d3-924d-494e49444449,rev?*%
%TF.SameCoordinates,Original*%
%TF.FileFunction,Legend,Bot*%
%TF.FilePolarity,Positive*%
%FSLAX46Y46*%
G04 Gerber Fmt 4.6, Leading zero omitted, Abs format (unit mm)*
G04 Created by KiCad (PCBNEW (6.0.7)) date 2022-12-30 00:06:58*
%MOMM*%
%LPD*%
G01*
G04 APERTURE LIST*
%ADD10C,0.100000*%
G04 APERTURE END LIST*
D10*
X81189514Y-105120085D02*
X81160942Y-105091514D01*
X81132371Y-105034371D01*
X81132371Y-104977228D01*
X81160942Y-104920085D01*
X81189514Y-104891514D01*
X81246657Y-104862942D01*
X81303800Y-104862942D01*
X81360942Y-104891514D01*
X81389514Y-104920085D01*
X81418085Y-104977228D01*
X81418085Y-105034371D01*
X81389514Y-105091514D01*
X81360942Y-105120085D01*
X81132371Y-105120085D02*
X81360942Y-105120085D01*
X81389514Y-105148657D01*
X81389514Y-105177228D01*
X81360942Y-105234371D01*
X81303800Y-105262942D01*
X81160942Y-105262942D01*
X81075228Y-105205800D01*
X81018085Y-105120085D01*
X80989514Y-105005800D01*
X81018085Y-104891514D01*
X81075228Y-104805800D01*
X81160942Y-104748657D01*
X81275228Y-104720085D01*
X81389514Y-104748657D01*
X81475228Y-104805800D01*
X81532371Y-104891514D01*
X81560942Y-105005800D01*
X81532371Y-105120085D01*
X81475228Y-105205800D01*
X81075228Y-105777228D02*
X81560942Y-105777228D01*
X81618085Y-105748657D01*
X81646657Y-105720085D01*
X81675228Y-105662942D01*
X81675228Y-105577228D01*
X81646657Y-105520085D01*
X81446657Y-105777228D02*
X81475228Y-105720085D01*
X81475228Y-105605800D01*
X81446657Y-105548657D01*
X81418085Y-105520085D01*
X81360942Y-105491514D01*
X81189514Y-105491514D01*
X81132371Y-105520085D01*
X81103800Y-105548657D01*
X81075228Y-105605800D01*
X81075228Y-105720085D01*
X81103800Y-105777228D01*
X81475228Y-106062942D02*
X81075228Y-106062942D01*
X81189514Y-106062942D02*
X81132371Y-106091514D01*
X81103800Y-106120085D01*
X81075228Y-106177228D01*
X81075228Y-106234371D01*
X81475228Y-106691514D02*
X81160942Y-106691514D01*
X81103800Y-106662942D01*
X81075228Y-106605800D01*
X81075228Y-106491514D01*
X81103800Y-106434371D01*
X81446657Y-106691514D02*
X81475228Y-106634371D01*
X81475228Y-106491514D01*
X81446657Y-106434371D01*
X81389514Y-106405800D01*
X81332371Y-106405800D01*
X81275228Y-106434371D01*
X81246657Y-106491514D01*
X81246657Y-106634371D01*
X81218085Y-106691514D01*
X81075228Y-106977228D02*
X81475228Y-106977228D01*
X81132371Y-106977228D02*
X81103800Y-107005800D01*
X81075228Y-107062942D01*
X81075228Y-107148657D01*
X81103800Y-107205800D01*
X81160942Y-107234371D01*
X81475228Y-107234371D01*
X81475228Y-107777228D02*
X80875228Y-107777228D01*
X81446657Y-107777228D02*
X81475228Y-107720085D01*
X81475228Y-107605800D01*
X81446657Y-107548657D01*
X81418085Y-107520085D01*
X81360942Y-107491514D01*
X81189514Y-107491514D01*
X81132371Y-107520085D01*
X81103800Y-107548657D01*
X81075228Y-107605800D01*
X81075228Y-107720085D01*
X81103800Y-107777228D01*
X81475228Y-108148657D02*
X81446657Y-108091514D01*
X81418085Y-108062942D01*
X81360942Y-108034371D01*
X81189514Y-108034371D01*
X81132371Y-108062942D01*
X81103800Y-108091514D01*
X81075228Y-108148657D01*
X81075228Y-108234371D01*
X81103800Y-108291514D01*
X81132371Y-108320085D01*
X81189514Y-108348657D01*
X81360942Y-108348657D01*
X81418085Y-108320085D01*
X81446657Y-108291514D01*
X81475228Y-108234371D01*
X81475228Y-108148657D01*
X81475228Y-108691514D02*
X81446657Y-108634371D01*
X81389514Y-108605800D01*
X80875228Y-108605800D01*
X81475228Y-109177228D02*
X80875228Y-109177228D01*
X81446657Y-109177228D02*
X81475228Y-109120085D01*
X81475228Y-109005800D01*
X81446657Y-108948657D01*
X81418085Y-108920085D01*
X81360942Y-108891514D01*
X81189514Y-108891514D01*
X81132371Y-108920085D01*
X81103800Y-108948657D01*
X81075228Y-109005800D01*
X81075228Y-109120085D01*
X81103800Y-109177228D01*
X81475228Y-109462942D02*
X81075228Y-109462942D01*
X80875228Y-109462942D02*
X80903800Y-109434371D01*
X80932371Y-109462942D01*
X80903800Y-109491514D01*
X80875228Y-109462942D01*
X80932371Y-109462942D01*
X81475228Y-110005800D02*
X81160942Y-110005800D01*
X81103800Y-109977228D01*
X81075228Y-109920085D01*
X81075228Y-109805800D01*
X81103800Y-109748657D01*
X81446657Y-110005800D02*
X81475228Y-109948657D01*
X81475228Y-109805800D01*
X81446657Y-109748657D01*
X81389514Y-109720085D01*
X81332371Y-109720085D01*
X81275228Y-109748657D01*
X81246657Y-109805800D01*
X81246657Y-109948657D01*
X81218085Y-110005800D01*
X81075228Y-110291514D02*
X81475228Y-110291514D01*
X81132371Y-110291514D02*
X81103800Y-110320085D01*
X81075228Y-110377228D01*
X81075228Y-110462942D01*
X81103800Y-110520085D01*
X81160942Y-110548657D01*
X81475228Y-110548657D01*
X80875228Y-111405800D02*
X80875228Y-111462942D01*
X80903800Y-111520085D01*
X80932371Y-111548657D01*
X80989514Y-111577228D01*
X81103800Y-111605800D01*
X81246657Y-111605800D01*
X81360942Y-111577228D01*
X81418085Y-111548657D01*
X81446657Y-111520085D01*
X81475228Y-111462942D01*
X81475228Y-111405800D01*
X81446657Y-111348657D01*
X81418085Y-111320085D01*
X81360942Y-111291514D01*
X81246657Y-111262942D01*
X81103800Y-111262942D01*
X80989514Y-111291514D01*
X80932371Y-111320085D01*
X80903800Y-111348657D01*
X80875228Y-111405800D01*
X81475228Y-112177228D02*
X81475228Y-111834371D01*
X81475228Y-112005800D02*
X80875228Y-112005800D01*
X80960942Y-111948657D01*
X81018085Y-111891514D01*
X81046657Y-111834371D01*
X80846657Y-112862942D02*
X81618085Y-112348657D01*
X80932371Y-113034371D02*
X80903800Y-113062942D01*
X80875228Y-113120085D01*
X80875228Y-113262942D01*
X80903800Y-113320085D01*
X80932371Y-113348657D01*
X80989514Y-113377228D01*
X81046657Y-113377228D01*
X81132371Y-113348657D01*
X81475228Y-113005800D01*
X81475228Y-113377228D01*
X80875228Y-113748657D02*
X80875228Y-113805800D01*
X80903800Y-113862942D01*
X80932371Y-113891514D01*
X80989514Y-113920085D01*
X81103800Y-113948657D01*
X81246657Y-113948657D01*
X81360942Y-113920085D01*
X81418085Y-113891514D01*
X81446657Y-113862942D01*
X81475228Y-113805800D01*
X81475228Y-113748657D01*
X81446657Y-113691514D01*
X81418085Y-113662942D01*
X81360942Y-113634371D01*
X81246657Y-113605800D01*
X81103800Y-113605800D01*
X80989514Y-113634371D01*
X80932371Y-113662942D01*
X80903800Y-113691514D01*
X80875228Y-113748657D01*
X80932371Y-114177228D02*
X80903800Y-114205800D01*
X80875228Y-114262942D01*
X80875228Y-114405800D01*
X80903800Y-114462942D01*
X80932371Y-114491514D01*
X80989514Y-114520085D01*
X81046657Y-114520085D01*
X81132371Y-114491514D01*
X81475228Y-114148657D01*
X81475228Y-114520085D01*
X80875228Y-114720085D02*
X80875228Y-115091514D01*
X81103800Y-114891514D01*
X81103800Y-114977228D01*
X81132371Y-115034371D01*
X81160942Y-115062942D01*
X81218085Y-115091514D01*
X81360942Y-115091514D01*
X81418085Y-115062942D01*
X81446657Y-115034371D01*
X81475228Y-114977228D01*
X81475228Y-114805800D01*
X81446657Y-114748657D01*
X81418085Y-114720085D01*
M02*
