%TF.GenerationSoftware,KiCad,Pcbnew,(6.0.7)*%
%TF.CreationDate,2022-12-30T00:06:57+00:00*%
%TF.ProjectId,CPC464-2MINIDDI3ADAPT,43504334-3634-42d3-924d-494e49444449,rev?*%
%TF.SameCoordinates,Original*%
%TF.FileFunction,Copper,L1,Top*%
%TF.FilePolarity,Positive*%
%FSLAX46Y46*%
G04 Gerber Fmt 4.6, Leading zero omitted, Abs format (unit mm)*
G04 Created by KiCad (PCBNEW (6.0.7)) date 2022-12-30 00:06:57*
%MOMM*%
%LPD*%
G01*
G04 APERTURE LIST*
G04 Aperture macros list*
%AMRoundRect*
0 Rectangle with rounded corners*
0 $1 Rounding radius*
0 $2 $3 $4 $5 $6 $7 $8 $9 X,Y pos of 4 corners*
0 Add a 4 corners polygon primitive as box body*
4,1,4,$2,$3,$4,$5,$6,$7,$8,$9,$2,$3,0*
0 Add four circle primitives for the rounded corners*
1,1,$1+$1,$2,$3*
1,1,$1+$1,$4,$5*
1,1,$1+$1,$6,$7*
1,1,$1+$1,$8,$9*
0 Add four rect primitives between the rounded corners*
20,1,$1+$1,$2,$3,$4,$5,0*
20,1,$1+$1,$4,$5,$6,$7,0*
20,1,$1+$1,$6,$7,$8,$9,0*
20,1,$1+$1,$8,$9,$2,$3,0*%
G04 Aperture macros list end*
%TA.AperFunction,ComponentPad*%
%ADD10RoundRect,0.250000X-0.600000X-0.600000X0.600000X-0.600000X0.600000X0.600000X-0.600000X0.600000X0*%
%TD*%
%TA.AperFunction,ComponentPad*%
%ADD11C,1.700000*%
%TD*%
%TA.AperFunction,Conductor*%
%ADD12C,0.400000*%
%TD*%
G04 APERTURE END LIST*
D10*
%TO.P,CD2,1,Pin_1*%
%TO.N,GND*%
X75996800Y-79730600D03*
D11*
%TO.P,CD2,2,Pin_2*%
%TO.N,fINDEX*%
X78536800Y-79730600D03*
%TO.P,CD2,3,Pin_3*%
%TO.N,GND*%
X75996800Y-82270600D03*
%TO.P,CD2,4,Pin_4*%
%TO.N,fDRIVE0*%
X78536800Y-82270600D03*
%TO.P,CD2,5,Pin_5*%
%TO.N,GND*%
X75996800Y-84810600D03*
%TO.P,CD2,6,Pin_6*%
%TO.N,unconnected-(CD2-Pad6)*%
X78536800Y-84810600D03*
%TO.P,CD2,7,Pin_7*%
%TO.N,GND*%
X75996800Y-87350600D03*
%TO.P,CD2,8,Pin_8*%
%TO.N,fMOTOR1*%
X78536800Y-87350600D03*
%TO.P,CD2,9,Pin_9*%
%TO.N,GND*%
X75996800Y-89890600D03*
%TO.P,CD2,10,Pin_10*%
%TO.N,fDIR*%
X78536800Y-89890600D03*
%TO.P,CD2,11,Pin_11*%
%TO.N,GND*%
X75996800Y-92430600D03*
%TO.P,CD2,12,Pin_12*%
%TO.N,fSTEP*%
X78536800Y-92430600D03*
%TO.P,CD2,13,Pin_13*%
%TO.N,GND*%
X75996800Y-94970600D03*
%TO.P,CD2,14,Pin_14*%
%TO.N,fWDATA*%
X78536800Y-94970600D03*
%TO.P,CD2,15,Pin_15*%
%TO.N,GND*%
X75996800Y-97510600D03*
%TO.P,CD2,16,Pin_16*%
%TO.N,fWGATE*%
X78536800Y-97510600D03*
%TO.P,CD2,17,Pin_17*%
%TO.N,GND*%
X75996800Y-100050600D03*
%TO.P,CD2,18,Pin_18*%
%TO.N,fTRACK0*%
X78536800Y-100050600D03*
%TO.P,CD2,19,Pin_19*%
%TO.N,GND*%
X75996800Y-102590600D03*
%TO.P,CD2,20,Pin_20*%
%TO.N,fWRITEPROT*%
X78536800Y-102590600D03*
%TO.P,CD2,21,Pin_21*%
%TO.N,GND*%
X75996800Y-105130600D03*
%TO.P,CD2,22,Pin_22*%
%TO.N,fREAD*%
X78536800Y-105130600D03*
%TO.P,CD2,23,Pin_23*%
%TO.N,GND*%
X75996800Y-107670600D03*
%TO.P,CD2,24,Pin_24*%
%TO.N,fSIDE1*%
X78536800Y-107670600D03*
%TO.P,CD2,25,Pin_25*%
%TO.N,GND*%
X75996800Y-110210600D03*
%TO.P,CD2,26,Pin_26*%
%TO.N,fREADY*%
X78536800Y-110210600D03*
%TD*%
D10*
%TO.P,CD1,1,Pin_1*%
%TO.N,GND*%
X63550800Y-64465200D03*
D11*
%TO.P,CD1,2,Pin_2*%
%TO.N,unconnected-(CD1-Pad2)*%
X66090800Y-64465200D03*
%TO.P,CD1,3,Pin_3*%
%TO.N,GND*%
X63550800Y-67005200D03*
%TO.P,CD1,4,Pin_4*%
%TO.N,unconnected-(CD1-Pad4)*%
X66090800Y-67005200D03*
%TO.P,CD1,5,Pin_5*%
%TO.N,GND*%
X63550800Y-69545200D03*
%TO.P,CD1,6,Pin_6*%
%TO.N,unconnected-(CD1-Pad6)*%
X66090800Y-69545200D03*
%TO.P,CD1,7,Pin_7*%
%TO.N,GND*%
X63550800Y-72085200D03*
%TO.P,CD1,8,Pin_8*%
%TO.N,fINDEX*%
X66090800Y-72085200D03*
%TO.P,CD1,9,Pin_9*%
%TO.N,GND*%
X63550800Y-74625200D03*
%TO.P,CD1,10,Pin_10*%
%TO.N,fDRIVE0*%
X66090800Y-74625200D03*
%TO.P,CD1,11,Pin_11*%
%TO.N,GND*%
X63550800Y-77165200D03*
%TO.P,CD1,12,Pin_12*%
%TO.N,fDRIVE1*%
X66090800Y-77165200D03*
%TO.P,CD1,13,Pin_13*%
%TO.N,GND*%
X63550800Y-79705200D03*
%TO.P,CD1,14,Pin_14*%
%TO.N,unconnected-(CD1-Pad14)*%
X66090800Y-79705200D03*
%TO.P,CD1,15,Pin_15*%
%TO.N,GND*%
X63550800Y-82245200D03*
%TO.P,CD1,16,Pin_16*%
%TO.N,fMOTOR1*%
X66090800Y-82245200D03*
%TO.P,CD1,17,Pin_17*%
%TO.N,GND*%
X63550800Y-84785200D03*
%TO.P,CD1,18,Pin_18*%
%TO.N,fDIR*%
X66090800Y-84785200D03*
%TO.P,CD1,19,Pin_19*%
%TO.N,GND*%
X63550800Y-87325200D03*
%TO.P,CD1,20,Pin_20*%
%TO.N,fSTEP*%
X66090800Y-87325200D03*
%TO.P,CD1,21,Pin_21*%
%TO.N,GND*%
X63550800Y-89865200D03*
%TO.P,CD1,22,Pin_22*%
%TO.N,fWDATA*%
X66090800Y-89865200D03*
%TO.P,CD1,23,Pin_23*%
%TO.N,GND*%
X63550800Y-92405200D03*
%TO.P,CD1,24,Pin_24*%
%TO.N,fWGATE*%
X66090800Y-92405200D03*
%TO.P,CD1,25,Pin_25*%
%TO.N,GND*%
X63550800Y-94945200D03*
%TO.P,CD1,26,Pin_26*%
%TO.N,fTRACK0*%
X66090800Y-94945200D03*
%TO.P,CD1,27,Pin_27*%
%TO.N,GND*%
X63550800Y-97485200D03*
%TO.P,CD1,28,Pin_28*%
%TO.N,fWRITEPROT*%
X66090800Y-97485200D03*
%TO.P,CD1,29,Pin_29*%
%TO.N,GND*%
X63550800Y-100025200D03*
%TO.P,CD1,30,Pin_30*%
%TO.N,fREAD*%
X66090800Y-100025200D03*
%TO.P,CD1,31,Pin_31*%
%TO.N,GND*%
X63550800Y-102565200D03*
%TO.P,CD1,32,Pin_32*%
%TO.N,fSIDE1*%
X66090800Y-102565200D03*
%TO.P,CD1,33,Pin_33*%
%TO.N,GND*%
X63550800Y-105105200D03*
%TO.P,CD1,34,Pin_34*%
%TO.N,fREADY*%
X66090800Y-105105200D03*
%TD*%
D12*
%TO.N,fREADY*%
X69946200Y-108960600D02*
X66090800Y-105105200D01*
X77286800Y-108960600D02*
X69946200Y-108960600D01*
X78536800Y-110210600D02*
X77286800Y-108960600D01*
%TO.N,fSIDE1*%
X69926200Y-106400600D02*
X66090800Y-102565200D01*
X77266800Y-106400600D02*
X69926200Y-106400600D01*
X78536800Y-107670600D02*
X77266800Y-106400600D01*
%TO.N,fREAD*%
X69946200Y-103880600D02*
X66090800Y-100025200D01*
X77286800Y-103880600D02*
X69946200Y-103880600D01*
X78536800Y-105130600D02*
X77286800Y-103880600D01*
%TO.N,fWRITEPROT*%
X69946200Y-101340600D02*
X66090800Y-97485200D01*
X77286800Y-101340600D02*
X69946200Y-101340600D01*
X78536800Y-102590600D02*
X77286800Y-101340600D01*
%TO.N,fTRACK0*%
X69926200Y-98780600D02*
X66090800Y-94945200D01*
X77266800Y-98780600D02*
X69926200Y-98780600D01*
X78536800Y-100050600D02*
X77266800Y-98780600D01*
%TO.N,fWGATE*%
X77266800Y-96240600D02*
X69926200Y-96240600D01*
X69926200Y-96240600D02*
X66090800Y-92405200D01*
X78536800Y-97510600D02*
X77266800Y-96240600D01*
%TO.N,fWDATA*%
X69926200Y-93700600D02*
X66090800Y-89865200D01*
X77266800Y-93700600D02*
X69926200Y-93700600D01*
X78536800Y-94970600D02*
X77266800Y-93700600D01*
%TO.N,fSTEP*%
X77286800Y-91180600D02*
X69946200Y-91180600D01*
X78536800Y-92430600D02*
X77286800Y-91180600D01*
X69946200Y-91180600D02*
X66090800Y-87325200D01*
%TO.N,fDIR*%
X69926200Y-88620600D02*
X66090800Y-84785200D01*
X77266800Y-88620600D02*
X69926200Y-88620600D01*
X78536800Y-89890600D02*
X77266800Y-88620600D01*
%TO.N,fMOTOR1*%
X69926200Y-86080600D02*
X66090800Y-82245200D01*
X78536800Y-87350600D02*
X77266800Y-86080600D01*
X77266800Y-86080600D02*
X69926200Y-86080600D01*
%TO.N,fDRIVE0*%
X72486200Y-81020600D02*
X66090800Y-74625200D01*
X77286800Y-81020600D02*
X72486200Y-81020600D01*
X78536800Y-82270600D02*
X77286800Y-81020600D01*
%TO.N,fINDEX*%
X69042600Y-75037000D02*
X66090800Y-72085200D01*
X73843200Y-75037000D02*
X69042600Y-75037000D01*
X78536800Y-79730600D02*
X73843200Y-75037000D01*
%TD*%
M02*
