%TF.GenerationSoftware,KiCad,Pcbnew,(6.0.0)*%
%TF.CreationDate,2022-12-03T19:26:30+00:00*%
%TF.ProjectId,CPC464-2MINI,43504334-3634-42d3-924d-494e492e6b69,rev?*%
%TF.SameCoordinates,Original*%
%TF.FileFunction,Paste,Top*%
%TF.FilePolarity,Positive*%
%FSLAX46Y46*%
G04 Gerber Fmt 4.6, Leading zero omitted, Abs format (unit mm)*
G04 Created by KiCad (PCBNEW (6.0.0)) date 2022-12-03 19:26:30*
%MOMM*%
%LPD*%
G01*
G04 APERTURE LIST*
G04 Aperture macros list*
%AMRoundRect*
0 Rectangle with rounded corners*
0 $1 Rounding radius*
0 $2 $3 $4 $5 $6 $7 $8 $9 X,Y pos of 4 corners*
0 Add a 4 corners polygon primitive as box body*
4,1,4,$2,$3,$4,$5,$6,$7,$8,$9,$2,$3,0*
0 Add four circle primitives for the rounded corners*
1,1,$1+$1,$2,$3*
1,1,$1+$1,$4,$5*
1,1,$1+$1,$6,$7*
1,1,$1+$1,$8,$9*
0 Add four rect primitives between the rounded corners*
20,1,$1+$1,$2,$3,$4,$5,0*
20,1,$1+$1,$4,$5,$6,$7,0*
20,1,$1+$1,$6,$7,$8,$9,0*
20,1,$1+$1,$8,$9,$2,$3,0*%
G04 Aperture macros list end*
%ADD10RoundRect,0.250000X0.262500X0.450000X-0.262500X0.450000X-0.262500X-0.450000X0.262500X-0.450000X0*%
%ADD11RoundRect,0.250000X-0.262500X-0.450000X0.262500X-0.450000X0.262500X0.450000X-0.262500X0.450000X0*%
%ADD12RoundRect,0.150000X0.150000X-0.825000X0.150000X0.825000X-0.150000X0.825000X-0.150000X-0.825000X0*%
%ADD13RoundRect,0.250000X0.475000X-0.250000X0.475000X0.250000X-0.475000X0.250000X-0.475000X-0.250000X0*%
%ADD14RoundRect,0.250000X-0.450000X0.262500X-0.450000X-0.262500X0.450000X-0.262500X0.450000X0.262500X0*%
%ADD15RoundRect,0.250000X-0.250000X-0.475000X0.250000X-0.475000X0.250000X0.475000X-0.250000X0.475000X0*%
%ADD16RoundRect,0.150000X0.150000X-0.875000X0.150000X0.875000X-0.150000X0.875000X-0.150000X-0.875000X0*%
%ADD17RoundRect,0.250000X0.250000X0.475000X-0.250000X0.475000X-0.250000X-0.475000X0.250000X-0.475000X0*%
%ADD18RoundRect,0.250000X0.450000X-0.262500X0.450000X0.262500X-0.450000X0.262500X-0.450000X-0.262500X0*%
%ADD19R,1.200000X0.900000*%
%ADD20RoundRect,0.250000X-0.475000X0.250000X-0.475000X-0.250000X0.475000X-0.250000X0.475000X0.250000X0*%
G04 APERTURE END LIST*
D10*
%TO.C,R121*%
X59102000Y-30988000D03*
X57277000Y-30988000D03*
%TD*%
D11*
%TO.C,R133*%
X235815500Y-57150000D03*
X237640500Y-57150000D03*
%TD*%
D12*
%TO.C,IC125*%
X246761000Y-98233000D03*
X248031000Y-98233000D03*
X249301000Y-98233000D03*
X250571000Y-98233000D03*
X251841000Y-98233000D03*
X253111000Y-98233000D03*
X254381000Y-98233000D03*
X254381000Y-93283000D03*
X253111000Y-93283000D03*
X251841000Y-93283000D03*
X250571000Y-93283000D03*
X249301000Y-93283000D03*
X248031000Y-93283000D03*
X246761000Y-93283000D03*
%TD*%
D11*
%TO.C,R104*%
X231728000Y-101219000D03*
X233553000Y-101219000D03*
%TD*%
D13*
%TO.C,C108*%
X227472000Y-83891000D03*
X227472000Y-81991000D03*
%TD*%
%TO.C,C105*%
X177561000Y-73985000D03*
X177561000Y-72085000D03*
%TD*%
D11*
%TO.C,R105*%
X29718000Y-63308000D03*
X31543000Y-63308000D03*
%TD*%
D13*
%TO.C,C110*%
X227472000Y-94051000D03*
X227472000Y-92151000D03*
%TD*%
D12*
%TO.C,IC113*%
X135128000Y-105222000D03*
X136398000Y-105222000D03*
X137668000Y-105222000D03*
X138938000Y-105222000D03*
X140208000Y-105222000D03*
X141478000Y-105222000D03*
X142748000Y-105222000D03*
X144018000Y-105222000D03*
X144018000Y-100272000D03*
X142748000Y-100272000D03*
X141478000Y-100272000D03*
X140208000Y-100272000D03*
X138938000Y-100272000D03*
X137668000Y-100272000D03*
X136398000Y-100272000D03*
X135128000Y-100272000D03*
%TD*%
D14*
%TO.C,R155*%
X238506000Y-94718500D03*
X238506000Y-96543500D03*
%TD*%
D13*
%TO.C,C121*%
X131699000Y-103570000D03*
X131699000Y-101670000D03*
%TD*%
D11*
%TO.C,R141*%
X222838000Y-40005000D03*
X224663000Y-40005000D03*
%TD*%
%TO.C,R131*%
X246483500Y-60452000D03*
X248308500Y-60452000D03*
%TD*%
%TO.C,R126*%
X246483500Y-57150000D03*
X248308500Y-57150000D03*
%TD*%
D12*
%TO.C,IC110*%
X120904000Y-105222000D03*
X122174000Y-105222000D03*
X123444000Y-105222000D03*
X124714000Y-105222000D03*
X125984000Y-105222000D03*
X127254000Y-105222000D03*
X128524000Y-105222000D03*
X128524000Y-100272000D03*
X127254000Y-100272000D03*
X125984000Y-100272000D03*
X124714000Y-100272000D03*
X123444000Y-100272000D03*
X122174000Y-100272000D03*
X120904000Y-100272000D03*
%TD*%
D15*
%TO.C,C134*%
X253558000Y-57150000D03*
X255458000Y-57150000D03*
%TD*%
D11*
%TO.C,R103*%
X104243500Y-68388000D03*
X106068500Y-68388000D03*
%TD*%
D15*
%TO.C,C131*%
X249113000Y-85471000D03*
X251013000Y-85471000D03*
%TD*%
D11*
%TO.C,R118*%
X50141500Y-34417000D03*
X51966500Y-34417000D03*
%TD*%
D13*
%TO.C,C106*%
X227472000Y-74112000D03*
X227472000Y-72212000D03*
%TD*%
D11*
%TO.C,R120*%
X39473500Y-34417000D03*
X41298500Y-34417000D03*
%TD*%
%TO.C,R150*%
X170942000Y-84201000D03*
X172767000Y-84201000D03*
%TD*%
D13*
%TO.C,C117*%
X147193000Y-103697000D03*
X147193000Y-101797000D03*
%TD*%
D11*
%TO.C,R111*%
X247626500Y-89281000D03*
X249451500Y-89281000D03*
%TD*%
%TO.C,R136*%
X232259500Y-60452000D03*
X234084500Y-60452000D03*
%TD*%
%TO.C,R147*%
X170942000Y-90297000D03*
X172767000Y-90297000D03*
%TD*%
%TO.C,R153*%
X170942000Y-94361000D03*
X172767000Y-94361000D03*
%TD*%
D13*
%TO.C,C127*%
X86741000Y-103570000D03*
X86741000Y-101670000D03*
%TD*%
D11*
%TO.C,R115*%
X53697500Y-34417000D03*
X55522500Y-34417000D03*
%TD*%
D13*
%TO.C,C116*%
X142367000Y-74291000D03*
X142367000Y-72391000D03*
%TD*%
D11*
%TO.C,R143*%
X243816500Y-89281000D03*
X245641500Y-89281000D03*
%TD*%
%TO.C,R130*%
X235815500Y-60452000D03*
X237640500Y-60452000D03*
%TD*%
D15*
%TO.C,C135*%
X239311000Y-60452000D03*
X241211000Y-60452000D03*
%TD*%
D11*
%TO.C,R122*%
X46585500Y-34417000D03*
X48410500Y-34417000D03*
%TD*%
%TO.C,R137*%
X242927500Y-57150000D03*
X244752500Y-57150000D03*
%TD*%
%TO.C,R128*%
X250039500Y-57150000D03*
X251864500Y-57150000D03*
%TD*%
D15*
%TO.C,C133*%
X253558000Y-60452000D03*
X255458000Y-60452000D03*
%TD*%
D11*
%TO.C,R142*%
X165838500Y-36195000D03*
X167663500Y-36195000D03*
%TD*%
D16*
%TO.C,IC115*%
X150749000Y-102186000D03*
X152019000Y-102186000D03*
X153289000Y-102186000D03*
X154559000Y-102186000D03*
X155829000Y-102186000D03*
X157099000Y-102186000D03*
X158369000Y-102186000D03*
X159639000Y-102186000D03*
X160909000Y-102186000D03*
X162179000Y-102186000D03*
X162179000Y-92886000D03*
X160909000Y-92886000D03*
X159639000Y-92886000D03*
X158369000Y-92886000D03*
X157099000Y-92886000D03*
X155829000Y-92886000D03*
X154559000Y-92886000D03*
X153289000Y-92886000D03*
X152019000Y-92886000D03*
X150749000Y-92886000D03*
%TD*%
D13*
%TO.C,C122*%
X117475000Y-103697000D03*
X117475000Y-101797000D03*
%TD*%
D11*
%TO.C,R119*%
X50165000Y-30988000D03*
X51990000Y-30988000D03*
%TD*%
%TO.C,R135*%
X239371500Y-57150000D03*
X241196500Y-57150000D03*
%TD*%
D17*
%TO.C,C132*%
X257109000Y-89281000D03*
X255209000Y-89281000D03*
%TD*%
D11*
%TO.C,R146*%
X170942000Y-88265000D03*
X172767000Y-88265000D03*
%TD*%
%TO.C,R108*%
X108053500Y-68388000D03*
X109878500Y-68388000D03*
%TD*%
%TO.C,R112*%
X33504500Y-63308000D03*
X35329500Y-63308000D03*
%TD*%
D13*
%TO.C,C125*%
X22098000Y-81214000D03*
X22098000Y-79314000D03*
%TD*%
D12*
%TO.C,IC101*%
X59182000Y-105410000D03*
X60452000Y-105410000D03*
X61722000Y-105410000D03*
X62992000Y-105410000D03*
X64262000Y-105410000D03*
X65532000Y-105410000D03*
X66802000Y-105410000D03*
X68072000Y-105410000D03*
X68072000Y-100460000D03*
X66802000Y-100460000D03*
X65532000Y-100460000D03*
X64262000Y-100460000D03*
X62992000Y-100460000D03*
X61722000Y-100460000D03*
X60452000Y-100460000D03*
X59182000Y-100460000D03*
%TD*%
D11*
%TO.C,R149*%
X170942000Y-98425000D03*
X172767000Y-98425000D03*
%TD*%
%TO.C,R123*%
X35941000Y-34417000D03*
X37766000Y-34417000D03*
%TD*%
%TO.C,R106*%
X231698800Y-104749600D03*
X233523800Y-104749600D03*
%TD*%
%TO.C,R134*%
X228703500Y-60452000D03*
X230528500Y-60452000D03*
%TD*%
D13*
%TO.C,C123*%
X102235000Y-103824000D03*
X102235000Y-101924000D03*
%TD*%
D12*
%TO.C,IC104*%
X74676000Y-105222000D03*
X75946000Y-105222000D03*
X77216000Y-105222000D03*
X78486000Y-105222000D03*
X79756000Y-105222000D03*
X81026000Y-105222000D03*
X82296000Y-105222000D03*
X83566000Y-105222000D03*
X83566000Y-100272000D03*
X82296000Y-100272000D03*
X81026000Y-100272000D03*
X79756000Y-100272000D03*
X78486000Y-100272000D03*
X77216000Y-100272000D03*
X75946000Y-100272000D03*
X74676000Y-100272000D03*
%TD*%
D13*
%TO.C,C112*%
X227472000Y-104084000D03*
X227472000Y-102184000D03*
%TD*%
D11*
%TO.C,R145*%
X251436500Y-89281000D03*
X253261500Y-89281000D03*
%TD*%
%TO.C,R109*%
X157710500Y-36195000D03*
X159535500Y-36195000D03*
%TD*%
D13*
%TO.C,C114*%
X161417000Y-74164000D03*
X161417000Y-72264000D03*
%TD*%
%TO.C,C120*%
X118237000Y-88200000D03*
X118237000Y-86300000D03*
%TD*%
D11*
%TO.C,R132*%
X250039500Y-60452000D03*
X251864500Y-60452000D03*
%TD*%
D13*
%TO.C,C115*%
X165608000Y-98359000D03*
X165608000Y-96459000D03*
%TD*%
D18*
%TO.C,R101*%
X240792000Y-96543500D03*
X240792000Y-94718500D03*
%TD*%
D15*
%TO.C,C102*%
X236159000Y-89281000D03*
X238059000Y-89281000D03*
%TD*%
D11*
%TO.C,R124*%
X126468500Y-73403000D03*
X128293500Y-73403000D03*
%TD*%
D15*
%TO.C,C130*%
X239969000Y-89281000D03*
X241869000Y-89281000D03*
%TD*%
D12*
%TO.C,IC105*%
X90170000Y-105222000D03*
X91440000Y-105222000D03*
X92710000Y-105222000D03*
X93980000Y-105222000D03*
X95250000Y-105222000D03*
X96520000Y-105222000D03*
X97790000Y-105222000D03*
X99060000Y-105222000D03*
X99060000Y-100272000D03*
X97790000Y-100272000D03*
X96520000Y-100272000D03*
X95250000Y-100272000D03*
X93980000Y-100272000D03*
X92710000Y-100272000D03*
X91440000Y-100272000D03*
X90170000Y-100272000D03*
%TD*%
D11*
%TO.C,R127*%
X247245500Y-65405000D03*
X249070500Y-65405000D03*
%TD*%
%TO.C,R102*%
X169926000Y-36195000D03*
X171751000Y-36195000D03*
%TD*%
%TO.C,R152*%
X170942000Y-92329000D03*
X172767000Y-92329000D03*
%TD*%
%TO.C,R129*%
X232259500Y-57150000D03*
X234084500Y-57150000D03*
%TD*%
D12*
%TO.C,IC109*%
X105410000Y-105222000D03*
X106680000Y-105222000D03*
X107950000Y-105222000D03*
X109220000Y-105222000D03*
X110490000Y-105222000D03*
X111760000Y-105222000D03*
X113030000Y-105222000D03*
X114300000Y-105222000D03*
X114300000Y-100272000D03*
X113030000Y-100272000D03*
X111760000Y-100272000D03*
X110490000Y-100272000D03*
X109220000Y-100272000D03*
X107950000Y-100272000D03*
X106680000Y-100272000D03*
X105410000Y-100272000D03*
%TD*%
D16*
%TO.C,IC114*%
X146558000Y-77991000D03*
X147828000Y-77991000D03*
X149098000Y-77991000D03*
X150368000Y-77991000D03*
X151638000Y-77991000D03*
X152908000Y-77991000D03*
X154178000Y-77991000D03*
X155448000Y-77991000D03*
X156718000Y-77991000D03*
X157988000Y-77991000D03*
X157988000Y-68691000D03*
X156718000Y-68691000D03*
X155448000Y-68691000D03*
X154178000Y-68691000D03*
X152908000Y-68691000D03*
X151638000Y-68691000D03*
X150368000Y-68691000D03*
X149098000Y-68691000D03*
X147828000Y-68691000D03*
X146558000Y-68691000D03*
%TD*%
D13*
%TO.C,C124*%
X60174500Y-58416000D03*
X60174500Y-56516000D03*
%TD*%
D11*
%TO.C,R148*%
X170942000Y-96393000D03*
X172767000Y-96393000D03*
%TD*%
D10*
%TO.C,R144*%
X170203500Y-70674000D03*
X168378500Y-70674000D03*
%TD*%
D15*
%TO.C,C104*%
X185171000Y-39813000D03*
X187071000Y-39813000D03*
%TD*%
D13*
%TO.C,C107*%
X177561000Y-84145000D03*
X177561000Y-82245000D03*
%TD*%
D19*
%TO.C,D101*%
X243078000Y-97154000D03*
X243078000Y-93854000D03*
%TD*%
D11*
%TO.C,R157*%
X175656000Y-88275000D03*
X177481000Y-88275000D03*
%TD*%
D17*
%TO.C,C118*%
X143825000Y-61214000D03*
X141925000Y-61214000D03*
%TD*%
D11*
%TO.C,R117*%
X53721000Y-30988000D03*
X55546000Y-30988000D03*
%TD*%
D10*
%TO.C,R107*%
X233424100Y-108254800D03*
X231599100Y-108254800D03*
%TD*%
D11*
%TO.C,R125*%
X242927500Y-60452000D03*
X244752500Y-60452000D03*
%TD*%
%TO.C,R116*%
X43029500Y-34417000D03*
X44854500Y-34417000D03*
%TD*%
D12*
%TO.C,IC112*%
X131572000Y-75751000D03*
X132842000Y-75751000D03*
X134112000Y-75751000D03*
X135382000Y-75751000D03*
X136652000Y-75751000D03*
X137922000Y-75751000D03*
X139192000Y-75751000D03*
X139192000Y-70801000D03*
X137922000Y-70801000D03*
X136652000Y-70801000D03*
X135382000Y-70801000D03*
X134112000Y-70801000D03*
X132842000Y-70801000D03*
X131572000Y-70801000D03*
%TD*%
D11*
%TO.C,R156*%
X80494500Y-65786000D03*
X82319500Y-65786000D03*
%TD*%
D13*
%TO.C,C119*%
X114784500Y-58289000D03*
X114784500Y-56389000D03*
%TD*%
D10*
%TO.C,R114*%
X59078500Y-34417000D03*
X57253500Y-34417000D03*
%TD*%
D11*
%TO.C,R110*%
X161774500Y-36195000D03*
X163599500Y-36195000D03*
%TD*%
%TO.C,R113*%
X235254800Y-104749600D03*
X237079800Y-104749600D03*
%TD*%
D20*
%TO.C,C129*%
X257556000Y-94787000D03*
X257556000Y-96687000D03*
%TD*%
D13*
%TO.C,C128*%
X71247000Y-103951000D03*
X71247000Y-102051000D03*
%TD*%
D11*
%TO.C,R151*%
X170942000Y-86233000D03*
X172767000Y-86233000D03*
%TD*%
D13*
%TO.C,C109*%
X177561000Y-94051000D03*
X177561000Y-92151000D03*
%TD*%
D11*
%TO.C,R140*%
X218647000Y-40005000D03*
X220472000Y-40005000D03*
%TD*%
D13*
%TO.C,C111*%
X177561000Y-104084000D03*
X177561000Y-102184000D03*
%TD*%
M02*
