M48
; DRILL file {KiCad (6.0.0)} date Sat Dec  3 19:26:24 2022
; FORMAT={-:-/ absolute / inch / decimal}
; #@! TF.CreationDate,2022-12-03T19:26:24+00:00
; #@! TF.GenerationSoftware,Kicad,Pcbnew,(6.0.0)
; #@! TF.FileFunction,Plated,1,2,PTH
FMAT,2
INCH
; #@! TA.AperFunction,Plated,PTH,ViaDrill
T1C0.0157
; #@! TA.AperFunction,Plated,PTH,ComponentDrill
T2C0.0295
; #@! TA.AperFunction,Plated,PTH,ComponentDrill
T3C0.0315
; #@! TA.AperFunction,Plated,PTH,ComponentDrill
T4C0.0394
; #@! TA.AperFunction,Plated,PTH,ComponentDrill
T5C0.0512
; #@! TA.AperFunction,Plated,PTH,ComponentDrill
T6C0.0610
; #@! TA.AperFunction,Plated,PTH,ComponentDrill
T7C0.1063
; #@! TA.AperFunction,Plated,PTH,ComponentDrill
T8C0.1260
%
G90
G05
T1
X0.638Y-3.706
X0.654Y-3.812
X0.7635Y-3.3583
X0.8105Y-3.3883
X0.8174Y-3.012
X0.8259Y-2.7616
X0.828Y-2.6739
X0.8498Y-2.812
X0.8882Y-2.1665
X0.8955Y-2.2167
X0.9199Y-2.852
X0.9305Y-2.24
X0.9563Y-3.336
X0.9589Y-2.6429
X0.9985Y-2.3817
X1.0055Y-2.1656
X1.058Y-3.64
X1.0703Y-2.612
X1.074Y-3.714
X1.0789Y-3.5561
X1.1256Y-2.2463
X1.134Y-2.6241
X1.1531Y-3.8688
X1.2207Y-3.9302
X1.2644Y-2.0784
X1.2675Y-2.3519
X1.3217Y-2.019
X1.3406Y-2.0786
X1.354Y-1.61
X1.3605Y-2.7623
X1.3984Y-1.8297
X1.416Y-1.14
X1.478Y-1.4069
X1.5406Y-2.0354
X1.5429Y-2.0786
X1.545Y-3.3124
X1.5701Y-3.7512
X1.5864Y-3.271
X1.615Y-3.8449
X1.6242Y-3.7025
X1.6616Y-4.0781
X1.6759Y-3.8642
X1.8058Y-3.1006
X1.81Y-1.5336
X1.8406Y-3.8449
X1.8685Y-2.5133
X1.8866Y-3.8625
X1.9099Y-3.5438
X1.9425Y-3.6254
X1.9473Y-2.7756
X2.0144Y-1.264
X2.0653Y-1.3035
X2.0859Y-2.1738
X2.1129Y-2.0486
X2.1524Y-4.15
X2.1547Y-2.0659
X2.1864Y-3.7371
X2.1888Y-4.2119
X2.1967Y-2.2109
X2.2064Y-2.0779
X2.2343Y-3.9172
X2.28Y-3.8307
X2.2905Y-1.3146
X2.3757Y-2.9083
X2.382Y-1.142
X2.405Y-3.8994
X2.4212Y-2.905
X2.493Y-3.8925
X2.5408Y-3.2301
X2.6108Y-2.0185
X2.6225Y-2.9979
X2.6479Y-2.6277
X2.6547Y-2.1668
X2.6843Y-4.3155
X2.6888Y-2.9047
X2.7158Y-3.9383
X2.7215Y-4.1504
X2.7371Y-3.0521
X2.8119Y-3.7915
X2.8677Y-2.1809
X2.8817Y-3.421
X2.9776Y-4.2525
X3.0172Y-4.0848
X3.0417Y-2.6684
X3.0546Y-4.2733
X3.0649Y-2.2268
X3.103Y-1.9507
X3.1062Y-4.0694
X3.1205Y-2.5038
X3.1213Y-3.8029
X3.1314Y-3.86
X3.1607Y-3.8057
X3.1633Y-3.8843
X3.1815Y-2.1809
X3.2546Y-3.0048
X3.2825Y-2.2268
X3.2924Y-2.0498
X3.3078Y-3.2465
X3.3305Y-2.7518
X3.34Y-3.0704
X3.3407Y-3.1732
X3.3595Y-2.7228
X3.3962Y-1.3435
X3.4167Y-2.3593
X3.4569Y-2.0659
X3.4595Y-3.2764
X3.4684Y-4.0586
X3.5242Y-4.0391
X3.5723Y-2.3639
X3.5852Y-3.8432
X3.6131Y-2.1872
X3.6135Y-2.3632
X3.6447Y-2.5218
X3.6744Y-2.4469
X3.7202Y-3.8401
X3.7226Y-2.2158
X3.7299Y-1.4519
X3.7459Y-3.8842
X3.8Y-4.0799
X3.8208Y-3.6986
X3.827Y-4.2939
X3.8607Y-2.3818
X3.8813Y-1.5929
X3.8935Y-4.3245
X3.8973Y-4.0506
X3.9188Y-2.5403
X3.9272Y-3.5374
X3.9381Y-4.194
X3.9631Y-3.838
X3.9709Y-1.6011
X3.9731Y-3.6936
X3.9797Y-4.1934
X3.9814Y-1.9424
X4.024Y-1.8915
X4.0425Y-2.5191
X4.0622Y-1.2924
X4.0872Y-2.1872
X4.0949Y-2.1039
X4.1198Y-1.4707
X4.13Y-2.5635
X4.1311Y-1.9641
X4.146Y-1.4131
X4.1464Y-3.2242
X4.147Y-2.7632
X4.1638Y-2.959
X4.1903Y-2.2158
X4.1941Y-1.4205
X4.2143Y-2.6115
X4.225Y-4.0851
X4.2297Y-3.2242
X4.232Y-1.4408
X4.2415Y-2.7855
X4.2541Y-3.3969
X4.2637Y-2.0018
X4.288Y-4.0797
X4.2886Y-4.2052
X4.323Y-1.7453
X4.3497Y-3.8446
X4.35Y-3.885
X4.3694Y-4.2324
X4.3892Y-2.6747
X4.3934Y-3.8845
X4.3988Y-1.809
X4.4Y-4.0805
X4.4095Y-2.1696
X4.4301Y-1.9228
X4.4358Y-3.5313
X4.4386Y-2.7855
X4.4419Y-2.7158
X4.4648Y-2.5803
X4.4736Y-1.5957
X4.4817Y-2.694
X4.5114Y-3.865
X4.5242Y-1.9328
X4.5326Y-1.7867
X4.5402Y-2.4484
X4.5403Y-3.9484
X4.541Y-1.618
X4.5485Y-2.0306
X4.5502Y-2.0704
X4.5531Y-1.906
X4.5542Y-2.1334
X4.5609Y-3.7308
X4.5748Y-2.7749
X4.58Y-4.1135
X4.6024Y-3.1006
X4.6145Y-2.7749
X4.6164Y-3.1732
X4.6365Y-3.7136
X4.6389Y-2.5834
X4.6435Y-2.1019
X4.6449Y-3.8364
X4.6466Y-1.4993
X4.6622Y-1.9453
X4.6695Y-4.1426
X4.69Y-2.6764
X4.728Y-3.1302
X4.7323Y-2.7279
X4.7358Y-3.7475
X4.76Y-4.0791
X4.7777Y-1.8693
X4.8237Y-2.4315
X4.8698Y-2.0599
X4.875Y-1.9374
X4.9113Y-2.6162
X4.9185Y-1.9615
X4.9198Y-2.4119
X4.9388Y-2.696
X4.9699Y-4.3323
X5.0057Y-3.885
X5.0093Y-3.8432
X5.0099Y-1.8522
X5.0258Y-1.775
X5.0289Y-2.2192
X5.0304Y-2.054
X5.0576Y-4.0457
X5.0663Y-1.7704
X5.0705Y-2.5627
X5.0824Y-2.1334
X5.0934Y-2.997
X5.0977Y-3.7499
X5.0977Y-3.8717
X5.1035Y-3.9873
X5.1289Y-1.4622
X5.1411Y-2.4544
X5.1489Y-1.5971
X5.1614Y-3.7353
X5.1708Y-2.8757
X5.1945Y-3.7127
X5.1973Y-2.4952
X5.2023Y-4.1282
X5.2196Y-3.8992
X5.2307Y-2.4366
X5.259Y-2.4843
X5.2602Y-3.7701
X5.2722Y-3.0451
X5.2739Y-3.6616
X5.28Y-4.0923
X5.2813Y-4.0524
X5.3046Y-2.0094
X5.3092Y-2.2119
X5.3212Y-1.4622
X5.322Y-3.294
X5.3265Y-4.2136
X5.33Y-3.0448
X5.3308Y-3.5794
X5.34Y-3.8268
X5.3433Y-2.1294
X5.3569Y-3.8656
X5.3864Y-2.5034
X5.4Y-3.6413
X5.4036Y-2.9256
X5.428Y-4.2195
X5.4309Y-1.9623
X5.4347Y-3.7785
X5.4398Y-2.5601
X5.4863Y-2.1657
X5.499Y-3.839
X5.5047Y-3.0394
X5.5052Y-2.6597
X5.51Y-4.2055
X5.5124Y-2.3528
X5.517Y-2.1259
X5.5474Y-3.6776
X5.5556Y-2.7335
X5.5792Y-2.7659
X5.6102Y-3.6151
X5.6315Y-4.2895
X5.6804Y-2.9455
X5.6853Y-3.5794
X5.6969Y-2.5893
X5.6982Y-2.7973
X5.7132Y-3.0768
X5.7135Y-3.4389
X5.7179Y-2.9022
X5.7196Y-4.2704
X5.753Y-2.7687
X5.7635Y-4.2692
X5.775Y-2.8863
X5.7854Y-3.1356
X5.8264Y-3.9477
X5.8321Y-2.8977
X5.8364Y-4.2523
X5.8571Y-2.9894
X5.8605Y-2.95
X5.8613Y-2.7687
X5.8627Y-2.6012
X5.8913Y-2.6306
X5.9004Y-2.9519
X5.9119Y-3.3133
X5.9321Y-1.6042
X5.985Y-1.3613
X5.985Y-3.9216
X6.0076Y-2.9366
X6.0086Y-2.3295
X6.0177Y-3.7432
X6.0253Y-2.7908
X6.0373Y-3.8091
X6.0491Y-3.89
X6.0539Y-1.1588
X6.0605Y-4.0813
X6.0709Y-2.5937
X6.0822Y-1.13
X6.1072Y-3.767
X6.1122Y-3.8112
X6.1146Y-1.3035
X6.1498Y-2.9731
X6.1597Y-3.9648
X6.1716Y-3.5927
X6.2013Y-3.5382
X6.2235Y-3.9321
X6.2412Y-1.3545
X6.2509Y-3.482
X6.2606Y-3.1243
X6.2651Y-4.0967
X6.2765Y-3.854
X6.2794Y-1.2858
X6.2914Y-2.8663
X6.3148Y-2.1094
X6.3358Y-1.5482
X6.3903Y-1.8345
X6.3992Y-1.2503
X6.4024Y-2.9487
X6.4098Y-2.7044
X6.4203Y-2.2119
X6.432Y-3.4178
X6.4364Y-2.7977
X6.458Y-3.4976
X6.4599Y-3.3898
X6.4623Y-1.6398
X6.4658Y-2.6858
X6.5128Y-1.2611
X6.5134Y-1.8553
X6.5844Y-1.5779
X6.5963Y-1.2775
X6.5963Y-3.7911
X6.6205Y-3.295
X6.6341Y-3.6817
X6.6415Y-3.5148
X6.6417Y-1.217
X6.644Y-2.5569
X6.6447Y-1.2854
X6.6582Y-2.6148
X6.6633Y-2.8741
X6.6643Y-3.6068
X6.6646Y-3.7099
X6.6822Y-2.6744
X6.684Y-3.4947
X6.6861Y-3.7454
X6.6937Y-3.1643
X6.7218Y-1.2163
X6.7657Y-1.5542
X6.7692Y-1.6154
X6.8215Y-2.5934
X6.8218Y-2.7794
X6.8656Y-1.6137
X6.8699Y-3.4805
X6.8804Y-1.7337
X6.9072Y-3.5294
X6.9634Y-2.6828
X6.9676Y-2.776
X7.0285Y-1.7271
X7.0444Y-1.8197
X7.0497Y-3.6961
X7.0552Y-2.3875
X7.0565Y-3.6026
X7.0616Y-3.264
X7.0836Y-2.6155
X7.1044Y-3.2366
X7.1207Y-2.3722
X7.2068Y-2.3512
X7.225Y-1.9337
X7.3153Y-2.3502
X7.3235Y-2.8741
X7.3271Y-1.6518
X7.3501Y-2.9352
X7.3795Y-2.816
X7.3815Y-1.7858
X7.4685Y-1.8187
X7.4929Y-2.8288
X7.5506Y-4.0285
X7.5543Y-2.4205
X7.5699Y-1.8988
X7.6232Y-3.177
X7.6258Y-1.7556
X7.6568Y-2.9638
X7.6894Y-1.8926
X7.699Y-4.1312
X7.7771Y-2.8347
X7.806Y-4.2853
X7.8343Y-4.0372
X7.9096Y-4.2717
X7.9353Y-2.9572
X7.9713Y-2.4551
X7.9809Y-2.1107
X7.9923Y-2.0218
X8.0145Y-1.7381
X8.0183Y-3.8653
X8.0186Y-4.0774
X8.0267Y-2.4373
X8.027Y-3.5047
X8.0328Y-3.6827
X8.0464Y-3.0693
X8.0665Y-2.7852
X8.1183Y-2.2208
X8.1426Y-1.7928
X8.1606Y-2.3841
X8.1741Y-3.2686
X8.1747Y-3.6524
X8.256Y-2.1447
X8.2611Y-2.557
X8.2849Y-1.9374
X8.3097Y-2.3338
X8.3109Y-2.5808
X8.311Y-2.5071
X8.3193Y-2.1271
X8.3236Y-2.0415
X8.3555Y-2.4876
X8.4141Y-1.2934
X8.4141Y-1.4279
X8.472Y-2.0415
X8.4971Y-2.3856
X8.6043Y-2.3974
X8.6775Y-1.7463
X8.7919Y-2.1232
X8.8324Y-3.5628
X8.8654Y-2.58
X8.9123Y-2.2174
X9.0289Y-2.9518
X9.053Y-4.2416
X9.1349Y-2.3284
X9.1599Y-4.1668
X9.2328Y-4.0228
X9.233Y-4.0756
X9.3079Y-3.613
X9.3311Y-4.0712
X9.3559Y-2.4315
X9.4541Y-2.2036
X9.4569Y-2.3381
X9.458Y-4.144
X9.6384Y-2.1979
X9.7165Y-3.8053
X9.7729Y-3.7737
X9.78Y-4.06
X9.7868Y-3.5724
X9.8043Y-3.8039
X9.862Y-4.112
X9.9113Y-3.8052
X10.035Y-4.1505
X10.0637Y-3.9215
T2
X9.145Y-3.6842
X9.195Y-3.6842
X9.245Y-3.6842
X9.935Y-2.5992
X9.985Y-2.5992
X10.035Y-2.5992
T3
X0.9595Y-1.6952
X0.9595Y-2.2952
X0.9754Y-2.8702
X0.9754Y-3.4702
X1.0595Y-1.6952
X1.0595Y-2.2952
X1.0754Y-2.8702
X1.0754Y-3.4702
X1.1595Y-1.6952
X1.1595Y-2.2952
X1.1754Y-2.8702
X1.1754Y-3.4702
X1.2595Y-1.6952
X1.2595Y-2.2952
X1.2754Y-2.8702
X1.2754Y-3.4702
X1.3595Y-1.6952
X1.3595Y-2.2952
X1.3754Y-2.8702
X1.3754Y-3.4702
X1.4595Y-1.6952
X1.4595Y-2.2952
X1.4754Y-2.8702
X1.4754Y-3.4702
X1.5591Y-2.4574
X1.5595Y-1.6952
X1.5595Y-2.2952
X1.5754Y-2.8702
X1.5754Y-3.4702
X1.6591Y-2.4574
X1.6595Y-1.6952
X1.6595Y-2.2952
X1.6754Y-2.8702
X1.6754Y-3.4702
X1.7591Y-2.4574
X1.7595Y-1.6952
X1.7595Y-2.2952
X1.7754Y-2.8702
X1.7754Y-3.4702
X1.8591Y-2.4574
X1.8595Y-1.6952
X1.8595Y-2.2952
X1.8754Y-2.8702
X1.8754Y-3.4702
X1.9591Y-2.4574
X1.9595Y-1.6952
X1.9595Y-2.2952
X1.9754Y-2.8702
X1.9754Y-3.4702
X2.0591Y-2.4574
X2.0595Y-1.6952
X2.0595Y-2.2952
X2.0754Y-2.8702
X2.0754Y-3.4702
X2.1591Y-2.4574
X2.1595Y-1.6952
X2.1595Y-2.2952
X2.1754Y-2.8702
X2.1754Y-3.4702
X2.2591Y-2.4574
X2.2595Y-1.6952
X2.2595Y-2.2952
X2.2754Y-2.8702
X2.2754Y-3.4702
X2.3591Y-2.4574
X2.5143Y-1.6902
X2.5143Y-2.2902
X2.6143Y-1.6902
X2.6143Y-2.2902
X2.6452Y-2.8702
X2.6452Y-3.4702
X2.7143Y-1.6902
X2.7143Y-2.2902
X2.7452Y-2.8702
X2.7452Y-3.4702
X2.8143Y-1.6902
X2.8143Y-2.2902
X2.8452Y-2.8702
X2.8452Y-3.4702
X2.9143Y-1.6902
X2.9143Y-2.2902
X2.9452Y-2.8702
X2.9452Y-3.4702
X3.0143Y-1.6902
X3.0143Y-2.2902
X3.0452Y-2.8702
X3.0452Y-3.4702
X3.1143Y-1.6902
X3.1143Y-2.2902
X3.1452Y-2.8702
X3.1452Y-3.4702
X3.2143Y-1.6902
X3.2143Y-2.2902
X3.2452Y-2.8702
X3.2452Y-3.4702
X3.3143Y-1.6902
X3.3143Y-2.2902
X3.3452Y-2.8702
X3.3452Y-3.4702
X3.4143Y-1.6902
X3.4143Y-2.2902
X3.4452Y-2.8702
X3.4452Y-3.4702
X3.5143Y-1.6902
X3.5143Y-2.2902
X3.5452Y-2.8702
X3.5452Y-3.4702
X3.6143Y-1.6902
X3.6143Y-2.2902
X3.6452Y-2.8702
X3.6452Y-3.4702
X3.7143Y-1.6902
X3.7143Y-2.2902
X3.7452Y-2.8702
X3.7452Y-3.4702
X3.8143Y-1.6902
X3.8143Y-2.2902
X3.8452Y-2.8702
X3.8452Y-3.4702
X3.9143Y-1.6902
X3.9143Y-2.2902
X3.9452Y-2.8702
X3.9452Y-3.4702
X4.0143Y-1.6902
X4.0143Y-2.2902
X4.0452Y-2.8702
X4.0452Y-3.4702
X4.1143Y-1.6902
X4.1143Y-2.2902
X4.1452Y-2.8702
X4.1452Y-3.4702
X4.2143Y-1.6902
X4.2143Y-2.2902
X4.2452Y-2.8702
X4.2452Y-3.4702
X4.3143Y-1.6902
X4.3143Y-2.2902
X4.3452Y-2.8702
X4.3452Y-3.4702
X4.4143Y-1.6902
X4.4143Y-2.2902
X4.4452Y-2.8702
X4.4452Y-3.4702
X4.5452Y-2.8702
X4.5452Y-3.4702
X4.6643Y-1.6952
X4.6643Y-2.2952
X4.7643Y-1.6952
X4.7643Y-2.2952
X4.8643Y-1.6952
X4.8643Y-2.2952
X4.9643Y-1.6952
X4.9643Y-2.2952
X5.0643Y-1.6952
X5.0643Y-2.2952
X5.1643Y-1.6952
X5.1643Y-2.2952
X5.2643Y-1.6952
X5.2643Y-2.2952
X5.3643Y-1.6952
X5.3643Y-2.2952
X5.4643Y-1.6952
X5.4643Y-2.2952
X5.5643Y-1.6952
X5.5643Y-2.2952
X5.6643Y-1.6952
X5.6643Y-2.2952
X5.7643Y-1.6952
X5.7643Y-2.2952
X5.8643Y-1.6952
X5.8643Y-2.2952
X5.9643Y-1.6952
X5.9643Y-2.2952
X6.0643Y-1.6952
X6.0643Y-2.2952
X6.1643Y-1.6952
X6.1643Y-2.2952
X6.2643Y-1.6952
X6.2643Y-2.2952
X6.3643Y-1.6952
X6.3643Y-2.2952
X6.4643Y-1.6952
X6.4643Y-2.2952
X6.5643Y-1.6952
X6.5643Y-2.2952
X6.9702Y-1.6902
X6.9702Y-2.2902
X7.0702Y-1.6902
X7.0702Y-2.2902
X7.1506Y-2.725
X7.1506Y-3.025
X7.1506Y-3.1196
X7.1506Y-3.4196
X7.1506Y-3.515
X7.1506Y-3.815
X7.1506Y-3.9096
X7.1506Y-4.2096
X7.1702Y-1.6902
X7.1702Y-2.2902
X7.2506Y-2.725
X7.2506Y-3.025
X7.2506Y-3.1196
X7.2506Y-3.4196
X7.2506Y-3.515
X7.2506Y-3.815
X7.2506Y-3.9096
X7.2506Y-4.2096
X7.2702Y-1.6902
X7.2702Y-2.2902
X7.3506Y-2.725
X7.3506Y-3.025
X7.3506Y-3.1196
X7.3506Y-3.4196
X7.3506Y-3.515
X7.3506Y-3.815
X7.3506Y-3.9096
X7.3506Y-4.2096
X7.3702Y-1.6902
X7.3702Y-2.2902
X7.4506Y-2.725
X7.4506Y-3.025
X7.4506Y-3.1196
X7.4506Y-3.4196
X7.4506Y-3.515
X7.4506Y-3.815
X7.4506Y-3.9096
X7.4506Y-4.2096
X7.4702Y-1.6902
X7.4702Y-2.2902
X7.5506Y-2.725
X7.5506Y-3.025
X7.5506Y-3.1196
X7.5506Y-3.4196
X7.5506Y-3.515
X7.5506Y-3.815
X7.5506Y-3.9096
X7.5506Y-4.2096
X7.5702Y-1.6902
X7.5702Y-2.2902
X7.6506Y-2.725
X7.6506Y-3.025
X7.6506Y-3.1196
X7.6506Y-3.4196
X7.6506Y-3.515
X7.6506Y-3.815
X7.6506Y-3.9096
X7.6506Y-4.2096
X7.6702Y-1.6902
X7.6702Y-2.2902
X7.7506Y-2.725
X7.7506Y-3.025
X7.7506Y-3.1196
X7.7506Y-3.4196
X7.7506Y-3.515
X7.7506Y-3.815
X7.7506Y-3.9096
X7.7506Y-4.2096
X7.7702Y-1.6902
X7.7702Y-2.2902
X7.8506Y-2.725
X7.8506Y-3.025
X7.8506Y-3.1196
X7.8506Y-3.4196
X7.8506Y-3.515
X7.8506Y-3.815
X7.8506Y-3.9096
X7.8506Y-4.2096
X7.8702Y-1.6902
X7.8702Y-2.2902
X7.9702Y-1.6902
X7.9702Y-2.2902
X8.0702Y-1.6902
X8.0702Y-2.2902
X8.1012Y-2.725
X8.1012Y-3.025
X8.1012Y-3.1196
X8.1012Y-3.4196
X8.1012Y-3.515
X8.1012Y-3.815
X8.1012Y-3.9096
X8.1012Y-4.2096
X8.1702Y-1.6902
X8.1702Y-2.2902
X8.2012Y-2.725
X8.2012Y-3.025
X8.2012Y-3.1196
X8.2012Y-3.4196
X8.2012Y-3.515
X8.2012Y-3.815
X8.2012Y-3.9096
X8.2012Y-4.2096
X8.2702Y-1.6902
X8.2702Y-2.2902
X8.3012Y-2.725
X8.3012Y-3.025
X8.3012Y-3.1196
X8.3012Y-3.4196
X8.3012Y-3.515
X8.3012Y-3.815
X8.3012Y-3.9096
X8.3012Y-4.2096
X8.3702Y-1.6902
X8.3702Y-2.2902
X8.4012Y-2.725
X8.4012Y-3.025
X8.4012Y-3.1196
X8.4012Y-3.4196
X8.4012Y-3.515
X8.4012Y-3.815
X8.4012Y-3.9096
X8.4012Y-4.2096
X8.4702Y-1.6902
X8.4702Y-2.2902
X8.5012Y-2.725
X8.5012Y-3.025
X8.5012Y-3.1196
X8.5012Y-3.4196
X8.5012Y-3.515
X8.5012Y-3.815
X8.5012Y-3.9096
X8.5012Y-4.2096
X8.5702Y-1.6902
X8.5702Y-2.2902
X8.6012Y-2.725
X8.6012Y-3.025
X8.6012Y-3.1196
X8.6012Y-3.4196
X8.6012Y-3.515
X8.6012Y-3.815
X8.6012Y-3.9096
X8.6012Y-4.2096
X8.6702Y-1.6902
X8.6702Y-2.2902
X8.7012Y-2.725
X8.7012Y-3.025
X8.7012Y-3.1196
X8.7012Y-3.4196
X8.7012Y-3.515
X8.7012Y-3.815
X8.7012Y-3.9096
X8.7012Y-4.2096
X8.7702Y-1.6902
X8.7702Y-2.2902
X8.8012Y-2.725
X8.8012Y-3.025
X8.8012Y-3.1196
X8.8012Y-3.4196
X8.8012Y-3.515
X8.8012Y-3.815
X8.8012Y-3.9096
X8.8012Y-4.2096
X8.8702Y-1.6902
X8.8702Y-2.2902
X9.4085Y-3.285
X9.6007Y-3.285
X9.9749Y-1.8887
X10.0734Y-1.8887
T4
X0.702Y-1.312
X0.702Y-1.412
X0.702Y-1.512
X0.702Y-1.712
X0.702Y-1.812
X0.702Y-1.912
X0.702Y-2.012
X0.702Y-2.112
X0.702Y-2.212
X0.702Y-2.312
X0.702Y-2.412
X0.702Y-2.512
X0.702Y-2.612
X0.702Y-2.712
X0.702Y-2.812
X0.702Y-2.912
X0.702Y-3.012
X0.702Y-3.112
X0.702Y-3.212
X0.702Y-3.312
X0.702Y-3.412
X0.702Y-3.512
X0.702Y-3.612
X1.2235Y-3.9854
X1.278Y-4.0972
X1.3326Y-3.9854
X1.3871Y-4.0972
X1.4416Y-3.9854
X1.4961Y-4.0972
X1.5507Y-3.9854
X1.6052Y-4.0972
X1.6597Y-3.9854
X3.5102Y-1.2252
X3.5102Y-1.3252
X3.6102Y-1.2252
X3.6102Y-1.3252
X3.7102Y-1.2252
X3.7102Y-1.3252
X3.8102Y-1.2252
X3.8102Y-1.3252
X3.9102Y-1.2252
X3.9102Y-1.3252
X4.0102Y-1.2252
X4.0102Y-1.3252
X4.1102Y-1.2252
X4.1102Y-1.3252
X4.2102Y-1.2252
X4.2102Y-1.3252
X4.3102Y-1.2252
X4.3102Y-1.3252
X4.4102Y-1.2252
X4.4102Y-1.3252
X4.5102Y-1.2252
X4.5102Y-1.3252
X4.6102Y-1.2252
X4.6102Y-1.3252
X4.7102Y-1.2252
X4.7102Y-1.3252
X4.8102Y-1.2252
X4.8102Y-1.3252
X4.9102Y-1.2252
X4.9102Y-1.3252
X5.0102Y-1.2252
X5.0102Y-1.3252
X5.095Y-3.2924
X5.095Y-3.3924
X5.1102Y-1.2252
X5.1102Y-1.3252
X5.2102Y-1.2252
X5.2102Y-1.3252
X5.24Y-3.2926
X5.24Y-3.3926
X5.3102Y-1.2252
X5.3102Y-1.3252
X5.385Y-3.2924
X5.385Y-3.3924
X5.4102Y-1.2252
X5.4102Y-1.3252
X5.5102Y-1.2252
X5.5102Y-1.3252
X5.53Y-3.2926
X5.53Y-3.3926
X5.6102Y-1.2252
X5.6102Y-1.3252
X5.7102Y-1.2252
X5.7102Y-1.3252
X5.8102Y-1.2252
X5.8102Y-1.3252
X5.9102Y-1.2252
X5.9102Y-1.3252
X9.3926Y-4.24
X9.4926Y-4.24
X9.5926Y-4.24
X9.6926Y-4.24
X9.7926Y-4.24
X9.8926Y-4.24
X9.9926Y-4.24
X10.0926Y-4.24
T5
X9.068Y-1.5856
X9.1664Y-1.684
X9.3633Y-1.5856
X9.3633Y-1.7824
X9.5601Y-1.684
X9.6586Y-1.5856
T6
X9.1633Y-1.1937
X9.2649Y-1.1919
X9.3633Y-1.1937
X9.4617Y-1.1919
X9.557Y-1.1937
T7
X0.71Y-4.244
X2.472Y-3.562
X3.14Y-1.25
X4.85Y-3.25
X8.82Y-1.25
X9.626Y-4.052
X9.99Y-2.858
T8
X0.9495Y-4.0413
X1.9337Y-4.0413
T3
G00X0.9171Y-1.4351
M15
G01X0.9171Y-1.4626
M16
G05
G00X1.0156Y-1.4351
M15
G01X1.0156Y-1.4626
M16
G05
G00X1.1278Y-1.252
M15
G01X1.1002Y-1.252
M16
G05
G00X1.2124Y-1.4351
M15
G01X1.2124Y-1.4626
M16
G05
G00X1.3109Y-1.4351
M15
G01X1.3109Y-1.4626
M16
G05
T4
G00X9.87Y-1.4724
M15
G01X9.87Y-1.5512
M16
G05
G00X10.0944Y-1.3937
M15
G01X10.0157Y-1.3937
M16
G05
G00X10.0944Y-1.6299
M15
G01X10.0157Y-1.6299
M16
G05
T0
M30
