%TF.GenerationSoftware,KiCad,Pcbnew,(6.0.0)*%
%TF.CreationDate,2022-12-03T19:26:30+00:00*%
%TF.ProjectId,CPC464-2MINI,43504334-3634-42d3-924d-494e492e6b69,rev?*%
%TF.SameCoordinates,Original*%
%TF.FileFunction,Soldermask,Top*%
%TF.FilePolarity,Negative*%
%FSLAX46Y46*%
G04 Gerber Fmt 4.6, Leading zero omitted, Abs format (unit mm)*
G04 Created by KiCad (PCBNEW (6.0.0)) date 2022-12-03 19:26:30*
%MOMM*%
%LPD*%
G01*
G04 APERTURE LIST*
G04 Aperture macros list*
%AMRoundRect*
0 Rectangle with rounded corners*
0 $1 Rounding radius*
0 $2 $3 $4 $5 $6 $7 $8 $9 X,Y pos of 4 corners*
0 Add a 4 corners polygon primitive as box body*
4,1,4,$2,$3,$4,$5,$6,$7,$8,$9,$2,$3,0*
0 Add four circle primitives for the rounded corners*
1,1,$1+$1,$2,$3*
1,1,$1+$1,$4,$5*
1,1,$1+$1,$6,$7*
1,1,$1+$1,$8,$9*
0 Add four rect primitives between the rounded corners*
20,1,$1+$1,$2,$3,$4,$5,0*
20,1,$1+$1,$4,$5,$6,$7,0*
20,1,$1+$1,$6,$7,$8,$9,0*
20,1,$1+$1,$8,$9,$2,$3,0*%
G04 Aperture macros list end*
%ADD10RoundRect,0.250000X0.262500X0.450000X-0.262500X0.450000X-0.262500X-0.450000X0.262500X-0.450000X0*%
%ADD11RoundRect,0.250000X-0.262500X-0.450000X0.262500X-0.450000X0.262500X0.450000X-0.262500X0.450000X0*%
%ADD12RoundRect,0.150000X0.150000X-0.825000X0.150000X0.825000X-0.150000X0.825000X-0.150000X-0.825000X0*%
%ADD13RoundRect,0.250000X0.475000X-0.250000X0.475000X0.250000X-0.475000X0.250000X-0.475000X-0.250000X0*%
%ADD14R,1.050000X1.500000*%
%ADD15O,1.050000X1.500000*%
%ADD16R,1.600000X1.600000*%
%ADD17O,1.600000X1.600000*%
%ADD18C,4.500000*%
%ADD19RoundRect,0.250000X-0.450000X0.262500X-0.450000X-0.262500X0.450000X-0.262500X0.450000X0.262500X0*%
%ADD20R,1.700000X1.700000*%
%ADD21O,1.700000X1.700000*%
%ADD22C,4.000000*%
%ADD23C,1.600000*%
%ADD24RoundRect,0.250000X-0.250000X-0.475000X0.250000X-0.475000X0.250000X0.475000X-0.250000X0.475000X0*%
%ADD25C,1.200000*%
%ADD26O,2.616000X1.308000*%
%ADD27O,1.308000X2.616000*%
%ADD28C,2.400000*%
%ADD29R,1.950000X1.950000*%
%ADD30C,1.950000*%
%ADD31C,2.150000*%
%ADD32RoundRect,0.150000X0.150000X-0.875000X0.150000X0.875000X-0.150000X0.875000X-0.150000X-0.875000X0*%
%ADD33C,1.500000*%
%ADD34RoundRect,0.250000X0.600000X-0.600000X0.600000X0.600000X-0.600000X0.600000X-0.600000X-0.600000X0*%
%ADD35C,1.700000*%
%ADD36RoundRect,0.250000X0.250000X0.475000X-0.250000X0.475000X-0.250000X-0.475000X0.250000X-0.475000X0*%
%ADD37RoundRect,0.250000X0.450000X-0.262500X0.450000X0.262500X-0.450000X0.262500X-0.450000X-0.262500X0*%
%ADD38R,1.200000X0.900000*%
%ADD39R,3.500000X3.500000*%
%ADD40RoundRect,0.750000X-1.000000X0.750000X-1.000000X-0.750000X1.000000X-0.750000X1.000000X0.750000X0*%
%ADD41RoundRect,0.875000X-0.875000X0.875000X-0.875000X-0.875000X0.875000X-0.875000X0.875000X0.875000X0*%
%ADD42RoundRect,0.250000X-0.475000X0.250000X-0.475000X-0.250000X0.475000X-0.250000X0.475000X0.250000X0*%
G04 APERTURE END LIST*
D10*
%TO.C,R121*%
X59102000Y-30988000D03*
X57277000Y-30988000D03*
%TD*%
D11*
%TO.C,R133*%
X235815500Y-57150000D03*
X237640500Y-57150000D03*
%TD*%
D12*
%TO.C,IC125*%
X246761000Y-98233000D03*
X248031000Y-98233000D03*
X249301000Y-98233000D03*
X250571000Y-98233000D03*
X251841000Y-98233000D03*
X253111000Y-98233000D03*
X254381000Y-98233000D03*
X254381000Y-93283000D03*
X253111000Y-93283000D03*
X251841000Y-93283000D03*
X250571000Y-93283000D03*
X249301000Y-93283000D03*
X248031000Y-93283000D03*
X246761000Y-93283000D03*
%TD*%
D11*
%TO.C,R104*%
X231728000Y-101219000D03*
X233553000Y-101219000D03*
%TD*%
D13*
%TO.C,C108*%
X227472000Y-83891000D03*
X227472000Y-81991000D03*
%TD*%
D14*
%TO.C,Q101*%
X232283000Y-93578000D03*
D15*
X233553000Y-93578000D03*
X234823000Y-93578000D03*
%TD*%
D13*
%TO.C,C105*%
X177561000Y-73985000D03*
X177561000Y-72085000D03*
%TD*%
D16*
%TO.C,IC118*%
X181625000Y-86858000D03*
D17*
X184165000Y-86858000D03*
X186705000Y-86858000D03*
X189245000Y-86858000D03*
X191785000Y-86858000D03*
X194325000Y-86858000D03*
X196865000Y-86858000D03*
X199405000Y-86858000D03*
X199405000Y-79238000D03*
X196865000Y-79238000D03*
X194325000Y-79238000D03*
X191785000Y-79238000D03*
X189245000Y-79238000D03*
X186705000Y-79238000D03*
X184165000Y-79238000D03*
X181625000Y-79238000D03*
%TD*%
D18*
%TO.C,H4*%
X244500400Y-102920800D03*
%TD*%
D11*
%TO.C,R105*%
X29718000Y-63308000D03*
X31543000Y-63308000D03*
%TD*%
D13*
%TO.C,C110*%
X227472000Y-94051000D03*
X227472000Y-92151000D03*
%TD*%
D12*
%TO.C,IC113*%
X135128000Y-105222000D03*
X136398000Y-105222000D03*
X137668000Y-105222000D03*
X138938000Y-105222000D03*
X140208000Y-105222000D03*
X141478000Y-105222000D03*
X142748000Y-105222000D03*
X144018000Y-105222000D03*
X144018000Y-100272000D03*
X142748000Y-100272000D03*
X141478000Y-100272000D03*
X140208000Y-100272000D03*
X138938000Y-100272000D03*
X137668000Y-100272000D03*
X136398000Y-100272000D03*
X135128000Y-100272000D03*
%TD*%
D19*
%TO.C,R155*%
X238506000Y-94718500D03*
X238506000Y-96543500D03*
%TD*%
D18*
%TO.C,H5*%
X253746000Y-72593200D03*
%TD*%
D13*
%TO.C,C121*%
X131699000Y-103570000D03*
X131699000Y-101670000D03*
%TD*%
D11*
%TO.C,R141*%
X222838000Y-40005000D03*
X224663000Y-40005000D03*
%TD*%
%TO.C,R131*%
X246483500Y-60452000D03*
X248308500Y-60452000D03*
%TD*%
D18*
%TO.C,H2*%
X224028000Y-31750000D03*
%TD*%
D11*
%TO.C,R126*%
X246483500Y-57150000D03*
X248308500Y-57150000D03*
%TD*%
D12*
%TO.C,IC110*%
X120904000Y-105222000D03*
X122174000Y-105222000D03*
X123444000Y-105222000D03*
X124714000Y-105222000D03*
X125984000Y-105222000D03*
X127254000Y-105222000D03*
X128524000Y-105222000D03*
X128524000Y-100272000D03*
X127254000Y-100272000D03*
X125984000Y-100272000D03*
X124714000Y-100272000D03*
X123444000Y-100272000D03*
X122174000Y-100272000D03*
X120904000Y-100272000D03*
%TD*%
D20*
%TO.C,CP001*%
X238571800Y-107696000D03*
D21*
X241111800Y-107696000D03*
X243651800Y-107696000D03*
X246191800Y-107696000D03*
X248731800Y-107696000D03*
X251271800Y-107696000D03*
X253811800Y-107696000D03*
X256351800Y-107696000D03*
%TD*%
D22*
%TO.C,J102*%
X49116800Y-102649300D03*
X24116800Y-102649300D03*
D16*
X31076800Y-101229300D03*
D23*
X33846800Y-101229300D03*
X36616800Y-101229300D03*
X39386800Y-101229300D03*
X42156800Y-101229300D03*
X32461800Y-104069300D03*
X35231800Y-104069300D03*
X38001800Y-104069300D03*
X40771800Y-104069300D03*
%TD*%
D14*
%TO.C,Q102*%
X252349000Y-66019000D03*
D15*
X253619000Y-66019000D03*
X254889000Y-66019000D03*
%TD*%
D24*
%TO.C,C134*%
X253558000Y-57150000D03*
X255458000Y-57150000D03*
%TD*%
D20*
%TO.C,LK1*%
X129413000Y-83628000D03*
D21*
X129413000Y-86168000D03*
%TD*%
D11*
%TO.C,R103*%
X104243500Y-68388000D03*
X106068500Y-68388000D03*
%TD*%
D24*
%TO.C,C131*%
X249113000Y-85471000D03*
X251013000Y-85471000D03*
%TD*%
D11*
%TO.C,R118*%
X50141500Y-34417000D03*
X51966500Y-34417000D03*
%TD*%
D13*
%TO.C,C106*%
X227472000Y-74112000D03*
X227472000Y-72212000D03*
%TD*%
D11*
%TO.C,R120*%
X39473500Y-34417000D03*
X41298500Y-34417000D03*
%TD*%
D16*
%TO.C,IC121*%
X205770000Y-76835000D03*
D17*
X208310000Y-76835000D03*
X210850000Y-76835000D03*
X213390000Y-76835000D03*
X215930000Y-76835000D03*
X218470000Y-76835000D03*
X221010000Y-76835000D03*
X223550000Y-76835000D03*
X223550000Y-69215000D03*
X221010000Y-69215000D03*
X218470000Y-69215000D03*
X215930000Y-69215000D03*
X213390000Y-69215000D03*
X210850000Y-69215000D03*
X208310000Y-69215000D03*
X205770000Y-69215000D03*
%TD*%
D25*
%TO.C,J103*%
X23295600Y-31800800D03*
X33295600Y-31800800D03*
X23295600Y-29300800D03*
X33295600Y-29300800D03*
X28295600Y-36800800D03*
D26*
X28295600Y-31800800D03*
D27*
X23295600Y-36800800D03*
X33295600Y-36800800D03*
X25795600Y-36800800D03*
X30795600Y-36800800D03*
%TD*%
D11*
%TO.C,R150*%
X170942000Y-84201000D03*
X172767000Y-84201000D03*
%TD*%
D13*
%TO.C,C117*%
X147193000Y-103697000D03*
X147193000Y-101797000D03*
%TD*%
D11*
%TO.C,R111*%
X247626500Y-89281000D03*
X249451500Y-89281000D03*
%TD*%
%TO.C,R136*%
X232259500Y-60452000D03*
X234084500Y-60452000D03*
%TD*%
%TO.C,R147*%
X170942000Y-90297000D03*
X172767000Y-90297000D03*
%TD*%
%TO.C,R153*%
X170942000Y-94361000D03*
X172767000Y-94361000D03*
%TD*%
D13*
%TO.C,C127*%
X86741000Y-103570000D03*
X86741000Y-101670000D03*
%TD*%
D16*
%TO.C,IC119*%
X181625000Y-96901000D03*
D17*
X184165000Y-96901000D03*
X186705000Y-96901000D03*
X189245000Y-96901000D03*
X191785000Y-96901000D03*
X194325000Y-96901000D03*
X196865000Y-96901000D03*
X199405000Y-96901000D03*
X199405000Y-89281000D03*
X196865000Y-89281000D03*
X194325000Y-89281000D03*
X191785000Y-89281000D03*
X189245000Y-89281000D03*
X186705000Y-89281000D03*
X184165000Y-89281000D03*
X181625000Y-89281000D03*
%TD*%
D11*
%TO.C,R115*%
X53697500Y-34417000D03*
X55522500Y-34417000D03*
%TD*%
D13*
%TO.C,C116*%
X142367000Y-74291000D03*
X142367000Y-72391000D03*
%TD*%
D11*
%TO.C,R143*%
X243816500Y-89281000D03*
X245641500Y-89281000D03*
%TD*%
%TO.C,R130*%
X235815500Y-60452000D03*
X237640500Y-60452000D03*
%TD*%
D24*
%TO.C,C135*%
X239311000Y-60452000D03*
X241211000Y-60452000D03*
%TD*%
D11*
%TO.C,R122*%
X46585500Y-34417000D03*
X48410500Y-34417000D03*
%TD*%
%TO.C,R137*%
X242927500Y-57150000D03*
X244752500Y-57150000D03*
%TD*%
%TO.C,R128*%
X250039500Y-57150000D03*
X251864500Y-57150000D03*
%TD*%
D24*
%TO.C,C133*%
X253558000Y-60452000D03*
X255458000Y-60452000D03*
%TD*%
D11*
%TO.C,R142*%
X165838500Y-36195000D03*
X167663500Y-36195000D03*
%TD*%
D20*
%TO.C,LK3*%
X136779000Y-83628000D03*
D21*
X136779000Y-86168000D03*
%TD*%
D16*
%TO.C,IC117*%
X181625000Y-76835000D03*
D17*
X184165000Y-76835000D03*
X186705000Y-76835000D03*
X189245000Y-76835000D03*
X191785000Y-76835000D03*
X194325000Y-76835000D03*
X196865000Y-76835000D03*
X199405000Y-76835000D03*
X199405000Y-69215000D03*
X196865000Y-69215000D03*
X194325000Y-69215000D03*
X191785000Y-69215000D03*
X189245000Y-69215000D03*
X186705000Y-69215000D03*
X184165000Y-69215000D03*
X181625000Y-69215000D03*
%TD*%
D20*
%TO.C,J105*%
X17830800Y-33324800D03*
D21*
X17830800Y-35864800D03*
X17830800Y-38404800D03*
%TD*%
D28*
%TO.C,J101*%
X245327500Y-35273200D03*
X230327500Y-35273200D03*
D29*
X230327500Y-40273200D03*
D30*
X232827500Y-42773200D03*
X237827500Y-40273200D03*
X242827500Y-42773200D03*
X245327500Y-40273200D03*
X237827500Y-45273200D03*
D31*
X237827500Y-30320200D03*
X240327500Y-30273200D03*
X235327500Y-30273200D03*
X232747500Y-30320200D03*
X242747500Y-30320200D03*
%TD*%
D16*
%TO.C,IC111*%
X118472500Y-58298000D03*
D17*
X121012500Y-58298000D03*
X123552500Y-58298000D03*
X126092500Y-58298000D03*
X128632500Y-58298000D03*
X131172500Y-58298000D03*
X133712500Y-58298000D03*
X136252500Y-58298000D03*
X138792500Y-58298000D03*
X141332500Y-58298000D03*
X143872500Y-58298000D03*
X146412500Y-58298000D03*
X148952500Y-58298000D03*
X151492500Y-58298000D03*
X154032500Y-58298000D03*
X156572500Y-58298000D03*
X159112500Y-58298000D03*
X161652500Y-58298000D03*
X164192500Y-58298000D03*
X166732500Y-58298000D03*
X166732500Y-43058000D03*
X164192500Y-43058000D03*
X161652500Y-43058000D03*
X159112500Y-43058000D03*
X156572500Y-43058000D03*
X154032500Y-43058000D03*
X151492500Y-43058000D03*
X148952500Y-43058000D03*
X146412500Y-43058000D03*
X143872500Y-43058000D03*
X141332500Y-43058000D03*
X138792500Y-43058000D03*
X136252500Y-43058000D03*
X133712500Y-43058000D03*
X131172500Y-43058000D03*
X128632500Y-43058000D03*
X126092500Y-43058000D03*
X123552500Y-43058000D03*
X121012500Y-43058000D03*
X118472500Y-43058000D03*
%TD*%
D32*
%TO.C,IC115*%
X150749000Y-102186000D03*
X152019000Y-102186000D03*
X153289000Y-102186000D03*
X154559000Y-102186000D03*
X155829000Y-102186000D03*
X157099000Y-102186000D03*
X158369000Y-102186000D03*
X159639000Y-102186000D03*
X160909000Y-102186000D03*
X162179000Y-102186000D03*
X162179000Y-92886000D03*
X160909000Y-92886000D03*
X159639000Y-92886000D03*
X158369000Y-92886000D03*
X157099000Y-92886000D03*
X155829000Y-92886000D03*
X154559000Y-92886000D03*
X153289000Y-92886000D03*
X152019000Y-92886000D03*
X150749000Y-92886000D03*
%TD*%
D33*
%TO.C,X101*%
X238977000Y-83439000D03*
X243857000Y-83439000D03*
%TD*%
D13*
%TO.C,C122*%
X117475000Y-103697000D03*
X117475000Y-101797000D03*
%TD*%
D11*
%TO.C,R119*%
X50165000Y-30988000D03*
X51990000Y-30988000D03*
%TD*%
%TO.C,R135*%
X239371500Y-57150000D03*
X241196500Y-57150000D03*
%TD*%
D34*
%TO.C,PL1*%
X89159000Y-33660000D03*
D35*
X89159000Y-31120000D03*
X91699000Y-33660000D03*
X91699000Y-31120000D03*
X94239000Y-33660000D03*
X94239000Y-31120000D03*
X96779000Y-33660000D03*
X96779000Y-31120000D03*
X99319000Y-33660000D03*
X99319000Y-31120000D03*
X101859000Y-33660000D03*
X101859000Y-31120000D03*
X104399000Y-33660000D03*
X104399000Y-31120000D03*
X106939000Y-33660000D03*
X106939000Y-31120000D03*
X109479000Y-33660000D03*
X109479000Y-31120000D03*
X112019000Y-33660000D03*
X112019000Y-31120000D03*
X114559000Y-33660000D03*
X114559000Y-31120000D03*
X117099000Y-33660000D03*
X117099000Y-31120000D03*
X119639000Y-33660000D03*
X119639000Y-31120000D03*
X122179000Y-33660000D03*
X122179000Y-31120000D03*
X124719000Y-33660000D03*
X124719000Y-31120000D03*
X127259000Y-33660000D03*
X127259000Y-31120000D03*
X129799000Y-33660000D03*
X129799000Y-31120000D03*
X132339000Y-33660000D03*
X132339000Y-31120000D03*
X134879000Y-33660000D03*
X134879000Y-31120000D03*
X137419000Y-33660000D03*
X137419000Y-31120000D03*
X139959000Y-33660000D03*
X139959000Y-31120000D03*
X142499000Y-33660000D03*
X142499000Y-31120000D03*
X145039000Y-33660000D03*
X145039000Y-31120000D03*
X147579000Y-33660000D03*
X147579000Y-31120000D03*
X150119000Y-33660000D03*
X150119000Y-31120000D03*
%TD*%
D36*
%TO.C,C132*%
X257109000Y-89281000D03*
X255209000Y-89281000D03*
%TD*%
D18*
%TO.C,H3*%
X18034000Y-107797600D03*
%TD*%
D11*
%TO.C,R146*%
X170942000Y-88265000D03*
X172767000Y-88265000D03*
%TD*%
%TO.C,R108*%
X108053500Y-68388000D03*
X109878500Y-68388000D03*
%TD*%
%TO.C,R112*%
X33504500Y-63308000D03*
X35329500Y-63308000D03*
%TD*%
D13*
%TO.C,C125*%
X22098000Y-81214000D03*
X22098000Y-79314000D03*
%TD*%
D12*
%TO.C,IC101*%
X59182000Y-105410000D03*
X60452000Y-105410000D03*
X61722000Y-105410000D03*
X62992000Y-105410000D03*
X64262000Y-105410000D03*
X65532000Y-105410000D03*
X66802000Y-105410000D03*
X68072000Y-105410000D03*
X68072000Y-100460000D03*
X66802000Y-100460000D03*
X65532000Y-100460000D03*
X64262000Y-100460000D03*
X62992000Y-100460000D03*
X61722000Y-100460000D03*
X60452000Y-100460000D03*
X59182000Y-100460000D03*
%TD*%
D11*
%TO.C,R149*%
X170942000Y-98425000D03*
X172767000Y-98425000D03*
%TD*%
D20*
%TO.C,CP002*%
X17830800Y-43484800D03*
D21*
X17830800Y-46024800D03*
X17830800Y-48564800D03*
X17830800Y-51104800D03*
X17830800Y-53644800D03*
X17830800Y-56184800D03*
X17830800Y-58724800D03*
X17830800Y-61264800D03*
X17830800Y-63804800D03*
X17830800Y-66344800D03*
X17830800Y-68884800D03*
X17830800Y-71424800D03*
X17830800Y-73964800D03*
X17830800Y-76504800D03*
X17830800Y-79044800D03*
X17830800Y-81584800D03*
X17830800Y-84124800D03*
X17830800Y-86664800D03*
X17830800Y-89204800D03*
X17830800Y-91744800D03*
%TD*%
D11*
%TO.C,R123*%
X35941000Y-34417000D03*
X37766000Y-34417000D03*
%TD*%
D16*
%TO.C,NR001*%
X39600500Y-62419000D03*
D17*
X42140500Y-62419000D03*
X44680500Y-62419000D03*
X47220500Y-62419000D03*
X49760500Y-62419000D03*
X52300500Y-62419000D03*
X54840500Y-62419000D03*
X57380500Y-62419000D03*
X59920500Y-62419000D03*
%TD*%
D16*
%TO.C,IC116*%
X177043000Y-58171000D03*
D17*
X179583000Y-58171000D03*
X182123000Y-58171000D03*
X184663000Y-58171000D03*
X187203000Y-58171000D03*
X189743000Y-58171000D03*
X192283000Y-58171000D03*
X194823000Y-58171000D03*
X197363000Y-58171000D03*
X199903000Y-58171000D03*
X202443000Y-58171000D03*
X204983000Y-58171000D03*
X207523000Y-58171000D03*
X210063000Y-58171000D03*
X212603000Y-58171000D03*
X215143000Y-58171000D03*
X217683000Y-58171000D03*
X220223000Y-58171000D03*
X222763000Y-58171000D03*
X225303000Y-58171000D03*
X225303000Y-42931000D03*
X222763000Y-42931000D03*
X220223000Y-42931000D03*
X217683000Y-42931000D03*
X215143000Y-42931000D03*
X212603000Y-42931000D03*
X210063000Y-42931000D03*
X207523000Y-42931000D03*
X204983000Y-42931000D03*
X202443000Y-42931000D03*
X199903000Y-42931000D03*
X197363000Y-42931000D03*
X194823000Y-42931000D03*
X192283000Y-42931000D03*
X189743000Y-42931000D03*
X187203000Y-42931000D03*
X184663000Y-42931000D03*
X182123000Y-42931000D03*
X179583000Y-42931000D03*
X177043000Y-42931000D03*
%TD*%
D11*
%TO.C,R106*%
X231698800Y-104749600D03*
X233523800Y-104749600D03*
%TD*%
%TO.C,R134*%
X228703500Y-60452000D03*
X230528500Y-60452000D03*
%TD*%
D13*
%TO.C,C123*%
X102235000Y-103824000D03*
X102235000Y-101924000D03*
%TD*%
D18*
%TO.C,H6*%
X62788800Y-90474800D03*
%TD*%
D12*
%TO.C,IC104*%
X74676000Y-105222000D03*
X75946000Y-105222000D03*
X77216000Y-105222000D03*
X78486000Y-105222000D03*
X79756000Y-105222000D03*
X81026000Y-105222000D03*
X82296000Y-105222000D03*
X83566000Y-105222000D03*
X83566000Y-100272000D03*
X82296000Y-100272000D03*
X81026000Y-100272000D03*
X79756000Y-100272000D03*
X78486000Y-100272000D03*
X77216000Y-100272000D03*
X75946000Y-100272000D03*
X74676000Y-100272000D03*
%TD*%
D13*
%TO.C,C112*%
X227472000Y-104084000D03*
X227472000Y-102184000D03*
%TD*%
D11*
%TO.C,R145*%
X251436500Y-89281000D03*
X253261500Y-89281000D03*
%TD*%
%TO.C,R109*%
X157710500Y-36195000D03*
X159535500Y-36195000D03*
%TD*%
D13*
%TO.C,C114*%
X161417000Y-74164000D03*
X161417000Y-72264000D03*
%TD*%
D16*
%TO.C,IC122*%
X205770000Y-86858000D03*
D17*
X208310000Y-86858000D03*
X210850000Y-86858000D03*
X213390000Y-86858000D03*
X215930000Y-86858000D03*
X218470000Y-86858000D03*
X221010000Y-86858000D03*
X223550000Y-86858000D03*
X223550000Y-79238000D03*
X221010000Y-79238000D03*
X218470000Y-79238000D03*
X215930000Y-79238000D03*
X213390000Y-79238000D03*
X210850000Y-79238000D03*
X208310000Y-79238000D03*
X205770000Y-79238000D03*
%TD*%
D16*
%TO.C,IC120*%
X181625000Y-106924000D03*
D17*
X184165000Y-106924000D03*
X186705000Y-106924000D03*
X189245000Y-106924000D03*
X191785000Y-106924000D03*
X194325000Y-106924000D03*
X196865000Y-106924000D03*
X199405000Y-106924000D03*
X199405000Y-99304000D03*
X196865000Y-99304000D03*
X194325000Y-99304000D03*
X191785000Y-99304000D03*
X189245000Y-99304000D03*
X186705000Y-99304000D03*
X184165000Y-99304000D03*
X181625000Y-99304000D03*
%TD*%
D13*
%TO.C,C120*%
X118237000Y-88200000D03*
X118237000Y-86300000D03*
%TD*%
D11*
%TO.C,R132*%
X250039500Y-60452000D03*
X251864500Y-60452000D03*
%TD*%
D13*
%TO.C,C115*%
X165608000Y-98359000D03*
X165608000Y-96459000D03*
%TD*%
D37*
%TO.C,R101*%
X240792000Y-96543500D03*
X240792000Y-94718500D03*
%TD*%
D24*
%TO.C,C102*%
X236159000Y-89281000D03*
X238059000Y-89281000D03*
%TD*%
D11*
%TO.C,R124*%
X126468500Y-73403000D03*
X128293500Y-73403000D03*
%TD*%
D24*
%TO.C,C130*%
X239969000Y-89281000D03*
X241869000Y-89281000D03*
%TD*%
D12*
%TO.C,IC105*%
X90170000Y-105222000D03*
X91440000Y-105222000D03*
X92710000Y-105222000D03*
X93980000Y-105222000D03*
X95250000Y-105222000D03*
X96520000Y-105222000D03*
X97790000Y-105222000D03*
X99060000Y-105222000D03*
X99060000Y-100272000D03*
X97790000Y-100272000D03*
X96520000Y-100272000D03*
X95250000Y-100272000D03*
X93980000Y-100272000D03*
X92710000Y-100272000D03*
X91440000Y-100272000D03*
X90170000Y-100272000D03*
%TD*%
D11*
%TO.C,R127*%
X247245500Y-65405000D03*
X249070500Y-65405000D03*
%TD*%
%TO.C,R102*%
X169926000Y-36195000D03*
X171751000Y-36195000D03*
%TD*%
%TO.C,R152*%
X170942000Y-92329000D03*
X172767000Y-92329000D03*
%TD*%
D16*
%TO.C,C101*%
X253363200Y-47973200D03*
D23*
X255863200Y-47973200D03*
%TD*%
D11*
%TO.C,R129*%
X232259500Y-57150000D03*
X234084500Y-57150000D03*
%TD*%
D12*
%TO.C,IC109*%
X105410000Y-105222000D03*
X106680000Y-105222000D03*
X107950000Y-105222000D03*
X109220000Y-105222000D03*
X110490000Y-105222000D03*
X111760000Y-105222000D03*
X113030000Y-105222000D03*
X114300000Y-105222000D03*
X114300000Y-100272000D03*
X113030000Y-100272000D03*
X111760000Y-100272000D03*
X110490000Y-100272000D03*
X109220000Y-100272000D03*
X107950000Y-100272000D03*
X106680000Y-100272000D03*
X105410000Y-100272000D03*
%TD*%
D32*
%TO.C,IC114*%
X146558000Y-77991000D03*
X147828000Y-77991000D03*
X149098000Y-77991000D03*
X150368000Y-77991000D03*
X151638000Y-77991000D03*
X152908000Y-77991000D03*
X154178000Y-77991000D03*
X155448000Y-77991000D03*
X156718000Y-77991000D03*
X157988000Y-77991000D03*
X157988000Y-68691000D03*
X156718000Y-68691000D03*
X155448000Y-68691000D03*
X154178000Y-68691000D03*
X152908000Y-68691000D03*
X151638000Y-68691000D03*
X150368000Y-68691000D03*
X149098000Y-68691000D03*
X147828000Y-68691000D03*
X146558000Y-68691000D03*
%TD*%
D13*
%TO.C,C124*%
X60174500Y-58416000D03*
X60174500Y-56516000D03*
%TD*%
D20*
%TO.C,LK2*%
X133096000Y-83633000D03*
D21*
X133096000Y-86173000D03*
%TD*%
D11*
%TO.C,R148*%
X170942000Y-96393000D03*
X172767000Y-96393000D03*
%TD*%
D10*
%TO.C,R144*%
X170203500Y-70674000D03*
X168378500Y-70674000D03*
%TD*%
D24*
%TO.C,C104*%
X185171000Y-39813000D03*
X187071000Y-39813000D03*
%TD*%
D13*
%TO.C,C107*%
X177561000Y-84145000D03*
X177561000Y-82245000D03*
%TD*%
D18*
%TO.C,H1*%
X79756000Y-31750000D03*
%TD*%
D38*
%TO.C,D101*%
X243078000Y-97154000D03*
X243078000Y-93854000D03*
%TD*%
D11*
%TO.C,R157*%
X175656000Y-88275000D03*
X177481000Y-88275000D03*
%TD*%
D16*
%TO.C,IC123*%
X205770000Y-96901000D03*
D17*
X208310000Y-96901000D03*
X210850000Y-96901000D03*
X213390000Y-96901000D03*
X215930000Y-96901000D03*
X218470000Y-96901000D03*
X221010000Y-96901000D03*
X223550000Y-96901000D03*
X223550000Y-89281000D03*
X221010000Y-89281000D03*
X218470000Y-89281000D03*
X215930000Y-89281000D03*
X213390000Y-89281000D03*
X210850000Y-89281000D03*
X208310000Y-89281000D03*
X205770000Y-89281000D03*
%TD*%
D16*
%TO.C,IC102*%
X24370500Y-58298000D03*
D17*
X26910500Y-58298000D03*
X29450500Y-58298000D03*
X31990500Y-58298000D03*
X34530500Y-58298000D03*
X37070500Y-58298000D03*
X39610500Y-58298000D03*
X42150500Y-58298000D03*
X44690500Y-58298000D03*
X47230500Y-58298000D03*
X49770500Y-58298000D03*
X52310500Y-58298000D03*
X54850500Y-58298000D03*
X57390500Y-58298000D03*
X57390500Y-43058000D03*
X54850500Y-43058000D03*
X52310500Y-43058000D03*
X49770500Y-43058000D03*
X47230500Y-43058000D03*
X44690500Y-43058000D03*
X42150500Y-43058000D03*
X39610500Y-43058000D03*
X37070500Y-43058000D03*
X34530500Y-43058000D03*
X31990500Y-43058000D03*
X29450500Y-43058000D03*
X26910500Y-43058000D03*
X24370500Y-43058000D03*
%TD*%
D36*
%TO.C,C118*%
X143825000Y-61214000D03*
X141925000Y-61214000D03*
%TD*%
D16*
%TO.C,IC103*%
X24775000Y-88143000D03*
D17*
X27315000Y-88143000D03*
X29855000Y-88143000D03*
X32395000Y-88143000D03*
X34935000Y-88143000D03*
X37475000Y-88143000D03*
X40015000Y-88143000D03*
X42555000Y-88143000D03*
X45095000Y-88143000D03*
X47635000Y-88143000D03*
X50175000Y-88143000D03*
X52715000Y-88143000D03*
X55255000Y-88143000D03*
X57795000Y-88143000D03*
X57795000Y-72903000D03*
X55255000Y-72903000D03*
X52715000Y-72903000D03*
X50175000Y-72903000D03*
X47635000Y-72903000D03*
X45095000Y-72903000D03*
X42555000Y-72903000D03*
X40015000Y-72903000D03*
X37475000Y-72903000D03*
X34935000Y-72903000D03*
X32395000Y-72903000D03*
X29855000Y-72903000D03*
X27315000Y-72903000D03*
X24775000Y-72903000D03*
%TD*%
D11*
%TO.C,R117*%
X53721000Y-30988000D03*
X55546000Y-30988000D03*
%TD*%
D10*
%TO.C,R107*%
X233424100Y-108254800D03*
X231599100Y-108254800D03*
%TD*%
D11*
%TO.C,R125*%
X242927500Y-60452000D03*
X244752500Y-60452000D03*
%TD*%
%TO.C,R116*%
X43029500Y-34417000D03*
X44854500Y-34417000D03*
%TD*%
D12*
%TO.C,IC112*%
X131572000Y-75751000D03*
X132842000Y-75751000D03*
X134112000Y-75751000D03*
X135382000Y-75751000D03*
X136652000Y-75751000D03*
X137922000Y-75751000D03*
X139192000Y-75751000D03*
X139192000Y-70801000D03*
X137922000Y-70801000D03*
X136652000Y-70801000D03*
X135382000Y-70801000D03*
X134112000Y-70801000D03*
X132842000Y-70801000D03*
X131572000Y-70801000D03*
%TD*%
D20*
%TO.C,LK4*%
X140462000Y-83633000D03*
D21*
X140462000Y-86173000D03*
%TD*%
D18*
%TO.C,H7*%
X123190000Y-82550000D03*
%TD*%
D11*
%TO.C,R156*%
X80494500Y-65786000D03*
X82319500Y-65786000D03*
%TD*%
D16*
%TO.C,IC107*%
X63862500Y-58171000D03*
D17*
X66402500Y-58171000D03*
X68942500Y-58171000D03*
X71482500Y-58171000D03*
X74022500Y-58171000D03*
X76562500Y-58171000D03*
X79102500Y-58171000D03*
X81642500Y-58171000D03*
X84182500Y-58171000D03*
X86722500Y-58171000D03*
X89262500Y-58171000D03*
X91802500Y-58171000D03*
X94342500Y-58171000D03*
X96882500Y-58171000D03*
X99422500Y-58171000D03*
X101962500Y-58171000D03*
X104502500Y-58171000D03*
X107042500Y-58171000D03*
X109582500Y-58171000D03*
X112122500Y-58171000D03*
X112122500Y-42931000D03*
X109582500Y-42931000D03*
X107042500Y-42931000D03*
X104502500Y-42931000D03*
X101962500Y-42931000D03*
X99422500Y-42931000D03*
X96882500Y-42931000D03*
X94342500Y-42931000D03*
X91802500Y-42931000D03*
X89262500Y-42931000D03*
X86722500Y-42931000D03*
X84182500Y-42931000D03*
X81642500Y-42931000D03*
X79102500Y-42931000D03*
X76562500Y-42931000D03*
X74022500Y-42931000D03*
X71482500Y-42931000D03*
X68942500Y-42931000D03*
X66402500Y-42931000D03*
X63862500Y-42931000D03*
%TD*%
D13*
%TO.C,C119*%
X114784500Y-58289000D03*
X114784500Y-56389000D03*
%TD*%
D10*
%TO.C,R114*%
X59078500Y-34417000D03*
X57253500Y-34417000D03*
%TD*%
D16*
%TO.C,IC108*%
X67188000Y-88143000D03*
D17*
X69728000Y-88143000D03*
X72268000Y-88143000D03*
X74808000Y-88143000D03*
X77348000Y-88143000D03*
X79888000Y-88143000D03*
X82428000Y-88143000D03*
X84968000Y-88143000D03*
X87508000Y-88143000D03*
X90048000Y-88143000D03*
X92588000Y-88143000D03*
X95128000Y-88143000D03*
X97668000Y-88143000D03*
X100208000Y-88143000D03*
X102748000Y-88143000D03*
X105288000Y-88143000D03*
X107828000Y-88143000D03*
X110368000Y-88143000D03*
X112908000Y-88143000D03*
X115448000Y-88143000D03*
X115448000Y-72903000D03*
X112908000Y-72903000D03*
X110368000Y-72903000D03*
X107828000Y-72903000D03*
X105288000Y-72903000D03*
X102748000Y-72903000D03*
X100208000Y-72903000D03*
X97668000Y-72903000D03*
X95128000Y-72903000D03*
X92588000Y-72903000D03*
X90048000Y-72903000D03*
X87508000Y-72903000D03*
X84968000Y-72903000D03*
X82428000Y-72903000D03*
X79888000Y-72903000D03*
X77348000Y-72903000D03*
X74808000Y-72903000D03*
X72268000Y-72903000D03*
X69728000Y-72903000D03*
X67188000Y-72903000D03*
%TD*%
D16*
%TO.C,IC124*%
X205770000Y-106924000D03*
D17*
X208310000Y-106924000D03*
X210850000Y-106924000D03*
X213390000Y-106924000D03*
X215930000Y-106924000D03*
X218470000Y-106924000D03*
X221010000Y-106924000D03*
X223550000Y-106924000D03*
X223550000Y-99304000D03*
X221010000Y-99304000D03*
X218470000Y-99304000D03*
X215930000Y-99304000D03*
X213390000Y-99304000D03*
X210850000Y-99304000D03*
X208310000Y-99304000D03*
X205770000Y-99304000D03*
%TD*%
D11*
%TO.C,R110*%
X161774500Y-36195000D03*
X163599500Y-36195000D03*
%TD*%
D39*
%TO.C,J104*%
X255398800Y-41400200D03*
D40*
X255398800Y-35400200D03*
D41*
X250698800Y-38400200D03*
%TD*%
D11*
%TO.C,R113*%
X235254800Y-104749600D03*
X237079800Y-104749600D03*
%TD*%
D42*
%TO.C,C129*%
X257556000Y-94787000D03*
X257556000Y-96687000D03*
%TD*%
D13*
%TO.C,C128*%
X71247000Y-103951000D03*
X71247000Y-102051000D03*
%TD*%
D11*
%TO.C,R151*%
X170942000Y-86233000D03*
X172767000Y-86233000D03*
%TD*%
D13*
%TO.C,C109*%
X177561000Y-94051000D03*
X177561000Y-92151000D03*
%TD*%
D11*
%TO.C,R140*%
X218647000Y-40005000D03*
X220472000Y-40005000D03*
%TD*%
D13*
%TO.C,C111*%
X177561000Y-104084000D03*
X177561000Y-102184000D03*
%TD*%
M02*
