%TF.GenerationSoftware,KiCad,Pcbnew,(6.0.7)*%
%TF.CreationDate,2022-12-16T00:38:34+00:00*%
%TF.ProjectId,CPC464-2MINITapeAdapter,43504334-3634-42d3-924d-494e49546170,rev?*%
%TF.SameCoordinates,Original*%
%TF.FileFunction,Drillmap*%
%TF.FilePolarity,Positive*%
%FSLAX45Y45*%
G04 Gerber Fmt 4.5, Leading zero omitted, Abs format (unit mm)*
G04 Created by KiCad (PCBNEW (6.0.7)) date 2022-12-16 00:38:34*
%MOMM*%
%LPD*%
G01*
G04 APERTURE LIST*
%ADD10C,0.150000*%
%ADD11C,0.200000*%
%ADD12C,0.120000*%
G04 APERTURE END LIST*
D10*
X8001000Y-10205720D02*
X5430520Y-10205720D01*
X5430520Y-10205720D02*
X5430520Y-5887720D01*
X5430520Y-5887720D02*
X8001000Y-5887720D01*
X8001000Y-5887720D02*
X8001000Y-10205720D01*
D11*
D12*
X6988080Y-7097720D02*
X7108080Y-7217720D01*
X7108080Y-7097720D02*
X6988080Y-7217720D01*
X6988080Y-8398200D02*
X7108080Y-8518200D01*
X7108080Y-8398200D02*
X6988080Y-8518200D01*
X7488080Y-6597720D02*
X7608080Y-6717720D01*
X7608080Y-6597720D02*
X7488080Y-6717720D01*
X7488080Y-7597720D02*
X7608080Y-7717720D01*
X7608080Y-7597720D02*
X7488080Y-7717720D01*
X7488080Y-7898200D02*
X7608080Y-8018200D01*
X7608080Y-7898200D02*
X7488080Y-8018200D01*
X7488080Y-8898200D02*
X7608080Y-9018200D01*
X7608080Y-8898200D02*
X7488080Y-9018200D01*
X7738080Y-6597720D02*
X7858080Y-6717720D01*
X7858080Y-6597720D02*
X7738080Y-6717720D01*
X7738080Y-7597720D02*
X7858080Y-7717720D01*
X7858080Y-7597720D02*
X7738080Y-7717720D01*
X7738080Y-7898200D02*
X7858080Y-8018200D01*
X7858080Y-7898200D02*
X7738080Y-8018200D01*
X7738080Y-8898200D02*
X7858080Y-9018200D01*
X7858080Y-8898200D02*
X7738080Y-9018200D01*
D11*
X5680639Y-10523696D02*
X5680639Y-10323696D01*
X5728258Y-10323696D01*
X5756829Y-10333220D01*
X5775877Y-10352268D01*
X5785401Y-10371315D01*
X5794925Y-10409410D01*
X5794925Y-10437982D01*
X5785401Y-10476077D01*
X5775877Y-10495125D01*
X5756829Y-10514172D01*
X5728258Y-10523696D01*
X5680639Y-10523696D01*
X5880639Y-10523696D02*
X5880639Y-10390363D01*
X5880639Y-10428458D02*
X5890163Y-10409410D01*
X5899687Y-10399887D01*
X5918734Y-10390363D01*
X5937782Y-10390363D01*
X6004448Y-10523696D02*
X6004448Y-10390363D01*
X6004448Y-10323696D02*
X5994925Y-10333220D01*
X6004448Y-10342744D01*
X6013972Y-10333220D01*
X6004448Y-10323696D01*
X6004448Y-10342744D01*
X6128258Y-10523696D02*
X6109210Y-10514172D01*
X6099687Y-10495125D01*
X6099687Y-10323696D01*
X6233020Y-10523696D02*
X6213972Y-10514172D01*
X6204448Y-10495125D01*
X6204448Y-10323696D01*
X6461591Y-10523696D02*
X6461591Y-10323696D01*
X6528258Y-10466553D01*
X6594925Y-10323696D01*
X6594925Y-10523696D01*
X6775877Y-10523696D02*
X6775877Y-10418934D01*
X6766353Y-10399887D01*
X6747306Y-10390363D01*
X6709210Y-10390363D01*
X6690163Y-10399887D01*
X6775877Y-10514172D02*
X6756829Y-10523696D01*
X6709210Y-10523696D01*
X6690163Y-10514172D01*
X6680639Y-10495125D01*
X6680639Y-10476077D01*
X6690163Y-10457030D01*
X6709210Y-10447506D01*
X6756829Y-10447506D01*
X6775877Y-10437982D01*
X6871115Y-10390363D02*
X6871115Y-10590363D01*
X6871115Y-10399887D02*
X6890163Y-10390363D01*
X6928258Y-10390363D01*
X6947306Y-10399887D01*
X6956829Y-10409410D01*
X6966353Y-10428458D01*
X6966353Y-10485601D01*
X6956829Y-10504649D01*
X6947306Y-10514172D01*
X6928258Y-10523696D01*
X6890163Y-10523696D01*
X6871115Y-10514172D01*
X7052068Y-10504649D02*
X7061591Y-10514172D01*
X7052068Y-10523696D01*
X7042544Y-10514172D01*
X7052068Y-10504649D01*
X7052068Y-10523696D01*
X7052068Y-10399887D02*
X7061591Y-10409410D01*
X7052068Y-10418934D01*
X7042544Y-10409410D01*
X7052068Y-10399887D01*
X7052068Y-10418934D01*
D12*
X5303020Y-10793220D02*
X5423020Y-10913220D01*
X5423020Y-10793220D02*
X5303020Y-10913220D01*
D11*
X5785401Y-10943696D02*
X5671115Y-10943696D01*
X5728258Y-10943696D02*
X5728258Y-10743696D01*
X5709210Y-10772268D01*
X5690163Y-10791315D01*
X5671115Y-10800839D01*
X5871115Y-10924649D02*
X5880639Y-10934172D01*
X5871115Y-10943696D01*
X5861591Y-10934172D01*
X5871115Y-10924649D01*
X5871115Y-10943696D01*
X5956829Y-10762744D02*
X5966353Y-10753220D01*
X5985401Y-10743696D01*
X6033020Y-10743696D01*
X6052068Y-10753220D01*
X6061591Y-10762744D01*
X6071115Y-10781791D01*
X6071115Y-10800839D01*
X6061591Y-10829410D01*
X5947306Y-10943696D01*
X6071115Y-10943696D01*
X6194925Y-10743696D02*
X6213972Y-10743696D01*
X6233020Y-10753220D01*
X6242544Y-10762744D01*
X6252068Y-10781791D01*
X6261591Y-10819887D01*
X6261591Y-10867506D01*
X6252068Y-10905601D01*
X6242544Y-10924649D01*
X6233020Y-10934172D01*
X6213972Y-10943696D01*
X6194925Y-10943696D01*
X6175877Y-10934172D01*
X6166353Y-10924649D01*
X6156829Y-10905601D01*
X6147306Y-10867506D01*
X6147306Y-10819887D01*
X6156829Y-10781791D01*
X6166353Y-10762744D01*
X6175877Y-10753220D01*
X6194925Y-10743696D01*
X6385401Y-10743696D02*
X6404448Y-10743696D01*
X6423496Y-10753220D01*
X6433020Y-10762744D01*
X6442544Y-10781791D01*
X6452068Y-10819887D01*
X6452068Y-10867506D01*
X6442544Y-10905601D01*
X6433020Y-10924649D01*
X6423496Y-10934172D01*
X6404448Y-10943696D01*
X6385401Y-10943696D01*
X6366353Y-10934172D01*
X6356829Y-10924649D01*
X6347306Y-10905601D01*
X6337782Y-10867506D01*
X6337782Y-10819887D01*
X6347306Y-10781791D01*
X6356829Y-10762744D01*
X6366353Y-10753220D01*
X6385401Y-10743696D01*
X6537782Y-10943696D02*
X6537782Y-10810363D01*
X6537782Y-10829410D02*
X6547306Y-10819887D01*
X6566353Y-10810363D01*
X6594925Y-10810363D01*
X6613972Y-10819887D01*
X6623496Y-10838934D01*
X6623496Y-10943696D01*
X6623496Y-10838934D02*
X6633020Y-10819887D01*
X6652068Y-10810363D01*
X6680639Y-10810363D01*
X6699687Y-10819887D01*
X6709210Y-10838934D01*
X6709210Y-10943696D01*
X6804448Y-10943696D02*
X6804448Y-10810363D01*
X6804448Y-10829410D02*
X6813972Y-10819887D01*
X6833020Y-10810363D01*
X6861591Y-10810363D01*
X6880639Y-10819887D01*
X6890163Y-10838934D01*
X6890163Y-10943696D01*
X6890163Y-10838934D02*
X6899687Y-10819887D01*
X6918734Y-10810363D01*
X6947306Y-10810363D01*
X6966353Y-10819887D01*
X6975877Y-10838934D01*
X6975877Y-10943696D01*
X7366353Y-10734172D02*
X7194925Y-10991315D01*
X7623496Y-10743696D02*
X7642544Y-10743696D01*
X7661591Y-10753220D01*
X7671115Y-10762744D01*
X7680639Y-10781791D01*
X7690163Y-10819887D01*
X7690163Y-10867506D01*
X7680639Y-10905601D01*
X7671115Y-10924649D01*
X7661591Y-10934172D01*
X7642544Y-10943696D01*
X7623496Y-10943696D01*
X7604448Y-10934172D01*
X7594925Y-10924649D01*
X7585401Y-10905601D01*
X7575877Y-10867506D01*
X7575877Y-10819887D01*
X7585401Y-10781791D01*
X7594925Y-10762744D01*
X7604448Y-10753220D01*
X7623496Y-10743696D01*
X7775877Y-10924649D02*
X7785401Y-10934172D01*
X7775877Y-10943696D01*
X7766353Y-10934172D01*
X7775877Y-10924649D01*
X7775877Y-10943696D01*
X7909210Y-10743696D02*
X7928258Y-10743696D01*
X7947306Y-10753220D01*
X7956829Y-10762744D01*
X7966353Y-10781791D01*
X7975877Y-10819887D01*
X7975877Y-10867506D01*
X7966353Y-10905601D01*
X7956829Y-10924649D01*
X7947306Y-10934172D01*
X7928258Y-10943696D01*
X7909210Y-10943696D01*
X7890163Y-10934172D01*
X7880639Y-10924649D01*
X7871115Y-10905601D01*
X7861591Y-10867506D01*
X7861591Y-10819887D01*
X7871115Y-10781791D01*
X7880639Y-10762744D01*
X7890163Y-10753220D01*
X7909210Y-10743696D01*
X8147306Y-10810363D02*
X8147306Y-10943696D01*
X8099687Y-10734172D02*
X8052068Y-10877030D01*
X8175877Y-10877030D01*
X8233020Y-10743696D02*
X8366353Y-10743696D01*
X8280639Y-10943696D01*
X8433020Y-10762744D02*
X8442544Y-10753220D01*
X8461591Y-10743696D01*
X8509210Y-10743696D01*
X8528258Y-10753220D01*
X8537782Y-10762744D01*
X8547306Y-10781791D01*
X8547306Y-10800839D01*
X8537782Y-10829410D01*
X8423496Y-10943696D01*
X8547306Y-10943696D01*
X8623496Y-10743696D02*
X8623496Y-10781791D01*
X8699687Y-10743696D02*
X8699687Y-10781791D01*
X8994925Y-11019887D02*
X8985401Y-11010363D01*
X8966353Y-10981791D01*
X8956830Y-10962744D01*
X8947306Y-10934172D01*
X8937782Y-10886553D01*
X8937782Y-10848458D01*
X8947306Y-10800839D01*
X8956830Y-10772268D01*
X8966353Y-10753220D01*
X8985401Y-10724649D01*
X8994925Y-10715125D01*
X9175877Y-10943696D02*
X9061591Y-10943696D01*
X9118734Y-10943696D02*
X9118734Y-10743696D01*
X9099687Y-10772268D01*
X9080639Y-10791315D01*
X9061591Y-10800839D01*
X9299687Y-10743696D02*
X9318734Y-10743696D01*
X9337782Y-10753220D01*
X9347306Y-10762744D01*
X9356830Y-10781791D01*
X9366353Y-10819887D01*
X9366353Y-10867506D01*
X9356830Y-10905601D01*
X9347306Y-10924649D01*
X9337782Y-10934172D01*
X9318734Y-10943696D01*
X9299687Y-10943696D01*
X9280639Y-10934172D01*
X9271115Y-10924649D01*
X9261591Y-10905601D01*
X9252068Y-10867506D01*
X9252068Y-10819887D01*
X9261591Y-10781791D01*
X9271115Y-10762744D01*
X9280639Y-10753220D01*
X9299687Y-10743696D01*
X9604449Y-10943696D02*
X9604449Y-10743696D01*
X9690163Y-10943696D02*
X9690163Y-10838934D01*
X9680639Y-10819887D01*
X9661591Y-10810363D01*
X9633020Y-10810363D01*
X9613972Y-10819887D01*
X9604449Y-10829410D01*
X9813972Y-10943696D02*
X9794925Y-10934172D01*
X9785401Y-10924649D01*
X9775877Y-10905601D01*
X9775877Y-10848458D01*
X9785401Y-10829410D01*
X9794925Y-10819887D01*
X9813972Y-10810363D01*
X9842544Y-10810363D01*
X9861591Y-10819887D01*
X9871115Y-10829410D01*
X9880639Y-10848458D01*
X9880639Y-10905601D01*
X9871115Y-10924649D01*
X9861591Y-10934172D01*
X9842544Y-10943696D01*
X9813972Y-10943696D01*
X9994925Y-10943696D02*
X9975877Y-10934172D01*
X9966353Y-10915125D01*
X9966353Y-10743696D01*
X10147306Y-10934172D02*
X10128258Y-10943696D01*
X10090163Y-10943696D01*
X10071115Y-10934172D01*
X10061591Y-10915125D01*
X10061591Y-10838934D01*
X10071115Y-10819887D01*
X10090163Y-10810363D01*
X10128258Y-10810363D01*
X10147306Y-10819887D01*
X10156830Y-10838934D01*
X10156830Y-10857982D01*
X10061591Y-10877030D01*
X10233020Y-10934172D02*
X10252068Y-10943696D01*
X10290163Y-10943696D01*
X10309210Y-10934172D01*
X10318734Y-10915125D01*
X10318734Y-10905601D01*
X10309210Y-10886553D01*
X10290163Y-10877030D01*
X10261591Y-10877030D01*
X10242544Y-10867506D01*
X10233020Y-10848458D01*
X10233020Y-10838934D01*
X10242544Y-10819887D01*
X10261591Y-10810363D01*
X10290163Y-10810363D01*
X10309210Y-10819887D01*
X10385401Y-11019887D02*
X10394925Y-11010363D01*
X10413972Y-10981791D01*
X10423496Y-10962744D01*
X10433020Y-10934172D01*
X10442544Y-10886553D01*
X10442544Y-10848458D01*
X10433020Y-10800839D01*
X10423496Y-10772268D01*
X10413972Y-10753220D01*
X10394925Y-10724649D01*
X10385401Y-10715125D01*
X10747306Y-11019887D02*
X10737782Y-11010363D01*
X10718734Y-10981791D01*
X10709210Y-10962744D01*
X10699687Y-10934172D01*
X10690163Y-10886553D01*
X10690163Y-10848458D01*
X10699687Y-10800839D01*
X10709210Y-10772268D01*
X10718734Y-10753220D01*
X10737782Y-10724649D01*
X10747306Y-10715125D01*
X10823496Y-10810363D02*
X10823496Y-10943696D01*
X10823496Y-10829410D02*
X10833020Y-10819887D01*
X10852068Y-10810363D01*
X10880639Y-10810363D01*
X10899687Y-10819887D01*
X10909210Y-10838934D01*
X10909210Y-10943696D01*
X11033020Y-10943696D02*
X11013972Y-10934172D01*
X11004449Y-10924649D01*
X10994925Y-10905601D01*
X10994925Y-10848458D01*
X11004449Y-10829410D01*
X11013972Y-10819887D01*
X11033020Y-10810363D01*
X11061591Y-10810363D01*
X11080639Y-10819887D01*
X11090163Y-10829410D01*
X11099687Y-10848458D01*
X11099687Y-10905601D01*
X11090163Y-10924649D01*
X11080639Y-10934172D01*
X11061591Y-10943696D01*
X11033020Y-10943696D01*
X11156830Y-10810363D02*
X11233020Y-10810363D01*
X11185401Y-10743696D02*
X11185401Y-10915125D01*
X11194925Y-10934172D01*
X11213972Y-10943696D01*
X11233020Y-10943696D01*
X11452068Y-10810363D02*
X11452068Y-11010363D01*
X11452068Y-10819887D02*
X11471115Y-10810363D01*
X11509210Y-10810363D01*
X11528258Y-10819887D01*
X11537782Y-10829410D01*
X11547306Y-10848458D01*
X11547306Y-10905601D01*
X11537782Y-10924649D01*
X11528258Y-10934172D01*
X11509210Y-10943696D01*
X11471115Y-10943696D01*
X11452068Y-10934172D01*
X11661591Y-10943696D02*
X11642544Y-10934172D01*
X11633020Y-10915125D01*
X11633020Y-10743696D01*
X11823496Y-10943696D02*
X11823496Y-10838934D01*
X11813972Y-10819887D01*
X11794925Y-10810363D01*
X11756829Y-10810363D01*
X11737782Y-10819887D01*
X11823496Y-10934172D02*
X11804448Y-10943696D01*
X11756829Y-10943696D01*
X11737782Y-10934172D01*
X11728258Y-10915125D01*
X11728258Y-10896077D01*
X11737782Y-10877030D01*
X11756829Y-10867506D01*
X11804448Y-10867506D01*
X11823496Y-10857982D01*
X11890163Y-10810363D02*
X11966353Y-10810363D01*
X11918734Y-10743696D02*
X11918734Y-10915125D01*
X11928258Y-10934172D01*
X11947306Y-10943696D01*
X11966353Y-10943696D01*
X12109210Y-10934172D02*
X12090163Y-10943696D01*
X12052068Y-10943696D01*
X12033020Y-10934172D01*
X12023496Y-10915125D01*
X12023496Y-10838934D01*
X12033020Y-10819887D01*
X12052068Y-10810363D01*
X12090163Y-10810363D01*
X12109210Y-10819887D01*
X12118734Y-10838934D01*
X12118734Y-10857982D01*
X12023496Y-10877030D01*
X12290163Y-10943696D02*
X12290163Y-10743696D01*
X12290163Y-10934172D02*
X12271115Y-10943696D01*
X12233020Y-10943696D01*
X12213972Y-10934172D01*
X12204448Y-10924649D01*
X12194925Y-10905601D01*
X12194925Y-10848458D01*
X12204448Y-10829410D01*
X12213972Y-10819887D01*
X12233020Y-10810363D01*
X12271115Y-10810363D01*
X12290163Y-10819887D01*
X12366353Y-11019887D02*
X12375877Y-11010363D01*
X12394925Y-10981791D01*
X12404448Y-10962744D01*
X12413972Y-10934172D01*
X12423496Y-10886553D01*
X12423496Y-10848458D01*
X12413972Y-10800839D01*
X12404448Y-10772268D01*
X12394925Y-10753220D01*
X12375877Y-10724649D01*
X12366353Y-10715125D01*
M02*
