%TF.GenerationSoftware,KiCad,Pcbnew,(6.0.7)*%
%TF.CreationDate,2022-12-16T00:38:36+00:00*%
%TF.ProjectId,CPC464-2MINITapeAdapter,43504334-3634-42d3-924d-494e49546170,rev?*%
%TF.SameCoordinates,Original*%
%TF.FileFunction,Soldermask,Top*%
%TF.FilePolarity,Negative*%
%FSLAX46Y46*%
G04 Gerber Fmt 4.6, Leading zero omitted, Abs format (unit mm)*
G04 Created by KiCad (PCBNEW (6.0.7)) date 2022-12-16 00:38:36*
%MOMM*%
%LPD*%
G01*
G04 APERTURE LIST*
%ADD10C,1.400000*%
%ADD11O,1.400000X1.400000*%
%ADD12C,1.500000*%
%ADD13R,1.500000X1.500000*%
%ADD14R,1.700000X1.700000*%
%ADD15O,1.700000X1.700000*%
%ADD16C,1.200000*%
%ADD17R,1.200000X1.200000*%
%ADD18C,4.500000*%
%ADD19C,1.600000*%
%ADD20O,1.308000X2.616000*%
%ADD21O,2.616000X1.308000*%
G04 APERTURE END LIST*
D10*
%TO.C,R318*%
X56533000Y-77266800D03*
D11*
X64153000Y-77266800D03*
%TD*%
D10*
%TO.C,R314*%
X56533000Y-68692129D03*
D11*
X64153000Y-68692129D03*
%TD*%
D12*
%TO.C,Q350*%
X62883000Y-73522471D03*
X60343000Y-73522471D03*
D13*
X57803000Y-73522471D03*
%TD*%
D10*
%TO.C,R313*%
X56533000Y-66268600D03*
D11*
X64153000Y-66268600D03*
%TD*%
D14*
%TO.C,C353*%
X58104800Y-97510600D03*
D15*
X60644800Y-97510600D03*
X63184800Y-97510600D03*
X65724800Y-97510600D03*
X68264800Y-97510600D03*
X70804800Y-97510600D03*
X73344800Y-97510600D03*
X75884800Y-97510600D03*
%TD*%
D16*
%TO.C,C351*%
X63786000Y-83947000D03*
D17*
X65786000Y-83947000D03*
%TD*%
D18*
%TO.C,H5*%
X73279000Y-62407800D03*
%TD*%
D11*
%TO.C,R315*%
X56533000Y-93421200D03*
D10*
X64153000Y-93421200D03*
%TD*%
D11*
%TO.C,R310*%
X56533000Y-79781400D03*
D10*
X64153000Y-79781400D03*
%TD*%
D11*
%TO.C,R316*%
X56533000Y-90957400D03*
D10*
X64153000Y-90957400D03*
%TD*%
D19*
%TO.C,C317*%
X56319000Y-83947000D03*
X61319000Y-83947000D03*
%TD*%
D11*
%TO.C,R317*%
X64153000Y-88569800D03*
D10*
X56533000Y-88569800D03*
%TD*%
D16*
%TO.C,J350*%
X77980800Y-76577200D03*
X70480800Y-71577200D03*
X75480800Y-66577200D03*
X75480800Y-76577200D03*
X77980800Y-66577200D03*
D20*
X75480800Y-71577200D03*
D21*
X70480800Y-66577200D03*
X70480800Y-76577200D03*
X70480800Y-69077200D03*
X70480800Y-74077200D03*
%TD*%
D16*
%TO.C,J351*%
X77980800Y-79582000D03*
X70480800Y-84582000D03*
X77980800Y-89582000D03*
X75480800Y-89582000D03*
X75480800Y-79582000D03*
D20*
X75480800Y-84582000D03*
D21*
X70480800Y-79582000D03*
X70480800Y-89582000D03*
X70480800Y-82082000D03*
X70480800Y-87082000D03*
%TD*%
M02*
