%TF.GenerationSoftware,KiCad,Pcbnew,(6.0.7)*%
%TF.CreationDate,2022-12-16T00:38:36+00:00*%
%TF.ProjectId,CPC464-2MINITapeAdapter,43504334-3634-42d3-924d-494e49546170,rev?*%
%TF.SameCoordinates,Original*%
%TF.FileFunction,Copper,L2,Bot*%
%TF.FilePolarity,Positive*%
%FSLAX46Y46*%
G04 Gerber Fmt 4.6, Leading zero omitted, Abs format (unit mm)*
G04 Created by KiCad (PCBNEW (6.0.7)) date 2022-12-16 00:38:36*
%MOMM*%
%LPD*%
G01*
G04 APERTURE LIST*
%TA.AperFunction,ComponentPad*%
%ADD10C,1.400000*%
%TD*%
%TA.AperFunction,ComponentPad*%
%ADD11O,1.400000X1.400000*%
%TD*%
%TA.AperFunction,ComponentPad*%
%ADD12C,1.500000*%
%TD*%
%TA.AperFunction,ComponentPad*%
%ADD13R,1.500000X1.500000*%
%TD*%
%TA.AperFunction,ComponentPad*%
%ADD14R,1.700000X1.700000*%
%TD*%
%TA.AperFunction,ComponentPad*%
%ADD15O,1.700000X1.700000*%
%TD*%
%TA.AperFunction,ComponentPad*%
%ADD16C,1.200000*%
%TD*%
%TA.AperFunction,ComponentPad*%
%ADD17R,1.200000X1.200000*%
%TD*%
%TA.AperFunction,ComponentPad*%
%ADD18C,4.500000*%
%TD*%
%TA.AperFunction,ComponentPad*%
%ADD19C,1.600000*%
%TD*%
%TA.AperFunction,ComponentPad*%
%ADD20O,1.308000X2.616000*%
%TD*%
%TA.AperFunction,ComponentPad*%
%ADD21O,2.616000X1.308000*%
%TD*%
%TA.AperFunction,Conductor*%
%ADD22C,0.500000*%
%TD*%
%TA.AperFunction,Conductor*%
%ADD23C,1.000000*%
%TD*%
G04 APERTURE END LIST*
D10*
%TO.P,R318,1*%
%TO.N,DATAIN*%
X56533000Y-77266800D03*
D11*
%TO.P,R318,2*%
%TO.N,Net-(Q350-Pad3)*%
X64153000Y-77266800D03*
%TD*%
D10*
%TO.P,R314,1*%
%TO.N,GND*%
X56533000Y-68692129D03*
D11*
%TO.P,R314,2*%
%TO.N,Net-(Q350-Pad3)*%
X64153000Y-68692129D03*
%TD*%
D12*
%TO.P,Q350,3,E*%
%TO.N,Net-(Q350-Pad3)*%
X62883000Y-73522471D03*
%TO.P,Q350,2,B*%
%TO.N,Net-(R310-Pad1)*%
X60343000Y-73522471D03*
D13*
%TO.P,Q350,1,C*%
%TO.N,+5V*%
X57803000Y-73522471D03*
%TD*%
D10*
%TO.P,R313,1*%
%TO.N,GND*%
X56533000Y-66268600D03*
D11*
%TO.P,R313,2*%
%TO.N,Net-(R310-Pad1)*%
X64153000Y-66268600D03*
%TD*%
D14*
%TO.P,C353,1,Pin_1*%
%TO.N,+5V*%
X58104800Y-97510600D03*
D15*
%TO.P,C353,2,Pin_2*%
%TO.N,GND*%
X60644800Y-97510600D03*
%TO.P,C353,3,Pin_3*%
%TO.N,+5V*%
X63184800Y-97510600D03*
%TO.P,C353,4,Pin_4*%
%TO.N,DATAOUT*%
X65724800Y-97510600D03*
%TO.P,C353,5,Pin_5*%
%TO.N,DATAIN*%
X68264800Y-97510600D03*
%TO.P,C353,6,Pin_6*%
%TO.N,+5V*%
X70804800Y-97510600D03*
%TO.P,C353,7,Pin_7*%
%TO.N,SOUND*%
X73344800Y-97510600D03*
%TO.P,C353,8,Pin_8*%
%TO.N,MOTOR*%
X75884800Y-97510600D03*
%TD*%
D16*
%TO.P,C351,2*%
%TO.N,Net-(R310-Pad1)*%
X63786000Y-83947000D03*
D17*
%TO.P,C351,1*%
%TO.N,EAR*%
X65786000Y-83947000D03*
%TD*%
D18*
%TO.P,H5,1,1*%
%TO.N,GND*%
X73279000Y-62407800D03*
%TD*%
D11*
%TO.P,R315,2*%
%TO.N,+5V*%
X56533000Y-93421200D03*
D10*
%TO.P,R315,1*%
%TO.N,DATAOUT*%
X64153000Y-93421200D03*
%TD*%
D11*
%TO.P,R310,2*%
%TO.N,+5V*%
X56533000Y-79781400D03*
D10*
%TO.P,R310,1*%
%TO.N,Net-(R310-Pad1)*%
X64153000Y-79781400D03*
%TD*%
D11*
%TO.P,R316,2*%
%TO.N,GND*%
X56533000Y-90957400D03*
D10*
%TO.P,R316,1*%
%TO.N,MIC*%
X64153000Y-90957400D03*
%TD*%
D19*
%TO.P,C317,1*%
%TO.N,Net-(C317-Pad1)*%
X56319000Y-83947000D03*
%TO.P,C317,2*%
%TO.N,DATAOUT*%
X61319000Y-83947000D03*
%TD*%
D11*
%TO.P,R317,2*%
%TO.N,MIC*%
X64153000Y-88569800D03*
D10*
%TO.P,R317,1*%
%TO.N,Net-(C317-Pad1)*%
X56533000Y-88569800D03*
%TD*%
D20*
%TO.P,J350,1,1*%
%TO.N,GND*%
X75480800Y-71577200D03*
D21*
%TO.P,J350,2,2*%
%TO.N,MIC*%
X70480800Y-66577200D03*
%TO.P,J350,3,Ground*%
%TO.N,unconnected-(J350-Pad3)*%
X70480800Y-76577200D03*
%TO.P,J350,10,10*%
%TO.N,unconnected-(J350-Pad10)*%
X70480800Y-69077200D03*
%TO.P,J350,11,11*%
%TO.N,unconnected-(J350-Pad11)*%
X70480800Y-74077200D03*
%TD*%
D20*
%TO.P,J351,1,1*%
%TO.N,GND*%
X75480800Y-84582000D03*
D21*
%TO.P,J351,2,2*%
%TO.N,EAR*%
X70480800Y-79582000D03*
%TO.P,J351,3,Ground*%
%TO.N,unconnected-(J351-Pad3)*%
X70480800Y-89582000D03*
%TO.P,J351,10,10*%
%TO.N,unconnected-(J351-Pad10)*%
X70480800Y-82082000D03*
%TO.P,J351,11,11*%
%TO.N,unconnected-(J351-Pad11)*%
X70480800Y-87082000D03*
%TD*%
D22*
%TO.N,EAR*%
X70151000Y-79582000D02*
X70480800Y-79582000D01*
X65786000Y-83947000D02*
X70151000Y-79582000D01*
%TO.N,Net-(R310-Pad1)*%
X63786000Y-80148400D02*
X64153000Y-79781400D01*
X63786000Y-83947000D02*
X63786000Y-80148400D01*
X60343000Y-75971400D02*
X64153000Y-79781400D01*
X60343000Y-73522471D02*
X60343000Y-75971400D01*
X60343000Y-68003200D02*
X60343000Y-73522471D01*
X62077600Y-66268600D02*
X60343000Y-68003200D01*
X64153000Y-66268600D02*
X62077600Y-66268600D01*
%TO.N,Net-(Q350-Pad3)*%
X62883000Y-69962129D02*
X64153000Y-68692129D01*
X62883000Y-73522471D02*
X62883000Y-69962129D01*
X64153000Y-74792471D02*
X62883000Y-73522471D01*
X64153000Y-77266800D02*
X64153000Y-74792471D01*
%TO.N,DATAIN*%
X58394600Y-77800200D02*
X57861200Y-77266800D01*
X58394600Y-91516200D02*
X58394600Y-77800200D01*
X57861200Y-77266800D02*
X56533000Y-77266800D01*
X61518767Y-94640367D02*
X58394600Y-91516200D01*
X65394567Y-94640367D02*
X61518767Y-94640367D01*
X68264800Y-97510600D02*
X65394567Y-94640367D01*
D23*
%TO.N,GND*%
X64581800Y-101447600D02*
X60644800Y-97510600D01*
X79510000Y-101447600D02*
X64581800Y-101447600D01*
X76134800Y-84582000D02*
X79510000Y-87957200D01*
X79510000Y-87957200D02*
X79510000Y-101447600D01*
X75480800Y-84582000D02*
X76134800Y-84582000D01*
X73279000Y-82380200D02*
X75480800Y-84582000D01*
X73279000Y-70993000D02*
X73279000Y-82380200D01*
X73863200Y-71577200D02*
X75480800Y-71577200D01*
X73279000Y-70993000D02*
X73863200Y-71577200D01*
X73279000Y-62407800D02*
X73279000Y-70993000D01*
X56533000Y-66268600D02*
X60393800Y-62407800D01*
X60393800Y-62407800D02*
X73279000Y-62407800D01*
X56533000Y-68692129D02*
X56533000Y-66268600D01*
X54805200Y-70419929D02*
X56533000Y-68692129D01*
X54805200Y-89229600D02*
X54805200Y-70419929D01*
X56533000Y-90957400D02*
X54805200Y-89229600D01*
X54889400Y-101447600D02*
X54889400Y-92601000D01*
X57884481Y-101473000D02*
X54914800Y-101473000D01*
X54914800Y-101473000D02*
X54889400Y-101447600D01*
X54889400Y-92601000D02*
X56533000Y-90957400D01*
X60644800Y-98712681D02*
X57884481Y-101473000D01*
X60644800Y-97510600D02*
X60644800Y-98712681D01*
%TD*%
%TA.AperFunction,Conductor*%
%TO.N,GND*%
G36*
X79443621Y-59405702D02*
G01*
X79490114Y-59459358D01*
X79501500Y-59511700D01*
X79501500Y-101422700D01*
X79481498Y-101490821D01*
X79427842Y-101537314D01*
X79375500Y-101548700D01*
X54939700Y-101548700D01*
X54871579Y-101528698D01*
X54825086Y-101475042D01*
X54813700Y-101422700D01*
X54813700Y-98408734D01*
X56746300Y-98408734D01*
X56753055Y-98470916D01*
X56804185Y-98607305D01*
X56891539Y-98723861D01*
X57008095Y-98811215D01*
X57144484Y-98862345D01*
X57206666Y-98869100D01*
X59002934Y-98869100D01*
X59065116Y-98862345D01*
X59201505Y-98811215D01*
X59318061Y-98723861D01*
X59405415Y-98607305D01*
X59449598Y-98489448D01*
X59492240Y-98432684D01*
X59558801Y-98407984D01*
X59628150Y-98423192D01*
X59662817Y-98451180D01*
X59688018Y-98480273D01*
X59695380Y-98487483D01*
X59859234Y-98623516D01*
X59867681Y-98629431D01*
X60051556Y-98736879D01*
X60060842Y-98741329D01*
X60259801Y-98817303D01*
X60269699Y-98820179D01*
X60373050Y-98841206D01*
X60387099Y-98840010D01*
X60390800Y-98829665D01*
X60390800Y-96193702D01*
X60386882Y-96180358D01*
X60372606Y-96178371D01*
X60334124Y-96184260D01*
X60324088Y-96186651D01*
X60121668Y-96252812D01*
X60112159Y-96256809D01*
X59923263Y-96355142D01*
X59914538Y-96360636D01*
X59744233Y-96488505D01*
X59736526Y-96495348D01*
X59659278Y-96576184D01*
X59597754Y-96611614D01*
X59526842Y-96608157D01*
X59469055Y-96566911D01*
X59450202Y-96533363D01*
X59408567Y-96422303D01*
X59405415Y-96413895D01*
X59318061Y-96297339D01*
X59201505Y-96209985D01*
X59065116Y-96158855D01*
X59002934Y-96152100D01*
X57206666Y-96152100D01*
X57144484Y-96158855D01*
X57008095Y-96209985D01*
X56891539Y-96297339D01*
X56804185Y-96413895D01*
X56753055Y-96550284D01*
X56746300Y-96612466D01*
X56746300Y-98408734D01*
X54813700Y-98408734D01*
X54813700Y-84341864D01*
X54833702Y-84273743D01*
X54887358Y-84227250D01*
X54957632Y-84217146D01*
X55022212Y-84246640D01*
X55061407Y-84309253D01*
X55073410Y-84354047D01*
X55084716Y-84396243D01*
X55087039Y-84401224D01*
X55087039Y-84401225D01*
X55179151Y-84598762D01*
X55179154Y-84598767D01*
X55181477Y-84603749D01*
X55230684Y-84674024D01*
X55308599Y-84785297D01*
X55312802Y-84791300D01*
X55474700Y-84953198D01*
X55479208Y-84956355D01*
X55479211Y-84956357D01*
X55492786Y-84965862D01*
X55662251Y-85084523D01*
X55667233Y-85086846D01*
X55667238Y-85086849D01*
X55864775Y-85178961D01*
X55869757Y-85181284D01*
X55875065Y-85182706D01*
X55875067Y-85182707D01*
X56085598Y-85239119D01*
X56085600Y-85239119D01*
X56090913Y-85240543D01*
X56319000Y-85260498D01*
X56547087Y-85240543D01*
X56552400Y-85239119D01*
X56552402Y-85239119D01*
X56762933Y-85182707D01*
X56762935Y-85182706D01*
X56768243Y-85181284D01*
X56773225Y-85178961D01*
X56970762Y-85086849D01*
X56970767Y-85086846D01*
X56975749Y-85084523D01*
X57145214Y-84965862D01*
X57158789Y-84956357D01*
X57158792Y-84956355D01*
X57163300Y-84953198D01*
X57325198Y-84791300D01*
X57329402Y-84785297D01*
X57406887Y-84674636D01*
X57462344Y-84630308D01*
X57532963Y-84622999D01*
X57596324Y-84655030D01*
X57632309Y-84716231D01*
X57636100Y-84746907D01*
X57636100Y-87659633D01*
X57616098Y-87727754D01*
X57562442Y-87774247D01*
X57492168Y-87784351D01*
X57427588Y-87754857D01*
X57421005Y-87748728D01*
X57312776Y-87640499D01*
X57139558Y-87519211D01*
X57134580Y-87516890D01*
X57134577Y-87516888D01*
X56952892Y-87432167D01*
X56952891Y-87432166D01*
X56947910Y-87429844D01*
X56942602Y-87428422D01*
X56942600Y-87428421D01*
X56748970Y-87376538D01*
X56748968Y-87376538D01*
X56743655Y-87375114D01*
X56533000Y-87356684D01*
X56322345Y-87375114D01*
X56317032Y-87376538D01*
X56317030Y-87376538D01*
X56123400Y-87428421D01*
X56123398Y-87428422D01*
X56118090Y-87429844D01*
X56113109Y-87432166D01*
X56113108Y-87432167D01*
X55931423Y-87516888D01*
X55931420Y-87516890D01*
X55926442Y-87519211D01*
X55753224Y-87640499D01*
X55603699Y-87790024D01*
X55482411Y-87963242D01*
X55480090Y-87968220D01*
X55480088Y-87968223D01*
X55427968Y-88079995D01*
X55393044Y-88154890D01*
X55391622Y-88160198D01*
X55391621Y-88160200D01*
X55341485Y-88347309D01*
X55338314Y-88359145D01*
X55319884Y-88569800D01*
X55338314Y-88780455D01*
X55339738Y-88785768D01*
X55339738Y-88785770D01*
X55379822Y-88935363D01*
X55393044Y-88984710D01*
X55395366Y-88989691D01*
X55395367Y-88989692D01*
X55437193Y-89079387D01*
X55482411Y-89176358D01*
X55603699Y-89349576D01*
X55753224Y-89499101D01*
X55926442Y-89620389D01*
X55931420Y-89622710D01*
X55931423Y-89622712D01*
X55989259Y-89649681D01*
X56042544Y-89696598D01*
X56062005Y-89764876D01*
X56041463Y-89832835D01*
X55989258Y-89878071D01*
X55931677Y-89904921D01*
X55922189Y-89910398D01*
X55758058Y-90025325D01*
X55749650Y-90032381D01*
X55607981Y-90174050D01*
X55600925Y-90182458D01*
X55485998Y-90346589D01*
X55480521Y-90356077D01*
X55395842Y-90537673D01*
X55392092Y-90547977D01*
X55355134Y-90685903D01*
X55355470Y-90699999D01*
X55363412Y-90703400D01*
X56661000Y-90703400D01*
X56729121Y-90723402D01*
X56775614Y-90777058D01*
X56787000Y-90829400D01*
X56787000Y-91085400D01*
X56766998Y-91153521D01*
X56713342Y-91200014D01*
X56661000Y-91211400D01*
X55368561Y-91211400D01*
X55355030Y-91215373D01*
X55353801Y-91223922D01*
X55392092Y-91366823D01*
X55395842Y-91377127D01*
X55480521Y-91558723D01*
X55485998Y-91568211D01*
X55600925Y-91732342D01*
X55607981Y-91740750D01*
X55749650Y-91882419D01*
X55758058Y-91889475D01*
X55922189Y-92004402D01*
X55931677Y-92009879D01*
X56070964Y-92074829D01*
X56124250Y-92121746D01*
X56143711Y-92190023D01*
X56123169Y-92257983D01*
X56070966Y-92303218D01*
X56070373Y-92303495D01*
X55931423Y-92368288D01*
X55931420Y-92368290D01*
X55926442Y-92370611D01*
X55753224Y-92491899D01*
X55603699Y-92641424D01*
X55482411Y-92814642D01*
X55393044Y-93006290D01*
X55338314Y-93210545D01*
X55319884Y-93421200D01*
X55338314Y-93631855D01*
X55339738Y-93637168D01*
X55339738Y-93637170D01*
X55367182Y-93739590D01*
X55393044Y-93836110D01*
X55395366Y-93841091D01*
X55395367Y-93841092D01*
X55471815Y-94005034D01*
X55482411Y-94027758D01*
X55603699Y-94200976D01*
X55753224Y-94350501D01*
X55926442Y-94471789D01*
X55931420Y-94474110D01*
X55931423Y-94474112D01*
X56113108Y-94558833D01*
X56118090Y-94561156D01*
X56123398Y-94562578D01*
X56123400Y-94562579D01*
X56317030Y-94614462D01*
X56317032Y-94614462D01*
X56322345Y-94615886D01*
X56533000Y-94634316D01*
X56743655Y-94615886D01*
X56748968Y-94614462D01*
X56748970Y-94614462D01*
X56942600Y-94562579D01*
X56942602Y-94562578D01*
X56947910Y-94561156D01*
X56952892Y-94558833D01*
X57134577Y-94474112D01*
X57134580Y-94474110D01*
X57139558Y-94471789D01*
X57312776Y-94350501D01*
X57462301Y-94200976D01*
X57583589Y-94027758D01*
X57594186Y-94005034D01*
X57670633Y-93841092D01*
X57670634Y-93841091D01*
X57672956Y-93836110D01*
X57698819Y-93739590D01*
X57726262Y-93637170D01*
X57726262Y-93637168D01*
X57727686Y-93631855D01*
X57746116Y-93421200D01*
X57727686Y-93210545D01*
X57672956Y-93006290D01*
X57583589Y-92814642D01*
X57462301Y-92641424D01*
X57312776Y-92491899D01*
X57139558Y-92370611D01*
X57134580Y-92368290D01*
X57134577Y-92368288D01*
X56995627Y-92303495D01*
X56995034Y-92303219D01*
X56941750Y-92256302D01*
X56922289Y-92188025D01*
X56942831Y-92120065D01*
X56995036Y-92074829D01*
X57134323Y-92009879D01*
X57143811Y-92004402D01*
X57307942Y-91889475D01*
X57316350Y-91882419D01*
X57458017Y-91740752D01*
X57464700Y-91732788D01*
X57523811Y-91693463D01*
X57594799Y-91692339D01*
X57655125Y-91729771D01*
X57681087Y-91774950D01*
X57700249Y-91834099D01*
X57704045Y-91840355D01*
X57706551Y-91845828D01*
X57709270Y-91851258D01*
X57711767Y-91858137D01*
X57715780Y-91864257D01*
X57715780Y-91864258D01*
X57751786Y-91919176D01*
X57754123Y-91922880D01*
X57792005Y-91985307D01*
X57795721Y-91989515D01*
X57795722Y-91989516D01*
X57799403Y-91993684D01*
X57799376Y-91993708D01*
X57802029Y-91996700D01*
X57804732Y-91999933D01*
X57808744Y-92006052D01*
X57814056Y-92011084D01*
X57864983Y-92059328D01*
X57867425Y-92061706D01*
X60934997Y-95129278D01*
X60947383Y-95143690D01*
X60955916Y-95155285D01*
X60955921Y-95155290D01*
X60960259Y-95161185D01*
X60965837Y-95165924D01*
X60965840Y-95165927D01*
X61000535Y-95195402D01*
X61008051Y-95202332D01*
X61013746Y-95208027D01*
X61016628Y-95210307D01*
X61036018Y-95225648D01*
X61039422Y-95228439D01*
X61089470Y-95270958D01*
X61095052Y-95275700D01*
X61101568Y-95279028D01*
X61106617Y-95282395D01*
X61111746Y-95285562D01*
X61117483Y-95290101D01*
X61183642Y-95321022D01*
X61187536Y-95322925D01*
X61252575Y-95356136D01*
X61259683Y-95357875D01*
X61265326Y-95359974D01*
X61271089Y-95361891D01*
X61277717Y-95364989D01*
X61284879Y-95366479D01*
X61284880Y-95366479D01*
X61349179Y-95379853D01*
X61353463Y-95380823D01*
X61424377Y-95398175D01*
X61429979Y-95398523D01*
X61429982Y-95398523D01*
X61435531Y-95398867D01*
X61435529Y-95398903D01*
X61439522Y-95399142D01*
X61443714Y-95399516D01*
X61450882Y-95401007D01*
X61528287Y-95398913D01*
X61531695Y-95398867D01*
X65028196Y-95398867D01*
X65096317Y-95418869D01*
X65117291Y-95435772D01*
X65629403Y-95947884D01*
X65663429Y-96010196D01*
X65658364Y-96081011D01*
X65615817Y-96137847D01*
X65559367Y-96161529D01*
X65558714Y-96161629D01*
X65408891Y-96184555D01*
X65196556Y-96253957D01*
X64998407Y-96357107D01*
X64994274Y-96360210D01*
X64994271Y-96360212D01*
X64823900Y-96488130D01*
X64819765Y-96491235D01*
X64665429Y-96652738D01*
X64558001Y-96810221D01*
X64503093Y-96855221D01*
X64432568Y-96863392D01*
X64368821Y-96832138D01*
X64348124Y-96807654D01*
X64267622Y-96683217D01*
X64267620Y-96683214D01*
X64264814Y-96678877D01*
X64114470Y-96513651D01*
X64110419Y-96510452D01*
X64110415Y-96510448D01*
X63943214Y-96378400D01*
X63943210Y-96378398D01*
X63939159Y-96375198D01*
X63902828Y-96355142D01*
X63886936Y-96346369D01*
X63743589Y-96267238D01*
X63738720Y-96265514D01*
X63738716Y-96265512D01*
X63537887Y-96194395D01*
X63537883Y-96194394D01*
X63533012Y-96192669D01*
X63527919Y-96191762D01*
X63527916Y-96191761D01*
X63318173Y-96154400D01*
X63318167Y-96154399D01*
X63313084Y-96153494D01*
X63239252Y-96152592D01*
X63094881Y-96150828D01*
X63094879Y-96150828D01*
X63089711Y-96150765D01*
X62868891Y-96184555D01*
X62656556Y-96253957D01*
X62458407Y-96357107D01*
X62454274Y-96360210D01*
X62454271Y-96360212D01*
X62283900Y-96488130D01*
X62279765Y-96491235D01*
X62125429Y-96652738D01*
X62018004Y-96810218D01*
X62017698Y-96810666D01*
X61962787Y-96855669D01*
X61892262Y-96863840D01*
X61828515Y-96832586D01*
X61807818Y-96808102D01*
X61727226Y-96683526D01*
X61720936Y-96675357D01*
X61577606Y-96517840D01*
X61570073Y-96510815D01*
X61402939Y-96378822D01*
X61394352Y-96373117D01*
X61207917Y-96270199D01*
X61198505Y-96265969D01*
X60997759Y-96194880D01*
X60987788Y-96192246D01*
X60916637Y-96179572D01*
X60903340Y-96181032D01*
X60898800Y-96195589D01*
X60898800Y-98829117D01*
X60902864Y-98842959D01*
X60916278Y-98844993D01*
X60922984Y-98844134D01*
X60933062Y-98841992D01*
X61137055Y-98780791D01*
X61146642Y-98777033D01*
X61337895Y-98683339D01*
X61346745Y-98678064D01*
X61520128Y-98554392D01*
X61528000Y-98547739D01*
X61678852Y-98397412D01*
X61685530Y-98389565D01*
X61812822Y-98212419D01*
X61814079Y-98213322D01*
X61861173Y-98169962D01*
X61931111Y-98157745D01*
X61996551Y-98185278D01*
X62024379Y-98217111D01*
X62084787Y-98315688D01*
X62231050Y-98484538D01*
X62402926Y-98627232D01*
X62595800Y-98739938D01*
X62804492Y-98819630D01*
X62809560Y-98820661D01*
X62809563Y-98820662D01*
X62904662Y-98840010D01*
X63023397Y-98864167D01*
X63028572Y-98864357D01*
X63028574Y-98864357D01*
X63241473Y-98872164D01*
X63241477Y-98872164D01*
X63246637Y-98872353D01*
X63251757Y-98871697D01*
X63251759Y-98871697D01*
X63463088Y-98844625D01*
X63463089Y-98844625D01*
X63468216Y-98843968D01*
X63473166Y-98842483D01*
X63677229Y-98781261D01*
X63677234Y-98781259D01*
X63682184Y-98779774D01*
X63882794Y-98681496D01*
X64064660Y-98551773D01*
X64222896Y-98394089D01*
X64353253Y-98212677D01*
X64354576Y-98213628D01*
X64401445Y-98170457D01*
X64471380Y-98158225D01*
X64536826Y-98185744D01*
X64564675Y-98217594D01*
X64624787Y-98315688D01*
X64771050Y-98484538D01*
X64942926Y-98627232D01*
X65135800Y-98739938D01*
X65344492Y-98819630D01*
X65349560Y-98820661D01*
X65349563Y-98820662D01*
X65444662Y-98840010D01*
X65563397Y-98864167D01*
X65568572Y-98864357D01*
X65568574Y-98864357D01*
X65781473Y-98872164D01*
X65781477Y-98872164D01*
X65786637Y-98872353D01*
X65791757Y-98871697D01*
X65791759Y-98871697D01*
X66003088Y-98844625D01*
X66003089Y-98844625D01*
X66008216Y-98843968D01*
X66013166Y-98842483D01*
X66217229Y-98781261D01*
X66217234Y-98781259D01*
X66222184Y-98779774D01*
X66422794Y-98681496D01*
X66604660Y-98551773D01*
X66762896Y-98394089D01*
X66893253Y-98212677D01*
X66894576Y-98213628D01*
X66941445Y-98170457D01*
X67011380Y-98158225D01*
X67076826Y-98185744D01*
X67104675Y-98217594D01*
X67164787Y-98315688D01*
X67311050Y-98484538D01*
X67482926Y-98627232D01*
X67675800Y-98739938D01*
X67884492Y-98819630D01*
X67889560Y-98820661D01*
X67889563Y-98820662D01*
X67984662Y-98840010D01*
X68103397Y-98864167D01*
X68108572Y-98864357D01*
X68108574Y-98864357D01*
X68321473Y-98872164D01*
X68321477Y-98872164D01*
X68326637Y-98872353D01*
X68331757Y-98871697D01*
X68331759Y-98871697D01*
X68543088Y-98844625D01*
X68543089Y-98844625D01*
X68548216Y-98843968D01*
X68553166Y-98842483D01*
X68757229Y-98781261D01*
X68757234Y-98781259D01*
X68762184Y-98779774D01*
X68962794Y-98681496D01*
X69144660Y-98551773D01*
X69302896Y-98394089D01*
X69433253Y-98212677D01*
X69434576Y-98213628D01*
X69481445Y-98170457D01*
X69551380Y-98158225D01*
X69616826Y-98185744D01*
X69644675Y-98217594D01*
X69704787Y-98315688D01*
X69851050Y-98484538D01*
X70022926Y-98627232D01*
X70215800Y-98739938D01*
X70424492Y-98819630D01*
X70429560Y-98820661D01*
X70429563Y-98820662D01*
X70524662Y-98840010D01*
X70643397Y-98864167D01*
X70648572Y-98864357D01*
X70648574Y-98864357D01*
X70861473Y-98872164D01*
X70861477Y-98872164D01*
X70866637Y-98872353D01*
X70871757Y-98871697D01*
X70871759Y-98871697D01*
X71083088Y-98844625D01*
X71083089Y-98844625D01*
X71088216Y-98843968D01*
X71093166Y-98842483D01*
X71297229Y-98781261D01*
X71297234Y-98781259D01*
X71302184Y-98779774D01*
X71502794Y-98681496D01*
X71684660Y-98551773D01*
X71842896Y-98394089D01*
X71973253Y-98212677D01*
X71974576Y-98213628D01*
X72021445Y-98170457D01*
X72091380Y-98158225D01*
X72156826Y-98185744D01*
X72184675Y-98217594D01*
X72244787Y-98315688D01*
X72391050Y-98484538D01*
X72562926Y-98627232D01*
X72755800Y-98739938D01*
X72964492Y-98819630D01*
X72969560Y-98820661D01*
X72969563Y-98820662D01*
X73064662Y-98840010D01*
X73183397Y-98864167D01*
X73188572Y-98864357D01*
X73188574Y-98864357D01*
X73401473Y-98872164D01*
X73401477Y-98872164D01*
X73406637Y-98872353D01*
X73411757Y-98871697D01*
X73411759Y-98871697D01*
X73623088Y-98844625D01*
X73623089Y-98844625D01*
X73628216Y-98843968D01*
X73633166Y-98842483D01*
X73837229Y-98781261D01*
X73837234Y-98781259D01*
X73842184Y-98779774D01*
X74042794Y-98681496D01*
X74224660Y-98551773D01*
X74382896Y-98394089D01*
X74513253Y-98212677D01*
X74514576Y-98213628D01*
X74561445Y-98170457D01*
X74631380Y-98158225D01*
X74696826Y-98185744D01*
X74724675Y-98217594D01*
X74784787Y-98315688D01*
X74931050Y-98484538D01*
X75102926Y-98627232D01*
X75295800Y-98739938D01*
X75504492Y-98819630D01*
X75509560Y-98820661D01*
X75509563Y-98820662D01*
X75604662Y-98840010D01*
X75723397Y-98864167D01*
X75728572Y-98864357D01*
X75728574Y-98864357D01*
X75941473Y-98872164D01*
X75941477Y-98872164D01*
X75946637Y-98872353D01*
X75951757Y-98871697D01*
X75951759Y-98871697D01*
X76163088Y-98844625D01*
X76163089Y-98844625D01*
X76168216Y-98843968D01*
X76173166Y-98842483D01*
X76377229Y-98781261D01*
X76377234Y-98781259D01*
X76382184Y-98779774D01*
X76582794Y-98681496D01*
X76764660Y-98551773D01*
X76922896Y-98394089D01*
X77053253Y-98212677D01*
X77066795Y-98185278D01*
X77149936Y-98017053D01*
X77149937Y-98017051D01*
X77152230Y-98012411D01*
X77217170Y-97798669D01*
X77246329Y-97577190D01*
X77247956Y-97510600D01*
X77229652Y-97287961D01*
X77175231Y-97071302D01*
X77086154Y-96866440D01*
X76964814Y-96678877D01*
X76814470Y-96513651D01*
X76810419Y-96510452D01*
X76810415Y-96510448D01*
X76643214Y-96378400D01*
X76643210Y-96378398D01*
X76639159Y-96375198D01*
X76602828Y-96355142D01*
X76586936Y-96346369D01*
X76443589Y-96267238D01*
X76438720Y-96265514D01*
X76438716Y-96265512D01*
X76237887Y-96194395D01*
X76237883Y-96194394D01*
X76233012Y-96192669D01*
X76227919Y-96191762D01*
X76227916Y-96191761D01*
X76018173Y-96154400D01*
X76018167Y-96154399D01*
X76013084Y-96153494D01*
X75939252Y-96152592D01*
X75794881Y-96150828D01*
X75794879Y-96150828D01*
X75789711Y-96150765D01*
X75568891Y-96184555D01*
X75356556Y-96253957D01*
X75158407Y-96357107D01*
X75154274Y-96360210D01*
X75154271Y-96360212D01*
X74983900Y-96488130D01*
X74979765Y-96491235D01*
X74825429Y-96652738D01*
X74718001Y-96810221D01*
X74663093Y-96855221D01*
X74592568Y-96863392D01*
X74528821Y-96832138D01*
X74508124Y-96807654D01*
X74427622Y-96683217D01*
X74427620Y-96683214D01*
X74424814Y-96678877D01*
X74274470Y-96513651D01*
X74270419Y-96510452D01*
X74270415Y-96510448D01*
X74103214Y-96378400D01*
X74103210Y-96378398D01*
X74099159Y-96375198D01*
X74062828Y-96355142D01*
X74046936Y-96346369D01*
X73903589Y-96267238D01*
X73898720Y-96265514D01*
X73898716Y-96265512D01*
X73697887Y-96194395D01*
X73697883Y-96194394D01*
X73693012Y-96192669D01*
X73687919Y-96191762D01*
X73687916Y-96191761D01*
X73478173Y-96154400D01*
X73478167Y-96154399D01*
X73473084Y-96153494D01*
X73399252Y-96152592D01*
X73254881Y-96150828D01*
X73254879Y-96150828D01*
X73249711Y-96150765D01*
X73028891Y-96184555D01*
X72816556Y-96253957D01*
X72618407Y-96357107D01*
X72614274Y-96360210D01*
X72614271Y-96360212D01*
X72443900Y-96488130D01*
X72439765Y-96491235D01*
X72285429Y-96652738D01*
X72178001Y-96810221D01*
X72123093Y-96855221D01*
X72052568Y-96863392D01*
X71988821Y-96832138D01*
X71968124Y-96807654D01*
X71887622Y-96683217D01*
X71887620Y-96683214D01*
X71884814Y-96678877D01*
X71734470Y-96513651D01*
X71730419Y-96510452D01*
X71730415Y-96510448D01*
X71563214Y-96378400D01*
X71563210Y-96378398D01*
X71559159Y-96375198D01*
X71522828Y-96355142D01*
X71506936Y-96346369D01*
X71363589Y-96267238D01*
X71358720Y-96265514D01*
X71358716Y-96265512D01*
X71157887Y-96194395D01*
X71157883Y-96194394D01*
X71153012Y-96192669D01*
X71147919Y-96191762D01*
X71147916Y-96191761D01*
X70938173Y-96154400D01*
X70938167Y-96154399D01*
X70933084Y-96153494D01*
X70859252Y-96152592D01*
X70714881Y-96150828D01*
X70714879Y-96150828D01*
X70709711Y-96150765D01*
X70488891Y-96184555D01*
X70276556Y-96253957D01*
X70078407Y-96357107D01*
X70074274Y-96360210D01*
X70074271Y-96360212D01*
X69903900Y-96488130D01*
X69899765Y-96491235D01*
X69745429Y-96652738D01*
X69638001Y-96810221D01*
X69583093Y-96855221D01*
X69512568Y-96863392D01*
X69448821Y-96832138D01*
X69428124Y-96807654D01*
X69347622Y-96683217D01*
X69347620Y-96683214D01*
X69344814Y-96678877D01*
X69194470Y-96513651D01*
X69190419Y-96510452D01*
X69190415Y-96510448D01*
X69023214Y-96378400D01*
X69023210Y-96378398D01*
X69019159Y-96375198D01*
X68982828Y-96355142D01*
X68966936Y-96346369D01*
X68823589Y-96267238D01*
X68818720Y-96265514D01*
X68818716Y-96265512D01*
X68617887Y-96194395D01*
X68617883Y-96194394D01*
X68613012Y-96192669D01*
X68607919Y-96191762D01*
X68607916Y-96191761D01*
X68398173Y-96154400D01*
X68398167Y-96154399D01*
X68393084Y-96153494D01*
X68322570Y-96152633D01*
X68174882Y-96150828D01*
X68174880Y-96150828D01*
X68169711Y-96150765D01*
X68145956Y-96154400D01*
X68066185Y-96166606D01*
X67995823Y-96157138D01*
X67958032Y-96131151D01*
X65978337Y-94151456D01*
X65965951Y-94137044D01*
X65957418Y-94125449D01*
X65957413Y-94125444D01*
X65953075Y-94119549D01*
X65947497Y-94114810D01*
X65947494Y-94114807D01*
X65912799Y-94085332D01*
X65905283Y-94078402D01*
X65899588Y-94072707D01*
X65893447Y-94067849D01*
X65877316Y-94055086D01*
X65873912Y-94052295D01*
X65823864Y-94009776D01*
X65823862Y-94009775D01*
X65818282Y-94005034D01*
X65811766Y-94001706D01*
X65806717Y-93998339D01*
X65801588Y-93995172D01*
X65795851Y-93990633D01*
X65729692Y-93959712D01*
X65725792Y-93957806D01*
X65660759Y-93924598D01*
X65653651Y-93922859D01*
X65648008Y-93920760D01*
X65642245Y-93918843D01*
X65635617Y-93915745D01*
X65564150Y-93900880D01*
X65559866Y-93899910D01*
X65488957Y-93882559D01*
X65483355Y-93882211D01*
X65483352Y-93882211D01*
X65477803Y-93881867D01*
X65477805Y-93881831D01*
X65473812Y-93881592D01*
X65469620Y-93881218D01*
X65462452Y-93879727D01*
X65453162Y-93879978D01*
X65448770Y-93880097D01*
X65380134Y-93861944D01*
X65332207Y-93809565D01*
X65320207Y-93739590D01*
X65323657Y-93721532D01*
X65346262Y-93637170D01*
X65346262Y-93637168D01*
X65347686Y-93631855D01*
X65366116Y-93421200D01*
X65347686Y-93210545D01*
X65292956Y-93006290D01*
X65203589Y-92814642D01*
X65082301Y-92641424D01*
X64932776Y-92491899D01*
X64759558Y-92370611D01*
X64754580Y-92368290D01*
X64754577Y-92368288D01*
X64615627Y-92303495D01*
X64562342Y-92256578D01*
X64542881Y-92188301D01*
X64563423Y-92120341D01*
X64615627Y-92075105D01*
X64644362Y-92061706D01*
X64752921Y-92011084D01*
X64754577Y-92010312D01*
X64754580Y-92010310D01*
X64759558Y-92007989D01*
X64932776Y-91886701D01*
X65082301Y-91737176D01*
X65203589Y-91563958D01*
X65211348Y-91547320D01*
X65290633Y-91377292D01*
X65290634Y-91377291D01*
X65292956Y-91372310D01*
X65332717Y-91223922D01*
X65346262Y-91173370D01*
X65346262Y-91173368D01*
X65347686Y-91168055D01*
X65366116Y-90957400D01*
X65347686Y-90746745D01*
X65343322Y-90730459D01*
X65294379Y-90547800D01*
X65294378Y-90547798D01*
X65292956Y-90542490D01*
X65283310Y-90521804D01*
X65205912Y-90355823D01*
X65205910Y-90355820D01*
X65203589Y-90350842D01*
X65082301Y-90177624D01*
X64932776Y-90028099D01*
X64759558Y-89906811D01*
X64754580Y-89904490D01*
X64754577Y-89904488D01*
X64697333Y-89877795D01*
X64644048Y-89830878D01*
X64624587Y-89762600D01*
X64645129Y-89694640D01*
X64697333Y-89649405D01*
X64754577Y-89622712D01*
X64754580Y-89622710D01*
X64759558Y-89620389D01*
X64932776Y-89499101D01*
X65082301Y-89349576D01*
X65203589Y-89176358D01*
X65248808Y-89079387D01*
X65290633Y-88989692D01*
X65290634Y-88989691D01*
X65292956Y-88984710D01*
X65306179Y-88935363D01*
X65346262Y-88785770D01*
X65346262Y-88785768D01*
X65347686Y-88780455D01*
X65366116Y-88569800D01*
X65347686Y-88359145D01*
X65344515Y-88347309D01*
X65294379Y-88160200D01*
X65294378Y-88160198D01*
X65292956Y-88154890D01*
X65258032Y-88079995D01*
X65205912Y-87968223D01*
X65205910Y-87968220D01*
X65203589Y-87963242D01*
X65082301Y-87790024D01*
X64932776Y-87640499D01*
X64759558Y-87519211D01*
X64754580Y-87516890D01*
X64754577Y-87516888D01*
X64572892Y-87432167D01*
X64572891Y-87432166D01*
X64567910Y-87429844D01*
X64562602Y-87428422D01*
X64562600Y-87428421D01*
X64368970Y-87376538D01*
X64368968Y-87376538D01*
X64363655Y-87375114D01*
X64153000Y-87356684D01*
X63942345Y-87375114D01*
X63937032Y-87376538D01*
X63937030Y-87376538D01*
X63743400Y-87428421D01*
X63743398Y-87428422D01*
X63738090Y-87429844D01*
X63733109Y-87432166D01*
X63733108Y-87432167D01*
X63551423Y-87516888D01*
X63551420Y-87516890D01*
X63546442Y-87519211D01*
X63373224Y-87640499D01*
X63223699Y-87790024D01*
X63102411Y-87963242D01*
X63100090Y-87968220D01*
X63100088Y-87968223D01*
X63047968Y-88079995D01*
X63013044Y-88154890D01*
X63011622Y-88160198D01*
X63011621Y-88160200D01*
X62961485Y-88347309D01*
X62958314Y-88359145D01*
X62939884Y-88569800D01*
X62958314Y-88780455D01*
X62959738Y-88785768D01*
X62959738Y-88785770D01*
X62999822Y-88935363D01*
X63013044Y-88984710D01*
X63015366Y-88989691D01*
X63015367Y-88989692D01*
X63057193Y-89079387D01*
X63102411Y-89176358D01*
X63223699Y-89349576D01*
X63373224Y-89499101D01*
X63546442Y-89620389D01*
X63551420Y-89622710D01*
X63551423Y-89622712D01*
X63608667Y-89649405D01*
X63661952Y-89696322D01*
X63681413Y-89764600D01*
X63660871Y-89832560D01*
X63608667Y-89877795D01*
X63551423Y-89904488D01*
X63551420Y-89904490D01*
X63546442Y-89906811D01*
X63373224Y-90028099D01*
X63223699Y-90177624D01*
X63102411Y-90350842D01*
X63100090Y-90355820D01*
X63100088Y-90355823D01*
X63022690Y-90521804D01*
X63013044Y-90542490D01*
X63011622Y-90547798D01*
X63011621Y-90547800D01*
X62962678Y-90730459D01*
X62958314Y-90746745D01*
X62939884Y-90957400D01*
X62958314Y-91168055D01*
X62959738Y-91173368D01*
X62959738Y-91173370D01*
X62973284Y-91223922D01*
X63013044Y-91372310D01*
X63015366Y-91377291D01*
X63015367Y-91377292D01*
X63094653Y-91547320D01*
X63102411Y-91563958D01*
X63223699Y-91737176D01*
X63373224Y-91886701D01*
X63546442Y-92007989D01*
X63551420Y-92010310D01*
X63551423Y-92010312D01*
X63553079Y-92011084D01*
X63661639Y-92061706D01*
X63690373Y-92075105D01*
X63743658Y-92122022D01*
X63763119Y-92190299D01*
X63742577Y-92258259D01*
X63690373Y-92303495D01*
X63551423Y-92368288D01*
X63551420Y-92368290D01*
X63546442Y-92370611D01*
X63373224Y-92491899D01*
X63223699Y-92641424D01*
X63102411Y-92814642D01*
X63013044Y-93006290D01*
X62958314Y-93210545D01*
X62939884Y-93421200D01*
X62958314Y-93631855D01*
X62959738Y-93637168D01*
X62959738Y-93637170D01*
X62982805Y-93723256D01*
X62981115Y-93794232D01*
X62941321Y-93853028D01*
X62876057Y-93880976D01*
X62861098Y-93881867D01*
X61885138Y-93881867D01*
X61817017Y-93861865D01*
X61796043Y-93844962D01*
X59190005Y-91238924D01*
X59155979Y-91176612D01*
X59153100Y-91149829D01*
X59153100Y-77867270D01*
X59154533Y-77848320D01*
X59156699Y-77834085D01*
X59156699Y-77834081D01*
X59157799Y-77826851D01*
X59153515Y-77774182D01*
X59153100Y-77763967D01*
X59153100Y-77755907D01*
X59149809Y-77727680D01*
X59149378Y-77723321D01*
X59149096Y-77719846D01*
X59146225Y-77684557D01*
X59144054Y-77657862D01*
X59144053Y-77657859D01*
X59143460Y-77650564D01*
X59141204Y-77643600D01*
X59140017Y-77637661D01*
X59138630Y-77631790D01*
X59137782Y-77624519D01*
X59135286Y-77617643D01*
X59135284Y-77617634D01*
X59112875Y-77555902D01*
X59111465Y-77551798D01*
X59088952Y-77482301D01*
X59085156Y-77476046D01*
X59082657Y-77470587D01*
X59079929Y-77465139D01*
X59077433Y-77458263D01*
X59037405Y-77397210D01*
X59035081Y-77393527D01*
X59026304Y-77379062D01*
X58997195Y-77331093D01*
X58989798Y-77322717D01*
X58989825Y-77322693D01*
X58987170Y-77319699D01*
X58984468Y-77316468D01*
X58980456Y-77310348D01*
X58924217Y-77257072D01*
X58921775Y-77254694D01*
X58444970Y-76777889D01*
X58432584Y-76763477D01*
X58424051Y-76751882D01*
X58424046Y-76751877D01*
X58419708Y-76745982D01*
X58414130Y-76741243D01*
X58414127Y-76741240D01*
X58379432Y-76711765D01*
X58371916Y-76704835D01*
X58366221Y-76699140D01*
X58359037Y-76693456D01*
X58343949Y-76681519D01*
X58340545Y-76678728D01*
X58290497Y-76636209D01*
X58290495Y-76636208D01*
X58284915Y-76631467D01*
X58278399Y-76628139D01*
X58273350Y-76624772D01*
X58268221Y-76621605D01*
X58262484Y-76617066D01*
X58196325Y-76586145D01*
X58192425Y-76584239D01*
X58127392Y-76551031D01*
X58120284Y-76549292D01*
X58114641Y-76547193D01*
X58108878Y-76545276D01*
X58102250Y-76542178D01*
X58030783Y-76527313D01*
X58026499Y-76526343D01*
X58012036Y-76522804D01*
X57955590Y-76508992D01*
X57949988Y-76508644D01*
X57949985Y-76508644D01*
X57944436Y-76508300D01*
X57944438Y-76508264D01*
X57940445Y-76508025D01*
X57936253Y-76507651D01*
X57929085Y-76506160D01*
X57862875Y-76507951D01*
X57851679Y-76508254D01*
X57848272Y-76508300D01*
X57535767Y-76508300D01*
X57467646Y-76488298D01*
X57446672Y-76471395D01*
X57312776Y-76337499D01*
X57139558Y-76216211D01*
X57134580Y-76213890D01*
X57134577Y-76213888D01*
X56952892Y-76129167D01*
X56952891Y-76129166D01*
X56947910Y-76126844D01*
X56942602Y-76125422D01*
X56942600Y-76125421D01*
X56748970Y-76073538D01*
X56748968Y-76073538D01*
X56743655Y-76072114D01*
X56533000Y-76053684D01*
X56322345Y-76072114D01*
X56317032Y-76073538D01*
X56317030Y-76073538D01*
X56123400Y-76125421D01*
X56123398Y-76125422D01*
X56118090Y-76126844D01*
X56113109Y-76129166D01*
X56113108Y-76129167D01*
X55931423Y-76213888D01*
X55931420Y-76213890D01*
X55926442Y-76216211D01*
X55753224Y-76337499D01*
X55603699Y-76487024D01*
X55482411Y-76660242D01*
X55480090Y-76665220D01*
X55480088Y-76665223D01*
X55430696Y-76771145D01*
X55393044Y-76851890D01*
X55338314Y-77056145D01*
X55319884Y-77266800D01*
X55338314Y-77477455D01*
X55339738Y-77482768D01*
X55339738Y-77482770D01*
X55388455Y-77664582D01*
X55393044Y-77681710D01*
X55395366Y-77686691D01*
X55395367Y-77686692D01*
X55470736Y-77848320D01*
X55482411Y-77873358D01*
X55603699Y-78046576D01*
X55753224Y-78196101D01*
X55926442Y-78317389D01*
X55931420Y-78319710D01*
X55931423Y-78319712D01*
X56113101Y-78404430D01*
X56113105Y-78404431D01*
X56117906Y-78406670D01*
X56117907Y-78406671D01*
X56118090Y-78406756D01*
X56118073Y-78406793D01*
X56173757Y-78447792D01*
X56199096Y-78514114D01*
X56184556Y-78583605D01*
X56134754Y-78634205D01*
X56120057Y-78640917D01*
X56118090Y-78641444D01*
X56113105Y-78643769D01*
X56113101Y-78643770D01*
X55931423Y-78728488D01*
X55931420Y-78728490D01*
X55926442Y-78730811D01*
X55753224Y-78852099D01*
X55603699Y-79001624D01*
X55482411Y-79174842D01*
X55480090Y-79179820D01*
X55480088Y-79179823D01*
X55435981Y-79274411D01*
X55393044Y-79366490D01*
X55391622Y-79371798D01*
X55391621Y-79371800D01*
X55348267Y-79533601D01*
X55338314Y-79570745D01*
X55319884Y-79781400D01*
X55338314Y-79992055D01*
X55339738Y-79997368D01*
X55339738Y-79997370D01*
X55375714Y-80131632D01*
X55393044Y-80196310D01*
X55395366Y-80201291D01*
X55395367Y-80201292D01*
X55447809Y-80313753D01*
X55482411Y-80387958D01*
X55603699Y-80561176D01*
X55753224Y-80710701D01*
X55926442Y-80831989D01*
X55931420Y-80834310D01*
X55931423Y-80834312D01*
X56068749Y-80898348D01*
X56118090Y-80921356D01*
X56123398Y-80922778D01*
X56123400Y-80922779D01*
X56317030Y-80974662D01*
X56317032Y-80974662D01*
X56322345Y-80976086D01*
X56533000Y-80994516D01*
X56743655Y-80976086D01*
X56748968Y-80974662D01*
X56748970Y-80974662D01*
X56942600Y-80922779D01*
X56942602Y-80922778D01*
X56947910Y-80921356D01*
X56997251Y-80898348D01*
X57134577Y-80834312D01*
X57134580Y-80834310D01*
X57139558Y-80831989D01*
X57312776Y-80710701D01*
X57421005Y-80602472D01*
X57483317Y-80568446D01*
X57554132Y-80573511D01*
X57610968Y-80616058D01*
X57635779Y-80682578D01*
X57636100Y-80691567D01*
X57636100Y-83147093D01*
X57616098Y-83215214D01*
X57562442Y-83261707D01*
X57492168Y-83271811D01*
X57427588Y-83242317D01*
X57406887Y-83219364D01*
X57394793Y-83202091D01*
X57357429Y-83148730D01*
X57328357Y-83107211D01*
X57328355Y-83107208D01*
X57325198Y-83102700D01*
X57163300Y-82940802D01*
X57158792Y-82937645D01*
X57158789Y-82937643D01*
X57066048Y-82872705D01*
X56975749Y-82809477D01*
X56970767Y-82807154D01*
X56970762Y-82807151D01*
X56773225Y-82715039D01*
X56773224Y-82715039D01*
X56768243Y-82712716D01*
X56762935Y-82711294D01*
X56762933Y-82711293D01*
X56552402Y-82654881D01*
X56552400Y-82654881D01*
X56547087Y-82653457D01*
X56319000Y-82633502D01*
X56090913Y-82653457D01*
X56085600Y-82654881D01*
X56085598Y-82654881D01*
X55875067Y-82711293D01*
X55875065Y-82711294D01*
X55869757Y-82712716D01*
X55864776Y-82715039D01*
X55864775Y-82715039D01*
X55667238Y-82807151D01*
X55667233Y-82807154D01*
X55662251Y-82809477D01*
X55571952Y-82872705D01*
X55479211Y-82937643D01*
X55479208Y-82937645D01*
X55474700Y-82940802D01*
X55312802Y-83102700D01*
X55309645Y-83107208D01*
X55309643Y-83107211D01*
X55280571Y-83148730D01*
X55181477Y-83290251D01*
X55179154Y-83295233D01*
X55179151Y-83295238D01*
X55089010Y-83488548D01*
X55084716Y-83497757D01*
X55083294Y-83503065D01*
X55083293Y-83503067D01*
X55061407Y-83584747D01*
X55024455Y-83645370D01*
X54960594Y-83676391D01*
X54890100Y-83667963D01*
X54835353Y-83622760D01*
X54813700Y-83552136D01*
X54813700Y-74320605D01*
X56544500Y-74320605D01*
X56551255Y-74382787D01*
X56602385Y-74519176D01*
X56689739Y-74635732D01*
X56806295Y-74723086D01*
X56942684Y-74774216D01*
X57004866Y-74780971D01*
X58601134Y-74780971D01*
X58663316Y-74774216D01*
X58799705Y-74723086D01*
X58916261Y-74635732D01*
X59003615Y-74519176D01*
X59054745Y-74382787D01*
X59061500Y-74320605D01*
X59061500Y-74286047D01*
X59081502Y-74217926D01*
X59135158Y-74171433D01*
X59205432Y-74161329D01*
X59270012Y-74190823D01*
X59290713Y-74213776D01*
X59364499Y-74319153D01*
X59375251Y-74334509D01*
X59530962Y-74490220D01*
X59535471Y-74493377D01*
X59539496Y-74496755D01*
X59578819Y-74555866D01*
X59584500Y-74593273D01*
X59584500Y-75904330D01*
X59583067Y-75923280D01*
X59581170Y-75935753D01*
X59579801Y-75944749D01*
X59580394Y-75952041D01*
X59580394Y-75952044D01*
X59584085Y-75997418D01*
X59584500Y-76007633D01*
X59584500Y-76015693D01*
X59585884Y-76027568D01*
X59587789Y-76043907D01*
X59588222Y-76048282D01*
X59593117Y-76108458D01*
X59594140Y-76121037D01*
X59596396Y-76128001D01*
X59597587Y-76133960D01*
X59598971Y-76139815D01*
X59599818Y-76147081D01*
X59624735Y-76215727D01*
X59626152Y-76219855D01*
X59644028Y-76275034D01*
X59648649Y-76289299D01*
X59652445Y-76295554D01*
X59654951Y-76301028D01*
X59657670Y-76306458D01*
X59660167Y-76313337D01*
X59664180Y-76319457D01*
X59664180Y-76319458D01*
X59700186Y-76374376D01*
X59702523Y-76378080D01*
X59740405Y-76440507D01*
X59744121Y-76444715D01*
X59744122Y-76444716D01*
X59747803Y-76448884D01*
X59747776Y-76448908D01*
X59750429Y-76451900D01*
X59753132Y-76455133D01*
X59757144Y-76461252D01*
X59762456Y-76466284D01*
X59813383Y-76514528D01*
X59815825Y-76516906D01*
X62909635Y-79610716D01*
X62943661Y-79673028D01*
X62946061Y-79710792D01*
X62940363Y-79775924D01*
X62939884Y-79781400D01*
X62958314Y-79992055D01*
X62959738Y-79997368D01*
X62959738Y-79997370D01*
X62995714Y-80131632D01*
X63013044Y-80196310D01*
X63015367Y-80201292D01*
X63015369Y-80201297D01*
X63015694Y-80201994D01*
X63015805Y-80202495D01*
X63017250Y-80206465D01*
X63016727Y-80206655D01*
X63027500Y-80255245D01*
X63027500Y-83080609D01*
X63007498Y-83148730D01*
X62984580Y-83175338D01*
X62982821Y-83176881D01*
X62978478Y-83180690D01*
X62974911Y-83185215D01*
X62974906Y-83185220D01*
X62914609Y-83261707D01*
X62852351Y-83340681D01*
X62849662Y-83345792D01*
X62849660Y-83345795D01*
X62773288Y-83490954D01*
X62723869Y-83541926D01*
X62654736Y-83558089D01*
X62587840Y-83534310D01*
X62547585Y-83485535D01*
X62458851Y-83295242D01*
X62458847Y-83295236D01*
X62456523Y-83290251D01*
X62357429Y-83148730D01*
X62328357Y-83107211D01*
X62328355Y-83107208D01*
X62325198Y-83102700D01*
X62163300Y-82940802D01*
X62158792Y-82937645D01*
X62158789Y-82937643D01*
X62066048Y-82872705D01*
X61975749Y-82809477D01*
X61970767Y-82807154D01*
X61970762Y-82807151D01*
X61773225Y-82715039D01*
X61773224Y-82715039D01*
X61768243Y-82712716D01*
X61762935Y-82711294D01*
X61762933Y-82711293D01*
X61552402Y-82654881D01*
X61552400Y-82654881D01*
X61547087Y-82653457D01*
X61319000Y-82633502D01*
X61090913Y-82653457D01*
X61085600Y-82654881D01*
X61085598Y-82654881D01*
X60875067Y-82711293D01*
X60875065Y-82711294D01*
X60869757Y-82712716D01*
X60864776Y-82715039D01*
X60864775Y-82715039D01*
X60667238Y-82807151D01*
X60667233Y-82807154D01*
X60662251Y-82809477D01*
X60571952Y-82872705D01*
X60479211Y-82937643D01*
X60479208Y-82937645D01*
X60474700Y-82940802D01*
X60312802Y-83102700D01*
X60309645Y-83107208D01*
X60309643Y-83107211D01*
X60280571Y-83148730D01*
X60181477Y-83290251D01*
X60179154Y-83295233D01*
X60179151Y-83295238D01*
X60089010Y-83488548D01*
X60084716Y-83497757D01*
X60083294Y-83503065D01*
X60083293Y-83503067D01*
X60026881Y-83713598D01*
X60025457Y-83718913D01*
X60005502Y-83947000D01*
X60025457Y-84175087D01*
X60026881Y-84180400D01*
X60026881Y-84180402D01*
X60073410Y-84354047D01*
X60084716Y-84396243D01*
X60087039Y-84401224D01*
X60087039Y-84401225D01*
X60179151Y-84598762D01*
X60179154Y-84598767D01*
X60181477Y-84603749D01*
X60230684Y-84674024D01*
X60308599Y-84785297D01*
X60312802Y-84791300D01*
X60474700Y-84953198D01*
X60479208Y-84956355D01*
X60479211Y-84956357D01*
X60492786Y-84965862D01*
X60662251Y-85084523D01*
X60667233Y-85086846D01*
X60667238Y-85086849D01*
X60864775Y-85178961D01*
X60869757Y-85181284D01*
X60875065Y-85182706D01*
X60875067Y-85182707D01*
X61085598Y-85239119D01*
X61085600Y-85239119D01*
X61090913Y-85240543D01*
X61319000Y-85260498D01*
X61547087Y-85240543D01*
X61552400Y-85239119D01*
X61552402Y-85239119D01*
X61762933Y-85182707D01*
X61762935Y-85182706D01*
X61768243Y-85181284D01*
X61773225Y-85178961D01*
X61970762Y-85086849D01*
X61970767Y-85086846D01*
X61975749Y-85084523D01*
X62145214Y-84965862D01*
X62158789Y-84956357D01*
X62158792Y-84956355D01*
X62163300Y-84953198D01*
X62325198Y-84791300D01*
X62329402Y-84785297D01*
X62407316Y-84674024D01*
X62456523Y-84603749D01*
X62548617Y-84406250D01*
X62595534Y-84352966D01*
X62663811Y-84333505D01*
X62731771Y-84354047D01*
X62777238Y-84406749D01*
X62821898Y-84503624D01*
X62939479Y-84669997D01*
X62943613Y-84674024D01*
X63066469Y-84793705D01*
X63085410Y-84812157D01*
X63090206Y-84815362D01*
X63090209Y-84815364D01*
X63148204Y-84854115D01*
X63254803Y-84925342D01*
X63260106Y-84927620D01*
X63260109Y-84927622D01*
X63436680Y-85003483D01*
X63441987Y-85005763D01*
X63514817Y-85022243D01*
X63635055Y-85049450D01*
X63635060Y-85049451D01*
X63640692Y-85050725D01*
X63646463Y-85050952D01*
X63646465Y-85050952D01*
X63709470Y-85053427D01*
X63844263Y-85058723D01*
X64045883Y-85029490D01*
X64051347Y-85027635D01*
X64051352Y-85027634D01*
X64233327Y-84965862D01*
X64233332Y-84965860D01*
X64238799Y-84964004D01*
X64258095Y-84953198D01*
X64334764Y-84910261D01*
X64416551Y-84864458D01*
X64545621Y-84757111D01*
X64610786Y-84728930D01*
X64680841Y-84740454D01*
X64734520Y-84791398D01*
X64735385Y-84793705D01*
X64822739Y-84910261D01*
X64939295Y-84997615D01*
X65075684Y-85048745D01*
X65137866Y-85055500D01*
X66434134Y-85055500D01*
X66496316Y-85048745D01*
X66632705Y-84997615D01*
X66749261Y-84910261D01*
X66836615Y-84793705D01*
X66887745Y-84657316D01*
X66894500Y-84595134D01*
X66894500Y-83963371D01*
X66914502Y-83895250D01*
X66931405Y-83874276D01*
X68486554Y-82319127D01*
X68548866Y-82285101D01*
X68619681Y-82290166D01*
X68676517Y-82332713D01*
X68697355Y-82375609D01*
X68698123Y-82378476D01*
X68699101Y-82384166D01*
X68773050Y-82584613D01*
X68882289Y-82768228D01*
X68886095Y-82772568D01*
X68886098Y-82772572D01*
X68949092Y-82844402D01*
X69023160Y-82928860D01*
X69190945Y-83061131D01*
X69196056Y-83063820D01*
X69196059Y-83063822D01*
X69278528Y-83107211D01*
X69380025Y-83160611D01*
X69385546Y-83162325D01*
X69385550Y-83162327D01*
X69578552Y-83222256D01*
X69578557Y-83222257D01*
X69584067Y-83223968D01*
X69614518Y-83227572D01*
X69753855Y-83244064D01*
X69753861Y-83244064D01*
X69757542Y-83244500D01*
X70225026Y-83244500D01*
X70293147Y-83264502D01*
X70339640Y-83318158D01*
X70349744Y-83388432D01*
X70320250Y-83453012D01*
X70260495Y-83491405D01*
X70238843Y-83497757D01*
X70067266Y-83548092D01*
X70061939Y-83550836D01*
X70061938Y-83550836D01*
X69884551Y-83642196D01*
X69884548Y-83642198D01*
X69879220Y-83644942D01*
X69712880Y-83775604D01*
X69708948Y-83780135D01*
X69708945Y-83780138D01*
X69625134Y-83876722D01*
X69574248Y-83935363D01*
X69571248Y-83940549D01*
X69571245Y-83940553D01*
X69564348Y-83952475D01*
X69468327Y-84118454D01*
X69398939Y-84318271D01*
X69398078Y-84324206D01*
X69398078Y-84324208D01*
X69387634Y-84396243D01*
X69368587Y-84527604D01*
X69378367Y-84738899D01*
X69379771Y-84744724D01*
X69379771Y-84744725D01*
X69423300Y-84925342D01*
X69427925Y-84944534D01*
X69430407Y-84949992D01*
X69430408Y-84949996D01*
X69473853Y-85045546D01*
X69515474Y-85137087D01*
X69588861Y-85240543D01*
X69626119Y-85293067D01*
X69637854Y-85309611D01*
X69790650Y-85455881D01*
X69968348Y-85570620D01*
X69973914Y-85572863D01*
X70158968Y-85647442D01*
X70158971Y-85647443D01*
X70164537Y-85649686D01*
X70244476Y-85665297D01*
X70267717Y-85669836D01*
X70330741Y-85702524D01*
X70366088Y-85764096D01*
X70362535Y-85835004D01*
X70321211Y-85892734D01*
X70255235Y-85918959D01*
X70243567Y-85919500D01*
X69772604Y-85919500D01*
X69662660Y-85929603D01*
X69619799Y-85933541D01*
X69619797Y-85933541D01*
X69614044Y-85934070D01*
X69484029Y-85970738D01*
X69413972Y-85990496D01*
X69413970Y-85990497D01*
X69408413Y-85992064D01*
X69403237Y-85994616D01*
X69403233Y-85994618D01*
X69221974Y-86084005D01*
X69216793Y-86086560D01*
X69212167Y-86090014D01*
X69212166Y-86090015D01*
X69050227Y-86210940D01*
X69045603Y-86214393D01*
X69041689Y-86218627D01*
X69041687Y-86218629D01*
X68909885Y-86361213D01*
X68900576Y-86371283D01*
X68786568Y-86551975D01*
X68707397Y-86750418D01*
X68706272Y-86756075D01*
X68706270Y-86756081D01*
X68666843Y-86954297D01*
X68665716Y-86959965D01*
X68665640Y-86965740D01*
X68665640Y-86965744D01*
X68665242Y-86996183D01*
X68662919Y-87173599D01*
X68699101Y-87384166D01*
X68773050Y-87584613D01*
X68776002Y-87589574D01*
X68776002Y-87589575D01*
X68870688Y-87748728D01*
X68882289Y-87768228D01*
X68886095Y-87772568D01*
X68886098Y-87772572D01*
X69019353Y-87924519D01*
X69023160Y-87928860D01*
X69190945Y-88061131D01*
X69196056Y-88063820D01*
X69196059Y-88063822D01*
X69221943Y-88077440D01*
X69380025Y-88160611D01*
X69546685Y-88212360D01*
X69605806Y-88251661D01*
X69634297Y-88316691D01*
X69623107Y-88386800D01*
X69575790Y-88439730D01*
X69543519Y-88453960D01*
X69413972Y-88490496D01*
X69413970Y-88490497D01*
X69408413Y-88492064D01*
X69403237Y-88494616D01*
X69403233Y-88494618D01*
X69261881Y-88564325D01*
X69216793Y-88586560D01*
X69212167Y-88590014D01*
X69212166Y-88590015D01*
X69054005Y-88708119D01*
X69045603Y-88714393D01*
X69041689Y-88718627D01*
X69041687Y-88718629D01*
X68916193Y-88854389D01*
X68900576Y-88871283D01*
X68786568Y-89051975D01*
X68707397Y-89250418D01*
X68706272Y-89256075D01*
X68706270Y-89256081D01*
X68671459Y-89431091D01*
X68665716Y-89459965D01*
X68665640Y-89465740D01*
X68665640Y-89465744D01*
X68665162Y-89502260D01*
X68662919Y-89673599D01*
X68663898Y-89679296D01*
X68663898Y-89679297D01*
X68698006Y-89877795D01*
X68699101Y-89884166D01*
X68773050Y-90084613D01*
X68776002Y-90089574D01*
X68776002Y-90089575D01*
X68828386Y-90177624D01*
X68882289Y-90268228D01*
X68886095Y-90272568D01*
X68886098Y-90272572D01*
X68987674Y-90388396D01*
X69023160Y-90428860D01*
X69190945Y-90561131D01*
X69196056Y-90563820D01*
X69196059Y-90563822D01*
X69215376Y-90573985D01*
X69380025Y-90660611D01*
X69385546Y-90662325D01*
X69385550Y-90662327D01*
X69578552Y-90722256D01*
X69578557Y-90722257D01*
X69584067Y-90723968D01*
X69614518Y-90727572D01*
X69753855Y-90744064D01*
X69753861Y-90744064D01*
X69757542Y-90744500D01*
X71188996Y-90744500D01*
X71298940Y-90734397D01*
X71341801Y-90730459D01*
X71341803Y-90730459D01*
X71347556Y-90729930D01*
X71503664Y-90685903D01*
X71547628Y-90673504D01*
X71547630Y-90673503D01*
X71553187Y-90671936D01*
X71558363Y-90669384D01*
X71558367Y-90669382D01*
X71739626Y-90579995D01*
X71744807Y-90577440D01*
X71750937Y-90572863D01*
X71911373Y-90453060D01*
X71911374Y-90453059D01*
X71915997Y-90449607D01*
X71931870Y-90432436D01*
X72057105Y-90296957D01*
X72057107Y-90296954D01*
X72061024Y-90292717D01*
X72175032Y-90112025D01*
X72254203Y-89913582D01*
X72255328Y-89907925D01*
X72255330Y-89907919D01*
X72294757Y-89709703D01*
X72294757Y-89709699D01*
X72295884Y-89704035D01*
X72295982Y-89696598D01*
X72298194Y-89527604D01*
X74368587Y-89527604D01*
X74378367Y-89738899D01*
X74379771Y-89744724D01*
X74379771Y-89744725D01*
X74420466Y-89913582D01*
X74427925Y-89944534D01*
X74430407Y-89949992D01*
X74430408Y-89949996D01*
X74476215Y-90050742D01*
X74515474Y-90137087D01*
X74637854Y-90309611D01*
X74790650Y-90455881D01*
X74968348Y-90570620D01*
X75028446Y-90594840D01*
X75158968Y-90647442D01*
X75158971Y-90647443D01*
X75164537Y-90649686D01*
X75372137Y-90690228D01*
X75377699Y-90690500D01*
X75533646Y-90690500D01*
X75691366Y-90675452D01*
X75894334Y-90615908D01*
X75899662Y-90613164D01*
X76077049Y-90521804D01*
X76077052Y-90521802D01*
X76082380Y-90519058D01*
X76248720Y-90388396D01*
X76252652Y-90383865D01*
X76252655Y-90383862D01*
X76383421Y-90233167D01*
X76387352Y-90228637D01*
X76390352Y-90223451D01*
X76390355Y-90223447D01*
X76490267Y-90050742D01*
X76493273Y-90045546D01*
X76562661Y-89845729D01*
X76564531Y-89832835D01*
X76592152Y-89642336D01*
X76592152Y-89642333D01*
X76593013Y-89636396D01*
X76587977Y-89527604D01*
X76868587Y-89527604D01*
X76878367Y-89738899D01*
X76879771Y-89744724D01*
X76879771Y-89744725D01*
X76920466Y-89913582D01*
X76927925Y-89944534D01*
X76930407Y-89949992D01*
X76930408Y-89949996D01*
X76976215Y-90050742D01*
X77015474Y-90137087D01*
X77137854Y-90309611D01*
X77290650Y-90455881D01*
X77468348Y-90570620D01*
X77528446Y-90594840D01*
X77658968Y-90647442D01*
X77658971Y-90647443D01*
X77664537Y-90649686D01*
X77872137Y-90690228D01*
X77877699Y-90690500D01*
X78033646Y-90690500D01*
X78191366Y-90675452D01*
X78394334Y-90615908D01*
X78399662Y-90613164D01*
X78577049Y-90521804D01*
X78577052Y-90521802D01*
X78582380Y-90519058D01*
X78748720Y-90388396D01*
X78752652Y-90383865D01*
X78752655Y-90383862D01*
X78883421Y-90233167D01*
X78887352Y-90228637D01*
X78890352Y-90223451D01*
X78890355Y-90223447D01*
X78990267Y-90050742D01*
X78993273Y-90045546D01*
X79062661Y-89845729D01*
X79064531Y-89832835D01*
X79092152Y-89642336D01*
X79092152Y-89642333D01*
X79093013Y-89636396D01*
X79083233Y-89425101D01*
X79042499Y-89256081D01*
X79035081Y-89225299D01*
X79035080Y-89225297D01*
X79033675Y-89219466D01*
X78990325Y-89124122D01*
X78969985Y-89079387D01*
X78946126Y-89026913D01*
X78823746Y-88854389D01*
X78670950Y-88708119D01*
X78493252Y-88593380D01*
X78421157Y-88564325D01*
X78302632Y-88516558D01*
X78302629Y-88516557D01*
X78297063Y-88514314D01*
X78089463Y-88473772D01*
X78083901Y-88473500D01*
X77927954Y-88473500D01*
X77770234Y-88488548D01*
X77567266Y-88548092D01*
X77561939Y-88550836D01*
X77561938Y-88550836D01*
X77384551Y-88642196D01*
X77384548Y-88642198D01*
X77379220Y-88644942D01*
X77212880Y-88775604D01*
X77208948Y-88780135D01*
X77208945Y-88780138D01*
X77140274Y-88859275D01*
X77074248Y-88935363D01*
X77071248Y-88940549D01*
X77071245Y-88940553D01*
X77024112Y-89022026D01*
X76968327Y-89118454D01*
X76898939Y-89318271D01*
X76898078Y-89324206D01*
X76898078Y-89324208D01*
X76872262Y-89502260D01*
X76868587Y-89527604D01*
X76587977Y-89527604D01*
X76583233Y-89425101D01*
X76542499Y-89256081D01*
X76535081Y-89225299D01*
X76535080Y-89225297D01*
X76533675Y-89219466D01*
X76490325Y-89124122D01*
X76469985Y-89079387D01*
X76446126Y-89026913D01*
X76323746Y-88854389D01*
X76170950Y-88708119D01*
X75993252Y-88593380D01*
X75921157Y-88564325D01*
X75802632Y-88516558D01*
X75802629Y-88516557D01*
X75797063Y-88514314D01*
X75589463Y-88473772D01*
X75583901Y-88473500D01*
X75427954Y-88473500D01*
X75270234Y-88488548D01*
X75067266Y-88548092D01*
X75061939Y-88550836D01*
X75061938Y-88550836D01*
X74884551Y-88642196D01*
X74884548Y-88642198D01*
X74879220Y-88644942D01*
X74712880Y-88775604D01*
X74708948Y-88780135D01*
X74708945Y-88780138D01*
X74640274Y-88859275D01*
X74574248Y-88935363D01*
X74571248Y-88940549D01*
X74571245Y-88940553D01*
X74524112Y-89022026D01*
X74468327Y-89118454D01*
X74398939Y-89318271D01*
X74398078Y-89324206D01*
X74398078Y-89324208D01*
X74372262Y-89502260D01*
X74368587Y-89527604D01*
X72298194Y-89527604D01*
X72298681Y-89490401D01*
X72287461Y-89425101D01*
X72263478Y-89285531D01*
X72263478Y-89285530D01*
X72262499Y-89279834D01*
X72188550Y-89079387D01*
X72160577Y-89032368D01*
X72082267Y-88900740D01*
X72082265Y-88900737D01*
X72079311Y-88895772D01*
X72075505Y-88891432D01*
X72075502Y-88891428D01*
X71942247Y-88739481D01*
X71938440Y-88735140D01*
X71770655Y-88602869D01*
X71765544Y-88600180D01*
X71765541Y-88600178D01*
X71600154Y-88513164D01*
X71581575Y-88503389D01*
X71414915Y-88451640D01*
X71355794Y-88412339D01*
X71327303Y-88347309D01*
X71338493Y-88277200D01*
X71385810Y-88224270D01*
X71418081Y-88210040D01*
X71547628Y-88173504D01*
X71547630Y-88173503D01*
X71553187Y-88171936D01*
X71558363Y-88169384D01*
X71558367Y-88169382D01*
X71739626Y-88079995D01*
X71744807Y-88077440D01*
X71897738Y-87963242D01*
X71911373Y-87953060D01*
X71911374Y-87953059D01*
X71915997Y-87949607D01*
X71931870Y-87932436D01*
X72057105Y-87796957D01*
X72057107Y-87796954D01*
X72061024Y-87792717D01*
X72175032Y-87612025D01*
X72254203Y-87413582D01*
X72255328Y-87407925D01*
X72255330Y-87407919D01*
X72294757Y-87209703D01*
X72294757Y-87209699D01*
X72295884Y-87204035D01*
X72296283Y-87173599D01*
X72298605Y-86996183D01*
X72298681Y-86990401D01*
X72262499Y-86779834D01*
X72188550Y-86579387D01*
X72079311Y-86395772D01*
X72075505Y-86391432D01*
X72075502Y-86391428D01*
X71942247Y-86239481D01*
X71938440Y-86235140D01*
X71770655Y-86102869D01*
X71765544Y-86100180D01*
X71765541Y-86100178D01*
X71598369Y-86012225D01*
X71581575Y-86003389D01*
X71576054Y-86001675D01*
X71576050Y-86001673D01*
X71383048Y-85941744D01*
X71383043Y-85941743D01*
X71377533Y-85940032D01*
X71327160Y-85934070D01*
X71207745Y-85919936D01*
X71207739Y-85919936D01*
X71204058Y-85919500D01*
X70736574Y-85919500D01*
X70668453Y-85899498D01*
X70621960Y-85845842D01*
X70611856Y-85775568D01*
X70641350Y-85710988D01*
X70701105Y-85672595D01*
X70786844Y-85647442D01*
X70894334Y-85615908D01*
X70977911Y-85572863D01*
X71077049Y-85521804D01*
X71077052Y-85521802D01*
X71082380Y-85519058D01*
X71248720Y-85388396D01*
X71252652Y-85383865D01*
X71252655Y-85383862D01*
X71336466Y-85287278D01*
X74318800Y-85287278D01*
X74319066Y-85293067D01*
X74332834Y-85442908D01*
X74334932Y-85454229D01*
X74389762Y-85648643D01*
X74393887Y-85659390D01*
X74483234Y-85840565D01*
X74489246Y-85850374D01*
X74610104Y-86012225D01*
X74617811Y-86020785D01*
X74766149Y-86157907D01*
X74775274Y-86164908D01*
X74946120Y-86272704D01*
X74956364Y-86277924D01*
X75143997Y-86352782D01*
X75155026Y-86356049D01*
X75209032Y-86366791D01*
X75221906Y-86365639D01*
X75225874Y-86353353D01*
X75734800Y-86353353D01*
X75738606Y-86366315D01*
X75753522Y-86368251D01*
X75777139Y-86364193D01*
X75788259Y-86361213D01*
X75977781Y-86291295D01*
X75988159Y-86286345D01*
X76161767Y-86183059D01*
X76171076Y-86176295D01*
X76322957Y-86043100D01*
X76330867Y-86034765D01*
X76455932Y-85876121D01*
X76462203Y-85866464D01*
X76556254Y-85687702D01*
X76560662Y-85677059D01*
X76620565Y-85484143D01*
X76622955Y-85472899D01*
X76642364Y-85308915D01*
X76642800Y-85301512D01*
X76642800Y-84854115D01*
X76638325Y-84838876D01*
X76636935Y-84837671D01*
X76629252Y-84836000D01*
X75752915Y-84836000D01*
X75737676Y-84840475D01*
X75736471Y-84841865D01*
X75734800Y-84849548D01*
X75734800Y-86353353D01*
X75225874Y-86353353D01*
X75226800Y-86350484D01*
X75226800Y-84854115D01*
X75222325Y-84838876D01*
X75220935Y-84837671D01*
X75213252Y-84836000D01*
X74336915Y-84836000D01*
X74321676Y-84840475D01*
X74320471Y-84841865D01*
X74318800Y-84849548D01*
X74318800Y-85287278D01*
X71336466Y-85287278D01*
X71383421Y-85233167D01*
X71387352Y-85228637D01*
X71390352Y-85223451D01*
X71390355Y-85223447D01*
X71490267Y-85050742D01*
X71493273Y-85045546D01*
X71562661Y-84845729D01*
X71563655Y-84838876D01*
X71592152Y-84642336D01*
X71592152Y-84642333D01*
X71593013Y-84636396D01*
X71583233Y-84425101D01*
X71555466Y-84309885D01*
X74318800Y-84309885D01*
X74323275Y-84325124D01*
X74324665Y-84326329D01*
X74332348Y-84328000D01*
X75208685Y-84328000D01*
X75223924Y-84323525D01*
X75225129Y-84322135D01*
X75226800Y-84314452D01*
X75226800Y-84309885D01*
X75734800Y-84309885D01*
X75739275Y-84325124D01*
X75740665Y-84326329D01*
X75748348Y-84328000D01*
X76624685Y-84328000D01*
X76639924Y-84323525D01*
X76641129Y-84322135D01*
X76642800Y-84314452D01*
X76642800Y-83876722D01*
X76642534Y-83870933D01*
X76628766Y-83721092D01*
X76626668Y-83709771D01*
X76571838Y-83515357D01*
X76567713Y-83504610D01*
X76478366Y-83323435D01*
X76472354Y-83313626D01*
X76351496Y-83151775D01*
X76343789Y-83143215D01*
X76195451Y-83006093D01*
X76186326Y-82999092D01*
X76015480Y-82891296D01*
X76005236Y-82886076D01*
X75817603Y-82811218D01*
X75806574Y-82807951D01*
X75752568Y-82797209D01*
X75739694Y-82798361D01*
X75734800Y-82813516D01*
X75734800Y-84309885D01*
X75226800Y-84309885D01*
X75226800Y-82810647D01*
X75222994Y-82797685D01*
X75208078Y-82795749D01*
X75184461Y-82799807D01*
X75173341Y-82802787D01*
X74983819Y-82872705D01*
X74973441Y-82877655D01*
X74799833Y-82980941D01*
X74790524Y-82987705D01*
X74638643Y-83120900D01*
X74630733Y-83129235D01*
X74505668Y-83287879D01*
X74499397Y-83297536D01*
X74405346Y-83476298D01*
X74400938Y-83486941D01*
X74341035Y-83679857D01*
X74338645Y-83691101D01*
X74319236Y-83855085D01*
X74318800Y-83862488D01*
X74318800Y-84309885D01*
X71555466Y-84309885D01*
X71533675Y-84219466D01*
X71511006Y-84169607D01*
X71448606Y-84032368D01*
X71446126Y-84026913D01*
X71337853Y-83874276D01*
X71327212Y-83859275D01*
X71327211Y-83859274D01*
X71323746Y-83854389D01*
X71178705Y-83715543D01*
X71175280Y-83712264D01*
X71170950Y-83708119D01*
X70993252Y-83593380D01*
X70890912Y-83552136D01*
X70802632Y-83516558D01*
X70802629Y-83516557D01*
X70797063Y-83514314D01*
X70693883Y-83494164D01*
X70630859Y-83461476D01*
X70595512Y-83399904D01*
X70599065Y-83328996D01*
X70640389Y-83271266D01*
X70706365Y-83245041D01*
X70718033Y-83244500D01*
X71188996Y-83244500D01*
X71298940Y-83234397D01*
X71341801Y-83230459D01*
X71341803Y-83230459D01*
X71347556Y-83229930D01*
X71522148Y-83180690D01*
X71547628Y-83173504D01*
X71547630Y-83173503D01*
X71553187Y-83171936D01*
X71558363Y-83169384D01*
X71558367Y-83169382D01*
X71739626Y-83079995D01*
X71744807Y-83077440D01*
X71778422Y-83052339D01*
X71911373Y-82953060D01*
X71911374Y-82953059D01*
X71915997Y-82949607D01*
X71920534Y-82944699D01*
X72057105Y-82796957D01*
X72057107Y-82796954D01*
X72061024Y-82792717D01*
X72175032Y-82612025D01*
X72254203Y-82413582D01*
X72255328Y-82407925D01*
X72255330Y-82407919D01*
X72294757Y-82209703D01*
X72294757Y-82209699D01*
X72295884Y-82204035D01*
X72296283Y-82173599D01*
X72298605Y-81996183D01*
X72298681Y-81990401D01*
X72262499Y-81779834D01*
X72188550Y-81579387D01*
X72079311Y-81395772D01*
X72075505Y-81391432D01*
X72075502Y-81391428D01*
X71942247Y-81239481D01*
X71938440Y-81235140D01*
X71770655Y-81102869D01*
X71765544Y-81100180D01*
X71765541Y-81100178D01*
X71662243Y-81045830D01*
X71581575Y-81003389D01*
X71414915Y-80951640D01*
X71355794Y-80912339D01*
X71327303Y-80847309D01*
X71338493Y-80777200D01*
X71385810Y-80724270D01*
X71418081Y-80710040D01*
X71547628Y-80673504D01*
X71547630Y-80673503D01*
X71553187Y-80671936D01*
X71558363Y-80669384D01*
X71558367Y-80669382D01*
X71739626Y-80579995D01*
X71744807Y-80577440D01*
X71750937Y-80572863D01*
X71911373Y-80453060D01*
X71911374Y-80453059D01*
X71915997Y-80449607D01*
X72041579Y-80313753D01*
X72057105Y-80296957D01*
X72057107Y-80296954D01*
X72061024Y-80292717D01*
X72175032Y-80112025D01*
X72254203Y-79913582D01*
X72255328Y-79907925D01*
X72255330Y-79907919D01*
X72294757Y-79709703D01*
X72294757Y-79709699D01*
X72295884Y-79704035D01*
X72296283Y-79673599D01*
X72298194Y-79527604D01*
X74368587Y-79527604D01*
X74378367Y-79738899D01*
X74379771Y-79744724D01*
X74379771Y-79744725D01*
X74420466Y-79913582D01*
X74427925Y-79944534D01*
X74430407Y-79949992D01*
X74430408Y-79949996D01*
X74473853Y-80045546D01*
X74515474Y-80137087D01*
X74637854Y-80309611D01*
X74790650Y-80455881D01*
X74968348Y-80570620D01*
X75028446Y-80594840D01*
X75158968Y-80647442D01*
X75158971Y-80647443D01*
X75164537Y-80649686D01*
X75372137Y-80690228D01*
X75377699Y-80690500D01*
X75533646Y-80690500D01*
X75691366Y-80675452D01*
X75894334Y-80615908D01*
X75920422Y-80602472D01*
X76077049Y-80521804D01*
X76077052Y-80521802D01*
X76082380Y-80519058D01*
X76248720Y-80388396D01*
X76252652Y-80383865D01*
X76252655Y-80383862D01*
X76383421Y-80233167D01*
X76387352Y-80228637D01*
X76390352Y-80223451D01*
X76390355Y-80223447D01*
X76490267Y-80050742D01*
X76493273Y-80045546D01*
X76562661Y-79845729D01*
X76563522Y-79839792D01*
X76592152Y-79642336D01*
X76592152Y-79642333D01*
X76593013Y-79636396D01*
X76587977Y-79527604D01*
X76868587Y-79527604D01*
X76878367Y-79738899D01*
X76879771Y-79744724D01*
X76879771Y-79744725D01*
X76920466Y-79913582D01*
X76927925Y-79944534D01*
X76930407Y-79949992D01*
X76930408Y-79949996D01*
X76973853Y-80045546D01*
X77015474Y-80137087D01*
X77137854Y-80309611D01*
X77290650Y-80455881D01*
X77468348Y-80570620D01*
X77528446Y-80594840D01*
X77658968Y-80647442D01*
X77658971Y-80647443D01*
X77664537Y-80649686D01*
X77872137Y-80690228D01*
X77877699Y-80690500D01*
X78033646Y-80690500D01*
X78191366Y-80675452D01*
X78394334Y-80615908D01*
X78420422Y-80602472D01*
X78577049Y-80521804D01*
X78577052Y-80521802D01*
X78582380Y-80519058D01*
X78748720Y-80388396D01*
X78752652Y-80383865D01*
X78752655Y-80383862D01*
X78883421Y-80233167D01*
X78887352Y-80228637D01*
X78890352Y-80223451D01*
X78890355Y-80223447D01*
X78990267Y-80050742D01*
X78993273Y-80045546D01*
X79062661Y-79845729D01*
X79063522Y-79839792D01*
X79092152Y-79642336D01*
X79092152Y-79642333D01*
X79093013Y-79636396D01*
X79083233Y-79425101D01*
X79042499Y-79256081D01*
X79035081Y-79225299D01*
X79035080Y-79225297D01*
X79033675Y-79219466D01*
X79015651Y-79179823D01*
X78969985Y-79079387D01*
X78946126Y-79026913D01*
X78823746Y-78854389D01*
X78670950Y-78708119D01*
X78493252Y-78593380D01*
X78433154Y-78569160D01*
X78302632Y-78516558D01*
X78302629Y-78516557D01*
X78297063Y-78514314D01*
X78089463Y-78473772D01*
X78083901Y-78473500D01*
X77927954Y-78473500D01*
X77770234Y-78488548D01*
X77567266Y-78548092D01*
X77561939Y-78550836D01*
X77561938Y-78550836D01*
X77384551Y-78642196D01*
X77384548Y-78642198D01*
X77379220Y-78644942D01*
X77212880Y-78775604D01*
X77208948Y-78780135D01*
X77208945Y-78780138D01*
X77143121Y-78855994D01*
X77074248Y-78935363D01*
X77071248Y-78940549D01*
X77071245Y-78940553D01*
X77024112Y-79022026D01*
X76968327Y-79118454D01*
X76898939Y-79318271D01*
X76898078Y-79324206D01*
X76898078Y-79324208D01*
X76891178Y-79371800D01*
X76868587Y-79527604D01*
X76587977Y-79527604D01*
X76583233Y-79425101D01*
X76542499Y-79256081D01*
X76535081Y-79225299D01*
X76535080Y-79225297D01*
X76533675Y-79219466D01*
X76515651Y-79179823D01*
X76469985Y-79079387D01*
X76446126Y-79026913D01*
X76323746Y-78854389D01*
X76170950Y-78708119D01*
X75993252Y-78593380D01*
X75933154Y-78569160D01*
X75802632Y-78516558D01*
X75802629Y-78516557D01*
X75797063Y-78514314D01*
X75589463Y-78473772D01*
X75583901Y-78473500D01*
X75427954Y-78473500D01*
X75270234Y-78488548D01*
X75067266Y-78548092D01*
X75061939Y-78550836D01*
X75061938Y-78550836D01*
X74884551Y-78642196D01*
X74884548Y-78642198D01*
X74879220Y-78644942D01*
X74712880Y-78775604D01*
X74708948Y-78780135D01*
X74708945Y-78780138D01*
X74643121Y-78855994D01*
X74574248Y-78935363D01*
X74571248Y-78940549D01*
X74571245Y-78940553D01*
X74524112Y-79022026D01*
X74468327Y-79118454D01*
X74398939Y-79318271D01*
X74398078Y-79324206D01*
X74398078Y-79324208D01*
X74391178Y-79371800D01*
X74368587Y-79527604D01*
X72298194Y-79527604D01*
X72298681Y-79490401D01*
X72287461Y-79425101D01*
X72263478Y-79285531D01*
X72263478Y-79285530D01*
X72262499Y-79279834D01*
X72188550Y-79079387D01*
X72160577Y-79032368D01*
X72082267Y-78900740D01*
X72082265Y-78900737D01*
X72079311Y-78895772D01*
X72075505Y-78891432D01*
X72075502Y-78891428D01*
X71942247Y-78739481D01*
X71938440Y-78735140D01*
X71770655Y-78602869D01*
X71765544Y-78600180D01*
X71765541Y-78600178D01*
X71602340Y-78514314D01*
X71581575Y-78503389D01*
X71576054Y-78501675D01*
X71576050Y-78501673D01*
X71383048Y-78441744D01*
X71383043Y-78441743D01*
X71377533Y-78440032D01*
X71327160Y-78434070D01*
X71207745Y-78419936D01*
X71207739Y-78419936D01*
X71204058Y-78419500D01*
X69772604Y-78419500D01*
X69662660Y-78429603D01*
X69619799Y-78433541D01*
X69619797Y-78433541D01*
X69614044Y-78434070D01*
X69505811Y-78464595D01*
X69413972Y-78490496D01*
X69413970Y-78490497D01*
X69408413Y-78492064D01*
X69403237Y-78494616D01*
X69403233Y-78494618D01*
X69253853Y-78568284D01*
X69216793Y-78586560D01*
X69212167Y-78590014D01*
X69212166Y-78590015D01*
X69054005Y-78708119D01*
X69045603Y-78714393D01*
X69041689Y-78718627D01*
X69041687Y-78718629D01*
X68916193Y-78854389D01*
X68900576Y-78871283D01*
X68786568Y-79051975D01*
X68707397Y-79250418D01*
X68706272Y-79256075D01*
X68706270Y-79256081D01*
X68671459Y-79431091D01*
X68665716Y-79459965D01*
X68665640Y-79465740D01*
X68665640Y-79465744D01*
X68665242Y-79496183D01*
X68662919Y-79673599D01*
X68663898Y-79679296D01*
X68663898Y-79679297D01*
X68699101Y-79884166D01*
X68696743Y-79884571D01*
X68695295Y-79945224D01*
X68664376Y-79995943D01*
X65858724Y-82801595D01*
X65796412Y-82835621D01*
X65769629Y-82838500D01*
X65137866Y-82838500D01*
X65075684Y-82845255D01*
X64939295Y-82896385D01*
X64822739Y-82983739D01*
X64817358Y-82990919D01*
X64817357Y-82990920D01*
X64771326Y-83052339D01*
X64714467Y-83094854D01*
X64643648Y-83099880D01*
X64581355Y-83065820D01*
X64547365Y-83003489D01*
X64544500Y-82976774D01*
X64544500Y-81012543D01*
X64564502Y-80944422D01*
X64617249Y-80898349D01*
X64690184Y-80864339D01*
X64754577Y-80834312D01*
X64754580Y-80834310D01*
X64759558Y-80831989D01*
X64932776Y-80710701D01*
X65082301Y-80561176D01*
X65203589Y-80387958D01*
X65238192Y-80313753D01*
X65290633Y-80201292D01*
X65290634Y-80201291D01*
X65292956Y-80196310D01*
X65310287Y-80131632D01*
X65346262Y-79997370D01*
X65346262Y-79997368D01*
X65347686Y-79992055D01*
X65366116Y-79781400D01*
X65347686Y-79570745D01*
X65337733Y-79533601D01*
X65294379Y-79371800D01*
X65294378Y-79371798D01*
X65292956Y-79366490D01*
X65250019Y-79274411D01*
X65205912Y-79179823D01*
X65205910Y-79179820D01*
X65203589Y-79174842D01*
X65082301Y-79001624D01*
X64932776Y-78852099D01*
X64759558Y-78730811D01*
X64754580Y-78728490D01*
X64754577Y-78728488D01*
X64572899Y-78643770D01*
X64572895Y-78643769D01*
X64568094Y-78641530D01*
X64568093Y-78641529D01*
X64567910Y-78641444D01*
X64567927Y-78641407D01*
X64512243Y-78600408D01*
X64486904Y-78534086D01*
X64501444Y-78464595D01*
X64551246Y-78413995D01*
X64565943Y-78407283D01*
X64567910Y-78406756D01*
X64572895Y-78404431D01*
X64572899Y-78404430D01*
X64754577Y-78319712D01*
X64754580Y-78319710D01*
X64759558Y-78317389D01*
X64932776Y-78196101D01*
X65082301Y-78046576D01*
X65203589Y-77873358D01*
X65215265Y-77848320D01*
X65290633Y-77686692D01*
X65290634Y-77686691D01*
X65292956Y-77681710D01*
X65297546Y-77664582D01*
X65346262Y-77482770D01*
X65346262Y-77482768D01*
X65347686Y-77477455D01*
X65366116Y-77266800D01*
X65347686Y-77056145D01*
X65292956Y-76851890D01*
X65255304Y-76771145D01*
X65207580Y-76668799D01*
X68662919Y-76668799D01*
X68663898Y-76674496D01*
X68663898Y-76674497D01*
X68693524Y-76846908D01*
X68699101Y-76879366D01*
X68773050Y-77079813D01*
X68776002Y-77084774D01*
X68776002Y-77084775D01*
X68878508Y-77257072D01*
X68882289Y-77263428D01*
X68886095Y-77267768D01*
X68886098Y-77267772D01*
X69019353Y-77419719D01*
X69023160Y-77424060D01*
X69190945Y-77556331D01*
X69196056Y-77559020D01*
X69196059Y-77559022D01*
X69215376Y-77569185D01*
X69380025Y-77655811D01*
X69385546Y-77657525D01*
X69385550Y-77657527D01*
X69578552Y-77717456D01*
X69578557Y-77717457D01*
X69584067Y-77719168D01*
X69614518Y-77722772D01*
X69753855Y-77739264D01*
X69753861Y-77739264D01*
X69757542Y-77739700D01*
X71188996Y-77739700D01*
X71298940Y-77729597D01*
X71341801Y-77725659D01*
X71341803Y-77725659D01*
X71347556Y-77725130D01*
X71501512Y-77681710D01*
X71547628Y-77668704D01*
X71547630Y-77668703D01*
X71553187Y-77667136D01*
X71558363Y-77664584D01*
X71558367Y-77664582D01*
X71739626Y-77575195D01*
X71744807Y-77572640D01*
X71750937Y-77568063D01*
X71911373Y-77448260D01*
X71911374Y-77448259D01*
X71915997Y-77444807D01*
X71931870Y-77427636D01*
X72057105Y-77292157D01*
X72057107Y-77292154D01*
X72061024Y-77287917D01*
X72175032Y-77107225D01*
X72254203Y-76908782D01*
X72255328Y-76903125D01*
X72255330Y-76903119D01*
X72294757Y-76704903D01*
X72294757Y-76704899D01*
X72295884Y-76699235D01*
X72296153Y-76678728D01*
X72297866Y-76547847D01*
X72298194Y-76522804D01*
X74368587Y-76522804D01*
X74378367Y-76734099D01*
X74379771Y-76739924D01*
X74379771Y-76739925D01*
X74420466Y-76908782D01*
X74427925Y-76939734D01*
X74430407Y-76945192D01*
X74430408Y-76945196D01*
X74473853Y-77040746D01*
X74515474Y-77132287D01*
X74637854Y-77304811D01*
X74790650Y-77451081D01*
X74968348Y-77565820D01*
X75028446Y-77590040D01*
X75158968Y-77642642D01*
X75158971Y-77642643D01*
X75164537Y-77644886D01*
X75372137Y-77685428D01*
X75377699Y-77685700D01*
X75533646Y-77685700D01*
X75691366Y-77670652D01*
X75894334Y-77611108D01*
X75899662Y-77608364D01*
X76077049Y-77517004D01*
X76077052Y-77517002D01*
X76082380Y-77514258D01*
X76248720Y-77383596D01*
X76252652Y-77379065D01*
X76252655Y-77379062D01*
X76383421Y-77228367D01*
X76387352Y-77223837D01*
X76390352Y-77218651D01*
X76390355Y-77218647D01*
X76490267Y-77045942D01*
X76493273Y-77040746D01*
X76562661Y-76840929D01*
X76563522Y-76834992D01*
X76592152Y-76637536D01*
X76592152Y-76637533D01*
X76593013Y-76631596D01*
X76587977Y-76522804D01*
X76868587Y-76522804D01*
X76878367Y-76734099D01*
X76879771Y-76739924D01*
X76879771Y-76739925D01*
X76920466Y-76908782D01*
X76927925Y-76939734D01*
X76930407Y-76945192D01*
X76930408Y-76945196D01*
X76973853Y-77040746D01*
X77015474Y-77132287D01*
X77137854Y-77304811D01*
X77290650Y-77451081D01*
X77468348Y-77565820D01*
X77528446Y-77590040D01*
X77658968Y-77642642D01*
X77658971Y-77642643D01*
X77664537Y-77644886D01*
X77872137Y-77685428D01*
X77877699Y-77685700D01*
X78033646Y-77685700D01*
X78191366Y-77670652D01*
X78394334Y-77611108D01*
X78399662Y-77608364D01*
X78577049Y-77517004D01*
X78577052Y-77517002D01*
X78582380Y-77514258D01*
X78748720Y-77383596D01*
X78752652Y-77379065D01*
X78752655Y-77379062D01*
X78883421Y-77228367D01*
X78887352Y-77223837D01*
X78890352Y-77218651D01*
X78890355Y-77218647D01*
X78990267Y-77045942D01*
X78993273Y-77040746D01*
X79062661Y-76840929D01*
X79063522Y-76834992D01*
X79092152Y-76637536D01*
X79092152Y-76637533D01*
X79093013Y-76631596D01*
X79083233Y-76420301D01*
X79046917Y-76269611D01*
X79035081Y-76220499D01*
X79035080Y-76220497D01*
X79033675Y-76214666D01*
X79006071Y-76153953D01*
X78968642Y-76071635D01*
X78946126Y-76022113D01*
X78823746Y-75849589D01*
X78670950Y-75703319D01*
X78493252Y-75588580D01*
X78433154Y-75564360D01*
X78302632Y-75511758D01*
X78302629Y-75511757D01*
X78297063Y-75509514D01*
X78089463Y-75468972D01*
X78083901Y-75468700D01*
X77927954Y-75468700D01*
X77770234Y-75483748D01*
X77567266Y-75543292D01*
X77561939Y-75546036D01*
X77561938Y-75546036D01*
X77384551Y-75637396D01*
X77384548Y-75637398D01*
X77379220Y-75640142D01*
X77212880Y-75770804D01*
X77208948Y-75775335D01*
X77208945Y-75775338D01*
X77140274Y-75854475D01*
X77074248Y-75930563D01*
X77071248Y-75935749D01*
X77071245Y-75935753D01*
X76991535Y-76073538D01*
X76968327Y-76113654D01*
X76898939Y-76313471D01*
X76898078Y-76319406D01*
X76898078Y-76319408D01*
X76870590Y-76508992D01*
X76868587Y-76522804D01*
X76587977Y-76522804D01*
X76583233Y-76420301D01*
X76546917Y-76269611D01*
X76535081Y-76220499D01*
X76535080Y-76220497D01*
X76533675Y-76214666D01*
X76506071Y-76153953D01*
X76468642Y-76071635D01*
X76446126Y-76022113D01*
X76323746Y-75849589D01*
X76170950Y-75703319D01*
X75993252Y-75588580D01*
X75933154Y-75564360D01*
X75802632Y-75511758D01*
X75802629Y-75511757D01*
X75797063Y-75509514D01*
X75589463Y-75468972D01*
X75583901Y-75468700D01*
X75427954Y-75468700D01*
X75270234Y-75483748D01*
X75067266Y-75543292D01*
X75061939Y-75546036D01*
X75061938Y-75546036D01*
X74884551Y-75637396D01*
X74884548Y-75637398D01*
X74879220Y-75640142D01*
X74712880Y-75770804D01*
X74708948Y-75775335D01*
X74708945Y-75775338D01*
X74640274Y-75854475D01*
X74574248Y-75930563D01*
X74571248Y-75935749D01*
X74571245Y-75935753D01*
X74491535Y-76073538D01*
X74468327Y-76113654D01*
X74398939Y-76313471D01*
X74398078Y-76319406D01*
X74398078Y-76319408D01*
X74370590Y-76508992D01*
X74368587Y-76522804D01*
X72298194Y-76522804D01*
X72298681Y-76485601D01*
X72290933Y-76440507D01*
X72263478Y-76280731D01*
X72263478Y-76280730D01*
X72262499Y-76275034D01*
X72188550Y-76074587D01*
X72171597Y-76046092D01*
X72082267Y-75895940D01*
X72082265Y-75895937D01*
X72079311Y-75890972D01*
X72075505Y-75886632D01*
X72075502Y-75886628D01*
X71942247Y-75734681D01*
X71938440Y-75730340D01*
X71770655Y-75598069D01*
X71765544Y-75595380D01*
X71765541Y-75595378D01*
X71600154Y-75508364D01*
X71581575Y-75498589D01*
X71414915Y-75446840D01*
X71355794Y-75407539D01*
X71327303Y-75342509D01*
X71338493Y-75272400D01*
X71385810Y-75219470D01*
X71418081Y-75205240D01*
X71547628Y-75168704D01*
X71547630Y-75168703D01*
X71553187Y-75167136D01*
X71558363Y-75164584D01*
X71558367Y-75164582D01*
X71739626Y-75075195D01*
X71744807Y-75072640D01*
X71915997Y-74944807D01*
X71931870Y-74927636D01*
X72057105Y-74792157D01*
X72057107Y-74792154D01*
X72061024Y-74787917D01*
X72175032Y-74607225D01*
X72254203Y-74408782D01*
X72255328Y-74403125D01*
X72255330Y-74403119D01*
X72294757Y-74204903D01*
X72294757Y-74204899D01*
X72295884Y-74199235D01*
X72296283Y-74168799D01*
X72298605Y-73991383D01*
X72298681Y-73985601D01*
X72262499Y-73775034D01*
X72188550Y-73574587D01*
X72160802Y-73527947D01*
X72082267Y-73395940D01*
X72082265Y-73395937D01*
X72079311Y-73390972D01*
X72075505Y-73386632D01*
X72075502Y-73386628D01*
X71942247Y-73234681D01*
X71938440Y-73230340D01*
X71770655Y-73098069D01*
X71765544Y-73095380D01*
X71765541Y-73095378D01*
X71598369Y-73007425D01*
X71581575Y-72998589D01*
X71576054Y-72996875D01*
X71576050Y-72996873D01*
X71383048Y-72936944D01*
X71383043Y-72936943D01*
X71377533Y-72935232D01*
X71327160Y-72929270D01*
X71207745Y-72915136D01*
X71207739Y-72915136D01*
X71204058Y-72914700D01*
X70736574Y-72914700D01*
X70668453Y-72894698D01*
X70621960Y-72841042D01*
X70611856Y-72770768D01*
X70641350Y-72706188D01*
X70701105Y-72667795D01*
X70786844Y-72642642D01*
X70894334Y-72611108D01*
X70977911Y-72568063D01*
X71077049Y-72517004D01*
X71077052Y-72517002D01*
X71082380Y-72514258D01*
X71248720Y-72383596D01*
X71252652Y-72379065D01*
X71252655Y-72379062D01*
X71336466Y-72282478D01*
X74318800Y-72282478D01*
X74319066Y-72288267D01*
X74332834Y-72438108D01*
X74334932Y-72449429D01*
X74389762Y-72643843D01*
X74393887Y-72654590D01*
X74483234Y-72835765D01*
X74489246Y-72845574D01*
X74610104Y-73007425D01*
X74617811Y-73015985D01*
X74766149Y-73153107D01*
X74775274Y-73160108D01*
X74946120Y-73267904D01*
X74956364Y-73273124D01*
X75143997Y-73347982D01*
X75155026Y-73351249D01*
X75209032Y-73361991D01*
X75221906Y-73360839D01*
X75225874Y-73348553D01*
X75734800Y-73348553D01*
X75738606Y-73361515D01*
X75753522Y-73363451D01*
X75777139Y-73359393D01*
X75788259Y-73356413D01*
X75977781Y-73286495D01*
X75988159Y-73281545D01*
X76161767Y-73178259D01*
X76171076Y-73171495D01*
X76322957Y-73038300D01*
X76330867Y-73029965D01*
X76455932Y-72871321D01*
X76462203Y-72861664D01*
X76556254Y-72682902D01*
X76560662Y-72672259D01*
X76620565Y-72479343D01*
X76622955Y-72468099D01*
X76642364Y-72304115D01*
X76642800Y-72296712D01*
X76642800Y-71849315D01*
X76638325Y-71834076D01*
X76636935Y-71832871D01*
X76629252Y-71831200D01*
X75752915Y-71831200D01*
X75737676Y-71835675D01*
X75736471Y-71837065D01*
X75734800Y-71844748D01*
X75734800Y-73348553D01*
X75225874Y-73348553D01*
X75226800Y-73345684D01*
X75226800Y-71849315D01*
X75222325Y-71834076D01*
X75220935Y-71832871D01*
X75213252Y-71831200D01*
X74336915Y-71831200D01*
X74321676Y-71835675D01*
X74320471Y-71837065D01*
X74318800Y-71844748D01*
X74318800Y-72282478D01*
X71336466Y-72282478D01*
X71383421Y-72228367D01*
X71387352Y-72223837D01*
X71390352Y-72218651D01*
X71390355Y-72218647D01*
X71490267Y-72045942D01*
X71493273Y-72040746D01*
X71562661Y-71840929D01*
X71563655Y-71834076D01*
X71592152Y-71637536D01*
X71592152Y-71637533D01*
X71593013Y-71631596D01*
X71583233Y-71420301D01*
X71555466Y-71305085D01*
X74318800Y-71305085D01*
X74323275Y-71320324D01*
X74324665Y-71321529D01*
X74332348Y-71323200D01*
X75208685Y-71323200D01*
X75223924Y-71318725D01*
X75225129Y-71317335D01*
X75226800Y-71309652D01*
X75226800Y-71305085D01*
X75734800Y-71305085D01*
X75739275Y-71320324D01*
X75740665Y-71321529D01*
X75748348Y-71323200D01*
X76624685Y-71323200D01*
X76639924Y-71318725D01*
X76641129Y-71317335D01*
X76642800Y-71309652D01*
X76642800Y-70871922D01*
X76642534Y-70866133D01*
X76628766Y-70716292D01*
X76626668Y-70704971D01*
X76571838Y-70510557D01*
X76567713Y-70499810D01*
X76478366Y-70318635D01*
X76472354Y-70308826D01*
X76351496Y-70146975D01*
X76343789Y-70138415D01*
X76195451Y-70001293D01*
X76186326Y-69994292D01*
X76015480Y-69886496D01*
X76005236Y-69881276D01*
X75817603Y-69806418D01*
X75806574Y-69803151D01*
X75752568Y-69792409D01*
X75739694Y-69793561D01*
X75734800Y-69808716D01*
X75734800Y-71305085D01*
X75226800Y-71305085D01*
X75226800Y-69805847D01*
X75222994Y-69792885D01*
X75208078Y-69790949D01*
X75184461Y-69795007D01*
X75173341Y-69797987D01*
X74983819Y-69867905D01*
X74973441Y-69872855D01*
X74799833Y-69976141D01*
X74790524Y-69982905D01*
X74638643Y-70116100D01*
X74630733Y-70124435D01*
X74505668Y-70283079D01*
X74499397Y-70292736D01*
X74405346Y-70471498D01*
X74400938Y-70482141D01*
X74341035Y-70675057D01*
X74338645Y-70686301D01*
X74319236Y-70850285D01*
X74318800Y-70857688D01*
X74318800Y-71305085D01*
X71555466Y-71305085D01*
X71533675Y-71214666D01*
X71490325Y-71119322D01*
X71448606Y-71027568D01*
X71446126Y-71022113D01*
X71339588Y-70871922D01*
X71327212Y-70854475D01*
X71327211Y-70854474D01*
X71323746Y-70849589D01*
X71170950Y-70703319D01*
X70993252Y-70588580D01*
X70933154Y-70564360D01*
X70802632Y-70511758D01*
X70802629Y-70511757D01*
X70797063Y-70509514D01*
X70693883Y-70489364D01*
X70630859Y-70456676D01*
X70595512Y-70395104D01*
X70599065Y-70324196D01*
X70640389Y-70266466D01*
X70706365Y-70240241D01*
X70718033Y-70239700D01*
X71188996Y-70239700D01*
X71298940Y-70229597D01*
X71341801Y-70225659D01*
X71341803Y-70225659D01*
X71347556Y-70225130D01*
X71477571Y-70188462D01*
X71547628Y-70168704D01*
X71547630Y-70168703D01*
X71553187Y-70167136D01*
X71558363Y-70164584D01*
X71558367Y-70164582D01*
X71739626Y-70075195D01*
X71744807Y-70072640D01*
X71874036Y-69976141D01*
X71911373Y-69948260D01*
X71911374Y-69948259D01*
X71915997Y-69944807D01*
X71931870Y-69927636D01*
X72057105Y-69792157D01*
X72057107Y-69792154D01*
X72061024Y-69787917D01*
X72175032Y-69607225D01*
X72254203Y-69408782D01*
X72255328Y-69403125D01*
X72255330Y-69403119D01*
X72294757Y-69204903D01*
X72294757Y-69204899D01*
X72295884Y-69199235D01*
X72296283Y-69168799D01*
X72297695Y-69060919D01*
X72298681Y-68985601D01*
X72284451Y-68902784D01*
X72263478Y-68780731D01*
X72263478Y-68780730D01*
X72262499Y-68775034D01*
X72188550Y-68574587D01*
X72133154Y-68481474D01*
X72082267Y-68395940D01*
X72082265Y-68395937D01*
X72079311Y-68390972D01*
X72075505Y-68386632D01*
X72075502Y-68386628D01*
X71942247Y-68234681D01*
X71938440Y-68230340D01*
X71770655Y-68098069D01*
X71765544Y-68095380D01*
X71765541Y-68095378D01*
X71614911Y-68016128D01*
X71581575Y-67998589D01*
X71414915Y-67946840D01*
X71355794Y-67907539D01*
X71327303Y-67842509D01*
X71338493Y-67772400D01*
X71385810Y-67719470D01*
X71418081Y-67705240D01*
X71547628Y-67668704D01*
X71547630Y-67668703D01*
X71553187Y-67667136D01*
X71558363Y-67664584D01*
X71558367Y-67664582D01*
X71739626Y-67575195D01*
X71744807Y-67572640D01*
X71750937Y-67568063D01*
X71911373Y-67448260D01*
X71911374Y-67448259D01*
X71915997Y-67444807D01*
X71933221Y-67426174D01*
X72057105Y-67292157D01*
X72057107Y-67292154D01*
X72061024Y-67287917D01*
X72175032Y-67107225D01*
X72254203Y-66908782D01*
X72255328Y-66903125D01*
X72255330Y-66903119D01*
X72294757Y-66704903D01*
X72294757Y-66704899D01*
X72295884Y-66699235D01*
X72296160Y-66678200D01*
X72298194Y-66522804D01*
X74368587Y-66522804D01*
X74378367Y-66734099D01*
X74379771Y-66739924D01*
X74379771Y-66739925D01*
X74420521Y-66909010D01*
X74427925Y-66939734D01*
X74430407Y-66945192D01*
X74430408Y-66945196D01*
X74477322Y-67048376D01*
X74515474Y-67132287D01*
X74637854Y-67304811D01*
X74790650Y-67451081D01*
X74968348Y-67565820D01*
X75028446Y-67590040D01*
X75158968Y-67642642D01*
X75158971Y-67642643D01*
X75164537Y-67644886D01*
X75372137Y-67685428D01*
X75377699Y-67685700D01*
X75533646Y-67685700D01*
X75691366Y-67670652D01*
X75894334Y-67611108D01*
X75899662Y-67608364D01*
X76077049Y-67517004D01*
X76077052Y-67517002D01*
X76082380Y-67514258D01*
X76248720Y-67383596D01*
X76252652Y-67379065D01*
X76252655Y-67379062D01*
X76383421Y-67228367D01*
X76387352Y-67223837D01*
X76390352Y-67218651D01*
X76390355Y-67218647D01*
X76490267Y-67045942D01*
X76493273Y-67040746D01*
X76562661Y-66840929D01*
X76584044Y-66693456D01*
X76592152Y-66637536D01*
X76592152Y-66637533D01*
X76593013Y-66631596D01*
X76587977Y-66522804D01*
X76868587Y-66522804D01*
X76878367Y-66734099D01*
X76879771Y-66739924D01*
X76879771Y-66739925D01*
X76920521Y-66909010D01*
X76927925Y-66939734D01*
X76930407Y-66945192D01*
X76930408Y-66945196D01*
X76977322Y-67048376D01*
X77015474Y-67132287D01*
X77137854Y-67304811D01*
X77290650Y-67451081D01*
X77468348Y-67565820D01*
X77528446Y-67590040D01*
X77658968Y-67642642D01*
X77658971Y-67642643D01*
X77664537Y-67644886D01*
X77872137Y-67685428D01*
X77877699Y-67685700D01*
X78033646Y-67685700D01*
X78191366Y-67670652D01*
X78394334Y-67611108D01*
X78399662Y-67608364D01*
X78577049Y-67517004D01*
X78577052Y-67517002D01*
X78582380Y-67514258D01*
X78748720Y-67383596D01*
X78752652Y-67379065D01*
X78752655Y-67379062D01*
X78883421Y-67228367D01*
X78887352Y-67223837D01*
X78890352Y-67218651D01*
X78890355Y-67218647D01*
X78990267Y-67045942D01*
X78993273Y-67040746D01*
X79062661Y-66840929D01*
X79084044Y-66693456D01*
X79092152Y-66637536D01*
X79092152Y-66637533D01*
X79093013Y-66631596D01*
X79083233Y-66420301D01*
X79044364Y-66259020D01*
X79035081Y-66220499D01*
X79035080Y-66220497D01*
X79033675Y-66214666D01*
X78990325Y-66119322D01*
X78969985Y-66074587D01*
X78946126Y-66022113D01*
X78823746Y-65849589D01*
X78670950Y-65703319D01*
X78493252Y-65588580D01*
X78398329Y-65550325D01*
X78302632Y-65511758D01*
X78302629Y-65511757D01*
X78297063Y-65509514D01*
X78089463Y-65468972D01*
X78083901Y-65468700D01*
X77927954Y-65468700D01*
X77770234Y-65483748D01*
X77567266Y-65543292D01*
X77561939Y-65546036D01*
X77561938Y-65546036D01*
X77384551Y-65637396D01*
X77384548Y-65637398D01*
X77379220Y-65640142D01*
X77212880Y-65770804D01*
X77208948Y-65775335D01*
X77208945Y-65775338D01*
X77140955Y-65853690D01*
X77074248Y-65930563D01*
X77071248Y-65935749D01*
X77071245Y-65935753D01*
X76997385Y-66063425D01*
X76968327Y-66113654D01*
X76898939Y-66313471D01*
X76898078Y-66319406D01*
X76898078Y-66319408D01*
X76874131Y-66484570D01*
X76868587Y-66522804D01*
X76587977Y-66522804D01*
X76583233Y-66420301D01*
X76544364Y-66259020D01*
X76535081Y-66220499D01*
X76535080Y-66220497D01*
X76533675Y-66214666D01*
X76490325Y-66119322D01*
X76469985Y-66074587D01*
X76446126Y-66022113D01*
X76323746Y-65849589D01*
X76170950Y-65703319D01*
X75993252Y-65588580D01*
X75898329Y-65550325D01*
X75802632Y-65511758D01*
X75802629Y-65511757D01*
X75797063Y-65509514D01*
X75589463Y-65468972D01*
X75583901Y-65468700D01*
X75427954Y-65468700D01*
X75270234Y-65483748D01*
X75067266Y-65543292D01*
X75061939Y-65546036D01*
X75061938Y-65546036D01*
X74884551Y-65637396D01*
X74884548Y-65637398D01*
X74879220Y-65640142D01*
X74712880Y-65770804D01*
X74708948Y-65775335D01*
X74708945Y-65775338D01*
X74640955Y-65853690D01*
X74574248Y-65930563D01*
X74571248Y-65935749D01*
X74571245Y-65935753D01*
X74497385Y-66063425D01*
X74468327Y-66113654D01*
X74398939Y-66313471D01*
X74398078Y-66319406D01*
X74398078Y-66319408D01*
X74374131Y-66484570D01*
X74368587Y-66522804D01*
X72298194Y-66522804D01*
X72298681Y-66485601D01*
X72296635Y-66473691D01*
X72263478Y-66280731D01*
X72263478Y-66280730D01*
X72262499Y-66275034D01*
X72188550Y-66074587D01*
X72160577Y-66027568D01*
X72082267Y-65895940D01*
X72082265Y-65895937D01*
X72079311Y-65890972D01*
X72075505Y-65886632D01*
X72075502Y-65886628D01*
X71942247Y-65734681D01*
X71938440Y-65730340D01*
X71770655Y-65598069D01*
X71765544Y-65595380D01*
X71765541Y-65595378D01*
X71629620Y-65523867D01*
X71581575Y-65498589D01*
X71576054Y-65496875D01*
X71576050Y-65496873D01*
X71383048Y-65436944D01*
X71383043Y-65436943D01*
X71377533Y-65435232D01*
X71327160Y-65429270D01*
X71207745Y-65415136D01*
X71207739Y-65415136D01*
X71204058Y-65414700D01*
X69772604Y-65414700D01*
X69662660Y-65424803D01*
X69619799Y-65428741D01*
X69619797Y-65428741D01*
X69614044Y-65429270D01*
X69484029Y-65465938D01*
X69413972Y-65485696D01*
X69413970Y-65485697D01*
X69408413Y-65487264D01*
X69403237Y-65489816D01*
X69403233Y-65489818D01*
X69232024Y-65574249D01*
X69216793Y-65581760D01*
X69212167Y-65585214D01*
X69212166Y-65585215D01*
X69054005Y-65703319D01*
X69045603Y-65709593D01*
X69041689Y-65713827D01*
X69041687Y-65713829D01*
X68912402Y-65853690D01*
X68900576Y-65866483D01*
X68786568Y-66047175D01*
X68707397Y-66245618D01*
X68706272Y-66251275D01*
X68706270Y-66251281D01*
X68671459Y-66426291D01*
X68665716Y-66455165D01*
X68665640Y-66460940D01*
X68665640Y-66460944D01*
X68665242Y-66491383D01*
X68662919Y-66668799D01*
X68663898Y-66674496D01*
X68663898Y-66674497D01*
X68697478Y-66869923D01*
X68699101Y-66879366D01*
X68773050Y-67079813D01*
X68776002Y-67084774D01*
X68776002Y-67084775D01*
X68843305Y-67197901D01*
X68882289Y-67263428D01*
X68886095Y-67267768D01*
X68886098Y-67267772D01*
X68987674Y-67383596D01*
X69023160Y-67424060D01*
X69027695Y-67427635D01*
X69027696Y-67427636D01*
X69044104Y-67440571D01*
X69190945Y-67556331D01*
X69196056Y-67559020D01*
X69196059Y-67559022D01*
X69226799Y-67575195D01*
X69380025Y-67655811D01*
X69546685Y-67707560D01*
X69605806Y-67746861D01*
X69634297Y-67811891D01*
X69623107Y-67882000D01*
X69575790Y-67934930D01*
X69543519Y-67949160D01*
X69413972Y-67985696D01*
X69413970Y-67985697D01*
X69408413Y-67987264D01*
X69403237Y-67989816D01*
X69403233Y-67989818D01*
X69277710Y-68051719D01*
X69216793Y-68081760D01*
X69045603Y-68209593D01*
X69041689Y-68213827D01*
X69041687Y-68213829D01*
X68940458Y-68323339D01*
X68900576Y-68366483D01*
X68786568Y-68547175D01*
X68707397Y-68745618D01*
X68706272Y-68751275D01*
X68706270Y-68751281D01*
X68666843Y-68949497D01*
X68665716Y-68955165D01*
X68665640Y-68960940D01*
X68665640Y-68960944D01*
X68665242Y-68991383D01*
X68662919Y-69168799D01*
X68699101Y-69379366D01*
X68773050Y-69579813D01*
X68776002Y-69584774D01*
X68776002Y-69584775D01*
X68861356Y-69728242D01*
X68882289Y-69763428D01*
X68886095Y-69767768D01*
X68886098Y-69767772D01*
X69006660Y-69905245D01*
X69023160Y-69924060D01*
X69190945Y-70056331D01*
X69196056Y-70059020D01*
X69196059Y-70059022D01*
X69215376Y-70069185D01*
X69380025Y-70155811D01*
X69385546Y-70157525D01*
X69385550Y-70157527D01*
X69578552Y-70217456D01*
X69578557Y-70217457D01*
X69584067Y-70219168D01*
X69614518Y-70222772D01*
X69753855Y-70239264D01*
X69753861Y-70239264D01*
X69757542Y-70239700D01*
X70225026Y-70239700D01*
X70293147Y-70259702D01*
X70339640Y-70313358D01*
X70349744Y-70383632D01*
X70320250Y-70448212D01*
X70260495Y-70486605D01*
X70215483Y-70499810D01*
X70067266Y-70543292D01*
X70061939Y-70546036D01*
X70061938Y-70546036D01*
X69884551Y-70637396D01*
X69884548Y-70637398D01*
X69879220Y-70640142D01*
X69712880Y-70770804D01*
X69708948Y-70775335D01*
X69708945Y-70775338D01*
X69625134Y-70871922D01*
X69574248Y-70930563D01*
X69571248Y-70935749D01*
X69571245Y-70935753D01*
X69524112Y-71017226D01*
X69468327Y-71113654D01*
X69398939Y-71313471D01*
X69398078Y-71319406D01*
X69398078Y-71319408D01*
X69397771Y-71321529D01*
X69368587Y-71522804D01*
X69378367Y-71734099D01*
X69427925Y-71939734D01*
X69430407Y-71945192D01*
X69430408Y-71945196D01*
X69473853Y-72040746D01*
X69515474Y-72132287D01*
X69608884Y-72263971D01*
X69626119Y-72288267D01*
X69637854Y-72304811D01*
X69790650Y-72451081D01*
X69968348Y-72565820D01*
X69973914Y-72568063D01*
X70158968Y-72642642D01*
X70158971Y-72642643D01*
X70164537Y-72644886D01*
X70244476Y-72660497D01*
X70267717Y-72665036D01*
X70330741Y-72697724D01*
X70366088Y-72759296D01*
X70362535Y-72830204D01*
X70321211Y-72887934D01*
X70255235Y-72914159D01*
X70243567Y-72914700D01*
X69772604Y-72914700D01*
X69662660Y-72924803D01*
X69619799Y-72928741D01*
X69619797Y-72928741D01*
X69614044Y-72929270D01*
X69484029Y-72965938D01*
X69413972Y-72985696D01*
X69413970Y-72985697D01*
X69408413Y-72987264D01*
X69403237Y-72989816D01*
X69403233Y-72989818D01*
X69229601Y-73075444D01*
X69216793Y-73081760D01*
X69212167Y-73085214D01*
X69212166Y-73085215D01*
X69050227Y-73206140D01*
X69045603Y-73209593D01*
X69041689Y-73213827D01*
X69041687Y-73213829D01*
X68909885Y-73356413D01*
X68900576Y-73366483D01*
X68786568Y-73547175D01*
X68707397Y-73745618D01*
X68706272Y-73751275D01*
X68706270Y-73751281D01*
X68666951Y-73948956D01*
X68665716Y-73955165D01*
X68665640Y-73960940D01*
X68665640Y-73960944D01*
X68665242Y-73991383D01*
X68662919Y-74168799D01*
X68663898Y-74174496D01*
X68663898Y-74174497D01*
X68689004Y-74320605D01*
X68699101Y-74379366D01*
X68773050Y-74579813D01*
X68776002Y-74584774D01*
X68776002Y-74584775D01*
X68856431Y-74719964D01*
X68882289Y-74763428D01*
X68886095Y-74767768D01*
X68886098Y-74767772D01*
X68966577Y-74859540D01*
X69023160Y-74924060D01*
X69190945Y-75056331D01*
X69196056Y-75059020D01*
X69196059Y-75059022D01*
X69221943Y-75072640D01*
X69380025Y-75155811D01*
X69546685Y-75207560D01*
X69605806Y-75246861D01*
X69634297Y-75311891D01*
X69623107Y-75382000D01*
X69575790Y-75434930D01*
X69543519Y-75449160D01*
X69413972Y-75485696D01*
X69413970Y-75485697D01*
X69408413Y-75487264D01*
X69403237Y-75489816D01*
X69403233Y-75489818D01*
X69221974Y-75579205D01*
X69216793Y-75581760D01*
X69212167Y-75585214D01*
X69212166Y-75585215D01*
X69054005Y-75703319D01*
X69045603Y-75709593D01*
X69041689Y-75713827D01*
X69041687Y-75713829D01*
X68916193Y-75849589D01*
X68900576Y-75866483D01*
X68786568Y-76047175D01*
X68707397Y-76245618D01*
X68706272Y-76251275D01*
X68706270Y-76251281D01*
X68666843Y-76449497D01*
X68665716Y-76455165D01*
X68665640Y-76460940D01*
X68665640Y-76460944D01*
X68664461Y-76551031D01*
X68662919Y-76668799D01*
X65207580Y-76668799D01*
X65205912Y-76665223D01*
X65205910Y-76665220D01*
X65203589Y-76660242D01*
X65082301Y-76487024D01*
X64948405Y-76353128D01*
X64914379Y-76290816D01*
X64911500Y-76264033D01*
X64911500Y-74859540D01*
X64912933Y-74840589D01*
X64915099Y-74826354D01*
X64915099Y-74826352D01*
X64916199Y-74819122D01*
X64913264Y-74783032D01*
X64911915Y-74766453D01*
X64911500Y-74756238D01*
X64911500Y-74748178D01*
X64908211Y-74719964D01*
X64907778Y-74715589D01*
X64902454Y-74650132D01*
X64902453Y-74650129D01*
X64901860Y-74642834D01*
X64899604Y-74635870D01*
X64898413Y-74629911D01*
X64897029Y-74624056D01*
X64896182Y-74616790D01*
X64871265Y-74548144D01*
X64869848Y-74544016D01*
X64849607Y-74481535D01*
X64849606Y-74481533D01*
X64847351Y-74474572D01*
X64843555Y-74468317D01*
X64841049Y-74462843D01*
X64838330Y-74457413D01*
X64835833Y-74450534D01*
X64795809Y-74389487D01*
X64793472Y-74385783D01*
X64758509Y-74328164D01*
X64758505Y-74328159D01*
X64755595Y-74323363D01*
X64748197Y-74314987D01*
X64748223Y-74314964D01*
X64745574Y-74311974D01*
X64742866Y-74308735D01*
X64738856Y-74302619D01*
X64733549Y-74297592D01*
X64733546Y-74297588D01*
X64682617Y-74249343D01*
X64680175Y-74246965D01*
X64172518Y-73739308D01*
X64138492Y-73676996D01*
X64136092Y-73639232D01*
X64145828Y-73527947D01*
X64145828Y-73527946D01*
X64146307Y-73522471D01*
X64127115Y-73303100D01*
X64070120Y-73090395D01*
X63997767Y-72935232D01*
X63979382Y-72895805D01*
X63979379Y-72895800D01*
X63977056Y-72890818D01*
X63956642Y-72861664D01*
X63853908Y-72714944D01*
X63853906Y-72714941D01*
X63850749Y-72710433D01*
X63695038Y-72554722D01*
X63690529Y-72551565D01*
X63686504Y-72548187D01*
X63647181Y-72489076D01*
X63641500Y-72451669D01*
X63641500Y-70328500D01*
X63661502Y-70260379D01*
X63678405Y-70239405D01*
X63982316Y-69935494D01*
X64044628Y-69901468D01*
X64082392Y-69899068D01*
X64147524Y-69904766D01*
X64147525Y-69904766D01*
X64153000Y-69905245D01*
X64363655Y-69886815D01*
X64368968Y-69885391D01*
X64368970Y-69885391D01*
X64562600Y-69833508D01*
X64562602Y-69833507D01*
X64567910Y-69832085D01*
X64624178Y-69805847D01*
X64754577Y-69745041D01*
X64754580Y-69745039D01*
X64759558Y-69742718D01*
X64932776Y-69621430D01*
X65082301Y-69471905D01*
X65203589Y-69298687D01*
X65292956Y-69107039D01*
X65347686Y-68902784D01*
X65366116Y-68692129D01*
X65347686Y-68481474D01*
X65304448Y-68320107D01*
X65294379Y-68282529D01*
X65294378Y-68282527D01*
X65292956Y-68277219D01*
X65271096Y-68230340D01*
X65205912Y-68090552D01*
X65205910Y-68090549D01*
X65203589Y-68085571D01*
X65082301Y-67912353D01*
X64932776Y-67762828D01*
X64759558Y-67641540D01*
X64754580Y-67639219D01*
X64754577Y-67639217D01*
X64658808Y-67594559D01*
X64605523Y-67547641D01*
X64586062Y-67479364D01*
X64606604Y-67411404D01*
X64658809Y-67366169D01*
X64754573Y-67321514D01*
X64754577Y-67321512D01*
X64759558Y-67319189D01*
X64932776Y-67197901D01*
X65082301Y-67048376D01*
X65203589Y-66875158D01*
X65219551Y-66840929D01*
X65290633Y-66688492D01*
X65290634Y-66688491D01*
X65292956Y-66683510D01*
X65306867Y-66631596D01*
X65346262Y-66484570D01*
X65346262Y-66484568D01*
X65347686Y-66479255D01*
X65366116Y-66268600D01*
X65347686Y-66057945D01*
X65346262Y-66052630D01*
X65294379Y-65859000D01*
X65294378Y-65858998D01*
X65292956Y-65853690D01*
X65254306Y-65770804D01*
X65205912Y-65667023D01*
X65205910Y-65667020D01*
X65203589Y-65662042D01*
X65082301Y-65488824D01*
X64932776Y-65339299D01*
X64759558Y-65218011D01*
X64754580Y-65215690D01*
X64754577Y-65215688D01*
X64572892Y-65130967D01*
X64572891Y-65130966D01*
X64567910Y-65128644D01*
X64562602Y-65127222D01*
X64562600Y-65127221D01*
X64368970Y-65075338D01*
X64368968Y-65075338D01*
X64363655Y-65073914D01*
X64153000Y-65055484D01*
X63942345Y-65073914D01*
X63937032Y-65075338D01*
X63937030Y-65075338D01*
X63743400Y-65127221D01*
X63743398Y-65127222D01*
X63738090Y-65128644D01*
X63733109Y-65130966D01*
X63733108Y-65130967D01*
X63551423Y-65215688D01*
X63551420Y-65215690D01*
X63546442Y-65218011D01*
X63373224Y-65339299D01*
X63239328Y-65473195D01*
X63177016Y-65507221D01*
X63150233Y-65510100D01*
X62144670Y-65510100D01*
X62125720Y-65508667D01*
X62111485Y-65506501D01*
X62111481Y-65506501D01*
X62104251Y-65505401D01*
X62096959Y-65505994D01*
X62096956Y-65505994D01*
X62051582Y-65509685D01*
X62041367Y-65510100D01*
X62033307Y-65510100D01*
X62029673Y-65510524D01*
X62029667Y-65510524D01*
X62016642Y-65512043D01*
X62005080Y-65513391D01*
X62000732Y-65513821D01*
X61927964Y-65519740D01*
X61921003Y-65521995D01*
X61915063Y-65523182D01*
X61909188Y-65524571D01*
X61901919Y-65525418D01*
X61833270Y-65550336D01*
X61829142Y-65551753D01*
X61766664Y-65571993D01*
X61766662Y-65571994D01*
X61759701Y-65574249D01*
X61753446Y-65578045D01*
X61747972Y-65580551D01*
X61742542Y-65583270D01*
X61735663Y-65585767D01*
X61729543Y-65589780D01*
X61729542Y-65589780D01*
X61674624Y-65625786D01*
X61670920Y-65628123D01*
X61608493Y-65666005D01*
X61600116Y-65673403D01*
X61600092Y-65673376D01*
X61597100Y-65676029D01*
X61593867Y-65678732D01*
X61587748Y-65682744D01*
X61582716Y-65688056D01*
X61534472Y-65738983D01*
X61532094Y-65741425D01*
X59854089Y-67419430D01*
X59839677Y-67431816D01*
X59828082Y-67440349D01*
X59828077Y-67440354D01*
X59822182Y-67444692D01*
X59817443Y-67450270D01*
X59817440Y-67450273D01*
X59787965Y-67484968D01*
X59781035Y-67492484D01*
X59775340Y-67498179D01*
X59773060Y-67501061D01*
X59757719Y-67520451D01*
X59754928Y-67523855D01*
X59713482Y-67572640D01*
X59707667Y-67579485D01*
X59704339Y-67586001D01*
X59700972Y-67591050D01*
X59697805Y-67596179D01*
X59693266Y-67601916D01*
X59662345Y-67668075D01*
X59660442Y-67671969D01*
X59627231Y-67737008D01*
X59625492Y-67744116D01*
X59623393Y-67749759D01*
X59621476Y-67755522D01*
X59618378Y-67762150D01*
X59616888Y-67769312D01*
X59616888Y-67769313D01*
X59603514Y-67833612D01*
X59602544Y-67837896D01*
X59585192Y-67908810D01*
X59584844Y-67914412D01*
X59584844Y-67914415D01*
X59584692Y-67916865D01*
X59584500Y-67919964D01*
X59584464Y-67919962D01*
X59584225Y-67923955D01*
X59583851Y-67928147D01*
X59582360Y-67935315D01*
X59582558Y-67942632D01*
X59584454Y-68012721D01*
X59584500Y-68016128D01*
X59584500Y-72451669D01*
X59564498Y-72519790D01*
X59539496Y-72548187D01*
X59535471Y-72551565D01*
X59530962Y-72554722D01*
X59375251Y-72710433D01*
X59372094Y-72714941D01*
X59372092Y-72714944D01*
X59341037Y-72759296D01*
X59291387Y-72830204D01*
X59290713Y-72831166D01*
X59235256Y-72875494D01*
X59164637Y-72882803D01*
X59101276Y-72850772D01*
X59065291Y-72789571D01*
X59061500Y-72758895D01*
X59061500Y-72724337D01*
X59054745Y-72662155D01*
X59003615Y-72525766D01*
X58916261Y-72409210D01*
X58799705Y-72321856D01*
X58663316Y-72270726D01*
X58601134Y-72263971D01*
X57004866Y-72263971D01*
X56942684Y-72270726D01*
X56806295Y-72321856D01*
X56689739Y-72409210D01*
X56602385Y-72525766D01*
X56551255Y-72662155D01*
X56544500Y-72724337D01*
X56544500Y-74320605D01*
X54813700Y-74320605D01*
X54813700Y-69706390D01*
X55883294Y-69706390D01*
X55892590Y-69718405D01*
X55922189Y-69739130D01*
X55931677Y-69744608D01*
X56113277Y-69829288D01*
X56123571Y-69833036D01*
X56317122Y-69884898D01*
X56327909Y-69886800D01*
X56527525Y-69904264D01*
X56538475Y-69904264D01*
X56738091Y-69886800D01*
X56748878Y-69884898D01*
X56942429Y-69833036D01*
X56952723Y-69829288D01*
X57134323Y-69744608D01*
X57143811Y-69739130D01*
X57174248Y-69717818D01*
X57182623Y-69707341D01*
X57175554Y-69693893D01*
X56545812Y-69064151D01*
X56531868Y-69056537D01*
X56530035Y-69056668D01*
X56523420Y-69060919D01*
X55889724Y-69694615D01*
X55883294Y-69706390D01*
X54813700Y-69706390D01*
X54813700Y-68697604D01*
X55320865Y-68697604D01*
X55338329Y-68897220D01*
X55340231Y-68908007D01*
X55392093Y-69101558D01*
X55395841Y-69111852D01*
X55480521Y-69293452D01*
X55485999Y-69302940D01*
X55507311Y-69333377D01*
X55517788Y-69341752D01*
X55531236Y-69334683D01*
X56160978Y-68704941D01*
X56167356Y-68693261D01*
X56897408Y-68693261D01*
X56897539Y-68695094D01*
X56901790Y-68701709D01*
X57535486Y-69335405D01*
X57547261Y-69341835D01*
X57559276Y-69332539D01*
X57580001Y-69302940D01*
X57585479Y-69293452D01*
X57670159Y-69111852D01*
X57673907Y-69101558D01*
X57725769Y-68908007D01*
X57727671Y-68897220D01*
X57745135Y-68697604D01*
X57745135Y-68686654D01*
X57727671Y-68487038D01*
X57725769Y-68476251D01*
X57673907Y-68282700D01*
X57670159Y-68272406D01*
X57585479Y-68090806D01*
X57580001Y-68081318D01*
X57558689Y-68050881D01*
X57548212Y-68042506D01*
X57534764Y-68049575D01*
X56905022Y-68679317D01*
X56897408Y-68693261D01*
X56167356Y-68693261D01*
X56168592Y-68690997D01*
X56168461Y-68689164D01*
X56164210Y-68682549D01*
X55530514Y-68048853D01*
X55518739Y-68042423D01*
X55506724Y-68051719D01*
X55485999Y-68081318D01*
X55480521Y-68090806D01*
X55395841Y-68272406D01*
X55392093Y-68282700D01*
X55340231Y-68476251D01*
X55338329Y-68487038D01*
X55320865Y-68686654D01*
X55320865Y-68697604D01*
X54813700Y-68697604D01*
X54813700Y-67282861D01*
X55883294Y-67282861D01*
X55892590Y-67294876D01*
X55922189Y-67315601D01*
X55931673Y-67321077D01*
X56028376Y-67366170D01*
X56081661Y-67413087D01*
X56101122Y-67481364D01*
X56080580Y-67549324D01*
X56028375Y-67594560D01*
X55931677Y-67639650D01*
X55922189Y-67645128D01*
X55891752Y-67666440D01*
X55883377Y-67676917D01*
X55890446Y-67690365D01*
X56520188Y-68320107D01*
X56534132Y-68327721D01*
X56535965Y-68327590D01*
X56542580Y-68323339D01*
X57176276Y-67689643D01*
X57182706Y-67677868D01*
X57173410Y-67665853D01*
X57143811Y-67645128D01*
X57134323Y-67639650D01*
X57037625Y-67594560D01*
X56984340Y-67547644D01*
X56964878Y-67479367D01*
X56985419Y-67411406D01*
X57037624Y-67366170D01*
X57134327Y-67321077D01*
X57143811Y-67315601D01*
X57174248Y-67294289D01*
X57182623Y-67283812D01*
X57175554Y-67270364D01*
X56545812Y-66640622D01*
X56531868Y-66633008D01*
X56530035Y-66633139D01*
X56523420Y-66637390D01*
X55889724Y-67271086D01*
X55883294Y-67282861D01*
X54813700Y-67282861D01*
X54813700Y-66274075D01*
X55320865Y-66274075D01*
X55338329Y-66473691D01*
X55340231Y-66484478D01*
X55392093Y-66678029D01*
X55395841Y-66688323D01*
X55480521Y-66869923D01*
X55485999Y-66879411D01*
X55507311Y-66909848D01*
X55517788Y-66918223D01*
X55531236Y-66911154D01*
X56160978Y-66281412D01*
X56167356Y-66269732D01*
X56897408Y-66269732D01*
X56897539Y-66271565D01*
X56901790Y-66278180D01*
X57535486Y-66911876D01*
X57547261Y-66918306D01*
X57559276Y-66909010D01*
X57580001Y-66879411D01*
X57585479Y-66869923D01*
X57670159Y-66688323D01*
X57673907Y-66678029D01*
X57725769Y-66484478D01*
X57727671Y-66473691D01*
X57745135Y-66274075D01*
X57745135Y-66263125D01*
X57727671Y-66063509D01*
X57725769Y-66052722D01*
X57673907Y-65859171D01*
X57670159Y-65848877D01*
X57585479Y-65667277D01*
X57580001Y-65657789D01*
X57558689Y-65627352D01*
X57548212Y-65618977D01*
X57534764Y-65626046D01*
X56905022Y-66255788D01*
X56897408Y-66269732D01*
X56167356Y-66269732D01*
X56168592Y-66267468D01*
X56168461Y-66265635D01*
X56164210Y-66259020D01*
X55530514Y-65625324D01*
X55518739Y-65618894D01*
X55506724Y-65628190D01*
X55485999Y-65657789D01*
X55480521Y-65667277D01*
X55395841Y-65848877D01*
X55392093Y-65859171D01*
X55340231Y-66052722D01*
X55338329Y-66063509D01*
X55320865Y-66263125D01*
X55320865Y-66274075D01*
X54813700Y-66274075D01*
X54813700Y-65253388D01*
X55883377Y-65253388D01*
X55890446Y-65266836D01*
X56520188Y-65896578D01*
X56534132Y-65904192D01*
X56535965Y-65904061D01*
X56542580Y-65899810D01*
X57176276Y-65266114D01*
X57182706Y-65254339D01*
X57173410Y-65242324D01*
X57143811Y-65221599D01*
X57134323Y-65216121D01*
X56952723Y-65131441D01*
X56942429Y-65127693D01*
X56748878Y-65075831D01*
X56738091Y-65073929D01*
X56538475Y-65056465D01*
X56527525Y-65056465D01*
X56327909Y-65073929D01*
X56317122Y-65075831D01*
X56123571Y-65127693D01*
X56113277Y-65131441D01*
X55931677Y-65216121D01*
X55922189Y-65221599D01*
X55891752Y-65242911D01*
X55883377Y-65253388D01*
X54813700Y-65253388D01*
X54813700Y-64529782D01*
X71522142Y-64529782D01*
X71529668Y-64540215D01*
X71675463Y-64657648D01*
X71681648Y-64662044D01*
X71957363Y-64833995D01*
X71964034Y-64837617D01*
X72258414Y-64975202D01*
X72265468Y-64977995D01*
X72574257Y-65079220D01*
X72581570Y-65081139D01*
X72900298Y-65144538D01*
X72907789Y-65145564D01*
X73231823Y-65170213D01*
X73239386Y-65170331D01*
X73564021Y-65155874D01*
X73571562Y-65155082D01*
X73892115Y-65101726D01*
X73899479Y-65100040D01*
X74211315Y-65008557D01*
X74218424Y-65005998D01*
X74517003Y-64877719D01*
X74523770Y-64874315D01*
X74804764Y-64711101D01*
X74811071Y-64706911D01*
X75029005Y-64542388D01*
X75037461Y-64530997D01*
X75030743Y-64518753D01*
X73291812Y-62779822D01*
X73277868Y-62772208D01*
X73276035Y-62772339D01*
X73269420Y-62776590D01*
X71529257Y-64516753D01*
X71522142Y-64529782D01*
X54813700Y-64529782D01*
X54813700Y-62382658D01*
X70516299Y-62382658D01*
X70532456Y-62707210D01*
X70533287Y-62714739D01*
X70588318Y-63034998D01*
X70590051Y-63042385D01*
X70683156Y-63353709D01*
X70685759Y-63360822D01*
X70815595Y-63658713D01*
X70819037Y-63665469D01*
X70983720Y-63945603D01*
X70987943Y-63951888D01*
X71144792Y-64157408D01*
X71156316Y-64165869D01*
X71168382Y-64159208D01*
X72906978Y-62420612D01*
X72913356Y-62408932D01*
X73643408Y-62408932D01*
X73643539Y-62410765D01*
X73647790Y-62417380D01*
X75387825Y-64157415D01*
X75400948Y-64164581D01*
X75411250Y-64157191D01*
X75520429Y-64023085D01*
X75524842Y-64016944D01*
X75698248Y-63742112D01*
X75701895Y-63735477D01*
X75841025Y-63441811D01*
X75843850Y-63434784D01*
X75946696Y-63126515D01*
X75948650Y-63119224D01*
X76013716Y-62800833D01*
X76014784Y-62793329D01*
X76041253Y-62467900D01*
X76041458Y-62463425D01*
X76042018Y-62410021D01*
X76041908Y-62405589D01*
X76022257Y-62079635D01*
X76021349Y-62072133D01*
X75962967Y-61752463D01*
X75961154Y-61745084D01*
X75864797Y-61434766D01*
X75862116Y-61427669D01*
X75729172Y-61131163D01*
X75725655Y-61124436D01*
X75558054Y-60846052D01*
X75553757Y-60839799D01*
X75412617Y-60658822D01*
X75400823Y-60650351D01*
X75389113Y-60656897D01*
X73651022Y-62394988D01*
X73643408Y-62408932D01*
X72913356Y-62408932D01*
X72914592Y-62406668D01*
X72914461Y-62404835D01*
X72910210Y-62398220D01*
X71169864Y-60657874D01*
X71156929Y-60650811D01*
X71146367Y-60658471D01*
X71020785Y-60816068D01*
X71016428Y-60822267D01*
X70845913Y-61098894D01*
X70842333Y-61105570D01*
X70706287Y-61400678D01*
X70703537Y-61407729D01*
X70603927Y-61717051D01*
X70602044Y-61724384D01*
X70540316Y-62043432D01*
X70539329Y-62050932D01*
X70516378Y-62375077D01*
X70516299Y-62382658D01*
X54813700Y-62382658D01*
X54813700Y-60285573D01*
X71521267Y-60285573D01*
X71527871Y-60297461D01*
X73266188Y-62035778D01*
X73280132Y-62043392D01*
X73281965Y-62043261D01*
X73288580Y-62039010D01*
X75029162Y-60298428D01*
X75036174Y-60285587D01*
X75028379Y-60274898D01*
X74858886Y-60141281D01*
X74852663Y-60136956D01*
X74575140Y-59967888D01*
X74568465Y-59964353D01*
X74272637Y-59829849D01*
X74265567Y-59827135D01*
X73955740Y-59729150D01*
X73948389Y-59727303D01*
X73629024Y-59667246D01*
X73621515Y-59666298D01*
X73297251Y-59645045D01*
X73289686Y-59645005D01*
X72965207Y-59662862D01*
X72957693Y-59663731D01*
X72637713Y-59720441D01*
X72630357Y-59722206D01*
X72319503Y-59816947D01*
X72312409Y-59819586D01*
X72015207Y-59950978D01*
X72008470Y-59954455D01*
X71729196Y-60120605D01*
X71722945Y-60124853D01*
X71529733Y-60273915D01*
X71521267Y-60285573D01*
X54813700Y-60285573D01*
X54813700Y-59511700D01*
X54833702Y-59443579D01*
X54887358Y-59397086D01*
X54939700Y-59385700D01*
X79375500Y-59385700D01*
X79443621Y-59405702D01*
G37*
%TD.AperFunction*%
%TD*%
M02*
