%TF.GenerationSoftware,KiCad,Pcbnew,(6.0.7)*%
%TF.CreationDate,2022-12-16T00:38:34+00:00*%
%TF.ProjectId,CPC464-2MINITapeAdapter,43504334-3634-42d3-924d-494e49546170,rev?*%
%TF.SameCoordinates,Original*%
%TF.FileFunction,Drillmap*%
%TF.FilePolarity,Positive*%
%FSLAX45Y45*%
G04 Gerber Fmt 4.5, Leading zero omitted, Abs format (unit mm)*
G04 Created by KiCad (PCBNEW (6.0.7)) date 2022-12-16 00:38:34*
%MOMM*%
%LPD*%
G01*
G04 APERTURE LIST*
%ADD10C,0.150000*%
%ADD11C,0.200000*%
%ADD12C,0.060000*%
%ADD13C,0.070000*%
%ADD14C,0.080000*%
%ADD15C,0.100000*%
%ADD16C,0.270000*%
G04 APERTURE END LIST*
D10*
X8001000Y-10205720D02*
X5430520Y-10205720D01*
X5430520Y-10205720D02*
X5430520Y-5887720D01*
X5430520Y-5887720D02*
X8001000Y-5887720D01*
X8001000Y-5887720D02*
X8001000Y-10205720D01*
D11*
D12*
X6348600Y-8364700D02*
X6408600Y-8424700D01*
X6408600Y-8364700D02*
X6348600Y-8424700D01*
X6548600Y-8364700D02*
X6608600Y-8424700D01*
X6608600Y-8364700D02*
X6548600Y-8424700D01*
D13*
X5688300Y-6626860D02*
G75*
G03*
X5688300Y-6626860I-35000J0D01*
G01*
X5688300Y-6869213D02*
G75*
G03*
X5688300Y-6869213I-35000J0D01*
G01*
X5688300Y-7726680D02*
G75*
G03*
X5688300Y-7726680I-35000J0D01*
G01*
X5688300Y-7978140D02*
G75*
G03*
X5688300Y-7978140I-35000J0D01*
G01*
X5688300Y-8856980D02*
G75*
G03*
X5688300Y-8856980I-35000J0D01*
G01*
X5688300Y-9095740D02*
G75*
G03*
X5688300Y-9095740I-35000J0D01*
G01*
X5688300Y-9342120D02*
G75*
G03*
X5688300Y-9342120I-35000J0D01*
G01*
X6450300Y-6626860D02*
G75*
G03*
X6450300Y-6626860I-35000J0D01*
G01*
X6450300Y-6869213D02*
G75*
G03*
X6450300Y-6869213I-35000J0D01*
G01*
X6450300Y-7726680D02*
G75*
G03*
X6450300Y-7726680I-35000J0D01*
G01*
X6450300Y-7978140D02*
G75*
G03*
X6450300Y-7978140I-35000J0D01*
G01*
X6450300Y-8856980D02*
G75*
G03*
X6450300Y-8856980I-35000J0D01*
G01*
X6450300Y-9095740D02*
G75*
G03*
X6450300Y-9095740I-35000J0D01*
G01*
X6450300Y-9342120D02*
G75*
G03*
X6450300Y-9342120I-35000J0D01*
G01*
D14*
X5631900Y-8354700D02*
X5631900Y-8434700D01*
X5591900Y-8394700D02*
X5671900Y-8394700D01*
X5780300Y-7312247D02*
X5780300Y-7392247D01*
X5740300Y-7352247D02*
X5820300Y-7352247D01*
X6034300Y-7312247D02*
X6034300Y-7392247D01*
X5994300Y-7352247D02*
X6074300Y-7352247D01*
X6131900Y-8354700D02*
X6131900Y-8434700D01*
X6091900Y-8394700D02*
X6171900Y-8394700D01*
X6288300Y-7312247D02*
X6288300Y-7392247D01*
X6248300Y-7352247D02*
X6328300Y-7352247D01*
X7048080Y-6617720D02*
X7048080Y-6697720D01*
X7008080Y-6657720D02*
X7088080Y-6657720D01*
D11*
X7083080Y-6617720D02*
X7013080Y-6617720D01*
X7083080Y-6697720D02*
X7013080Y-6697720D01*
X7013080Y-6617720D02*
G75*
G03*
X7013080Y-6697720I0J-40000D01*
G01*
X7083080Y-6697720D02*
G75*
G03*
X7083080Y-6617720I0J40000D01*
G01*
D14*
X7048080Y-6867720D02*
X7048080Y-6947720D01*
X7008080Y-6907720D02*
X7088080Y-6907720D01*
D11*
X7083080Y-6867720D02*
X7013080Y-6867720D01*
X7083080Y-6947720D02*
X7013080Y-6947720D01*
X7013080Y-6867720D02*
G75*
G03*
X7013080Y-6947720I0J-40000D01*
G01*
X7083080Y-6947720D02*
G75*
G03*
X7083080Y-6867720I0J40000D01*
G01*
D14*
X7048080Y-7367720D02*
X7048080Y-7447720D01*
X7008080Y-7407720D02*
X7088080Y-7407720D01*
D11*
X7083080Y-7367720D02*
X7013080Y-7367720D01*
X7083080Y-7447720D02*
X7013080Y-7447720D01*
X7013080Y-7367720D02*
G75*
G03*
X7013080Y-7447720I0J-40000D01*
G01*
X7083080Y-7447720D02*
G75*
G03*
X7083080Y-7367720I0J40000D01*
G01*
D14*
X7048080Y-7617720D02*
X7048080Y-7697720D01*
X7008080Y-7657720D02*
X7088080Y-7657720D01*
D11*
X7083080Y-7617720D02*
X7013080Y-7617720D01*
X7083080Y-7697720D02*
X7013080Y-7697720D01*
X7013080Y-7617720D02*
G75*
G03*
X7013080Y-7697720I0J-40000D01*
G01*
X7083080Y-7697720D02*
G75*
G03*
X7083080Y-7617720I0J40000D01*
G01*
D14*
X7048080Y-7918200D02*
X7048080Y-7998200D01*
X7008080Y-7958200D02*
X7088080Y-7958200D01*
D11*
X7083080Y-7918200D02*
X7013080Y-7918200D01*
X7083080Y-7998200D02*
X7013080Y-7998200D01*
X7013080Y-7918200D02*
G75*
G03*
X7013080Y-7998200I0J-40000D01*
G01*
X7083080Y-7998200D02*
G75*
G03*
X7083080Y-7918200I0J40000D01*
G01*
D14*
X7048080Y-8168200D02*
X7048080Y-8248200D01*
X7008080Y-8208200D02*
X7088080Y-8208200D01*
D11*
X7083080Y-8168200D02*
X7013080Y-8168200D01*
X7083080Y-8248200D02*
X7013080Y-8248200D01*
X7013080Y-8168200D02*
G75*
G03*
X7013080Y-8248200I0J-40000D01*
G01*
X7083080Y-8248200D02*
G75*
G03*
X7083080Y-8168200I0J40000D01*
G01*
D14*
X7048080Y-8668200D02*
X7048080Y-8748200D01*
X7008080Y-8708200D02*
X7088080Y-8708200D01*
D11*
X7083080Y-8668200D02*
X7013080Y-8668200D01*
X7083080Y-8748200D02*
X7013080Y-8748200D01*
X7013080Y-8668200D02*
G75*
G03*
X7013080Y-8748200I0J-40000D01*
G01*
X7083080Y-8748200D02*
G75*
G03*
X7083080Y-8668200I0J40000D01*
G01*
D14*
X7048080Y-8918200D02*
X7048080Y-8998200D01*
X7008080Y-8958200D02*
X7088080Y-8958200D01*
D11*
X7083080Y-8918200D02*
X7013080Y-8918200D01*
X7083080Y-8998200D02*
X7013080Y-8998200D01*
X7013080Y-8918200D02*
G75*
G03*
X7013080Y-8998200I0J-40000D01*
G01*
X7083080Y-8998200D02*
G75*
G03*
X7083080Y-8918200I0J40000D01*
G01*
D14*
X7548080Y-7117720D02*
X7548080Y-7197720D01*
X7508080Y-7157720D02*
X7588080Y-7157720D01*
D11*
X7588080Y-7192720D02*
X7588080Y-7122720D01*
X7508080Y-7192720D02*
X7508080Y-7122720D01*
X7588080Y-7122720D02*
G75*
G03*
X7508080Y-7122720I-40000J0D01*
G01*
X7508080Y-7192720D02*
G75*
G03*
X7588080Y-7192720I40000J0D01*
G01*
D14*
X7548080Y-8418200D02*
X7548080Y-8498200D01*
X7508080Y-8458200D02*
X7588080Y-8458200D01*
D11*
X7588080Y-8493200D02*
X7588080Y-8423200D01*
X7508080Y-8493200D02*
X7508080Y-8423200D01*
X7588080Y-8423200D02*
G75*
G03*
X7508080Y-8423200I-40000J0D01*
G01*
X7508080Y-8493200D02*
G75*
G03*
X7588080Y-8493200I40000J0D01*
G01*
D15*
X5845836Y-9786416D02*
X5845836Y-9715704D01*
X5775124Y-9715704D01*
X5775124Y-9786416D01*
X5845836Y-9786416D01*
X6099836Y-9786416D02*
X6099836Y-9715704D01*
X6029124Y-9715704D01*
X6029124Y-9786416D01*
X6099836Y-9786416D01*
X6353836Y-9786416D02*
X6353836Y-9715704D01*
X6283124Y-9715704D01*
X6283124Y-9786416D01*
X6353836Y-9786416D01*
X6607836Y-9786416D02*
X6607836Y-9715704D01*
X6537124Y-9715704D01*
X6537124Y-9786416D01*
X6607836Y-9786416D01*
X6861836Y-9786416D02*
X6861836Y-9715704D01*
X6791124Y-9715704D01*
X6791124Y-9786416D01*
X6861836Y-9786416D01*
X7115836Y-9786416D02*
X7115836Y-9715704D01*
X7045124Y-9715704D01*
X7045124Y-9786416D01*
X7115836Y-9786416D01*
X7369836Y-9786416D02*
X7369836Y-9715704D01*
X7299124Y-9715704D01*
X7299124Y-9786416D01*
X7369836Y-9786416D01*
X7623836Y-9786416D02*
X7623836Y-9715704D01*
X7553124Y-9715704D01*
X7553124Y-9786416D01*
X7623836Y-9786416D01*
D16*
X7327900Y-6375780D02*
X7462900Y-6240780D01*
X7327900Y-6105780D01*
X7192900Y-6240780D01*
X7327900Y-6375780D01*
D11*
X5680639Y-10523696D02*
X5680639Y-10323696D01*
X5728258Y-10323696D01*
X5756829Y-10333220D01*
X5775877Y-10352268D01*
X5785401Y-10371315D01*
X5794925Y-10409410D01*
X5794925Y-10437982D01*
X5785401Y-10476077D01*
X5775877Y-10495125D01*
X5756829Y-10514172D01*
X5728258Y-10523696D01*
X5680639Y-10523696D01*
X5880639Y-10523696D02*
X5880639Y-10390363D01*
X5880639Y-10428458D02*
X5890163Y-10409410D01*
X5899687Y-10399887D01*
X5918734Y-10390363D01*
X5937782Y-10390363D01*
X6004448Y-10523696D02*
X6004448Y-10390363D01*
X6004448Y-10323696D02*
X5994925Y-10333220D01*
X6004448Y-10342744D01*
X6013972Y-10333220D01*
X6004448Y-10323696D01*
X6004448Y-10342744D01*
X6128258Y-10523696D02*
X6109210Y-10514172D01*
X6099687Y-10495125D01*
X6099687Y-10323696D01*
X6233020Y-10523696D02*
X6213972Y-10514172D01*
X6204448Y-10495125D01*
X6204448Y-10323696D01*
X6461591Y-10523696D02*
X6461591Y-10323696D01*
X6528258Y-10466553D01*
X6594925Y-10323696D01*
X6594925Y-10523696D01*
X6775877Y-10523696D02*
X6775877Y-10418934D01*
X6766353Y-10399887D01*
X6747306Y-10390363D01*
X6709210Y-10390363D01*
X6690163Y-10399887D01*
X6775877Y-10514172D02*
X6756829Y-10523696D01*
X6709210Y-10523696D01*
X6690163Y-10514172D01*
X6680639Y-10495125D01*
X6680639Y-10476077D01*
X6690163Y-10457030D01*
X6709210Y-10447506D01*
X6756829Y-10447506D01*
X6775877Y-10437982D01*
X6871115Y-10390363D02*
X6871115Y-10590363D01*
X6871115Y-10399887D02*
X6890163Y-10390363D01*
X6928258Y-10390363D01*
X6947306Y-10399887D01*
X6956829Y-10409410D01*
X6966353Y-10428458D01*
X6966353Y-10485601D01*
X6956829Y-10504649D01*
X6947306Y-10514172D01*
X6928258Y-10523696D01*
X6890163Y-10523696D01*
X6871115Y-10514172D01*
X7052068Y-10504649D02*
X7061591Y-10514172D01*
X7052068Y-10523696D01*
X7042544Y-10514172D01*
X7052068Y-10504649D01*
X7052068Y-10523696D01*
X7052068Y-10399887D02*
X7061591Y-10409410D01*
X7052068Y-10418934D01*
X7042544Y-10409410D01*
X7052068Y-10399887D01*
X7052068Y-10418934D01*
D12*
X5363020Y-10823220D02*
X5423020Y-10883220D01*
X5423020Y-10823220D02*
X5363020Y-10883220D01*
D11*
X5718734Y-10743696D02*
X5737782Y-10743696D01*
X5756829Y-10753220D01*
X5766353Y-10762744D01*
X5775877Y-10781791D01*
X5785401Y-10819887D01*
X5785401Y-10867506D01*
X5775877Y-10905601D01*
X5766353Y-10924649D01*
X5756829Y-10934172D01*
X5737782Y-10943696D01*
X5718734Y-10943696D01*
X5699687Y-10934172D01*
X5690163Y-10924649D01*
X5680639Y-10905601D01*
X5671115Y-10867506D01*
X5671115Y-10819887D01*
X5680639Y-10781791D01*
X5690163Y-10762744D01*
X5699687Y-10753220D01*
X5718734Y-10743696D01*
X5871115Y-10924649D02*
X5880639Y-10934172D01*
X5871115Y-10943696D01*
X5861591Y-10934172D01*
X5871115Y-10924649D01*
X5871115Y-10943696D01*
X6052068Y-10743696D02*
X6013972Y-10743696D01*
X5994925Y-10753220D01*
X5985401Y-10762744D01*
X5966353Y-10791315D01*
X5956829Y-10829410D01*
X5956829Y-10905601D01*
X5966353Y-10924649D01*
X5975877Y-10934172D01*
X5994925Y-10943696D01*
X6033020Y-10943696D01*
X6052068Y-10934172D01*
X6061591Y-10924649D01*
X6071115Y-10905601D01*
X6071115Y-10857982D01*
X6061591Y-10838934D01*
X6052068Y-10829410D01*
X6033020Y-10819887D01*
X5994925Y-10819887D01*
X5975877Y-10829410D01*
X5966353Y-10838934D01*
X5956829Y-10857982D01*
X6194925Y-10743696D02*
X6213972Y-10743696D01*
X6233020Y-10753220D01*
X6242544Y-10762744D01*
X6252068Y-10781791D01*
X6261591Y-10819887D01*
X6261591Y-10867506D01*
X6252068Y-10905601D01*
X6242544Y-10924649D01*
X6233020Y-10934172D01*
X6213972Y-10943696D01*
X6194925Y-10943696D01*
X6175877Y-10934172D01*
X6166353Y-10924649D01*
X6156829Y-10905601D01*
X6147306Y-10867506D01*
X6147306Y-10819887D01*
X6156829Y-10781791D01*
X6166353Y-10762744D01*
X6175877Y-10753220D01*
X6194925Y-10743696D01*
X6385401Y-10743696D02*
X6404448Y-10743696D01*
X6423496Y-10753220D01*
X6433020Y-10762744D01*
X6442544Y-10781791D01*
X6452068Y-10819887D01*
X6452068Y-10867506D01*
X6442544Y-10905601D01*
X6433020Y-10924649D01*
X6423496Y-10934172D01*
X6404448Y-10943696D01*
X6385401Y-10943696D01*
X6366353Y-10934172D01*
X6356829Y-10924649D01*
X6347306Y-10905601D01*
X6337782Y-10867506D01*
X6337782Y-10819887D01*
X6347306Y-10781791D01*
X6356829Y-10762744D01*
X6366353Y-10753220D01*
X6385401Y-10743696D01*
X6537782Y-10943696D02*
X6537782Y-10810363D01*
X6537782Y-10829410D02*
X6547306Y-10819887D01*
X6566353Y-10810363D01*
X6594925Y-10810363D01*
X6613972Y-10819887D01*
X6623496Y-10838934D01*
X6623496Y-10943696D01*
X6623496Y-10838934D02*
X6633020Y-10819887D01*
X6652068Y-10810363D01*
X6680639Y-10810363D01*
X6699687Y-10819887D01*
X6709210Y-10838934D01*
X6709210Y-10943696D01*
X6804448Y-10943696D02*
X6804448Y-10810363D01*
X6804448Y-10829410D02*
X6813972Y-10819887D01*
X6833020Y-10810363D01*
X6861591Y-10810363D01*
X6880639Y-10819887D01*
X6890163Y-10838934D01*
X6890163Y-10943696D01*
X6890163Y-10838934D02*
X6899687Y-10819887D01*
X6918734Y-10810363D01*
X6947306Y-10810363D01*
X6966353Y-10819887D01*
X6975877Y-10838934D01*
X6975877Y-10943696D01*
X7366353Y-10734172D02*
X7194925Y-10991315D01*
X7623496Y-10743696D02*
X7642544Y-10743696D01*
X7661591Y-10753220D01*
X7671115Y-10762744D01*
X7680639Y-10781791D01*
X7690163Y-10819887D01*
X7690163Y-10867506D01*
X7680639Y-10905601D01*
X7671115Y-10924649D01*
X7661591Y-10934172D01*
X7642544Y-10943696D01*
X7623496Y-10943696D01*
X7604448Y-10934172D01*
X7594925Y-10924649D01*
X7585401Y-10905601D01*
X7575877Y-10867506D01*
X7575877Y-10819887D01*
X7585401Y-10781791D01*
X7594925Y-10762744D01*
X7604448Y-10753220D01*
X7623496Y-10743696D01*
X7775877Y-10924649D02*
X7785401Y-10934172D01*
X7775877Y-10943696D01*
X7766353Y-10934172D01*
X7775877Y-10924649D01*
X7775877Y-10943696D01*
X7909210Y-10743696D02*
X7928258Y-10743696D01*
X7947306Y-10753220D01*
X7956829Y-10762744D01*
X7966353Y-10781791D01*
X7975877Y-10819887D01*
X7975877Y-10867506D01*
X7966353Y-10905601D01*
X7956829Y-10924649D01*
X7947306Y-10934172D01*
X7928258Y-10943696D01*
X7909210Y-10943696D01*
X7890163Y-10934172D01*
X7880639Y-10924649D01*
X7871115Y-10905601D01*
X7861591Y-10867506D01*
X7861591Y-10819887D01*
X7871115Y-10781791D01*
X7880639Y-10762744D01*
X7890163Y-10753220D01*
X7909210Y-10743696D01*
X8052068Y-10762744D02*
X8061591Y-10753220D01*
X8080639Y-10743696D01*
X8128258Y-10743696D01*
X8147306Y-10753220D01*
X8156829Y-10762744D01*
X8166353Y-10781791D01*
X8166353Y-10800839D01*
X8156829Y-10829410D01*
X8042544Y-10943696D01*
X8166353Y-10943696D01*
X8233020Y-10743696D02*
X8356829Y-10743696D01*
X8290163Y-10819887D01*
X8318734Y-10819887D01*
X8337782Y-10829410D01*
X8347306Y-10838934D01*
X8356829Y-10857982D01*
X8356829Y-10905601D01*
X8347306Y-10924649D01*
X8337782Y-10934172D01*
X8318734Y-10943696D01*
X8261591Y-10943696D01*
X8242544Y-10934172D01*
X8233020Y-10924649D01*
X8528258Y-10743696D02*
X8490163Y-10743696D01*
X8471115Y-10753220D01*
X8461591Y-10762744D01*
X8442544Y-10791315D01*
X8433020Y-10829410D01*
X8433020Y-10905601D01*
X8442544Y-10924649D01*
X8452068Y-10934172D01*
X8471115Y-10943696D01*
X8509210Y-10943696D01*
X8528258Y-10934172D01*
X8537782Y-10924649D01*
X8547306Y-10905601D01*
X8547306Y-10857982D01*
X8537782Y-10838934D01*
X8528258Y-10829410D01*
X8509210Y-10819887D01*
X8471115Y-10819887D01*
X8452068Y-10829410D01*
X8442544Y-10838934D01*
X8433020Y-10857982D01*
X8623496Y-10743696D02*
X8623496Y-10781791D01*
X8699687Y-10743696D02*
X8699687Y-10781791D01*
X8994925Y-11019887D02*
X8985401Y-11010363D01*
X8966353Y-10981791D01*
X8956830Y-10962744D01*
X8947306Y-10934172D01*
X8937782Y-10886553D01*
X8937782Y-10848458D01*
X8947306Y-10800839D01*
X8956830Y-10772268D01*
X8966353Y-10753220D01*
X8985401Y-10724649D01*
X8994925Y-10715125D01*
X9061591Y-10762744D02*
X9071115Y-10753220D01*
X9090163Y-10743696D01*
X9137782Y-10743696D01*
X9156830Y-10753220D01*
X9166353Y-10762744D01*
X9175877Y-10781791D01*
X9175877Y-10800839D01*
X9166353Y-10829410D01*
X9052068Y-10943696D01*
X9175877Y-10943696D01*
X9413972Y-10943696D02*
X9413972Y-10743696D01*
X9499687Y-10943696D02*
X9499687Y-10838934D01*
X9490163Y-10819887D01*
X9471115Y-10810363D01*
X9442544Y-10810363D01*
X9423496Y-10819887D01*
X9413972Y-10829410D01*
X9623496Y-10943696D02*
X9604449Y-10934172D01*
X9594925Y-10924649D01*
X9585401Y-10905601D01*
X9585401Y-10848458D01*
X9594925Y-10829410D01*
X9604449Y-10819887D01*
X9623496Y-10810363D01*
X9652068Y-10810363D01*
X9671115Y-10819887D01*
X9680639Y-10829410D01*
X9690163Y-10848458D01*
X9690163Y-10905601D01*
X9680639Y-10924649D01*
X9671115Y-10934172D01*
X9652068Y-10943696D01*
X9623496Y-10943696D01*
X9804449Y-10943696D02*
X9785401Y-10934172D01*
X9775877Y-10915125D01*
X9775877Y-10743696D01*
X9956830Y-10934172D02*
X9937782Y-10943696D01*
X9899687Y-10943696D01*
X9880639Y-10934172D01*
X9871115Y-10915125D01*
X9871115Y-10838934D01*
X9880639Y-10819887D01*
X9899687Y-10810363D01*
X9937782Y-10810363D01*
X9956830Y-10819887D01*
X9966353Y-10838934D01*
X9966353Y-10857982D01*
X9871115Y-10877030D01*
X10042544Y-10934172D02*
X10061591Y-10943696D01*
X10099687Y-10943696D01*
X10118734Y-10934172D01*
X10128258Y-10915125D01*
X10128258Y-10905601D01*
X10118734Y-10886553D01*
X10099687Y-10877030D01*
X10071115Y-10877030D01*
X10052068Y-10867506D01*
X10042544Y-10848458D01*
X10042544Y-10838934D01*
X10052068Y-10819887D01*
X10071115Y-10810363D01*
X10099687Y-10810363D01*
X10118734Y-10819887D01*
X10194925Y-11019887D02*
X10204449Y-11010363D01*
X10223496Y-10981791D01*
X10233020Y-10962744D01*
X10242544Y-10934172D01*
X10252068Y-10886553D01*
X10252068Y-10848458D01*
X10242544Y-10800839D01*
X10233020Y-10772268D01*
X10223496Y-10753220D01*
X10204449Y-10724649D01*
X10194925Y-10715125D01*
D13*
X5423020Y-11117220D02*
G75*
G03*
X5423020Y-11117220I-35000J0D01*
G01*
D11*
X5718734Y-11007696D02*
X5737782Y-11007696D01*
X5756829Y-11017220D01*
X5766353Y-11026744D01*
X5775877Y-11045791D01*
X5785401Y-11083887D01*
X5785401Y-11131506D01*
X5775877Y-11169601D01*
X5766353Y-11188648D01*
X5756829Y-11198172D01*
X5737782Y-11207696D01*
X5718734Y-11207696D01*
X5699687Y-11198172D01*
X5690163Y-11188648D01*
X5680639Y-11169601D01*
X5671115Y-11131506D01*
X5671115Y-11083887D01*
X5680639Y-11045791D01*
X5690163Y-11026744D01*
X5699687Y-11017220D01*
X5718734Y-11007696D01*
X5871115Y-11188648D02*
X5880639Y-11198172D01*
X5871115Y-11207696D01*
X5861591Y-11198172D01*
X5871115Y-11188648D01*
X5871115Y-11207696D01*
X5947306Y-11007696D02*
X6080639Y-11007696D01*
X5994925Y-11207696D01*
X6194925Y-11007696D02*
X6213972Y-11007696D01*
X6233020Y-11017220D01*
X6242544Y-11026744D01*
X6252068Y-11045791D01*
X6261591Y-11083887D01*
X6261591Y-11131506D01*
X6252068Y-11169601D01*
X6242544Y-11188648D01*
X6233020Y-11198172D01*
X6213972Y-11207696D01*
X6194925Y-11207696D01*
X6175877Y-11198172D01*
X6166353Y-11188648D01*
X6156829Y-11169601D01*
X6147306Y-11131506D01*
X6147306Y-11083887D01*
X6156829Y-11045791D01*
X6166353Y-11026744D01*
X6175877Y-11017220D01*
X6194925Y-11007696D01*
X6385401Y-11007696D02*
X6404448Y-11007696D01*
X6423496Y-11017220D01*
X6433020Y-11026744D01*
X6442544Y-11045791D01*
X6452068Y-11083887D01*
X6452068Y-11131506D01*
X6442544Y-11169601D01*
X6433020Y-11188648D01*
X6423496Y-11198172D01*
X6404448Y-11207696D01*
X6385401Y-11207696D01*
X6366353Y-11198172D01*
X6356829Y-11188648D01*
X6347306Y-11169601D01*
X6337782Y-11131506D01*
X6337782Y-11083887D01*
X6347306Y-11045791D01*
X6356829Y-11026744D01*
X6366353Y-11017220D01*
X6385401Y-11007696D01*
X6537782Y-11207696D02*
X6537782Y-11074363D01*
X6537782Y-11093410D02*
X6547306Y-11083887D01*
X6566353Y-11074363D01*
X6594925Y-11074363D01*
X6613972Y-11083887D01*
X6623496Y-11102934D01*
X6623496Y-11207696D01*
X6623496Y-11102934D02*
X6633020Y-11083887D01*
X6652068Y-11074363D01*
X6680639Y-11074363D01*
X6699687Y-11083887D01*
X6709210Y-11102934D01*
X6709210Y-11207696D01*
X6804448Y-11207696D02*
X6804448Y-11074363D01*
X6804448Y-11093410D02*
X6813972Y-11083887D01*
X6833020Y-11074363D01*
X6861591Y-11074363D01*
X6880639Y-11083887D01*
X6890163Y-11102934D01*
X6890163Y-11207696D01*
X6890163Y-11102934D02*
X6899687Y-11083887D01*
X6918734Y-11074363D01*
X6947306Y-11074363D01*
X6966353Y-11083887D01*
X6975877Y-11102934D01*
X6975877Y-11207696D01*
X7366353Y-10998172D02*
X7194925Y-11255315D01*
X7623496Y-11007696D02*
X7642544Y-11007696D01*
X7661591Y-11017220D01*
X7671115Y-11026744D01*
X7680639Y-11045791D01*
X7690163Y-11083887D01*
X7690163Y-11131506D01*
X7680639Y-11169601D01*
X7671115Y-11188648D01*
X7661591Y-11198172D01*
X7642544Y-11207696D01*
X7623496Y-11207696D01*
X7604448Y-11198172D01*
X7594925Y-11188648D01*
X7585401Y-11169601D01*
X7575877Y-11131506D01*
X7575877Y-11083887D01*
X7585401Y-11045791D01*
X7594925Y-11026744D01*
X7604448Y-11017220D01*
X7623496Y-11007696D01*
X7775877Y-11188648D02*
X7785401Y-11198172D01*
X7775877Y-11207696D01*
X7766353Y-11198172D01*
X7775877Y-11188648D01*
X7775877Y-11207696D01*
X7909210Y-11007696D02*
X7928258Y-11007696D01*
X7947306Y-11017220D01*
X7956829Y-11026744D01*
X7966353Y-11045791D01*
X7975877Y-11083887D01*
X7975877Y-11131506D01*
X7966353Y-11169601D01*
X7956829Y-11188648D01*
X7947306Y-11198172D01*
X7928258Y-11207696D01*
X7909210Y-11207696D01*
X7890163Y-11198172D01*
X7880639Y-11188648D01*
X7871115Y-11169601D01*
X7861591Y-11131506D01*
X7861591Y-11083887D01*
X7871115Y-11045791D01*
X7880639Y-11026744D01*
X7890163Y-11017220D01*
X7909210Y-11007696D01*
X8052068Y-11026744D02*
X8061591Y-11017220D01*
X8080639Y-11007696D01*
X8128258Y-11007696D01*
X8147306Y-11017220D01*
X8156829Y-11026744D01*
X8166353Y-11045791D01*
X8166353Y-11064839D01*
X8156829Y-11093410D01*
X8042544Y-11207696D01*
X8166353Y-11207696D01*
X8233020Y-11007696D02*
X8366353Y-11007696D01*
X8280639Y-11207696D01*
X8528258Y-11007696D02*
X8490163Y-11007696D01*
X8471115Y-11017220D01*
X8461591Y-11026744D01*
X8442544Y-11055315D01*
X8433020Y-11093410D01*
X8433020Y-11169601D01*
X8442544Y-11188648D01*
X8452068Y-11198172D01*
X8471115Y-11207696D01*
X8509210Y-11207696D01*
X8528258Y-11198172D01*
X8537782Y-11188648D01*
X8547306Y-11169601D01*
X8547306Y-11121982D01*
X8537782Y-11102934D01*
X8528258Y-11093410D01*
X8509210Y-11083887D01*
X8471115Y-11083887D01*
X8452068Y-11093410D01*
X8442544Y-11102934D01*
X8433020Y-11121982D01*
X8623496Y-11007696D02*
X8623496Y-11045791D01*
X8699687Y-11007696D02*
X8699687Y-11045791D01*
X8994925Y-11283887D02*
X8985401Y-11274363D01*
X8966353Y-11245791D01*
X8956830Y-11226744D01*
X8947306Y-11198172D01*
X8937782Y-11150553D01*
X8937782Y-11112458D01*
X8947306Y-11064839D01*
X8956830Y-11036268D01*
X8966353Y-11017220D01*
X8985401Y-10988649D01*
X8994925Y-10979125D01*
X9175877Y-11207696D02*
X9061591Y-11207696D01*
X9118734Y-11207696D02*
X9118734Y-11007696D01*
X9099687Y-11036268D01*
X9080639Y-11055315D01*
X9061591Y-11064839D01*
X9347306Y-11074363D02*
X9347306Y-11207696D01*
X9299687Y-10998172D02*
X9252068Y-11141030D01*
X9375877Y-11141030D01*
X9604449Y-11207696D02*
X9604449Y-11007696D01*
X9690163Y-11207696D02*
X9690163Y-11102934D01*
X9680639Y-11083887D01*
X9661591Y-11074363D01*
X9633020Y-11074363D01*
X9613972Y-11083887D01*
X9604449Y-11093410D01*
X9813972Y-11207696D02*
X9794925Y-11198172D01*
X9785401Y-11188648D01*
X9775877Y-11169601D01*
X9775877Y-11112458D01*
X9785401Y-11093410D01*
X9794925Y-11083887D01*
X9813972Y-11074363D01*
X9842544Y-11074363D01*
X9861591Y-11083887D01*
X9871115Y-11093410D01*
X9880639Y-11112458D01*
X9880639Y-11169601D01*
X9871115Y-11188648D01*
X9861591Y-11198172D01*
X9842544Y-11207696D01*
X9813972Y-11207696D01*
X9994925Y-11207696D02*
X9975877Y-11198172D01*
X9966353Y-11179125D01*
X9966353Y-11007696D01*
X10147306Y-11198172D02*
X10128258Y-11207696D01*
X10090163Y-11207696D01*
X10071115Y-11198172D01*
X10061591Y-11179125D01*
X10061591Y-11102934D01*
X10071115Y-11083887D01*
X10090163Y-11074363D01*
X10128258Y-11074363D01*
X10147306Y-11083887D01*
X10156830Y-11102934D01*
X10156830Y-11121982D01*
X10061591Y-11141030D01*
X10233020Y-11198172D02*
X10252068Y-11207696D01*
X10290163Y-11207696D01*
X10309210Y-11198172D01*
X10318734Y-11179125D01*
X10318734Y-11169601D01*
X10309210Y-11150553D01*
X10290163Y-11141030D01*
X10261591Y-11141030D01*
X10242544Y-11131506D01*
X10233020Y-11112458D01*
X10233020Y-11102934D01*
X10242544Y-11083887D01*
X10261591Y-11074363D01*
X10290163Y-11074363D01*
X10309210Y-11083887D01*
X10385401Y-11283887D02*
X10394925Y-11274363D01*
X10413972Y-11245791D01*
X10423496Y-11226744D01*
X10433020Y-11198172D01*
X10442544Y-11150553D01*
X10442544Y-11112458D01*
X10433020Y-11064839D01*
X10423496Y-11036268D01*
X10413972Y-11017220D01*
X10394925Y-10988649D01*
X10385401Y-10979125D01*
D14*
X5383020Y-11341220D02*
X5383020Y-11421220D01*
X5343020Y-11381220D02*
X5423020Y-11381220D01*
D11*
X5718734Y-11271696D02*
X5737782Y-11271696D01*
X5756829Y-11281220D01*
X5766353Y-11290744D01*
X5775877Y-11309791D01*
X5785401Y-11347887D01*
X5785401Y-11395506D01*
X5775877Y-11433601D01*
X5766353Y-11452648D01*
X5756829Y-11462172D01*
X5737782Y-11471696D01*
X5718734Y-11471696D01*
X5699687Y-11462172D01*
X5690163Y-11452648D01*
X5680639Y-11433601D01*
X5671115Y-11395506D01*
X5671115Y-11347887D01*
X5680639Y-11309791D01*
X5690163Y-11290744D01*
X5699687Y-11281220D01*
X5718734Y-11271696D01*
X5871115Y-11452648D02*
X5880639Y-11462172D01*
X5871115Y-11471696D01*
X5861591Y-11462172D01*
X5871115Y-11452648D01*
X5871115Y-11471696D01*
X5994925Y-11357410D02*
X5975877Y-11347887D01*
X5966353Y-11338363D01*
X5956829Y-11319315D01*
X5956829Y-11309791D01*
X5966353Y-11290744D01*
X5975877Y-11281220D01*
X5994925Y-11271696D01*
X6033020Y-11271696D01*
X6052068Y-11281220D01*
X6061591Y-11290744D01*
X6071115Y-11309791D01*
X6071115Y-11319315D01*
X6061591Y-11338363D01*
X6052068Y-11347887D01*
X6033020Y-11357410D01*
X5994925Y-11357410D01*
X5975877Y-11366934D01*
X5966353Y-11376458D01*
X5956829Y-11395506D01*
X5956829Y-11433601D01*
X5966353Y-11452648D01*
X5975877Y-11462172D01*
X5994925Y-11471696D01*
X6033020Y-11471696D01*
X6052068Y-11462172D01*
X6061591Y-11452648D01*
X6071115Y-11433601D01*
X6071115Y-11395506D01*
X6061591Y-11376458D01*
X6052068Y-11366934D01*
X6033020Y-11357410D01*
X6194925Y-11271696D02*
X6213972Y-11271696D01*
X6233020Y-11281220D01*
X6242544Y-11290744D01*
X6252068Y-11309791D01*
X6261591Y-11347887D01*
X6261591Y-11395506D01*
X6252068Y-11433601D01*
X6242544Y-11452648D01*
X6233020Y-11462172D01*
X6213972Y-11471696D01*
X6194925Y-11471696D01*
X6175877Y-11462172D01*
X6166353Y-11452648D01*
X6156829Y-11433601D01*
X6147306Y-11395506D01*
X6147306Y-11347887D01*
X6156829Y-11309791D01*
X6166353Y-11290744D01*
X6175877Y-11281220D01*
X6194925Y-11271696D01*
X6385401Y-11271696D02*
X6404448Y-11271696D01*
X6423496Y-11281220D01*
X6433020Y-11290744D01*
X6442544Y-11309791D01*
X6452068Y-11347887D01*
X6452068Y-11395506D01*
X6442544Y-11433601D01*
X6433020Y-11452648D01*
X6423496Y-11462172D01*
X6404448Y-11471696D01*
X6385401Y-11471696D01*
X6366353Y-11462172D01*
X6356829Y-11452648D01*
X6347306Y-11433601D01*
X6337782Y-11395506D01*
X6337782Y-11347887D01*
X6347306Y-11309791D01*
X6356829Y-11290744D01*
X6366353Y-11281220D01*
X6385401Y-11271696D01*
X6537782Y-11471696D02*
X6537782Y-11338363D01*
X6537782Y-11357410D02*
X6547306Y-11347887D01*
X6566353Y-11338363D01*
X6594925Y-11338363D01*
X6613972Y-11347887D01*
X6623496Y-11366934D01*
X6623496Y-11471696D01*
X6623496Y-11366934D02*
X6633020Y-11347887D01*
X6652068Y-11338363D01*
X6680639Y-11338363D01*
X6699687Y-11347887D01*
X6709210Y-11366934D01*
X6709210Y-11471696D01*
X6804448Y-11471696D02*
X6804448Y-11338363D01*
X6804448Y-11357410D02*
X6813972Y-11347887D01*
X6833020Y-11338363D01*
X6861591Y-11338363D01*
X6880639Y-11347887D01*
X6890163Y-11366934D01*
X6890163Y-11471696D01*
X6890163Y-11366934D02*
X6899687Y-11347887D01*
X6918734Y-11338363D01*
X6947306Y-11338363D01*
X6966353Y-11347887D01*
X6975877Y-11366934D01*
X6975877Y-11471696D01*
X7366353Y-11262172D02*
X7194925Y-11519315D01*
X7623496Y-11271696D02*
X7642544Y-11271696D01*
X7661591Y-11281220D01*
X7671115Y-11290744D01*
X7680639Y-11309791D01*
X7690163Y-11347887D01*
X7690163Y-11395506D01*
X7680639Y-11433601D01*
X7671115Y-11452648D01*
X7661591Y-11462172D01*
X7642544Y-11471696D01*
X7623496Y-11471696D01*
X7604448Y-11462172D01*
X7594925Y-11452648D01*
X7585401Y-11433601D01*
X7575877Y-11395506D01*
X7575877Y-11347887D01*
X7585401Y-11309791D01*
X7594925Y-11290744D01*
X7604448Y-11281220D01*
X7623496Y-11271696D01*
X7775877Y-11452648D02*
X7785401Y-11462172D01*
X7775877Y-11471696D01*
X7766353Y-11462172D01*
X7775877Y-11452648D01*
X7775877Y-11471696D01*
X7909210Y-11271696D02*
X7928258Y-11271696D01*
X7947306Y-11281220D01*
X7956829Y-11290744D01*
X7966353Y-11309791D01*
X7975877Y-11347887D01*
X7975877Y-11395506D01*
X7966353Y-11433601D01*
X7956829Y-11452648D01*
X7947306Y-11462172D01*
X7928258Y-11471696D01*
X7909210Y-11471696D01*
X7890163Y-11462172D01*
X7880639Y-11452648D01*
X7871115Y-11433601D01*
X7861591Y-11395506D01*
X7861591Y-11347887D01*
X7871115Y-11309791D01*
X7880639Y-11290744D01*
X7890163Y-11281220D01*
X7909210Y-11271696D01*
X8042544Y-11271696D02*
X8166353Y-11271696D01*
X8099687Y-11347887D01*
X8128258Y-11347887D01*
X8147306Y-11357410D01*
X8156829Y-11366934D01*
X8166353Y-11385982D01*
X8166353Y-11433601D01*
X8156829Y-11452648D01*
X8147306Y-11462172D01*
X8128258Y-11471696D01*
X8071115Y-11471696D01*
X8052068Y-11462172D01*
X8042544Y-11452648D01*
X8356829Y-11471696D02*
X8242544Y-11471696D01*
X8299687Y-11471696D02*
X8299687Y-11271696D01*
X8280639Y-11300268D01*
X8261591Y-11319315D01*
X8242544Y-11328839D01*
X8537782Y-11271696D02*
X8442544Y-11271696D01*
X8433020Y-11366934D01*
X8442544Y-11357410D01*
X8461591Y-11347887D01*
X8509210Y-11347887D01*
X8528258Y-11357410D01*
X8537782Y-11366934D01*
X8547306Y-11385982D01*
X8547306Y-11433601D01*
X8537782Y-11452648D01*
X8528258Y-11462172D01*
X8509210Y-11471696D01*
X8461591Y-11471696D01*
X8442544Y-11462172D01*
X8433020Y-11452648D01*
X8623496Y-11271696D02*
X8623496Y-11309791D01*
X8699687Y-11271696D02*
X8699687Y-11309791D01*
X8994925Y-11547887D02*
X8985401Y-11538363D01*
X8966353Y-11509791D01*
X8956830Y-11490744D01*
X8947306Y-11462172D01*
X8937782Y-11414553D01*
X8937782Y-11376458D01*
X8947306Y-11328839D01*
X8956830Y-11300268D01*
X8966353Y-11281220D01*
X8985401Y-11252648D01*
X8994925Y-11243125D01*
X9166353Y-11271696D02*
X9071115Y-11271696D01*
X9061591Y-11366934D01*
X9071115Y-11357410D01*
X9090163Y-11347887D01*
X9137782Y-11347887D01*
X9156830Y-11357410D01*
X9166353Y-11366934D01*
X9175877Y-11385982D01*
X9175877Y-11433601D01*
X9166353Y-11452648D01*
X9156830Y-11462172D01*
X9137782Y-11471696D01*
X9090163Y-11471696D01*
X9071115Y-11462172D01*
X9061591Y-11452648D01*
X9413972Y-11471696D02*
X9413972Y-11271696D01*
X9499687Y-11471696D02*
X9499687Y-11366934D01*
X9490163Y-11347887D01*
X9471115Y-11338363D01*
X9442544Y-11338363D01*
X9423496Y-11347887D01*
X9413972Y-11357410D01*
X9623496Y-11471696D02*
X9604449Y-11462172D01*
X9594925Y-11452648D01*
X9585401Y-11433601D01*
X9585401Y-11376458D01*
X9594925Y-11357410D01*
X9604449Y-11347887D01*
X9623496Y-11338363D01*
X9652068Y-11338363D01*
X9671115Y-11347887D01*
X9680639Y-11357410D01*
X9690163Y-11376458D01*
X9690163Y-11433601D01*
X9680639Y-11452648D01*
X9671115Y-11462172D01*
X9652068Y-11471696D01*
X9623496Y-11471696D01*
X9804449Y-11471696D02*
X9785401Y-11462172D01*
X9775877Y-11443125D01*
X9775877Y-11271696D01*
X9956830Y-11462172D02*
X9937782Y-11471696D01*
X9899687Y-11471696D01*
X9880639Y-11462172D01*
X9871115Y-11443125D01*
X9871115Y-11366934D01*
X9880639Y-11347887D01*
X9899687Y-11338363D01*
X9937782Y-11338363D01*
X9956830Y-11347887D01*
X9966353Y-11366934D01*
X9966353Y-11385982D01*
X9871115Y-11405029D01*
X10042544Y-11462172D02*
X10061591Y-11471696D01*
X10099687Y-11471696D01*
X10118734Y-11462172D01*
X10128258Y-11443125D01*
X10128258Y-11433601D01*
X10118734Y-11414553D01*
X10099687Y-11405029D01*
X10071115Y-11405029D01*
X10052068Y-11395506D01*
X10042544Y-11376458D01*
X10042544Y-11366934D01*
X10052068Y-11347887D01*
X10071115Y-11338363D01*
X10099687Y-11338363D01*
X10118734Y-11347887D01*
X10366353Y-11395506D02*
X10518734Y-11395506D01*
X10442544Y-11471696D02*
X10442544Y-11319315D01*
X10871115Y-11471696D02*
X10756830Y-11471696D01*
X10813972Y-11471696D02*
X10813972Y-11271696D01*
X10794925Y-11300268D01*
X10775877Y-11319315D01*
X10756830Y-11328839D01*
X10994925Y-11271696D02*
X11013972Y-11271696D01*
X11033020Y-11281220D01*
X11042544Y-11290744D01*
X11052068Y-11309791D01*
X11061591Y-11347887D01*
X11061591Y-11395506D01*
X11052068Y-11433601D01*
X11042544Y-11452648D01*
X11033020Y-11462172D01*
X11013972Y-11471696D01*
X10994925Y-11471696D01*
X10975877Y-11462172D01*
X10966353Y-11452648D01*
X10956830Y-11433601D01*
X10947306Y-11395506D01*
X10947306Y-11347887D01*
X10956830Y-11309791D01*
X10966353Y-11290744D01*
X10975877Y-11281220D01*
X10994925Y-11271696D01*
X11290163Y-11462172D02*
X11309210Y-11471696D01*
X11347306Y-11471696D01*
X11366353Y-11462172D01*
X11375877Y-11443125D01*
X11375877Y-11433601D01*
X11366353Y-11414553D01*
X11347306Y-11405029D01*
X11318734Y-11405029D01*
X11299687Y-11395506D01*
X11290163Y-11376458D01*
X11290163Y-11366934D01*
X11299687Y-11347887D01*
X11318734Y-11338363D01*
X11347306Y-11338363D01*
X11366353Y-11347887D01*
X11490163Y-11471696D02*
X11471115Y-11462172D01*
X11461591Y-11443125D01*
X11461591Y-11271696D01*
X11594925Y-11471696D02*
X11575877Y-11462172D01*
X11566353Y-11452648D01*
X11556829Y-11433601D01*
X11556829Y-11376458D01*
X11566353Y-11357410D01*
X11575877Y-11347887D01*
X11594925Y-11338363D01*
X11623496Y-11338363D01*
X11642544Y-11347887D01*
X11652068Y-11357410D01*
X11661591Y-11376458D01*
X11661591Y-11433601D01*
X11652068Y-11452648D01*
X11642544Y-11462172D01*
X11623496Y-11471696D01*
X11594925Y-11471696D01*
X11718734Y-11338363D02*
X11794925Y-11338363D01*
X11747306Y-11271696D02*
X11747306Y-11443125D01*
X11756829Y-11462172D01*
X11775877Y-11471696D01*
X11794925Y-11471696D01*
X11852068Y-11462172D02*
X11871115Y-11471696D01*
X11909210Y-11471696D01*
X11928258Y-11462172D01*
X11937782Y-11443125D01*
X11937782Y-11433601D01*
X11928258Y-11414553D01*
X11909210Y-11405029D01*
X11880639Y-11405029D01*
X11861591Y-11395506D01*
X11852068Y-11376458D01*
X11852068Y-11366934D01*
X11861591Y-11347887D01*
X11880639Y-11338363D01*
X11909210Y-11338363D01*
X11928258Y-11347887D01*
X12004448Y-11547887D02*
X12013972Y-11538363D01*
X12033020Y-11509791D01*
X12042544Y-11490744D01*
X12052068Y-11462172D01*
X12061591Y-11414553D01*
X12061591Y-11376458D01*
X12052068Y-11328839D01*
X12042544Y-11300268D01*
X12033020Y-11281220D01*
X12013972Y-11252648D01*
X12004448Y-11243125D01*
D15*
X5408376Y-11680576D02*
X5408376Y-11609864D01*
X5337664Y-11609864D01*
X5337664Y-11680576D01*
X5408376Y-11680576D01*
D11*
X5785401Y-11735696D02*
X5671115Y-11735696D01*
X5728258Y-11735696D02*
X5728258Y-11535696D01*
X5709210Y-11564268D01*
X5690163Y-11583315D01*
X5671115Y-11592839D01*
X5871115Y-11716648D02*
X5880639Y-11726172D01*
X5871115Y-11735696D01*
X5861591Y-11726172D01*
X5871115Y-11716648D01*
X5871115Y-11735696D01*
X6004448Y-11535696D02*
X6023496Y-11535696D01*
X6042544Y-11545220D01*
X6052068Y-11554744D01*
X6061591Y-11573791D01*
X6071115Y-11611887D01*
X6071115Y-11659506D01*
X6061591Y-11697601D01*
X6052068Y-11716648D01*
X6042544Y-11726172D01*
X6023496Y-11735696D01*
X6004448Y-11735696D01*
X5985401Y-11726172D01*
X5975877Y-11716648D01*
X5966353Y-11697601D01*
X5956829Y-11659506D01*
X5956829Y-11611887D01*
X5966353Y-11573791D01*
X5975877Y-11554744D01*
X5985401Y-11545220D01*
X6004448Y-11535696D01*
X6194925Y-11535696D02*
X6213972Y-11535696D01*
X6233020Y-11545220D01*
X6242544Y-11554744D01*
X6252068Y-11573791D01*
X6261591Y-11611887D01*
X6261591Y-11659506D01*
X6252068Y-11697601D01*
X6242544Y-11716648D01*
X6233020Y-11726172D01*
X6213972Y-11735696D01*
X6194925Y-11735696D01*
X6175877Y-11726172D01*
X6166353Y-11716648D01*
X6156829Y-11697601D01*
X6147306Y-11659506D01*
X6147306Y-11611887D01*
X6156829Y-11573791D01*
X6166353Y-11554744D01*
X6175877Y-11545220D01*
X6194925Y-11535696D01*
X6385401Y-11535696D02*
X6404448Y-11535696D01*
X6423496Y-11545220D01*
X6433020Y-11554744D01*
X6442544Y-11573791D01*
X6452068Y-11611887D01*
X6452068Y-11659506D01*
X6442544Y-11697601D01*
X6433020Y-11716648D01*
X6423496Y-11726172D01*
X6404448Y-11735696D01*
X6385401Y-11735696D01*
X6366353Y-11726172D01*
X6356829Y-11716648D01*
X6347306Y-11697601D01*
X6337782Y-11659506D01*
X6337782Y-11611887D01*
X6347306Y-11573791D01*
X6356829Y-11554744D01*
X6366353Y-11545220D01*
X6385401Y-11535696D01*
X6537782Y-11735696D02*
X6537782Y-11602363D01*
X6537782Y-11621410D02*
X6547306Y-11611887D01*
X6566353Y-11602363D01*
X6594925Y-11602363D01*
X6613972Y-11611887D01*
X6623496Y-11630934D01*
X6623496Y-11735696D01*
X6623496Y-11630934D02*
X6633020Y-11611887D01*
X6652068Y-11602363D01*
X6680639Y-11602363D01*
X6699687Y-11611887D01*
X6709210Y-11630934D01*
X6709210Y-11735696D01*
X6804448Y-11735696D02*
X6804448Y-11602363D01*
X6804448Y-11621410D02*
X6813972Y-11611887D01*
X6833020Y-11602363D01*
X6861591Y-11602363D01*
X6880639Y-11611887D01*
X6890163Y-11630934D01*
X6890163Y-11735696D01*
X6890163Y-11630934D02*
X6899687Y-11611887D01*
X6918734Y-11602363D01*
X6947306Y-11602363D01*
X6966353Y-11611887D01*
X6975877Y-11630934D01*
X6975877Y-11735696D01*
X7366353Y-11526172D02*
X7194925Y-11783315D01*
X7623496Y-11535696D02*
X7642544Y-11535696D01*
X7661591Y-11545220D01*
X7671115Y-11554744D01*
X7680639Y-11573791D01*
X7690163Y-11611887D01*
X7690163Y-11659506D01*
X7680639Y-11697601D01*
X7671115Y-11716648D01*
X7661591Y-11726172D01*
X7642544Y-11735696D01*
X7623496Y-11735696D01*
X7604448Y-11726172D01*
X7594925Y-11716648D01*
X7585401Y-11697601D01*
X7575877Y-11659506D01*
X7575877Y-11611887D01*
X7585401Y-11573791D01*
X7594925Y-11554744D01*
X7604448Y-11545220D01*
X7623496Y-11535696D01*
X7775877Y-11716648D02*
X7785401Y-11726172D01*
X7775877Y-11735696D01*
X7766353Y-11726172D01*
X7775877Y-11716648D01*
X7775877Y-11735696D01*
X7909210Y-11535696D02*
X7928258Y-11535696D01*
X7947306Y-11545220D01*
X7956829Y-11554744D01*
X7966353Y-11573791D01*
X7975877Y-11611887D01*
X7975877Y-11659506D01*
X7966353Y-11697601D01*
X7956829Y-11716648D01*
X7947306Y-11726172D01*
X7928258Y-11735696D01*
X7909210Y-11735696D01*
X7890163Y-11726172D01*
X7880639Y-11716648D01*
X7871115Y-11697601D01*
X7861591Y-11659506D01*
X7861591Y-11611887D01*
X7871115Y-11573791D01*
X7880639Y-11554744D01*
X7890163Y-11545220D01*
X7909210Y-11535696D01*
X8042544Y-11535696D02*
X8166353Y-11535696D01*
X8099687Y-11611887D01*
X8128258Y-11611887D01*
X8147306Y-11621410D01*
X8156829Y-11630934D01*
X8166353Y-11649982D01*
X8166353Y-11697601D01*
X8156829Y-11716648D01*
X8147306Y-11726172D01*
X8128258Y-11735696D01*
X8071115Y-11735696D01*
X8052068Y-11726172D01*
X8042544Y-11716648D01*
X8261591Y-11735696D02*
X8299687Y-11735696D01*
X8318734Y-11726172D01*
X8328258Y-11716648D01*
X8347306Y-11688077D01*
X8356829Y-11649982D01*
X8356829Y-11573791D01*
X8347306Y-11554744D01*
X8337782Y-11545220D01*
X8318734Y-11535696D01*
X8280639Y-11535696D01*
X8261591Y-11545220D01*
X8252068Y-11554744D01*
X8242544Y-11573791D01*
X8242544Y-11621410D01*
X8252068Y-11640458D01*
X8261591Y-11649982D01*
X8280639Y-11659506D01*
X8318734Y-11659506D01*
X8337782Y-11649982D01*
X8347306Y-11640458D01*
X8356829Y-11621410D01*
X8528258Y-11602363D02*
X8528258Y-11735696D01*
X8480639Y-11526172D02*
X8433020Y-11669029D01*
X8556830Y-11669029D01*
X8623496Y-11535696D02*
X8623496Y-11573791D01*
X8699687Y-11535696D02*
X8699687Y-11573791D01*
X8994925Y-11811887D02*
X8985401Y-11802363D01*
X8966353Y-11773791D01*
X8956830Y-11754744D01*
X8947306Y-11726172D01*
X8937782Y-11678553D01*
X8937782Y-11640458D01*
X8947306Y-11592839D01*
X8956830Y-11564268D01*
X8966353Y-11545220D01*
X8985401Y-11516648D01*
X8994925Y-11507125D01*
X9099687Y-11621410D02*
X9080639Y-11611887D01*
X9071115Y-11602363D01*
X9061591Y-11583315D01*
X9061591Y-11573791D01*
X9071115Y-11554744D01*
X9080639Y-11545220D01*
X9099687Y-11535696D01*
X9137782Y-11535696D01*
X9156830Y-11545220D01*
X9166353Y-11554744D01*
X9175877Y-11573791D01*
X9175877Y-11583315D01*
X9166353Y-11602363D01*
X9156830Y-11611887D01*
X9137782Y-11621410D01*
X9099687Y-11621410D01*
X9080639Y-11630934D01*
X9071115Y-11640458D01*
X9061591Y-11659506D01*
X9061591Y-11697601D01*
X9071115Y-11716648D01*
X9080639Y-11726172D01*
X9099687Y-11735696D01*
X9137782Y-11735696D01*
X9156830Y-11726172D01*
X9166353Y-11716648D01*
X9175877Y-11697601D01*
X9175877Y-11659506D01*
X9166353Y-11640458D01*
X9156830Y-11630934D01*
X9137782Y-11621410D01*
X9413972Y-11735696D02*
X9413972Y-11535696D01*
X9499687Y-11735696D02*
X9499687Y-11630934D01*
X9490163Y-11611887D01*
X9471115Y-11602363D01*
X9442544Y-11602363D01*
X9423496Y-11611887D01*
X9413972Y-11621410D01*
X9623496Y-11735696D02*
X9604449Y-11726172D01*
X9594925Y-11716648D01*
X9585401Y-11697601D01*
X9585401Y-11640458D01*
X9594925Y-11621410D01*
X9604449Y-11611887D01*
X9623496Y-11602363D01*
X9652068Y-11602363D01*
X9671115Y-11611887D01*
X9680639Y-11621410D01*
X9690163Y-11640458D01*
X9690163Y-11697601D01*
X9680639Y-11716648D01*
X9671115Y-11726172D01*
X9652068Y-11735696D01*
X9623496Y-11735696D01*
X9804449Y-11735696D02*
X9785401Y-11726172D01*
X9775877Y-11707125D01*
X9775877Y-11535696D01*
X9956830Y-11726172D02*
X9937782Y-11735696D01*
X9899687Y-11735696D01*
X9880639Y-11726172D01*
X9871115Y-11707125D01*
X9871115Y-11630934D01*
X9880639Y-11611887D01*
X9899687Y-11602363D01*
X9937782Y-11602363D01*
X9956830Y-11611887D01*
X9966353Y-11630934D01*
X9966353Y-11649982D01*
X9871115Y-11669029D01*
X10042544Y-11726172D02*
X10061591Y-11735696D01*
X10099687Y-11735696D01*
X10118734Y-11726172D01*
X10128258Y-11707125D01*
X10128258Y-11697601D01*
X10118734Y-11678553D01*
X10099687Y-11669029D01*
X10071115Y-11669029D01*
X10052068Y-11659506D01*
X10042544Y-11640458D01*
X10042544Y-11630934D01*
X10052068Y-11611887D01*
X10071115Y-11602363D01*
X10099687Y-11602363D01*
X10118734Y-11611887D01*
X10194925Y-11811887D02*
X10204449Y-11802363D01*
X10223496Y-11773791D01*
X10233020Y-11754744D01*
X10242544Y-11726172D01*
X10252068Y-11678553D01*
X10252068Y-11640458D01*
X10242544Y-11592839D01*
X10233020Y-11564268D01*
X10223496Y-11545220D01*
X10204449Y-11516648D01*
X10194925Y-11507125D01*
X5323020Y-12009220D02*
X5423020Y-11909220D01*
X5323020Y-11809220D01*
X5223020Y-11909220D01*
X5323020Y-12009220D01*
X5671115Y-11818744D02*
X5680639Y-11809220D01*
X5699687Y-11799696D01*
X5747306Y-11799696D01*
X5766353Y-11809220D01*
X5775877Y-11818744D01*
X5785401Y-11837791D01*
X5785401Y-11856839D01*
X5775877Y-11885410D01*
X5661591Y-11999696D01*
X5785401Y-11999696D01*
X5871115Y-11980648D02*
X5880639Y-11990172D01*
X5871115Y-11999696D01*
X5861591Y-11990172D01*
X5871115Y-11980648D01*
X5871115Y-11999696D01*
X5947306Y-11799696D02*
X6080639Y-11799696D01*
X5994925Y-11999696D01*
X6194925Y-11799696D02*
X6213972Y-11799696D01*
X6233020Y-11809220D01*
X6242544Y-11818744D01*
X6252068Y-11837791D01*
X6261591Y-11875887D01*
X6261591Y-11923506D01*
X6252068Y-11961601D01*
X6242544Y-11980648D01*
X6233020Y-11990172D01*
X6213972Y-11999696D01*
X6194925Y-11999696D01*
X6175877Y-11990172D01*
X6166353Y-11980648D01*
X6156829Y-11961601D01*
X6147306Y-11923506D01*
X6147306Y-11875887D01*
X6156829Y-11837791D01*
X6166353Y-11818744D01*
X6175877Y-11809220D01*
X6194925Y-11799696D01*
X6385401Y-11799696D02*
X6404448Y-11799696D01*
X6423496Y-11809220D01*
X6433020Y-11818744D01*
X6442544Y-11837791D01*
X6452068Y-11875887D01*
X6452068Y-11923506D01*
X6442544Y-11961601D01*
X6433020Y-11980648D01*
X6423496Y-11990172D01*
X6404448Y-11999696D01*
X6385401Y-11999696D01*
X6366353Y-11990172D01*
X6356829Y-11980648D01*
X6347306Y-11961601D01*
X6337782Y-11923506D01*
X6337782Y-11875887D01*
X6347306Y-11837791D01*
X6356829Y-11818744D01*
X6366353Y-11809220D01*
X6385401Y-11799696D01*
X6537782Y-11999696D02*
X6537782Y-11866363D01*
X6537782Y-11885410D02*
X6547306Y-11875887D01*
X6566353Y-11866363D01*
X6594925Y-11866363D01*
X6613972Y-11875887D01*
X6623496Y-11894934D01*
X6623496Y-11999696D01*
X6623496Y-11894934D02*
X6633020Y-11875887D01*
X6652068Y-11866363D01*
X6680639Y-11866363D01*
X6699687Y-11875887D01*
X6709210Y-11894934D01*
X6709210Y-11999696D01*
X6804448Y-11999696D02*
X6804448Y-11866363D01*
X6804448Y-11885410D02*
X6813972Y-11875887D01*
X6833020Y-11866363D01*
X6861591Y-11866363D01*
X6880639Y-11875887D01*
X6890163Y-11894934D01*
X6890163Y-11999696D01*
X6890163Y-11894934D02*
X6899687Y-11875887D01*
X6918734Y-11866363D01*
X6947306Y-11866363D01*
X6966353Y-11875887D01*
X6975877Y-11894934D01*
X6975877Y-11999696D01*
X7366353Y-11790172D02*
X7194925Y-12047315D01*
X7623496Y-11799696D02*
X7642544Y-11799696D01*
X7661591Y-11809220D01*
X7671115Y-11818744D01*
X7680639Y-11837791D01*
X7690163Y-11875887D01*
X7690163Y-11923506D01*
X7680639Y-11961601D01*
X7671115Y-11980648D01*
X7661591Y-11990172D01*
X7642544Y-11999696D01*
X7623496Y-11999696D01*
X7604448Y-11990172D01*
X7594925Y-11980648D01*
X7585401Y-11961601D01*
X7575877Y-11923506D01*
X7575877Y-11875887D01*
X7585401Y-11837791D01*
X7594925Y-11818744D01*
X7604448Y-11809220D01*
X7623496Y-11799696D01*
X7775877Y-11980648D02*
X7785401Y-11990172D01*
X7775877Y-11999696D01*
X7766353Y-11990172D01*
X7775877Y-11980648D01*
X7775877Y-11999696D01*
X7975877Y-11999696D02*
X7861591Y-11999696D01*
X7918734Y-11999696D02*
X7918734Y-11799696D01*
X7899687Y-11828268D01*
X7880639Y-11847315D01*
X7861591Y-11856839D01*
X8099687Y-11799696D02*
X8118734Y-11799696D01*
X8137782Y-11809220D01*
X8147306Y-11818744D01*
X8156829Y-11837791D01*
X8166353Y-11875887D01*
X8166353Y-11923506D01*
X8156829Y-11961601D01*
X8147306Y-11980648D01*
X8137782Y-11990172D01*
X8118734Y-11999696D01*
X8099687Y-11999696D01*
X8080639Y-11990172D01*
X8071115Y-11980648D01*
X8061591Y-11961601D01*
X8052068Y-11923506D01*
X8052068Y-11875887D01*
X8061591Y-11837791D01*
X8071115Y-11818744D01*
X8080639Y-11809220D01*
X8099687Y-11799696D01*
X8337782Y-11799696D02*
X8299687Y-11799696D01*
X8280639Y-11809220D01*
X8271115Y-11818744D01*
X8252068Y-11847315D01*
X8242544Y-11885410D01*
X8242544Y-11961601D01*
X8252068Y-11980648D01*
X8261591Y-11990172D01*
X8280639Y-11999696D01*
X8318734Y-11999696D01*
X8337782Y-11990172D01*
X8347306Y-11980648D01*
X8356829Y-11961601D01*
X8356829Y-11913982D01*
X8347306Y-11894934D01*
X8337782Y-11885410D01*
X8318734Y-11875887D01*
X8280639Y-11875887D01*
X8261591Y-11885410D01*
X8252068Y-11894934D01*
X8242544Y-11913982D01*
X8423496Y-11799696D02*
X8547306Y-11799696D01*
X8480639Y-11875887D01*
X8509210Y-11875887D01*
X8528258Y-11885410D01*
X8537782Y-11894934D01*
X8547306Y-11913982D01*
X8547306Y-11961601D01*
X8537782Y-11980648D01*
X8528258Y-11990172D01*
X8509210Y-11999696D01*
X8452068Y-11999696D01*
X8433020Y-11990172D01*
X8423496Y-11980648D01*
X8623496Y-11799696D02*
X8623496Y-11837791D01*
X8699687Y-11799696D02*
X8699687Y-11837791D01*
X8994925Y-12075887D02*
X8985401Y-12066363D01*
X8966353Y-12037791D01*
X8956830Y-12018744D01*
X8947306Y-11990172D01*
X8937782Y-11942553D01*
X8937782Y-11904458D01*
X8947306Y-11856839D01*
X8956830Y-11828268D01*
X8966353Y-11809220D01*
X8985401Y-11780648D01*
X8994925Y-11771125D01*
X9175877Y-11999696D02*
X9061591Y-11999696D01*
X9118734Y-11999696D02*
X9118734Y-11799696D01*
X9099687Y-11828268D01*
X9080639Y-11847315D01*
X9061591Y-11856839D01*
X9413972Y-11999696D02*
X9413972Y-11799696D01*
X9499687Y-11999696D02*
X9499687Y-11894934D01*
X9490163Y-11875887D01*
X9471115Y-11866363D01*
X9442544Y-11866363D01*
X9423496Y-11875887D01*
X9413972Y-11885410D01*
X9623496Y-11999696D02*
X9604449Y-11990172D01*
X9594925Y-11980648D01*
X9585401Y-11961601D01*
X9585401Y-11904458D01*
X9594925Y-11885410D01*
X9604449Y-11875887D01*
X9623496Y-11866363D01*
X9652068Y-11866363D01*
X9671115Y-11875887D01*
X9680639Y-11885410D01*
X9690163Y-11904458D01*
X9690163Y-11961601D01*
X9680639Y-11980648D01*
X9671115Y-11990172D01*
X9652068Y-11999696D01*
X9623496Y-11999696D01*
X9804449Y-11999696D02*
X9785401Y-11990172D01*
X9775877Y-11971125D01*
X9775877Y-11799696D01*
X9956830Y-11990172D02*
X9937782Y-11999696D01*
X9899687Y-11999696D01*
X9880639Y-11990172D01*
X9871115Y-11971125D01*
X9871115Y-11894934D01*
X9880639Y-11875887D01*
X9899687Y-11866363D01*
X9937782Y-11866363D01*
X9956830Y-11875887D01*
X9966353Y-11894934D01*
X9966353Y-11913982D01*
X9871115Y-11933029D01*
X10033020Y-12075887D02*
X10042544Y-12066363D01*
X10061591Y-12037791D01*
X10071115Y-12018744D01*
X10080639Y-11990172D01*
X10090163Y-11942553D01*
X10090163Y-11904458D01*
X10080639Y-11856839D01*
X10071115Y-11828268D01*
X10061591Y-11809220D01*
X10042544Y-11780648D01*
X10033020Y-11771125D01*
M02*
