M48
; DRILL file {KiCad (6.0.7)} date Fri Dec 16 00:38:33 2022
; FORMAT={-:-/ absolute / inch / decimal}
; #@! TF.CreationDate,2022-12-16T00:38:33+00:00
; #@! TF.GenerationSoftware,Kicad,Pcbnew,(6.0.7)
; #@! TF.FileFunction,Plated,1,2,PTH
FMAT,2
INCH
; #@! TA.AperFunction,Plated,PTH,ComponentDrill
T1C0.0236
; #@! TA.AperFunction,Plated,PTH,ComponentDrill
T2C0.0276
; #@! TA.AperFunction,Plated,PTH,ComponentDrill
T3C0.0315
; #@! TA.AperFunction,Plated,PTH,ComponentDrill
T4C0.0394
; #@! TA.AperFunction,Plated,PTH,ComponentDrill
T5C0.1063
%
G90
G05
T1
X2.5113Y-3.305
X2.59Y-3.305
T2
X2.2257Y-2.609
X2.2257Y-2.7044
X2.2257Y-3.042
X2.2257Y-3.141
X2.2257Y-3.487
X2.2257Y-3.581
X2.2257Y-3.678
X2.5257Y-2.609
X2.5257Y-2.7044
X2.5257Y-3.042
X2.5257Y-3.141
X2.5257Y-3.487
X2.5257Y-3.581
X2.5257Y-3.678
T3
X2.2173Y-3.305
X2.2757Y-2.8946
X2.3757Y-2.8946
X2.4141Y-3.305
X2.4757Y-2.8946
T4
X2.2876Y-3.839
X2.3876Y-3.839
X2.4876Y-3.839
X2.5876Y-3.839
X2.6876Y-3.839
X2.7876Y-3.839
X2.8876Y-3.839
X2.9876Y-3.839
T5
X2.885Y-2.457
T3
G00X2.7886Y-2.6211
M15
G01X2.7611Y-2.6211
M16
G05
G00X2.7886Y-2.7196
M15
G01X2.7611Y-2.7196
M16
G05
G00X2.7886Y-2.9164
M15
G01X2.7611Y-2.9164
M16
G05
G00X2.7886Y-3.0149
M15
G01X2.7611Y-3.0149
M16
G05
G00X2.7886Y-3.1331
M15
G01X2.7611Y-3.1331
M16
G05
G00X2.7886Y-3.2316
M15
G01X2.7611Y-3.2316
M16
G05
G00X2.7886Y-3.4284
M15
G01X2.7611Y-3.4284
M16
G05
G00X2.7886Y-3.5269
M15
G01X2.7611Y-3.5269
M16
G05
G00X2.9717Y-2.8318
M15
G01X2.9717Y-2.8042
M16
G05
G00X2.9717Y-3.3438
M15
G01X2.9717Y-3.3162
M16
G05
T0
M30
