%TF.GenerationSoftware,KiCad,Pcbnew,(6.0.7)*%
%TF.CreationDate,2022-12-16T00:38:36+00:00*%
%TF.ProjectId,CPC464-2MINITapeAdapter,43504334-3634-42d3-924d-494e49546170,rev?*%
%TF.SameCoordinates,Original*%
%TF.FileFunction,Legend,Bot*%
%TF.FilePolarity,Positive*%
%FSLAX46Y46*%
G04 Gerber Fmt 4.6, Leading zero omitted, Abs format (unit mm)*
G04 Created by KiCad (PCBNEW (6.0.7)) date 2022-12-16 00:38:36*
%MOMM*%
%LPD*%
G01*
G04 APERTURE LIST*
%ADD10C,0.037500*%
%ADD11C,0.100000*%
%ADD12C,0.150000*%
G04 APERTURE END LIST*
D10*
X62343838Y-59175704D02*
X62343838Y-59747133D01*
X62381933Y-59861419D01*
X62458123Y-59937609D01*
X62572409Y-59975704D01*
X62648600Y-59975704D01*
X61581933Y-59975704D02*
X61962885Y-59975704D01*
X61962885Y-59175704D01*
X60858123Y-59899514D02*
X60896219Y-59937609D01*
X61010504Y-59975704D01*
X61086695Y-59975704D01*
X61200980Y-59937609D01*
X61277171Y-59861419D01*
X61315266Y-59785228D01*
X61353361Y-59632847D01*
X61353361Y-59518561D01*
X61315266Y-59366180D01*
X61277171Y-59289990D01*
X61200980Y-59213800D01*
X61086695Y-59175704D01*
X61010504Y-59175704D01*
X60896219Y-59213800D01*
X60858123Y-59251895D01*
X60286695Y-59175704D02*
X60286695Y-59747133D01*
X60324790Y-59861419D01*
X60400980Y-59937609D01*
X60515266Y-59975704D01*
X60591457Y-59975704D01*
X59524790Y-59975704D02*
X59905742Y-59975704D01*
X59905742Y-59175704D01*
X58800980Y-59899514D02*
X58839076Y-59937609D01*
X58953361Y-59975704D01*
X59029552Y-59975704D01*
X59143838Y-59937609D01*
X59220028Y-59861419D01*
X59258123Y-59785228D01*
X59296219Y-59632847D01*
X59296219Y-59518561D01*
X59258123Y-59366180D01*
X59220028Y-59289990D01*
X59143838Y-59213800D01*
X59029552Y-59175704D01*
X58953361Y-59175704D01*
X58839076Y-59213800D01*
X58800980Y-59251895D01*
X58229552Y-59175704D02*
X58229552Y-59747133D01*
X58267647Y-59861419D01*
X58343838Y-59937609D01*
X58458123Y-59975704D01*
X58534314Y-59975704D01*
X57467647Y-59975704D02*
X57848600Y-59975704D01*
X57848600Y-59175704D01*
X56743838Y-59899514D02*
X56781933Y-59937609D01*
X56896219Y-59975704D01*
X56972409Y-59975704D01*
X57086695Y-59937609D01*
X57162885Y-59861419D01*
X57200980Y-59785228D01*
X57239076Y-59632847D01*
X57239076Y-59518561D01*
X57200980Y-59366180D01*
X57162885Y-59289990D01*
X57086695Y-59213800D01*
X56972409Y-59175704D01*
X56896219Y-59175704D01*
X56781933Y-59213800D01*
X56743838Y-59251895D01*
X56172409Y-59175704D02*
X56172409Y-59747133D01*
X56210504Y-59861419D01*
X56286695Y-59937609D01*
X56400980Y-59975704D01*
X56477171Y-59975704D01*
X55410504Y-59975704D02*
X55791457Y-59975704D01*
X55791457Y-59175704D01*
X54686695Y-59899514D02*
X54724790Y-59937609D01*
X54839076Y-59975704D01*
X54915266Y-59975704D01*
X55029552Y-59937609D01*
X55105742Y-59861419D01*
X55143838Y-59785228D01*
X55181933Y-59632847D01*
X55181933Y-59518561D01*
X55143838Y-59366180D01*
X55105742Y-59289990D01*
X55029552Y-59213800D01*
X54915266Y-59175704D01*
X54839076Y-59175704D01*
X54724790Y-59213800D01*
X54686695Y-59251895D01*
D11*
X79515517Y-101592028D02*
X79440517Y-100992028D01*
X79265517Y-101192028D02*
X79036946Y-101192028D01*
X79154803Y-100992028D02*
X79219089Y-101506314D01*
X79197660Y-101563457D01*
X79144089Y-101592028D01*
X79086946Y-101592028D01*
X78783375Y-100992028D02*
X78854803Y-101106314D01*
X78626232Y-101563457D02*
X78572660Y-101592028D01*
X78458375Y-101592028D01*
X78397660Y-101563457D01*
X78361946Y-101506314D01*
X78358375Y-101477742D01*
X78379803Y-101420600D01*
X78433375Y-101392028D01*
X78519089Y-101392028D01*
X78572660Y-101363457D01*
X78594089Y-101306314D01*
X78590517Y-101277742D01*
X78554803Y-101220600D01*
X78494089Y-101192028D01*
X78408375Y-101192028D01*
X78354803Y-101220600D01*
X77351232Y-101192028D02*
X77426232Y-101792028D01*
X77397660Y-101563457D02*
X77458375Y-101592028D01*
X77572660Y-101592028D01*
X77626232Y-101563457D01*
X77651232Y-101534885D01*
X77672660Y-101477742D01*
X77651232Y-101306314D01*
X77615517Y-101249171D01*
X77583375Y-101220600D01*
X77522660Y-101192028D01*
X77408375Y-101192028D01*
X77354803Y-101220600D01*
X76808375Y-101192028D02*
X76858375Y-101592028D01*
X77065517Y-101192028D02*
X77104803Y-101506314D01*
X77083375Y-101563457D01*
X77029803Y-101592028D01*
X76944089Y-101592028D01*
X76883375Y-101563457D01*
X76851232Y-101534885D01*
X76572660Y-101592028D02*
X76522660Y-101192028D01*
X76497660Y-100992028D02*
X76529803Y-101020600D01*
X76504803Y-101049171D01*
X76472660Y-101020600D01*
X76497660Y-100992028D01*
X76504803Y-101049171D01*
X76322660Y-101192028D02*
X76094089Y-101192028D01*
X76211946Y-100992028D02*
X76276232Y-101506314D01*
X76254803Y-101563457D01*
X76201232Y-101592028D01*
X76144089Y-101592028D01*
X75711946Y-101563457D02*
X75772660Y-101592028D01*
X75886946Y-101592028D01*
X75940517Y-101563457D01*
X75961946Y-101506314D01*
X75933375Y-101277742D01*
X75897660Y-101220600D01*
X75836946Y-101192028D01*
X75722660Y-101192028D01*
X75669089Y-101220600D01*
X75647660Y-101277742D01*
X75654803Y-101334885D01*
X75947660Y-101392028D01*
X74665517Y-101192028D02*
X74740517Y-101792028D01*
X74711946Y-101563457D02*
X74772660Y-101592028D01*
X74886946Y-101592028D01*
X74940517Y-101563457D01*
X74965517Y-101534885D01*
X74986946Y-101477742D01*
X74965517Y-101306314D01*
X74929803Y-101249171D01*
X74897660Y-101220600D01*
X74836946Y-101192028D01*
X74722660Y-101192028D01*
X74669089Y-101220600D01*
X74122660Y-101192028D02*
X74172660Y-101592028D01*
X74379803Y-101192028D02*
X74419089Y-101506314D01*
X74397660Y-101563457D01*
X74344089Y-101592028D01*
X74258375Y-101592028D01*
X74197660Y-101563457D01*
X74165517Y-101534885D01*
X73886946Y-101592028D02*
X73836946Y-101192028D01*
X73811946Y-100992028D02*
X73844089Y-101020600D01*
X73819089Y-101049171D01*
X73786946Y-101020600D01*
X73811946Y-100992028D01*
X73819089Y-101049171D01*
X73369089Y-101563457D02*
X73429803Y-101592028D01*
X73544089Y-101592028D01*
X73597660Y-101563457D01*
X73619089Y-101506314D01*
X73590517Y-101277742D01*
X73554803Y-101220600D01*
X73494089Y-101192028D01*
X73379803Y-101192028D01*
X73326232Y-101220600D01*
X73304803Y-101277742D01*
X73311946Y-101334885D01*
X73604803Y-101392028D01*
X73122660Y-101192028D02*
X72894089Y-101192028D01*
X73011946Y-100992028D02*
X73076232Y-101506314D01*
X73054803Y-101563457D01*
X73001232Y-101592028D01*
X72944089Y-101592028D01*
X72736946Y-101534885D02*
X72711946Y-101563457D01*
X72744089Y-101592028D01*
X72769089Y-101563457D01*
X72736946Y-101534885D01*
X72744089Y-101592028D01*
X72715517Y-101363457D02*
X72701232Y-101020600D01*
X72669089Y-100992028D01*
X72644089Y-101020600D01*
X72715517Y-101363457D01*
X72669089Y-100992028D01*
D12*
X67379904Y-65279619D02*
X67379904Y-65736761D01*
X68179904Y-65508190D02*
X67379904Y-65508190D01*
X68179904Y-66003428D02*
X67379904Y-66003428D01*
X68179904Y-66346285D02*
X67760857Y-66346285D01*
X67684666Y-66308190D01*
X67646571Y-66232000D01*
X67646571Y-66117714D01*
X67684666Y-66041523D01*
X67722761Y-66003428D01*
X68179904Y-67070095D02*
X67760857Y-67070095D01*
X67684666Y-67032000D01*
X67646571Y-66955809D01*
X67646571Y-66803428D01*
X67684666Y-66727238D01*
X68141809Y-67070095D02*
X68179904Y-66993904D01*
X68179904Y-66803428D01*
X68141809Y-66727238D01*
X68065619Y-66689142D01*
X67989428Y-66689142D01*
X67913238Y-66727238D01*
X67875142Y-66803428D01*
X67875142Y-66993904D01*
X67837047Y-67070095D01*
X67646571Y-67451047D02*
X68179904Y-67451047D01*
X67722761Y-67451047D02*
X67684666Y-67489142D01*
X67646571Y-67565333D01*
X67646571Y-67679619D01*
X67684666Y-67755809D01*
X67760857Y-67793904D01*
X68179904Y-67793904D01*
X68179904Y-68174857D02*
X67379904Y-68174857D01*
X67875142Y-68251047D02*
X68179904Y-68479619D01*
X67646571Y-68479619D02*
X67951333Y-68174857D01*
X68141809Y-68784380D02*
X68179904Y-68860571D01*
X68179904Y-69012952D01*
X68141809Y-69089142D01*
X68065619Y-69127238D01*
X68027523Y-69127238D01*
X67951333Y-69089142D01*
X67913238Y-69012952D01*
X67913238Y-68898666D01*
X67875142Y-68822476D01*
X67798952Y-68784380D01*
X67760857Y-68784380D01*
X67684666Y-68822476D01*
X67646571Y-68898666D01*
X67646571Y-69012952D01*
X67684666Y-69089142D01*
X67646571Y-69965333D02*
X67646571Y-70270095D01*
X67379904Y-70079619D02*
X68065619Y-70079619D01*
X68141809Y-70117714D01*
X68179904Y-70193904D01*
X68179904Y-70270095D01*
X68179904Y-70651047D02*
X68141809Y-70574857D01*
X68103714Y-70536761D01*
X68027523Y-70498666D01*
X67798952Y-70498666D01*
X67722761Y-70536761D01*
X67684666Y-70574857D01*
X67646571Y-70651047D01*
X67646571Y-70765333D01*
X67684666Y-70841523D01*
X67722761Y-70879619D01*
X67798952Y-70917714D01*
X68027523Y-70917714D01*
X68103714Y-70879619D01*
X68141809Y-70841523D01*
X68179904Y-70765333D01*
X68179904Y-70651047D01*
X68179904Y-72327238D02*
X67798952Y-72060571D01*
X68179904Y-71870095D02*
X67379904Y-71870095D01*
X67379904Y-72174857D01*
X67418000Y-72251047D01*
X67456095Y-72289142D01*
X67532285Y-72327238D01*
X67646571Y-72327238D01*
X67722761Y-72289142D01*
X67760857Y-72251047D01*
X67798952Y-72174857D01*
X67798952Y-71870095D01*
X68179904Y-72784380D02*
X68141809Y-72708190D01*
X68103714Y-72670095D01*
X68027523Y-72632000D01*
X67798952Y-72632000D01*
X67722761Y-72670095D01*
X67684666Y-72708190D01*
X67646571Y-72784380D01*
X67646571Y-72898666D01*
X67684666Y-72974857D01*
X67722761Y-73012952D01*
X67798952Y-73051047D01*
X68027523Y-73051047D01*
X68103714Y-73012952D01*
X68141809Y-72974857D01*
X68179904Y-72898666D01*
X68179904Y-72784380D01*
X68179904Y-73393904D02*
X67379904Y-73393904D01*
X67684666Y-73393904D02*
X67646571Y-73470095D01*
X67646571Y-73622476D01*
X67684666Y-73698666D01*
X67722761Y-73736761D01*
X67798952Y-73774857D01*
X68027523Y-73774857D01*
X68103714Y-73736761D01*
X68141809Y-73698666D01*
X68179904Y-73622476D01*
X68179904Y-73470095D01*
X68141809Y-73393904D01*
X67379904Y-74689142D02*
X67532285Y-74689142D01*
X67379904Y-74993904D02*
X67532285Y-74993904D01*
X68179904Y-75336761D02*
X67379904Y-75336761D01*
X67379904Y-75641523D01*
X67418000Y-75717714D01*
X67456095Y-75755809D01*
X67532285Y-75793904D01*
X67646571Y-75793904D01*
X67722761Y-75755809D01*
X67760857Y-75717714D01*
X67798952Y-75641523D01*
X67798952Y-75336761D01*
X68141809Y-76441523D02*
X68179904Y-76365333D01*
X68179904Y-76212952D01*
X68141809Y-76136761D01*
X68065619Y-76098666D01*
X67760857Y-76098666D01*
X67684666Y-76136761D01*
X67646571Y-76212952D01*
X67646571Y-76365333D01*
X67684666Y-76441523D01*
X67760857Y-76479619D01*
X67837047Y-76479619D01*
X67913238Y-76098666D01*
X68141809Y-77127238D02*
X68179904Y-77051047D01*
X68179904Y-76898666D01*
X68141809Y-76822476D01*
X68065619Y-76784380D01*
X67760857Y-76784380D01*
X67684666Y-76822476D01*
X67646571Y-76898666D01*
X67646571Y-77051047D01*
X67684666Y-77127238D01*
X67760857Y-77165333D01*
X67837047Y-77165333D01*
X67913238Y-76784380D01*
X67646571Y-77508190D02*
X68446571Y-77508190D01*
X67684666Y-77508190D02*
X67646571Y-77584380D01*
X67646571Y-77736761D01*
X67684666Y-77812952D01*
X67722761Y-77851047D01*
X67798952Y-77889142D01*
X68027523Y-77889142D01*
X68103714Y-77851047D01*
X68141809Y-77812952D01*
X68179904Y-77736761D01*
X68179904Y-77584380D01*
X68141809Y-77508190D01*
X68179904Y-78346285D02*
X68141809Y-78270095D01*
X68103714Y-78231999D01*
X68027523Y-78193904D01*
X67798952Y-78193904D01*
X67722761Y-78231999D01*
X67684666Y-78270095D01*
X67646571Y-78346285D01*
X67646571Y-78460571D01*
X67684666Y-78536761D01*
X67722761Y-78574857D01*
X67798952Y-78612952D01*
X68027523Y-78612952D01*
X68103714Y-78574857D01*
X68141809Y-78536761D01*
X68179904Y-78460571D01*
X68179904Y-78346285D01*
X67379904Y-78917714D02*
X67532285Y-78917714D01*
X67379904Y-79222476D02*
X67532285Y-79222476D01*
X67379904Y-80060571D02*
X67379904Y-80517714D01*
X68179904Y-80289142D02*
X67379904Y-80289142D01*
X68179904Y-81127238D02*
X67760857Y-81127238D01*
X67684666Y-81089142D01*
X67646571Y-81012952D01*
X67646571Y-80860571D01*
X67684666Y-80784380D01*
X68141809Y-81127238D02*
X68179904Y-81051047D01*
X68179904Y-80860571D01*
X68141809Y-80784380D01*
X68065619Y-80746285D01*
X67989428Y-80746285D01*
X67913238Y-80784380D01*
X67875142Y-80860571D01*
X67875142Y-81051047D01*
X67837047Y-81127238D01*
X67646571Y-81432000D02*
X68179904Y-81622476D01*
X67646571Y-81812952D02*
X68179904Y-81622476D01*
X68370380Y-81546285D01*
X68408476Y-81508190D01*
X68446571Y-81432000D01*
X68179904Y-82232000D02*
X68141809Y-82155809D01*
X68065619Y-82117714D01*
X67379904Y-82117714D01*
X68179904Y-82651047D02*
X68141809Y-82574857D01*
X68103714Y-82536761D01*
X68027523Y-82498666D01*
X67798952Y-82498666D01*
X67722761Y-82536761D01*
X67684666Y-82574857D01*
X67646571Y-82651047D01*
X67646571Y-82765333D01*
X67684666Y-82841523D01*
X67722761Y-82879619D01*
X67798952Y-82917714D01*
X68027523Y-82917714D01*
X68103714Y-82879619D01*
X68141809Y-82841523D01*
X68179904Y-82765333D01*
X68179904Y-82651047D01*
X68179904Y-83260571D02*
X67646571Y-83260571D01*
X67798952Y-83260571D02*
X67722761Y-83298666D01*
X67684666Y-83336761D01*
X67646571Y-83412952D01*
X67646571Y-83489142D01*
X68179904Y-84708190D02*
X67760857Y-84708190D01*
X67684666Y-84670095D01*
X67646571Y-84593904D01*
X67646571Y-84441523D01*
X67684666Y-84365333D01*
X68141809Y-84708190D02*
X68179904Y-84632000D01*
X68179904Y-84441523D01*
X68141809Y-84365333D01*
X68065619Y-84327238D01*
X67989428Y-84327238D01*
X67913238Y-84365333D01*
X67875142Y-84441523D01*
X67875142Y-84632000D01*
X67837047Y-84708190D01*
X67646571Y-85089142D02*
X68179904Y-85089142D01*
X67722761Y-85089142D02*
X67684666Y-85127238D01*
X67646571Y-85203428D01*
X67646571Y-85317714D01*
X67684666Y-85393904D01*
X67760857Y-85432000D01*
X68179904Y-85432000D01*
X68179904Y-86155809D02*
X67379904Y-86155809D01*
X68141809Y-86155809D02*
X68179904Y-86079619D01*
X68179904Y-85927238D01*
X68141809Y-85851047D01*
X68103714Y-85812952D01*
X68027523Y-85774857D01*
X67798952Y-85774857D01*
X67722761Y-85812952D01*
X67684666Y-85851047D01*
X67646571Y-85927238D01*
X67646571Y-86079619D01*
X67684666Y-86155809D01*
X68103714Y-87603428D02*
X68141809Y-87565333D01*
X68179904Y-87451047D01*
X68179904Y-87374857D01*
X68141809Y-87260571D01*
X68065619Y-87184380D01*
X67989428Y-87146285D01*
X67837047Y-87108190D01*
X67722761Y-87108190D01*
X67570380Y-87146285D01*
X67494190Y-87184380D01*
X67418000Y-87260571D01*
X67379904Y-87374857D01*
X67379904Y-87451047D01*
X67418000Y-87565333D01*
X67456095Y-87603428D01*
X68179904Y-87946285D02*
X67379904Y-87946285D01*
X68179904Y-88289142D02*
X67760857Y-88289142D01*
X67684666Y-88251047D01*
X67646571Y-88174857D01*
X67646571Y-88060571D01*
X67684666Y-87984380D01*
X67722761Y-87946285D01*
X68179904Y-88670095D02*
X67646571Y-88670095D01*
X67798952Y-88670095D02*
X67722761Y-88708190D01*
X67684666Y-88746285D01*
X67646571Y-88822476D01*
X67646571Y-88898666D01*
X68179904Y-89165333D02*
X67646571Y-89165333D01*
X67379904Y-89165333D02*
X67418000Y-89127238D01*
X67456095Y-89165333D01*
X67418000Y-89203428D01*
X67379904Y-89165333D01*
X67456095Y-89165333D01*
X68141809Y-89508190D02*
X68179904Y-89584380D01*
X68179904Y-89736761D01*
X68141809Y-89812952D01*
X68065619Y-89851047D01*
X68027523Y-89851047D01*
X67951333Y-89812952D01*
X67913238Y-89736761D01*
X67913238Y-89622476D01*
X67875142Y-89546285D01*
X67798952Y-89508190D01*
X67760857Y-89508190D01*
X67684666Y-89546285D01*
X67646571Y-89622476D01*
X67646571Y-89736761D01*
X67684666Y-89812952D01*
X68141809Y-90155809D02*
X68179904Y-90232000D01*
X68179904Y-90384380D01*
X68141809Y-90460571D01*
X68065619Y-90498666D01*
X68027523Y-90498666D01*
X67951333Y-90460571D01*
X67913238Y-90384380D01*
X67913238Y-90270095D01*
X67875142Y-90193904D01*
X67798952Y-90155809D01*
X67760857Y-90155809D01*
X67684666Y-90193904D01*
X67646571Y-90270095D01*
X67646571Y-90384380D01*
X67684666Y-90460571D01*
X67646571Y-90765333D02*
X68179904Y-90955809D01*
X67646571Y-91146285D02*
X68179904Y-90955809D01*
X68370380Y-90879619D01*
X68408476Y-90841523D01*
X68446571Y-90765333D01*
M02*
