M48
; DRILL file {KiCad 7.0.7} date Thu Oct 19 16:40:45 2023
; FORMAT={-:-/ absolute / inch / decimal}
; #@! TF.CreationDate,2023-10-19T16:40:45+01:00
; #@! TF.GenerationSoftware,Kicad,Pcbnew,7.0.7
; #@! TF.FileFunction,Plated,1,2,PTH
FMAT,2
INCH
; #@! TA.AperFunction,Plated,PTH,ViaDrill
T1C0.0157
; #@! TA.AperFunction,Plated,PTH,ComponentDrill
T2C0.0197
; #@! TA.AperFunction,Plated,PTH,ComponentDrill
T3C0.0315
; #@! TA.AperFunction,Plated,PTH,ComponentDrill
T4C0.0394
; #@! TA.AperFunction,Plated,PTH,ComponentDrill
T5C0.0512
; #@! TA.AperFunction,Plated,PTH,ComponentDrill
T6C0.0610
; #@! TA.AperFunction,Plated,PTH,ComponentDrill
T7C0.1063
; #@! TA.AperFunction,Plated,PTH,ComponentDrill
T8C0.1260
%
G90
G05
T1
X0.7452Y-2.7526
X0.7495Y-1.8496
X0.7529Y-3.8418
X0.7537Y-1.9573
X0.7591Y-2.0873
X0.7605Y-3.0781
X0.7783Y-3.1448
X0.8167Y-3.3304
X0.825Y-3.3945
X0.8277Y-2.4191
X0.828Y-2.046
X0.8365Y-3.2379
X0.8519Y-1.6585
X0.8624Y-2.1417
X0.8636Y-2.2091
X0.9273Y-3.3329
X0.9359Y-2.5359
X0.9378Y-2.3659
X0.9656Y-2.9888
X0.9735Y-2.7586
X0.9851Y-2.9526
X0.9855Y-3.3329
X1.0486Y-1.9291
X1.0583Y-1.7629
X1.061Y-2.6112
X1.0685Y-3.0744
X1.1009Y-3.4546
X1.1309Y-3.2392
X1.1382Y-1.9405
X1.1723Y-1.8024
X1.1996Y-3.3453
X1.2157Y-2.6168
X1.2275Y-2.4842
X1.2873Y-2.0444
X1.3127Y-3.1971
X1.3553Y-2.1964
X1.3828Y-2.0518
X1.4165Y-2.3832
X1.4363Y-1.9023
X1.4369Y-2.2577
X1.4371Y-2.4517
X1.466Y-2.5706
X1.491Y-3.8842
X1.561Y-2.7406
X1.593Y-2.2292
X1.6184Y-3.7362
X1.686Y-1.4533
X1.688Y-3.8725
X1.7596Y-3.8274
X1.7826Y-1.4023
X1.7844Y-2.5472
X1.7962Y-3.4879
X1.801Y-2.2686
X1.8164Y-3.2056
X1.8357Y-3.1224
X1.8504Y-3.487
X1.8626Y-2.2863
X1.8919Y-3.4844
X1.9001Y-3.0986
X1.9226Y-1.5027
X1.9263Y-2.5509
X1.9309Y-3.6131
X1.9345Y-3.0643
X1.9642Y-1.1378
X1.983Y-3.2144
X1.9941Y-2.4594
X2.0029Y-2.8553
X2.0111Y-3.3399
X2.0404Y-2.6181
X2.0424Y-1.6479
X2.0467Y-3.6225
X2.0645Y-2.744
X2.0718Y-3.1014
X2.0856Y-4.0846
X2.1043Y-2.5325
X2.1343Y-3.5347
X2.1451Y-3.8906
X2.1588Y-2.172
X2.1643Y-3.4811
X2.1918Y-2.5371
X2.2125Y-2.2512
X2.2199Y-4.0525
X2.2319Y-2.5285
X2.2508Y-2.8958
X2.2608Y-2.3087
X2.2618Y-2.4986
X2.275Y-2.854
X2.2813Y-2.9739
X2.2824Y-3.451
X2.2846Y-2.4605
X2.2967Y-3.533
X2.31Y-1.6729
X2.3408Y-2.5111
X2.3497Y-1.4405
X2.361Y-2.1441
X2.3634Y-1.5853
X2.3928Y-1.861
X2.3947Y-1.6821
X2.4147Y-4.2476
X2.4567Y-1.4239
X2.4701Y-2.5468
X2.4859Y-4.2514
X2.5325Y-3.2188
X2.5379Y-4.2512
X2.5469Y-2.5456
X2.5535Y-1.3325
X2.5561Y-2.627
X2.5624Y-3.9371
X2.5734Y-3.6587
X2.5927Y-3.1408
X2.632Y-3.4545
X2.6429Y-1.2793
X2.6609Y-3.8819
X2.6651Y-3.1642
X2.668Y-4.1291
X2.7819Y-3.1409
X2.7943Y-1.8179
X2.7963Y-4.3297
X2.7992Y-4.1603
X2.825Y-3.0768
X2.8278Y-2.4222
X2.8297Y-2.9311
X2.8375Y-2.2555
X2.8722Y-3.0436
X2.8902Y-1.4211
X2.901Y-3.7417
X2.9308Y-3.0248
X2.9479Y-4.1257
X2.9547Y-2.3248
X2.9658Y-4.2551
X2.9668Y-3.6355
X2.9702Y-3.0148
X2.9878Y-4.3345
X2.9951Y-1.8337
X3.0237Y-1.1372
X3.024Y-3.0584
X3.0258Y-4.2745
X3.0315Y-2.3086
X3.0481Y-3.9252
X3.065Y-2.1683
X3.0816Y-2.6702
X3.0876Y-3.9314
X3.09Y-2.7612
X3.0947Y-2.8887
X3.1183Y-4.0941
X3.1199Y-4.2739
X3.1463Y-3.8342
X3.1819Y-3.2727
X3.1842Y-4.1267
X3.1905Y-3.1928
X3.1948Y-2.7886
X3.198Y-1.4895
X3.2078Y-3.9311
X3.2116Y-2.437
X3.2159Y-2.6616
X3.2629Y-4.0962
X3.2642Y-2.5546
X3.2717Y-2.3268
X3.2847Y-1.7237
X3.3059Y-4.2787
X3.3103Y-3.2098
X3.3113Y-1.4113
X3.3187Y-3.7879
X3.3192Y-4.0397
X3.321Y-1.1781
X3.3292Y-3.9939
X3.3317Y-1.9139
X3.3325Y-3.1726
X3.335Y-2.6735
X3.3587Y-2.2996
X3.3589Y-1.8021
X3.3686Y-2.3977
X3.4139Y-1.6164
X3.4232Y-4.1978
X3.4299Y-1.8074
X3.4311Y-2.0384
X3.4369Y-3.426
X3.4393Y-3.6713
X3.4469Y-1.539
X3.4909Y-2.124
X3.507Y-1.6183
X3.5118Y-3.1764
X3.5207Y-4.2933
X3.5207Y-3.7552
X3.5433Y-2.3189
X3.5531Y-1.6398
X3.5531Y-2.4213
X3.5549Y-1.7522
X3.5702Y-1.5109
X3.5869Y-2.6664
X3.5925Y-3.9299
X3.5996Y-4.11
X3.6093Y-2.3091
X3.6126Y-1.8746
X3.6151Y-2.7767
X3.6234Y-3.5744
X3.6267Y-4.2711
X3.63Y-2.0256
X3.6495Y-2.4109
X3.6496Y-3.9145
X3.6597Y-3.7835
X3.6774Y-2.5695
X3.6893Y-2.3136
X3.6928Y-3.1619
X3.693Y-4.1066
X3.7048Y-1.4895
X3.7138Y-2.2167
X3.7262Y-1.5244
X3.7278Y-2.1071
X3.7397Y-2.3096
X3.7469Y-3.7835
X3.7531Y-1.4948
X3.7649Y-2.4085
X3.7659Y-2.0541
X3.7672Y-2.0935
X3.7727Y-3.4529
X3.7775Y-3.8954
X3.7943Y-1.5654
X3.7946Y-2.6157
X3.8018Y-2.2102
X3.802Y-1.836
X3.8091Y-2.0429
X3.8093Y-3.4832
X3.8133Y-2.1531
X3.8213Y-1.9646
X3.8351Y-2.8296
X3.8376Y-2.4075
X3.8377Y-1.9249
X3.8398Y-3.7236
X3.8398Y-3.8214
X3.8469Y-2.0219
X3.874Y-3.4043
X3.8785Y-2.6363
X3.8834Y-4.0073
X3.8925Y-3.0196
X3.9049Y-2.2663
X3.9067Y-2.227
X3.9152Y-3.7028
X3.9157Y-3.6629
X3.9181Y-4.2247
X3.9193Y-4.078
X3.9245Y-1.5736
X3.925Y-3.3327
X3.9258Y-3.1784
X3.9262Y-1.4664
X3.9389Y-2.2044
X3.9508Y-3.4518
X3.951Y-3.8513
X3.9534Y-2.6165
X3.9554Y-2.8405
X3.9559Y-2.9941
X3.9565Y-1.6575
X3.9586Y-2.3977
X3.9602Y-1.2752
X3.961Y-1.8676
X3.9684Y-1.4983
X3.9761Y-1.6183
X3.9778Y-2.4411
X3.9817Y-3.1459
X3.9818Y-3.9736
X3.9857Y-2.9513
X3.9875Y-1.6885
X4.0202Y-2.5885
X4.0211Y-2.8582
X4.0216Y-2.3986
X4.0437Y-2.1632
X4.0659Y-3.5965
X4.066Y-4.0772
X4.0693Y-1.8982
X4.0701Y-2.2695
X4.0709Y-4.2244
X4.071Y-3.9762
X4.0748Y-1.5217
X4.0748Y-1.5659
X4.0801Y-1.6659
X4.0816Y-2.7656
X4.0817Y-2.3507
X4.0944Y-2.1634
X4.1023Y-2.6364
X4.1145Y-2.925
X4.1252Y-3.8303
X4.1257Y-2.114
X4.1309Y-2.3511
X4.1407Y-1.8235
X4.1435Y-3.6814
X4.1623Y-3.3076
X4.1701Y-3.6521
X4.1742Y-2.0573
X4.1795Y-2.2692
X4.1805Y-2.3507
X4.1889Y-3.0349
X4.2169Y-3.9177
X4.2243Y-2.7487
X4.2482Y-3.0388
X4.2699Y-2.163
X4.2772Y-2.024
X4.2799Y-3.2826
X4.2811Y-1.5886
X4.2955Y-3.9318
X4.2982Y-2.102
X4.3021Y-1.5538
X4.3347Y-1.7274
X4.3397Y-3.0096
X4.346Y-1.48
X4.3595Y-2.2532
X4.3602Y-1.1433
X4.3655Y-3.6739
X4.3671Y-4.2771
X4.3785Y-1.6988
X4.3902Y-3.1553
X4.403Y-3.6023
X4.4161Y-2.2275
X4.4281Y-4.2766
X4.4299Y-3.9302
X4.4342Y-1.1666
X4.4354Y-2.4185
X4.4372Y-4.1369
X4.4556Y-3.254
X4.4675Y-2.0566
X4.4679Y-4.0113
X4.4686Y-3.0388
X4.4722Y-4.0911
X4.4792Y-3.3371
X4.4899Y-1.8127
X4.5016Y-3.3724
X4.5133Y-2.7833
X4.5265Y-1.6827
X4.5267Y-2.1511
X4.5298Y-3.7899
X4.5434Y-2.4131
X4.5601Y-3.7588
X4.5732Y-2.8964
X4.5833Y-2.5709
X4.5884Y-3.8214
X4.5894Y-1.8707
X4.5974Y-2.4199
X4.6055Y-4.2832
X4.6072Y-3.2471
X4.6197Y-1.6348
X4.6347Y-3.2151
X4.637Y-2.7828
X4.6545Y-2.6201
X4.6554Y-1.8422
X4.6648Y-3.2802
X4.6825Y-3.3917
X4.6841Y-1.9619
X4.6957Y-3.8547
X4.7275Y-3.1731
X4.7343Y-1.8993
X4.752Y-3.5935
X4.7539Y-2.925
X4.7634Y-3.0675
X4.7748Y-4.0788
X4.7812Y-1.7175
X4.7815Y-3.4803
X4.7827Y-3.9073
X4.7886Y-3.3495
X4.791Y-3.7205
X4.7929Y-3.6269
X4.796Y-1.5372
X4.7964Y-1.4546
X4.8056Y-1.6312
X4.8122Y-4.0605
X4.8174Y-1.3885
X4.8178Y-3.0096
X4.8223Y-1.8184
X4.8396Y-3.5204
X4.8522Y-2.1723
X4.8642Y-2.4185
X4.8743Y-3.4168
X4.884Y-4.0951
X4.887Y-3.6523
X4.9019Y-2.852
X4.9045Y-3.6171
X4.9319Y-3.3579
X4.9331Y-3.5827
X4.9403Y-3.5256
X4.9497Y-2.8777
X4.9507Y-2.1345
X4.9582Y-4.0566
X4.9595Y-1.2569
X4.9635Y-3.295
X4.969Y-3.2038
X4.9759Y-1.7588
X4.9767Y-3.7588
X4.9785Y-2.5489
X4.9794Y-1.9839
X4.9833Y-2.9762
X4.9904Y-3.381
X4.9907Y-3.47
X4.9961Y-3.5849
X4.9965Y-1.8969
X5.0072Y-2.816
X5.0261Y-4.0591
X5.0388Y-2.0206
X5.0394Y-4.1226
X5.0435Y-2.3327
X5.0437Y-1.9319
X5.0629Y-4.292
X5.0734Y-3.1912
X5.0845Y-4.104
X5.0932Y-3.154
X5.0937Y-1.8314
X5.1108Y-3.9889
X5.1122Y-2.5121
X5.1158Y-3.9073
X5.1219Y-3.209
X5.129Y-1.8083
X5.1292Y-1.929
X5.1302Y-3.3384
X5.1359Y-2.0271
X5.1368Y-3.6437
X5.1401Y-4.2671
X5.1411Y-3.5644
X5.1478Y-2.6743
X5.1486Y-2.8661
X5.1528Y-1.1847
X5.1618Y-3.367
X5.1627Y-2.9975
X5.1666Y-3.04
X5.1705Y-3.8896
X5.1791Y-4.2239
X5.1834Y-2.1374
X5.1972Y-3.1179
X5.2066Y-2.3298
X5.208Y-3.1897
X5.2101Y-1.669
X5.2184Y-3.4877
X5.2279Y-3.7157
X5.2328Y-3.6399
X5.2369Y-1.9936
X5.2419Y-2.8542
X5.2431Y-2.3695
X5.2506Y-2.3298
X5.2532Y-1.6492
X5.2601Y-3.8579
X5.2798Y-4.2296
X5.2835Y-2.5812
X5.2932Y-2.4946
X5.2943Y-3.6035
X5.2977Y-2.0515
X5.3009Y-1.8114
X5.3225Y-3.8238
X5.3234Y-2.7797
X5.3261Y-2.5174
X5.3287Y-3.5066
X5.3392Y-2.2337
X5.345Y-2.6724
X5.3479Y-2.3591
X5.3525Y-2.0755
X5.3536Y-3.0091
X5.354Y-1.8601
X5.3546Y-3.3165
X5.3576Y-2.3989
X5.3636Y-2.7577
X5.3641Y-3.5382
X5.3658Y-3.4029
X5.3709Y-3.146
X5.3716Y-2.9702
X5.3736Y-3.7302
X5.3764Y-4.3145
X5.3808Y-2.6439
X5.3853Y-3.9854
X5.3867Y-1.8109
X5.4049Y-4.2076
X5.4109Y-3.2183
X5.4112Y-3.178
X5.416Y-2.3968
X5.4231Y-2.4894
X5.4269Y-2.6899
X5.4321Y-1.7395
X5.4482Y-2.0857
X5.47Y-3.0994
X5.4755Y-2.8905
X5.479Y-1.7783
X5.4823Y-4.1791
X5.4887Y-3.2454
X5.4896Y-1.4046
X5.4967Y-1.5972
X5.4981Y-3.6384
X5.5413Y-4.1317
X5.5435Y-3.4884
X5.5437Y-3.8086
X5.5535Y-3.9317
X5.5605Y-3.1737
X5.5623Y-2.7055
X5.5642Y-3.1294
X5.5863Y-2.9136
X5.5937Y-2.5659
X5.5981Y-3.3895
X5.6152Y-1.7495
X5.6182Y-2.1931
X5.6207Y-2.0857
X5.6231Y-2.4695
X5.6288Y-2.5446
X5.634Y-1.7084
X5.6442Y-3.6781
X5.6497Y-3.4098
X5.6567Y-2.7113
X5.6771Y-3.7486
X5.7055Y-3.4895
X5.7102Y-1.9325
X5.7182Y-2.1132
X5.7222Y-2.3943
X5.7348Y-2.496
X5.739Y-1.8966
X5.7394Y-1.8109
X5.7506Y-3.6829
X5.7553Y-3.3809
X5.7753Y-3.1291
X5.7771Y-2.1635
X5.7872Y-3.2157
X5.8046Y-1.963
X5.8109Y-3.7264
X5.812Y-3.6134
X5.8158Y-3.8631
X5.8378Y-2.7649
X5.8402Y-1.1387
X5.85Y-3.6812
X5.8502Y-4.0679
X5.8512Y-3.3046
X5.8513Y-3.6013
X5.868Y-3.7383
X5.8714Y-3.3798
X5.8792Y-3.2174
X5.8899Y-2.1252
X5.8982Y-2.4383
X5.9191Y-3.4261
X5.9259Y-2.5175
X5.9306Y-1.4773
X5.9526Y-2.9557
X5.9771Y-3.2584
X5.9811Y-2.8447
X5.9861Y-2.3221
X6.0211Y-1.4773
X6.0217Y-2.6614
X6.0255Y-3.0994
X6.031Y-2.294
X6.0517Y-3.6468
X6.0587Y-1.9705
X6.0721Y-1.7309
X6.0824Y-3.0845
X6.0955Y-3.7251
X6.0957Y-1.6626
X6.1068Y-1.7031
X6.1093Y-4.1279
X6.1106Y-2.0469
X6.1236Y-2.3258
X6.1247Y-4.0613
X6.1408Y-3.6238
X6.1583Y-1.9637
X6.1698Y-1.6626
X6.1763Y-3.847
X6.2143Y-1.7074
X6.2309Y-2.7878
X6.2314Y-2.8449
X6.2384Y-1.2438
X6.2472Y-1.8068
X6.2576Y-1.281
X6.2774Y-1.8358
X6.2791Y-1.8755
X6.2974Y-3.7749
X6.3049Y-1.7936
X6.318Y-1.8497
X6.3212Y-1.7074
X6.3307Y-2.9213
X6.3514Y-4.2963
X6.3575Y-1.7389
X6.3661Y-3.2894
X6.3664Y-1.8123
X6.3766Y-2.2936
X6.3878Y-3.8258
X6.3888Y-3.215
X6.3888Y-3.611
X6.3898Y-2.8199
X6.3898Y-4.005
X6.3923Y-2.5422
X6.5327Y-2.3853
X6.5338Y-4.0006
X6.5453Y-1.7244
X6.5721Y-2.3975
X6.5852Y-2.6609
X6.7008Y-1.7382
X6.7022Y-2.1582
X6.7024Y-2.5053
X6.7141Y-2.3774
X6.7336Y-2.6323
X6.7406Y-2.1802
X6.7712Y-2.3975
X6.8003Y-1.9268
X6.8026Y-4.1592
X6.8108Y-2.1874
X6.8121Y-2.283
X6.8325Y-4.1327
X6.8808Y-2.052
X6.883Y-1.9554
X6.8896Y-2.1724
X6.922Y-4.1762
X6.9279Y-2.4473
X6.9388Y-1.3186
X6.9439Y-2.3992
X6.9443Y-2.1611
X6.9566Y-2.0524
X6.975Y-2.0137
X6.9761Y-1.8504
X6.984Y-2.1581
X7.0292Y-2.1997
X7.0306Y-2.158
X7.0548Y-4.163
X7.0864Y-2.2131
X7.1364Y-2.1587
X7.2071Y-1.7559
X7.2144Y-2.1293
X7.2503Y-2.4477
X7.2517Y-3.0205
X7.2521Y-3.244
X7.2558Y-4.2996
X7.2751Y-2.9134
X7.3076Y-2.4404
X7.3133Y-1.9299
X7.3145Y-2.0417
X7.3261Y-1.6736
X7.3413Y-2.341
X7.3819Y-4.1804
X7.3832Y-2.1706
X7.3898Y-2.5061
X7.3931Y-1.852
X7.4019Y-2.6719
X7.4165Y-3.0284
X7.4292Y-2.6403
X7.4812Y-3.8488
X7.4821Y-2.0167
X7.5184Y-1.7343
X7.5496Y-1.2992
X7.6266Y-2.2833
X7.667Y-2.2649
X7.743Y-2.0753
X7.7482Y-4.2152
X7.7583Y-1.7841
X7.7594Y-1.2642
X7.763Y-2.0167
X7.793Y-1.1935
X7.8028Y-1.3476
X7.8061Y-1.5732
X7.8083Y-4.2259
X7.8559Y-1.3039
X7.857Y-1.9449
X8.0051Y-2.8265
X8.0212Y-2.4664
X8.0258Y-1.2392
X8.0314Y-4.0094
X8.0564Y-2.1406
X8.131Y-3.0179
X8.1374Y-2.8403
X8.1436Y-3.4293
X8.1516Y-3.621
X8.1737Y-2.3328
X8.1818Y-3.6641
X8.2027Y-2.5048
X8.2356Y-2.2339
X8.2718Y-2.6701
X8.298Y-2.3507
X8.3125Y-2.3904
X8.3138Y-2.4667
X8.3348Y-3.4526
X8.3423Y-2.7473
X8.3431Y-3.1473
X8.3431Y-3.5373
X8.3431Y-3.9323
X8.3596Y-3.8475
X8.3931Y-4.1916
X8.3985Y-1.785
X8.4316Y-4.2113
X8.4928Y-1.616
X8.5311Y-1.959
X8.6112Y-2.002
X8.6245Y-2.8386
X8.7206Y-1.8709
X8.7411Y-1.9887
X8.7475Y-2.0874
X8.7904Y-1.8661
X8.9135Y-4.0113
X8.9923Y-2.0602
X9.1047Y-3.4813
X9.1404Y-2.0507
X9.151Y-2.6562
X9.1571Y-4.1617
X9.1985Y-2.4908
X9.2029Y-2.0716
X9.2189Y-2.8654
X9.2256Y-3.9847
X9.2258Y-3.8477
X9.2802Y-3.2734
X9.2839Y-3.9615
X9.3817Y-2.1657
X9.383Y-2.0377
X9.534Y-1.9202
X9.589Y-1.9516
X9.7982Y-2.1762
X9.8967Y-2.178
X9.9951Y-2.0256
X10.0886Y-3.3177
X10.0902Y-3.7079
X10.0929Y-2.5256
X10.0957Y-2.9283
T2
X5.9264Y-2.7766
X5.9264Y-2.8159
X6.0197Y-2.7766
X6.0197Y-2.8159
X6.1126Y-2.7766
X6.1126Y-2.8159
T3
X0.699Y-3.7805
X0.799Y-3.7805
X0.899Y-3.7805
X0.911Y-2.111
X0.911Y-2.711
X0.911Y-2.7992
X0.911Y-3.3992
X0.999Y-3.7805
X1.011Y-2.111
X1.011Y-2.711
X1.011Y-2.7992
X1.011Y-3.3992
X1.099Y-3.7805
X1.111Y-2.111
X1.111Y-2.711
X1.111Y-2.7992
X1.111Y-3.3992
X1.199Y-3.7805
X1.211Y-2.111
X1.211Y-2.711
X1.211Y-2.7992
X1.211Y-3.3992
X1.299Y-3.7805
X1.311Y-2.111
X1.311Y-2.711
X1.311Y-2.7992
X1.311Y-3.3992
X1.399Y-3.7805
X1.411Y-2.111
X1.411Y-2.711
X1.411Y-2.7992
X1.411Y-3.3992
X1.499Y-3.7805
X1.511Y-2.111
X1.511Y-2.711
X1.511Y-2.7992
X1.511Y-3.3992
X1.611Y-2.111
X1.611Y-2.711
X1.611Y-2.7992
X1.611Y-3.3992
X1.711Y-2.111
X1.711Y-2.711
X1.711Y-2.7992
X1.711Y-3.3992
X1.7413Y-1.361
X1.7413Y-1.461
X1.7413Y-1.561
X1.7413Y-1.661
X1.7413Y-1.761
X1.811Y-2.111
X1.811Y-2.711
X1.811Y-2.7992
X1.811Y-3.3992
X1.8413Y-1.261
X1.8413Y-1.361
X1.8413Y-1.461
X1.8413Y-1.561
X1.8413Y-1.661
X1.8413Y-1.761
X1.8413Y-1.861
X1.911Y-2.111
X1.911Y-2.711
X1.911Y-2.7992
X1.911Y-3.3992
X1.9413Y-1.261
X1.9413Y-1.361
X1.9413Y-1.761
X1.9413Y-1.861
X2.011Y-2.111
X2.011Y-2.711
X2.011Y-2.7992
X2.011Y-3.3992
X2.0413Y-1.261
X2.0413Y-1.361
X2.0413Y-1.761
X2.0413Y-1.861
X2.111Y-2.111
X2.111Y-2.711
X2.111Y-2.7992
X2.111Y-3.3992
X2.1413Y-1.261
X2.1413Y-1.361
X2.1413Y-1.461
X2.1413Y-1.561
X2.1413Y-1.661
X2.1413Y-1.761
X2.1413Y-1.861
X2.211Y-2.111
X2.211Y-2.711
X2.211Y-2.7992
X2.211Y-3.3992
X2.2413Y-1.361
X2.2413Y-1.461
X2.2413Y-1.561
X2.2413Y-1.661
X2.2413Y-1.761
X2.311Y-2.111
X2.311Y-2.711
X2.311Y-2.7992
X2.311Y-3.3992
X2.411Y-2.111
X2.411Y-2.711
X2.411Y-2.7992
X2.411Y-3.3992
X2.511Y-2.111
X2.511Y-2.711
X2.511Y-2.7992
X2.511Y-3.3992
X2.611Y-2.111
X2.611Y-2.711
X2.611Y-2.7992
X2.611Y-3.3992
X2.6201Y-1.1734
X2.6201Y-1.4734
X2.711Y-2.111
X2.711Y-2.711
X2.711Y-2.7992
X2.711Y-3.3992
X2.7201Y-1.1734
X2.7201Y-1.4734
X2.811Y-2.111
X2.811Y-2.711
X2.811Y-2.7992
X2.811Y-3.3992
X2.8201Y-1.1734
X2.8201Y-1.4734
X2.9201Y-1.1734
X2.9201Y-1.4734
X3.1142Y-2.4984
X3.1142Y-3.0984
X3.2142Y-2.4984
X3.2142Y-3.0984
X3.3142Y-2.4984
X3.3142Y-3.0984
X3.4142Y-2.4984
X3.4142Y-3.0984
X3.5142Y-2.4984
X3.5142Y-3.0984
X3.6142Y-2.4984
X3.6142Y-3.0984
X3.7142Y-2.4984
X3.7142Y-3.0984
X3.8142Y-2.4984
X3.8142Y-3.0984
X3.9142Y-2.4984
X3.9142Y-3.0984
X4.0142Y-2.4984
X4.0142Y-3.0984
X4.1142Y-2.4984
X4.1142Y-3.0984
X4.2142Y-2.4984
X4.2142Y-3.0984
X4.3142Y-2.4984
X4.3142Y-3.0984
X4.4142Y-2.4984
X4.4142Y-3.0984
X4.5142Y-2.4984
X4.5142Y-3.0984
X4.6142Y-2.4984
X4.6142Y-3.0984
X4.7142Y-2.4984
X4.7142Y-3.0984
X4.8142Y-2.4984
X4.8142Y-3.0984
X4.9142Y-2.4984
X4.9142Y-3.0984
X5.0142Y-2.4984
X5.0142Y-3.0984
X6.479Y-2.5938
X6.479Y-2.8938
X6.479Y-2.9884
X6.479Y-3.2884
X6.479Y-3.3838
X6.479Y-3.6838
X6.479Y-3.7784
X6.479Y-4.0784
X6.579Y-2.5938
X6.579Y-2.8938
X6.579Y-2.9884
X6.579Y-3.2884
X6.579Y-3.3838
X6.579Y-3.6838
X6.579Y-3.7784
X6.579Y-4.0784
X6.679Y-2.5938
X6.679Y-2.8938
X6.679Y-2.9884
X6.679Y-3.2884
X6.679Y-3.3838
X6.679Y-3.6838
X6.679Y-3.7784
X6.679Y-4.0784
X6.779Y-2.5938
X6.779Y-2.8938
X6.779Y-2.9884
X6.779Y-3.2884
X6.779Y-3.3838
X6.779Y-3.6838
X6.779Y-3.7784
X6.779Y-4.0784
X6.879Y-2.5938
X6.879Y-2.8938
X6.879Y-2.9884
X6.879Y-3.2884
X6.879Y-3.3838
X6.879Y-3.6838
X6.879Y-3.7784
X6.879Y-4.0784
X6.979Y-2.5938
X6.979Y-2.8938
X6.979Y-2.9884
X6.979Y-3.2884
X6.979Y-3.3838
X6.979Y-3.6838
X6.979Y-3.7784
X6.979Y-4.0784
X7.079Y-2.5938
X7.079Y-2.8938
X7.079Y-2.9884
X7.079Y-3.2884
X7.079Y-3.3838
X7.079Y-3.6838
X7.079Y-3.7784
X7.079Y-4.0784
X7.179Y-2.5938
X7.179Y-2.8938
X7.179Y-2.9884
X7.179Y-3.2884
X7.179Y-3.3838
X7.179Y-3.6838
X7.179Y-3.7784
X7.179Y-4.0784
X7.3608Y-2.5938
X7.3608Y-2.8938
X7.3608Y-2.9884
X7.3608Y-3.2884
X7.3608Y-3.3838
X7.3608Y-3.6838
X7.3608Y-3.7784
X7.3608Y-4.0784
X7.4608Y-2.5938
X7.4608Y-2.8938
X7.4608Y-2.9884
X7.4608Y-3.2884
X7.4608Y-3.3838
X7.4608Y-3.6838
X7.4608Y-3.7784
X7.4608Y-4.0784
X7.5608Y-2.5938
X7.5608Y-2.8938
X7.5608Y-2.9884
X7.5608Y-3.2884
X7.5608Y-3.3838
X7.5608Y-3.6838
X7.5608Y-3.7784
X7.5608Y-4.0784
X7.6608Y-2.5938
X7.6608Y-2.8938
X7.6608Y-2.9884
X7.6608Y-3.2884
X7.6608Y-3.3838
X7.6608Y-3.6838
X7.6608Y-3.7784
X7.6608Y-4.0784
X7.7608Y-2.5938
X7.7608Y-2.8938
X7.7608Y-2.9884
X7.7608Y-3.2884
X7.7608Y-3.3838
X7.7608Y-3.6838
X7.7608Y-3.7784
X7.7608Y-4.0784
X7.8608Y-2.5938
X7.8608Y-2.8938
X7.8608Y-2.9884
X7.8608Y-3.2884
X7.8608Y-3.3838
X7.8608Y-3.6838
X7.8608Y-3.7784
X7.8608Y-4.0784
X7.9608Y-2.5938
X7.9608Y-2.8938
X7.9608Y-2.9884
X7.9608Y-3.2884
X7.9608Y-3.3838
X7.9608Y-3.6838
X7.9608Y-3.7784
X7.9608Y-4.0784
X8.0608Y-2.5938
X8.0608Y-2.8938
X8.0608Y-2.9884
X8.0608Y-3.2884
X8.0608Y-3.3838
X8.0608Y-3.6838
X8.0608Y-3.7784
X8.0608Y-4.0784
X8.2423Y-2.5938
X8.2423Y-2.8938
X8.2423Y-2.9884
X8.2423Y-3.2884
X8.2423Y-3.3838
X8.2423Y-3.6838
X8.2423Y-3.7784
X8.2423Y-4.0784
X8.2626Y-1.3461
X8.3423Y-2.5938
X8.3423Y-2.8938
X8.3423Y-2.9884
X8.3423Y-3.2884
X8.3423Y-3.3838
X8.3423Y-3.6838
X8.3423Y-3.7784
X8.3423Y-4.0784
X8.4423Y-2.5938
X8.4423Y-2.8938
X8.4423Y-2.9884
X8.4423Y-3.2884
X8.4423Y-3.3838
X8.4423Y-3.6838
X8.4423Y-3.7784
X8.4423Y-4.0784
X8.4547Y-1.3461
X8.5423Y-2.5938
X8.5423Y-2.8938
X8.5423Y-2.9884
X8.5423Y-3.2884
X8.5423Y-3.3838
X8.5423Y-3.6838
X8.5423Y-3.7784
X8.5423Y-4.0784
X8.6423Y-2.5938
X8.6423Y-2.8938
X8.6423Y-2.9884
X8.6423Y-3.2884
X8.6423Y-3.3838
X8.6423Y-3.6838
X8.6423Y-3.7784
X8.6423Y-4.0784
X8.7423Y-2.5938
X8.7423Y-2.8938
X8.7423Y-2.9884
X8.7423Y-3.2884
X8.7423Y-3.3838
X8.7423Y-3.6838
X8.7423Y-3.7784
X8.7423Y-4.0784
X8.8423Y-2.5938
X8.8423Y-2.8938
X8.8423Y-2.9884
X8.8423Y-3.2884
X8.8423Y-3.3838
X8.8423Y-3.6838
X8.8423Y-3.7784
X8.8423Y-4.0784
X8.9423Y-2.5938
X8.9423Y-2.8938
X8.9423Y-2.9884
X8.9423Y-3.2884
X8.9423Y-3.3838
X8.9423Y-3.6838
X8.9423Y-3.7784
X8.9423Y-4.0784
X9.1689Y-2.4146
X9.1689Y-2.7146
X9.1689Y-2.8092
X9.1689Y-3.1092
X9.1689Y-3.2046
X9.1689Y-3.5046
X9.1689Y-3.5992
X9.1689Y-3.8992
X9.2689Y-2.4146
X9.2689Y-2.7146
X9.2689Y-2.8092
X9.2689Y-3.1092
X9.2689Y-3.2046
X9.2689Y-3.5046
X9.2689Y-3.5992
X9.2689Y-3.8992
X9.3689Y-2.4146
X9.3689Y-2.7146
X9.3689Y-2.8092
X9.3689Y-3.1092
X9.3689Y-3.2046
X9.3689Y-3.5046
X9.3689Y-3.5992
X9.3689Y-3.8992
X9.4689Y-2.4146
X9.4689Y-2.7146
X9.4689Y-2.8092
X9.4689Y-3.1092
X9.4689Y-3.2046
X9.4689Y-3.5046
X9.4689Y-3.5992
X9.4689Y-3.8992
X9.5689Y-2.4146
X9.5689Y-2.7146
X9.5689Y-2.8092
X9.5689Y-3.1092
X9.5689Y-3.2046
X9.5689Y-3.5046
X9.5689Y-3.5992
X9.5689Y-3.8992
X9.6689Y-2.4146
X9.6689Y-2.7146
X9.6689Y-2.8092
X9.6689Y-3.1092
X9.6689Y-3.2046
X9.6689Y-3.5046
X9.6689Y-3.5992
X9.6689Y-3.8992
X9.7689Y-2.4146
X9.7689Y-2.7146
X9.7689Y-2.8092
X9.7689Y-3.1092
X9.7689Y-3.2046
X9.7689Y-3.5046
X9.7689Y-3.5992
X9.7689Y-3.8992
X9.8689Y-2.4146
X9.8689Y-2.7146
X9.8689Y-2.8092
X9.8689Y-3.1092
X9.8689Y-3.2046
X9.8689Y-3.5046
X9.8689Y-3.5992
X9.8689Y-3.8992
X9.9749Y-1.8887
X10.0734Y-1.8887
T4
X0.702Y-1.312
X0.702Y-1.412
X0.702Y-1.512
X0.702Y-1.712
X0.702Y-1.812
X0.702Y-1.912
X0.702Y-2.012
X0.702Y-2.112
X0.702Y-2.212
X0.702Y-2.312
X0.702Y-2.412
X0.702Y-2.512
X0.702Y-2.612
X0.702Y-2.712
X0.702Y-2.812
X0.702Y-2.912
X0.702Y-3.012
X0.702Y-3.112
X0.702Y-3.212
X0.702Y-3.312
X0.702Y-3.412
X0.702Y-3.512
X0.702Y-3.612
X1.2235Y-3.9854
X1.278Y-4.0972
X1.3326Y-3.9854
X1.3871Y-4.0972
X1.4416Y-3.9854
X1.4961Y-4.0972
X1.5507Y-3.9854
X1.6052Y-4.0972
X1.6597Y-3.9854
X2.5071Y-1.9154
X2.6071Y-1.9154
X2.7071Y-1.9154
X2.8071Y-1.9154
X2.9071Y-1.9154
X3.5102Y-1.2252
X3.5102Y-1.3252
X3.6102Y-1.2252
X3.6102Y-1.3252
X3.7102Y-1.2252
X3.7102Y-1.3252
X3.8102Y-1.2252
X3.8102Y-1.3252
X3.9102Y-1.2252
X3.9102Y-1.3252
X4.0102Y-1.2252
X4.0102Y-1.3252
X4.1102Y-1.2252
X4.1102Y-1.3252
X4.2102Y-1.2252
X4.2102Y-1.3252
X4.3102Y-1.2252
X4.3102Y-1.3252
X4.4102Y-1.2252
X4.4102Y-1.3252
X4.5102Y-1.2252
X4.5102Y-1.3252
X4.6102Y-1.2252
X4.6102Y-1.3252
X4.7102Y-1.2252
X4.7102Y-1.3252
X4.8102Y-1.2252
X4.8102Y-1.3252
X4.9102Y-1.2252
X4.9102Y-1.3252
X5.0102Y-1.2252
X5.0102Y-1.3252
X5.1102Y-1.2252
X5.1102Y-1.3252
X5.2102Y-1.2252
X5.2102Y-1.3252
X5.3102Y-1.2252
X5.3102Y-1.3252
X5.4102Y-1.2252
X5.4102Y-1.3252
X5.5102Y-1.2252
X5.5102Y-1.3252
X5.6102Y-1.2252
X5.6102Y-1.3252
X5.7102Y-1.2252
X5.7102Y-1.3252
X5.8102Y-1.2252
X5.8102Y-1.3252
X5.9102Y-1.2252
X5.9102Y-1.3252
X7.6886Y-1.3504
X7.6886Y-1.4504
X7.6886Y-1.5504
X7.6886Y-1.6504
X7.6886Y-1.7504
X7.6886Y-1.8504
X7.6886Y-1.9504
X9.2785Y-4.2264
X9.3785Y-4.2264
T5
X9.068Y-1.5856
X9.1664Y-1.684
X9.3633Y-1.5856
X9.3633Y-1.7824
X9.5601Y-1.684
X9.6586Y-1.5856
T6
X9.1633Y-1.1937
X9.2649Y-1.1919
X9.3633Y-1.1937
X9.4617Y-1.1919
X9.557Y-1.1937
T7
X0.71Y-4.244
X1.409Y-1.726
X2.472Y-3.562
X3.14Y-1.25
X4.85Y-3.25
X8.82Y-1.25
X9.626Y-4.052
T8
X0.9495Y-4.0413
X1.9337Y-4.0413
T3
G00X0.9171Y-1.4351
M15
G01X0.9171Y-1.4626
M16
G05
G00X1.0156Y-1.4351
M15
G01X1.0156Y-1.4626
M16
G05
G00X1.1278Y-1.252
M15
G01X1.1002Y-1.252
M16
G05
G00X1.2124Y-1.4351
M15
G01X1.2124Y-1.4626
M16
G05
G00X1.3109Y-1.4351
M15
G01X1.3109Y-1.4626
M16
G05
T4
G00X9.87Y-1.4724
M15
G01X9.87Y-1.5512
M16
G05
G00X10.0944Y-1.3937
M15
G01X10.0157Y-1.3937
M16
G05
G00X10.0944Y-1.6299
M15
G01X10.0157Y-1.6299
M16
G05
T0
M30
