%TF.GenerationSoftware,KiCad,Pcbnew,7.0.7*%
%TF.CreationDate,2023-10-19T16:40:54+01:00*%
%TF.ProjectId,CPC464-2MINI,43504334-3634-42d3-924d-494e492e6b69,rev?*%
%TF.SameCoordinates,Original*%
%TF.FileFunction,Soldermask,Bot*%
%TF.FilePolarity,Negative*%
%FSLAX46Y46*%
G04 Gerber Fmt 4.6, Leading zero omitted, Abs format (unit mm)*
G04 Created by KiCad (PCBNEW 7.0.7) date 2023-10-19 16:40:54*
%MOMM*%
%LPD*%
G01*
G04 APERTURE LIST*
G04 Aperture macros list*
%AMRoundRect*
0 Rectangle with rounded corners*
0 $1 Rounding radius*
0 $2 $3 $4 $5 $6 $7 $8 $9 X,Y pos of 4 corners*
0 Add a 4 corners polygon primitive as box body*
4,1,4,$2,$3,$4,$5,$6,$7,$8,$9,$2,$3,0*
0 Add four circle primitives for the rounded corners*
1,1,$1+$1,$2,$3*
1,1,$1+$1,$4,$5*
1,1,$1+$1,$6,$7*
1,1,$1+$1,$8,$9*
0 Add four rect primitives between the rounded corners*
20,1,$1+$1,$2,$3,$4,$5,0*
20,1,$1+$1,$4,$5,$6,$7,0*
20,1,$1+$1,$6,$7,$8,$9,0*
20,1,$1+$1,$8,$9,$2,$3,0*%
G04 Aperture macros list end*
%ADD10R,1.600000X1.600000*%
%ADD11O,1.600000X1.600000*%
%ADD12C,4.500000*%
%ADD13R,0.850000X0.850000*%
%ADD14O,0.850000X0.850000*%
%ADD15C,4.000000*%
%ADD16C,1.600000*%
%ADD17C,1.200000*%
%ADD18O,2.616000X1.308000*%
%ADD19O,1.308000X2.616000*%
%ADD20R,1.700000X1.700000*%
%ADD21O,1.700000X1.700000*%
%ADD22C,2.400000*%
%ADD23R,1.950000X1.950000*%
%ADD24C,1.950000*%
%ADD25C,2.150000*%
%ADD26C,1.500000*%
%ADD27RoundRect,0.250000X0.600000X-0.600000X0.600000X0.600000X-0.600000X0.600000X-0.600000X-0.600000X0*%
%ADD28C,1.700000*%
%ADD29R,1.422400X1.422400*%
%ADD30C,1.422400*%
%ADD31R,3.500000X3.500000*%
%ADD32RoundRect,0.750000X-1.000000X0.750000X-1.000000X-0.750000X1.000000X-0.750000X1.000000X0.750000X0*%
%ADD33RoundRect,0.875000X-0.875000X0.875000X-0.875000X-0.875000X0.875000X-0.875000X0.875000X0.875000X0*%
%ADD34RoundRect,0.250000X0.450000X-0.262500X0.450000X0.262500X-0.450000X0.262500X-0.450000X-0.262500X0*%
G04 APERTURE END LIST*
D10*
%TO.C,IC118*%
X164566200Y-83525000D03*
D11*
X167106200Y-83525000D03*
X169646200Y-83525000D03*
X172186200Y-83525000D03*
X174726200Y-83525000D03*
X177266200Y-83525000D03*
X179806200Y-83525000D03*
X182346200Y-83525000D03*
X182346200Y-75905000D03*
X179806200Y-75905000D03*
X177266200Y-75905000D03*
X174726200Y-75905000D03*
X172186200Y-75905000D03*
X169646200Y-75905000D03*
X167106200Y-75905000D03*
X164566200Y-75905000D03*
%TD*%
D12*
%TO.C,H4*%
X244500400Y-102920800D03*
%TD*%
D10*
%TO.C,IC708*%
X232890000Y-99040000D03*
D11*
X235430000Y-99040000D03*
X237970000Y-99040000D03*
X240510000Y-99040000D03*
X243050000Y-99040000D03*
X245590000Y-99040000D03*
X248130000Y-99040000D03*
X250670000Y-99040000D03*
X250670000Y-91420000D03*
X248130000Y-91420000D03*
X245590000Y-91420000D03*
X243050000Y-91420000D03*
X240510000Y-91420000D03*
X237970000Y-91420000D03*
X235430000Y-91420000D03*
X232890000Y-91420000D03*
%TD*%
D12*
%TO.C,H2*%
X224028000Y-31750000D03*
%TD*%
D10*
%TO.C,IC703*%
X209355000Y-83525000D03*
D11*
X211895000Y-83525000D03*
X214435000Y-83525000D03*
X216975000Y-83525000D03*
X219515000Y-83525000D03*
X222055000Y-83525000D03*
X224595000Y-83525000D03*
X227135000Y-83525000D03*
X227135000Y-75905000D03*
X224595000Y-75905000D03*
X222055000Y-75905000D03*
X219515000Y-75905000D03*
X216975000Y-75905000D03*
X214435000Y-75905000D03*
X211895000Y-75905000D03*
X209355000Y-75905000D03*
%TD*%
D13*
%TO.C,LK8*%
X155260000Y-70525000D03*
D14*
X155260000Y-71525000D03*
%TD*%
D13*
%TO.C,LK6*%
X152900000Y-70525000D03*
D14*
X152900000Y-71525000D03*
%TD*%
D15*
%TO.C,J102*%
X24116800Y-102649300D03*
X49116800Y-102649300D03*
D10*
X31076800Y-101229300D03*
D16*
X33846800Y-101229300D03*
X36616800Y-101229300D03*
X39386800Y-101229300D03*
X42156800Y-101229300D03*
X32461800Y-104069300D03*
X35231800Y-104069300D03*
X38001800Y-104069300D03*
X40771800Y-104069300D03*
%TD*%
D10*
%TO.C,IC121*%
X186965000Y-73502000D03*
D11*
X189505000Y-73502000D03*
X192045000Y-73502000D03*
X194585000Y-73502000D03*
X197125000Y-73502000D03*
X199665000Y-73502000D03*
X202205000Y-73502000D03*
X204745000Y-73502000D03*
X204745000Y-65882000D03*
X202205000Y-65882000D03*
X199665000Y-65882000D03*
X197125000Y-65882000D03*
X194585000Y-65882000D03*
X192045000Y-65882000D03*
X189505000Y-65882000D03*
X186965000Y-65882000D03*
%TD*%
D17*
%TO.C,J103*%
X33295600Y-29300800D03*
X23295600Y-29300800D03*
X33295600Y-31800800D03*
X23295600Y-31800800D03*
X28295600Y-36800800D03*
D18*
X28295600Y-31800800D03*
D19*
X23295600Y-36800800D03*
X33295600Y-36800800D03*
X25795600Y-36800800D03*
X30795600Y-36800800D03*
%TD*%
D10*
%TO.C,IC701*%
X209355000Y-103591000D03*
D11*
X211895000Y-103591000D03*
X214435000Y-103591000D03*
X216975000Y-103591000D03*
X219515000Y-103591000D03*
X222055000Y-103591000D03*
X224595000Y-103591000D03*
X227135000Y-103591000D03*
X227135000Y-95971000D03*
X224595000Y-95971000D03*
X222055000Y-95971000D03*
X219515000Y-95971000D03*
X216975000Y-95971000D03*
X214435000Y-95971000D03*
X211895000Y-95971000D03*
X209355000Y-95971000D03*
%TD*%
D10*
%TO.C,IC119*%
X164566200Y-93568000D03*
D11*
X167106200Y-93568000D03*
X169646200Y-93568000D03*
X172186200Y-93568000D03*
X174726200Y-93568000D03*
X177266200Y-93568000D03*
X179806200Y-93568000D03*
X182346200Y-93568000D03*
X182346200Y-85948000D03*
X179806200Y-85948000D03*
X177266200Y-85948000D03*
X174726200Y-85948000D03*
X172186200Y-85948000D03*
X169646200Y-85948000D03*
X167106200Y-85948000D03*
X164566200Y-85948000D03*
%TD*%
D10*
%TO.C,IC117*%
X164566200Y-73502000D03*
D11*
X167106200Y-73502000D03*
X169646200Y-73502000D03*
X172186200Y-73502000D03*
X174726200Y-73502000D03*
X177266200Y-73502000D03*
X179806200Y-73502000D03*
X182346200Y-73502000D03*
X182346200Y-65882000D03*
X179806200Y-65882000D03*
X177266200Y-65882000D03*
X174726200Y-65882000D03*
X172186200Y-65882000D03*
X169646200Y-65882000D03*
X167106200Y-65882000D03*
X164566200Y-65882000D03*
%TD*%
D20*
%TO.C,J105*%
X17830800Y-33324800D03*
D21*
X17830800Y-35864800D03*
X17830800Y-38404800D03*
%TD*%
D22*
%TO.C,J101*%
X245327500Y-35273200D03*
X230327500Y-35273200D03*
D23*
X230327500Y-40273200D03*
D24*
X232827500Y-42773200D03*
X237827500Y-40273200D03*
X242827500Y-42773200D03*
X245327500Y-40273200D03*
X237827500Y-45273200D03*
D25*
X242747500Y-30320200D03*
X240327500Y-30273200D03*
X237827500Y-30320200D03*
X235327500Y-30273200D03*
X232747500Y-30320200D03*
%TD*%
D10*
%TO.C,IC141*%
X23140000Y-86340000D03*
D11*
X25680000Y-86340000D03*
X28220000Y-86340000D03*
X30760000Y-86340000D03*
X33300000Y-86340000D03*
X35840000Y-86340000D03*
X38380000Y-86340000D03*
X40920000Y-86340000D03*
X43460000Y-86340000D03*
X46000000Y-86340000D03*
X48540000Y-86340000D03*
X51080000Y-86340000D03*
X53620000Y-86340000D03*
X56160000Y-86340000D03*
X58700000Y-86340000D03*
X61240000Y-86340000D03*
X63780000Y-86340000D03*
X66320000Y-86340000D03*
X68860000Y-86340000D03*
X71400000Y-86340000D03*
X71400000Y-71100000D03*
X68860000Y-71100000D03*
X66320000Y-71100000D03*
X63780000Y-71100000D03*
X61240000Y-71100000D03*
X58700000Y-71100000D03*
X56160000Y-71100000D03*
X53620000Y-71100000D03*
X51080000Y-71100000D03*
X48540000Y-71100000D03*
X46000000Y-71100000D03*
X43460000Y-71100000D03*
X40920000Y-71100000D03*
X38380000Y-71100000D03*
X35840000Y-71100000D03*
X33300000Y-71100000D03*
X30760000Y-71100000D03*
X28220000Y-71100000D03*
X25680000Y-71100000D03*
X23140000Y-71100000D03*
%TD*%
D10*
%TO.C,SW1250*%
X66550000Y-37425000D03*
D11*
X69090000Y-37425000D03*
X71630000Y-37425000D03*
X74170000Y-37425000D03*
X74170000Y-29805000D03*
X71630000Y-29805000D03*
X69090000Y-29805000D03*
X66550000Y-29805000D03*
%TD*%
D26*
%TO.C,X101*%
X209870000Y-34190000D03*
X214750000Y-34190000D03*
%TD*%
D27*
%TO.C,PL1*%
X89159000Y-33660000D03*
D28*
X89159000Y-31120000D03*
X91699000Y-33660000D03*
X91699000Y-31120000D03*
X94239000Y-33660000D03*
X94239000Y-31120000D03*
X96779000Y-33660000D03*
X96779000Y-31120000D03*
X99319000Y-33660000D03*
X99319000Y-31120000D03*
X101859000Y-33660000D03*
X101859000Y-31120000D03*
X104399000Y-33660000D03*
X104399000Y-31120000D03*
X106939000Y-33660000D03*
X106939000Y-31120000D03*
X109479000Y-33660000D03*
X109479000Y-31120000D03*
X112019000Y-33660000D03*
X112019000Y-31120000D03*
X114559000Y-33660000D03*
X114559000Y-31120000D03*
X117099000Y-33660000D03*
X117099000Y-31120000D03*
X119639000Y-33660000D03*
X119639000Y-31120000D03*
X122179000Y-33660000D03*
X122179000Y-31120000D03*
X124719000Y-33660000D03*
X124719000Y-31120000D03*
X127259000Y-33660000D03*
X127259000Y-31120000D03*
X129799000Y-33660000D03*
X129799000Y-31120000D03*
X132339000Y-33660000D03*
X132339000Y-31120000D03*
X134879000Y-33660000D03*
X134879000Y-31120000D03*
X137419000Y-33660000D03*
X137419000Y-31120000D03*
X139959000Y-33660000D03*
X139959000Y-31120000D03*
X142499000Y-33660000D03*
X142499000Y-31120000D03*
X145039000Y-33660000D03*
X145039000Y-31120000D03*
X147579000Y-33660000D03*
X147579000Y-31120000D03*
X150119000Y-33660000D03*
X150119000Y-31120000D03*
%TD*%
D20*
%TO.C,J340*%
X235675000Y-107350000D03*
D21*
X238215000Y-107350000D03*
%TD*%
D12*
%TO.C,H3*%
X18034000Y-107797600D03*
%TD*%
D10*
%TO.C,IC704*%
X209355000Y-73502000D03*
D11*
X211895000Y-73502000D03*
X214435000Y-73502000D03*
X216975000Y-73502000D03*
X219515000Y-73502000D03*
X222055000Y-73502000D03*
X224595000Y-73502000D03*
X227135000Y-73502000D03*
X227135000Y-65882000D03*
X224595000Y-65882000D03*
X222055000Y-65882000D03*
X219515000Y-65882000D03*
X216975000Y-65882000D03*
X214435000Y-65882000D03*
X211895000Y-65882000D03*
X209355000Y-65882000D03*
%TD*%
D20*
%TO.C,CP2*%
X17830800Y-43484800D03*
D21*
X17830800Y-46024800D03*
X17830800Y-48564800D03*
X17830800Y-51104800D03*
X17830800Y-53644800D03*
X17830800Y-56184800D03*
X17830800Y-58724800D03*
X17830800Y-61264800D03*
X17830800Y-63804800D03*
X17830800Y-66344800D03*
X17830800Y-68884800D03*
X17830800Y-71424800D03*
X17830800Y-73964800D03*
X17830800Y-76504800D03*
X17830800Y-79044800D03*
X17830800Y-81584800D03*
X17830800Y-84124800D03*
X17830800Y-86664800D03*
X17830800Y-89204800D03*
X17830800Y-91744800D03*
%TD*%
D20*
%TO.C,CP3*%
X63680000Y-48650000D03*
D21*
X66220000Y-48650000D03*
X68760000Y-48650000D03*
X71300000Y-48650000D03*
X73840000Y-48650000D03*
%TD*%
D10*
%TO.C,IC702*%
X209355000Y-93568000D03*
D11*
X211895000Y-93568000D03*
X214435000Y-93568000D03*
X216975000Y-93568000D03*
X219515000Y-93568000D03*
X222055000Y-93568000D03*
X224595000Y-93568000D03*
X227135000Y-93568000D03*
X227135000Y-85948000D03*
X224595000Y-85948000D03*
X222055000Y-85948000D03*
X219515000Y-85948000D03*
X216975000Y-85948000D03*
X214435000Y-85948000D03*
X211895000Y-85948000D03*
X209355000Y-85948000D03*
%TD*%
D10*
%TO.C,NR1*%
X38075000Y-96025000D03*
D11*
X35535000Y-96025000D03*
X32995000Y-96025000D03*
X30455000Y-96025000D03*
X27915000Y-96025000D03*
X25375000Y-96025000D03*
X22835000Y-96025000D03*
X20295000Y-96025000D03*
X17755000Y-96025000D03*
%TD*%
D12*
%TO.C,H9*%
X35788600Y-43840400D03*
%TD*%
%TO.C,H6*%
X62788800Y-90474800D03*
%TD*%
D10*
%TO.C,IC706*%
X232890000Y-78974000D03*
D11*
X235430000Y-78974000D03*
X237970000Y-78974000D03*
X240510000Y-78974000D03*
X243050000Y-78974000D03*
X245590000Y-78974000D03*
X248130000Y-78974000D03*
X250670000Y-78974000D03*
X250670000Y-71354000D03*
X248130000Y-71354000D03*
X245590000Y-71354000D03*
X243050000Y-71354000D03*
X240510000Y-71354000D03*
X237970000Y-71354000D03*
X235430000Y-71354000D03*
X232890000Y-71354000D03*
%TD*%
D10*
%TO.C,IC122*%
X186965000Y-83525000D03*
D11*
X189505000Y-83525000D03*
X192045000Y-83525000D03*
X194585000Y-83525000D03*
X197125000Y-83525000D03*
X199665000Y-83525000D03*
X202205000Y-83525000D03*
X204745000Y-83525000D03*
X204745000Y-75905000D03*
X202205000Y-75905000D03*
X199665000Y-75905000D03*
X197125000Y-75905000D03*
X194585000Y-75905000D03*
X192045000Y-75905000D03*
X189505000Y-75905000D03*
X186965000Y-75905000D03*
%TD*%
D10*
%TO.C,IC120*%
X164566200Y-103591000D03*
D11*
X167106200Y-103591000D03*
X169646200Y-103591000D03*
X172186200Y-103591000D03*
X174726200Y-103591000D03*
X177266200Y-103591000D03*
X179806200Y-103591000D03*
X182346200Y-103591000D03*
X182346200Y-95971000D03*
X179806200Y-95971000D03*
X177266200Y-95971000D03*
X174726200Y-95971000D03*
X172186200Y-95971000D03*
X169646200Y-95971000D03*
X167106200Y-95971000D03*
X164566200Y-95971000D03*
%TD*%
D10*
%TO.C,C101*%
X253363200Y-47973200D03*
D16*
X255863200Y-47973200D03*
%TD*%
D20*
%TO.C,J601*%
X195290000Y-34300000D03*
D21*
X195290000Y-36840000D03*
X195290000Y-39380000D03*
X195290000Y-41920000D03*
X195290000Y-44460000D03*
X195290000Y-47000000D03*
X195290000Y-49540000D03*
%TD*%
D10*
%TO.C,IC707*%
X232890000Y-89017000D03*
D11*
X235430000Y-89017000D03*
X237970000Y-89017000D03*
X240510000Y-89017000D03*
X243050000Y-89017000D03*
X245590000Y-89017000D03*
X248130000Y-89017000D03*
X250670000Y-89017000D03*
X250670000Y-81397000D03*
X248130000Y-81397000D03*
X245590000Y-81397000D03*
X243050000Y-81397000D03*
X240510000Y-81397000D03*
X237970000Y-81397000D03*
X235430000Y-81397000D03*
X232890000Y-81397000D03*
%TD*%
D12*
%TO.C,H1*%
X79756000Y-31750000D03*
%TD*%
D10*
%TO.C,IC705*%
X232890000Y-68951000D03*
D11*
X235430000Y-68951000D03*
X237970000Y-68951000D03*
X240510000Y-68951000D03*
X243050000Y-68951000D03*
X245590000Y-68951000D03*
X248130000Y-68951000D03*
X250670000Y-68951000D03*
X250670000Y-61331000D03*
X248130000Y-61331000D03*
X245590000Y-61331000D03*
X243050000Y-61331000D03*
X240510000Y-61331000D03*
X237970000Y-61331000D03*
X235430000Y-61331000D03*
X232890000Y-61331000D03*
%TD*%
D10*
%TO.C,IC123*%
X186965000Y-93568000D03*
D11*
X189505000Y-93568000D03*
X192045000Y-93568000D03*
X194585000Y-93568000D03*
X197125000Y-93568000D03*
X199665000Y-93568000D03*
X202205000Y-93568000D03*
X204745000Y-93568000D03*
X204745000Y-85948000D03*
X202205000Y-85948000D03*
X199665000Y-85948000D03*
X197125000Y-85948000D03*
X194585000Y-85948000D03*
X192045000Y-85948000D03*
X189505000Y-85948000D03*
X186965000Y-85948000D03*
%TD*%
D13*
%TO.C,LK5*%
X150530000Y-70525000D03*
D14*
X150530000Y-71525000D03*
%TD*%
D29*
%TO.C,IC1250*%
X51850000Y-34570000D03*
D30*
X49310000Y-32030000D03*
X49310000Y-34570000D03*
X46770000Y-32030000D03*
X44230000Y-34570000D03*
X46770000Y-34570000D03*
X44230000Y-37110000D03*
X46770000Y-37110000D03*
X44230000Y-39650000D03*
X46770000Y-39650000D03*
X44230000Y-42190000D03*
X46770000Y-42190000D03*
X44230000Y-44730000D03*
X46770000Y-47270000D03*
X46770000Y-44730000D03*
X49310000Y-47270000D03*
X49310000Y-44730000D03*
X51850000Y-47270000D03*
X51850000Y-44730000D03*
X54390000Y-47270000D03*
X56930000Y-44730000D03*
X54390000Y-44730000D03*
X56930000Y-42190000D03*
X54390000Y-42190000D03*
X56930000Y-39650000D03*
X54390000Y-39650000D03*
X56930000Y-37110000D03*
X54390000Y-37110000D03*
X56930000Y-34570000D03*
X54390000Y-32030000D03*
X54390000Y-34570000D03*
X51850000Y-32030000D03*
%TD*%
D12*
%TO.C,H7*%
X123190000Y-82550000D03*
%TD*%
D10*
%TO.C,IC107*%
X23140000Y-68860000D03*
D11*
X25680000Y-68860000D03*
X28220000Y-68860000D03*
X30760000Y-68860000D03*
X33300000Y-68860000D03*
X35840000Y-68860000D03*
X38380000Y-68860000D03*
X40920000Y-68860000D03*
X43460000Y-68860000D03*
X46000000Y-68860000D03*
X48540000Y-68860000D03*
X51080000Y-68860000D03*
X53620000Y-68860000D03*
X56160000Y-68860000D03*
X58700000Y-68860000D03*
X61240000Y-68860000D03*
X63780000Y-68860000D03*
X66320000Y-68860000D03*
X68860000Y-68860000D03*
X71400000Y-68860000D03*
X71400000Y-53620000D03*
X68860000Y-53620000D03*
X66320000Y-53620000D03*
X63780000Y-53620000D03*
X61240000Y-53620000D03*
X58700000Y-53620000D03*
X56160000Y-53620000D03*
X53620000Y-53620000D03*
X51080000Y-53620000D03*
X48540000Y-53620000D03*
X46000000Y-53620000D03*
X43460000Y-53620000D03*
X40920000Y-53620000D03*
X38380000Y-53620000D03*
X35840000Y-53620000D03*
X33300000Y-53620000D03*
X30760000Y-53620000D03*
X28220000Y-53620000D03*
X25680000Y-53620000D03*
X23140000Y-53620000D03*
%TD*%
D10*
%TO.C,IC108*%
X79100000Y-78700000D03*
D11*
X81640000Y-78700000D03*
X84180000Y-78700000D03*
X86720000Y-78700000D03*
X89260000Y-78700000D03*
X91800000Y-78700000D03*
X94340000Y-78700000D03*
X96880000Y-78700000D03*
X99420000Y-78700000D03*
X101960000Y-78700000D03*
X104500000Y-78700000D03*
X107040000Y-78700000D03*
X109580000Y-78700000D03*
X112120000Y-78700000D03*
X114660000Y-78700000D03*
X117200000Y-78700000D03*
X119740000Y-78700000D03*
X122280000Y-78700000D03*
X124820000Y-78700000D03*
X127360000Y-78700000D03*
X127360000Y-63460000D03*
X124820000Y-63460000D03*
X122280000Y-63460000D03*
X119740000Y-63460000D03*
X117200000Y-63460000D03*
X114660000Y-63460000D03*
X112120000Y-63460000D03*
X109580000Y-63460000D03*
X107040000Y-63460000D03*
X104500000Y-63460000D03*
X101960000Y-63460000D03*
X99420000Y-63460000D03*
X96880000Y-63460000D03*
X94340000Y-63460000D03*
X91800000Y-63460000D03*
X89260000Y-63460000D03*
X86720000Y-63460000D03*
X84180000Y-63460000D03*
X81640000Y-63460000D03*
X79100000Y-63460000D03*
%TD*%
D10*
%TO.C,IC124*%
X186965000Y-103591000D03*
D11*
X189505000Y-103591000D03*
X192045000Y-103591000D03*
X194585000Y-103591000D03*
X197125000Y-103591000D03*
X199665000Y-103591000D03*
X202205000Y-103591000D03*
X204745000Y-103591000D03*
X204745000Y-95971000D03*
X202205000Y-95971000D03*
X199665000Y-95971000D03*
X197125000Y-95971000D03*
X194585000Y-95971000D03*
X192045000Y-95971000D03*
X189505000Y-95971000D03*
X186965000Y-95971000D03*
%TD*%
D31*
%TO.C,J104*%
X255398800Y-41400200D03*
D32*
X255398800Y-35400200D03*
D33*
X250698800Y-38400200D03*
%TD*%
D34*
%TO.C,R187*%
X64685000Y-63537500D03*
X64685000Y-61712500D03*
%TD*%
%TO.C,R186*%
X62745000Y-63537500D03*
X62745000Y-61712500D03*
%TD*%
%TO.C,R185*%
X60815000Y-63537500D03*
X60815000Y-61712500D03*
%TD*%
%TO.C,R188*%
X66625000Y-63537500D03*
X66625000Y-61712500D03*
%TD*%
M02*
