%TF.GenerationSoftware,KiCad,Pcbnew,7.0.7*%
%TF.CreationDate,2023-10-19T16:40:54+01:00*%
%TF.ProjectId,CPC464-2MINI,43504334-3634-42d3-924d-494e492e6b69,rev?*%
%TF.SameCoordinates,Original*%
%TF.FileFunction,Legend,Bot*%
%TF.FilePolarity,Positive*%
%FSLAX46Y46*%
G04 Gerber Fmt 4.6, Leading zero omitted, Abs format (unit mm)*
G04 Created by KiCad (PCBNEW 7.0.7) date 2023-10-19 16:40:54*
%MOMM*%
%LPD*%
G01*
G04 APERTURE LIST*
%ADD10C,0.150000*%
%ADD11C,0.300000*%
%ADD12C,0.120000*%
G04 APERTURE END LIST*
D10*
X73685600Y-110579819D02*
X73114172Y-110579819D01*
X73399886Y-111579819D02*
X73399886Y-110579819D01*
X72780838Y-111579819D02*
X72780838Y-110579819D01*
X72352267Y-111579819D02*
X72352267Y-111056009D01*
X72352267Y-111056009D02*
X72399886Y-110960771D01*
X72399886Y-110960771D02*
X72495124Y-110913152D01*
X72495124Y-110913152D02*
X72637981Y-110913152D01*
X72637981Y-110913152D02*
X72733219Y-110960771D01*
X72733219Y-110960771D02*
X72780838Y-111008390D01*
X71447505Y-111579819D02*
X71447505Y-111056009D01*
X71447505Y-111056009D02*
X71495124Y-110960771D01*
X71495124Y-110960771D02*
X71590362Y-110913152D01*
X71590362Y-110913152D02*
X71780838Y-110913152D01*
X71780838Y-110913152D02*
X71876076Y-110960771D01*
X71447505Y-111532200D02*
X71542743Y-111579819D01*
X71542743Y-111579819D02*
X71780838Y-111579819D01*
X71780838Y-111579819D02*
X71876076Y-111532200D01*
X71876076Y-111532200D02*
X71923695Y-111436961D01*
X71923695Y-111436961D02*
X71923695Y-111341723D01*
X71923695Y-111341723D02*
X71876076Y-111246485D01*
X71876076Y-111246485D02*
X71780838Y-111198866D01*
X71780838Y-111198866D02*
X71542743Y-111198866D01*
X71542743Y-111198866D02*
X71447505Y-111151247D01*
X70971314Y-110913152D02*
X70971314Y-111579819D01*
X70971314Y-111008390D02*
X70923695Y-110960771D01*
X70923695Y-110960771D02*
X70828457Y-110913152D01*
X70828457Y-110913152D02*
X70685600Y-110913152D01*
X70685600Y-110913152D02*
X70590362Y-110960771D01*
X70590362Y-110960771D02*
X70542743Y-111056009D01*
X70542743Y-111056009D02*
X70542743Y-111579819D01*
X70066552Y-111579819D02*
X70066552Y-110579819D01*
X69971314Y-111198866D02*
X69685600Y-111579819D01*
X69685600Y-110913152D02*
X70066552Y-111294104D01*
X69304647Y-111532200D02*
X69209409Y-111579819D01*
X69209409Y-111579819D02*
X69018933Y-111579819D01*
X69018933Y-111579819D02*
X68923695Y-111532200D01*
X68923695Y-111532200D02*
X68876076Y-111436961D01*
X68876076Y-111436961D02*
X68876076Y-111389342D01*
X68876076Y-111389342D02*
X68923695Y-111294104D01*
X68923695Y-111294104D02*
X69018933Y-111246485D01*
X69018933Y-111246485D02*
X69161790Y-111246485D01*
X69161790Y-111246485D02*
X69257028Y-111198866D01*
X69257028Y-111198866D02*
X69304647Y-111103628D01*
X69304647Y-111103628D02*
X69304647Y-111056009D01*
X69304647Y-111056009D02*
X69257028Y-110960771D01*
X69257028Y-110960771D02*
X69161790Y-110913152D01*
X69161790Y-110913152D02*
X69018933Y-110913152D01*
X69018933Y-110913152D02*
X68923695Y-110960771D01*
X67828456Y-110913152D02*
X67447504Y-110913152D01*
X67685599Y-110579819D02*
X67685599Y-111436961D01*
X67685599Y-111436961D02*
X67637980Y-111532200D01*
X67637980Y-111532200D02*
X67542742Y-111579819D01*
X67542742Y-111579819D02*
X67447504Y-111579819D01*
X66971313Y-111579819D02*
X67066551Y-111532200D01*
X67066551Y-111532200D02*
X67114170Y-111484580D01*
X67114170Y-111484580D02*
X67161789Y-111389342D01*
X67161789Y-111389342D02*
X67161789Y-111103628D01*
X67161789Y-111103628D02*
X67114170Y-111008390D01*
X67114170Y-111008390D02*
X67066551Y-110960771D01*
X67066551Y-110960771D02*
X66971313Y-110913152D01*
X66971313Y-110913152D02*
X66828456Y-110913152D01*
X66828456Y-110913152D02*
X66733218Y-110960771D01*
X66733218Y-110960771D02*
X66685599Y-111008390D01*
X66685599Y-111008390D02*
X66637980Y-111103628D01*
X66637980Y-111103628D02*
X66637980Y-111389342D01*
X66637980Y-111389342D02*
X66685599Y-111484580D01*
X66685599Y-111484580D02*
X66733218Y-111532200D01*
X66733218Y-111532200D02*
X66828456Y-111579819D01*
X66828456Y-111579819D02*
X66971313Y-111579819D01*
X64876075Y-111579819D02*
X65209408Y-111103628D01*
X65447503Y-111579819D02*
X65447503Y-110579819D01*
X65447503Y-110579819D02*
X65066551Y-110579819D01*
X65066551Y-110579819D02*
X64971313Y-110627438D01*
X64971313Y-110627438D02*
X64923694Y-110675057D01*
X64923694Y-110675057D02*
X64876075Y-110770295D01*
X64876075Y-110770295D02*
X64876075Y-110913152D01*
X64876075Y-110913152D02*
X64923694Y-111008390D01*
X64923694Y-111008390D02*
X64971313Y-111056009D01*
X64971313Y-111056009D02*
X65066551Y-111103628D01*
X65066551Y-111103628D02*
X65447503Y-111103628D01*
X64304646Y-111579819D02*
X64399884Y-111532200D01*
X64399884Y-111532200D02*
X64447503Y-111484580D01*
X64447503Y-111484580D02*
X64495122Y-111389342D01*
X64495122Y-111389342D02*
X64495122Y-111103628D01*
X64495122Y-111103628D02*
X64447503Y-111008390D01*
X64447503Y-111008390D02*
X64399884Y-110960771D01*
X64399884Y-110960771D02*
X64304646Y-110913152D01*
X64304646Y-110913152D02*
X64161789Y-110913152D01*
X64161789Y-110913152D02*
X64066551Y-110960771D01*
X64066551Y-110960771D02*
X64018932Y-111008390D01*
X64018932Y-111008390D02*
X63971313Y-111103628D01*
X63971313Y-111103628D02*
X63971313Y-111389342D01*
X63971313Y-111389342D02*
X64018932Y-111484580D01*
X64018932Y-111484580D02*
X64066551Y-111532200D01*
X64066551Y-111532200D02*
X64161789Y-111579819D01*
X64161789Y-111579819D02*
X64304646Y-111579819D01*
X63542741Y-111579819D02*
X63542741Y-110579819D01*
X63542741Y-110960771D02*
X63447503Y-110913152D01*
X63447503Y-110913152D02*
X63257027Y-110913152D01*
X63257027Y-110913152D02*
X63161789Y-110960771D01*
X63161789Y-110960771D02*
X63114170Y-111008390D01*
X63114170Y-111008390D02*
X63066551Y-111103628D01*
X63066551Y-111103628D02*
X63066551Y-111389342D01*
X63066551Y-111389342D02*
X63114170Y-111484580D01*
X63114170Y-111484580D02*
X63161789Y-111532200D01*
X63161789Y-111532200D02*
X63257027Y-111579819D01*
X63257027Y-111579819D02*
X63447503Y-111579819D01*
X63447503Y-111579819D02*
X63542741Y-111532200D01*
X61923693Y-110579819D02*
X61923693Y-110770295D01*
X61542741Y-110579819D02*
X61542741Y-110770295D01*
X61114169Y-111579819D02*
X61114169Y-110579819D01*
X61114169Y-110579819D02*
X60733217Y-110579819D01*
X60733217Y-110579819D02*
X60637979Y-110627438D01*
X60637979Y-110627438D02*
X60590360Y-110675057D01*
X60590360Y-110675057D02*
X60542741Y-110770295D01*
X60542741Y-110770295D02*
X60542741Y-110913152D01*
X60542741Y-110913152D02*
X60590360Y-111008390D01*
X60590360Y-111008390D02*
X60637979Y-111056009D01*
X60637979Y-111056009D02*
X60733217Y-111103628D01*
X60733217Y-111103628D02*
X61114169Y-111103628D01*
X59733217Y-111532200D02*
X59828455Y-111579819D01*
X59828455Y-111579819D02*
X60018931Y-111579819D01*
X60018931Y-111579819D02*
X60114169Y-111532200D01*
X60114169Y-111532200D02*
X60161788Y-111436961D01*
X60161788Y-111436961D02*
X60161788Y-111056009D01*
X60161788Y-111056009D02*
X60114169Y-110960771D01*
X60114169Y-110960771D02*
X60018931Y-110913152D01*
X60018931Y-110913152D02*
X59828455Y-110913152D01*
X59828455Y-110913152D02*
X59733217Y-110960771D01*
X59733217Y-110960771D02*
X59685598Y-111056009D01*
X59685598Y-111056009D02*
X59685598Y-111151247D01*
X59685598Y-111151247D02*
X60161788Y-111246485D01*
X58876074Y-111532200D02*
X58971312Y-111579819D01*
X58971312Y-111579819D02*
X59161788Y-111579819D01*
X59161788Y-111579819D02*
X59257026Y-111532200D01*
X59257026Y-111532200D02*
X59304645Y-111436961D01*
X59304645Y-111436961D02*
X59304645Y-111056009D01*
X59304645Y-111056009D02*
X59257026Y-110960771D01*
X59257026Y-110960771D02*
X59161788Y-110913152D01*
X59161788Y-110913152D02*
X58971312Y-110913152D01*
X58971312Y-110913152D02*
X58876074Y-110960771D01*
X58876074Y-110960771D02*
X58828455Y-111056009D01*
X58828455Y-111056009D02*
X58828455Y-111151247D01*
X58828455Y-111151247D02*
X59304645Y-111246485D01*
X58399883Y-110913152D02*
X58399883Y-111913152D01*
X58399883Y-110960771D02*
X58304645Y-110913152D01*
X58304645Y-110913152D02*
X58114169Y-110913152D01*
X58114169Y-110913152D02*
X58018931Y-110960771D01*
X58018931Y-110960771D02*
X57971312Y-111008390D01*
X57971312Y-111008390D02*
X57923693Y-111103628D01*
X57923693Y-111103628D02*
X57923693Y-111389342D01*
X57923693Y-111389342D02*
X57971312Y-111484580D01*
X57971312Y-111484580D02*
X58018931Y-111532200D01*
X58018931Y-111532200D02*
X58114169Y-111579819D01*
X58114169Y-111579819D02*
X58304645Y-111579819D01*
X58304645Y-111579819D02*
X58399883Y-111532200D01*
X57352264Y-111579819D02*
X57447502Y-111532200D01*
X57447502Y-111532200D02*
X57495121Y-111484580D01*
X57495121Y-111484580D02*
X57542740Y-111389342D01*
X57542740Y-111389342D02*
X57542740Y-111103628D01*
X57542740Y-111103628D02*
X57495121Y-111008390D01*
X57495121Y-111008390D02*
X57447502Y-110960771D01*
X57447502Y-110960771D02*
X57352264Y-110913152D01*
X57352264Y-110913152D02*
X57209407Y-110913152D01*
X57209407Y-110913152D02*
X57114169Y-110960771D01*
X57114169Y-110960771D02*
X57066550Y-111008390D01*
X57066550Y-111008390D02*
X57018931Y-111103628D01*
X57018931Y-111103628D02*
X57018931Y-111389342D01*
X57018931Y-111389342D02*
X57066550Y-111484580D01*
X57066550Y-111484580D02*
X57114169Y-111532200D01*
X57114169Y-111532200D02*
X57209407Y-111579819D01*
X57209407Y-111579819D02*
X57352264Y-111579819D01*
X56637978Y-110579819D02*
X56637978Y-110770295D01*
X56257026Y-110579819D02*
X56257026Y-110770295D01*
X55209406Y-110579819D02*
X54637978Y-110579819D01*
X54923692Y-111579819D02*
X54923692Y-110579819D01*
X53876073Y-111579819D02*
X53876073Y-111056009D01*
X53876073Y-111056009D02*
X53923692Y-110960771D01*
X53923692Y-110960771D02*
X54018930Y-110913152D01*
X54018930Y-110913152D02*
X54209406Y-110913152D01*
X54209406Y-110913152D02*
X54304644Y-110960771D01*
X53876073Y-111532200D02*
X53971311Y-111579819D01*
X53971311Y-111579819D02*
X54209406Y-111579819D01*
X54209406Y-111579819D02*
X54304644Y-111532200D01*
X54304644Y-111532200D02*
X54352263Y-111436961D01*
X54352263Y-111436961D02*
X54352263Y-111341723D01*
X54352263Y-111341723D02*
X54304644Y-111246485D01*
X54304644Y-111246485D02*
X54209406Y-111198866D01*
X54209406Y-111198866D02*
X53971311Y-111198866D01*
X53971311Y-111198866D02*
X53876073Y-111151247D01*
X53495120Y-110913152D02*
X53257025Y-111579819D01*
X53018930Y-110913152D02*
X53257025Y-111579819D01*
X53257025Y-111579819D02*
X53352263Y-111817914D01*
X53352263Y-111817914D02*
X53399882Y-111865533D01*
X53399882Y-111865533D02*
X53495120Y-111913152D01*
X52495120Y-111579819D02*
X52590358Y-111532200D01*
X52590358Y-111532200D02*
X52637977Y-111436961D01*
X52637977Y-111436961D02*
X52637977Y-110579819D01*
X51971310Y-111579819D02*
X52066548Y-111532200D01*
X52066548Y-111532200D02*
X52114167Y-111484580D01*
X52114167Y-111484580D02*
X52161786Y-111389342D01*
X52161786Y-111389342D02*
X52161786Y-111103628D01*
X52161786Y-111103628D02*
X52114167Y-111008390D01*
X52114167Y-111008390D02*
X52066548Y-110960771D01*
X52066548Y-110960771D02*
X51971310Y-110913152D01*
X51971310Y-110913152D02*
X51828453Y-110913152D01*
X51828453Y-110913152D02*
X51733215Y-110960771D01*
X51733215Y-110960771D02*
X51685596Y-111008390D01*
X51685596Y-111008390D02*
X51637977Y-111103628D01*
X51637977Y-111103628D02*
X51637977Y-111389342D01*
X51637977Y-111389342D02*
X51685596Y-111484580D01*
X51685596Y-111484580D02*
X51733215Y-111532200D01*
X51733215Y-111532200D02*
X51828453Y-111579819D01*
X51828453Y-111579819D02*
X51971310Y-111579819D01*
X51209405Y-111579819D02*
X51209405Y-110913152D01*
X51209405Y-111103628D02*
X51161786Y-111008390D01*
X51161786Y-111008390D02*
X51114167Y-110960771D01*
X51114167Y-110960771D02*
X51018929Y-110913152D01*
X51018929Y-110913152D02*
X50923691Y-110913152D01*
X50542738Y-111532200D02*
X50542738Y-111579819D01*
X50542738Y-111579819D02*
X50590357Y-111675057D01*
X50590357Y-111675057D02*
X50637976Y-111722676D01*
X48780834Y-111484580D02*
X48828453Y-111532200D01*
X48828453Y-111532200D02*
X48971310Y-111579819D01*
X48971310Y-111579819D02*
X49066548Y-111579819D01*
X49066548Y-111579819D02*
X49209405Y-111532200D01*
X49209405Y-111532200D02*
X49304643Y-111436961D01*
X49304643Y-111436961D02*
X49352262Y-111341723D01*
X49352262Y-111341723D02*
X49399881Y-111151247D01*
X49399881Y-111151247D02*
X49399881Y-111008390D01*
X49399881Y-111008390D02*
X49352262Y-110817914D01*
X49352262Y-110817914D02*
X49304643Y-110722676D01*
X49304643Y-110722676D02*
X49209405Y-110627438D01*
X49209405Y-110627438D02*
X49066548Y-110579819D01*
X49066548Y-110579819D02*
X48971310Y-110579819D01*
X48971310Y-110579819D02*
X48828453Y-110627438D01*
X48828453Y-110627438D02*
X48780834Y-110675057D01*
X48352262Y-111579819D02*
X48352262Y-110579819D01*
X47923691Y-111579819D02*
X47923691Y-111056009D01*
X47923691Y-111056009D02*
X47971310Y-110960771D01*
X47971310Y-110960771D02*
X48066548Y-110913152D01*
X48066548Y-110913152D02*
X48209405Y-110913152D01*
X48209405Y-110913152D02*
X48304643Y-110960771D01*
X48304643Y-110960771D02*
X48352262Y-111008390D01*
X47447500Y-111579819D02*
X47447500Y-110913152D01*
X47447500Y-111103628D02*
X47399881Y-111008390D01*
X47399881Y-111008390D02*
X47352262Y-110960771D01*
X47352262Y-110960771D02*
X47257024Y-110913152D01*
X47257024Y-110913152D02*
X47161786Y-110913152D01*
X46828452Y-111579819D02*
X46828452Y-110913152D01*
X46828452Y-110579819D02*
X46876071Y-110627438D01*
X46876071Y-110627438D02*
X46828452Y-110675057D01*
X46828452Y-110675057D02*
X46780833Y-110627438D01*
X46780833Y-110627438D02*
X46828452Y-110579819D01*
X46828452Y-110579819D02*
X46828452Y-110675057D01*
X46399881Y-111532200D02*
X46304643Y-111579819D01*
X46304643Y-111579819D02*
X46114167Y-111579819D01*
X46114167Y-111579819D02*
X46018929Y-111532200D01*
X46018929Y-111532200D02*
X45971310Y-111436961D01*
X45971310Y-111436961D02*
X45971310Y-111389342D01*
X45971310Y-111389342D02*
X46018929Y-111294104D01*
X46018929Y-111294104D02*
X46114167Y-111246485D01*
X46114167Y-111246485D02*
X46257024Y-111246485D01*
X46257024Y-111246485D02*
X46352262Y-111198866D01*
X46352262Y-111198866D02*
X46399881Y-111103628D01*
X46399881Y-111103628D02*
X46399881Y-111056009D01*
X46399881Y-111056009D02*
X46352262Y-110960771D01*
X46352262Y-110960771D02*
X46257024Y-110913152D01*
X46257024Y-110913152D02*
X46114167Y-110913152D01*
X46114167Y-110913152D02*
X46018929Y-110960771D01*
X45590357Y-111532200D02*
X45495119Y-111579819D01*
X45495119Y-111579819D02*
X45304643Y-111579819D01*
X45304643Y-111579819D02*
X45209405Y-111532200D01*
X45209405Y-111532200D02*
X45161786Y-111436961D01*
X45161786Y-111436961D02*
X45161786Y-111389342D01*
X45161786Y-111389342D02*
X45209405Y-111294104D01*
X45209405Y-111294104D02*
X45304643Y-111246485D01*
X45304643Y-111246485D02*
X45447500Y-111246485D01*
X45447500Y-111246485D02*
X45542738Y-111198866D01*
X45542738Y-111198866D02*
X45590357Y-111103628D01*
X45590357Y-111103628D02*
X45590357Y-111056009D01*
X45590357Y-111056009D02*
X45542738Y-110960771D01*
X45542738Y-110960771D02*
X45447500Y-110913152D01*
X45447500Y-110913152D02*
X45304643Y-110913152D01*
X45304643Y-110913152D02*
X45209405Y-110960771D01*
X44828452Y-110913152D02*
X44590357Y-111579819D01*
X44352262Y-110913152D02*
X44590357Y-111579819D01*
X44590357Y-111579819D02*
X44685595Y-111817914D01*
X44685595Y-111817914D02*
X44733214Y-111865533D01*
X44733214Y-111865533D02*
X44828452Y-111913152D01*
X42780833Y-111579819D02*
X42780833Y-111056009D01*
X42780833Y-111056009D02*
X42828452Y-110960771D01*
X42828452Y-110960771D02*
X42923690Y-110913152D01*
X42923690Y-110913152D02*
X43114166Y-110913152D01*
X43114166Y-110913152D02*
X43209404Y-110960771D01*
X42780833Y-111532200D02*
X42876071Y-111579819D01*
X42876071Y-111579819D02*
X43114166Y-111579819D01*
X43114166Y-111579819D02*
X43209404Y-111532200D01*
X43209404Y-111532200D02*
X43257023Y-111436961D01*
X43257023Y-111436961D02*
X43257023Y-111341723D01*
X43257023Y-111341723D02*
X43209404Y-111246485D01*
X43209404Y-111246485D02*
X43114166Y-111198866D01*
X43114166Y-111198866D02*
X42876071Y-111198866D01*
X42876071Y-111198866D02*
X42780833Y-111151247D01*
X42304642Y-110913152D02*
X42304642Y-111579819D01*
X42304642Y-111008390D02*
X42257023Y-110960771D01*
X42257023Y-110960771D02*
X42161785Y-110913152D01*
X42161785Y-110913152D02*
X42018928Y-110913152D01*
X42018928Y-110913152D02*
X41923690Y-110960771D01*
X41923690Y-110960771D02*
X41876071Y-111056009D01*
X41876071Y-111056009D02*
X41876071Y-111579819D01*
X40971309Y-111579819D02*
X40971309Y-110579819D01*
X40971309Y-111532200D02*
X41066547Y-111579819D01*
X41066547Y-111579819D02*
X41257023Y-111579819D01*
X41257023Y-111579819D02*
X41352261Y-111532200D01*
X41352261Y-111532200D02*
X41399880Y-111484580D01*
X41399880Y-111484580D02*
X41447499Y-111389342D01*
X41447499Y-111389342D02*
X41447499Y-111103628D01*
X41447499Y-111103628D02*
X41399880Y-111008390D01*
X41399880Y-111008390D02*
X41352261Y-110960771D01*
X41352261Y-110960771D02*
X41257023Y-110913152D01*
X41257023Y-110913152D02*
X41066547Y-110913152D01*
X41066547Y-110913152D02*
X40971309Y-110960771D01*
X39876070Y-110913152D02*
X39495118Y-110913152D01*
X39733213Y-110579819D02*
X39733213Y-111436961D01*
X39733213Y-111436961D02*
X39685594Y-111532200D01*
X39685594Y-111532200D02*
X39590356Y-111579819D01*
X39590356Y-111579819D02*
X39495118Y-111579819D01*
X39161784Y-111579819D02*
X39161784Y-110579819D01*
X38733213Y-111579819D02*
X38733213Y-111056009D01*
X38733213Y-111056009D02*
X38780832Y-110960771D01*
X38780832Y-110960771D02*
X38876070Y-110913152D01*
X38876070Y-110913152D02*
X39018927Y-110913152D01*
X39018927Y-110913152D02*
X39114165Y-110960771D01*
X39114165Y-110960771D02*
X39161784Y-111008390D01*
X37876070Y-111532200D02*
X37971308Y-111579819D01*
X37971308Y-111579819D02*
X38161784Y-111579819D01*
X38161784Y-111579819D02*
X38257022Y-111532200D01*
X38257022Y-111532200D02*
X38304641Y-111436961D01*
X38304641Y-111436961D02*
X38304641Y-111056009D01*
X38304641Y-111056009D02*
X38257022Y-110960771D01*
X38257022Y-110960771D02*
X38161784Y-110913152D01*
X38161784Y-110913152D02*
X37971308Y-110913152D01*
X37971308Y-110913152D02*
X37876070Y-110960771D01*
X37876070Y-110960771D02*
X37828451Y-111056009D01*
X37828451Y-111056009D02*
X37828451Y-111151247D01*
X37828451Y-111151247D02*
X38304641Y-111246485D01*
X36637974Y-111579819D02*
X36637974Y-110913152D01*
X36637974Y-111103628D02*
X36590355Y-111008390D01*
X36590355Y-111008390D02*
X36542736Y-110960771D01*
X36542736Y-110960771D02*
X36447498Y-110913152D01*
X36447498Y-110913152D02*
X36352260Y-110913152D01*
X35637974Y-111532200D02*
X35733212Y-111579819D01*
X35733212Y-111579819D02*
X35923688Y-111579819D01*
X35923688Y-111579819D02*
X36018926Y-111532200D01*
X36018926Y-111532200D02*
X36066545Y-111436961D01*
X36066545Y-111436961D02*
X36066545Y-111056009D01*
X36066545Y-111056009D02*
X36018926Y-110960771D01*
X36018926Y-110960771D02*
X35923688Y-110913152D01*
X35923688Y-110913152D02*
X35733212Y-110913152D01*
X35733212Y-110913152D02*
X35637974Y-110960771D01*
X35637974Y-110960771D02*
X35590355Y-111056009D01*
X35590355Y-111056009D02*
X35590355Y-111151247D01*
X35590355Y-111151247D02*
X36066545Y-111246485D01*
X35209402Y-111532200D02*
X35114164Y-111579819D01*
X35114164Y-111579819D02*
X34923688Y-111579819D01*
X34923688Y-111579819D02*
X34828450Y-111532200D01*
X34828450Y-111532200D02*
X34780831Y-111436961D01*
X34780831Y-111436961D02*
X34780831Y-111389342D01*
X34780831Y-111389342D02*
X34828450Y-111294104D01*
X34828450Y-111294104D02*
X34923688Y-111246485D01*
X34923688Y-111246485D02*
X35066545Y-111246485D01*
X35066545Y-111246485D02*
X35161783Y-111198866D01*
X35161783Y-111198866D02*
X35209402Y-111103628D01*
X35209402Y-111103628D02*
X35209402Y-111056009D01*
X35209402Y-111056009D02*
X35161783Y-110960771D01*
X35161783Y-110960771D02*
X35066545Y-110913152D01*
X35066545Y-110913152D02*
X34923688Y-110913152D01*
X34923688Y-110913152D02*
X34828450Y-110960771D01*
X34495116Y-110913152D02*
X34114164Y-110913152D01*
X34352259Y-110579819D02*
X34352259Y-111436961D01*
X34352259Y-111436961D02*
X34304640Y-111532200D01*
X34304640Y-111532200D02*
X34209402Y-111579819D01*
X34209402Y-111579819D02*
X34114164Y-111579819D01*
X32876068Y-111579819D02*
X32971306Y-111532200D01*
X32971306Y-111532200D02*
X33018925Y-111484580D01*
X33018925Y-111484580D02*
X33066544Y-111389342D01*
X33066544Y-111389342D02*
X33066544Y-111103628D01*
X33066544Y-111103628D02*
X33018925Y-111008390D01*
X33018925Y-111008390D02*
X32971306Y-110960771D01*
X32971306Y-110960771D02*
X32876068Y-110913152D01*
X32876068Y-110913152D02*
X32733211Y-110913152D01*
X32733211Y-110913152D02*
X32637973Y-110960771D01*
X32637973Y-110960771D02*
X32590354Y-111008390D01*
X32590354Y-111008390D02*
X32542735Y-111103628D01*
X32542735Y-111103628D02*
X32542735Y-111389342D01*
X32542735Y-111389342D02*
X32590354Y-111484580D01*
X32590354Y-111484580D02*
X32637973Y-111532200D01*
X32637973Y-111532200D02*
X32733211Y-111579819D01*
X32733211Y-111579819D02*
X32876068Y-111579819D01*
X32257020Y-110913152D02*
X31876068Y-110913152D01*
X32114163Y-111579819D02*
X32114163Y-110722676D01*
X32114163Y-110722676D02*
X32066544Y-110627438D01*
X32066544Y-110627438D02*
X31971306Y-110579819D01*
X31971306Y-110579819D02*
X31876068Y-110579819D01*
X30923686Y-110579819D02*
X30352258Y-110579819D01*
X30637972Y-111579819D02*
X30637972Y-110579819D01*
X30018924Y-111579819D02*
X30018924Y-110579819D01*
X29590353Y-111579819D02*
X29590353Y-111056009D01*
X29590353Y-111056009D02*
X29637972Y-110960771D01*
X29637972Y-110960771D02*
X29733210Y-110913152D01*
X29733210Y-110913152D02*
X29876067Y-110913152D01*
X29876067Y-110913152D02*
X29971305Y-110960771D01*
X29971305Y-110960771D02*
X30018924Y-111008390D01*
X28733210Y-111532200D02*
X28828448Y-111579819D01*
X28828448Y-111579819D02*
X29018924Y-111579819D01*
X29018924Y-111579819D02*
X29114162Y-111532200D01*
X29114162Y-111532200D02*
X29161781Y-111436961D01*
X29161781Y-111436961D02*
X29161781Y-111056009D01*
X29161781Y-111056009D02*
X29114162Y-110960771D01*
X29114162Y-110960771D02*
X29018924Y-110913152D01*
X29018924Y-110913152D02*
X28828448Y-110913152D01*
X28828448Y-110913152D02*
X28733210Y-110960771D01*
X28733210Y-110960771D02*
X28685591Y-111056009D01*
X28685591Y-111056009D02*
X28685591Y-111151247D01*
X28685591Y-111151247D02*
X29161781Y-111246485D01*
X27161781Y-111056009D02*
X27018924Y-111103628D01*
X27018924Y-111103628D02*
X26971305Y-111151247D01*
X26971305Y-111151247D02*
X26923686Y-111246485D01*
X26923686Y-111246485D02*
X26923686Y-111389342D01*
X26923686Y-111389342D02*
X26971305Y-111484580D01*
X26971305Y-111484580D02*
X27018924Y-111532200D01*
X27018924Y-111532200D02*
X27114162Y-111579819D01*
X27114162Y-111579819D02*
X27495114Y-111579819D01*
X27495114Y-111579819D02*
X27495114Y-110579819D01*
X27495114Y-110579819D02*
X27161781Y-110579819D01*
X27161781Y-110579819D02*
X27066543Y-110627438D01*
X27066543Y-110627438D02*
X27018924Y-110675057D01*
X27018924Y-110675057D02*
X26971305Y-110770295D01*
X26971305Y-110770295D02*
X26971305Y-110865533D01*
X26971305Y-110865533D02*
X27018924Y-110960771D01*
X27018924Y-110960771D02*
X27066543Y-111008390D01*
X27066543Y-111008390D02*
X27161781Y-111056009D01*
X27161781Y-111056009D02*
X27495114Y-111056009D01*
X26352257Y-111579819D02*
X26447495Y-111532200D01*
X26447495Y-111532200D02*
X26495114Y-111484580D01*
X26495114Y-111484580D02*
X26542733Y-111389342D01*
X26542733Y-111389342D02*
X26542733Y-111103628D01*
X26542733Y-111103628D02*
X26495114Y-111008390D01*
X26495114Y-111008390D02*
X26447495Y-110960771D01*
X26447495Y-110960771D02*
X26352257Y-110913152D01*
X26352257Y-110913152D02*
X26209400Y-110913152D01*
X26209400Y-110913152D02*
X26114162Y-110960771D01*
X26114162Y-110960771D02*
X26066543Y-111008390D01*
X26066543Y-111008390D02*
X26018924Y-111103628D01*
X26018924Y-111103628D02*
X26018924Y-111389342D01*
X26018924Y-111389342D02*
X26066543Y-111484580D01*
X26066543Y-111484580D02*
X26114162Y-111532200D01*
X26114162Y-111532200D02*
X26209400Y-111579819D01*
X26209400Y-111579819D02*
X26352257Y-111579819D01*
X25161781Y-111579819D02*
X25161781Y-111056009D01*
X25161781Y-111056009D02*
X25209400Y-110960771D01*
X25209400Y-110960771D02*
X25304638Y-110913152D01*
X25304638Y-110913152D02*
X25495114Y-110913152D01*
X25495114Y-110913152D02*
X25590352Y-110960771D01*
X25161781Y-111532200D02*
X25257019Y-111579819D01*
X25257019Y-111579819D02*
X25495114Y-111579819D01*
X25495114Y-111579819D02*
X25590352Y-111532200D01*
X25590352Y-111532200D02*
X25637971Y-111436961D01*
X25637971Y-111436961D02*
X25637971Y-111341723D01*
X25637971Y-111341723D02*
X25590352Y-111246485D01*
X25590352Y-111246485D02*
X25495114Y-111198866D01*
X25495114Y-111198866D02*
X25257019Y-111198866D01*
X25257019Y-111198866D02*
X25161781Y-111151247D01*
X24685590Y-111579819D02*
X24685590Y-110913152D01*
X24685590Y-111103628D02*
X24637971Y-111008390D01*
X24637971Y-111008390D02*
X24590352Y-110960771D01*
X24590352Y-110960771D02*
X24495114Y-110913152D01*
X24495114Y-110913152D02*
X24399876Y-110913152D01*
X23637971Y-111579819D02*
X23637971Y-110579819D01*
X23637971Y-111532200D02*
X23733209Y-111579819D01*
X23733209Y-111579819D02*
X23923685Y-111579819D01*
X23923685Y-111579819D02*
X24018923Y-111532200D01*
X24018923Y-111532200D02*
X24066542Y-111484580D01*
X24066542Y-111484580D02*
X24114161Y-111389342D01*
X24114161Y-111389342D02*
X24114161Y-111103628D01*
X24114161Y-111103628D02*
X24066542Y-111008390D01*
X24066542Y-111008390D02*
X24018923Y-110960771D01*
X24018923Y-110960771D02*
X23923685Y-110913152D01*
X23923685Y-110913152D02*
X23733209Y-110913152D01*
X23733209Y-110913152D02*
X23637971Y-110960771D01*
X22066542Y-111056009D02*
X22399875Y-111056009D01*
X22399875Y-111579819D02*
X22399875Y-110579819D01*
X22399875Y-110579819D02*
X21923685Y-110579819D01*
X21399875Y-111579819D02*
X21495113Y-111532200D01*
X21495113Y-111532200D02*
X21542732Y-111484580D01*
X21542732Y-111484580D02*
X21590351Y-111389342D01*
X21590351Y-111389342D02*
X21590351Y-111103628D01*
X21590351Y-111103628D02*
X21542732Y-111008390D01*
X21542732Y-111008390D02*
X21495113Y-110960771D01*
X21495113Y-110960771D02*
X21399875Y-110913152D01*
X21399875Y-110913152D02*
X21257018Y-110913152D01*
X21257018Y-110913152D02*
X21161780Y-110960771D01*
X21161780Y-110960771D02*
X21114161Y-111008390D01*
X21114161Y-111008390D02*
X21066542Y-111103628D01*
X21066542Y-111103628D02*
X21066542Y-111389342D01*
X21066542Y-111389342D02*
X21114161Y-111484580D01*
X21114161Y-111484580D02*
X21161780Y-111532200D01*
X21161780Y-111532200D02*
X21257018Y-111579819D01*
X21257018Y-111579819D02*
X21399875Y-111579819D01*
X20495113Y-111579819D02*
X20590351Y-111532200D01*
X20590351Y-111532200D02*
X20637970Y-111436961D01*
X20637970Y-111436961D02*
X20637970Y-110579819D01*
X20114160Y-111579819D02*
X20114160Y-110579819D01*
X20018922Y-111198866D02*
X19733208Y-111579819D01*
X19733208Y-110913152D02*
X20114160Y-111294104D01*
X18685588Y-110579819D02*
X18114160Y-110579819D01*
X18399874Y-111579819D02*
X18399874Y-110579819D01*
X17399874Y-111532200D02*
X17495112Y-111579819D01*
X17495112Y-111579819D02*
X17685588Y-111579819D01*
X17685588Y-111579819D02*
X17780826Y-111532200D01*
X17780826Y-111532200D02*
X17828445Y-111436961D01*
X17828445Y-111436961D02*
X17828445Y-111056009D01*
X17828445Y-111056009D02*
X17780826Y-110960771D01*
X17780826Y-110960771D02*
X17685588Y-110913152D01*
X17685588Y-110913152D02*
X17495112Y-110913152D01*
X17495112Y-110913152D02*
X17399874Y-110960771D01*
X17399874Y-110960771D02*
X17352255Y-111056009D01*
X17352255Y-111056009D02*
X17352255Y-111151247D01*
X17352255Y-111151247D02*
X17828445Y-111246485D01*
X16495112Y-111579819D02*
X16495112Y-111056009D01*
X16495112Y-111056009D02*
X16542731Y-110960771D01*
X16542731Y-110960771D02*
X16637969Y-110913152D01*
X16637969Y-110913152D02*
X16828445Y-110913152D01*
X16828445Y-110913152D02*
X16923683Y-110960771D01*
X16495112Y-111532200D02*
X16590350Y-111579819D01*
X16590350Y-111579819D02*
X16828445Y-111579819D01*
X16828445Y-111579819D02*
X16923683Y-111532200D01*
X16923683Y-111532200D02*
X16971302Y-111436961D01*
X16971302Y-111436961D02*
X16971302Y-111341723D01*
X16971302Y-111341723D02*
X16923683Y-111246485D01*
X16923683Y-111246485D02*
X16828445Y-111198866D01*
X16828445Y-111198866D02*
X16590350Y-111198866D01*
X16590350Y-111198866D02*
X16495112Y-111151247D01*
X16018921Y-111579819D02*
X16018921Y-110913152D01*
X16018921Y-111008390D02*
X15971302Y-110960771D01*
X15971302Y-110960771D02*
X15876064Y-110913152D01*
X15876064Y-110913152D02*
X15733207Y-110913152D01*
X15733207Y-110913152D02*
X15637969Y-110960771D01*
X15637969Y-110960771D02*
X15590350Y-111056009D01*
X15590350Y-111056009D02*
X15590350Y-111579819D01*
X15590350Y-111056009D02*
X15542731Y-110960771D01*
X15542731Y-110960771D02*
X15447493Y-110913152D01*
X15447493Y-110913152D02*
X15304636Y-110913152D01*
X15304636Y-110913152D02*
X15209397Y-110960771D01*
X15209397Y-110960771D02*
X15161778Y-111056009D01*
X15161778Y-111056009D02*
X15161778Y-111579819D01*
D11*
X258291917Y-110225828D02*
X258291917Y-111297257D01*
X258291917Y-111297257D02*
X258363346Y-111511542D01*
X258363346Y-111511542D02*
X258506203Y-111654400D01*
X258506203Y-111654400D02*
X258720489Y-111725828D01*
X258720489Y-111725828D02*
X258863346Y-111725828D01*
X256863346Y-111725828D02*
X257577632Y-111725828D01*
X257577632Y-111725828D02*
X257577632Y-110225828D01*
X255506203Y-111582971D02*
X255577631Y-111654400D01*
X255577631Y-111654400D02*
X255791917Y-111725828D01*
X255791917Y-111725828D02*
X255934774Y-111725828D01*
X255934774Y-111725828D02*
X256149060Y-111654400D01*
X256149060Y-111654400D02*
X256291917Y-111511542D01*
X256291917Y-111511542D02*
X256363346Y-111368685D01*
X256363346Y-111368685D02*
X256434774Y-111082971D01*
X256434774Y-111082971D02*
X256434774Y-110868685D01*
X256434774Y-110868685D02*
X256363346Y-110582971D01*
X256363346Y-110582971D02*
X256291917Y-110440114D01*
X256291917Y-110440114D02*
X256149060Y-110297257D01*
X256149060Y-110297257D02*
X255934774Y-110225828D01*
X255934774Y-110225828D02*
X255791917Y-110225828D01*
X255791917Y-110225828D02*
X255577631Y-110297257D01*
X255577631Y-110297257D02*
X255506203Y-110368685D01*
X254434774Y-110225828D02*
X254434774Y-111297257D01*
X254434774Y-111297257D02*
X254506203Y-111511542D01*
X254506203Y-111511542D02*
X254649060Y-111654400D01*
X254649060Y-111654400D02*
X254863346Y-111725828D01*
X254863346Y-111725828D02*
X255006203Y-111725828D01*
X253006203Y-111725828D02*
X253720489Y-111725828D01*
X253720489Y-111725828D02*
X253720489Y-110225828D01*
X251649060Y-111582971D02*
X251720488Y-111654400D01*
X251720488Y-111654400D02*
X251934774Y-111725828D01*
X251934774Y-111725828D02*
X252077631Y-111725828D01*
X252077631Y-111725828D02*
X252291917Y-111654400D01*
X252291917Y-111654400D02*
X252434774Y-111511542D01*
X252434774Y-111511542D02*
X252506203Y-111368685D01*
X252506203Y-111368685D02*
X252577631Y-111082971D01*
X252577631Y-111082971D02*
X252577631Y-110868685D01*
X252577631Y-110868685D02*
X252506203Y-110582971D01*
X252506203Y-110582971D02*
X252434774Y-110440114D01*
X252434774Y-110440114D02*
X252291917Y-110297257D01*
X252291917Y-110297257D02*
X252077631Y-110225828D01*
X252077631Y-110225828D02*
X251934774Y-110225828D01*
X251934774Y-110225828D02*
X251720488Y-110297257D01*
X251720488Y-110297257D02*
X251649060Y-110368685D01*
X250577631Y-110225828D02*
X250577631Y-111297257D01*
X250577631Y-111297257D02*
X250649060Y-111511542D01*
X250649060Y-111511542D02*
X250791917Y-111654400D01*
X250791917Y-111654400D02*
X251006203Y-111725828D01*
X251006203Y-111725828D02*
X251149060Y-111725828D01*
X249149060Y-111725828D02*
X249863346Y-111725828D01*
X249863346Y-111725828D02*
X249863346Y-110225828D01*
X247791917Y-111582971D02*
X247863345Y-111654400D01*
X247863345Y-111654400D02*
X248077631Y-111725828D01*
X248077631Y-111725828D02*
X248220488Y-111725828D01*
X248220488Y-111725828D02*
X248434774Y-111654400D01*
X248434774Y-111654400D02*
X248577631Y-111511542D01*
X248577631Y-111511542D02*
X248649060Y-111368685D01*
X248649060Y-111368685D02*
X248720488Y-111082971D01*
X248720488Y-111082971D02*
X248720488Y-110868685D01*
X248720488Y-110868685D02*
X248649060Y-110582971D01*
X248649060Y-110582971D02*
X248577631Y-110440114D01*
X248577631Y-110440114D02*
X248434774Y-110297257D01*
X248434774Y-110297257D02*
X248220488Y-110225828D01*
X248220488Y-110225828D02*
X248077631Y-110225828D01*
X248077631Y-110225828D02*
X247863345Y-110297257D01*
X247863345Y-110297257D02*
X247791917Y-110368685D01*
X246720488Y-110225828D02*
X246720488Y-111297257D01*
X246720488Y-111297257D02*
X246791917Y-111511542D01*
X246791917Y-111511542D02*
X246934774Y-111654400D01*
X246934774Y-111654400D02*
X247149060Y-111725828D01*
X247149060Y-111725828D02*
X247291917Y-111725828D01*
X245291917Y-111725828D02*
X246006203Y-111725828D01*
X246006203Y-111725828D02*
X246006203Y-110225828D01*
X243934774Y-111582971D02*
X244006202Y-111654400D01*
X244006202Y-111654400D02*
X244220488Y-111725828D01*
X244220488Y-111725828D02*
X244363345Y-111725828D01*
X244363345Y-111725828D02*
X244577631Y-111654400D01*
X244577631Y-111654400D02*
X244720488Y-111511542D01*
X244720488Y-111511542D02*
X244791917Y-111368685D01*
X244791917Y-111368685D02*
X244863345Y-111082971D01*
X244863345Y-111082971D02*
X244863345Y-110868685D01*
X244863345Y-110868685D02*
X244791917Y-110582971D01*
X244791917Y-110582971D02*
X244720488Y-110440114D01*
X244720488Y-110440114D02*
X244577631Y-110297257D01*
X244577631Y-110297257D02*
X244363345Y-110225828D01*
X244363345Y-110225828D02*
X244220488Y-110225828D01*
X244220488Y-110225828D02*
X244006202Y-110297257D01*
X244006202Y-110297257D02*
X243934774Y-110368685D01*
D10*
X65037295Y-58419762D02*
X64656342Y-58153095D01*
X65037295Y-57962619D02*
X64237295Y-57962619D01*
X64237295Y-57962619D02*
X64237295Y-58267381D01*
X64237295Y-58267381D02*
X64275390Y-58343571D01*
X64275390Y-58343571D02*
X64313485Y-58381666D01*
X64313485Y-58381666D02*
X64389676Y-58419762D01*
X64389676Y-58419762D02*
X64503961Y-58419762D01*
X64503961Y-58419762D02*
X64580152Y-58381666D01*
X64580152Y-58381666D02*
X64618247Y-58343571D01*
X64618247Y-58343571D02*
X64656342Y-58267381D01*
X64656342Y-58267381D02*
X64656342Y-57962619D01*
X65037295Y-59181666D02*
X65037295Y-58724523D01*
X65037295Y-58953095D02*
X64237295Y-58953095D01*
X64237295Y-58953095D02*
X64351580Y-58876904D01*
X64351580Y-58876904D02*
X64427771Y-58800714D01*
X64427771Y-58800714D02*
X64465866Y-58724523D01*
X64580152Y-59638809D02*
X64542057Y-59562619D01*
X64542057Y-59562619D02*
X64503961Y-59524524D01*
X64503961Y-59524524D02*
X64427771Y-59486428D01*
X64427771Y-59486428D02*
X64389676Y-59486428D01*
X64389676Y-59486428D02*
X64313485Y-59524524D01*
X64313485Y-59524524D02*
X64275390Y-59562619D01*
X64275390Y-59562619D02*
X64237295Y-59638809D01*
X64237295Y-59638809D02*
X64237295Y-59791190D01*
X64237295Y-59791190D02*
X64275390Y-59867381D01*
X64275390Y-59867381D02*
X64313485Y-59905476D01*
X64313485Y-59905476D02*
X64389676Y-59943571D01*
X64389676Y-59943571D02*
X64427771Y-59943571D01*
X64427771Y-59943571D02*
X64503961Y-59905476D01*
X64503961Y-59905476D02*
X64542057Y-59867381D01*
X64542057Y-59867381D02*
X64580152Y-59791190D01*
X64580152Y-59791190D02*
X64580152Y-59638809D01*
X64580152Y-59638809D02*
X64618247Y-59562619D01*
X64618247Y-59562619D02*
X64656342Y-59524524D01*
X64656342Y-59524524D02*
X64732533Y-59486428D01*
X64732533Y-59486428D02*
X64884914Y-59486428D01*
X64884914Y-59486428D02*
X64961104Y-59524524D01*
X64961104Y-59524524D02*
X64999200Y-59562619D01*
X64999200Y-59562619D02*
X65037295Y-59638809D01*
X65037295Y-59638809D02*
X65037295Y-59791190D01*
X65037295Y-59791190D02*
X64999200Y-59867381D01*
X64999200Y-59867381D02*
X64961104Y-59905476D01*
X64961104Y-59905476D02*
X64884914Y-59943571D01*
X64884914Y-59943571D02*
X64732533Y-59943571D01*
X64732533Y-59943571D02*
X64656342Y-59905476D01*
X64656342Y-59905476D02*
X64618247Y-59867381D01*
X64618247Y-59867381D02*
X64580152Y-59791190D01*
X64237295Y-60210238D02*
X64237295Y-60743572D01*
X64237295Y-60743572D02*
X65037295Y-60400714D01*
X63097295Y-58419762D02*
X62716342Y-58153095D01*
X63097295Y-57962619D02*
X62297295Y-57962619D01*
X62297295Y-57962619D02*
X62297295Y-58267381D01*
X62297295Y-58267381D02*
X62335390Y-58343571D01*
X62335390Y-58343571D02*
X62373485Y-58381666D01*
X62373485Y-58381666D02*
X62449676Y-58419762D01*
X62449676Y-58419762D02*
X62563961Y-58419762D01*
X62563961Y-58419762D02*
X62640152Y-58381666D01*
X62640152Y-58381666D02*
X62678247Y-58343571D01*
X62678247Y-58343571D02*
X62716342Y-58267381D01*
X62716342Y-58267381D02*
X62716342Y-57962619D01*
X63097295Y-59181666D02*
X63097295Y-58724523D01*
X63097295Y-58953095D02*
X62297295Y-58953095D01*
X62297295Y-58953095D02*
X62411580Y-58876904D01*
X62411580Y-58876904D02*
X62487771Y-58800714D01*
X62487771Y-58800714D02*
X62525866Y-58724523D01*
X62640152Y-59638809D02*
X62602057Y-59562619D01*
X62602057Y-59562619D02*
X62563961Y-59524524D01*
X62563961Y-59524524D02*
X62487771Y-59486428D01*
X62487771Y-59486428D02*
X62449676Y-59486428D01*
X62449676Y-59486428D02*
X62373485Y-59524524D01*
X62373485Y-59524524D02*
X62335390Y-59562619D01*
X62335390Y-59562619D02*
X62297295Y-59638809D01*
X62297295Y-59638809D02*
X62297295Y-59791190D01*
X62297295Y-59791190D02*
X62335390Y-59867381D01*
X62335390Y-59867381D02*
X62373485Y-59905476D01*
X62373485Y-59905476D02*
X62449676Y-59943571D01*
X62449676Y-59943571D02*
X62487771Y-59943571D01*
X62487771Y-59943571D02*
X62563961Y-59905476D01*
X62563961Y-59905476D02*
X62602057Y-59867381D01*
X62602057Y-59867381D02*
X62640152Y-59791190D01*
X62640152Y-59791190D02*
X62640152Y-59638809D01*
X62640152Y-59638809D02*
X62678247Y-59562619D01*
X62678247Y-59562619D02*
X62716342Y-59524524D01*
X62716342Y-59524524D02*
X62792533Y-59486428D01*
X62792533Y-59486428D02*
X62944914Y-59486428D01*
X62944914Y-59486428D02*
X63021104Y-59524524D01*
X63021104Y-59524524D02*
X63059200Y-59562619D01*
X63059200Y-59562619D02*
X63097295Y-59638809D01*
X63097295Y-59638809D02*
X63097295Y-59791190D01*
X63097295Y-59791190D02*
X63059200Y-59867381D01*
X63059200Y-59867381D02*
X63021104Y-59905476D01*
X63021104Y-59905476D02*
X62944914Y-59943571D01*
X62944914Y-59943571D02*
X62792533Y-59943571D01*
X62792533Y-59943571D02*
X62716342Y-59905476D01*
X62716342Y-59905476D02*
X62678247Y-59867381D01*
X62678247Y-59867381D02*
X62640152Y-59791190D01*
X62297295Y-60629286D02*
X62297295Y-60476905D01*
X62297295Y-60476905D02*
X62335390Y-60400714D01*
X62335390Y-60400714D02*
X62373485Y-60362619D01*
X62373485Y-60362619D02*
X62487771Y-60286429D01*
X62487771Y-60286429D02*
X62640152Y-60248333D01*
X62640152Y-60248333D02*
X62944914Y-60248333D01*
X62944914Y-60248333D02*
X63021104Y-60286429D01*
X63021104Y-60286429D02*
X63059200Y-60324524D01*
X63059200Y-60324524D02*
X63097295Y-60400714D01*
X63097295Y-60400714D02*
X63097295Y-60553095D01*
X63097295Y-60553095D02*
X63059200Y-60629286D01*
X63059200Y-60629286D02*
X63021104Y-60667381D01*
X63021104Y-60667381D02*
X62944914Y-60705476D01*
X62944914Y-60705476D02*
X62754438Y-60705476D01*
X62754438Y-60705476D02*
X62678247Y-60667381D01*
X62678247Y-60667381D02*
X62640152Y-60629286D01*
X62640152Y-60629286D02*
X62602057Y-60553095D01*
X62602057Y-60553095D02*
X62602057Y-60400714D01*
X62602057Y-60400714D02*
X62640152Y-60324524D01*
X62640152Y-60324524D02*
X62678247Y-60286429D01*
X62678247Y-60286429D02*
X62754438Y-60248333D01*
X61167295Y-58419762D02*
X60786342Y-58153095D01*
X61167295Y-57962619D02*
X60367295Y-57962619D01*
X60367295Y-57962619D02*
X60367295Y-58267381D01*
X60367295Y-58267381D02*
X60405390Y-58343571D01*
X60405390Y-58343571D02*
X60443485Y-58381666D01*
X60443485Y-58381666D02*
X60519676Y-58419762D01*
X60519676Y-58419762D02*
X60633961Y-58419762D01*
X60633961Y-58419762D02*
X60710152Y-58381666D01*
X60710152Y-58381666D02*
X60748247Y-58343571D01*
X60748247Y-58343571D02*
X60786342Y-58267381D01*
X60786342Y-58267381D02*
X60786342Y-57962619D01*
X61167295Y-59181666D02*
X61167295Y-58724523D01*
X61167295Y-58953095D02*
X60367295Y-58953095D01*
X60367295Y-58953095D02*
X60481580Y-58876904D01*
X60481580Y-58876904D02*
X60557771Y-58800714D01*
X60557771Y-58800714D02*
X60595866Y-58724523D01*
X60710152Y-59638809D02*
X60672057Y-59562619D01*
X60672057Y-59562619D02*
X60633961Y-59524524D01*
X60633961Y-59524524D02*
X60557771Y-59486428D01*
X60557771Y-59486428D02*
X60519676Y-59486428D01*
X60519676Y-59486428D02*
X60443485Y-59524524D01*
X60443485Y-59524524D02*
X60405390Y-59562619D01*
X60405390Y-59562619D02*
X60367295Y-59638809D01*
X60367295Y-59638809D02*
X60367295Y-59791190D01*
X60367295Y-59791190D02*
X60405390Y-59867381D01*
X60405390Y-59867381D02*
X60443485Y-59905476D01*
X60443485Y-59905476D02*
X60519676Y-59943571D01*
X60519676Y-59943571D02*
X60557771Y-59943571D01*
X60557771Y-59943571D02*
X60633961Y-59905476D01*
X60633961Y-59905476D02*
X60672057Y-59867381D01*
X60672057Y-59867381D02*
X60710152Y-59791190D01*
X60710152Y-59791190D02*
X60710152Y-59638809D01*
X60710152Y-59638809D02*
X60748247Y-59562619D01*
X60748247Y-59562619D02*
X60786342Y-59524524D01*
X60786342Y-59524524D02*
X60862533Y-59486428D01*
X60862533Y-59486428D02*
X61014914Y-59486428D01*
X61014914Y-59486428D02*
X61091104Y-59524524D01*
X61091104Y-59524524D02*
X61129200Y-59562619D01*
X61129200Y-59562619D02*
X61167295Y-59638809D01*
X61167295Y-59638809D02*
X61167295Y-59791190D01*
X61167295Y-59791190D02*
X61129200Y-59867381D01*
X61129200Y-59867381D02*
X61091104Y-59905476D01*
X61091104Y-59905476D02*
X61014914Y-59943571D01*
X61014914Y-59943571D02*
X60862533Y-59943571D01*
X60862533Y-59943571D02*
X60786342Y-59905476D01*
X60786342Y-59905476D02*
X60748247Y-59867381D01*
X60748247Y-59867381D02*
X60710152Y-59791190D01*
X60367295Y-60667381D02*
X60367295Y-60286429D01*
X60367295Y-60286429D02*
X60748247Y-60248333D01*
X60748247Y-60248333D02*
X60710152Y-60286429D01*
X60710152Y-60286429D02*
X60672057Y-60362619D01*
X60672057Y-60362619D02*
X60672057Y-60553095D01*
X60672057Y-60553095D02*
X60710152Y-60629286D01*
X60710152Y-60629286D02*
X60748247Y-60667381D01*
X60748247Y-60667381D02*
X60824438Y-60705476D01*
X60824438Y-60705476D02*
X61014914Y-60705476D01*
X61014914Y-60705476D02*
X61091104Y-60667381D01*
X61091104Y-60667381D02*
X61129200Y-60629286D01*
X61129200Y-60629286D02*
X61167295Y-60553095D01*
X61167295Y-60553095D02*
X61167295Y-60362619D01*
X61167295Y-60362619D02*
X61129200Y-60286429D01*
X61129200Y-60286429D02*
X61091104Y-60248333D01*
X66977295Y-58419762D02*
X66596342Y-58153095D01*
X66977295Y-57962619D02*
X66177295Y-57962619D01*
X66177295Y-57962619D02*
X66177295Y-58267381D01*
X66177295Y-58267381D02*
X66215390Y-58343571D01*
X66215390Y-58343571D02*
X66253485Y-58381666D01*
X66253485Y-58381666D02*
X66329676Y-58419762D01*
X66329676Y-58419762D02*
X66443961Y-58419762D01*
X66443961Y-58419762D02*
X66520152Y-58381666D01*
X66520152Y-58381666D02*
X66558247Y-58343571D01*
X66558247Y-58343571D02*
X66596342Y-58267381D01*
X66596342Y-58267381D02*
X66596342Y-57962619D01*
X66977295Y-59181666D02*
X66977295Y-58724523D01*
X66977295Y-58953095D02*
X66177295Y-58953095D01*
X66177295Y-58953095D02*
X66291580Y-58876904D01*
X66291580Y-58876904D02*
X66367771Y-58800714D01*
X66367771Y-58800714D02*
X66405866Y-58724523D01*
X66520152Y-59638809D02*
X66482057Y-59562619D01*
X66482057Y-59562619D02*
X66443961Y-59524524D01*
X66443961Y-59524524D02*
X66367771Y-59486428D01*
X66367771Y-59486428D02*
X66329676Y-59486428D01*
X66329676Y-59486428D02*
X66253485Y-59524524D01*
X66253485Y-59524524D02*
X66215390Y-59562619D01*
X66215390Y-59562619D02*
X66177295Y-59638809D01*
X66177295Y-59638809D02*
X66177295Y-59791190D01*
X66177295Y-59791190D02*
X66215390Y-59867381D01*
X66215390Y-59867381D02*
X66253485Y-59905476D01*
X66253485Y-59905476D02*
X66329676Y-59943571D01*
X66329676Y-59943571D02*
X66367771Y-59943571D01*
X66367771Y-59943571D02*
X66443961Y-59905476D01*
X66443961Y-59905476D02*
X66482057Y-59867381D01*
X66482057Y-59867381D02*
X66520152Y-59791190D01*
X66520152Y-59791190D02*
X66520152Y-59638809D01*
X66520152Y-59638809D02*
X66558247Y-59562619D01*
X66558247Y-59562619D02*
X66596342Y-59524524D01*
X66596342Y-59524524D02*
X66672533Y-59486428D01*
X66672533Y-59486428D02*
X66824914Y-59486428D01*
X66824914Y-59486428D02*
X66901104Y-59524524D01*
X66901104Y-59524524D02*
X66939200Y-59562619D01*
X66939200Y-59562619D02*
X66977295Y-59638809D01*
X66977295Y-59638809D02*
X66977295Y-59791190D01*
X66977295Y-59791190D02*
X66939200Y-59867381D01*
X66939200Y-59867381D02*
X66901104Y-59905476D01*
X66901104Y-59905476D02*
X66824914Y-59943571D01*
X66824914Y-59943571D02*
X66672533Y-59943571D01*
X66672533Y-59943571D02*
X66596342Y-59905476D01*
X66596342Y-59905476D02*
X66558247Y-59867381D01*
X66558247Y-59867381D02*
X66520152Y-59791190D01*
X66520152Y-60400714D02*
X66482057Y-60324524D01*
X66482057Y-60324524D02*
X66443961Y-60286429D01*
X66443961Y-60286429D02*
X66367771Y-60248333D01*
X66367771Y-60248333D02*
X66329676Y-60248333D01*
X66329676Y-60248333D02*
X66253485Y-60286429D01*
X66253485Y-60286429D02*
X66215390Y-60324524D01*
X66215390Y-60324524D02*
X66177295Y-60400714D01*
X66177295Y-60400714D02*
X66177295Y-60553095D01*
X66177295Y-60553095D02*
X66215390Y-60629286D01*
X66215390Y-60629286D02*
X66253485Y-60667381D01*
X66253485Y-60667381D02*
X66329676Y-60705476D01*
X66329676Y-60705476D02*
X66367771Y-60705476D01*
X66367771Y-60705476D02*
X66443961Y-60667381D01*
X66443961Y-60667381D02*
X66482057Y-60629286D01*
X66482057Y-60629286D02*
X66520152Y-60553095D01*
X66520152Y-60553095D02*
X66520152Y-60400714D01*
X66520152Y-60400714D02*
X66558247Y-60324524D01*
X66558247Y-60324524D02*
X66596342Y-60286429D01*
X66596342Y-60286429D02*
X66672533Y-60248333D01*
X66672533Y-60248333D02*
X66824914Y-60248333D01*
X66824914Y-60248333D02*
X66901104Y-60286429D01*
X66901104Y-60286429D02*
X66939200Y-60324524D01*
X66939200Y-60324524D02*
X66977295Y-60400714D01*
X66977295Y-60400714D02*
X66977295Y-60553095D01*
X66977295Y-60553095D02*
X66939200Y-60629286D01*
X66939200Y-60629286D02*
X66901104Y-60667381D01*
X66901104Y-60667381D02*
X66824914Y-60705476D01*
X66824914Y-60705476D02*
X66672533Y-60705476D01*
X66672533Y-60705476D02*
X66596342Y-60667381D01*
X66596342Y-60667381D02*
X66558247Y-60629286D01*
X66558247Y-60629286D02*
X66520152Y-60553095D01*
D12*
%TO.C,R187*%
X63950000Y-62852064D02*
X63950000Y-62397936D01*
X65420000Y-62852064D02*
X65420000Y-62397936D01*
%TO.C,R186*%
X62010000Y-62852064D02*
X62010000Y-62397936D01*
X63480000Y-62852064D02*
X63480000Y-62397936D01*
%TO.C,R185*%
X60080000Y-62852064D02*
X60080000Y-62397936D01*
X61550000Y-62852064D02*
X61550000Y-62397936D01*
%TO.C,R188*%
X65890000Y-62852064D02*
X65890000Y-62397936D01*
X67360000Y-62852064D02*
X67360000Y-62397936D01*
%TD*%
M02*
