%TF.GenerationSoftware,KiCad,Pcbnew,7.0.7*%
%TF.CreationDate,2023-10-19T16:40:44+01:00*%
%TF.ProjectId,CPC464-2MINI,43504334-3634-42d3-924d-494e492e6b69,rev?*%
%TF.SameCoordinates,Original*%
%TF.FileFunction,Drillmap*%
%TF.FilePolarity,Positive*%
%FSLAX45Y45*%
G04 Gerber Fmt 4.5, Leading zero omitted, Abs format (unit mm)*
G04 Created by KiCad (PCBNEW 7.0.7) date 2023-10-19 16:40:44*
%MOMM*%
%LPD*%
G01*
G04 APERTURE LIST*
%ADD10C,0.100000*%
%ADD11C,0.200000*%
%ADD12C,0.120000*%
%ADD13C,0.240000*%
G04 APERTURE END LIST*
D10*
X1442720Y-2727960D02*
X26047700Y-2727960D01*
X26047700Y-11226000D01*
X1442720Y-11226000D01*
X1442720Y-2727960D01*
D11*
D12*
X2269560Y-2870080D02*
X2389560Y-2990080D01*
X2389560Y-2870080D02*
X2269560Y-2990080D01*
X2269560Y-3120080D02*
X2389560Y-3240080D01*
X2389560Y-3120080D02*
X2269560Y-3240080D01*
X2769560Y-3620080D02*
X2889560Y-3740080D01*
X2889560Y-3620080D02*
X2769560Y-3740080D01*
X3269560Y-2870080D02*
X3389560Y-2990080D01*
X3389560Y-2870080D02*
X3269560Y-2990080D01*
X3269560Y-3120080D02*
X3389560Y-3240080D01*
X3389560Y-3120080D02*
X3269560Y-3240080D01*
D13*
X23152750Y-3527320D02*
G75*
G03*
X23152750Y-3527320I-120000J0D01*
G01*
X24652750Y-3527320D02*
G75*
G03*
X24652750Y-3527320I-120000J0D01*
G01*
D11*
X1698497Y-11542484D02*
X1698497Y-11342484D01*
X1698497Y-11342484D02*
X1746116Y-11342484D01*
X1746116Y-11342484D02*
X1774687Y-11352008D01*
X1774687Y-11352008D02*
X1793735Y-11371055D01*
X1793735Y-11371055D02*
X1803259Y-11390103D01*
X1803259Y-11390103D02*
X1812782Y-11428198D01*
X1812782Y-11428198D02*
X1812782Y-11456769D01*
X1812782Y-11456769D02*
X1803259Y-11494865D01*
X1803259Y-11494865D02*
X1793735Y-11513912D01*
X1793735Y-11513912D02*
X1774687Y-11532960D01*
X1774687Y-11532960D02*
X1746116Y-11542484D01*
X1746116Y-11542484D02*
X1698497Y-11542484D01*
X1898497Y-11542484D02*
X1898497Y-11409150D01*
X1898497Y-11447246D02*
X1908021Y-11428198D01*
X1908021Y-11428198D02*
X1917544Y-11418674D01*
X1917544Y-11418674D02*
X1936592Y-11409150D01*
X1936592Y-11409150D02*
X1955640Y-11409150D01*
X2022306Y-11542484D02*
X2022306Y-11409150D01*
X2022306Y-11342484D02*
X2012782Y-11352008D01*
X2012782Y-11352008D02*
X2022306Y-11361531D01*
X2022306Y-11361531D02*
X2031830Y-11352008D01*
X2031830Y-11352008D02*
X2022306Y-11342484D01*
X2022306Y-11342484D02*
X2022306Y-11361531D01*
X2146116Y-11542484D02*
X2127068Y-11532960D01*
X2127068Y-11532960D02*
X2117544Y-11513912D01*
X2117544Y-11513912D02*
X2117544Y-11342484D01*
X2250878Y-11542484D02*
X2231830Y-11532960D01*
X2231830Y-11532960D02*
X2222306Y-11513912D01*
X2222306Y-11513912D02*
X2222306Y-11342484D01*
X2479449Y-11542484D02*
X2479449Y-11342484D01*
X2479449Y-11342484D02*
X2546116Y-11485341D01*
X2546116Y-11485341D02*
X2612783Y-11342484D01*
X2612783Y-11342484D02*
X2612783Y-11542484D01*
X2793735Y-11542484D02*
X2793735Y-11437722D01*
X2793735Y-11437722D02*
X2784211Y-11418674D01*
X2784211Y-11418674D02*
X2765164Y-11409150D01*
X2765164Y-11409150D02*
X2727068Y-11409150D01*
X2727068Y-11409150D02*
X2708021Y-11418674D01*
X2793735Y-11532960D02*
X2774687Y-11542484D01*
X2774687Y-11542484D02*
X2727068Y-11542484D01*
X2727068Y-11542484D02*
X2708021Y-11532960D01*
X2708021Y-11532960D02*
X2698497Y-11513912D01*
X2698497Y-11513912D02*
X2698497Y-11494865D01*
X2698497Y-11494865D02*
X2708021Y-11475817D01*
X2708021Y-11475817D02*
X2727068Y-11466293D01*
X2727068Y-11466293D02*
X2774687Y-11466293D01*
X2774687Y-11466293D02*
X2793735Y-11456769D01*
X2888973Y-11409150D02*
X2888973Y-11609150D01*
X2888973Y-11418674D02*
X2908021Y-11409150D01*
X2908021Y-11409150D02*
X2946116Y-11409150D01*
X2946116Y-11409150D02*
X2965163Y-11418674D01*
X2965163Y-11418674D02*
X2974687Y-11428198D01*
X2974687Y-11428198D02*
X2984211Y-11447246D01*
X2984211Y-11447246D02*
X2984211Y-11504388D01*
X2984211Y-11504388D02*
X2974687Y-11523436D01*
X2974687Y-11523436D02*
X2965163Y-11532960D01*
X2965163Y-11532960D02*
X2946116Y-11542484D01*
X2946116Y-11542484D02*
X2908021Y-11542484D01*
X2908021Y-11542484D02*
X2888973Y-11532960D01*
X3069925Y-11523436D02*
X3079449Y-11532960D01*
X3079449Y-11532960D02*
X3069925Y-11542484D01*
X3069925Y-11542484D02*
X3060402Y-11532960D01*
X3060402Y-11532960D02*
X3069925Y-11523436D01*
X3069925Y-11523436D02*
X3069925Y-11542484D01*
X3069925Y-11418674D02*
X3079449Y-11428198D01*
X3079449Y-11428198D02*
X3069925Y-11437722D01*
X3069925Y-11437722D02*
X3060402Y-11428198D01*
X3060402Y-11428198D02*
X3069925Y-11418674D01*
X3069925Y-11418674D02*
X3069925Y-11437722D01*
D12*
X1317720Y-11811000D02*
X1437720Y-11931000D01*
X1437720Y-11811000D02*
X1317720Y-11931000D01*
D11*
X1803259Y-11962484D02*
X1688973Y-11962484D01*
X1746116Y-11962484D02*
X1746116Y-11762484D01*
X1746116Y-11762484D02*
X1727068Y-11791055D01*
X1727068Y-11791055D02*
X1708021Y-11810103D01*
X1708021Y-11810103D02*
X1688973Y-11819627D01*
X1888973Y-11943436D02*
X1898497Y-11952960D01*
X1898497Y-11952960D02*
X1888973Y-11962484D01*
X1888973Y-11962484D02*
X1879449Y-11952960D01*
X1879449Y-11952960D02*
X1888973Y-11943436D01*
X1888973Y-11943436D02*
X1888973Y-11962484D01*
X1974687Y-11781531D02*
X1984211Y-11772008D01*
X1984211Y-11772008D02*
X2003259Y-11762484D01*
X2003259Y-11762484D02*
X2050878Y-11762484D01*
X2050878Y-11762484D02*
X2069925Y-11772008D01*
X2069925Y-11772008D02*
X2079449Y-11781531D01*
X2079449Y-11781531D02*
X2088973Y-11800579D01*
X2088973Y-11800579D02*
X2088973Y-11819627D01*
X2088973Y-11819627D02*
X2079449Y-11848198D01*
X2079449Y-11848198D02*
X1965163Y-11962484D01*
X1965163Y-11962484D02*
X2088973Y-11962484D01*
X2212783Y-11762484D02*
X2231830Y-11762484D01*
X2231830Y-11762484D02*
X2250878Y-11772008D01*
X2250878Y-11772008D02*
X2260402Y-11781531D01*
X2260402Y-11781531D02*
X2269925Y-11800579D01*
X2269925Y-11800579D02*
X2279449Y-11838674D01*
X2279449Y-11838674D02*
X2279449Y-11886293D01*
X2279449Y-11886293D02*
X2269925Y-11924388D01*
X2269925Y-11924388D02*
X2260402Y-11943436D01*
X2260402Y-11943436D02*
X2250878Y-11952960D01*
X2250878Y-11952960D02*
X2231830Y-11962484D01*
X2231830Y-11962484D02*
X2212783Y-11962484D01*
X2212783Y-11962484D02*
X2193735Y-11952960D01*
X2193735Y-11952960D02*
X2184211Y-11943436D01*
X2184211Y-11943436D02*
X2174687Y-11924388D01*
X2174687Y-11924388D02*
X2165164Y-11886293D01*
X2165164Y-11886293D02*
X2165164Y-11838674D01*
X2165164Y-11838674D02*
X2174687Y-11800579D01*
X2174687Y-11800579D02*
X2184211Y-11781531D01*
X2184211Y-11781531D02*
X2193735Y-11772008D01*
X2193735Y-11772008D02*
X2212783Y-11762484D01*
X2403259Y-11762484D02*
X2422306Y-11762484D01*
X2422306Y-11762484D02*
X2441354Y-11772008D01*
X2441354Y-11772008D02*
X2450878Y-11781531D01*
X2450878Y-11781531D02*
X2460402Y-11800579D01*
X2460402Y-11800579D02*
X2469925Y-11838674D01*
X2469925Y-11838674D02*
X2469925Y-11886293D01*
X2469925Y-11886293D02*
X2460402Y-11924388D01*
X2460402Y-11924388D02*
X2450878Y-11943436D01*
X2450878Y-11943436D02*
X2441354Y-11952960D01*
X2441354Y-11952960D02*
X2422306Y-11962484D01*
X2422306Y-11962484D02*
X2403259Y-11962484D01*
X2403259Y-11962484D02*
X2384211Y-11952960D01*
X2384211Y-11952960D02*
X2374687Y-11943436D01*
X2374687Y-11943436D02*
X2365164Y-11924388D01*
X2365164Y-11924388D02*
X2355640Y-11886293D01*
X2355640Y-11886293D02*
X2355640Y-11838674D01*
X2355640Y-11838674D02*
X2365164Y-11800579D01*
X2365164Y-11800579D02*
X2374687Y-11781531D01*
X2374687Y-11781531D02*
X2384211Y-11772008D01*
X2384211Y-11772008D02*
X2403259Y-11762484D01*
X2555640Y-11962484D02*
X2555640Y-11829150D01*
X2555640Y-11848198D02*
X2565164Y-11838674D01*
X2565164Y-11838674D02*
X2584211Y-11829150D01*
X2584211Y-11829150D02*
X2612783Y-11829150D01*
X2612783Y-11829150D02*
X2631830Y-11838674D01*
X2631830Y-11838674D02*
X2641354Y-11857722D01*
X2641354Y-11857722D02*
X2641354Y-11962484D01*
X2641354Y-11857722D02*
X2650878Y-11838674D01*
X2650878Y-11838674D02*
X2669925Y-11829150D01*
X2669925Y-11829150D02*
X2698497Y-11829150D01*
X2698497Y-11829150D02*
X2717545Y-11838674D01*
X2717545Y-11838674D02*
X2727068Y-11857722D01*
X2727068Y-11857722D02*
X2727068Y-11962484D01*
X2822306Y-11962484D02*
X2822306Y-11829150D01*
X2822306Y-11848198D02*
X2831830Y-11838674D01*
X2831830Y-11838674D02*
X2850878Y-11829150D01*
X2850878Y-11829150D02*
X2879449Y-11829150D01*
X2879449Y-11829150D02*
X2898497Y-11838674D01*
X2898497Y-11838674D02*
X2908021Y-11857722D01*
X2908021Y-11857722D02*
X2908021Y-11962484D01*
X2908021Y-11857722D02*
X2917544Y-11838674D01*
X2917544Y-11838674D02*
X2936592Y-11829150D01*
X2936592Y-11829150D02*
X2965163Y-11829150D01*
X2965163Y-11829150D02*
X2984211Y-11838674D01*
X2984211Y-11838674D02*
X2993735Y-11857722D01*
X2993735Y-11857722D02*
X2993735Y-11962484D01*
X3384211Y-11752960D02*
X3212783Y-12010103D01*
X3641354Y-11762484D02*
X3660402Y-11762484D01*
X3660402Y-11762484D02*
X3679449Y-11772008D01*
X3679449Y-11772008D02*
X3688973Y-11781531D01*
X3688973Y-11781531D02*
X3698497Y-11800579D01*
X3698497Y-11800579D02*
X3708021Y-11838674D01*
X3708021Y-11838674D02*
X3708021Y-11886293D01*
X3708021Y-11886293D02*
X3698497Y-11924388D01*
X3698497Y-11924388D02*
X3688973Y-11943436D01*
X3688973Y-11943436D02*
X3679449Y-11952960D01*
X3679449Y-11952960D02*
X3660402Y-11962484D01*
X3660402Y-11962484D02*
X3641354Y-11962484D01*
X3641354Y-11962484D02*
X3622306Y-11952960D01*
X3622306Y-11952960D02*
X3612783Y-11943436D01*
X3612783Y-11943436D02*
X3603259Y-11924388D01*
X3603259Y-11924388D02*
X3593735Y-11886293D01*
X3593735Y-11886293D02*
X3593735Y-11838674D01*
X3593735Y-11838674D02*
X3603259Y-11800579D01*
X3603259Y-11800579D02*
X3612783Y-11781531D01*
X3612783Y-11781531D02*
X3622306Y-11772008D01*
X3622306Y-11772008D02*
X3641354Y-11762484D01*
X3793735Y-11943436D02*
X3803259Y-11952960D01*
X3803259Y-11952960D02*
X3793735Y-11962484D01*
X3793735Y-11962484D02*
X3784211Y-11952960D01*
X3784211Y-11952960D02*
X3793735Y-11943436D01*
X3793735Y-11943436D02*
X3793735Y-11962484D01*
X3927068Y-11762484D02*
X3946116Y-11762484D01*
X3946116Y-11762484D02*
X3965164Y-11772008D01*
X3965164Y-11772008D02*
X3974687Y-11781531D01*
X3974687Y-11781531D02*
X3984211Y-11800579D01*
X3984211Y-11800579D02*
X3993735Y-11838674D01*
X3993735Y-11838674D02*
X3993735Y-11886293D01*
X3993735Y-11886293D02*
X3984211Y-11924388D01*
X3984211Y-11924388D02*
X3974687Y-11943436D01*
X3974687Y-11943436D02*
X3965164Y-11952960D01*
X3965164Y-11952960D02*
X3946116Y-11962484D01*
X3946116Y-11962484D02*
X3927068Y-11962484D01*
X3927068Y-11962484D02*
X3908021Y-11952960D01*
X3908021Y-11952960D02*
X3898497Y-11943436D01*
X3898497Y-11943436D02*
X3888973Y-11924388D01*
X3888973Y-11924388D02*
X3879449Y-11886293D01*
X3879449Y-11886293D02*
X3879449Y-11838674D01*
X3879449Y-11838674D02*
X3888973Y-11800579D01*
X3888973Y-11800579D02*
X3898497Y-11781531D01*
X3898497Y-11781531D02*
X3908021Y-11772008D01*
X3908021Y-11772008D02*
X3927068Y-11762484D01*
X4165164Y-11829150D02*
X4165164Y-11962484D01*
X4117545Y-11752960D02*
X4069926Y-11895817D01*
X4069926Y-11895817D02*
X4193735Y-11895817D01*
X4250878Y-11762484D02*
X4384211Y-11762484D01*
X4384211Y-11762484D02*
X4298497Y-11962484D01*
X4450878Y-11781531D02*
X4460402Y-11772008D01*
X4460402Y-11772008D02*
X4479449Y-11762484D01*
X4479449Y-11762484D02*
X4527069Y-11762484D01*
X4527069Y-11762484D02*
X4546116Y-11772008D01*
X4546116Y-11772008D02*
X4555640Y-11781531D01*
X4555640Y-11781531D02*
X4565164Y-11800579D01*
X4565164Y-11800579D02*
X4565164Y-11819627D01*
X4565164Y-11819627D02*
X4555640Y-11848198D01*
X4555640Y-11848198D02*
X4441354Y-11962484D01*
X4441354Y-11962484D02*
X4565164Y-11962484D01*
X4641354Y-11762484D02*
X4641354Y-11800579D01*
X4717545Y-11762484D02*
X4717545Y-11800579D01*
X5012783Y-12038674D02*
X5003259Y-12029150D01*
X5003259Y-12029150D02*
X4984211Y-12000579D01*
X4984211Y-12000579D02*
X4974688Y-11981531D01*
X4974688Y-11981531D02*
X4965164Y-11952960D01*
X4965164Y-11952960D02*
X4955640Y-11905341D01*
X4955640Y-11905341D02*
X4955640Y-11867246D01*
X4955640Y-11867246D02*
X4965164Y-11819627D01*
X4965164Y-11819627D02*
X4974688Y-11791055D01*
X4974688Y-11791055D02*
X4984211Y-11772008D01*
X4984211Y-11772008D02*
X5003259Y-11743436D01*
X5003259Y-11743436D02*
X5012783Y-11733912D01*
X5184211Y-11762484D02*
X5088973Y-11762484D01*
X5088973Y-11762484D02*
X5079450Y-11857722D01*
X5079450Y-11857722D02*
X5088973Y-11848198D01*
X5088973Y-11848198D02*
X5108021Y-11838674D01*
X5108021Y-11838674D02*
X5155640Y-11838674D01*
X5155640Y-11838674D02*
X5174688Y-11848198D01*
X5174688Y-11848198D02*
X5184211Y-11857722D01*
X5184211Y-11857722D02*
X5193735Y-11876769D01*
X5193735Y-11876769D02*
X5193735Y-11924388D01*
X5193735Y-11924388D02*
X5184211Y-11943436D01*
X5184211Y-11943436D02*
X5174688Y-11952960D01*
X5174688Y-11952960D02*
X5155640Y-11962484D01*
X5155640Y-11962484D02*
X5108021Y-11962484D01*
X5108021Y-11962484D02*
X5088973Y-11952960D01*
X5088973Y-11952960D02*
X5079450Y-11943436D01*
X5431831Y-11962484D02*
X5431831Y-11762484D01*
X5517545Y-11962484D02*
X5517545Y-11857722D01*
X5517545Y-11857722D02*
X5508021Y-11838674D01*
X5508021Y-11838674D02*
X5488973Y-11829150D01*
X5488973Y-11829150D02*
X5460402Y-11829150D01*
X5460402Y-11829150D02*
X5441354Y-11838674D01*
X5441354Y-11838674D02*
X5431831Y-11848198D01*
X5641354Y-11962484D02*
X5622307Y-11952960D01*
X5622307Y-11952960D02*
X5612783Y-11943436D01*
X5612783Y-11943436D02*
X5603259Y-11924388D01*
X5603259Y-11924388D02*
X5603259Y-11867246D01*
X5603259Y-11867246D02*
X5612783Y-11848198D01*
X5612783Y-11848198D02*
X5622307Y-11838674D01*
X5622307Y-11838674D02*
X5641354Y-11829150D01*
X5641354Y-11829150D02*
X5669926Y-11829150D01*
X5669926Y-11829150D02*
X5688973Y-11838674D01*
X5688973Y-11838674D02*
X5698497Y-11848198D01*
X5698497Y-11848198D02*
X5708021Y-11867246D01*
X5708021Y-11867246D02*
X5708021Y-11924388D01*
X5708021Y-11924388D02*
X5698497Y-11943436D01*
X5698497Y-11943436D02*
X5688973Y-11952960D01*
X5688973Y-11952960D02*
X5669926Y-11962484D01*
X5669926Y-11962484D02*
X5641354Y-11962484D01*
X5822307Y-11962484D02*
X5803259Y-11952960D01*
X5803259Y-11952960D02*
X5793735Y-11933912D01*
X5793735Y-11933912D02*
X5793735Y-11762484D01*
X5974688Y-11952960D02*
X5955640Y-11962484D01*
X5955640Y-11962484D02*
X5917545Y-11962484D01*
X5917545Y-11962484D02*
X5898497Y-11952960D01*
X5898497Y-11952960D02*
X5888973Y-11933912D01*
X5888973Y-11933912D02*
X5888973Y-11857722D01*
X5888973Y-11857722D02*
X5898497Y-11838674D01*
X5898497Y-11838674D02*
X5917545Y-11829150D01*
X5917545Y-11829150D02*
X5955640Y-11829150D01*
X5955640Y-11829150D02*
X5974688Y-11838674D01*
X5974688Y-11838674D02*
X5984211Y-11857722D01*
X5984211Y-11857722D02*
X5984211Y-11876769D01*
X5984211Y-11876769D02*
X5888973Y-11895817D01*
X6060402Y-11952960D02*
X6079450Y-11962484D01*
X6079450Y-11962484D02*
X6117545Y-11962484D01*
X6117545Y-11962484D02*
X6136592Y-11952960D01*
X6136592Y-11952960D02*
X6146116Y-11933912D01*
X6146116Y-11933912D02*
X6146116Y-11924388D01*
X6146116Y-11924388D02*
X6136592Y-11905341D01*
X6136592Y-11905341D02*
X6117545Y-11895817D01*
X6117545Y-11895817D02*
X6088973Y-11895817D01*
X6088973Y-11895817D02*
X6069926Y-11886293D01*
X6069926Y-11886293D02*
X6060402Y-11867246D01*
X6060402Y-11867246D02*
X6060402Y-11857722D01*
X6060402Y-11857722D02*
X6069926Y-11838674D01*
X6069926Y-11838674D02*
X6088973Y-11829150D01*
X6088973Y-11829150D02*
X6117545Y-11829150D01*
X6117545Y-11829150D02*
X6136592Y-11838674D01*
X6212783Y-12038674D02*
X6222307Y-12029150D01*
X6222307Y-12029150D02*
X6241354Y-12000579D01*
X6241354Y-12000579D02*
X6250878Y-11981531D01*
X6250878Y-11981531D02*
X6260402Y-11952960D01*
X6260402Y-11952960D02*
X6269926Y-11905341D01*
X6269926Y-11905341D02*
X6269926Y-11867246D01*
X6269926Y-11867246D02*
X6260402Y-11819627D01*
X6260402Y-11819627D02*
X6250878Y-11791055D01*
X6250878Y-11791055D02*
X6241354Y-11772008D01*
X6241354Y-11772008D02*
X6222307Y-11743436D01*
X6222307Y-11743436D02*
X6212783Y-11733912D01*
X6574688Y-12038674D02*
X6565164Y-12029150D01*
X6565164Y-12029150D02*
X6546116Y-12000579D01*
X6546116Y-12000579D02*
X6536592Y-11981531D01*
X6536592Y-11981531D02*
X6527069Y-11952960D01*
X6527069Y-11952960D02*
X6517545Y-11905341D01*
X6517545Y-11905341D02*
X6517545Y-11867246D01*
X6517545Y-11867246D02*
X6527069Y-11819627D01*
X6527069Y-11819627D02*
X6536592Y-11791055D01*
X6536592Y-11791055D02*
X6546116Y-11772008D01*
X6546116Y-11772008D02*
X6565164Y-11743436D01*
X6565164Y-11743436D02*
X6574688Y-11733912D01*
X6650878Y-11829150D02*
X6650878Y-11962484D01*
X6650878Y-11848198D02*
X6660402Y-11838674D01*
X6660402Y-11838674D02*
X6679450Y-11829150D01*
X6679450Y-11829150D02*
X6708021Y-11829150D01*
X6708021Y-11829150D02*
X6727069Y-11838674D01*
X6727069Y-11838674D02*
X6736592Y-11857722D01*
X6736592Y-11857722D02*
X6736592Y-11962484D01*
X6860402Y-11962484D02*
X6841354Y-11952960D01*
X6841354Y-11952960D02*
X6831831Y-11943436D01*
X6831831Y-11943436D02*
X6822307Y-11924388D01*
X6822307Y-11924388D02*
X6822307Y-11867246D01*
X6822307Y-11867246D02*
X6831831Y-11848198D01*
X6831831Y-11848198D02*
X6841354Y-11838674D01*
X6841354Y-11838674D02*
X6860402Y-11829150D01*
X6860402Y-11829150D02*
X6888973Y-11829150D01*
X6888973Y-11829150D02*
X6908021Y-11838674D01*
X6908021Y-11838674D02*
X6917545Y-11848198D01*
X6917545Y-11848198D02*
X6927069Y-11867246D01*
X6927069Y-11867246D02*
X6927069Y-11924388D01*
X6927069Y-11924388D02*
X6917545Y-11943436D01*
X6917545Y-11943436D02*
X6908021Y-11952960D01*
X6908021Y-11952960D02*
X6888973Y-11962484D01*
X6888973Y-11962484D02*
X6860402Y-11962484D01*
X6984212Y-11829150D02*
X7060402Y-11829150D01*
X7012783Y-11762484D02*
X7012783Y-11933912D01*
X7012783Y-11933912D02*
X7022307Y-11952960D01*
X7022307Y-11952960D02*
X7041354Y-11962484D01*
X7041354Y-11962484D02*
X7060402Y-11962484D01*
X7279450Y-11829150D02*
X7279450Y-12029150D01*
X7279450Y-11838674D02*
X7298497Y-11829150D01*
X7298497Y-11829150D02*
X7336593Y-11829150D01*
X7336593Y-11829150D02*
X7355640Y-11838674D01*
X7355640Y-11838674D02*
X7365164Y-11848198D01*
X7365164Y-11848198D02*
X7374688Y-11867246D01*
X7374688Y-11867246D02*
X7374688Y-11924388D01*
X7374688Y-11924388D02*
X7365164Y-11943436D01*
X7365164Y-11943436D02*
X7355640Y-11952960D01*
X7355640Y-11952960D02*
X7336593Y-11962484D01*
X7336593Y-11962484D02*
X7298497Y-11962484D01*
X7298497Y-11962484D02*
X7279450Y-11952960D01*
X7488973Y-11962484D02*
X7469926Y-11952960D01*
X7469926Y-11952960D02*
X7460402Y-11933912D01*
X7460402Y-11933912D02*
X7460402Y-11762484D01*
X7650878Y-11962484D02*
X7650878Y-11857722D01*
X7650878Y-11857722D02*
X7641354Y-11838674D01*
X7641354Y-11838674D02*
X7622307Y-11829150D01*
X7622307Y-11829150D02*
X7584212Y-11829150D01*
X7584212Y-11829150D02*
X7565164Y-11838674D01*
X7650878Y-11952960D02*
X7631831Y-11962484D01*
X7631831Y-11962484D02*
X7584212Y-11962484D01*
X7584212Y-11962484D02*
X7565164Y-11952960D01*
X7565164Y-11952960D02*
X7555640Y-11933912D01*
X7555640Y-11933912D02*
X7555640Y-11914865D01*
X7555640Y-11914865D02*
X7565164Y-11895817D01*
X7565164Y-11895817D02*
X7584212Y-11886293D01*
X7584212Y-11886293D02*
X7631831Y-11886293D01*
X7631831Y-11886293D02*
X7650878Y-11876769D01*
X7717545Y-11829150D02*
X7793735Y-11829150D01*
X7746116Y-11762484D02*
X7746116Y-11933912D01*
X7746116Y-11933912D02*
X7755640Y-11952960D01*
X7755640Y-11952960D02*
X7774688Y-11962484D01*
X7774688Y-11962484D02*
X7793735Y-11962484D01*
X7936593Y-11952960D02*
X7917545Y-11962484D01*
X7917545Y-11962484D02*
X7879450Y-11962484D01*
X7879450Y-11962484D02*
X7860402Y-11952960D01*
X7860402Y-11952960D02*
X7850878Y-11933912D01*
X7850878Y-11933912D02*
X7850878Y-11857722D01*
X7850878Y-11857722D02*
X7860402Y-11838674D01*
X7860402Y-11838674D02*
X7879450Y-11829150D01*
X7879450Y-11829150D02*
X7917545Y-11829150D01*
X7917545Y-11829150D02*
X7936593Y-11838674D01*
X7936593Y-11838674D02*
X7946116Y-11857722D01*
X7946116Y-11857722D02*
X7946116Y-11876769D01*
X7946116Y-11876769D02*
X7850878Y-11895817D01*
X8117545Y-11962484D02*
X8117545Y-11762484D01*
X8117545Y-11952960D02*
X8098497Y-11962484D01*
X8098497Y-11962484D02*
X8060402Y-11962484D01*
X8060402Y-11962484D02*
X8041354Y-11952960D01*
X8041354Y-11952960D02*
X8031831Y-11943436D01*
X8031831Y-11943436D02*
X8022307Y-11924388D01*
X8022307Y-11924388D02*
X8022307Y-11867246D01*
X8022307Y-11867246D02*
X8031831Y-11848198D01*
X8031831Y-11848198D02*
X8041354Y-11838674D01*
X8041354Y-11838674D02*
X8060402Y-11829150D01*
X8060402Y-11829150D02*
X8098497Y-11829150D01*
X8098497Y-11829150D02*
X8117545Y-11838674D01*
X8193735Y-12038674D02*
X8203259Y-12029150D01*
X8203259Y-12029150D02*
X8222307Y-12000579D01*
X8222307Y-12000579D02*
X8231831Y-11981531D01*
X8231831Y-11981531D02*
X8241354Y-11952960D01*
X8241354Y-11952960D02*
X8250878Y-11905341D01*
X8250878Y-11905341D02*
X8250878Y-11867246D01*
X8250878Y-11867246D02*
X8241354Y-11819627D01*
X8241354Y-11819627D02*
X8231831Y-11791055D01*
X8231831Y-11791055D02*
X8222307Y-11772008D01*
X8222307Y-11772008D02*
X8203259Y-11743436D01*
X8203259Y-11743436D02*
X8193735Y-11733912D01*
X1437720Y-12135000D02*
G75*
G03*
X1437720Y-12135000I-100000J0D01*
G01*
X1688973Y-12045531D02*
X1698497Y-12036008D01*
X1698497Y-12036008D02*
X1717544Y-12026484D01*
X1717544Y-12026484D02*
X1765163Y-12026484D01*
X1765163Y-12026484D02*
X1784211Y-12036008D01*
X1784211Y-12036008D02*
X1793735Y-12045531D01*
X1793735Y-12045531D02*
X1803259Y-12064579D01*
X1803259Y-12064579D02*
X1803259Y-12083627D01*
X1803259Y-12083627D02*
X1793735Y-12112198D01*
X1793735Y-12112198D02*
X1679449Y-12226484D01*
X1679449Y-12226484D02*
X1803259Y-12226484D01*
X1888973Y-12207436D02*
X1898497Y-12216960D01*
X1898497Y-12216960D02*
X1888973Y-12226484D01*
X1888973Y-12226484D02*
X1879449Y-12216960D01*
X1879449Y-12216960D02*
X1888973Y-12207436D01*
X1888973Y-12207436D02*
X1888973Y-12226484D01*
X2069925Y-12093150D02*
X2069925Y-12226484D01*
X2022306Y-12016960D02*
X1974687Y-12159817D01*
X1974687Y-12159817D02*
X2098497Y-12159817D01*
X2212783Y-12026484D02*
X2231830Y-12026484D01*
X2231830Y-12026484D02*
X2250878Y-12036008D01*
X2250878Y-12036008D02*
X2260402Y-12045531D01*
X2260402Y-12045531D02*
X2269925Y-12064579D01*
X2269925Y-12064579D02*
X2279449Y-12102674D01*
X2279449Y-12102674D02*
X2279449Y-12150293D01*
X2279449Y-12150293D02*
X2269925Y-12188388D01*
X2269925Y-12188388D02*
X2260402Y-12207436D01*
X2260402Y-12207436D02*
X2250878Y-12216960D01*
X2250878Y-12216960D02*
X2231830Y-12226484D01*
X2231830Y-12226484D02*
X2212783Y-12226484D01*
X2212783Y-12226484D02*
X2193735Y-12216960D01*
X2193735Y-12216960D02*
X2184211Y-12207436D01*
X2184211Y-12207436D02*
X2174687Y-12188388D01*
X2174687Y-12188388D02*
X2165164Y-12150293D01*
X2165164Y-12150293D02*
X2165164Y-12102674D01*
X2165164Y-12102674D02*
X2174687Y-12064579D01*
X2174687Y-12064579D02*
X2184211Y-12045531D01*
X2184211Y-12045531D02*
X2193735Y-12036008D01*
X2193735Y-12036008D02*
X2212783Y-12026484D01*
X2403259Y-12026484D02*
X2422306Y-12026484D01*
X2422306Y-12026484D02*
X2441354Y-12036008D01*
X2441354Y-12036008D02*
X2450878Y-12045531D01*
X2450878Y-12045531D02*
X2460402Y-12064579D01*
X2460402Y-12064579D02*
X2469925Y-12102674D01*
X2469925Y-12102674D02*
X2469925Y-12150293D01*
X2469925Y-12150293D02*
X2460402Y-12188388D01*
X2460402Y-12188388D02*
X2450878Y-12207436D01*
X2450878Y-12207436D02*
X2441354Y-12216960D01*
X2441354Y-12216960D02*
X2422306Y-12226484D01*
X2422306Y-12226484D02*
X2403259Y-12226484D01*
X2403259Y-12226484D02*
X2384211Y-12216960D01*
X2384211Y-12216960D02*
X2374687Y-12207436D01*
X2374687Y-12207436D02*
X2365164Y-12188388D01*
X2365164Y-12188388D02*
X2355640Y-12150293D01*
X2355640Y-12150293D02*
X2355640Y-12102674D01*
X2355640Y-12102674D02*
X2365164Y-12064579D01*
X2365164Y-12064579D02*
X2374687Y-12045531D01*
X2374687Y-12045531D02*
X2384211Y-12036008D01*
X2384211Y-12036008D02*
X2403259Y-12026484D01*
X2555640Y-12226484D02*
X2555640Y-12093150D01*
X2555640Y-12112198D02*
X2565164Y-12102674D01*
X2565164Y-12102674D02*
X2584211Y-12093150D01*
X2584211Y-12093150D02*
X2612783Y-12093150D01*
X2612783Y-12093150D02*
X2631830Y-12102674D01*
X2631830Y-12102674D02*
X2641354Y-12121722D01*
X2641354Y-12121722D02*
X2641354Y-12226484D01*
X2641354Y-12121722D02*
X2650878Y-12102674D01*
X2650878Y-12102674D02*
X2669925Y-12093150D01*
X2669925Y-12093150D02*
X2698497Y-12093150D01*
X2698497Y-12093150D02*
X2717545Y-12102674D01*
X2717545Y-12102674D02*
X2727068Y-12121722D01*
X2727068Y-12121722D02*
X2727068Y-12226484D01*
X2822306Y-12226484D02*
X2822306Y-12093150D01*
X2822306Y-12112198D02*
X2831830Y-12102674D01*
X2831830Y-12102674D02*
X2850878Y-12093150D01*
X2850878Y-12093150D02*
X2879449Y-12093150D01*
X2879449Y-12093150D02*
X2898497Y-12102674D01*
X2898497Y-12102674D02*
X2908021Y-12121722D01*
X2908021Y-12121722D02*
X2908021Y-12226484D01*
X2908021Y-12121722D02*
X2917544Y-12102674D01*
X2917544Y-12102674D02*
X2936592Y-12093150D01*
X2936592Y-12093150D02*
X2965163Y-12093150D01*
X2965163Y-12093150D02*
X2984211Y-12102674D01*
X2984211Y-12102674D02*
X2993735Y-12121722D01*
X2993735Y-12121722D02*
X2993735Y-12226484D01*
X3384211Y-12016960D02*
X3212783Y-12274103D01*
X3641354Y-12026484D02*
X3660402Y-12026484D01*
X3660402Y-12026484D02*
X3679449Y-12036008D01*
X3679449Y-12036008D02*
X3688973Y-12045531D01*
X3688973Y-12045531D02*
X3698497Y-12064579D01*
X3698497Y-12064579D02*
X3708021Y-12102674D01*
X3708021Y-12102674D02*
X3708021Y-12150293D01*
X3708021Y-12150293D02*
X3698497Y-12188388D01*
X3698497Y-12188388D02*
X3688973Y-12207436D01*
X3688973Y-12207436D02*
X3679449Y-12216960D01*
X3679449Y-12216960D02*
X3660402Y-12226484D01*
X3660402Y-12226484D02*
X3641354Y-12226484D01*
X3641354Y-12226484D02*
X3622306Y-12216960D01*
X3622306Y-12216960D02*
X3612783Y-12207436D01*
X3612783Y-12207436D02*
X3603259Y-12188388D01*
X3603259Y-12188388D02*
X3593735Y-12150293D01*
X3593735Y-12150293D02*
X3593735Y-12102674D01*
X3593735Y-12102674D02*
X3603259Y-12064579D01*
X3603259Y-12064579D02*
X3612783Y-12045531D01*
X3612783Y-12045531D02*
X3622306Y-12036008D01*
X3622306Y-12036008D02*
X3641354Y-12026484D01*
X3793735Y-12207436D02*
X3803259Y-12216960D01*
X3803259Y-12216960D02*
X3793735Y-12226484D01*
X3793735Y-12226484D02*
X3784211Y-12216960D01*
X3784211Y-12216960D02*
X3793735Y-12207436D01*
X3793735Y-12207436D02*
X3793735Y-12226484D01*
X3927068Y-12026484D02*
X3946116Y-12026484D01*
X3946116Y-12026484D02*
X3965164Y-12036008D01*
X3965164Y-12036008D02*
X3974687Y-12045531D01*
X3974687Y-12045531D02*
X3984211Y-12064579D01*
X3984211Y-12064579D02*
X3993735Y-12102674D01*
X3993735Y-12102674D02*
X3993735Y-12150293D01*
X3993735Y-12150293D02*
X3984211Y-12188388D01*
X3984211Y-12188388D02*
X3974687Y-12207436D01*
X3974687Y-12207436D02*
X3965164Y-12216960D01*
X3965164Y-12216960D02*
X3946116Y-12226484D01*
X3946116Y-12226484D02*
X3927068Y-12226484D01*
X3927068Y-12226484D02*
X3908021Y-12216960D01*
X3908021Y-12216960D02*
X3898497Y-12207436D01*
X3898497Y-12207436D02*
X3888973Y-12188388D01*
X3888973Y-12188388D02*
X3879449Y-12150293D01*
X3879449Y-12150293D02*
X3879449Y-12102674D01*
X3879449Y-12102674D02*
X3888973Y-12064579D01*
X3888973Y-12064579D02*
X3898497Y-12045531D01*
X3898497Y-12045531D02*
X3908021Y-12036008D01*
X3908021Y-12036008D02*
X3927068Y-12026484D01*
X4088973Y-12226484D02*
X4127068Y-12226484D01*
X4127068Y-12226484D02*
X4146116Y-12216960D01*
X4146116Y-12216960D02*
X4155640Y-12207436D01*
X4155640Y-12207436D02*
X4174687Y-12178865D01*
X4174687Y-12178865D02*
X4184211Y-12140769D01*
X4184211Y-12140769D02*
X4184211Y-12064579D01*
X4184211Y-12064579D02*
X4174687Y-12045531D01*
X4174687Y-12045531D02*
X4165164Y-12036008D01*
X4165164Y-12036008D02*
X4146116Y-12026484D01*
X4146116Y-12026484D02*
X4108021Y-12026484D01*
X4108021Y-12026484D02*
X4088973Y-12036008D01*
X4088973Y-12036008D02*
X4079449Y-12045531D01*
X4079449Y-12045531D02*
X4069926Y-12064579D01*
X4069926Y-12064579D02*
X4069926Y-12112198D01*
X4069926Y-12112198D02*
X4079449Y-12131246D01*
X4079449Y-12131246D02*
X4088973Y-12140769D01*
X4088973Y-12140769D02*
X4108021Y-12150293D01*
X4108021Y-12150293D02*
X4146116Y-12150293D01*
X4146116Y-12150293D02*
X4165164Y-12140769D01*
X4165164Y-12140769D02*
X4174687Y-12131246D01*
X4174687Y-12131246D02*
X4184211Y-12112198D01*
X4355640Y-12093150D02*
X4355640Y-12226484D01*
X4308021Y-12016960D02*
X4260402Y-12159817D01*
X4260402Y-12159817D02*
X4384211Y-12159817D01*
X4555640Y-12026484D02*
X4460402Y-12026484D01*
X4460402Y-12026484D02*
X4450878Y-12121722D01*
X4450878Y-12121722D02*
X4460402Y-12112198D01*
X4460402Y-12112198D02*
X4479449Y-12102674D01*
X4479449Y-12102674D02*
X4527069Y-12102674D01*
X4527069Y-12102674D02*
X4546116Y-12112198D01*
X4546116Y-12112198D02*
X4555640Y-12121722D01*
X4555640Y-12121722D02*
X4565164Y-12140769D01*
X4565164Y-12140769D02*
X4565164Y-12188388D01*
X4565164Y-12188388D02*
X4555640Y-12207436D01*
X4555640Y-12207436D02*
X4546116Y-12216960D01*
X4546116Y-12216960D02*
X4527069Y-12226484D01*
X4527069Y-12226484D02*
X4479449Y-12226484D01*
X4479449Y-12226484D02*
X4460402Y-12216960D01*
X4460402Y-12216960D02*
X4450878Y-12207436D01*
X4641354Y-12026484D02*
X4641354Y-12064579D01*
X4717545Y-12026484D02*
X4717545Y-12064579D01*
X5012783Y-12302674D02*
X5003259Y-12293150D01*
X5003259Y-12293150D02*
X4984211Y-12264579D01*
X4984211Y-12264579D02*
X4974688Y-12245531D01*
X4974688Y-12245531D02*
X4965164Y-12216960D01*
X4965164Y-12216960D02*
X4955640Y-12169341D01*
X4955640Y-12169341D02*
X4955640Y-12131246D01*
X4955640Y-12131246D02*
X4965164Y-12083627D01*
X4965164Y-12083627D02*
X4974688Y-12055055D01*
X4974688Y-12055055D02*
X4984211Y-12036008D01*
X4984211Y-12036008D02*
X5003259Y-12007436D01*
X5003259Y-12007436D02*
X5012783Y-11997912D01*
X5079450Y-12045531D02*
X5088973Y-12036008D01*
X5088973Y-12036008D02*
X5108021Y-12026484D01*
X5108021Y-12026484D02*
X5155640Y-12026484D01*
X5155640Y-12026484D02*
X5174688Y-12036008D01*
X5174688Y-12036008D02*
X5184211Y-12045531D01*
X5184211Y-12045531D02*
X5193735Y-12064579D01*
X5193735Y-12064579D02*
X5193735Y-12083627D01*
X5193735Y-12083627D02*
X5184211Y-12112198D01*
X5184211Y-12112198D02*
X5069926Y-12226484D01*
X5069926Y-12226484D02*
X5193735Y-12226484D01*
X5431831Y-12226484D02*
X5431831Y-12026484D01*
X5517545Y-12226484D02*
X5517545Y-12121722D01*
X5517545Y-12121722D02*
X5508021Y-12102674D01*
X5508021Y-12102674D02*
X5488973Y-12093150D01*
X5488973Y-12093150D02*
X5460402Y-12093150D01*
X5460402Y-12093150D02*
X5441354Y-12102674D01*
X5441354Y-12102674D02*
X5431831Y-12112198D01*
X5641354Y-12226484D02*
X5622307Y-12216960D01*
X5622307Y-12216960D02*
X5612783Y-12207436D01*
X5612783Y-12207436D02*
X5603259Y-12188388D01*
X5603259Y-12188388D02*
X5603259Y-12131246D01*
X5603259Y-12131246D02*
X5612783Y-12112198D01*
X5612783Y-12112198D02*
X5622307Y-12102674D01*
X5622307Y-12102674D02*
X5641354Y-12093150D01*
X5641354Y-12093150D02*
X5669926Y-12093150D01*
X5669926Y-12093150D02*
X5688973Y-12102674D01*
X5688973Y-12102674D02*
X5698497Y-12112198D01*
X5698497Y-12112198D02*
X5708021Y-12131246D01*
X5708021Y-12131246D02*
X5708021Y-12188388D01*
X5708021Y-12188388D02*
X5698497Y-12207436D01*
X5698497Y-12207436D02*
X5688973Y-12216960D01*
X5688973Y-12216960D02*
X5669926Y-12226484D01*
X5669926Y-12226484D02*
X5641354Y-12226484D01*
X5822307Y-12226484D02*
X5803259Y-12216960D01*
X5803259Y-12216960D02*
X5793735Y-12197912D01*
X5793735Y-12197912D02*
X5793735Y-12026484D01*
X5974688Y-12216960D02*
X5955640Y-12226484D01*
X5955640Y-12226484D02*
X5917545Y-12226484D01*
X5917545Y-12226484D02*
X5898497Y-12216960D01*
X5898497Y-12216960D02*
X5888973Y-12197912D01*
X5888973Y-12197912D02*
X5888973Y-12121722D01*
X5888973Y-12121722D02*
X5898497Y-12102674D01*
X5898497Y-12102674D02*
X5917545Y-12093150D01*
X5917545Y-12093150D02*
X5955640Y-12093150D01*
X5955640Y-12093150D02*
X5974688Y-12102674D01*
X5974688Y-12102674D02*
X5984211Y-12121722D01*
X5984211Y-12121722D02*
X5984211Y-12140769D01*
X5984211Y-12140769D02*
X5888973Y-12159817D01*
X6060402Y-12216960D02*
X6079450Y-12226484D01*
X6079450Y-12226484D02*
X6117545Y-12226484D01*
X6117545Y-12226484D02*
X6136592Y-12216960D01*
X6136592Y-12216960D02*
X6146116Y-12197912D01*
X6146116Y-12197912D02*
X6146116Y-12188388D01*
X6146116Y-12188388D02*
X6136592Y-12169341D01*
X6136592Y-12169341D02*
X6117545Y-12159817D01*
X6117545Y-12159817D02*
X6088973Y-12159817D01*
X6088973Y-12159817D02*
X6069926Y-12150293D01*
X6069926Y-12150293D02*
X6060402Y-12131246D01*
X6060402Y-12131246D02*
X6060402Y-12121722D01*
X6060402Y-12121722D02*
X6069926Y-12102674D01*
X6069926Y-12102674D02*
X6088973Y-12093150D01*
X6088973Y-12093150D02*
X6117545Y-12093150D01*
X6117545Y-12093150D02*
X6136592Y-12102674D01*
X6212783Y-12302674D02*
X6222307Y-12293150D01*
X6222307Y-12293150D02*
X6241354Y-12264579D01*
X6241354Y-12264579D02*
X6250878Y-12245531D01*
X6250878Y-12245531D02*
X6260402Y-12216960D01*
X6260402Y-12216960D02*
X6269926Y-12169341D01*
X6269926Y-12169341D02*
X6269926Y-12131246D01*
X6269926Y-12131246D02*
X6260402Y-12083627D01*
X6260402Y-12083627D02*
X6250878Y-12055055D01*
X6250878Y-12055055D02*
X6241354Y-12036008D01*
X6241354Y-12036008D02*
X6222307Y-12007436D01*
X6222307Y-12007436D02*
X6212783Y-11997912D01*
X6574688Y-12302674D02*
X6565164Y-12293150D01*
X6565164Y-12293150D02*
X6546116Y-12264579D01*
X6546116Y-12264579D02*
X6536592Y-12245531D01*
X6536592Y-12245531D02*
X6527069Y-12216960D01*
X6527069Y-12216960D02*
X6517545Y-12169341D01*
X6517545Y-12169341D02*
X6517545Y-12131246D01*
X6517545Y-12131246D02*
X6527069Y-12083627D01*
X6527069Y-12083627D02*
X6536592Y-12055055D01*
X6536592Y-12055055D02*
X6546116Y-12036008D01*
X6546116Y-12036008D02*
X6565164Y-12007436D01*
X6565164Y-12007436D02*
X6574688Y-11997912D01*
X6650878Y-12093150D02*
X6650878Y-12226484D01*
X6650878Y-12112198D02*
X6660402Y-12102674D01*
X6660402Y-12102674D02*
X6679450Y-12093150D01*
X6679450Y-12093150D02*
X6708021Y-12093150D01*
X6708021Y-12093150D02*
X6727069Y-12102674D01*
X6727069Y-12102674D02*
X6736592Y-12121722D01*
X6736592Y-12121722D02*
X6736592Y-12226484D01*
X6860402Y-12226484D02*
X6841354Y-12216960D01*
X6841354Y-12216960D02*
X6831831Y-12207436D01*
X6831831Y-12207436D02*
X6822307Y-12188388D01*
X6822307Y-12188388D02*
X6822307Y-12131246D01*
X6822307Y-12131246D02*
X6831831Y-12112198D01*
X6831831Y-12112198D02*
X6841354Y-12102674D01*
X6841354Y-12102674D02*
X6860402Y-12093150D01*
X6860402Y-12093150D02*
X6888973Y-12093150D01*
X6888973Y-12093150D02*
X6908021Y-12102674D01*
X6908021Y-12102674D02*
X6917545Y-12112198D01*
X6917545Y-12112198D02*
X6927069Y-12131246D01*
X6927069Y-12131246D02*
X6927069Y-12188388D01*
X6927069Y-12188388D02*
X6917545Y-12207436D01*
X6917545Y-12207436D02*
X6908021Y-12216960D01*
X6908021Y-12216960D02*
X6888973Y-12226484D01*
X6888973Y-12226484D02*
X6860402Y-12226484D01*
X6984212Y-12093150D02*
X7060402Y-12093150D01*
X7012783Y-12026484D02*
X7012783Y-12197912D01*
X7012783Y-12197912D02*
X7022307Y-12216960D01*
X7022307Y-12216960D02*
X7041354Y-12226484D01*
X7041354Y-12226484D02*
X7060402Y-12226484D01*
X7279450Y-12093150D02*
X7279450Y-12293150D01*
X7279450Y-12102674D02*
X7298497Y-12093150D01*
X7298497Y-12093150D02*
X7336593Y-12093150D01*
X7336593Y-12093150D02*
X7355640Y-12102674D01*
X7355640Y-12102674D02*
X7365164Y-12112198D01*
X7365164Y-12112198D02*
X7374688Y-12131246D01*
X7374688Y-12131246D02*
X7374688Y-12188388D01*
X7374688Y-12188388D02*
X7365164Y-12207436D01*
X7365164Y-12207436D02*
X7355640Y-12216960D01*
X7355640Y-12216960D02*
X7336593Y-12226484D01*
X7336593Y-12226484D02*
X7298497Y-12226484D01*
X7298497Y-12226484D02*
X7279450Y-12216960D01*
X7488973Y-12226484D02*
X7469926Y-12216960D01*
X7469926Y-12216960D02*
X7460402Y-12197912D01*
X7460402Y-12197912D02*
X7460402Y-12026484D01*
X7650878Y-12226484D02*
X7650878Y-12121722D01*
X7650878Y-12121722D02*
X7641354Y-12102674D01*
X7641354Y-12102674D02*
X7622307Y-12093150D01*
X7622307Y-12093150D02*
X7584212Y-12093150D01*
X7584212Y-12093150D02*
X7565164Y-12102674D01*
X7650878Y-12216960D02*
X7631831Y-12226484D01*
X7631831Y-12226484D02*
X7584212Y-12226484D01*
X7584212Y-12226484D02*
X7565164Y-12216960D01*
X7565164Y-12216960D02*
X7555640Y-12197912D01*
X7555640Y-12197912D02*
X7555640Y-12178865D01*
X7555640Y-12178865D02*
X7565164Y-12159817D01*
X7565164Y-12159817D02*
X7584212Y-12150293D01*
X7584212Y-12150293D02*
X7631831Y-12150293D01*
X7631831Y-12150293D02*
X7650878Y-12140769D01*
X7717545Y-12093150D02*
X7793735Y-12093150D01*
X7746116Y-12026484D02*
X7746116Y-12197912D01*
X7746116Y-12197912D02*
X7755640Y-12216960D01*
X7755640Y-12216960D02*
X7774688Y-12226484D01*
X7774688Y-12226484D02*
X7793735Y-12226484D01*
X7936593Y-12216960D02*
X7917545Y-12226484D01*
X7917545Y-12226484D02*
X7879450Y-12226484D01*
X7879450Y-12226484D02*
X7860402Y-12216960D01*
X7860402Y-12216960D02*
X7850878Y-12197912D01*
X7850878Y-12197912D02*
X7850878Y-12121722D01*
X7850878Y-12121722D02*
X7860402Y-12102674D01*
X7860402Y-12102674D02*
X7879450Y-12093150D01*
X7879450Y-12093150D02*
X7917545Y-12093150D01*
X7917545Y-12093150D02*
X7936593Y-12102674D01*
X7936593Y-12102674D02*
X7946116Y-12121722D01*
X7946116Y-12121722D02*
X7946116Y-12140769D01*
X7946116Y-12140769D02*
X7850878Y-12159817D01*
X8117545Y-12226484D02*
X8117545Y-12026484D01*
X8117545Y-12216960D02*
X8098497Y-12226484D01*
X8098497Y-12226484D02*
X8060402Y-12226484D01*
X8060402Y-12226484D02*
X8041354Y-12216960D01*
X8041354Y-12216960D02*
X8031831Y-12207436D01*
X8031831Y-12207436D02*
X8022307Y-12188388D01*
X8022307Y-12188388D02*
X8022307Y-12131246D01*
X8022307Y-12131246D02*
X8031831Y-12112198D01*
X8031831Y-12112198D02*
X8041354Y-12102674D01*
X8041354Y-12102674D02*
X8060402Y-12093150D01*
X8060402Y-12093150D02*
X8098497Y-12093150D01*
X8098497Y-12093150D02*
X8117545Y-12102674D01*
X8193735Y-12302674D02*
X8203259Y-12293150D01*
X8203259Y-12293150D02*
X8222307Y-12264579D01*
X8222307Y-12264579D02*
X8231831Y-12245531D01*
X8231831Y-12245531D02*
X8241354Y-12216960D01*
X8241354Y-12216960D02*
X8250878Y-12169341D01*
X8250878Y-12169341D02*
X8250878Y-12131246D01*
X8250878Y-12131246D02*
X8241354Y-12083627D01*
X8241354Y-12083627D02*
X8231831Y-12055055D01*
X8231831Y-12055055D02*
X8222307Y-12036008D01*
X8222307Y-12036008D02*
X8203259Y-12007436D01*
X8203259Y-12007436D02*
X8193735Y-11997912D01*
M02*
