M48
; DRILL file {KiCad (6.0.7)} date Mon Jan  2 01:59:52 2023
; FORMAT={-:-/ absolute / inch / decimal}
; #@! TF.CreationDate,2023-01-02T01:59:52+00:00
; #@! TF.GenerationSoftware,Kicad,Pcbnew,(6.0.7)
; #@! TF.FileFunction,Plated,1,2,PTH
FMAT,2
INCH
; #@! TA.AperFunction,Plated,PTH,ViaDrill
T1C0.0157
; #@! TA.AperFunction,Plated,PTH,ComponentDrill
T2C0.0315
; #@! TA.AperFunction,Plated,PTH,ComponentDrill
T3C0.0374
; #@! TA.AperFunction,Plated,PTH,ComponentDrill
T4C0.0390
; #@! TA.AperFunction,Plated,PTH,ComponentDrill
T5C0.0394
; #@! TA.AperFunction,Plated,PTH,ComponentDrill
T6C0.0512
; #@! TA.AperFunction,Plated,PTH,ComponentDrill
T7C0.0906
; #@! TA.AperFunction,Plated,PTH,ComponentDrill
T8C0.1063
%
G90
G05
T1
X2.0072Y-3.1467
X2.0122Y-3.8602
X2.0191Y-3.2964
X2.053Y-1.8959
X2.1549Y-2.9416
X2.1956Y-1.8709
X2.1978Y-2.9409
X2.2467Y-2.9411
X2.2516Y-1.6522
X2.2548Y-2.0435
X2.285Y-2.1317
X2.2876Y-3.5145
X2.3Y-1.8541
X2.307Y-3.178
X2.3086Y-2.2771
X2.3188Y-1.7429
X2.354Y-3.1078
X2.356Y-3.1766
X2.356Y-3.4099
X2.3616Y-3.4623
X2.372Y-3.5135
X2.4811Y-3.4865
X2.5515Y-1.8121
X2.5988Y-3.4109
X2.7861Y-3.2505
X2.7909Y-1.8155
X2.8485Y-3.3249
X2.8884Y-2.6194
X2.9088Y-1.7992
X3.1779Y-1.7777
X3.1987Y-1.7401
X3.3504Y-1.9015
X3.3871Y-3.0781
X3.4082Y-2.0326
X3.5528Y-2.2427
X3.6461Y-4.172
X3.8476Y-3.816
X3.9992Y-4.172
X4.0962Y-3.5964
X4.1315Y-3.0504
X4.1744Y-3.0804
X4.4723Y-3.1348
X4.8386Y-1.989
T2
X2.0187Y-1.953
X2.0187Y-2.553
X2.1187Y-1.953
X2.1187Y-2.553
X2.2187Y-1.953
X2.2187Y-2.553
X2.3187Y-1.953
X2.3187Y-2.553
X2.4187Y-1.953
X2.4187Y-2.553
X2.5187Y-1.953
X2.5187Y-2.553
X2.6187Y-1.953
X2.6187Y-2.553
X2.7187Y-1.953
X2.7187Y-2.553
X2.8187Y-1.953
X2.8187Y-2.553
X2.9187Y-1.953
X2.9187Y-2.553
X3.0187Y-1.953
X3.0187Y-2.553
X3.1187Y-1.953
X3.1187Y-2.553
X3.2187Y-1.953
X3.2187Y-2.553
X3.3187Y-1.953
X3.3187Y-2.553
X3.4187Y-1.953
X3.4187Y-2.553
X3.5187Y-1.953
X3.5187Y-2.553
X3.5504Y-2.9311
X3.5504Y-3.1232
X3.6187Y-1.953
X3.6187Y-2.553
X3.7187Y-1.953
X3.7187Y-2.553
X3.8187Y-1.953
X3.8187Y-2.553
X3.9187Y-1.953
X3.9187Y-2.553
X4.761Y-0.98
X4.761Y-1.0784
T3
X1.5582Y-3.672
X1.6566Y-3.672
X1.7354Y-3.672
X1.8338Y-3.672
T4
X2.8418Y-4.082
X3.019Y-4.082
X3.2518Y-4.081
X3.429Y-4.081
X4.6508Y-4.081
X4.828Y-4.081
T5
X1.7203Y-2.8461
X1.7203Y-2.9461
X1.7203Y-3.0461
X1.7203Y-3.1461
X1.7203Y-3.2461
X1.8203Y-2.8461
X1.8203Y-2.9461
X1.8203Y-3.0461
X1.8203Y-3.1461
X1.8203Y-3.2461
X1.877Y-0.998
X1.877Y-1.098
X1.877Y-1.4526
X1.877Y-1.5526
X1.977Y-0.998
X1.977Y-1.098
X1.977Y-1.4526
X1.977Y-1.5526
X2.077Y-0.998
X2.077Y-1.098
X2.077Y-1.4526
X2.077Y-1.5526
X2.177Y-0.998
X2.177Y-1.098
X2.177Y-1.4526
X2.177Y-1.5526
X2.277Y-0.998
X2.277Y-1.098
X2.277Y-1.4526
X2.277Y-1.5526
X2.377Y-0.998
X2.377Y-1.098
X2.377Y-1.4526
X2.377Y-1.5526
X2.477Y-0.998
X2.477Y-1.098
X2.477Y-1.4526
X2.477Y-1.5526
X2.577Y-0.998
X2.577Y-1.098
X2.577Y-1.4526
X2.577Y-1.5526
X2.677Y-0.998
X2.677Y-1.098
X2.677Y-1.4526
X2.677Y-1.5526
X2.777Y-0.998
X2.777Y-1.098
X2.777Y-1.4526
X2.777Y-1.5526
X2.877Y-0.998
X2.877Y-1.098
X2.877Y-1.4526
X2.877Y-1.5526
X2.977Y-0.998
X2.977Y-1.098
X2.977Y-1.4526
X2.977Y-1.5526
X3.077Y-0.998
X3.077Y-1.098
X3.077Y-1.4526
X3.077Y-1.5526
X3.177Y-0.998
X3.177Y-1.098
X3.177Y-1.4526
X3.177Y-1.5526
X3.277Y-0.998
X3.277Y-1.098
X3.277Y-1.4526
X3.277Y-1.5526
X3.377Y-0.998
X3.377Y-1.098
X3.377Y-1.4526
X3.377Y-1.5526
X3.477Y-0.998
X3.477Y-1.098
X3.477Y-1.4526
X3.477Y-1.5526
X3.577Y-0.998
X3.577Y-1.098
X3.577Y-1.4526
X3.577Y-1.5526
X3.677Y-0.998
X3.677Y-1.098
X3.677Y-1.4526
X3.677Y-1.5526
X3.777Y-0.998
X3.777Y-1.098
X3.777Y-1.4526
X3.777Y-1.5526
X3.877Y-0.998
X3.877Y-1.098
X3.877Y-1.4526
X3.877Y-1.5526
X3.977Y-0.998
X3.977Y-1.098
X3.977Y-1.4526
X3.977Y-1.5526
X4.077Y-0.998
X4.077Y-1.098
X4.077Y-1.4526
X4.077Y-1.5526
X4.177Y-0.998
X4.177Y-1.098
X4.177Y-1.4526
X4.177Y-1.5526
X4.277Y-0.998
X4.277Y-1.098
X4.277Y-1.4526
X4.277Y-1.5526
X4.599Y-2.125
X4.599Y-2.225
X4.599Y-2.325
X4.599Y-2.425
X4.599Y-2.525
X4.599Y-2.625
X4.601Y-2.805
X4.601Y-2.905
X4.601Y-3.005
X4.601Y-3.105
X4.601Y-3.205
X4.601Y-3.305
T6
X2.7922Y-3.984
X3.0682Y-3.984
X3.2022Y-3.983
X3.4782Y-3.983
X4.6012Y-3.983
X4.8772Y-3.983
T7
X1.4373Y-3.7787
X1.9547Y-3.7787
T8
X1.5068Y-1.0228
X3.2168Y-3.0228
T0
M30
