%TF.GenerationSoftware,KiCad,Pcbnew,(6.0.7)*%
%TF.CreationDate,2023-01-02T01:59:54+00:00*%
%TF.ProjectId,CPC464-2MINIUSIFACII,43504334-3634-42d3-924d-494e49555349,rev?*%
%TF.SameCoordinates,Original*%
%TF.FileFunction,Legend,Top*%
%TF.FilePolarity,Positive*%
%FSLAX46Y46*%
G04 Gerber Fmt 4.6, Leading zero omitted, Abs format (unit mm)*
G04 Created by KiCad (PCBNEW (6.0.7)) date 2023-01-02 01:59:54*
%MOMM*%
%LPD*%
G01*
G04 APERTURE LIST*
%ADD10C,0.225000*%
%ADD11C,0.150000*%
%ADD12C,0.100000*%
%ADD13C,0.120000*%
G04 APERTURE END LIST*
D10*
X100532609Y-95759590D02*
X100484990Y-95711971D01*
X100389752Y-95664352D01*
X100294514Y-95664352D01*
X100199276Y-95711971D01*
X100151657Y-95759590D01*
X100104038Y-95854828D01*
X100104038Y-95950066D01*
X100151657Y-96045304D01*
X100199276Y-96092923D01*
X100294514Y-96140542D01*
X100389752Y-96140542D01*
X100484990Y-96092923D01*
X100532609Y-96045304D01*
X100532609Y-95664352D02*
X100532609Y-96045304D01*
X100580228Y-96092923D01*
X100627847Y-96092923D01*
X100723085Y-96045304D01*
X100770704Y-95950066D01*
X100770704Y-95711971D01*
X100675466Y-95569114D01*
X100532609Y-95473876D01*
X100342133Y-95426257D01*
X100151657Y-95473876D01*
X100008800Y-95569114D01*
X99913561Y-95711971D01*
X99865942Y-95902447D01*
X99913561Y-96092923D01*
X100008800Y-96235780D01*
X100151657Y-96331019D01*
X100342133Y-96378638D01*
X100532609Y-96331019D01*
X100675466Y-96235780D01*
X101627847Y-95569114D02*
X101627847Y-96378638D01*
X101580228Y-96473876D01*
X101532609Y-96521495D01*
X101437371Y-96569114D01*
X101294514Y-96569114D01*
X101199276Y-96521495D01*
X101627847Y-96188161D02*
X101532609Y-96235780D01*
X101342133Y-96235780D01*
X101246895Y-96188161D01*
X101199276Y-96140542D01*
X101151657Y-96045304D01*
X101151657Y-95759590D01*
X101199276Y-95664352D01*
X101246895Y-95616733D01*
X101342133Y-95569114D01*
X101532609Y-95569114D01*
X101627847Y-95616733D01*
X102104038Y-96235780D02*
X102104038Y-95569114D01*
X102104038Y-95759590D02*
X102151657Y-95664352D01*
X102199276Y-95616733D01*
X102294514Y-95569114D01*
X102389752Y-95569114D01*
X103151657Y-96235780D02*
X103151657Y-95711971D01*
X103104038Y-95616733D01*
X103008800Y-95569114D01*
X102818323Y-95569114D01*
X102723085Y-95616733D01*
X103151657Y-96188161D02*
X103056419Y-96235780D01*
X102818323Y-96235780D01*
X102723085Y-96188161D01*
X102675466Y-96092923D01*
X102675466Y-95997685D01*
X102723085Y-95902447D01*
X102818323Y-95854828D01*
X103056419Y-95854828D01*
X103151657Y-95807209D01*
X103627847Y-95569114D02*
X103627847Y-96235780D01*
X103627847Y-95664352D02*
X103675466Y-95616733D01*
X103770704Y-95569114D01*
X103913561Y-95569114D01*
X104008800Y-95616733D01*
X104056419Y-95711971D01*
X104056419Y-96235780D01*
X104961180Y-96235780D02*
X104961180Y-95235780D01*
X104961180Y-96188161D02*
X104865942Y-96235780D01*
X104675466Y-96235780D01*
X104580228Y-96188161D01*
X104532609Y-96140542D01*
X104484990Y-96045304D01*
X104484990Y-95759590D01*
X104532609Y-95664352D01*
X104580228Y-95616733D01*
X104675466Y-95569114D01*
X104865942Y-95569114D01*
X104961180Y-95616733D01*
X105580228Y-96235780D02*
X105484990Y-96188161D01*
X105437371Y-96140542D01*
X105389752Y-96045304D01*
X105389752Y-95759590D01*
X105437371Y-95664352D01*
X105484990Y-95616733D01*
X105580228Y-95569114D01*
X105723085Y-95569114D01*
X105818323Y-95616733D01*
X105865942Y-95664352D01*
X105913561Y-95759590D01*
X105913561Y-96045304D01*
X105865942Y-96140542D01*
X105818323Y-96188161D01*
X105723085Y-96235780D01*
X105580228Y-96235780D01*
X106484990Y-96235780D02*
X106389752Y-96188161D01*
X106342133Y-96092923D01*
X106342133Y-95235780D01*
X107294514Y-96235780D02*
X107294514Y-95235780D01*
X107294514Y-96188161D02*
X107199276Y-96235780D01*
X107008800Y-96235780D01*
X106913561Y-96188161D01*
X106865942Y-96140542D01*
X106818323Y-96045304D01*
X106818323Y-95759590D01*
X106865942Y-95664352D01*
X106913561Y-95616733D01*
X107008800Y-95569114D01*
X107199276Y-95569114D01*
X107294514Y-95616733D01*
X107770704Y-96235780D02*
X107770704Y-95569114D01*
X107770704Y-95235780D02*
X107723085Y-95283400D01*
X107770704Y-95331019D01*
X107818323Y-95283400D01*
X107770704Y-95235780D01*
X107770704Y-95331019D01*
X108675466Y-96235780D02*
X108675466Y-95711971D01*
X108627847Y-95616733D01*
X108532609Y-95569114D01*
X108342133Y-95569114D01*
X108246895Y-95616733D01*
X108675466Y-96188161D02*
X108580228Y-96235780D01*
X108342133Y-96235780D01*
X108246895Y-96188161D01*
X108199276Y-96092923D01*
X108199276Y-95997685D01*
X108246895Y-95902447D01*
X108342133Y-95854828D01*
X108580228Y-95854828D01*
X108675466Y-95807209D01*
X109151657Y-95569114D02*
X109151657Y-96235780D01*
X109151657Y-95664352D02*
X109199276Y-95616733D01*
X109294514Y-95569114D01*
X109437371Y-95569114D01*
X109532609Y-95616733D01*
X109580228Y-95711971D01*
X109580228Y-96235780D01*
X111342133Y-96235780D02*
X110770704Y-96235780D01*
X111056419Y-96235780D02*
X111056419Y-95235780D01*
X110961180Y-95378638D01*
X110865942Y-95473876D01*
X110770704Y-95521495D01*
X111723085Y-95331019D02*
X111770704Y-95283400D01*
X111865942Y-95235780D01*
X112104038Y-95235780D01*
X112199276Y-95283400D01*
X112246895Y-95331019D01*
X112294514Y-95426257D01*
X112294514Y-95521495D01*
X112246895Y-95664352D01*
X111675466Y-96235780D01*
X112294514Y-96235780D01*
X113437371Y-95188161D02*
X112580228Y-96473876D01*
X113723085Y-95331019D02*
X113770704Y-95283400D01*
X113865942Y-95235780D01*
X114104038Y-95235780D01*
X114199276Y-95283400D01*
X114246895Y-95331019D01*
X114294514Y-95426257D01*
X114294514Y-95521495D01*
X114246895Y-95664352D01*
X113675466Y-96235780D01*
X114294514Y-96235780D01*
X114913561Y-95235780D02*
X115008800Y-95235780D01*
X115104038Y-95283400D01*
X115151657Y-95331019D01*
X115199276Y-95426257D01*
X115246895Y-95616733D01*
X115246895Y-95854828D01*
X115199276Y-96045304D01*
X115151657Y-96140542D01*
X115104038Y-96188161D01*
X115008800Y-96235780D01*
X114913561Y-96235780D01*
X114818323Y-96188161D01*
X114770704Y-96140542D01*
X114723085Y-96045304D01*
X114675466Y-95854828D01*
X114675466Y-95616733D01*
X114723085Y-95426257D01*
X114770704Y-95331019D01*
X114818323Y-95283400D01*
X114913561Y-95235780D01*
X115627847Y-95331019D02*
X115675466Y-95283400D01*
X115770704Y-95235780D01*
X116008800Y-95235780D01*
X116104038Y-95283400D01*
X116151657Y-95331019D01*
X116199276Y-95426257D01*
X116199276Y-95521495D01*
X116151657Y-95664352D01*
X115580228Y-96235780D01*
X116199276Y-96235780D01*
X116580228Y-95331019D02*
X116627847Y-95283400D01*
X116723085Y-95235780D01*
X116961180Y-95235780D01*
X117056419Y-95283400D01*
X117104038Y-95331019D01*
X117151657Y-95426257D01*
X117151657Y-95521495D01*
X117104038Y-95664352D01*
X116532609Y-96235780D01*
X117151657Y-96235780D01*
X94916742Y-94159342D02*
X94869123Y-94206961D01*
X94726266Y-94254580D01*
X94631028Y-94254580D01*
X94488171Y-94206961D01*
X94392933Y-94111723D01*
X94345314Y-94016485D01*
X94297695Y-93826009D01*
X94297695Y-93683152D01*
X94345314Y-93492676D01*
X94392933Y-93397438D01*
X94488171Y-93302200D01*
X94631028Y-93254580D01*
X94726266Y-93254580D01*
X94869123Y-93302200D01*
X94916742Y-93349819D01*
X95345314Y-94254580D02*
X95345314Y-93254580D01*
X95726266Y-93254580D01*
X95821504Y-93302200D01*
X95869123Y-93349819D01*
X95916742Y-93445057D01*
X95916742Y-93587914D01*
X95869123Y-93683152D01*
X95821504Y-93730771D01*
X95726266Y-93778390D01*
X95345314Y-93778390D01*
X96916742Y-94159342D02*
X96869123Y-94206961D01*
X96726266Y-94254580D01*
X96631028Y-94254580D01*
X96488171Y-94206961D01*
X96392933Y-94111723D01*
X96345314Y-94016485D01*
X96297695Y-93826009D01*
X96297695Y-93683152D01*
X96345314Y-93492676D01*
X96392933Y-93397438D01*
X96488171Y-93302200D01*
X96631028Y-93254580D01*
X96726266Y-93254580D01*
X96869123Y-93302200D01*
X96916742Y-93349819D01*
X97773885Y-93587914D02*
X97773885Y-94254580D01*
X97535790Y-93206961D02*
X97297695Y-93921247D01*
X97916742Y-93921247D01*
X98726266Y-93254580D02*
X98535790Y-93254580D01*
X98440552Y-93302200D01*
X98392933Y-93349819D01*
X98297695Y-93492676D01*
X98250076Y-93683152D01*
X98250076Y-94064104D01*
X98297695Y-94159342D01*
X98345314Y-94206961D01*
X98440552Y-94254580D01*
X98631028Y-94254580D01*
X98726266Y-94206961D01*
X98773885Y-94159342D01*
X98821504Y-94064104D01*
X98821504Y-93826009D01*
X98773885Y-93730771D01*
X98726266Y-93683152D01*
X98631028Y-93635533D01*
X98440552Y-93635533D01*
X98345314Y-93683152D01*
X98297695Y-93730771D01*
X98250076Y-93826009D01*
X99678647Y-93587914D02*
X99678647Y-94254580D01*
X99440552Y-93206961D02*
X99202457Y-93921247D01*
X99821504Y-93921247D01*
X100202457Y-93873628D02*
X100964361Y-93873628D01*
X101392933Y-93349819D02*
X101440552Y-93302200D01*
X101535790Y-93254580D01*
X101773885Y-93254580D01*
X101869123Y-93302200D01*
X101916742Y-93349819D01*
X101964361Y-93445057D01*
X101964361Y-93540295D01*
X101916742Y-93683152D01*
X101345314Y-94254580D01*
X101964361Y-94254580D01*
X102392933Y-94254580D02*
X102392933Y-93254580D01*
X102726266Y-93968866D01*
X103059600Y-93254580D01*
X103059600Y-94254580D01*
X103535790Y-94254580D02*
X103535790Y-93254580D01*
X104011980Y-94254580D02*
X104011980Y-93254580D01*
X104583409Y-94254580D01*
X104583409Y-93254580D01*
X105059600Y-94254580D02*
X105059600Y-93254580D01*
X106297695Y-93254580D02*
X106297695Y-94064104D01*
X106345314Y-94159342D01*
X106392933Y-94206961D01*
X106488171Y-94254580D01*
X106678647Y-94254580D01*
X106773885Y-94206961D01*
X106821504Y-94159342D01*
X106869123Y-94064104D01*
X106869123Y-93254580D01*
X107297695Y-94206961D02*
X107440552Y-94254580D01*
X107678647Y-94254580D01*
X107773885Y-94206961D01*
X107821504Y-94159342D01*
X107869123Y-94064104D01*
X107869123Y-93968866D01*
X107821504Y-93873628D01*
X107773885Y-93826009D01*
X107678647Y-93778390D01*
X107488171Y-93730771D01*
X107392933Y-93683152D01*
X107345314Y-93635533D01*
X107297695Y-93540295D01*
X107297695Y-93445057D01*
X107345314Y-93349819D01*
X107392933Y-93302200D01*
X107488171Y-93254580D01*
X107726266Y-93254580D01*
X107869123Y-93302200D01*
X108297695Y-94254580D02*
X108297695Y-93254580D01*
X108631028Y-93587914D02*
X109011980Y-93587914D01*
X108773885Y-94254580D02*
X108773885Y-93397438D01*
X108821504Y-93302200D01*
X108916742Y-93254580D01*
X109011980Y-93254580D01*
X109297695Y-93968866D02*
X109773885Y-93968866D01*
X109202457Y-94254580D02*
X109535790Y-93254580D01*
X109869123Y-94254580D01*
X110773885Y-94159342D02*
X110726266Y-94206961D01*
X110583409Y-94254580D01*
X110488171Y-94254580D01*
X110345314Y-94206961D01*
X110250076Y-94111723D01*
X110202457Y-94016485D01*
X110154838Y-93826009D01*
X110154838Y-93683152D01*
X110202457Y-93492676D01*
X110250076Y-93397438D01*
X110345314Y-93302200D01*
X110488171Y-93254580D01*
X110583409Y-93254580D01*
X110726266Y-93302200D01*
X110773885Y-93349819D01*
X111964361Y-94254580D02*
X111964361Y-93254580D01*
X112440552Y-94254580D02*
X112440552Y-93254580D01*
X113678647Y-94254580D02*
X113678647Y-93254580D01*
X114059600Y-93254580D01*
X114154838Y-93302200D01*
X114202457Y-93349819D01*
X114250076Y-93445057D01*
X114250076Y-93587914D01*
X114202457Y-93683152D01*
X114154838Y-93730771D01*
X114059600Y-93778390D01*
X113678647Y-93778390D01*
X114678647Y-94254580D02*
X114678647Y-93587914D01*
X114678647Y-93778390D02*
X114726266Y-93683152D01*
X114773885Y-93635533D01*
X114869123Y-93587914D01*
X114964361Y-93587914D01*
X115440552Y-94254580D02*
X115345314Y-94206961D01*
X115297695Y-94159342D01*
X115250076Y-94064104D01*
X115250076Y-93778390D01*
X115297695Y-93683152D01*
X115345314Y-93635533D01*
X115440552Y-93587914D01*
X115583409Y-93587914D01*
X115678647Y-93635533D01*
X115726266Y-93683152D01*
X115773885Y-93778390D01*
X115773885Y-94064104D01*
X115726266Y-94159342D01*
X115678647Y-94206961D01*
X115583409Y-94254580D01*
X115440552Y-94254580D01*
X116059600Y-93587914D02*
X116440552Y-93587914D01*
X116202457Y-93254580D02*
X116202457Y-94111723D01*
X116250076Y-94206961D01*
X116345314Y-94254580D01*
X116440552Y-94254580D01*
X116916742Y-94254580D02*
X116821504Y-94206961D01*
X116773885Y-94159342D01*
X116726266Y-94064104D01*
X116726266Y-93778390D01*
X116773885Y-93683152D01*
X116821504Y-93635533D01*
X116916742Y-93587914D01*
X117059599Y-93587914D01*
X117154838Y-93635533D01*
X117202457Y-93683152D01*
X117250076Y-93778390D01*
X117250076Y-94064104D01*
X117202457Y-94159342D01*
X117154838Y-94206961D01*
X117059599Y-94254580D01*
X116916742Y-94254580D01*
X117535790Y-93587914D02*
X117916742Y-93587914D01*
X117678647Y-93254580D02*
X117678647Y-94111723D01*
X117726266Y-94206961D01*
X117821504Y-94254580D01*
X117916742Y-94254580D01*
X118154838Y-93587914D02*
X118392933Y-94254580D01*
X118631028Y-93587914D02*
X118392933Y-94254580D01*
X118297695Y-94492676D01*
X118250076Y-94540295D01*
X118154838Y-94587914D01*
X119011980Y-93587914D02*
X119011980Y-94587914D01*
X119011980Y-93635533D02*
X119107219Y-93587914D01*
X119297695Y-93587914D01*
X119392933Y-93635533D01*
X119440552Y-93683152D01*
X119488171Y-93778390D01*
X119488171Y-94064104D01*
X119440552Y-94159342D01*
X119392933Y-94206961D01*
X119297695Y-94254580D01*
X119107219Y-94254580D01*
X119011980Y-94206961D01*
X120297695Y-94206961D02*
X120202457Y-94254580D01*
X120011980Y-94254580D01*
X119916742Y-94206961D01*
X119869123Y-94111723D01*
X119869123Y-93730771D01*
X119916742Y-93635533D01*
X120011980Y-93587914D01*
X120202457Y-93587914D01*
X120297695Y-93635533D01*
X120345314Y-93730771D01*
X120345314Y-93826009D01*
X119869123Y-93921247D01*
X121440552Y-93587914D02*
X121678647Y-94254580D01*
X121916742Y-93587914D01*
X122488171Y-93254580D02*
X122583409Y-93254580D01*
X122678647Y-93302200D01*
X122726266Y-93349819D01*
X122773885Y-93445057D01*
X122821504Y-93635533D01*
X122821504Y-93873628D01*
X122773885Y-94064104D01*
X122726266Y-94159342D01*
X122678647Y-94206961D01*
X122583409Y-94254580D01*
X122488171Y-94254580D01*
X122392933Y-94206961D01*
X122345314Y-94159342D01*
X122297695Y-94064104D01*
X122250076Y-93873628D01*
X122250076Y-93635533D01*
X122297695Y-93445057D01*
X122345314Y-93349819D01*
X122392933Y-93302200D01*
X122488171Y-93254580D01*
X35167819Y-22255199D02*
X34358295Y-22255199D01*
X34263057Y-22302819D01*
X34215438Y-22350438D01*
X34167819Y-22445676D01*
X34167819Y-22636152D01*
X34215438Y-22731390D01*
X34263057Y-22779009D01*
X34358295Y-22826628D01*
X35167819Y-22826628D01*
X34215438Y-23255199D02*
X34167819Y-23398057D01*
X34167819Y-23636152D01*
X34215438Y-23731390D01*
X34263057Y-23779009D01*
X34358295Y-23826628D01*
X34453533Y-23826628D01*
X34548771Y-23779009D01*
X34596390Y-23731390D01*
X34644009Y-23636152D01*
X34691628Y-23445676D01*
X34739247Y-23350438D01*
X34786866Y-23302819D01*
X34882104Y-23255199D01*
X34977342Y-23255199D01*
X35072580Y-23302819D01*
X35120200Y-23350438D01*
X35167819Y-23445676D01*
X35167819Y-23683771D01*
X35120200Y-23826628D01*
X34167819Y-24255199D02*
X35167819Y-24255199D01*
X34834485Y-24588533D02*
X34834485Y-24969485D01*
X34167819Y-24731390D02*
X35024961Y-24731390D01*
X35120200Y-24779009D01*
X35167819Y-24874247D01*
X35167819Y-24969485D01*
X34453533Y-25255199D02*
X34453533Y-25731390D01*
X34167819Y-25159961D02*
X35167819Y-25493295D01*
X34167819Y-25826628D01*
X34263057Y-26731390D02*
X34215438Y-26683771D01*
X34167819Y-26540914D01*
X34167819Y-26445676D01*
X34215438Y-26302819D01*
X34310676Y-26207580D01*
X34405914Y-26159961D01*
X34596390Y-26112342D01*
X34739247Y-26112342D01*
X34929723Y-26159961D01*
X35024961Y-26207580D01*
X35120200Y-26302819D01*
X35167819Y-26445676D01*
X35167819Y-26540914D01*
X35120200Y-26683771D01*
X35072580Y-26731390D01*
X34167819Y-27921866D02*
X35167819Y-27921866D01*
X34167819Y-28398057D02*
X35167819Y-28398057D01*
X34167819Y-29636152D02*
X35167819Y-29636152D01*
X34786866Y-29636152D02*
X34834485Y-29731390D01*
X34834485Y-29921866D01*
X34786866Y-30017104D01*
X34739247Y-30064723D01*
X34644009Y-30112342D01*
X34358295Y-30112342D01*
X34263057Y-30064723D01*
X34215438Y-30017104D01*
X34167819Y-29921866D01*
X34167819Y-29731390D01*
X34215438Y-29636152D01*
X34834485Y-30445676D02*
X34167819Y-30683771D01*
X34834485Y-30921866D02*
X34167819Y-30683771D01*
X33929723Y-30588533D01*
X33882104Y-30540914D01*
X33834485Y-30445676D01*
X35167819Y-32350438D02*
X34453533Y-32350438D01*
X34310676Y-32302819D01*
X34215438Y-32207580D01*
X34167819Y-32064723D01*
X34167819Y-31969485D01*
X34167819Y-32969485D02*
X34215438Y-32874247D01*
X34263057Y-32826628D01*
X34358295Y-32779009D01*
X34644009Y-32779009D01*
X34739247Y-32826628D01*
X34786866Y-32874247D01*
X34834485Y-32969485D01*
X34834485Y-33112342D01*
X34786866Y-33207580D01*
X34739247Y-33255199D01*
X34644009Y-33302819D01*
X34358295Y-33302819D01*
X34263057Y-33255199D01*
X34215438Y-33207580D01*
X34167819Y-33112342D01*
X34167819Y-32969485D01*
X34167819Y-33731390D02*
X35167819Y-33731390D01*
X34167819Y-34159961D02*
X34691628Y-34159961D01*
X34786866Y-34112342D01*
X34834485Y-34017104D01*
X34834485Y-33874247D01*
X34786866Y-33779009D01*
X34739247Y-33731390D01*
X34834485Y-34636152D02*
X34167819Y-34636152D01*
X34739247Y-34636152D02*
X34786866Y-34683771D01*
X34834485Y-34779009D01*
X34834485Y-34921866D01*
X34786866Y-35017104D01*
X34691628Y-35064723D01*
X34167819Y-35064723D01*
X34167819Y-36302819D02*
X35167819Y-36302819D01*
X34167819Y-36874247D02*
X34739247Y-36445676D01*
X35167819Y-36874247D02*
X34596390Y-36302819D01*
X34167819Y-37445676D02*
X34215438Y-37350438D01*
X34263057Y-37302819D01*
X34358295Y-37255199D01*
X34644009Y-37255199D01*
X34739247Y-37302819D01*
X34786866Y-37350438D01*
X34834485Y-37445676D01*
X34834485Y-37588533D01*
X34786866Y-37683771D01*
X34739247Y-37731390D01*
X34644009Y-37779009D01*
X34358295Y-37779009D01*
X34263057Y-37731390D01*
X34215438Y-37683771D01*
X34167819Y-37588533D01*
X34167819Y-37445676D01*
X34834485Y-38207580D02*
X34167819Y-38207580D01*
X34739247Y-38207580D02*
X34786866Y-38255199D01*
X34834485Y-38350438D01*
X34834485Y-38493295D01*
X34786866Y-38588533D01*
X34691628Y-38636152D01*
X34167819Y-38636152D01*
X34215438Y-39064723D02*
X34167819Y-39159961D01*
X34167819Y-39350438D01*
X34215438Y-39445676D01*
X34310676Y-39493295D01*
X34358295Y-39493295D01*
X34453533Y-39445676D01*
X34501152Y-39350438D01*
X34501152Y-39207580D01*
X34548771Y-39112342D01*
X34644009Y-39064723D01*
X34691628Y-39064723D01*
X34786866Y-39112342D01*
X34834485Y-39207580D01*
X34834485Y-39350438D01*
X34786866Y-39445676D01*
X34834485Y-39779009D02*
X34834485Y-40159961D01*
X35167819Y-39921866D02*
X34310676Y-39921866D01*
X34215438Y-39969485D01*
X34167819Y-40064723D01*
X34167819Y-40159961D01*
X34167819Y-40921866D02*
X34691628Y-40921866D01*
X34786866Y-40874247D01*
X34834485Y-40779009D01*
X34834485Y-40588533D01*
X34786866Y-40493295D01*
X34215438Y-40921866D02*
X34167819Y-40826628D01*
X34167819Y-40588533D01*
X34215438Y-40493295D01*
X34310676Y-40445676D01*
X34405914Y-40445676D01*
X34501152Y-40493295D01*
X34548771Y-40588533D01*
X34548771Y-40826628D01*
X34596390Y-40921866D01*
X34834485Y-41398057D02*
X34167819Y-41398057D01*
X34739247Y-41398057D02*
X34786866Y-41445676D01*
X34834485Y-41540914D01*
X34834485Y-41683771D01*
X34786866Y-41779009D01*
X34691628Y-41826628D01*
X34167819Y-41826628D01*
X34834485Y-42159961D02*
X34834485Y-42540914D01*
X35167819Y-42302819D02*
X34310676Y-42302819D01*
X34215438Y-42350438D01*
X34167819Y-42445676D01*
X34167819Y-42540914D01*
X34167819Y-43017104D02*
X34215438Y-42921866D01*
X34263057Y-42874247D01*
X34358295Y-42826628D01*
X34644009Y-42826628D01*
X34739247Y-42874247D01*
X34786866Y-42921866D01*
X34834485Y-43017104D01*
X34834485Y-43159961D01*
X34786866Y-43255199D01*
X34739247Y-43302819D01*
X34644009Y-43350438D01*
X34358295Y-43350438D01*
X34263057Y-43302819D01*
X34215438Y-43255199D01*
X34167819Y-43159961D01*
X34167819Y-43017104D01*
X34834485Y-43779009D02*
X33834485Y-43779009D01*
X34786866Y-43779009D02*
X34834485Y-43874247D01*
X34834485Y-44064723D01*
X34786866Y-44159961D01*
X34739247Y-44207580D01*
X34644009Y-44255199D01*
X34358295Y-44255199D01*
X34263057Y-44207580D01*
X34215438Y-44159961D01*
X34167819Y-44064723D01*
X34167819Y-43874247D01*
X34215438Y-43779009D01*
X34167819Y-44826628D02*
X34215438Y-44731390D01*
X34263057Y-44683771D01*
X34358295Y-44636152D01*
X34644009Y-44636152D01*
X34739247Y-44683771D01*
X34786866Y-44731390D01*
X34834485Y-44826628D01*
X34834485Y-44969485D01*
X34786866Y-45064723D01*
X34739247Y-45112342D01*
X34644009Y-45159961D01*
X34358295Y-45159961D01*
X34263057Y-45112342D01*
X34215438Y-45064723D01*
X34167819Y-44969485D01*
X34167819Y-44826628D01*
X34834485Y-46017104D02*
X34167819Y-46017104D01*
X34834485Y-45588533D02*
X34310676Y-45588533D01*
X34215438Y-45636152D01*
X34167819Y-45731390D01*
X34167819Y-45874247D01*
X34215438Y-45969485D01*
X34263057Y-46017104D01*
X34167819Y-46636152D02*
X34215438Y-46540914D01*
X34310676Y-46493295D01*
X35167819Y-46493295D01*
X34167819Y-47159961D02*
X34215438Y-47064723D01*
X34263057Y-47017104D01*
X34358295Y-46969485D01*
X34644009Y-46969485D01*
X34739247Y-47017104D01*
X34786866Y-47064723D01*
X34834485Y-47159961D01*
X34834485Y-47302819D01*
X34786866Y-47398057D01*
X34739247Y-47445676D01*
X34644009Y-47493295D01*
X34358295Y-47493295D01*
X34263057Y-47445676D01*
X34215438Y-47398057D01*
X34167819Y-47302819D01*
X34167819Y-47159961D01*
X34215438Y-47874247D02*
X34167819Y-47969485D01*
X34167819Y-48159961D01*
X34215438Y-48255199D01*
X34310676Y-48302819D01*
X34358295Y-48302819D01*
X34453533Y-48255199D01*
X34501152Y-48159961D01*
X34501152Y-48017104D01*
X34548771Y-47921866D01*
X34644009Y-47874247D01*
X34691628Y-47874247D01*
X34786866Y-47921866D01*
X34834485Y-48017104D01*
X34834485Y-48159961D01*
X34786866Y-48255199D01*
D11*
%TO.C,SW1052*%
X82442371Y-100361704D02*
X82442371Y-99561704D01*
X82632847Y-99561704D01*
X82747133Y-99599800D01*
X82823323Y-99675990D01*
X82861419Y-99752180D01*
X82899514Y-99904561D01*
X82899514Y-100018847D01*
X82861419Y-100171228D01*
X82823323Y-100247419D01*
X82747133Y-100323609D01*
X82632847Y-100361704D01*
X82442371Y-100361704D01*
X83204276Y-100323609D02*
X83318561Y-100361704D01*
X83509038Y-100361704D01*
X83585228Y-100323609D01*
X83623323Y-100285514D01*
X83661419Y-100209323D01*
X83661419Y-100133133D01*
X83623323Y-100056942D01*
X83585228Y-100018847D01*
X83509038Y-99980752D01*
X83356657Y-99942657D01*
X83280466Y-99904561D01*
X83242371Y-99866466D01*
X83204276Y-99790276D01*
X83204276Y-99714085D01*
X83242371Y-99637895D01*
X83280466Y-99599800D01*
X83356657Y-99561704D01*
X83547133Y-99561704D01*
X83661419Y-99599800D01*
X84004276Y-100361704D02*
X84004276Y-99561704D01*
X84461419Y-100361704D02*
X84118561Y-99904561D01*
X84461419Y-99561704D02*
X84004276Y-100018847D01*
X84766180Y-100323609D02*
X84880466Y-100361704D01*
X85070942Y-100361704D01*
X85147133Y-100323609D01*
X85185228Y-100285514D01*
X85223323Y-100209323D01*
X85223323Y-100133133D01*
X85185228Y-100056942D01*
X85147133Y-100018847D01*
X85070942Y-99980752D01*
X84918561Y-99942657D01*
X84842371Y-99904561D01*
X84804276Y-99866466D01*
X84766180Y-99790276D01*
X84766180Y-99714085D01*
X84804276Y-99637895D01*
X84842371Y-99599800D01*
X84918561Y-99561704D01*
X85109038Y-99561704D01*
X85223323Y-99599800D01*
X85489990Y-99561704D02*
X85680466Y-100361704D01*
X85832847Y-99790276D01*
X85985228Y-100361704D01*
X86175704Y-99561704D01*
X86442371Y-100133133D02*
X86823323Y-100133133D01*
X86366180Y-100361704D02*
X86632847Y-99561704D01*
X86899514Y-100361704D01*
X87166180Y-100361704D02*
X87166180Y-99561704D01*
X87470942Y-99561704D01*
X87547133Y-99599800D01*
X87585228Y-99637895D01*
X87623323Y-99714085D01*
X87623323Y-99828371D01*
X87585228Y-99904561D01*
X87547133Y-99942657D01*
X87470942Y-99980752D01*
X87166180Y-99980752D01*
%TO.C,CE1050*%
X41932942Y-28666819D02*
X41980561Y-28714438D01*
X42028180Y-28857295D01*
X42028180Y-28952533D01*
X41980561Y-29095390D01*
X41885323Y-29190628D01*
X41790085Y-29238247D01*
X41599609Y-29285866D01*
X41456752Y-29285866D01*
X41266276Y-29238247D01*
X41171038Y-29190628D01*
X41075800Y-29095390D01*
X41028180Y-28952533D01*
X41028180Y-28857295D01*
X41075800Y-28714438D01*
X41123419Y-28666819D01*
X41504371Y-28238247D02*
X41504371Y-27904914D01*
X42028180Y-27762057D02*
X42028180Y-28238247D01*
X41028180Y-28238247D01*
X41028180Y-27762057D01*
X42028180Y-26809676D02*
X42028180Y-27381104D01*
X42028180Y-27095390D02*
X41028180Y-27095390D01*
X41171038Y-27190628D01*
X41266276Y-27285866D01*
X41313895Y-27381104D01*
X41028180Y-26190628D02*
X41028180Y-26095390D01*
X41075800Y-26000152D01*
X41123419Y-25952533D01*
X41218657Y-25904914D01*
X41409133Y-25857295D01*
X41647228Y-25857295D01*
X41837704Y-25904914D01*
X41932942Y-25952533D01*
X41980561Y-26000152D01*
X42028180Y-26095390D01*
X42028180Y-26190628D01*
X41980561Y-26285866D01*
X41932942Y-26333485D01*
X41837704Y-26381104D01*
X41647228Y-26428723D01*
X41409133Y-26428723D01*
X41218657Y-26381104D01*
X41123419Y-26333485D01*
X41075800Y-26285866D01*
X41028180Y-26190628D01*
X41028180Y-24952533D02*
X41028180Y-25428723D01*
X41504371Y-25476342D01*
X41456752Y-25428723D01*
X41409133Y-25333485D01*
X41409133Y-25095390D01*
X41456752Y-25000152D01*
X41504371Y-24952533D01*
X41599609Y-24904914D01*
X41837704Y-24904914D01*
X41932942Y-24952533D01*
X41980561Y-25000152D01*
X42028180Y-25095390D01*
X42028180Y-25333485D01*
X41980561Y-25428723D01*
X41932942Y-25476342D01*
X41028180Y-24285866D02*
X41028180Y-24190628D01*
X41075800Y-24095390D01*
X41123419Y-24047771D01*
X41218657Y-24000152D01*
X41409133Y-23952533D01*
X41647228Y-23952533D01*
X41837704Y-24000152D01*
X41932942Y-24047771D01*
X41980561Y-24095390D01*
X42028180Y-24190628D01*
X42028180Y-24285866D01*
X41980561Y-24381104D01*
X41932942Y-24428723D01*
X41837704Y-24476342D01*
X41647228Y-24523961D01*
X41409133Y-24523961D01*
X41218657Y-24476342D01*
X41123419Y-24428723D01*
X41075800Y-24381104D01*
X41028180Y-24285866D01*
X94197114Y-31837380D02*
X93720923Y-31837380D01*
X93673304Y-32313571D01*
X93720923Y-32265952D01*
X93816161Y-32218333D01*
X94054257Y-32218333D01*
X94149495Y-32265952D01*
X94197114Y-32313571D01*
X94244733Y-32408809D01*
X94244733Y-32646904D01*
X94197114Y-32742142D01*
X94149495Y-32789761D01*
X94054257Y-32837380D01*
X93816161Y-32837380D01*
X93720923Y-32789761D01*
X93673304Y-32742142D01*
X94863780Y-31837380D02*
X94959019Y-31837380D01*
X95054257Y-31885000D01*
X95101876Y-31932619D01*
X95149495Y-32027857D01*
X95197114Y-32218333D01*
X95197114Y-32456428D01*
X95149495Y-32646904D01*
X95101876Y-32742142D01*
X95054257Y-32789761D01*
X94959019Y-32837380D01*
X94863780Y-32837380D01*
X94768542Y-32789761D01*
X94720923Y-32742142D01*
X94673304Y-32646904D01*
X94625685Y-32456428D01*
X94625685Y-32218333D01*
X94673304Y-32027857D01*
X94720923Y-31932619D01*
X94768542Y-31885000D01*
X94863780Y-31837380D01*
X95625685Y-32837380D02*
X95625685Y-31837380D01*
X96006638Y-31837380D01*
X96101876Y-31885000D01*
X96149495Y-31932619D01*
X96197114Y-32027857D01*
X96197114Y-32170714D01*
X96149495Y-32265952D01*
X96101876Y-32313571D01*
X96006638Y-32361190D01*
X95625685Y-32361190D01*
X96625685Y-32837380D02*
X96625685Y-32170714D01*
X96625685Y-31837380D02*
X96578066Y-31885000D01*
X96625685Y-31932619D01*
X96673304Y-31885000D01*
X96625685Y-31837380D01*
X96625685Y-31932619D01*
X97101876Y-32170714D02*
X97101876Y-32837380D01*
X97101876Y-32265952D02*
X97149495Y-32218333D01*
X97244733Y-32170714D01*
X97387590Y-32170714D01*
X97482828Y-32218333D01*
X97530447Y-32313571D01*
X97530447Y-32837380D01*
X98768542Y-32313571D02*
X99101876Y-32313571D01*
X99244733Y-32837380D02*
X98768542Y-32837380D01*
X98768542Y-31837380D01*
X99244733Y-31837380D01*
X99578066Y-32837380D02*
X100101876Y-32170714D01*
X99578066Y-32170714D02*
X100101876Y-32837380D01*
X100482828Y-32170714D02*
X100482828Y-33170714D01*
X100482828Y-32218333D02*
X100578066Y-32170714D01*
X100768542Y-32170714D01*
X100863780Y-32218333D01*
X100911400Y-32265952D01*
X100959019Y-32361190D01*
X100959019Y-32646904D01*
X100911400Y-32742142D01*
X100863780Y-32789761D01*
X100768542Y-32837380D01*
X100578066Y-32837380D01*
X100482828Y-32789761D01*
X101816161Y-32837380D02*
X101816161Y-32313571D01*
X101768542Y-32218333D01*
X101673304Y-32170714D01*
X101482828Y-32170714D01*
X101387590Y-32218333D01*
X101816161Y-32789761D02*
X101720923Y-32837380D01*
X101482828Y-32837380D01*
X101387590Y-32789761D01*
X101339971Y-32694523D01*
X101339971Y-32599285D01*
X101387590Y-32504047D01*
X101482828Y-32456428D01*
X101720923Y-32456428D01*
X101816161Y-32408809D01*
X102292352Y-32170714D02*
X102292352Y-32837380D01*
X102292352Y-32265952D02*
X102339971Y-32218333D01*
X102435209Y-32170714D01*
X102578066Y-32170714D01*
X102673304Y-32218333D01*
X102720923Y-32313571D01*
X102720923Y-32837380D01*
X103149495Y-32789761D02*
X103244733Y-32837380D01*
X103435209Y-32837380D01*
X103530447Y-32789761D01*
X103578066Y-32694523D01*
X103578066Y-32646904D01*
X103530447Y-32551666D01*
X103435209Y-32504047D01*
X103292352Y-32504047D01*
X103197114Y-32456428D01*
X103149495Y-32361190D01*
X103149495Y-32313571D01*
X103197114Y-32218333D01*
X103292352Y-32170714D01*
X103435209Y-32170714D01*
X103530447Y-32218333D01*
X104006638Y-32837380D02*
X104006638Y-32170714D01*
X104006638Y-31837380D02*
X103959019Y-31885000D01*
X104006638Y-31932619D01*
X104054257Y-31885000D01*
X104006638Y-31837380D01*
X104006638Y-31932619D01*
X104625685Y-32837380D02*
X104530447Y-32789761D01*
X104482828Y-32742142D01*
X104435209Y-32646904D01*
X104435209Y-32361190D01*
X104482828Y-32265952D01*
X104530447Y-32218333D01*
X104625685Y-32170714D01*
X104768542Y-32170714D01*
X104863780Y-32218333D01*
X104911400Y-32265952D01*
X104959019Y-32361190D01*
X104959019Y-32646904D01*
X104911400Y-32742142D01*
X104863780Y-32789761D01*
X104768542Y-32837380D01*
X104625685Y-32837380D01*
X105387590Y-32170714D02*
X105387590Y-32837380D01*
X105387590Y-32265952D02*
X105435209Y-32218333D01*
X105530447Y-32170714D01*
X105673304Y-32170714D01*
X105768542Y-32218333D01*
X105816161Y-32313571D01*
X105816161Y-32837380D01*
X107625685Y-32742142D02*
X107578066Y-32789761D01*
X107435209Y-32837380D01*
X107339971Y-32837380D01*
X107197114Y-32789761D01*
X107101876Y-32694523D01*
X107054257Y-32599285D01*
X107006638Y-32408809D01*
X107006638Y-32265952D01*
X107054257Y-32075476D01*
X107101876Y-31980238D01*
X107197114Y-31885000D01*
X107339971Y-31837380D01*
X107435209Y-31837380D01*
X107578066Y-31885000D01*
X107625685Y-31932619D01*
X108197114Y-32837380D02*
X108101876Y-32789761D01*
X108054257Y-32742142D01*
X108006638Y-32646904D01*
X108006638Y-32361190D01*
X108054257Y-32265952D01*
X108101876Y-32218333D01*
X108197114Y-32170714D01*
X108339971Y-32170714D01*
X108435209Y-32218333D01*
X108482828Y-32265952D01*
X108530447Y-32361190D01*
X108530447Y-32646904D01*
X108482828Y-32742142D01*
X108435209Y-32789761D01*
X108339971Y-32837380D01*
X108197114Y-32837380D01*
X108959019Y-32170714D02*
X108959019Y-32837380D01*
X108959019Y-32265952D02*
X109006638Y-32218333D01*
X109101876Y-32170714D01*
X109244733Y-32170714D01*
X109339971Y-32218333D01*
X109387590Y-32313571D01*
X109387590Y-32837380D01*
X109863780Y-32170714D02*
X109863780Y-32837380D01*
X109863780Y-32265952D02*
X109911400Y-32218333D01*
X110006638Y-32170714D01*
X110149495Y-32170714D01*
X110244733Y-32218333D01*
X110292352Y-32313571D01*
X110292352Y-32837380D01*
X111149495Y-32789761D02*
X111054257Y-32837380D01*
X110863780Y-32837380D01*
X110768542Y-32789761D01*
X110720923Y-32694523D01*
X110720923Y-32313571D01*
X110768542Y-32218333D01*
X110863780Y-32170714D01*
X111054257Y-32170714D01*
X111149495Y-32218333D01*
X111197114Y-32313571D01*
X111197114Y-32408809D01*
X110720923Y-32504047D01*
X112054257Y-32789761D02*
X111959019Y-32837380D01*
X111768542Y-32837380D01*
X111673304Y-32789761D01*
X111625685Y-32742142D01*
X111578066Y-32646904D01*
X111578066Y-32361190D01*
X111625685Y-32265952D01*
X111673304Y-32218333D01*
X111768542Y-32170714D01*
X111959019Y-32170714D01*
X112054257Y-32218333D01*
X112339971Y-32170714D02*
X112720923Y-32170714D01*
X112482828Y-31837380D02*
X112482828Y-32694523D01*
X112530447Y-32789761D01*
X112625685Y-32837380D01*
X112720923Y-32837380D01*
X113197114Y-32837380D02*
X113101876Y-32789761D01*
X113054257Y-32742142D01*
X113006638Y-32646904D01*
X113006638Y-32361190D01*
X113054257Y-32265952D01*
X113101876Y-32218333D01*
X113197114Y-32170714D01*
X113339971Y-32170714D01*
X113435209Y-32218333D01*
X113482828Y-32265952D01*
X113530447Y-32361190D01*
X113530447Y-32646904D01*
X113482828Y-32742142D01*
X113435209Y-32789761D01*
X113339971Y-32837380D01*
X113197114Y-32837380D01*
X113959019Y-32837380D02*
X113959019Y-32170714D01*
X113959019Y-32361190D02*
X114006638Y-32265952D01*
X114054257Y-32218333D01*
X114149495Y-32170714D01*
X114244733Y-32170714D01*
%TO.C,Y1060*%
X93681190Y-78794761D02*
X94157380Y-78794761D01*
X93157380Y-79128095D02*
X93681190Y-78794761D01*
X93157380Y-78461428D01*
X94157380Y-77604285D02*
X94157380Y-78175714D01*
X94157380Y-77890000D02*
X93157380Y-77890000D01*
X93300238Y-77985238D01*
X93395476Y-78080476D01*
X93443095Y-78175714D01*
X93157380Y-76985238D02*
X93157380Y-76890000D01*
X93205000Y-76794761D01*
X93252619Y-76747142D01*
X93347857Y-76699523D01*
X93538333Y-76651904D01*
X93776428Y-76651904D01*
X93966904Y-76699523D01*
X94062142Y-76747142D01*
X94109761Y-76794761D01*
X94157380Y-76890000D01*
X94157380Y-76985238D01*
X94109761Y-77080476D01*
X94062142Y-77128095D01*
X93966904Y-77175714D01*
X93776428Y-77223333D01*
X93538333Y-77223333D01*
X93347857Y-77175714D01*
X93252619Y-77128095D01*
X93205000Y-77080476D01*
X93157380Y-76985238D01*
X93157380Y-75794761D02*
X93157380Y-75985238D01*
X93205000Y-76080476D01*
X93252619Y-76128095D01*
X93395476Y-76223333D01*
X93585952Y-76270952D01*
X93966904Y-76270952D01*
X94062142Y-76223333D01*
X94109761Y-76175714D01*
X94157380Y-76080476D01*
X94157380Y-75890000D01*
X94109761Y-75794761D01*
X94062142Y-75747142D01*
X93966904Y-75699523D01*
X93728809Y-75699523D01*
X93633571Y-75747142D01*
X93585952Y-75794761D01*
X93538333Y-75890000D01*
X93538333Y-76080476D01*
X93585952Y-76175714D01*
X93633571Y-76223333D01*
X93728809Y-76270952D01*
X93157380Y-75080476D02*
X93157380Y-74985238D01*
X93205000Y-74890000D01*
X93252619Y-74842380D01*
X93347857Y-74794761D01*
X93538333Y-74747142D01*
X93776428Y-74747142D01*
X93966904Y-74794761D01*
X94062142Y-74842380D01*
X94109761Y-74890000D01*
X94157380Y-74985238D01*
X94157380Y-75080476D01*
X94109761Y-75175714D01*
X94062142Y-75223333D01*
X93966904Y-75270952D01*
X93776428Y-75318571D01*
X93538333Y-75318571D01*
X93347857Y-75270952D01*
X93252619Y-75223333D01*
X93205000Y-75175714D01*
X93157380Y-75080476D01*
X87107380Y-78580476D02*
X87107380Y-79151904D01*
X87107380Y-78866190D02*
X86107380Y-78866190D01*
X86250238Y-78961428D01*
X86345476Y-79056666D01*
X86393095Y-79151904D01*
X86202619Y-78199523D02*
X86155000Y-78151904D01*
X86107380Y-78056666D01*
X86107380Y-77818571D01*
X86155000Y-77723333D01*
X86202619Y-77675714D01*
X86297857Y-77628095D01*
X86393095Y-77628095D01*
X86535952Y-77675714D01*
X87107380Y-78247142D01*
X87107380Y-77628095D01*
X87107380Y-77199523D02*
X86107380Y-77199523D01*
X86821666Y-76866190D01*
X86107380Y-76532857D01*
X87107380Y-76532857D01*
X87107380Y-76056666D02*
X86107380Y-76056666D01*
X86583571Y-76056666D02*
X86583571Y-75485238D01*
X87107380Y-75485238D02*
X86107380Y-75485238D01*
X86440714Y-75104285D02*
X86440714Y-74580476D01*
X87107380Y-75104285D01*
X87107380Y-74580476D01*
%TO.C,R1061*%
X36594761Y-87292380D02*
X36261428Y-86816190D01*
X36023333Y-87292380D02*
X36023333Y-86292380D01*
X36404285Y-86292380D01*
X36499523Y-86340000D01*
X36547142Y-86387619D01*
X36594761Y-86482857D01*
X36594761Y-86625714D01*
X36547142Y-86720952D01*
X36499523Y-86768571D01*
X36404285Y-86816190D01*
X36023333Y-86816190D01*
X37547142Y-87292380D02*
X36975714Y-87292380D01*
X37261428Y-87292380D02*
X37261428Y-86292380D01*
X37166190Y-86435238D01*
X37070952Y-86530476D01*
X36975714Y-86578095D01*
X38166190Y-86292380D02*
X38261428Y-86292380D01*
X38356666Y-86340000D01*
X38404285Y-86387619D01*
X38451904Y-86482857D01*
X38499523Y-86673333D01*
X38499523Y-86911428D01*
X38451904Y-87101904D01*
X38404285Y-87197142D01*
X38356666Y-87244761D01*
X38261428Y-87292380D01*
X38166190Y-87292380D01*
X38070952Y-87244761D01*
X38023333Y-87197142D01*
X37975714Y-87101904D01*
X37928095Y-86911428D01*
X37928095Y-86673333D01*
X37975714Y-86482857D01*
X38023333Y-86387619D01*
X38070952Y-86340000D01*
X38166190Y-86292380D01*
X39356666Y-86292380D02*
X39166190Y-86292380D01*
X39070952Y-86340000D01*
X39023333Y-86387619D01*
X38928095Y-86530476D01*
X38880476Y-86720952D01*
X38880476Y-87101904D01*
X38928095Y-87197142D01*
X38975714Y-87244761D01*
X39070952Y-87292380D01*
X39261428Y-87292380D01*
X39356666Y-87244761D01*
X39404285Y-87197142D01*
X39451904Y-87101904D01*
X39451904Y-86863809D01*
X39404285Y-86768571D01*
X39356666Y-86720952D01*
X39261428Y-86673333D01*
X39070952Y-86673333D01*
X38975714Y-86720952D01*
X38928095Y-86768571D01*
X38880476Y-86863809D01*
X40404285Y-87292380D02*
X39832857Y-87292380D01*
X40118571Y-87292380D02*
X40118571Y-86292380D01*
X40023333Y-86435238D01*
X39928095Y-86530476D01*
X39832857Y-86578095D01*
%TO.C,R1050*%
X92333961Y-98675180D02*
X92000628Y-98198990D01*
X91762533Y-98675180D02*
X91762533Y-97675180D01*
X92143485Y-97675180D01*
X92238723Y-97722800D01*
X92286342Y-97770419D01*
X92333961Y-97865657D01*
X92333961Y-98008514D01*
X92286342Y-98103752D01*
X92238723Y-98151371D01*
X92143485Y-98198990D01*
X91762533Y-98198990D01*
X93286342Y-98675180D02*
X92714914Y-98675180D01*
X93000628Y-98675180D02*
X93000628Y-97675180D01*
X92905390Y-97818038D01*
X92810152Y-97913276D01*
X92714914Y-97960895D01*
X93905390Y-97675180D02*
X94000628Y-97675180D01*
X94095866Y-97722800D01*
X94143485Y-97770419D01*
X94191104Y-97865657D01*
X94238723Y-98056133D01*
X94238723Y-98294228D01*
X94191104Y-98484704D01*
X94143485Y-98579942D01*
X94095866Y-98627561D01*
X94000628Y-98675180D01*
X93905390Y-98675180D01*
X93810152Y-98627561D01*
X93762533Y-98579942D01*
X93714914Y-98484704D01*
X93667295Y-98294228D01*
X93667295Y-98056133D01*
X93714914Y-97865657D01*
X93762533Y-97770419D01*
X93810152Y-97722800D01*
X93905390Y-97675180D01*
X95143485Y-97675180D02*
X94667295Y-97675180D01*
X94619676Y-98151371D01*
X94667295Y-98103752D01*
X94762533Y-98056133D01*
X95000628Y-98056133D01*
X95095866Y-98103752D01*
X95143485Y-98151371D01*
X95191104Y-98246609D01*
X95191104Y-98484704D01*
X95143485Y-98579942D01*
X95095866Y-98627561D01*
X95000628Y-98675180D01*
X94762533Y-98675180D01*
X94667295Y-98627561D01*
X94619676Y-98579942D01*
X95810152Y-97675180D02*
X95905390Y-97675180D01*
X96000628Y-97722800D01*
X96048247Y-97770419D01*
X96095866Y-97865657D01*
X96143485Y-98056133D01*
X96143485Y-98294228D01*
X96095866Y-98484704D01*
X96048247Y-98579942D01*
X96000628Y-98627561D01*
X95905390Y-98675180D01*
X95810152Y-98675180D01*
X95714914Y-98627561D01*
X95667295Y-98579942D01*
X95619676Y-98484704D01*
X95572057Y-98294228D01*
X95572057Y-98056133D01*
X95619676Y-97865657D01*
X95667295Y-97770419D01*
X95714914Y-97722800D01*
X95810152Y-97675180D01*
%TO.C,C1060*%
X125017742Y-48153438D02*
X125065361Y-48201057D01*
X125112980Y-48343914D01*
X125112980Y-48439152D01*
X125065361Y-48582009D01*
X124970123Y-48677247D01*
X124874885Y-48724866D01*
X124684409Y-48772485D01*
X124541552Y-48772485D01*
X124351076Y-48724866D01*
X124255838Y-48677247D01*
X124160600Y-48582009D01*
X124112980Y-48439152D01*
X124112980Y-48343914D01*
X124160600Y-48201057D01*
X124208219Y-48153438D01*
X125112980Y-47201057D02*
X125112980Y-47772485D01*
X125112980Y-47486771D02*
X124112980Y-47486771D01*
X124255838Y-47582009D01*
X124351076Y-47677247D01*
X124398695Y-47772485D01*
X124112980Y-46582009D02*
X124112980Y-46486771D01*
X124160600Y-46391533D01*
X124208219Y-46343914D01*
X124303457Y-46296295D01*
X124493933Y-46248676D01*
X124732028Y-46248676D01*
X124922504Y-46296295D01*
X125017742Y-46343914D01*
X125065361Y-46391533D01*
X125112980Y-46486771D01*
X125112980Y-46582009D01*
X125065361Y-46677247D01*
X125017742Y-46724866D01*
X124922504Y-46772485D01*
X124732028Y-46820104D01*
X124493933Y-46820104D01*
X124303457Y-46772485D01*
X124208219Y-46724866D01*
X124160600Y-46677247D01*
X124112980Y-46582009D01*
X124112980Y-45391533D02*
X124112980Y-45582009D01*
X124160600Y-45677247D01*
X124208219Y-45724866D01*
X124351076Y-45820104D01*
X124541552Y-45867723D01*
X124922504Y-45867723D01*
X125017742Y-45820104D01*
X125065361Y-45772485D01*
X125112980Y-45677247D01*
X125112980Y-45486771D01*
X125065361Y-45391533D01*
X125017742Y-45343914D01*
X124922504Y-45296295D01*
X124684409Y-45296295D01*
X124589171Y-45343914D01*
X124541552Y-45391533D01*
X124493933Y-45486771D01*
X124493933Y-45677247D01*
X124541552Y-45772485D01*
X124589171Y-45820104D01*
X124684409Y-45867723D01*
X124112980Y-44677247D02*
X124112980Y-44582009D01*
X124160600Y-44486771D01*
X124208219Y-44439152D01*
X124303457Y-44391533D01*
X124493933Y-44343914D01*
X124732028Y-44343914D01*
X124922504Y-44391533D01*
X125017742Y-44439152D01*
X125065361Y-44486771D01*
X125112980Y-44582009D01*
X125112980Y-44677247D01*
X125065361Y-44772485D01*
X125017742Y-44820104D01*
X124922504Y-44867723D01*
X124732028Y-44915342D01*
X124493933Y-44915342D01*
X124303457Y-44867723D01*
X124208219Y-44820104D01*
X124160600Y-44772485D01*
X124112980Y-44677247D01*
%TO.C,D1053*%
X44491180Y-56131266D02*
X43491180Y-56131266D01*
X43491180Y-55893171D01*
X43538800Y-55750314D01*
X43634038Y-55655076D01*
X43729276Y-55607457D01*
X43919752Y-55559838D01*
X44062609Y-55559838D01*
X44253085Y-55607457D01*
X44348323Y-55655076D01*
X44443561Y-55750314D01*
X44491180Y-55893171D01*
X44491180Y-56131266D01*
X44491180Y-54607457D02*
X44491180Y-55178885D01*
X44491180Y-54893171D02*
X43491180Y-54893171D01*
X43634038Y-54988409D01*
X43729276Y-55083647D01*
X43776895Y-55178885D01*
X43491180Y-53988409D02*
X43491180Y-53893171D01*
X43538800Y-53797933D01*
X43586419Y-53750314D01*
X43681657Y-53702695D01*
X43872133Y-53655076D01*
X44110228Y-53655076D01*
X44300704Y-53702695D01*
X44395942Y-53750314D01*
X44443561Y-53797933D01*
X44491180Y-53893171D01*
X44491180Y-53988409D01*
X44443561Y-54083647D01*
X44395942Y-54131266D01*
X44300704Y-54178885D01*
X44110228Y-54226504D01*
X43872133Y-54226504D01*
X43681657Y-54178885D01*
X43586419Y-54131266D01*
X43538800Y-54083647D01*
X43491180Y-53988409D01*
X43491180Y-52750314D02*
X43491180Y-53226504D01*
X43967371Y-53274123D01*
X43919752Y-53226504D01*
X43872133Y-53131266D01*
X43872133Y-52893171D01*
X43919752Y-52797933D01*
X43967371Y-52750314D01*
X44062609Y-52702695D01*
X44300704Y-52702695D01*
X44395942Y-52750314D01*
X44443561Y-52797933D01*
X44491180Y-52893171D01*
X44491180Y-53131266D01*
X44443561Y-53226504D01*
X44395942Y-53274123D01*
X43491180Y-52369361D02*
X43491180Y-51750314D01*
X43872133Y-52083647D01*
X43872133Y-51940790D01*
X43919752Y-51845552D01*
X43967371Y-51797933D01*
X44062609Y-51750314D01*
X44300704Y-51750314D01*
X44395942Y-51797933D01*
X44443561Y-51845552D01*
X44491180Y-51940790D01*
X44491180Y-52226504D01*
X44443561Y-52321742D01*
X44395942Y-52369361D01*
%TO.C,J1062*%
X38823095Y-68972380D02*
X38823095Y-69686666D01*
X38775476Y-69829523D01*
X38680238Y-69924761D01*
X38537380Y-69972380D01*
X38442142Y-69972380D01*
X39823095Y-69972380D02*
X39251666Y-69972380D01*
X39537380Y-69972380D02*
X39537380Y-68972380D01*
X39442142Y-69115238D01*
X39346904Y-69210476D01*
X39251666Y-69258095D01*
X40442142Y-68972380D02*
X40537380Y-68972380D01*
X40632619Y-69020000D01*
X40680238Y-69067619D01*
X40727857Y-69162857D01*
X40775476Y-69353333D01*
X40775476Y-69591428D01*
X40727857Y-69781904D01*
X40680238Y-69877142D01*
X40632619Y-69924761D01*
X40537380Y-69972380D01*
X40442142Y-69972380D01*
X40346904Y-69924761D01*
X40299285Y-69877142D01*
X40251666Y-69781904D01*
X40204047Y-69591428D01*
X40204047Y-69353333D01*
X40251666Y-69162857D01*
X40299285Y-69067619D01*
X40346904Y-69020000D01*
X40442142Y-68972380D01*
X41632619Y-68972380D02*
X41442142Y-68972380D01*
X41346904Y-69020000D01*
X41299285Y-69067619D01*
X41204047Y-69210476D01*
X41156428Y-69400952D01*
X41156428Y-69781904D01*
X41204047Y-69877142D01*
X41251666Y-69924761D01*
X41346904Y-69972380D01*
X41537380Y-69972380D01*
X41632619Y-69924761D01*
X41680238Y-69877142D01*
X41727857Y-69781904D01*
X41727857Y-69543809D01*
X41680238Y-69448571D01*
X41632619Y-69400952D01*
X41537380Y-69353333D01*
X41346904Y-69353333D01*
X41251666Y-69400952D01*
X41204047Y-69448571D01*
X41156428Y-69543809D01*
X42108809Y-69067619D02*
X42156428Y-69020000D01*
X42251666Y-68972380D01*
X42489761Y-68972380D01*
X42585000Y-69020000D01*
X42632619Y-69067619D01*
X42680238Y-69162857D01*
X42680238Y-69258095D01*
X42632619Y-69400952D01*
X42061190Y-69972380D01*
X42680238Y-69972380D01*
X38364523Y-84632380D02*
X38364523Y-85441904D01*
X38412142Y-85537142D01*
X38459761Y-85584761D01*
X38555000Y-85632380D01*
X38745476Y-85632380D01*
X38840714Y-85584761D01*
X38888333Y-85537142D01*
X38935952Y-85441904D01*
X38935952Y-84632380D01*
X39364523Y-85584761D02*
X39507380Y-85632380D01*
X39745476Y-85632380D01*
X39840714Y-85584761D01*
X39888333Y-85537142D01*
X39935952Y-85441904D01*
X39935952Y-85346666D01*
X39888333Y-85251428D01*
X39840714Y-85203809D01*
X39745476Y-85156190D01*
X39555000Y-85108571D01*
X39459761Y-85060952D01*
X39412142Y-85013333D01*
X39364523Y-84918095D01*
X39364523Y-84822857D01*
X39412142Y-84727619D01*
X39459761Y-84680000D01*
X39555000Y-84632380D01*
X39793095Y-84632380D01*
X39935952Y-84680000D01*
X40697857Y-85108571D02*
X40840714Y-85156190D01*
X40888333Y-85203809D01*
X40935952Y-85299047D01*
X40935952Y-85441904D01*
X40888333Y-85537142D01*
X40840714Y-85584761D01*
X40745476Y-85632380D01*
X40364523Y-85632380D01*
X40364523Y-84632380D01*
X40697857Y-84632380D01*
X40793095Y-84680000D01*
X40840714Y-84727619D01*
X40888333Y-84822857D01*
X40888333Y-84918095D01*
X40840714Y-85013333D01*
X40793095Y-85060952D01*
X40697857Y-85108571D01*
X40364523Y-85108571D01*
X42126428Y-85108571D02*
X42459761Y-85108571D01*
X42602619Y-85632380D02*
X42126428Y-85632380D01*
X42126428Y-84632380D01*
X42602619Y-84632380D01*
X42935952Y-85632380D02*
X43459761Y-84965714D01*
X42935952Y-84965714D02*
X43459761Y-85632380D01*
X43697857Y-84965714D02*
X44078809Y-84965714D01*
X43840714Y-84632380D02*
X43840714Y-85489523D01*
X43888333Y-85584761D01*
X43983571Y-85632380D01*
X44078809Y-85632380D01*
X44793095Y-85584761D02*
X44697857Y-85632380D01*
X44507380Y-85632380D01*
X44412142Y-85584761D01*
X44364523Y-85489523D01*
X44364523Y-85108571D01*
X44412142Y-85013333D01*
X44507380Y-84965714D01*
X44697857Y-84965714D01*
X44793095Y-85013333D01*
X44840714Y-85108571D01*
X44840714Y-85203809D01*
X44364523Y-85299047D01*
X45269285Y-85632380D02*
X45269285Y-84965714D01*
X45269285Y-85156190D02*
X45316904Y-85060952D01*
X45364523Y-85013333D01*
X45459761Y-84965714D01*
X45555000Y-84965714D01*
X45888333Y-84965714D02*
X45888333Y-85632380D01*
X45888333Y-85060952D02*
X45935952Y-85013333D01*
X46031190Y-84965714D01*
X46174047Y-84965714D01*
X46269285Y-85013333D01*
X46316904Y-85108571D01*
X46316904Y-85632380D01*
X47221666Y-85632380D02*
X47221666Y-85108571D01*
X47174047Y-85013333D01*
X47078809Y-84965714D01*
X46888333Y-84965714D01*
X46793095Y-85013333D01*
X47221666Y-85584761D02*
X47126428Y-85632380D01*
X46888333Y-85632380D01*
X46793095Y-85584761D01*
X46745476Y-85489523D01*
X46745476Y-85394285D01*
X46793095Y-85299047D01*
X46888333Y-85251428D01*
X47126428Y-85251428D01*
X47221666Y-85203809D01*
X47840714Y-85632380D02*
X47745476Y-85584761D01*
X47697857Y-85489523D01*
X47697857Y-84632380D01*
%TO.C,J1061*%
X54882114Y-89072980D02*
X54882114Y-88072980D01*
X55215447Y-88787266D01*
X55548780Y-88072980D01*
X55548780Y-89072980D01*
X56024971Y-89072980D02*
X56024971Y-88406314D01*
X56024971Y-88072980D02*
X55977352Y-88120600D01*
X56024971Y-88168219D01*
X56072590Y-88120600D01*
X56024971Y-88072980D01*
X56024971Y-88168219D01*
X56929733Y-89025361D02*
X56834495Y-89072980D01*
X56644019Y-89072980D01*
X56548780Y-89025361D01*
X56501161Y-88977742D01*
X56453542Y-88882504D01*
X56453542Y-88596790D01*
X56501161Y-88501552D01*
X56548780Y-88453933D01*
X56644019Y-88406314D01*
X56834495Y-88406314D01*
X56929733Y-88453933D01*
X57358304Y-89072980D02*
X57358304Y-88406314D01*
X57358304Y-88596790D02*
X57405923Y-88501552D01*
X57453542Y-88453933D01*
X57548780Y-88406314D01*
X57644019Y-88406314D01*
X58120209Y-89072980D02*
X58024971Y-89025361D01*
X57977352Y-88977742D01*
X57929733Y-88882504D01*
X57929733Y-88596790D01*
X57977352Y-88501552D01*
X58024971Y-88453933D01*
X58120209Y-88406314D01*
X58263066Y-88406314D01*
X58358304Y-88453933D01*
X58405923Y-88501552D01*
X58453542Y-88596790D01*
X58453542Y-88882504D01*
X58405923Y-88977742D01*
X58358304Y-89025361D01*
X58263066Y-89072980D01*
X58120209Y-89072980D01*
X58644019Y-89168219D02*
X59405923Y-89168219D01*
X59596400Y-89025361D02*
X59739257Y-89072980D01*
X59977352Y-89072980D01*
X60072590Y-89025361D01*
X60120209Y-88977742D01*
X60167828Y-88882504D01*
X60167828Y-88787266D01*
X60120209Y-88692028D01*
X60072590Y-88644409D01*
X59977352Y-88596790D01*
X59786876Y-88549171D01*
X59691638Y-88501552D01*
X59644019Y-88453933D01*
X59596400Y-88358695D01*
X59596400Y-88263457D01*
X59644019Y-88168219D01*
X59691638Y-88120600D01*
X59786876Y-88072980D01*
X60024971Y-88072980D01*
X60167828Y-88120600D01*
X60596400Y-89072980D02*
X60596400Y-88072980D01*
X60834495Y-88072980D01*
X60977352Y-88120600D01*
X61072590Y-88215838D01*
X61120209Y-88311076D01*
X61167828Y-88501552D01*
X61167828Y-88644409D01*
X61120209Y-88834885D01*
X61072590Y-88930123D01*
X60977352Y-89025361D01*
X60834495Y-89072980D01*
X60596400Y-89072980D01*
X61358304Y-89168219D02*
X62120209Y-89168219D01*
X62929733Y-88977742D02*
X62882114Y-89025361D01*
X62739257Y-89072980D01*
X62644019Y-89072980D01*
X62501161Y-89025361D01*
X62405923Y-88930123D01*
X62358304Y-88834885D01*
X62310685Y-88644409D01*
X62310685Y-88501552D01*
X62358304Y-88311076D01*
X62405923Y-88215838D01*
X62501161Y-88120600D01*
X62644019Y-88072980D01*
X62739257Y-88072980D01*
X62882114Y-88120600D01*
X62929733Y-88168219D01*
X63786876Y-89072980D02*
X63786876Y-88549171D01*
X63739257Y-88453933D01*
X63644019Y-88406314D01*
X63453542Y-88406314D01*
X63358304Y-88453933D01*
X63786876Y-89025361D02*
X63691638Y-89072980D01*
X63453542Y-89072980D01*
X63358304Y-89025361D01*
X63310685Y-88930123D01*
X63310685Y-88834885D01*
X63358304Y-88739647D01*
X63453542Y-88692028D01*
X63691638Y-88692028D01*
X63786876Y-88644409D01*
X64263066Y-89072980D02*
X64263066Y-88406314D01*
X64263066Y-88596790D02*
X64310685Y-88501552D01*
X64358304Y-88453933D01*
X64453542Y-88406314D01*
X64548780Y-88406314D01*
X65310685Y-89072980D02*
X65310685Y-88072980D01*
X65310685Y-89025361D02*
X65215447Y-89072980D01*
X65024971Y-89072980D01*
X64929733Y-89025361D01*
X64882114Y-88977742D01*
X64834495Y-88882504D01*
X64834495Y-88596790D01*
X64882114Y-88501552D01*
X64929733Y-88453933D01*
X65024971Y-88406314D01*
X65215447Y-88406314D01*
X65310685Y-88453933D01*
D12*
X58483495Y-98022580D02*
X58483495Y-98736866D01*
X58435876Y-98879723D01*
X58340638Y-98974961D01*
X58197780Y-99022580D01*
X58102542Y-99022580D01*
X59483495Y-99022580D02*
X58912066Y-99022580D01*
X59197780Y-99022580D02*
X59197780Y-98022580D01*
X59102542Y-98165438D01*
X59007304Y-98260676D01*
X58912066Y-98308295D01*
X60102542Y-98022580D02*
X60197780Y-98022580D01*
X60293019Y-98070200D01*
X60340638Y-98117819D01*
X60388257Y-98213057D01*
X60435876Y-98403533D01*
X60435876Y-98641628D01*
X60388257Y-98832104D01*
X60340638Y-98927342D01*
X60293019Y-98974961D01*
X60197780Y-99022580D01*
X60102542Y-99022580D01*
X60007304Y-98974961D01*
X59959685Y-98927342D01*
X59912066Y-98832104D01*
X59864447Y-98641628D01*
X59864447Y-98403533D01*
X59912066Y-98213057D01*
X59959685Y-98117819D01*
X60007304Y-98070200D01*
X60102542Y-98022580D01*
X61293019Y-98022580D02*
X61102542Y-98022580D01*
X61007304Y-98070200D01*
X60959685Y-98117819D01*
X60864447Y-98260676D01*
X60816828Y-98451152D01*
X60816828Y-98832104D01*
X60864447Y-98927342D01*
X60912066Y-98974961D01*
X61007304Y-99022580D01*
X61197780Y-99022580D01*
X61293019Y-98974961D01*
X61340638Y-98927342D01*
X61388257Y-98832104D01*
X61388257Y-98594009D01*
X61340638Y-98498771D01*
X61293019Y-98451152D01*
X61197780Y-98403533D01*
X61007304Y-98403533D01*
X60912066Y-98451152D01*
X60864447Y-98498771D01*
X60816828Y-98594009D01*
X62340638Y-99022580D02*
X61769209Y-99022580D01*
X62054923Y-99022580D02*
X62054923Y-98022580D01*
X61959685Y-98165438D01*
X61864447Y-98260676D01*
X61769209Y-98308295D01*
D11*
%TO.C,D1051*%
X100855733Y-102340580D02*
X100855733Y-101340580D01*
X101093828Y-101340580D01*
X101236685Y-101388200D01*
X101331923Y-101483438D01*
X101379542Y-101578676D01*
X101427161Y-101769152D01*
X101427161Y-101912009D01*
X101379542Y-102102485D01*
X101331923Y-102197723D01*
X101236685Y-102292961D01*
X101093828Y-102340580D01*
X100855733Y-102340580D01*
X102379542Y-102340580D02*
X101808114Y-102340580D01*
X102093828Y-102340580D02*
X102093828Y-101340580D01*
X101998590Y-101483438D01*
X101903352Y-101578676D01*
X101808114Y-101626295D01*
X102998590Y-101340580D02*
X103093828Y-101340580D01*
X103189066Y-101388200D01*
X103236685Y-101435819D01*
X103284304Y-101531057D01*
X103331923Y-101721533D01*
X103331923Y-101959628D01*
X103284304Y-102150104D01*
X103236685Y-102245342D01*
X103189066Y-102292961D01*
X103093828Y-102340580D01*
X102998590Y-102340580D01*
X102903352Y-102292961D01*
X102855733Y-102245342D01*
X102808114Y-102150104D01*
X102760495Y-101959628D01*
X102760495Y-101721533D01*
X102808114Y-101531057D01*
X102855733Y-101435819D01*
X102903352Y-101388200D01*
X102998590Y-101340580D01*
X104236685Y-101340580D02*
X103760495Y-101340580D01*
X103712876Y-101816771D01*
X103760495Y-101769152D01*
X103855733Y-101721533D01*
X104093828Y-101721533D01*
X104189066Y-101769152D01*
X104236685Y-101816771D01*
X104284304Y-101912009D01*
X104284304Y-102150104D01*
X104236685Y-102245342D01*
X104189066Y-102292961D01*
X104093828Y-102340580D01*
X103855733Y-102340580D01*
X103760495Y-102292961D01*
X103712876Y-102245342D01*
X105236685Y-102340580D02*
X104665257Y-102340580D01*
X104950971Y-102340580D02*
X104950971Y-101340580D01*
X104855733Y-101483438D01*
X104760495Y-101578676D01*
X104665257Y-101626295D01*
X98617638Y-104980580D02*
X99236685Y-104980580D01*
X98903352Y-105361533D01*
X99046209Y-105361533D01*
X99141447Y-105409152D01*
X99189066Y-105456771D01*
X99236685Y-105552009D01*
X99236685Y-105790104D01*
X99189066Y-105885342D01*
X99141447Y-105932961D01*
X99046209Y-105980580D01*
X98760495Y-105980580D01*
X98665257Y-105932961D01*
X98617638Y-105885342D01*
X99665257Y-105885342D02*
X99712876Y-105932961D01*
X99665257Y-105980580D01*
X99617638Y-105932961D01*
X99665257Y-105885342D01*
X99665257Y-105980580D01*
X100046209Y-104980580D02*
X100665257Y-104980580D01*
X100331923Y-105361533D01*
X100474780Y-105361533D01*
X100570019Y-105409152D01*
X100617638Y-105456771D01*
X100665257Y-105552009D01*
X100665257Y-105790104D01*
X100617638Y-105885342D01*
X100570019Y-105932961D01*
X100474780Y-105980580D01*
X100189066Y-105980580D01*
X100093828Y-105932961D01*
X100046209Y-105885342D01*
X100950971Y-104980580D02*
X101284304Y-105980580D01*
X101617638Y-104980580D01*
X102712876Y-105980580D02*
X102712876Y-104980580D01*
X103093828Y-104980580D01*
X103189066Y-105028200D01*
X103236685Y-105075819D01*
X103284304Y-105171057D01*
X103284304Y-105313914D01*
X103236685Y-105409152D01*
X103189066Y-105456771D01*
X103093828Y-105504390D01*
X102712876Y-105504390D01*
X103903352Y-104980580D02*
X104093828Y-104980580D01*
X104189066Y-105028200D01*
X104284304Y-105123438D01*
X104331923Y-105313914D01*
X104331923Y-105647247D01*
X104284304Y-105837723D01*
X104189066Y-105932961D01*
X104093828Y-105980580D01*
X103903352Y-105980580D01*
X103808114Y-105932961D01*
X103712876Y-105837723D01*
X103665257Y-105647247D01*
X103665257Y-105313914D01*
X103712876Y-105123438D01*
X103808114Y-105028200D01*
X103903352Y-104980580D01*
X104665257Y-104980580D02*
X104903352Y-105980580D01*
X105093828Y-105266295D01*
X105284304Y-105980580D01*
X105522400Y-104980580D01*
X105903352Y-105456771D02*
X106236685Y-105456771D01*
X106379542Y-105980580D02*
X105903352Y-105980580D01*
X105903352Y-104980580D01*
X106379542Y-104980580D01*
X107379542Y-105980580D02*
X107046209Y-105504390D01*
X106808114Y-105980580D02*
X106808114Y-104980580D01*
X107189066Y-104980580D01*
X107284304Y-105028200D01*
X107331923Y-105075819D01*
X107379542Y-105171057D01*
X107379542Y-105313914D01*
X107331923Y-105409152D01*
X107284304Y-105456771D01*
X107189066Y-105504390D01*
X106808114Y-105504390D01*
%TO.C,J1050*%
X115293276Y-51814361D02*
X115436133Y-51861980D01*
X115674228Y-51861980D01*
X115769466Y-51814361D01*
X115817085Y-51766742D01*
X115864704Y-51671504D01*
X115864704Y-51576266D01*
X115817085Y-51481028D01*
X115769466Y-51433409D01*
X115674228Y-51385790D01*
X115483752Y-51338171D01*
X115388514Y-51290552D01*
X115340895Y-51242933D01*
X115293276Y-51147695D01*
X115293276Y-51052457D01*
X115340895Y-50957219D01*
X115388514Y-50909600D01*
X115483752Y-50861980D01*
X115721847Y-50861980D01*
X115864704Y-50909600D01*
X116293276Y-51338171D02*
X116626609Y-51338171D01*
X116769466Y-51861980D02*
X116293276Y-51861980D01*
X116293276Y-50861980D01*
X116769466Y-50861980D01*
X117769466Y-51861980D02*
X117436133Y-51385790D01*
X117198038Y-51861980D02*
X117198038Y-50861980D01*
X117578990Y-50861980D01*
X117674228Y-50909600D01*
X117721847Y-50957219D01*
X117769466Y-51052457D01*
X117769466Y-51195314D01*
X117721847Y-51290552D01*
X117674228Y-51338171D01*
X117578990Y-51385790D01*
X117198038Y-51385790D01*
X118198038Y-51861980D02*
X118198038Y-50861980D01*
X118626609Y-51576266D02*
X119102800Y-51576266D01*
X118531371Y-51861980D02*
X118864704Y-50861980D01*
X119198038Y-51861980D01*
X120007561Y-51861980D02*
X119531371Y-51861980D01*
X119531371Y-50861980D01*
%TO.C,SW1050*%
X119284895Y-100463304D02*
X119018228Y-100082352D01*
X118827752Y-100463304D02*
X118827752Y-99663304D01*
X119132514Y-99663304D01*
X119208704Y-99701400D01*
X119246800Y-99739495D01*
X119284895Y-99815685D01*
X119284895Y-99929971D01*
X119246800Y-100006161D01*
X119208704Y-100044257D01*
X119132514Y-100082352D01*
X118827752Y-100082352D01*
X119627752Y-100044257D02*
X119894419Y-100044257D01*
X120008704Y-100463304D02*
X119627752Y-100463304D01*
X119627752Y-99663304D01*
X120008704Y-99663304D01*
X120313466Y-100425209D02*
X120427752Y-100463304D01*
X120618228Y-100463304D01*
X120694419Y-100425209D01*
X120732514Y-100387114D01*
X120770609Y-100310923D01*
X120770609Y-100234733D01*
X120732514Y-100158542D01*
X120694419Y-100120447D01*
X120618228Y-100082352D01*
X120465847Y-100044257D01*
X120389657Y-100006161D01*
X120351561Y-99968066D01*
X120313466Y-99891876D01*
X120313466Y-99815685D01*
X120351561Y-99739495D01*
X120389657Y-99701400D01*
X120465847Y-99663304D01*
X120656323Y-99663304D01*
X120770609Y-99701400D01*
X121113466Y-100044257D02*
X121380133Y-100044257D01*
X121494419Y-100463304D02*
X121113466Y-100463304D01*
X121113466Y-99663304D01*
X121494419Y-99663304D01*
X121722990Y-99663304D02*
X122180133Y-99663304D01*
X121951561Y-100463304D02*
X121951561Y-99663304D01*
%TO.C,R1051*%
X101407161Y-98675180D02*
X101073828Y-98198990D01*
X100835733Y-98675180D02*
X100835733Y-97675180D01*
X101216685Y-97675180D01*
X101311923Y-97722800D01*
X101359542Y-97770419D01*
X101407161Y-97865657D01*
X101407161Y-98008514D01*
X101359542Y-98103752D01*
X101311923Y-98151371D01*
X101216685Y-98198990D01*
X100835733Y-98198990D01*
X102359542Y-98675180D02*
X101788114Y-98675180D01*
X102073828Y-98675180D02*
X102073828Y-97675180D01*
X101978590Y-97818038D01*
X101883352Y-97913276D01*
X101788114Y-97960895D01*
X102978590Y-97675180D02*
X103073828Y-97675180D01*
X103169066Y-97722800D01*
X103216685Y-97770419D01*
X103264304Y-97865657D01*
X103311923Y-98056133D01*
X103311923Y-98294228D01*
X103264304Y-98484704D01*
X103216685Y-98579942D01*
X103169066Y-98627561D01*
X103073828Y-98675180D01*
X102978590Y-98675180D01*
X102883352Y-98627561D01*
X102835733Y-98579942D01*
X102788114Y-98484704D01*
X102740495Y-98294228D01*
X102740495Y-98056133D01*
X102788114Y-97865657D01*
X102835733Y-97770419D01*
X102883352Y-97722800D01*
X102978590Y-97675180D01*
X104216685Y-97675180D02*
X103740495Y-97675180D01*
X103692876Y-98151371D01*
X103740495Y-98103752D01*
X103835733Y-98056133D01*
X104073828Y-98056133D01*
X104169066Y-98103752D01*
X104216685Y-98151371D01*
X104264304Y-98246609D01*
X104264304Y-98484704D01*
X104216685Y-98579942D01*
X104169066Y-98627561D01*
X104073828Y-98675180D01*
X103835733Y-98675180D01*
X103740495Y-98627561D01*
X103692876Y-98579942D01*
X105216685Y-98675180D02*
X104645257Y-98675180D01*
X104930971Y-98675180D02*
X104930971Y-97675180D01*
X104835733Y-97818038D01*
X104740495Y-97913276D01*
X104645257Y-97960895D01*
%TO.C,C1061*%
X118975142Y-48153438D02*
X119022761Y-48201057D01*
X119070380Y-48343914D01*
X119070380Y-48439152D01*
X119022761Y-48582009D01*
X118927523Y-48677247D01*
X118832285Y-48724866D01*
X118641809Y-48772485D01*
X118498952Y-48772485D01*
X118308476Y-48724866D01*
X118213238Y-48677247D01*
X118118000Y-48582009D01*
X118070380Y-48439152D01*
X118070380Y-48343914D01*
X118118000Y-48201057D01*
X118165619Y-48153438D01*
X119070380Y-47201057D02*
X119070380Y-47772485D01*
X119070380Y-47486771D02*
X118070380Y-47486771D01*
X118213238Y-47582009D01*
X118308476Y-47677247D01*
X118356095Y-47772485D01*
X118070380Y-46582009D02*
X118070380Y-46486771D01*
X118118000Y-46391533D01*
X118165619Y-46343914D01*
X118260857Y-46296295D01*
X118451333Y-46248676D01*
X118689428Y-46248676D01*
X118879904Y-46296295D01*
X118975142Y-46343914D01*
X119022761Y-46391533D01*
X119070380Y-46486771D01*
X119070380Y-46582009D01*
X119022761Y-46677247D01*
X118975142Y-46724866D01*
X118879904Y-46772485D01*
X118689428Y-46820104D01*
X118451333Y-46820104D01*
X118260857Y-46772485D01*
X118165619Y-46724866D01*
X118118000Y-46677247D01*
X118070380Y-46582009D01*
X118070380Y-45391533D02*
X118070380Y-45582009D01*
X118118000Y-45677247D01*
X118165619Y-45724866D01*
X118308476Y-45820104D01*
X118498952Y-45867723D01*
X118879904Y-45867723D01*
X118975142Y-45820104D01*
X119022761Y-45772485D01*
X119070380Y-45677247D01*
X119070380Y-45486771D01*
X119022761Y-45391533D01*
X118975142Y-45343914D01*
X118879904Y-45296295D01*
X118641809Y-45296295D01*
X118546571Y-45343914D01*
X118498952Y-45391533D01*
X118451333Y-45486771D01*
X118451333Y-45677247D01*
X118498952Y-45772485D01*
X118546571Y-45820104D01*
X118641809Y-45867723D01*
X119070380Y-44343914D02*
X119070380Y-44915342D01*
X119070380Y-44629628D02*
X118070380Y-44629628D01*
X118213238Y-44724866D01*
X118308476Y-44820104D01*
X118356095Y-44915342D01*
%TO.C,IC1060*%
X116551580Y-41063561D02*
X115551580Y-41063561D01*
X116456342Y-40015942D02*
X116503961Y-40063561D01*
X116551580Y-40206419D01*
X116551580Y-40301657D01*
X116503961Y-40444514D01*
X116408723Y-40539752D01*
X116313485Y-40587371D01*
X116123009Y-40634990D01*
X115980152Y-40634990D01*
X115789676Y-40587371D01*
X115694438Y-40539752D01*
X115599200Y-40444514D01*
X115551580Y-40301657D01*
X115551580Y-40206419D01*
X115599200Y-40063561D01*
X115646819Y-40015942D01*
X116551580Y-39063561D02*
X116551580Y-39634990D01*
X116551580Y-39349276D02*
X115551580Y-39349276D01*
X115694438Y-39444514D01*
X115789676Y-39539752D01*
X115837295Y-39634990D01*
X115551580Y-38444514D02*
X115551580Y-38349276D01*
X115599200Y-38254038D01*
X115646819Y-38206419D01*
X115742057Y-38158800D01*
X115932533Y-38111180D01*
X116170628Y-38111180D01*
X116361104Y-38158800D01*
X116456342Y-38206419D01*
X116503961Y-38254038D01*
X116551580Y-38349276D01*
X116551580Y-38444514D01*
X116503961Y-38539752D01*
X116456342Y-38587371D01*
X116361104Y-38634990D01*
X116170628Y-38682609D01*
X115932533Y-38682609D01*
X115742057Y-38634990D01*
X115646819Y-38587371D01*
X115599200Y-38539752D01*
X115551580Y-38444514D01*
X115551580Y-37254038D02*
X115551580Y-37444514D01*
X115599200Y-37539752D01*
X115646819Y-37587371D01*
X115789676Y-37682609D01*
X115980152Y-37730228D01*
X116361104Y-37730228D01*
X116456342Y-37682609D01*
X116503961Y-37634990D01*
X116551580Y-37539752D01*
X116551580Y-37349276D01*
X116503961Y-37254038D01*
X116456342Y-37206419D01*
X116361104Y-37158800D01*
X116123009Y-37158800D01*
X116027771Y-37206419D01*
X115980152Y-37254038D01*
X115932533Y-37349276D01*
X115932533Y-37539752D01*
X115980152Y-37634990D01*
X116027771Y-37682609D01*
X116123009Y-37730228D01*
X115551580Y-36539752D02*
X115551580Y-36444514D01*
X115599200Y-36349276D01*
X115646819Y-36301657D01*
X115742057Y-36254038D01*
X115932533Y-36206419D01*
X116170628Y-36206419D01*
X116361104Y-36254038D01*
X116456342Y-36301657D01*
X116503961Y-36349276D01*
X116551580Y-36444514D01*
X116551580Y-36539752D01*
X116503961Y-36634990D01*
X116456342Y-36682609D01*
X116361104Y-36730228D01*
X116170628Y-36777847D01*
X115932533Y-36777847D01*
X115742057Y-36730228D01*
X115646819Y-36682609D01*
X115599200Y-36634990D01*
X115551580Y-36539752D01*
X125551580Y-42634990D02*
X125551580Y-43111180D01*
X124551580Y-43111180D01*
X125551580Y-42301657D02*
X124551580Y-42301657D01*
X125265866Y-41968323D01*
X124551580Y-41634990D01*
X125551580Y-41634990D01*
X125551580Y-40634990D02*
X125551580Y-41206419D01*
X125551580Y-40920704D02*
X124551580Y-40920704D01*
X124694438Y-41015942D01*
X124789676Y-41111180D01*
X124837295Y-41206419D01*
X125551580Y-39682609D02*
X125551580Y-40254038D01*
X125551580Y-39968323D02*
X124551580Y-39968323D01*
X124694438Y-40063561D01*
X124789676Y-40158800D01*
X124837295Y-40254038D01*
X125551580Y-38730228D02*
X125551580Y-39301657D01*
X125551580Y-39015942D02*
X124551580Y-39015942D01*
X124694438Y-39111180D01*
X124789676Y-39206419D01*
X124837295Y-39301657D01*
X124551580Y-38396895D02*
X124551580Y-37730228D01*
X125551580Y-38158800D01*
X125170628Y-37349276D02*
X125170628Y-36587371D01*
X124551580Y-36206419D02*
X124551580Y-35587371D01*
X124932533Y-35920704D01*
X124932533Y-35777847D01*
X124980152Y-35682609D01*
X125027771Y-35634990D01*
X125123009Y-35587371D01*
X125361104Y-35587371D01*
X125456342Y-35634990D01*
X125503961Y-35682609D01*
X125551580Y-35777847D01*
X125551580Y-36063561D01*
X125503961Y-36158800D01*
X125456342Y-36206419D01*
X125456342Y-35158800D02*
X125503961Y-35111180D01*
X125551580Y-35158800D01*
X125503961Y-35206419D01*
X125456342Y-35158800D01*
X125551580Y-35158800D01*
X124551580Y-34777847D02*
X124551580Y-34158800D01*
X124932533Y-34492133D01*
X124932533Y-34349276D01*
X124980152Y-34254038D01*
X125027771Y-34206419D01*
X125123009Y-34158800D01*
X125361104Y-34158800D01*
X125456342Y-34206419D01*
X125503961Y-34254038D01*
X125551580Y-34349276D01*
X125551580Y-34634990D01*
X125503961Y-34730228D01*
X125456342Y-34777847D01*
D13*
X118675390Y-39020704D02*
X118675390Y-38220704D01*
X119513485Y-38944514D02*
X119475390Y-38982609D01*
X119361104Y-39020704D01*
X119284914Y-39020704D01*
X119170628Y-38982609D01*
X119094438Y-38906419D01*
X119056342Y-38830228D01*
X119018247Y-38677847D01*
X119018247Y-38563561D01*
X119056342Y-38411180D01*
X119094438Y-38334990D01*
X119170628Y-38258800D01*
X119284914Y-38220704D01*
X119361104Y-38220704D01*
X119475390Y-38258800D01*
X119513485Y-38296895D01*
X120275390Y-39020704D02*
X119818247Y-39020704D01*
X120046819Y-39020704D02*
X120046819Y-38220704D01*
X119970628Y-38334990D01*
X119894438Y-38411180D01*
X119818247Y-38449276D01*
X120770628Y-38220704D02*
X120846819Y-38220704D01*
X120923009Y-38258800D01*
X120961104Y-38296895D01*
X120999200Y-38373085D01*
X121037295Y-38525466D01*
X121037295Y-38715942D01*
X120999200Y-38868323D01*
X120961104Y-38944514D01*
X120923009Y-38982609D01*
X120846819Y-39020704D01*
X120770628Y-39020704D01*
X120694438Y-38982609D01*
X120656342Y-38944514D01*
X120618247Y-38868323D01*
X120580152Y-38715942D01*
X120580152Y-38525466D01*
X120618247Y-38373085D01*
X120656342Y-38296895D01*
X120694438Y-38258800D01*
X120770628Y-38220704D01*
X121723009Y-38220704D02*
X121570628Y-38220704D01*
X121494438Y-38258800D01*
X121456342Y-38296895D01*
X121380152Y-38411180D01*
X121342057Y-38563561D01*
X121342057Y-38868323D01*
X121380152Y-38944514D01*
X121418247Y-38982609D01*
X121494438Y-39020704D01*
X121646819Y-39020704D01*
X121723009Y-38982609D01*
X121761104Y-38944514D01*
X121799200Y-38868323D01*
X121799200Y-38677847D01*
X121761104Y-38601657D01*
X121723009Y-38563561D01*
X121646819Y-38525466D01*
X121494438Y-38525466D01*
X121418247Y-38563561D01*
X121380152Y-38601657D01*
X121342057Y-38677847D01*
X122294438Y-38220704D02*
X122370628Y-38220704D01*
X122446819Y-38258800D01*
X122484914Y-38296895D01*
X122523009Y-38373085D01*
X122561104Y-38525466D01*
X122561104Y-38715942D01*
X122523009Y-38868323D01*
X122484914Y-38944514D01*
X122446819Y-38982609D01*
X122370628Y-39020704D01*
X122294438Y-39020704D01*
X122218247Y-38982609D01*
X122180152Y-38944514D01*
X122142057Y-38868323D01*
X122103961Y-38715942D01*
X122103961Y-38525466D01*
X122142057Y-38373085D01*
X122180152Y-38296895D01*
X122218247Y-38258800D01*
X122294438Y-38220704D01*
D11*
%TO.C,CE1051*%
X41932942Y-40214319D02*
X41980561Y-40261938D01*
X42028180Y-40404795D01*
X42028180Y-40500033D01*
X41980561Y-40642890D01*
X41885323Y-40738128D01*
X41790085Y-40785747D01*
X41599609Y-40833366D01*
X41456752Y-40833366D01*
X41266276Y-40785747D01*
X41171038Y-40738128D01*
X41075800Y-40642890D01*
X41028180Y-40500033D01*
X41028180Y-40404795D01*
X41075800Y-40261938D01*
X41123419Y-40214319D01*
X41504371Y-39785747D02*
X41504371Y-39452414D01*
X42028180Y-39309557D02*
X42028180Y-39785747D01*
X41028180Y-39785747D01*
X41028180Y-39309557D01*
X42028180Y-38357176D02*
X42028180Y-38928604D01*
X42028180Y-38642890D02*
X41028180Y-38642890D01*
X41171038Y-38738128D01*
X41266276Y-38833366D01*
X41313895Y-38928604D01*
X41028180Y-37738128D02*
X41028180Y-37642890D01*
X41075800Y-37547652D01*
X41123419Y-37500033D01*
X41218657Y-37452414D01*
X41409133Y-37404795D01*
X41647228Y-37404795D01*
X41837704Y-37452414D01*
X41932942Y-37500033D01*
X41980561Y-37547652D01*
X42028180Y-37642890D01*
X42028180Y-37738128D01*
X41980561Y-37833366D01*
X41932942Y-37880985D01*
X41837704Y-37928604D01*
X41647228Y-37976223D01*
X41409133Y-37976223D01*
X41218657Y-37928604D01*
X41123419Y-37880985D01*
X41075800Y-37833366D01*
X41028180Y-37738128D01*
X41028180Y-36500033D02*
X41028180Y-36976223D01*
X41504371Y-37023842D01*
X41456752Y-36976223D01*
X41409133Y-36880985D01*
X41409133Y-36642890D01*
X41456752Y-36547652D01*
X41504371Y-36500033D01*
X41599609Y-36452414D01*
X41837704Y-36452414D01*
X41932942Y-36500033D01*
X41980561Y-36547652D01*
X42028180Y-36642890D01*
X42028180Y-36880985D01*
X41980561Y-36976223D01*
X41932942Y-37023842D01*
X42028180Y-35500033D02*
X42028180Y-36071461D01*
X42028180Y-35785747D02*
X41028180Y-35785747D01*
X41171038Y-35880985D01*
X41266276Y-35976223D01*
X41313895Y-36071461D01*
X94197114Y-43384880D02*
X93720923Y-43384880D01*
X93673304Y-43861071D01*
X93720923Y-43813452D01*
X93816161Y-43765833D01*
X94054257Y-43765833D01*
X94149495Y-43813452D01*
X94197114Y-43861071D01*
X94244733Y-43956309D01*
X94244733Y-44194404D01*
X94197114Y-44289642D01*
X94149495Y-44337261D01*
X94054257Y-44384880D01*
X93816161Y-44384880D01*
X93720923Y-44337261D01*
X93673304Y-44289642D01*
X94863780Y-43384880D02*
X94959019Y-43384880D01*
X95054257Y-43432500D01*
X95101876Y-43480119D01*
X95149495Y-43575357D01*
X95197114Y-43765833D01*
X95197114Y-44003928D01*
X95149495Y-44194404D01*
X95101876Y-44289642D01*
X95054257Y-44337261D01*
X94959019Y-44384880D01*
X94863780Y-44384880D01*
X94768542Y-44337261D01*
X94720923Y-44289642D01*
X94673304Y-44194404D01*
X94625685Y-44003928D01*
X94625685Y-43765833D01*
X94673304Y-43575357D01*
X94720923Y-43480119D01*
X94768542Y-43432500D01*
X94863780Y-43384880D01*
X95625685Y-44384880D02*
X95625685Y-43384880D01*
X96006638Y-43384880D01*
X96101876Y-43432500D01*
X96149495Y-43480119D01*
X96197114Y-43575357D01*
X96197114Y-43718214D01*
X96149495Y-43813452D01*
X96101876Y-43861071D01*
X96006638Y-43908690D01*
X95625685Y-43908690D01*
X96625685Y-44384880D02*
X96625685Y-43718214D01*
X96625685Y-43384880D02*
X96578066Y-43432500D01*
X96625685Y-43480119D01*
X96673304Y-43432500D01*
X96625685Y-43384880D01*
X96625685Y-43480119D01*
X97101876Y-43718214D02*
X97101876Y-44384880D01*
X97101876Y-43813452D02*
X97149495Y-43765833D01*
X97244733Y-43718214D01*
X97387590Y-43718214D01*
X97482828Y-43765833D01*
X97530447Y-43861071D01*
X97530447Y-44384880D01*
X98768542Y-43861071D02*
X99101876Y-43861071D01*
X99244733Y-44384880D02*
X98768542Y-44384880D01*
X98768542Y-43384880D01*
X99244733Y-43384880D01*
X99578066Y-44384880D02*
X100101876Y-43718214D01*
X99578066Y-43718214D02*
X100101876Y-44384880D01*
X100482828Y-43718214D02*
X100482828Y-44718214D01*
X100482828Y-43765833D02*
X100578066Y-43718214D01*
X100768542Y-43718214D01*
X100863780Y-43765833D01*
X100911400Y-43813452D01*
X100959019Y-43908690D01*
X100959019Y-44194404D01*
X100911400Y-44289642D01*
X100863780Y-44337261D01*
X100768542Y-44384880D01*
X100578066Y-44384880D01*
X100482828Y-44337261D01*
X101816161Y-44384880D02*
X101816161Y-43861071D01*
X101768542Y-43765833D01*
X101673304Y-43718214D01*
X101482828Y-43718214D01*
X101387590Y-43765833D01*
X101816161Y-44337261D02*
X101720923Y-44384880D01*
X101482828Y-44384880D01*
X101387590Y-44337261D01*
X101339971Y-44242023D01*
X101339971Y-44146785D01*
X101387590Y-44051547D01*
X101482828Y-44003928D01*
X101720923Y-44003928D01*
X101816161Y-43956309D01*
X102292352Y-43718214D02*
X102292352Y-44384880D01*
X102292352Y-43813452D02*
X102339971Y-43765833D01*
X102435209Y-43718214D01*
X102578066Y-43718214D01*
X102673304Y-43765833D01*
X102720923Y-43861071D01*
X102720923Y-44384880D01*
X103149495Y-44337261D02*
X103244733Y-44384880D01*
X103435209Y-44384880D01*
X103530447Y-44337261D01*
X103578066Y-44242023D01*
X103578066Y-44194404D01*
X103530447Y-44099166D01*
X103435209Y-44051547D01*
X103292352Y-44051547D01*
X103197114Y-44003928D01*
X103149495Y-43908690D01*
X103149495Y-43861071D01*
X103197114Y-43765833D01*
X103292352Y-43718214D01*
X103435209Y-43718214D01*
X103530447Y-43765833D01*
X104006638Y-44384880D02*
X104006638Y-43718214D01*
X104006638Y-43384880D02*
X103959019Y-43432500D01*
X104006638Y-43480119D01*
X104054257Y-43432500D01*
X104006638Y-43384880D01*
X104006638Y-43480119D01*
X104625685Y-44384880D02*
X104530447Y-44337261D01*
X104482828Y-44289642D01*
X104435209Y-44194404D01*
X104435209Y-43908690D01*
X104482828Y-43813452D01*
X104530447Y-43765833D01*
X104625685Y-43718214D01*
X104768542Y-43718214D01*
X104863780Y-43765833D01*
X104911400Y-43813452D01*
X104959019Y-43908690D01*
X104959019Y-44194404D01*
X104911400Y-44289642D01*
X104863780Y-44337261D01*
X104768542Y-44384880D01*
X104625685Y-44384880D01*
X105387590Y-43718214D02*
X105387590Y-44384880D01*
X105387590Y-43813452D02*
X105435209Y-43765833D01*
X105530447Y-43718214D01*
X105673304Y-43718214D01*
X105768542Y-43765833D01*
X105816161Y-43861071D01*
X105816161Y-44384880D01*
X107625685Y-44289642D02*
X107578066Y-44337261D01*
X107435209Y-44384880D01*
X107339971Y-44384880D01*
X107197114Y-44337261D01*
X107101876Y-44242023D01*
X107054257Y-44146785D01*
X107006638Y-43956309D01*
X107006638Y-43813452D01*
X107054257Y-43622976D01*
X107101876Y-43527738D01*
X107197114Y-43432500D01*
X107339971Y-43384880D01*
X107435209Y-43384880D01*
X107578066Y-43432500D01*
X107625685Y-43480119D01*
X108197114Y-44384880D02*
X108101876Y-44337261D01*
X108054257Y-44289642D01*
X108006638Y-44194404D01*
X108006638Y-43908690D01*
X108054257Y-43813452D01*
X108101876Y-43765833D01*
X108197114Y-43718214D01*
X108339971Y-43718214D01*
X108435209Y-43765833D01*
X108482828Y-43813452D01*
X108530447Y-43908690D01*
X108530447Y-44194404D01*
X108482828Y-44289642D01*
X108435209Y-44337261D01*
X108339971Y-44384880D01*
X108197114Y-44384880D01*
X108959019Y-43718214D02*
X108959019Y-44384880D01*
X108959019Y-43813452D02*
X109006638Y-43765833D01*
X109101876Y-43718214D01*
X109244733Y-43718214D01*
X109339971Y-43765833D01*
X109387590Y-43861071D01*
X109387590Y-44384880D01*
X109863780Y-43718214D02*
X109863780Y-44384880D01*
X109863780Y-43813452D02*
X109911400Y-43765833D01*
X110006638Y-43718214D01*
X110149495Y-43718214D01*
X110244733Y-43765833D01*
X110292352Y-43861071D01*
X110292352Y-44384880D01*
X111149495Y-44337261D02*
X111054257Y-44384880D01*
X110863780Y-44384880D01*
X110768542Y-44337261D01*
X110720923Y-44242023D01*
X110720923Y-43861071D01*
X110768542Y-43765833D01*
X110863780Y-43718214D01*
X111054257Y-43718214D01*
X111149495Y-43765833D01*
X111197114Y-43861071D01*
X111197114Y-43956309D01*
X110720923Y-44051547D01*
X112054257Y-44337261D02*
X111959019Y-44384880D01*
X111768542Y-44384880D01*
X111673304Y-44337261D01*
X111625685Y-44289642D01*
X111578066Y-44194404D01*
X111578066Y-43908690D01*
X111625685Y-43813452D01*
X111673304Y-43765833D01*
X111768542Y-43718214D01*
X111959019Y-43718214D01*
X112054257Y-43765833D01*
X112339971Y-43718214D02*
X112720923Y-43718214D01*
X112482828Y-43384880D02*
X112482828Y-44242023D01*
X112530447Y-44337261D01*
X112625685Y-44384880D01*
X112720923Y-44384880D01*
X113197114Y-44384880D02*
X113101876Y-44337261D01*
X113054257Y-44289642D01*
X113006638Y-44194404D01*
X113006638Y-43908690D01*
X113054257Y-43813452D01*
X113101876Y-43765833D01*
X113197114Y-43718214D01*
X113339971Y-43718214D01*
X113435209Y-43765833D01*
X113482828Y-43813452D01*
X113530447Y-43908690D01*
X113530447Y-44194404D01*
X113482828Y-44289642D01*
X113435209Y-44337261D01*
X113339971Y-44384880D01*
X113197114Y-44384880D01*
X113959019Y-44384880D02*
X113959019Y-43718214D01*
X113959019Y-43908690D02*
X114006638Y-43813452D01*
X114054257Y-43765833D01*
X114149495Y-43718214D01*
X114244733Y-43718214D01*
%TO.C,R1062*%
X74135780Y-82099238D02*
X73659590Y-82432571D01*
X74135780Y-82670666D02*
X73135780Y-82670666D01*
X73135780Y-82289714D01*
X73183400Y-82194476D01*
X73231019Y-82146857D01*
X73326257Y-82099238D01*
X73469114Y-82099238D01*
X73564352Y-82146857D01*
X73611971Y-82194476D01*
X73659590Y-82289714D01*
X73659590Y-82670666D01*
X74135780Y-81146857D02*
X74135780Y-81718285D01*
X74135780Y-81432571D02*
X73135780Y-81432571D01*
X73278638Y-81527809D01*
X73373876Y-81623047D01*
X73421495Y-81718285D01*
X73135780Y-80527809D02*
X73135780Y-80432571D01*
X73183400Y-80337333D01*
X73231019Y-80289714D01*
X73326257Y-80242095D01*
X73516733Y-80194476D01*
X73754828Y-80194476D01*
X73945304Y-80242095D01*
X74040542Y-80289714D01*
X74088161Y-80337333D01*
X74135780Y-80432571D01*
X74135780Y-80527809D01*
X74088161Y-80623047D01*
X74040542Y-80670666D01*
X73945304Y-80718285D01*
X73754828Y-80765904D01*
X73516733Y-80765904D01*
X73326257Y-80718285D01*
X73231019Y-80670666D01*
X73183400Y-80623047D01*
X73135780Y-80527809D01*
X73135780Y-79337333D02*
X73135780Y-79527809D01*
X73183400Y-79623047D01*
X73231019Y-79670666D01*
X73373876Y-79765904D01*
X73564352Y-79813523D01*
X73945304Y-79813523D01*
X74040542Y-79765904D01*
X74088161Y-79718285D01*
X74135780Y-79623047D01*
X74135780Y-79432571D01*
X74088161Y-79337333D01*
X74040542Y-79289714D01*
X73945304Y-79242095D01*
X73707209Y-79242095D01*
X73611971Y-79289714D01*
X73564352Y-79337333D01*
X73516733Y-79432571D01*
X73516733Y-79623047D01*
X73564352Y-79718285D01*
X73611971Y-79765904D01*
X73707209Y-79813523D01*
X73231019Y-78861142D02*
X73183400Y-78813523D01*
X73135780Y-78718285D01*
X73135780Y-78480190D01*
X73183400Y-78384952D01*
X73231019Y-78337333D01*
X73326257Y-78289714D01*
X73421495Y-78289714D01*
X73564352Y-78337333D01*
X74135780Y-78908761D01*
X74135780Y-78289714D01*
%TO.C,C1051*%
X117536542Y-27737238D02*
X117584161Y-27784857D01*
X117631780Y-27927714D01*
X117631780Y-28022952D01*
X117584161Y-28165809D01*
X117488923Y-28261047D01*
X117393685Y-28308666D01*
X117203209Y-28356285D01*
X117060352Y-28356285D01*
X116869876Y-28308666D01*
X116774638Y-28261047D01*
X116679400Y-28165809D01*
X116631780Y-28022952D01*
X116631780Y-27927714D01*
X116679400Y-27784857D01*
X116727019Y-27737238D01*
X117631780Y-26784857D02*
X117631780Y-27356285D01*
X117631780Y-27070571D02*
X116631780Y-27070571D01*
X116774638Y-27165809D01*
X116869876Y-27261047D01*
X116917495Y-27356285D01*
X116631780Y-26165809D02*
X116631780Y-26070571D01*
X116679400Y-25975333D01*
X116727019Y-25927714D01*
X116822257Y-25880095D01*
X117012733Y-25832476D01*
X117250828Y-25832476D01*
X117441304Y-25880095D01*
X117536542Y-25927714D01*
X117584161Y-25975333D01*
X117631780Y-26070571D01*
X117631780Y-26165809D01*
X117584161Y-26261047D01*
X117536542Y-26308666D01*
X117441304Y-26356285D01*
X117250828Y-26403904D01*
X117012733Y-26403904D01*
X116822257Y-26356285D01*
X116727019Y-26308666D01*
X116679400Y-26261047D01*
X116631780Y-26165809D01*
X116631780Y-24927714D02*
X116631780Y-25403904D01*
X117107971Y-25451523D01*
X117060352Y-25403904D01*
X117012733Y-25308666D01*
X117012733Y-25070571D01*
X117060352Y-24975333D01*
X117107971Y-24927714D01*
X117203209Y-24880095D01*
X117441304Y-24880095D01*
X117536542Y-24927714D01*
X117584161Y-24975333D01*
X117631780Y-25070571D01*
X117631780Y-25308666D01*
X117584161Y-25403904D01*
X117536542Y-25451523D01*
X117631780Y-23927714D02*
X117631780Y-24499142D01*
X117631780Y-24213428D02*
X116631780Y-24213428D01*
X116774638Y-24308666D01*
X116869876Y-24403904D01*
X116917495Y-24499142D01*
X125131780Y-27689619D02*
X125131780Y-28261047D01*
X125131780Y-27975333D02*
X124131780Y-27975333D01*
X124274638Y-28070571D01*
X124369876Y-28165809D01*
X124417495Y-28261047D01*
X124131780Y-27070571D02*
X124131780Y-26975333D01*
X124179400Y-26880095D01*
X124227019Y-26832476D01*
X124322257Y-26784857D01*
X124512733Y-26737238D01*
X124750828Y-26737238D01*
X124941304Y-26784857D01*
X125036542Y-26832476D01*
X125084161Y-26880095D01*
X125131780Y-26975333D01*
X125131780Y-27070571D01*
X125084161Y-27165809D01*
X125036542Y-27213428D01*
X124941304Y-27261047D01*
X124750828Y-27308666D01*
X124512733Y-27308666D01*
X124322257Y-27261047D01*
X124227019Y-27213428D01*
X124179400Y-27165809D01*
X124131780Y-27070571D01*
X124131780Y-26118190D02*
X124131780Y-26022952D01*
X124179400Y-25927714D01*
X124227019Y-25880095D01*
X124322257Y-25832476D01*
X124512733Y-25784857D01*
X124750828Y-25784857D01*
X124941304Y-25832476D01*
X125036542Y-25880095D01*
X125084161Y-25927714D01*
X125131780Y-26022952D01*
X125131780Y-26118190D01*
X125084161Y-26213428D01*
X125036542Y-26261047D01*
X124941304Y-26308666D01*
X124750828Y-26356285D01*
X124512733Y-26356285D01*
X124322257Y-26308666D01*
X124227019Y-26261047D01*
X124179400Y-26213428D01*
X124131780Y-26118190D01*
X124465114Y-24927714D02*
X125131780Y-24927714D01*
X124465114Y-25356285D02*
X124988923Y-25356285D01*
X125084161Y-25308666D01*
X125131780Y-25213428D01*
X125131780Y-25070571D01*
X125084161Y-24975333D01*
X125036542Y-24927714D01*
X124607971Y-24118190D02*
X124607971Y-24451523D01*
X125131780Y-24451523D02*
X124131780Y-24451523D01*
X124131780Y-23975333D01*
%TO.C,J1060*%
X41867295Y-89266780D02*
X41867295Y-90076304D01*
X41914914Y-90171542D01*
X41962533Y-90219161D01*
X42057771Y-90266780D01*
X42248247Y-90266780D01*
X42343485Y-90219161D01*
X42391104Y-90171542D01*
X42438723Y-90076304D01*
X42438723Y-89266780D01*
X42867295Y-90219161D02*
X43010152Y-90266780D01*
X43248247Y-90266780D01*
X43343485Y-90219161D01*
X43391104Y-90171542D01*
X43438723Y-90076304D01*
X43438723Y-89981066D01*
X43391104Y-89885828D01*
X43343485Y-89838209D01*
X43248247Y-89790590D01*
X43057771Y-89742971D01*
X42962533Y-89695352D01*
X42914914Y-89647733D01*
X42867295Y-89552495D01*
X42867295Y-89457257D01*
X42914914Y-89362019D01*
X42962533Y-89314400D01*
X43057771Y-89266780D01*
X43295866Y-89266780D01*
X43438723Y-89314400D01*
X44200628Y-89742971D02*
X44343485Y-89790590D01*
X44391104Y-89838209D01*
X44438723Y-89933447D01*
X44438723Y-90076304D01*
X44391104Y-90171542D01*
X44343485Y-90219161D01*
X44248247Y-90266780D01*
X43867295Y-90266780D01*
X43867295Y-89266780D01*
X44200628Y-89266780D01*
X44295866Y-89314400D01*
X44343485Y-89362019D01*
X44391104Y-89457257D01*
X44391104Y-89552495D01*
X44343485Y-89647733D01*
X44295866Y-89695352D01*
X44200628Y-89742971D01*
X43867295Y-89742971D01*
X41316495Y-96420580D02*
X41316495Y-97134866D01*
X41268876Y-97277723D01*
X41173638Y-97372961D01*
X41030780Y-97420580D01*
X40935542Y-97420580D01*
X42316495Y-97420580D02*
X41745066Y-97420580D01*
X42030780Y-97420580D02*
X42030780Y-96420580D01*
X41935542Y-96563438D01*
X41840304Y-96658676D01*
X41745066Y-96706295D01*
X42935542Y-96420580D02*
X43030780Y-96420580D01*
X43126019Y-96468200D01*
X43173638Y-96515819D01*
X43221257Y-96611057D01*
X43268876Y-96801533D01*
X43268876Y-97039628D01*
X43221257Y-97230104D01*
X43173638Y-97325342D01*
X43126019Y-97372961D01*
X43030780Y-97420580D01*
X42935542Y-97420580D01*
X42840304Y-97372961D01*
X42792685Y-97325342D01*
X42745066Y-97230104D01*
X42697447Y-97039628D01*
X42697447Y-96801533D01*
X42745066Y-96611057D01*
X42792685Y-96515819D01*
X42840304Y-96468200D01*
X42935542Y-96420580D01*
X44126019Y-96420580D02*
X43935542Y-96420580D01*
X43840304Y-96468200D01*
X43792685Y-96515819D01*
X43697447Y-96658676D01*
X43649828Y-96849152D01*
X43649828Y-97230104D01*
X43697447Y-97325342D01*
X43745066Y-97372961D01*
X43840304Y-97420580D01*
X44030780Y-97420580D01*
X44126019Y-97372961D01*
X44173638Y-97325342D01*
X44221257Y-97230104D01*
X44221257Y-96992009D01*
X44173638Y-96896771D01*
X44126019Y-96849152D01*
X44030780Y-96801533D01*
X43840304Y-96801533D01*
X43745066Y-96849152D01*
X43697447Y-96896771D01*
X43649828Y-96992009D01*
X44840304Y-96420580D02*
X44935542Y-96420580D01*
X45030780Y-96468200D01*
X45078400Y-96515819D01*
X45126019Y-96611057D01*
X45173638Y-96801533D01*
X45173638Y-97039628D01*
X45126019Y-97230104D01*
X45078400Y-97325342D01*
X45030780Y-97372961D01*
X44935542Y-97420580D01*
X44840304Y-97420580D01*
X44745066Y-97372961D01*
X44697447Y-97325342D01*
X44649828Y-97230104D01*
X44602209Y-97039628D01*
X44602209Y-96801533D01*
X44649828Y-96611057D01*
X44697447Y-96515819D01*
X44745066Y-96468200D01*
X44840304Y-96420580D01*
%TO.C,R1063*%
X76142380Y-82099238D02*
X75666190Y-82432571D01*
X76142380Y-82670666D02*
X75142380Y-82670666D01*
X75142380Y-82289714D01*
X75190000Y-82194476D01*
X75237619Y-82146857D01*
X75332857Y-82099238D01*
X75475714Y-82099238D01*
X75570952Y-82146857D01*
X75618571Y-82194476D01*
X75666190Y-82289714D01*
X75666190Y-82670666D01*
X76142380Y-81146857D02*
X76142380Y-81718285D01*
X76142380Y-81432571D02*
X75142380Y-81432571D01*
X75285238Y-81527809D01*
X75380476Y-81623047D01*
X75428095Y-81718285D01*
X75142380Y-80527809D02*
X75142380Y-80432571D01*
X75190000Y-80337333D01*
X75237619Y-80289714D01*
X75332857Y-80242095D01*
X75523333Y-80194476D01*
X75761428Y-80194476D01*
X75951904Y-80242095D01*
X76047142Y-80289714D01*
X76094761Y-80337333D01*
X76142380Y-80432571D01*
X76142380Y-80527809D01*
X76094761Y-80623047D01*
X76047142Y-80670666D01*
X75951904Y-80718285D01*
X75761428Y-80765904D01*
X75523333Y-80765904D01*
X75332857Y-80718285D01*
X75237619Y-80670666D01*
X75190000Y-80623047D01*
X75142380Y-80527809D01*
X75142380Y-79337333D02*
X75142380Y-79527809D01*
X75190000Y-79623047D01*
X75237619Y-79670666D01*
X75380476Y-79765904D01*
X75570952Y-79813523D01*
X75951904Y-79813523D01*
X76047142Y-79765904D01*
X76094761Y-79718285D01*
X76142380Y-79623047D01*
X76142380Y-79432571D01*
X76094761Y-79337333D01*
X76047142Y-79289714D01*
X75951904Y-79242095D01*
X75713809Y-79242095D01*
X75618571Y-79289714D01*
X75570952Y-79337333D01*
X75523333Y-79432571D01*
X75523333Y-79623047D01*
X75570952Y-79718285D01*
X75618571Y-79765904D01*
X75713809Y-79813523D01*
X75142380Y-78908761D02*
X75142380Y-78289714D01*
X75523333Y-78623047D01*
X75523333Y-78480190D01*
X75570952Y-78384952D01*
X75618571Y-78337333D01*
X75713809Y-78289714D01*
X75951904Y-78289714D01*
X76047142Y-78337333D01*
X76094761Y-78384952D01*
X76142380Y-78480190D01*
X76142380Y-78765904D01*
X76094761Y-78861142D01*
X76047142Y-78908761D01*
%TO.C,D1060*%
X109257733Y-102391380D02*
X109257733Y-101391380D01*
X109495828Y-101391380D01*
X109638685Y-101439000D01*
X109733923Y-101534238D01*
X109781542Y-101629476D01*
X109829161Y-101819952D01*
X109829161Y-101962809D01*
X109781542Y-102153285D01*
X109733923Y-102248523D01*
X109638685Y-102343761D01*
X109495828Y-102391380D01*
X109257733Y-102391380D01*
X110781542Y-102391380D02*
X110210114Y-102391380D01*
X110495828Y-102391380D02*
X110495828Y-101391380D01*
X110400590Y-101534238D01*
X110305352Y-101629476D01*
X110210114Y-101677095D01*
X111400590Y-101391380D02*
X111495828Y-101391380D01*
X111591066Y-101439000D01*
X111638685Y-101486619D01*
X111686304Y-101581857D01*
X111733923Y-101772333D01*
X111733923Y-102010428D01*
X111686304Y-102200904D01*
X111638685Y-102296142D01*
X111591066Y-102343761D01*
X111495828Y-102391380D01*
X111400590Y-102391380D01*
X111305352Y-102343761D01*
X111257733Y-102296142D01*
X111210114Y-102200904D01*
X111162495Y-102010428D01*
X111162495Y-101772333D01*
X111210114Y-101581857D01*
X111257733Y-101486619D01*
X111305352Y-101439000D01*
X111400590Y-101391380D01*
X112591066Y-101391380D02*
X112400590Y-101391380D01*
X112305352Y-101439000D01*
X112257733Y-101486619D01*
X112162495Y-101629476D01*
X112114876Y-101819952D01*
X112114876Y-102200904D01*
X112162495Y-102296142D01*
X112210114Y-102343761D01*
X112305352Y-102391380D01*
X112495828Y-102391380D01*
X112591066Y-102343761D01*
X112638685Y-102296142D01*
X112686304Y-102200904D01*
X112686304Y-101962809D01*
X112638685Y-101867571D01*
X112591066Y-101819952D01*
X112495828Y-101772333D01*
X112305352Y-101772333D01*
X112210114Y-101819952D01*
X112162495Y-101867571D01*
X112114876Y-101962809D01*
X113305352Y-101391380D02*
X113400590Y-101391380D01*
X113495828Y-101439000D01*
X113543447Y-101486619D01*
X113591066Y-101581857D01*
X113638685Y-101772333D01*
X113638685Y-102010428D01*
X113591066Y-102200904D01*
X113543447Y-102296142D01*
X113495828Y-102343761D01*
X113400590Y-102391380D01*
X113305352Y-102391380D01*
X113210114Y-102343761D01*
X113162495Y-102296142D01*
X113114876Y-102200904D01*
X113067257Y-102010428D01*
X113067257Y-101772333D01*
X113114876Y-101581857D01*
X113162495Y-101486619D01*
X113210114Y-101439000D01*
X113305352Y-101391380D01*
X110305352Y-105745666D02*
X110781542Y-105745666D01*
X110210114Y-106031380D02*
X110543447Y-105031380D01*
X110876780Y-106031380D01*
X111781542Y-105936142D02*
X111733923Y-105983761D01*
X111591066Y-106031380D01*
X111495828Y-106031380D01*
X111352971Y-105983761D01*
X111257733Y-105888523D01*
X111210114Y-105793285D01*
X111162495Y-105602809D01*
X111162495Y-105459952D01*
X111210114Y-105269476D01*
X111257733Y-105174238D01*
X111352971Y-105079000D01*
X111495828Y-105031380D01*
X111591066Y-105031380D01*
X111733923Y-105079000D01*
X111781542Y-105126619D01*
X112067257Y-105031380D02*
X112638685Y-105031380D01*
X112352971Y-106031380D02*
X112352971Y-105031380D01*
%TO.C,J1051*%
X115192209Y-87091780D02*
X115192209Y-86091780D01*
X116239828Y-86996542D02*
X116192209Y-87044161D01*
X116049352Y-87091780D01*
X115954114Y-87091780D01*
X115811257Y-87044161D01*
X115716019Y-86948923D01*
X115668400Y-86853685D01*
X115620780Y-86663209D01*
X115620780Y-86520352D01*
X115668400Y-86329876D01*
X115716019Y-86234638D01*
X115811257Y-86139400D01*
X115954114Y-86091780D01*
X116049352Y-86091780D01*
X116192209Y-86139400D01*
X116239828Y-86187019D01*
X116620780Y-87044161D02*
X116763638Y-87091780D01*
X117001733Y-87091780D01*
X117096971Y-87044161D01*
X117144590Y-86996542D01*
X117192209Y-86901304D01*
X117192209Y-86806066D01*
X117144590Y-86710828D01*
X117096971Y-86663209D01*
X117001733Y-86615590D01*
X116811257Y-86567971D01*
X116716019Y-86520352D01*
X116668400Y-86472733D01*
X116620780Y-86377495D01*
X116620780Y-86282257D01*
X116668400Y-86187019D01*
X116716019Y-86139400D01*
X116811257Y-86091780D01*
X117049352Y-86091780D01*
X117192209Y-86139400D01*
X117620780Y-87091780D02*
X117620780Y-86091780D01*
X118001733Y-86091780D01*
X118096971Y-86139400D01*
X118144590Y-86187019D01*
X118192209Y-86282257D01*
X118192209Y-86425114D01*
X118144590Y-86520352D01*
X118096971Y-86567971D01*
X118001733Y-86615590D01*
X117620780Y-86615590D01*
%TO.C,SW1051*%
X72707714Y-100387104D02*
X72707714Y-99587104D01*
X73012476Y-99587104D01*
X73088666Y-99625200D01*
X73126761Y-99663295D01*
X73164857Y-99739485D01*
X73164857Y-99853771D01*
X73126761Y-99929961D01*
X73088666Y-99968057D01*
X73012476Y-100006152D01*
X72707714Y-100006152D01*
X73469619Y-100158533D02*
X73850571Y-100158533D01*
X73393428Y-100387104D02*
X73660095Y-99587104D01*
X73926761Y-100387104D01*
X74193428Y-99587104D02*
X74193428Y-100234723D01*
X74231523Y-100310914D01*
X74269619Y-100349009D01*
X74345809Y-100387104D01*
X74498190Y-100387104D01*
X74574380Y-100349009D01*
X74612476Y-100310914D01*
X74650571Y-100234723D01*
X74650571Y-99587104D01*
X74993428Y-100349009D02*
X75107714Y-100387104D01*
X75298190Y-100387104D01*
X75374380Y-100349009D01*
X75412476Y-100310914D01*
X75450571Y-100234723D01*
X75450571Y-100158533D01*
X75412476Y-100082342D01*
X75374380Y-100044247D01*
X75298190Y-100006152D01*
X75145809Y-99968057D01*
X75069619Y-99929961D01*
X75031523Y-99891866D01*
X74993428Y-99815676D01*
X74993428Y-99739485D01*
X75031523Y-99663295D01*
X75069619Y-99625200D01*
X75145809Y-99587104D01*
X75336285Y-99587104D01*
X75450571Y-99625200D01*
X75793428Y-99968057D02*
X76060095Y-99968057D01*
X76174380Y-100387104D02*
X75793428Y-100387104D01*
X75793428Y-99587104D01*
X76174380Y-99587104D01*
%TO.C,R1060*%
X109809161Y-98725980D02*
X109475828Y-98249790D01*
X109237733Y-98725980D02*
X109237733Y-97725980D01*
X109618685Y-97725980D01*
X109713923Y-97773600D01*
X109761542Y-97821219D01*
X109809161Y-97916457D01*
X109809161Y-98059314D01*
X109761542Y-98154552D01*
X109713923Y-98202171D01*
X109618685Y-98249790D01*
X109237733Y-98249790D01*
X110761542Y-98725980D02*
X110190114Y-98725980D01*
X110475828Y-98725980D02*
X110475828Y-97725980D01*
X110380590Y-97868838D01*
X110285352Y-97964076D01*
X110190114Y-98011695D01*
X111380590Y-97725980D02*
X111475828Y-97725980D01*
X111571066Y-97773600D01*
X111618685Y-97821219D01*
X111666304Y-97916457D01*
X111713923Y-98106933D01*
X111713923Y-98345028D01*
X111666304Y-98535504D01*
X111618685Y-98630742D01*
X111571066Y-98678361D01*
X111475828Y-98725980D01*
X111380590Y-98725980D01*
X111285352Y-98678361D01*
X111237733Y-98630742D01*
X111190114Y-98535504D01*
X111142495Y-98345028D01*
X111142495Y-98106933D01*
X111190114Y-97916457D01*
X111237733Y-97821219D01*
X111285352Y-97773600D01*
X111380590Y-97725980D01*
X112571066Y-97725980D02*
X112380590Y-97725980D01*
X112285352Y-97773600D01*
X112237733Y-97821219D01*
X112142495Y-97964076D01*
X112094876Y-98154552D01*
X112094876Y-98535504D01*
X112142495Y-98630742D01*
X112190114Y-98678361D01*
X112285352Y-98725980D01*
X112475828Y-98725980D01*
X112571066Y-98678361D01*
X112618685Y-98630742D01*
X112666304Y-98535504D01*
X112666304Y-98297409D01*
X112618685Y-98202171D01*
X112571066Y-98154552D01*
X112475828Y-98106933D01*
X112285352Y-98106933D01*
X112190114Y-98154552D01*
X112142495Y-98202171D01*
X112094876Y-98297409D01*
X113285352Y-97725980D02*
X113380590Y-97725980D01*
X113475828Y-97773600D01*
X113523447Y-97821219D01*
X113571066Y-97916457D01*
X113618685Y-98106933D01*
X113618685Y-98345028D01*
X113571066Y-98535504D01*
X113523447Y-98630742D01*
X113475828Y-98678361D01*
X113380590Y-98725980D01*
X113285352Y-98725980D01*
X113190114Y-98678361D01*
X113142495Y-98630742D01*
X113094876Y-98535504D01*
X113047257Y-98345028D01*
X113047257Y-98106933D01*
X113094876Y-97916457D01*
X113142495Y-97821219D01*
X113190114Y-97773600D01*
X113285352Y-97725980D01*
%TO.C,IC1061*%
X51002380Y-80114761D02*
X50002380Y-80114761D01*
X50907142Y-79067142D02*
X50954761Y-79114761D01*
X51002380Y-79257619D01*
X51002380Y-79352857D01*
X50954761Y-79495714D01*
X50859523Y-79590952D01*
X50764285Y-79638571D01*
X50573809Y-79686190D01*
X50430952Y-79686190D01*
X50240476Y-79638571D01*
X50145238Y-79590952D01*
X50050000Y-79495714D01*
X50002380Y-79352857D01*
X50002380Y-79257619D01*
X50050000Y-79114761D01*
X50097619Y-79067142D01*
X51002380Y-78114761D02*
X51002380Y-78686190D01*
X51002380Y-78400476D02*
X50002380Y-78400476D01*
X50145238Y-78495714D01*
X50240476Y-78590952D01*
X50288095Y-78686190D01*
X50002380Y-77495714D02*
X50002380Y-77400476D01*
X50050000Y-77305238D01*
X50097619Y-77257619D01*
X50192857Y-77210000D01*
X50383333Y-77162380D01*
X50621428Y-77162380D01*
X50811904Y-77210000D01*
X50907142Y-77257619D01*
X50954761Y-77305238D01*
X51002380Y-77400476D01*
X51002380Y-77495714D01*
X50954761Y-77590952D01*
X50907142Y-77638571D01*
X50811904Y-77686190D01*
X50621428Y-77733809D01*
X50383333Y-77733809D01*
X50192857Y-77686190D01*
X50097619Y-77638571D01*
X50050000Y-77590952D01*
X50002380Y-77495714D01*
X50002380Y-76305238D02*
X50002380Y-76495714D01*
X50050000Y-76590952D01*
X50097619Y-76638571D01*
X50240476Y-76733809D01*
X50430952Y-76781428D01*
X50811904Y-76781428D01*
X50907142Y-76733809D01*
X50954761Y-76686190D01*
X51002380Y-76590952D01*
X51002380Y-76400476D01*
X50954761Y-76305238D01*
X50907142Y-76257619D01*
X50811904Y-76210000D01*
X50573809Y-76210000D01*
X50478571Y-76257619D01*
X50430952Y-76305238D01*
X50383333Y-76400476D01*
X50383333Y-76590952D01*
X50430952Y-76686190D01*
X50478571Y-76733809D01*
X50573809Y-76781428D01*
X51002380Y-75257619D02*
X51002380Y-75829047D01*
X51002380Y-75543333D02*
X50002380Y-75543333D01*
X50145238Y-75638571D01*
X50240476Y-75733809D01*
X50288095Y-75829047D01*
X70707142Y-79829047D02*
X70754761Y-79876666D01*
X70802380Y-80019523D01*
X70802380Y-80114761D01*
X70754761Y-80257619D01*
X70659523Y-80352857D01*
X70564285Y-80400476D01*
X70373809Y-80448095D01*
X70230952Y-80448095D01*
X70040476Y-80400476D01*
X69945238Y-80352857D01*
X69850000Y-80257619D01*
X69802380Y-80114761D01*
X69802380Y-80019523D01*
X69850000Y-79876666D01*
X69897619Y-79829047D01*
X70802380Y-79400476D02*
X69802380Y-79400476D01*
X70278571Y-79400476D02*
X70278571Y-78829047D01*
X70802380Y-78829047D02*
X69802380Y-78829047D01*
X69802380Y-78448095D02*
X69802380Y-77829047D01*
X70183333Y-78162380D01*
X70183333Y-78019523D01*
X70230952Y-77924285D01*
X70278571Y-77876666D01*
X70373809Y-77829047D01*
X70611904Y-77829047D01*
X70707142Y-77876666D01*
X70754761Y-77924285D01*
X70802380Y-78019523D01*
X70802380Y-78305238D01*
X70754761Y-78400476D01*
X70707142Y-78448095D01*
X69802380Y-77495714D02*
X69802380Y-76829047D01*
X70802380Y-77257619D01*
X69802380Y-76019523D02*
X69802380Y-76210000D01*
X69850000Y-76305238D01*
X69897619Y-76352857D01*
X70040476Y-76448095D01*
X70230952Y-76495714D01*
X70611904Y-76495714D01*
X70707142Y-76448095D01*
X70754761Y-76400476D01*
X70802380Y-76305238D01*
X70802380Y-76114761D01*
X70754761Y-76019523D01*
X70707142Y-75971904D01*
X70611904Y-75924285D01*
X70373809Y-75924285D01*
X70278571Y-75971904D01*
X70230952Y-76019523D01*
X70183333Y-76114761D01*
X70183333Y-76305238D01*
X70230952Y-76400476D01*
X70278571Y-76448095D01*
X70373809Y-76495714D01*
X70754761Y-75543333D02*
X70802380Y-75400476D01*
X70802380Y-75162380D01*
X70754761Y-75067142D01*
X70707142Y-75019523D01*
X70611904Y-74971904D01*
X70516666Y-74971904D01*
X70421428Y-75019523D01*
X70373809Y-75067142D01*
X70326190Y-75162380D01*
X70278571Y-75352857D01*
X70230952Y-75448095D01*
X70183333Y-75495714D01*
X70088095Y-75543333D01*
X69992857Y-75543333D01*
X69897619Y-75495714D01*
X69850000Y-75448095D01*
X69802380Y-75352857D01*
X69802380Y-75114761D01*
X69850000Y-74971904D01*
X58045238Y-78162380D02*
X58045238Y-77162380D01*
X59092857Y-78067142D02*
X59045238Y-78114761D01*
X58902380Y-78162380D01*
X58807142Y-78162380D01*
X58664285Y-78114761D01*
X58569047Y-78019523D01*
X58521428Y-77924285D01*
X58473809Y-77733809D01*
X58473809Y-77590952D01*
X58521428Y-77400476D01*
X58569047Y-77305238D01*
X58664285Y-77210000D01*
X58807142Y-77162380D01*
X58902380Y-77162380D01*
X59045238Y-77210000D01*
X59092857Y-77257619D01*
X60045238Y-78162380D02*
X59473809Y-78162380D01*
X59759523Y-78162380D02*
X59759523Y-77162380D01*
X59664285Y-77305238D01*
X59569047Y-77400476D01*
X59473809Y-77448095D01*
X60664285Y-77162380D02*
X60759523Y-77162380D01*
X60854761Y-77210000D01*
X60902380Y-77257619D01*
X60950000Y-77352857D01*
X60997619Y-77543333D01*
X60997619Y-77781428D01*
X60950000Y-77971904D01*
X60902380Y-78067142D01*
X60854761Y-78114761D01*
X60759523Y-78162380D01*
X60664285Y-78162380D01*
X60569047Y-78114761D01*
X60521428Y-78067142D01*
X60473809Y-77971904D01*
X60426190Y-77781428D01*
X60426190Y-77543333D01*
X60473809Y-77352857D01*
X60521428Y-77257619D01*
X60569047Y-77210000D01*
X60664285Y-77162380D01*
X61854761Y-77162380D02*
X61664285Y-77162380D01*
X61569047Y-77210000D01*
X61521428Y-77257619D01*
X61426190Y-77400476D01*
X61378571Y-77590952D01*
X61378571Y-77971904D01*
X61426190Y-78067142D01*
X61473809Y-78114761D01*
X61569047Y-78162380D01*
X61759523Y-78162380D01*
X61854761Y-78114761D01*
X61902380Y-78067142D01*
X61950000Y-77971904D01*
X61950000Y-77733809D01*
X61902380Y-77638571D01*
X61854761Y-77590952D01*
X61759523Y-77543333D01*
X61569047Y-77543333D01*
X61473809Y-77590952D01*
X61426190Y-77638571D01*
X61378571Y-77733809D01*
X62902380Y-78162380D02*
X62330952Y-78162380D01*
X62616666Y-78162380D02*
X62616666Y-77162380D01*
X62521428Y-77305238D01*
X62426190Y-77400476D01*
X62330952Y-77448095D01*
%TO.C,IC1050*%
X49397380Y-59629761D02*
X48397380Y-59629761D01*
X49302142Y-58582142D02*
X49349761Y-58629761D01*
X49397380Y-58772619D01*
X49397380Y-58867857D01*
X49349761Y-59010714D01*
X49254523Y-59105952D01*
X49159285Y-59153571D01*
X48968809Y-59201190D01*
X48825952Y-59201190D01*
X48635476Y-59153571D01*
X48540238Y-59105952D01*
X48445000Y-59010714D01*
X48397380Y-58867857D01*
X48397380Y-58772619D01*
X48445000Y-58629761D01*
X48492619Y-58582142D01*
X49397380Y-57629761D02*
X49397380Y-58201190D01*
X49397380Y-57915476D02*
X48397380Y-57915476D01*
X48540238Y-58010714D01*
X48635476Y-58105952D01*
X48683095Y-58201190D01*
X48397380Y-57010714D02*
X48397380Y-56915476D01*
X48445000Y-56820238D01*
X48492619Y-56772619D01*
X48587857Y-56725000D01*
X48778333Y-56677380D01*
X49016428Y-56677380D01*
X49206904Y-56725000D01*
X49302142Y-56772619D01*
X49349761Y-56820238D01*
X49397380Y-56915476D01*
X49397380Y-57010714D01*
X49349761Y-57105952D01*
X49302142Y-57153571D01*
X49206904Y-57201190D01*
X49016428Y-57248809D01*
X48778333Y-57248809D01*
X48587857Y-57201190D01*
X48492619Y-57153571D01*
X48445000Y-57105952D01*
X48397380Y-57010714D01*
X48397380Y-55772619D02*
X48397380Y-56248809D01*
X48873571Y-56296428D01*
X48825952Y-56248809D01*
X48778333Y-56153571D01*
X48778333Y-55915476D01*
X48825952Y-55820238D01*
X48873571Y-55772619D01*
X48968809Y-55725000D01*
X49206904Y-55725000D01*
X49302142Y-55772619D01*
X49349761Y-55820238D01*
X49397380Y-55915476D01*
X49397380Y-56153571D01*
X49349761Y-56248809D01*
X49302142Y-56296428D01*
X48397380Y-55105952D02*
X48397380Y-55010714D01*
X48445000Y-54915476D01*
X48492619Y-54867857D01*
X48587857Y-54820238D01*
X48778333Y-54772619D01*
X49016428Y-54772619D01*
X49206904Y-54820238D01*
X49302142Y-54867857D01*
X49349761Y-54915476D01*
X49397380Y-55010714D01*
X49397380Y-55105952D01*
X49349761Y-55201190D01*
X49302142Y-55248809D01*
X49206904Y-55296428D01*
X49016428Y-55344047D01*
X48778333Y-55344047D01*
X48587857Y-55296428D01*
X48492619Y-55248809D01*
X48445000Y-55201190D01*
X48397380Y-55105952D01*
X102317380Y-60272619D02*
X102317380Y-60844047D01*
X102317380Y-60558333D02*
X101317380Y-60558333D01*
X101460238Y-60653571D01*
X101555476Y-60748809D01*
X101603095Y-60844047D01*
X101745952Y-59701190D02*
X101698333Y-59796428D01*
X101650714Y-59844047D01*
X101555476Y-59891666D01*
X101507857Y-59891666D01*
X101412619Y-59844047D01*
X101365000Y-59796428D01*
X101317380Y-59701190D01*
X101317380Y-59510714D01*
X101365000Y-59415476D01*
X101412619Y-59367857D01*
X101507857Y-59320238D01*
X101555476Y-59320238D01*
X101650714Y-59367857D01*
X101698333Y-59415476D01*
X101745952Y-59510714D01*
X101745952Y-59701190D01*
X101793571Y-59796428D01*
X101841190Y-59844047D01*
X101936428Y-59891666D01*
X102126904Y-59891666D01*
X102222142Y-59844047D01*
X102269761Y-59796428D01*
X102317380Y-59701190D01*
X102317380Y-59510714D01*
X102269761Y-59415476D01*
X102222142Y-59367857D01*
X102126904Y-59320238D01*
X101936428Y-59320238D01*
X101841190Y-59367857D01*
X101793571Y-59415476D01*
X101745952Y-59510714D01*
X101793571Y-58558333D02*
X101793571Y-58891666D01*
X102317380Y-58891666D02*
X101317380Y-58891666D01*
X101317380Y-58415476D01*
X101650714Y-57605952D02*
X102317380Y-57605952D01*
X101269761Y-57844047D02*
X101984047Y-58082142D01*
X101984047Y-57463095D01*
X101317380Y-57177380D02*
X101317380Y-56510714D01*
X102317380Y-56939285D01*
X102412619Y-55463095D02*
X102365000Y-55558333D01*
X102269761Y-55653571D01*
X102126904Y-55796428D01*
X102079285Y-55891666D01*
X102079285Y-55986904D01*
X102317380Y-55939285D02*
X102269761Y-56034523D01*
X102174523Y-56129761D01*
X101984047Y-56177380D01*
X101650714Y-56177380D01*
X101460238Y-56129761D01*
X101365000Y-56034523D01*
X101317380Y-55939285D01*
X101317380Y-55748809D01*
X101365000Y-55653571D01*
X101460238Y-55558333D01*
X101650714Y-55510714D01*
X101984047Y-55510714D01*
X102174523Y-55558333D01*
X102269761Y-55653571D01*
X102317380Y-55748809D01*
X102317380Y-55939285D01*
X102317380Y-54558333D02*
X102317380Y-55129761D01*
X102317380Y-54844047D02*
X101317380Y-54844047D01*
X101460238Y-54939285D01*
X101555476Y-55034523D01*
X101603095Y-55129761D01*
X101317380Y-53939285D02*
X101317380Y-53844047D01*
X101365000Y-53748809D01*
X101412619Y-53701190D01*
X101507857Y-53653571D01*
X101698333Y-53605952D01*
X101936428Y-53605952D01*
X102126904Y-53653571D01*
X102222142Y-53701190D01*
X102269761Y-53748809D01*
X102317380Y-53844047D01*
X102317380Y-53939285D01*
X102269761Y-54034523D01*
X102222142Y-54082142D01*
X102126904Y-54129761D01*
X101936428Y-54177380D01*
X101698333Y-54177380D01*
X101507857Y-54129761D01*
X101412619Y-54082142D01*
X101365000Y-54034523D01*
X101317380Y-53939285D01*
X73000238Y-57677380D02*
X73000238Y-56677380D01*
X74047857Y-57582142D02*
X74000238Y-57629761D01*
X73857380Y-57677380D01*
X73762142Y-57677380D01*
X73619285Y-57629761D01*
X73524047Y-57534523D01*
X73476428Y-57439285D01*
X73428809Y-57248809D01*
X73428809Y-57105952D01*
X73476428Y-56915476D01*
X73524047Y-56820238D01*
X73619285Y-56725000D01*
X73762142Y-56677380D01*
X73857380Y-56677380D01*
X74000238Y-56725000D01*
X74047857Y-56772619D01*
X75000238Y-57677380D02*
X74428809Y-57677380D01*
X74714523Y-57677380D02*
X74714523Y-56677380D01*
X74619285Y-56820238D01*
X74524047Y-56915476D01*
X74428809Y-56963095D01*
X75619285Y-56677380D02*
X75714523Y-56677380D01*
X75809761Y-56725000D01*
X75857380Y-56772619D01*
X75905000Y-56867857D01*
X75952619Y-57058333D01*
X75952619Y-57296428D01*
X75905000Y-57486904D01*
X75857380Y-57582142D01*
X75809761Y-57629761D01*
X75714523Y-57677380D01*
X75619285Y-57677380D01*
X75524047Y-57629761D01*
X75476428Y-57582142D01*
X75428809Y-57486904D01*
X75381190Y-57296428D01*
X75381190Y-57058333D01*
X75428809Y-56867857D01*
X75476428Y-56772619D01*
X75524047Y-56725000D01*
X75619285Y-56677380D01*
X76857380Y-56677380D02*
X76381190Y-56677380D01*
X76333571Y-57153571D01*
X76381190Y-57105952D01*
X76476428Y-57058333D01*
X76714523Y-57058333D01*
X76809761Y-57105952D01*
X76857380Y-57153571D01*
X76905000Y-57248809D01*
X76905000Y-57486904D01*
X76857380Y-57582142D01*
X76809761Y-57629761D01*
X76714523Y-57677380D01*
X76476428Y-57677380D01*
X76381190Y-57629761D01*
X76333571Y-57582142D01*
X77524047Y-56677380D02*
X77619285Y-56677380D01*
X77714523Y-56725000D01*
X77762142Y-56772619D01*
X77809761Y-56867857D01*
X77857380Y-57058333D01*
X77857380Y-57296428D01*
X77809761Y-57486904D01*
X77762142Y-57582142D01*
X77714523Y-57629761D01*
X77619285Y-57677380D01*
X77524047Y-57677380D01*
X77428809Y-57629761D01*
X77381190Y-57582142D01*
X77333571Y-57486904D01*
X77285952Y-57296428D01*
X77285952Y-57058333D01*
X77333571Y-56867857D01*
X77381190Y-56772619D01*
X77428809Y-56725000D01*
X77524047Y-56677380D01*
%TO.C,D1050*%
X91782533Y-102340580D02*
X91782533Y-101340580D01*
X92020628Y-101340580D01*
X92163485Y-101388200D01*
X92258723Y-101483438D01*
X92306342Y-101578676D01*
X92353961Y-101769152D01*
X92353961Y-101912009D01*
X92306342Y-102102485D01*
X92258723Y-102197723D01*
X92163485Y-102292961D01*
X92020628Y-102340580D01*
X91782533Y-102340580D01*
X93306342Y-102340580D02*
X92734914Y-102340580D01*
X93020628Y-102340580D02*
X93020628Y-101340580D01*
X92925390Y-101483438D01*
X92830152Y-101578676D01*
X92734914Y-101626295D01*
X93925390Y-101340580D02*
X94020628Y-101340580D01*
X94115866Y-101388200D01*
X94163485Y-101435819D01*
X94211104Y-101531057D01*
X94258723Y-101721533D01*
X94258723Y-101959628D01*
X94211104Y-102150104D01*
X94163485Y-102245342D01*
X94115866Y-102292961D01*
X94020628Y-102340580D01*
X93925390Y-102340580D01*
X93830152Y-102292961D01*
X93782533Y-102245342D01*
X93734914Y-102150104D01*
X93687295Y-101959628D01*
X93687295Y-101721533D01*
X93734914Y-101531057D01*
X93782533Y-101435819D01*
X93830152Y-101388200D01*
X93925390Y-101340580D01*
X95163485Y-101340580D02*
X94687295Y-101340580D01*
X94639676Y-101816771D01*
X94687295Y-101769152D01*
X94782533Y-101721533D01*
X95020628Y-101721533D01*
X95115866Y-101769152D01*
X95163485Y-101816771D01*
X95211104Y-101912009D01*
X95211104Y-102150104D01*
X95163485Y-102245342D01*
X95115866Y-102292961D01*
X95020628Y-102340580D01*
X94782533Y-102340580D01*
X94687295Y-102292961D01*
X94639676Y-102245342D01*
X95830152Y-101340580D02*
X95925390Y-101340580D01*
X96020628Y-101388200D01*
X96068247Y-101435819D01*
X96115866Y-101531057D01*
X96163485Y-101721533D01*
X96163485Y-101959628D01*
X96115866Y-102150104D01*
X96068247Y-102245342D01*
X96020628Y-102292961D01*
X95925390Y-102340580D01*
X95830152Y-102340580D01*
X95734914Y-102292961D01*
X95687295Y-102245342D01*
X95639676Y-102150104D01*
X95592057Y-101959628D01*
X95592057Y-101721533D01*
X95639676Y-101531057D01*
X95687295Y-101435819D01*
X95734914Y-101388200D01*
X95830152Y-101340580D01*
X90830152Y-104980580D02*
X90353961Y-104980580D01*
X90306342Y-105456771D01*
X90353961Y-105409152D01*
X90449200Y-105361533D01*
X90687295Y-105361533D01*
X90782533Y-105409152D01*
X90830152Y-105456771D01*
X90877771Y-105552009D01*
X90877771Y-105790104D01*
X90830152Y-105885342D01*
X90782533Y-105932961D01*
X90687295Y-105980580D01*
X90449200Y-105980580D01*
X90353961Y-105932961D01*
X90306342Y-105885342D01*
X91163485Y-104980580D02*
X91496819Y-105980580D01*
X91830152Y-104980580D01*
X92925390Y-105980580D02*
X92925390Y-104980580D01*
X93306342Y-104980580D01*
X93401580Y-105028200D01*
X93449200Y-105075819D01*
X93496819Y-105171057D01*
X93496819Y-105313914D01*
X93449200Y-105409152D01*
X93401580Y-105456771D01*
X93306342Y-105504390D01*
X92925390Y-105504390D01*
X94115866Y-104980580D02*
X94306342Y-104980580D01*
X94401580Y-105028200D01*
X94496819Y-105123438D01*
X94544438Y-105313914D01*
X94544438Y-105647247D01*
X94496819Y-105837723D01*
X94401580Y-105932961D01*
X94306342Y-105980580D01*
X94115866Y-105980580D01*
X94020628Y-105932961D01*
X93925390Y-105837723D01*
X93877771Y-105647247D01*
X93877771Y-105313914D01*
X93925390Y-105123438D01*
X94020628Y-105028200D01*
X94115866Y-104980580D01*
X94877771Y-104980580D02*
X95115866Y-105980580D01*
X95306342Y-105266295D01*
X95496819Y-105980580D01*
X95734914Y-104980580D01*
X96115866Y-105456771D02*
X96449200Y-105456771D01*
X96592057Y-105980580D02*
X96115866Y-105980580D01*
X96115866Y-104980580D01*
X96592057Y-104980580D01*
X97592057Y-105980580D02*
X97258723Y-105504390D01*
X97020628Y-105980580D02*
X97020628Y-104980580D01*
X97401580Y-104980580D01*
X97496819Y-105028200D01*
X97544438Y-105075819D01*
X97592057Y-105171057D01*
X97592057Y-105313914D01*
X97544438Y-105409152D01*
X97496819Y-105456771D01*
X97401580Y-105504390D01*
X97020628Y-105504390D01*
D13*
%TO.C,SW1052*%
X88186600Y-102687400D02*
X88186600Y-102457400D01*
X88186600Y-99857400D02*
X88186600Y-99347400D01*
X86546600Y-102687400D02*
X83146600Y-102687400D01*
X80986600Y-106357400D02*
X80986600Y-102457400D01*
X88706600Y-99857400D02*
X88706600Y-99347400D01*
X88706600Y-106357400D02*
X80986600Y-106357400D01*
X88706600Y-106357400D02*
X88706600Y-102457400D01*
X81506600Y-99857400D02*
X81506600Y-99347400D01*
X88186600Y-102687400D02*
X87646600Y-102687400D01*
X81506600Y-99347400D02*
X80986600Y-99347400D01*
X81506600Y-102687400D02*
X81506600Y-102457400D01*
X88706600Y-99347400D02*
X88186600Y-99347400D01*
X80986600Y-99857400D02*
X80986600Y-99347400D01*
X82046600Y-102687400D02*
X81506600Y-102687400D01*
%TO.C,CE1050*%
X42465800Y-22059200D02*
X113845800Y-22059200D01*
X43765800Y-29869200D02*
X43765800Y-23369200D01*
X43765800Y-23369200D02*
X112545800Y-23369200D01*
X80205800Y-29869200D02*
X76105800Y-29869200D01*
X113845800Y-31179200D02*
X42465800Y-31179200D01*
X76105800Y-29869200D02*
X43765800Y-29869200D01*
X48175800Y-32569200D02*
X47675800Y-31569200D01*
X42465800Y-31179200D02*
X42465800Y-22059200D01*
X47175800Y-32569200D02*
X48175800Y-32569200D01*
X47675800Y-31569200D02*
X47175800Y-32569200D01*
X112545800Y-23369200D02*
X112545800Y-29869200D01*
X80205800Y-29869200D02*
X80205800Y-29869200D01*
X112545800Y-29869200D02*
X80205800Y-29869200D01*
X113845800Y-22059200D02*
X113845800Y-31179200D01*
%TO.C,Y1060*%
X87655000Y-73765000D02*
X87655000Y-80015000D01*
X92705000Y-73765000D02*
X92705000Y-80015000D01*
X92705000Y-73765000D02*
G75*
G03*
X87655000Y-73765000I-2525000J0D01*
G01*
X87655000Y-80015000D02*
G75*
G03*
X92705000Y-80015000I2525000J0D01*
G01*
%TO.C,R1061*%
X37962936Y-89225000D02*
X38417064Y-89225000D01*
X37962936Y-87755000D02*
X38417064Y-87755000D01*
%TO.C,R1050*%
X93702136Y-99137800D02*
X94156264Y-99137800D01*
X93702136Y-100607800D02*
X94156264Y-100607800D01*
%TO.C,C1060*%
X123845600Y-44248200D02*
X121975600Y-44248200D01*
X121975600Y-44248200D02*
X121975600Y-48158200D01*
X123845600Y-48158200D02*
X123845600Y-44248200D01*
%TO.C,D1053*%
X45020000Y-51740000D02*
X45020000Y-55640000D01*
X47020000Y-51740000D02*
X45020000Y-51740000D01*
X47020000Y-51740000D02*
X47020000Y-55640000D01*
%TO.C,J1062*%
X33605000Y-81180000D02*
X42235000Y-81180000D01*
X33605000Y-72260950D02*
X42235000Y-72260950D01*
X44745000Y-71930000D02*
X45125000Y-71930000D01*
X42235000Y-80270000D02*
X42645000Y-80270000D01*
X44745000Y-82090000D02*
X45185000Y-82090000D01*
X42235000Y-72650000D02*
X42645000Y-72650000D01*
X33605000Y-71552380D02*
X42235000Y-71552380D01*
X33605000Y-72142855D02*
X42235000Y-72142855D01*
X42235000Y-79550000D02*
X42645000Y-79550000D01*
X44745000Y-77010000D02*
X45185000Y-77010000D01*
X47345000Y-70960000D02*
X47345000Y-72290000D01*
X42235000Y-74470000D02*
X42645000Y-74470000D01*
X42235000Y-70960000D02*
X42235000Y-83780000D01*
X33605000Y-71080000D02*
X42235000Y-71080000D01*
X44745000Y-77730000D02*
X45185000Y-77730000D01*
X42235000Y-77730000D02*
X42645000Y-77730000D01*
X33605000Y-70960000D02*
X33605000Y-83780000D01*
X44745000Y-82810000D02*
X45185000Y-82810000D01*
X44745000Y-72650000D02*
X45125000Y-72650000D01*
X33605000Y-72733330D02*
X42235000Y-72733330D01*
X33605000Y-71434285D02*
X42235000Y-71434285D01*
X33605000Y-73441900D02*
X42235000Y-73441900D01*
X33605000Y-73205710D02*
X42235000Y-73205710D01*
X33605000Y-83780000D02*
X42235000Y-83780000D01*
X42235000Y-82810000D02*
X42645000Y-82810000D01*
X33605000Y-78640000D02*
X42235000Y-78640000D01*
X33605000Y-71670475D02*
X42235000Y-71670475D01*
X42235000Y-75190000D02*
X42645000Y-75190000D01*
X44745000Y-80270000D02*
X45185000Y-80270000D01*
X33605000Y-72379045D02*
X42235000Y-72379045D01*
X33605000Y-71788570D02*
X42235000Y-71788570D01*
X33605000Y-71906665D02*
X42235000Y-71906665D01*
X33605000Y-72851425D02*
X42235000Y-72851425D01*
X42235000Y-77010000D02*
X42645000Y-77010000D01*
X33605000Y-73323805D02*
X42235000Y-73323805D01*
X33605000Y-72615235D02*
X42235000Y-72615235D01*
X33605000Y-73560000D02*
X42235000Y-73560000D01*
X42235000Y-82090000D02*
X42645000Y-82090000D01*
X33605000Y-70960000D02*
X42235000Y-70960000D01*
X33605000Y-72497140D02*
X42235000Y-72497140D01*
X44745000Y-79550000D02*
X45185000Y-79550000D01*
X44745000Y-75190000D02*
X45185000Y-75190000D01*
X33605000Y-72969520D02*
X42235000Y-72969520D01*
X33605000Y-71198095D02*
X42235000Y-71198095D01*
X33605000Y-76100000D02*
X42235000Y-76100000D01*
X46235000Y-70960000D02*
X47345000Y-70960000D01*
X42235000Y-71930000D02*
X42645000Y-71930000D01*
X33605000Y-72024760D02*
X42235000Y-72024760D01*
X33605000Y-73087615D02*
X42235000Y-73087615D01*
X33605000Y-71316190D02*
X42235000Y-71316190D01*
X44745000Y-74470000D02*
X45185000Y-74470000D01*
%TO.C,J1061*%
X56235400Y-106580200D02*
X56445400Y-106380200D01*
X56445400Y-106230200D02*
X62815400Y-106230200D01*
X53345400Y-90310200D02*
X53345400Y-93920200D01*
X65635400Y-106580200D02*
X65835400Y-106380200D01*
X63325400Y-106580200D02*
X62815400Y-106230200D01*
X65635400Y-106580200D02*
X63325400Y-106580200D01*
X56445400Y-106230200D02*
X56445400Y-106380200D01*
X54375400Y-106580200D02*
X56235400Y-106580200D01*
X67315400Y-90310200D02*
X67315400Y-104320200D01*
X53345400Y-101620200D02*
X53345400Y-103420200D01*
X65835400Y-106380200D02*
X66095400Y-106380200D01*
X54375400Y-106580200D02*
X54175400Y-106380200D01*
X53345400Y-95620200D02*
X53345400Y-100320200D01*
X65395400Y-90310200D02*
X67315400Y-90310200D01*
X53795400Y-90310200D02*
X53345400Y-90310200D01*
%TO.C,D1051*%
X100737400Y-102573200D02*
X100737400Y-104843200D01*
X104622400Y-102573200D02*
X100737400Y-102573200D01*
X100737400Y-104843200D02*
X104622400Y-104843200D01*
%TO.C,J1050*%
X118275400Y-54335000D02*
X117865400Y-54335000D01*
X115705400Y-68005000D02*
X115705400Y-66675000D01*
X118275400Y-59415000D02*
X117865400Y-59415000D01*
X126905400Y-65405000D02*
X118275400Y-65405000D01*
X118275400Y-64495000D02*
X117865400Y-64495000D01*
X118275400Y-58695000D02*
X117865400Y-58695000D01*
X118275400Y-63775000D02*
X117865400Y-63775000D01*
X118275400Y-67035000D02*
X117925400Y-67035000D01*
X126905400Y-65641195D02*
X118275400Y-65641195D01*
X126905400Y-67766905D02*
X118275400Y-67766905D01*
X126905400Y-57785000D02*
X118275400Y-57785000D01*
X126905400Y-65523100D02*
X118275400Y-65523100D01*
X126905400Y-62865000D02*
X118275400Y-62865000D01*
X126905400Y-65995480D02*
X118275400Y-65995480D01*
X118275400Y-56875000D02*
X117865400Y-56875000D01*
X118275400Y-53615000D02*
X117865400Y-53615000D01*
X118275400Y-61955000D02*
X117865400Y-61955000D01*
X126905400Y-67530715D02*
X118275400Y-67530715D01*
X126905400Y-65759290D02*
X118275400Y-65759290D01*
X126905400Y-67412620D02*
X118275400Y-67412620D01*
X126905400Y-66822145D02*
X118275400Y-66822145D01*
X126905400Y-66585955D02*
X118275400Y-66585955D01*
X118275400Y-61235000D02*
X117865400Y-61235000D01*
X126905400Y-65877385D02*
X118275400Y-65877385D01*
X118275400Y-56155000D02*
X117865400Y-56155000D01*
X126905400Y-55245000D02*
X118275400Y-55245000D01*
X126905400Y-66113575D02*
X118275400Y-66113575D01*
X126905400Y-66704050D02*
X118275400Y-66704050D01*
X126905400Y-67885000D02*
X118275400Y-67885000D01*
X126905400Y-67058335D02*
X118275400Y-67058335D01*
X126905400Y-60325000D02*
X118275400Y-60325000D01*
X126905400Y-52645000D02*
X118275400Y-52645000D01*
X126905400Y-66349765D02*
X118275400Y-66349765D01*
X118275400Y-66315000D02*
X117925400Y-66315000D01*
X126905400Y-66940240D02*
X118275400Y-66940240D01*
X126905400Y-66467860D02*
X118275400Y-66467860D01*
X116815400Y-68005000D02*
X115705400Y-68005000D01*
X118275400Y-68005000D02*
X118275400Y-52645000D01*
X126905400Y-68005000D02*
X126905400Y-52645000D01*
X126905400Y-66231670D02*
X118275400Y-66231670D01*
X126905400Y-67648810D02*
X118275400Y-67648810D01*
X126905400Y-67176430D02*
X118275400Y-67176430D01*
X126905400Y-67294525D02*
X118275400Y-67294525D01*
X126905400Y-68005000D02*
X118275400Y-68005000D01*
%TO.C,SW1050*%
X117581200Y-102687400D02*
X117041200Y-102687400D01*
X116521200Y-99857400D02*
X116521200Y-99347400D01*
X122081200Y-102687400D02*
X118681200Y-102687400D01*
X117041200Y-99347400D02*
X116521200Y-99347400D01*
X124241200Y-99347400D02*
X123721200Y-99347400D01*
X117041200Y-102687400D02*
X117041200Y-102457400D01*
X123721200Y-102687400D02*
X123721200Y-102457400D01*
X124241200Y-106357400D02*
X124241200Y-102457400D01*
X116521200Y-106357400D02*
X116521200Y-102457400D01*
X117041200Y-99857400D02*
X117041200Y-99347400D01*
X123721200Y-102687400D02*
X123181200Y-102687400D01*
X124241200Y-99857400D02*
X124241200Y-99347400D01*
X124241200Y-106357400D02*
X116521200Y-106357400D01*
X123721200Y-99857400D02*
X123721200Y-99347400D01*
%TO.C,R1051*%
X102775336Y-99137800D02*
X103229464Y-99137800D01*
X102775336Y-100607800D02*
X103229464Y-100607800D01*
%TO.C,C1061*%
X121534200Y-44248200D02*
X119664200Y-44248200D01*
X119664200Y-44248200D02*
X119664200Y-48158200D01*
X121534200Y-48158200D02*
X121534200Y-44248200D01*
%TO.C,IC1060*%
X124009200Y-40508800D02*
X124009200Y-36748800D01*
X117189200Y-42758800D02*
X117189200Y-36748800D01*
X117189200Y-36748800D02*
X118449200Y-36748800D01*
X124009200Y-36748800D02*
X122749200Y-36748800D01*
%TO.C,CE1051*%
X43765800Y-41416700D02*
X43765800Y-34916700D01*
X43765800Y-34916700D02*
X112545800Y-34916700D01*
X48175800Y-44116700D02*
X47675800Y-43116700D01*
X112545800Y-34916700D02*
X112545800Y-41416700D01*
X112545800Y-41416700D02*
X80205800Y-41416700D01*
X42465800Y-42726700D02*
X42465800Y-33606700D01*
X47175800Y-44116700D02*
X48175800Y-44116700D01*
X113845800Y-33606700D02*
X113845800Y-42726700D01*
X47675800Y-43116700D02*
X47175800Y-44116700D01*
X80205800Y-41416700D02*
X76105800Y-41416700D01*
X80205800Y-41416700D02*
X80205800Y-41416700D01*
X76105800Y-41416700D02*
X43765800Y-41416700D01*
X42465800Y-33606700D02*
X113845800Y-33606700D01*
X113845800Y-42726700D02*
X42465800Y-42726700D01*
%TO.C,R1062*%
X72948400Y-84972864D02*
X72948400Y-84518736D01*
X74418400Y-84972864D02*
X74418400Y-84518736D01*
%TO.C,C1062*%
X54958348Y-86510800D02*
X55480852Y-86510800D01*
X54958348Y-85040800D02*
X55480852Y-85040800D01*
%TO.C,C1051*%
X119751400Y-23821000D02*
X122107400Y-23821000D01*
X119678400Y-23861000D02*
X119889400Y-23861000D01*
X120124400Y-23661000D02*
X121734400Y-23661000D01*
X118353400Y-25982000D02*
X123505400Y-25982000D01*
X118501400Y-25261000D02*
X119889400Y-25261000D01*
X121969400Y-25622000D02*
X123457400Y-25622000D01*
X119375400Y-24061000D02*
X119889400Y-24061000D01*
X121969400Y-24901000D02*
X123197400Y-24901000D01*
X121969400Y-24101000D02*
X122534400Y-24101000D01*
X121969400Y-24021000D02*
X122429400Y-24021000D01*
X121969400Y-24861000D02*
X123176400Y-24861000D01*
X121969400Y-25542000D02*
X123440400Y-25542000D01*
X121969400Y-24141000D02*
X122582400Y-24141000D01*
X121969400Y-24421000D02*
X122866400Y-24421000D01*
X121969400Y-24781000D02*
X123129400Y-24781000D01*
X118409400Y-25582000D02*
X119889400Y-25582000D01*
X118661400Y-24901000D02*
X119889400Y-24901000D01*
X121969400Y-25742000D02*
X123479400Y-25742000D01*
X121969400Y-25662000D02*
X123465400Y-25662000D01*
X121969400Y-24221000D02*
X122672400Y-24221000D01*
X118360400Y-25902000D02*
X119889400Y-25902000D01*
X118925400Y-24501000D02*
X119889400Y-24501000D01*
X119186400Y-24221000D02*
X119889400Y-24221000D01*
X121969400Y-25902000D02*
X123498400Y-25902000D01*
X119028400Y-24381000D02*
X119889400Y-24381000D01*
X118864400Y-24581000D02*
X119889400Y-24581000D01*
X121969400Y-25301000D02*
X123371400Y-25301000D01*
X121969400Y-23941000D02*
X122312400Y-23941000D01*
X119831400Y-23781000D02*
X122027400Y-23781000D01*
X118418400Y-25542000D02*
X119889400Y-25542000D01*
X118581400Y-25061000D02*
X119889400Y-25061000D01*
X118349400Y-26102000D02*
X123509400Y-26102000D01*
X119204400Y-28696775D02*
X119704400Y-28696775D01*
X118958400Y-24461000D02*
X119889400Y-24461000D01*
X118729400Y-24781000D02*
X119889400Y-24781000D01*
X121969400Y-24061000D02*
X122483400Y-24061000D01*
X118834400Y-24621000D02*
X119889400Y-24621000D01*
X121969400Y-25502000D02*
X123430400Y-25502000D01*
X118438400Y-25462000D02*
X119889400Y-25462000D01*
X118807400Y-24661000D02*
X119889400Y-24661000D01*
X118356400Y-25942000D02*
X123502400Y-25942000D01*
X121969400Y-23901000D02*
X122248400Y-23901000D01*
X121969400Y-24981000D02*
X123239400Y-24981000D01*
X119429400Y-24021000D02*
X119889400Y-24021000D01*
X121969400Y-25101000D02*
X123294400Y-25101000D01*
X119610400Y-23901000D02*
X119889400Y-23901000D01*
X118386400Y-25702000D02*
X119889400Y-25702000D01*
X120014400Y-23701000D02*
X121844400Y-23701000D01*
X121969400Y-25421000D02*
X123409400Y-25421000D01*
X119918400Y-23741000D02*
X121940400Y-23741000D01*
X121969400Y-25181000D02*
X123327400Y-25181000D01*
X118449400Y-25421000D02*
X119889400Y-25421000D01*
X118639400Y-24941000D02*
X119889400Y-24941000D01*
X119454400Y-28946775D02*
X119454400Y-28446775D01*
X121969400Y-25582000D02*
X123449400Y-25582000D01*
X118754400Y-24741000D02*
X119889400Y-24741000D01*
X118682400Y-24861000D02*
X119889400Y-24861000D01*
X121969400Y-24501000D02*
X122933400Y-24501000D01*
X119486400Y-23981000D02*
X119889400Y-23981000D01*
X121969400Y-24261000D02*
X122714400Y-24261000D01*
X119276400Y-24141000D02*
X119889400Y-24141000D01*
X118474400Y-25341000D02*
X119889400Y-25341000D01*
X118401400Y-25622000D02*
X119889400Y-25622000D01*
X118351400Y-26022000D02*
X123507400Y-26022000D01*
X120645400Y-23541000D02*
X121213400Y-23541000D01*
X121969400Y-24341000D02*
X122793400Y-24341000D01*
X118373400Y-25782000D02*
X119889400Y-25782000D01*
X118515400Y-25221000D02*
X119889400Y-25221000D01*
X118619400Y-24981000D02*
X119889400Y-24981000D01*
X121969400Y-24381000D02*
X122830400Y-24381000D01*
X118894400Y-24541000D02*
X119889400Y-24541000D01*
X118547400Y-25141000D02*
X119889400Y-25141000D01*
X119103400Y-24301000D02*
X119889400Y-24301000D01*
X118393400Y-25662000D02*
X119889400Y-25662000D01*
X119144400Y-24261000D02*
X119889400Y-24261000D01*
X121969400Y-24541000D02*
X122964400Y-24541000D01*
X118780400Y-24701000D02*
X119889400Y-24701000D01*
X119546400Y-23941000D02*
X119889400Y-23941000D01*
X118600400Y-25021000D02*
X119889400Y-25021000D01*
X121969400Y-23861000D02*
X122180400Y-23861000D01*
X121969400Y-24181000D02*
X122628400Y-24181000D01*
X118992400Y-24421000D02*
X119889400Y-24421000D01*
X118564400Y-25101000D02*
X119889400Y-25101000D01*
X121969400Y-25822000D02*
X123490400Y-25822000D01*
X121969400Y-25061000D02*
X123277400Y-25061000D01*
X121969400Y-25782000D02*
X123485400Y-25782000D01*
X121969400Y-25462000D02*
X123420400Y-25462000D01*
X121969400Y-24581000D02*
X122994400Y-24581000D01*
X121969400Y-24661000D02*
X123051400Y-24661000D01*
X118461400Y-25381000D02*
X119889400Y-25381000D01*
X121969400Y-24701000D02*
X123078400Y-24701000D01*
X121969400Y-25221000D02*
X123343400Y-25221000D01*
X121969400Y-24821000D02*
X123153400Y-24821000D01*
X118705400Y-24821000D02*
X119889400Y-24821000D01*
X121969400Y-25381000D02*
X123397400Y-25381000D01*
X121969400Y-25141000D02*
X123311400Y-25141000D01*
X119065400Y-24341000D02*
X119889400Y-24341000D01*
X119230400Y-24181000D02*
X119889400Y-24181000D01*
X119324400Y-24101000D02*
X119889400Y-24101000D01*
X118379400Y-25742000D02*
X119889400Y-25742000D01*
X121969400Y-25862000D02*
X123494400Y-25862000D01*
X118364400Y-25862000D02*
X119889400Y-25862000D01*
X118531400Y-25181000D02*
X119889400Y-25181000D01*
X121969400Y-24741000D02*
X123104400Y-24741000D01*
X118350400Y-26062000D02*
X123508400Y-26062000D01*
X121969400Y-25261000D02*
X123357400Y-25261000D01*
X121969400Y-24461000D02*
X122900400Y-24461000D01*
X121969400Y-25702000D02*
X123472400Y-25702000D01*
X118487400Y-25301000D02*
X119889400Y-25301000D01*
X120252400Y-23621000D02*
X121606400Y-23621000D01*
X121969400Y-25341000D02*
X123384400Y-25341000D01*
X118349400Y-26142000D02*
X123509400Y-26142000D01*
X121969400Y-25021000D02*
X123258400Y-25021000D01*
X121969400Y-24941000D02*
X123219400Y-24941000D01*
X121969400Y-24301000D02*
X122755400Y-24301000D01*
X121969400Y-23981000D02*
X122372400Y-23981000D01*
X118428400Y-25502000D02*
X119889400Y-25502000D01*
X118368400Y-25822000D02*
X119889400Y-25822000D01*
X120411400Y-23581000D02*
X121447400Y-23581000D01*
X121969400Y-24621000D02*
X123024400Y-24621000D01*
X123549400Y-26142000D02*
G75*
G03*
X123549400Y-26142000I-2620000J0D01*
G01*
%TO.C,C1050*%
X77881948Y-67000600D02*
X78404452Y-67000600D01*
X77881948Y-68470600D02*
X78404452Y-68470600D01*
%TO.C,J1060*%
X50388400Y-105848200D02*
X49738400Y-105848200D01*
X36418400Y-90888200D02*
X49738400Y-90888200D01*
X50388400Y-106368200D02*
X50388400Y-105848200D01*
X35768400Y-105848200D02*
X35768400Y-106368200D01*
X36418400Y-105848200D02*
X36418400Y-97738200D01*
X35768400Y-106368200D02*
X50388400Y-106368200D01*
X38678400Y-90668200D02*
X40478400Y-90668200D01*
X49738400Y-97738200D02*
X49738400Y-105848200D01*
X36418400Y-105848200D02*
X35768400Y-105848200D01*
X49738400Y-90888200D02*
X49738400Y-94218200D01*
X36418400Y-90888200D02*
X36418400Y-94218200D01*
%TO.C,R1063*%
X74955000Y-84972864D02*
X74955000Y-84518736D01*
X76425000Y-84972864D02*
X76425000Y-84518736D01*
%TO.C,D1060*%
X109139400Y-102624000D02*
X109139400Y-104894000D01*
X113024400Y-102624000D02*
X109139400Y-102624000D01*
X109139400Y-104894000D02*
X113024400Y-104894000D01*
%TO.C,J1051*%
X118305400Y-77597000D02*
X120965400Y-77597000D01*
X120965400Y-70927000D02*
X126965400Y-70927000D01*
X126965400Y-78487000D02*
X126965400Y-79247000D01*
X120965400Y-85277000D02*
X120965400Y-69917000D01*
X120965400Y-81027000D02*
X126965400Y-81027000D01*
X117908329Y-78487000D02*
X118305400Y-78487000D01*
X120965400Y-70867000D02*
X126965400Y-70867000D01*
X117908329Y-73407000D02*
X118305400Y-73407000D01*
X118305400Y-75057000D02*
X120965400Y-75057000D01*
X126965400Y-74167000D02*
X120965400Y-74167000D01*
X117975400Y-71627000D02*
X118305400Y-71627000D01*
X120965400Y-75947000D02*
X126965400Y-75947000D01*
X126965400Y-83567000D02*
X126965400Y-84327000D01*
X120965400Y-71167000D02*
X126965400Y-71167000D01*
X120965400Y-71527000D02*
X126965400Y-71527000D01*
X115595400Y-69977000D02*
X116865400Y-69977000D01*
X115595400Y-71247000D02*
X115595400Y-69977000D01*
X118305400Y-72517000D02*
X120965400Y-72517000D01*
X126965400Y-84327000D02*
X120965400Y-84327000D01*
X120965400Y-73407000D02*
X126965400Y-73407000D01*
X117908329Y-76707000D02*
X118305400Y-76707000D01*
X126965400Y-79247000D02*
X120965400Y-79247000D01*
X118305400Y-82677000D02*
X120965400Y-82677000D01*
X126965400Y-75947000D02*
X126965400Y-76707000D01*
X117908329Y-79247000D02*
X118305400Y-79247000D01*
X120965400Y-71287000D02*
X126965400Y-71287000D01*
X120965400Y-78487000D02*
X126965400Y-78487000D01*
X120965400Y-71407000D02*
X126965400Y-71407000D01*
X120965400Y-71047000D02*
X126965400Y-71047000D01*
X117908329Y-83567000D02*
X118305400Y-83567000D01*
X120965400Y-69917000D02*
X118305400Y-69917000D01*
X117908329Y-84327000D02*
X118305400Y-84327000D01*
X120965400Y-83567000D02*
X126965400Y-83567000D01*
X126965400Y-73407000D02*
X126965400Y-74167000D01*
X118305400Y-80137000D02*
X120965400Y-80137000D01*
X117908329Y-81027000D02*
X118305400Y-81027000D01*
X118305400Y-69917000D02*
X118305400Y-85277000D01*
X117908329Y-81787000D02*
X118305400Y-81787000D01*
X117975400Y-70867000D02*
X118305400Y-70867000D01*
X117908329Y-75947000D02*
X118305400Y-75947000D01*
X118305400Y-85277000D02*
X120965400Y-85277000D01*
X126965400Y-76707000D02*
X120965400Y-76707000D01*
X117908329Y-74167000D02*
X118305400Y-74167000D01*
X126965400Y-70867000D02*
X126965400Y-71627000D01*
X126965400Y-81787000D02*
X120965400Y-81787000D01*
X126965400Y-71627000D02*
X120965400Y-71627000D01*
X126965400Y-81027000D02*
X126965400Y-81787000D01*
%TO.C,SW1051*%
X78292600Y-99372800D02*
X77772600Y-99372800D01*
X76132600Y-102712800D02*
X72732600Y-102712800D01*
X71092600Y-102712800D02*
X71092600Y-102482800D01*
X78292600Y-106382800D02*
X78292600Y-102482800D01*
X77772600Y-102712800D02*
X77772600Y-102482800D01*
X77772600Y-99882800D02*
X77772600Y-99372800D01*
X71632600Y-102712800D02*
X71092600Y-102712800D01*
X77772600Y-102712800D02*
X77232600Y-102712800D01*
X70572600Y-99882800D02*
X70572600Y-99372800D01*
X78292600Y-99882800D02*
X78292600Y-99372800D01*
X71092600Y-99372800D02*
X70572600Y-99372800D01*
X78292600Y-106382800D02*
X70572600Y-106382800D01*
X71092600Y-99882800D02*
X71092600Y-99372800D01*
X70572600Y-106382800D02*
X70572600Y-102482800D01*
%TO.C,R1060*%
X111177336Y-99188600D02*
X111631464Y-99188600D01*
X111177336Y-100658600D02*
X111631464Y-100658600D01*
%TO.C,IC1061*%
X69510000Y-81570000D02*
X69265000Y-81570000D01*
X51390000Y-81570000D02*
X51635000Y-81570000D01*
X69510000Y-77710000D02*
X69510000Y-73850000D01*
X69510000Y-73850000D02*
X69265000Y-73850000D01*
X51390000Y-73850000D02*
X51635000Y-73850000D01*
X69510000Y-77710000D02*
X69510000Y-81570000D01*
X51390000Y-77710000D02*
X51390000Y-81570000D01*
X51635000Y-81570000D02*
X51635000Y-83385000D01*
X51390000Y-77710000D02*
X51390000Y-73850000D01*
%TO.C,IC1050*%
X100925000Y-48275000D02*
X49885000Y-48275000D01*
X49945000Y-50765000D02*
X49945000Y-56225000D01*
X100865000Y-50765000D02*
X49945000Y-50765000D01*
X100925000Y-66175000D02*
X100925000Y-48275000D01*
X100865000Y-63685000D02*
X100865000Y-50765000D01*
X49945000Y-63685000D02*
X100865000Y-63685000D01*
X49945000Y-58225000D02*
X49945000Y-63685000D01*
X49885000Y-48275000D02*
X49885000Y-66175000D01*
X49885000Y-66175000D02*
X100925000Y-66175000D01*
X49945000Y-58225000D02*
G75*
G03*
X49945000Y-56225000I0J1000000D01*
G01*
%TO.C,D1050*%
X95549200Y-102573200D02*
X91664200Y-102573200D01*
X91664200Y-102573200D02*
X91664200Y-104843200D01*
X91664200Y-104843200D02*
X95549200Y-104843200D01*
%TD*%
M02*
