%TF.GenerationSoftware,KiCad,Pcbnew,(6.0.7)*%
%TF.CreationDate,2023-01-02T01:59:54+00:00*%
%TF.ProjectId,CPC464-2MINIUSIFACII,43504334-3634-42d3-924d-494e49555349,rev?*%
%TF.SameCoordinates,Original*%
%TF.FileFunction,Soldermask,Bot*%
%TF.FilePolarity,Negative*%
%FSLAX46Y46*%
G04 Gerber Fmt 4.6, Leading zero omitted, Abs format (unit mm)*
G04 Created by KiCad (PCBNEW (6.0.7)) date 2023-01-02 01:59:54*
%MOMM*%
%LPD*%
G01*
G04 APERTURE LIST*
G04 Aperture macros list*
%AMRoundRect*
0 Rectangle with rounded corners*
0 $1 Rounding radius*
0 $2 $3 $4 $5 $6 $7 $8 $9 X,Y pos of 4 corners*
0 Add a 4 corners polygon primitive as box body*
4,1,4,$2,$3,$4,$5,$6,$7,$8,$9,$2,$3,0*
0 Add four circle primitives for the rounded corners*
1,1,$1+$1,$2,$3*
1,1,$1+$1,$4,$5*
1,1,$1+$1,$6,$7*
1,1,$1+$1,$8,$9*
0 Add four rect primitives between the rounded corners*
20,1,$1+$1,$2,$3,$4,$5,0*
20,1,$1+$1,$4,$5,$6,$7,0*
20,1,$1+$1,$6,$7,$8,$9,0*
20,1,$1+$1,$8,$9,$2,$3,0*%
G04 Aperture macros list end*
%ADD10C,4.500000*%
%ADD11C,2.100000*%
%ADD12C,1.750000*%
%ADD13RoundRect,0.250000X0.600000X-0.600000X0.600000X0.600000X-0.600000X0.600000X-0.600000X-0.600000X0*%
%ADD14C,1.700000*%
%ADD15C,1.500000*%
%ADD16R,1.700000X1.700000*%
%ADD17O,1.700000X1.700000*%
%ADD18R,1.600000X1.600000*%
%ADD19C,1.600000*%
%ADD20R,1.600000X1.500000*%
%ADD21C,3.000000*%
%ADD22O,1.600000X1.600000*%
G04 APERTURE END LIST*
D10*
%TO.C,H7*%
X81706800Y-76779200D03*
%TD*%
D11*
%TO.C,SW1052*%
X88346600Y-101167400D03*
X81336600Y-101167400D03*
D12*
X87096600Y-103657400D03*
X82596600Y-103657400D03*
%TD*%
D13*
%TO.C,CE1050*%
X47675800Y-27889200D03*
D14*
X47675800Y-25349200D03*
X50215800Y-27889200D03*
X50215800Y-25349200D03*
X52755800Y-27889200D03*
X52755800Y-25349200D03*
X55295800Y-27889200D03*
X55295800Y-25349200D03*
X57835800Y-27889200D03*
X57835800Y-25349200D03*
X60375800Y-27889200D03*
X60375800Y-25349200D03*
X62915800Y-27889200D03*
X62915800Y-25349200D03*
X65455800Y-27889200D03*
X65455800Y-25349200D03*
X67995800Y-27889200D03*
X67995800Y-25349200D03*
X70535800Y-27889200D03*
X70535800Y-25349200D03*
X73075800Y-27889200D03*
X73075800Y-25349200D03*
X75615800Y-27889200D03*
X75615800Y-25349200D03*
X78155800Y-27889200D03*
X78155800Y-25349200D03*
X80695800Y-27889200D03*
X80695800Y-25349200D03*
X83235800Y-27889200D03*
X83235800Y-25349200D03*
X85775800Y-27889200D03*
X85775800Y-25349200D03*
X88315800Y-27889200D03*
X88315800Y-25349200D03*
X90855800Y-27889200D03*
X90855800Y-25349200D03*
X93395800Y-27889200D03*
X93395800Y-25349200D03*
X95935800Y-27889200D03*
X95935800Y-25349200D03*
X98475800Y-27889200D03*
X98475800Y-25349200D03*
X101015800Y-27889200D03*
X101015800Y-25349200D03*
X103555800Y-27889200D03*
X103555800Y-25349200D03*
X106095800Y-27889200D03*
X106095800Y-25349200D03*
X108635800Y-27889200D03*
X108635800Y-25349200D03*
%TD*%
D15*
%TO.C,Y1060*%
X90180000Y-74450000D03*
X90180000Y-79330000D03*
%TD*%
D10*
%TO.C,H1*%
X38272800Y-25979200D03*
%TD*%
D16*
%TO.C,J1062*%
X46235000Y-72290000D03*
D17*
X43695000Y-72290000D03*
X46235000Y-74830000D03*
X43695000Y-74830000D03*
X46235000Y-77370000D03*
X43695000Y-77370000D03*
X46235000Y-79910000D03*
X43695000Y-79910000D03*
X46235000Y-82450000D03*
X43695000Y-82450000D03*
%TD*%
D16*
%TO.C,J1050*%
X116815400Y-66675000D03*
D17*
X116815400Y-64135000D03*
X116815400Y-61595000D03*
X116815400Y-59055000D03*
X116815400Y-56515000D03*
X116815400Y-53975000D03*
%TD*%
D11*
%TO.C,SW1050*%
X116871200Y-101167400D03*
X123881200Y-101167400D03*
D12*
X122631200Y-103657400D03*
X118131200Y-103657400D03*
%TD*%
D13*
%TO.C,CE1051*%
X47675800Y-39436700D03*
D14*
X47675800Y-36896700D03*
X50215800Y-39436700D03*
X50215800Y-36896700D03*
X52755800Y-39436700D03*
X52755800Y-36896700D03*
X55295800Y-39436700D03*
X55295800Y-36896700D03*
X57835800Y-39436700D03*
X57835800Y-36896700D03*
X60375800Y-39436700D03*
X60375800Y-36896700D03*
X62915800Y-39436700D03*
X62915800Y-36896700D03*
X65455800Y-39436700D03*
X65455800Y-36896700D03*
X67995800Y-39436700D03*
X67995800Y-36896700D03*
X70535800Y-39436700D03*
X70535800Y-36896700D03*
X73075800Y-39436700D03*
X73075800Y-36896700D03*
X75615800Y-39436700D03*
X75615800Y-36896700D03*
X78155800Y-39436700D03*
X78155800Y-36896700D03*
X80695800Y-39436700D03*
X80695800Y-36896700D03*
X83235800Y-39436700D03*
X83235800Y-36896700D03*
X85775800Y-39436700D03*
X85775800Y-36896700D03*
X88315800Y-39436700D03*
X88315800Y-36896700D03*
X90855800Y-39436700D03*
X90855800Y-36896700D03*
X93395800Y-39436700D03*
X93395800Y-36896700D03*
X95935800Y-39436700D03*
X95935800Y-36896700D03*
X98475800Y-39436700D03*
X98475800Y-36896700D03*
X101015800Y-39436700D03*
X101015800Y-36896700D03*
X103555800Y-39436700D03*
X103555800Y-36896700D03*
X106095800Y-39436700D03*
X106095800Y-36896700D03*
X108635800Y-39436700D03*
X108635800Y-36896700D03*
%TD*%
D18*
%TO.C,C1051*%
X120929400Y-27392000D03*
D19*
X120929400Y-24892000D03*
%TD*%
D20*
%TO.C,J1060*%
X39578400Y-93268200D03*
D19*
X42078400Y-93268200D03*
X44078400Y-93268200D03*
X46578400Y-93268200D03*
D21*
X49648400Y-95978200D03*
X36508400Y-95978200D03*
%TD*%
D16*
%TO.C,J1051*%
X116865400Y-71247000D03*
D17*
X116865400Y-73787000D03*
X116865400Y-76327000D03*
X116865400Y-78867000D03*
X116865400Y-81407000D03*
X116865400Y-83947000D03*
%TD*%
D11*
%TO.C,SW1051*%
X70922600Y-101192800D03*
X77932600Y-101192800D03*
D12*
X76682600Y-103682800D03*
X72182600Y-103682800D03*
%TD*%
D18*
%TO.C,IC1050*%
X51275000Y-64845000D03*
D22*
X53815000Y-64845000D03*
X56355000Y-64845000D03*
X58895000Y-64845000D03*
X61435000Y-64845000D03*
X63975000Y-64845000D03*
X66515000Y-64845000D03*
X69055000Y-64845000D03*
X71595000Y-64845000D03*
X74135000Y-64845000D03*
X76675000Y-64845000D03*
X79215000Y-64845000D03*
X81755000Y-64845000D03*
X84295000Y-64845000D03*
X86835000Y-64845000D03*
X89375000Y-64845000D03*
X91915000Y-64845000D03*
X94455000Y-64845000D03*
X96995000Y-64845000D03*
X99535000Y-64845000D03*
X99535000Y-49605000D03*
X96995000Y-49605000D03*
X94455000Y-49605000D03*
X91915000Y-49605000D03*
X89375000Y-49605000D03*
X86835000Y-49605000D03*
X84295000Y-49605000D03*
X81755000Y-49605000D03*
X79215000Y-49605000D03*
X76675000Y-49605000D03*
X74135000Y-49605000D03*
X71595000Y-49605000D03*
X69055000Y-49605000D03*
X66515000Y-49605000D03*
X63975000Y-49605000D03*
X61435000Y-49605000D03*
X58895000Y-49605000D03*
X56355000Y-49605000D03*
X53815000Y-49605000D03*
X51275000Y-49605000D03*
%TD*%
M02*
