%TF.GenerationSoftware,KiCad,Pcbnew,(6.0.7)*%
%TF.CreationDate,2023-01-02T01:59:54+00:00*%
%TF.ProjectId,CPC464-2MINIUSIFACII,43504334-3634-42d3-924d-494e49555349,rev?*%
%TF.SameCoordinates,Original*%
%TF.FileFunction,Copper,L1,Top*%
%TF.FilePolarity,Positive*%
%FSLAX46Y46*%
G04 Gerber Fmt 4.6, Leading zero omitted, Abs format (unit mm)*
G04 Created by KiCad (PCBNEW (6.0.7)) date 2023-01-02 01:59:54*
%MOMM*%
%LPD*%
G01*
G04 APERTURE LIST*
G04 Aperture macros list*
%AMRoundRect*
0 Rectangle with rounded corners*
0 $1 Rounding radius*
0 $2 $3 $4 $5 $6 $7 $8 $9 X,Y pos of 4 corners*
0 Add a 4 corners polygon primitive as box body*
4,1,4,$2,$3,$4,$5,$6,$7,$8,$9,$2,$3,0*
0 Add four circle primitives for the rounded corners*
1,1,$1+$1,$2,$3*
1,1,$1+$1,$4,$5*
1,1,$1+$1,$6,$7*
1,1,$1+$1,$8,$9*
0 Add four rect primitives between the rounded corners*
20,1,$1+$1,$2,$3,$4,$5,0*
20,1,$1+$1,$4,$5,$6,$7,0*
20,1,$1+$1,$6,$7,$8,$9,0*
20,1,$1+$1,$8,$9,$2,$3,0*%
G04 Aperture macros list end*
%TA.AperFunction,ComponentPad*%
%ADD10C,4.500000*%
%TD*%
%TA.AperFunction,ComponentPad*%
%ADD11C,2.100000*%
%TD*%
%TA.AperFunction,ComponentPad*%
%ADD12C,1.750000*%
%TD*%
%TA.AperFunction,ComponentPad*%
%ADD13RoundRect,0.250000X0.600000X-0.600000X0.600000X0.600000X-0.600000X0.600000X-0.600000X-0.600000X0*%
%TD*%
%TA.AperFunction,ComponentPad*%
%ADD14C,1.700000*%
%TD*%
%TA.AperFunction,ComponentPad*%
%ADD15C,1.500000*%
%TD*%
%TA.AperFunction,SMDPad,CuDef*%
%ADD16RoundRect,0.250000X-0.262500X-0.450000X0.262500X-0.450000X0.262500X0.450000X-0.262500X0.450000X0*%
%TD*%
%TA.AperFunction,SMDPad,CuDef*%
%ADD17RoundRect,0.250000X-0.425000X0.450000X-0.425000X-0.450000X0.425000X-0.450000X0.425000X0.450000X0*%
%TD*%
%TA.AperFunction,SMDPad,CuDef*%
%ADD18R,1.200000X0.900000*%
%TD*%
%TA.AperFunction,ComponentPad*%
%ADD19R,1.700000X1.700000*%
%TD*%
%TA.AperFunction,ComponentPad*%
%ADD20O,1.700000X1.700000*%
%TD*%
%TA.AperFunction,SMDPad,CuDef*%
%ADD21R,0.700000X1.200000*%
%TD*%
%TA.AperFunction,SMDPad,CuDef*%
%ADD22R,1.000000X0.800000*%
%TD*%
%TA.AperFunction,SMDPad,CuDef*%
%ADD23R,1.000000X2.800000*%
%TD*%
%TA.AperFunction,SMDPad,CuDef*%
%ADD24R,1.300000X1.900000*%
%TD*%
%TA.AperFunction,SMDPad,CuDef*%
%ADD25R,1.000000X1.200000*%
%TD*%
%TA.AperFunction,SMDPad,CuDef*%
%ADD26RoundRect,0.250000X-0.375000X-0.625000X0.375000X-0.625000X0.375000X0.625000X-0.375000X0.625000X0*%
%TD*%
%TA.AperFunction,SMDPad,CuDef*%
%ADD27R,1.500000X2.000000*%
%TD*%
%TA.AperFunction,SMDPad,CuDef*%
%ADD28R,3.800000X2.000000*%
%TD*%
%TA.AperFunction,SMDPad,CuDef*%
%ADD29RoundRect,0.250000X0.450000X-0.262500X0.450000X0.262500X-0.450000X0.262500X-0.450000X-0.262500X0*%
%TD*%
%TA.AperFunction,SMDPad,CuDef*%
%ADD30RoundRect,0.250000X-0.250000X-0.475000X0.250000X-0.475000X0.250000X0.475000X-0.250000X0.475000X0*%
%TD*%
%TA.AperFunction,ComponentPad*%
%ADD31R,1.600000X1.600000*%
%TD*%
%TA.AperFunction,ComponentPad*%
%ADD32C,1.600000*%
%TD*%
%TA.AperFunction,ComponentPad*%
%ADD33R,1.600000X1.500000*%
%TD*%
%TA.AperFunction,ComponentPad*%
%ADD34C,3.000000*%
%TD*%
%TA.AperFunction,SMDPad,CuDef*%
%ADD35RoundRect,0.150000X0.150000X-0.875000X0.150000X0.875000X-0.150000X0.875000X-0.150000X-0.875000X0*%
%TD*%
%TA.AperFunction,ComponentPad*%
%ADD36O,1.600000X1.600000*%
%TD*%
%TA.AperFunction,ViaPad*%
%ADD37C,0.800000*%
%TD*%
%TA.AperFunction,Conductor*%
%ADD38C,0.250000*%
%TD*%
%TA.AperFunction,Conductor*%
%ADD39C,1.080000*%
%TD*%
%TA.AperFunction,Conductor*%
%ADD40C,0.400000*%
%TD*%
G04 APERTURE END LIST*
D10*
%TO.P,H7,1,1*%
%TO.N,GND*%
X81706800Y-76779200D03*
%TD*%
D11*
%TO.P,SW1052,*%
%TO.N,*%
X88346600Y-101167400D03*
X81336600Y-101167400D03*
D12*
%TO.P,SW1052,1*%
%TO.N,DSKSWAP*%
X87096600Y-103657400D03*
%TO.P,SW1052,2*%
%TO.N,GND*%
X82596600Y-103657400D03*
%TD*%
D13*
%TO.P,CE1050,1,Pin_1*%
%TO.N,SOUND*%
X47675800Y-27889200D03*
D14*
%TO.P,CE1050,2,Pin_2*%
%TO.N,GND*%
X47675800Y-25349200D03*
%TO.P,CE1050,3,Pin_3*%
%TO.N,/Expansion Ports/A15*%
X50215800Y-27889200D03*
%TO.P,CE1050,4,Pin_4*%
%TO.N,/Expansion Ports/A14*%
X50215800Y-25349200D03*
%TO.P,CE1050,5,Pin_5*%
%TO.N,/Expansion Ports/A13*%
X52755800Y-27889200D03*
%TO.P,CE1050,6,Pin_6*%
%TO.N,/Expansion Ports/A12*%
X52755800Y-25349200D03*
%TO.P,CE1050,7,Pin_7*%
%TO.N,/Expansion Ports/A11*%
X55295800Y-27889200D03*
%TO.P,CE1050,8,Pin_8*%
%TO.N,/Expansion Ports/A10*%
X55295800Y-25349200D03*
%TO.P,CE1050,9,Pin_9*%
%TO.N,/Expansion Ports/A9*%
X57835800Y-27889200D03*
%TO.P,CE1050,10,Pin_10*%
%TO.N,/Expansion Ports/A8*%
X57835800Y-25349200D03*
%TO.P,CE1050,11,Pin_11*%
%TO.N,/Expansion Ports/A7*%
X60375800Y-27889200D03*
%TO.P,CE1050,12,Pin_12*%
%TO.N,/Expansion Ports/A6*%
X60375800Y-25349200D03*
%TO.P,CE1050,13,Pin_13*%
%TO.N,/Expansion Ports/A5*%
X62915800Y-27889200D03*
%TO.P,CE1050,14,Pin_14*%
%TO.N,/Expansion Ports/A4*%
X62915800Y-25349200D03*
%TO.P,CE1050,15,Pin_15*%
%TO.N,/Expansion Ports/A3*%
X65455800Y-27889200D03*
%TO.P,CE1050,16,Pin_16*%
%TO.N,/Expansion Ports/A2*%
X65455800Y-25349200D03*
%TO.P,CE1050,17,Pin_17*%
%TO.N,/Expansion Ports/A1*%
X67995800Y-27889200D03*
%TO.P,CE1050,18,Pin_18*%
%TO.N,/Expansion Ports/A0*%
X67995800Y-25349200D03*
%TO.P,CE1050,19,Pin_19*%
%TO.N,/Expansion Ports/D7*%
X70535800Y-27889200D03*
%TO.P,CE1050,20,Pin_20*%
%TO.N,/Expansion Ports/D6*%
X70535800Y-25349200D03*
%TO.P,CE1050,21,Pin_21*%
%TO.N,/Expansion Ports/D5*%
X73075800Y-27889200D03*
%TO.P,CE1050,22,Pin_22*%
%TO.N,/Expansion Ports/D4*%
X73075800Y-25349200D03*
%TO.P,CE1050,23,Pin_23*%
%TO.N,/Expansion Ports/D3*%
X75615800Y-27889200D03*
%TO.P,CE1050,24,Pin_24*%
%TO.N,/Expansion Ports/D2*%
X75615800Y-25349200D03*
%TO.P,CE1050,25,Pin_25*%
%TO.N,/Expansion Ports/D1*%
X78155800Y-27889200D03*
%TO.P,CE1050,26,Pin_26*%
%TO.N,/Expansion Ports/D0*%
X78155800Y-25349200D03*
%TO.P,CE1050,27,Pin_27*%
%TO.N,+5V*%
X80695800Y-27889200D03*
%TO.P,CE1050,28,Pin_28*%
%TO.N,MREQ*%
X80695800Y-25349200D03*
%TO.P,CE1050,29,Pin_29*%
%TO.N,M1*%
X83235800Y-27889200D03*
%TO.P,CE1050,30,Pin_30*%
%TO.N,RFSH*%
X83235800Y-25349200D03*
%TO.P,CE1050,31,Pin_31*%
%TO.N,IORQ*%
X85775800Y-27889200D03*
%TO.P,CE1050,32,Pin_32*%
%TO.N,RD*%
X85775800Y-25349200D03*
%TO.P,CE1050,33,Pin_33*%
%TO.N,WR*%
X88315800Y-27889200D03*
%TO.P,CE1050,34,Pin_34*%
%TO.N,HALT*%
X88315800Y-25349200D03*
%TO.P,CE1050,35,Pin_35*%
%TO.N,INT*%
X90855800Y-27889200D03*
%TO.P,CE1050,36,Pin_36*%
%TO.N,NMI*%
X90855800Y-25349200D03*
%TO.P,CE1050,37,Pin_37*%
%TO.N,BUSRQ*%
X93395800Y-27889200D03*
%TO.P,CE1050,38,Pin_38*%
%TO.N,BUSAK*%
X93395800Y-25349200D03*
%TO.P,CE1050,39,Pin_39*%
%TO.N,READY*%
X95935800Y-27889200D03*
%TO.P,CE1050,40,Pin_40*%
%TO.N,BUS*%
X95935800Y-25349200D03*
%TO.P,CE1050,41,Pin_41*%
%TO.N,RESET*%
X98475800Y-27889200D03*
%TO.P,CE1050,42,Pin_42*%
%TO.N,ROMEN*%
X98475800Y-25349200D03*
%TO.P,CE1050,43,Pin_43*%
%TO.N,ROMDIS*%
X101015800Y-27889200D03*
%TO.P,CE1050,44,Pin_44*%
%TO.N,RAMRD*%
X101015800Y-25349200D03*
%TO.P,CE1050,45,Pin_45*%
%TO.N,RAMDIS*%
X103555800Y-27889200D03*
%TO.P,CE1050,46,Pin_46*%
%TO.N,CURSOR*%
X103555800Y-25349200D03*
%TO.P,CE1050,47,Pin_47*%
%TO.N,LPEN*%
X106095800Y-27889200D03*
%TO.P,CE1050,48,Pin_48*%
%TO.N,EXP*%
X106095800Y-25349200D03*
%TO.P,CE1050,49,Pin_49*%
%TO.N,GND*%
X108635800Y-27889200D03*
%TO.P,CE1050,50,Pin_50*%
%TO.N,A100*%
X108635800Y-25349200D03*
%TD*%
D15*
%TO.P,Y1060,1,1*%
%TO.N,Net-(IC1061-Pad14)*%
X90180000Y-74450000D03*
%TO.P,Y1060,2,2*%
%TO.N,Net-(IC1061-Pad13)*%
X90180000Y-79330000D03*
%TD*%
D10*
%TO.P,H1,1,1*%
%TO.N,GND*%
X38272800Y-25979200D03*
%TD*%
D16*
%TO.P,R1061,1*%
%TO.N,Net-(J1060-Pad1)*%
X37277500Y-88490000D03*
%TO.P,R1061,2*%
%TO.N,+5V*%
X39102500Y-88490000D03*
%TD*%
%TO.P,R1050,1*%
%TO.N,Net-(D1050-Pad2)*%
X93016700Y-99872800D03*
%TO.P,R1050,2*%
%TO.N,+5V*%
X94841700Y-99872800D03*
%TD*%
D17*
%TO.P,C1060,1*%
%TO.N,+5V*%
X122910600Y-45208200D03*
%TO.P,C1060,2*%
%TO.N,GND*%
X122910600Y-47908200D03*
%TD*%
D18*
%TO.P,D1053,1,K*%
%TO.N,DSKSWAP*%
X46020000Y-52340000D03*
%TO.P,D1053,2,A*%
%TO.N,READY*%
X46020000Y-55640000D03*
%TD*%
D19*
%TO.P,J1062,1,Pin_1*%
%TO.N,Net-(J1060-Pad1)*%
X46235000Y-72290000D03*
D20*
%TO.P,J1062,2,Pin_2*%
X43695000Y-72290000D03*
%TO.P,J1062,3,Pin_3*%
%TO.N,UDN*%
X46235000Y-74830000D03*
%TO.P,J1062,4,Pin_4*%
X43695000Y-74830000D03*
%TO.P,J1062,5,Pin_5*%
%TO.N,UDP*%
X46235000Y-77370000D03*
%TO.P,J1062,6,Pin_6*%
X43695000Y-77370000D03*
%TO.P,J1062,7,Pin_7*%
%TO.N,GND*%
X46235000Y-79910000D03*
%TO.P,J1062,8,Pin_8*%
X43695000Y-79910000D03*
%TO.P,J1062,9,Pin_9*%
%TO.N,unconnected-(J1062-Pad9)*%
X46235000Y-82450000D03*
%TO.P,J1062,10,Pin_10*%
%TO.N,unconnected-(J1062-Pad10)*%
X43695000Y-82450000D03*
%TD*%
D21*
%TO.P,J1061,1,DAT2*%
%TO.N,Net-(J1061-Pad1)*%
X63095400Y-90470200D03*
%TO.P,J1061,2,DAT3/CD*%
%TO.N,Net-(IC1061-Pad23)*%
X61995400Y-90470200D03*
%TO.P,J1061,3,CMD*%
%TO.N,Net-(IC1061-Pad25)*%
X60895400Y-90470200D03*
%TO.P,J1061,4,VDD*%
%TO.N,Net-(J1061-Pad4)*%
X59795400Y-90470200D03*
%TO.P,J1061,5,CLK*%
%TO.N,Net-(IC1061-Pad26)*%
X58695400Y-90470200D03*
%TO.P,J1061,6,VSS*%
%TO.N,GND*%
X57595400Y-90470200D03*
%TO.P,J1061,7,DAT0*%
%TO.N,Net-(IC1061-Pad7)*%
X56495400Y-90470200D03*
%TO.P,J1061,8,DAT1*%
%TO.N,Net-(J1061-Pad1)*%
X55395400Y-90470200D03*
%TO.P,J1061,9,SHIELD*%
%TO.N,GND*%
X54445400Y-90470200D03*
D22*
%TO.P,J1061,10,SHIELD*%
X53495400Y-100970200D03*
D23*
%TO.P,J1061,11,SHIELD*%
X53495400Y-105120200D03*
D24*
X66995400Y-105570200D03*
D25*
X64645400Y-90470200D03*
X53495400Y-94770200D03*
%TD*%
D26*
%TO.P,D1051,1,K*%
%TO.N,GND*%
X101622400Y-103708200D03*
%TO.P,D1051,2,A*%
%TO.N,Net-(D1051-Pad2)*%
X104422400Y-103708200D03*
%TD*%
D19*
%TO.P,J1050,1,Pin_1*%
%TO.N,unconnected-(J1050-Pad1)*%
X116815400Y-66675000D03*
D20*
%TO.P,J1050,2,Pin_2*%
%TO.N,+5V*%
X116815400Y-64135000D03*
%TO.P,J1050,3,Pin_3*%
%TO.N,GND*%
X116815400Y-61595000D03*
%TO.P,J1050,4,Pin_4*%
%TO.N,URX*%
X116815400Y-59055000D03*
%TO.P,J1050,5,Pin_5*%
%TO.N,UTX*%
X116815400Y-56515000D03*
%TO.P,J1050,6,Pin_6*%
%TO.N,unconnected-(J1050-Pad6)*%
X116815400Y-53975000D03*
%TD*%
D11*
%TO.P,SW1050,*%
%TO.N,*%
X116871200Y-101167400D03*
X123881200Y-101167400D03*
D12*
%TO.P,SW1050,1*%
%TO.N,BUS*%
X122631200Y-103657400D03*
%TO.P,SW1050,2*%
%TO.N,GND*%
X118131200Y-103657400D03*
%TD*%
D16*
%TO.P,R1051,1*%
%TO.N,Net-(D1051-Pad2)*%
X102089900Y-99872800D03*
%TO.P,R1051,2*%
%TO.N,+3.3V*%
X103914900Y-99872800D03*
%TD*%
D17*
%TO.P,C1061,1*%
%TO.N,+3.3V*%
X120599200Y-45208200D03*
%TO.P,C1061,2*%
%TO.N,GND*%
X120599200Y-47908200D03*
%TD*%
D27*
%TO.P,IC1060,1,GND*%
%TO.N,GND*%
X118299200Y-41808800D03*
D28*
%TO.P,IC1060,2,VO*%
%TO.N,+3.3V*%
X120599200Y-35508800D03*
D27*
X120599200Y-41808800D03*
%TO.P,IC1060,3,VI*%
%TO.N,+5V*%
X122899200Y-41808800D03*
%TD*%
D13*
%TO.P,CE1051,1,Pin_1*%
%TO.N,SOUND*%
X47675800Y-39436700D03*
D14*
%TO.P,CE1051,2,Pin_2*%
%TO.N,GND*%
X47675800Y-36896700D03*
%TO.P,CE1051,3,Pin_3*%
%TO.N,/Expansion Ports/A15*%
X50215800Y-39436700D03*
%TO.P,CE1051,4,Pin_4*%
%TO.N,/Expansion Ports/A14*%
X50215800Y-36896700D03*
%TO.P,CE1051,5,Pin_5*%
%TO.N,/Expansion Ports/A13*%
X52755800Y-39436700D03*
%TO.P,CE1051,6,Pin_6*%
%TO.N,/Expansion Ports/A12*%
X52755800Y-36896700D03*
%TO.P,CE1051,7,Pin_7*%
%TO.N,/Expansion Ports/A11*%
X55295800Y-39436700D03*
%TO.P,CE1051,8,Pin_8*%
%TO.N,/Expansion Ports/A10*%
X55295800Y-36896700D03*
%TO.P,CE1051,9,Pin_9*%
%TO.N,/Expansion Ports/A9*%
X57835800Y-39436700D03*
%TO.P,CE1051,10,Pin_10*%
%TO.N,/Expansion Ports/A8*%
X57835800Y-36896700D03*
%TO.P,CE1051,11,Pin_11*%
%TO.N,/Expansion Ports/A7*%
X60375800Y-39436700D03*
%TO.P,CE1051,12,Pin_12*%
%TO.N,/Expansion Ports/A6*%
X60375800Y-36896700D03*
%TO.P,CE1051,13,Pin_13*%
%TO.N,/Expansion Ports/A5*%
X62915800Y-39436700D03*
%TO.P,CE1051,14,Pin_14*%
%TO.N,/Expansion Ports/A4*%
X62915800Y-36896700D03*
%TO.P,CE1051,15,Pin_15*%
%TO.N,/Expansion Ports/A3*%
X65455800Y-39436700D03*
%TO.P,CE1051,16,Pin_16*%
%TO.N,/Expansion Ports/A2*%
X65455800Y-36896700D03*
%TO.P,CE1051,17,Pin_17*%
%TO.N,/Expansion Ports/A1*%
X67995800Y-39436700D03*
%TO.P,CE1051,18,Pin_18*%
%TO.N,/Expansion Ports/A0*%
X67995800Y-36896700D03*
%TO.P,CE1051,19,Pin_19*%
%TO.N,/Expansion Ports/D7*%
X70535800Y-39436700D03*
%TO.P,CE1051,20,Pin_20*%
%TO.N,/Expansion Ports/D6*%
X70535800Y-36896700D03*
%TO.P,CE1051,21,Pin_21*%
%TO.N,/Expansion Ports/D5*%
X73075800Y-39436700D03*
%TO.P,CE1051,22,Pin_22*%
%TO.N,/Expansion Ports/D4*%
X73075800Y-36896700D03*
%TO.P,CE1051,23,Pin_23*%
%TO.N,/Expansion Ports/D3*%
X75615800Y-39436700D03*
%TO.P,CE1051,24,Pin_24*%
%TO.N,/Expansion Ports/D2*%
X75615800Y-36896700D03*
%TO.P,CE1051,25,Pin_25*%
%TO.N,/Expansion Ports/D1*%
X78155800Y-39436700D03*
%TO.P,CE1051,26,Pin_26*%
%TO.N,/Expansion Ports/D0*%
X78155800Y-36896700D03*
%TO.P,CE1051,27,Pin_27*%
%TO.N,+5V*%
X80695800Y-39436700D03*
%TO.P,CE1051,28,Pin_28*%
%TO.N,MREQ*%
X80695800Y-36896700D03*
%TO.P,CE1051,29,Pin_29*%
%TO.N,M1*%
X83235800Y-39436700D03*
%TO.P,CE1051,30,Pin_30*%
%TO.N,RFSH*%
X83235800Y-36896700D03*
%TO.P,CE1051,31,Pin_31*%
%TO.N,IORQ*%
X85775800Y-39436700D03*
%TO.P,CE1051,32,Pin_32*%
%TO.N,RD*%
X85775800Y-36896700D03*
%TO.P,CE1051,33,Pin_33*%
%TO.N,WR*%
X88315800Y-39436700D03*
%TO.P,CE1051,34,Pin_34*%
%TO.N,HALT*%
X88315800Y-36896700D03*
%TO.P,CE1051,35,Pin_35*%
%TO.N,INT*%
X90855800Y-39436700D03*
%TO.P,CE1051,36,Pin_36*%
%TO.N,NMI*%
X90855800Y-36896700D03*
%TO.P,CE1051,37,Pin_37*%
%TO.N,BUSRQ*%
X93395800Y-39436700D03*
%TO.P,CE1051,38,Pin_38*%
%TO.N,BUSAK*%
X93395800Y-36896700D03*
%TO.P,CE1051,39,Pin_39*%
%TO.N,READY*%
X95935800Y-39436700D03*
%TO.P,CE1051,40,Pin_40*%
%TO.N,BUS*%
X95935800Y-36896700D03*
%TO.P,CE1051,41,Pin_41*%
%TO.N,RESET*%
X98475800Y-39436700D03*
%TO.P,CE1051,42,Pin_42*%
%TO.N,ROMEN*%
X98475800Y-36896700D03*
%TO.P,CE1051,43,Pin_43*%
%TO.N,ROMDIS*%
X101015800Y-39436700D03*
%TO.P,CE1051,44,Pin_44*%
%TO.N,RAMRD*%
X101015800Y-36896700D03*
%TO.P,CE1051,45,Pin_45*%
%TO.N,RAMDIS*%
X103555800Y-39436700D03*
%TO.P,CE1051,46,Pin_46*%
%TO.N,CURSOR*%
X103555800Y-36896700D03*
%TO.P,CE1051,47,Pin_47*%
%TO.N,LPEN*%
X106095800Y-39436700D03*
%TO.P,CE1051,48,Pin_48*%
%TO.N,EXP*%
X106095800Y-36896700D03*
%TO.P,CE1051,49,Pin_49*%
%TO.N,GND*%
X108635800Y-39436700D03*
%TO.P,CE1051,50,Pin_50*%
%TO.N,A100*%
X108635800Y-36896700D03*
%TD*%
D29*
%TO.P,R1062,1*%
%TO.N,Net-(J1061-Pad4)*%
X73683400Y-85658300D03*
%TO.P,R1062,2*%
%TO.N,+3.3V*%
X73683400Y-83833300D03*
%TD*%
D30*
%TO.P,C1062,1*%
%TO.N,+3.3V*%
X54269600Y-85775800D03*
%TO.P,C1062,2*%
%TO.N,GND*%
X56169600Y-85775800D03*
%TD*%
D31*
%TO.P,C1051,1*%
%TO.N,+5V*%
X120929400Y-27392000D03*
D32*
%TO.P,C1051,2*%
%TO.N,GND*%
X120929400Y-24892000D03*
%TD*%
D30*
%TO.P,C1050,1*%
%TO.N,+5V*%
X77193200Y-67735600D03*
%TO.P,C1050,2*%
%TO.N,GND*%
X79093200Y-67735600D03*
%TD*%
D33*
%TO.P,J1060,1,VBUS*%
%TO.N,Net-(J1060-Pad1)*%
X39578400Y-93268200D03*
D32*
%TO.P,J1060,2,D-*%
%TO.N,UDN*%
X42078400Y-93268200D03*
%TO.P,J1060,3,D+*%
%TO.N,UDP*%
X44078400Y-93268200D03*
%TO.P,J1060,4,GND*%
%TO.N,GND*%
X46578400Y-93268200D03*
D34*
%TO.P,J1060,5,Shield*%
X49648400Y-95978200D03*
X36508400Y-95978200D03*
%TD*%
D29*
%TO.P,R1063,1*%
%TO.N,Net-(J1061-Pad1)*%
X75690000Y-85658300D03*
%TO.P,R1063,2*%
%TO.N,+3.3V*%
X75690000Y-83833300D03*
%TD*%
D26*
%TO.P,D1060,1,K*%
%TO.N,Net-(D1060-Pad1)*%
X110024400Y-103759000D03*
%TO.P,D1060,2,A*%
%TO.N,+3.3V*%
X112824400Y-103759000D03*
%TD*%
D19*
%TO.P,J1051,1,Pin_1*%
%TO.N,MCLR*%
X116865400Y-71247000D03*
D20*
%TO.P,J1051,2,Pin_2*%
%TO.N,+5V*%
X116865400Y-73787000D03*
%TO.P,J1051,3,Pin_3*%
%TO.N,GND*%
X116865400Y-76327000D03*
%TO.P,J1051,4,Pin_4*%
%TO.N,/Expansion Ports/A15*%
X116865400Y-78867000D03*
%TO.P,J1051,5,Pin_5*%
%TO.N,/Expansion Ports/A14*%
X116865400Y-81407000D03*
%TO.P,J1051,6,Pin_6*%
%TO.N,unconnected-(J1051-Pad6)*%
X116865400Y-83947000D03*
%TD*%
D11*
%TO.P,SW1051,*%
%TO.N,*%
X70922600Y-101192800D03*
X77932600Y-101192800D03*
D12*
%TO.P,SW1051,1*%
%TO.N,READY*%
X76682600Y-103682800D03*
%TO.P,SW1051,2*%
%TO.N,GND*%
X72182600Y-103682800D03*
%TD*%
D16*
%TO.P,R1060,1*%
%TO.N,Net-(D1060-Pad1)*%
X110491900Y-99923600D03*
%TO.P,R1060,2*%
%TO.N,Net-(IC1061-Pad24)*%
X112316900Y-99923600D03*
%TD*%
D35*
%TO.P,IC1061,1,~{INT}*%
%TO.N,unconnected-(IC1061-Pad1)*%
X52195000Y-82360000D03*
%TO.P,IC1061,2,RSTI*%
%TO.N,unconnected-(IC1061-Pad2)*%
X53465000Y-82360000D03*
%TO.P,IC1061,3,~{WR}*%
%TO.N,unconnected-(IC1061-Pad3)*%
X54735000Y-82360000D03*
%TO.P,IC1061,4,~{RD}*%
%TO.N,unconnected-(IC1061-Pad4)*%
X56005000Y-82360000D03*
%TO.P,IC1061,5,TXD*%
%TO.N,URX*%
X57275000Y-82360000D03*
%TO.P,IC1061,6,RXD*%
%TO.N,UTX*%
X58545000Y-82360000D03*
%TO.P,IC1061,7,SD_DI*%
%TO.N,Net-(IC1061-Pad7)*%
X59815000Y-82360000D03*
%TO.P,IC1061,8,A0*%
%TO.N,unconnected-(IC1061-Pad8)*%
X61085000Y-82360000D03*
%TO.P,IC1061,9,V3*%
%TO.N,+3.3V*%
X62355000Y-82360000D03*
%TO.P,IC1061,10,UD+*%
%TO.N,UDP*%
X63625000Y-82360000D03*
%TO.P,IC1061,11,UD-*%
%TO.N,UDN*%
X64895000Y-82360000D03*
%TO.P,IC1061,12,GND*%
%TO.N,GND*%
X66165000Y-82360000D03*
%TO.P,IC1061,13,XI*%
%TO.N,Net-(IC1061-Pad13)*%
X67435000Y-82360000D03*
%TO.P,IC1061,14,XO*%
%TO.N,Net-(IC1061-Pad14)*%
X68705000Y-82360000D03*
%TO.P,IC1061,15,D0*%
%TO.N,unconnected-(IC1061-Pad15)*%
X68705000Y-73060000D03*
%TO.P,IC1061,16,D1*%
%TO.N,unconnected-(IC1061-Pad16)*%
X67435000Y-73060000D03*
%TO.P,IC1061,17,D2*%
%TO.N,unconnected-(IC1061-Pad17)*%
X66165000Y-73060000D03*
%TO.P,IC1061,18,D3/SCS*%
%TO.N,unconnected-(IC1061-Pad18)*%
X64895000Y-73060000D03*
%TO.P,IC1061,19,D4/BZ*%
%TO.N,unconnected-(IC1061-Pad19)*%
X63625000Y-73060000D03*
%TO.P,IC1061,20,D5/SCK*%
%TO.N,unconnected-(IC1061-Pad20)*%
X62355000Y-73060000D03*
%TO.P,IC1061,21,D6/SDI*%
%TO.N,unconnected-(IC1061-Pad21)*%
X61085000Y-73060000D03*
%TO.P,IC1061,22,D7/SDO*%
%TO.N,unconnected-(IC1061-Pad22)*%
X59815000Y-73060000D03*
%TO.P,IC1061,23,SD_CS*%
%TO.N,Net-(IC1061-Pad23)*%
X58545000Y-73060000D03*
%TO.P,IC1061,24,~{ACT}*%
%TO.N,Net-(IC1061-Pad24)*%
X57275000Y-73060000D03*
%TO.P,IC1061,25,SD_DO*%
%TO.N,Net-(IC1061-Pad25)*%
X56005000Y-73060000D03*
%TO.P,IC1061,26,SD_CK*%
%TO.N,Net-(IC1061-Pad26)*%
X54735000Y-73060000D03*
%TO.P,IC1061,27,~{PCS}*%
%TO.N,unconnected-(IC1061-Pad27)*%
X53465000Y-73060000D03*
%TO.P,IC1061,28,VCC*%
%TO.N,+3.3V*%
X52195000Y-73060000D03*
%TD*%
D31*
%TO.P,IC1050,1,RE3(Vpp)*%
%TO.N,MCLR*%
X51275000Y-64845000D03*
D36*
%TO.P,IC1050,2,RA0*%
%TO.N,/Expansion Ports/A0*%
X53815000Y-64845000D03*
%TO.P,IC1050,3,RA1*%
%TO.N,/Expansion Ports/A1*%
X56355000Y-64845000D03*
%TO.P,IC1050,4,RA2*%
%TO.N,/Expansion Ports/A2*%
X58895000Y-64845000D03*
%TO.P,IC1050,5,RA3*%
%TO.N,/Expansion Ports/A3*%
X61435000Y-64845000D03*
%TO.P,IC1050,6,RA4*%
%TO.N,/Expansion Ports/A4*%
X63975000Y-64845000D03*
%TO.P,IC1050,7,RA5*%
%TO.N,/Expansion Ports/A5*%
X66515000Y-64845000D03*
%TO.P,IC1050,8,RE0*%
%TO.N,READY*%
X69055000Y-64845000D03*
%TO.P,IC1050,9,RE1*%
%TO.N,unconnected-(IC1050-Pad9)*%
X71595000Y-64845000D03*
%TO.P,IC1050,10,RE2*%
%TO.N,RD*%
X74135000Y-64845000D03*
%TO.P,IC1050,11,VCC*%
%TO.N,+5V*%
X76675000Y-64845000D03*
%TO.P,IC1050,12,GND*%
%TO.N,GND*%
X79215000Y-64845000D03*
%TO.P,IC1050,13,RA7*%
%TO.N,/Expansion Ports/A7*%
X81755000Y-64845000D03*
%TO.P,IC1050,14,RA6*%
%TO.N,/Expansion Ports/A6*%
X84295000Y-64845000D03*
%TO.P,IC1050,15,RC0*%
%TO.N,/Expansion Ports/A8*%
X86835000Y-64845000D03*
%TO.P,IC1050,16,RC1*%
%TO.N,/Expansion Ports/A9*%
X89375000Y-64845000D03*
%TO.P,IC1050,17,RC2*%
%TO.N,/Expansion Ports/A10*%
X91915000Y-64845000D03*
%TO.P,IC1050,18,RC3*%
%TO.N,/Expansion Ports/A11*%
X94455000Y-64845000D03*
%TO.P,IC1050,19,RD0*%
%TO.N,/Expansion Ports/D0*%
X96995000Y-64845000D03*
%TO.P,IC1050,20,RD1*%
%TO.N,/Expansion Ports/D1*%
X99535000Y-64845000D03*
%TO.P,IC1050,21,RD2*%
%TO.N,/Expansion Ports/D2*%
X99535000Y-49605000D03*
%TO.P,IC1050,22,RD3*%
%TO.N,/Expansion Ports/D3*%
X96995000Y-49605000D03*
%TO.P,IC1050,23,RC4*%
%TO.N,/Expansion Ports/A12*%
X94455000Y-49605000D03*
%TO.P,IC1050,24,RC5*%
%TO.N,/Expansion Ports/A13*%
X91915000Y-49605000D03*
%TO.P,IC1050,25,RC6*%
%TO.N,IORQ*%
X89375000Y-49605000D03*
%TO.P,IC1050,26,RC7*%
%TO.N,ROMEN*%
X86835000Y-49605000D03*
%TO.P,IC1050,27,RD4*%
%TO.N,/Expansion Ports/D4*%
X84295000Y-49605000D03*
%TO.P,IC1050,28,RD5*%
%TO.N,/Expansion Ports/D5*%
X81755000Y-49605000D03*
%TO.P,IC1050,29,RD6*%
%TO.N,/Expansion Ports/D6*%
X79215000Y-49605000D03*
%TO.P,IC1050,30,RD7*%
%TO.N,/Expansion Ports/D7*%
X76675000Y-49605000D03*
%TO.P,IC1050,31,GND*%
%TO.N,GND*%
X74135000Y-49605000D03*
%TO.P,IC1050,32,VCC*%
%TO.N,+5V*%
X71595000Y-49605000D03*
%TO.P,IC1050,33,RB0*%
%TO.N,DSKSWAP*%
X69055000Y-49605000D03*
%TO.P,IC1050,34,RB1*%
%TO.N,URX*%
X66515000Y-49605000D03*
%TO.P,IC1050,35,RB2*%
%TO.N,UTX*%
X63975000Y-49605000D03*
%TO.P,IC1050,36,RB3*%
%TO.N,ROMDIS*%
X61435000Y-49605000D03*
%TO.P,IC1050,37,RB4*%
%TO.N,/Expansion Ports/A5*%
X58895000Y-49605000D03*
%TO.P,IC1050,38,RB5*%
%TO.N,M1*%
X56355000Y-49605000D03*
%TO.P,IC1050,39,RB6(icpclk)*%
%TO.N,/Expansion Ports/A14*%
X53815000Y-49605000D03*
%TO.P,IC1050,40,RB7(icspdat)*%
%TO.N,/Expansion Ports/A15*%
X51275000Y-49605000D03*
%TD*%
D26*
%TO.P,D1050,1,K*%
%TO.N,GND*%
X92549200Y-103708200D03*
%TO.P,D1050,2,A*%
%TO.N,Net-(D1050-Pad2)*%
X95349200Y-103708200D03*
%TD*%
D37*
%TO.N,Net-(J1061-Pad1)*%
X66010000Y-86636400D03*
X63020500Y-88557600D03*
%TO.N,Net-(IC1061-Pad26)*%
X54735000Y-74716300D03*
X58105200Y-89267400D03*
%TO.N,Net-(IC1061-Pad25)*%
X55825000Y-74700100D03*
X60248400Y-89243400D03*
%TO.N,Net-(IC1061-Pad24)*%
X86031400Y-78183200D03*
X104043900Y-91348800D03*
%TO.N,Net-(IC1061-Pad23)*%
X57066500Y-74705000D03*
X59984400Y-87942200D03*
%TO.N,Net-(IC1061-Pad14)*%
X70765900Y-82562900D03*
%TO.N,Net-(IC1061-Pad13)*%
X72351500Y-84452700D03*
%TO.N,UDN*%
X51285100Y-83727400D03*
%TO.N,UDP*%
X50983800Y-79925700D03*
%TO.N,Net-(IC1061-Pad7)*%
X59843600Y-80686900D03*
X59843600Y-86610300D03*
%TO.N,/Expansion Ports/D0*%
X90239900Y-56964800D03*
%TO.N,UTX*%
X58598000Y-80720400D03*
X86569500Y-51628600D03*
%TO.N,URX*%
X59790500Y-78939100D03*
%TO.N,MCLR*%
X73365000Y-66532500D03*
%TO.N,ROMDIS*%
X64809200Y-46028100D03*
%TO.N,READY*%
X70888300Y-46113900D03*
%TO.N,RD*%
X73884000Y-45698500D03*
%TO.N,M1*%
X57190100Y-41966400D03*
%TO.N,/Expansion Ports/D1*%
X85099300Y-48298600D03*
%TO.N,/Expansion Ports/D2*%
X81248000Y-44197800D03*
%TO.N,/Expansion Ports/D3*%
X80718100Y-45154800D03*
%TO.N,/Expansion Ports/A5*%
X58637500Y-57838100D03*
%TO.N,/Expansion Ports/A6*%
X58420400Y-47094600D03*
%TO.N,/Expansion Ports/A7*%
X58897900Y-44269500D03*
%TO.N,/Expansion Ports/A8*%
X55767200Y-47519600D03*
%TO.N,/Expansion Ports/A9*%
X58040000Y-54144600D03*
%TO.N,/Expansion Ports/A10*%
X52145800Y-48155100D03*
%TO.N,/Expansion Ports/A11*%
X57272800Y-51905100D03*
%TO.N,/Expansion Ports/A14*%
X106029400Y-78240900D03*
%TO.N,/Expansion Ports/A15*%
X104939400Y-77479700D03*
%TO.N,GND*%
X122900000Y-50520000D03*
X51110000Y-98050000D03*
X101579000Y-105969000D03*
X92611200Y-105969000D03*
%TO.N,+5V*%
X113597500Y-79622700D03*
X97727800Y-96927000D03*
%TD*%
D38*
%TO.N,Net-(J1061-Pad1)*%
X55395400Y-90470200D02*
X55395400Y-89545100D01*
X74711900Y-86636400D02*
X66010000Y-86636400D01*
X75690000Y-85658300D02*
X74711900Y-86636400D01*
X63095400Y-88632500D02*
X63020500Y-88557600D01*
X63095400Y-90470200D02*
X63095400Y-88632500D01*
X59083300Y-85857200D02*
X55395400Y-89545100D01*
X60320100Y-85857200D02*
X59083300Y-85857200D01*
X63020500Y-88557600D02*
X60320100Y-85857200D01*
%TO.N,Net-(D1051-Pad2)*%
X102089900Y-101375700D02*
X104422400Y-103708200D01*
X102089900Y-99872800D02*
X102089900Y-101375700D01*
%TO.N,Net-(J1061-Pad4)*%
X63609400Y-91395300D02*
X59795400Y-91395300D01*
X63820200Y-91184500D02*
X63609400Y-91395300D01*
X63820200Y-85449000D02*
X63820200Y-91184500D01*
X65530000Y-83739200D02*
X63820200Y-85449000D01*
X65530000Y-81268700D02*
X65530000Y-83739200D01*
X65820200Y-80978500D02*
X65530000Y-81268700D01*
X66497000Y-80978500D02*
X65820200Y-80978500D01*
X66800000Y-81281500D02*
X66497000Y-80978500D01*
X66800000Y-83474000D02*
X66800000Y-81281500D01*
X68984300Y-85658300D02*
X66800000Y-83474000D01*
X73683400Y-85658300D02*
X68984300Y-85658300D01*
X59795400Y-90470200D02*
X59795400Y-91395300D01*
D39*
%TO.N,Net-(J1060-Pad1)*%
X39578400Y-90251600D02*
X39900000Y-89930000D01*
X39578400Y-93268200D02*
X39578400Y-90251600D01*
X46235000Y-72290000D02*
X43695000Y-72290000D01*
X41299800Y-74685200D02*
X43695000Y-72290000D01*
X41299800Y-88530200D02*
X41299800Y-74685200D01*
X39900000Y-89930000D02*
X41299800Y-88530200D01*
X38429900Y-89930000D02*
X39900000Y-89930000D01*
X37277500Y-88777600D02*
X38429900Y-89930000D01*
X37277500Y-88490000D02*
X37277500Y-88777600D01*
D38*
%TO.N,Net-(IC1061-Pad26)*%
X58695400Y-90470200D02*
X58695400Y-89545100D01*
X58382900Y-89545100D02*
X58695400Y-89545100D01*
X58105200Y-89267400D02*
X58382900Y-89545100D01*
X54735000Y-73060000D02*
X54735000Y-74716300D01*
%TO.N,Net-(IC1061-Pad25)*%
X60895400Y-90470200D02*
X60895400Y-89545100D01*
X60550100Y-89545100D02*
X60248400Y-89243400D01*
X60895400Y-89545100D02*
X60550100Y-89545100D01*
X55825000Y-73240000D02*
X55825000Y-74700100D01*
X56005000Y-73060000D02*
X55825000Y-73240000D01*
%TO.N,Net-(IC1061-Pad24)*%
X84824600Y-79390000D02*
X86031400Y-78183200D01*
X78464200Y-79390000D02*
X84824600Y-79390000D01*
X74522700Y-75448500D02*
X78464200Y-79390000D01*
X59203500Y-75448500D02*
X74522700Y-75448500D01*
X57275000Y-73520000D02*
X59203500Y-75448500D01*
X57275000Y-73060000D02*
X57275000Y-73520000D01*
X112316900Y-99621800D02*
X112316900Y-99923600D01*
X104043900Y-91348800D02*
X112316900Y-99621800D01*
%TO.N,Net-(IC1061-Pad23)*%
X60392500Y-87942200D02*
X61995400Y-89545100D01*
X59984400Y-87942200D02*
X60392500Y-87942200D01*
X61995400Y-90470200D02*
X61995400Y-89545100D01*
X56640000Y-74278500D02*
X57066500Y-74705000D01*
X56640000Y-71943600D02*
X56640000Y-74278500D01*
X56874400Y-71709200D02*
X56640000Y-71943600D01*
X57700800Y-71709200D02*
X56874400Y-71709200D01*
X58545000Y-72553400D02*
X57700800Y-71709200D01*
X58545000Y-73060000D02*
X58545000Y-72553400D01*
%TO.N,Net-(IC1061-Pad14)*%
X70563000Y-82360000D02*
X70765900Y-82562900D01*
X68705000Y-82360000D02*
X70563000Y-82360000D01*
%TO.N,Net-(IC1061-Pad13)*%
X69030000Y-84452700D02*
X72351500Y-84452700D01*
X67435000Y-82857700D02*
X69030000Y-84452700D01*
X67435000Y-82360000D02*
X67435000Y-82857700D01*
%TO.N,UDN*%
X46235000Y-74830000D02*
X43695000Y-74830000D01*
X64895000Y-82799900D02*
X64895000Y-82360000D01*
X63517400Y-84177500D02*
X64895000Y-82799900D01*
X51735200Y-84177500D02*
X63517400Y-84177500D01*
X51285100Y-83727400D02*
X51735200Y-84177500D01*
%TO.N,UDP*%
X43695000Y-77370000D02*
X43695000Y-77957500D01*
X46235000Y-77370000D02*
X45059900Y-77370000D01*
X52770500Y-79925700D02*
X50983800Y-79925700D01*
X54109200Y-81264400D02*
X52770500Y-79925700D01*
X54109200Y-83502400D02*
X54109200Y-81264400D01*
X54334200Y-83727400D02*
X54109200Y-83502400D01*
X62753900Y-83727400D02*
X54334200Y-83727400D01*
X63625000Y-82856300D02*
X62753900Y-83727400D01*
X63625000Y-82360000D02*
X63625000Y-82856300D01*
X44908700Y-92437900D02*
X44078400Y-93268200D01*
X44908700Y-78393800D02*
X44908700Y-92437900D01*
X44472400Y-77957500D02*
X44908700Y-78393800D01*
X43695000Y-77957500D02*
X44472400Y-77957500D01*
X44472400Y-77957500D02*
X45059900Y-77370000D01*
%TO.N,Net-(IC1061-Pad7)*%
X56495400Y-90470200D02*
X56495400Y-89545100D01*
X59430200Y-86610300D02*
X59843600Y-86610300D01*
X56495400Y-89545100D02*
X59430200Y-86610300D01*
X59843600Y-82331400D02*
X59843600Y-80686900D01*
X59815000Y-82360000D02*
X59843600Y-82331400D01*
%TO.N,Net-(D1060-Pad1)*%
X110491900Y-103291500D02*
X110024400Y-103759000D01*
X110491900Y-99923600D02*
X110491900Y-103291500D01*
%TO.N,/Expansion Ports/D0*%
X76965200Y-26539800D02*
X78155800Y-25349200D01*
X76965200Y-35706100D02*
X76965200Y-26539800D01*
X78155800Y-36896700D02*
X76965200Y-35706100D01*
X96995000Y-64845000D02*
X96995000Y-63719900D01*
X96995000Y-63719900D02*
X90239900Y-56964800D01*
%TO.N,UTX*%
X58545000Y-80773400D02*
X58598000Y-80720400D01*
X58545000Y-82360000D02*
X58545000Y-80773400D01*
X86169900Y-51628600D02*
X86569500Y-51628600D01*
X85271400Y-50730100D02*
X86169900Y-51628600D01*
X71051100Y-50730100D02*
X85271400Y-50730100D01*
X70337400Y-50016400D02*
X71051100Y-50730100D01*
X70337400Y-49290000D02*
X70337400Y-50016400D01*
X69527200Y-48479800D02*
X70337400Y-49290000D01*
X65944000Y-48479800D02*
X69527200Y-48479800D01*
X65100100Y-49323700D02*
X65944000Y-48479800D01*
X65100100Y-49605000D02*
X65100100Y-49323700D01*
X63975000Y-49605000D02*
X65100100Y-49605000D01*
%TO.N,URX*%
X57275000Y-80959600D02*
X57275000Y-82360000D01*
X59295500Y-78939100D02*
X57275000Y-80959600D01*
X59790500Y-78939100D02*
X59295500Y-78939100D01*
%TO.N,MCLR*%
X53806300Y-66532500D02*
X73365000Y-66532500D01*
X52400100Y-65126300D02*
X53806300Y-66532500D01*
X52400100Y-64845000D02*
X52400100Y-65126300D01*
X51275000Y-64845000D02*
X52400100Y-64845000D01*
%TO.N,DSKSWAP*%
X46020000Y-52340000D02*
X46020000Y-51564900D01*
X69055000Y-49605000D02*
X67929900Y-49605000D01*
X46020000Y-51259500D02*
X46020000Y-51564900D01*
X50943400Y-46336100D02*
X46020000Y-51259500D01*
X59839300Y-46336100D02*
X50943400Y-46336100D01*
X62705000Y-49201800D02*
X59839300Y-46336100D01*
X62705000Y-49950600D02*
X62705000Y-49201800D01*
X63509500Y-50755100D02*
X62705000Y-49950600D01*
X67061100Y-50755100D02*
X63509500Y-50755100D01*
X67929900Y-49886300D02*
X67061100Y-50755100D01*
X67929900Y-49605000D02*
X67929900Y-49886300D01*
%TO.N,ROMDIS*%
X97043800Y-43408700D02*
X101015800Y-39436700D01*
X78032400Y-43408700D02*
X97043800Y-43408700D01*
X74567400Y-46873700D02*
X78032400Y-43408700D01*
X65654800Y-46873700D02*
X74567400Y-46873700D01*
X64809200Y-46028100D02*
X65654800Y-46873700D01*
%TO.N,BUS*%
X112856100Y-93882300D02*
X122631200Y-103657400D01*
X112856100Y-53889800D02*
X112856100Y-93882300D01*
X120187700Y-46558200D02*
X112856100Y-53889800D01*
X120991700Y-46558200D02*
X120187700Y-46558200D01*
X121754900Y-45795000D02*
X120991700Y-46558200D01*
X121754900Y-38727900D02*
X121754900Y-45795000D01*
X122824400Y-37658400D02*
X121754900Y-38727900D01*
X122824400Y-34335200D02*
X122824400Y-37658400D01*
X122672800Y-34183600D02*
X122824400Y-34335200D01*
X98648900Y-34183600D02*
X122672800Y-34183600D01*
X95935800Y-36896700D02*
X98648900Y-34183600D01*
%TO.N,READY*%
X69055000Y-64845000D02*
X67929900Y-64845000D01*
X46020000Y-55640000D02*
X46945100Y-55640000D01*
X67929900Y-64652700D02*
X67929900Y-64845000D01*
X59889000Y-56611800D02*
X67929900Y-64652700D01*
X47916900Y-56611800D02*
X59889000Y-56611800D01*
X46945100Y-55640000D02*
X47916900Y-56611800D01*
X71198000Y-46423600D02*
X70888300Y-46113900D01*
X74380800Y-46423600D02*
X71198000Y-46423600D01*
X77845900Y-42958500D02*
X74380800Y-46423600D01*
X92414000Y-42958500D02*
X77845900Y-42958500D01*
X95935800Y-39436700D02*
X92414000Y-42958500D01*
%TO.N,RD*%
X77074200Y-42508300D02*
X73884000Y-45698500D01*
X81911700Y-42508300D02*
X77074200Y-42508300D01*
X84411000Y-40009000D02*
X81911700Y-42508300D01*
X84411000Y-38261500D02*
X84411000Y-40009000D01*
X85775800Y-36896700D02*
X84411000Y-38261500D01*
%TO.N,M1*%
X80706100Y-41966400D02*
X57190100Y-41966400D01*
X83235800Y-39436700D02*
X80706100Y-41966400D01*
%TO.N,/Expansion Ports/D1*%
X99535000Y-64845000D02*
X99535000Y-63719900D01*
X85420200Y-48619500D02*
X85099300Y-48298600D01*
X85420200Y-49886400D02*
X85420200Y-48619500D01*
X86437300Y-50903500D02*
X85420200Y-49886400D01*
X86869900Y-50903500D02*
X86437300Y-50903500D01*
X99535000Y-63568600D02*
X86869900Y-50903500D01*
X99535000Y-63719900D02*
X99535000Y-63568600D01*
%TO.N,/Expansion Ports/D2*%
X93284000Y-44197800D02*
X81248000Y-44197800D01*
X98409900Y-49323700D02*
X93284000Y-44197800D01*
X98409900Y-49605000D02*
X98409900Y-49323700D01*
X99535000Y-49605000D02*
X98409900Y-49605000D01*
%TO.N,/Expansion Ports/D3*%
X96995000Y-49605000D02*
X95869900Y-49605000D01*
X91701000Y-45154800D02*
X80718100Y-45154800D01*
X95869900Y-49323700D02*
X91701000Y-45154800D01*
X95869900Y-49605000D02*
X95869900Y-49323700D01*
%TO.N,/Expansion Ports/D4*%
X74266400Y-26539800D02*
X73075800Y-25349200D01*
X74266400Y-35706100D02*
X74266400Y-26539800D01*
X73075800Y-36896700D02*
X74266400Y-35706100D01*
%TO.N,/Expansion Ports/D6*%
X71726400Y-26539800D02*
X70535800Y-25349200D01*
X71726400Y-35706100D02*
X71726400Y-26539800D01*
X70535800Y-36896700D02*
X71726400Y-35706100D01*
%TO.N,/Expansion Ports/D7*%
X69345200Y-29079800D02*
X70535800Y-27889200D01*
X69345200Y-38246100D02*
X69345200Y-29079800D01*
X70535800Y-39436700D02*
X69345200Y-38246100D01*
%TO.N,/Expansion Ports/A2*%
X64265200Y-26539800D02*
X65455800Y-25349200D01*
X64265200Y-35706100D02*
X64265200Y-26539800D01*
X65455800Y-36896700D02*
X64265200Y-35706100D01*
X58895000Y-64845000D02*
X57769900Y-64845000D01*
X57769900Y-64563700D02*
X57769900Y-64845000D01*
X52171900Y-58965700D02*
X57769900Y-64563700D01*
X47158900Y-58965700D02*
X52171900Y-58965700D01*
X44112300Y-55919100D02*
X47158900Y-58965700D01*
X44112300Y-27203900D02*
X44112300Y-55919100D01*
X47147400Y-24168800D02*
X44112300Y-27203900D01*
X64275400Y-24168800D02*
X47147400Y-24168800D01*
X65455800Y-25349200D02*
X64275400Y-24168800D01*
%TO.N,/Expansion Ports/A3*%
X66646400Y-29079800D02*
X65455800Y-27889200D01*
X66646400Y-38246100D02*
X66646400Y-29079800D01*
X65455800Y-39436700D02*
X66646400Y-38246100D01*
X61435000Y-64845000D02*
X60309900Y-64845000D01*
X60309900Y-65126300D02*
X60309900Y-64845000D01*
X59463500Y-65972700D02*
X60309900Y-65126300D01*
X55888200Y-65972700D02*
X59463500Y-65972700D01*
X55085000Y-65169500D02*
X55888200Y-65972700D01*
X55085000Y-64444700D02*
X55085000Y-65169500D01*
X51628000Y-60987700D02*
X55085000Y-64444700D01*
X48528500Y-60987700D02*
X51628000Y-60987700D01*
X43642400Y-56101600D02*
X48528500Y-60987700D01*
X43642400Y-27029100D02*
X43642400Y-56101600D01*
X47011600Y-23659900D02*
X43642400Y-27029100D01*
X65513000Y-23659900D02*
X47011600Y-23659900D01*
X66631000Y-24777900D02*
X65513000Y-23659900D01*
X66631000Y-26714000D02*
X66631000Y-24777900D01*
X65455800Y-27889200D02*
X66631000Y-26714000D01*
%TO.N,/Expansion Ports/A4*%
X63975000Y-64845000D02*
X62849900Y-64845000D01*
X61551000Y-26714000D02*
X62915800Y-25349200D01*
X61551000Y-26714100D02*
X61551000Y-26714000D01*
X61551000Y-34258900D02*
X61551000Y-26714100D01*
X62915800Y-35623700D02*
X61551000Y-34258900D01*
X62915800Y-36896700D02*
X62915800Y-35623700D01*
X62849900Y-64563700D02*
X62849900Y-64845000D01*
X55348100Y-57061900D02*
X62849900Y-64563700D01*
X45932000Y-57061900D02*
X55348100Y-57061900D01*
X44578800Y-55708700D02*
X45932000Y-57061900D01*
X44578800Y-45561500D02*
X44578800Y-55708700D01*
X48852000Y-41288300D02*
X44578800Y-45561500D01*
X48852000Y-39121200D02*
X48852000Y-41288300D01*
X49901300Y-38071900D02*
X48852000Y-39121200D01*
X50741600Y-38071900D02*
X49901300Y-38071900D01*
X51485800Y-37327700D02*
X50741600Y-38071900D01*
X51485800Y-36021800D02*
X51485800Y-37327700D01*
X59200600Y-28307000D02*
X51485800Y-36021800D01*
X59200600Y-27399500D02*
X59200600Y-28307000D01*
X59886000Y-26714100D02*
X59200600Y-27399500D01*
X61551000Y-26714100D02*
X59886000Y-26714100D01*
%TO.N,/Expansion Ports/A5*%
X66515000Y-64845000D02*
X65389900Y-64845000D01*
X65389900Y-64590500D02*
X65389900Y-64845000D01*
X58637500Y-57838100D02*
X65389900Y-64590500D01*
%TO.N,/Expansion Ports/A6*%
X84295000Y-64845000D02*
X83169900Y-64845000D01*
X83169900Y-64563600D02*
X83169900Y-64845000D01*
X74147100Y-55540800D02*
X83169900Y-64563600D01*
X54219900Y-55540800D02*
X74147100Y-55540800D01*
X49244100Y-50565000D02*
X54219900Y-55540800D01*
X49244100Y-48678000D02*
X49244100Y-50565000D01*
X51128600Y-46793500D02*
X49244100Y-48678000D01*
X58119300Y-46793500D02*
X51128600Y-46793500D01*
X58420400Y-47094600D02*
X58119300Y-46793500D01*
%TO.N,/Expansion Ports/A7*%
X60375800Y-34038400D02*
X60375800Y-27889200D01*
X61551000Y-35213600D02*
X60375800Y-34038400D01*
X61551000Y-38261500D02*
X61551000Y-35213600D01*
X60375800Y-39436700D02*
X61551000Y-38261500D01*
X52357500Y-44269500D02*
X58897900Y-44269500D01*
X45084000Y-51543000D02*
X52357500Y-44269500D01*
X45084000Y-52975500D02*
X45084000Y-51543000D01*
X48270100Y-56161600D02*
X45084000Y-52975500D01*
X72227800Y-56161600D02*
X48270100Y-56161600D01*
X80629900Y-64563700D02*
X72227800Y-56161600D01*
X80629900Y-64845000D02*
X80629900Y-64563700D01*
X81755000Y-64845000D02*
X80629900Y-64845000D01*
%TO.N,/Expansion Ports/A8*%
X55677600Y-47430000D02*
X55767200Y-47519600D01*
X51142800Y-47430000D02*
X55677600Y-47430000D01*
X49696400Y-48876400D02*
X51142800Y-47430000D01*
X49696400Y-50380600D02*
X49696400Y-48876400D01*
X54352000Y-55036200D02*
X49696400Y-50380600D01*
X76182400Y-55036200D02*
X54352000Y-55036200D01*
X85709900Y-64563700D02*
X76182400Y-55036200D01*
X85709900Y-64845000D02*
X85709900Y-64563700D01*
X86835000Y-64845000D02*
X85709900Y-64845000D01*
%TO.N,/Expansion Ports/A9*%
X89375000Y-64845000D02*
X88249900Y-64845000D01*
X77782600Y-54144600D02*
X58040000Y-54144600D01*
X88249900Y-64611900D02*
X77782600Y-54144600D01*
X88249900Y-64845000D02*
X88249900Y-64611900D01*
%TO.N,/Expansion Ports/A10*%
X91915000Y-64845000D02*
X90789900Y-64845000D01*
X51062900Y-48155100D02*
X52145800Y-48155100D01*
X50146600Y-49071400D02*
X51062900Y-48155100D01*
X50146600Y-50135600D02*
X50146600Y-49071400D01*
X53430400Y-53419400D02*
X50146600Y-50135600D01*
X79568600Y-53419400D02*
X53430400Y-53419400D01*
X90789900Y-64640700D02*
X79568600Y-53419400D01*
X90789900Y-64845000D02*
X90789900Y-64640700D01*
%TO.N,/Expansion Ports/A11*%
X81515100Y-51905100D02*
X57272800Y-51905100D01*
X94455000Y-64845000D02*
X81515100Y-51905100D01*
%TO.N,/Expansion Ports/A12*%
X94455000Y-49605000D02*
X93329900Y-49605000D01*
X93329900Y-49323700D02*
X93329900Y-49605000D01*
X91067400Y-47061200D02*
X93329900Y-49323700D01*
X75016500Y-47061200D02*
X91067400Y-47061200D01*
X74753900Y-47323800D02*
X75016500Y-47061200D01*
X65079500Y-47323800D02*
X74753900Y-47323800D01*
X60850000Y-43094300D02*
X65079500Y-47323800D01*
X57286800Y-43094300D02*
X60850000Y-43094300D01*
X54025800Y-39833300D02*
X57286800Y-43094300D01*
X54025800Y-38166700D02*
X54025800Y-39833300D01*
X52755800Y-36896700D02*
X54025800Y-38166700D01*
%TO.N,/Expansion Ports/A13*%
X91915000Y-49605000D02*
X90789900Y-49605000D01*
X90789900Y-49323700D02*
X90789900Y-49605000D01*
X89039600Y-47573400D02*
X90789900Y-49323700D01*
X75140900Y-47573400D02*
X89039600Y-47573400D01*
X74940400Y-47773900D02*
X75140900Y-47573400D01*
X63427800Y-47773900D02*
X74940400Y-47773900D01*
X59198300Y-43544400D02*
X63427800Y-47773900D01*
X56863500Y-43544400D02*
X59198300Y-43544400D01*
X52755800Y-39436700D02*
X56863500Y-43544400D01*
%TO.N,/Expansion Ports/A14*%
X53815000Y-49605000D02*
X54940100Y-49605000D01*
X54940100Y-49886300D02*
X54940100Y-49605000D01*
X56233800Y-51180000D02*
X54940100Y-49886300D01*
X57573200Y-51180000D02*
X56233800Y-51180000D01*
X57598500Y-51205300D02*
X57573200Y-51180000D01*
X82481100Y-51205300D02*
X57598500Y-51205300D01*
X95725000Y-64449200D02*
X82481100Y-51205300D01*
X95725000Y-67200300D02*
X95725000Y-64449200D01*
X106029400Y-77504700D02*
X95725000Y-67200300D01*
X106029400Y-78240900D02*
X106029400Y-77504700D01*
%TO.N,/Expansion Ports/A15*%
X51275000Y-49605000D02*
X52400100Y-49605000D01*
X93207900Y-65748200D02*
X104939400Y-77479700D01*
X93207900Y-64544600D02*
X93207900Y-65748200D01*
X81632500Y-52969200D02*
X93207900Y-64544600D01*
X55483000Y-52969200D02*
X81632500Y-52969200D01*
X52400100Y-49886300D02*
X55483000Y-52969200D01*
X52400100Y-49605000D02*
X52400100Y-49886300D01*
D39*
%TO.N,+3.3V*%
X51475800Y-85775800D02*
X54269600Y-85775800D01*
X49280000Y-83580000D02*
X51475800Y-85775800D01*
X49280000Y-79510000D02*
X49280000Y-83580000D01*
X51555000Y-77235000D02*
X49280000Y-79510000D01*
X52195000Y-77235000D02*
X51555000Y-77235000D01*
X62355000Y-77855000D02*
X62355000Y-82360000D01*
X62170000Y-77670000D02*
X62355000Y-77855000D01*
X52195000Y-77235000D02*
X52195000Y-73060000D01*
X52630000Y-77670000D02*
X52195000Y-77235000D01*
X62170000Y-77670000D02*
X52630000Y-77670000D01*
X67520100Y-77670000D02*
X62170000Y-77670000D01*
X73683400Y-83833300D02*
X67520100Y-77670000D01*
X75690000Y-83833300D02*
X73683400Y-83833300D01*
D38*
X120599200Y-40358700D02*
X120599200Y-41808800D01*
X120599000Y-40358500D02*
X120599200Y-40358700D01*
D39*
X120599000Y-35508800D02*
X120599000Y-40358500D01*
X120599000Y-40358500D02*
X120599000Y-44058500D01*
D38*
X120599200Y-44058700D02*
X120599200Y-45208200D01*
X120599000Y-44058500D02*
X120599200Y-44058700D01*
X120599200Y-35508800D02*
X120599000Y-35508800D01*
X111608300Y-104975100D02*
X112824400Y-103759000D01*
X109017200Y-104975100D02*
X111608300Y-104975100D01*
X103914900Y-99872800D02*
X109017200Y-104975100D01*
D39*
X107170000Y-88510000D02*
X104661000Y-88510000D01*
X107170000Y-55940000D02*
X107170000Y-88510000D01*
X117902000Y-45208200D02*
X107170000Y-55940000D01*
X120599000Y-45208200D02*
X117902000Y-45208200D01*
X120599000Y-44058500D02*
X120599000Y-45208200D01*
X77953300Y-83833300D02*
X75690000Y-83833300D01*
X82630000Y-88510000D02*
X77953300Y-83833300D01*
X104661000Y-88510000D02*
X82630000Y-88510000D01*
D38*
X103318800Y-99276700D02*
X103914900Y-99872800D01*
X103318800Y-89852200D02*
X103318800Y-99276700D01*
X104661000Y-88510000D02*
X103318800Y-89852200D01*
%TO.N,SOUND*%
X48866400Y-29079800D02*
X47675800Y-27889200D01*
X48866400Y-38246100D02*
X48866400Y-29079800D01*
X47675800Y-39436700D02*
X48866400Y-38246100D01*
%TO.N,Net-(D1050-Pad2)*%
X93016700Y-101375700D02*
X93016700Y-99872800D01*
X95349200Y-103708200D02*
X93016700Y-101375700D01*
D40*
%TO.N,GND*%
X79093200Y-64966800D02*
X79215000Y-64845000D01*
X79093200Y-67735600D02*
X79093200Y-64966800D01*
X79093200Y-74165600D02*
X81706800Y-76779200D01*
X79093200Y-67735600D02*
X79093200Y-74165600D01*
X66165000Y-85235000D02*
X66165000Y-82360000D01*
X64645400Y-86754600D02*
X66165000Y-85235000D01*
X64645400Y-90470200D02*
X64645400Y-86754600D01*
X64249800Y-94770200D02*
X54328200Y-94770200D01*
X64645400Y-94374600D02*
X64249800Y-94770200D01*
X64645400Y-90470200D02*
X64645400Y-94374600D01*
D39*
X51135400Y-98024600D02*
X51110000Y-98050000D01*
X52555400Y-98024600D02*
X51135400Y-98024600D01*
X52931700Y-94770200D02*
X53495400Y-94770200D01*
X52555400Y-95146500D02*
X52931700Y-94770200D01*
X52555400Y-98024600D02*
X52555400Y-95146500D01*
X92549200Y-105907000D02*
X92611200Y-105969000D01*
X92549200Y-103708200D02*
X92549200Y-105907000D01*
X52555400Y-100030000D02*
X52555400Y-98024600D01*
X53495400Y-100970000D02*
X52555400Y-100030000D01*
X53495400Y-100970200D02*
X53495400Y-100970000D01*
X53495400Y-94770200D02*
X52931700Y-94770200D01*
D40*
X57595400Y-91503000D02*
X54328200Y-94770200D01*
X57595400Y-90470200D02*
X57595400Y-91503000D01*
X54328200Y-94770200D02*
X53495400Y-94770200D01*
D39*
X120599200Y-47908200D02*
X122910600Y-47908200D01*
X122911000Y-50509400D02*
X122900000Y-50520000D01*
X122911000Y-47908200D02*
X122911000Y-50509400D01*
X122910600Y-47908200D02*
X122911000Y-47908200D01*
D40*
X54445400Y-87500000D02*
X56169600Y-85775800D01*
X54445400Y-90470200D02*
X54445400Y-87500000D01*
D39*
X111008000Y-41808800D02*
X108636000Y-39436700D01*
X118299000Y-41808800D02*
X111008000Y-41808800D01*
D38*
X118299000Y-41808800D02*
X118299200Y-41808800D01*
D39*
X101622000Y-105925000D02*
X101579000Y-105969000D01*
X101622000Y-103708200D02*
X101622000Y-105925000D01*
D38*
X66995400Y-105570200D02*
X66995400Y-105570000D01*
D39*
X68882800Y-103683000D02*
X66995400Y-105570000D01*
X72182600Y-103683000D02*
X68882800Y-103683000D01*
D38*
X53495400Y-105120200D02*
X53495400Y-105120000D01*
D39*
X54918600Y-105120000D02*
X53495400Y-105120000D01*
X55408600Y-104630000D02*
X54918600Y-105120000D01*
X66055400Y-104630000D02*
X55408600Y-104630000D01*
X66995400Y-105570000D02*
X66055400Y-104630000D01*
X53495400Y-105120000D02*
X53495400Y-100970200D01*
D38*
X108635800Y-39436700D02*
X108636000Y-39436700D01*
D39*
X54305400Y-90380000D02*
X54305400Y-90425100D01*
X52871900Y-90380000D02*
X54305400Y-90380000D01*
X51915400Y-91336500D02*
X52871900Y-90380000D01*
X51915400Y-94770200D02*
X51915400Y-91336500D01*
X52931700Y-94770200D02*
X51915400Y-94770200D01*
X54305400Y-90425100D02*
X54305400Y-90470200D01*
D38*
X54400300Y-90425100D02*
X54445400Y-90470200D01*
X54305400Y-90425100D02*
X54400300Y-90425100D01*
D39*
%TO.N,+5V*%
X73890000Y-67630000D02*
X76675000Y-64845000D01*
X73890000Y-67960000D02*
X73890000Y-67630000D01*
X44319800Y-67960000D02*
X73890000Y-67960000D01*
X39102500Y-73177300D02*
X44319800Y-67960000D01*
X39102500Y-88490000D02*
X39102500Y-73177300D01*
X77193200Y-65363200D02*
X76675000Y-64845000D01*
X77193200Y-67735600D02*
X77193200Y-65363200D01*
X126328000Y-45458000D02*
X126328000Y-64162000D01*
X126328000Y-42008000D02*
X126328000Y-45458000D01*
D40*
X81910000Y-33490000D02*
X81945800Y-33525800D01*
X81910000Y-32610000D02*
X81910000Y-33490000D01*
X81910000Y-29103400D02*
X81910000Y-32610000D01*
X80695800Y-27889200D02*
X81910000Y-29103400D01*
X79445800Y-29139200D02*
X80695800Y-27889200D01*
X79445800Y-38186700D02*
X79445800Y-29139200D01*
X80695800Y-39436700D02*
X79445800Y-38186700D01*
X81945800Y-38186700D02*
X81945800Y-33525800D01*
X80695800Y-39436700D02*
X81945800Y-38186700D01*
X81945800Y-33155800D02*
X81940000Y-33150000D01*
X81945800Y-33525800D02*
X81945800Y-33155800D01*
D39*
X126129000Y-41808800D02*
X126328000Y-42008000D01*
X122899200Y-41808800D02*
X126129000Y-41808800D01*
X126301000Y-64135000D02*
X126328000Y-64162000D01*
X116815400Y-64135000D02*
X126301000Y-64135000D01*
D38*
X120929400Y-27392000D02*
X119804300Y-27392000D01*
D39*
X120929000Y-27392000D02*
X119804300Y-28516700D01*
X126328000Y-32790600D02*
X120929000Y-27392000D01*
X126328000Y-42008000D02*
X126328000Y-32790600D01*
X115711000Y-32610000D02*
X81910000Y-32610000D01*
X119804300Y-28516700D02*
X115711000Y-32610000D01*
D38*
X119804300Y-28516700D02*
X119804300Y-27392000D01*
D39*
X126078000Y-45208200D02*
X126328000Y-45458000D01*
X122911000Y-45208200D02*
X126078000Y-45208200D01*
D38*
X122911000Y-45208200D02*
X122910600Y-45208200D01*
D39*
X121893000Y-73787000D02*
X116865400Y-73787000D01*
X126328000Y-69352000D02*
X121893000Y-73787000D01*
X126328000Y-64162000D02*
X126328000Y-69352000D01*
D38*
X94841700Y-99813100D02*
X94841700Y-99872800D01*
X97727800Y-96927000D02*
X94841700Y-99813100D01*
X113597500Y-77054700D02*
X113597500Y-79622700D01*
X116865200Y-73787000D02*
X113597500Y-77054700D01*
%TD*%
%TA.AperFunction,Conductor*%
%TO.N,+5V*%
G36*
X82047567Y-28563891D02*
G01*
X82075380Y-28595713D01*
X82133087Y-28689883D01*
X82133091Y-28689888D01*
X82135787Y-28694288D01*
X82139167Y-28698190D01*
X82140222Y-28699408D01*
X82150000Y-35280000D01*
X79190000Y-35280000D01*
X79161095Y-28805376D01*
X79193896Y-28772689D01*
X79246554Y-28699408D01*
X79324253Y-28591277D01*
X79325440Y-28592130D01*
X79361070Y-28559325D01*
X79496239Y-28558872D01*
X79508138Y-28563878D01*
X79535966Y-28595712D01*
X79562259Y-28638619D01*
X79572716Y-28648080D01*
X79581494Y-28644296D01*
X79667493Y-28558297D01*
X80388332Y-28555878D01*
X79942537Y-29001673D01*
X79935777Y-29014053D01*
X79941058Y-29021107D01*
X80102556Y-29115479D01*
X80111842Y-29119929D01*
X80310801Y-29195903D01*
X80320699Y-29198779D01*
X80529395Y-29241238D01*
X80539623Y-29242457D01*
X80752450Y-29250262D01*
X80762736Y-29249795D01*
X80973985Y-29222734D01*
X80984062Y-29220592D01*
X81188055Y-29159391D01*
X81197642Y-29155633D01*
X81388898Y-29061938D01*
X81397744Y-29056665D01*
X81445047Y-29022923D01*
X81453448Y-29012223D01*
X81446460Y-28999070D01*
X81001211Y-28553821D01*
X81717229Y-28551419D01*
X81806274Y-28640464D01*
X81818284Y-28647023D01*
X81830023Y-28638055D01*
X81863822Y-28591019D01*
X81865077Y-28591921D01*
X81909782Y-28550773D01*
X82015557Y-28550418D01*
X82047567Y-28563891D01*
G37*
%TD.AperFunction*%
%TD*%
%TA.AperFunction,Conductor*%
%TO.N,+3.3V*%
G36*
X118133321Y-34837102D02*
G01*
X118179814Y-34890758D01*
X118191200Y-34943100D01*
X118191200Y-35236685D01*
X118195675Y-35251924D01*
X118197065Y-35253129D01*
X118204748Y-35254800D01*
X120727200Y-35254800D01*
X120795321Y-35274802D01*
X120841814Y-35328458D01*
X120853200Y-35380800D01*
X120853200Y-36998684D01*
X120857675Y-37013923D01*
X120859065Y-37015128D01*
X120866748Y-37016799D01*
X122064900Y-37016799D01*
X122133021Y-37036801D01*
X122179514Y-37090457D01*
X122190900Y-37142799D01*
X122190900Y-37343805D01*
X122170898Y-37411926D01*
X122153995Y-37432900D01*
X121362647Y-38224248D01*
X121354361Y-38231788D01*
X121347882Y-38235900D01*
X121342457Y-38241677D01*
X121301257Y-38285551D01*
X121298502Y-38288393D01*
X121278765Y-38308130D01*
X121276285Y-38311327D01*
X121268582Y-38320347D01*
X121238314Y-38352579D01*
X121234495Y-38359525D01*
X121234493Y-38359528D01*
X121228552Y-38370334D01*
X121217701Y-38386853D01*
X121205286Y-38402859D01*
X121202141Y-38410128D01*
X121202138Y-38410132D01*
X121187726Y-38443437D01*
X121182509Y-38454087D01*
X121161205Y-38492840D01*
X121159234Y-38500515D01*
X121159234Y-38500516D01*
X121156167Y-38512462D01*
X121149763Y-38531166D01*
X121141719Y-38549755D01*
X121140480Y-38557578D01*
X121140477Y-38557588D01*
X121134801Y-38593424D01*
X121132395Y-38605044D01*
X121121400Y-38647870D01*
X121121400Y-38668124D01*
X121119849Y-38687834D01*
X121116680Y-38707843D01*
X121117426Y-38715735D01*
X121120841Y-38751861D01*
X121121400Y-38763719D01*
X121121400Y-40174800D01*
X121101398Y-40242921D01*
X121047742Y-40289414D01*
X120995400Y-40300800D01*
X120871315Y-40300800D01*
X120856076Y-40305275D01*
X120854871Y-40306665D01*
X120853200Y-40314348D01*
X120853200Y-43298684D01*
X120857675Y-43313923D01*
X120859065Y-43315128D01*
X120866748Y-43316799D01*
X120995400Y-43316799D01*
X121063521Y-43336801D01*
X121110014Y-43390457D01*
X121121400Y-43442799D01*
X121121400Y-43874200D01*
X121101398Y-43942321D01*
X121047742Y-43988814D01*
X120995400Y-44000200D01*
X120871315Y-44000200D01*
X120856076Y-44004675D01*
X120854871Y-44006065D01*
X120853200Y-44013748D01*
X120853200Y-45336200D01*
X120833198Y-45404321D01*
X120779542Y-45450814D01*
X120727200Y-45462200D01*
X119434316Y-45462200D01*
X119419077Y-45466675D01*
X119417872Y-45468065D01*
X119416201Y-45475748D01*
X119416201Y-45705295D01*
X119416538Y-45711814D01*
X119426457Y-45807406D01*
X119429349Y-45820800D01*
X119480788Y-45974984D01*
X119486961Y-45988162D01*
X119576117Y-46132235D01*
X119574015Y-46133535D01*
X119596255Y-46188481D01*
X119583084Y-46258245D01*
X119559967Y-46290029D01*
X114784733Y-51065262D01*
X114770887Y-51077229D01*
X114422810Y-51336352D01*
X113803071Y-51797713D01*
X113796784Y-51802102D01*
X111884472Y-53052461D01*
X111200000Y-53500000D01*
X111201028Y-53515387D01*
X111201028Y-53515388D01*
X112222320Y-68800722D01*
X112222600Y-68809122D01*
X112222600Y-93803533D01*
X112222073Y-93814716D01*
X112220398Y-93822209D01*
X112220647Y-93830135D01*
X112220647Y-93830136D01*
X112222538Y-93890286D01*
X112222600Y-93894245D01*
X112222600Y-93922156D01*
X112223097Y-93926090D01*
X112223097Y-93926091D01*
X112223105Y-93926156D01*
X112224038Y-93937993D01*
X112225427Y-93982189D01*
X112231078Y-94001639D01*
X112235087Y-94021000D01*
X112237626Y-94041097D01*
X112240545Y-94048468D01*
X112240545Y-94048470D01*
X112253904Y-94082212D01*
X112257749Y-94093442D01*
X112270082Y-94135893D01*
X112274115Y-94142712D01*
X112274117Y-94142717D01*
X112280393Y-94153328D01*
X112289088Y-94171076D01*
X112296548Y-94189917D01*
X112301210Y-94196333D01*
X112301210Y-94196334D01*
X112322536Y-94225687D01*
X112329052Y-94235607D01*
X112351558Y-94273662D01*
X112365879Y-94287983D01*
X112378719Y-94303016D01*
X112390628Y-94319407D01*
X112396734Y-94324458D01*
X112424705Y-94347598D01*
X112433484Y-94355588D01*
X114003435Y-95925539D01*
X114037461Y-95987851D01*
X114040060Y-96006234D01*
X114162476Y-97838379D01*
X114191191Y-98268152D01*
X114175775Y-98337455D01*
X114125338Y-98387421D01*
X114067883Y-98402529D01*
X113310446Y-98417026D01*
X112086088Y-98440460D01*
X112017597Y-98421765D01*
X111994582Y-98403578D01*
X104991022Y-91400017D01*
X104956996Y-91337705D01*
X104954807Y-91324092D01*
X104938132Y-91165435D01*
X104938132Y-91165433D01*
X104937442Y-91158872D01*
X104878427Y-90977244D01*
X104782940Y-90811856D01*
X104655153Y-90669934D01*
X104500652Y-90557682D01*
X104494624Y-90554998D01*
X104494622Y-90554997D01*
X104332219Y-90482691D01*
X104332218Y-90482691D01*
X104326188Y-90480006D01*
X104232788Y-90460153D01*
X104145844Y-90441672D01*
X104145839Y-90441672D01*
X104139387Y-90440300D01*
X103948413Y-90440300D01*
X103941961Y-90441672D01*
X103941956Y-90441672D01*
X103855012Y-90460153D01*
X103761612Y-90480006D01*
X103755582Y-90482691D01*
X103755581Y-90482691D01*
X103593178Y-90554997D01*
X103593176Y-90554998D01*
X103587148Y-90557682D01*
X103432647Y-90669934D01*
X103304860Y-90811856D01*
X103209373Y-90977244D01*
X103150358Y-91158872D01*
X103130396Y-91348800D01*
X103150358Y-91538728D01*
X103209373Y-91720356D01*
X103304860Y-91885744D01*
X103432647Y-92027666D01*
X103587148Y-92139918D01*
X103593176Y-92142602D01*
X103593178Y-92142603D01*
X103755581Y-92214909D01*
X103761612Y-92217594D01*
X103855012Y-92237447D01*
X103941956Y-92255928D01*
X103941961Y-92255928D01*
X103948413Y-92257300D01*
X104004306Y-92257300D01*
X104072427Y-92277302D01*
X104093401Y-92294205D01*
X110064928Y-98265733D01*
X110098954Y-98328045D01*
X110093889Y-98398860D01*
X110051342Y-98455696D01*
X109978245Y-98480805D01*
X97130574Y-98726710D01*
X97062083Y-98708015D01*
X97014572Y-98655259D01*
X97003125Y-98585191D01*
X97031377Y-98520058D01*
X97039068Y-98511638D01*
X97678301Y-97872405D01*
X97740613Y-97838379D01*
X97767396Y-97835500D01*
X97823287Y-97835500D01*
X97829739Y-97834128D01*
X97829744Y-97834128D01*
X97916687Y-97815647D01*
X98010088Y-97795794D01*
X98016119Y-97793109D01*
X98178522Y-97720803D01*
X98178524Y-97720802D01*
X98184552Y-97718118D01*
X98339053Y-97605866D01*
X98466840Y-97463944D01*
X98562327Y-97298556D01*
X98621342Y-97116928D01*
X98641304Y-96927000D01*
X98621342Y-96737072D01*
X98562327Y-96555444D01*
X98466840Y-96390056D01*
X98339053Y-96248134D01*
X98184552Y-96135882D01*
X98178524Y-96133198D01*
X98178522Y-96133197D01*
X98016119Y-96060891D01*
X98016118Y-96060891D01*
X98010088Y-96058206D01*
X97916688Y-96038353D01*
X97829744Y-96019872D01*
X97829739Y-96019872D01*
X97823287Y-96018500D01*
X97632313Y-96018500D01*
X97625861Y-96019872D01*
X97625856Y-96019872D01*
X97538912Y-96038353D01*
X97445512Y-96058206D01*
X97439482Y-96060891D01*
X97439481Y-96060891D01*
X97277078Y-96133197D01*
X97277076Y-96133198D01*
X97271048Y-96135882D01*
X97116547Y-96248134D01*
X96988760Y-96390056D01*
X96893273Y-96555444D01*
X96834258Y-96737072D01*
X96833568Y-96743633D01*
X96833568Y-96743635D01*
X96816893Y-96902293D01*
X96789880Y-96967950D01*
X96780678Y-96978218D01*
X95131500Y-98627395D01*
X95069188Y-98661421D01*
X95042405Y-98664300D01*
X94528800Y-98664300D01*
X94525554Y-98664637D01*
X94525550Y-98664637D01*
X94429892Y-98674562D01*
X94429888Y-98674563D01*
X94423034Y-98675274D01*
X94416498Y-98677455D01*
X94416496Y-98677455D01*
X94303661Y-98715100D01*
X94255254Y-98731250D01*
X94249022Y-98735106D01*
X94249023Y-98735106D01*
X94200419Y-98765183D01*
X94136527Y-98784016D01*
X94046421Y-98785741D01*
X93738962Y-98791626D01*
X93670436Y-98772908D01*
X93608170Y-98734526D01*
X93608167Y-98734525D01*
X93601938Y-98730685D01*
X93441454Y-98677455D01*
X93440589Y-98677168D01*
X93440587Y-98677168D01*
X93434061Y-98675003D01*
X93427225Y-98674303D01*
X93427222Y-98674302D01*
X93384169Y-98669891D01*
X93329600Y-98664300D01*
X92703800Y-98664300D01*
X92700554Y-98664637D01*
X92700550Y-98664637D01*
X92604892Y-98674562D01*
X92604888Y-98674563D01*
X92598034Y-98675274D01*
X92591498Y-98677455D01*
X92591496Y-98677455D01*
X92478661Y-98715100D01*
X92430254Y-98731250D01*
X92317168Y-98801230D01*
X92253280Y-98820062D01*
X78035755Y-99092186D01*
X77967264Y-99073491D01*
X77919753Y-99020735D01*
X77907345Y-98966657D01*
X77839723Y-79964835D01*
X77859482Y-79896644D01*
X77912972Y-79849960D01*
X77983210Y-79839606D01*
X78043499Y-79867331D01*
X78044428Y-79866133D01*
X78044430Y-79866135D01*
X78047627Y-79868615D01*
X78056647Y-79876318D01*
X78088879Y-79906586D01*
X78095825Y-79910405D01*
X78095828Y-79910407D01*
X78106634Y-79916348D01*
X78123153Y-79927199D01*
X78139159Y-79939614D01*
X78146428Y-79942759D01*
X78146432Y-79942762D01*
X78179737Y-79957174D01*
X78190387Y-79962391D01*
X78229140Y-79983695D01*
X78236815Y-79985666D01*
X78236816Y-79985666D01*
X78248762Y-79988733D01*
X78267467Y-79995137D01*
X78286055Y-80003181D01*
X78293878Y-80004420D01*
X78293888Y-80004423D01*
X78329724Y-80010099D01*
X78341344Y-80012505D01*
X78373159Y-80020673D01*
X78384170Y-80023500D01*
X78404424Y-80023500D01*
X78424134Y-80025051D01*
X78444143Y-80028220D01*
X78452035Y-80027474D01*
X78470780Y-80025702D01*
X78488162Y-80024059D01*
X78500019Y-80023500D01*
X84745833Y-80023500D01*
X84757016Y-80024027D01*
X84764509Y-80025702D01*
X84772435Y-80025453D01*
X84772436Y-80025453D01*
X84832586Y-80023562D01*
X84836545Y-80023500D01*
X84864456Y-80023500D01*
X84868391Y-80023003D01*
X84868456Y-80022995D01*
X84880293Y-80022062D01*
X84912551Y-80021048D01*
X84916570Y-80020922D01*
X84924489Y-80020673D01*
X84943943Y-80015021D01*
X84963300Y-80011013D01*
X84975530Y-80009468D01*
X84975531Y-80009468D01*
X84983397Y-80008474D01*
X84990768Y-80005555D01*
X84990770Y-80005555D01*
X85024512Y-79992196D01*
X85035742Y-79988351D01*
X85070583Y-79978229D01*
X85070584Y-79978229D01*
X85078193Y-79976018D01*
X85085012Y-79971985D01*
X85085017Y-79971983D01*
X85095628Y-79965707D01*
X85113376Y-79957012D01*
X85132217Y-79949552D01*
X85167987Y-79923564D01*
X85177907Y-79917048D01*
X85209135Y-79898580D01*
X85209138Y-79898578D01*
X85215962Y-79894542D01*
X85230283Y-79880221D01*
X85245317Y-79867380D01*
X85261707Y-79855472D01*
X85266757Y-79849368D01*
X85266762Y-79849363D01*
X85289893Y-79821402D01*
X85297883Y-79812621D01*
X85780505Y-79330000D01*
X88916693Y-79330000D01*
X88935885Y-79549371D01*
X88992880Y-79762076D01*
X89033861Y-79849960D01*
X89083618Y-79956666D01*
X89083621Y-79956671D01*
X89085944Y-79961653D01*
X89089100Y-79966160D01*
X89089101Y-79966162D01*
X89132555Y-80028220D01*
X89212251Y-80142038D01*
X89367962Y-80297749D01*
X89548346Y-80424056D01*
X89747924Y-80517120D01*
X89960629Y-80574115D01*
X90180000Y-80593307D01*
X90399371Y-80574115D01*
X90612076Y-80517120D01*
X90811654Y-80424056D01*
X90992038Y-80297749D01*
X91147749Y-80142038D01*
X91227446Y-80028220D01*
X91270899Y-79966162D01*
X91270900Y-79966160D01*
X91274056Y-79961653D01*
X91276379Y-79956671D01*
X91276382Y-79956666D01*
X91326139Y-79849960D01*
X91367120Y-79762076D01*
X91424115Y-79549371D01*
X91443307Y-79330000D01*
X91424115Y-79110629D01*
X91367120Y-78897924D01*
X91299831Y-78753621D01*
X91276382Y-78703334D01*
X91276379Y-78703329D01*
X91274056Y-78698347D01*
X91268111Y-78689856D01*
X91150908Y-78522473D01*
X91150906Y-78522470D01*
X91147749Y-78517962D01*
X90992038Y-78362251D01*
X90974351Y-78349866D01*
X90855916Y-78266937D01*
X90811654Y-78235944D01*
X90612076Y-78142880D01*
X90399371Y-78085885D01*
X90180000Y-78066693D01*
X89960629Y-78085885D01*
X89747924Y-78142880D01*
X89675536Y-78176635D01*
X89553334Y-78233618D01*
X89553329Y-78233621D01*
X89548347Y-78235944D01*
X89543840Y-78239100D01*
X89543838Y-78239101D01*
X89372473Y-78359092D01*
X89372470Y-78359094D01*
X89367962Y-78362251D01*
X89212251Y-78517962D01*
X89209094Y-78522470D01*
X89209092Y-78522473D01*
X89091889Y-78689856D01*
X89085944Y-78698347D01*
X89083621Y-78703329D01*
X89083618Y-78703334D01*
X89060169Y-78753621D01*
X88992880Y-78897924D01*
X88935885Y-79110629D01*
X88916693Y-79330000D01*
X85780505Y-79330000D01*
X85981901Y-79128604D01*
X86044213Y-79094579D01*
X86070996Y-79091700D01*
X86126887Y-79091700D01*
X86133339Y-79090328D01*
X86133344Y-79090328D01*
X86220287Y-79071847D01*
X86313688Y-79051994D01*
X86319719Y-79049309D01*
X86482122Y-78977003D01*
X86482124Y-78977002D01*
X86488152Y-78974318D01*
X86642653Y-78862066D01*
X86770440Y-78720144D01*
X86836241Y-78606174D01*
X86862623Y-78560479D01*
X86862624Y-78560478D01*
X86865927Y-78554756D01*
X86924942Y-78373128D01*
X86939361Y-78235944D01*
X86944214Y-78189765D01*
X86944904Y-78183200D01*
X86936907Y-78107109D01*
X86925632Y-77999835D01*
X86925632Y-77999833D01*
X86924942Y-77993272D01*
X86865927Y-77811644D01*
X86770440Y-77646256D01*
X86738117Y-77610357D01*
X86647075Y-77509245D01*
X86647074Y-77509244D01*
X86642653Y-77504334D01*
X86538252Y-77428482D01*
X86493494Y-77395963D01*
X86493493Y-77395962D01*
X86488152Y-77392082D01*
X86482124Y-77389398D01*
X86482122Y-77389397D01*
X86319719Y-77317091D01*
X86319718Y-77317091D01*
X86313688Y-77314406D01*
X86215663Y-77293570D01*
X86133344Y-77276072D01*
X86133339Y-77276072D01*
X86126887Y-77274700D01*
X85935913Y-77274700D01*
X85929461Y-77276072D01*
X85929456Y-77276072D01*
X85847137Y-77293570D01*
X85749112Y-77314406D01*
X85743082Y-77317091D01*
X85743081Y-77317091D01*
X85580678Y-77389397D01*
X85580676Y-77389398D01*
X85574648Y-77392082D01*
X85569307Y-77395962D01*
X85569306Y-77395963D01*
X85524548Y-77428482D01*
X85420147Y-77504334D01*
X85415726Y-77509244D01*
X85415725Y-77509245D01*
X85324684Y-77610357D01*
X85292360Y-77646256D01*
X85196873Y-77811644D01*
X85137858Y-77993272D01*
X85137168Y-77999833D01*
X85137168Y-77999835D01*
X85120493Y-78158492D01*
X85093480Y-78224149D01*
X85084278Y-78234418D01*
X84599099Y-78719596D01*
X84536787Y-78753621D01*
X84510004Y-78756500D01*
X83919204Y-78756500D01*
X83851083Y-78736498D01*
X83804590Y-78682842D01*
X83794486Y-78612568D01*
X83821492Y-78550949D01*
X83823510Y-78548471D01*
X83951027Y-78391841D01*
X84078527Y-78189765D01*
X84126483Y-78113760D01*
X84126485Y-78113757D01*
X84128510Y-78110547D01*
X84149287Y-78066693D01*
X84269285Y-77813405D01*
X84270914Y-77809967D01*
X84376177Y-77494457D01*
X84442772Y-77168586D01*
X84469736Y-76837075D01*
X84470342Y-76779200D01*
X84468826Y-76754053D01*
X84450555Y-76450972D01*
X84450554Y-76450965D01*
X84450327Y-76447197D01*
X84390570Y-76120003D01*
X84375532Y-76071570D01*
X84318439Y-75887702D01*
X84291939Y-75802357D01*
X84155861Y-75498862D01*
X84010565Y-75257527D01*
X83986266Y-75217166D01*
X83986262Y-75217160D01*
X83984307Y-75213913D01*
X83981980Y-75210929D01*
X83981975Y-75210922D01*
X83782094Y-74954625D01*
X83782088Y-74954618D01*
X83779763Y-74951637D01*
X83545192Y-74715834D01*
X83283991Y-74509920D01*
X83185633Y-74450000D01*
X88916693Y-74450000D01*
X88935885Y-74669371D01*
X88992880Y-74882076D01*
X88995205Y-74887061D01*
X89083618Y-75076666D01*
X89083621Y-75076671D01*
X89085944Y-75081653D01*
X89089100Y-75086160D01*
X89089101Y-75086162D01*
X89091502Y-75089590D01*
X89212251Y-75262038D01*
X89367962Y-75417749D01*
X89548346Y-75544056D01*
X89747924Y-75637120D01*
X89960629Y-75694115D01*
X90180000Y-75713307D01*
X90399371Y-75694115D01*
X90612076Y-75637120D01*
X90811654Y-75544056D01*
X90992038Y-75417749D01*
X91147749Y-75262038D01*
X91268499Y-75089590D01*
X91270899Y-75086162D01*
X91270900Y-75086160D01*
X91274056Y-75081653D01*
X91276379Y-75076671D01*
X91276382Y-75076666D01*
X91364795Y-74887061D01*
X91367120Y-74882076D01*
X91424115Y-74669371D01*
X91443307Y-74450000D01*
X91424115Y-74230629D01*
X91367120Y-74017924D01*
X91316344Y-73909035D01*
X91276382Y-73823334D01*
X91276379Y-73823329D01*
X91274056Y-73818347D01*
X91147749Y-73637962D01*
X90992038Y-73482251D01*
X90811654Y-73355944D01*
X90612076Y-73262880D01*
X90399371Y-73205885D01*
X90180000Y-73186693D01*
X89960629Y-73205885D01*
X89747924Y-73262880D01*
X89654562Y-73306415D01*
X89553334Y-73353618D01*
X89553329Y-73353621D01*
X89548347Y-73355944D01*
X89543840Y-73359100D01*
X89543838Y-73359101D01*
X89372473Y-73479092D01*
X89372470Y-73479094D01*
X89367962Y-73482251D01*
X89212251Y-73637962D01*
X89085944Y-73818347D01*
X89083621Y-73823329D01*
X89083618Y-73823334D01*
X89043656Y-73909035D01*
X88992880Y-74017924D01*
X88935885Y-74230629D01*
X88916693Y-74450000D01*
X83185633Y-74450000D01*
X82999944Y-74336877D01*
X82858190Y-74272425D01*
X82700617Y-74200780D01*
X82700609Y-74200777D01*
X82697165Y-74199211D01*
X82380040Y-74098918D01*
X82157696Y-74057106D01*
X82056887Y-74038149D01*
X82056885Y-74038149D01*
X82053164Y-74037449D01*
X81721270Y-74015696D01*
X81717490Y-74015904D01*
X81717489Y-74015904D01*
X81619718Y-74021285D01*
X81389166Y-74033973D01*
X81385439Y-74034634D01*
X81385435Y-74034634D01*
X81126310Y-74080558D01*
X81061664Y-74092015D01*
X81058039Y-74093120D01*
X81058034Y-74093121D01*
X80915088Y-74136688D01*
X80743507Y-74188982D01*
X80740043Y-74190513D01*
X80740036Y-74190516D01*
X80661314Y-74225319D01*
X80439303Y-74323469D01*
X80413457Y-74338846D01*
X80406740Y-74342842D01*
X80337970Y-74360481D01*
X80270580Y-74338140D01*
X80253223Y-74323652D01*
X79838605Y-73909035D01*
X79804580Y-73846722D01*
X79801700Y-73819939D01*
X79801700Y-71138488D01*
X79821702Y-71070367D01*
X79875358Y-71023874D01*
X79928761Y-71012492D01*
X84854356Y-71053962D01*
X97674562Y-71161899D01*
X97742512Y-71182474D01*
X97762596Y-71198800D01*
X103992278Y-77428482D01*
X104026304Y-77490794D01*
X104028493Y-77504407D01*
X104044003Y-77651974D01*
X104045858Y-77669628D01*
X104104873Y-77851256D01*
X104200360Y-78016644D01*
X104204778Y-78021551D01*
X104204779Y-78021552D01*
X104312742Y-78141457D01*
X104328147Y-78158566D01*
X104353017Y-78176635D01*
X104441470Y-78240900D01*
X104482648Y-78270818D01*
X104488676Y-78273502D01*
X104488678Y-78273503D01*
X104651081Y-78345809D01*
X104657112Y-78348494D01*
X104740167Y-78366148D01*
X104837456Y-78386828D01*
X104837461Y-78386828D01*
X104843913Y-78388200D01*
X105030463Y-78388200D01*
X105098584Y-78408202D01*
X105145077Y-78461858D01*
X105150296Y-78475262D01*
X105194873Y-78612456D01*
X105290360Y-78777844D01*
X105418147Y-78919766D01*
X105572648Y-79032018D01*
X105578676Y-79034702D01*
X105578678Y-79034703D01*
X105741081Y-79107009D01*
X105747112Y-79109694D01*
X105836076Y-79128604D01*
X105927456Y-79148028D01*
X105927461Y-79148028D01*
X105933913Y-79149400D01*
X106124887Y-79149400D01*
X106131339Y-79148028D01*
X106131344Y-79148028D01*
X106222724Y-79128604D01*
X106311688Y-79109694D01*
X106317719Y-79107009D01*
X106480122Y-79034703D01*
X106480124Y-79034702D01*
X106486152Y-79032018D01*
X106640653Y-78919766D01*
X106768440Y-78777844D01*
X106863927Y-78612456D01*
X106922942Y-78430828D01*
X106926571Y-78396305D01*
X106942214Y-78247465D01*
X106942904Y-78240900D01*
X106934659Y-78162449D01*
X106923632Y-78057535D01*
X106923632Y-78057533D01*
X106922942Y-78050972D01*
X106863927Y-77869344D01*
X106834243Y-77817929D01*
X106771741Y-77709674D01*
X106768440Y-77703956D01*
X106716487Y-77646256D01*
X106696750Y-77624336D01*
X106666032Y-77560329D01*
X106664448Y-77543985D01*
X106662962Y-77496714D01*
X106662900Y-77492755D01*
X106662900Y-77464844D01*
X106662395Y-77460844D01*
X106661462Y-77449001D01*
X106660322Y-77412729D01*
X106660073Y-77404810D01*
X106654422Y-77385358D01*
X106650414Y-77366006D01*
X106648867Y-77353763D01*
X106647874Y-77345903D01*
X106635404Y-77314406D01*
X106631600Y-77304797D01*
X106627755Y-77293570D01*
X106622671Y-77276072D01*
X106615418Y-77251107D01*
X106611384Y-77244285D01*
X106611381Y-77244279D01*
X106605106Y-77233668D01*
X106596410Y-77215918D01*
X106591872Y-77204456D01*
X106591869Y-77204451D01*
X106588952Y-77197083D01*
X106576301Y-77179670D01*
X106562973Y-77161325D01*
X106556457Y-77151407D01*
X106537975Y-77120157D01*
X106533942Y-77113337D01*
X106519618Y-77099013D01*
X106506776Y-77083978D01*
X106494872Y-77067593D01*
X106460806Y-77039411D01*
X106452027Y-77031422D01*
X100824878Y-71404273D01*
X100790852Y-71341961D01*
X100795917Y-71271146D01*
X100838464Y-71214310D01*
X100904984Y-71189499D01*
X100915034Y-71189182D01*
X101559087Y-71194604D01*
X102200000Y-71200000D01*
X102200000Y-56555738D01*
X102220002Y-56487617D01*
X102241243Y-56462506D01*
X105483073Y-53515388D01*
X114920306Y-44936085D01*
X119416200Y-44936085D01*
X119420675Y-44951324D01*
X119422065Y-44952529D01*
X119429748Y-44954200D01*
X120327085Y-44954200D01*
X120342324Y-44949725D01*
X120343529Y-44948335D01*
X120345200Y-44940652D01*
X120345200Y-44018316D01*
X120340725Y-44003077D01*
X120339335Y-44001872D01*
X120331652Y-44000201D01*
X120127105Y-44000201D01*
X120120586Y-44000538D01*
X120024994Y-44010457D01*
X120011600Y-44013349D01*
X119857416Y-44064788D01*
X119844238Y-44070961D01*
X119706393Y-44156263D01*
X119694992Y-44165299D01*
X119580461Y-44280029D01*
X119571449Y-44291440D01*
X119486384Y-44429443D01*
X119480237Y-44442624D01*
X119429062Y-44596910D01*
X119426195Y-44610286D01*
X119416528Y-44704638D01*
X119416200Y-44711055D01*
X119416200Y-44936085D01*
X114920306Y-44936085D01*
X115400000Y-44500000D01*
X115400000Y-42983300D01*
X115420002Y-42915179D01*
X115473658Y-42868686D01*
X115526000Y-42857300D01*
X116936953Y-42857300D01*
X117005074Y-42877302D01*
X117051567Y-42930958D01*
X117054935Y-42939070D01*
X117087106Y-43024886D01*
X117098585Y-43055505D01*
X117185939Y-43172061D01*
X117302495Y-43259415D01*
X117438884Y-43310545D01*
X117501066Y-43317300D01*
X119097334Y-43317300D01*
X119159516Y-43310545D01*
X119295905Y-43259415D01*
X119374052Y-43200847D01*
X119440558Y-43175999D01*
X119509941Y-43191052D01*
X119525182Y-43200847D01*
X119595552Y-43253586D01*
X119611146Y-43262124D01*
X119731594Y-43307278D01*
X119746849Y-43310905D01*
X119797714Y-43316431D01*
X119804528Y-43316800D01*
X120327085Y-43316800D01*
X120342324Y-43312325D01*
X120343529Y-43310935D01*
X120345200Y-43303252D01*
X120345200Y-40318916D01*
X120340725Y-40303677D01*
X120339335Y-40302472D01*
X120331652Y-40300801D01*
X119804531Y-40300801D01*
X119797710Y-40301171D01*
X119746848Y-40306695D01*
X119731596Y-40310321D01*
X119611146Y-40355476D01*
X119595552Y-40364014D01*
X119525182Y-40416753D01*
X119458676Y-40441601D01*
X119389293Y-40426548D01*
X119374052Y-40416753D01*
X119365893Y-40410638D01*
X119295905Y-40358185D01*
X119159516Y-40307055D01*
X119097334Y-40300300D01*
X117501066Y-40300300D01*
X117438884Y-40307055D01*
X117302495Y-40358185D01*
X117185939Y-40445539D01*
X117098585Y-40562095D01*
X117095433Y-40570503D01*
X117054935Y-40678530D01*
X117012293Y-40735294D01*
X116945732Y-40759994D01*
X116936953Y-40760300D01*
X115526000Y-40760300D01*
X115457879Y-40740298D01*
X115411386Y-40686642D01*
X115400000Y-40634300D01*
X115400000Y-36553469D01*
X118191201Y-36553469D01*
X118191571Y-36560290D01*
X118197095Y-36611152D01*
X118200721Y-36626404D01*
X118245876Y-36746854D01*
X118254414Y-36762449D01*
X118330915Y-36864524D01*
X118343476Y-36877085D01*
X118445551Y-36953586D01*
X118461146Y-36962124D01*
X118581594Y-37007278D01*
X118596849Y-37010905D01*
X118647714Y-37016431D01*
X118654528Y-37016800D01*
X120327085Y-37016800D01*
X120342324Y-37012325D01*
X120343529Y-37010935D01*
X120345200Y-37003252D01*
X120345200Y-35780915D01*
X120340725Y-35765676D01*
X120339335Y-35764471D01*
X120331652Y-35762800D01*
X118209316Y-35762800D01*
X118194077Y-35767275D01*
X118192872Y-35768665D01*
X118191201Y-35776348D01*
X118191201Y-36553469D01*
X115400000Y-36553469D01*
X115400000Y-35671340D01*
X115420002Y-35603219D01*
X115461173Y-35563296D01*
X116674908Y-34835055D01*
X116739732Y-34817100D01*
X118065200Y-34817100D01*
X118133321Y-34837102D01*
G37*
%TD.AperFunction*%
%TD*%
%TA.AperFunction,Conductor*%
%TO.N,+5V*%
G36*
X45742515Y-69220002D02*
G01*
X45789008Y-69273658D01*
X45800393Y-69325604D01*
X45803580Y-70345469D01*
X45805016Y-70805106D01*
X45785227Y-70873289D01*
X45731717Y-70919950D01*
X45679017Y-70931500D01*
X45336866Y-70931500D01*
X45274684Y-70938255D01*
X45138295Y-70989385D01*
X45021739Y-71076739D01*
X45016358Y-71083919D01*
X45016357Y-71083920D01*
X44936056Y-71191065D01*
X44879197Y-71233580D01*
X44835230Y-71241500D01*
X44603150Y-71241500D01*
X44535029Y-71221498D01*
X44525058Y-71214382D01*
X44495534Y-71191065D01*
X44449359Y-71154598D01*
X44253789Y-71046638D01*
X44248920Y-71044914D01*
X44248916Y-71044912D01*
X44048087Y-70973795D01*
X44048083Y-70973794D01*
X44043212Y-70972069D01*
X44038119Y-70971162D01*
X44038116Y-70971161D01*
X43828373Y-70933800D01*
X43828367Y-70933799D01*
X43823284Y-70932894D01*
X43749452Y-70931992D01*
X43605081Y-70930228D01*
X43605079Y-70930228D01*
X43599911Y-70930165D01*
X43379091Y-70963955D01*
X43166756Y-71033357D01*
X43136443Y-71049137D01*
X43069626Y-71083920D01*
X42968607Y-71136507D01*
X42964474Y-71139610D01*
X42964471Y-71139612D01*
X42811833Y-71254216D01*
X42789965Y-71270635D01*
X42635629Y-71432138D01*
X42632715Y-71436410D01*
X42632714Y-71436411D01*
X42573081Y-71523830D01*
X42509743Y-71616680D01*
X42415688Y-71819305D01*
X42355989Y-72034570D01*
X42355440Y-72039707D01*
X42347359Y-72115324D01*
X42320231Y-72180934D01*
X42311167Y-72191030D01*
X40603673Y-73898525D01*
X40593530Y-73907626D01*
X40562654Y-73932451D01*
X40529133Y-73972400D01*
X40525970Y-73976025D01*
X40523993Y-73978205D01*
X40521814Y-73980384D01*
X40493400Y-74014976D01*
X40492671Y-74015854D01*
X40430483Y-74089966D01*
X40427815Y-74094819D01*
X40424297Y-74099102D01*
X40407935Y-74129618D01*
X40378644Y-74184245D01*
X40378014Y-74185405D01*
X40334393Y-74264751D01*
X40334390Y-74264757D01*
X40331424Y-74270153D01*
X40329749Y-74275434D01*
X40327131Y-74280316D01*
X40325329Y-74286210D01*
X40325327Y-74286215D01*
X40313938Y-74323469D01*
X40299137Y-74371884D01*
X40298871Y-74372753D01*
X40298521Y-74373879D01*
X40269250Y-74466150D01*
X40268632Y-74471658D01*
X40267013Y-74476954D01*
X40257246Y-74573110D01*
X40257110Y-74574383D01*
X40251300Y-74626181D01*
X40251300Y-74629703D01*
X40251219Y-74631154D01*
X40250770Y-74636856D01*
X40246233Y-74681522D01*
X40246813Y-74687653D01*
X40250741Y-74729211D01*
X40251300Y-74741069D01*
X40251300Y-87588658D01*
X40231298Y-87656779D01*
X40177642Y-87703272D01*
X40107368Y-87713376D01*
X40042788Y-87683882D01*
X40018156Y-87654961D01*
X39966937Y-87572193D01*
X39957901Y-87560792D01*
X39843171Y-87446261D01*
X39831760Y-87437249D01*
X39693757Y-87352184D01*
X39680576Y-87346037D01*
X39526290Y-87294862D01*
X39512914Y-87291995D01*
X39418562Y-87282328D01*
X39412145Y-87282000D01*
X39374615Y-87282000D01*
X39359376Y-87286475D01*
X39358171Y-87287865D01*
X39356500Y-87295548D01*
X39356500Y-88618000D01*
X39336498Y-88686121D01*
X39282842Y-88732614D01*
X39230500Y-88744000D01*
X38974500Y-88744000D01*
X38906379Y-88723998D01*
X38859886Y-88670342D01*
X38848500Y-88618000D01*
X38848500Y-87300116D01*
X38844025Y-87284877D01*
X38842635Y-87283672D01*
X38834952Y-87282001D01*
X38792905Y-87282001D01*
X38786386Y-87282338D01*
X38690794Y-87292257D01*
X38677400Y-87295149D01*
X38523216Y-87346588D01*
X38510038Y-87352761D01*
X38372193Y-87438063D01*
X38360792Y-87447099D01*
X38279570Y-87528462D01*
X38217287Y-87562541D01*
X38146467Y-87557538D01*
X38101380Y-87528617D01*
X38018488Y-87445870D01*
X38018483Y-87445866D01*
X38013303Y-87440695D01*
X37929640Y-87389124D01*
X37868968Y-87351725D01*
X37868966Y-87351724D01*
X37862738Y-87347885D01*
X37764394Y-87315266D01*
X37701389Y-87294368D01*
X37701387Y-87294368D01*
X37694861Y-87292203D01*
X37688025Y-87291503D01*
X37688022Y-87291502D01*
X37639912Y-87286573D01*
X37590400Y-87281500D01*
X36964600Y-87281500D01*
X36961354Y-87281837D01*
X36961350Y-87281837D01*
X36865692Y-87291762D01*
X36865688Y-87291763D01*
X36858834Y-87292474D01*
X36852298Y-87294655D01*
X36852296Y-87294655D01*
X36835928Y-87300116D01*
X36691054Y-87348450D01*
X36540652Y-87441522D01*
X36415695Y-87566697D01*
X36411855Y-87572927D01*
X36411854Y-87572928D01*
X36331509Y-87703272D01*
X36322885Y-87717262D01*
X36267203Y-87885139D01*
X36256500Y-87989600D01*
X36256500Y-88221339D01*
X36250601Y-88259439D01*
X36248813Y-88265075D01*
X36248812Y-88265082D01*
X36246950Y-88270950D01*
X36229000Y-88430981D01*
X36229000Y-88713579D01*
X36228263Y-88727187D01*
X36225810Y-88749772D01*
X36223985Y-88766567D01*
X36224522Y-88772703D01*
X36228527Y-88818487D01*
X36228856Y-88823313D01*
X36229000Y-88826255D01*
X36229000Y-88829339D01*
X36233360Y-88873807D01*
X36233479Y-88875087D01*
X36241906Y-88971406D01*
X36243451Y-88976725D01*
X36243992Y-88982240D01*
X36245771Y-88988133D01*
X36245772Y-88988137D01*
X36258292Y-89029604D01*
X36262997Y-89053017D01*
X36267474Y-89096166D01*
X36269655Y-89102702D01*
X36269655Y-89102704D01*
X36301946Y-89199492D01*
X36323450Y-89263946D01*
X36416522Y-89414348D01*
X36541697Y-89539305D01*
X36547927Y-89543145D01*
X36547928Y-89543146D01*
X36567482Y-89555199D01*
X36590461Y-89573364D01*
X37643229Y-90626132D01*
X37652330Y-90636275D01*
X37677151Y-90667146D01*
X37681869Y-90671104D01*
X37681871Y-90671107D01*
X37717076Y-90700647D01*
X37720724Y-90703830D01*
X37722903Y-90705806D01*
X37725084Y-90707987D01*
X37727461Y-90709940D01*
X37727466Y-90709944D01*
X37759600Y-90736339D01*
X37760615Y-90737181D01*
X37834666Y-90799317D01*
X37839519Y-90801985D01*
X37843802Y-90805503D01*
X37901030Y-90836188D01*
X37929001Y-90851186D01*
X37930040Y-90851750D01*
X38014853Y-90898376D01*
X38020136Y-90900052D01*
X38025017Y-90902669D01*
X38030909Y-90904470D01*
X38030913Y-90904472D01*
X38086457Y-90921453D01*
X38117410Y-90930916D01*
X38118614Y-90931291D01*
X38119639Y-90931616D01*
X38204979Y-90958688D01*
X38204983Y-90958689D01*
X38210850Y-90960550D01*
X38216358Y-90961168D01*
X38221654Y-90962787D01*
X38317907Y-90972565D01*
X38319042Y-90972686D01*
X38370881Y-90978500D01*
X38374408Y-90978500D01*
X38375856Y-90978581D01*
X38381554Y-90979030D01*
X38407891Y-90981705D01*
X38416634Y-90982593D01*
X38482385Y-91009377D01*
X38523217Y-91067457D01*
X38529900Y-91107948D01*
X38529900Y-92005903D01*
X38509898Y-92074024D01*
X38479465Y-92106729D01*
X38447512Y-92130677D01*
X38415139Y-92154939D01*
X38327785Y-92271495D01*
X38276655Y-92407884D01*
X38269900Y-92470066D01*
X38269900Y-94066334D01*
X38276655Y-94128516D01*
X38327785Y-94264905D01*
X38415139Y-94381461D01*
X38531695Y-94468815D01*
X38668084Y-94519945D01*
X38730266Y-94526700D01*
X40426534Y-94526700D01*
X40488716Y-94519945D01*
X40625105Y-94468815D01*
X40741661Y-94381461D01*
X40829015Y-94264905D01*
X40868183Y-94160423D01*
X40910824Y-94103659D01*
X40977385Y-94078959D01*
X41046734Y-94094166D01*
X41075260Y-94115558D01*
X41234100Y-94274398D01*
X41238608Y-94277555D01*
X41238611Y-94277557D01*
X41263518Y-94294997D01*
X41421651Y-94405723D01*
X41426633Y-94408046D01*
X41426638Y-94408049D01*
X41615882Y-94496294D01*
X41629157Y-94502484D01*
X41634465Y-94503906D01*
X41634467Y-94503907D01*
X41844998Y-94560319D01*
X41845000Y-94560319D01*
X41850313Y-94561743D01*
X42078400Y-94581698D01*
X42306487Y-94561743D01*
X42311800Y-94560319D01*
X42311802Y-94560319D01*
X42522333Y-94503907D01*
X42522335Y-94503906D01*
X42527643Y-94502484D01*
X42540918Y-94496294D01*
X42730162Y-94408049D01*
X42730167Y-94408046D01*
X42735149Y-94405723D01*
X42893282Y-94294997D01*
X42918189Y-94277557D01*
X42918192Y-94277555D01*
X42922700Y-94274398D01*
X42989305Y-94207793D01*
X43051617Y-94173767D01*
X43122432Y-94178832D01*
X43167495Y-94207793D01*
X43234100Y-94274398D01*
X43238608Y-94277555D01*
X43238611Y-94277557D01*
X43263518Y-94294997D01*
X43421651Y-94405723D01*
X43426633Y-94408046D01*
X43426638Y-94408049D01*
X43615882Y-94496294D01*
X43629157Y-94502484D01*
X43634465Y-94503906D01*
X43634467Y-94503907D01*
X43844998Y-94560319D01*
X43845000Y-94560319D01*
X43850313Y-94561743D01*
X44078400Y-94581698D01*
X44306487Y-94561743D01*
X44311800Y-94560319D01*
X44311802Y-94560319D01*
X44522333Y-94503907D01*
X44522335Y-94503906D01*
X44527643Y-94502484D01*
X44540918Y-94496294D01*
X44730162Y-94408049D01*
X44730167Y-94408046D01*
X44735149Y-94405723D01*
X44893282Y-94294997D01*
X44918189Y-94277557D01*
X44918192Y-94277555D01*
X44922700Y-94274398D01*
X45084598Y-94112500D01*
X45101942Y-94087731D01*
X45212769Y-93929453D01*
X45215923Y-93924949D01*
X45218246Y-93919967D01*
X45219282Y-93918173D01*
X45270666Y-93869181D01*
X45340379Y-93855746D01*
X45406290Y-93882134D01*
X45437518Y-93918173D01*
X45438554Y-93919967D01*
X45440877Y-93924949D01*
X45444031Y-93929453D01*
X45554859Y-94087731D01*
X45572202Y-94112500D01*
X45734100Y-94274398D01*
X45738608Y-94277555D01*
X45738611Y-94277557D01*
X45825150Y-94338152D01*
X45869478Y-94393609D01*
X45878878Y-94440971D01*
X45899935Y-101179061D01*
X45900000Y-101200000D01*
X51021454Y-101185694D01*
X52172534Y-101182479D01*
X52240710Y-101202291D01*
X52261981Y-101219384D01*
X52409995Y-101367398D01*
X52444021Y-101429710D01*
X52446900Y-101456493D01*
X52446900Y-105058020D01*
X52446210Y-105071190D01*
X52441853Y-105112645D01*
X52444540Y-105142163D01*
X52446601Y-105164812D01*
X52446900Y-105169086D01*
X52446900Y-105171739D01*
X52447200Y-105174799D01*
X52447201Y-105174818D01*
X52451477Y-105218421D01*
X52451532Y-105218999D01*
X52460489Y-105317420D01*
X52461531Y-105320962D01*
X52461892Y-105324640D01*
X52463672Y-105330535D01*
X52481522Y-105389658D01*
X52486900Y-105426076D01*
X52486900Y-105874300D01*
X52466898Y-105942421D01*
X52413242Y-105988914D01*
X52360900Y-106000300D01*
X34132100Y-106000300D01*
X34063979Y-105980298D01*
X34017486Y-105926642D01*
X34006100Y-105874300D01*
X34006100Y-95957118D01*
X34495317Y-95957118D01*
X34511082Y-96230520D01*
X34511907Y-96234725D01*
X34511908Y-96234733D01*
X34522527Y-96288857D01*
X34563805Y-96499253D01*
X34565192Y-96503303D01*
X34565193Y-96503308D01*
X34651123Y-96754288D01*
X34652512Y-96758344D01*
X34775560Y-97002999D01*
X34777986Y-97006528D01*
X34777989Y-97006534D01*
X34821746Y-97070200D01*
X34930674Y-97228690D01*
X35114982Y-97431243D01*
X35325075Y-97606907D01*
X35328716Y-97609191D01*
X35553424Y-97750151D01*
X35553428Y-97750153D01*
X35557064Y-97752434D01*
X35624944Y-97783083D01*
X35802745Y-97863364D01*
X35802749Y-97863366D01*
X35806657Y-97865130D01*
X35810777Y-97866350D01*
X35810776Y-97866350D01*
X36065123Y-97941691D01*
X36065127Y-97941692D01*
X36069236Y-97942909D01*
X36073470Y-97943557D01*
X36073475Y-97943558D01*
X36335698Y-97983683D01*
X36335700Y-97983683D01*
X36339940Y-97984332D01*
X36479312Y-97986522D01*
X36609471Y-97988567D01*
X36609477Y-97988567D01*
X36613762Y-97988634D01*
X36885635Y-97955734D01*
X37150527Y-97886241D01*
X37154487Y-97884601D01*
X37154492Y-97884599D01*
X37277032Y-97833841D01*
X37403536Y-97781441D01*
X37639982Y-97643273D01*
X37855489Y-97474294D01*
X37897209Y-97431243D01*
X38043086Y-97280709D01*
X38046069Y-97277631D01*
X38048602Y-97274183D01*
X38048606Y-97274178D01*
X38205657Y-97060378D01*
X38208195Y-97056923D01*
X38235554Y-97006534D01*
X38336818Y-96820030D01*
X38336819Y-96820028D01*
X38338868Y-96816254D01*
X38435669Y-96560077D01*
X38496807Y-96293133D01*
X38521151Y-96020361D01*
X38521593Y-95978200D01*
X38514810Y-95878700D01*
X38503259Y-95709255D01*
X38503258Y-95709249D01*
X38502967Y-95704978D01*
X38447432Y-95436812D01*
X38356017Y-95178665D01*
X38230413Y-94935312D01*
X38220440Y-94921121D01*
X38133339Y-94797189D01*
X38072945Y-94711257D01*
X37958433Y-94588027D01*
X37889446Y-94513788D01*
X37889443Y-94513785D01*
X37886525Y-94510645D01*
X37883210Y-94507931D01*
X37883206Y-94507928D01*
X37677923Y-94339906D01*
X37674605Y-94337190D01*
X37441104Y-94194101D01*
X37431573Y-94189917D01*
X37194273Y-94085749D01*
X37194269Y-94085748D01*
X37190345Y-94084025D01*
X36926966Y-94009000D01*
X36922724Y-94008396D01*
X36922718Y-94008395D01*
X36722234Y-93979862D01*
X36655843Y-93970413D01*
X36511989Y-93969660D01*
X36386277Y-93969002D01*
X36386271Y-93969002D01*
X36381991Y-93968980D01*
X36377747Y-93969539D01*
X36377743Y-93969539D01*
X36258702Y-93985211D01*
X36110478Y-94004725D01*
X36106338Y-94005858D01*
X36106336Y-94005858D01*
X36086952Y-94011161D01*
X35846328Y-94076988D01*
X35842380Y-94078672D01*
X35598382Y-94182746D01*
X35598378Y-94182748D01*
X35594430Y-94184432D01*
X35517469Y-94230492D01*
X35363125Y-94322864D01*
X35363121Y-94322867D01*
X35359443Y-94325068D01*
X35145718Y-94496294D01*
X34957208Y-94694942D01*
X34797402Y-94917336D01*
X34669257Y-95159361D01*
X34667785Y-95163384D01*
X34667783Y-95163388D01*
X34584101Y-95392059D01*
X34575143Y-95416537D01*
X34516804Y-95684107D01*
X34495317Y-95957118D01*
X34006100Y-95957118D01*
X34006100Y-69326000D01*
X34026102Y-69257879D01*
X34079758Y-69211386D01*
X34132100Y-69200000D01*
X45674394Y-69200000D01*
X45742515Y-69220002D01*
G37*
%TD.AperFunction*%
%TA.AperFunction,Conductor*%
G36*
X126301621Y-22037302D02*
G01*
X126348114Y-22090958D01*
X126359500Y-22143300D01*
X126359500Y-105874300D01*
X126339498Y-105942421D01*
X126285842Y-105988914D01*
X126233500Y-106000300D01*
X102797761Y-106000300D01*
X102729640Y-105980298D01*
X102683147Y-105926642D01*
X102672465Y-105887598D01*
X102671204Y-105875717D01*
X102670500Y-105862419D01*
X102670500Y-104722500D01*
X102685356Y-104670100D01*
X102682580Y-104668805D01*
X102685675Y-104662168D01*
X102689515Y-104655938D01*
X102726182Y-104545389D01*
X102743032Y-104494589D01*
X102743032Y-104494587D01*
X102745197Y-104488061D01*
X102746751Y-104472901D01*
X102755572Y-104386798D01*
X102755900Y-104383600D01*
X102755900Y-103241794D01*
X102775902Y-103173673D01*
X102829558Y-103127180D01*
X102899832Y-103117076D01*
X102964412Y-103146570D01*
X102970995Y-103152699D01*
X103251995Y-103433699D01*
X103286021Y-103496011D01*
X103288900Y-103522794D01*
X103288900Y-104383600D01*
X103289237Y-104386846D01*
X103289237Y-104386850D01*
X103298166Y-104472901D01*
X103299874Y-104489366D01*
X103302055Y-104495902D01*
X103302055Y-104495904D01*
X103323704Y-104560794D01*
X103355850Y-104657146D01*
X103448922Y-104807548D01*
X103574097Y-104932505D01*
X103580327Y-104936345D01*
X103580328Y-104936346D01*
X103717490Y-105020894D01*
X103724662Y-105025315D01*
X103766588Y-105039221D01*
X103886011Y-105078832D01*
X103886013Y-105078832D01*
X103892539Y-105080997D01*
X103899375Y-105081697D01*
X103899378Y-105081698D01*
X103942431Y-105086109D01*
X103997000Y-105091700D01*
X104847800Y-105091700D01*
X104851046Y-105091363D01*
X104851050Y-105091363D01*
X104946708Y-105081438D01*
X104946712Y-105081437D01*
X104953566Y-105080726D01*
X104960102Y-105078545D01*
X104960104Y-105078545D01*
X105092206Y-105034472D01*
X105121346Y-105024750D01*
X105271748Y-104931678D01*
X105396705Y-104806503D01*
X105433918Y-104746133D01*
X105485675Y-104662168D01*
X105485676Y-104662166D01*
X105489515Y-104655938D01*
X105526182Y-104545389D01*
X105543032Y-104494589D01*
X105543032Y-104494587D01*
X105545197Y-104488061D01*
X105546751Y-104472901D01*
X105555572Y-104386798D01*
X105555900Y-104383600D01*
X105555900Y-103032800D01*
X105552681Y-103001774D01*
X105545638Y-102933892D01*
X105545637Y-102933888D01*
X105544926Y-102927034D01*
X105540349Y-102913313D01*
X105491268Y-102766202D01*
X105488950Y-102759254D01*
X105395878Y-102608852D01*
X105270703Y-102483895D01*
X105203467Y-102442450D01*
X105126368Y-102394925D01*
X105126366Y-102394924D01*
X105120138Y-102391085D01*
X104967975Y-102340615D01*
X104958789Y-102337568D01*
X104958787Y-102337568D01*
X104952261Y-102335403D01*
X104945425Y-102334703D01*
X104945422Y-102334702D01*
X104902369Y-102330291D01*
X104847800Y-102324700D01*
X103997000Y-102324700D01*
X103993958Y-102325016D01*
X103924930Y-102308567D01*
X103898391Y-102288287D01*
X102865829Y-101255724D01*
X102831803Y-101193412D01*
X102836868Y-101122596D01*
X102879415Y-101065761D01*
X102945935Y-101040950D01*
X102954552Y-101040630D01*
X103382882Y-101039433D01*
X103422898Y-101045840D01*
X103497539Y-101070597D01*
X103504375Y-101071297D01*
X103504378Y-101071298D01*
X103543772Y-101075334D01*
X103602000Y-101081300D01*
X104175306Y-101081300D01*
X104243427Y-101101302D01*
X104264401Y-101118205D01*
X106391276Y-103245081D01*
X108513548Y-105367353D01*
X108521088Y-105375639D01*
X108525200Y-105382118D01*
X108530977Y-105387543D01*
X108574851Y-105428743D01*
X108577693Y-105431498D01*
X108597430Y-105451235D01*
X108600627Y-105453715D01*
X108609647Y-105461418D01*
X108641879Y-105491686D01*
X108648825Y-105495505D01*
X108648828Y-105495507D01*
X108659634Y-105501448D01*
X108676153Y-105512299D01*
X108692159Y-105524714D01*
X108699428Y-105527859D01*
X108699432Y-105527862D01*
X108732737Y-105542274D01*
X108743387Y-105547491D01*
X108782140Y-105568795D01*
X108789815Y-105570766D01*
X108789816Y-105570766D01*
X108801762Y-105573833D01*
X108820467Y-105580237D01*
X108839055Y-105588281D01*
X108846878Y-105589520D01*
X108846888Y-105589523D01*
X108882724Y-105595199D01*
X108894344Y-105597605D01*
X108926159Y-105605773D01*
X108937170Y-105608600D01*
X108957424Y-105608600D01*
X108977134Y-105610151D01*
X108997143Y-105613320D01*
X109005035Y-105612574D01*
X109023780Y-105610802D01*
X109041162Y-105609159D01*
X109053019Y-105608600D01*
X111529533Y-105608600D01*
X111540716Y-105609127D01*
X111548209Y-105610802D01*
X111556135Y-105610553D01*
X111556136Y-105610553D01*
X111616286Y-105608662D01*
X111620245Y-105608600D01*
X111648156Y-105608600D01*
X111652091Y-105608103D01*
X111652156Y-105608095D01*
X111663993Y-105607162D01*
X111696251Y-105606148D01*
X111700270Y-105606022D01*
X111708189Y-105605773D01*
X111727643Y-105600121D01*
X111747000Y-105596113D01*
X111759230Y-105594568D01*
X111759231Y-105594568D01*
X111767097Y-105593574D01*
X111774468Y-105590655D01*
X111774470Y-105590655D01*
X111808212Y-105577296D01*
X111819442Y-105573451D01*
X111854283Y-105563329D01*
X111854284Y-105563329D01*
X111861893Y-105561118D01*
X111868712Y-105557085D01*
X111868717Y-105557083D01*
X111879328Y-105550807D01*
X111897076Y-105542112D01*
X111915917Y-105534652D01*
X111951687Y-105508664D01*
X111961607Y-105502148D01*
X111992835Y-105483680D01*
X111992838Y-105483678D01*
X111999662Y-105479642D01*
X112013983Y-105465321D01*
X112029017Y-105452480D01*
X112038994Y-105445231D01*
X112045407Y-105440572D01*
X112050457Y-105434468D01*
X112050462Y-105434463D01*
X112073593Y-105406502D01*
X112081583Y-105397721D01*
X112300387Y-105178918D01*
X112362699Y-105144893D01*
X112395879Y-105142180D01*
X112399000Y-105142500D01*
X113249800Y-105142500D01*
X113253046Y-105142163D01*
X113253050Y-105142163D01*
X113348708Y-105132238D01*
X113348712Y-105132237D01*
X113355566Y-105131526D01*
X113362102Y-105129345D01*
X113362104Y-105129345D01*
X113516398Y-105077868D01*
X113523346Y-105075550D01*
X113673748Y-104982478D01*
X113798705Y-104857303D01*
X113863922Y-104751502D01*
X113887675Y-104712968D01*
X113887676Y-104712966D01*
X113891515Y-104706738D01*
X113917964Y-104626995D01*
X113945032Y-104545389D01*
X113945032Y-104545387D01*
X113947197Y-104538861D01*
X113957900Y-104434400D01*
X113957900Y-103083600D01*
X113952497Y-103031522D01*
X113947638Y-102984692D01*
X113947637Y-102984688D01*
X113946926Y-102977834D01*
X113927797Y-102920496D01*
X113893268Y-102817002D01*
X113890950Y-102810054D01*
X113797878Y-102659652D01*
X113792422Y-102654205D01*
X113677883Y-102539866D01*
X113672703Y-102534695D01*
X113655364Y-102524007D01*
X113528368Y-102445725D01*
X113528366Y-102445724D01*
X113522138Y-102441885D01*
X113404996Y-102403031D01*
X113360789Y-102388368D01*
X113360787Y-102388368D01*
X113354261Y-102386203D01*
X113347425Y-102385503D01*
X113347422Y-102385502D01*
X113304369Y-102381091D01*
X113249800Y-102375500D01*
X112399000Y-102375500D01*
X112395754Y-102375837D01*
X112395750Y-102375837D01*
X112300092Y-102385762D01*
X112300088Y-102385763D01*
X112293234Y-102386474D01*
X112286698Y-102388655D01*
X112286696Y-102388655D01*
X112195574Y-102419056D01*
X112125454Y-102442450D01*
X111975052Y-102535522D01*
X111850095Y-102660697D01*
X111846255Y-102666927D01*
X111846254Y-102666928D01*
X111771612Y-102788020D01*
X111757285Y-102811262D01*
X111754981Y-102818209D01*
X111703880Y-102972275D01*
X111701603Y-102979139D01*
X111690900Y-103083600D01*
X111690900Y-103944405D01*
X111670898Y-104012526D01*
X111653995Y-104033500D01*
X111382800Y-104304695D01*
X111320488Y-104338721D01*
X111293705Y-104341600D01*
X111283900Y-104341600D01*
X111215779Y-104321598D01*
X111169286Y-104267942D01*
X111157900Y-104215600D01*
X111157900Y-103083600D01*
X111152497Y-103031522D01*
X111147638Y-102984692D01*
X111147637Y-102984688D01*
X111146926Y-102977834D01*
X111144745Y-102971296D01*
X111144743Y-102971287D01*
X111131877Y-102932724D01*
X111125400Y-102892848D01*
X111125400Y-101143455D01*
X111145402Y-101075334D01*
X111199058Y-101028841D01*
X111251047Y-101017455D01*
X111615654Y-101016437D01*
X111682119Y-101035176D01*
X111689025Y-101039433D01*
X111716700Y-101056492D01*
X111731662Y-101065715D01*
X111777139Y-101080799D01*
X111893011Y-101119232D01*
X111893013Y-101119232D01*
X111899539Y-101121397D01*
X111906375Y-101122097D01*
X111906378Y-101122098D01*
X111949305Y-101126496D01*
X112004000Y-101132100D01*
X112629800Y-101132100D01*
X112633046Y-101131763D01*
X112633050Y-101131763D01*
X112728708Y-101121838D01*
X112728712Y-101121837D01*
X112735566Y-101121126D01*
X112742102Y-101118945D01*
X112742104Y-101118945D01*
X112893509Y-101068432D01*
X112903346Y-101065150D01*
X112957953Y-101031358D01*
X113023902Y-101012503D01*
X113325295Y-101011661D01*
X115183888Y-101006470D01*
X115252064Y-101026282D01*
X115298707Y-101079808D01*
X115309852Y-101142356D01*
X115307881Y-101167400D01*
X115327128Y-101411957D01*
X115328282Y-101416764D01*
X115328283Y-101416770D01*
X115344231Y-101483197D01*
X115384395Y-101650492D01*
X115478273Y-101877132D01*
X115606448Y-102086296D01*
X115609663Y-102090060D01*
X115609665Y-102090063D01*
X115749907Y-102254263D01*
X115765767Y-102272833D01*
X115769523Y-102276041D01*
X115936971Y-102419056D01*
X115952304Y-102432152D01*
X115956527Y-102434740D01*
X115956530Y-102434742D01*
X115993753Y-102457552D01*
X116161468Y-102560327D01*
X116268634Y-102604717D01*
X116383535Y-102652311D01*
X116383537Y-102652312D01*
X116388108Y-102654205D01*
X116443503Y-102667504D01*
X116621830Y-102710317D01*
X116621836Y-102710318D01*
X116626643Y-102711472D01*
X116860746Y-102729896D01*
X116927086Y-102755181D01*
X116969226Y-102812319D01*
X116973785Y-102883169D01*
X116954948Y-102926511D01*
X116927044Y-102967417D01*
X116927041Y-102967423D01*
X116924131Y-102971689D01*
X116921958Y-102976371D01*
X116921956Y-102976374D01*
X116851955Y-103127180D01*
X116828345Y-103178043D01*
X116767548Y-103397269D01*
X116766999Y-103402406D01*
X116746014Y-103598762D01*
X116743372Y-103623482D01*
X116743669Y-103628634D01*
X116743669Y-103628638D01*
X116750758Y-103751583D01*
X116756468Y-103850606D01*
X116757605Y-103855652D01*
X116757606Y-103855658D01*
X116765989Y-103892854D01*
X116806483Y-104072541D01*
X116892075Y-104283327D01*
X117010944Y-104477304D01*
X117159898Y-104649261D01*
X117334937Y-104794581D01*
X117339389Y-104797183D01*
X117339394Y-104797186D01*
X117472974Y-104875244D01*
X117531360Y-104909362D01*
X117743893Y-104990520D01*
X117748959Y-104991551D01*
X117748960Y-104991551D01*
X117848061Y-105011713D01*
X117966827Y-105035876D01*
X118094637Y-105040563D01*
X118189011Y-105044024D01*
X118189015Y-105044024D01*
X118194175Y-105044213D01*
X118199295Y-105043557D01*
X118199297Y-105043557D01*
X118414704Y-105015963D01*
X118414705Y-105015963D01*
X118419832Y-105015306D01*
X118502448Y-104990520D01*
X118632791Y-104951415D01*
X118632792Y-104951414D01*
X118637737Y-104949931D01*
X118842039Y-104849844D01*
X118846243Y-104846846D01*
X118846247Y-104846843D01*
X119023047Y-104720733D01*
X119023049Y-104720731D01*
X119027251Y-104717734D01*
X119188399Y-104557147D01*
X119224712Y-104506612D01*
X119318138Y-104376598D01*
X119318142Y-104376592D01*
X119321156Y-104372397D01*
X119409402Y-104193846D01*
X119419661Y-104173088D01*
X119419662Y-104173086D01*
X119421955Y-104168446D01*
X119488090Y-103950770D01*
X119497933Y-103876006D01*
X119517348Y-103728536D01*
X119517348Y-103728532D01*
X119517785Y-103725215D01*
X119518185Y-103708844D01*
X119519360Y-103660765D01*
X119519360Y-103660761D01*
X119519442Y-103657400D01*
X119500801Y-103430664D01*
X119445378Y-103210017D01*
X119369742Y-103036066D01*
X119356722Y-103006122D01*
X119356720Y-103006119D01*
X119354662Y-103001385D01*
X119231090Y-102810371D01*
X119077979Y-102642104D01*
X118899441Y-102501104D01*
X118862784Y-102480868D01*
X118825238Y-102460142D01*
X118700272Y-102391157D01*
X118695403Y-102389433D01*
X118695399Y-102389431D01*
X118490696Y-102316941D01*
X118490692Y-102316940D01*
X118485821Y-102315215D01*
X118480728Y-102314308D01*
X118480725Y-102314307D01*
X118266934Y-102276225D01*
X118266928Y-102276224D01*
X118261845Y-102275319D01*
X118253820Y-102275221D01*
X118243697Y-102275097D01*
X118175826Y-102254263D01*
X118129993Y-102200042D01*
X118120749Y-102129650D01*
X118137804Y-102083274D01*
X118264127Y-101877132D01*
X118358005Y-101650492D01*
X118398169Y-101483197D01*
X118414117Y-101416770D01*
X118414118Y-101416764D01*
X118415272Y-101411957D01*
X118434519Y-101167400D01*
X118415272Y-100922843D01*
X118397292Y-100847948D01*
X118359160Y-100689120D01*
X118358005Y-100684308D01*
X118314601Y-100579522D01*
X118307012Y-100508933D01*
X118338791Y-100445446D01*
X118399849Y-100409218D01*
X118470801Y-100411752D01*
X118520103Y-100442208D01*
X121260664Y-103182769D01*
X121294690Y-103245081D01*
X121292987Y-103305535D01*
X121268928Y-103392291D01*
X121268927Y-103392297D01*
X121267548Y-103397269D01*
X121267000Y-103402397D01*
X121266999Y-103402402D01*
X121245985Y-103599033D01*
X121243372Y-103623482D01*
X121243669Y-103628634D01*
X121243669Y-103628638D01*
X121250758Y-103751583D01*
X121256468Y-103850606D01*
X121257605Y-103855652D01*
X121257606Y-103855658D01*
X121265989Y-103892854D01*
X121306483Y-104072541D01*
X121392075Y-104283327D01*
X121510944Y-104477304D01*
X121659898Y-104649261D01*
X121834937Y-104794581D01*
X121839389Y-104797183D01*
X121839394Y-104797186D01*
X121972974Y-104875244D01*
X122031360Y-104909362D01*
X122243893Y-104990520D01*
X122248959Y-104991551D01*
X122248960Y-104991551D01*
X122348061Y-105011713D01*
X122466827Y-105035876D01*
X122594637Y-105040563D01*
X122689011Y-105044024D01*
X122689015Y-105044024D01*
X122694175Y-105044213D01*
X122699295Y-105043557D01*
X122699297Y-105043557D01*
X122914704Y-105015963D01*
X122914705Y-105015963D01*
X122919832Y-105015306D01*
X123002448Y-104990520D01*
X123132791Y-104951415D01*
X123132792Y-104951414D01*
X123137737Y-104949931D01*
X123342039Y-104849844D01*
X123346243Y-104846846D01*
X123346247Y-104846843D01*
X123523047Y-104720733D01*
X123523049Y-104720731D01*
X123527251Y-104717734D01*
X123688399Y-104557147D01*
X123724712Y-104506612D01*
X123818138Y-104376598D01*
X123818142Y-104376592D01*
X123821156Y-104372397D01*
X123909402Y-104193846D01*
X123919661Y-104173088D01*
X123919662Y-104173086D01*
X123921955Y-104168446D01*
X123988090Y-103950770D01*
X123997933Y-103876006D01*
X124017348Y-103728536D01*
X124017348Y-103728532D01*
X124017785Y-103725215D01*
X124018185Y-103708844D01*
X124019360Y-103660765D01*
X124019360Y-103660761D01*
X124019442Y-103657400D01*
X124000801Y-103430664D01*
X123945378Y-103210017D01*
X123869742Y-103036066D01*
X123856722Y-103006122D01*
X123856720Y-103006119D01*
X123854662Y-103001385D01*
X123804139Y-102923288D01*
X123783932Y-102855228D01*
X123803728Y-102787047D01*
X123857244Y-102740393D01*
X123900045Y-102729236D01*
X123964656Y-102724151D01*
X124125757Y-102711472D01*
X124130564Y-102710318D01*
X124130570Y-102710317D01*
X124308897Y-102667504D01*
X124364292Y-102654205D01*
X124368863Y-102652312D01*
X124368865Y-102652311D01*
X124483766Y-102604717D01*
X124590932Y-102560327D01*
X124758647Y-102457552D01*
X124795870Y-102434742D01*
X124795873Y-102434740D01*
X124800096Y-102432152D01*
X124815430Y-102419056D01*
X124982877Y-102276041D01*
X124986633Y-102272833D01*
X125002493Y-102254263D01*
X125142735Y-102090063D01*
X125142737Y-102090060D01*
X125145952Y-102086296D01*
X125274127Y-101877132D01*
X125368005Y-101650492D01*
X125408169Y-101483197D01*
X125424117Y-101416770D01*
X125424118Y-101416764D01*
X125425272Y-101411957D01*
X125444519Y-101167400D01*
X125425272Y-100922843D01*
X125407292Y-100847948D01*
X125369160Y-100689120D01*
X125368005Y-100684308D01*
X125274127Y-100457668D01*
X125145952Y-100248504D01*
X124986633Y-100061967D01*
X124911615Y-99997895D01*
X124803863Y-99905865D01*
X124803860Y-99905863D01*
X124800096Y-99902648D01*
X124795873Y-99900060D01*
X124795870Y-99900058D01*
X124632381Y-99799873D01*
X124590932Y-99774473D01*
X124425613Y-99705995D01*
X124368865Y-99682489D01*
X124368863Y-99682488D01*
X124364292Y-99680595D01*
X124281637Y-99660751D01*
X124130570Y-99624483D01*
X124130564Y-99624482D01*
X124125757Y-99623328D01*
X123881200Y-99604081D01*
X123636643Y-99623328D01*
X123631836Y-99624482D01*
X123631830Y-99624483D01*
X123480763Y-99660751D01*
X123398108Y-99680595D01*
X123393537Y-99682488D01*
X123393535Y-99682489D01*
X123336787Y-99705995D01*
X123171468Y-99774473D01*
X123130019Y-99799873D01*
X122966530Y-99900058D01*
X122966527Y-99900060D01*
X122962304Y-99902648D01*
X122958540Y-99905863D01*
X122958537Y-99905865D01*
X122850785Y-99997895D01*
X122775767Y-100061967D01*
X122616448Y-100248504D01*
X122488273Y-100457668D01*
X122394395Y-100684308D01*
X122393240Y-100689120D01*
X122355109Y-100847948D01*
X122337128Y-100922843D01*
X122317881Y-101167400D01*
X122337128Y-101411957D01*
X122338282Y-101416764D01*
X122338283Y-101416770D01*
X122354231Y-101483197D01*
X122394395Y-101650492D01*
X122488273Y-101877132D01*
X122614669Y-102083392D01*
X122633206Y-102151924D01*
X122611749Y-102219601D01*
X122557110Y-102264934D01*
X122526298Y-102273774D01*
X122371680Y-102297434D01*
X122314587Y-102306170D01*
X122314585Y-102306171D01*
X122309478Y-102306952D01*
X122304537Y-102308567D01*
X122282913Y-102315635D01*
X122211949Y-102317788D01*
X122154670Y-102284966D01*
X117244024Y-97374320D01*
X117209999Y-97312009D01*
X117207511Y-97295143D01*
X117206372Y-97280709D01*
X116825384Y-92454868D01*
X116265658Y-85364993D01*
X116280237Y-85295509D01*
X116330067Y-85244937D01*
X116399327Y-85229334D01*
X116436216Y-85237366D01*
X116485092Y-85256030D01*
X116490160Y-85257061D01*
X116490163Y-85257062D01*
X116597417Y-85278883D01*
X116703997Y-85300567D01*
X116709172Y-85300757D01*
X116709174Y-85300757D01*
X116922073Y-85308564D01*
X116922077Y-85308564D01*
X116927237Y-85308753D01*
X116932357Y-85308097D01*
X116932359Y-85308097D01*
X117143688Y-85281025D01*
X117143689Y-85281025D01*
X117148816Y-85280368D01*
X117153766Y-85278883D01*
X117357829Y-85217661D01*
X117357834Y-85217659D01*
X117362784Y-85216174D01*
X117563394Y-85117896D01*
X117745260Y-84988173D01*
X117755407Y-84978062D01*
X117899835Y-84834137D01*
X117903496Y-84830489D01*
X118033853Y-84649077D01*
X118132830Y-84448811D01*
X118183047Y-84283529D01*
X118196265Y-84240023D01*
X118196265Y-84240021D01*
X118197770Y-84235069D01*
X118226929Y-84013590D01*
X118227011Y-84010240D01*
X118228474Y-83950365D01*
X118228474Y-83950361D01*
X118228556Y-83947000D01*
X118210252Y-83724361D01*
X118155831Y-83507702D01*
X118066754Y-83302840D01*
X118002857Y-83204070D01*
X117948222Y-83119617D01*
X117948220Y-83119614D01*
X117945414Y-83115277D01*
X117795070Y-82950051D01*
X117791019Y-82946852D01*
X117791015Y-82946848D01*
X117623814Y-82814800D01*
X117623810Y-82814798D01*
X117619759Y-82811598D01*
X117578453Y-82788796D01*
X117528484Y-82738364D01*
X117513712Y-82668921D01*
X117538828Y-82602516D01*
X117566180Y-82575909D01*
X117649342Y-82516590D01*
X117745260Y-82448173D01*
X117903496Y-82290489D01*
X118033853Y-82109077D01*
X118132830Y-81908811D01*
X118188221Y-81726500D01*
X118196265Y-81700023D01*
X118196265Y-81700021D01*
X118197770Y-81695069D01*
X118226929Y-81473590D01*
X118227979Y-81430635D01*
X118228474Y-81410365D01*
X118228474Y-81410361D01*
X118228556Y-81407000D01*
X118210252Y-81184361D01*
X118155831Y-80967702D01*
X118066754Y-80762840D01*
X117945414Y-80575277D01*
X117795070Y-80410051D01*
X117791019Y-80406852D01*
X117791015Y-80406848D01*
X117623814Y-80274800D01*
X117623810Y-80274798D01*
X117619759Y-80271598D01*
X117578453Y-80248796D01*
X117528484Y-80198364D01*
X117513712Y-80128921D01*
X117538828Y-80062516D01*
X117566180Y-80035909D01*
X117630528Y-79990010D01*
X117745260Y-79908173D01*
X117757695Y-79895782D01*
X117899835Y-79754137D01*
X117903496Y-79750489D01*
X118033853Y-79569077D01*
X118043593Y-79549371D01*
X118130536Y-79373453D01*
X118130537Y-79373451D01*
X118132830Y-79368811D01*
X118187393Y-79189224D01*
X118196265Y-79160023D01*
X118196265Y-79160021D01*
X118197770Y-79155069D01*
X118226929Y-78933590D01*
X118227267Y-78919766D01*
X118228474Y-78870365D01*
X118228474Y-78870361D01*
X118228556Y-78867000D01*
X118210252Y-78644361D01*
X118155831Y-78427702D01*
X118066754Y-78222840D01*
X118002857Y-78124070D01*
X117948222Y-78039617D01*
X117948220Y-78039614D01*
X117945414Y-78035277D01*
X117795070Y-77870051D01*
X117791019Y-77866852D01*
X117791015Y-77866848D01*
X117623814Y-77734800D01*
X117623810Y-77734798D01*
X117619759Y-77731598D01*
X117578453Y-77708796D01*
X117528484Y-77658364D01*
X117513712Y-77588921D01*
X117538828Y-77522516D01*
X117566180Y-77495909D01*
X117611232Y-77463774D01*
X117745260Y-77368173D01*
X117903496Y-77210489D01*
X117919308Y-77188485D01*
X118030835Y-77033277D01*
X118033853Y-77029077D01*
X118063522Y-76969047D01*
X118130536Y-76833453D01*
X118130537Y-76833451D01*
X118132830Y-76828811D01*
X118167524Y-76714621D01*
X118196265Y-76620023D01*
X118196265Y-76620021D01*
X118197770Y-76615069D01*
X118226929Y-76393590D01*
X118227812Y-76357457D01*
X118228474Y-76330365D01*
X118228474Y-76330361D01*
X118228556Y-76327000D01*
X118210252Y-76104361D01*
X118155831Y-75887702D01*
X118066754Y-75682840D01*
X117969221Y-75532077D01*
X117948222Y-75499617D01*
X117948220Y-75499614D01*
X117945414Y-75495277D01*
X117795070Y-75330051D01*
X117791019Y-75326852D01*
X117791015Y-75326848D01*
X117623814Y-75194800D01*
X117623810Y-75194798D01*
X117619759Y-75191598D01*
X117577969Y-75168529D01*
X117527998Y-75118097D01*
X117513226Y-75048654D01*
X117538342Y-74982248D01*
X117565694Y-74955641D01*
X117740728Y-74830792D01*
X117748600Y-74824139D01*
X117899452Y-74673812D01*
X117906130Y-74665965D01*
X118030403Y-74493020D01*
X118035713Y-74484183D01*
X118130070Y-74293267D01*
X118133869Y-74283672D01*
X118195777Y-74079910D01*
X118197955Y-74069837D01*
X118199386Y-74058962D01*
X118197175Y-74044778D01*
X118184017Y-74041000D01*
X116737400Y-74041000D01*
X116669279Y-74020998D01*
X116622786Y-73967342D01*
X116611400Y-73915000D01*
X116611400Y-73659000D01*
X116631402Y-73590879D01*
X116685058Y-73544386D01*
X116737400Y-73533000D01*
X118183744Y-73533000D01*
X118197275Y-73529027D01*
X118198580Y-73519947D01*
X118156614Y-73352875D01*
X118153294Y-73343124D01*
X118068372Y-73147814D01*
X118063505Y-73138739D01*
X117947826Y-72959926D01*
X117941536Y-72951757D01*
X117797693Y-72793677D01*
X117766641Y-72729831D01*
X117775035Y-72659333D01*
X117820212Y-72604564D01*
X117846656Y-72590895D01*
X117953697Y-72550767D01*
X117962105Y-72547615D01*
X118078661Y-72460261D01*
X118166015Y-72343705D01*
X118217145Y-72207316D01*
X118223900Y-72145134D01*
X118223900Y-70348866D01*
X118217145Y-70286684D01*
X118166015Y-70150295D01*
X118078661Y-70033739D01*
X117962105Y-69946385D01*
X117825716Y-69895255D01*
X117763534Y-69888500D01*
X115967266Y-69888500D01*
X115905084Y-69895255D01*
X115768695Y-69946385D01*
X115652139Y-70033739D01*
X115564785Y-70150295D01*
X115513655Y-70286684D01*
X115506900Y-70348866D01*
X115506900Y-72145134D01*
X115513655Y-72207316D01*
X115564785Y-72343705D01*
X115652139Y-72460261D01*
X115768695Y-72547615D01*
X115777104Y-72550767D01*
X115777105Y-72550768D01*
X115886360Y-72591726D01*
X115943125Y-72634367D01*
X115967825Y-72700929D01*
X115952618Y-72770278D01*
X115933225Y-72796759D01*
X115809990Y-72925717D01*
X115803504Y-72933727D01*
X115683498Y-73109649D01*
X115678400Y-73118623D01*
X115588738Y-73311783D01*
X115585176Y-73321467D01*
X115565581Y-73392122D01*
X115528102Y-73452419D01*
X115463973Y-73482882D01*
X115393555Y-73473838D01*
X115339205Y-73428159D01*
X115318555Y-73368366D01*
X115314853Y-73321467D01*
X114861037Y-67573134D01*
X115456900Y-67573134D01*
X115463655Y-67635316D01*
X115514785Y-67771705D01*
X115602139Y-67888261D01*
X115718695Y-67975615D01*
X115855084Y-68026745D01*
X115917266Y-68033500D01*
X117713534Y-68033500D01*
X117775716Y-68026745D01*
X117912105Y-67975615D01*
X118028661Y-67888261D01*
X118116015Y-67771705D01*
X118167145Y-67635316D01*
X118173900Y-67573134D01*
X118173900Y-65776866D01*
X118167145Y-65714684D01*
X118116015Y-65578295D01*
X118028661Y-65461739D01*
X117912105Y-65374385D01*
X117793087Y-65329767D01*
X117736323Y-65287125D01*
X117711623Y-65220564D01*
X117726830Y-65151215D01*
X117748377Y-65122535D01*
X117849452Y-65021812D01*
X117856130Y-65013965D01*
X117980403Y-64841020D01*
X117985713Y-64832183D01*
X118080070Y-64641267D01*
X118083869Y-64631672D01*
X118145777Y-64427910D01*
X118147955Y-64417837D01*
X118149386Y-64406962D01*
X118147175Y-64392778D01*
X118134017Y-64389000D01*
X115498625Y-64389000D01*
X115485094Y-64392973D01*
X115483657Y-64402966D01*
X115513965Y-64537446D01*
X115517045Y-64547275D01*
X115597170Y-64744603D01*
X115601813Y-64753794D01*
X115713094Y-64935388D01*
X115719177Y-64943699D01*
X115858613Y-65104667D01*
X115865977Y-65111879D01*
X115870922Y-65115985D01*
X115910556Y-65174889D01*
X115912053Y-65245870D01*
X115874937Y-65306392D01*
X115834664Y-65330910D01*
X115727105Y-65371232D01*
X115727104Y-65371233D01*
X115718695Y-65374385D01*
X115602139Y-65461739D01*
X115514785Y-65578295D01*
X115463655Y-65714684D01*
X115456900Y-65776866D01*
X115456900Y-67573134D01*
X114861037Y-67573134D01*
X114853457Y-67477125D01*
X113904866Y-55461630D01*
X113919445Y-55392146D01*
X113945766Y-55358438D01*
X115270545Y-54155322D01*
X115334420Y-54124331D01*
X115404911Y-54132795D01*
X115459635Y-54178024D01*
X115478171Y-54220896D01*
X115514622Y-54382639D01*
X115598666Y-54589616D01*
X115601365Y-54594020D01*
X115655199Y-54681869D01*
X115715387Y-54780088D01*
X115861650Y-54948938D01*
X116033526Y-55091632D01*
X116103995Y-55132811D01*
X116106845Y-55134476D01*
X116155569Y-55186114D01*
X116168640Y-55255897D01*
X116141909Y-55321669D01*
X116101455Y-55355027D01*
X116089007Y-55361507D01*
X116084874Y-55364610D01*
X116084871Y-55364612D01*
X115914500Y-55492530D01*
X115910365Y-55495635D01*
X115879341Y-55528100D01*
X115783731Y-55628150D01*
X115756029Y-55657138D01*
X115753115Y-55661410D01*
X115753114Y-55661411D01*
X115705136Y-55731744D01*
X115630143Y-55841680D01*
X115614403Y-55875590D01*
X115540550Y-56034693D01*
X115536088Y-56044305D01*
X115476389Y-56259570D01*
X115452651Y-56481695D01*
X115452948Y-56486848D01*
X115452948Y-56486851D01*
X115458411Y-56581590D01*
X115465510Y-56704715D01*
X115466647Y-56709761D01*
X115466648Y-56709767D01*
X115479906Y-56768594D01*
X115514622Y-56922639D01*
X115598666Y-57129616D01*
X115715387Y-57320088D01*
X115861650Y-57488938D01*
X116033526Y-57631632D01*
X116061831Y-57648172D01*
X116106845Y-57674476D01*
X116155569Y-57726114D01*
X116168640Y-57795897D01*
X116141909Y-57861669D01*
X116101455Y-57895027D01*
X116089007Y-57901507D01*
X116084874Y-57904610D01*
X116084871Y-57904612D01*
X115914500Y-58032530D01*
X115910365Y-58035635D01*
X115756029Y-58197138D01*
X115630143Y-58381680D01*
X115608410Y-58428501D01*
X115547982Y-58558682D01*
X115536088Y-58584305D01*
X115476389Y-58799570D01*
X115452651Y-59021695D01*
X115452948Y-59026848D01*
X115452948Y-59026851D01*
X115458411Y-59121590D01*
X115465510Y-59244715D01*
X115466647Y-59249761D01*
X115466648Y-59249767D01*
X115486519Y-59337939D01*
X115514622Y-59462639D01*
X115598666Y-59669616D01*
X115715387Y-59860088D01*
X115861650Y-60028938D01*
X116033526Y-60171632D01*
X116103995Y-60212811D01*
X116106845Y-60214476D01*
X116155569Y-60266114D01*
X116168640Y-60335897D01*
X116141909Y-60401669D01*
X116101455Y-60435027D01*
X116089007Y-60441507D01*
X116084874Y-60444610D01*
X116084871Y-60444612D01*
X115914500Y-60572530D01*
X115910365Y-60575635D01*
X115756029Y-60737138D01*
X115630143Y-60921680D01*
X115536088Y-61124305D01*
X115476389Y-61339570D01*
X115452651Y-61561695D01*
X115452948Y-61566848D01*
X115452948Y-61566851D01*
X115458411Y-61661590D01*
X115465510Y-61784715D01*
X115466647Y-61789761D01*
X115466648Y-61789767D01*
X115486519Y-61877939D01*
X115514622Y-62002639D01*
X115598666Y-62209616D01*
X115715387Y-62400088D01*
X115861650Y-62568938D01*
X116033526Y-62711632D01*
X116107355Y-62754774D01*
X116156079Y-62806412D01*
X116169150Y-62876195D01*
X116142419Y-62941967D01*
X116101962Y-62975327D01*
X116093857Y-62979546D01*
X116085138Y-62985036D01*
X115914833Y-63112905D01*
X115907126Y-63119748D01*
X115759990Y-63273717D01*
X115753504Y-63281727D01*
X115633498Y-63457649D01*
X115628400Y-63466623D01*
X115538738Y-63659783D01*
X115535175Y-63669470D01*
X115479789Y-63869183D01*
X115481312Y-63877607D01*
X115493692Y-63881000D01*
X118133744Y-63881000D01*
X118147275Y-63877027D01*
X118148580Y-63867947D01*
X118106614Y-63700875D01*
X118103294Y-63691124D01*
X118018372Y-63495814D01*
X118013505Y-63486739D01*
X117897826Y-63307926D01*
X117891536Y-63299757D01*
X117748206Y-63142240D01*
X117740673Y-63135215D01*
X117573539Y-63003222D01*
X117564956Y-62997520D01*
X117528002Y-62977120D01*
X117478031Y-62926687D01*
X117463259Y-62857245D01*
X117488375Y-62790839D01*
X117515727Y-62764232D01*
X117579486Y-62718753D01*
X117695260Y-62636173D01*
X117853496Y-62478489D01*
X117912994Y-62395689D01*
X117980835Y-62301277D01*
X117983853Y-62297077D01*
X118082830Y-62096811D01*
X118147770Y-61883069D01*
X118176929Y-61661590D01*
X118177964Y-61619228D01*
X118178474Y-61598365D01*
X118178474Y-61598361D01*
X118178556Y-61595000D01*
X118160252Y-61372361D01*
X118105831Y-61155702D01*
X118016754Y-60950840D01*
X117895414Y-60763277D01*
X117745070Y-60598051D01*
X117741019Y-60594852D01*
X117741015Y-60594848D01*
X117573814Y-60462800D01*
X117573810Y-60462798D01*
X117569759Y-60459598D01*
X117528453Y-60436796D01*
X117478484Y-60386364D01*
X117463712Y-60316921D01*
X117488828Y-60250516D01*
X117516180Y-60223909D01*
X117560003Y-60192650D01*
X117695260Y-60096173D01*
X117853496Y-59938489D01*
X117912994Y-59855689D01*
X117980835Y-59761277D01*
X117983853Y-59757077D01*
X118021370Y-59681168D01*
X118080536Y-59561453D01*
X118080537Y-59561451D01*
X118082830Y-59556811D01*
X118147770Y-59343069D01*
X118176929Y-59121590D01*
X118178556Y-59055000D01*
X118160252Y-58832361D01*
X118105831Y-58615702D01*
X118016754Y-58410840D01*
X117967155Y-58334172D01*
X117898222Y-58227617D01*
X117898220Y-58227614D01*
X117895414Y-58223277D01*
X117745070Y-58058051D01*
X117741019Y-58054852D01*
X117741015Y-58054848D01*
X117573814Y-57922800D01*
X117573810Y-57922798D01*
X117569759Y-57919598D01*
X117528453Y-57896796D01*
X117478484Y-57846364D01*
X117463712Y-57776921D01*
X117488828Y-57710516D01*
X117516180Y-57683909D01*
X117575083Y-57641894D01*
X117695260Y-57556173D01*
X117853496Y-57398489D01*
X117910645Y-57318958D01*
X117980835Y-57221277D01*
X117983853Y-57217077D01*
X118082830Y-57016811D01*
X118138979Y-56832005D01*
X118146265Y-56808023D01*
X118146265Y-56808021D01*
X118147770Y-56803069D01*
X118176929Y-56581590D01*
X118177288Y-56566898D01*
X118178474Y-56518365D01*
X118178474Y-56518361D01*
X118178556Y-56515000D01*
X118160252Y-56292361D01*
X118105831Y-56075702D01*
X118016754Y-55870840D01*
X117910506Y-55706605D01*
X117898222Y-55687617D01*
X117898220Y-55687614D01*
X117895414Y-55683277D01*
X117745070Y-55518051D01*
X117741019Y-55514852D01*
X117741015Y-55514848D01*
X117573814Y-55382800D01*
X117573810Y-55382798D01*
X117569759Y-55379598D01*
X117528453Y-55356796D01*
X117478484Y-55306364D01*
X117463712Y-55236921D01*
X117488828Y-55170516D01*
X117516180Y-55143909D01*
X117560003Y-55112650D01*
X117695260Y-55016173D01*
X117718319Y-54993195D01*
X117849835Y-54862137D01*
X117853496Y-54858489D01*
X117912994Y-54775689D01*
X117980835Y-54681277D01*
X117983853Y-54677077D01*
X117986788Y-54671140D01*
X118080536Y-54481453D01*
X118080537Y-54481451D01*
X118082830Y-54476811D01*
X118126059Y-54334528D01*
X118146265Y-54268023D01*
X118146265Y-54268021D01*
X118147770Y-54263069D01*
X118176929Y-54041590D01*
X118177011Y-54038240D01*
X118178474Y-53978365D01*
X118178474Y-53978361D01*
X118178556Y-53975000D01*
X118160252Y-53752361D01*
X118105831Y-53535702D01*
X118016754Y-53330840D01*
X117958385Y-53240615D01*
X117898222Y-53147617D01*
X117898220Y-53147614D01*
X117895414Y-53143277D01*
X117745070Y-52978051D01*
X117741019Y-52974852D01*
X117741015Y-52974848D01*
X117573814Y-52842800D01*
X117573810Y-52842798D01*
X117569759Y-52839598D01*
X117374189Y-52731638D01*
X117187237Y-52665435D01*
X117129700Y-52623841D01*
X117103784Y-52557744D01*
X117117718Y-52488128D01*
X117144587Y-52453387D01*
X120782657Y-49149425D01*
X120846532Y-49118434D01*
X120867366Y-49116700D01*
X121074600Y-49116700D01*
X121077846Y-49116363D01*
X121077850Y-49116363D01*
X121173508Y-49106438D01*
X121173512Y-49106437D01*
X121180366Y-49105726D01*
X121186902Y-49103545D01*
X121186904Y-49103545D01*
X121341198Y-49052068D01*
X121348146Y-49049750D01*
X121468042Y-48975556D01*
X121534344Y-48956700D01*
X121736500Y-48956700D01*
X121804621Y-48976702D01*
X121851114Y-49030358D01*
X121862500Y-49082700D01*
X121862500Y-50357798D01*
X121861598Y-50372850D01*
X121847418Y-50490695D01*
X121847418Y-50490700D01*
X121846682Y-50496816D01*
X121847148Y-50502959D01*
X121847148Y-50502964D01*
X121859736Y-50668857D01*
X121862239Y-50701848D01*
X121917324Y-50899953D01*
X122009839Y-51083587D01*
X122013628Y-51088447D01*
X122013631Y-51088452D01*
X122085671Y-51180860D01*
X122136261Y-51245753D01*
X122291772Y-51380276D01*
X122470450Y-51482031D01*
X122665491Y-51547142D01*
X122711468Y-51553000D01*
X122863354Y-51572352D01*
X122863358Y-51572352D01*
X122869463Y-51573130D01*
X122875608Y-51572707D01*
X122875611Y-51572707D01*
X123068447Y-51559429D01*
X123068452Y-51559428D01*
X123074598Y-51559005D01*
X123273083Y-51505304D01*
X123278597Y-51502574D01*
X123278600Y-51502573D01*
X123406233Y-51439385D01*
X123457359Y-51414074D01*
X123462243Y-51410321D01*
X123462248Y-51410318D01*
X123486332Y-51391811D01*
X123487528Y-51393367D01*
X123488745Y-51392040D01*
X123487901Y-51390990D01*
X123497635Y-51383164D01*
X123499812Y-51381452D01*
X123585049Y-51315955D01*
X123600240Y-51301316D01*
X123608719Y-51293849D01*
X123643346Y-51266008D01*
X123648146Y-51262149D01*
X123658527Y-51249778D01*
X123711201Y-51187002D01*
X123711857Y-51186227D01*
X123771503Y-51116295D01*
X123775501Y-51111608D01*
X123777583Y-51107893D01*
X123780317Y-51104634D01*
X123783285Y-51099236D01*
X123783288Y-51099231D01*
X123827531Y-51018752D01*
X123828024Y-51017864D01*
X123872992Y-50937605D01*
X123872995Y-50937598D01*
X123876006Y-50932224D01*
X123877326Y-50928176D01*
X123879376Y-50924447D01*
X123898340Y-50864666D01*
X123909026Y-50830978D01*
X123909336Y-50830013D01*
X123929041Y-50769584D01*
X123939754Y-50736733D01*
X123940262Y-50732510D01*
X123941550Y-50728450D01*
X123952492Y-50630893D01*
X123952596Y-50629998D01*
X123953003Y-50626623D01*
X123962006Y-50551798D01*
X123963582Y-50538704D01*
X123963582Y-50538700D01*
X123964318Y-50532584D01*
X123959861Y-50473843D01*
X123959500Y-50464311D01*
X123959500Y-48827317D01*
X123978240Y-48761201D01*
X124023875Y-48687168D01*
X124023876Y-48687166D01*
X124027715Y-48680938D01*
X124065743Y-48566286D01*
X124081232Y-48519589D01*
X124081232Y-48519587D01*
X124083397Y-48513061D01*
X124084639Y-48500945D01*
X124092102Y-48428100D01*
X124094100Y-48408600D01*
X124094100Y-47407800D01*
X124083126Y-47302034D01*
X124027150Y-47134254D01*
X123934078Y-46983852D01*
X123808903Y-46858895D01*
X123658338Y-46766085D01*
X123658791Y-46765351D01*
X123610045Y-46722436D01*
X123590580Y-46654160D01*
X123611118Y-46586199D01*
X123631867Y-46561877D01*
X123686589Y-46512180D01*
X123686590Y-46512179D01*
X123700000Y-46500000D01*
X123700000Y-46394331D01*
X123720002Y-46326210D01*
X123759696Y-46287187D01*
X123803412Y-46260134D01*
X123814805Y-46251104D01*
X123929339Y-46136371D01*
X123938351Y-46124960D01*
X124023416Y-45986957D01*
X124029563Y-45973776D01*
X124080738Y-45819490D01*
X124083605Y-45806114D01*
X124093272Y-45711762D01*
X124093600Y-45705346D01*
X124093600Y-45480315D01*
X124089125Y-45465076D01*
X124087735Y-45463871D01*
X124080052Y-45462200D01*
X123700000Y-45462200D01*
X123700000Y-44954200D01*
X124075484Y-44954200D01*
X124090723Y-44949725D01*
X124091928Y-44948335D01*
X124093599Y-44940652D01*
X124093599Y-44711105D01*
X124093262Y-44704586D01*
X124083343Y-44608994D01*
X124080451Y-44595600D01*
X124029012Y-44441416D01*
X124022839Y-44428238D01*
X123937537Y-44290393D01*
X123928501Y-44278992D01*
X123813771Y-44164461D01*
X123802357Y-44155447D01*
X123759885Y-44129267D01*
X123712391Y-44076495D01*
X123700000Y-44022007D01*
X123700000Y-43419650D01*
X123720002Y-43351529D01*
X123773658Y-43305036D01*
X123781771Y-43301668D01*
X123887252Y-43262125D01*
X123902849Y-43253586D01*
X124004924Y-43177085D01*
X124017485Y-43164524D01*
X124093986Y-43062449D01*
X124102524Y-43046854D01*
X124147678Y-42926406D01*
X124151305Y-42911151D01*
X124156831Y-42860286D01*
X124157200Y-42853472D01*
X124157200Y-42080915D01*
X124152725Y-42065676D01*
X124151335Y-42064471D01*
X124143652Y-42062800D01*
X123700000Y-42062800D01*
X123700000Y-41554800D01*
X124139084Y-41554800D01*
X124154323Y-41550325D01*
X124155528Y-41548935D01*
X124157199Y-41541252D01*
X124157199Y-40764131D01*
X124156829Y-40757310D01*
X124151305Y-40706448D01*
X124147679Y-40691196D01*
X124102524Y-40570746D01*
X124093986Y-40555151D01*
X124017485Y-40453076D01*
X124004924Y-40440515D01*
X123902849Y-40364014D01*
X123887252Y-40355475D01*
X123781771Y-40315932D01*
X123725006Y-40273291D01*
X123700306Y-40206729D01*
X123700000Y-40197950D01*
X123700000Y-28700000D01*
X123689702Y-28705869D01*
X123689701Y-28705869D01*
X115218451Y-33533571D01*
X115156064Y-33550100D01*
X98727667Y-33550100D01*
X98716484Y-33549573D01*
X98708991Y-33547898D01*
X98701065Y-33548147D01*
X98701064Y-33548147D01*
X98640901Y-33550038D01*
X98636943Y-33550100D01*
X98609044Y-33550100D01*
X98605054Y-33550604D01*
X98593220Y-33551536D01*
X98549011Y-33552926D01*
X98541397Y-33555138D01*
X98541392Y-33555139D01*
X98529559Y-33558577D01*
X98510196Y-33562588D01*
X98490103Y-33565126D01*
X98482736Y-33568043D01*
X98482731Y-33568044D01*
X98448992Y-33581402D01*
X98437765Y-33585246D01*
X98395307Y-33597582D01*
X98388481Y-33601619D01*
X98377872Y-33607893D01*
X98360124Y-33616588D01*
X98341283Y-33624048D01*
X98334867Y-33628710D01*
X98334866Y-33628710D01*
X98305513Y-33650036D01*
X98295593Y-33656552D01*
X98264365Y-33675020D01*
X98264362Y-33675022D01*
X98257538Y-33679058D01*
X98243217Y-33693379D01*
X98228184Y-33706219D01*
X98211793Y-33718128D01*
X98183602Y-33752205D01*
X98175612Y-33760984D01*
X96393145Y-35543450D01*
X96330833Y-35577476D01*
X96281954Y-35578402D01*
X96069173Y-35540500D01*
X96069167Y-35540499D01*
X96064084Y-35539594D01*
X95990252Y-35538692D01*
X95845881Y-35536928D01*
X95845879Y-35536928D01*
X95840711Y-35536865D01*
X95619891Y-35570655D01*
X95407556Y-35640057D01*
X95377739Y-35655579D01*
X95302817Y-35694581D01*
X95209407Y-35743207D01*
X95205274Y-35746310D01*
X95205271Y-35746312D01*
X95181047Y-35764500D01*
X95030765Y-35877335D01*
X94876429Y-36038838D01*
X94769001Y-36196321D01*
X94714093Y-36241321D01*
X94643568Y-36249492D01*
X94579821Y-36218238D01*
X94559124Y-36193754D01*
X94478622Y-36069317D01*
X94478620Y-36069314D01*
X94475814Y-36064977D01*
X94325470Y-35899751D01*
X94321419Y-35896552D01*
X94321415Y-35896548D01*
X94154214Y-35764500D01*
X94154210Y-35764498D01*
X94150159Y-35761298D01*
X93954589Y-35653338D01*
X93949720Y-35651614D01*
X93949716Y-35651612D01*
X93748887Y-35580495D01*
X93748883Y-35580494D01*
X93744012Y-35578769D01*
X93738919Y-35577862D01*
X93738916Y-35577861D01*
X93529173Y-35540500D01*
X93529167Y-35540499D01*
X93524084Y-35539594D01*
X93450252Y-35538692D01*
X93305881Y-35536928D01*
X93305879Y-35536928D01*
X93300711Y-35536865D01*
X93079891Y-35570655D01*
X92867556Y-35640057D01*
X92837739Y-35655579D01*
X92762817Y-35694581D01*
X92669407Y-35743207D01*
X92665274Y-35746310D01*
X92665271Y-35746312D01*
X92641047Y-35764500D01*
X92490765Y-35877335D01*
X92336429Y-36038838D01*
X92229001Y-36196321D01*
X92174093Y-36241321D01*
X92103568Y-36249492D01*
X92039821Y-36218238D01*
X92019124Y-36193754D01*
X91938622Y-36069317D01*
X91938620Y-36069314D01*
X91935814Y-36064977D01*
X91785470Y-35899751D01*
X91781419Y-35896552D01*
X91781415Y-35896548D01*
X91614214Y-35764500D01*
X91614210Y-35764498D01*
X91610159Y-35761298D01*
X91414589Y-35653338D01*
X91409720Y-35651614D01*
X91409716Y-35651612D01*
X91208887Y-35580495D01*
X91208883Y-35580494D01*
X91204012Y-35578769D01*
X91198919Y-35577862D01*
X91198916Y-35577861D01*
X90989173Y-35540500D01*
X90989167Y-35540499D01*
X90984084Y-35539594D01*
X90910252Y-35538692D01*
X90765881Y-35536928D01*
X90765879Y-35536928D01*
X90760711Y-35536865D01*
X90539891Y-35570655D01*
X90327556Y-35640057D01*
X90297739Y-35655579D01*
X90222817Y-35694581D01*
X90129407Y-35743207D01*
X90125274Y-35746310D01*
X90125271Y-35746312D01*
X90101047Y-35764500D01*
X89950765Y-35877335D01*
X89796429Y-36038838D01*
X89689001Y-36196321D01*
X89634093Y-36241321D01*
X89563568Y-36249492D01*
X89499821Y-36218238D01*
X89479124Y-36193754D01*
X89398622Y-36069317D01*
X89398620Y-36069314D01*
X89395814Y-36064977D01*
X89245470Y-35899751D01*
X89241419Y-35896552D01*
X89241415Y-35896548D01*
X89074214Y-35764500D01*
X89074210Y-35764498D01*
X89070159Y-35761298D01*
X88874589Y-35653338D01*
X88869720Y-35651614D01*
X88869716Y-35651612D01*
X88668887Y-35580495D01*
X88668883Y-35580494D01*
X88664012Y-35578769D01*
X88658919Y-35577862D01*
X88658916Y-35577861D01*
X88449173Y-35540500D01*
X88449167Y-35540499D01*
X88444084Y-35539594D01*
X88370252Y-35538692D01*
X88225881Y-35536928D01*
X88225879Y-35536928D01*
X88220711Y-35536865D01*
X87999891Y-35570655D01*
X87787556Y-35640057D01*
X87757739Y-35655579D01*
X87682817Y-35694581D01*
X87589407Y-35743207D01*
X87585274Y-35746310D01*
X87585271Y-35746312D01*
X87561047Y-35764500D01*
X87410765Y-35877335D01*
X87256429Y-36038838D01*
X87149001Y-36196321D01*
X87094093Y-36241321D01*
X87023568Y-36249492D01*
X86959821Y-36218238D01*
X86939124Y-36193754D01*
X86858622Y-36069317D01*
X86858620Y-36069314D01*
X86855814Y-36064977D01*
X86705470Y-35899751D01*
X86701419Y-35896552D01*
X86701415Y-35896548D01*
X86534214Y-35764500D01*
X86534210Y-35764498D01*
X86530159Y-35761298D01*
X86334589Y-35653338D01*
X86329720Y-35651614D01*
X86329716Y-35651612D01*
X86128887Y-35580495D01*
X86128883Y-35580494D01*
X86124012Y-35578769D01*
X86118919Y-35577862D01*
X86118916Y-35577861D01*
X85909173Y-35540500D01*
X85909167Y-35540499D01*
X85904084Y-35539594D01*
X85830252Y-35538692D01*
X85685881Y-35536928D01*
X85685879Y-35536928D01*
X85680711Y-35536865D01*
X85459891Y-35570655D01*
X85247556Y-35640057D01*
X85217739Y-35655579D01*
X85142817Y-35694581D01*
X85049407Y-35743207D01*
X85045274Y-35746310D01*
X85045271Y-35746312D01*
X85021047Y-35764500D01*
X84870765Y-35877335D01*
X84716429Y-36038838D01*
X84609001Y-36196321D01*
X84554093Y-36241321D01*
X84483568Y-36249492D01*
X84419821Y-36218238D01*
X84399124Y-36193754D01*
X84318622Y-36069317D01*
X84318620Y-36069314D01*
X84315814Y-36064977D01*
X84165470Y-35899751D01*
X84161419Y-35896552D01*
X84161415Y-35896548D01*
X83994214Y-35764500D01*
X83994210Y-35764498D01*
X83990159Y-35761298D01*
X83794589Y-35653338D01*
X83789720Y-35651614D01*
X83789716Y-35651612D01*
X83588887Y-35580495D01*
X83588883Y-35580494D01*
X83584012Y-35578769D01*
X83578919Y-35577862D01*
X83578916Y-35577861D01*
X83369173Y-35540500D01*
X83369167Y-35540499D01*
X83364084Y-35539594D01*
X83290252Y-35538692D01*
X83145881Y-35536928D01*
X83145879Y-35536928D01*
X83140711Y-35536865D01*
X82919891Y-35570655D01*
X82707556Y-35640057D01*
X82677739Y-35655579D01*
X82602817Y-35694581D01*
X82509407Y-35743207D01*
X82505274Y-35746310D01*
X82505271Y-35746312D01*
X82481047Y-35764500D01*
X82330765Y-35877335D01*
X82176429Y-36038838D01*
X82069001Y-36196321D01*
X82014093Y-36241321D01*
X81943568Y-36249492D01*
X81879821Y-36218238D01*
X81859124Y-36193754D01*
X81778622Y-36069317D01*
X81778620Y-36069314D01*
X81775814Y-36064977D01*
X81625470Y-35899751D01*
X81621419Y-35896552D01*
X81621415Y-35896548D01*
X81454214Y-35764500D01*
X81454210Y-35764498D01*
X81450159Y-35761298D01*
X81254589Y-35653338D01*
X81249720Y-35651614D01*
X81249716Y-35651612D01*
X81048887Y-35580495D01*
X81048883Y-35580494D01*
X81044012Y-35578769D01*
X81038919Y-35577862D01*
X81038916Y-35577861D01*
X80829173Y-35540500D01*
X80829167Y-35540499D01*
X80824084Y-35539594D01*
X80750252Y-35538692D01*
X80605881Y-35536928D01*
X80605879Y-35536928D01*
X80600711Y-35536865D01*
X80379891Y-35570655D01*
X80167556Y-35640057D01*
X80137739Y-35655579D01*
X80062817Y-35694581D01*
X79969407Y-35743207D01*
X79965274Y-35746310D01*
X79965271Y-35746312D01*
X79941047Y-35764500D01*
X79790765Y-35877335D01*
X79636429Y-36038838D01*
X79529001Y-36196321D01*
X79474093Y-36241321D01*
X79403568Y-36249492D01*
X79339821Y-36218238D01*
X79319124Y-36193754D01*
X79238622Y-36069317D01*
X79238620Y-36069314D01*
X79235814Y-36064977D01*
X79085470Y-35899751D01*
X79081419Y-35896552D01*
X79081415Y-35896548D01*
X78914214Y-35764500D01*
X78914210Y-35764498D01*
X78910159Y-35761298D01*
X78714589Y-35653338D01*
X78709720Y-35651614D01*
X78709716Y-35651612D01*
X78508887Y-35580495D01*
X78508883Y-35580494D01*
X78504012Y-35578769D01*
X78498919Y-35577862D01*
X78498916Y-35577861D01*
X78289173Y-35540500D01*
X78289167Y-35540499D01*
X78284084Y-35539594D01*
X78210252Y-35538692D01*
X78065881Y-35536928D01*
X78065879Y-35536928D01*
X78060711Y-35536865D01*
X77839891Y-35570655D01*
X77827332Y-35574760D01*
X77756368Y-35576910D01*
X77699094Y-35544089D01*
X77635605Y-35480600D01*
X77601579Y-35418288D01*
X77598700Y-35391505D01*
X77598700Y-29313709D01*
X77618702Y-29245588D01*
X77672358Y-29199095D01*
X77742632Y-29188991D01*
X77765685Y-29194971D01*
X77765693Y-29194942D01*
X77766686Y-29195230D01*
X77769645Y-29195998D01*
X77770653Y-29196383D01*
X77770660Y-29196385D01*
X77775492Y-29198230D01*
X77780560Y-29199261D01*
X77780563Y-29199262D01*
X77855923Y-29214594D01*
X77994397Y-29242767D01*
X77999572Y-29242957D01*
X77999574Y-29242957D01*
X78212473Y-29250764D01*
X78212477Y-29250764D01*
X78217637Y-29250953D01*
X78222757Y-29250297D01*
X78222759Y-29250297D01*
X78434088Y-29223225D01*
X78434089Y-29223225D01*
X78439216Y-29222568D01*
X78444176Y-29221080D01*
X78648229Y-29159861D01*
X78648234Y-29159859D01*
X78653184Y-29158374D01*
X78853794Y-29060096D01*
X78918344Y-29014053D01*
X79935777Y-29014053D01*
X79941058Y-29021107D01*
X80102556Y-29115479D01*
X80111842Y-29119929D01*
X80310801Y-29195903D01*
X80320699Y-29198779D01*
X80529395Y-29241238D01*
X80539623Y-29242457D01*
X80752450Y-29250262D01*
X80762736Y-29249795D01*
X80973985Y-29222734D01*
X80984062Y-29220592D01*
X81188055Y-29159391D01*
X81197642Y-29155633D01*
X81388898Y-29061938D01*
X81397744Y-29056665D01*
X81445047Y-29022923D01*
X81453448Y-29012223D01*
X81446460Y-28999070D01*
X80708612Y-28261222D01*
X80694668Y-28253608D01*
X80692835Y-28253739D01*
X80686220Y-28257990D01*
X79942537Y-29001673D01*
X79935777Y-29014053D01*
X78918344Y-29014053D01*
X79035660Y-28930373D01*
X79049273Y-28916808D01*
X79117009Y-28849307D01*
X79193896Y-28772689D01*
X79215782Y-28742232D01*
X79324253Y-28591277D01*
X79325440Y-28592130D01*
X79372760Y-28548562D01*
X79442697Y-28536345D01*
X79508138Y-28563878D01*
X79535966Y-28595712D01*
X79562259Y-28638619D01*
X79572716Y-28648080D01*
X79581494Y-28644296D01*
X80323778Y-27902012D01*
X80331392Y-27888068D01*
X80331261Y-27886235D01*
X80327010Y-27879620D01*
X79585649Y-27138259D01*
X79574113Y-27131959D01*
X79561831Y-27141582D01*
X79529299Y-27189272D01*
X79474387Y-27234275D01*
X79403863Y-27242446D01*
X79340116Y-27211192D01*
X79319418Y-27186708D01*
X79238622Y-27061817D01*
X79238620Y-27061814D01*
X79235814Y-27057477D01*
X79085470Y-26892251D01*
X79081419Y-26889052D01*
X79081415Y-26889048D01*
X78914214Y-26757000D01*
X78914210Y-26756998D01*
X78910159Y-26753798D01*
X78868853Y-26730996D01*
X78818884Y-26680564D01*
X78804112Y-26611121D01*
X78829228Y-26544716D01*
X78856580Y-26518109D01*
X78917866Y-26474394D01*
X79035660Y-26390373D01*
X79193896Y-26232689D01*
X79200345Y-26223715D01*
X79324253Y-26051277D01*
X79325576Y-26052228D01*
X79372445Y-26009057D01*
X79442380Y-25996825D01*
X79507826Y-26024344D01*
X79535675Y-26056194D01*
X79595787Y-26154288D01*
X79742050Y-26323138D01*
X79913926Y-26465832D01*
X79954684Y-26489649D01*
X79987755Y-26508974D01*
X80036479Y-26560612D01*
X80049550Y-26630395D01*
X80022819Y-26696167D01*
X79982362Y-26729527D01*
X79974260Y-26733744D01*
X79965534Y-26739239D01*
X79945477Y-26754299D01*
X79937023Y-26765627D01*
X79943768Y-26777958D01*
X80682988Y-27517178D01*
X80696932Y-27524792D01*
X80698765Y-27524661D01*
X80705380Y-27520410D01*
X81449189Y-26776601D01*
X81456210Y-26763744D01*
X81449411Y-26754413D01*
X81445359Y-26751721D01*
X81408402Y-26731320D01*
X81358431Y-26680887D01*
X81343659Y-26611445D01*
X81368775Y-26545039D01*
X81396127Y-26518432D01*
X81457866Y-26474394D01*
X81575660Y-26390373D01*
X81733896Y-26232689D01*
X81740345Y-26223715D01*
X81864253Y-26051277D01*
X81865576Y-26052228D01*
X81912445Y-26009057D01*
X81982380Y-25996825D01*
X82047826Y-26024344D01*
X82075675Y-26056194D01*
X82135787Y-26154288D01*
X82282050Y-26323138D01*
X82453926Y-26465832D01*
X82494684Y-26489649D01*
X82527245Y-26508676D01*
X82575969Y-26560314D01*
X82589040Y-26630097D01*
X82562309Y-26695869D01*
X82521855Y-26729227D01*
X82509407Y-26735707D01*
X82505274Y-26738810D01*
X82505271Y-26738812D01*
X82334900Y-26866730D01*
X82330765Y-26869835D01*
X82287413Y-26915200D01*
X82196852Y-27009967D01*
X82176429Y-27031338D01*
X82173520Y-27035603D01*
X82173514Y-27035611D01*
X82161204Y-27053657D01*
X82069004Y-27188818D01*
X82068698Y-27189266D01*
X82013787Y-27234269D01*
X81943262Y-27242440D01*
X81879515Y-27211186D01*
X81858817Y-27186701D01*
X81828862Y-27140397D01*
X81818177Y-27131195D01*
X81808612Y-27135598D01*
X81067822Y-27876388D01*
X81060208Y-27890332D01*
X81060339Y-27892165D01*
X81064590Y-27898780D01*
X81806274Y-28640464D01*
X81818284Y-28647023D01*
X81830023Y-28638055D01*
X81863822Y-28591019D01*
X81865077Y-28591921D01*
X81912191Y-28548555D01*
X81982130Y-28536348D01*
X82047567Y-28563891D01*
X82075380Y-28595713D01*
X82133087Y-28689883D01*
X82133091Y-28689888D01*
X82135787Y-28694288D01*
X82282050Y-28863138D01*
X82453926Y-29005832D01*
X82646800Y-29118538D01*
X82651625Y-29120380D01*
X82651626Y-29120381D01*
X82690850Y-29135359D01*
X82855492Y-29198230D01*
X82860560Y-29199261D01*
X82860563Y-29199262D01*
X82935923Y-29214594D01*
X83074397Y-29242767D01*
X83079572Y-29242957D01*
X83079574Y-29242957D01*
X83292473Y-29250764D01*
X83292477Y-29250764D01*
X83297637Y-29250953D01*
X83302757Y-29250297D01*
X83302759Y-29250297D01*
X83514088Y-29223225D01*
X83514089Y-29223225D01*
X83519216Y-29222568D01*
X83524176Y-29221080D01*
X83728229Y-29159861D01*
X83728234Y-29159859D01*
X83733184Y-29158374D01*
X83933794Y-29060096D01*
X84115660Y-28930373D01*
X84129273Y-28916808D01*
X84197009Y-28849307D01*
X84273896Y-28772689D01*
X84295782Y-28742232D01*
X84404253Y-28591277D01*
X84405576Y-28592228D01*
X84452445Y-28549057D01*
X84522380Y-28536825D01*
X84587826Y-28564344D01*
X84615675Y-28596194D01*
X84675787Y-28694288D01*
X84822050Y-28863138D01*
X84993926Y-29005832D01*
X85186800Y-29118538D01*
X85191625Y-29120380D01*
X85191626Y-29120381D01*
X85230850Y-29135359D01*
X85395492Y-29198230D01*
X85400560Y-29199261D01*
X85400563Y-29199262D01*
X85475923Y-29214594D01*
X85614397Y-29242767D01*
X85619572Y-29242957D01*
X85619574Y-29242957D01*
X85832473Y-29250764D01*
X85832477Y-29250764D01*
X85837637Y-29250953D01*
X85842757Y-29250297D01*
X85842759Y-29250297D01*
X86054088Y-29223225D01*
X86054089Y-29223225D01*
X86059216Y-29222568D01*
X86064176Y-29221080D01*
X86268229Y-29159861D01*
X86268234Y-29159859D01*
X86273184Y-29158374D01*
X86473794Y-29060096D01*
X86655660Y-28930373D01*
X86669273Y-28916808D01*
X86737009Y-28849307D01*
X86813896Y-28772689D01*
X86835782Y-28742232D01*
X86944253Y-28591277D01*
X86945576Y-28592228D01*
X86992445Y-28549057D01*
X87062380Y-28536825D01*
X87127826Y-28564344D01*
X87155675Y-28596194D01*
X87215787Y-28694288D01*
X87362050Y-28863138D01*
X87533926Y-29005832D01*
X87726800Y-29118538D01*
X87731625Y-29120380D01*
X87731626Y-29120381D01*
X87770850Y-29135359D01*
X87935492Y-29198230D01*
X87940560Y-29199261D01*
X87940563Y-29199262D01*
X88015923Y-29214594D01*
X88154397Y-29242767D01*
X88159572Y-29242957D01*
X88159574Y-29242957D01*
X88372473Y-29250764D01*
X88372477Y-29250764D01*
X88377637Y-29250953D01*
X88382757Y-29250297D01*
X88382759Y-29250297D01*
X88594088Y-29223225D01*
X88594089Y-29223225D01*
X88599216Y-29222568D01*
X88604176Y-29221080D01*
X88808229Y-29159861D01*
X88808234Y-29159859D01*
X88813184Y-29158374D01*
X89013794Y-29060096D01*
X89195660Y-28930373D01*
X89209273Y-28916808D01*
X89277009Y-28849307D01*
X89353896Y-28772689D01*
X89375782Y-28742232D01*
X89484253Y-28591277D01*
X89485576Y-28592228D01*
X89532445Y-28549057D01*
X89602380Y-28536825D01*
X89667826Y-28564344D01*
X89695675Y-28596194D01*
X89755787Y-28694288D01*
X89902050Y-28863138D01*
X90073926Y-29005832D01*
X90266800Y-29118538D01*
X90271625Y-29120380D01*
X90271626Y-29120381D01*
X90310850Y-29135359D01*
X90475492Y-29198230D01*
X90480560Y-29199261D01*
X90480563Y-29199262D01*
X90555923Y-29214594D01*
X90694397Y-29242767D01*
X90699572Y-29242957D01*
X90699574Y-29242957D01*
X90912473Y-29250764D01*
X90912477Y-29250764D01*
X90917637Y-29250953D01*
X90922757Y-29250297D01*
X90922759Y-29250297D01*
X91134088Y-29223225D01*
X91134089Y-29223225D01*
X91139216Y-29222568D01*
X91144176Y-29221080D01*
X91348229Y-29159861D01*
X91348234Y-29159859D01*
X91353184Y-29158374D01*
X91553794Y-29060096D01*
X91735660Y-28930373D01*
X91749273Y-28916808D01*
X91817009Y-28849307D01*
X91893896Y-28772689D01*
X91915782Y-28742232D01*
X92024253Y-28591277D01*
X92025576Y-28592228D01*
X92072445Y-28549057D01*
X92142380Y-28536825D01*
X92207826Y-28564344D01*
X92235675Y-28596194D01*
X92295787Y-28694288D01*
X92442050Y-28863138D01*
X92613926Y-29005832D01*
X92806800Y-29118538D01*
X92811625Y-29120380D01*
X92811626Y-29120381D01*
X92850850Y-29135359D01*
X93015492Y-29198230D01*
X93020560Y-29199261D01*
X93020563Y-29199262D01*
X93095923Y-29214594D01*
X93234397Y-29242767D01*
X93239572Y-29242957D01*
X93239574Y-29242957D01*
X93452473Y-29250764D01*
X93452477Y-29250764D01*
X93457637Y-29250953D01*
X93462757Y-29250297D01*
X93462759Y-29250297D01*
X93674088Y-29223225D01*
X93674089Y-29223225D01*
X93679216Y-29222568D01*
X93684176Y-29221080D01*
X93888229Y-29159861D01*
X93888234Y-29159859D01*
X93893184Y-29158374D01*
X94093794Y-29060096D01*
X94275660Y-28930373D01*
X94289273Y-28916808D01*
X94357009Y-28849307D01*
X94433896Y-28772689D01*
X94455782Y-28742232D01*
X94564253Y-28591277D01*
X94565576Y-28592228D01*
X94612445Y-28549057D01*
X94682380Y-28536825D01*
X94747826Y-28564344D01*
X94775675Y-28596194D01*
X94835787Y-28694288D01*
X94982050Y-28863138D01*
X95153926Y-29005832D01*
X95346800Y-29118538D01*
X95351625Y-29120380D01*
X95351626Y-29120381D01*
X95390850Y-29135359D01*
X95555492Y-29198230D01*
X95560560Y-29199261D01*
X95560563Y-29199262D01*
X95635923Y-29214594D01*
X95774397Y-29242767D01*
X95779572Y-29242957D01*
X95779574Y-29242957D01*
X95992473Y-29250764D01*
X95992477Y-29250764D01*
X95997637Y-29250953D01*
X96002757Y-29250297D01*
X96002759Y-29250297D01*
X96214088Y-29223225D01*
X96214089Y-29223225D01*
X96219216Y-29222568D01*
X96224176Y-29221080D01*
X96428229Y-29159861D01*
X96428234Y-29159859D01*
X96433184Y-29158374D01*
X96633794Y-29060096D01*
X96815660Y-28930373D01*
X96829273Y-28916808D01*
X96897009Y-28849307D01*
X96973896Y-28772689D01*
X96995782Y-28742232D01*
X97104253Y-28591277D01*
X97105576Y-28592228D01*
X97152445Y-28549057D01*
X97222380Y-28536825D01*
X97287826Y-28564344D01*
X97315675Y-28596194D01*
X97375787Y-28694288D01*
X97522050Y-28863138D01*
X97693926Y-29005832D01*
X97886800Y-29118538D01*
X97891625Y-29120380D01*
X97891626Y-29120381D01*
X97930850Y-29135359D01*
X98095492Y-29198230D01*
X98100560Y-29199261D01*
X98100563Y-29199262D01*
X98175923Y-29214594D01*
X98314397Y-29242767D01*
X98319572Y-29242957D01*
X98319574Y-29242957D01*
X98532473Y-29250764D01*
X98532477Y-29250764D01*
X98537637Y-29250953D01*
X98542757Y-29250297D01*
X98542759Y-29250297D01*
X98754088Y-29223225D01*
X98754089Y-29223225D01*
X98759216Y-29222568D01*
X98764176Y-29221080D01*
X98968229Y-29159861D01*
X98968234Y-29159859D01*
X98973184Y-29158374D01*
X99173794Y-29060096D01*
X99355660Y-28930373D01*
X99369273Y-28916808D01*
X99437009Y-28849307D01*
X99513896Y-28772689D01*
X99535782Y-28742232D01*
X99644253Y-28591277D01*
X99645576Y-28592228D01*
X99692445Y-28549057D01*
X99762380Y-28536825D01*
X99827826Y-28564344D01*
X99855675Y-28596194D01*
X99915787Y-28694288D01*
X100062050Y-28863138D01*
X100233926Y-29005832D01*
X100426800Y-29118538D01*
X100431625Y-29120380D01*
X100431626Y-29120381D01*
X100470850Y-29135359D01*
X100635492Y-29198230D01*
X100640560Y-29199261D01*
X100640563Y-29199262D01*
X100715923Y-29214594D01*
X100854397Y-29242767D01*
X100859572Y-29242957D01*
X100859574Y-29242957D01*
X101072473Y-29250764D01*
X101072477Y-29250764D01*
X101077637Y-29250953D01*
X101082757Y-29250297D01*
X101082759Y-29250297D01*
X101294088Y-29223225D01*
X101294089Y-29223225D01*
X101299216Y-29222568D01*
X101304176Y-29221080D01*
X101508229Y-29159861D01*
X101508234Y-29159859D01*
X101513184Y-29158374D01*
X101713794Y-29060096D01*
X101895660Y-28930373D01*
X101909273Y-28916808D01*
X101977009Y-28849307D01*
X102053896Y-28772689D01*
X102075782Y-28742232D01*
X102184253Y-28591277D01*
X102185576Y-28592228D01*
X102232445Y-28549057D01*
X102302380Y-28536825D01*
X102367826Y-28564344D01*
X102395675Y-28596194D01*
X102455787Y-28694288D01*
X102602050Y-28863138D01*
X102773926Y-29005832D01*
X102966800Y-29118538D01*
X102971625Y-29120380D01*
X102971626Y-29120381D01*
X103010850Y-29135359D01*
X103175492Y-29198230D01*
X103180560Y-29199261D01*
X103180563Y-29199262D01*
X103255923Y-29214594D01*
X103394397Y-29242767D01*
X103399572Y-29242957D01*
X103399574Y-29242957D01*
X103612473Y-29250764D01*
X103612477Y-29250764D01*
X103617637Y-29250953D01*
X103622757Y-29250297D01*
X103622759Y-29250297D01*
X103834088Y-29223225D01*
X103834089Y-29223225D01*
X103839216Y-29222568D01*
X103844176Y-29221080D01*
X104048229Y-29159861D01*
X104048234Y-29159859D01*
X104053184Y-29158374D01*
X104253794Y-29060096D01*
X104435660Y-28930373D01*
X104449273Y-28916808D01*
X104517009Y-28849307D01*
X104593896Y-28772689D01*
X104615782Y-28742232D01*
X104724253Y-28591277D01*
X104725576Y-28592228D01*
X104772445Y-28549057D01*
X104842380Y-28536825D01*
X104907826Y-28564344D01*
X104935675Y-28596194D01*
X104995787Y-28694288D01*
X105142050Y-28863138D01*
X105313926Y-29005832D01*
X105506800Y-29118538D01*
X105511625Y-29120380D01*
X105511626Y-29120381D01*
X105550850Y-29135359D01*
X105715492Y-29198230D01*
X105720560Y-29199261D01*
X105720563Y-29199262D01*
X105795923Y-29214594D01*
X105934397Y-29242767D01*
X105939572Y-29242957D01*
X105939574Y-29242957D01*
X106152473Y-29250764D01*
X106152477Y-29250764D01*
X106157637Y-29250953D01*
X106162757Y-29250297D01*
X106162759Y-29250297D01*
X106374088Y-29223225D01*
X106374089Y-29223225D01*
X106379216Y-29222568D01*
X106384176Y-29221080D01*
X106588229Y-29159861D01*
X106588234Y-29159859D01*
X106593184Y-29158374D01*
X106793794Y-29060096D01*
X106975660Y-28930373D01*
X106989273Y-28916808D01*
X107057009Y-28849307D01*
X107133896Y-28772689D01*
X107155782Y-28742232D01*
X107264253Y-28591277D01*
X107265576Y-28592228D01*
X107312445Y-28549057D01*
X107382380Y-28536825D01*
X107447826Y-28564344D01*
X107475675Y-28596194D01*
X107535787Y-28694288D01*
X107682050Y-28863138D01*
X107853926Y-29005832D01*
X108046800Y-29118538D01*
X108051625Y-29120380D01*
X108051626Y-29120381D01*
X108090850Y-29135359D01*
X108255492Y-29198230D01*
X108260560Y-29199261D01*
X108260563Y-29199262D01*
X108335923Y-29214594D01*
X108474397Y-29242767D01*
X108479572Y-29242957D01*
X108479574Y-29242957D01*
X108692473Y-29250764D01*
X108692477Y-29250764D01*
X108697637Y-29250953D01*
X108702757Y-29250297D01*
X108702759Y-29250297D01*
X108914088Y-29223225D01*
X108914089Y-29223225D01*
X108919216Y-29222568D01*
X108924176Y-29221080D01*
X109128229Y-29159861D01*
X109128234Y-29159859D01*
X109133184Y-29158374D01*
X109333794Y-29060096D01*
X109515660Y-28930373D01*
X109529273Y-28916808D01*
X109597009Y-28849307D01*
X109673896Y-28772689D01*
X109695782Y-28742232D01*
X109801235Y-28595477D01*
X109804253Y-28591277D01*
X109809616Y-28580427D01*
X109900936Y-28395653D01*
X109900937Y-28395651D01*
X109903230Y-28391011D01*
X109944976Y-28253608D01*
X109950123Y-28236669D01*
X119621401Y-28236669D01*
X119621771Y-28243490D01*
X119627295Y-28294352D01*
X119630921Y-28309604D01*
X119676076Y-28430054D01*
X119684614Y-28445649D01*
X119761115Y-28547724D01*
X119773676Y-28560285D01*
X119875751Y-28636786D01*
X119891346Y-28645324D01*
X120011794Y-28690478D01*
X120027049Y-28694105D01*
X120077914Y-28699631D01*
X120084728Y-28700000D01*
X120657285Y-28700000D01*
X120672524Y-28695525D01*
X120673729Y-28694135D01*
X120675400Y-28686452D01*
X120675400Y-28681884D01*
X121183400Y-28681884D01*
X121187875Y-28697123D01*
X121189265Y-28698328D01*
X121196948Y-28699999D01*
X121774069Y-28699999D01*
X121780890Y-28699629D01*
X121831752Y-28694105D01*
X121847004Y-28690479D01*
X121967454Y-28645324D01*
X121983049Y-28636786D01*
X122085124Y-28560285D01*
X122097685Y-28547724D01*
X122174186Y-28445649D01*
X122182724Y-28430054D01*
X122227878Y-28309606D01*
X122231505Y-28294351D01*
X122237031Y-28243486D01*
X122237400Y-28236672D01*
X122237400Y-27664115D01*
X122232925Y-27648876D01*
X122231535Y-27647671D01*
X122223852Y-27646000D01*
X121201515Y-27646000D01*
X121186276Y-27650475D01*
X121185071Y-27651865D01*
X121183400Y-27659548D01*
X121183400Y-28681884D01*
X120675400Y-28681884D01*
X120675400Y-27664115D01*
X120670925Y-27648876D01*
X120669535Y-27647671D01*
X120661852Y-27646000D01*
X119639516Y-27646000D01*
X119624277Y-27650475D01*
X119623072Y-27651865D01*
X119621401Y-27659548D01*
X119621401Y-28236669D01*
X109950123Y-28236669D01*
X109966665Y-28182223D01*
X109966665Y-28182221D01*
X109968170Y-28177269D01*
X109997329Y-27955790D01*
X109998956Y-27889200D01*
X109980652Y-27666561D01*
X109926231Y-27449902D01*
X109837154Y-27245040D01*
X109764694Y-27133034D01*
X109718622Y-27061817D01*
X109718620Y-27061814D01*
X109715814Y-27057477D01*
X109565470Y-26892251D01*
X109561419Y-26889052D01*
X109561415Y-26889048D01*
X109394214Y-26757000D01*
X109394210Y-26756998D01*
X109390159Y-26753798D01*
X109348853Y-26730996D01*
X109298884Y-26680564D01*
X109284112Y-26611121D01*
X109309228Y-26544716D01*
X109336580Y-26518109D01*
X109397866Y-26474394D01*
X109515660Y-26390373D01*
X109673896Y-26232689D01*
X109680345Y-26223715D01*
X109801235Y-26055477D01*
X109804253Y-26051277D01*
X109810168Y-26039310D01*
X109900936Y-25855653D01*
X109900937Y-25855651D01*
X109903230Y-25851011D01*
X109968170Y-25637269D01*
X109997329Y-25415790D01*
X109998956Y-25349200D01*
X109980652Y-25126561D01*
X109926231Y-24909902D01*
X109918447Y-24892000D01*
X119615902Y-24892000D01*
X119635857Y-25120087D01*
X119637281Y-25125400D01*
X119637281Y-25125402D01*
X119638975Y-25131722D01*
X119695116Y-25341243D01*
X119697439Y-25346224D01*
X119697439Y-25346225D01*
X119789551Y-25543762D01*
X119789554Y-25543767D01*
X119791877Y-25548749D01*
X119923202Y-25736300D01*
X120069322Y-25882420D01*
X120103348Y-25944732D01*
X120098283Y-26015547D01*
X120055736Y-26072383D01*
X120018794Y-26089683D01*
X120019193Y-26090748D01*
X119891346Y-26138676D01*
X119875751Y-26147214D01*
X119773676Y-26223715D01*
X119761115Y-26236276D01*
X119684614Y-26338351D01*
X119676076Y-26353946D01*
X119630922Y-26474394D01*
X119627295Y-26489649D01*
X119621769Y-26540514D01*
X119621400Y-26547328D01*
X119621400Y-27119885D01*
X119625875Y-27135124D01*
X119627265Y-27136329D01*
X119634948Y-27138000D01*
X122219284Y-27138000D01*
X122234523Y-27133525D01*
X122235728Y-27132135D01*
X122237399Y-27124452D01*
X122237399Y-26547331D01*
X122237029Y-26540510D01*
X122231505Y-26489648D01*
X122227879Y-26474396D01*
X122182724Y-26353946D01*
X122174186Y-26338351D01*
X122097685Y-26236276D01*
X122085124Y-26223715D01*
X121983049Y-26147214D01*
X121967454Y-26138676D01*
X121839607Y-26090748D01*
X121840304Y-26088888D01*
X121787772Y-26058869D01*
X121754958Y-25995910D01*
X121761392Y-25925206D01*
X121789479Y-25882419D01*
X121935598Y-25736300D01*
X122066923Y-25548749D01*
X122069246Y-25543767D01*
X122069249Y-25543762D01*
X122161361Y-25346225D01*
X122161361Y-25346224D01*
X122163684Y-25341243D01*
X122219826Y-25131722D01*
X122221519Y-25125402D01*
X122221519Y-25125400D01*
X122222943Y-25120087D01*
X122242898Y-24892000D01*
X122222943Y-24663913D01*
X122177844Y-24495603D01*
X122165107Y-24448067D01*
X122165106Y-24448065D01*
X122163684Y-24442757D01*
X122137769Y-24387181D01*
X122069249Y-24240238D01*
X122069246Y-24240233D01*
X122066923Y-24235251D01*
X121935598Y-24047700D01*
X121773700Y-23885802D01*
X121769192Y-23882645D01*
X121769189Y-23882643D01*
X121691011Y-23827902D01*
X121586149Y-23754477D01*
X121581167Y-23752154D01*
X121581162Y-23752151D01*
X121383625Y-23660039D01*
X121383624Y-23660039D01*
X121378643Y-23657716D01*
X121373335Y-23656294D01*
X121373333Y-23656293D01*
X121162802Y-23599881D01*
X121162800Y-23599881D01*
X121157487Y-23598457D01*
X120929400Y-23578502D01*
X120701313Y-23598457D01*
X120696000Y-23599881D01*
X120695998Y-23599881D01*
X120485467Y-23656293D01*
X120485465Y-23656294D01*
X120480157Y-23657716D01*
X120475176Y-23660039D01*
X120475175Y-23660039D01*
X120277638Y-23752151D01*
X120277633Y-23752154D01*
X120272651Y-23754477D01*
X120167789Y-23827902D01*
X120089611Y-23882643D01*
X120089608Y-23882645D01*
X120085100Y-23885802D01*
X119923202Y-24047700D01*
X119791877Y-24235251D01*
X119789554Y-24240233D01*
X119789551Y-24240238D01*
X119721031Y-24387181D01*
X119695116Y-24442757D01*
X119693694Y-24448065D01*
X119693693Y-24448067D01*
X119680956Y-24495603D01*
X119635857Y-24663913D01*
X119615902Y-24892000D01*
X109918447Y-24892000D01*
X109837154Y-24705040D01*
X109715814Y-24517477D01*
X109565470Y-24352251D01*
X109561419Y-24349052D01*
X109561415Y-24349048D01*
X109394214Y-24217000D01*
X109394210Y-24216998D01*
X109390159Y-24213798D01*
X109194589Y-24105838D01*
X109189720Y-24104114D01*
X109189716Y-24104112D01*
X108988887Y-24032995D01*
X108988883Y-24032994D01*
X108984012Y-24031269D01*
X108978919Y-24030362D01*
X108978916Y-24030361D01*
X108769173Y-23993000D01*
X108769167Y-23992999D01*
X108764084Y-23992094D01*
X108690252Y-23991192D01*
X108545881Y-23989428D01*
X108545879Y-23989428D01*
X108540711Y-23989365D01*
X108319891Y-24023155D01*
X108107556Y-24092557D01*
X108077243Y-24108337D01*
X107994065Y-24151637D01*
X107909407Y-24195707D01*
X107905274Y-24198810D01*
X107905271Y-24198812D01*
X107778217Y-24294207D01*
X107730765Y-24329835D01*
X107576429Y-24491338D01*
X107469001Y-24648821D01*
X107414093Y-24693821D01*
X107343568Y-24701992D01*
X107279821Y-24670738D01*
X107259124Y-24646254D01*
X107178622Y-24521817D01*
X107178620Y-24521814D01*
X107175814Y-24517477D01*
X107025470Y-24352251D01*
X107021419Y-24349052D01*
X107021415Y-24349048D01*
X106854214Y-24217000D01*
X106854210Y-24216998D01*
X106850159Y-24213798D01*
X106654589Y-24105838D01*
X106649720Y-24104114D01*
X106649716Y-24104112D01*
X106448887Y-24032995D01*
X106448883Y-24032994D01*
X106444012Y-24031269D01*
X106438919Y-24030362D01*
X106438916Y-24030361D01*
X106229173Y-23993000D01*
X106229167Y-23992999D01*
X106224084Y-23992094D01*
X106150252Y-23991192D01*
X106005881Y-23989428D01*
X106005879Y-23989428D01*
X106000711Y-23989365D01*
X105779891Y-24023155D01*
X105567556Y-24092557D01*
X105537243Y-24108337D01*
X105454065Y-24151637D01*
X105369407Y-24195707D01*
X105365274Y-24198810D01*
X105365271Y-24198812D01*
X105238217Y-24294207D01*
X105190765Y-24329835D01*
X105036429Y-24491338D01*
X104929001Y-24648821D01*
X104874093Y-24693821D01*
X104803568Y-24701992D01*
X104739821Y-24670738D01*
X104719124Y-24646254D01*
X104638622Y-24521817D01*
X104638620Y-24521814D01*
X104635814Y-24517477D01*
X104485470Y-24352251D01*
X104481419Y-24349052D01*
X104481415Y-24349048D01*
X104314214Y-24217000D01*
X104314210Y-24216998D01*
X104310159Y-24213798D01*
X104114589Y-24105838D01*
X104109720Y-24104114D01*
X104109716Y-24104112D01*
X103908887Y-24032995D01*
X103908883Y-24032994D01*
X103904012Y-24031269D01*
X103898919Y-24030362D01*
X103898916Y-24030361D01*
X103689173Y-23993000D01*
X103689167Y-23992999D01*
X103684084Y-23992094D01*
X103610252Y-23991192D01*
X103465881Y-23989428D01*
X103465879Y-23989428D01*
X103460711Y-23989365D01*
X103239891Y-24023155D01*
X103027556Y-24092557D01*
X102997243Y-24108337D01*
X102914065Y-24151637D01*
X102829407Y-24195707D01*
X102825274Y-24198810D01*
X102825271Y-24198812D01*
X102698217Y-24294207D01*
X102650765Y-24329835D01*
X102496429Y-24491338D01*
X102389001Y-24648821D01*
X102334093Y-24693821D01*
X102263568Y-24701992D01*
X102199821Y-24670738D01*
X102179124Y-24646254D01*
X102098622Y-24521817D01*
X102098620Y-24521814D01*
X102095814Y-24517477D01*
X101945470Y-24352251D01*
X101941419Y-24349052D01*
X101941415Y-24349048D01*
X101774214Y-24217000D01*
X101774210Y-24216998D01*
X101770159Y-24213798D01*
X101574589Y-24105838D01*
X101569720Y-24104114D01*
X101569716Y-24104112D01*
X101368887Y-24032995D01*
X101368883Y-24032994D01*
X101364012Y-24031269D01*
X101358919Y-24030362D01*
X101358916Y-24030361D01*
X101149173Y-23993000D01*
X101149167Y-23992999D01*
X101144084Y-23992094D01*
X101070252Y-23991192D01*
X100925881Y-23989428D01*
X100925879Y-23989428D01*
X100920711Y-23989365D01*
X100699891Y-24023155D01*
X100487556Y-24092557D01*
X100457243Y-24108337D01*
X100374065Y-24151637D01*
X100289407Y-24195707D01*
X100285274Y-24198810D01*
X100285271Y-24198812D01*
X100158217Y-24294207D01*
X100110765Y-24329835D01*
X99956429Y-24491338D01*
X99849001Y-24648821D01*
X99794093Y-24693821D01*
X99723568Y-24701992D01*
X99659821Y-24670738D01*
X99639124Y-24646254D01*
X99558622Y-24521817D01*
X99558620Y-24521814D01*
X99555814Y-24517477D01*
X99405470Y-24352251D01*
X99401419Y-24349052D01*
X99401415Y-24349048D01*
X99234214Y-24217000D01*
X99234210Y-24216998D01*
X99230159Y-24213798D01*
X99034589Y-24105838D01*
X99029720Y-24104114D01*
X99029716Y-24104112D01*
X98828887Y-24032995D01*
X98828883Y-24032994D01*
X98824012Y-24031269D01*
X98818919Y-24030362D01*
X98818916Y-24030361D01*
X98609173Y-23993000D01*
X98609167Y-23992999D01*
X98604084Y-23992094D01*
X98530252Y-23991192D01*
X98385881Y-23989428D01*
X98385879Y-23989428D01*
X98380711Y-23989365D01*
X98159891Y-24023155D01*
X97947556Y-24092557D01*
X97917243Y-24108337D01*
X97834065Y-24151637D01*
X97749407Y-24195707D01*
X97745274Y-24198810D01*
X97745271Y-24198812D01*
X97618217Y-24294207D01*
X97570765Y-24329835D01*
X97416429Y-24491338D01*
X97309001Y-24648821D01*
X97254093Y-24693821D01*
X97183568Y-24701992D01*
X97119821Y-24670738D01*
X97099124Y-24646254D01*
X97018622Y-24521817D01*
X97018620Y-24521814D01*
X97015814Y-24517477D01*
X96865470Y-24352251D01*
X96861419Y-24349052D01*
X96861415Y-24349048D01*
X96694214Y-24217000D01*
X96694210Y-24216998D01*
X96690159Y-24213798D01*
X96494589Y-24105838D01*
X96489720Y-24104114D01*
X96489716Y-24104112D01*
X96288887Y-24032995D01*
X96288883Y-24032994D01*
X96284012Y-24031269D01*
X96278919Y-24030362D01*
X96278916Y-24030361D01*
X96069173Y-23993000D01*
X96069167Y-23992999D01*
X96064084Y-23992094D01*
X95990252Y-23991192D01*
X95845881Y-23989428D01*
X95845879Y-23989428D01*
X95840711Y-23989365D01*
X95619891Y-24023155D01*
X95407556Y-24092557D01*
X95377243Y-24108337D01*
X95294065Y-24151637D01*
X95209407Y-24195707D01*
X95205274Y-24198810D01*
X95205271Y-24198812D01*
X95078217Y-24294207D01*
X95030765Y-24329835D01*
X94876429Y-24491338D01*
X94769001Y-24648821D01*
X94714093Y-24693821D01*
X94643568Y-24701992D01*
X94579821Y-24670738D01*
X94559124Y-24646254D01*
X94478622Y-24521817D01*
X94478620Y-24521814D01*
X94475814Y-24517477D01*
X94325470Y-24352251D01*
X94321419Y-24349052D01*
X94321415Y-24349048D01*
X94154214Y-24217000D01*
X94154210Y-24216998D01*
X94150159Y-24213798D01*
X93954589Y-24105838D01*
X93949720Y-24104114D01*
X93949716Y-24104112D01*
X93748887Y-24032995D01*
X93748883Y-24032994D01*
X93744012Y-24031269D01*
X93738919Y-24030362D01*
X93738916Y-24030361D01*
X93529173Y-23993000D01*
X93529167Y-23992999D01*
X93524084Y-23992094D01*
X93450252Y-23991192D01*
X93305881Y-23989428D01*
X93305879Y-23989428D01*
X93300711Y-23989365D01*
X93079891Y-24023155D01*
X92867556Y-24092557D01*
X92837243Y-24108337D01*
X92754065Y-24151637D01*
X92669407Y-24195707D01*
X92665274Y-24198810D01*
X92665271Y-24198812D01*
X92538217Y-24294207D01*
X92490765Y-24329835D01*
X92336429Y-24491338D01*
X92229001Y-24648821D01*
X92174093Y-24693821D01*
X92103568Y-24701992D01*
X92039821Y-24670738D01*
X92019124Y-24646254D01*
X91938622Y-24521817D01*
X91938620Y-24521814D01*
X91935814Y-24517477D01*
X91785470Y-24352251D01*
X91781419Y-24349052D01*
X91781415Y-24349048D01*
X91614214Y-24217000D01*
X91614210Y-24216998D01*
X91610159Y-24213798D01*
X91414589Y-24105838D01*
X91409720Y-24104114D01*
X91409716Y-24104112D01*
X91208887Y-24032995D01*
X91208883Y-24032994D01*
X91204012Y-24031269D01*
X91198919Y-24030362D01*
X91198916Y-24030361D01*
X90989173Y-23993000D01*
X90989167Y-23992999D01*
X90984084Y-23992094D01*
X90910252Y-23991192D01*
X90765881Y-23989428D01*
X90765879Y-23989428D01*
X90760711Y-23989365D01*
X90539891Y-24023155D01*
X90327556Y-24092557D01*
X90297243Y-24108337D01*
X90214065Y-24151637D01*
X90129407Y-24195707D01*
X90125274Y-24198810D01*
X90125271Y-24198812D01*
X89998217Y-24294207D01*
X89950765Y-24329835D01*
X89796429Y-24491338D01*
X89689001Y-24648821D01*
X89634093Y-24693821D01*
X89563568Y-24701992D01*
X89499821Y-24670738D01*
X89479124Y-24646254D01*
X89398622Y-24521817D01*
X89398620Y-24521814D01*
X89395814Y-24517477D01*
X89245470Y-24352251D01*
X89241419Y-24349052D01*
X89241415Y-24349048D01*
X89074214Y-24217000D01*
X89074210Y-24216998D01*
X89070159Y-24213798D01*
X88874589Y-24105838D01*
X88869720Y-24104114D01*
X88869716Y-24104112D01*
X88668887Y-24032995D01*
X88668883Y-24032994D01*
X88664012Y-24031269D01*
X88658919Y-24030362D01*
X88658916Y-24030361D01*
X88449173Y-23993000D01*
X88449167Y-23992999D01*
X88444084Y-23992094D01*
X88370252Y-23991192D01*
X88225881Y-23989428D01*
X88225879Y-23989428D01*
X88220711Y-23989365D01*
X87999891Y-24023155D01*
X87787556Y-24092557D01*
X87757243Y-24108337D01*
X87674065Y-24151637D01*
X87589407Y-24195707D01*
X87585274Y-24198810D01*
X87585271Y-24198812D01*
X87458217Y-24294207D01*
X87410765Y-24329835D01*
X87256429Y-24491338D01*
X87149001Y-24648821D01*
X87094093Y-24693821D01*
X87023568Y-24701992D01*
X86959821Y-24670738D01*
X86939124Y-24646254D01*
X86858622Y-24521817D01*
X86858620Y-24521814D01*
X86855814Y-24517477D01*
X86705470Y-24352251D01*
X86701419Y-24349052D01*
X86701415Y-24349048D01*
X86534214Y-24217000D01*
X86534210Y-24216998D01*
X86530159Y-24213798D01*
X86334589Y-24105838D01*
X86329720Y-24104114D01*
X86329716Y-24104112D01*
X86128887Y-24032995D01*
X86128883Y-24032994D01*
X86124012Y-24031269D01*
X86118919Y-24030362D01*
X86118916Y-24030361D01*
X85909173Y-23993000D01*
X85909167Y-23992999D01*
X85904084Y-23992094D01*
X85830252Y-23991192D01*
X85685881Y-23989428D01*
X85685879Y-23989428D01*
X85680711Y-23989365D01*
X85459891Y-24023155D01*
X85247556Y-24092557D01*
X85217243Y-24108337D01*
X85134065Y-24151637D01*
X85049407Y-24195707D01*
X85045274Y-24198810D01*
X85045271Y-24198812D01*
X84918217Y-24294207D01*
X84870765Y-24329835D01*
X84716429Y-24491338D01*
X84609001Y-24648821D01*
X84554093Y-24693821D01*
X84483568Y-24701992D01*
X84419821Y-24670738D01*
X84399124Y-24646254D01*
X84318622Y-24521817D01*
X84318620Y-24521814D01*
X84315814Y-24517477D01*
X84165470Y-24352251D01*
X84161419Y-24349052D01*
X84161415Y-24349048D01*
X83994214Y-24217000D01*
X83994210Y-24216998D01*
X83990159Y-24213798D01*
X83794589Y-24105838D01*
X83789720Y-24104114D01*
X83789716Y-24104112D01*
X83588887Y-24032995D01*
X83588883Y-24032994D01*
X83584012Y-24031269D01*
X83578919Y-24030362D01*
X83578916Y-24030361D01*
X83369173Y-23993000D01*
X83369167Y-23992999D01*
X83364084Y-23992094D01*
X83290252Y-23991192D01*
X83145881Y-23989428D01*
X83145879Y-23989428D01*
X83140711Y-23989365D01*
X82919891Y-24023155D01*
X82707556Y-24092557D01*
X82677243Y-24108337D01*
X82594065Y-24151637D01*
X82509407Y-24195707D01*
X82505274Y-24198810D01*
X82505271Y-24198812D01*
X82378217Y-24294207D01*
X82330765Y-24329835D01*
X82176429Y-24491338D01*
X82069001Y-24648821D01*
X82014093Y-24693821D01*
X81943568Y-24701992D01*
X81879821Y-24670738D01*
X81859124Y-24646254D01*
X81778622Y-24521817D01*
X81778620Y-24521814D01*
X81775814Y-24517477D01*
X81625470Y-24352251D01*
X81621419Y-24349052D01*
X81621415Y-24349048D01*
X81454214Y-24217000D01*
X81454210Y-24216998D01*
X81450159Y-24213798D01*
X81254589Y-24105838D01*
X81249720Y-24104114D01*
X81249716Y-24104112D01*
X81048887Y-24032995D01*
X81048883Y-24032994D01*
X81044012Y-24031269D01*
X81038919Y-24030362D01*
X81038916Y-24030361D01*
X80829173Y-23993000D01*
X80829167Y-23992999D01*
X80824084Y-23992094D01*
X80750252Y-23991192D01*
X80605881Y-23989428D01*
X80605879Y-23989428D01*
X80600711Y-23989365D01*
X80379891Y-24023155D01*
X80167556Y-24092557D01*
X80137243Y-24108337D01*
X80054065Y-24151637D01*
X79969407Y-24195707D01*
X79965274Y-24198810D01*
X79965271Y-24198812D01*
X79838217Y-24294207D01*
X79790765Y-24329835D01*
X79636429Y-24491338D01*
X79529001Y-24648821D01*
X79474093Y-24693821D01*
X79403568Y-24701992D01*
X79339821Y-24670738D01*
X79319124Y-24646254D01*
X79238622Y-24521817D01*
X79238620Y-24521814D01*
X79235814Y-24517477D01*
X79085470Y-24352251D01*
X79081419Y-24349052D01*
X79081415Y-24349048D01*
X78914214Y-24217000D01*
X78914210Y-24216998D01*
X78910159Y-24213798D01*
X78714589Y-24105838D01*
X78709720Y-24104114D01*
X78709716Y-24104112D01*
X78508887Y-24032995D01*
X78508883Y-24032994D01*
X78504012Y-24031269D01*
X78498919Y-24030362D01*
X78498916Y-24030361D01*
X78289173Y-23993000D01*
X78289167Y-23992999D01*
X78284084Y-23992094D01*
X78210252Y-23991192D01*
X78065881Y-23989428D01*
X78065879Y-23989428D01*
X78060711Y-23989365D01*
X77839891Y-24023155D01*
X77627556Y-24092557D01*
X77597243Y-24108337D01*
X77514065Y-24151637D01*
X77429407Y-24195707D01*
X77425274Y-24198810D01*
X77425271Y-24198812D01*
X77298217Y-24294207D01*
X77250765Y-24329835D01*
X77096429Y-24491338D01*
X76989001Y-24648821D01*
X76934093Y-24693821D01*
X76863568Y-24701992D01*
X76799821Y-24670738D01*
X76779124Y-24646254D01*
X76698622Y-24521817D01*
X76698620Y-24521814D01*
X76695814Y-24517477D01*
X76545470Y-24352251D01*
X76541419Y-24349052D01*
X76541415Y-24349048D01*
X76374214Y-24217000D01*
X76374210Y-24216998D01*
X76370159Y-24213798D01*
X76174589Y-24105838D01*
X76169720Y-24104114D01*
X76169716Y-24104112D01*
X75968887Y-24032995D01*
X75968883Y-24032994D01*
X75964012Y-24031269D01*
X75958919Y-24030362D01*
X75958916Y-24030361D01*
X75749173Y-23993000D01*
X75749167Y-23992999D01*
X75744084Y-23992094D01*
X75670252Y-23991192D01*
X75525881Y-23989428D01*
X75525879Y-23989428D01*
X75520711Y-23989365D01*
X75299891Y-24023155D01*
X75087556Y-24092557D01*
X75057243Y-24108337D01*
X74974065Y-24151637D01*
X74889407Y-24195707D01*
X74885274Y-24198810D01*
X74885271Y-24198812D01*
X74758217Y-24294207D01*
X74710765Y-24329835D01*
X74556429Y-24491338D01*
X74449001Y-24648821D01*
X74394093Y-24693821D01*
X74323568Y-24701992D01*
X74259821Y-24670738D01*
X74239124Y-24646254D01*
X74158622Y-24521817D01*
X74158620Y-24521814D01*
X74155814Y-24517477D01*
X74005470Y-24352251D01*
X74001419Y-24349052D01*
X74001415Y-24349048D01*
X73834214Y-24217000D01*
X73834210Y-24216998D01*
X73830159Y-24213798D01*
X73634589Y-24105838D01*
X73629720Y-24104114D01*
X73629716Y-24104112D01*
X73428887Y-24032995D01*
X73428883Y-24032994D01*
X73424012Y-24031269D01*
X73418919Y-24030362D01*
X73418916Y-24030361D01*
X73209173Y-23993000D01*
X73209167Y-23992999D01*
X73204084Y-23992094D01*
X73130252Y-23991192D01*
X72985881Y-23989428D01*
X72985879Y-23989428D01*
X72980711Y-23989365D01*
X72759891Y-24023155D01*
X72547556Y-24092557D01*
X72517243Y-24108337D01*
X72434065Y-24151637D01*
X72349407Y-24195707D01*
X72345274Y-24198810D01*
X72345271Y-24198812D01*
X72218217Y-24294207D01*
X72170765Y-24329835D01*
X72016429Y-24491338D01*
X71909001Y-24648821D01*
X71854093Y-24693821D01*
X71783568Y-24701992D01*
X71719821Y-24670738D01*
X71699124Y-24646254D01*
X71618622Y-24521817D01*
X71618620Y-24521814D01*
X71615814Y-24517477D01*
X71465470Y-24352251D01*
X71461419Y-24349052D01*
X71461415Y-24349048D01*
X71294214Y-24217000D01*
X71294210Y-24216998D01*
X71290159Y-24213798D01*
X71094589Y-24105838D01*
X71089720Y-24104114D01*
X71089716Y-24104112D01*
X70888887Y-24032995D01*
X70888883Y-24032994D01*
X70884012Y-24031269D01*
X70878919Y-24030362D01*
X70878916Y-24030361D01*
X70669173Y-23993000D01*
X70669167Y-23992999D01*
X70664084Y-23992094D01*
X70590252Y-23991192D01*
X70445881Y-23989428D01*
X70445879Y-23989428D01*
X70440711Y-23989365D01*
X70219891Y-24023155D01*
X70007556Y-24092557D01*
X69977243Y-24108337D01*
X69894065Y-24151637D01*
X69809407Y-24195707D01*
X69805274Y-24198810D01*
X69805271Y-24198812D01*
X69678217Y-24294207D01*
X69630765Y-24329835D01*
X69476429Y-24491338D01*
X69369001Y-24648821D01*
X69314093Y-24693821D01*
X69243568Y-24701992D01*
X69179821Y-24670738D01*
X69159124Y-24646254D01*
X69078622Y-24521817D01*
X69078620Y-24521814D01*
X69075814Y-24517477D01*
X68925470Y-24352251D01*
X68921419Y-24349052D01*
X68921415Y-24349048D01*
X68754214Y-24217000D01*
X68754210Y-24216998D01*
X68750159Y-24213798D01*
X68554589Y-24105838D01*
X68549720Y-24104114D01*
X68549716Y-24104112D01*
X68348887Y-24032995D01*
X68348883Y-24032994D01*
X68344012Y-24031269D01*
X68338919Y-24030362D01*
X68338916Y-24030361D01*
X68129173Y-23993000D01*
X68129167Y-23992999D01*
X68124084Y-23992094D01*
X68050252Y-23991192D01*
X67905881Y-23989428D01*
X67905879Y-23989428D01*
X67900711Y-23989365D01*
X67679891Y-24023155D01*
X67467556Y-24092557D01*
X67437243Y-24108337D01*
X67354065Y-24151637D01*
X67269407Y-24195707D01*
X67265273Y-24198811D01*
X67171387Y-24269302D01*
X67104903Y-24294207D01*
X67035507Y-24279214D01*
X67006640Y-24257636D01*
X66016652Y-23267647D01*
X66009112Y-23259361D01*
X66005000Y-23252882D01*
X65955348Y-23206256D01*
X65952507Y-23203502D01*
X65932770Y-23183765D01*
X65929573Y-23181285D01*
X65920551Y-23173580D01*
X65907116Y-23160964D01*
X65888321Y-23143314D01*
X65881375Y-23139495D01*
X65881372Y-23139493D01*
X65870566Y-23133552D01*
X65854047Y-23122701D01*
X65853583Y-23122341D01*
X65838041Y-23110286D01*
X65830772Y-23107141D01*
X65830768Y-23107138D01*
X65797463Y-23092726D01*
X65786813Y-23087509D01*
X65748060Y-23066205D01*
X65728437Y-23061167D01*
X65709734Y-23054763D01*
X65698420Y-23049867D01*
X65698419Y-23049867D01*
X65691145Y-23046719D01*
X65683322Y-23045480D01*
X65683312Y-23045477D01*
X65647476Y-23039801D01*
X65635856Y-23037395D01*
X65600711Y-23028372D01*
X65600710Y-23028372D01*
X65593030Y-23026400D01*
X65572776Y-23026400D01*
X65553065Y-23024849D01*
X65550534Y-23024448D01*
X65533057Y-23021680D01*
X65525165Y-23022426D01*
X65489039Y-23025841D01*
X65477181Y-23026400D01*
X47090363Y-23026400D01*
X47079179Y-23025873D01*
X47071691Y-23024199D01*
X47063768Y-23024448D01*
X47003633Y-23026338D01*
X46999675Y-23026400D01*
X46971744Y-23026400D01*
X46967829Y-23026895D01*
X46967825Y-23026895D01*
X46967767Y-23026903D01*
X46967738Y-23026906D01*
X46955896Y-23027839D01*
X46911710Y-23029227D01*
X46894344Y-23034272D01*
X46892258Y-23034878D01*
X46872906Y-23038886D01*
X46865835Y-23039780D01*
X46852803Y-23041426D01*
X46845434Y-23044343D01*
X46845432Y-23044344D01*
X46811697Y-23057700D01*
X46800469Y-23061545D01*
X46758007Y-23073882D01*
X46751185Y-23077916D01*
X46751179Y-23077919D01*
X46740568Y-23084194D01*
X46722818Y-23092890D01*
X46711356Y-23097428D01*
X46711351Y-23097431D01*
X46703983Y-23100348D01*
X46686570Y-23112999D01*
X46668225Y-23126327D01*
X46658307Y-23132843D01*
X46647063Y-23139493D01*
X46620237Y-23155358D01*
X46605913Y-23169682D01*
X46590881Y-23182521D01*
X46574493Y-23194428D01*
X46546312Y-23228493D01*
X46538322Y-23237273D01*
X43250147Y-26525448D01*
X43241861Y-26532988D01*
X43235382Y-26537100D01*
X43229957Y-26542877D01*
X43188757Y-26586751D01*
X43186002Y-26589593D01*
X43166265Y-26609330D01*
X43163785Y-26612527D01*
X43156082Y-26621547D01*
X43125814Y-26653779D01*
X43121995Y-26660725D01*
X43121993Y-26660728D01*
X43116052Y-26671534D01*
X43105201Y-26688053D01*
X43092786Y-26704059D01*
X43089641Y-26711328D01*
X43089638Y-26711332D01*
X43075226Y-26744637D01*
X43070009Y-26755287D01*
X43048705Y-26794040D01*
X43046734Y-26801715D01*
X43046734Y-26801716D01*
X43043667Y-26813662D01*
X43037263Y-26832366D01*
X43029219Y-26850955D01*
X43027980Y-26858778D01*
X43027977Y-26858788D01*
X43022301Y-26894624D01*
X43019895Y-26906244D01*
X43008900Y-26949070D01*
X43008900Y-26969324D01*
X43007349Y-26989034D01*
X43004180Y-27009043D01*
X43004926Y-27016935D01*
X43008341Y-27053061D01*
X43008900Y-27064919D01*
X43008900Y-56022833D01*
X43008373Y-56034016D01*
X43006698Y-56041509D01*
X43006947Y-56049435D01*
X43006947Y-56049436D01*
X43008838Y-56109586D01*
X43008900Y-56113545D01*
X43008900Y-56141456D01*
X43009397Y-56145390D01*
X43009397Y-56145391D01*
X43009405Y-56145456D01*
X43010338Y-56157293D01*
X43011727Y-56201489D01*
X43014550Y-56211205D01*
X43017378Y-56220939D01*
X43021387Y-56240300D01*
X43023926Y-56260397D01*
X43026845Y-56267768D01*
X43026845Y-56267770D01*
X43040204Y-56301512D01*
X43044049Y-56312742D01*
X43056382Y-56355193D01*
X43060415Y-56362012D01*
X43060417Y-56362017D01*
X43066693Y-56372628D01*
X43075388Y-56390376D01*
X43082848Y-56409217D01*
X43087510Y-56415633D01*
X43087510Y-56415634D01*
X43108836Y-56444987D01*
X43115352Y-56454907D01*
X43131195Y-56481695D01*
X43137858Y-56492962D01*
X43152179Y-56507283D01*
X43165019Y-56522316D01*
X43176928Y-56538707D01*
X43183034Y-56543758D01*
X43211005Y-56566898D01*
X43219784Y-56574888D01*
X48024848Y-61379953D01*
X48032388Y-61388239D01*
X48036500Y-61394718D01*
X48042277Y-61400143D01*
X48086151Y-61441343D01*
X48088993Y-61444098D01*
X48108730Y-61463835D01*
X48111927Y-61466315D01*
X48120947Y-61474018D01*
X48153179Y-61504286D01*
X48160125Y-61508105D01*
X48160128Y-61508107D01*
X48170934Y-61514048D01*
X48187453Y-61524899D01*
X48203459Y-61537314D01*
X48210728Y-61540459D01*
X48210732Y-61540462D01*
X48244037Y-61554874D01*
X48254687Y-61560091D01*
X48293440Y-61581395D01*
X48301115Y-61583366D01*
X48301116Y-61583366D01*
X48313062Y-61586433D01*
X48331766Y-61592837D01*
X48336765Y-61595000D01*
X48350355Y-61600881D01*
X48358178Y-61602120D01*
X48358188Y-61602123D01*
X48394024Y-61607799D01*
X48405644Y-61610205D01*
X48440789Y-61619228D01*
X48448470Y-61621200D01*
X48468724Y-61621200D01*
X48488434Y-61622751D01*
X48508443Y-61625920D01*
X48516335Y-61625174D01*
X48552461Y-61621759D01*
X48564319Y-61621200D01*
X51313406Y-61621200D01*
X51381527Y-61641202D01*
X51402501Y-61658105D01*
X53231255Y-63486859D01*
X53265281Y-63549171D01*
X53260216Y-63619986D01*
X53217669Y-63676822D01*
X53195411Y-63690148D01*
X53163244Y-63705148D01*
X53163239Y-63705151D01*
X53158251Y-63707477D01*
X53130418Y-63726966D01*
X52975211Y-63835643D01*
X52975208Y-63835645D01*
X52970700Y-63838802D01*
X52808802Y-64000700D01*
X52805643Y-64005211D01*
X52802108Y-64009424D01*
X52800974Y-64008473D01*
X52750929Y-64048471D01*
X52680310Y-64055776D01*
X52616951Y-64023742D01*
X52580970Y-63962538D01*
X52577918Y-63945483D01*
X52576745Y-63934684D01*
X52525615Y-63798295D01*
X52438261Y-63681739D01*
X52321705Y-63594385D01*
X52185316Y-63543255D01*
X52123134Y-63536500D01*
X50426866Y-63536500D01*
X50364684Y-63543255D01*
X50228295Y-63594385D01*
X50111739Y-63681739D01*
X50024385Y-63798295D01*
X49973255Y-63934684D01*
X49966500Y-63996866D01*
X49966500Y-65693134D01*
X49973255Y-65755316D01*
X50024385Y-65891705D01*
X50111739Y-66008261D01*
X50228295Y-66095615D01*
X50364684Y-66146745D01*
X50426866Y-66153500D01*
X52123134Y-66153500D01*
X52185316Y-66146745D01*
X52321705Y-66095615D01*
X52328885Y-66090234D01*
X52336036Y-66086319D01*
X52405393Y-66071150D01*
X52471941Y-66095887D01*
X52485639Y-66107743D01*
X52898611Y-66520716D01*
X53302653Y-66924758D01*
X53310187Y-66933037D01*
X53314300Y-66939518D01*
X53351872Y-66974800D01*
X53363951Y-66986143D01*
X53366793Y-66988898D01*
X53386530Y-67008635D01*
X53389727Y-67011115D01*
X53398747Y-67018818D01*
X53430979Y-67049086D01*
X53437925Y-67052905D01*
X53437928Y-67052907D01*
X53448734Y-67058848D01*
X53465253Y-67069699D01*
X53481259Y-67082114D01*
X53488528Y-67085259D01*
X53488532Y-67085262D01*
X53521837Y-67099674D01*
X53532487Y-67104891D01*
X53571240Y-67126195D01*
X53578915Y-67128166D01*
X53578916Y-67128166D01*
X53590862Y-67131233D01*
X53609567Y-67137637D01*
X53628155Y-67145681D01*
X53635978Y-67146920D01*
X53635988Y-67146923D01*
X53671824Y-67152599D01*
X53683444Y-67155005D01*
X53718589Y-67164028D01*
X53726270Y-67166000D01*
X53746524Y-67166000D01*
X53766234Y-67167551D01*
X53786243Y-67170720D01*
X53794135Y-67169974D01*
X53830261Y-67166559D01*
X53842119Y-67166000D01*
X72656800Y-67166000D01*
X72724921Y-67186002D01*
X72744147Y-67202343D01*
X72744420Y-67202040D01*
X72749332Y-67206463D01*
X72753747Y-67211366D01*
X72908248Y-67323618D01*
X72914276Y-67326302D01*
X72914278Y-67326303D01*
X73076681Y-67398609D01*
X73082712Y-67401294D01*
X73176113Y-67421147D01*
X73263056Y-67439628D01*
X73263061Y-67439628D01*
X73269513Y-67441000D01*
X73460487Y-67441000D01*
X73466939Y-67439628D01*
X73466944Y-67439628D01*
X73553887Y-67421147D01*
X73647288Y-67401294D01*
X73653319Y-67398609D01*
X73815722Y-67326303D01*
X73815724Y-67326302D01*
X73821752Y-67323618D01*
X73976253Y-67211366D01*
X74012851Y-67170720D01*
X74099621Y-67074352D01*
X74099622Y-67074351D01*
X74104040Y-67069444D01*
X74180009Y-66937862D01*
X74196223Y-66909779D01*
X74196224Y-66909778D01*
X74199527Y-66904056D01*
X74258542Y-66722428D01*
X74262672Y-66683138D01*
X74277814Y-66539065D01*
X74278504Y-66532500D01*
X74258542Y-66342572D01*
X74245921Y-66303728D01*
X74243894Y-66232760D01*
X74280556Y-66171962D01*
X74344269Y-66140637D01*
X74354764Y-66139272D01*
X74357600Y-66139024D01*
X74357611Y-66139022D01*
X74363087Y-66138543D01*
X74368400Y-66137119D01*
X74368402Y-66137119D01*
X74578933Y-66080707D01*
X74578935Y-66080706D01*
X74584243Y-66079284D01*
X74590235Y-66076490D01*
X74786762Y-65984849D01*
X74786767Y-65984846D01*
X74791749Y-65982523D01*
X74965300Y-65861001D01*
X74974789Y-65854357D01*
X74974792Y-65854355D01*
X74979300Y-65851198D01*
X75141198Y-65689300D01*
X75272523Y-65501749D01*
X75274846Y-65496767D01*
X75274849Y-65496762D01*
X75291081Y-65461951D01*
X75337998Y-65408666D01*
X75406275Y-65389205D01*
X75474235Y-65409747D01*
X75519471Y-65461951D01*
X75535586Y-65496511D01*
X75541069Y-65506007D01*
X75666028Y-65684467D01*
X75673084Y-65692875D01*
X75827125Y-65846916D01*
X75835533Y-65853972D01*
X76013993Y-65978931D01*
X76023489Y-65984414D01*
X76220947Y-66076490D01*
X76231239Y-66080236D01*
X76403503Y-66126394D01*
X76417599Y-66126058D01*
X76421000Y-66118116D01*
X76421000Y-63577033D01*
X76417027Y-63563502D01*
X76408478Y-63562273D01*
X76231239Y-63609764D01*
X76220947Y-63613510D01*
X76023489Y-63705586D01*
X76013993Y-63711069D01*
X75835533Y-63836028D01*
X75827125Y-63843084D01*
X75673084Y-63997125D01*
X75666028Y-64005533D01*
X75541069Y-64183993D01*
X75535586Y-64193489D01*
X75519471Y-64228049D01*
X75472554Y-64281334D01*
X75404277Y-64300795D01*
X75336317Y-64280253D01*
X75291081Y-64228049D01*
X75274849Y-64193238D01*
X75274846Y-64193233D01*
X75272523Y-64188251D01*
X75141198Y-64000700D01*
X74979300Y-63838802D01*
X74974792Y-63835645D01*
X74974789Y-63835643D01*
X74819582Y-63726966D01*
X74791749Y-63707477D01*
X74786767Y-63705154D01*
X74786762Y-63705151D01*
X74589225Y-63613039D01*
X74589224Y-63613039D01*
X74584243Y-63610716D01*
X74578935Y-63609294D01*
X74578933Y-63609293D01*
X74368402Y-63552881D01*
X74368400Y-63552881D01*
X74363087Y-63551457D01*
X74135000Y-63531502D01*
X73906913Y-63551457D01*
X73901600Y-63552881D01*
X73901598Y-63552881D01*
X73691067Y-63609293D01*
X73691065Y-63609294D01*
X73685757Y-63610716D01*
X73680776Y-63613039D01*
X73680775Y-63613039D01*
X73483238Y-63705151D01*
X73483233Y-63705154D01*
X73478251Y-63707477D01*
X73450418Y-63726966D01*
X73295211Y-63835643D01*
X73295208Y-63835645D01*
X73290700Y-63838802D01*
X73128802Y-64000700D01*
X72997477Y-64188251D01*
X72995154Y-64193233D01*
X72995151Y-64193238D01*
X72979195Y-64227457D01*
X72932278Y-64280742D01*
X72864001Y-64300203D01*
X72796041Y-64279661D01*
X72750805Y-64227457D01*
X72734849Y-64193238D01*
X72734846Y-64193233D01*
X72732523Y-64188251D01*
X72601198Y-64000700D01*
X72439300Y-63838802D01*
X72434792Y-63835645D01*
X72434789Y-63835643D01*
X72279582Y-63726966D01*
X72251749Y-63707477D01*
X72246767Y-63705154D01*
X72246762Y-63705151D01*
X72049225Y-63613039D01*
X72049224Y-63613039D01*
X72044243Y-63610716D01*
X72038935Y-63609294D01*
X72038933Y-63609293D01*
X71828402Y-63552881D01*
X71828400Y-63552881D01*
X71823087Y-63551457D01*
X71595000Y-63531502D01*
X71366913Y-63551457D01*
X71361600Y-63552881D01*
X71361598Y-63552881D01*
X71151067Y-63609293D01*
X71151065Y-63609294D01*
X71145757Y-63610716D01*
X71140776Y-63613039D01*
X71140775Y-63613039D01*
X70943238Y-63705151D01*
X70943233Y-63705154D01*
X70938251Y-63707477D01*
X70910418Y-63726966D01*
X70755211Y-63835643D01*
X70755208Y-63835645D01*
X70750700Y-63838802D01*
X70588802Y-64000700D01*
X70457477Y-64188251D01*
X70455154Y-64193233D01*
X70455151Y-64193238D01*
X70439195Y-64227457D01*
X70392278Y-64280742D01*
X70324001Y-64300203D01*
X70256041Y-64279661D01*
X70210805Y-64227457D01*
X70194849Y-64193238D01*
X70194846Y-64193233D01*
X70192523Y-64188251D01*
X70061198Y-64000700D01*
X69899300Y-63838802D01*
X69894792Y-63835645D01*
X69894789Y-63835643D01*
X69739582Y-63726966D01*
X69711749Y-63707477D01*
X69706767Y-63705154D01*
X69706762Y-63705151D01*
X69509225Y-63613039D01*
X69509224Y-63613039D01*
X69504243Y-63610716D01*
X69498935Y-63609294D01*
X69498933Y-63609293D01*
X69288402Y-63552881D01*
X69288400Y-63552881D01*
X69283087Y-63551457D01*
X69055000Y-63531502D01*
X68826913Y-63551457D01*
X68821600Y-63552881D01*
X68821598Y-63552881D01*
X68611067Y-63609293D01*
X68611065Y-63609294D01*
X68605757Y-63610716D01*
X68600776Y-63613039D01*
X68600775Y-63613039D01*
X68403238Y-63705151D01*
X68403233Y-63705154D01*
X68398251Y-63707477D01*
X68370418Y-63726966D01*
X68215211Y-63835643D01*
X68215208Y-63835645D01*
X68210700Y-63838802D01*
X68200398Y-63849104D01*
X68138086Y-63883130D01*
X68067271Y-63878065D01*
X68022208Y-63849104D01*
X61183300Y-57010195D01*
X61149274Y-56947883D01*
X61154339Y-56877068D01*
X61196886Y-56820232D01*
X61263406Y-56795421D01*
X61272395Y-56795100D01*
X71913206Y-56795100D01*
X71981327Y-56815102D01*
X72002301Y-56832005D01*
X78648919Y-63478623D01*
X78682945Y-63540935D01*
X78677880Y-63611750D01*
X78635333Y-63668586D01*
X78613073Y-63681913D01*
X78563242Y-63705149D01*
X78563239Y-63705151D01*
X78558251Y-63707477D01*
X78530418Y-63726966D01*
X78375211Y-63835643D01*
X78375208Y-63835645D01*
X78370700Y-63838802D01*
X78208802Y-64000700D01*
X78077477Y-64188251D01*
X78075154Y-64193233D01*
X78075151Y-64193238D01*
X78058919Y-64228049D01*
X78012002Y-64281334D01*
X77943725Y-64300795D01*
X77875765Y-64280253D01*
X77830529Y-64228049D01*
X77814414Y-64193489D01*
X77808931Y-64183993D01*
X77683972Y-64005533D01*
X77676916Y-63997125D01*
X77522875Y-63843084D01*
X77514467Y-63836028D01*
X77336007Y-63711069D01*
X77326511Y-63705586D01*
X77129053Y-63613510D01*
X77118761Y-63609764D01*
X76946497Y-63563606D01*
X76932401Y-63563942D01*
X76929000Y-63571884D01*
X76929000Y-66112967D01*
X76932973Y-66126498D01*
X76941522Y-66127727D01*
X77118761Y-66080236D01*
X77129053Y-66076490D01*
X77326511Y-65984414D01*
X77336007Y-65978931D01*
X77514467Y-65853972D01*
X77522875Y-65846916D01*
X77676916Y-65692875D01*
X77683972Y-65684467D01*
X77808931Y-65506007D01*
X77814414Y-65496511D01*
X77830529Y-65461951D01*
X77877446Y-65408666D01*
X77945723Y-65389205D01*
X78013683Y-65409747D01*
X78058919Y-65461951D01*
X78075151Y-65496762D01*
X78075154Y-65496767D01*
X78077477Y-65501749D01*
X78208802Y-65689300D01*
X78347795Y-65828293D01*
X78381821Y-65890605D01*
X78384700Y-65917388D01*
X78384700Y-66594120D01*
X78364698Y-66662241D01*
X78347875Y-66683136D01*
X78243895Y-66787297D01*
X78241098Y-66791835D01*
X78183847Y-66832424D01*
X78112924Y-66835654D01*
X78051513Y-66800028D01*
X78044138Y-66791532D01*
X78036102Y-66781393D01*
X77921371Y-66666861D01*
X77909960Y-66657849D01*
X77771957Y-66572784D01*
X77758776Y-66566637D01*
X77604490Y-66515462D01*
X77591114Y-66512595D01*
X77496762Y-66502928D01*
X77490345Y-66502600D01*
X77465315Y-66502600D01*
X77450076Y-66507075D01*
X77448871Y-66508465D01*
X77447200Y-66516148D01*
X77447200Y-67863600D01*
X77427198Y-67931721D01*
X77373542Y-67978214D01*
X77321200Y-67989600D01*
X76203316Y-67989600D01*
X76188077Y-67994075D01*
X76186872Y-67995465D01*
X76185201Y-68003148D01*
X76185201Y-68257695D01*
X76185538Y-68264214D01*
X76195457Y-68359806D01*
X76198349Y-68373200D01*
X76249788Y-68527384D01*
X76255961Y-68540562D01*
X76341263Y-68678407D01*
X76350299Y-68689808D01*
X76465029Y-68804339D01*
X76476440Y-68813351D01*
X76563054Y-68866740D01*
X76610547Y-68919512D01*
X76621971Y-68989583D01*
X76593697Y-69054707D01*
X76534703Y-69094207D01*
X76496938Y-69100000D01*
X34132100Y-69100000D01*
X34063979Y-69079998D01*
X34017486Y-69026342D01*
X34006100Y-68974000D01*
X34006100Y-67463485D01*
X76185200Y-67463485D01*
X76189675Y-67478724D01*
X76191065Y-67479929D01*
X76198748Y-67481600D01*
X76921085Y-67481600D01*
X76936324Y-67477125D01*
X76937529Y-67475735D01*
X76939200Y-67468052D01*
X76939200Y-66520716D01*
X76934725Y-66505477D01*
X76933335Y-66504272D01*
X76925652Y-66502601D01*
X76896105Y-66502601D01*
X76889586Y-66502938D01*
X76793994Y-66512857D01*
X76780600Y-66515749D01*
X76626416Y-66567188D01*
X76613238Y-66573361D01*
X76475393Y-66658663D01*
X76463992Y-66667699D01*
X76349461Y-66782429D01*
X76340449Y-66793840D01*
X76255384Y-66931843D01*
X76249237Y-66945024D01*
X76198062Y-67099310D01*
X76195195Y-67112686D01*
X76185528Y-67207038D01*
X76185200Y-67213455D01*
X76185200Y-67463485D01*
X34006100Y-67463485D01*
X34006100Y-25950261D01*
X35509410Y-25950261D01*
X35514817Y-26058869D01*
X35525681Y-26277104D01*
X35525947Y-26282455D01*
X35526588Y-26286186D01*
X35526589Y-26286194D01*
X35580770Y-26601503D01*
X35582274Y-26610257D01*
X35583362Y-26613896D01*
X35583363Y-26613899D01*
X35671169Y-26907500D01*
X35677574Y-26928918D01*
X35679087Y-26932389D01*
X35679089Y-26932395D01*
X35731941Y-27053657D01*
X35810466Y-27233822D01*
X35812389Y-27237093D01*
X35812391Y-27237097D01*
X35819853Y-27249790D01*
X35979026Y-27520552D01*
X35981327Y-27523567D01*
X36178512Y-27781942D01*
X36178517Y-27781948D01*
X36180812Y-27784955D01*
X36412902Y-28023202D01*
X36671932Y-28231840D01*
X36954152Y-28407848D01*
X37255472Y-28548676D01*
X37301885Y-28563891D01*
X37558702Y-28648080D01*
X37571529Y-28652285D01*
X37897744Y-28717173D01*
X37901516Y-28717460D01*
X37901524Y-28717461D01*
X38225615Y-28742114D01*
X38225620Y-28742114D01*
X38229392Y-28742401D01*
X38561669Y-28727603D01*
X38566201Y-28726849D01*
X38886020Y-28673617D01*
X38886025Y-28673616D01*
X38889761Y-28672994D01*
X39208916Y-28579364D01*
X39212383Y-28577874D01*
X39212387Y-28577873D01*
X39511028Y-28449566D01*
X39511030Y-28449565D01*
X39514512Y-28448069D01*
X39802121Y-28281013D01*
X39805143Y-28278732D01*
X39805147Y-28278729D01*
X40064553Y-28082897D01*
X40064554Y-28082896D01*
X40067577Y-28080614D01*
X40279428Y-27876388D01*
X40304308Y-27852404D01*
X40304309Y-27852403D01*
X40307035Y-27849775D01*
X40517027Y-27591841D01*
X40694510Y-27310547D01*
X40723295Y-27249790D01*
X40779119Y-27131959D01*
X40836914Y-27009967D01*
X40839835Y-27001214D01*
X40919061Y-26763744D01*
X40942177Y-26694457D01*
X41008772Y-26368586D01*
X41035736Y-26037075D01*
X41036117Y-26000649D01*
X41036319Y-25981421D01*
X41036319Y-25981414D01*
X41036342Y-25979200D01*
X41036209Y-25976989D01*
X41016555Y-25650972D01*
X41016554Y-25650965D01*
X41016327Y-25647197D01*
X40962517Y-25352565D01*
X40957251Y-25323730D01*
X40957250Y-25323725D01*
X40956570Y-25320003D01*
X40857939Y-25002357D01*
X40721861Y-24698862D01*
X40594671Y-24487601D01*
X40552266Y-24417166D01*
X40552262Y-24417160D01*
X40550307Y-24413913D01*
X40547980Y-24410929D01*
X40547975Y-24410922D01*
X40348094Y-24154625D01*
X40348088Y-24154618D01*
X40345763Y-24151637D01*
X40185118Y-23990148D01*
X40113862Y-23918518D01*
X40111192Y-23915834D01*
X39849991Y-23709920D01*
X39565944Y-23536877D01*
X39444846Y-23481817D01*
X39266617Y-23400780D01*
X39266609Y-23400777D01*
X39263165Y-23399211D01*
X38946040Y-23298918D01*
X38672384Y-23247457D01*
X38622887Y-23238149D01*
X38622885Y-23238149D01*
X38619164Y-23237449D01*
X38287270Y-23215696D01*
X38283490Y-23215904D01*
X38283489Y-23215904D01*
X38185718Y-23221285D01*
X37955166Y-23233973D01*
X37951439Y-23234634D01*
X37951435Y-23234634D01*
X37765160Y-23267647D01*
X37627664Y-23292015D01*
X37624039Y-23293120D01*
X37624034Y-23293121D01*
X37416483Y-23356378D01*
X37309507Y-23388982D01*
X37306043Y-23390513D01*
X37306036Y-23390516D01*
X37118851Y-23473270D01*
X37005303Y-23523469D01*
X37002049Y-23525405D01*
X37002043Y-23525408D01*
X36775749Y-23660039D01*
X36719459Y-23693528D01*
X36456116Y-23896696D01*
X36453417Y-23899352D01*
X36453418Y-23899352D01*
X36241124Y-24108337D01*
X36219088Y-24130029D01*
X36011809Y-24390149D01*
X35837281Y-24673286D01*
X35698032Y-24975340D01*
X35696873Y-24978940D01*
X35696870Y-24978947D01*
X35647673Y-25131722D01*
X35596080Y-25291935D01*
X35595361Y-25295651D01*
X35595359Y-25295659D01*
X35547357Y-25543762D01*
X35532900Y-25618485D01*
X35532633Y-25622261D01*
X35532632Y-25622266D01*
X35509678Y-25946472D01*
X35509410Y-25950261D01*
X34006100Y-25950261D01*
X34006100Y-22143300D01*
X34026102Y-22075179D01*
X34079758Y-22028686D01*
X34132100Y-22017300D01*
X126233500Y-22017300D01*
X126301621Y-22037302D01*
G37*
%TD.AperFunction*%
%TA.AperFunction,Conductor*%
G36*
X82047826Y-37571844D02*
G01*
X82075675Y-37603694D01*
X82135787Y-37701788D01*
X82282050Y-37870638D01*
X82453926Y-38013332D01*
X82488818Y-38033721D01*
X82527245Y-38056176D01*
X82575969Y-38107814D01*
X82589040Y-38177597D01*
X82562309Y-38243369D01*
X82521855Y-38276727D01*
X82509407Y-38283207D01*
X82505274Y-38286310D01*
X82505271Y-38286312D01*
X82334900Y-38414230D01*
X82330765Y-38417335D01*
X82327193Y-38421073D01*
X82244380Y-38507732D01*
X82176429Y-38578838D01*
X82173520Y-38583103D01*
X82173514Y-38583111D01*
X82121953Y-38658697D01*
X82069004Y-38736318D01*
X82068698Y-38736766D01*
X82013787Y-38781769D01*
X81943262Y-38789940D01*
X81879515Y-38758686D01*
X81858817Y-38734201D01*
X81828862Y-38687897D01*
X81818177Y-38678695D01*
X81808612Y-38683098D01*
X79942537Y-40549173D01*
X79935777Y-40561553D01*
X79941058Y-40568607D01*
X80102556Y-40662979D01*
X80111842Y-40667429D01*
X80310801Y-40743403D01*
X80320699Y-40746279D01*
X80529395Y-40788738D01*
X80539623Y-40789957D01*
X80681931Y-40795176D01*
X80749273Y-40817661D01*
X80793769Y-40872984D01*
X80801291Y-40943581D01*
X80766409Y-41010186D01*
X80480600Y-41295995D01*
X80418288Y-41330021D01*
X80391505Y-41332900D01*
X57898300Y-41332900D01*
X57830179Y-41312898D01*
X57810953Y-41296557D01*
X57810680Y-41296860D01*
X57805768Y-41292437D01*
X57801353Y-41287534D01*
X57646852Y-41175282D01*
X57640824Y-41172598D01*
X57640822Y-41172597D01*
X57478419Y-41100291D01*
X57478418Y-41100291D01*
X57472388Y-41097606D01*
X57378987Y-41077753D01*
X57292044Y-41059272D01*
X57292039Y-41059272D01*
X57285587Y-41057900D01*
X57094613Y-41057900D01*
X57088161Y-41059272D01*
X57088156Y-41059272D01*
X57001213Y-41077753D01*
X56907812Y-41097606D01*
X56901782Y-41100291D01*
X56901781Y-41100291D01*
X56739378Y-41172597D01*
X56739376Y-41172598D01*
X56733348Y-41175282D01*
X56578847Y-41287534D01*
X56574426Y-41292444D01*
X56571551Y-41295637D01*
X56511103Y-41332874D01*
X56440119Y-41331520D01*
X56388823Y-41300418D01*
X55918595Y-40830190D01*
X55884569Y-40767878D01*
X55889634Y-40697063D01*
X55932181Y-40640227D01*
X55952247Y-40627950D01*
X55993794Y-40607596D01*
X56175660Y-40477873D01*
X56333896Y-40320189D01*
X56367596Y-40273291D01*
X56464253Y-40138777D01*
X56465576Y-40139728D01*
X56512445Y-40096557D01*
X56582380Y-40084325D01*
X56647826Y-40111844D01*
X56675675Y-40143694D01*
X56735787Y-40241788D01*
X56882050Y-40410638D01*
X57053926Y-40553332D01*
X57246800Y-40666038D01*
X57455492Y-40745730D01*
X57460560Y-40746761D01*
X57460563Y-40746762D01*
X57527105Y-40760300D01*
X57674397Y-40790267D01*
X57679572Y-40790457D01*
X57679574Y-40790457D01*
X57892473Y-40798264D01*
X57892477Y-40798264D01*
X57897637Y-40798453D01*
X57902757Y-40797797D01*
X57902759Y-40797797D01*
X58114088Y-40770725D01*
X58114089Y-40770725D01*
X58119216Y-40770068D01*
X58139005Y-40764131D01*
X58328229Y-40707361D01*
X58328234Y-40707359D01*
X58333184Y-40705874D01*
X58533794Y-40607596D01*
X58715660Y-40477873D01*
X58873896Y-40320189D01*
X58907596Y-40273291D01*
X59004253Y-40138777D01*
X59005576Y-40139728D01*
X59052445Y-40096557D01*
X59122380Y-40084325D01*
X59187826Y-40111844D01*
X59215675Y-40143694D01*
X59275787Y-40241788D01*
X59422050Y-40410638D01*
X59593926Y-40553332D01*
X59786800Y-40666038D01*
X59995492Y-40745730D01*
X60000560Y-40746761D01*
X60000563Y-40746762D01*
X60067105Y-40760300D01*
X60214397Y-40790267D01*
X60219572Y-40790457D01*
X60219574Y-40790457D01*
X60432473Y-40798264D01*
X60432477Y-40798264D01*
X60437637Y-40798453D01*
X60442757Y-40797797D01*
X60442759Y-40797797D01*
X60654088Y-40770725D01*
X60654089Y-40770725D01*
X60659216Y-40770068D01*
X60679005Y-40764131D01*
X60868229Y-40707361D01*
X60868234Y-40707359D01*
X60873184Y-40705874D01*
X61073794Y-40607596D01*
X61255660Y-40477873D01*
X61413896Y-40320189D01*
X61447596Y-40273291D01*
X61544253Y-40138777D01*
X61545576Y-40139728D01*
X61592445Y-40096557D01*
X61662380Y-40084325D01*
X61727826Y-40111844D01*
X61755675Y-40143694D01*
X61815787Y-40241788D01*
X61962050Y-40410638D01*
X62133926Y-40553332D01*
X62326800Y-40666038D01*
X62535492Y-40745730D01*
X62540560Y-40746761D01*
X62540563Y-40746762D01*
X62607105Y-40760300D01*
X62754397Y-40790267D01*
X62759572Y-40790457D01*
X62759574Y-40790457D01*
X62972473Y-40798264D01*
X62972477Y-40798264D01*
X62977637Y-40798453D01*
X62982757Y-40797797D01*
X62982759Y-40797797D01*
X63194088Y-40770725D01*
X63194089Y-40770725D01*
X63199216Y-40770068D01*
X63219005Y-40764131D01*
X63408229Y-40707361D01*
X63408234Y-40707359D01*
X63413184Y-40705874D01*
X63613794Y-40607596D01*
X63795660Y-40477873D01*
X63953896Y-40320189D01*
X63987596Y-40273291D01*
X64084253Y-40138777D01*
X64085576Y-40139728D01*
X64132445Y-40096557D01*
X64202380Y-40084325D01*
X64267826Y-40111844D01*
X64295675Y-40143694D01*
X64355787Y-40241788D01*
X64502050Y-40410638D01*
X64673926Y-40553332D01*
X64866800Y-40666038D01*
X65075492Y-40745730D01*
X65080560Y-40746761D01*
X65080563Y-40746762D01*
X65147105Y-40760300D01*
X65294397Y-40790267D01*
X65299572Y-40790457D01*
X65299574Y-40790457D01*
X65512473Y-40798264D01*
X65512477Y-40798264D01*
X65517637Y-40798453D01*
X65522757Y-40797797D01*
X65522759Y-40797797D01*
X65734088Y-40770725D01*
X65734089Y-40770725D01*
X65739216Y-40770068D01*
X65759005Y-40764131D01*
X65948229Y-40707361D01*
X65948234Y-40707359D01*
X65953184Y-40705874D01*
X66153794Y-40607596D01*
X66335660Y-40477873D01*
X66493896Y-40320189D01*
X66527596Y-40273291D01*
X66624253Y-40138777D01*
X66625576Y-40139728D01*
X66672445Y-40096557D01*
X66742380Y-40084325D01*
X66807826Y-40111844D01*
X66835675Y-40143694D01*
X66895787Y-40241788D01*
X67042050Y-40410638D01*
X67213926Y-40553332D01*
X67406800Y-40666038D01*
X67615492Y-40745730D01*
X67620560Y-40746761D01*
X67620563Y-40746762D01*
X67687105Y-40760300D01*
X67834397Y-40790267D01*
X67839572Y-40790457D01*
X67839574Y-40790457D01*
X68052473Y-40798264D01*
X68052477Y-40798264D01*
X68057637Y-40798453D01*
X68062757Y-40797797D01*
X68062759Y-40797797D01*
X68274088Y-40770725D01*
X68274089Y-40770725D01*
X68279216Y-40770068D01*
X68299005Y-40764131D01*
X68488229Y-40707361D01*
X68488234Y-40707359D01*
X68493184Y-40705874D01*
X68693794Y-40607596D01*
X68875660Y-40477873D01*
X69033896Y-40320189D01*
X69067596Y-40273291D01*
X69164253Y-40138777D01*
X69165576Y-40139728D01*
X69212445Y-40096557D01*
X69282380Y-40084325D01*
X69347826Y-40111844D01*
X69375675Y-40143694D01*
X69435787Y-40241788D01*
X69582050Y-40410638D01*
X69753926Y-40553332D01*
X69946800Y-40666038D01*
X70155492Y-40745730D01*
X70160560Y-40746761D01*
X70160563Y-40746762D01*
X70227105Y-40760300D01*
X70374397Y-40790267D01*
X70379572Y-40790457D01*
X70379574Y-40790457D01*
X70592473Y-40798264D01*
X70592477Y-40798264D01*
X70597637Y-40798453D01*
X70602757Y-40797797D01*
X70602759Y-40797797D01*
X70814088Y-40770725D01*
X70814089Y-40770725D01*
X70819216Y-40770068D01*
X70839005Y-40764131D01*
X71028229Y-40707361D01*
X71028234Y-40707359D01*
X71033184Y-40705874D01*
X71233794Y-40607596D01*
X71415660Y-40477873D01*
X71573896Y-40320189D01*
X71607596Y-40273291D01*
X71704253Y-40138777D01*
X71705576Y-40139728D01*
X71752445Y-40096557D01*
X71822380Y-40084325D01*
X71887826Y-40111844D01*
X71915675Y-40143694D01*
X71975787Y-40241788D01*
X72122050Y-40410638D01*
X72293926Y-40553332D01*
X72486800Y-40666038D01*
X72695492Y-40745730D01*
X72700560Y-40746761D01*
X72700563Y-40746762D01*
X72767105Y-40760300D01*
X72914397Y-40790267D01*
X72919572Y-40790457D01*
X72919574Y-40790457D01*
X73132473Y-40798264D01*
X73132477Y-40798264D01*
X73137637Y-40798453D01*
X73142757Y-40797797D01*
X73142759Y-40797797D01*
X73354088Y-40770725D01*
X73354089Y-40770725D01*
X73359216Y-40770068D01*
X73379005Y-40764131D01*
X73568229Y-40707361D01*
X73568234Y-40707359D01*
X73573184Y-40705874D01*
X73773794Y-40607596D01*
X73955660Y-40477873D01*
X74113896Y-40320189D01*
X74147596Y-40273291D01*
X74244253Y-40138777D01*
X74245576Y-40139728D01*
X74292445Y-40096557D01*
X74362380Y-40084325D01*
X74427826Y-40111844D01*
X74455675Y-40143694D01*
X74515787Y-40241788D01*
X74662050Y-40410638D01*
X74833926Y-40553332D01*
X75026800Y-40666038D01*
X75235492Y-40745730D01*
X75240560Y-40746761D01*
X75240563Y-40746762D01*
X75307105Y-40760300D01*
X75454397Y-40790267D01*
X75459572Y-40790457D01*
X75459574Y-40790457D01*
X75672473Y-40798264D01*
X75672477Y-40798264D01*
X75677637Y-40798453D01*
X75682757Y-40797797D01*
X75682759Y-40797797D01*
X75894088Y-40770725D01*
X75894089Y-40770725D01*
X75899216Y-40770068D01*
X75919005Y-40764131D01*
X76108229Y-40707361D01*
X76108234Y-40707359D01*
X76113184Y-40705874D01*
X76313794Y-40607596D01*
X76495660Y-40477873D01*
X76653896Y-40320189D01*
X76687596Y-40273291D01*
X76784253Y-40138777D01*
X76785576Y-40139728D01*
X76832445Y-40096557D01*
X76902380Y-40084325D01*
X76967826Y-40111844D01*
X76995675Y-40143694D01*
X77055787Y-40241788D01*
X77202050Y-40410638D01*
X77373926Y-40553332D01*
X77566800Y-40666038D01*
X77775492Y-40745730D01*
X77780560Y-40746761D01*
X77780563Y-40746762D01*
X77847105Y-40760300D01*
X77994397Y-40790267D01*
X77999572Y-40790457D01*
X77999574Y-40790457D01*
X78212473Y-40798264D01*
X78212477Y-40798264D01*
X78217637Y-40798453D01*
X78222757Y-40797797D01*
X78222759Y-40797797D01*
X78434088Y-40770725D01*
X78434089Y-40770725D01*
X78439216Y-40770068D01*
X78459005Y-40764131D01*
X78648229Y-40707361D01*
X78648234Y-40707359D01*
X78653184Y-40705874D01*
X78853794Y-40607596D01*
X79035660Y-40477873D01*
X79193896Y-40320189D01*
X79227596Y-40273291D01*
X79324253Y-40138777D01*
X79325440Y-40139630D01*
X79372760Y-40096062D01*
X79442697Y-40083845D01*
X79508138Y-40111378D01*
X79535966Y-40143212D01*
X79562259Y-40186119D01*
X79572716Y-40195580D01*
X79581494Y-40191796D01*
X80323778Y-39449512D01*
X80331392Y-39435568D01*
X80331261Y-39433735D01*
X80327010Y-39427120D01*
X79585649Y-38685759D01*
X79574113Y-38679459D01*
X79561831Y-38689082D01*
X79529299Y-38736772D01*
X79474387Y-38781775D01*
X79403863Y-38789946D01*
X79340116Y-38758692D01*
X79319418Y-38734208D01*
X79238622Y-38609317D01*
X79238620Y-38609314D01*
X79235814Y-38604977D01*
X79085470Y-38439751D01*
X79081419Y-38436552D01*
X79081415Y-38436548D01*
X78914214Y-38304500D01*
X78914210Y-38304498D01*
X78910159Y-38301298D01*
X78868853Y-38278496D01*
X78818884Y-38228064D01*
X78804112Y-38158621D01*
X78829228Y-38092216D01*
X78856580Y-38065609D01*
X78901285Y-38033721D01*
X79035660Y-37937873D01*
X79080229Y-37893460D01*
X79190235Y-37783837D01*
X79193896Y-37780189D01*
X79253394Y-37697389D01*
X79324253Y-37598777D01*
X79325576Y-37599728D01*
X79372445Y-37556557D01*
X79442380Y-37544325D01*
X79507826Y-37571844D01*
X79535675Y-37603694D01*
X79595787Y-37701788D01*
X79742050Y-37870638D01*
X79913926Y-38013332D01*
X79948818Y-38033721D01*
X79987755Y-38056474D01*
X80036479Y-38108112D01*
X80049550Y-38177895D01*
X80022819Y-38243667D01*
X79982362Y-38277027D01*
X79974260Y-38281244D01*
X79965534Y-38286739D01*
X79945477Y-38301799D01*
X79937023Y-38313127D01*
X79943768Y-38325458D01*
X80682988Y-39064678D01*
X80696932Y-39072292D01*
X80698765Y-39072161D01*
X80705380Y-39067910D01*
X81449189Y-38324101D01*
X81456210Y-38311244D01*
X81449411Y-38301913D01*
X81445359Y-38299221D01*
X81408402Y-38278820D01*
X81358431Y-38228387D01*
X81343659Y-38158945D01*
X81368775Y-38092539D01*
X81396127Y-38065932D01*
X81441285Y-38033721D01*
X81575660Y-37937873D01*
X81620229Y-37893460D01*
X81730235Y-37783837D01*
X81733896Y-37780189D01*
X81793394Y-37697389D01*
X81864253Y-37598777D01*
X81865576Y-37599728D01*
X81912445Y-37556557D01*
X81982380Y-37544325D01*
X82047826Y-37571844D01*
G37*
%TD.AperFunction*%
%TD*%
M02*
