%TF.GenerationSoftware,KiCad,Pcbnew,7.0.7*%
%TF.CreationDate,2023-10-18T23:03:51+01:00*%
%TF.ProjectId,CPC464-2MINIRS232C,43504334-3634-42d3-924d-494e49525332,rev?*%
%TF.SameCoordinates,Original*%
%TF.FileFunction,Drillmap*%
%TF.FilePolarity,Positive*%
%FSLAX45Y45*%
G04 Gerber Fmt 4.5, Leading zero omitted, Abs format (unit mm)*
G04 Created by KiCad (PCBNEW 7.0.7) date 2023-10-18 23:03:51*
%MOMM*%
%LPD*%
G01*
G04 APERTURE LIST*
%ADD10C,0.100000*%
%ADD11C,0.200000*%
G04 APERTURE END LIST*
D10*
X7127500Y-3865000D02*
X7130000Y-3867500D01*
X12057500Y-3867500D01*
X12057500Y-12365000D01*
X2720000Y-12365000D01*
X2720000Y-3865000D01*
X3757500Y-3865000D01*
X3757500Y-2580000D01*
X7127500Y-2580000D01*
X7127500Y-3865000D01*
D11*
X2975777Y-12681484D02*
X2975777Y-12481484D01*
X2975777Y-12481484D02*
X3023396Y-12481484D01*
X3023396Y-12481484D02*
X3051967Y-12491008D01*
X3051967Y-12491008D02*
X3071015Y-12510055D01*
X3071015Y-12510055D02*
X3080539Y-12529103D01*
X3080539Y-12529103D02*
X3090062Y-12567198D01*
X3090062Y-12567198D02*
X3090062Y-12595769D01*
X3090062Y-12595769D02*
X3080539Y-12633865D01*
X3080539Y-12633865D02*
X3071015Y-12652912D01*
X3071015Y-12652912D02*
X3051967Y-12671960D01*
X3051967Y-12671960D02*
X3023396Y-12681484D01*
X3023396Y-12681484D02*
X2975777Y-12681484D01*
X3175777Y-12681484D02*
X3175777Y-12548150D01*
X3175777Y-12586246D02*
X3185301Y-12567198D01*
X3185301Y-12567198D02*
X3194824Y-12557674D01*
X3194824Y-12557674D02*
X3213872Y-12548150D01*
X3213872Y-12548150D02*
X3232920Y-12548150D01*
X3299586Y-12681484D02*
X3299586Y-12548150D01*
X3299586Y-12481484D02*
X3290062Y-12491008D01*
X3290062Y-12491008D02*
X3299586Y-12500531D01*
X3299586Y-12500531D02*
X3309110Y-12491008D01*
X3309110Y-12491008D02*
X3299586Y-12481484D01*
X3299586Y-12481484D02*
X3299586Y-12500531D01*
X3423396Y-12681484D02*
X3404348Y-12671960D01*
X3404348Y-12671960D02*
X3394824Y-12652912D01*
X3394824Y-12652912D02*
X3394824Y-12481484D01*
X3528158Y-12681484D02*
X3509110Y-12671960D01*
X3509110Y-12671960D02*
X3499586Y-12652912D01*
X3499586Y-12652912D02*
X3499586Y-12481484D01*
X3756729Y-12681484D02*
X3756729Y-12481484D01*
X3756729Y-12481484D02*
X3823396Y-12624341D01*
X3823396Y-12624341D02*
X3890062Y-12481484D01*
X3890062Y-12481484D02*
X3890062Y-12681484D01*
X4071015Y-12681484D02*
X4071015Y-12576722D01*
X4071015Y-12576722D02*
X4061491Y-12557674D01*
X4061491Y-12557674D02*
X4042443Y-12548150D01*
X4042443Y-12548150D02*
X4004348Y-12548150D01*
X4004348Y-12548150D02*
X3985301Y-12557674D01*
X4071015Y-12671960D02*
X4051967Y-12681484D01*
X4051967Y-12681484D02*
X4004348Y-12681484D01*
X4004348Y-12681484D02*
X3985301Y-12671960D01*
X3985301Y-12671960D02*
X3975777Y-12652912D01*
X3975777Y-12652912D02*
X3975777Y-12633865D01*
X3975777Y-12633865D02*
X3985301Y-12614817D01*
X3985301Y-12614817D02*
X4004348Y-12605293D01*
X4004348Y-12605293D02*
X4051967Y-12605293D01*
X4051967Y-12605293D02*
X4071015Y-12595769D01*
X4166253Y-12548150D02*
X4166253Y-12748150D01*
X4166253Y-12557674D02*
X4185301Y-12548150D01*
X4185301Y-12548150D02*
X4223396Y-12548150D01*
X4223396Y-12548150D02*
X4242444Y-12557674D01*
X4242444Y-12557674D02*
X4251967Y-12567198D01*
X4251967Y-12567198D02*
X4261491Y-12586246D01*
X4261491Y-12586246D02*
X4261491Y-12643388D01*
X4261491Y-12643388D02*
X4251967Y-12662436D01*
X4251967Y-12662436D02*
X4242444Y-12671960D01*
X4242444Y-12671960D02*
X4223396Y-12681484D01*
X4223396Y-12681484D02*
X4185301Y-12681484D01*
X4185301Y-12681484D02*
X4166253Y-12671960D01*
X4347205Y-12662436D02*
X4356729Y-12671960D01*
X4356729Y-12671960D02*
X4347205Y-12681484D01*
X4347205Y-12681484D02*
X4337682Y-12671960D01*
X4337682Y-12671960D02*
X4347205Y-12662436D01*
X4347205Y-12662436D02*
X4347205Y-12681484D01*
X4347205Y-12557674D02*
X4356729Y-12567198D01*
X4356729Y-12567198D02*
X4347205Y-12576722D01*
X4347205Y-12576722D02*
X4337682Y-12567198D01*
X4337682Y-12567198D02*
X4347205Y-12557674D01*
X4347205Y-12557674D02*
X4347205Y-12576722D01*
M02*
