%TF.GenerationSoftware,KiCad,Pcbnew,7.0.7*%
%TF.CreationDate,2023-10-18T23:04:20+01:00*%
%TF.ProjectId,CPC464-2MINIRS232C,43504334-3634-42d3-924d-494e49525332,rev?*%
%TF.SameCoordinates,Original*%
%TF.FileFunction,Copper,L2,Bot*%
%TF.FilePolarity,Positive*%
%FSLAX46Y46*%
G04 Gerber Fmt 4.6, Leading zero omitted, Abs format (unit mm)*
G04 Created by KiCad (PCBNEW 7.0.7) date 2023-10-18 23:04:21*
%MOMM*%
%LPD*%
G01*
G04 APERTURE LIST*
G04 Aperture macros list*
%AMRoundRect*
0 Rectangle with rounded corners*
0 $1 Rounding radius*
0 $2 $3 $4 $5 $6 $7 $8 $9 X,Y pos of 4 corners*
0 Add a 4 corners polygon primitive as box body*
4,1,4,$2,$3,$4,$5,$6,$7,$8,$9,$2,$3,0*
0 Add four circle primitives for the rounded corners*
1,1,$1+$1,$2,$3*
1,1,$1+$1,$4,$5*
1,1,$1+$1,$6,$7*
1,1,$1+$1,$8,$9*
0 Add four rect primitives between the rounded corners*
20,1,$1+$1,$2,$3,$4,$5,0*
20,1,$1+$1,$4,$5,$6,$7,0*
20,1,$1+$1,$6,$7,$8,$9,0*
20,1,$1+$1,$8,$9,$2,$3,0*%
G04 Aperture macros list end*
%TA.AperFunction,ComponentPad*%
%ADD10C,4.500000*%
%TD*%
%TA.AperFunction,ComponentPad*%
%ADD11C,4.000000*%
%TD*%
%TA.AperFunction,ComponentPad*%
%ADD12R,1.600000X1.600000*%
%TD*%
%TA.AperFunction,ComponentPad*%
%ADD13C,1.600000*%
%TD*%
%TA.AperFunction,ComponentPad*%
%ADD14RoundRect,0.250000X0.600000X-0.600000X0.600000X0.600000X-0.600000X0.600000X-0.600000X-0.600000X0*%
%TD*%
%TA.AperFunction,ComponentPad*%
%ADD15C,1.700000*%
%TD*%
%TA.AperFunction,ComponentPad*%
%ADD16O,1.600000X1.600000*%
%TD*%
%TA.AperFunction,ViaPad*%
%ADD17C,0.800000*%
%TD*%
%TA.AperFunction,Conductor*%
%ADD18C,0.250000*%
%TD*%
%TA.AperFunction,Conductor*%
%ADD19C,0.400000*%
%TD*%
%TA.AperFunction,Conductor*%
%ADD20C,1.080000*%
%TD*%
%TA.AperFunction,Conductor*%
%ADD21C,0.540000*%
%TD*%
%TA.AperFunction,Conductor*%
%ADD22C,0.254000*%
%TD*%
G04 APERTURE END LIST*
D10*
%TO.P,H7,1,1*%
%TO.N,GND*%
X75411000Y-93930000D03*
%TD*%
D11*
%TO.P,PL505,0,PAD*%
%TO.N,GND*%
X41964200Y-35286100D03*
X66964200Y-35286100D03*
D12*
%TO.P,PL505,1,1*%
%TO.N,RS_DCD*%
X60004200Y-36706100D03*
D13*
%TO.P,PL505,2,2*%
%TO.N,RS_TX*%
X57234200Y-36706100D03*
%TO.P,PL505,3,3*%
%TO.N,RS_RX*%
X54464200Y-36706100D03*
%TO.P,PL505,4,4*%
%TO.N,RS_DTR*%
X51694200Y-36706100D03*
%TO.P,PL505,5,5*%
%TO.N,GND*%
X48924200Y-36706100D03*
%TO.P,PL505,6,6*%
%TO.N,unconnected-(PL505-Pad6)*%
X58619200Y-33866100D03*
%TO.P,PL505,7,7*%
%TO.N,RS_RTS*%
X55849200Y-33866100D03*
%TO.P,PL505,8,8*%
%TO.N,RS_CTS*%
X53079200Y-33866100D03*
%TO.P,PL505,9,9*%
%TO.N,RS_RI*%
X50309200Y-33866100D03*
%TD*%
D14*
%TO.P,CE1050,1,Pin_1*%
%TO.N,SOUND*%
X41380000Y-45040000D03*
D15*
%TO.P,CE1050,2,Pin_2*%
%TO.N,GND*%
X41380000Y-42500000D03*
%TO.P,CE1050,3,Pin_3*%
%TO.N,/AMSRS232C SM Edited/A15*%
X43920000Y-45040000D03*
%TO.P,CE1050,4,Pin_4*%
%TO.N,/AMSRS232C SM Edited/A14*%
X43920000Y-42500000D03*
%TO.P,CE1050,5,Pin_5*%
%TO.N,/AMSRS232C SM Edited/A13*%
X46460000Y-45040000D03*
%TO.P,CE1050,6,Pin_6*%
%TO.N,/AMSRS232C SM Edited/A12*%
X46460000Y-42500000D03*
%TO.P,CE1050,7,Pin_7*%
%TO.N,/AMSRS232C SM Edited/A11*%
X49000000Y-45040000D03*
%TO.P,CE1050,8,Pin_8*%
%TO.N,/AMSRS232C SM Edited/A10*%
X49000000Y-42500000D03*
%TO.P,CE1050,9,Pin_9*%
%TO.N,/AMSRS232C SM Edited/A9*%
X51540000Y-45040000D03*
%TO.P,CE1050,10,Pin_10*%
%TO.N,/AMSRS232C SM Edited/A8*%
X51540000Y-42500000D03*
%TO.P,CE1050,11,Pin_11*%
%TO.N,/AMSRS232C SM Edited/A7*%
X54080000Y-45040000D03*
%TO.P,CE1050,12,Pin_12*%
%TO.N,/AMSRS232C SM Edited/A6*%
X54080000Y-42500000D03*
%TO.P,CE1050,13,Pin_13*%
%TO.N,/AMSRS232C SM Edited/A5*%
X56620000Y-45040000D03*
%TO.P,CE1050,14,Pin_14*%
%TO.N,/AMSRS232C SM Edited/A4*%
X56620000Y-42500000D03*
%TO.P,CE1050,15,Pin_15*%
%TO.N,/AMSRS232C SM Edited/A3*%
X59160000Y-45040000D03*
%TO.P,CE1050,16,Pin_16*%
%TO.N,/AMSRS232C SM Edited/A2*%
X59160000Y-42500000D03*
%TO.P,CE1050,17,Pin_17*%
%TO.N,/AMSRS232C SM Edited/A1*%
X61700000Y-45040000D03*
%TO.P,CE1050,18,Pin_18*%
%TO.N,/AMSRS232C SM Edited/A0*%
X61700000Y-42500000D03*
%TO.P,CE1050,19,Pin_19*%
%TO.N,/AMSRS232C SM Edited/D7*%
X64240000Y-45040000D03*
%TO.P,CE1050,20,Pin_20*%
%TO.N,/AMSRS232C SM Edited/D6*%
X64240000Y-42500000D03*
%TO.P,CE1050,21,Pin_21*%
%TO.N,/AMSRS232C SM Edited/D5*%
X66780000Y-45040000D03*
%TO.P,CE1050,22,Pin_22*%
%TO.N,/AMSRS232C SM Edited/D4*%
X66780000Y-42500000D03*
%TO.P,CE1050,23,Pin_23*%
%TO.N,/AMSRS232C SM Edited/D3*%
X69320000Y-45040000D03*
%TO.P,CE1050,24,Pin_24*%
%TO.N,/AMSRS232C SM Edited/D2*%
X69320000Y-42500000D03*
%TO.P,CE1050,25,Pin_25*%
%TO.N,/AMSRS232C SM Edited/D1*%
X71860000Y-45040000D03*
%TO.P,CE1050,26,Pin_26*%
%TO.N,/AMSRS232C SM Edited/D0*%
X71860000Y-42500000D03*
%TO.P,CE1050,27,Pin_27*%
%TO.N,+5V*%
X74400000Y-45040000D03*
%TO.P,CE1050,28,Pin_28*%
%TO.N,MREQ*%
X74400000Y-42500000D03*
%TO.P,CE1050,29,Pin_29*%
%TO.N,M1*%
X76940000Y-45040000D03*
%TO.P,CE1050,30,Pin_30*%
%TO.N,RFSH*%
X76940000Y-42500000D03*
%TO.P,CE1050,31,Pin_31*%
%TO.N,IORQ*%
X79480000Y-45040000D03*
%TO.P,CE1050,32,Pin_32*%
%TO.N,RD*%
X79480000Y-42500000D03*
%TO.P,CE1050,33,Pin_33*%
%TO.N,WR*%
X82020000Y-45040000D03*
%TO.P,CE1050,34,Pin_34*%
%TO.N,HALT*%
X82020000Y-42500000D03*
%TO.P,CE1050,35,Pin_35*%
%TO.N,INT*%
X84560000Y-45040000D03*
%TO.P,CE1050,36,Pin_36*%
%TO.N,NMI*%
X84560000Y-42500000D03*
%TO.P,CE1050,37,Pin_37*%
%TO.N,BUSRQ*%
X87100000Y-45040000D03*
%TO.P,CE1050,38,Pin_38*%
%TO.N,BUSAK*%
X87100000Y-42500000D03*
%TO.P,CE1050,39,Pin_39*%
%TO.N,READY*%
X89640000Y-45040000D03*
%TO.P,CE1050,40,Pin_40*%
%TO.N,BUS*%
X89640000Y-42500000D03*
%TO.P,CE1050,41,Pin_41*%
%TO.N,RESET*%
X92180000Y-45040000D03*
%TO.P,CE1050,42,Pin_42*%
%TO.N,ROMEN*%
X92180000Y-42500000D03*
%TO.P,CE1050,43,Pin_43*%
%TO.N,ROMDIS*%
X94720000Y-45040000D03*
%TO.P,CE1050,44,Pin_44*%
%TO.N,RAMRD*%
X94720000Y-42500000D03*
%TO.P,CE1050,45,Pin_45*%
%TO.N,RAMDIS*%
X97260000Y-45040000D03*
%TO.P,CE1050,46,Pin_46*%
%TO.N,CURSOR*%
X97260000Y-42500000D03*
%TO.P,CE1050,47,Pin_47*%
%TO.N,LPEN*%
X99800000Y-45040000D03*
%TO.P,CE1050,48,Pin_48*%
%TO.N,EXP*%
X99800000Y-42500000D03*
%TO.P,CE1050,49,Pin_49*%
%TO.N,GND*%
X102340000Y-45040000D03*
%TO.P,CE1050,50,Pin_50*%
%TO.N,A100*%
X102340000Y-42500000D03*
%TD*%
D12*
%TO.P,C513,1*%
%TO.N,Net-(IC510-C1+)*%
X44744900Y-91225000D03*
D13*
%TO.P,C513,2*%
%TO.N,Net-(IC510-C1-)*%
X46744900Y-91225000D03*
%TD*%
D10*
%TO.P,H1,1,1*%
%TO.N,GND*%
X31977000Y-43130000D03*
%TD*%
D13*
%TO.P,LK503,1,Pin_1*%
%TO.N,Net-(LK503-Pin_1)*%
X68800000Y-102700000D03*
%TO.P,LK503,2,Pin_2*%
%TO.N,GND*%
X63800000Y-102700000D03*
%TD*%
D12*
%TO.P,C512,1*%
%TO.N,Net-(IC510-C2+)*%
X46655100Y-68825000D03*
D13*
%TO.P,C512,2*%
%TO.N,Net-(IC510-C2-)*%
X44655100Y-68825000D03*
%TD*%
D14*
%TO.P,CE1051,1,Pin_1*%
%TO.N,SOUND*%
X41380000Y-56587500D03*
D15*
%TO.P,CE1051,2,Pin_2*%
%TO.N,GND*%
X41380000Y-54047500D03*
%TO.P,CE1051,3,Pin_3*%
%TO.N,/AMSRS232C SM Edited/A15*%
X43920000Y-56587500D03*
%TO.P,CE1051,4,Pin_4*%
%TO.N,/AMSRS232C SM Edited/A14*%
X43920000Y-54047500D03*
%TO.P,CE1051,5,Pin_5*%
%TO.N,/AMSRS232C SM Edited/A13*%
X46460000Y-56587500D03*
%TO.P,CE1051,6,Pin_6*%
%TO.N,/AMSRS232C SM Edited/A12*%
X46460000Y-54047500D03*
%TO.P,CE1051,7,Pin_7*%
%TO.N,/AMSRS232C SM Edited/A11*%
X49000000Y-56587500D03*
%TO.P,CE1051,8,Pin_8*%
%TO.N,/AMSRS232C SM Edited/A10*%
X49000000Y-54047500D03*
%TO.P,CE1051,9,Pin_9*%
%TO.N,/AMSRS232C SM Edited/A9*%
X51540000Y-56587500D03*
%TO.P,CE1051,10,Pin_10*%
%TO.N,/AMSRS232C SM Edited/A8*%
X51540000Y-54047500D03*
%TO.P,CE1051,11,Pin_11*%
%TO.N,/AMSRS232C SM Edited/A7*%
X54080000Y-56587500D03*
%TO.P,CE1051,12,Pin_12*%
%TO.N,/AMSRS232C SM Edited/A6*%
X54080000Y-54047500D03*
%TO.P,CE1051,13,Pin_13*%
%TO.N,/AMSRS232C SM Edited/A5*%
X56620000Y-56587500D03*
%TO.P,CE1051,14,Pin_14*%
%TO.N,/AMSRS232C SM Edited/A4*%
X56620000Y-54047500D03*
%TO.P,CE1051,15,Pin_15*%
%TO.N,/AMSRS232C SM Edited/A3*%
X59160000Y-56587500D03*
%TO.P,CE1051,16,Pin_16*%
%TO.N,/AMSRS232C SM Edited/A2*%
X59160000Y-54047500D03*
%TO.P,CE1051,17,Pin_17*%
%TO.N,/AMSRS232C SM Edited/A1*%
X61700000Y-56587500D03*
%TO.P,CE1051,18,Pin_18*%
%TO.N,/AMSRS232C SM Edited/A0*%
X61700000Y-54047500D03*
%TO.P,CE1051,19,Pin_19*%
%TO.N,/AMSRS232C SM Edited/D7*%
X64240000Y-56587500D03*
%TO.P,CE1051,20,Pin_20*%
%TO.N,/AMSRS232C SM Edited/D6*%
X64240000Y-54047500D03*
%TO.P,CE1051,21,Pin_21*%
%TO.N,/AMSRS232C SM Edited/D5*%
X66780000Y-56587500D03*
%TO.P,CE1051,22,Pin_22*%
%TO.N,/AMSRS232C SM Edited/D4*%
X66780000Y-54047500D03*
%TO.P,CE1051,23,Pin_23*%
%TO.N,/AMSRS232C SM Edited/D3*%
X69320000Y-56587500D03*
%TO.P,CE1051,24,Pin_24*%
%TO.N,/AMSRS232C SM Edited/D2*%
X69320000Y-54047500D03*
%TO.P,CE1051,25,Pin_25*%
%TO.N,/AMSRS232C SM Edited/D1*%
X71860000Y-56587500D03*
%TO.P,CE1051,26,Pin_26*%
%TO.N,/AMSRS232C SM Edited/D0*%
X71860000Y-54047500D03*
%TO.P,CE1051,27,Pin_27*%
%TO.N,+5V*%
X74400000Y-56587500D03*
%TO.P,CE1051,28,Pin_28*%
%TO.N,MREQ*%
X74400000Y-54047500D03*
%TO.P,CE1051,29,Pin_29*%
%TO.N,M1*%
X76940000Y-56587500D03*
%TO.P,CE1051,30,Pin_30*%
%TO.N,RFSH*%
X76940000Y-54047500D03*
%TO.P,CE1051,31,Pin_31*%
%TO.N,IORQ*%
X79480000Y-56587500D03*
%TO.P,CE1051,32,Pin_32*%
%TO.N,RD*%
X79480000Y-54047500D03*
%TO.P,CE1051,33,Pin_33*%
%TO.N,WR*%
X82020000Y-56587500D03*
%TO.P,CE1051,34,Pin_34*%
%TO.N,HALT*%
X82020000Y-54047500D03*
%TO.P,CE1051,35,Pin_35*%
%TO.N,INT*%
X84560000Y-56587500D03*
%TO.P,CE1051,36,Pin_36*%
%TO.N,NMI*%
X84560000Y-54047500D03*
%TO.P,CE1051,37,Pin_37*%
%TO.N,BUSRQ*%
X87100000Y-56587500D03*
%TO.P,CE1051,38,Pin_38*%
%TO.N,BUSAK*%
X87100000Y-54047500D03*
%TO.P,CE1051,39,Pin_39*%
%TO.N,READY*%
X89640000Y-56587500D03*
%TO.P,CE1051,40,Pin_40*%
%TO.N,BUS*%
X89640000Y-54047500D03*
%TO.P,CE1051,41,Pin_41*%
%TO.N,RESET*%
X92180000Y-56587500D03*
%TO.P,CE1051,42,Pin_42*%
%TO.N,ROMEN*%
X92180000Y-54047500D03*
%TO.P,CE1051,43,Pin_43*%
%TO.N,ROMDIS*%
X94720000Y-56587500D03*
%TO.P,CE1051,44,Pin_44*%
%TO.N,RAMRD*%
X94720000Y-54047500D03*
%TO.P,CE1051,45,Pin_45*%
%TO.N,RAMDIS*%
X97260000Y-56587500D03*
%TO.P,CE1051,46,Pin_46*%
%TO.N,CURSOR*%
X97260000Y-54047500D03*
%TO.P,CE1051,47,Pin_47*%
%TO.N,LPEN*%
X99800000Y-56587500D03*
%TO.P,CE1051,48,Pin_48*%
%TO.N,EXP*%
X99800000Y-54047500D03*
%TO.P,CE1051,49,Pin_49*%
%TO.N,GND*%
X102340000Y-56587500D03*
%TO.P,CE1051,50,Pin_50*%
%TO.N,A100*%
X102340000Y-54047500D03*
%TD*%
D12*
%TO.P,IC505,1,D1*%
%TO.N,/AMSRS232C SM Edited/D1*%
X31625000Y-120550000D03*
D16*
%TO.P,IC505,2,D3*%
%TO.N,/AMSRS232C SM Edited/D3*%
X34165000Y-120550000D03*
%TO.P,IC505,3,D5*%
%TO.N,/AMSRS232C SM Edited/D5*%
X36705000Y-120550000D03*
%TO.P,IC505,4,D7*%
%TO.N,/AMSRS232C SM Edited/D7*%
X39245000Y-120550000D03*
%TO.P,IC505,5,~{INT}*%
%TO.N,INT*%
X41785000Y-120550000D03*
%TO.P,IC505,6,IEI*%
%TO.N,+5V*%
X44325000Y-120550000D03*
%TO.P,IC505,7,IEO*%
%TO.N,unconnected-(IC505-IEO-Pad7)*%
X46865000Y-120550000D03*
%TO.P,IC505,8,~{M1}*%
%TO.N,M1*%
X49405000Y-120550000D03*
%TO.P,IC505,9,VCC*%
%TO.N,+5V*%
X51945000Y-120550000D03*
%TO.P,IC505,10,~{W/RDYA}*%
%TO.N,unconnected-(IC505-~{W{slash}RDYA}-Pad10)*%
X54485000Y-120550000D03*
%TO.P,IC505,11,~{RIA}*%
%TO.N,/AMSRS232C SM Edited/RI_IN*%
X57025000Y-120550000D03*
%TO.P,IC505,12,RxDA*%
%TO.N,/AMSRS232C SM Edited/TX_IN*%
X59565000Y-120550000D03*
%TO.P,IC505,13,~{RxCA}*%
%TO.N,Net-(IC504-OUT1)*%
X62105000Y-120550000D03*
%TO.P,IC505,14,~{TxCA}*%
%TO.N,Net-(IC504-OUT0)*%
X64645000Y-120550000D03*
%TO.P,IC505,15,TxDA*%
%TO.N,/AMSRS232C SM Edited/RX_OUT*%
X67185000Y-120550000D03*
%TO.P,IC505,16,~{DTRA}*%
%TO.N,/AMSRS232C SM Edited/DTR_OUT*%
X69725000Y-120550000D03*
%TO.P,IC505,17,~{RTSA}*%
%TO.N,/AMSRS232C SM Edited/RTS_OUT*%
X72265000Y-120550000D03*
%TO.P,IC505,18,~{CTSA}*%
%TO.N,/AMSRS232C SM Edited/CTS_IN*%
X74805000Y-120550000D03*
%TO.P,IC505,19,~{DCDA}*%
%TO.N,/AMSRS232C SM Edited/DCD_IN*%
X77345000Y-120550000D03*
%TO.P,IC505,20,CLK*%
%TO.N,DCLK*%
X79885000Y-120550000D03*
%TO.P,IC505,21,~{RESET}*%
%TO.N,RESET*%
X79885000Y-105310000D03*
%TO.P,IC505,22,~{DCDB}*%
%TO.N,unconnected-(IC505-~{DCDB}-Pad22)*%
X77345000Y-105310000D03*
%TO.P,IC505,23,~{CTSB}*%
%TO.N,unconnected-(IC505-~{CTSB}-Pad23)*%
X74805000Y-105310000D03*
%TO.P,IC505,24,~{RTSB}*%
%TO.N,unconnected-(IC505-~{RTSB}-Pad24)*%
X72265000Y-105310000D03*
%TO.P,IC505,25,~{DTRB}*%
%TO.N,unconnected-(IC505-~{DTRB}-Pad25)*%
X69725000Y-105310000D03*
%TO.P,IC505,26,TxDB*%
%TO.N,unconnected-(IC505-TxDB-Pad26)*%
X67185000Y-105310000D03*
%TO.P,IC505,27,~{RxTxCB}*%
%TO.N,Net-(IC504-OUT2)*%
X64645000Y-105310000D03*
%TO.P,IC505,28,RxDB*%
%TO.N,unconnected-(IC505-RxDB-Pad28)*%
X62105000Y-105310000D03*
%TO.P,IC505,29,~{RIB}*%
%TO.N,unconnected-(IC505-~{RIB}-Pad29)*%
X59565000Y-105310000D03*
%TO.P,IC505,30,~{W/RDYB}*%
%TO.N,unconnected-(IC505-~{W{slash}RDYB}-Pad30)*%
X57025000Y-105310000D03*
%TO.P,IC505,31,GND*%
%TO.N,GND*%
X54485000Y-105310000D03*
%TO.P,IC505,32,~{RD}*%
%TO.N,RD*%
X51945000Y-105310000D03*
%TO.P,IC505,33,C/~{D}*%
%TO.N,/AMSRS232C SM Edited/A0*%
X49405000Y-105310000D03*
%TO.P,IC505,34,B/~{A}*%
%TO.N,/AMSRS232C SM Edited/A1*%
X46865000Y-105310000D03*
%TO.P,IC505,35,~{CE}*%
%TO.N,DSEL*%
X44325000Y-105310000D03*
%TO.P,IC505,36,~{IORQ}*%
%TO.N,IORQ*%
X41785000Y-105310000D03*
%TO.P,IC505,37,D6*%
%TO.N,/AMSRS232C SM Edited/D6*%
X39245000Y-105310000D03*
%TO.P,IC505,38,D4*%
%TO.N,/AMSRS232C SM Edited/D4*%
X36705000Y-105310000D03*
%TO.P,IC505,39,D2*%
%TO.N,/AMSRS232C SM Edited/D2*%
X34165000Y-105310000D03*
%TO.P,IC505,40,D0*%
%TO.N,/AMSRS232C SM Edited/D0*%
X31625000Y-105310000D03*
%TD*%
D12*
%TO.P,IC501,1,VPP*%
%TO.N,+5V*%
X54460000Y-79975000D03*
D16*
%TO.P,IC501,2,A12*%
%TO.N,/AMSRS232C SM Edited/A12*%
X57000000Y-79975000D03*
%TO.P,IC501,3,A7*%
%TO.N,/AMSRS232C SM Edited/A7*%
X59540000Y-79975000D03*
%TO.P,IC501,4,A6*%
%TO.N,/AMSRS232C SM Edited/A6*%
X62080000Y-79975000D03*
%TO.P,IC501,5,A5*%
%TO.N,/AMSRS232C SM Edited/A5*%
X64620000Y-79975000D03*
%TO.P,IC501,6,A4*%
%TO.N,/AMSRS232C SM Edited/A4*%
X67160000Y-79975000D03*
%TO.P,IC501,7,A3*%
%TO.N,/AMSRS232C SM Edited/A3*%
X69700000Y-79975000D03*
%TO.P,IC501,8,A2*%
%TO.N,/AMSRS232C SM Edited/A2*%
X72240000Y-79975000D03*
%TO.P,IC501,9,A1*%
%TO.N,/AMSRS232C SM Edited/A1*%
X74780000Y-79975000D03*
%TO.P,IC501,10,A0*%
%TO.N,/AMSRS232C SM Edited/A0*%
X77320000Y-79975000D03*
%TO.P,IC501,11,D0*%
%TO.N,/AMSRS232C SM Edited/D0*%
X79860000Y-79975000D03*
%TO.P,IC501,12,D1*%
%TO.N,/AMSRS232C SM Edited/D1*%
X82400000Y-79975000D03*
%TO.P,IC501,13,D2*%
%TO.N,/AMSRS232C SM Edited/D2*%
X84940000Y-79975000D03*
%TO.P,IC501,14,GND*%
%TO.N,GND*%
X87480000Y-79975000D03*
%TO.P,IC501,15,D3*%
%TO.N,/AMSRS232C SM Edited/D3*%
X87480000Y-64735000D03*
%TO.P,IC501,16,D4*%
%TO.N,/AMSRS232C SM Edited/D4*%
X84940000Y-64735000D03*
%TO.P,IC501,17,D5*%
%TO.N,/AMSRS232C SM Edited/D5*%
X82400000Y-64735000D03*
%TO.P,IC501,18,D6*%
%TO.N,/AMSRS232C SM Edited/D6*%
X79860000Y-64735000D03*
%TO.P,IC501,19,D7*%
%TO.N,/AMSRS232C SM Edited/D7*%
X77320000Y-64735000D03*
%TO.P,IC501,20,~{CE}*%
%TO.N,ROMEN*%
X74780000Y-64735000D03*
%TO.P,IC501,21,A10*%
%TO.N,/AMSRS232C SM Edited/A10*%
X72240000Y-64735000D03*
%TO.P,IC501,22,~{OE}*%
%TO.N,~{ROMOE}*%
X69700000Y-64735000D03*
%TO.P,IC501,23,A11*%
%TO.N,/AMSRS232C SM Edited/A11*%
X67160000Y-64735000D03*
%TO.P,IC501,24,A9*%
%TO.N,/AMSRS232C SM Edited/A9*%
X64620000Y-64735000D03*
%TO.P,IC501,25,A8*%
%TO.N,/AMSRS232C SM Edited/A8*%
X62080000Y-64735000D03*
%TO.P,IC501,26,A13*%
%TO.N,/AMSRS232C SM Edited/A13*%
X59540000Y-64735000D03*
%TO.P,IC501,27,~{PGM}*%
%TO.N,+5V*%
X57000000Y-64735000D03*
%TO.P,IC501,28,VCC*%
X54460000Y-64735000D03*
%TD*%
D12*
%TO.P,C1051,1*%
%TO.N,+5V*%
X114633600Y-44542800D03*
D13*
%TO.P,C1051,2*%
%TO.N,GND*%
X114633600Y-42042800D03*
%TD*%
D12*
%TO.P,IC504,1,D7*%
%TO.N,/AMSRS232C SM Edited/D7*%
X88265000Y-109090000D03*
D16*
%TO.P,IC504,2,D6*%
%TO.N,/AMSRS232C SM Edited/D6*%
X90805000Y-109090000D03*
%TO.P,IC504,3,D5*%
%TO.N,/AMSRS232C SM Edited/D5*%
X93345000Y-109090000D03*
%TO.P,IC504,4,D4*%
%TO.N,/AMSRS232C SM Edited/D4*%
X95885000Y-109090000D03*
%TO.P,IC504,5,D3*%
%TO.N,/AMSRS232C SM Edited/D3*%
X98425000Y-109090000D03*
%TO.P,IC504,6,D2*%
%TO.N,/AMSRS232C SM Edited/D2*%
X100965000Y-109090000D03*
%TO.P,IC504,7,D1*%
%TO.N,/AMSRS232C SM Edited/D1*%
X103505000Y-109090000D03*
%TO.P,IC504,8,D0*%
%TO.N,/AMSRS232C SM Edited/D0*%
X106045000Y-109090000D03*
%TO.P,IC504,9,CLK0*%
%TO.N,Net-(IC504-CLK0)*%
X108585000Y-109090000D03*
%TO.P,IC504,10,OUT0*%
%TO.N,Net-(IC504-OUT0)*%
X111125000Y-109090000D03*
%TO.P,IC504,11,GATE0*%
%TO.N,+5V*%
X113665000Y-109090000D03*
%TO.P,IC504,12,GND*%
%TO.N,GND*%
X116205000Y-109090000D03*
%TO.P,IC504,13,OUT1*%
%TO.N,Net-(IC504-OUT1)*%
X116205000Y-93850000D03*
%TO.P,IC504,14,GATE1*%
%TO.N,+5V*%
X113665000Y-93850000D03*
%TO.P,IC504,15,CLK1*%
%TO.N,Net-(IC504-CLK0)*%
X111125000Y-93850000D03*
%TO.P,IC504,16,GATE2*%
%TO.N,+5V*%
X108585000Y-93850000D03*
%TO.P,IC504,17,OUT2*%
%TO.N,Net-(IC504-OUT2)*%
X106045000Y-93850000D03*
%TO.P,IC504,18,CLK2*%
%TO.N,Net-(IC504-CLK0)*%
X103505000Y-93850000D03*
%TO.P,IC504,19,A0*%
%TO.N,/AMSRS232C SM Edited/A0*%
X100965000Y-93850000D03*
%TO.P,IC504,20,A1*%
%TO.N,/AMSRS232C SM Edited/A1*%
X98425000Y-93850000D03*
%TO.P,IC504,21,~{CS}*%
%TO.N,Net-(IC502B-O1)*%
X95885000Y-93850000D03*
%TO.P,IC504,22,~{RD}*%
%TO.N,~{RARD}*%
X93345000Y-93850000D03*
%TO.P,IC504,23,~{WR}*%
%TO.N,~{RAWR}*%
X90805000Y-93850000D03*
%TO.P,IC504,24,VCC*%
%TO.N,+5V*%
X88265000Y-93850000D03*
%TD*%
D12*
%TO.P,C515,1*%
%TO.N,Net-(IC510-V+)*%
X39330000Y-91200000D03*
D13*
%TO.P,C515,2*%
%TO.N,+5V*%
X37330000Y-91200000D03*
%TD*%
%TO.P,LK502,1,Pin_1*%
%TO.N,Net-(LK502-Pin_1)*%
X68800000Y-99100000D03*
%TO.P,LK502,2,Pin_2*%
%TO.N,GND*%
X63800000Y-99100000D03*
%TD*%
D12*
%TO.P,C514,1*%
%TO.N,Net-(IC510-V-)*%
X39330000Y-68825000D03*
D13*
%TO.P,C514,2*%
%TO.N,GND*%
X37330000Y-68825000D03*
%TD*%
%TO.P,LK501,1,Pin_1*%
%TO.N,Net-(LK501-Pin_1)*%
X68800000Y-95525000D03*
%TO.P,LK501,2,Pin_2*%
%TO.N,GND*%
X63800000Y-95525000D03*
%TD*%
D17*
%TO.N,GND*%
X87800000Y-85200000D03*
%TO.N,Net-(LK501-Pin_1)*%
X68175000Y-88850000D03*
X73225000Y-82639200D03*
%TO.N,GND*%
X118575000Y-72825000D03*
X112650000Y-121970000D03*
X118525000Y-88400000D03*
%TO.N,+5V*%
X30585800Y-91200000D03*
%TO.N,M1*%
X51362500Y-112187900D03*
X50748000Y-100093300D03*
%TO.N,IORQ*%
X93209600Y-85737900D03*
X80505400Y-59124000D03*
%TO.N,RD*%
X96090900Y-87938800D03*
%TO.N,WR*%
X97325800Y-87941000D03*
%TO.N,INT*%
X33741900Y-109218100D03*
X78590000Y-70831300D03*
%TO.N,A100*%
X113845200Y-72462600D03*
X113519900Y-64352600D03*
%TO.N,Net-(D501-A)*%
X100528000Y-64486200D03*
X103805100Y-72595700D03*
%TO.N,/AMSRS232C SM Edited/A12*%
X56476000Y-71279700D03*
X48262500Y-63241000D03*
%TO.N,/AMSRS232C SM Edited/A7*%
X52325000Y-58575000D03*
%TO.N,/AMSRS232C SM Edited/A6*%
X48049900Y-57698200D03*
X60412400Y-68945400D03*
%TO.N,/AMSRS232C SM Edited/A5*%
X73524700Y-66293400D03*
X80051900Y-75203800D03*
X94651100Y-75203800D03*
%TO.N,/AMSRS232C SM Edited/A4*%
X61266800Y-68087600D03*
X57000000Y-61400500D03*
%TO.N,/AMSRS232C SM Edited/A3*%
X58125000Y-61400000D03*
X61841000Y-67118900D03*
X57449799Y-58100201D03*
%TO.N,/AMSRS232C SM Edited/A1*%
X59850000Y-58125000D03*
%TO.N,/AMSRS232C SM Edited/D0*%
X58504000Y-84742000D03*
X87130500Y-95880500D03*
%TO.N,/AMSRS232C SM Edited/D1*%
X93035400Y-99934000D03*
X78365100Y-90496200D03*
%TO.N,/AMSRS232C SM Edited/D2*%
X91433500Y-99426900D03*
X88775900Y-106998000D03*
X82025000Y-62150000D03*
X68450000Y-58550000D03*
%TO.N,/AMSRS232C SM Edited/D3*%
X60073600Y-87020500D03*
X48621000Y-109383300D03*
X85161500Y-109383300D03*
%TO.N,/AMSRS232C SM Edited/D4*%
X92795100Y-66487400D03*
X69250000Y-59608800D03*
%TO.N,/AMSRS232C SM Edited/D5*%
X88512800Y-78017600D03*
X91210400Y-86896200D03*
X99606200Y-73067100D03*
%TO.N,/AMSRS232C SM Edited/D6*%
X43512000Y-108628200D03*
X66112299Y-59137701D03*
X95671700Y-72790600D03*
X40193800Y-99418100D03*
%TO.N,/AMSRS232C SM Edited/D7*%
X84067100Y-81370700D03*
X87835500Y-98537500D03*
X93934700Y-70358600D03*
%TO.N,/AMSRS232C SM Edited/A10*%
X52893497Y-59432503D03*
X80992000Y-77216600D03*
X93260700Y-78929300D03*
%TO.N,~{ROMOE}*%
X112732900Y-72327000D03*
X99040400Y-63773400D03*
X89765400Y-67527200D03*
%TO.N,/AMSRS232C SM Edited/A8*%
X93908900Y-72713400D03*
%TO.N,/AMSRS232C SM Edited/A13*%
X87765900Y-68437300D03*
%TO.N,~{RAWR}*%
X110973600Y-64356400D03*
X98332100Y-88314300D03*
%TO.N,Net-(IC502B-O1)*%
X100575500Y-79922400D03*
%TO.N,DSEL*%
X97754500Y-79372500D03*
%TO.N,Net-(IC503-Pad1)*%
X103396400Y-66021300D03*
X108628100Y-70642900D03*
%TO.N,DCLK*%
X113490000Y-89727200D03*
X115762100Y-73517900D03*
%TO.N,Net-(IC506B-C)*%
X113632000Y-75111500D03*
X114561800Y-64362800D03*
%TO.N,Net-(IC504-CLK0)*%
X108585000Y-98902700D03*
%TO.N,Net-(IC504-OUT0)*%
X100282200Y-110391400D03*
%TO.N,Net-(IC506A-~{R})*%
X113129700Y-88028900D03*
X114497900Y-79914900D03*
X110569000Y-88028900D03*
X110937400Y-79914900D03*
%TO.N,ODDEN*%
X74588597Y-85763597D03*
X75488100Y-90476200D03*
X77162800Y-90476200D03*
%TO.N,/AMSRS232C SM Edited/A15*%
X88785800Y-68613700D03*
%TO.N,Net-(LK502-Pin_1)*%
X76456300Y-82234900D03*
%TO.N,RS_DCD*%
X39725000Y-82350000D03*
X34625000Y-70725000D03*
%TO.N,RS_TX*%
X42250000Y-73000000D03*
X33119100Y-70521600D03*
%TO.N,RS_DTR*%
X30975000Y-74775000D03*
X31175000Y-70975000D03*
%TO.N,RS_RTS*%
X30079500Y-70125000D03*
X31175000Y-84375000D03*
%TO.N,RS_RX*%
X32135100Y-70697100D03*
X33350000Y-82250000D03*
%TO.N,Net-(LK503-Pin_1)*%
X72976200Y-95624100D03*
X73891500Y-91372300D03*
%TO.N,/AMSRS232C SM Edited/TX_IN*%
X35801700Y-82386900D03*
X40955000Y-77233600D03*
%TO.N,/AMSRS232C SM Edited/RX_OUT*%
X54073000Y-116714600D03*
%TO.N,/AMSRS232C SM Edited/DTR_OUT*%
X43005600Y-112272500D03*
X38415000Y-77553300D03*
%TO.N,/AMSRS232C SM Edited/RTS_OUT*%
X40697100Y-78993500D03*
X45285500Y-93873800D03*
%TD*%
D18*
%TO.N,/AMSRS232C SM Edited/A5*%
X69391200Y-75203800D02*
X80051900Y-75203800D01*
X64620000Y-79975000D02*
X69391200Y-75203800D01*
%TO.N,/AMSRS232C SM Edited/A1*%
X76363200Y-78391800D02*
X74780000Y-79975000D01*
X86210000Y-79652400D02*
X84949400Y-78391800D01*
X84949400Y-78391800D02*
X76363200Y-78391800D01*
X86210000Y-84915000D02*
X86210000Y-79652400D01*
X94615000Y-93320000D02*
X86210000Y-84915000D01*
X97299800Y-94975200D02*
X95396300Y-94975200D01*
X94615000Y-94193900D02*
X94615000Y-93320000D01*
X98425000Y-93850000D02*
X97299800Y-94975200D01*
X95396300Y-94975200D02*
X94615000Y-94193900D01*
X71631192Y-81550000D02*
X72892387Y-81550000D01*
X72892387Y-81550000D02*
X74467387Y-79975000D01*
X74467387Y-79975000D02*
X74780000Y-79975000D01*
X49234400Y-102940600D02*
X50240592Y-102940600D01*
X46865000Y-105310000D02*
X49234400Y-102940600D01*
X50240592Y-102940600D02*
X71631192Y-81550000D01*
%TO.N,M1*%
X51178704Y-100093300D02*
X50748000Y-100093300D01*
X68430000Y-82842004D02*
X51178704Y-100093300D01*
X97348200Y-73585400D02*
X94991500Y-75942100D01*
X97348200Y-69311600D02*
X97348200Y-73585400D01*
X88728800Y-60692200D02*
X97348200Y-69311600D01*
X80993800Y-60692200D02*
X88728800Y-60692200D01*
X72141600Y-75942100D02*
X68430000Y-79653700D01*
X77037000Y-56735400D02*
X80993800Y-60692200D01*
X68430000Y-79653700D02*
X68430000Y-82842004D01*
X77037000Y-56490500D02*
X77037000Y-56735400D01*
X94991500Y-75942100D02*
X72141600Y-75942100D01*
%TO.N,DSEL*%
X97442400Y-79684600D02*
X97754500Y-79372500D01*
X88813200Y-77292500D02*
X91205300Y-79684600D01*
X87563400Y-77941700D02*
X88212600Y-77292500D01*
X73510000Y-80295991D02*
X73510000Y-79577100D01*
X91205300Y-79684600D02*
X97442400Y-79684600D01*
X75145400Y-77941700D02*
X87563400Y-77941700D01*
X72705991Y-81100000D02*
X73510000Y-80295991D01*
X88212600Y-77292500D02*
X88813200Y-77292500D01*
X71444796Y-81100000D02*
X72705991Y-81100000D01*
X50054196Y-102490600D02*
X71444796Y-81100000D01*
X73510000Y-79577100D02*
X75145400Y-77941700D01*
X47144400Y-102490600D02*
X50054196Y-102490600D01*
X44325000Y-105310000D02*
X47144400Y-102490600D01*
D19*
%TO.N,GND*%
X87480000Y-84880000D02*
X87480000Y-79975000D01*
X87800000Y-85200000D02*
X87480000Y-84880000D01*
D18*
%TO.N,ODDEN*%
X77162800Y-88062800D02*
X77162800Y-90476200D01*
X74863597Y-85763597D02*
X77162800Y-88062800D01*
X74588597Y-85763597D02*
X74863597Y-85763597D01*
%TO.N,/AMSRS232C SM Edited/A0*%
X76756605Y-82959900D02*
X77320000Y-82396505D01*
X77320000Y-82396505D02*
X77320000Y-79975000D01*
X76367696Y-82959900D02*
X76756605Y-82959900D01*
X71573200Y-87754396D02*
X76367696Y-82959900D01*
X71573200Y-98258300D02*
X71573200Y-87754396D01*
%TO.N,Net-(LK501-Pin_1)*%
X68200000Y-88825000D02*
X68175000Y-88850000D01*
X68825000Y-88825000D02*
X68200000Y-88825000D01*
X68825000Y-88825000D02*
X68825000Y-86900000D01*
X68825000Y-95500000D02*
X68825000Y-88825000D01*
X73125000Y-82600000D02*
X73164200Y-82639200D01*
X68825000Y-86900000D02*
X73125000Y-82600000D01*
X68800000Y-95525000D02*
X68825000Y-95500000D01*
X73164200Y-82639200D02*
X73225000Y-82639200D01*
D20*
%TO.N,GND*%
X41964200Y-35286100D02*
X38161100Y-35286100D01*
X70698900Y-35286100D02*
X70735000Y-35250000D01*
D19*
X27820000Y-43130000D02*
X27740000Y-43050000D01*
D21*
X41380000Y-42500000D02*
X39275000Y-42500000D01*
D20*
X70735000Y-38873700D02*
X71076300Y-39215000D01*
D19*
X31977000Y-43130000D02*
X27820000Y-43130000D01*
D20*
X70735000Y-26340000D02*
X70735000Y-35250000D01*
X38161100Y-35286100D02*
X38125000Y-35250000D01*
D19*
X118525000Y-88400000D02*
X120010000Y-88400000D01*
D20*
X38125000Y-38863700D02*
X38125000Y-38425000D01*
X27740000Y-39190000D02*
X37798700Y-39190000D01*
X120035000Y-72875000D02*
X120035000Y-88375000D01*
X114634000Y-40633200D02*
X114634000Y-39223600D01*
X71076300Y-39215000D02*
X104550000Y-39215000D01*
D21*
X103738000Y-56587500D02*
X102340000Y-56587500D01*
D20*
X70735000Y-35250000D02*
X70735000Y-38873700D01*
D21*
X39275000Y-39575000D02*
X38125000Y-38425000D01*
D22*
X112650000Y-123025000D02*
X112575000Y-123100000D01*
D19*
X120010000Y-88400000D02*
X120035000Y-88375000D01*
D21*
X104325000Y-47025000D02*
X104325000Y-56000000D01*
D20*
X114634000Y-42042800D02*
X114634000Y-40633200D01*
X120035000Y-109125000D02*
X120035000Y-123100000D01*
D19*
X119985000Y-72825000D02*
X120035000Y-72875000D01*
D21*
X104325000Y-56000000D02*
X103738000Y-56587500D01*
D20*
X114634000Y-39223600D02*
X120035000Y-39223600D01*
D19*
X37330000Y-68825000D02*
X27790000Y-68825000D01*
D20*
X120035000Y-39223600D02*
X120035000Y-72875000D01*
X120000000Y-109090000D02*
X116205000Y-109090000D01*
X48924200Y-36706100D02*
X43384200Y-36706100D01*
D21*
X39275000Y-42500000D02*
X39275000Y-39575000D01*
D22*
X112650000Y-121970000D02*
X112650000Y-123025000D01*
D20*
X38125000Y-38425000D02*
X38125000Y-35250000D01*
D21*
X104550000Y-42830000D02*
X104550000Y-39215000D01*
X102340000Y-45040000D02*
X104325000Y-47025000D01*
D20*
X120035000Y-88375000D02*
X120035000Y-109125000D01*
X112575000Y-123100000D02*
X27740000Y-123100000D01*
X120035000Y-109125000D02*
X120000000Y-109090000D01*
D19*
X27790000Y-68825000D02*
X27740000Y-68775000D01*
D20*
X43384200Y-36706100D02*
X41964200Y-35286100D01*
X38125000Y-35250000D02*
X38125000Y-26340000D01*
D18*
X114634000Y-40633200D02*
X114633600Y-40633600D01*
D20*
X114625000Y-39215000D02*
X114634000Y-39223600D01*
X66964200Y-35286100D02*
X70698900Y-35286100D01*
X27740000Y-123100000D02*
X27740000Y-68775000D01*
D21*
X40097500Y-54047500D02*
X39275000Y-53225000D01*
X41380000Y-54047500D02*
X40097500Y-54047500D01*
D20*
X120035000Y-123100000D02*
X112575000Y-123100000D01*
X27740000Y-68775000D02*
X27740000Y-43050000D01*
X27740000Y-43050000D02*
X27740000Y-39190000D01*
X104550000Y-39215000D02*
X114625000Y-39215000D01*
D21*
X39275000Y-53225000D02*
X39275000Y-42500000D01*
D20*
X38125000Y-26340000D02*
X70735000Y-26340000D01*
D19*
X118575000Y-72825000D02*
X119985000Y-72825000D01*
D21*
X102340000Y-45040000D02*
X104550000Y-42830000D01*
D20*
X37798700Y-39190000D02*
X38125000Y-38863700D01*
D18*
X114633600Y-40633600D02*
X114633600Y-42042800D01*
%TO.N,+5V*%
X37330000Y-91200000D02*
X30585800Y-91200000D01*
D22*
%TO.N,SOUND*%
X42557000Y-55410500D02*
X41380000Y-56587500D01*
X42557000Y-46217000D02*
X42557000Y-55410500D01*
X41380000Y-45040000D02*
X42557000Y-46217000D01*
%TO.N,MREQ*%
X74400000Y-46800000D02*
X74400000Y-54047500D01*
X73223000Y-44552500D02*
X73223000Y-45623000D01*
X74400000Y-43375500D02*
X73223000Y-44552500D01*
X73223000Y-45623000D02*
X74400000Y-46800000D01*
X74400000Y-42500000D02*
X74400000Y-43375500D01*
D18*
%TO.N,M1*%
X49405000Y-120550000D02*
X49405000Y-114145400D01*
D22*
X78303000Y-46403000D02*
X78303000Y-55224500D01*
X76940000Y-45040000D02*
X78303000Y-46403000D01*
D18*
X49405000Y-114145400D02*
X51362500Y-112187900D01*
D22*
X78303000Y-55224500D02*
X77037000Y-56490500D01*
X77037000Y-56490500D02*
X76940000Y-56587500D01*
%TO.N,RFSH*%
X75763000Y-43677000D02*
X75763000Y-52870500D01*
X76940000Y-42500000D02*
X75763000Y-43677000D01*
X75763000Y-52870500D02*
X76940000Y-54047500D01*
%TO.N,IORQ*%
X80657000Y-55410500D02*
X79480000Y-56587500D01*
D18*
X70970000Y-80938400D02*
X70970000Y-79646000D01*
X95830500Y-76392300D02*
X98479700Y-79041500D01*
X97798400Y-69123800D02*
X87837700Y-59163100D01*
X98479700Y-79041500D02*
X98479700Y-80467800D01*
X41785000Y-105310000D02*
X46276600Y-100818400D01*
X70970000Y-79646000D02*
X74223700Y-76392300D01*
X51090000Y-100818400D02*
X70970000Y-80938400D01*
X80544500Y-59163100D02*
X80505400Y-59124000D01*
D22*
X80657000Y-46217000D02*
X80657000Y-55410500D01*
D18*
X87837700Y-59163100D02*
X80544500Y-59163100D01*
X97798400Y-74424400D02*
X97798400Y-69123800D01*
X46276600Y-100818400D02*
X51090000Y-100818400D01*
X98479700Y-80467800D02*
X93209600Y-85737900D01*
X74223700Y-76392300D02*
X95830500Y-76392300D01*
D22*
X79480000Y-45040000D02*
X80657000Y-46217000D01*
D18*
X95830500Y-76392300D02*
X97798400Y-74424400D01*
D22*
%TO.N,RD*%
X79480000Y-46805000D02*
X79480000Y-54047500D01*
X78303000Y-45628000D02*
X79480000Y-46805000D01*
D18*
X80805800Y-58398900D02*
X79582100Y-58398900D01*
D22*
X79480000Y-42500000D02*
X78303000Y-43677000D01*
D18*
X79582100Y-58398900D02*
X78276800Y-57093600D01*
X79480000Y-54687000D02*
X79480000Y-54047500D01*
X55695500Y-101559500D02*
X94861200Y-101559500D01*
X101313800Y-72002500D02*
X88003500Y-58692200D01*
X78276800Y-57093600D02*
X78276800Y-55890200D01*
X96090900Y-87938800D02*
X101313800Y-82715900D01*
X98601500Y-90449400D02*
X96090900Y-87938800D01*
X78276800Y-55890200D02*
X79480000Y-54687000D01*
X51945000Y-105310000D02*
X55695500Y-101559500D01*
X99175900Y-90449400D02*
X98601500Y-90449400D01*
X102136500Y-93410000D02*
X99175900Y-90449400D01*
X88003500Y-58692200D02*
X81099100Y-58692200D01*
D22*
X78303000Y-43677000D02*
X78303000Y-45628000D01*
D18*
X81099100Y-58692200D02*
X80805800Y-58398900D01*
X101313800Y-82715900D02*
X101313800Y-72002500D01*
X94861200Y-101559500D02*
X102136500Y-94284200D01*
X102136500Y-94284200D02*
X102136500Y-93410000D01*
D22*
%TO.N,WR*%
X82020000Y-45040000D02*
X83197000Y-46217000D01*
D18*
X88150400Y-58202500D02*
X83635000Y-58202500D01*
X101764000Y-71816100D02*
X88150400Y-58202500D01*
D22*
X83197000Y-46217000D02*
X83197000Y-55410500D01*
X83197000Y-55410500D02*
X82020000Y-56587500D01*
D18*
X97325800Y-87941000D02*
X101764000Y-83502800D01*
X83635000Y-58202500D02*
X82020000Y-56587500D01*
X101764000Y-83502800D02*
X101764000Y-71816100D01*
D22*
%TO.N,HALT*%
X80843000Y-45527500D02*
X82020000Y-46704500D01*
X82020000Y-46704500D02*
X82020000Y-54047500D01*
X82020000Y-42500000D02*
X80843000Y-43677000D01*
X80843000Y-43677000D02*
X80843000Y-45527500D01*
D18*
%TO.N,INT*%
X30487700Y-105963900D02*
X30487700Y-104802200D01*
X58270000Y-79588400D02*
X67027100Y-70831300D01*
D22*
X85737000Y-46217000D02*
X85737000Y-55410500D01*
X85737000Y-55410500D02*
X84560000Y-56587500D01*
D18*
X58270000Y-82551400D02*
X58270000Y-79588400D01*
X30487700Y-104802200D02*
X34934100Y-100355800D01*
X40465600Y-100355800D02*
X58270000Y-82551400D01*
X34934100Y-100355800D02*
X40465600Y-100355800D01*
X67027100Y-70831300D02*
X78590000Y-70831300D01*
D22*
X84560000Y-45040000D02*
X85737000Y-46217000D01*
D18*
X33741900Y-109218100D02*
X30487700Y-105963900D01*
D22*
%TO.N,NMI*%
X84560000Y-46916000D02*
X84560000Y-54047500D01*
X83197000Y-45553000D02*
X84560000Y-46916000D01*
X83197000Y-43863000D02*
X83197000Y-45553000D01*
X84560000Y-42500000D02*
X83197000Y-43863000D01*
%TO.N,BUSRQ*%
X87100000Y-45040000D02*
X88277000Y-46217000D01*
X88277000Y-46217000D02*
X88277000Y-55410500D01*
X88277000Y-55410500D02*
X87100000Y-56587500D01*
%TO.N,BUSAK*%
X87100000Y-46937900D02*
X87100000Y-54047500D01*
X87100000Y-42500000D02*
X85737000Y-43863000D01*
X85737000Y-45574900D02*
X87100000Y-46937900D01*
X85737000Y-43863000D02*
X85737000Y-45574900D01*
%TO.N,READY*%
X90817000Y-55410500D02*
X89640000Y-56587500D01*
X89640000Y-45040000D02*
X90817000Y-46217000D01*
X90817000Y-46217000D02*
X90817000Y-55410500D01*
%TO.N,BUS*%
X88463000Y-45663000D02*
X89640000Y-46840000D01*
X89640000Y-46840000D02*
X89640000Y-54047500D01*
X89640000Y-42500000D02*
X88463000Y-43677000D01*
X88463000Y-43677000D02*
X88463000Y-45663000D01*
D18*
%TO.N,RESET*%
X99340800Y-64498500D02*
X100227900Y-63611400D01*
X79885000Y-105310000D02*
X81010100Y-105310000D01*
D22*
X93357000Y-46217000D02*
X93357000Y-55410500D01*
D18*
X105001900Y-103572600D02*
X82747500Y-103572600D01*
D22*
X93357000Y-55410500D02*
X92180000Y-56587500D01*
D18*
X111327600Y-63611400D02*
X111698700Y-63982500D01*
X98740100Y-64498500D02*
X99340800Y-64498500D01*
X92180000Y-56587500D02*
X92180000Y-57938400D01*
X109814700Y-79341900D02*
X109814700Y-89546400D01*
X112268100Y-96306400D02*
X105001900Y-103572600D01*
X109814700Y-89546400D02*
X112268100Y-91999800D01*
X82747500Y-103572600D02*
X81010100Y-105310000D01*
X111698700Y-77457900D02*
X109814700Y-79341900D01*
X112268100Y-91999800D02*
X112268100Y-96306400D01*
X100227900Y-63611400D02*
X111327600Y-63611400D01*
D22*
X92180000Y-45040000D02*
X93357000Y-46217000D01*
D18*
X111698700Y-63982500D02*
X111698700Y-77457900D01*
X92180000Y-57938400D02*
X98740100Y-64498500D01*
D22*
%TO.N,ROMEN*%
X91003000Y-43677000D02*
X91003000Y-45527500D01*
X92180000Y-42500000D02*
X91003000Y-43677000D01*
X92180000Y-46704500D02*
X92180000Y-54047500D01*
X91003000Y-45527500D02*
X92180000Y-46704500D01*
%TO.N,ROMDIS*%
X95897000Y-46217000D02*
X95897000Y-55410500D01*
X94720000Y-45040000D02*
X95897000Y-46217000D01*
X95897000Y-55410500D02*
X94720000Y-56587500D01*
%TO.N,RAMRD*%
X93543000Y-45527500D02*
X94720000Y-46704500D01*
X94720000Y-46704500D02*
X94720000Y-54047500D01*
X93543000Y-43677000D02*
X93543000Y-45527500D01*
X94720000Y-42500000D02*
X93543000Y-43677000D01*
%TO.N,RAMDIS*%
X98437000Y-55410500D02*
X97260000Y-56587500D01*
X98437000Y-46217000D02*
X98437000Y-55410500D01*
X97260000Y-45040000D02*
X98437000Y-46217000D01*
%TO.N,CURSOR*%
X96083000Y-43677000D02*
X96083000Y-45708000D01*
X97260000Y-42500000D02*
X96083000Y-43677000D01*
X96083000Y-45708000D02*
X97260000Y-46885000D01*
X97260000Y-46885000D02*
X97260000Y-54047500D01*
%TO.N,LPEN*%
X100977000Y-55410500D02*
X99800000Y-56587500D01*
X100977000Y-46217000D02*
X100977000Y-55410500D01*
X99800000Y-45040000D02*
X100977000Y-46217000D01*
%TO.N,EXP*%
X99800000Y-42500000D02*
X98623000Y-43677000D01*
X99800000Y-46750000D02*
X99800000Y-54047500D01*
X98623000Y-43677000D02*
X98623000Y-45573000D01*
X98623000Y-45573000D02*
X99800000Y-46750000D01*
D18*
%TO.N,A100*%
X113519900Y-64352600D02*
X113519900Y-72137300D01*
D22*
X101163000Y-45760900D02*
X102340000Y-46937900D01*
D18*
X113519900Y-72137300D02*
X113845200Y-72462600D01*
D22*
X101163000Y-43677000D02*
X101163000Y-45760900D01*
X102340000Y-46937900D02*
X102340000Y-54047500D01*
X102340000Y-42500000D02*
X101163000Y-43677000D01*
D18*
%TO.N,Net-(D501-A)*%
X103805100Y-67763300D02*
X100528000Y-64486200D01*
X103805100Y-72595700D02*
X103805100Y-67763300D01*
D22*
%TO.N,/AMSRS232C SM Edited/A12*%
X46460000Y-42500000D02*
X45283000Y-43677000D01*
D18*
X56301200Y-71279700D02*
X56476000Y-71279700D01*
X48262500Y-63241000D02*
X56301200Y-71279700D01*
D22*
X45283000Y-45633000D02*
X46460000Y-46810000D01*
X45283000Y-43677000D02*
X45283000Y-45633000D01*
X46460000Y-46810000D02*
X46460000Y-54047500D01*
%TO.N,/AMSRS232C SM Edited/A7*%
X55257000Y-55410500D02*
X54080000Y-56587500D01*
X54080000Y-45040000D02*
X55257000Y-46217000D01*
D18*
X52325000Y-58575000D02*
X52325000Y-58342500D01*
D22*
X55257000Y-46217000D02*
X55257000Y-55410500D01*
D18*
X52325000Y-58342500D02*
X54080000Y-56587500D01*
%TO.N,/AMSRS232C SM Edited/A6*%
X48049900Y-59924800D02*
X57070500Y-68945400D01*
X48049900Y-57698200D02*
X48049900Y-59924800D01*
D22*
X52903000Y-45753000D02*
X54080000Y-46930000D01*
X52903000Y-43677000D02*
X52903000Y-45753000D01*
X54080000Y-42500000D02*
X52903000Y-43677000D01*
D18*
X57070500Y-68945400D02*
X60412400Y-68945400D01*
D22*
X54080000Y-46930000D02*
X54080000Y-54047500D01*
%TO.N,/AMSRS232C SM Edited/A5*%
X57797000Y-55410500D02*
X56919200Y-56288300D01*
D18*
X80051900Y-75203800D02*
X94651100Y-75203800D01*
X57250000Y-58925000D02*
X56620000Y-58295000D01*
D22*
X56919200Y-56288300D02*
X56620000Y-56587500D01*
X56620000Y-45040000D02*
X57797000Y-46217000D01*
D18*
X73524700Y-66293400D02*
X73524700Y-64424900D01*
X66983300Y-61683300D02*
X64225000Y-58925000D01*
D22*
X57797000Y-46217000D02*
X57797000Y-55410500D01*
D18*
X70783100Y-61683300D02*
X66983300Y-61683300D01*
X64225000Y-58925000D02*
X57250000Y-58925000D01*
X56620000Y-58295000D02*
X56620000Y-56587500D01*
X73524700Y-64424900D02*
X70783100Y-61683300D01*
%TO.N,/AMSRS232C SM Edited/A4*%
X58703400Y-68087600D02*
X61266800Y-68087600D01*
D22*
X56620000Y-46845000D02*
X56620000Y-54047500D01*
D18*
X55840300Y-62560200D02*
X55840300Y-65224500D01*
D22*
X55443000Y-45668000D02*
X56620000Y-46845000D01*
D18*
X57000000Y-61400500D02*
X55840300Y-62560200D01*
D22*
X56620000Y-42500000D02*
X55443000Y-43677000D01*
D18*
X55840300Y-65224500D02*
X58703400Y-68087600D01*
D22*
X55443000Y-43677000D02*
X55443000Y-45668000D01*
D18*
%TO.N,/AMSRS232C SM Edited/A3*%
X57449799Y-58100201D02*
X57647299Y-58100201D01*
X60264800Y-67118800D02*
X61841000Y-67118800D01*
X58125000Y-61400000D02*
X58414800Y-61689800D01*
D22*
X60337000Y-55410500D02*
X59160000Y-56587500D01*
D18*
X61841000Y-67118800D02*
X61841000Y-67118900D01*
X57647299Y-58100201D02*
X59160000Y-56587500D01*
D22*
X60337000Y-46217000D02*
X60337000Y-55410500D01*
D18*
X58414800Y-61689800D02*
X58414800Y-65268800D01*
D22*
X59160000Y-45040000D02*
X60337000Y-46217000D01*
D18*
X58414800Y-65268800D02*
X60264800Y-67118800D01*
D22*
%TO.N,/AMSRS232C SM Edited/A2*%
X57983000Y-43677000D02*
X57983000Y-45527500D01*
X59160000Y-42500000D02*
X57983000Y-43677000D01*
X59160000Y-46704500D02*
X59160000Y-54047500D01*
X57983000Y-45527500D02*
X59160000Y-46704500D01*
%TO.N,/AMSRS232C SM Edited/A1*%
X61700000Y-45040000D02*
X62877000Y-46217000D01*
D18*
X60162500Y-58125000D02*
X61700000Y-56587500D01*
D22*
X62877000Y-55410500D02*
X61700000Y-56587500D01*
D18*
X59850000Y-58125000D02*
X60162500Y-58125000D01*
D22*
X62877000Y-46217000D02*
X62877000Y-55410500D01*
D18*
%TO.N,/AMSRS232C SM Edited/A0*%
X73978700Y-100663800D02*
X71573200Y-98258300D01*
X69230700Y-100600800D02*
X54790596Y-100600800D01*
X49405000Y-104395000D02*
X49405000Y-105310000D01*
X71573200Y-98258300D02*
X69230700Y-100600800D01*
D22*
X60523000Y-43677000D02*
X60523000Y-45527500D01*
X61700000Y-46704500D02*
X61700000Y-54047500D01*
D18*
X94151200Y-100663800D02*
X73978700Y-100663800D01*
X54790596Y-100600800D02*
X52000796Y-103390600D01*
D22*
X60523000Y-45527500D02*
X61700000Y-46704500D01*
D18*
X100965000Y-93850000D02*
X94151200Y-100663800D01*
D22*
X61700000Y-42500000D02*
X60523000Y-43677000D01*
D18*
X52000796Y-103390600D02*
X50409400Y-103390600D01*
X50409400Y-103390600D02*
X49405000Y-104395000D01*
%TO.N,/AMSRS232C SM Edited/D0*%
X41548900Y-101697100D02*
X58504000Y-84742000D01*
X83342000Y-81070400D02*
X83342000Y-92092000D01*
X79860000Y-79975000D02*
X80993100Y-78841900D01*
X83573400Y-79524700D02*
X83573400Y-80839000D01*
D22*
X71860000Y-46937900D02*
X71860000Y-54047500D01*
D18*
X80993100Y-78841900D02*
X82890600Y-78841900D01*
D22*
X70683000Y-45760900D02*
X71860000Y-46937900D01*
D18*
X83342000Y-92092000D02*
X87130500Y-95880500D01*
X31625000Y-105310000D02*
X35237900Y-101697100D01*
X82890600Y-78841900D02*
X83573400Y-79524700D01*
X83573400Y-80839000D02*
X83342000Y-81070400D01*
D22*
X70683000Y-43677000D02*
X70683000Y-45760900D01*
D18*
X35237900Y-101697100D02*
X41548900Y-101697100D01*
D22*
X71860000Y-42500000D02*
X70683000Y-43677000D01*
D18*
%TO.N,/AMSRS232C SM Edited/D1*%
X103505000Y-109090000D02*
X103505000Y-109120000D01*
X74046700Y-117142600D02*
X70995000Y-120194300D01*
X82400000Y-81100100D02*
X82400000Y-86461300D01*
X92760300Y-100209100D02*
X93035400Y-99934000D01*
X70995000Y-120952300D02*
X69791000Y-122156300D01*
D22*
X71860000Y-45040000D02*
X73037000Y-46217000D01*
D18*
X33231300Y-122156300D02*
X31625000Y-120550000D01*
X70995000Y-120194300D02*
X70995000Y-120952300D01*
X69791000Y-122156300D02*
X33231300Y-122156300D01*
X103505000Y-109120000D02*
X95482400Y-117142600D01*
X82400000Y-86461300D02*
X78545600Y-90315700D01*
X82400000Y-79975000D02*
X82400000Y-81100100D01*
D22*
X73037000Y-46217000D02*
X73037000Y-55410500D01*
D18*
X78545600Y-90315700D02*
X78365100Y-90496200D01*
X88439000Y-100209100D02*
X92760300Y-100209100D01*
D22*
X73037000Y-55410500D02*
X71860000Y-56587500D01*
D18*
X95482400Y-117142600D02*
X74046700Y-117142600D01*
X78545600Y-90315700D02*
X88439000Y-100209100D01*
D22*
%TO.N,/AMSRS232C SM Edited/D2*%
X69320000Y-46704500D02*
X69320000Y-54047500D01*
X68450000Y-58550000D02*
X68677000Y-58777000D01*
D18*
X84940000Y-79975000D02*
X84940000Y-87188900D01*
D22*
X68143000Y-43677000D02*
X68143000Y-45527500D01*
D18*
X88775900Y-106998000D02*
X35853000Y-106998000D01*
X35853000Y-106998000D02*
X34165000Y-105310000D01*
D22*
X77577000Y-58777000D02*
X80950000Y-62150000D01*
X69320000Y-42500000D02*
X68143000Y-43677000D01*
X80950000Y-62150000D02*
X82025000Y-62150000D01*
X68143000Y-45527500D02*
X69320000Y-46704500D01*
D18*
X89535000Y-97528400D02*
X91433500Y-99426900D01*
X89535000Y-91783900D02*
X89535000Y-97528400D01*
D22*
X68677000Y-58777000D02*
X77577000Y-58777000D01*
D18*
X84940000Y-87188900D02*
X89535000Y-91783900D01*
%TO.N,/AMSRS232C SM Edited/D3*%
X48621000Y-109383300D02*
X85161500Y-109383300D01*
D22*
X70497000Y-55378000D02*
X69910500Y-55964500D01*
D18*
X69320000Y-58045000D02*
X69600000Y-58325000D01*
X95758500Y-74393500D02*
X68607100Y-74393500D01*
X96854000Y-73298000D02*
X95758500Y-74393500D01*
X37213704Y-119424900D02*
X47255304Y-109383300D01*
X47255304Y-109383300D02*
X48621000Y-109383300D01*
X88605100Y-64735000D02*
X92134800Y-64735000D01*
D22*
X69910500Y-55997000D02*
X69320000Y-56587500D01*
D18*
X92134800Y-64735000D02*
X96854000Y-69454200D01*
X63350000Y-79650600D02*
X63350000Y-83744100D01*
X63350000Y-83744100D02*
X60073600Y-87020500D01*
X80625000Y-61175000D02*
X83920000Y-61175000D01*
D22*
X69320000Y-45040000D02*
X70497000Y-46217000D01*
X70497000Y-46217000D02*
X70497000Y-55378000D01*
D18*
X68607100Y-74393500D02*
X63350000Y-79650600D01*
X69320000Y-56587500D02*
X69320000Y-58045000D01*
X87480000Y-64735000D02*
X88605100Y-64735000D01*
X69600000Y-58325000D02*
X77775000Y-58325000D01*
X35290100Y-119424900D02*
X37213704Y-119424900D01*
X34165000Y-120550000D02*
X35290100Y-119424900D01*
D22*
X69910500Y-55964500D02*
X69910500Y-55997000D01*
D18*
X83920000Y-61175000D02*
X87480000Y-64735000D01*
X77775000Y-58325000D02*
X80625000Y-61175000D01*
X96854000Y-69454200D02*
X96854000Y-73298000D01*
%TO.N,/AMSRS232C SM Edited/D4*%
X95885000Y-109090000D02*
X93067800Y-106272800D01*
D22*
X65603000Y-44552500D02*
X65603000Y-45527500D01*
D18*
X69524500Y-59883300D02*
X76281092Y-59883300D01*
X92173000Y-65865300D02*
X92795100Y-66487400D01*
X96396900Y-70089200D02*
X96396900Y-73118500D01*
X84940000Y-64735000D02*
X86070300Y-65865300D01*
X93067800Y-106272800D02*
X84719800Y-106272800D01*
X69250000Y-59608800D02*
X69524500Y-59883300D01*
X41355700Y-106475400D02*
X40515000Y-105634700D01*
X60810000Y-83855200D02*
X40515000Y-104150200D01*
D22*
X66780000Y-42500000D02*
X66780000Y-43375500D01*
D18*
X40515000Y-105634700D02*
X40515000Y-104150200D01*
X81161396Y-62750000D02*
X81716496Y-63305100D01*
X76281092Y-59883300D02*
X79147792Y-62750000D01*
X92795100Y-66487400D02*
X96396900Y-70089200D01*
X36705000Y-105310000D02*
X37864800Y-104150200D01*
D22*
X66780000Y-46704500D02*
X66780000Y-54047500D01*
D18*
X37864800Y-104150200D02*
X40515000Y-104150200D01*
X96396900Y-73118500D02*
X95572100Y-73943300D01*
X84719800Y-106272800D02*
X84517200Y-106475400D01*
X84517200Y-106475400D02*
X41355700Y-106475400D01*
X86070300Y-65865300D02*
X92173000Y-65865300D01*
X79147792Y-62750000D02*
X81161396Y-62750000D01*
D22*
X66780000Y-43375500D02*
X65603000Y-44552500D01*
D18*
X66442800Y-73943300D02*
X60810000Y-79576100D01*
X95572100Y-73943300D02*
X66442800Y-73943300D01*
D22*
X65603000Y-45527500D02*
X66780000Y-46704500D01*
D18*
X60810000Y-79576100D02*
X60810000Y-83855200D01*
X81716496Y-63305100D02*
X83510100Y-63305100D01*
X83510100Y-63305100D02*
X84940000Y-64735000D01*
%TO.N,/AMSRS232C SM Edited/D5*%
X93554900Y-86465400D02*
X99606200Y-80414100D01*
X36725000Y-120550000D02*
X36705000Y-120550000D01*
X91422300Y-111012700D02*
X46262300Y-111012700D01*
D22*
X67957000Y-46217000D02*
X67957000Y-55410500D01*
D18*
X46262300Y-111012700D02*
X36725000Y-120550000D01*
X92498500Y-86465400D02*
X93554900Y-86465400D01*
X82400000Y-64625000D02*
X82400000Y-64735000D01*
X66837299Y-56644799D02*
X66837299Y-59062299D01*
X80975000Y-63200000D02*
X82400000Y-64625000D01*
X78961396Y-63200000D02*
X80975000Y-63200000D01*
X93345000Y-109090000D02*
X91422300Y-111012700D01*
X68108300Y-60333300D02*
X76094696Y-60333300D01*
X66837299Y-59062299D02*
X68108300Y-60333300D01*
X91284500Y-86896200D02*
X92106900Y-86073800D01*
D22*
X67957000Y-55410500D02*
X67079200Y-56288300D01*
D18*
X66780000Y-56587500D02*
X66837299Y-56644799D01*
X88512800Y-78017600D02*
X92106900Y-81611700D01*
X91210400Y-86896200D02*
X91284500Y-86896200D01*
X92106900Y-81611700D02*
X92106900Y-86073800D01*
D22*
X66780000Y-45040000D02*
X67957000Y-46217000D01*
D18*
X76094696Y-60333300D02*
X78961396Y-63200000D01*
X99606200Y-80414100D02*
X99606200Y-73067100D01*
X92106900Y-86073800D02*
X92498500Y-86465400D01*
D22*
X67079200Y-56288300D02*
X66780000Y-56587500D01*
D18*
%TO.N,/AMSRS232C SM Edited/D6*%
X89679800Y-110215200D02*
X87202800Y-110215200D01*
X94985200Y-73477100D02*
X95671700Y-72790600D01*
X90805000Y-109090000D02*
X89679800Y-110215200D01*
X79860000Y-64735000D02*
X81471000Y-66346000D01*
X82524900Y-70106000D02*
X85896000Y-73477100D01*
X66112299Y-59437299D02*
X67458300Y-60783300D01*
X75908300Y-60783300D02*
X79860000Y-64735000D01*
X40766700Y-99418100D02*
X55585200Y-84599600D01*
X66112299Y-59137701D02*
X66112299Y-59437299D01*
X55585200Y-84599600D02*
X55585200Y-79778400D01*
D22*
X64240000Y-42500000D02*
X63063000Y-43677000D01*
D18*
X87202800Y-110215200D02*
X85615800Y-108628200D01*
X81471000Y-66346000D02*
X90967600Y-66346000D01*
X67458300Y-60783300D02*
X75908300Y-60783300D01*
D22*
X63063000Y-43677000D02*
X63063000Y-45527500D01*
D18*
X85896000Y-73477100D02*
X94985200Y-73477100D01*
X55585200Y-79778400D02*
X65257600Y-70106000D01*
D22*
X63063000Y-45527500D02*
X64240000Y-46704500D01*
X64240000Y-46704500D02*
X64240000Y-54047500D01*
D18*
X85615800Y-108628200D02*
X43512000Y-108628200D01*
X40193800Y-99418100D02*
X40766700Y-99418100D01*
X90967600Y-66346000D02*
X95671700Y-71050100D01*
X65257600Y-70106000D02*
X82524900Y-70106000D01*
X95671700Y-71050100D02*
X95671700Y-72790600D01*
%TO.N,/AMSRS232C SM Edited/D7*%
X89398800Y-107956200D02*
X88265000Y-109090000D01*
X75760000Y-63175000D02*
X77320000Y-64735000D01*
D22*
X65417000Y-55410500D02*
X64346900Y-56480600D01*
X64240000Y-45040000D02*
X65417000Y-46217000D01*
D18*
X79381100Y-66796100D02*
X90372200Y-66796100D01*
X77320000Y-64735000D02*
X79381100Y-66796100D01*
X94523100Y-109572100D02*
X94523100Y-108653200D01*
X67183300Y-61233300D02*
X70969496Y-61233300D01*
X46448596Y-111462800D02*
X92632400Y-111462800D01*
X64240000Y-56587500D02*
X64240000Y-58290000D01*
X93826100Y-107956200D02*
X89398800Y-107956200D01*
D22*
X64346900Y-56480600D02*
X64240000Y-56587500D01*
D18*
X64240000Y-58290000D02*
X67183300Y-61233300D01*
D22*
X65417000Y-46217000D02*
X65417000Y-55410500D01*
D18*
X84067100Y-81370700D02*
X84067100Y-91390300D01*
X87900600Y-95223800D02*
X87900600Y-98472400D01*
X92632400Y-111462800D02*
X94523100Y-109572100D01*
X70969496Y-61233300D02*
X72911196Y-63175000D01*
X72911196Y-63175000D02*
X75760000Y-63175000D01*
X39245000Y-120550000D02*
X39245000Y-118666396D01*
X84067100Y-91390300D02*
X87900600Y-95223800D01*
X94523100Y-108653200D02*
X93826100Y-107956200D01*
X87900600Y-98472400D02*
X87835500Y-98537500D01*
X90372200Y-66796100D02*
X93934700Y-70358600D01*
X39245000Y-118666396D02*
X46448596Y-111462800D01*
%TO.N,/AMSRS232C SM Edited/A10*%
X81366200Y-76842400D02*
X80992000Y-77216600D01*
X91173800Y-76842400D02*
X81366200Y-76842400D01*
X52893497Y-59432503D02*
X52951000Y-59375000D01*
D22*
X49000000Y-46937900D02*
X49000000Y-54047500D01*
D18*
X70596704Y-62133300D02*
X72240000Y-63776596D01*
X52951000Y-59375000D02*
X64033896Y-59375000D01*
X93260700Y-78929300D02*
X91173800Y-76842400D01*
D22*
X47823000Y-43677000D02*
X47823000Y-45760900D01*
D18*
X72240000Y-63776596D02*
X72240000Y-64735000D01*
D22*
X47823000Y-45760900D02*
X49000000Y-46937900D01*
D18*
X66792196Y-62133300D02*
X70596704Y-62133300D01*
X64033896Y-59375000D02*
X66792196Y-62133300D01*
D22*
X49000000Y-42500000D02*
X47823000Y-43677000D01*
D18*
%TO.N,~{ROMOE}*%
X89484400Y-67246200D02*
X89765400Y-67527200D01*
X112732900Y-64337800D02*
X111542400Y-63147300D01*
X111542400Y-63147300D02*
X99666500Y-63147300D01*
X72211200Y-67246200D02*
X89484400Y-67246200D01*
X112732900Y-72327000D02*
X112732900Y-64337800D01*
X69700000Y-64735000D02*
X72211200Y-67246200D01*
X99666500Y-63147300D02*
X99040400Y-63773400D01*
%TO.N,/AMSRS232C SM Edited/A11*%
X49000000Y-57200000D02*
X49000000Y-56587500D01*
D22*
X50177000Y-46217000D02*
X50177000Y-55410500D01*
X49299200Y-56288300D02*
X49000000Y-56587500D01*
D18*
X67160000Y-64735000D02*
X63100500Y-60675500D01*
X52475500Y-60675500D02*
X49000000Y-57200000D01*
D22*
X50177000Y-55410500D02*
X49299200Y-56288300D01*
X49000000Y-45040000D02*
X50177000Y-46217000D01*
D18*
X63100500Y-60675500D02*
X52475500Y-60675500D01*
%TO.N,/AMSRS232C SM Edited/A9*%
X51540000Y-59103604D02*
X51540000Y-56587500D01*
X68287500Y-65237000D02*
X68287500Y-64265000D01*
D22*
X52717000Y-55410500D02*
X51540000Y-56587500D01*
X51540000Y-45040000D02*
X52717000Y-46217000D01*
D18*
X68287500Y-64265000D02*
X64248000Y-60225500D01*
X65795200Y-65910200D02*
X67614300Y-65910200D01*
D22*
X52717000Y-46217000D02*
X52717000Y-55410500D01*
D18*
X64248000Y-60225500D02*
X52661896Y-60225500D01*
X64620000Y-64735000D02*
X65795200Y-65910200D01*
X52661896Y-60225500D02*
X51540000Y-59103604D01*
X67614300Y-65910200D02*
X68287500Y-65237000D01*
%TO.N,/AMSRS232C SM Edited/A8*%
X88893900Y-67696300D02*
X65046300Y-67696300D01*
D22*
X51540000Y-46937900D02*
X51540000Y-54047500D01*
X50363000Y-45760900D02*
X51540000Y-46937900D01*
D18*
X62085000Y-64735000D02*
X62080000Y-64735000D01*
D22*
X51540000Y-42500000D02*
X50363000Y-43677000D01*
D18*
X93908900Y-72711300D02*
X88893900Y-67696300D01*
X93908900Y-72713400D02*
X93908900Y-72711300D01*
D22*
X50363000Y-43677000D02*
X50363000Y-45760900D01*
D18*
X65046300Y-67696300D02*
X62085000Y-64735000D01*
%TO.N,/AMSRS232C SM Edited/A13*%
X64430600Y-68437300D02*
X62034800Y-66041500D01*
D22*
X47637000Y-46217000D02*
X47637000Y-55410500D01*
X46460000Y-45040000D02*
X47637000Y-46217000D01*
D18*
X60846500Y-66041500D02*
X59540000Y-64735000D01*
D22*
X47637000Y-55410500D02*
X46460000Y-56587500D01*
D18*
X87765900Y-68437300D02*
X64430600Y-68437300D01*
X62034800Y-66041500D02*
X60846500Y-66041500D01*
%TO.N,~{RAWR}*%
X110973600Y-64356400D02*
X110973600Y-75672800D01*
X110973600Y-75672800D02*
X98332100Y-88314300D01*
%TO.N,Net-(IC502B-O1)*%
X100575500Y-81651100D02*
X95365800Y-86860800D01*
X100575500Y-79922400D02*
X100575500Y-81651100D01*
X95885000Y-93850000D02*
X95885000Y-92724900D01*
X95365800Y-86860800D02*
X95365800Y-92205700D01*
X95365800Y-92205700D02*
X95885000Y-92724900D01*
%TO.N,Net-(IC503-Pad1)*%
X104006500Y-66021300D02*
X103396400Y-66021300D01*
X108628100Y-70642900D02*
X104006500Y-66021300D01*
%TO.N,DCLK*%
X113735700Y-89727200D02*
X115762100Y-87700800D01*
X96211800Y-120550000D02*
X107315000Y-109446800D01*
X113735700Y-89727200D02*
X113490000Y-89727200D01*
X115762100Y-87700800D02*
X115762100Y-73517900D01*
X79885000Y-120550000D02*
X96211800Y-120550000D01*
X107315000Y-109446800D02*
X107315000Y-104428600D01*
X107315000Y-104428600D02*
X117333200Y-94410400D01*
X117333200Y-94410400D02*
X117333200Y-93324700D01*
X117333200Y-93324700D02*
X113735700Y-89727200D01*
%TO.N,Net-(IC506B-C)*%
X113632000Y-75111500D02*
X114622100Y-74121400D01*
X114622100Y-64423100D02*
X114561800Y-64362800D01*
X114622100Y-74121400D02*
X114622100Y-64423100D01*
%TO.N,Net-(IC504-CLK0)*%
X109999900Y-93616900D02*
X109999900Y-93850000D01*
X103505000Y-93850000D02*
X104641500Y-92713500D01*
X111125000Y-93850000D02*
X109999900Y-93850000D01*
X109999900Y-97487800D02*
X108585000Y-98902700D01*
X104641500Y-92713500D02*
X109096500Y-92713500D01*
X109096500Y-92713500D02*
X109999900Y-93616900D01*
X109999900Y-93850000D02*
X109999900Y-97487800D01*
%TO.N,Net-(IC504-OUT0)*%
X64750000Y-120550000D02*
X64645000Y-120550000D01*
X95003500Y-115670100D02*
X69629900Y-115670100D01*
X100282200Y-110391400D02*
X95003500Y-115670100D01*
X69629900Y-115670100D02*
X64750000Y-120550000D01*
%TO.N,Net-(IC504-OUT1)*%
X97155000Y-109488800D02*
X97155000Y-108762400D01*
X100761900Y-105155500D02*
X105044500Y-105155500D01*
X70564500Y-112090500D02*
X94553300Y-112090500D01*
X116205000Y-93995000D02*
X116205000Y-93850000D01*
X105044500Y-105155500D02*
X116205000Y-93995000D01*
X94553300Y-112090500D02*
X97155000Y-109488800D01*
X97155000Y-108762400D02*
X100761900Y-105155500D01*
X62105000Y-120550000D02*
X70564500Y-112090500D01*
%TO.N,Net-(IC504-OUT2)*%
X96772500Y-103122500D02*
X106045000Y-93850000D01*
X66129800Y-103825200D02*
X80757500Y-103825200D01*
X80757500Y-103825200D02*
X81460200Y-103122500D01*
X64645000Y-105310000D02*
X66129800Y-103825200D01*
X81460200Y-103122500D02*
X96772500Y-103122500D01*
%TO.N,Net-(IC506A-~{R})*%
X113129700Y-79914900D02*
X113129700Y-88028900D01*
X110937400Y-79914900D02*
X113129700Y-79914900D01*
X113129700Y-79914900D02*
X114497900Y-79914900D01*
X113129700Y-88028900D02*
X110569000Y-88028900D01*
%TO.N,ODDEN*%
X75488100Y-90476200D02*
X77162800Y-90476200D01*
%TO.N,/AMSRS232C SM Edited/A15*%
X88005200Y-69394300D02*
X88785800Y-68613700D01*
X60989100Y-69394300D02*
X88005200Y-69394300D01*
X60707000Y-69676400D02*
X60989100Y-69394300D01*
X57164900Y-69676400D02*
X60707000Y-69676400D01*
X43998000Y-56509500D02*
X57164900Y-69676400D01*
D22*
X43998000Y-56509500D02*
X43920000Y-56587500D01*
X43920000Y-45040000D02*
X45097000Y-46217000D01*
X45097000Y-46217000D02*
X45097000Y-55410500D01*
X45097000Y-55410500D02*
X43998000Y-56509500D01*
D18*
%TO.N,Net-(LK502-Pin_1)*%
X71036200Y-96863800D02*
X71036200Y-87655000D01*
X71036200Y-87655000D02*
X76456300Y-82234900D01*
X68800000Y-99100000D02*
X71036200Y-96863800D01*
D19*
%TO.N,RS_DCD*%
X34625000Y-70725000D02*
X36100000Y-72200000D01*
X36100000Y-72200000D02*
X42581400Y-72200000D01*
X43050000Y-79025000D02*
X39725000Y-82350000D01*
X43050000Y-72668600D02*
X43050000Y-79025000D01*
X42581400Y-72200000D02*
X43050000Y-72668600D01*
%TO.N,RS_TX*%
X33119100Y-70521600D02*
X35597500Y-73000000D01*
X35597500Y-73000000D02*
X42250000Y-73000000D01*
%TO.N,RS_DTR*%
X31175000Y-74575000D02*
X30975000Y-74775000D01*
X31175000Y-70975000D02*
X31175000Y-74575000D01*
%TO.N,RS_RTS*%
X30050000Y-84375000D02*
X31175000Y-84375000D01*
X28680000Y-71524500D02*
X28680000Y-83005000D01*
X30079500Y-70125000D02*
X28680000Y-71524500D01*
X28680000Y-83005000D02*
X30050000Y-84375000D01*
%TO.N,RS_RX*%
X32135100Y-81035100D02*
X33350000Y-82250000D01*
X32135100Y-70697100D02*
X32135100Y-81035100D01*
D22*
%TO.N,/AMSRS232C SM Edited/A14*%
X42743000Y-43677000D02*
X42743000Y-45760900D01*
X43920000Y-46937900D02*
X43920000Y-54047500D01*
X43920000Y-42500000D02*
X42743000Y-43677000D01*
X42743000Y-45760900D02*
X43920000Y-46937900D01*
D18*
%TO.N,Net-(LK503-Pin_1)*%
X73891500Y-91372300D02*
X72835800Y-92428000D01*
X72835800Y-92428000D02*
X72835800Y-95483700D01*
X72835800Y-95483700D02*
X72976200Y-95624100D01*
%TO.N,/AMSRS232C SM Edited/TX_IN*%
X35801700Y-82386900D02*
X40955000Y-77233600D01*
%TO.N,/AMSRS232C SM Edited/RX_OUT*%
X60835000Y-120915500D02*
X60835000Y-120225000D01*
X61625600Y-121706100D02*
X60835000Y-120915500D01*
X66028900Y-121706100D02*
X61625600Y-121706100D01*
X67185000Y-120550000D02*
X66028900Y-121706100D01*
X60835000Y-120225000D02*
X57324600Y-116714600D01*
X57324600Y-116714600D02*
X54073000Y-116714600D01*
%TO.N,/AMSRS232C SM Edited/DTR_OUT*%
X35770900Y-112272500D02*
X43005600Y-112272500D01*
X29846900Y-106348500D02*
X35770900Y-112272500D01*
X38415000Y-77553300D02*
X38415000Y-78332400D01*
X38415000Y-78332400D02*
X29846900Y-86900500D01*
X29846900Y-86900500D02*
X29846900Y-106348500D01*
%TO.N,/AMSRS232C SM Edited/RTS_OUT*%
X38999800Y-80690800D02*
X40697100Y-78993500D01*
X45285500Y-93873800D02*
X38999800Y-87588100D01*
X38999800Y-87588100D02*
X38999800Y-80690800D01*
%TD*%
%TA.AperFunction,Conductor*%
%TO.N,GND*%
G36*
X62495430Y-102212685D02*
G01*
X62541185Y-102265489D01*
X62551129Y-102334647D01*
X62548166Y-102349094D01*
X62514859Y-102473393D01*
X62514858Y-102473400D01*
X62495034Y-102699997D01*
X62495034Y-102700002D01*
X62514858Y-102926599D01*
X62514860Y-102926610D01*
X62573730Y-103146317D01*
X62573734Y-103146326D01*
X62669865Y-103352481D01*
X62669866Y-103352483D01*
X62720973Y-103425471D01*
X62720973Y-103425472D01*
X63262580Y-102883865D01*
X63323903Y-102850380D01*
X63393594Y-102855364D01*
X63449528Y-102897235D01*
X63460742Y-102915246D01*
X63462867Y-102919415D01*
X63472358Y-102938044D01*
X63472363Y-102938050D01*
X63561949Y-103027636D01*
X63561951Y-103027637D01*
X63561955Y-103027641D01*
X63584747Y-103039254D01*
X63635542Y-103087228D01*
X63652337Y-103155049D01*
X63629799Y-103221184D01*
X63616132Y-103237419D01*
X63074526Y-103779025D01*
X63074526Y-103779026D01*
X63147512Y-103830131D01*
X63147516Y-103830133D01*
X63353673Y-103926265D01*
X63353682Y-103926269D01*
X63573389Y-103985139D01*
X63573400Y-103985141D01*
X63799998Y-104004966D01*
X63799999Y-104004966D01*
X63827506Y-104002559D01*
X63896006Y-104016325D01*
X63946190Y-104064939D01*
X63962124Y-104132968D01*
X63938750Y-104198811D01*
X63909439Y-104227661D01*
X63800699Y-104303802D01*
X63638806Y-104465695D01*
X63507476Y-104653251D01*
X63487382Y-104696345D01*
X63441209Y-104748784D01*
X63374016Y-104767936D01*
X63307135Y-104747720D01*
X63262618Y-104696345D01*
X63242523Y-104653251D01*
X63223040Y-104625427D01*
X63111198Y-104465700D01*
X62949300Y-104303802D01*
X62761749Y-104172477D01*
X62761745Y-104172475D01*
X62554249Y-104075718D01*
X62554238Y-104075714D01*
X62333089Y-104016457D01*
X62333081Y-104016456D01*
X62105002Y-103996502D01*
X62104998Y-103996502D01*
X61876918Y-104016456D01*
X61876910Y-104016457D01*
X61655761Y-104075714D01*
X61655750Y-104075718D01*
X61448254Y-104172475D01*
X61448252Y-104172476D01*
X61397088Y-104208302D01*
X61260700Y-104303802D01*
X61260698Y-104303803D01*
X61260695Y-104303806D01*
X61098806Y-104465695D01*
X60967476Y-104653251D01*
X60947382Y-104696345D01*
X60901209Y-104748784D01*
X60834016Y-104767936D01*
X60767135Y-104747720D01*
X60722618Y-104696345D01*
X60702523Y-104653251D01*
X60683040Y-104625427D01*
X60571198Y-104465700D01*
X60409300Y-104303802D01*
X60221749Y-104172477D01*
X60221745Y-104172475D01*
X60014249Y-104075718D01*
X60014238Y-104075714D01*
X59793089Y-104016457D01*
X59793081Y-104016456D01*
X59565002Y-103996502D01*
X59564998Y-103996502D01*
X59336918Y-104016456D01*
X59336910Y-104016457D01*
X59115761Y-104075714D01*
X59115750Y-104075718D01*
X58908254Y-104172475D01*
X58908252Y-104172476D01*
X58857088Y-104208302D01*
X58720700Y-104303802D01*
X58720698Y-104303803D01*
X58720695Y-104303806D01*
X58558806Y-104465695D01*
X58427476Y-104653251D01*
X58407382Y-104696345D01*
X58361209Y-104748784D01*
X58294016Y-104767936D01*
X58227135Y-104747720D01*
X58182618Y-104696345D01*
X58162523Y-104653251D01*
X58143040Y-104625427D01*
X58031198Y-104465700D01*
X57869300Y-104303802D01*
X57681749Y-104172477D01*
X57681745Y-104172475D01*
X57474249Y-104075718D01*
X57474238Y-104075714D01*
X57253089Y-104016457D01*
X57253081Y-104016456D01*
X57025002Y-103996502D01*
X57024998Y-103996502D01*
X56796918Y-104016456D01*
X56796910Y-104016457D01*
X56575761Y-104075714D01*
X56575750Y-104075718D01*
X56368254Y-104172475D01*
X56368252Y-104172476D01*
X56317088Y-104208302D01*
X56180700Y-104303802D01*
X56180698Y-104303803D01*
X56180695Y-104303806D01*
X56018806Y-104465695D01*
X56018803Y-104465698D01*
X56018802Y-104465700D01*
X55973413Y-104530522D01*
X55887476Y-104653252D01*
X55887474Y-104653256D01*
X55862691Y-104706402D01*
X55816518Y-104758841D01*
X55749324Y-104777992D01*
X55682444Y-104757775D01*
X55637927Y-104706399D01*
X55615133Y-104657517D01*
X55484657Y-104471179D01*
X55323820Y-104310342D01*
X55137482Y-104179865D01*
X54931328Y-104083734D01*
X54735000Y-104031127D01*
X54735000Y-104799424D01*
X54715315Y-104866463D01*
X54662511Y-104912218D01*
X54593353Y-104922162D01*
X54591602Y-104921897D01*
X54516486Y-104910000D01*
X54516481Y-104910000D01*
X54453519Y-104910000D01*
X54453514Y-104910000D01*
X54378398Y-104921897D01*
X54309104Y-104912942D01*
X54255652Y-104867946D01*
X54235013Y-104801194D01*
X54235000Y-104799424D01*
X54235000Y-103969977D01*
X54238348Y-103969977D01*
X54236623Y-103940993D01*
X54269781Y-103881121D01*
X55921585Y-102229319D01*
X55982909Y-102195834D01*
X56009267Y-102193000D01*
X62428391Y-102193000D01*
X62495430Y-102212685D01*
G37*
%TD.AperFunction*%
%TA.AperFunction,Conductor*%
G36*
X67486631Y-102212685D02*
G01*
X67532386Y-102265489D01*
X67542330Y-102334647D01*
X67539368Y-102349085D01*
X67523315Y-102408995D01*
X67506457Y-102471911D01*
X67506456Y-102471918D01*
X67486502Y-102699998D01*
X67486502Y-102700001D01*
X67506456Y-102928081D01*
X67506457Y-102928089D01*
X67535267Y-103035606D01*
X67533604Y-103105456D01*
X67494442Y-103163319D01*
X67430213Y-103190823D01*
X67415492Y-103191700D01*
X66213434Y-103191700D01*
X66197686Y-103189961D01*
X66197661Y-103190232D01*
X66189894Y-103189498D01*
X66189891Y-103189498D01*
X66119842Y-103191700D01*
X66089937Y-103191700D01*
X66082943Y-103192584D01*
X66077120Y-103193042D01*
X66029911Y-103194526D01*
X66029908Y-103194527D01*
X66010305Y-103200222D01*
X65991259Y-103204166D01*
X65971003Y-103206726D01*
X65971001Y-103206726D01*
X65970999Y-103206727D01*
X65927082Y-103224114D01*
X65921556Y-103226006D01*
X65876206Y-103239182D01*
X65858633Y-103249574D01*
X65841170Y-103258129D01*
X65822185Y-103265646D01*
X65822183Y-103265647D01*
X65783979Y-103293404D01*
X65779096Y-103296612D01*
X65738437Y-103320658D01*
X65723996Y-103335098D01*
X65709208Y-103347727D01*
X65692697Y-103359723D01*
X65692692Y-103359728D01*
X65662590Y-103396114D01*
X65658658Y-103400436D01*
X65057429Y-104001664D01*
X64996106Y-104035149D01*
X64937655Y-104033758D01*
X64873087Y-104016457D01*
X64873085Y-104016456D01*
X64873081Y-104016456D01*
X64645002Y-103996502D01*
X64644993Y-103996502D01*
X64614478Y-103999171D01*
X64545979Y-103985403D01*
X64495797Y-103936786D01*
X64479865Y-103868757D01*
X64503242Y-103802914D01*
X64525280Y-103781224D01*
X64525472Y-103779025D01*
X63983866Y-103237419D01*
X63950381Y-103176096D01*
X63955365Y-103106404D01*
X63997237Y-103050471D01*
X64015245Y-103039258D01*
X64038045Y-103027641D01*
X64127641Y-102938045D01*
X64139254Y-102915252D01*
X64187225Y-102864458D01*
X64255046Y-102847661D01*
X64321181Y-102870197D01*
X64337419Y-102883866D01*
X64879025Y-103425472D01*
X64930136Y-103352478D01*
X65026264Y-103146331D01*
X65026269Y-103146317D01*
X65085139Y-102926610D01*
X65085141Y-102926599D01*
X65104966Y-102700002D01*
X65104966Y-102699997D01*
X65085141Y-102473400D01*
X65085140Y-102473393D01*
X65051834Y-102349094D01*
X65053497Y-102279244D01*
X65092659Y-102221381D01*
X65156888Y-102193877D01*
X65171609Y-102193000D01*
X67419592Y-102193000D01*
X67486631Y-102212685D01*
G37*
%TD.AperFunction*%
%TA.AperFunction,Conductor*%
G36*
X76117864Y-80537278D02*
G01*
X76162382Y-80588655D01*
X76182477Y-80631749D01*
X76313802Y-80819300D01*
X76475700Y-80981198D01*
X76633625Y-81091779D01*
X76677249Y-81146354D01*
X76686500Y-81193352D01*
X76686500Y-81202843D01*
X76666815Y-81269882D01*
X76614011Y-81315637D01*
X76558286Y-81324734D01*
X76558286Y-81326400D01*
X76360813Y-81326400D01*
X76174014Y-81366105D01*
X75999546Y-81443783D01*
X75845045Y-81556035D01*
X75717259Y-81697957D01*
X75621773Y-81863343D01*
X75621770Y-81863350D01*
X75590258Y-81960335D01*
X75562758Y-82044972D01*
X75546129Y-82203185D01*
X75545319Y-82210896D01*
X75518734Y-82275510D01*
X75509679Y-82285615D01*
X70647379Y-87147914D01*
X70635020Y-87157818D01*
X70635193Y-87158027D01*
X70629183Y-87162999D01*
X70581216Y-87214078D01*
X70560072Y-87235222D01*
X70560057Y-87235239D01*
X70555731Y-87240814D01*
X70551947Y-87245244D01*
X70519619Y-87279671D01*
X70519612Y-87279681D01*
X70509779Y-87297567D01*
X70499103Y-87313820D01*
X70486586Y-87329957D01*
X70486585Y-87329959D01*
X70467825Y-87373310D01*
X70465255Y-87378556D01*
X70442503Y-87419941D01*
X70442503Y-87419942D01*
X70437425Y-87439720D01*
X70431125Y-87458122D01*
X70423018Y-87476857D01*
X70415631Y-87523495D01*
X70414446Y-87529216D01*
X70402700Y-87574965D01*
X70402700Y-87595384D01*
X70401173Y-87614783D01*
X70399087Y-87627956D01*
X70397980Y-87634943D01*
X70399413Y-87650102D01*
X70402425Y-87681966D01*
X70402700Y-87687804D01*
X70402700Y-96550032D01*
X70383015Y-96617071D01*
X70366381Y-96637713D01*
X69212429Y-97791664D01*
X69151106Y-97825149D01*
X69092655Y-97823758D01*
X69050322Y-97812414D01*
X69028091Y-97806458D01*
X69028089Y-97806457D01*
X69028087Y-97806457D01*
X69028085Y-97806456D01*
X69028081Y-97806456D01*
X68800002Y-97786502D01*
X68799998Y-97786502D01*
X68571918Y-97806456D01*
X68571910Y-97806457D01*
X68350761Y-97865714D01*
X68350750Y-97865718D01*
X68143254Y-97962475D01*
X68143252Y-97962476D01*
X68088869Y-98000556D01*
X67955700Y-98093802D01*
X67955698Y-98093803D01*
X67955695Y-98093806D01*
X67793806Y-98255695D01*
X67662476Y-98443252D01*
X67662475Y-98443254D01*
X67565718Y-98650750D01*
X67565714Y-98650761D01*
X67506457Y-98871910D01*
X67506456Y-98871918D01*
X67486502Y-99099998D01*
X67486502Y-99100001D01*
X67506456Y-99328081D01*
X67506457Y-99328089D01*
X67565714Y-99549238D01*
X67565718Y-99549249D01*
X67660488Y-99752483D01*
X67662477Y-99756749D01*
X67673279Y-99772176D01*
X67695607Y-99838381D01*
X67678598Y-99906148D01*
X67627651Y-99953962D01*
X67571705Y-99967300D01*
X65017919Y-99967300D01*
X64950880Y-99947615D01*
X64905125Y-99894811D01*
X64895181Y-99825653D01*
X64916345Y-99772175D01*
X64930133Y-99752483D01*
X65026265Y-99546326D01*
X65026269Y-99546317D01*
X65085139Y-99326610D01*
X65085141Y-99326599D01*
X65104966Y-99100002D01*
X65104966Y-99099997D01*
X65085141Y-98873400D01*
X65085139Y-98873389D01*
X65026269Y-98653682D01*
X65026265Y-98653673D01*
X64930133Y-98447516D01*
X64930131Y-98447512D01*
X64879026Y-98374526D01*
X64879025Y-98374526D01*
X64337419Y-98916132D01*
X64276096Y-98949617D01*
X64206404Y-98944633D01*
X64150471Y-98902761D01*
X64139256Y-98884751D01*
X64127641Y-98861955D01*
X64127637Y-98861951D01*
X64127636Y-98861949D01*
X64038050Y-98772363D01*
X64038044Y-98772358D01*
X64028109Y-98767296D01*
X64015250Y-98760744D01*
X63964456Y-98712773D01*
X63947660Y-98644952D01*
X63970197Y-98578817D01*
X63983865Y-98562580D01*
X64525472Y-98020973D01*
X64452483Y-97969866D01*
X64452481Y-97969865D01*
X64246326Y-97873734D01*
X64246317Y-97873730D01*
X64026610Y-97814860D01*
X64026599Y-97814858D01*
X63800002Y-97795034D01*
X63799998Y-97795034D01*
X63573400Y-97814858D01*
X63573389Y-97814860D01*
X63353682Y-97873730D01*
X63353673Y-97873734D01*
X63147513Y-97969868D01*
X63074526Y-98020973D01*
X63616133Y-98562580D01*
X63649618Y-98623903D01*
X63644634Y-98693595D01*
X63602762Y-98749528D01*
X63584748Y-98760745D01*
X63561956Y-98772358D01*
X63561949Y-98772363D01*
X63472363Y-98861949D01*
X63472358Y-98861956D01*
X63460745Y-98884748D01*
X63412770Y-98935544D01*
X63344949Y-98952338D01*
X63278814Y-98929800D01*
X63262580Y-98916133D01*
X62720973Y-98374526D01*
X62669868Y-98447513D01*
X62573734Y-98653673D01*
X62573730Y-98653682D01*
X62514860Y-98873389D01*
X62514858Y-98873400D01*
X62495034Y-99099997D01*
X62495034Y-99100002D01*
X62514858Y-99326599D01*
X62514860Y-99326610D01*
X62573730Y-99546317D01*
X62573734Y-99546326D01*
X62669866Y-99752483D01*
X62683655Y-99772175D01*
X62705983Y-99838381D01*
X62688974Y-99906149D01*
X62638026Y-99953962D01*
X62582081Y-99967300D01*
X54874230Y-99967300D01*
X54858482Y-99965561D01*
X54858457Y-99965832D01*
X54850690Y-99965098D01*
X54850687Y-99965098D01*
X54780638Y-99967300D01*
X54750733Y-99967300D01*
X54743739Y-99968184D01*
X54737916Y-99968642D01*
X54690708Y-99970126D01*
X54690705Y-99970127D01*
X54671102Y-99975822D01*
X54652054Y-99979766D01*
X54631799Y-99982326D01*
X54615943Y-99988603D01*
X54587881Y-99999713D01*
X54582355Y-100001605D01*
X54537003Y-100014781D01*
X54519429Y-100025174D01*
X54501968Y-100033728D01*
X54482982Y-100041246D01*
X54482980Y-100041247D01*
X54444768Y-100069008D01*
X54439886Y-100072215D01*
X54399233Y-100096257D01*
X54384797Y-100110694D01*
X54370011Y-100123323D01*
X54353489Y-100135328D01*
X54353487Y-100135329D01*
X54353487Y-100135330D01*
X54353484Y-100135332D01*
X54323376Y-100171725D01*
X54319445Y-100176046D01*
X51774710Y-102720781D01*
X51713387Y-102754266D01*
X51687029Y-102757100D01*
X51619358Y-102757100D01*
X51552319Y-102737415D01*
X51506564Y-102684611D01*
X51496620Y-102615453D01*
X51525645Y-102551897D01*
X51531677Y-102545419D01*
X58552094Y-95525002D01*
X62495034Y-95525002D01*
X62514858Y-95751599D01*
X62514860Y-95751610D01*
X62573730Y-95971317D01*
X62573734Y-95971326D01*
X62669865Y-96177481D01*
X62669866Y-96177483D01*
X62720973Y-96250471D01*
X62720973Y-96250472D01*
X63262580Y-95708865D01*
X63323903Y-95675380D01*
X63393594Y-95680364D01*
X63449528Y-95722235D01*
X63460742Y-95740246D01*
X63466527Y-95751599D01*
X63472358Y-95763044D01*
X63472363Y-95763050D01*
X63561949Y-95852636D01*
X63561951Y-95852637D01*
X63561955Y-95852641D01*
X63584747Y-95864254D01*
X63635542Y-95912228D01*
X63652337Y-95980049D01*
X63629799Y-96046184D01*
X63616132Y-96062419D01*
X63074526Y-96604025D01*
X63074526Y-96604026D01*
X63147512Y-96655131D01*
X63147516Y-96655133D01*
X63353673Y-96751265D01*
X63353682Y-96751269D01*
X63573389Y-96810139D01*
X63573400Y-96810141D01*
X63799998Y-96829966D01*
X63800002Y-96829966D01*
X64026599Y-96810141D01*
X64026610Y-96810139D01*
X64246317Y-96751269D01*
X64246331Y-96751264D01*
X64452478Y-96655136D01*
X64525472Y-96604025D01*
X63983866Y-96062419D01*
X63950381Y-96001096D01*
X63955365Y-95931404D01*
X63997237Y-95875471D01*
X64015245Y-95864258D01*
X64038045Y-95852641D01*
X64127641Y-95763045D01*
X64139254Y-95740252D01*
X64187225Y-95689458D01*
X64255046Y-95672661D01*
X64321181Y-95695197D01*
X64337419Y-95708866D01*
X64879025Y-96250472D01*
X64930136Y-96177478D01*
X65026264Y-95971331D01*
X65026269Y-95971317D01*
X65085139Y-95751610D01*
X65085141Y-95751599D01*
X65104966Y-95525002D01*
X65104966Y-95524997D01*
X65085141Y-95298400D01*
X65085139Y-95298389D01*
X65026269Y-95078682D01*
X65026265Y-95078673D01*
X64930133Y-94872516D01*
X64930131Y-94872512D01*
X64879026Y-94799526D01*
X64879025Y-94799526D01*
X64337419Y-95341132D01*
X64276096Y-95374617D01*
X64206404Y-95369633D01*
X64150471Y-95327761D01*
X64139256Y-95309751D01*
X64127641Y-95286955D01*
X64127637Y-95286951D01*
X64127636Y-95286949D01*
X64038050Y-95197363D01*
X64038044Y-95197358D01*
X64026752Y-95191605D01*
X64015250Y-95185744D01*
X63964456Y-95137773D01*
X63947660Y-95069952D01*
X63970197Y-95003817D01*
X63983865Y-94987580D01*
X64525472Y-94445973D01*
X64452483Y-94394866D01*
X64452481Y-94394865D01*
X64246326Y-94298734D01*
X64246317Y-94298730D01*
X64026610Y-94239860D01*
X64026599Y-94239858D01*
X63800002Y-94220034D01*
X63799998Y-94220034D01*
X63573400Y-94239858D01*
X63573389Y-94239860D01*
X63353682Y-94298730D01*
X63353673Y-94298734D01*
X63147513Y-94394868D01*
X63074526Y-94445973D01*
X63616133Y-94987580D01*
X63649618Y-95048903D01*
X63644634Y-95118595D01*
X63602762Y-95174528D01*
X63584748Y-95185745D01*
X63561956Y-95197358D01*
X63561949Y-95197363D01*
X63472363Y-95286949D01*
X63472358Y-95286956D01*
X63460745Y-95309748D01*
X63412770Y-95360544D01*
X63344949Y-95377338D01*
X63278814Y-95354800D01*
X63262580Y-95341133D01*
X62720973Y-94799526D01*
X62669868Y-94872513D01*
X62573734Y-95078673D01*
X62573730Y-95078682D01*
X62514860Y-95298389D01*
X62514858Y-95298400D01*
X62495034Y-95524997D01*
X62495034Y-95525002D01*
X58552094Y-95525002D01*
X71857277Y-82219819D01*
X71918600Y-82186334D01*
X71944958Y-82183500D01*
X72247141Y-82183500D01*
X72314180Y-82203185D01*
X72359935Y-82255989D01*
X72369879Y-82325147D01*
X72365072Y-82345818D01*
X72331458Y-82449271D01*
X72330366Y-82459655D01*
X72303777Y-82524268D01*
X72294727Y-82534366D01*
X68436179Y-86392914D01*
X68423820Y-86402818D01*
X68423993Y-86403027D01*
X68417983Y-86407999D01*
X68417982Y-86407999D01*
X68417982Y-86408000D01*
X68406828Y-86419878D01*
X68370016Y-86459078D01*
X68348872Y-86480222D01*
X68348857Y-86480239D01*
X68344531Y-86485814D01*
X68340747Y-86490244D01*
X68308419Y-86524671D01*
X68308412Y-86524681D01*
X68298579Y-86542567D01*
X68287903Y-86558820D01*
X68275386Y-86574957D01*
X68275385Y-86574959D01*
X68256625Y-86618310D01*
X68254055Y-86623556D01*
X68231303Y-86664941D01*
X68231303Y-86664942D01*
X68226225Y-86684720D01*
X68219925Y-86703122D01*
X68211818Y-86721857D01*
X68204431Y-86768495D01*
X68203246Y-86774216D01*
X68191500Y-86819965D01*
X68191500Y-86840384D01*
X68189972Y-86859783D01*
X68186780Y-86879943D01*
X68187941Y-86892227D01*
X68191225Y-86926966D01*
X68191500Y-86932804D01*
X68191500Y-87818079D01*
X68171815Y-87885118D01*
X68119011Y-87930873D01*
X68085824Y-87939937D01*
X68085869Y-87940149D01*
X68082175Y-87940934D01*
X68080477Y-87941398D01*
X68079518Y-87941498D01*
X67892714Y-87981205D01*
X67892711Y-87981206D01*
X67892712Y-87981206D01*
X67722287Y-88057084D01*
X67718246Y-88058883D01*
X67563745Y-88171135D01*
X67435959Y-88313057D01*
X67340473Y-88478443D01*
X67340470Y-88478450D01*
X67281459Y-88660068D01*
X67281458Y-88660072D01*
X67261496Y-88850000D01*
X67281458Y-89039928D01*
X67281459Y-89039931D01*
X67340470Y-89221549D01*
X67340473Y-89221556D01*
X67435960Y-89386944D01*
X67563747Y-89528866D01*
X67718248Y-89641118D01*
X67892712Y-89718794D01*
X68079513Y-89758500D01*
X68079526Y-89758500D01*
X68080461Y-89758599D01*
X68080976Y-89758811D01*
X68085869Y-89759851D01*
X68085678Y-89760745D01*
X68145076Y-89785183D01*
X68185061Y-89842480D01*
X68191500Y-89881920D01*
X68191500Y-94289142D01*
X68171815Y-94356181D01*
X68138624Y-94390716D01*
X67955699Y-94518802D01*
X67793806Y-94680695D01*
X67793803Y-94680698D01*
X67793802Y-94680700D01*
X67755472Y-94735441D01*
X67662476Y-94868252D01*
X67662475Y-94868254D01*
X67565718Y-95075750D01*
X67565714Y-95075761D01*
X67506457Y-95296910D01*
X67506456Y-95296918D01*
X67486502Y-95524998D01*
X67486502Y-95525001D01*
X67506456Y-95753081D01*
X67506457Y-95753089D01*
X67565714Y-95974238D01*
X67565718Y-95974249D01*
X67660485Y-96177478D01*
X67662477Y-96181749D01*
X67793802Y-96369300D01*
X67955700Y-96531198D01*
X68143251Y-96662523D01*
X68268091Y-96720736D01*
X68350750Y-96759281D01*
X68350752Y-96759281D01*
X68350757Y-96759284D01*
X68571913Y-96818543D01*
X68734832Y-96832796D01*
X68799998Y-96838498D01*
X68800000Y-96838498D01*
X68800002Y-96838498D01*
X68857021Y-96833509D01*
X69028087Y-96818543D01*
X69249243Y-96759284D01*
X69456749Y-96662523D01*
X69644300Y-96531198D01*
X69806198Y-96369300D01*
X69937523Y-96181749D01*
X70034284Y-95974243D01*
X70093543Y-95753087D01*
X70113498Y-95525000D01*
X70111922Y-95506991D01*
X70100579Y-95377338D01*
X70093543Y-95296913D01*
X70034284Y-95075757D01*
X69937523Y-94868251D01*
X69806198Y-94680700D01*
X69644300Y-94518802D01*
X69614355Y-94497834D01*
X69511376Y-94425726D01*
X69467751Y-94371149D01*
X69458500Y-94324152D01*
X69458500Y-88896605D01*
X69460696Y-88873374D01*
X69462275Y-88865094D01*
X69458621Y-88807018D01*
X69458500Y-88803146D01*
X69458500Y-87213765D01*
X69478185Y-87146726D01*
X69494814Y-87126089D01*
X73036884Y-83584018D01*
X73098207Y-83550534D01*
X73124565Y-83547700D01*
X73320487Y-83547700D01*
X73507288Y-83507994D01*
X73681752Y-83430318D01*
X73836253Y-83318066D01*
X73964040Y-83176144D01*
X74059527Y-83010756D01*
X74118542Y-82829128D01*
X74138504Y-82639200D01*
X74118542Y-82449272D01*
X74059527Y-82267644D01*
X73964040Y-82102256D01*
X73836253Y-81960334D01*
X73688266Y-81852814D01*
X73645602Y-81797486D01*
X73639623Y-81727873D01*
X73672229Y-81666078D01*
X73673402Y-81664887D01*
X74131772Y-81206517D01*
X74193093Y-81173034D01*
X74262785Y-81178018D01*
X74271855Y-81181818D01*
X74330750Y-81209281D01*
X74330752Y-81209281D01*
X74330757Y-81209284D01*
X74551913Y-81268543D01*
X74714832Y-81282796D01*
X74779998Y-81288498D01*
X74780000Y-81288498D01*
X74780002Y-81288498D01*
X74837139Y-81283499D01*
X75008087Y-81268543D01*
X75229243Y-81209284D01*
X75436749Y-81112523D01*
X75624300Y-80981198D01*
X75786198Y-80819300D01*
X75917523Y-80631749D01*
X75937617Y-80588655D01*
X75983790Y-80536215D01*
X76050983Y-80517063D01*
X76117864Y-80537278D01*
G37*
%TD.AperFunction*%
%TA.AperFunction,Conductor*%
G36*
X77811159Y-91217705D02*
G01*
X77823072Y-91225361D01*
X77908342Y-91287314D01*
X77908343Y-91287315D01*
X77908345Y-91287316D01*
X77908348Y-91287318D01*
X78082812Y-91364994D01*
X78269613Y-91404700D01*
X78460587Y-91404700D01*
X78624090Y-91369946D01*
X78693756Y-91375262D01*
X78737551Y-91403555D01*
X87152615Y-99818619D01*
X87186100Y-99879942D01*
X87181116Y-99949634D01*
X87139244Y-100005567D01*
X87073780Y-100029984D01*
X87064934Y-100030300D01*
X74292466Y-100030300D01*
X74225427Y-100010615D01*
X74204785Y-99993981D01*
X72243019Y-98032214D01*
X72209534Y-97970891D01*
X72206700Y-97944533D01*
X72206700Y-96431356D01*
X72226385Y-96364317D01*
X72279189Y-96318562D01*
X72348347Y-96308618D01*
X72403582Y-96331036D01*
X72519448Y-96415218D01*
X72693912Y-96492894D01*
X72880713Y-96532600D01*
X73071687Y-96532600D01*
X73258488Y-96492894D01*
X73432952Y-96415218D01*
X73587453Y-96302966D01*
X73672672Y-96208320D01*
X73732157Y-96171672D01*
X73802014Y-96173002D01*
X73841291Y-96193679D01*
X73845965Y-96197340D01*
X73845968Y-96197342D01*
X74130678Y-96369454D01*
X74130680Y-96369456D01*
X74434056Y-96505994D01*
X74434071Y-96506000D01*
X74751670Y-96604967D01*
X75078923Y-96664939D01*
X75411000Y-96685025D01*
X75743076Y-96664939D01*
X76070329Y-96604967D01*
X76387928Y-96506000D01*
X76387943Y-96505994D01*
X76691319Y-96369456D01*
X76691321Y-96369454D01*
X76976031Y-96197342D01*
X76976039Y-96197336D01*
X77171582Y-96044137D01*
X77171582Y-96044136D01*
X76276345Y-95148899D01*
X76242860Y-95087576D01*
X76247844Y-95017884D01*
X76279447Y-94973136D01*
X76278250Y-94971939D01*
X76452939Y-94797250D01*
X76454311Y-94798622D01*
X76505345Y-94764635D01*
X76575205Y-94763494D01*
X76629898Y-94795345D01*
X77525136Y-95690582D01*
X77525137Y-95690582D01*
X77678336Y-95495039D01*
X77678342Y-95495031D01*
X77850454Y-95210321D01*
X77850456Y-95210319D01*
X77986994Y-94906943D01*
X77987000Y-94906928D01*
X78085967Y-94589329D01*
X78145939Y-94262076D01*
X78166025Y-93929999D01*
X78145939Y-93597923D01*
X78085967Y-93270670D01*
X77987000Y-92953071D01*
X77986994Y-92953056D01*
X77850456Y-92649680D01*
X77850454Y-92649678D01*
X77678343Y-92364969D01*
X77525136Y-92169416D01*
X76629898Y-93064654D01*
X76568575Y-93098139D01*
X76498883Y-93093155D01*
X76454137Y-93061551D01*
X76452939Y-93062750D01*
X76278250Y-92888062D01*
X76279610Y-92886701D01*
X76245609Y-92835574D01*
X76244515Y-92765713D01*
X76276344Y-92711100D01*
X77171582Y-91815862D01*
X77171582Y-91815861D01*
X76976030Y-91662656D01*
X76976023Y-91662651D01*
X76846332Y-91584251D01*
X76799144Y-91532724D01*
X76787305Y-91463864D01*
X76814573Y-91399535D01*
X76872292Y-91360161D01*
X76936262Y-91356844D01*
X77067313Y-91384700D01*
X77258287Y-91384700D01*
X77445088Y-91344994D01*
X77619552Y-91267318D01*
X77677301Y-91225360D01*
X77743105Y-91201880D01*
X77811159Y-91217705D01*
G37*
%TD.AperFunction*%
%TA.AperFunction,Conductor*%
G36*
X88835071Y-79235775D02*
G01*
X91437081Y-81837785D01*
X91470566Y-81899108D01*
X91473400Y-81925466D01*
X91473400Y-85760032D01*
X91453715Y-85827071D01*
X91437085Y-85847708D01*
X91333412Y-85951382D01*
X91272092Y-85984866D01*
X91245733Y-85987700D01*
X91114913Y-85987700D01*
X90928114Y-86027405D01*
X90753646Y-86105083D01*
X90599145Y-86217335D01*
X90471359Y-86359257D01*
X90375873Y-86524643D01*
X90375870Y-86524650D01*
X90317719Y-86703622D01*
X90316858Y-86706272D01*
X90302725Y-86840741D01*
X90297314Y-86892227D01*
X90296896Y-86896200D01*
X90316858Y-87086128D01*
X90316859Y-87086131D01*
X90375870Y-87267749D01*
X90375873Y-87267756D01*
X90471360Y-87433144D01*
X90535579Y-87504466D01*
X90599060Y-87574970D01*
X90599147Y-87575066D01*
X90753648Y-87687318D01*
X90928112Y-87764994D01*
X91114913Y-87804700D01*
X91305887Y-87804700D01*
X91492688Y-87764994D01*
X91667152Y-87687318D01*
X91821653Y-87575066D01*
X91949440Y-87433144D01*
X92044927Y-87267756D01*
X92089248Y-87131348D01*
X92128685Y-87073675D01*
X92193044Y-87046476D01*
X92255752Y-87057327D01*
X92256190Y-87056224D01*
X92261481Y-87058319D01*
X92261890Y-87058390D01*
X92262620Y-87058770D01*
X92263438Y-87059094D01*
X92263440Y-87059095D01*
X92283216Y-87064172D01*
X92301624Y-87070475D01*
X92320350Y-87078579D01*
X92320352Y-87078580D01*
X92320353Y-87078580D01*
X92320355Y-87078581D01*
X92361284Y-87085063D01*
X92367003Y-87085969D01*
X92372712Y-87087151D01*
X92418470Y-87098900D01*
X92438884Y-87098900D01*
X92458283Y-87100427D01*
X92478443Y-87103620D01*
X92525465Y-87099175D01*
X92531304Y-87098900D01*
X93471266Y-87098900D01*
X93487013Y-87100638D01*
X93487039Y-87100368D01*
X93494805Y-87101101D01*
X93494809Y-87101102D01*
X93564858Y-87098900D01*
X93594756Y-87098900D01*
X93594757Y-87098900D01*
X93596122Y-87098727D01*
X93601762Y-87098014D01*
X93607585Y-87097556D01*
X93633608Y-87096738D01*
X93654790Y-87096073D01*
X93664581Y-87093227D01*
X93674381Y-87090380D01*
X93693438Y-87086432D01*
X93713697Y-87083874D01*
X93757621Y-87066482D01*
X93763121Y-87064599D01*
X93808493Y-87051418D01*
X93826065Y-87041025D01*
X93843532Y-87032468D01*
X93862517Y-87024952D01*
X93900726Y-86997190D01*
X93905604Y-86993985D01*
X93946262Y-86969942D01*
X93960702Y-86955500D01*
X93975492Y-86942870D01*
X93992007Y-86930872D01*
X94022122Y-86894467D01*
X94026026Y-86890176D01*
X99730321Y-81185882D01*
X99791642Y-81152399D01*
X99861334Y-81157383D01*
X99917267Y-81199255D01*
X99941684Y-81264719D01*
X99942000Y-81273565D01*
X99942000Y-81337332D01*
X99922315Y-81404371D01*
X99905681Y-81425013D01*
X94976979Y-86353714D01*
X94964620Y-86363618D01*
X94964793Y-86363827D01*
X94958783Y-86368799D01*
X94910816Y-86419878D01*
X94889672Y-86441022D01*
X94889657Y-86441039D01*
X94885331Y-86446614D01*
X94881547Y-86451044D01*
X94849219Y-86485471D01*
X94849212Y-86485481D01*
X94839379Y-86503367D01*
X94828703Y-86519620D01*
X94816186Y-86535757D01*
X94816185Y-86535759D01*
X94797425Y-86579110D01*
X94794855Y-86584356D01*
X94772103Y-86625741D01*
X94772103Y-86625742D01*
X94767025Y-86645520D01*
X94760725Y-86663922D01*
X94752618Y-86682657D01*
X94745231Y-86729295D01*
X94744046Y-86735016D01*
X94732300Y-86780765D01*
X94732300Y-86801184D01*
X94730773Y-86820583D01*
X94727580Y-86840741D01*
X94727579Y-86840744D01*
X94732024Y-86887768D01*
X94732299Y-86893604D01*
X94732300Y-92122066D01*
X94730561Y-92137813D01*
X94730832Y-92137839D01*
X94730098Y-92145605D01*
X94730098Y-92145608D01*
X94730098Y-92145609D01*
X94732003Y-92206198D01*
X94732300Y-92215657D01*
X94732300Y-92242033D01*
X94712615Y-92309072D01*
X94659811Y-92354827D01*
X94590653Y-92364771D01*
X94527097Y-92335746D01*
X94520619Y-92329714D01*
X90756749Y-88565844D01*
X86879816Y-84688911D01*
X86846333Y-84627591D01*
X86843500Y-84601242D01*
X86843500Y-81307227D01*
X86863185Y-81240188D01*
X86915989Y-81194433D01*
X86985147Y-81184489D01*
X87019908Y-81194847D01*
X87033669Y-81201264D01*
X87033682Y-81201269D01*
X87229999Y-81253872D01*
X87230000Y-81253871D01*
X87230000Y-80485575D01*
X87249685Y-80418536D01*
X87302489Y-80372781D01*
X87371647Y-80362837D01*
X87373331Y-80363091D01*
X87405699Y-80368218D01*
X87448515Y-80375000D01*
X87448519Y-80375000D01*
X87511485Y-80375000D01*
X87554300Y-80368218D01*
X87586602Y-80363102D01*
X87655894Y-80372056D01*
X87709347Y-80417052D01*
X87729987Y-80483803D01*
X87730000Y-80485575D01*
X87730000Y-81253872D01*
X87926317Y-81201269D01*
X87926326Y-81201265D01*
X88132482Y-81105134D01*
X88318820Y-80974657D01*
X88479657Y-80813820D01*
X88610134Y-80627482D01*
X88706265Y-80421326D01*
X88706269Y-80421317D01*
X88758872Y-80225000D01*
X87990576Y-80225000D01*
X87923537Y-80205315D01*
X87877782Y-80152511D01*
X87867838Y-80083353D01*
X87868103Y-80081603D01*
X87884986Y-79975003D01*
X87884986Y-79974996D01*
X87868103Y-79868397D01*
X87877058Y-79799104D01*
X87922054Y-79745652D01*
X87988806Y-79725013D01*
X87990576Y-79725000D01*
X88758872Y-79725000D01*
X88758872Y-79724999D01*
X88706269Y-79528682D01*
X88706265Y-79528673D01*
X88635008Y-79375861D01*
X88624516Y-79306784D01*
X88653036Y-79243000D01*
X88711512Y-79204760D01*
X88781380Y-79204205D01*
X88835071Y-79235775D01*
G37*
%TD.AperFunction*%
%TA.AperFunction,Conductor*%
G36*
X71217539Y-25820185D02*
G01*
X71263294Y-25872989D01*
X71274500Y-25924500D01*
X71274500Y-38625368D01*
X71274419Y-38625774D01*
X71274457Y-38649999D01*
X71274576Y-38650284D01*
X71274618Y-38650385D01*
X71281987Y-38657717D01*
X71282179Y-38658001D01*
X71299618Y-38675384D01*
X71299900Y-38675500D01*
X71299999Y-38675541D01*
X71300000Y-38675541D01*
X71324554Y-38675541D01*
X71324760Y-38675500D01*
X120450500Y-38675500D01*
X120517539Y-38695185D01*
X120563294Y-38747989D01*
X120574500Y-38799500D01*
X120574500Y-123525500D01*
X120554815Y-123592539D01*
X120502011Y-123638294D01*
X120450500Y-123649500D01*
X27324500Y-123649500D01*
X27257461Y-123629815D01*
X27211706Y-123577011D01*
X27200500Y-123525500D01*
X27200500Y-83048093D01*
X27967598Y-83048093D01*
X27978519Y-83107696D01*
X27978907Y-83109810D01*
X27979470Y-83113511D01*
X27986308Y-83169815D01*
X27987035Y-83175801D01*
X27990716Y-83185510D01*
X27996738Y-83207110D01*
X27998611Y-83217331D01*
X28024365Y-83274555D01*
X28025798Y-83278015D01*
X28048044Y-83336672D01*
X28048046Y-83336675D01*
X28053941Y-83345216D01*
X28064966Y-83364763D01*
X28069225Y-83374227D01*
X28107916Y-83423611D01*
X28110136Y-83426628D01*
X28145783Y-83478271D01*
X28145784Y-83478272D01*
X28145785Y-83478273D01*
X28192772Y-83519900D01*
X28195464Y-83522434D01*
X29532563Y-84859533D01*
X29535115Y-84862245D01*
X29576722Y-84909210D01*
X29576724Y-84909212D01*
X29576727Y-84909215D01*
X29576729Y-84909216D01*
X29576731Y-84909218D01*
X29628373Y-84944865D01*
X29631391Y-84947085D01*
X29680771Y-84985772D01*
X29680770Y-84985772D01*
X29680772Y-84985773D01*
X29680775Y-84985775D01*
X29690241Y-84990035D01*
X29709787Y-85001060D01*
X29718325Y-85006954D01*
X29777017Y-85029212D01*
X29780414Y-85030619D01*
X29809836Y-85043861D01*
X29837667Y-85056388D01*
X29837671Y-85056389D01*
X29847881Y-85058260D01*
X29869500Y-85064286D01*
X29879199Y-85067965D01*
X29941480Y-85075527D01*
X29945184Y-85076091D01*
X29960096Y-85078823D01*
X30006908Y-85087402D01*
X30006909Y-85087401D01*
X30006910Y-85087402D01*
X30069552Y-85083613D01*
X30073296Y-85083500D01*
X30468632Y-85083500D01*
X30535671Y-85103185D01*
X30581426Y-85155989D01*
X30591370Y-85225147D01*
X30562345Y-85288703D01*
X30556313Y-85295181D01*
X29458079Y-86393414D01*
X29445720Y-86403318D01*
X29445893Y-86403527D01*
X29439883Y-86408499D01*
X29439882Y-86408499D01*
X29439882Y-86408500D01*
X29407992Y-86442459D01*
X29391916Y-86459578D01*
X29370772Y-86480722D01*
X29370757Y-86480739D01*
X29366431Y-86486314D01*
X29362647Y-86490744D01*
X29330319Y-86525171D01*
X29330312Y-86525181D01*
X29320479Y-86543067D01*
X29309803Y-86559320D01*
X29297286Y-86575457D01*
X29297285Y-86575459D01*
X29278525Y-86618810D01*
X29275955Y-86624056D01*
X29253203Y-86665441D01*
X29253203Y-86665442D01*
X29248125Y-86685220D01*
X29241825Y-86703622D01*
X29233718Y-86722357D01*
X29226331Y-86768995D01*
X29225146Y-86774716D01*
X29213400Y-86820465D01*
X29213400Y-86840884D01*
X29211873Y-86860283D01*
X29208680Y-86880441D01*
X29208679Y-86880444D01*
X29213124Y-86927468D01*
X29213399Y-86933304D01*
X29213400Y-106264866D01*
X29211661Y-106280613D01*
X29211932Y-106280639D01*
X29211198Y-106288405D01*
X29211198Y-106288408D01*
X29211198Y-106288409D01*
X29212971Y-106344815D01*
X29213400Y-106358457D01*
X29213400Y-106388359D01*
X29214284Y-106395356D01*
X29214742Y-106401179D01*
X29216226Y-106448389D01*
X29216227Y-106448391D01*
X29221922Y-106467995D01*
X29225867Y-106487042D01*
X29228426Y-106507297D01*
X29228427Y-106507300D01*
X29228428Y-106507303D01*
X29245814Y-106551216D01*
X29247706Y-106556744D01*
X29260881Y-106602092D01*
X29271272Y-106619662D01*
X29279832Y-106637135D01*
X29287347Y-106656117D01*
X29315109Y-106694327D01*
X29318316Y-106699210D01*
X29342358Y-106739862D01*
X29342362Y-106739866D01*
X29356789Y-106754293D01*
X29369426Y-106769088D01*
X29381428Y-106785607D01*
X29417831Y-106815722D01*
X29422131Y-106819635D01*
X32344975Y-109742479D01*
X35263810Y-112661314D01*
X35273716Y-112673678D01*
X35273926Y-112673505D01*
X35278901Y-112679519D01*
X35329994Y-112727499D01*
X35351125Y-112748629D01*
X35351130Y-112748634D01*
X35356702Y-112752956D01*
X35361142Y-112756749D01*
X35395578Y-112789086D01*
X35413467Y-112798920D01*
X35429733Y-112809604D01*
X35445859Y-112822113D01*
X35489198Y-112840867D01*
X35494445Y-112843437D01*
X35535840Y-112866195D01*
X35555618Y-112871273D01*
X35574019Y-112877573D01*
X35592755Y-112885681D01*
X35637262Y-112892729D01*
X35639403Y-112893069D01*
X35645112Y-112894251D01*
X35690870Y-112906000D01*
X35711284Y-112906000D01*
X35730683Y-112907527D01*
X35750843Y-112910720D01*
X35797865Y-112906275D01*
X35803704Y-112906000D01*
X42298291Y-112906000D01*
X42365330Y-112925685D01*
X42390440Y-112947027D01*
X42394347Y-112951366D01*
X42432404Y-112979016D01*
X42506820Y-113033083D01*
X42549485Y-113088414D01*
X42555464Y-113158027D01*
X42522858Y-113219822D01*
X42521615Y-113221082D01*
X36987618Y-118755081D01*
X36926295Y-118788566D01*
X36899937Y-118791400D01*
X35373732Y-118791400D01*
X35357980Y-118789660D01*
X35357955Y-118789932D01*
X35350193Y-118789198D01*
X35350192Y-118789198D01*
X35280129Y-118791400D01*
X35250244Y-118791400D01*
X35250241Y-118791400D01*
X35250229Y-118791401D01*
X35243237Y-118792284D01*
X35237420Y-118792741D01*
X35190211Y-118794225D01*
X35190209Y-118794226D01*
X35170596Y-118799923D01*
X35151559Y-118803865D01*
X35131308Y-118806424D01*
X35131302Y-118806426D01*
X35087399Y-118823807D01*
X35081875Y-118825698D01*
X35036506Y-118838881D01*
X35036501Y-118838883D01*
X35018927Y-118849276D01*
X35001462Y-118857832D01*
X34982487Y-118865345D01*
X34982485Y-118865346D01*
X34944276Y-118893106D01*
X34939394Y-118896312D01*
X34898735Y-118920358D01*
X34884300Y-118934794D01*
X34869512Y-118947425D01*
X34852994Y-118959426D01*
X34852988Y-118959432D01*
X34822880Y-118995825D01*
X34818949Y-119000146D01*
X34577429Y-119241664D01*
X34516106Y-119275149D01*
X34457655Y-119273758D01*
X34393087Y-119256457D01*
X34393085Y-119256456D01*
X34393081Y-119256456D01*
X34165002Y-119236502D01*
X34164998Y-119236502D01*
X33936918Y-119256456D01*
X33936910Y-119256457D01*
X33715761Y-119315714D01*
X33715750Y-119315718D01*
X33508254Y-119412475D01*
X33508252Y-119412476D01*
X33437856Y-119461767D01*
X33320700Y-119543802D01*
X33320698Y-119543803D01*
X33320695Y-119543806D01*
X33158805Y-119705696D01*
X33153429Y-119713374D01*
X33098849Y-119756995D01*
X33029350Y-119764184D01*
X32966997Y-119732658D01*
X32931587Y-119672426D01*
X32928570Y-119655510D01*
X32926989Y-119640799D01*
X32875889Y-119503796D01*
X32788261Y-119386739D01*
X32671204Y-119299111D01*
X32671204Y-119299110D01*
X32534203Y-119248011D01*
X32473654Y-119241500D01*
X32473638Y-119241500D01*
X30776362Y-119241500D01*
X30776345Y-119241500D01*
X30715797Y-119248011D01*
X30715795Y-119248011D01*
X30578795Y-119299111D01*
X30461739Y-119386739D01*
X30374111Y-119503795D01*
X30323011Y-119640795D01*
X30323011Y-119640797D01*
X30316500Y-119701345D01*
X30316500Y-121398654D01*
X30323011Y-121459202D01*
X30323011Y-121459204D01*
X30359189Y-121556198D01*
X30374111Y-121596204D01*
X30461739Y-121713261D01*
X30578796Y-121800889D01*
X30715799Y-121851989D01*
X30743050Y-121854918D01*
X30776345Y-121858499D01*
X30776362Y-121858500D01*
X31986234Y-121858500D01*
X32053273Y-121878185D01*
X32073915Y-121894819D01*
X32724210Y-122545114D01*
X32734116Y-122557478D01*
X32734326Y-122557305D01*
X32739301Y-122563319D01*
X32790394Y-122611299D01*
X32811524Y-122632428D01*
X32811530Y-122632434D01*
X32817102Y-122636756D01*
X32821542Y-122640549D01*
X32855978Y-122672886D01*
X32873867Y-122682720D01*
X32890133Y-122693404D01*
X32906259Y-122705913D01*
X32949598Y-122724667D01*
X32954845Y-122727237D01*
X32996240Y-122749995D01*
X33016018Y-122755073D01*
X33034419Y-122761373D01*
X33053155Y-122769481D01*
X33097662Y-122776529D01*
X33099803Y-122776869D01*
X33105512Y-122778051D01*
X33151270Y-122789800D01*
X33171684Y-122789800D01*
X33191083Y-122791327D01*
X33211243Y-122794520D01*
X33258265Y-122790075D01*
X33264104Y-122789800D01*
X69707366Y-122789800D01*
X69723113Y-122791538D01*
X69723139Y-122791268D01*
X69730905Y-122792001D01*
X69730909Y-122792002D01*
X69800958Y-122789800D01*
X69830856Y-122789800D01*
X69830857Y-122789800D01*
X69832222Y-122789627D01*
X69837862Y-122788914D01*
X69843685Y-122788456D01*
X69869708Y-122787638D01*
X69890890Y-122786973D01*
X69900681Y-122784127D01*
X69910481Y-122781280D01*
X69929538Y-122777332D01*
X69949797Y-122774774D01*
X69993721Y-122757382D01*
X69999221Y-122755499D01*
X70044593Y-122742318D01*
X70062165Y-122731925D01*
X70079632Y-122723368D01*
X70098617Y-122715852D01*
X70136826Y-122688090D01*
X70141704Y-122684885D01*
X70182362Y-122660842D01*
X70196802Y-122646400D01*
X70211592Y-122633770D01*
X70228107Y-122621772D01*
X70258222Y-122585367D01*
X70262126Y-122581076D01*
X71268495Y-121574708D01*
X71329816Y-121541225D01*
X71399508Y-121546209D01*
X71427292Y-121560814D01*
X71608251Y-121687523D01*
X71663445Y-121713260D01*
X71815750Y-121784281D01*
X71815752Y-121784281D01*
X71815757Y-121784284D01*
X72036913Y-121843543D01*
X72199832Y-121857796D01*
X72264998Y-121863498D01*
X72265000Y-121863498D01*
X72265002Y-121863498D01*
X72322139Y-121858499D01*
X72493087Y-121843543D01*
X72714243Y-121784284D01*
X72921749Y-121687523D01*
X73109300Y-121556198D01*
X73271198Y-121394300D01*
X73402523Y-121206749D01*
X73422617Y-121163655D01*
X73468790Y-121111215D01*
X73535983Y-121092063D01*
X73602864Y-121112278D01*
X73647382Y-121163655D01*
X73667477Y-121206749D01*
X73798802Y-121394300D01*
X73960700Y-121556198D01*
X74148251Y-121687523D01*
X74203445Y-121713260D01*
X74355750Y-121784281D01*
X74355752Y-121784281D01*
X74355757Y-121784284D01*
X74576913Y-121843543D01*
X74739832Y-121857796D01*
X74804998Y-121863498D01*
X74805000Y-121863498D01*
X74805002Y-121863498D01*
X74862139Y-121858499D01*
X75033087Y-121843543D01*
X75254243Y-121784284D01*
X75461749Y-121687523D01*
X75649300Y-121556198D01*
X75811198Y-121394300D01*
X75942523Y-121206749D01*
X75962617Y-121163655D01*
X76008790Y-121111215D01*
X76075983Y-121092063D01*
X76142864Y-121112278D01*
X76187382Y-121163655D01*
X76207477Y-121206749D01*
X76338802Y-121394300D01*
X76500700Y-121556198D01*
X76688251Y-121687523D01*
X76743445Y-121713260D01*
X76895750Y-121784281D01*
X76895752Y-121784281D01*
X76895757Y-121784284D01*
X77116913Y-121843543D01*
X77279832Y-121857796D01*
X77344998Y-121863498D01*
X77345000Y-121863498D01*
X77345002Y-121863498D01*
X77402139Y-121858499D01*
X77573087Y-121843543D01*
X77794243Y-121784284D01*
X78001749Y-121687523D01*
X78189300Y-121556198D01*
X78351198Y-121394300D01*
X78482523Y-121206749D01*
X78502618Y-121163654D01*
X78548787Y-121111216D01*
X78615980Y-121092063D01*
X78682862Y-121112277D01*
X78727380Y-121163653D01*
X78747474Y-121206743D01*
X78747477Y-121206749D01*
X78878802Y-121394300D01*
X79040700Y-121556198D01*
X79228251Y-121687523D01*
X79283445Y-121713260D01*
X79435750Y-121784281D01*
X79435752Y-121784281D01*
X79435757Y-121784284D01*
X79656913Y-121843543D01*
X79819832Y-121857796D01*
X79884998Y-121863498D01*
X79885000Y-121863498D01*
X79885002Y-121863498D01*
X79942139Y-121858499D01*
X80113087Y-121843543D01*
X80334243Y-121784284D01*
X80541749Y-121687523D01*
X80729300Y-121556198D01*
X80891198Y-121394300D01*
X81001779Y-121236374D01*
X81056354Y-121192751D01*
X81103352Y-121183500D01*
X96128166Y-121183500D01*
X96143913Y-121185238D01*
X96143939Y-121184968D01*
X96151705Y-121185701D01*
X96151709Y-121185702D01*
X96221758Y-121183500D01*
X96251656Y-121183500D01*
X96251657Y-121183500D01*
X96253022Y-121183327D01*
X96258662Y-121182614D01*
X96264485Y-121182156D01*
X96290508Y-121181338D01*
X96311690Y-121180673D01*
X96321481Y-121177827D01*
X96331281Y-121174980D01*
X96350338Y-121171032D01*
X96370597Y-121168474D01*
X96414521Y-121151082D01*
X96420021Y-121149199D01*
X96465393Y-121136018D01*
X96482965Y-121125625D01*
X96500432Y-121117068D01*
X96519417Y-121109552D01*
X96557626Y-121081790D01*
X96562504Y-121078585D01*
X96603162Y-121054542D01*
X96617602Y-121040100D01*
X96632392Y-121027470D01*
X96648907Y-121015472D01*
X96679022Y-120979067D01*
X96682926Y-120974776D01*
X107563425Y-110094278D01*
X107624744Y-110060796D01*
X107694436Y-110065780D01*
X107736479Y-110092800D01*
X107736550Y-110092716D01*
X107737211Y-110093270D01*
X107738783Y-110094281D01*
X107740700Y-110096198D01*
X107928251Y-110227523D01*
X108015529Y-110268221D01*
X108135750Y-110324281D01*
X108135752Y-110324281D01*
X108135757Y-110324284D01*
X108356913Y-110383543D01*
X108519832Y-110397796D01*
X108584998Y-110403498D01*
X108585000Y-110403498D01*
X108585002Y-110403498D01*
X108642021Y-110398509D01*
X108813087Y-110383543D01*
X109034243Y-110324284D01*
X109241749Y-110227523D01*
X109429300Y-110096198D01*
X109591198Y-109934300D01*
X109722523Y-109746749D01*
X109742617Y-109703655D01*
X109788790Y-109651215D01*
X109855983Y-109632063D01*
X109922864Y-109652278D01*
X109967382Y-109703655D01*
X109987477Y-109746749D01*
X110118802Y-109934300D01*
X110280700Y-110096198D01*
X110468251Y-110227523D01*
X110555529Y-110268221D01*
X110675750Y-110324281D01*
X110675752Y-110324281D01*
X110675757Y-110324284D01*
X110896913Y-110383543D01*
X111059832Y-110397796D01*
X111124998Y-110403498D01*
X111125000Y-110403498D01*
X111125002Y-110403498D01*
X111182021Y-110398509D01*
X111353087Y-110383543D01*
X111574243Y-110324284D01*
X111781749Y-110227523D01*
X111969300Y-110096198D01*
X112131198Y-109934300D01*
X112262523Y-109746749D01*
X112282617Y-109703655D01*
X112328790Y-109651215D01*
X112395983Y-109632063D01*
X112462864Y-109652278D01*
X112507382Y-109703655D01*
X112527477Y-109746749D01*
X112658802Y-109934300D01*
X112820700Y-110096198D01*
X113008251Y-110227523D01*
X113095529Y-110268221D01*
X113215750Y-110324281D01*
X113215752Y-110324281D01*
X113215757Y-110324284D01*
X113436913Y-110383543D01*
X113599832Y-110397796D01*
X113664998Y-110403498D01*
X113665000Y-110403498D01*
X113665002Y-110403498D01*
X113722021Y-110398509D01*
X113893087Y-110383543D01*
X114114243Y-110324284D01*
X114321749Y-110227523D01*
X114509300Y-110096198D01*
X114671198Y-109934300D01*
X114802523Y-109746749D01*
X114827307Y-109693598D01*
X114873479Y-109641159D01*
X114940672Y-109622007D01*
X115007553Y-109642222D01*
X115052071Y-109693599D01*
X115074864Y-109742479D01*
X115074865Y-109742481D01*
X115205342Y-109928820D01*
X115366179Y-110089657D01*
X115552517Y-110220134D01*
X115758673Y-110316265D01*
X115758682Y-110316269D01*
X115954999Y-110368872D01*
X115955000Y-110368871D01*
X115955000Y-109600575D01*
X115974685Y-109533536D01*
X116027489Y-109487781D01*
X116096647Y-109477837D01*
X116098331Y-109478091D01*
X116130699Y-109483218D01*
X116173515Y-109490000D01*
X116173519Y-109490000D01*
X116236485Y-109490000D01*
X116273960Y-109484064D01*
X116311602Y-109478102D01*
X116380893Y-109487056D01*
X116434346Y-109532052D01*
X116454986Y-109598803D01*
X116454999Y-109600575D01*
X116454999Y-110368871D01*
X116455000Y-110368872D01*
X116651317Y-110316269D01*
X116651326Y-110316265D01*
X116857482Y-110220134D01*
X117043820Y-110089657D01*
X117204657Y-109928820D01*
X117335134Y-109742482D01*
X117431265Y-109536326D01*
X117431269Y-109536317D01*
X117483872Y-109340000D01*
X116715576Y-109340000D01*
X116648537Y-109320315D01*
X116602782Y-109267511D01*
X116592838Y-109198353D01*
X116593103Y-109196603D01*
X116609986Y-109090003D01*
X116609986Y-109089996D01*
X116593103Y-108983397D01*
X116602058Y-108914104D01*
X116647054Y-108860652D01*
X116713806Y-108840013D01*
X116715576Y-108840000D01*
X117483872Y-108840000D01*
X117483872Y-108839999D01*
X117431269Y-108643682D01*
X117431265Y-108643673D01*
X117335134Y-108437517D01*
X117204657Y-108251179D01*
X117043820Y-108090342D01*
X116857482Y-107959865D01*
X116651328Y-107863734D01*
X116455000Y-107811127D01*
X116455000Y-108579424D01*
X116435315Y-108646463D01*
X116382511Y-108692218D01*
X116313353Y-108702162D01*
X116311602Y-108701897D01*
X116236486Y-108690000D01*
X116236481Y-108690000D01*
X116173519Y-108690000D01*
X116173514Y-108690000D01*
X116098398Y-108701897D01*
X116029104Y-108692942D01*
X115975652Y-108647946D01*
X115955013Y-108581194D01*
X115955000Y-108579424D01*
X115954999Y-107811127D01*
X115758671Y-107863734D01*
X115552517Y-107959865D01*
X115366179Y-108090342D01*
X115205342Y-108251179D01*
X115074865Y-108437517D01*
X115052071Y-108486401D01*
X115005898Y-108538840D01*
X114938705Y-108557992D01*
X114871824Y-108537776D01*
X114827307Y-108486401D01*
X114802523Y-108433251D01*
X114798133Y-108426982D01*
X114671198Y-108245700D01*
X114509300Y-108083802D01*
X114321749Y-107952477D01*
X114321535Y-107952377D01*
X114114249Y-107855718D01*
X114114238Y-107855714D01*
X113893089Y-107796457D01*
X113893081Y-107796456D01*
X113665002Y-107776502D01*
X113664998Y-107776502D01*
X113436918Y-107796456D01*
X113436910Y-107796457D01*
X113215761Y-107855714D01*
X113215750Y-107855718D01*
X113008254Y-107952475D01*
X113008252Y-107952476D01*
X113008249Y-107952477D01*
X113008251Y-107952477D01*
X112820700Y-108083802D01*
X112820698Y-108083803D01*
X112820695Y-108083806D01*
X112658806Y-108245695D01*
X112527476Y-108433251D01*
X112507382Y-108476345D01*
X112461209Y-108528784D01*
X112394016Y-108547936D01*
X112327135Y-108527720D01*
X112282618Y-108476345D01*
X112262523Y-108433251D01*
X112258133Y-108426982D01*
X112131198Y-108245700D01*
X111969300Y-108083802D01*
X111781749Y-107952477D01*
X111781535Y-107952377D01*
X111574249Y-107855718D01*
X111574238Y-107855714D01*
X111353089Y-107796457D01*
X111353081Y-107796456D01*
X111125002Y-107776502D01*
X111124998Y-107776502D01*
X110896918Y-107796456D01*
X110896910Y-107796457D01*
X110675761Y-107855714D01*
X110675750Y-107855718D01*
X110468254Y-107952475D01*
X110468252Y-107952476D01*
X110468249Y-107952477D01*
X110468251Y-107952477D01*
X110280700Y-108083802D01*
X110280698Y-108083803D01*
X110280695Y-108083806D01*
X110118806Y-108245695D01*
X109987476Y-108433251D01*
X109967382Y-108476345D01*
X109921209Y-108528784D01*
X109854016Y-108547936D01*
X109787135Y-108527720D01*
X109742618Y-108476345D01*
X109722523Y-108433251D01*
X109718133Y-108426982D01*
X109591198Y-108245700D01*
X109429300Y-108083802D01*
X109241749Y-107952477D01*
X109241535Y-107952377D01*
X109034249Y-107855718D01*
X109034238Y-107855714D01*
X108813089Y-107796457D01*
X108813081Y-107796456D01*
X108585002Y-107776502D01*
X108584998Y-107776502D01*
X108356918Y-107796456D01*
X108356910Y-107796457D01*
X108135760Y-107855715D01*
X108135759Y-107855715D01*
X108135757Y-107855716D01*
X108126878Y-107859855D01*
X108124899Y-107860779D01*
X108055821Y-107871267D01*
X107992038Y-107842744D01*
X107953802Y-107784265D01*
X107948500Y-107748394D01*
X107948500Y-104742365D01*
X107968185Y-104675326D01*
X107984814Y-104654689D01*
X117722015Y-94917487D01*
X117734380Y-94907583D01*
X117734206Y-94907373D01*
X117740212Y-94902403D01*
X117740218Y-94902400D01*
X117788199Y-94851304D01*
X117809334Y-94830170D01*
X117813663Y-94824587D01*
X117817442Y-94820163D01*
X117849786Y-94785721D01*
X117859623Y-94767824D01*
X117870297Y-94751574D01*
X117882813Y-94735441D01*
X117901572Y-94692089D01*
X117904133Y-94686862D01*
X117926895Y-94645460D01*
X117931974Y-94625674D01*
X117938272Y-94607282D01*
X117946381Y-94588545D01*
X117953769Y-94541897D01*
X117954951Y-94536186D01*
X117966700Y-94490430D01*
X117966699Y-94470017D01*
X117968227Y-94450613D01*
X117971419Y-94430461D01*
X117971420Y-94430457D01*
X117966972Y-94383411D01*
X117966700Y-94377616D01*
X117966700Y-93408331D01*
X117968438Y-93392581D01*
X117968168Y-93392556D01*
X117968901Y-93384794D01*
X117968902Y-93384791D01*
X117966700Y-93314741D01*
X117966700Y-93284844D01*
X117965814Y-93277836D01*
X117965356Y-93272014D01*
X117964740Y-93252422D01*
X117963873Y-93224810D01*
X117958177Y-93205208D01*
X117954232Y-93186157D01*
X117951674Y-93165903D01*
X117934284Y-93121984D01*
X117932393Y-93116457D01*
X117919218Y-93071108D01*
X117919218Y-93071107D01*
X117908824Y-93053532D01*
X117900264Y-93036056D01*
X117892754Y-93017088D01*
X117892754Y-93017087D01*
X117892753Y-93017085D01*
X117892752Y-93017083D01*
X117864989Y-92978871D01*
X117861787Y-92973997D01*
X117837742Y-92933337D01*
X117823306Y-92918901D01*
X117810669Y-92904106D01*
X117801794Y-92891890D01*
X117798672Y-92887593D01*
X117797777Y-92886853D01*
X117762284Y-92857490D01*
X117757962Y-92853557D01*
X114719285Y-89814880D01*
X114685800Y-89753557D01*
X114690784Y-89683865D01*
X114719285Y-89639518D01*
X115432210Y-88926593D01*
X116150915Y-88207887D01*
X116163280Y-88197983D01*
X116163106Y-88197773D01*
X116169112Y-88192803D01*
X116169118Y-88192800D01*
X116217099Y-88141704D01*
X116238234Y-88120570D01*
X116242563Y-88114987D01*
X116246342Y-88110563D01*
X116278686Y-88076121D01*
X116288523Y-88058224D01*
X116299197Y-88041974D01*
X116311713Y-88025841D01*
X116330472Y-87982489D01*
X116333033Y-87977262D01*
X116355795Y-87935860D01*
X116360874Y-87916074D01*
X116367172Y-87897682D01*
X116375281Y-87878945D01*
X116382668Y-87832301D01*
X116383848Y-87826594D01*
X116395600Y-87780830D01*
X116395600Y-87760409D01*
X116397127Y-87741009D01*
X116400319Y-87720857D01*
X116395875Y-87673840D01*
X116395600Y-87668003D01*
X116395600Y-74219656D01*
X116415285Y-74152617D01*
X116427446Y-74136688D01*
X116501140Y-74054844D01*
X116596627Y-73889456D01*
X116655642Y-73707828D01*
X116675604Y-73517900D01*
X116655642Y-73327972D01*
X116596627Y-73146344D01*
X116501140Y-72980956D01*
X116373353Y-72839034D01*
X116218852Y-72726782D01*
X116044388Y-72649106D01*
X116044386Y-72649105D01*
X115857587Y-72609400D01*
X115666613Y-72609400D01*
X115479814Y-72649105D01*
X115430035Y-72671268D01*
X115360784Y-72680552D01*
X115297508Y-72650923D01*
X115260295Y-72591788D01*
X115255600Y-72557988D01*
X115255600Y-68824997D01*
X115255600Y-64997583D01*
X115275284Y-64930548D01*
X115287441Y-64914624D01*
X115300840Y-64899744D01*
X115396327Y-64734356D01*
X115455342Y-64552728D01*
X115475304Y-64362800D01*
X115455342Y-64172872D01*
X115396327Y-63991244D01*
X115300840Y-63825856D01*
X115173053Y-63683934D01*
X115018552Y-63571682D01*
X114844088Y-63494006D01*
X114844086Y-63494005D01*
X114657287Y-63454300D01*
X114466313Y-63454300D01*
X114279513Y-63494005D01*
X114279510Y-63494006D01*
X114099542Y-63574132D01*
X114030292Y-63583416D01*
X113982776Y-63563866D01*
X113982278Y-63564730D01*
X113976652Y-63561481D01*
X113840164Y-63500714D01*
X113802188Y-63483806D01*
X113802186Y-63483805D01*
X113615387Y-63444100D01*
X113424413Y-63444100D01*
X113237614Y-63483805D01*
X113063148Y-63561481D01*
X113063147Y-63561482D01*
X113026810Y-63587881D01*
X112961003Y-63611359D01*
X112892950Y-63595532D01*
X112866247Y-63575242D01*
X112049488Y-62758483D01*
X112039587Y-62746123D01*
X112039377Y-62746298D01*
X112034402Y-62740286D01*
X112034400Y-62740282D01*
X112003648Y-62711404D01*
X111983322Y-62692316D01*
X111962168Y-62671163D01*
X111960192Y-62669631D01*
X111956583Y-62666831D01*
X111952150Y-62663044D01*
X111947219Y-62658414D01*
X111917721Y-62630714D01*
X111917719Y-62630712D01*
X111899831Y-62620878D01*
X111883570Y-62610197D01*
X111867439Y-62597684D01*
X111824093Y-62578927D01*
X111818845Y-62576356D01*
X111791424Y-62561282D01*
X111777460Y-62553605D01*
X111774060Y-62552732D01*
X111757687Y-62548528D01*
X111739281Y-62542226D01*
X111720544Y-62534118D01*
X111720546Y-62534118D01*
X111673896Y-62526730D01*
X111668181Y-62525546D01*
X111646512Y-62519983D01*
X111622432Y-62513800D01*
X111622430Y-62513800D01*
X111602016Y-62513800D01*
X111582617Y-62512273D01*
X111562458Y-62509080D01*
X111562457Y-62509080D01*
X111515434Y-62513525D01*
X111509596Y-62513800D01*
X99750134Y-62513800D01*
X99734386Y-62512061D01*
X99734361Y-62512332D01*
X99726594Y-62511598D01*
X99726591Y-62511598D01*
X99656542Y-62513800D01*
X99626637Y-62513800D01*
X99619643Y-62514684D01*
X99613820Y-62515142D01*
X99566611Y-62516626D01*
X99566608Y-62516627D01*
X99547005Y-62522322D01*
X99527959Y-62526266D01*
X99507703Y-62528826D01*
X99507701Y-62528826D01*
X99507699Y-62528827D01*
X99463782Y-62546214D01*
X99458256Y-62548106D01*
X99412906Y-62561282D01*
X99395331Y-62571675D01*
X99377873Y-62580228D01*
X99358883Y-62587748D01*
X99320672Y-62615508D01*
X99315790Y-62618715D01*
X99275137Y-62642757D01*
X99260701Y-62657194D01*
X99245915Y-62669823D01*
X99229393Y-62681828D01*
X99229392Y-62681829D01*
X99199286Y-62718219D01*
X99195354Y-62722539D01*
X99089315Y-62828580D01*
X99027992Y-62862066D01*
X99001633Y-62864900D01*
X98944913Y-62864900D01*
X98758114Y-62904605D01*
X98583646Y-62982283D01*
X98429144Y-63094536D01*
X98429139Y-63094540D01*
X98423185Y-63101153D01*
X98363695Y-63137797D01*
X98293838Y-63136462D01*
X98243360Y-63105855D01*
X92991472Y-57853967D01*
X92957987Y-57792644D01*
X92962971Y-57722952D01*
X93002987Y-57668436D01*
X93103240Y-57590406D01*
X93230287Y-57452398D01*
X93255715Y-57424776D01*
X93255715Y-57424775D01*
X93255722Y-57424768D01*
X93346193Y-57286290D01*
X93399338Y-57240937D01*
X93468569Y-57231513D01*
X93531905Y-57261015D01*
X93553804Y-57286287D01*
X93644278Y-57424768D01*
X93644283Y-57424773D01*
X93644284Y-57424776D01*
X93796756Y-57590402D01*
X93796761Y-57590407D01*
X93848966Y-57631040D01*
X93974424Y-57728689D01*
X93974425Y-57728689D01*
X93974427Y-57728691D01*
X94081301Y-57786528D01*
X94172426Y-57835842D01*
X94385365Y-57908944D01*
X94607431Y-57946000D01*
X94832569Y-57946000D01*
X95054635Y-57908944D01*
X95267574Y-57835842D01*
X95465576Y-57728689D01*
X95643240Y-57590406D01*
X95770287Y-57452398D01*
X95795715Y-57424776D01*
X95795715Y-57424775D01*
X95795722Y-57424768D01*
X95886193Y-57286290D01*
X95939338Y-57240937D01*
X96008569Y-57231513D01*
X96071905Y-57261015D01*
X96093804Y-57286287D01*
X96184278Y-57424768D01*
X96184283Y-57424773D01*
X96184284Y-57424776D01*
X96336756Y-57590402D01*
X96336761Y-57590407D01*
X96388966Y-57631040D01*
X96514424Y-57728689D01*
X96514425Y-57728689D01*
X96514427Y-57728691D01*
X96621301Y-57786528D01*
X96712426Y-57835842D01*
X96925365Y-57908944D01*
X97147431Y-57946000D01*
X97372569Y-57946000D01*
X97594635Y-57908944D01*
X97807574Y-57835842D01*
X98005576Y-57728689D01*
X98183240Y-57590406D01*
X98310287Y-57452398D01*
X98335715Y-57424776D01*
X98335715Y-57424775D01*
X98335722Y-57424768D01*
X98426193Y-57286290D01*
X98479338Y-57240937D01*
X98548569Y-57231513D01*
X98611905Y-57261015D01*
X98633804Y-57286287D01*
X98724278Y-57424768D01*
X98724283Y-57424773D01*
X98724284Y-57424776D01*
X98876756Y-57590402D01*
X98876761Y-57590407D01*
X98928966Y-57631040D01*
X99054424Y-57728689D01*
X99054425Y-57728689D01*
X99054427Y-57728691D01*
X99161301Y-57786528D01*
X99252426Y-57835842D01*
X99465365Y-57908944D01*
X99687431Y-57946000D01*
X99912569Y-57946000D01*
X100134635Y-57908944D01*
X100347574Y-57835842D01*
X100545576Y-57728689D01*
X100723240Y-57590406D01*
X100850287Y-57452398D01*
X100875715Y-57424776D01*
X100875715Y-57424775D01*
X100875722Y-57424768D01*
X100969749Y-57280847D01*
X101022894Y-57235494D01*
X101092125Y-57226070D01*
X101155461Y-57255572D01*
X101175131Y-57277549D01*
X101225072Y-57348873D01*
X101225073Y-57348873D01*
X101731050Y-56842895D01*
X101792373Y-56809410D01*
X101862064Y-56814394D01*
X101917998Y-56856265D01*
X101923039Y-56863525D01*
X101923048Y-56863539D01*
X101958239Y-56918298D01*
X102073602Y-57018259D01*
X102071293Y-57020922D01*
X102106006Y-57060999D01*
X102115935Y-57130160D01*
X102086898Y-57193710D01*
X102080882Y-57200169D01*
X101578625Y-57702425D01*
X101662421Y-57761099D01*
X101876507Y-57860929D01*
X101876516Y-57860933D01*
X102104673Y-57922067D01*
X102104684Y-57922069D01*
X102339998Y-57942657D01*
X102340002Y-57942657D01*
X102575315Y-57922069D01*
X102575326Y-57922067D01*
X102803483Y-57860933D01*
X102803492Y-57860929D01*
X103017578Y-57761100D01*
X103017582Y-57761098D01*
X103101373Y-57702426D01*
X103101373Y-57702425D01*
X102599116Y-57200169D01*
X102565631Y-57138846D01*
X102570615Y-57069155D01*
X102607640Y-57019693D01*
X102606398Y-57018259D01*
X102613100Y-57012452D01*
X102721761Y-56918298D01*
X102756954Y-56863537D01*
X102809755Y-56817783D01*
X102878914Y-56807839D01*
X102942470Y-56836863D01*
X102948949Y-56842896D01*
X103454925Y-57348873D01*
X103454926Y-57348873D01*
X103513598Y-57265082D01*
X103513600Y-57265078D01*
X103613429Y-57050992D01*
X103613433Y-57050983D01*
X103674567Y-56822826D01*
X103674569Y-56822815D01*
X103695157Y-56587501D01*
X103695157Y-56587498D01*
X103674569Y-56352184D01*
X103674567Y-56352173D01*
X103613433Y-56124016D01*
X103613429Y-56124007D01*
X103513600Y-55909923D01*
X103513599Y-55909921D01*
X103454925Y-55826126D01*
X103454925Y-55826125D01*
X102948949Y-56332102D01*
X102887626Y-56365587D01*
X102817934Y-56360603D01*
X102762001Y-56318731D01*
X102756953Y-56311461D01*
X102721761Y-56256702D01*
X102606398Y-56156741D01*
X102608708Y-56154074D01*
X102574005Y-56114028D01*
X102564058Y-56044870D01*
X102593080Y-55981313D01*
X102599116Y-55974830D01*
X103101373Y-55472573D01*
X103101373Y-55472572D01*
X103030199Y-55422736D01*
X102986574Y-55368159D01*
X102979380Y-55298661D01*
X103010903Y-55236306D01*
X103042305Y-55212106D01*
X103049070Y-55208445D01*
X103085576Y-55188689D01*
X103263240Y-55050406D01*
X103415722Y-54884768D01*
X103538860Y-54696291D01*
X103629296Y-54490116D01*
X103684564Y-54271868D01*
X103703156Y-54047500D01*
X103684564Y-53823132D01*
X103629296Y-53604884D01*
X103538860Y-53398709D01*
X103415722Y-53210232D01*
X103415719Y-53210229D01*
X103415715Y-53210223D01*
X103263243Y-53044597D01*
X103263238Y-53044592D01*
X103085577Y-52906312D01*
X103085576Y-52906311D01*
X103040480Y-52881906D01*
X102990891Y-52832687D01*
X102975499Y-52772855D01*
X102975499Y-47021752D01*
X102977241Y-47005973D01*
X102976973Y-47005948D01*
X102977705Y-46998190D01*
X102977708Y-46998181D01*
X102975500Y-46927928D01*
X102975500Y-46897917D01*
X102974611Y-46890880D01*
X102974152Y-46885052D01*
X102973684Y-46870159D01*
X102972664Y-46837695D01*
X102966944Y-46818007D01*
X102962996Y-46798945D01*
X102961870Y-46790028D01*
X102960427Y-46778601D01*
X102942978Y-46734533D01*
X102941087Y-46729006D01*
X102927869Y-46683508D01*
X102927869Y-46683507D01*
X102917427Y-46665851D01*
X102908870Y-46648384D01*
X102905828Y-46640701D01*
X102901319Y-46629312D01*
X102875760Y-46594133D01*
X102873462Y-46590970D01*
X102870253Y-46586085D01*
X102866733Y-46580133D01*
X102846134Y-46545301D01*
X102846131Y-46545298D01*
X102846129Y-46545295D01*
X102831633Y-46530799D01*
X102818995Y-46516003D01*
X102818992Y-46515999D01*
X102806942Y-46499413D01*
X102806939Y-46499411D01*
X102806939Y-46499410D01*
X102801693Y-46493823D01*
X102770150Y-46431479D01*
X102777320Y-46361978D01*
X102820927Y-46307387D01*
X102839679Y-46296556D01*
X103017578Y-46213600D01*
X103017582Y-46213598D01*
X103101373Y-46154926D01*
X103101373Y-46154925D01*
X102599116Y-45652669D01*
X102565631Y-45591346D01*
X102570615Y-45521655D01*
X102607640Y-45472193D01*
X102606398Y-45470759D01*
X102628046Y-45452001D01*
X102721761Y-45370798D01*
X102756952Y-45316038D01*
X102809755Y-45270283D01*
X102878914Y-45260339D01*
X102942470Y-45289363D01*
X102948949Y-45295396D01*
X103454925Y-45801373D01*
X103454926Y-45801373D01*
X103513598Y-45717582D01*
X103513600Y-45717578D01*
X103613429Y-45503492D01*
X103613433Y-45503483D01*
X103643451Y-45391454D01*
X113325100Y-45391454D01*
X113331611Y-45452002D01*
X113331611Y-45452004D01*
X113358719Y-45524680D01*
X113382711Y-45589004D01*
X113470339Y-45706061D01*
X113587396Y-45793689D01*
X113724399Y-45844789D01*
X113751650Y-45847718D01*
X113784945Y-45851299D01*
X113784962Y-45851300D01*
X115482238Y-45851300D01*
X115482254Y-45851299D01*
X115509292Y-45848391D01*
X115542801Y-45844789D01*
X115679804Y-45793689D01*
X115796861Y-45706061D01*
X115884489Y-45589004D01*
X115935589Y-45452001D01*
X115939191Y-45418492D01*
X115942099Y-45391454D01*
X115942100Y-45391437D01*
X115942100Y-43694162D01*
X115942099Y-43694145D01*
X115936405Y-43641190D01*
X115935589Y-43633599D01*
X115933121Y-43626983D01*
X115913122Y-43573364D01*
X115884489Y-43496596D01*
X115796861Y-43379539D01*
X115679804Y-43291911D01*
X115542803Y-43240811D01*
X115482254Y-43234300D01*
X115478931Y-43234123D01*
X115478940Y-43233944D01*
X115478935Y-43233944D01*
X115478946Y-43233840D01*
X115479008Y-43232671D01*
X115417515Y-43214615D01*
X115371760Y-43161811D01*
X115366079Y-43128832D01*
X114817466Y-42580219D01*
X114783981Y-42518896D01*
X114788965Y-42449204D01*
X114830837Y-42393271D01*
X114848845Y-42382058D01*
X114871645Y-42370441D01*
X114961241Y-42280845D01*
X114972854Y-42258052D01*
X115020825Y-42207258D01*
X115088646Y-42190461D01*
X115154781Y-42212997D01*
X115171019Y-42226666D01*
X115712625Y-42768272D01*
X115763736Y-42695278D01*
X115859864Y-42489131D01*
X115859869Y-42489117D01*
X115918739Y-42269410D01*
X115918741Y-42269399D01*
X115938566Y-42042802D01*
X115938566Y-42042797D01*
X115918741Y-41816200D01*
X115918739Y-41816189D01*
X115859869Y-41596482D01*
X115859865Y-41596473D01*
X115763733Y-41390316D01*
X115763731Y-41390312D01*
X115712626Y-41317326D01*
X115712625Y-41317326D01*
X115171019Y-41858932D01*
X115109696Y-41892417D01*
X115040004Y-41887433D01*
X114984071Y-41845561D01*
X114972856Y-41827551D01*
X114961241Y-41804755D01*
X114961237Y-41804751D01*
X114961236Y-41804749D01*
X114871650Y-41715163D01*
X114871644Y-41715158D01*
X114861709Y-41710096D01*
X114848850Y-41703544D01*
X114798056Y-41655573D01*
X114781260Y-41587752D01*
X114803797Y-41521617D01*
X114817465Y-41505380D01*
X115359072Y-40963773D01*
X115286083Y-40912666D01*
X115286081Y-40912665D01*
X115079926Y-40816534D01*
X115079917Y-40816530D01*
X114860210Y-40757660D01*
X114860199Y-40757658D01*
X114633602Y-40737834D01*
X114633598Y-40737834D01*
X114407000Y-40757658D01*
X114406989Y-40757660D01*
X114187282Y-40816530D01*
X114187273Y-40816534D01*
X113981113Y-40912668D01*
X113908126Y-40963773D01*
X114449733Y-41505380D01*
X114483218Y-41566703D01*
X114478234Y-41636395D01*
X114436362Y-41692328D01*
X114418348Y-41703545D01*
X114395556Y-41715158D01*
X114395549Y-41715163D01*
X114305963Y-41804749D01*
X114305958Y-41804756D01*
X114294345Y-41827548D01*
X114246370Y-41878344D01*
X114178549Y-41895138D01*
X114112414Y-41872600D01*
X114096180Y-41858933D01*
X113554573Y-41317326D01*
X113503468Y-41390313D01*
X113407334Y-41596473D01*
X113407330Y-41596482D01*
X113348460Y-41816189D01*
X113348458Y-41816200D01*
X113328634Y-42042797D01*
X113328634Y-42042802D01*
X113348458Y-42269399D01*
X113348460Y-42269410D01*
X113407330Y-42489117D01*
X113407334Y-42489126D01*
X113503465Y-42695281D01*
X113503466Y-42695283D01*
X113554573Y-42768271D01*
X113554573Y-42768272D01*
X114096180Y-42226665D01*
X114157503Y-42193180D01*
X114227194Y-42198164D01*
X114283128Y-42240035D01*
X114294342Y-42258046D01*
X114297719Y-42264673D01*
X114305958Y-42280844D01*
X114305963Y-42280850D01*
X114395549Y-42370436D01*
X114395551Y-42370437D01*
X114395555Y-42370441D01*
X114418347Y-42382054D01*
X114469142Y-42430028D01*
X114485937Y-42497849D01*
X114463399Y-42563984D01*
X114449732Y-42580219D01*
X113900064Y-43129887D01*
X113892407Y-43167992D01*
X113843792Y-43218175D01*
X113788200Y-43232835D01*
X113788253Y-43233840D01*
X113788265Y-43233944D01*
X113788259Y-43233944D01*
X113788269Y-43234123D01*
X113784945Y-43234300D01*
X113724397Y-43240811D01*
X113724395Y-43240811D01*
X113587395Y-43291911D01*
X113470339Y-43379539D01*
X113382711Y-43496595D01*
X113331611Y-43633595D01*
X113331611Y-43633597D01*
X113325100Y-43694145D01*
X113325100Y-45391454D01*
X103643451Y-45391454D01*
X103674567Y-45275326D01*
X103674569Y-45275315D01*
X103695157Y-45040001D01*
X103695157Y-45039998D01*
X103674569Y-44804684D01*
X103674567Y-44804673D01*
X103613433Y-44576516D01*
X103613429Y-44576507D01*
X103513600Y-44362423D01*
X103513599Y-44362421D01*
X103454925Y-44278626D01*
X103454925Y-44278625D01*
X102948949Y-44784602D01*
X102887626Y-44818087D01*
X102817934Y-44813103D01*
X102762001Y-44771231D01*
X102756953Y-44763961D01*
X102721761Y-44709202D01*
X102606398Y-44609241D01*
X102608708Y-44606574D01*
X102574005Y-44566528D01*
X102564058Y-44497370D01*
X102593080Y-44433813D01*
X102599116Y-44427330D01*
X103101373Y-43925073D01*
X103101373Y-43925072D01*
X103030199Y-43875236D01*
X102986574Y-43820659D01*
X102979380Y-43751161D01*
X103010903Y-43688806D01*
X103042305Y-43664606D01*
X103056583Y-43656879D01*
X103085576Y-43641189D01*
X103263240Y-43502906D01*
X103362614Y-43394957D01*
X103415715Y-43337276D01*
X103415719Y-43337271D01*
X103415722Y-43337268D01*
X103538860Y-43148791D01*
X103629296Y-42942616D01*
X103684564Y-42724368D01*
X103686974Y-42695283D01*
X103703156Y-42500005D01*
X103703156Y-42499994D01*
X103684565Y-42275640D01*
X103684563Y-42275628D01*
X103633769Y-42075048D01*
X103629296Y-42057384D01*
X103538860Y-41851209D01*
X103526262Y-41831927D01*
X103449974Y-41715159D01*
X103415722Y-41662732D01*
X103415719Y-41662729D01*
X103415715Y-41662723D01*
X103263243Y-41497097D01*
X103263238Y-41497092D01*
X103085577Y-41358812D01*
X103085572Y-41358808D01*
X102887580Y-41251661D01*
X102887577Y-41251659D01*
X102887574Y-41251658D01*
X102887571Y-41251657D01*
X102887569Y-41251656D01*
X102674637Y-41178556D01*
X102452569Y-41141500D01*
X102227431Y-41141500D01*
X102005362Y-41178556D01*
X101792430Y-41251656D01*
X101792419Y-41251661D01*
X101594427Y-41358808D01*
X101594422Y-41358812D01*
X101416761Y-41497092D01*
X101416756Y-41497097D01*
X101264284Y-41662723D01*
X101264276Y-41662734D01*
X101173808Y-41801206D01*
X101120662Y-41846562D01*
X101051431Y-41855986D01*
X100988095Y-41826484D01*
X100966192Y-41801206D01*
X100875723Y-41662734D01*
X100875715Y-41662723D01*
X100723243Y-41497097D01*
X100723238Y-41497092D01*
X100545577Y-41358812D01*
X100545572Y-41358808D01*
X100347580Y-41251661D01*
X100347577Y-41251659D01*
X100347574Y-41251658D01*
X100347571Y-41251657D01*
X100347569Y-41251656D01*
X100134637Y-41178556D01*
X99912569Y-41141500D01*
X99687431Y-41141500D01*
X99465362Y-41178556D01*
X99252430Y-41251656D01*
X99252419Y-41251661D01*
X99054427Y-41358808D01*
X99054422Y-41358812D01*
X98876761Y-41497092D01*
X98876756Y-41497097D01*
X98724284Y-41662723D01*
X98724276Y-41662734D01*
X98633808Y-41801206D01*
X98580662Y-41846562D01*
X98511431Y-41855986D01*
X98448095Y-41826484D01*
X98426192Y-41801206D01*
X98335723Y-41662734D01*
X98335715Y-41662723D01*
X98183243Y-41497097D01*
X98183238Y-41497092D01*
X98005577Y-41358812D01*
X98005572Y-41358808D01*
X97807580Y-41251661D01*
X97807577Y-41251659D01*
X97807574Y-41251658D01*
X97807571Y-41251657D01*
X97807569Y-41251656D01*
X97594637Y-41178556D01*
X97372569Y-41141500D01*
X97147431Y-41141500D01*
X96925362Y-41178556D01*
X96712430Y-41251656D01*
X96712419Y-41251661D01*
X96514427Y-41358808D01*
X96514422Y-41358812D01*
X96336761Y-41497092D01*
X96336756Y-41497097D01*
X96184284Y-41662723D01*
X96184276Y-41662734D01*
X96093808Y-41801206D01*
X96040662Y-41846562D01*
X95971431Y-41855986D01*
X95908095Y-41826484D01*
X95886192Y-41801206D01*
X95795723Y-41662734D01*
X95795715Y-41662723D01*
X95643243Y-41497097D01*
X95643238Y-41497092D01*
X95465577Y-41358812D01*
X95465572Y-41358808D01*
X95267580Y-41251661D01*
X95267577Y-41251659D01*
X95267574Y-41251658D01*
X95267571Y-41251657D01*
X95267569Y-41251656D01*
X95054637Y-41178556D01*
X94832569Y-41141500D01*
X94607431Y-41141500D01*
X94385362Y-41178556D01*
X94172430Y-41251656D01*
X94172419Y-41251661D01*
X93974427Y-41358808D01*
X93974422Y-41358812D01*
X93796761Y-41497092D01*
X93796756Y-41497097D01*
X93644284Y-41662723D01*
X93644276Y-41662734D01*
X93553808Y-41801206D01*
X93500662Y-41846562D01*
X93431431Y-41855986D01*
X93368095Y-41826484D01*
X93346192Y-41801206D01*
X93255723Y-41662734D01*
X93255715Y-41662723D01*
X93103243Y-41497097D01*
X93103238Y-41497092D01*
X92925577Y-41358812D01*
X92925572Y-41358808D01*
X92727580Y-41251661D01*
X92727577Y-41251659D01*
X92727574Y-41251658D01*
X92727571Y-41251657D01*
X92727569Y-41251656D01*
X92514637Y-41178556D01*
X92292569Y-41141500D01*
X92067431Y-41141500D01*
X91845362Y-41178556D01*
X91632430Y-41251656D01*
X91632419Y-41251661D01*
X91434427Y-41358808D01*
X91434422Y-41358812D01*
X91256761Y-41497092D01*
X91256756Y-41497097D01*
X91104284Y-41662723D01*
X91104276Y-41662734D01*
X91013808Y-41801206D01*
X90960662Y-41846562D01*
X90891431Y-41855986D01*
X90828095Y-41826484D01*
X90806192Y-41801206D01*
X90715723Y-41662734D01*
X90715715Y-41662723D01*
X90563243Y-41497097D01*
X90563238Y-41497092D01*
X90385577Y-41358812D01*
X90385572Y-41358808D01*
X90187580Y-41251661D01*
X90187577Y-41251659D01*
X90187574Y-41251658D01*
X90187571Y-41251657D01*
X90187569Y-41251656D01*
X89974637Y-41178556D01*
X89752569Y-41141500D01*
X89527431Y-41141500D01*
X89305362Y-41178556D01*
X89092430Y-41251656D01*
X89092419Y-41251661D01*
X88894427Y-41358808D01*
X88894422Y-41358812D01*
X88716761Y-41497092D01*
X88716756Y-41497097D01*
X88564284Y-41662723D01*
X88564276Y-41662734D01*
X88473808Y-41801206D01*
X88420662Y-41846562D01*
X88351431Y-41855986D01*
X88288095Y-41826484D01*
X88266192Y-41801206D01*
X88175723Y-41662734D01*
X88175715Y-41662723D01*
X88023243Y-41497097D01*
X88023238Y-41497092D01*
X87845577Y-41358812D01*
X87845572Y-41358808D01*
X87647580Y-41251661D01*
X87647577Y-41251659D01*
X87647574Y-41251658D01*
X87647571Y-41251657D01*
X87647569Y-41251656D01*
X87434637Y-41178556D01*
X87212569Y-41141500D01*
X86987431Y-41141500D01*
X86765362Y-41178556D01*
X86552430Y-41251656D01*
X86552419Y-41251661D01*
X86354427Y-41358808D01*
X86354422Y-41358812D01*
X86176761Y-41497092D01*
X86176756Y-41497097D01*
X86024284Y-41662723D01*
X86024276Y-41662734D01*
X85933808Y-41801206D01*
X85880662Y-41846562D01*
X85811431Y-41855986D01*
X85748095Y-41826484D01*
X85726192Y-41801206D01*
X85635723Y-41662734D01*
X85635715Y-41662723D01*
X85483243Y-41497097D01*
X85483238Y-41497092D01*
X85305577Y-41358812D01*
X85305572Y-41358808D01*
X85107580Y-41251661D01*
X85107577Y-41251659D01*
X85107574Y-41251658D01*
X85107571Y-41251657D01*
X85107569Y-41251656D01*
X84894637Y-41178556D01*
X84672569Y-41141500D01*
X84447431Y-41141500D01*
X84225362Y-41178556D01*
X84012430Y-41251656D01*
X84012419Y-41251661D01*
X83814427Y-41358808D01*
X83814422Y-41358812D01*
X83636761Y-41497092D01*
X83636756Y-41497097D01*
X83484284Y-41662723D01*
X83484276Y-41662734D01*
X83393808Y-41801206D01*
X83340662Y-41846562D01*
X83271431Y-41855986D01*
X83208095Y-41826484D01*
X83186192Y-41801206D01*
X83095723Y-41662734D01*
X83095715Y-41662723D01*
X82943243Y-41497097D01*
X82943238Y-41497092D01*
X82765577Y-41358812D01*
X82765572Y-41358808D01*
X82567580Y-41251661D01*
X82567577Y-41251659D01*
X82567574Y-41251658D01*
X82567571Y-41251657D01*
X82567569Y-41251656D01*
X82354637Y-41178556D01*
X82132569Y-41141500D01*
X81907431Y-41141500D01*
X81685362Y-41178556D01*
X81472430Y-41251656D01*
X81472419Y-41251661D01*
X81274427Y-41358808D01*
X81274422Y-41358812D01*
X81096761Y-41497092D01*
X81096756Y-41497097D01*
X80944284Y-41662723D01*
X80944276Y-41662734D01*
X80853808Y-41801206D01*
X80800662Y-41846562D01*
X80731431Y-41855986D01*
X80668095Y-41826484D01*
X80646192Y-41801206D01*
X80555723Y-41662734D01*
X80555715Y-41662723D01*
X80403243Y-41497097D01*
X80403238Y-41497092D01*
X80225577Y-41358812D01*
X80225572Y-41358808D01*
X80027580Y-41251661D01*
X80027577Y-41251659D01*
X80027574Y-41251658D01*
X80027571Y-41251657D01*
X80027569Y-41251656D01*
X79814637Y-41178556D01*
X79592569Y-41141500D01*
X79367431Y-41141500D01*
X79145362Y-41178556D01*
X78932430Y-41251656D01*
X78932419Y-41251661D01*
X78734427Y-41358808D01*
X78734422Y-41358812D01*
X78556761Y-41497092D01*
X78556756Y-41497097D01*
X78404284Y-41662723D01*
X78404276Y-41662734D01*
X78313808Y-41801206D01*
X78260662Y-41846562D01*
X78191431Y-41855986D01*
X78128095Y-41826484D01*
X78106192Y-41801206D01*
X78015723Y-41662734D01*
X78015715Y-41662723D01*
X77863243Y-41497097D01*
X77863238Y-41497092D01*
X77685577Y-41358812D01*
X77685572Y-41358808D01*
X77487580Y-41251661D01*
X77487577Y-41251659D01*
X77487574Y-41251658D01*
X77487571Y-41251657D01*
X77487569Y-41251656D01*
X77274637Y-41178556D01*
X77052569Y-41141500D01*
X76827431Y-41141500D01*
X76605362Y-41178556D01*
X76392430Y-41251656D01*
X76392419Y-41251661D01*
X76194427Y-41358808D01*
X76194422Y-41358812D01*
X76016761Y-41497092D01*
X76016756Y-41497097D01*
X75864284Y-41662723D01*
X75864276Y-41662734D01*
X75773808Y-41801206D01*
X75720662Y-41846562D01*
X75651431Y-41855986D01*
X75588095Y-41826484D01*
X75566192Y-41801206D01*
X75475723Y-41662734D01*
X75475715Y-41662723D01*
X75323243Y-41497097D01*
X75323238Y-41497092D01*
X75145577Y-41358812D01*
X75145572Y-41358808D01*
X74947580Y-41251661D01*
X74947577Y-41251659D01*
X74947574Y-41251658D01*
X74947571Y-41251657D01*
X74947569Y-41251656D01*
X74734637Y-41178556D01*
X74512569Y-41141500D01*
X74287431Y-41141500D01*
X74065362Y-41178556D01*
X73852430Y-41251656D01*
X73852419Y-41251661D01*
X73654427Y-41358808D01*
X73654422Y-41358812D01*
X73476761Y-41497092D01*
X73476756Y-41497097D01*
X73324284Y-41662723D01*
X73324276Y-41662734D01*
X73233808Y-41801206D01*
X73180662Y-41846562D01*
X73111431Y-41855986D01*
X73048095Y-41826484D01*
X73026192Y-41801206D01*
X72935723Y-41662734D01*
X72935715Y-41662723D01*
X72783243Y-41497097D01*
X72783238Y-41497092D01*
X72605577Y-41358812D01*
X72605572Y-41358808D01*
X72407580Y-41251661D01*
X72407577Y-41251659D01*
X72407574Y-41251658D01*
X72407571Y-41251657D01*
X72407569Y-41251656D01*
X72194637Y-41178556D01*
X71972569Y-41141500D01*
X71747431Y-41141500D01*
X71525362Y-41178556D01*
X71312430Y-41251656D01*
X71312419Y-41251661D01*
X71114427Y-41358808D01*
X71114422Y-41358812D01*
X70936761Y-41497092D01*
X70936756Y-41497097D01*
X70784284Y-41662723D01*
X70784276Y-41662734D01*
X70693808Y-41801206D01*
X70640662Y-41846562D01*
X70571431Y-41855986D01*
X70508095Y-41826484D01*
X70486192Y-41801206D01*
X70395723Y-41662734D01*
X70395715Y-41662723D01*
X70243243Y-41497097D01*
X70243238Y-41497092D01*
X70065577Y-41358812D01*
X70065572Y-41358808D01*
X69867580Y-41251661D01*
X69867577Y-41251659D01*
X69867574Y-41251658D01*
X69867571Y-41251657D01*
X69867569Y-41251656D01*
X69654637Y-41178556D01*
X69432569Y-41141500D01*
X69207431Y-41141500D01*
X68985362Y-41178556D01*
X68772430Y-41251656D01*
X68772419Y-41251661D01*
X68574427Y-41358808D01*
X68574422Y-41358812D01*
X68396761Y-41497092D01*
X68396756Y-41497097D01*
X68244284Y-41662723D01*
X68244276Y-41662734D01*
X68153808Y-41801206D01*
X68100662Y-41846562D01*
X68031431Y-41855986D01*
X67968095Y-41826484D01*
X67946192Y-41801206D01*
X67855723Y-41662734D01*
X67855715Y-41662723D01*
X67703243Y-41497097D01*
X67703238Y-41497092D01*
X67525577Y-41358812D01*
X67525572Y-41358808D01*
X67327580Y-41251661D01*
X67327577Y-41251659D01*
X67327574Y-41251658D01*
X67327571Y-41251657D01*
X67327569Y-41251656D01*
X67114637Y-41178556D01*
X66892569Y-41141500D01*
X66667431Y-41141500D01*
X66445362Y-41178556D01*
X66232430Y-41251656D01*
X66232419Y-41251661D01*
X66034427Y-41358808D01*
X66034422Y-41358812D01*
X65856761Y-41497092D01*
X65856756Y-41497097D01*
X65704284Y-41662723D01*
X65704276Y-41662734D01*
X65613808Y-41801206D01*
X65560662Y-41846562D01*
X65491431Y-41855986D01*
X65428095Y-41826484D01*
X65406192Y-41801206D01*
X65315723Y-41662734D01*
X65315715Y-41662723D01*
X65163243Y-41497097D01*
X65163238Y-41497092D01*
X64985577Y-41358812D01*
X64985572Y-41358808D01*
X64787580Y-41251661D01*
X64787577Y-41251659D01*
X64787574Y-41251658D01*
X64787571Y-41251657D01*
X64787569Y-41251656D01*
X64574637Y-41178556D01*
X64352569Y-41141500D01*
X64127431Y-41141500D01*
X63905362Y-41178556D01*
X63692430Y-41251656D01*
X63692419Y-41251661D01*
X63494427Y-41358808D01*
X63494422Y-41358812D01*
X63316761Y-41497092D01*
X63316756Y-41497097D01*
X63164284Y-41662723D01*
X63164276Y-41662734D01*
X63073807Y-41801206D01*
X63020660Y-41846563D01*
X62951429Y-41855986D01*
X62888093Y-41826483D01*
X62866191Y-41801206D01*
X62775722Y-41662732D01*
X62775717Y-41662727D01*
X62775715Y-41662723D01*
X62623243Y-41497097D01*
X62623238Y-41497092D01*
X62445577Y-41358812D01*
X62445572Y-41358808D01*
X62247580Y-41251661D01*
X62247577Y-41251659D01*
X62247574Y-41251658D01*
X62247571Y-41251657D01*
X62247569Y-41251656D01*
X62034637Y-41178556D01*
X61812569Y-41141500D01*
X61587431Y-41141500D01*
X61365362Y-41178556D01*
X61152430Y-41251656D01*
X61152419Y-41251661D01*
X60954427Y-41358808D01*
X60954422Y-41358812D01*
X60776761Y-41497092D01*
X60776756Y-41497097D01*
X60624284Y-41662723D01*
X60624276Y-41662734D01*
X60533808Y-41801206D01*
X60480662Y-41846562D01*
X60411431Y-41855986D01*
X60348095Y-41826484D01*
X60326192Y-41801206D01*
X60235723Y-41662734D01*
X60235715Y-41662723D01*
X60083243Y-41497097D01*
X60083238Y-41497092D01*
X59905577Y-41358812D01*
X59905572Y-41358808D01*
X59707580Y-41251661D01*
X59707577Y-41251659D01*
X59707574Y-41251658D01*
X59707571Y-41251657D01*
X59707569Y-41251656D01*
X59494637Y-41178556D01*
X59272569Y-41141500D01*
X59047431Y-41141500D01*
X58825362Y-41178556D01*
X58612430Y-41251656D01*
X58612419Y-41251661D01*
X58414427Y-41358808D01*
X58414422Y-41358812D01*
X58236761Y-41497092D01*
X58236756Y-41497097D01*
X58084284Y-41662723D01*
X58084276Y-41662734D01*
X57993807Y-41801206D01*
X57940660Y-41846563D01*
X57871429Y-41855986D01*
X57808093Y-41826483D01*
X57786191Y-41801206D01*
X57695722Y-41662732D01*
X57695717Y-41662727D01*
X57695715Y-41662723D01*
X57543243Y-41497097D01*
X57543238Y-41497092D01*
X57365577Y-41358812D01*
X57365572Y-41358808D01*
X57167580Y-41251661D01*
X57167577Y-41251659D01*
X57167574Y-41251658D01*
X57167571Y-41251657D01*
X57167569Y-41251656D01*
X56954637Y-41178556D01*
X56732569Y-41141500D01*
X56507431Y-41141500D01*
X56285362Y-41178556D01*
X56072430Y-41251656D01*
X56072419Y-41251661D01*
X55874427Y-41358808D01*
X55874422Y-41358812D01*
X55696761Y-41497092D01*
X55696756Y-41497097D01*
X55544284Y-41662723D01*
X55544276Y-41662734D01*
X55453808Y-41801206D01*
X55400662Y-41846562D01*
X55331431Y-41855986D01*
X55268095Y-41826484D01*
X55246192Y-41801206D01*
X55155723Y-41662734D01*
X55155715Y-41662723D01*
X55003243Y-41497097D01*
X55003238Y-41497092D01*
X54825577Y-41358812D01*
X54825572Y-41358808D01*
X54627580Y-41251661D01*
X54627577Y-41251659D01*
X54627574Y-41251658D01*
X54627571Y-41251657D01*
X54627569Y-41251656D01*
X54414637Y-41178556D01*
X54192569Y-41141500D01*
X53967431Y-41141500D01*
X53745362Y-41178556D01*
X53532430Y-41251656D01*
X53532419Y-41251661D01*
X53334427Y-41358808D01*
X53334422Y-41358812D01*
X53156761Y-41497092D01*
X53156756Y-41497097D01*
X53004284Y-41662723D01*
X53004276Y-41662734D01*
X52913807Y-41801206D01*
X52860660Y-41846563D01*
X52791429Y-41855986D01*
X52728093Y-41826483D01*
X52706191Y-41801206D01*
X52615722Y-41662732D01*
X52615717Y-41662727D01*
X52615715Y-41662723D01*
X52463243Y-41497097D01*
X52463238Y-41497092D01*
X52285577Y-41358812D01*
X52285572Y-41358808D01*
X52087580Y-41251661D01*
X52087577Y-41251659D01*
X52087574Y-41251658D01*
X52087571Y-41251657D01*
X52087569Y-41251656D01*
X51874637Y-41178556D01*
X51652569Y-41141500D01*
X51427431Y-41141500D01*
X51205362Y-41178556D01*
X50992430Y-41251656D01*
X50992419Y-41251661D01*
X50794427Y-41358808D01*
X50794422Y-41358812D01*
X50616761Y-41497092D01*
X50616756Y-41497097D01*
X50464284Y-41662723D01*
X50464276Y-41662734D01*
X50373808Y-41801206D01*
X50320662Y-41846562D01*
X50251431Y-41855986D01*
X50188095Y-41826484D01*
X50166192Y-41801206D01*
X50075723Y-41662734D01*
X50075715Y-41662723D01*
X49923243Y-41497097D01*
X49923238Y-41497092D01*
X49745577Y-41358812D01*
X49745572Y-41358808D01*
X49547580Y-41251661D01*
X49547577Y-41251659D01*
X49547574Y-41251658D01*
X49547571Y-41251657D01*
X49547569Y-41251656D01*
X49334637Y-41178556D01*
X49112569Y-41141500D01*
X48887431Y-41141500D01*
X48665362Y-41178556D01*
X48452430Y-41251656D01*
X48452419Y-41251661D01*
X48254427Y-41358808D01*
X48254422Y-41358812D01*
X48076761Y-41497092D01*
X48076756Y-41497097D01*
X47924284Y-41662723D01*
X47924276Y-41662734D01*
X47833807Y-41801206D01*
X47780660Y-41846563D01*
X47711429Y-41855986D01*
X47648093Y-41826483D01*
X47626191Y-41801206D01*
X47535722Y-41662732D01*
X47535717Y-41662727D01*
X47535715Y-41662723D01*
X47383243Y-41497097D01*
X47383238Y-41497092D01*
X47205577Y-41358812D01*
X47205572Y-41358808D01*
X47007580Y-41251661D01*
X47007577Y-41251659D01*
X47007574Y-41251658D01*
X47007571Y-41251657D01*
X47007569Y-41251656D01*
X46794637Y-41178556D01*
X46572569Y-41141500D01*
X46347431Y-41141500D01*
X46125362Y-41178556D01*
X45912430Y-41251656D01*
X45912419Y-41251661D01*
X45714427Y-41358808D01*
X45714422Y-41358812D01*
X45536761Y-41497092D01*
X45536756Y-41497097D01*
X45384284Y-41662723D01*
X45384276Y-41662734D01*
X45293808Y-41801206D01*
X45240662Y-41846562D01*
X45171431Y-41855986D01*
X45108095Y-41826484D01*
X45086192Y-41801206D01*
X44995723Y-41662734D01*
X44995715Y-41662723D01*
X44843243Y-41497097D01*
X44843238Y-41497092D01*
X44665577Y-41358812D01*
X44665572Y-41358808D01*
X44467580Y-41251661D01*
X44467577Y-41251659D01*
X44467574Y-41251658D01*
X44467571Y-41251657D01*
X44467569Y-41251656D01*
X44254637Y-41178556D01*
X44032569Y-41141500D01*
X43807431Y-41141500D01*
X43585362Y-41178556D01*
X43372430Y-41251656D01*
X43372419Y-41251661D01*
X43174427Y-41358808D01*
X43174422Y-41358812D01*
X42996761Y-41497092D01*
X42996756Y-41497097D01*
X42844284Y-41662723D01*
X42844280Y-41662729D01*
X42750250Y-41806651D01*
X42697103Y-41852007D01*
X42627872Y-41861430D01*
X42564536Y-41831927D01*
X42544866Y-41809951D01*
X42494924Y-41738626D01*
X41988949Y-42244602D01*
X41927626Y-42278087D01*
X41857934Y-42273103D01*
X41802001Y-42231231D01*
X41796953Y-42223961D01*
X41761761Y-42169202D01*
X41668119Y-42088062D01*
X41653100Y-42075048D01*
X41653099Y-42075047D01*
X41646398Y-42069241D01*
X41648708Y-42066574D01*
X41614005Y-42026528D01*
X41604058Y-41957370D01*
X41633080Y-41893813D01*
X41639116Y-41887330D01*
X42141373Y-41385073D01*
X42141373Y-41385072D01*
X42057583Y-41326402D01*
X42057579Y-41326400D01*
X41843492Y-41226570D01*
X41843483Y-41226566D01*
X41615326Y-41165432D01*
X41615315Y-41165430D01*
X41380002Y-41144843D01*
X41379998Y-41144843D01*
X41144684Y-41165430D01*
X41144673Y-41165432D01*
X40916516Y-41226566D01*
X40916507Y-41226570D01*
X40702419Y-41326401D01*
X40618625Y-41385072D01*
X41120883Y-41887330D01*
X41154368Y-41948653D01*
X41149384Y-42018345D01*
X41112357Y-42067805D01*
X41113602Y-42069241D01*
X41106900Y-42075047D01*
X41106900Y-42075048D01*
X41091881Y-42088062D01*
X40998238Y-42169202D01*
X40963046Y-42223962D01*
X40910242Y-42269717D01*
X40841083Y-42279660D01*
X40777528Y-42250634D01*
X40771050Y-42244603D01*
X40265072Y-41738625D01*
X40206401Y-41822419D01*
X40106570Y-42036507D01*
X40106566Y-42036516D01*
X40045432Y-42264673D01*
X40045430Y-42264684D01*
X40024843Y-42499998D01*
X40024843Y-42500001D01*
X40045430Y-42735315D01*
X40045432Y-42735326D01*
X40106566Y-42963483D01*
X40106570Y-42963492D01*
X40206400Y-43177579D01*
X40206402Y-43177583D01*
X40265072Y-43261373D01*
X40265073Y-43261373D01*
X40771050Y-42755395D01*
X40832373Y-42721910D01*
X40902064Y-42726894D01*
X40957998Y-42768765D01*
X40963039Y-42776025D01*
X40977112Y-42797923D01*
X40998239Y-42830798D01*
X41113602Y-42930759D01*
X41111293Y-42933422D01*
X41146006Y-42973499D01*
X41155935Y-43042660D01*
X41126898Y-43106210D01*
X41120882Y-43112669D01*
X40611251Y-43622299D01*
X40603070Y-43663004D01*
X40554454Y-43713186D01*
X40532315Y-43723015D01*
X40457262Y-43747885D01*
X40457259Y-43747886D01*
X40306346Y-43840971D01*
X40180971Y-43966346D01*
X40087886Y-44117259D01*
X40087884Y-44117264D01*
X40032113Y-44285572D01*
X40021500Y-44389447D01*
X40021500Y-45690537D01*
X40021501Y-45690553D01*
X40032038Y-45793688D01*
X40032113Y-45794426D01*
X40087885Y-45962738D01*
X40180970Y-46113652D01*
X40306348Y-46239030D01*
X40457262Y-46332115D01*
X40625574Y-46387887D01*
X40729455Y-46398500D01*
X41788405Y-46398499D01*
X41855444Y-46418183D01*
X41876086Y-46434818D01*
X41885181Y-46443913D01*
X41918666Y-46505236D01*
X41921500Y-46531594D01*
X41921500Y-52633371D01*
X41901815Y-52700410D01*
X41849011Y-52746165D01*
X41779853Y-52756109D01*
X41765407Y-52753146D01*
X41615326Y-52712932D01*
X41615315Y-52712930D01*
X41380002Y-52692343D01*
X41379998Y-52692343D01*
X41144684Y-52712930D01*
X41144673Y-52712932D01*
X40916516Y-52774066D01*
X40916507Y-52774070D01*
X40702419Y-52873901D01*
X40618625Y-52932572D01*
X41120883Y-53434830D01*
X41154368Y-53496153D01*
X41149384Y-53565845D01*
X41112357Y-53615305D01*
X41113602Y-53616741D01*
X40998238Y-53716702D01*
X40963046Y-53771462D01*
X40910242Y-53817217D01*
X40841083Y-53827160D01*
X40777528Y-53798134D01*
X40771050Y-53792103D01*
X40265072Y-53286125D01*
X40206401Y-53369919D01*
X40106570Y-53584007D01*
X40106566Y-53584016D01*
X40045432Y-53812173D01*
X40045430Y-53812184D01*
X40024843Y-54047498D01*
X40024843Y-54047501D01*
X40045430Y-54282815D01*
X40045432Y-54282826D01*
X40106566Y-54510983D01*
X40106570Y-54510992D01*
X40206400Y-54725079D01*
X40206402Y-54725083D01*
X40265072Y-54808873D01*
X40265073Y-54808873D01*
X40771050Y-54302895D01*
X40832373Y-54269410D01*
X40902064Y-54274394D01*
X40957998Y-54316265D01*
X40963039Y-54323525D01*
X40998239Y-54378298D01*
X41113602Y-54478259D01*
X41111293Y-54480922D01*
X41146006Y-54520999D01*
X41155935Y-54590160D01*
X41126898Y-54653710D01*
X41120882Y-54660169D01*
X40611251Y-55169799D01*
X40603070Y-55210504D01*
X40554454Y-55260686D01*
X40532315Y-55270515D01*
X40457262Y-55295385D01*
X40457259Y-55295386D01*
X40306346Y-55388471D01*
X40180971Y-55513846D01*
X40087886Y-55664759D01*
X40087884Y-55664764D01*
X40032113Y-55833072D01*
X40021500Y-55936947D01*
X40021500Y-57238037D01*
X40021501Y-57238053D01*
X40032113Y-57341927D01*
X40087884Y-57510235D01*
X40087886Y-57510240D01*
X40108422Y-57543534D01*
X40180970Y-57661152D01*
X40306348Y-57786530D01*
X40457262Y-57879615D01*
X40625574Y-57935387D01*
X40729455Y-57946000D01*
X42030544Y-57945999D01*
X42134426Y-57935387D01*
X42302738Y-57879615D01*
X42453652Y-57786530D01*
X42579030Y-57661152D01*
X42672115Y-57510238D01*
X42672246Y-57509842D01*
X42672406Y-57509610D01*
X42675165Y-57503695D01*
X42676175Y-57504166D01*
X42712011Y-57452398D01*
X42776524Y-57425569D01*
X42845301Y-57437878D01*
X42881181Y-57464855D01*
X42996760Y-57590406D01*
X42996761Y-57590407D01*
X43048966Y-57631040D01*
X43174424Y-57728689D01*
X43174425Y-57728689D01*
X43174427Y-57728691D01*
X43281301Y-57786528D01*
X43372426Y-57835842D01*
X43585365Y-57908944D01*
X43807431Y-57946000D01*
X44032569Y-57946000D01*
X44254635Y-57908944D01*
X44365230Y-57870975D01*
X44435025Y-57867826D01*
X44493172Y-57900576D01*
X48828797Y-62236201D01*
X48862282Y-62297524D01*
X48857298Y-62367216D01*
X48815426Y-62423149D01*
X48749962Y-62447566D01*
X48690683Y-62437162D01*
X48544788Y-62372206D01*
X48544786Y-62372205D01*
X48357987Y-62332500D01*
X48167013Y-62332500D01*
X47980214Y-62372205D01*
X47958086Y-62382057D01*
X47840486Y-62434416D01*
X47805746Y-62449883D01*
X47651245Y-62562135D01*
X47523459Y-62704057D01*
X47427973Y-62869443D01*
X47427970Y-62869450D01*
X47392544Y-62978481D01*
X47368958Y-63051072D01*
X47348996Y-63241000D01*
X47368958Y-63430928D01*
X47368959Y-63430931D01*
X47427970Y-63612549D01*
X47427973Y-63612556D01*
X47523460Y-63777944D01*
X47651247Y-63919866D01*
X47805748Y-64032118D01*
X47980212Y-64109794D01*
X48167013Y-64149500D01*
X48223734Y-64149500D01*
X48290773Y-64169185D01*
X48311415Y-64185819D01*
X55555262Y-71429666D01*
X55585512Y-71479028D01*
X55641471Y-71651252D01*
X55641473Y-71651256D01*
X55736960Y-71816644D01*
X55864747Y-71958566D01*
X56019248Y-72070818D01*
X56193712Y-72148494D01*
X56380513Y-72188200D01*
X56571487Y-72188200D01*
X56758288Y-72148494D01*
X56932752Y-72070818D01*
X57087253Y-71958566D01*
X57215040Y-71816644D01*
X57310527Y-71651256D01*
X57369542Y-71469628D01*
X57389504Y-71279700D01*
X57369542Y-71089772D01*
X57310527Y-70908144D01*
X57215040Y-70742756D01*
X57087253Y-70600834D01*
X56993749Y-70532899D01*
X56951084Y-70477568D01*
X56945105Y-70407955D01*
X56977711Y-70346160D01*
X57038550Y-70311803D01*
X57082188Y-70309560D01*
X57084863Y-70309898D01*
X57084870Y-70309900D01*
X57105284Y-70309900D01*
X57124683Y-70311427D01*
X57144843Y-70314620D01*
X57191865Y-70310175D01*
X57197704Y-70309900D01*
X60623366Y-70309900D01*
X60639113Y-70311638D01*
X60639139Y-70311368D01*
X60646905Y-70312101D01*
X60646909Y-70312102D01*
X60716958Y-70309900D01*
X60746856Y-70309900D01*
X60746857Y-70309900D01*
X60748222Y-70309727D01*
X60753862Y-70309014D01*
X60759685Y-70308556D01*
X60785708Y-70307738D01*
X60806890Y-70307073D01*
X60816681Y-70304227D01*
X60826481Y-70301380D01*
X60845538Y-70297432D01*
X60865797Y-70294874D01*
X60909721Y-70277482D01*
X60915221Y-70275599D01*
X60960593Y-70262418D01*
X60978165Y-70252025D01*
X60995632Y-70243468D01*
X61014617Y-70235952D01*
X61052826Y-70208190D01*
X61057704Y-70204985D01*
X61098362Y-70180942D01*
X61112802Y-70166500D01*
X61127592Y-70153870D01*
X61144107Y-70141872D01*
X61173818Y-70105957D01*
X61174209Y-70105484D01*
X61178143Y-70101160D01*
X61215187Y-70064118D01*
X61276511Y-70030633D01*
X61302867Y-70027800D01*
X64140533Y-70027800D01*
X64207572Y-70047485D01*
X64253327Y-70100289D01*
X64263271Y-70169447D01*
X64234246Y-70233003D01*
X64228214Y-70239481D01*
X55717934Y-78749759D01*
X55656611Y-78783244D01*
X55586919Y-78778260D01*
X55555944Y-78761346D01*
X55506204Y-78724111D01*
X55468184Y-78709930D01*
X55369203Y-78673011D01*
X55308654Y-78666500D01*
X55308638Y-78666500D01*
X53611362Y-78666500D01*
X53611345Y-78666500D01*
X53550797Y-78673011D01*
X53550795Y-78673011D01*
X53413795Y-78724111D01*
X53296739Y-78811739D01*
X53209111Y-78928795D01*
X53158011Y-79065795D01*
X53158011Y-79065797D01*
X53151500Y-79126345D01*
X53151500Y-80823654D01*
X53158011Y-80884202D01*
X53158011Y-80884204D01*
X53194189Y-80981198D01*
X53209111Y-81021204D01*
X53296739Y-81138261D01*
X53413796Y-81225889D01*
X53517902Y-81264719D01*
X53537251Y-81271936D01*
X53550799Y-81276989D01*
X53578050Y-81279918D01*
X53611345Y-81283499D01*
X53611362Y-81283500D01*
X54827700Y-81283500D01*
X54894739Y-81303185D01*
X54940494Y-81355989D01*
X54951700Y-81407500D01*
X54951700Y-84285832D01*
X54932015Y-84352871D01*
X54915381Y-84373513D01*
X48243890Y-91045003D01*
X48182567Y-91078488D01*
X48112875Y-91073504D01*
X48056942Y-91031632D01*
X48036434Y-90989416D01*
X48032790Y-90975818D01*
X47979184Y-90775757D01*
X47882423Y-90568251D01*
X47751098Y-90380700D01*
X47589200Y-90218802D01*
X47401649Y-90087477D01*
X47401643Y-90087474D01*
X47194149Y-89990718D01*
X47194138Y-89990714D01*
X46972989Y-89931457D01*
X46972981Y-89931456D01*
X46744902Y-89911502D01*
X46744898Y-89911502D01*
X46516818Y-89931456D01*
X46516810Y-89931457D01*
X46295661Y-89990714D01*
X46295650Y-89990718D01*
X46088156Y-90087474D01*
X46088147Y-90087479D01*
X46081095Y-90092417D01*
X46014888Y-90114740D01*
X45947122Y-90097725D01*
X45910711Y-90065146D01*
X45908161Y-90061739D01*
X45791104Y-89974111D01*
X45654103Y-89923011D01*
X45593554Y-89916500D01*
X45593538Y-89916500D01*
X43896262Y-89916500D01*
X43896245Y-89916500D01*
X43835697Y-89923011D01*
X43835695Y-89923011D01*
X43698695Y-89974111D01*
X43581639Y-90061739D01*
X43494011Y-90178795D01*
X43442911Y-90315795D01*
X43442911Y-90315797D01*
X43436400Y-90376345D01*
X43436400Y-90829433D01*
X43416715Y-90896472D01*
X43363911Y-90942227D01*
X43294753Y-90952171D01*
X43231197Y-90923146D01*
X43224719Y-90917114D01*
X39669619Y-87362014D01*
X39636134Y-87300691D01*
X39633300Y-87274333D01*
X39633300Y-83382500D01*
X39652985Y-83315461D01*
X39705789Y-83269706D01*
X39757300Y-83258500D01*
X39820487Y-83258500D01*
X40007288Y-83218794D01*
X40181752Y-83141118D01*
X40336253Y-83028866D01*
X40464040Y-82886944D01*
X40559527Y-82721556D01*
X40618542Y-82539928D01*
X40623523Y-82492526D01*
X40650105Y-82427913D01*
X40659154Y-82417814D01*
X43534533Y-79542435D01*
X43537208Y-79539916D01*
X43584215Y-79498273D01*
X43619870Y-79446615D01*
X43622067Y-79443631D01*
X43630447Y-79432936D01*
X43660775Y-79394226D01*
X43665033Y-79384764D01*
X43676060Y-79365213D01*
X43681954Y-79356675D01*
X43704213Y-79297978D01*
X43705622Y-79294577D01*
X43731389Y-79237329D01*
X43733260Y-79227116D01*
X43739288Y-79205495D01*
X43739567Y-79204760D01*
X43742965Y-79195801D01*
X43750527Y-79133514D01*
X43751091Y-79129815D01*
X43762402Y-79068093D01*
X43758613Y-79005454D01*
X43758500Y-79001709D01*
X43758500Y-72691878D01*
X43758613Y-72688134D01*
X43762401Y-72625507D01*
X43751091Y-72563790D01*
X43750527Y-72560084D01*
X43749574Y-72552238D01*
X43742965Y-72497799D01*
X43739283Y-72488092D01*
X43733258Y-72466480D01*
X43731388Y-72456270D01*
X43705634Y-72399047D01*
X43704206Y-72395600D01*
X43701412Y-72388234D01*
X43681954Y-72336925D01*
X43681952Y-72336922D01*
X43676053Y-72328375D01*
X43665031Y-72308831D01*
X43660775Y-72299376D01*
X43660776Y-72299376D01*
X43633769Y-72264904D01*
X43622076Y-72249979D01*
X43619869Y-72246979D01*
X43586271Y-72198306D01*
X43584215Y-72195327D01*
X43537243Y-72153713D01*
X43534533Y-72151162D01*
X43098833Y-71715463D01*
X43096299Y-71712771D01*
X43054673Y-71665785D01*
X43054672Y-71665784D01*
X43054671Y-71665783D01*
X43003028Y-71630136D01*
X43000011Y-71627916D01*
X42950627Y-71589225D01*
X42944635Y-71586528D01*
X42941160Y-71584964D01*
X42921616Y-71573941D01*
X42916610Y-71570486D01*
X42913077Y-71568047D01*
X42913072Y-71568044D01*
X42854415Y-71545798D01*
X42850955Y-71544365D01*
X42793731Y-71518611D01*
X42793732Y-71518611D01*
X42783510Y-71516738D01*
X42761910Y-71510716D01*
X42752201Y-71507035D01*
X42752197Y-71507034D01*
X42752196Y-71507034D01*
X42689911Y-71499470D01*
X42686210Y-71498907D01*
X42624496Y-71487598D01*
X42624490Y-71487598D01*
X42561855Y-71491387D01*
X42558110Y-71491500D01*
X36444832Y-71491500D01*
X36377793Y-71471815D01*
X36357151Y-71455181D01*
X35559163Y-70657193D01*
X35525678Y-70595870D01*
X35523523Y-70582471D01*
X35518542Y-70535073D01*
X35499857Y-70477568D01*
X35459527Y-70353444D01*
X35364040Y-70188056D01*
X35240872Y-70051264D01*
X35236254Y-70046135D01*
X35214918Y-70030633D01*
X35081752Y-69933882D01*
X34907288Y-69856206D01*
X34907286Y-69856205D01*
X34720487Y-69816500D01*
X34529513Y-69816500D01*
X34342714Y-69856205D01*
X34334698Y-69859774D01*
X34230911Y-69905983D01*
X34168246Y-69933883D01*
X34101367Y-69982474D01*
X34040832Y-70026456D01*
X34040544Y-70026665D01*
X33974737Y-70050145D01*
X33906683Y-70034320D01*
X33860269Y-69988344D01*
X33860221Y-69988261D01*
X33858140Y-69984656D01*
X33756494Y-69871766D01*
X33730354Y-69842735D01*
X33726809Y-69840159D01*
X33575852Y-69730482D01*
X33401388Y-69652806D01*
X33401386Y-69652805D01*
X33214587Y-69613100D01*
X33023613Y-69613100D01*
X32836814Y-69652805D01*
X32662343Y-69730484D01*
X32543706Y-69816679D01*
X32477899Y-69840159D01*
X32423595Y-69830227D01*
X32423568Y-69830314D01*
X32422925Y-69830105D01*
X32420387Y-69829641D01*
X32417389Y-69828306D01*
X32417386Y-69828305D01*
X32230587Y-69788600D01*
X32039613Y-69788600D01*
X31852814Y-69828305D01*
X31790147Y-69856206D01*
X31682742Y-69904026D01*
X31678346Y-69905983D01*
X31523844Y-70018236D01*
X31494569Y-70050748D01*
X31435082Y-70087395D01*
X31376643Y-70089063D01*
X31270487Y-70066500D01*
X31098505Y-70066500D01*
X31031466Y-70046815D01*
X30985711Y-69994011D01*
X30975185Y-69955464D01*
X30973042Y-69935072D01*
X30973040Y-69935067D01*
X30914029Y-69753450D01*
X30914028Y-69753449D01*
X30914027Y-69753444D01*
X30818540Y-69588056D01*
X30690753Y-69446134D01*
X30536252Y-69333882D01*
X30361788Y-69256206D01*
X30361786Y-69256205D01*
X30174987Y-69216500D01*
X29984013Y-69216500D01*
X29797214Y-69256205D01*
X29622746Y-69333883D01*
X29468245Y-69446135D01*
X29340459Y-69588057D01*
X29244973Y-69753443D01*
X29244970Y-69753450D01*
X29185959Y-69935067D01*
X29185958Y-69935069D01*
X29185958Y-69935072D01*
X29181203Y-69980318D01*
X29180976Y-69982474D01*
X29154391Y-70047088D01*
X29145336Y-70057192D01*
X28195480Y-71007048D01*
X28192753Y-71009615D01*
X28145782Y-71051228D01*
X28145780Y-71051231D01*
X28110138Y-71102867D01*
X28107920Y-71105882D01*
X28091431Y-71126930D01*
X28073580Y-71149716D01*
X28069223Y-71155277D01*
X28064962Y-71164743D01*
X28053947Y-71184274D01*
X28048048Y-71192820D01*
X28048044Y-71192828D01*
X28025794Y-71251495D01*
X28024361Y-71254954D01*
X27998610Y-71312170D01*
X27998609Y-71312173D01*
X27996737Y-71322389D01*
X27990715Y-71343994D01*
X27987035Y-71353698D01*
X27979470Y-71415990D01*
X27978908Y-71419679D01*
X27976168Y-71434638D01*
X27967598Y-71481403D01*
X27967598Y-71481408D01*
X27971387Y-71544044D01*
X27971500Y-71547789D01*
X27971500Y-82981709D01*
X27971387Y-82985454D01*
X27969857Y-83010756D01*
X27967598Y-83048093D01*
X27200500Y-83048093D01*
X27200500Y-68825002D01*
X36025034Y-68825002D01*
X36044858Y-69051599D01*
X36044860Y-69051610D01*
X36103730Y-69271317D01*
X36103734Y-69271326D01*
X36199865Y-69477481D01*
X36199866Y-69477483D01*
X36250973Y-69550471D01*
X36250973Y-69550472D01*
X36792580Y-69008865D01*
X36853903Y-68975380D01*
X36923594Y-68980364D01*
X36979528Y-69022235D01*
X36990742Y-69040246D01*
X36996527Y-69051599D01*
X37002358Y-69063044D01*
X37002363Y-69063050D01*
X37091949Y-69152636D01*
X37091951Y-69152637D01*
X37091955Y-69152641D01*
X37114747Y-69164254D01*
X37165542Y-69212228D01*
X37182337Y-69280049D01*
X37159799Y-69346184D01*
X37146132Y-69362419D01*
X36604526Y-69904025D01*
X36604526Y-69904026D01*
X36677512Y-69955131D01*
X36677516Y-69955133D01*
X36883673Y-70051265D01*
X36883682Y-70051269D01*
X37103389Y-70110139D01*
X37103400Y-70110141D01*
X37329998Y-70129966D01*
X37330002Y-70129966D01*
X37556599Y-70110141D01*
X37556610Y-70110139D01*
X37776317Y-70051269D01*
X37776331Y-70051264D01*
X37982477Y-69955137D01*
X37988692Y-69950785D01*
X38054896Y-69928452D01*
X38122665Y-69945457D01*
X38159090Y-69978043D01*
X38166739Y-69988261D01*
X38283796Y-70075889D01*
X38420799Y-70126989D01*
X38448050Y-70129918D01*
X38481345Y-70133499D01*
X38481362Y-70133500D01*
X40178638Y-70133500D01*
X40178654Y-70133499D01*
X40205692Y-70130591D01*
X40239201Y-70126989D01*
X40376204Y-70075889D01*
X40493261Y-69988261D01*
X40580889Y-69871204D01*
X40631989Y-69734201D01*
X40635872Y-69698081D01*
X40638499Y-69673654D01*
X40638500Y-69673637D01*
X40638500Y-68825001D01*
X43341602Y-68825001D01*
X43361556Y-69053081D01*
X43361557Y-69053089D01*
X43420814Y-69274238D01*
X43420818Y-69274249D01*
X43500970Y-69446135D01*
X43517577Y-69481749D01*
X43648902Y-69669300D01*
X43810800Y-69831198D01*
X43998351Y-69962523D01*
X44106113Y-70012773D01*
X44205850Y-70059281D01*
X44205852Y-70059281D01*
X44205857Y-70059284D01*
X44427013Y-70118543D01*
X44589932Y-70132796D01*
X44655098Y-70138498D01*
X44655100Y-70138498D01*
X44655102Y-70138498D01*
X44712239Y-70133499D01*
X44883187Y-70118543D01*
X45104343Y-70059284D01*
X45311849Y-69962523D01*
X45318893Y-69957590D01*
X45385094Y-69935260D01*
X45452862Y-69952266D01*
X45489284Y-69984849D01*
X45491839Y-69988261D01*
X45608896Y-70075889D01*
X45745899Y-70126989D01*
X45773150Y-70129918D01*
X45806445Y-70133499D01*
X45806462Y-70133500D01*
X47503738Y-70133500D01*
X47503754Y-70133499D01*
X47530792Y-70130591D01*
X47564301Y-70126989D01*
X47701304Y-70075889D01*
X47818361Y-69988261D01*
X47905989Y-69871204D01*
X47957089Y-69734201D01*
X47960972Y-69698081D01*
X47963599Y-69673654D01*
X47963600Y-69673637D01*
X47963600Y-67976362D01*
X47963599Y-67976345D01*
X47960257Y-67945270D01*
X47957089Y-67915799D01*
X47905989Y-67778796D01*
X47818361Y-67661739D01*
X47701304Y-67574111D01*
X47654592Y-67556688D01*
X47564303Y-67523011D01*
X47503754Y-67516500D01*
X47503738Y-67516500D01*
X45806462Y-67516500D01*
X45806445Y-67516500D01*
X45745897Y-67523011D01*
X45745895Y-67523011D01*
X45608895Y-67574111D01*
X45491836Y-67661741D01*
X45491835Y-67661742D01*
X45489283Y-67665152D01*
X45485875Y-67667702D01*
X45485568Y-67668010D01*
X45485523Y-67667965D01*
X45433348Y-67707021D01*
X45363656Y-67712002D01*
X45318901Y-67692414D01*
X45311849Y-67687477D01*
X45311843Y-67687474D01*
X45104349Y-67590718D01*
X45104338Y-67590714D01*
X44883189Y-67531457D01*
X44883181Y-67531456D01*
X44655102Y-67511502D01*
X44655098Y-67511502D01*
X44427018Y-67531456D01*
X44427010Y-67531457D01*
X44205861Y-67590714D01*
X44205850Y-67590718D01*
X43998354Y-67687475D01*
X43998352Y-67687476D01*
X43953604Y-67718809D01*
X43810800Y-67818802D01*
X43810798Y-67818803D01*
X43810795Y-67818806D01*
X43648906Y-67980695D01*
X43648903Y-67980698D01*
X43648902Y-67980700D01*
X43598971Y-68052009D01*
X43517576Y-68168252D01*
X43517575Y-68168254D01*
X43420818Y-68375750D01*
X43420814Y-68375761D01*
X43361557Y-68596910D01*
X43361556Y-68596918D01*
X43341602Y-68824998D01*
X43341602Y-68825001D01*
X40638500Y-68825001D01*
X40638500Y-67976362D01*
X40638499Y-67976345D01*
X40635157Y-67945270D01*
X40631989Y-67915799D01*
X40580889Y-67778796D01*
X40493261Y-67661739D01*
X40376204Y-67574111D01*
X40329492Y-67556688D01*
X40239203Y-67523011D01*
X40178654Y-67516500D01*
X40178638Y-67516500D01*
X38481362Y-67516500D01*
X38481345Y-67516500D01*
X38420797Y-67523011D01*
X38420795Y-67523011D01*
X38283795Y-67574111D01*
X38243197Y-67604503D01*
X38172934Y-67657102D01*
X38166738Y-67661740D01*
X38159088Y-67671959D01*
X38103153Y-67713828D01*
X38033461Y-67718809D01*
X37988704Y-67699222D01*
X37982482Y-67694866D01*
X37776326Y-67598734D01*
X37776317Y-67598730D01*
X37556610Y-67539860D01*
X37556599Y-67539858D01*
X37330002Y-67520034D01*
X37329998Y-67520034D01*
X37103400Y-67539858D01*
X37103389Y-67539860D01*
X36883682Y-67598730D01*
X36883673Y-67598734D01*
X36677513Y-67694868D01*
X36604526Y-67745973D01*
X37146133Y-68287580D01*
X37179618Y-68348903D01*
X37174634Y-68418595D01*
X37132762Y-68474528D01*
X37114748Y-68485745D01*
X37091956Y-68497358D01*
X37091949Y-68497363D01*
X37002363Y-68586949D01*
X37002358Y-68586956D01*
X36990745Y-68609748D01*
X36942770Y-68660544D01*
X36874949Y-68677338D01*
X36808814Y-68654800D01*
X36792580Y-68641133D01*
X36250973Y-68099526D01*
X36199868Y-68172513D01*
X36103734Y-68378673D01*
X36103730Y-68378682D01*
X36044860Y-68598389D01*
X36044858Y-68598400D01*
X36025034Y-68824997D01*
X36025034Y-68825002D01*
X27200500Y-68825002D01*
X27200500Y-43130000D01*
X29221974Y-43130000D01*
X29242060Y-43462076D01*
X29302032Y-43789329D01*
X29400999Y-44106928D01*
X29401005Y-44106943D01*
X29537543Y-44410319D01*
X29537545Y-44410321D01*
X29709656Y-44695030D01*
X29862862Y-44890582D01*
X30758100Y-43995344D01*
X30819423Y-43961859D01*
X30889114Y-43966843D01*
X30933871Y-43998440D01*
X30935062Y-43997250D01*
X31109750Y-44171939D01*
X31108382Y-44173306D01*
X31142374Y-44224375D01*
X31143496Y-44294236D01*
X31111654Y-44348898D01*
X30216416Y-45244136D01*
X30216416Y-45244137D01*
X30411969Y-45397343D01*
X30696678Y-45569454D01*
X30696680Y-45569456D01*
X31000056Y-45705994D01*
X31000071Y-45706000D01*
X31317670Y-45804967D01*
X31644923Y-45864939D01*
X31977000Y-45885025D01*
X32309076Y-45864939D01*
X32636329Y-45804967D01*
X32953928Y-45706000D01*
X32953943Y-45705994D01*
X33257319Y-45569456D01*
X33257321Y-45569454D01*
X33542031Y-45397342D01*
X33542039Y-45397336D01*
X33737582Y-45244137D01*
X33737582Y-45244136D01*
X32842345Y-44348899D01*
X32808860Y-44287576D01*
X32813844Y-44217884D01*
X32845447Y-44173136D01*
X32844250Y-44171939D01*
X33018939Y-43997250D01*
X33020311Y-43998622D01*
X33071345Y-43964635D01*
X33141205Y-43963494D01*
X33195898Y-43995345D01*
X34091136Y-44890582D01*
X34091137Y-44890582D01*
X34244336Y-44695039D01*
X34244342Y-44695031D01*
X34416454Y-44410321D01*
X34416456Y-44410319D01*
X34552994Y-44106943D01*
X34553000Y-44106928D01*
X34651967Y-43789329D01*
X34711939Y-43462076D01*
X34732025Y-43129999D01*
X34711939Y-42797923D01*
X34651967Y-42470670D01*
X34553000Y-42153071D01*
X34552994Y-42153056D01*
X34416456Y-41849680D01*
X34416454Y-41849678D01*
X34244343Y-41564969D01*
X34091136Y-41369416D01*
X33195898Y-42264654D01*
X33134575Y-42298139D01*
X33064883Y-42293155D01*
X33020137Y-42261551D01*
X33018939Y-42262750D01*
X32844250Y-42088062D01*
X32845610Y-42086701D01*
X32811609Y-42035574D01*
X32810515Y-41965713D01*
X32842344Y-41911100D01*
X33737582Y-41015862D01*
X33737582Y-41015861D01*
X33542030Y-40862656D01*
X33257321Y-40690545D01*
X33257319Y-40690543D01*
X32953943Y-40554005D01*
X32953928Y-40553999D01*
X32636329Y-40455032D01*
X32309076Y-40395060D01*
X31976999Y-40374974D01*
X31644923Y-40395060D01*
X31317670Y-40455032D01*
X31000071Y-40553999D01*
X31000056Y-40554005D01*
X30696680Y-40690543D01*
X30696678Y-40690545D01*
X30411968Y-40862657D01*
X30411960Y-40862662D01*
X30216416Y-41015861D01*
X30216416Y-41015862D01*
X31111655Y-41911101D01*
X31145140Y-41972424D01*
X31140156Y-42042116D01*
X31108558Y-42086870D01*
X31109750Y-42088062D01*
X30935062Y-42262750D01*
X30933704Y-42261392D01*
X30882551Y-42295396D01*
X30812689Y-42296476D01*
X30758101Y-42264654D01*
X29862862Y-41369416D01*
X29862861Y-41369416D01*
X29709662Y-41564960D01*
X29709657Y-41564968D01*
X29537545Y-41849678D01*
X29537543Y-41849680D01*
X29401005Y-42153056D01*
X29400999Y-42153071D01*
X29302032Y-42470670D01*
X29242060Y-42797923D01*
X29221974Y-43130000D01*
X27200500Y-43130000D01*
X27200500Y-38774500D01*
X27220185Y-38707461D01*
X27272989Y-38661706D01*
X27324500Y-38650500D01*
X37550240Y-38650500D01*
X37550383Y-38650528D01*
X37550384Y-38650524D01*
X37574997Y-38650539D01*
X37575000Y-38650541D01*
X37575324Y-38650407D01*
X37575381Y-38650384D01*
X37575381Y-38650383D01*
X37575383Y-38650383D01*
X37575500Y-38650099D01*
X37575541Y-38650000D01*
X37575540Y-38649997D01*
X37575583Y-38625889D01*
X37575500Y-38625467D01*
X37575500Y-35286105D01*
X39459257Y-35286105D01*
X39479007Y-35600042D01*
X39479008Y-35600049D01*
X39537955Y-35909058D01*
X39635163Y-36208232D01*
X39635165Y-36208237D01*
X39769100Y-36492861D01*
X39769103Y-36492867D01*
X39937657Y-36758467D01*
X39937660Y-36758471D01*
X40028486Y-36868260D01*
X40571613Y-36325132D01*
X40632936Y-36291647D01*
X40702627Y-36296631D01*
X40753581Y-36332279D01*
X40829330Y-36420970D01*
X40868266Y-36454224D01*
X40918016Y-36496715D01*
X40956209Y-36555222D01*
X40956707Y-36625090D01*
X40925165Y-36678686D01*
X40379171Y-37224679D01*
X40379172Y-37224681D01*
X40621972Y-37401085D01*
X40621990Y-37401096D01*
X40897647Y-37552640D01*
X40897655Y-37552644D01*
X41190126Y-37668440D01*
X41494820Y-37746673D01*
X41494829Y-37746675D01*
X41806901Y-37786099D01*
X41806915Y-37786100D01*
X42121485Y-37786100D01*
X42121498Y-37786099D01*
X42433570Y-37746675D01*
X42433579Y-37746673D01*
X42738273Y-37668440D01*
X43030744Y-37552644D01*
X43030752Y-37552640D01*
X43306409Y-37401096D01*
X43306419Y-37401090D01*
X43549226Y-37224679D01*
X43549227Y-37224679D01*
X43003233Y-36678686D01*
X42969748Y-36617363D01*
X42974732Y-36547672D01*
X43010380Y-36496717D01*
X43099070Y-36420970D01*
X43174817Y-36332280D01*
X43233321Y-36294090D01*
X43303189Y-36293590D01*
X43356786Y-36325133D01*
X43899912Y-36868260D01*
X43990744Y-36758464D01*
X44023974Y-36706102D01*
X47619234Y-36706102D01*
X47639058Y-36932699D01*
X47639060Y-36932710D01*
X47697930Y-37152417D01*
X47697934Y-37152426D01*
X47794065Y-37358581D01*
X47794066Y-37358583D01*
X47845173Y-37431571D01*
X47845173Y-37431572D01*
X48315249Y-36961495D01*
X48376572Y-36928010D01*
X48446263Y-36932994D01*
X48502197Y-36974865D01*
X48507245Y-36982136D01*
X48542438Y-37036897D01*
X48657802Y-37136859D01*
X48655493Y-37139522D01*
X48690206Y-37179599D01*
X48700135Y-37248760D01*
X48671098Y-37312310D01*
X48665082Y-37318769D01*
X48198726Y-37785125D01*
X48198726Y-37785126D01*
X48271712Y-37836231D01*
X48271716Y-37836233D01*
X48477873Y-37932365D01*
X48477882Y-37932369D01*
X48697589Y-37991239D01*
X48697600Y-37991241D01*
X48924198Y-38011066D01*
X48924202Y-38011066D01*
X49150799Y-37991241D01*
X49150810Y-37991239D01*
X49370517Y-37932369D01*
X49370531Y-37932364D01*
X49576678Y-37836236D01*
X49649672Y-37785125D01*
X49183316Y-37318769D01*
X49149831Y-37257446D01*
X49154815Y-37187754D01*
X49191841Y-37138293D01*
X49190598Y-37136859D01*
X49229203Y-37103408D01*
X49305961Y-37036898D01*
X49341155Y-36982134D01*
X49393954Y-36936383D01*
X49463113Y-36926438D01*
X49526669Y-36955462D01*
X49533149Y-36961495D01*
X50003225Y-37431572D01*
X50054336Y-37358578D01*
X50150464Y-37152431D01*
X50150469Y-37152417D01*
X50185025Y-37023451D01*
X50221390Y-36963791D01*
X50284236Y-36933261D01*
X50353612Y-36941555D01*
X50407490Y-36986040D01*
X50424575Y-37023450D01*
X50459914Y-37155337D01*
X50459918Y-37155349D01*
X50507527Y-37257446D01*
X50556677Y-37362849D01*
X50688002Y-37550400D01*
X50849900Y-37712298D01*
X51037451Y-37843623D01*
X51092645Y-37869360D01*
X51244950Y-37940381D01*
X51244952Y-37940381D01*
X51244957Y-37940384D01*
X51466113Y-37999643D01*
X51629032Y-38013896D01*
X51694198Y-38019598D01*
X51694200Y-38019598D01*
X51694202Y-38019598D01*
X51751339Y-38014599D01*
X51922287Y-37999643D01*
X52143443Y-37940384D01*
X52350949Y-37843623D01*
X52538500Y-37712298D01*
X52700398Y-37550400D01*
X52831723Y-37362849D01*
X52928484Y-37155343D01*
X52959425Y-37039869D01*
X52995790Y-36980209D01*
X53058637Y-36949680D01*
X53128012Y-36957975D01*
X53181890Y-37002460D01*
X53198975Y-37039870D01*
X53229913Y-37155335D01*
X53229918Y-37155349D01*
X53277527Y-37257446D01*
X53326677Y-37362849D01*
X53458002Y-37550400D01*
X53619900Y-37712298D01*
X53807451Y-37843623D01*
X53862645Y-37869360D01*
X54014950Y-37940381D01*
X54014952Y-37940381D01*
X54014957Y-37940384D01*
X54236113Y-37999643D01*
X54399032Y-38013896D01*
X54464198Y-38019598D01*
X54464200Y-38019598D01*
X54464202Y-38019598D01*
X54521339Y-38014599D01*
X54692287Y-37999643D01*
X54913443Y-37940384D01*
X55120949Y-37843623D01*
X55308500Y-37712298D01*
X55470398Y-37550400D01*
X55601723Y-37362849D01*
X55698484Y-37155343D01*
X55729425Y-37039869D01*
X55765790Y-36980209D01*
X55828637Y-36949680D01*
X55898012Y-36957975D01*
X55951890Y-37002460D01*
X55968975Y-37039870D01*
X55999913Y-37155335D01*
X55999918Y-37155349D01*
X56047527Y-37257446D01*
X56096677Y-37362849D01*
X56228002Y-37550400D01*
X56389900Y-37712298D01*
X56577451Y-37843623D01*
X56632645Y-37869360D01*
X56784950Y-37940381D01*
X56784952Y-37940381D01*
X56784957Y-37940384D01*
X57006113Y-37999643D01*
X57169032Y-38013896D01*
X57234198Y-38019598D01*
X57234200Y-38019598D01*
X57234202Y-38019598D01*
X57291339Y-38014599D01*
X57462287Y-37999643D01*
X57683443Y-37940384D01*
X57890949Y-37843623D01*
X58078500Y-37712298D01*
X58240398Y-37550400D01*
X58371723Y-37362849D01*
X58459317Y-37175000D01*
X58505490Y-37122560D01*
X58572683Y-37103408D01*
X58639565Y-37123624D01*
X58684899Y-37176789D01*
X58695700Y-37227404D01*
X58695700Y-37554754D01*
X58702211Y-37615302D01*
X58702211Y-37615304D01*
X58738389Y-37712298D01*
X58753311Y-37752304D01*
X58840939Y-37869361D01*
X58957996Y-37956989D01*
X59094999Y-38008089D01*
X59122250Y-38011018D01*
X59155545Y-38014599D01*
X59155562Y-38014600D01*
X60852838Y-38014600D01*
X60852854Y-38014599D01*
X60879892Y-38011691D01*
X60913401Y-38008089D01*
X61050404Y-37956989D01*
X61167461Y-37869361D01*
X61255089Y-37752304D01*
X61306189Y-37615301D01*
X61309791Y-37581792D01*
X61312699Y-37554754D01*
X61312700Y-37554737D01*
X61312700Y-35857462D01*
X61312699Y-35857445D01*
X61309357Y-35826370D01*
X61306189Y-35796899D01*
X61255089Y-35659896D01*
X61167461Y-35542839D01*
X61050404Y-35455211D01*
X60913403Y-35404111D01*
X60852854Y-35397600D01*
X60852838Y-35397600D01*
X59155562Y-35397600D01*
X59155545Y-35397600D01*
X59094997Y-35404111D01*
X59094995Y-35404111D01*
X58957995Y-35455211D01*
X58840939Y-35542839D01*
X58753311Y-35659895D01*
X58702211Y-35796895D01*
X58702211Y-35796897D01*
X58695700Y-35857445D01*
X58695700Y-36184795D01*
X58676015Y-36251834D01*
X58623211Y-36297589D01*
X58554053Y-36307533D01*
X58490497Y-36278508D01*
X58459318Y-36237200D01*
X58371723Y-36049351D01*
X58240398Y-35861800D01*
X58078500Y-35699902D01*
X57890949Y-35568577D01*
X57890945Y-35568575D01*
X57683449Y-35471818D01*
X57683438Y-35471814D01*
X57462289Y-35412557D01*
X57462281Y-35412556D01*
X57234202Y-35392602D01*
X57234198Y-35392602D01*
X57006118Y-35412556D01*
X57006110Y-35412557D01*
X56784961Y-35471814D01*
X56784950Y-35471818D01*
X56577454Y-35568575D01*
X56577452Y-35568576D01*
X56532514Y-35600042D01*
X56389900Y-35699902D01*
X56389898Y-35699903D01*
X56389895Y-35699906D01*
X56228006Y-35861795D01*
X56228003Y-35861798D01*
X56228002Y-35861800D01*
X56145967Y-35978956D01*
X56096676Y-36049352D01*
X56096675Y-36049354D01*
X55999918Y-36256850D01*
X55999914Y-36256861D01*
X55968975Y-36372330D01*
X55932610Y-36431990D01*
X55869763Y-36462519D01*
X55800387Y-36454224D01*
X55746509Y-36409739D01*
X55729425Y-36372330D01*
X55698485Y-36256861D01*
X55698481Y-36256850D01*
X55622277Y-36093429D01*
X55601723Y-36049351D01*
X55470398Y-35861800D01*
X55308500Y-35699902D01*
X55120949Y-35568577D01*
X55120945Y-35568575D01*
X54913449Y-35471818D01*
X54913438Y-35471814D01*
X54692289Y-35412557D01*
X54692281Y-35412556D01*
X54464202Y-35392602D01*
X54464198Y-35392602D01*
X54236118Y-35412556D01*
X54236110Y-35412557D01*
X54014961Y-35471814D01*
X54014950Y-35471818D01*
X53807454Y-35568575D01*
X53807452Y-35568576D01*
X53762514Y-35600042D01*
X53619900Y-35699902D01*
X53619898Y-35699903D01*
X53619895Y-35699906D01*
X53458006Y-35861795D01*
X53458003Y-35861798D01*
X53458002Y-35861800D01*
X53375967Y-35978956D01*
X53326676Y-36049352D01*
X53326675Y-36049354D01*
X53229918Y-36256850D01*
X53229914Y-36256861D01*
X53198975Y-36372330D01*
X53162610Y-36431990D01*
X53099763Y-36462519D01*
X53030387Y-36454224D01*
X52976509Y-36409739D01*
X52959425Y-36372330D01*
X52928485Y-36256861D01*
X52928481Y-36256850D01*
X52852277Y-36093429D01*
X52831723Y-36049351D01*
X52700398Y-35861800D01*
X52538500Y-35699902D01*
X52350949Y-35568577D01*
X52350945Y-35568575D01*
X52143449Y-35471818D01*
X52143438Y-35471814D01*
X51922289Y-35412557D01*
X51922281Y-35412556D01*
X51694202Y-35392602D01*
X51694198Y-35392602D01*
X51466118Y-35412556D01*
X51466110Y-35412557D01*
X51244961Y-35471814D01*
X51244950Y-35471818D01*
X51037454Y-35568575D01*
X51037452Y-35568576D01*
X50992514Y-35600042D01*
X50849900Y-35699902D01*
X50849898Y-35699903D01*
X50849895Y-35699906D01*
X50688006Y-35861795D01*
X50688003Y-35861798D01*
X50688002Y-35861800D01*
X50605967Y-35978956D01*
X50556676Y-36049352D01*
X50556675Y-36049354D01*
X50459918Y-36256850D01*
X50459914Y-36256862D01*
X50424575Y-36388749D01*
X50388210Y-36448409D01*
X50325362Y-36478938D01*
X50255987Y-36470643D01*
X50202109Y-36426158D01*
X50185025Y-36388748D01*
X50150469Y-36259782D01*
X50150465Y-36259773D01*
X50054333Y-36053616D01*
X50054331Y-36053612D01*
X50003225Y-35980626D01*
X49533149Y-36450703D01*
X49471826Y-36484188D01*
X49402134Y-36479204D01*
X49346201Y-36437332D01*
X49341152Y-36430061D01*
X49328092Y-36409739D01*
X49305961Y-36375302D01*
X49197300Y-36281148D01*
X49197299Y-36281147D01*
X49190598Y-36275341D01*
X49192898Y-36272685D01*
X49158160Y-36232528D01*
X49148274Y-36163361D01*
X49177352Y-36099829D01*
X49183316Y-36093429D01*
X49649672Y-35627073D01*
X49576683Y-35575966D01*
X49576681Y-35575965D01*
X49370526Y-35479834D01*
X49370517Y-35479830D01*
X49150810Y-35420960D01*
X49150799Y-35420958D01*
X48924202Y-35401134D01*
X48924198Y-35401134D01*
X48697600Y-35420958D01*
X48697589Y-35420960D01*
X48477882Y-35479830D01*
X48477873Y-35479834D01*
X48271713Y-35575968D01*
X48198726Y-35627073D01*
X48665083Y-36093430D01*
X48698568Y-36154753D01*
X48693584Y-36224445D01*
X48656557Y-36273905D01*
X48657802Y-36275341D01*
X48542437Y-36375303D01*
X48507246Y-36430062D01*
X48454442Y-36475817D01*
X48385284Y-36485761D01*
X48321728Y-36456736D01*
X48315250Y-36450704D01*
X47845173Y-35980626D01*
X47845172Y-35980627D01*
X47794068Y-36053613D01*
X47697934Y-36259773D01*
X47697930Y-36259782D01*
X47639060Y-36479489D01*
X47639058Y-36479500D01*
X47619234Y-36706097D01*
X47619234Y-36706102D01*
X44023974Y-36706102D01*
X44159296Y-36492867D01*
X44159299Y-36492861D01*
X44293234Y-36208237D01*
X44293236Y-36208232D01*
X44390444Y-35909058D01*
X44449391Y-35600049D01*
X44449392Y-35600042D01*
X44469143Y-35286105D01*
X64459257Y-35286105D01*
X64479007Y-35600042D01*
X64479008Y-35600049D01*
X64537955Y-35909058D01*
X64635163Y-36208232D01*
X64635165Y-36208237D01*
X64769100Y-36492861D01*
X64769103Y-36492867D01*
X64937657Y-36758467D01*
X64937660Y-36758471D01*
X65028486Y-36868260D01*
X65571613Y-36325132D01*
X65632936Y-36291647D01*
X65702627Y-36296631D01*
X65753581Y-36332279D01*
X65829330Y-36420970D01*
X65868266Y-36454224D01*
X65918016Y-36496715D01*
X65956209Y-36555222D01*
X65956707Y-36625090D01*
X65925165Y-36678686D01*
X65379171Y-37224679D01*
X65379172Y-37224681D01*
X65621972Y-37401085D01*
X65621990Y-37401096D01*
X65897647Y-37552640D01*
X65897655Y-37552644D01*
X66190126Y-37668440D01*
X66494820Y-37746673D01*
X66494829Y-37746675D01*
X66806901Y-37786099D01*
X66806915Y-37786100D01*
X67121485Y-37786100D01*
X67121498Y-37786099D01*
X67433570Y-37746675D01*
X67433579Y-37746673D01*
X67738273Y-37668440D01*
X68030744Y-37552644D01*
X68030752Y-37552640D01*
X68306409Y-37401096D01*
X68306419Y-37401090D01*
X68549226Y-37224679D01*
X68549227Y-37224679D01*
X68003233Y-36678686D01*
X67969748Y-36617363D01*
X67974732Y-36547672D01*
X68010380Y-36496717D01*
X68099070Y-36420970D01*
X68174817Y-36332280D01*
X68233321Y-36294090D01*
X68303189Y-36293590D01*
X68356786Y-36325133D01*
X68899912Y-36868260D01*
X68990744Y-36758464D01*
X69159296Y-36492867D01*
X69159299Y-36492861D01*
X69293234Y-36208237D01*
X69293236Y-36208232D01*
X69390444Y-35909058D01*
X69449391Y-35600049D01*
X69449392Y-35600042D01*
X69469143Y-35286105D01*
X69469143Y-35286094D01*
X69449392Y-34972157D01*
X69449391Y-34972150D01*
X69390444Y-34663141D01*
X69293236Y-34363967D01*
X69293234Y-34363962D01*
X69159299Y-34079338D01*
X69159296Y-34079332D01*
X68990742Y-33813732D01*
X68990739Y-33813728D01*
X68899912Y-33703938D01*
X68356786Y-34247065D01*
X68295463Y-34280550D01*
X68225771Y-34275566D01*
X68174815Y-34239916D01*
X68108661Y-34162460D01*
X68099070Y-34151230D01*
X68010379Y-34075481D01*
X67972189Y-34016978D01*
X67971689Y-33947110D01*
X68003232Y-33893513D01*
X68549227Y-33347519D01*
X68549226Y-33347517D01*
X68306427Y-33171114D01*
X68306409Y-33171103D01*
X68030752Y-33019559D01*
X68030744Y-33019555D01*
X67738273Y-32903759D01*
X67433579Y-32825526D01*
X67433570Y-32825524D01*
X67121498Y-32786100D01*
X66806901Y-32786100D01*
X66494829Y-32825524D01*
X66494820Y-32825526D01*
X66190126Y-32903759D01*
X65897655Y-33019555D01*
X65897647Y-33019559D01*
X65621987Y-33171104D01*
X65621982Y-33171107D01*
X65379172Y-33347518D01*
X65379171Y-33347519D01*
X65925166Y-33893513D01*
X65958651Y-33954836D01*
X65953667Y-34024527D01*
X65918017Y-34075484D01*
X65829330Y-34151230D01*
X65753584Y-34239917D01*
X65695077Y-34278110D01*
X65625209Y-34278608D01*
X65571613Y-34247066D01*
X65028486Y-33703938D01*
X65028485Y-33703938D01*
X64937659Y-33813729D01*
X64937657Y-33813732D01*
X64769103Y-34079332D01*
X64769100Y-34079338D01*
X64635165Y-34363962D01*
X64635163Y-34363967D01*
X64537955Y-34663141D01*
X64479008Y-34972150D01*
X64479007Y-34972157D01*
X64459257Y-35286094D01*
X64459257Y-35286105D01*
X44469143Y-35286105D01*
X44469143Y-35286094D01*
X44449392Y-34972157D01*
X44449391Y-34972150D01*
X44390444Y-34663141D01*
X44293236Y-34363967D01*
X44293234Y-34363962D01*
X44159299Y-34079338D01*
X44159296Y-34079332D01*
X44023976Y-33866101D01*
X48995702Y-33866101D01*
X49015656Y-34094181D01*
X49015657Y-34094189D01*
X49074914Y-34315338D01*
X49074918Y-34315349D01*
X49171675Y-34522845D01*
X49171677Y-34522849D01*
X49303002Y-34710400D01*
X49464900Y-34872298D01*
X49652451Y-35003623D01*
X49777291Y-35061836D01*
X49859950Y-35100381D01*
X49859952Y-35100381D01*
X49859957Y-35100384D01*
X50081113Y-35159643D01*
X50244032Y-35173896D01*
X50309198Y-35179598D01*
X50309200Y-35179598D01*
X50309202Y-35179598D01*
X50366221Y-35174609D01*
X50537287Y-35159643D01*
X50758443Y-35100384D01*
X50965949Y-35003623D01*
X51153500Y-34872298D01*
X51315398Y-34710400D01*
X51446723Y-34522849D01*
X51543484Y-34315343D01*
X51574425Y-34199869D01*
X51610790Y-34140209D01*
X51673637Y-34109680D01*
X51743012Y-34117975D01*
X51796890Y-34162460D01*
X51813975Y-34199870D01*
X51844913Y-34315335D01*
X51844918Y-34315349D01*
X51941675Y-34522845D01*
X51941677Y-34522849D01*
X52073002Y-34710400D01*
X52234900Y-34872298D01*
X52422451Y-35003623D01*
X52547291Y-35061836D01*
X52629950Y-35100381D01*
X52629952Y-35100381D01*
X52629957Y-35100384D01*
X52851113Y-35159643D01*
X53014032Y-35173896D01*
X53079198Y-35179598D01*
X53079200Y-35179598D01*
X53079202Y-35179598D01*
X53136221Y-35174609D01*
X53307287Y-35159643D01*
X53528443Y-35100384D01*
X53735949Y-35003623D01*
X53923500Y-34872298D01*
X54085398Y-34710400D01*
X54216723Y-34522849D01*
X54313484Y-34315343D01*
X54344425Y-34199869D01*
X54380790Y-34140209D01*
X54443637Y-34109680D01*
X54513012Y-34117975D01*
X54566890Y-34162460D01*
X54583975Y-34199870D01*
X54614913Y-34315335D01*
X54614918Y-34315349D01*
X54711675Y-34522845D01*
X54711677Y-34522849D01*
X54843002Y-34710400D01*
X55004900Y-34872298D01*
X55192451Y-35003623D01*
X55317291Y-35061836D01*
X55399950Y-35100381D01*
X55399952Y-35100381D01*
X55399957Y-35100384D01*
X55621113Y-35159643D01*
X55784032Y-35173896D01*
X55849198Y-35179598D01*
X55849200Y-35179598D01*
X55849202Y-35179598D01*
X55906221Y-35174609D01*
X56077287Y-35159643D01*
X56298443Y-35100384D01*
X56505949Y-35003623D01*
X56693500Y-34872298D01*
X56855398Y-34710400D01*
X56986723Y-34522849D01*
X57083484Y-34315343D01*
X57114425Y-34199869D01*
X57150790Y-34140209D01*
X57213637Y-34109680D01*
X57283012Y-34117975D01*
X57336890Y-34162460D01*
X57353975Y-34199870D01*
X57384913Y-34315335D01*
X57384918Y-34315349D01*
X57481675Y-34522845D01*
X57481677Y-34522849D01*
X57613002Y-34710400D01*
X57774900Y-34872298D01*
X57962451Y-35003623D01*
X58087291Y-35061836D01*
X58169950Y-35100381D01*
X58169952Y-35100381D01*
X58169957Y-35100384D01*
X58391113Y-35159643D01*
X58554032Y-35173896D01*
X58619198Y-35179598D01*
X58619200Y-35179598D01*
X58619202Y-35179598D01*
X58676221Y-35174609D01*
X58847287Y-35159643D01*
X59068443Y-35100384D01*
X59275949Y-35003623D01*
X59463500Y-34872298D01*
X59625398Y-34710400D01*
X59756723Y-34522849D01*
X59853484Y-34315343D01*
X59912743Y-34094187D01*
X59932698Y-33866100D01*
X59931821Y-33856081D01*
X59926996Y-33800932D01*
X59912743Y-33638013D01*
X59853484Y-33416857D01*
X59756723Y-33209351D01*
X59625398Y-33021800D01*
X59463500Y-32859902D01*
X59275949Y-32728577D01*
X59275945Y-32728575D01*
X59068449Y-32631818D01*
X59068438Y-32631814D01*
X58847289Y-32572557D01*
X58847281Y-32572556D01*
X58619202Y-32552602D01*
X58619198Y-32552602D01*
X58391118Y-32572556D01*
X58391110Y-32572557D01*
X58169961Y-32631814D01*
X58169950Y-32631818D01*
X57962454Y-32728575D01*
X57962452Y-32728576D01*
X57962449Y-32728577D01*
X57962451Y-32728577D01*
X57774900Y-32859902D01*
X57774898Y-32859903D01*
X57774895Y-32859906D01*
X57613006Y-33021795D01*
X57481676Y-33209352D01*
X57481675Y-33209354D01*
X57384918Y-33416850D01*
X57384914Y-33416861D01*
X57353975Y-33532330D01*
X57317610Y-33591990D01*
X57254763Y-33622519D01*
X57185387Y-33614224D01*
X57131509Y-33569739D01*
X57114425Y-33532330D01*
X57083485Y-33416861D01*
X57083481Y-33416850D01*
X56986724Y-33209354D01*
X56986723Y-33209352D01*
X56986723Y-33209351D01*
X56855398Y-33021800D01*
X56693500Y-32859902D01*
X56505949Y-32728577D01*
X56505945Y-32728575D01*
X56298449Y-32631818D01*
X56298438Y-32631814D01*
X56077289Y-32572557D01*
X56077281Y-32572556D01*
X55849202Y-32552602D01*
X55849198Y-32552602D01*
X55621118Y-32572556D01*
X55621110Y-32572557D01*
X55399961Y-32631814D01*
X55399950Y-32631818D01*
X55192454Y-32728575D01*
X55192452Y-32728576D01*
X55192449Y-32728577D01*
X55192451Y-32728577D01*
X55004900Y-32859902D01*
X55004898Y-32859903D01*
X55004895Y-32859906D01*
X54843006Y-33021795D01*
X54711676Y-33209352D01*
X54711675Y-33209354D01*
X54614918Y-33416850D01*
X54614914Y-33416861D01*
X54583975Y-33532330D01*
X54547610Y-33591990D01*
X54484763Y-33622519D01*
X54415387Y-33614224D01*
X54361509Y-33569739D01*
X54344425Y-33532330D01*
X54313485Y-33416861D01*
X54313481Y-33416850D01*
X54216724Y-33209354D01*
X54216723Y-33209352D01*
X54216723Y-33209351D01*
X54085398Y-33021800D01*
X53923500Y-32859902D01*
X53735949Y-32728577D01*
X53735945Y-32728575D01*
X53528449Y-32631818D01*
X53528438Y-32631814D01*
X53307289Y-32572557D01*
X53307281Y-32572556D01*
X53079202Y-32552602D01*
X53079198Y-32552602D01*
X52851118Y-32572556D01*
X52851110Y-32572557D01*
X52629961Y-32631814D01*
X52629950Y-32631818D01*
X52422454Y-32728575D01*
X52422452Y-32728576D01*
X52422449Y-32728577D01*
X52422451Y-32728577D01*
X52234900Y-32859902D01*
X52234898Y-32859903D01*
X52234895Y-32859906D01*
X52073006Y-33021795D01*
X51941676Y-33209352D01*
X51941675Y-33209354D01*
X51844918Y-33416850D01*
X51844914Y-33416861D01*
X51813975Y-33532330D01*
X51777610Y-33591990D01*
X51714763Y-33622519D01*
X51645387Y-33614224D01*
X51591509Y-33569739D01*
X51574425Y-33532330D01*
X51543485Y-33416861D01*
X51543481Y-33416850D01*
X51446724Y-33209354D01*
X51446723Y-33209352D01*
X51446723Y-33209351D01*
X51315398Y-33021800D01*
X51153500Y-32859902D01*
X50965949Y-32728577D01*
X50965945Y-32728575D01*
X50758449Y-32631818D01*
X50758438Y-32631814D01*
X50537289Y-32572557D01*
X50537281Y-32572556D01*
X50309202Y-32552602D01*
X50309198Y-32552602D01*
X50081118Y-32572556D01*
X50081110Y-32572557D01*
X49859961Y-32631814D01*
X49859950Y-32631818D01*
X49652454Y-32728575D01*
X49652452Y-32728576D01*
X49652449Y-32728577D01*
X49652451Y-32728577D01*
X49464900Y-32859902D01*
X49464898Y-32859903D01*
X49464895Y-32859906D01*
X49303006Y-33021795D01*
X49171676Y-33209352D01*
X49171675Y-33209354D01*
X49074918Y-33416850D01*
X49074914Y-33416861D01*
X49015657Y-33638010D01*
X49015656Y-33638018D01*
X48995702Y-33866098D01*
X48995702Y-33866101D01*
X44023976Y-33866101D01*
X43990742Y-33813732D01*
X43990739Y-33813728D01*
X43899912Y-33703938D01*
X43356786Y-34247065D01*
X43295463Y-34280550D01*
X43225771Y-34275566D01*
X43174815Y-34239916D01*
X43108661Y-34162460D01*
X43099070Y-34151230D01*
X43010379Y-34075481D01*
X42972189Y-34016978D01*
X42971689Y-33947110D01*
X43003232Y-33893513D01*
X43549227Y-33347519D01*
X43549226Y-33347517D01*
X43306427Y-33171114D01*
X43306409Y-33171103D01*
X43030752Y-33019559D01*
X43030744Y-33019555D01*
X42738273Y-32903759D01*
X42433579Y-32825526D01*
X42433570Y-32825524D01*
X42121498Y-32786100D01*
X41806901Y-32786100D01*
X41494829Y-32825524D01*
X41494820Y-32825526D01*
X41190126Y-32903759D01*
X40897655Y-33019555D01*
X40897647Y-33019559D01*
X40621987Y-33171104D01*
X40621982Y-33171107D01*
X40379172Y-33347518D01*
X40379171Y-33347519D01*
X40925166Y-33893513D01*
X40958651Y-33954836D01*
X40953667Y-34024527D01*
X40918017Y-34075484D01*
X40829330Y-34151230D01*
X40753584Y-34239917D01*
X40695077Y-34278110D01*
X40625209Y-34278608D01*
X40571613Y-34247066D01*
X40028486Y-33703938D01*
X40028485Y-33703938D01*
X39937659Y-33813729D01*
X39937657Y-33813732D01*
X39769103Y-34079332D01*
X39769100Y-34079338D01*
X39635165Y-34363962D01*
X39635163Y-34363967D01*
X39537955Y-34663141D01*
X39479008Y-34972150D01*
X39479007Y-34972157D01*
X39459257Y-35286094D01*
X39459257Y-35286105D01*
X37575500Y-35286105D01*
X37575500Y-25924500D01*
X37595185Y-25857461D01*
X37647989Y-25811706D01*
X37699500Y-25800500D01*
X71150500Y-25800500D01*
X71217539Y-25820185D01*
G37*
%TD.AperFunction*%
%TD*%
M02*
