%TF.GenerationSoftware,KiCad,Pcbnew,7.0.7*%
%TF.CreationDate,2023-10-18T23:04:21+01:00*%
%TF.ProjectId,CPC464-2MINIRS232C,43504334-3634-42d3-924d-494e49525332,rev?*%
%TF.SameCoordinates,Original*%
%TF.FileFunction,Legend,Bot*%
%TF.FilePolarity,Positive*%
%FSLAX46Y46*%
G04 Gerber Fmt 4.6, Leading zero omitted, Abs format (unit mm)*
G04 Created by KiCad (PCBNEW 7.0.7) date 2023-10-18 23:04:21*
%MOMM*%
%LPD*%
G01*
G04 APERTURE LIST*
%ADD10C,0.250000*%
G04 APERTURE END LIST*
D10*
X119765288Y-121974619D02*
X119193860Y-121974619D01*
X119479574Y-122974619D02*
X119479574Y-121974619D01*
X118860526Y-122974619D02*
X118860526Y-121974619D01*
X118431955Y-122974619D02*
X118431955Y-122450809D01*
X118431955Y-122450809D02*
X118479574Y-122355571D01*
X118479574Y-122355571D02*
X118574812Y-122307952D01*
X118574812Y-122307952D02*
X118717669Y-122307952D01*
X118717669Y-122307952D02*
X118812907Y-122355571D01*
X118812907Y-122355571D02*
X118860526Y-122403190D01*
X117527193Y-122974619D02*
X117527193Y-122450809D01*
X117527193Y-122450809D02*
X117574812Y-122355571D01*
X117574812Y-122355571D02*
X117670050Y-122307952D01*
X117670050Y-122307952D02*
X117860526Y-122307952D01*
X117860526Y-122307952D02*
X117955764Y-122355571D01*
X117527193Y-122927000D02*
X117622431Y-122974619D01*
X117622431Y-122974619D02*
X117860526Y-122974619D01*
X117860526Y-122974619D02*
X117955764Y-122927000D01*
X117955764Y-122927000D02*
X118003383Y-122831761D01*
X118003383Y-122831761D02*
X118003383Y-122736523D01*
X118003383Y-122736523D02*
X117955764Y-122641285D01*
X117955764Y-122641285D02*
X117860526Y-122593666D01*
X117860526Y-122593666D02*
X117622431Y-122593666D01*
X117622431Y-122593666D02*
X117527193Y-122546047D01*
X117051002Y-122307952D02*
X117051002Y-122974619D01*
X117051002Y-122403190D02*
X117003383Y-122355571D01*
X117003383Y-122355571D02*
X116908145Y-122307952D01*
X116908145Y-122307952D02*
X116765288Y-122307952D01*
X116765288Y-122307952D02*
X116670050Y-122355571D01*
X116670050Y-122355571D02*
X116622431Y-122450809D01*
X116622431Y-122450809D02*
X116622431Y-122974619D01*
X116146240Y-122974619D02*
X116146240Y-121974619D01*
X116051002Y-122593666D02*
X115765288Y-122974619D01*
X115765288Y-122307952D02*
X116146240Y-122688904D01*
X115384335Y-122927000D02*
X115289097Y-122974619D01*
X115289097Y-122974619D02*
X115098621Y-122974619D01*
X115098621Y-122974619D02*
X115003383Y-122927000D01*
X115003383Y-122927000D02*
X114955764Y-122831761D01*
X114955764Y-122831761D02*
X114955764Y-122784142D01*
X114955764Y-122784142D02*
X115003383Y-122688904D01*
X115003383Y-122688904D02*
X115098621Y-122641285D01*
X115098621Y-122641285D02*
X115241478Y-122641285D01*
X115241478Y-122641285D02*
X115336716Y-122593666D01*
X115336716Y-122593666D02*
X115384335Y-122498428D01*
X115384335Y-122498428D02*
X115384335Y-122450809D01*
X115384335Y-122450809D02*
X115336716Y-122355571D01*
X115336716Y-122355571D02*
X115241478Y-122307952D01*
X115241478Y-122307952D02*
X115098621Y-122307952D01*
X115098621Y-122307952D02*
X115003383Y-122355571D01*
X113908144Y-122307952D02*
X113527192Y-122307952D01*
X113765287Y-121974619D02*
X113765287Y-122831761D01*
X113765287Y-122831761D02*
X113717668Y-122927000D01*
X113717668Y-122927000D02*
X113622430Y-122974619D01*
X113622430Y-122974619D02*
X113527192Y-122974619D01*
X113051001Y-122974619D02*
X113146239Y-122927000D01*
X113146239Y-122927000D02*
X113193858Y-122879380D01*
X113193858Y-122879380D02*
X113241477Y-122784142D01*
X113241477Y-122784142D02*
X113241477Y-122498428D01*
X113241477Y-122498428D02*
X113193858Y-122403190D01*
X113193858Y-122403190D02*
X113146239Y-122355571D01*
X113146239Y-122355571D02*
X113051001Y-122307952D01*
X113051001Y-122307952D02*
X112908144Y-122307952D01*
X112908144Y-122307952D02*
X112812906Y-122355571D01*
X112812906Y-122355571D02*
X112765287Y-122403190D01*
X112765287Y-122403190D02*
X112717668Y-122498428D01*
X112717668Y-122498428D02*
X112717668Y-122784142D01*
X112717668Y-122784142D02*
X112765287Y-122879380D01*
X112765287Y-122879380D02*
X112812906Y-122927000D01*
X112812906Y-122927000D02*
X112908144Y-122974619D01*
X112908144Y-122974619D02*
X113051001Y-122974619D01*
X111527191Y-122974619D02*
X111527191Y-121974619D01*
X110622430Y-122974619D02*
X110622430Y-122450809D01*
X110622430Y-122450809D02*
X110670049Y-122355571D01*
X110670049Y-122355571D02*
X110765287Y-122307952D01*
X110765287Y-122307952D02*
X110955763Y-122307952D01*
X110955763Y-122307952D02*
X111051001Y-122355571D01*
X110622430Y-122927000D02*
X110717668Y-122974619D01*
X110717668Y-122974619D02*
X110955763Y-122974619D01*
X110955763Y-122974619D02*
X111051001Y-122927000D01*
X111051001Y-122927000D02*
X111098620Y-122831761D01*
X111098620Y-122831761D02*
X111098620Y-122736523D01*
X111098620Y-122736523D02*
X111051001Y-122641285D01*
X111051001Y-122641285D02*
X110955763Y-122593666D01*
X110955763Y-122593666D02*
X110717668Y-122593666D01*
X110717668Y-122593666D02*
X110622430Y-122546047D01*
X110146239Y-122307952D02*
X110146239Y-122974619D01*
X110146239Y-122403190D02*
X110098620Y-122355571D01*
X110098620Y-122355571D02*
X110003382Y-122307952D01*
X110003382Y-122307952D02*
X109860525Y-122307952D01*
X109860525Y-122307952D02*
X109765287Y-122355571D01*
X109765287Y-122355571D02*
X109717668Y-122450809D01*
X109717668Y-122450809D02*
X109717668Y-122974619D01*
X108527191Y-122927000D02*
X108384334Y-122974619D01*
X108384334Y-122974619D02*
X108146239Y-122974619D01*
X108146239Y-122974619D02*
X108051001Y-122927000D01*
X108051001Y-122927000D02*
X108003382Y-122879380D01*
X108003382Y-122879380D02*
X107955763Y-122784142D01*
X107955763Y-122784142D02*
X107955763Y-122688904D01*
X107955763Y-122688904D02*
X108003382Y-122593666D01*
X108003382Y-122593666D02*
X108051001Y-122546047D01*
X108051001Y-122546047D02*
X108146239Y-122498428D01*
X108146239Y-122498428D02*
X108336715Y-122450809D01*
X108336715Y-122450809D02*
X108431953Y-122403190D01*
X108431953Y-122403190D02*
X108479572Y-122355571D01*
X108479572Y-122355571D02*
X108527191Y-122260333D01*
X108527191Y-122260333D02*
X108527191Y-122165095D01*
X108527191Y-122165095D02*
X108479572Y-122069857D01*
X108479572Y-122069857D02*
X108431953Y-122022238D01*
X108431953Y-122022238D02*
X108336715Y-121974619D01*
X108336715Y-121974619D02*
X108098620Y-121974619D01*
X108098620Y-121974619D02*
X107955763Y-122022238D01*
X107670048Y-122307952D02*
X107289096Y-122307952D01*
X107527191Y-121974619D02*
X107527191Y-122831761D01*
X107527191Y-122831761D02*
X107479572Y-122927000D01*
X107479572Y-122927000D02*
X107384334Y-122974619D01*
X107384334Y-122974619D02*
X107289096Y-122974619D01*
X106812905Y-122974619D02*
X106908143Y-122927000D01*
X106908143Y-122927000D02*
X106955762Y-122879380D01*
X106955762Y-122879380D02*
X107003381Y-122784142D01*
X107003381Y-122784142D02*
X107003381Y-122498428D01*
X107003381Y-122498428D02*
X106955762Y-122403190D01*
X106955762Y-122403190D02*
X106908143Y-122355571D01*
X106908143Y-122355571D02*
X106812905Y-122307952D01*
X106812905Y-122307952D02*
X106670048Y-122307952D01*
X106670048Y-122307952D02*
X106574810Y-122355571D01*
X106574810Y-122355571D02*
X106527191Y-122403190D01*
X106527191Y-122403190D02*
X106479572Y-122498428D01*
X106479572Y-122498428D02*
X106479572Y-122784142D01*
X106479572Y-122784142D02*
X106527191Y-122879380D01*
X106527191Y-122879380D02*
X106574810Y-122927000D01*
X106574810Y-122927000D02*
X106670048Y-122974619D01*
X106670048Y-122974619D02*
X106812905Y-122974619D01*
X105622429Y-122927000D02*
X105717667Y-122974619D01*
X105717667Y-122974619D02*
X105908143Y-122974619D01*
X105908143Y-122974619D02*
X106003381Y-122927000D01*
X106003381Y-122927000D02*
X106051000Y-122879380D01*
X106051000Y-122879380D02*
X106098619Y-122784142D01*
X106098619Y-122784142D02*
X106098619Y-122498428D01*
X106098619Y-122498428D02*
X106051000Y-122403190D01*
X106051000Y-122403190D02*
X106003381Y-122355571D01*
X106003381Y-122355571D02*
X105908143Y-122307952D01*
X105908143Y-122307952D02*
X105717667Y-122307952D01*
X105717667Y-122307952D02*
X105622429Y-122355571D01*
X105193857Y-122974619D02*
X105193857Y-121974619D01*
X105098619Y-122593666D02*
X104812905Y-122974619D01*
X104812905Y-122307952D02*
X105193857Y-122688904D01*
X104431952Y-122927000D02*
X104336714Y-122974619D01*
X104336714Y-122974619D02*
X104146238Y-122974619D01*
X104146238Y-122974619D02*
X104051000Y-122927000D01*
X104051000Y-122927000D02*
X104003381Y-122831761D01*
X104003381Y-122831761D02*
X104003381Y-122784142D01*
X104003381Y-122784142D02*
X104051000Y-122688904D01*
X104051000Y-122688904D02*
X104146238Y-122641285D01*
X104146238Y-122641285D02*
X104289095Y-122641285D01*
X104289095Y-122641285D02*
X104384333Y-122593666D01*
X104384333Y-122593666D02*
X104431952Y-122498428D01*
X104431952Y-122498428D02*
X104431952Y-122450809D01*
X104431952Y-122450809D02*
X104384333Y-122355571D01*
X104384333Y-122355571D02*
X104289095Y-122307952D01*
X104289095Y-122307952D02*
X104146238Y-122307952D01*
X104146238Y-122307952D02*
X104051000Y-122355571D01*
X103527190Y-122927000D02*
X103527190Y-122974619D01*
X103527190Y-122974619D02*
X103574809Y-123069857D01*
X103574809Y-123069857D02*
X103622428Y-123117476D01*
X101765286Y-122974619D02*
X102098619Y-122498428D01*
X102336714Y-122974619D02*
X102336714Y-121974619D01*
X102336714Y-121974619D02*
X101955762Y-121974619D01*
X101955762Y-121974619D02*
X101860524Y-122022238D01*
X101860524Y-122022238D02*
X101812905Y-122069857D01*
X101812905Y-122069857D02*
X101765286Y-122165095D01*
X101765286Y-122165095D02*
X101765286Y-122307952D01*
X101765286Y-122307952D02*
X101812905Y-122403190D01*
X101812905Y-122403190D02*
X101860524Y-122450809D01*
X101860524Y-122450809D02*
X101955762Y-122498428D01*
X101955762Y-122498428D02*
X102336714Y-122498428D01*
X101193857Y-122974619D02*
X101289095Y-122927000D01*
X101289095Y-122927000D02*
X101336714Y-122879380D01*
X101336714Y-122879380D02*
X101384333Y-122784142D01*
X101384333Y-122784142D02*
X101384333Y-122498428D01*
X101384333Y-122498428D02*
X101336714Y-122403190D01*
X101336714Y-122403190D02*
X101289095Y-122355571D01*
X101289095Y-122355571D02*
X101193857Y-122307952D01*
X101193857Y-122307952D02*
X101051000Y-122307952D01*
X101051000Y-122307952D02*
X100955762Y-122355571D01*
X100955762Y-122355571D02*
X100908143Y-122403190D01*
X100908143Y-122403190D02*
X100860524Y-122498428D01*
X100860524Y-122498428D02*
X100860524Y-122784142D01*
X100860524Y-122784142D02*
X100908143Y-122879380D01*
X100908143Y-122879380D02*
X100955762Y-122927000D01*
X100955762Y-122927000D02*
X101051000Y-122974619D01*
X101051000Y-122974619D02*
X101193857Y-122974619D01*
X100431952Y-122974619D02*
X100431952Y-121974619D01*
X100431952Y-122355571D02*
X100336714Y-122307952D01*
X100336714Y-122307952D02*
X100146238Y-122307952D01*
X100146238Y-122307952D02*
X100051000Y-122355571D01*
X100051000Y-122355571D02*
X100003381Y-122403190D01*
X100003381Y-122403190D02*
X99955762Y-122498428D01*
X99955762Y-122498428D02*
X99955762Y-122784142D01*
X99955762Y-122784142D02*
X100003381Y-122879380D01*
X100003381Y-122879380D02*
X100051000Y-122927000D01*
X100051000Y-122927000D02*
X100146238Y-122974619D01*
X100146238Y-122974619D02*
X100336714Y-122974619D01*
X100336714Y-122974619D02*
X100431952Y-122927000D01*
X98812904Y-121974619D02*
X98812904Y-122165095D01*
X98431952Y-121974619D02*
X98431952Y-122165095D01*
X98003380Y-122974619D02*
X98003380Y-121974619D01*
X98003380Y-121974619D02*
X97622428Y-121974619D01*
X97622428Y-121974619D02*
X97527190Y-122022238D01*
X97527190Y-122022238D02*
X97479571Y-122069857D01*
X97479571Y-122069857D02*
X97431952Y-122165095D01*
X97431952Y-122165095D02*
X97431952Y-122307952D01*
X97431952Y-122307952D02*
X97479571Y-122403190D01*
X97479571Y-122403190D02*
X97527190Y-122450809D01*
X97527190Y-122450809D02*
X97622428Y-122498428D01*
X97622428Y-122498428D02*
X98003380Y-122498428D01*
X96622428Y-122927000D02*
X96717666Y-122974619D01*
X96717666Y-122974619D02*
X96908142Y-122974619D01*
X96908142Y-122974619D02*
X97003380Y-122927000D01*
X97003380Y-122927000D02*
X97050999Y-122831761D01*
X97050999Y-122831761D02*
X97050999Y-122450809D01*
X97050999Y-122450809D02*
X97003380Y-122355571D01*
X97003380Y-122355571D02*
X96908142Y-122307952D01*
X96908142Y-122307952D02*
X96717666Y-122307952D01*
X96717666Y-122307952D02*
X96622428Y-122355571D01*
X96622428Y-122355571D02*
X96574809Y-122450809D01*
X96574809Y-122450809D02*
X96574809Y-122546047D01*
X96574809Y-122546047D02*
X97050999Y-122641285D01*
X95765285Y-122927000D02*
X95860523Y-122974619D01*
X95860523Y-122974619D02*
X96050999Y-122974619D01*
X96050999Y-122974619D02*
X96146237Y-122927000D01*
X96146237Y-122927000D02*
X96193856Y-122831761D01*
X96193856Y-122831761D02*
X96193856Y-122450809D01*
X96193856Y-122450809D02*
X96146237Y-122355571D01*
X96146237Y-122355571D02*
X96050999Y-122307952D01*
X96050999Y-122307952D02*
X95860523Y-122307952D01*
X95860523Y-122307952D02*
X95765285Y-122355571D01*
X95765285Y-122355571D02*
X95717666Y-122450809D01*
X95717666Y-122450809D02*
X95717666Y-122546047D01*
X95717666Y-122546047D02*
X96193856Y-122641285D01*
X95289094Y-122307952D02*
X95289094Y-123307952D01*
X95289094Y-122355571D02*
X95193856Y-122307952D01*
X95193856Y-122307952D02*
X95003380Y-122307952D01*
X95003380Y-122307952D02*
X94908142Y-122355571D01*
X94908142Y-122355571D02*
X94860523Y-122403190D01*
X94860523Y-122403190D02*
X94812904Y-122498428D01*
X94812904Y-122498428D02*
X94812904Y-122784142D01*
X94812904Y-122784142D02*
X94860523Y-122879380D01*
X94860523Y-122879380D02*
X94908142Y-122927000D01*
X94908142Y-122927000D02*
X95003380Y-122974619D01*
X95003380Y-122974619D02*
X95193856Y-122974619D01*
X95193856Y-122974619D02*
X95289094Y-122927000D01*
X94241475Y-122974619D02*
X94336713Y-122927000D01*
X94336713Y-122927000D02*
X94384332Y-122879380D01*
X94384332Y-122879380D02*
X94431951Y-122784142D01*
X94431951Y-122784142D02*
X94431951Y-122498428D01*
X94431951Y-122498428D02*
X94384332Y-122403190D01*
X94384332Y-122403190D02*
X94336713Y-122355571D01*
X94336713Y-122355571D02*
X94241475Y-122307952D01*
X94241475Y-122307952D02*
X94098618Y-122307952D01*
X94098618Y-122307952D02*
X94003380Y-122355571D01*
X94003380Y-122355571D02*
X93955761Y-122403190D01*
X93955761Y-122403190D02*
X93908142Y-122498428D01*
X93908142Y-122498428D02*
X93908142Y-122784142D01*
X93908142Y-122784142D02*
X93955761Y-122879380D01*
X93955761Y-122879380D02*
X94003380Y-122927000D01*
X94003380Y-122927000D02*
X94098618Y-122974619D01*
X94098618Y-122974619D02*
X94241475Y-122974619D01*
X93527189Y-121974619D02*
X93527189Y-122165095D01*
X93146237Y-121974619D02*
X93146237Y-122165095D01*
X92098617Y-121974619D02*
X91527189Y-121974619D01*
X91812903Y-122974619D02*
X91812903Y-121974619D01*
X90765284Y-122974619D02*
X90765284Y-122450809D01*
X90765284Y-122450809D02*
X90812903Y-122355571D01*
X90812903Y-122355571D02*
X90908141Y-122307952D01*
X90908141Y-122307952D02*
X91098617Y-122307952D01*
X91098617Y-122307952D02*
X91193855Y-122355571D01*
X90765284Y-122927000D02*
X90860522Y-122974619D01*
X90860522Y-122974619D02*
X91098617Y-122974619D01*
X91098617Y-122974619D02*
X91193855Y-122927000D01*
X91193855Y-122927000D02*
X91241474Y-122831761D01*
X91241474Y-122831761D02*
X91241474Y-122736523D01*
X91241474Y-122736523D02*
X91193855Y-122641285D01*
X91193855Y-122641285D02*
X91098617Y-122593666D01*
X91098617Y-122593666D02*
X90860522Y-122593666D01*
X90860522Y-122593666D02*
X90765284Y-122546047D01*
X90384331Y-122307952D02*
X90146236Y-122974619D01*
X89908141Y-122307952D02*
X90146236Y-122974619D01*
X90146236Y-122974619D02*
X90241474Y-123212714D01*
X90241474Y-123212714D02*
X90289093Y-123260333D01*
X90289093Y-123260333D02*
X90384331Y-123307952D01*
X89384331Y-122974619D02*
X89479569Y-122927000D01*
X89479569Y-122927000D02*
X89527188Y-122831761D01*
X89527188Y-122831761D02*
X89527188Y-121974619D01*
X88860521Y-122974619D02*
X88955759Y-122927000D01*
X88955759Y-122927000D02*
X89003378Y-122879380D01*
X89003378Y-122879380D02*
X89050997Y-122784142D01*
X89050997Y-122784142D02*
X89050997Y-122498428D01*
X89050997Y-122498428D02*
X89003378Y-122403190D01*
X89003378Y-122403190D02*
X88955759Y-122355571D01*
X88955759Y-122355571D02*
X88860521Y-122307952D01*
X88860521Y-122307952D02*
X88717664Y-122307952D01*
X88717664Y-122307952D02*
X88622426Y-122355571D01*
X88622426Y-122355571D02*
X88574807Y-122403190D01*
X88574807Y-122403190D02*
X88527188Y-122498428D01*
X88527188Y-122498428D02*
X88527188Y-122784142D01*
X88527188Y-122784142D02*
X88574807Y-122879380D01*
X88574807Y-122879380D02*
X88622426Y-122927000D01*
X88622426Y-122927000D02*
X88717664Y-122974619D01*
X88717664Y-122974619D02*
X88860521Y-122974619D01*
X88098616Y-122974619D02*
X88098616Y-122307952D01*
X88098616Y-122498428D02*
X88050997Y-122403190D01*
X88050997Y-122403190D02*
X88003378Y-122355571D01*
X88003378Y-122355571D02*
X87908140Y-122307952D01*
X87908140Y-122307952D02*
X87812902Y-122307952D01*
X87431949Y-122927000D02*
X87431949Y-122974619D01*
X87431949Y-122974619D02*
X87479568Y-123069857D01*
X87479568Y-123069857D02*
X87527187Y-123117476D01*
X85670045Y-122879380D02*
X85717664Y-122927000D01*
X85717664Y-122927000D02*
X85860521Y-122974619D01*
X85860521Y-122974619D02*
X85955759Y-122974619D01*
X85955759Y-122974619D02*
X86098616Y-122927000D01*
X86098616Y-122927000D02*
X86193854Y-122831761D01*
X86193854Y-122831761D02*
X86241473Y-122736523D01*
X86241473Y-122736523D02*
X86289092Y-122546047D01*
X86289092Y-122546047D02*
X86289092Y-122403190D01*
X86289092Y-122403190D02*
X86241473Y-122212714D01*
X86241473Y-122212714D02*
X86193854Y-122117476D01*
X86193854Y-122117476D02*
X86098616Y-122022238D01*
X86098616Y-122022238D02*
X85955759Y-121974619D01*
X85955759Y-121974619D02*
X85860521Y-121974619D01*
X85860521Y-121974619D02*
X85717664Y-122022238D01*
X85717664Y-122022238D02*
X85670045Y-122069857D01*
X85241473Y-122974619D02*
X85241473Y-121974619D01*
X84812902Y-122974619D02*
X84812902Y-122450809D01*
X84812902Y-122450809D02*
X84860521Y-122355571D01*
X84860521Y-122355571D02*
X84955759Y-122307952D01*
X84955759Y-122307952D02*
X85098616Y-122307952D01*
X85098616Y-122307952D02*
X85193854Y-122355571D01*
X85193854Y-122355571D02*
X85241473Y-122403190D01*
X84336711Y-122974619D02*
X84336711Y-122307952D01*
X84336711Y-122498428D02*
X84289092Y-122403190D01*
X84289092Y-122403190D02*
X84241473Y-122355571D01*
X84241473Y-122355571D02*
X84146235Y-122307952D01*
X84146235Y-122307952D02*
X84050997Y-122307952D01*
X83717663Y-122974619D02*
X83717663Y-122307952D01*
X83717663Y-121974619D02*
X83765282Y-122022238D01*
X83765282Y-122022238D02*
X83717663Y-122069857D01*
X83717663Y-122069857D02*
X83670044Y-122022238D01*
X83670044Y-122022238D02*
X83717663Y-121974619D01*
X83717663Y-121974619D02*
X83717663Y-122069857D01*
X83289092Y-122927000D02*
X83193854Y-122974619D01*
X83193854Y-122974619D02*
X83003378Y-122974619D01*
X83003378Y-122974619D02*
X82908140Y-122927000D01*
X82908140Y-122927000D02*
X82860521Y-122831761D01*
X82860521Y-122831761D02*
X82860521Y-122784142D01*
X82860521Y-122784142D02*
X82908140Y-122688904D01*
X82908140Y-122688904D02*
X83003378Y-122641285D01*
X83003378Y-122641285D02*
X83146235Y-122641285D01*
X83146235Y-122641285D02*
X83241473Y-122593666D01*
X83241473Y-122593666D02*
X83289092Y-122498428D01*
X83289092Y-122498428D02*
X83289092Y-122450809D01*
X83289092Y-122450809D02*
X83241473Y-122355571D01*
X83241473Y-122355571D02*
X83146235Y-122307952D01*
X83146235Y-122307952D02*
X83003378Y-122307952D01*
X83003378Y-122307952D02*
X82908140Y-122355571D01*
X82479568Y-122927000D02*
X82384330Y-122974619D01*
X82384330Y-122974619D02*
X82193854Y-122974619D01*
X82193854Y-122974619D02*
X82098616Y-122927000D01*
X82098616Y-122927000D02*
X82050997Y-122831761D01*
X82050997Y-122831761D02*
X82050997Y-122784142D01*
X82050997Y-122784142D02*
X82098616Y-122688904D01*
X82098616Y-122688904D02*
X82193854Y-122641285D01*
X82193854Y-122641285D02*
X82336711Y-122641285D01*
X82336711Y-122641285D02*
X82431949Y-122593666D01*
X82431949Y-122593666D02*
X82479568Y-122498428D01*
X82479568Y-122498428D02*
X82479568Y-122450809D01*
X82479568Y-122450809D02*
X82431949Y-122355571D01*
X82431949Y-122355571D02*
X82336711Y-122307952D01*
X82336711Y-122307952D02*
X82193854Y-122307952D01*
X82193854Y-122307952D02*
X82098616Y-122355571D01*
X81717663Y-122307952D02*
X81479568Y-122974619D01*
X81241473Y-122307952D02*
X81479568Y-122974619D01*
X81479568Y-122974619D02*
X81574806Y-123212714D01*
X81574806Y-123212714D02*
X81622425Y-123260333D01*
X81622425Y-123260333D02*
X81717663Y-123307952D01*
X79670044Y-122974619D02*
X79670044Y-122450809D01*
X79670044Y-122450809D02*
X79717663Y-122355571D01*
X79717663Y-122355571D02*
X79812901Y-122307952D01*
X79812901Y-122307952D02*
X80003377Y-122307952D01*
X80003377Y-122307952D02*
X80098615Y-122355571D01*
X79670044Y-122927000D02*
X79765282Y-122974619D01*
X79765282Y-122974619D02*
X80003377Y-122974619D01*
X80003377Y-122974619D02*
X80098615Y-122927000D01*
X80098615Y-122927000D02*
X80146234Y-122831761D01*
X80146234Y-122831761D02*
X80146234Y-122736523D01*
X80146234Y-122736523D02*
X80098615Y-122641285D01*
X80098615Y-122641285D02*
X80003377Y-122593666D01*
X80003377Y-122593666D02*
X79765282Y-122593666D01*
X79765282Y-122593666D02*
X79670044Y-122546047D01*
X79193853Y-122307952D02*
X79193853Y-122974619D01*
X79193853Y-122403190D02*
X79146234Y-122355571D01*
X79146234Y-122355571D02*
X79050996Y-122307952D01*
X79050996Y-122307952D02*
X78908139Y-122307952D01*
X78908139Y-122307952D02*
X78812901Y-122355571D01*
X78812901Y-122355571D02*
X78765282Y-122450809D01*
X78765282Y-122450809D02*
X78765282Y-122974619D01*
X77860520Y-122974619D02*
X77860520Y-121974619D01*
X77860520Y-122927000D02*
X77955758Y-122974619D01*
X77955758Y-122974619D02*
X78146234Y-122974619D01*
X78146234Y-122974619D02*
X78241472Y-122927000D01*
X78241472Y-122927000D02*
X78289091Y-122879380D01*
X78289091Y-122879380D02*
X78336710Y-122784142D01*
X78336710Y-122784142D02*
X78336710Y-122498428D01*
X78336710Y-122498428D02*
X78289091Y-122403190D01*
X78289091Y-122403190D02*
X78241472Y-122355571D01*
X78241472Y-122355571D02*
X78146234Y-122307952D01*
X78146234Y-122307952D02*
X77955758Y-122307952D01*
X77955758Y-122307952D02*
X77860520Y-122355571D01*
X76765281Y-121974619D02*
X76193853Y-121974619D01*
X76479567Y-122974619D02*
X76479567Y-121974619D01*
X75860519Y-122974619D02*
X75860519Y-121974619D01*
X75431948Y-122974619D02*
X75431948Y-122450809D01*
X75431948Y-122450809D02*
X75479567Y-122355571D01*
X75479567Y-122355571D02*
X75574805Y-122307952D01*
X75574805Y-122307952D02*
X75717662Y-122307952D01*
X75717662Y-122307952D02*
X75812900Y-122355571D01*
X75812900Y-122355571D02*
X75860519Y-122403190D01*
X74574805Y-122927000D02*
X74670043Y-122974619D01*
X74670043Y-122974619D02*
X74860519Y-122974619D01*
X74860519Y-122974619D02*
X74955757Y-122927000D01*
X74955757Y-122927000D02*
X75003376Y-122831761D01*
X75003376Y-122831761D02*
X75003376Y-122450809D01*
X75003376Y-122450809D02*
X74955757Y-122355571D01*
X74955757Y-122355571D02*
X74860519Y-122307952D01*
X74860519Y-122307952D02*
X74670043Y-122307952D01*
X74670043Y-122307952D02*
X74574805Y-122355571D01*
X74574805Y-122355571D02*
X74527186Y-122450809D01*
X74527186Y-122450809D02*
X74527186Y-122546047D01*
X74527186Y-122546047D02*
X75003376Y-122641285D01*
X73003376Y-122450809D02*
X72860519Y-122498428D01*
X72860519Y-122498428D02*
X72812900Y-122546047D01*
X72812900Y-122546047D02*
X72765281Y-122641285D01*
X72765281Y-122641285D02*
X72765281Y-122784142D01*
X72765281Y-122784142D02*
X72812900Y-122879380D01*
X72812900Y-122879380D02*
X72860519Y-122927000D01*
X72860519Y-122927000D02*
X72955757Y-122974619D01*
X72955757Y-122974619D02*
X73336709Y-122974619D01*
X73336709Y-122974619D02*
X73336709Y-121974619D01*
X73336709Y-121974619D02*
X73003376Y-121974619D01*
X73003376Y-121974619D02*
X72908138Y-122022238D01*
X72908138Y-122022238D02*
X72860519Y-122069857D01*
X72860519Y-122069857D02*
X72812900Y-122165095D01*
X72812900Y-122165095D02*
X72812900Y-122260333D01*
X72812900Y-122260333D02*
X72860519Y-122355571D01*
X72860519Y-122355571D02*
X72908138Y-122403190D01*
X72908138Y-122403190D02*
X73003376Y-122450809D01*
X73003376Y-122450809D02*
X73336709Y-122450809D01*
X72193852Y-122974619D02*
X72289090Y-122927000D01*
X72289090Y-122927000D02*
X72336709Y-122879380D01*
X72336709Y-122879380D02*
X72384328Y-122784142D01*
X72384328Y-122784142D02*
X72384328Y-122498428D01*
X72384328Y-122498428D02*
X72336709Y-122403190D01*
X72336709Y-122403190D02*
X72289090Y-122355571D01*
X72289090Y-122355571D02*
X72193852Y-122307952D01*
X72193852Y-122307952D02*
X72050995Y-122307952D01*
X72050995Y-122307952D02*
X71955757Y-122355571D01*
X71955757Y-122355571D02*
X71908138Y-122403190D01*
X71908138Y-122403190D02*
X71860519Y-122498428D01*
X71860519Y-122498428D02*
X71860519Y-122784142D01*
X71860519Y-122784142D02*
X71908138Y-122879380D01*
X71908138Y-122879380D02*
X71955757Y-122927000D01*
X71955757Y-122927000D02*
X72050995Y-122974619D01*
X72050995Y-122974619D02*
X72193852Y-122974619D01*
X71003376Y-122974619D02*
X71003376Y-122450809D01*
X71003376Y-122450809D02*
X71050995Y-122355571D01*
X71050995Y-122355571D02*
X71146233Y-122307952D01*
X71146233Y-122307952D02*
X71336709Y-122307952D01*
X71336709Y-122307952D02*
X71431947Y-122355571D01*
X71003376Y-122927000D02*
X71098614Y-122974619D01*
X71098614Y-122974619D02*
X71336709Y-122974619D01*
X71336709Y-122974619D02*
X71431947Y-122927000D01*
X71431947Y-122927000D02*
X71479566Y-122831761D01*
X71479566Y-122831761D02*
X71479566Y-122736523D01*
X71479566Y-122736523D02*
X71431947Y-122641285D01*
X71431947Y-122641285D02*
X71336709Y-122593666D01*
X71336709Y-122593666D02*
X71098614Y-122593666D01*
X71098614Y-122593666D02*
X71003376Y-122546047D01*
X70527185Y-122974619D02*
X70527185Y-122307952D01*
X70527185Y-122498428D02*
X70479566Y-122403190D01*
X70479566Y-122403190D02*
X70431947Y-122355571D01*
X70431947Y-122355571D02*
X70336709Y-122307952D01*
X70336709Y-122307952D02*
X70241471Y-122307952D01*
X69479566Y-122974619D02*
X69479566Y-121974619D01*
X69479566Y-122927000D02*
X69574804Y-122974619D01*
X69574804Y-122974619D02*
X69765280Y-122974619D01*
X69765280Y-122974619D02*
X69860518Y-122927000D01*
X69860518Y-122927000D02*
X69908137Y-122879380D01*
X69908137Y-122879380D02*
X69955756Y-122784142D01*
X69955756Y-122784142D02*
X69955756Y-122498428D01*
X69955756Y-122498428D02*
X69908137Y-122403190D01*
X69908137Y-122403190D02*
X69860518Y-122355571D01*
X69860518Y-122355571D02*
X69765280Y-122307952D01*
X69765280Y-122307952D02*
X69574804Y-122307952D01*
X69574804Y-122307952D02*
X69479566Y-122355571D01*
X67908137Y-122450809D02*
X68241470Y-122450809D01*
X68241470Y-122974619D02*
X68241470Y-121974619D01*
X68241470Y-121974619D02*
X67765280Y-121974619D01*
X67241470Y-122974619D02*
X67336708Y-122927000D01*
X67336708Y-122927000D02*
X67384327Y-122879380D01*
X67384327Y-122879380D02*
X67431946Y-122784142D01*
X67431946Y-122784142D02*
X67431946Y-122498428D01*
X67431946Y-122498428D02*
X67384327Y-122403190D01*
X67384327Y-122403190D02*
X67336708Y-122355571D01*
X67336708Y-122355571D02*
X67241470Y-122307952D01*
X67241470Y-122307952D02*
X67098613Y-122307952D01*
X67098613Y-122307952D02*
X67003375Y-122355571D01*
X67003375Y-122355571D02*
X66955756Y-122403190D01*
X66955756Y-122403190D02*
X66908137Y-122498428D01*
X66908137Y-122498428D02*
X66908137Y-122784142D01*
X66908137Y-122784142D02*
X66955756Y-122879380D01*
X66955756Y-122879380D02*
X67003375Y-122927000D01*
X67003375Y-122927000D02*
X67098613Y-122974619D01*
X67098613Y-122974619D02*
X67241470Y-122974619D01*
X66336708Y-122974619D02*
X66431946Y-122927000D01*
X66431946Y-122927000D02*
X66479565Y-122831761D01*
X66479565Y-122831761D02*
X66479565Y-121974619D01*
X65955755Y-122974619D02*
X65955755Y-121974619D01*
X65860517Y-122593666D02*
X65574803Y-122974619D01*
X65574803Y-122307952D02*
X65955755Y-122688904D01*
X64527183Y-121974619D02*
X63955755Y-121974619D01*
X64241469Y-122974619D02*
X64241469Y-121974619D01*
X63241469Y-122927000D02*
X63336707Y-122974619D01*
X63336707Y-122974619D02*
X63527183Y-122974619D01*
X63527183Y-122974619D02*
X63622421Y-122927000D01*
X63622421Y-122927000D02*
X63670040Y-122831761D01*
X63670040Y-122831761D02*
X63670040Y-122450809D01*
X63670040Y-122450809D02*
X63622421Y-122355571D01*
X63622421Y-122355571D02*
X63527183Y-122307952D01*
X63527183Y-122307952D02*
X63336707Y-122307952D01*
X63336707Y-122307952D02*
X63241469Y-122355571D01*
X63241469Y-122355571D02*
X63193850Y-122450809D01*
X63193850Y-122450809D02*
X63193850Y-122546047D01*
X63193850Y-122546047D02*
X63670040Y-122641285D01*
X62336707Y-122974619D02*
X62336707Y-122450809D01*
X62336707Y-122450809D02*
X62384326Y-122355571D01*
X62384326Y-122355571D02*
X62479564Y-122307952D01*
X62479564Y-122307952D02*
X62670040Y-122307952D01*
X62670040Y-122307952D02*
X62765278Y-122355571D01*
X62336707Y-122927000D02*
X62431945Y-122974619D01*
X62431945Y-122974619D02*
X62670040Y-122974619D01*
X62670040Y-122974619D02*
X62765278Y-122927000D01*
X62765278Y-122927000D02*
X62812897Y-122831761D01*
X62812897Y-122831761D02*
X62812897Y-122736523D01*
X62812897Y-122736523D02*
X62765278Y-122641285D01*
X62765278Y-122641285D02*
X62670040Y-122593666D01*
X62670040Y-122593666D02*
X62431945Y-122593666D01*
X62431945Y-122593666D02*
X62336707Y-122546047D01*
X61860516Y-122974619D02*
X61860516Y-122307952D01*
X61860516Y-122403190D02*
X61812897Y-122355571D01*
X61812897Y-122355571D02*
X61717659Y-122307952D01*
X61717659Y-122307952D02*
X61574802Y-122307952D01*
X61574802Y-122307952D02*
X61479564Y-122355571D01*
X61479564Y-122355571D02*
X61431945Y-122450809D01*
X61431945Y-122450809D02*
X61431945Y-122974619D01*
X61431945Y-122450809D02*
X61384326Y-122355571D01*
X61384326Y-122355571D02*
X61289088Y-122307952D01*
X61289088Y-122307952D02*
X61146231Y-122307952D01*
X61146231Y-122307952D02*
X61050992Y-122355571D01*
X61050992Y-122355571D02*
X61003373Y-122450809D01*
X61003373Y-122450809D02*
X61003373Y-122974619D01*
X60527183Y-122879380D02*
X60479564Y-122927000D01*
X60479564Y-122927000D02*
X60527183Y-122974619D01*
X60527183Y-122974619D02*
X60574802Y-122927000D01*
X60574802Y-122927000D02*
X60527183Y-122879380D01*
X60527183Y-122879380D02*
X60527183Y-122974619D01*
M02*
