%TF.GenerationSoftware,KiCad,Pcbnew,7.0.7*%
%TF.CreationDate,2023-10-18T23:04:21+01:00*%
%TF.ProjectId,CPC464-2MINIRS232C,43504334-3634-42d3-924d-494e49525332,rev?*%
%TF.SameCoordinates,Original*%
%TF.FileFunction,Soldermask,Top*%
%TF.FilePolarity,Negative*%
%FSLAX46Y46*%
G04 Gerber Fmt 4.6, Leading zero omitted, Abs format (unit mm)*
G04 Created by KiCad (PCBNEW 7.0.7) date 2023-10-18 23:04:21*
%MOMM*%
%LPD*%
G01*
G04 APERTURE LIST*
G04 Aperture macros list*
%AMRoundRect*
0 Rectangle with rounded corners*
0 $1 Rounding radius*
0 $2 $3 $4 $5 $6 $7 $8 $9 X,Y pos of 4 corners*
0 Add a 4 corners polygon primitive as box body*
4,1,4,$2,$3,$4,$5,$6,$7,$8,$9,$2,$3,0*
0 Add four circle primitives for the rounded corners*
1,1,$1+$1,$2,$3*
1,1,$1+$1,$4,$5*
1,1,$1+$1,$6,$7*
1,1,$1+$1,$8,$9*
0 Add four rect primitives between the rounded corners*
20,1,$1+$1,$2,$3,$4,$5,0*
20,1,$1+$1,$4,$5,$6,$7,0*
20,1,$1+$1,$6,$7,$8,$9,0*
20,1,$1+$1,$8,$9,$2,$3,0*%
G04 Aperture macros list end*
%ADD10RoundRect,0.250000X0.262500X0.450000X-0.262500X0.450000X-0.262500X-0.450000X0.262500X-0.450000X0*%
%ADD11C,4.500000*%
%ADD12C,4.000000*%
%ADD13R,1.600000X1.600000*%
%ADD14C,1.600000*%
%ADD15RoundRect,0.250000X0.600000X-0.600000X0.600000X0.600000X-0.600000X0.600000X-0.600000X-0.600000X0*%
%ADD16C,1.700000*%
%ADD17R,0.900000X1.200000*%
%ADD18RoundRect,0.250000X-0.475000X0.250000X-0.475000X-0.250000X0.475000X-0.250000X0.475000X0.250000X0*%
%ADD19RoundRect,0.150000X0.150000X-0.825000X0.150000X0.825000X-0.150000X0.825000X-0.150000X-0.825000X0*%
%ADD20RoundRect,0.250000X-0.262500X-0.450000X0.262500X-0.450000X0.262500X0.450000X-0.262500X0.450000X0*%
%ADD21O,1.600000X1.600000*%
%ADD22RoundRect,0.250000X-0.250000X-0.475000X0.250000X-0.475000X0.250000X0.475000X-0.250000X0.475000X0*%
%ADD23RoundRect,0.150000X0.150000X-0.875000X0.150000X0.875000X-0.150000X0.875000X-0.150000X-0.875000X0*%
%ADD24RoundRect,0.250000X-0.375000X-0.625000X0.375000X-0.625000X0.375000X0.625000X-0.375000X0.625000X0*%
G04 APERTURE END LIST*
D10*
%TO.C,R508*%
X73862500Y-102700000D03*
X72037500Y-102700000D03*
%TD*%
D11*
%TO.C,H7*%
X75411000Y-93930000D03*
%TD*%
D12*
%TO.C,PL505*%
X41964200Y-35286100D03*
X66964200Y-35286100D03*
D13*
X60004200Y-36706100D03*
D14*
X57234200Y-36706100D03*
X54464200Y-36706100D03*
X51694200Y-36706100D03*
X48924200Y-36706100D03*
X58619200Y-33866100D03*
X55849200Y-33866100D03*
X53079200Y-33866100D03*
X50309200Y-33866100D03*
%TD*%
D15*
%TO.C,CE1050*%
X41380000Y-45040000D03*
D16*
X41380000Y-42500000D03*
X43920000Y-45040000D03*
X43920000Y-42500000D03*
X46460000Y-45040000D03*
X46460000Y-42500000D03*
X49000000Y-45040000D03*
X49000000Y-42500000D03*
X51540000Y-45040000D03*
X51540000Y-42500000D03*
X54080000Y-45040000D03*
X54080000Y-42500000D03*
X56620000Y-45040000D03*
X56620000Y-42500000D03*
X59160000Y-45040000D03*
X59160000Y-42500000D03*
X61700000Y-45040000D03*
X61700000Y-42500000D03*
X64240000Y-45040000D03*
X64240000Y-42500000D03*
X66780000Y-45040000D03*
X66780000Y-42500000D03*
X69320000Y-45040000D03*
X69320000Y-42500000D03*
X71860000Y-45040000D03*
X71860000Y-42500000D03*
X74400000Y-45040000D03*
X74400000Y-42500000D03*
X76940000Y-45040000D03*
X76940000Y-42500000D03*
X79480000Y-45040000D03*
X79480000Y-42500000D03*
X82020000Y-45040000D03*
X82020000Y-42500000D03*
X84560000Y-45040000D03*
X84560000Y-42500000D03*
X87100000Y-45040000D03*
X87100000Y-42500000D03*
X89640000Y-45040000D03*
X89640000Y-42500000D03*
X92180000Y-45040000D03*
X92180000Y-42500000D03*
X94720000Y-45040000D03*
X94720000Y-42500000D03*
X97260000Y-45040000D03*
X97260000Y-42500000D03*
X99800000Y-45040000D03*
X99800000Y-42500000D03*
X102340000Y-45040000D03*
X102340000Y-42500000D03*
%TD*%
D17*
%TO.C,D501*%
X92400000Y-76450000D03*
X95700000Y-76450000D03*
%TD*%
D13*
%TO.C,C513*%
X44744900Y-91225000D03*
D14*
X46744900Y-91225000D03*
%TD*%
D11*
%TO.C,H1*%
X31977000Y-43130000D03*
%TD*%
D18*
%TO.C,C505*%
X106285000Y-83025000D03*
X106285000Y-84925000D03*
%TD*%
D19*
%TO.C,IC508*%
X72500000Y-83950000D03*
X73770000Y-83950000D03*
X75040000Y-83950000D03*
X76310000Y-83950000D03*
X77580000Y-83950000D03*
X78850000Y-83950000D03*
X80120000Y-83950000D03*
X80120000Y-88900000D03*
X78850000Y-88900000D03*
X77580000Y-88900000D03*
X76310000Y-88900000D03*
X75040000Y-88900000D03*
X73770000Y-88900000D03*
X72500000Y-88900000D03*
%TD*%
D20*
%TO.C,R501*%
X107712500Y-76450000D03*
X109537500Y-76450000D03*
%TD*%
D18*
%TO.C,C503*%
X106050000Y-67475000D03*
X106050000Y-69375000D03*
%TD*%
D19*
%TO.C,IC502*%
X94130000Y-86450000D03*
X95400000Y-86450000D03*
X96670000Y-86450000D03*
X97940000Y-86450000D03*
X99210000Y-86450000D03*
X100480000Y-86450000D03*
X101750000Y-86450000D03*
X103020000Y-86450000D03*
X103020000Y-81500000D03*
X101750000Y-81500000D03*
X100480000Y-81500000D03*
X99210000Y-81500000D03*
X97940000Y-81500000D03*
X96670000Y-81500000D03*
X95400000Y-81500000D03*
X94130000Y-81500000D03*
%TD*%
D10*
%TO.C,R1050*%
X114912500Y-116450000D03*
X113087500Y-116450000D03*
%TD*%
D20*
%TO.C,R504*%
X112787500Y-76450000D03*
X114612500Y-76450000D03*
%TD*%
D10*
%TO.C,R507*%
X73962500Y-98850000D03*
X72137500Y-98850000D03*
%TD*%
D18*
%TO.C,C504*%
X90860000Y-83025000D03*
X90860000Y-84925000D03*
%TD*%
D14*
%TO.C,LK503*%
X68800000Y-102700000D03*
X63800000Y-102700000D03*
%TD*%
D20*
%TO.C,R505*%
X98112500Y-76450000D03*
X99937500Y-76450000D03*
%TD*%
D18*
%TO.C,C506*%
X85470000Y-95340000D03*
X85470000Y-97240000D03*
%TD*%
%TO.C,C508*%
X49400000Y-78650000D03*
X49400000Y-80550000D03*
%TD*%
D20*
%TO.C,R503*%
X64800000Y-84625000D03*
X66625000Y-84625000D03*
%TD*%
D13*
%TO.C,C512*%
X46655100Y-68825000D03*
D14*
X44655100Y-68825000D03*
%TD*%
D15*
%TO.C,CE1051*%
X41380000Y-56587500D03*
D16*
X41380000Y-54047500D03*
X43920000Y-56587500D03*
X43920000Y-54047500D03*
X46460000Y-56587500D03*
X46460000Y-54047500D03*
X49000000Y-56587500D03*
X49000000Y-54047500D03*
X51540000Y-56587500D03*
X51540000Y-54047500D03*
X54080000Y-56587500D03*
X54080000Y-54047500D03*
X56620000Y-56587500D03*
X56620000Y-54047500D03*
X59160000Y-56587500D03*
X59160000Y-54047500D03*
X61700000Y-56587500D03*
X61700000Y-54047500D03*
X64240000Y-56587500D03*
X64240000Y-54047500D03*
X66780000Y-56587500D03*
X66780000Y-54047500D03*
X69320000Y-56587500D03*
X69320000Y-54047500D03*
X71860000Y-56587500D03*
X71860000Y-54047500D03*
X74400000Y-56587500D03*
X74400000Y-54047500D03*
X76940000Y-56587500D03*
X76940000Y-54047500D03*
X79480000Y-56587500D03*
X79480000Y-54047500D03*
X82020000Y-56587500D03*
X82020000Y-54047500D03*
X84560000Y-56587500D03*
X84560000Y-54047500D03*
X87100000Y-56587500D03*
X87100000Y-54047500D03*
X89640000Y-56587500D03*
X89640000Y-54047500D03*
X92180000Y-56587500D03*
X92180000Y-54047500D03*
X94720000Y-56587500D03*
X94720000Y-54047500D03*
X97260000Y-56587500D03*
X97260000Y-54047500D03*
X99800000Y-56587500D03*
X99800000Y-54047500D03*
X102340000Y-56587500D03*
X102340000Y-54047500D03*
%TD*%
D18*
%TO.C,C507*%
X69000000Y-85475000D03*
X69000000Y-87375000D03*
%TD*%
%TO.C,C502*%
X91625000Y-67475000D03*
X91625000Y-69375000D03*
%TD*%
D13*
%TO.C,IC505*%
X31625000Y-120550000D03*
D21*
X34165000Y-120550000D03*
X36705000Y-120550000D03*
X39245000Y-120550000D03*
X41785000Y-120550000D03*
X44325000Y-120550000D03*
X46865000Y-120550000D03*
X49405000Y-120550000D03*
X51945000Y-120550000D03*
X54485000Y-120550000D03*
X57025000Y-120550000D03*
X59565000Y-120550000D03*
X62105000Y-120550000D03*
X64645000Y-120550000D03*
X67185000Y-120550000D03*
X69725000Y-120550000D03*
X72265000Y-120550000D03*
X74805000Y-120550000D03*
X77345000Y-120550000D03*
X79885000Y-120550000D03*
X79885000Y-105310000D03*
X77345000Y-105310000D03*
X74805000Y-105310000D03*
X72265000Y-105310000D03*
X69725000Y-105310000D03*
X67185000Y-105310000D03*
X64645000Y-105310000D03*
X62105000Y-105310000D03*
X59565000Y-105310000D03*
X57025000Y-105310000D03*
X54485000Y-105310000D03*
X51945000Y-105310000D03*
X49405000Y-105310000D03*
X46865000Y-105310000D03*
X44325000Y-105310000D03*
X41785000Y-105310000D03*
X39245000Y-105310000D03*
X36705000Y-105310000D03*
X34165000Y-105310000D03*
X31625000Y-105310000D03*
%TD*%
D20*
%TO.C,R502*%
X110262500Y-90850000D03*
X112087500Y-90850000D03*
%TD*%
D19*
%TO.C,IC503*%
X109555000Y-70900000D03*
X110825000Y-70900000D03*
X112095000Y-70900000D03*
X113365000Y-70900000D03*
X114635000Y-70900000D03*
X115905000Y-70900000D03*
X117175000Y-70900000D03*
X117175000Y-65950000D03*
X115905000Y-65950000D03*
X114635000Y-65950000D03*
X113365000Y-65950000D03*
X112095000Y-65950000D03*
X110825000Y-65950000D03*
X109555000Y-65950000D03*
%TD*%
D13*
%TO.C,IC501*%
X54460000Y-79975000D03*
D21*
X57000000Y-79975000D03*
X59540000Y-79975000D03*
X62080000Y-79975000D03*
X64620000Y-79975000D03*
X67160000Y-79975000D03*
X69700000Y-79975000D03*
X72240000Y-79975000D03*
X74780000Y-79975000D03*
X77320000Y-79975000D03*
X79860000Y-79975000D03*
X82400000Y-79975000D03*
X84940000Y-79975000D03*
X87480000Y-79975000D03*
X87480000Y-64735000D03*
X84940000Y-64735000D03*
X82400000Y-64735000D03*
X79860000Y-64735000D03*
X77320000Y-64735000D03*
X74780000Y-64735000D03*
X72240000Y-64735000D03*
X69700000Y-64735000D03*
X67160000Y-64735000D03*
X64620000Y-64735000D03*
X62080000Y-64735000D03*
X59540000Y-64735000D03*
X57000000Y-64735000D03*
X54460000Y-64735000D03*
%TD*%
D13*
%TO.C,C1051*%
X114633600Y-44542800D03*
D14*
X114633600Y-42042800D03*
%TD*%
D22*
%TO.C,C1050*%
X113700000Y-49475800D03*
X115600000Y-49475800D03*
%TD*%
D19*
%TO.C,IC506*%
X109555000Y-86450000D03*
X110825000Y-86450000D03*
X112095000Y-86450000D03*
X113365000Y-86450000D03*
X114635000Y-86450000D03*
X115905000Y-86450000D03*
X117175000Y-86450000D03*
X117175000Y-81500000D03*
X115905000Y-81500000D03*
X114635000Y-81500000D03*
X113365000Y-81500000D03*
X112095000Y-81500000D03*
X110825000Y-81500000D03*
X109555000Y-81500000D03*
%TD*%
D13*
%TO.C,IC504*%
X88265000Y-109090000D03*
D21*
X90805000Y-109090000D03*
X93345000Y-109090000D03*
X95885000Y-109090000D03*
X98425000Y-109090000D03*
X100965000Y-109090000D03*
X103505000Y-109090000D03*
X106045000Y-109090000D03*
X108585000Y-109090000D03*
X111125000Y-109090000D03*
X113665000Y-109090000D03*
X116205000Y-109090000D03*
X116205000Y-93850000D03*
X113665000Y-93850000D03*
X111125000Y-93850000D03*
X108585000Y-93850000D03*
X106045000Y-93850000D03*
X103505000Y-93850000D03*
X100965000Y-93850000D03*
X98425000Y-93850000D03*
X95885000Y-93850000D03*
X93345000Y-93850000D03*
X90805000Y-93850000D03*
X88265000Y-93850000D03*
%TD*%
D13*
%TO.C,C515*%
X39330000Y-91200000D03*
D14*
X37330000Y-91200000D03*
%TD*%
D23*
%TO.C,IC510*%
X32065000Y-84250000D03*
X33335000Y-84250000D03*
X34605000Y-84250000D03*
X35875000Y-84250000D03*
X37145000Y-84250000D03*
X38415000Y-84250000D03*
X39685000Y-84250000D03*
X40955000Y-84250000D03*
X42225000Y-84250000D03*
X43495000Y-84250000D03*
X44765000Y-84250000D03*
X46035000Y-84250000D03*
X46035000Y-74950000D03*
X44765000Y-74950000D03*
X43495000Y-74950000D03*
X42225000Y-74950000D03*
X40955000Y-74950000D03*
X39685000Y-74950000D03*
X38415000Y-74950000D03*
X37145000Y-74950000D03*
X35875000Y-74950000D03*
X34605000Y-74950000D03*
X33335000Y-74950000D03*
X32065000Y-74950000D03*
%TD*%
D14*
%TO.C,LK502*%
X68800000Y-99100000D03*
X63800000Y-99100000D03*
%TD*%
D13*
%TO.C,C514*%
X39330000Y-68825000D03*
D14*
X37330000Y-68825000D03*
%TD*%
D19*
%TO.C,IC507*%
X94860000Y-70900000D03*
X96130000Y-70900000D03*
X97400000Y-70900000D03*
X98670000Y-70900000D03*
X99940000Y-70900000D03*
X101210000Y-70900000D03*
X102480000Y-70900000D03*
X102480000Y-65950000D03*
X101210000Y-65950000D03*
X99940000Y-65950000D03*
X98670000Y-65950000D03*
X97400000Y-65950000D03*
X96130000Y-65950000D03*
X94860000Y-65950000D03*
%TD*%
D14*
%TO.C,LK501*%
X68800000Y-95525000D03*
X63800000Y-95525000D03*
%TD*%
D20*
%TO.C,R506*%
X64737500Y-88825000D03*
X66562500Y-88825000D03*
%TD*%
D24*
%TO.C,D1050*%
X112600000Y-119925000D03*
X115400000Y-119925000D03*
%TD*%
M02*
