%TF.GenerationSoftware,KiCad,Pcbnew,7.0.7*%
%TF.CreationDate,2023-10-18T23:04:21+01:00*%
%TF.ProjectId,CPC464-2MINIRS232C,43504334-3634-42d3-924d-494e49525332,rev?*%
%TF.SameCoordinates,Original*%
%TF.FileFunction,Paste,Top*%
%TF.FilePolarity,Positive*%
%FSLAX46Y46*%
G04 Gerber Fmt 4.6, Leading zero omitted, Abs format (unit mm)*
G04 Created by KiCad (PCBNEW 7.0.7) date 2023-10-18 23:04:21*
%MOMM*%
%LPD*%
G01*
G04 APERTURE LIST*
G04 Aperture macros list*
%AMRoundRect*
0 Rectangle with rounded corners*
0 $1 Rounding radius*
0 $2 $3 $4 $5 $6 $7 $8 $9 X,Y pos of 4 corners*
0 Add a 4 corners polygon primitive as box body*
4,1,4,$2,$3,$4,$5,$6,$7,$8,$9,$2,$3,0*
0 Add four circle primitives for the rounded corners*
1,1,$1+$1,$2,$3*
1,1,$1+$1,$4,$5*
1,1,$1+$1,$6,$7*
1,1,$1+$1,$8,$9*
0 Add four rect primitives between the rounded corners*
20,1,$1+$1,$2,$3,$4,$5,0*
20,1,$1+$1,$4,$5,$6,$7,0*
20,1,$1+$1,$6,$7,$8,$9,0*
20,1,$1+$1,$8,$9,$2,$3,0*%
G04 Aperture macros list end*
%ADD10RoundRect,0.250000X0.262500X0.450000X-0.262500X0.450000X-0.262500X-0.450000X0.262500X-0.450000X0*%
%ADD11R,0.900000X1.200000*%
%ADD12RoundRect,0.250000X-0.475000X0.250000X-0.475000X-0.250000X0.475000X-0.250000X0.475000X0.250000X0*%
%ADD13RoundRect,0.150000X0.150000X-0.825000X0.150000X0.825000X-0.150000X0.825000X-0.150000X-0.825000X0*%
%ADD14RoundRect,0.250000X-0.262500X-0.450000X0.262500X-0.450000X0.262500X0.450000X-0.262500X0.450000X0*%
%ADD15RoundRect,0.250000X-0.250000X-0.475000X0.250000X-0.475000X0.250000X0.475000X-0.250000X0.475000X0*%
%ADD16RoundRect,0.150000X0.150000X-0.875000X0.150000X0.875000X-0.150000X0.875000X-0.150000X-0.875000X0*%
%ADD17RoundRect,0.250000X-0.375000X-0.625000X0.375000X-0.625000X0.375000X0.625000X-0.375000X0.625000X0*%
G04 APERTURE END LIST*
D10*
%TO.C,R508*%
X73862500Y-102700000D03*
X72037500Y-102700000D03*
%TD*%
D11*
%TO.C,D501*%
X92400000Y-76450000D03*
X95700000Y-76450000D03*
%TD*%
D12*
%TO.C,C505*%
X106285000Y-83025000D03*
X106285000Y-84925000D03*
%TD*%
D13*
%TO.C,IC508*%
X72500000Y-83950000D03*
X73770000Y-83950000D03*
X75040000Y-83950000D03*
X76310000Y-83950000D03*
X77580000Y-83950000D03*
X78850000Y-83950000D03*
X80120000Y-83950000D03*
X80120000Y-88900000D03*
X78850000Y-88900000D03*
X77580000Y-88900000D03*
X76310000Y-88900000D03*
X75040000Y-88900000D03*
X73770000Y-88900000D03*
X72500000Y-88900000D03*
%TD*%
D14*
%TO.C,R501*%
X107712500Y-76450000D03*
X109537500Y-76450000D03*
%TD*%
D12*
%TO.C,C503*%
X106050000Y-67475000D03*
X106050000Y-69375000D03*
%TD*%
D13*
%TO.C,IC502*%
X94130000Y-86450000D03*
X95400000Y-86450000D03*
X96670000Y-86450000D03*
X97940000Y-86450000D03*
X99210000Y-86450000D03*
X100480000Y-86450000D03*
X101750000Y-86450000D03*
X103020000Y-86450000D03*
X103020000Y-81500000D03*
X101750000Y-81500000D03*
X100480000Y-81500000D03*
X99210000Y-81500000D03*
X97940000Y-81500000D03*
X96670000Y-81500000D03*
X95400000Y-81500000D03*
X94130000Y-81500000D03*
%TD*%
D10*
%TO.C,R1050*%
X114912500Y-116450000D03*
X113087500Y-116450000D03*
%TD*%
D14*
%TO.C,R504*%
X112787500Y-76450000D03*
X114612500Y-76450000D03*
%TD*%
D10*
%TO.C,R507*%
X73962500Y-98850000D03*
X72137500Y-98850000D03*
%TD*%
D12*
%TO.C,C504*%
X90860000Y-83025000D03*
X90860000Y-84925000D03*
%TD*%
D14*
%TO.C,R505*%
X98112500Y-76450000D03*
X99937500Y-76450000D03*
%TD*%
D12*
%TO.C,C506*%
X85470000Y-95340000D03*
X85470000Y-97240000D03*
%TD*%
%TO.C,C508*%
X49400000Y-78650000D03*
X49400000Y-80550000D03*
%TD*%
D14*
%TO.C,R503*%
X64800000Y-84625000D03*
X66625000Y-84625000D03*
%TD*%
D12*
%TO.C,C507*%
X69000000Y-85475000D03*
X69000000Y-87375000D03*
%TD*%
%TO.C,C502*%
X91625000Y-67475000D03*
X91625000Y-69375000D03*
%TD*%
D14*
%TO.C,R502*%
X110262500Y-90850000D03*
X112087500Y-90850000D03*
%TD*%
D13*
%TO.C,IC503*%
X109555000Y-70900000D03*
X110825000Y-70900000D03*
X112095000Y-70900000D03*
X113365000Y-70900000D03*
X114635000Y-70900000D03*
X115905000Y-70900000D03*
X117175000Y-70900000D03*
X117175000Y-65950000D03*
X115905000Y-65950000D03*
X114635000Y-65950000D03*
X113365000Y-65950000D03*
X112095000Y-65950000D03*
X110825000Y-65950000D03*
X109555000Y-65950000D03*
%TD*%
D15*
%TO.C,C1050*%
X113700000Y-49475800D03*
X115600000Y-49475800D03*
%TD*%
D13*
%TO.C,IC506*%
X109555000Y-86450000D03*
X110825000Y-86450000D03*
X112095000Y-86450000D03*
X113365000Y-86450000D03*
X114635000Y-86450000D03*
X115905000Y-86450000D03*
X117175000Y-86450000D03*
X117175000Y-81500000D03*
X115905000Y-81500000D03*
X114635000Y-81500000D03*
X113365000Y-81500000D03*
X112095000Y-81500000D03*
X110825000Y-81500000D03*
X109555000Y-81500000D03*
%TD*%
D16*
%TO.C,IC510*%
X32065000Y-84250000D03*
X33335000Y-84250000D03*
X34605000Y-84250000D03*
X35875000Y-84250000D03*
X37145000Y-84250000D03*
X38415000Y-84250000D03*
X39685000Y-84250000D03*
X40955000Y-84250000D03*
X42225000Y-84250000D03*
X43495000Y-84250000D03*
X44765000Y-84250000D03*
X46035000Y-84250000D03*
X46035000Y-74950000D03*
X44765000Y-74950000D03*
X43495000Y-74950000D03*
X42225000Y-74950000D03*
X40955000Y-74950000D03*
X39685000Y-74950000D03*
X38415000Y-74950000D03*
X37145000Y-74950000D03*
X35875000Y-74950000D03*
X34605000Y-74950000D03*
X33335000Y-74950000D03*
X32065000Y-74950000D03*
%TD*%
D13*
%TO.C,IC507*%
X94860000Y-70900000D03*
X96130000Y-70900000D03*
X97400000Y-70900000D03*
X98670000Y-70900000D03*
X99940000Y-70900000D03*
X101210000Y-70900000D03*
X102480000Y-70900000D03*
X102480000Y-65950000D03*
X101210000Y-65950000D03*
X99940000Y-65950000D03*
X98670000Y-65950000D03*
X97400000Y-65950000D03*
X96130000Y-65950000D03*
X94860000Y-65950000D03*
%TD*%
D14*
%TO.C,R506*%
X64737500Y-88825000D03*
X66562500Y-88825000D03*
%TD*%
D17*
%TO.C,D1050*%
X112600000Y-119925000D03*
X115400000Y-119925000D03*
%TD*%
M02*
