M48
; DRILL file {KiCad 7.0.7} date Wed Oct 18 23:03:52 2023
; FORMAT={-:-/ absolute / inch / decimal}
; #@! TF.CreationDate,2023-10-18T23:03:52+01:00
; #@! TF.GenerationSoftware,Kicad,Pcbnew,7.0.7
; #@! TF.FileFunction,Plated,1,2,PTH
FMAT,2
INCH
; #@! TA.AperFunction,Plated,PTH,ViaDrill
T1C0.0157
; #@! TA.AperFunction,Plated,PTH,ComponentDrill
T2C0.0315
; #@! TA.AperFunction,Plated,PTH,ComponentDrill
T3C0.0394
; #@! TA.AperFunction,Plated,PTH,ComponentDrill
T4C0.1063
; #@! TA.AperFunction,Plated,PTH,ComponentDrill
T5C0.1260
%
G90
G05
T1
X1.1842Y-2.7608
X1.2042Y-3.5906
X1.2195Y-2.9439
X1.2274Y-2.7943
X1.2274Y-3.3219
X1.2652Y-2.7834
X1.3039Y-2.7764
X1.313Y-3.2382
X1.3284Y-4.2999
X1.3632Y-2.7844
X1.4095Y-3.2436
X1.5124Y-3.0533
X1.564Y-3.2421
X1.5824Y-3.9141
X1.6022Y-3.11
X1.6124Y-3.0407
X1.6634Y-2.874
X1.6931Y-4.4202
X1.7131Y-4.2767
X1.7829Y-3.6958
X1.8917Y-2.2716
X1.9001Y-2.4898
X1.9142Y-4.3064
X1.998Y-3.9407
X2.0221Y-4.4168
X2.06Y-2.3061
X2.0824Y-2.3399
X2.1289Y-4.5951
X2.2235Y-2.8063
X2.2441Y-2.4173
X2.2618Y-2.2874
X2.2884Y-2.4173
X2.3033Y-3.3363
X2.3563Y-2.2884
X2.3651Y-3.426
X2.3784Y-2.7144
X2.4121Y-2.6806
X2.4347Y-2.6425
X2.6028Y-2.3283
X2.6841Y-3.498
X2.6949Y-2.3051
X2.7264Y-2.3468
X2.8731Y-3.7647
X2.8829Y-3.2535
X2.8947Y-2.61
X2.9091Y-3.5973
X2.9366Y-3.3765
X2.972Y-3.5621
X3.0101Y-3.2376
X3.0379Y-3.5621
X3.0852Y-3.5628
X3.0941Y-2.7886
X3.1516Y-2.9608
X3.1695Y-2.3277
X3.1887Y-3.04
X3.2293Y-2.4469
X3.3097Y-3.2036
X3.3528Y-4.3064
X3.4303Y-3.7748
X3.4554Y-2.6944
X3.4567Y-3.3543
X3.4581Y-3.8794
X3.4848Y-3.0716
X3.4951Y-4.2125
X3.4955Y-2.7013
X3.5341Y-2.6586
X3.591Y-3.4211
X3.5997Y-3.9144
X3.6534Y-2.6176
X3.6628Y-3.9344
X3.6697Y-3.3755
X3.6717Y-3.1075
X3.6972Y-2.8627
X3.6982Y-2.77
X3.7264Y-2.9608
X3.7666Y-2.8658
X3.7831Y-3.4622
X3.8317Y-3.4622
X3.8486Y-3.1249
X3.8713Y-3.4769
X3.8992Y-2.5108
X3.9215Y-2.8767
X3.9481Y-4.3461
X3.9578Y-2.5388
X3.9597Y-3.1466
X4.0707Y-2.5993
X4.0868Y-2.8581
X4.275Y-3.8938
X4.2767Y-2.7812
X4.3531Y-3.4657
X4.3676Y-3.1463
X4.369Y-2.5337
X4.435Y-4.802
X4.4383Y-2.8475
X4.4539Y-3.4657
X4.4681Y-3.5326
X4.4693Y-2.5336
X4.4737Y-2.9571
X4.4821Y-2.8529
X4.5078Y-3.1463
X4.5103Y-2.534
X4.5576Y-2.8944
X4.6663Y-3.4803
X4.6683Y-2.8671
T2
X1.2451Y-4.1461
X1.2451Y-4.7461
X1.3451Y-4.1461
X1.3451Y-4.7461
X1.4451Y-4.1461
X1.4451Y-4.7461
X1.4697Y-2.7096
X1.4697Y-3.5906
X1.5451Y-4.1461
X1.5451Y-4.7461
X1.5484Y-2.7096
X1.5484Y-3.5906
X1.6451Y-4.1461
X1.6451Y-4.7461
X1.7451Y-4.1461
X1.7451Y-4.7461
X1.7581Y-2.7096
X1.7616Y-3.5915
X1.8368Y-2.7096
X1.8404Y-3.5915
X1.8451Y-4.1461
X1.8451Y-4.7461
X1.9451Y-4.1461
X1.9451Y-4.7461
X2.0451Y-4.1461
X2.0451Y-4.7461
X2.1441Y-2.5486
X2.1441Y-3.1486
X2.1451Y-4.1461
X2.1451Y-4.7461
X2.2441Y-2.5486
X2.2441Y-3.1486
X2.2451Y-4.1461
X2.2451Y-4.7461
X2.3441Y-2.5486
X2.3441Y-3.1486
X2.3451Y-4.1461
X2.3451Y-4.7461
X2.4441Y-2.5486
X2.4441Y-3.1486
X2.4451Y-4.1461
X2.4451Y-4.7461
X2.5118Y-3.7608
X2.5118Y-3.9016
X2.5118Y-4.0433
X2.5441Y-2.5486
X2.5441Y-3.1486
X2.5451Y-4.1461
X2.5451Y-4.7461
X2.6441Y-2.5486
X2.6441Y-3.1486
X2.6451Y-4.1461
X2.6451Y-4.7461
X2.7087Y-3.7608
X2.7087Y-3.9016
X2.7087Y-4.0433
X2.7441Y-2.5486
X2.7441Y-3.1486
X2.7451Y-4.1461
X2.7451Y-4.7461
X2.8441Y-2.5486
X2.8441Y-3.1486
X2.8451Y-4.1461
X2.8451Y-4.7461
X2.9441Y-2.5486
X2.9441Y-3.1486
X2.9451Y-4.1461
X2.9451Y-4.7461
X3.0441Y-2.5486
X3.0441Y-3.1486
X3.0451Y-4.1461
X3.0451Y-4.7461
X3.1441Y-2.5486
X3.1441Y-3.1486
X3.1451Y-4.1461
X3.1451Y-4.7461
X3.2441Y-2.5486
X3.2441Y-3.1486
X3.3441Y-2.5486
X3.3441Y-3.1486
X3.4441Y-2.5486
X3.4441Y-3.1486
X3.475Y-3.6949
X3.475Y-4.2949
X3.575Y-3.6949
X3.575Y-4.2949
X3.675Y-3.6949
X3.675Y-4.2949
X3.775Y-3.6949
X3.775Y-4.2949
X3.875Y-3.6949
X3.875Y-4.2949
X3.975Y-3.6949
X3.975Y-4.2949
X4.075Y-3.6949
X4.075Y-4.2949
X4.175Y-3.6949
X4.175Y-4.2949
X4.275Y-3.6949
X4.275Y-4.2949
X4.375Y-3.6949
X4.375Y-4.2949
X4.475Y-3.6949
X4.475Y-4.2949
X4.5131Y-1.6552
X4.5131Y-1.7537
X4.575Y-3.6949
X4.575Y-4.2949
T3
X1.6291Y-1.6732
X1.6291Y-1.7732
X1.6291Y-2.1279
X1.6291Y-2.2279
X1.7291Y-1.6732
X1.7291Y-1.7732
X1.7291Y-2.1279
X1.7291Y-2.2279
X1.8291Y-1.6732
X1.8291Y-1.7732
X1.8291Y-2.1279
X1.8291Y-2.2279
X1.9261Y-1.4451
X1.9291Y-1.6732
X1.9291Y-1.7732
X1.9291Y-2.1279
X1.9291Y-2.2279
X1.9807Y-1.3333
X2.0291Y-1.6732
X2.0291Y-1.7732
X2.0291Y-2.1279
X2.0291Y-2.2279
X2.0352Y-1.4451
X2.0897Y-1.3333
X2.1291Y-1.6732
X2.1291Y-1.7732
X2.1291Y-2.1279
X2.1291Y-2.2279
X2.1443Y-1.4451
X2.1988Y-1.3333
X2.2291Y-1.6732
X2.2291Y-1.7732
X2.2291Y-2.1279
X2.2291Y-2.2279
X2.2533Y-1.4451
X2.3078Y-1.3333
X2.3291Y-1.6732
X2.3291Y-1.7732
X2.3291Y-2.1279
X2.3291Y-2.2279
X2.3624Y-1.4451
X2.4291Y-1.6732
X2.4291Y-1.7732
X2.4291Y-2.1279
X2.4291Y-2.2279
X2.5291Y-1.6732
X2.5291Y-1.7732
X2.5291Y-2.1279
X2.5291Y-2.2279
X2.6291Y-1.6732
X2.6291Y-1.7732
X2.6291Y-2.1279
X2.6291Y-2.2279
X2.7291Y-1.6732
X2.7291Y-1.7732
X2.7291Y-2.1279
X2.7291Y-2.2279
X2.8291Y-1.6732
X2.8291Y-1.7732
X2.8291Y-2.1279
X2.8291Y-2.2279
X2.9291Y-1.6732
X2.9291Y-1.7732
X2.9291Y-2.1279
X2.9291Y-2.2279
X3.0291Y-1.6732
X3.0291Y-1.7732
X3.0291Y-2.1279
X3.0291Y-2.2279
X3.1291Y-1.6732
X3.1291Y-1.7732
X3.1291Y-2.1279
X3.1291Y-2.2279
X3.2291Y-1.6732
X3.2291Y-1.7732
X3.2291Y-2.1279
X3.2291Y-2.2279
X3.3291Y-1.6732
X3.3291Y-1.7732
X3.3291Y-2.1279
X3.3291Y-2.2279
X3.4291Y-1.6732
X3.4291Y-1.7732
X3.4291Y-2.1279
X3.4291Y-2.2279
X3.5291Y-1.6732
X3.5291Y-1.7732
X3.5291Y-2.1279
X3.5291Y-2.2279
X3.6291Y-1.6732
X3.6291Y-1.7732
X3.6291Y-2.1279
X3.6291Y-2.2279
X3.7291Y-1.6732
X3.7291Y-1.7732
X3.7291Y-2.1279
X3.7291Y-2.2279
X3.8291Y-1.6732
X3.8291Y-1.7732
X3.8291Y-2.1279
X3.8291Y-2.2279
X3.9291Y-1.6732
X3.9291Y-1.7732
X3.9291Y-2.1279
X3.9291Y-2.2279
X4.0291Y-1.6732
X4.0291Y-1.7732
X4.0291Y-2.1279
X4.0291Y-2.2279
T4
X1.2589Y-1.698
X2.9689Y-3.698
T5
X1.6521Y-1.3892
X2.6364Y-1.3892
T0
M30
