%TF.GenerationSoftware,KiCad,Pcbnew,7.0.1*%
%TF.CreationDate,2023-05-06T23:27:44+01:00*%
%TF.ProjectId,CPC464-2MINIITX,43504334-3634-42d3-924d-494e49495458,rev?*%
%TF.SameCoordinates,Original*%
%TF.FileFunction,Drillmap*%
%TF.FilePolarity,Positive*%
%FSLAX45Y45*%
G04 Gerber Fmt 4.5, Leading zero omitted, Abs format (unit mm)*
G04 Created by KiCad (PCBNEW 7.0.1) date 2023-05-06 23:27:44*
%MOMM*%
%LPD*%
G01*
G04 APERTURE LIST*
%ADD10C,0.100000*%
%ADD11C,0.200000*%
%ADD12C,0.120000*%
%ADD13C,0.240000*%
G04 APERTURE END LIST*
D10*
X2866420Y-2816007D02*
X19866420Y-2816007D01*
X19866420Y-19816007D01*
X2866420Y-19816007D01*
X2866420Y-2816007D01*
D11*
D12*
X7636350Y-2967400D02*
X7756350Y-3087400D01*
X7756350Y-2967400D02*
X7636350Y-3087400D01*
X7636350Y-3217400D02*
X7756350Y-3337400D01*
X7756350Y-3217400D02*
X7636350Y-3337400D01*
X8136350Y-3717400D02*
X8256350Y-3837400D01*
X8256350Y-3717400D02*
X8136350Y-3837400D01*
X8636350Y-2967400D02*
X8756350Y-3087400D01*
X8756350Y-2967400D02*
X8636350Y-3087400D01*
X8636350Y-3217400D02*
X8756350Y-3337400D01*
X8756350Y-3217400D02*
X8636350Y-3337400D01*
X8982550Y-2967400D02*
X9102550Y-3087400D01*
X9102550Y-2967400D02*
X8982550Y-3087400D01*
X8982550Y-3217400D02*
X9102550Y-3337400D01*
X9102550Y-3217400D02*
X8982550Y-3337400D01*
X9482550Y-3717400D02*
X9602550Y-3837400D01*
X9602550Y-3717400D02*
X9482550Y-3837400D01*
X9982550Y-2967400D02*
X10102550Y-3087400D01*
X10102550Y-2967400D02*
X9982550Y-3087400D01*
X9982550Y-3217400D02*
X10102550Y-3337400D01*
X10102550Y-3217400D02*
X9982550Y-3337400D01*
X10362000Y-2966600D02*
X10482000Y-3086600D01*
X10482000Y-2966600D02*
X10362000Y-3086600D01*
X10362000Y-3216600D02*
X10482000Y-3336600D01*
X10482000Y-3216600D02*
X10362000Y-3336600D01*
X10862000Y-3716600D02*
X10982000Y-3836600D01*
X10982000Y-3716600D02*
X10862000Y-3836600D01*
X11362000Y-2966600D02*
X11482000Y-3086600D01*
X11482000Y-2966600D02*
X11362000Y-3086600D01*
X11362000Y-3216600D02*
X11482000Y-3336600D01*
X11482000Y-3216600D02*
X11362000Y-3336600D01*
D13*
X16996340Y-3596640D02*
G75*
G03*
X16996340Y-3596640I-120000J0D01*
G01*
X18496340Y-3596640D02*
G75*
G03*
X18496340Y-3596640I-120000J0D01*
G01*
D11*
X3109039Y-20133531D02*
X3109039Y-19933531D01*
X3109039Y-19933531D02*
X3156658Y-19933531D01*
X3156658Y-19933531D02*
X3185229Y-19943055D01*
X3185229Y-19943055D02*
X3204277Y-19962102D01*
X3204277Y-19962102D02*
X3213801Y-19981150D01*
X3213801Y-19981150D02*
X3223325Y-20019245D01*
X3223325Y-20019245D02*
X3223325Y-20047816D01*
X3223325Y-20047816D02*
X3213801Y-20085912D01*
X3213801Y-20085912D02*
X3204277Y-20104959D01*
X3204277Y-20104959D02*
X3185229Y-20124007D01*
X3185229Y-20124007D02*
X3156658Y-20133531D01*
X3156658Y-20133531D02*
X3109039Y-20133531D01*
X3309039Y-20133531D02*
X3309039Y-20000197D01*
X3309039Y-20038293D02*
X3318563Y-20019245D01*
X3318563Y-20019245D02*
X3328087Y-20009721D01*
X3328087Y-20009721D02*
X3347134Y-20000197D01*
X3347134Y-20000197D02*
X3366182Y-20000197D01*
X3432848Y-20133531D02*
X3432848Y-20000197D01*
X3432848Y-19933531D02*
X3423325Y-19943055D01*
X3423325Y-19943055D02*
X3432848Y-19952578D01*
X3432848Y-19952578D02*
X3442372Y-19943055D01*
X3442372Y-19943055D02*
X3432848Y-19933531D01*
X3432848Y-19933531D02*
X3432848Y-19952578D01*
X3556658Y-20133531D02*
X3537610Y-20124007D01*
X3537610Y-20124007D02*
X3528087Y-20104959D01*
X3528087Y-20104959D02*
X3528087Y-19933531D01*
X3661420Y-20133531D02*
X3642372Y-20124007D01*
X3642372Y-20124007D02*
X3632848Y-20104959D01*
X3632848Y-20104959D02*
X3632848Y-19933531D01*
X3889991Y-20133531D02*
X3889991Y-19933531D01*
X3889991Y-19933531D02*
X3956658Y-20076388D01*
X3956658Y-20076388D02*
X4023325Y-19933531D01*
X4023325Y-19933531D02*
X4023325Y-20133531D01*
X4204277Y-20133531D02*
X4204277Y-20028769D01*
X4204277Y-20028769D02*
X4194753Y-20009721D01*
X4194753Y-20009721D02*
X4175706Y-20000197D01*
X4175706Y-20000197D02*
X4137610Y-20000197D01*
X4137610Y-20000197D02*
X4118563Y-20009721D01*
X4204277Y-20124007D02*
X4185229Y-20133531D01*
X4185229Y-20133531D02*
X4137610Y-20133531D01*
X4137610Y-20133531D02*
X4118563Y-20124007D01*
X4118563Y-20124007D02*
X4109039Y-20104959D01*
X4109039Y-20104959D02*
X4109039Y-20085912D01*
X4109039Y-20085912D02*
X4118563Y-20066864D01*
X4118563Y-20066864D02*
X4137610Y-20057340D01*
X4137610Y-20057340D02*
X4185229Y-20057340D01*
X4185229Y-20057340D02*
X4204277Y-20047816D01*
X4299515Y-20000197D02*
X4299515Y-20200197D01*
X4299515Y-20009721D02*
X4318563Y-20000197D01*
X4318563Y-20000197D02*
X4356658Y-20000197D01*
X4356658Y-20000197D02*
X4375706Y-20009721D01*
X4375706Y-20009721D02*
X4385230Y-20019245D01*
X4385230Y-20019245D02*
X4394753Y-20038293D01*
X4394753Y-20038293D02*
X4394753Y-20095435D01*
X4394753Y-20095435D02*
X4385230Y-20114483D01*
X4385230Y-20114483D02*
X4375706Y-20124007D01*
X4375706Y-20124007D02*
X4356658Y-20133531D01*
X4356658Y-20133531D02*
X4318563Y-20133531D01*
X4318563Y-20133531D02*
X4299515Y-20124007D01*
X4480468Y-20114483D02*
X4489991Y-20124007D01*
X4489991Y-20124007D02*
X4480468Y-20133531D01*
X4480468Y-20133531D02*
X4470944Y-20124007D01*
X4470944Y-20124007D02*
X4480468Y-20114483D01*
X4480468Y-20114483D02*
X4480468Y-20133531D01*
X4480468Y-20009721D02*
X4489991Y-20019245D01*
X4489991Y-20019245D02*
X4480468Y-20028769D01*
X4480468Y-20028769D02*
X4470944Y-20019245D01*
X4470944Y-20019245D02*
X4480468Y-20009721D01*
X4480468Y-20009721D02*
X4480468Y-20028769D01*
D12*
X2741420Y-20401007D02*
X2861420Y-20521007D01*
X2861420Y-20401007D02*
X2741420Y-20521007D01*
D11*
X3213801Y-20553531D02*
X3099515Y-20553531D01*
X3156658Y-20553531D02*
X3156658Y-20353531D01*
X3156658Y-20353531D02*
X3137610Y-20382102D01*
X3137610Y-20382102D02*
X3118563Y-20401150D01*
X3118563Y-20401150D02*
X3099515Y-20410674D01*
X3299515Y-20534483D02*
X3309039Y-20544007D01*
X3309039Y-20544007D02*
X3299515Y-20553531D01*
X3299515Y-20553531D02*
X3289991Y-20544007D01*
X3289991Y-20544007D02*
X3299515Y-20534483D01*
X3299515Y-20534483D02*
X3299515Y-20553531D01*
X3385229Y-20372578D02*
X3394753Y-20363055D01*
X3394753Y-20363055D02*
X3413801Y-20353531D01*
X3413801Y-20353531D02*
X3461420Y-20353531D01*
X3461420Y-20353531D02*
X3480468Y-20363055D01*
X3480468Y-20363055D02*
X3489991Y-20372578D01*
X3489991Y-20372578D02*
X3499515Y-20391626D01*
X3499515Y-20391626D02*
X3499515Y-20410674D01*
X3499515Y-20410674D02*
X3489991Y-20439245D01*
X3489991Y-20439245D02*
X3375706Y-20553531D01*
X3375706Y-20553531D02*
X3499515Y-20553531D01*
X3623325Y-20353531D02*
X3642372Y-20353531D01*
X3642372Y-20353531D02*
X3661420Y-20363055D01*
X3661420Y-20363055D02*
X3670944Y-20372578D01*
X3670944Y-20372578D02*
X3680468Y-20391626D01*
X3680468Y-20391626D02*
X3689991Y-20429721D01*
X3689991Y-20429721D02*
X3689991Y-20477340D01*
X3689991Y-20477340D02*
X3680468Y-20515435D01*
X3680468Y-20515435D02*
X3670944Y-20534483D01*
X3670944Y-20534483D02*
X3661420Y-20544007D01*
X3661420Y-20544007D02*
X3642372Y-20553531D01*
X3642372Y-20553531D02*
X3623325Y-20553531D01*
X3623325Y-20553531D02*
X3604277Y-20544007D01*
X3604277Y-20544007D02*
X3594753Y-20534483D01*
X3594753Y-20534483D02*
X3585229Y-20515435D01*
X3585229Y-20515435D02*
X3575706Y-20477340D01*
X3575706Y-20477340D02*
X3575706Y-20429721D01*
X3575706Y-20429721D02*
X3585229Y-20391626D01*
X3585229Y-20391626D02*
X3594753Y-20372578D01*
X3594753Y-20372578D02*
X3604277Y-20363055D01*
X3604277Y-20363055D02*
X3623325Y-20353531D01*
X3813801Y-20353531D02*
X3832849Y-20353531D01*
X3832849Y-20353531D02*
X3851896Y-20363055D01*
X3851896Y-20363055D02*
X3861420Y-20372578D01*
X3861420Y-20372578D02*
X3870944Y-20391626D01*
X3870944Y-20391626D02*
X3880468Y-20429721D01*
X3880468Y-20429721D02*
X3880468Y-20477340D01*
X3880468Y-20477340D02*
X3870944Y-20515435D01*
X3870944Y-20515435D02*
X3861420Y-20534483D01*
X3861420Y-20534483D02*
X3851896Y-20544007D01*
X3851896Y-20544007D02*
X3832849Y-20553531D01*
X3832849Y-20553531D02*
X3813801Y-20553531D01*
X3813801Y-20553531D02*
X3794753Y-20544007D01*
X3794753Y-20544007D02*
X3785229Y-20534483D01*
X3785229Y-20534483D02*
X3775706Y-20515435D01*
X3775706Y-20515435D02*
X3766182Y-20477340D01*
X3766182Y-20477340D02*
X3766182Y-20429721D01*
X3766182Y-20429721D02*
X3775706Y-20391626D01*
X3775706Y-20391626D02*
X3785229Y-20372578D01*
X3785229Y-20372578D02*
X3794753Y-20363055D01*
X3794753Y-20363055D02*
X3813801Y-20353531D01*
X3966182Y-20553531D02*
X3966182Y-20420197D01*
X3966182Y-20439245D02*
X3975706Y-20429721D01*
X3975706Y-20429721D02*
X3994753Y-20420197D01*
X3994753Y-20420197D02*
X4023325Y-20420197D01*
X4023325Y-20420197D02*
X4042372Y-20429721D01*
X4042372Y-20429721D02*
X4051896Y-20448769D01*
X4051896Y-20448769D02*
X4051896Y-20553531D01*
X4051896Y-20448769D02*
X4061420Y-20429721D01*
X4061420Y-20429721D02*
X4080468Y-20420197D01*
X4080468Y-20420197D02*
X4109039Y-20420197D01*
X4109039Y-20420197D02*
X4128087Y-20429721D01*
X4128087Y-20429721D02*
X4137610Y-20448769D01*
X4137610Y-20448769D02*
X4137610Y-20553531D01*
X4232849Y-20553531D02*
X4232849Y-20420197D01*
X4232849Y-20439245D02*
X4242372Y-20429721D01*
X4242372Y-20429721D02*
X4261420Y-20420197D01*
X4261420Y-20420197D02*
X4289992Y-20420197D01*
X4289992Y-20420197D02*
X4309039Y-20429721D01*
X4309039Y-20429721D02*
X4318563Y-20448769D01*
X4318563Y-20448769D02*
X4318563Y-20553531D01*
X4318563Y-20448769D02*
X4328087Y-20429721D01*
X4328087Y-20429721D02*
X4347134Y-20420197D01*
X4347134Y-20420197D02*
X4375706Y-20420197D01*
X4375706Y-20420197D02*
X4394753Y-20429721D01*
X4394753Y-20429721D02*
X4404277Y-20448769D01*
X4404277Y-20448769D02*
X4404277Y-20553531D01*
X4794753Y-20344007D02*
X4623325Y-20601150D01*
X5051896Y-20353531D02*
X5070944Y-20353531D01*
X5070944Y-20353531D02*
X5089992Y-20363055D01*
X5089992Y-20363055D02*
X5099515Y-20372578D01*
X5099515Y-20372578D02*
X5109039Y-20391626D01*
X5109039Y-20391626D02*
X5118563Y-20429721D01*
X5118563Y-20429721D02*
X5118563Y-20477340D01*
X5118563Y-20477340D02*
X5109039Y-20515435D01*
X5109039Y-20515435D02*
X5099515Y-20534483D01*
X5099515Y-20534483D02*
X5089992Y-20544007D01*
X5089992Y-20544007D02*
X5070944Y-20553531D01*
X5070944Y-20553531D02*
X5051896Y-20553531D01*
X5051896Y-20553531D02*
X5032849Y-20544007D01*
X5032849Y-20544007D02*
X5023325Y-20534483D01*
X5023325Y-20534483D02*
X5013801Y-20515435D01*
X5013801Y-20515435D02*
X5004277Y-20477340D01*
X5004277Y-20477340D02*
X5004277Y-20429721D01*
X5004277Y-20429721D02*
X5013801Y-20391626D01*
X5013801Y-20391626D02*
X5023325Y-20372578D01*
X5023325Y-20372578D02*
X5032849Y-20363055D01*
X5032849Y-20363055D02*
X5051896Y-20353531D01*
X5204277Y-20534483D02*
X5213801Y-20544007D01*
X5213801Y-20544007D02*
X5204277Y-20553531D01*
X5204277Y-20553531D02*
X5194754Y-20544007D01*
X5194754Y-20544007D02*
X5204277Y-20534483D01*
X5204277Y-20534483D02*
X5204277Y-20553531D01*
X5337611Y-20353531D02*
X5356658Y-20353531D01*
X5356658Y-20353531D02*
X5375706Y-20363055D01*
X5375706Y-20363055D02*
X5385230Y-20372578D01*
X5385230Y-20372578D02*
X5394754Y-20391626D01*
X5394754Y-20391626D02*
X5404277Y-20429721D01*
X5404277Y-20429721D02*
X5404277Y-20477340D01*
X5404277Y-20477340D02*
X5394754Y-20515435D01*
X5394754Y-20515435D02*
X5385230Y-20534483D01*
X5385230Y-20534483D02*
X5375706Y-20544007D01*
X5375706Y-20544007D02*
X5356658Y-20553531D01*
X5356658Y-20553531D02*
X5337611Y-20553531D01*
X5337611Y-20553531D02*
X5318563Y-20544007D01*
X5318563Y-20544007D02*
X5309039Y-20534483D01*
X5309039Y-20534483D02*
X5299515Y-20515435D01*
X5299515Y-20515435D02*
X5289992Y-20477340D01*
X5289992Y-20477340D02*
X5289992Y-20429721D01*
X5289992Y-20429721D02*
X5299515Y-20391626D01*
X5299515Y-20391626D02*
X5309039Y-20372578D01*
X5309039Y-20372578D02*
X5318563Y-20363055D01*
X5318563Y-20363055D02*
X5337611Y-20353531D01*
X5575706Y-20420197D02*
X5575706Y-20553531D01*
X5528087Y-20344007D02*
X5480468Y-20486864D01*
X5480468Y-20486864D02*
X5604277Y-20486864D01*
X5661420Y-20353531D02*
X5794753Y-20353531D01*
X5794753Y-20353531D02*
X5709039Y-20553531D01*
X5861420Y-20372578D02*
X5870944Y-20363055D01*
X5870944Y-20363055D02*
X5889992Y-20353531D01*
X5889992Y-20353531D02*
X5937611Y-20353531D01*
X5937611Y-20353531D02*
X5956658Y-20363055D01*
X5956658Y-20363055D02*
X5966182Y-20372578D01*
X5966182Y-20372578D02*
X5975706Y-20391626D01*
X5975706Y-20391626D02*
X5975706Y-20410674D01*
X5975706Y-20410674D02*
X5966182Y-20439245D01*
X5966182Y-20439245D02*
X5851896Y-20553531D01*
X5851896Y-20553531D02*
X5975706Y-20553531D01*
X6051896Y-20353531D02*
X6051896Y-20391626D01*
X6128087Y-20353531D02*
X6128087Y-20391626D01*
X6423325Y-20629721D02*
X6413801Y-20620197D01*
X6413801Y-20620197D02*
X6394754Y-20591626D01*
X6394754Y-20591626D02*
X6385230Y-20572578D01*
X6385230Y-20572578D02*
X6375706Y-20544007D01*
X6375706Y-20544007D02*
X6366182Y-20496388D01*
X6366182Y-20496388D02*
X6366182Y-20458293D01*
X6366182Y-20458293D02*
X6375706Y-20410674D01*
X6375706Y-20410674D02*
X6385230Y-20382102D01*
X6385230Y-20382102D02*
X6394754Y-20363055D01*
X6394754Y-20363055D02*
X6413801Y-20334483D01*
X6413801Y-20334483D02*
X6423325Y-20324959D01*
X6604277Y-20553531D02*
X6489992Y-20553531D01*
X6547134Y-20553531D02*
X6547134Y-20353531D01*
X6547134Y-20353531D02*
X6528087Y-20382102D01*
X6528087Y-20382102D02*
X6509039Y-20401150D01*
X6509039Y-20401150D02*
X6489992Y-20410674D01*
X6785230Y-20353531D02*
X6689992Y-20353531D01*
X6689992Y-20353531D02*
X6680468Y-20448769D01*
X6680468Y-20448769D02*
X6689992Y-20439245D01*
X6689992Y-20439245D02*
X6709039Y-20429721D01*
X6709039Y-20429721D02*
X6756658Y-20429721D01*
X6756658Y-20429721D02*
X6775706Y-20439245D01*
X6775706Y-20439245D02*
X6785230Y-20448769D01*
X6785230Y-20448769D02*
X6794754Y-20467816D01*
X6794754Y-20467816D02*
X6794754Y-20515435D01*
X6794754Y-20515435D02*
X6785230Y-20534483D01*
X6785230Y-20534483D02*
X6775706Y-20544007D01*
X6775706Y-20544007D02*
X6756658Y-20553531D01*
X6756658Y-20553531D02*
X6709039Y-20553531D01*
X6709039Y-20553531D02*
X6689992Y-20544007D01*
X6689992Y-20544007D02*
X6680468Y-20534483D01*
X7032849Y-20553531D02*
X7032849Y-20353531D01*
X7118563Y-20553531D02*
X7118563Y-20448769D01*
X7118563Y-20448769D02*
X7109039Y-20429721D01*
X7109039Y-20429721D02*
X7089992Y-20420197D01*
X7089992Y-20420197D02*
X7061420Y-20420197D01*
X7061420Y-20420197D02*
X7042373Y-20429721D01*
X7042373Y-20429721D02*
X7032849Y-20439245D01*
X7242373Y-20553531D02*
X7223325Y-20544007D01*
X7223325Y-20544007D02*
X7213801Y-20534483D01*
X7213801Y-20534483D02*
X7204277Y-20515435D01*
X7204277Y-20515435D02*
X7204277Y-20458293D01*
X7204277Y-20458293D02*
X7213801Y-20439245D01*
X7213801Y-20439245D02*
X7223325Y-20429721D01*
X7223325Y-20429721D02*
X7242373Y-20420197D01*
X7242373Y-20420197D02*
X7270944Y-20420197D01*
X7270944Y-20420197D02*
X7289992Y-20429721D01*
X7289992Y-20429721D02*
X7299516Y-20439245D01*
X7299516Y-20439245D02*
X7309039Y-20458293D01*
X7309039Y-20458293D02*
X7309039Y-20515435D01*
X7309039Y-20515435D02*
X7299516Y-20534483D01*
X7299516Y-20534483D02*
X7289992Y-20544007D01*
X7289992Y-20544007D02*
X7270944Y-20553531D01*
X7270944Y-20553531D02*
X7242373Y-20553531D01*
X7423325Y-20553531D02*
X7404277Y-20544007D01*
X7404277Y-20544007D02*
X7394754Y-20524959D01*
X7394754Y-20524959D02*
X7394754Y-20353531D01*
X7575706Y-20544007D02*
X7556658Y-20553531D01*
X7556658Y-20553531D02*
X7518563Y-20553531D01*
X7518563Y-20553531D02*
X7499516Y-20544007D01*
X7499516Y-20544007D02*
X7489992Y-20524959D01*
X7489992Y-20524959D02*
X7489992Y-20448769D01*
X7489992Y-20448769D02*
X7499516Y-20429721D01*
X7499516Y-20429721D02*
X7518563Y-20420197D01*
X7518563Y-20420197D02*
X7556658Y-20420197D01*
X7556658Y-20420197D02*
X7575706Y-20429721D01*
X7575706Y-20429721D02*
X7585230Y-20448769D01*
X7585230Y-20448769D02*
X7585230Y-20467816D01*
X7585230Y-20467816D02*
X7489992Y-20486864D01*
X7661420Y-20544007D02*
X7680468Y-20553531D01*
X7680468Y-20553531D02*
X7718563Y-20553531D01*
X7718563Y-20553531D02*
X7737611Y-20544007D01*
X7737611Y-20544007D02*
X7747135Y-20524959D01*
X7747135Y-20524959D02*
X7747135Y-20515435D01*
X7747135Y-20515435D02*
X7737611Y-20496388D01*
X7737611Y-20496388D02*
X7718563Y-20486864D01*
X7718563Y-20486864D02*
X7689992Y-20486864D01*
X7689992Y-20486864D02*
X7670944Y-20477340D01*
X7670944Y-20477340D02*
X7661420Y-20458293D01*
X7661420Y-20458293D02*
X7661420Y-20448769D01*
X7661420Y-20448769D02*
X7670944Y-20429721D01*
X7670944Y-20429721D02*
X7689992Y-20420197D01*
X7689992Y-20420197D02*
X7718563Y-20420197D01*
X7718563Y-20420197D02*
X7737611Y-20429721D01*
X7813801Y-20629721D02*
X7823325Y-20620197D01*
X7823325Y-20620197D02*
X7842373Y-20591626D01*
X7842373Y-20591626D02*
X7851897Y-20572578D01*
X7851897Y-20572578D02*
X7861420Y-20544007D01*
X7861420Y-20544007D02*
X7870944Y-20496388D01*
X7870944Y-20496388D02*
X7870944Y-20458293D01*
X7870944Y-20458293D02*
X7861420Y-20410674D01*
X7861420Y-20410674D02*
X7851897Y-20382102D01*
X7851897Y-20382102D02*
X7842373Y-20363055D01*
X7842373Y-20363055D02*
X7823325Y-20334483D01*
X7823325Y-20334483D02*
X7813801Y-20324959D01*
X8175706Y-20629721D02*
X8166182Y-20620197D01*
X8166182Y-20620197D02*
X8147135Y-20591626D01*
X8147135Y-20591626D02*
X8137611Y-20572578D01*
X8137611Y-20572578D02*
X8128087Y-20544007D01*
X8128087Y-20544007D02*
X8118563Y-20496388D01*
X8118563Y-20496388D02*
X8118563Y-20458293D01*
X8118563Y-20458293D02*
X8128087Y-20410674D01*
X8128087Y-20410674D02*
X8137611Y-20382102D01*
X8137611Y-20382102D02*
X8147135Y-20363055D01*
X8147135Y-20363055D02*
X8166182Y-20334483D01*
X8166182Y-20334483D02*
X8175706Y-20324959D01*
X8251897Y-20420197D02*
X8251897Y-20553531D01*
X8251897Y-20439245D02*
X8261420Y-20429721D01*
X8261420Y-20429721D02*
X8280468Y-20420197D01*
X8280468Y-20420197D02*
X8309039Y-20420197D01*
X8309039Y-20420197D02*
X8328087Y-20429721D01*
X8328087Y-20429721D02*
X8337611Y-20448769D01*
X8337611Y-20448769D02*
X8337611Y-20553531D01*
X8461420Y-20553531D02*
X8442373Y-20544007D01*
X8442373Y-20544007D02*
X8432849Y-20534483D01*
X8432849Y-20534483D02*
X8423325Y-20515435D01*
X8423325Y-20515435D02*
X8423325Y-20458293D01*
X8423325Y-20458293D02*
X8432849Y-20439245D01*
X8432849Y-20439245D02*
X8442373Y-20429721D01*
X8442373Y-20429721D02*
X8461420Y-20420197D01*
X8461420Y-20420197D02*
X8489992Y-20420197D01*
X8489992Y-20420197D02*
X8509040Y-20429721D01*
X8509040Y-20429721D02*
X8518563Y-20439245D01*
X8518563Y-20439245D02*
X8528087Y-20458293D01*
X8528087Y-20458293D02*
X8528087Y-20515435D01*
X8528087Y-20515435D02*
X8518563Y-20534483D01*
X8518563Y-20534483D02*
X8509040Y-20544007D01*
X8509040Y-20544007D02*
X8489992Y-20553531D01*
X8489992Y-20553531D02*
X8461420Y-20553531D01*
X8585230Y-20420197D02*
X8661420Y-20420197D01*
X8613801Y-20353531D02*
X8613801Y-20524959D01*
X8613801Y-20524959D02*
X8623325Y-20544007D01*
X8623325Y-20544007D02*
X8642373Y-20553531D01*
X8642373Y-20553531D02*
X8661420Y-20553531D01*
X8880468Y-20420197D02*
X8880468Y-20620197D01*
X8880468Y-20429721D02*
X8899516Y-20420197D01*
X8899516Y-20420197D02*
X8937611Y-20420197D01*
X8937611Y-20420197D02*
X8956659Y-20429721D01*
X8956659Y-20429721D02*
X8966182Y-20439245D01*
X8966182Y-20439245D02*
X8975706Y-20458293D01*
X8975706Y-20458293D02*
X8975706Y-20515435D01*
X8975706Y-20515435D02*
X8966182Y-20534483D01*
X8966182Y-20534483D02*
X8956659Y-20544007D01*
X8956659Y-20544007D02*
X8937611Y-20553531D01*
X8937611Y-20553531D02*
X8899516Y-20553531D01*
X8899516Y-20553531D02*
X8880468Y-20544007D01*
X9089992Y-20553531D02*
X9070944Y-20544007D01*
X9070944Y-20544007D02*
X9061421Y-20524959D01*
X9061421Y-20524959D02*
X9061421Y-20353531D01*
X9251897Y-20553531D02*
X9251897Y-20448769D01*
X9251897Y-20448769D02*
X9242373Y-20429721D01*
X9242373Y-20429721D02*
X9223325Y-20420197D01*
X9223325Y-20420197D02*
X9185230Y-20420197D01*
X9185230Y-20420197D02*
X9166182Y-20429721D01*
X9251897Y-20544007D02*
X9232849Y-20553531D01*
X9232849Y-20553531D02*
X9185230Y-20553531D01*
X9185230Y-20553531D02*
X9166182Y-20544007D01*
X9166182Y-20544007D02*
X9156659Y-20524959D01*
X9156659Y-20524959D02*
X9156659Y-20505912D01*
X9156659Y-20505912D02*
X9166182Y-20486864D01*
X9166182Y-20486864D02*
X9185230Y-20477340D01*
X9185230Y-20477340D02*
X9232849Y-20477340D01*
X9232849Y-20477340D02*
X9251897Y-20467816D01*
X9318563Y-20420197D02*
X9394754Y-20420197D01*
X9347135Y-20353531D02*
X9347135Y-20524959D01*
X9347135Y-20524959D02*
X9356659Y-20544007D01*
X9356659Y-20544007D02*
X9375706Y-20553531D01*
X9375706Y-20553531D02*
X9394754Y-20553531D01*
X9537611Y-20544007D02*
X9518563Y-20553531D01*
X9518563Y-20553531D02*
X9480468Y-20553531D01*
X9480468Y-20553531D02*
X9461421Y-20544007D01*
X9461421Y-20544007D02*
X9451897Y-20524959D01*
X9451897Y-20524959D02*
X9451897Y-20448769D01*
X9451897Y-20448769D02*
X9461421Y-20429721D01*
X9461421Y-20429721D02*
X9480468Y-20420197D01*
X9480468Y-20420197D02*
X9518563Y-20420197D01*
X9518563Y-20420197D02*
X9537611Y-20429721D01*
X9537611Y-20429721D02*
X9547135Y-20448769D01*
X9547135Y-20448769D02*
X9547135Y-20467816D01*
X9547135Y-20467816D02*
X9451897Y-20486864D01*
X9718563Y-20553531D02*
X9718563Y-20353531D01*
X9718563Y-20544007D02*
X9699516Y-20553531D01*
X9699516Y-20553531D02*
X9661421Y-20553531D01*
X9661421Y-20553531D02*
X9642373Y-20544007D01*
X9642373Y-20544007D02*
X9632849Y-20534483D01*
X9632849Y-20534483D02*
X9623325Y-20515435D01*
X9623325Y-20515435D02*
X9623325Y-20458293D01*
X9623325Y-20458293D02*
X9632849Y-20439245D01*
X9632849Y-20439245D02*
X9642373Y-20429721D01*
X9642373Y-20429721D02*
X9661421Y-20420197D01*
X9661421Y-20420197D02*
X9699516Y-20420197D01*
X9699516Y-20420197D02*
X9718563Y-20429721D01*
X9794754Y-20629721D02*
X9804278Y-20620197D01*
X9804278Y-20620197D02*
X9823325Y-20591626D01*
X9823325Y-20591626D02*
X9832849Y-20572578D01*
X9832849Y-20572578D02*
X9842373Y-20544007D01*
X9842373Y-20544007D02*
X9851897Y-20496388D01*
X9851897Y-20496388D02*
X9851897Y-20458293D01*
X9851897Y-20458293D02*
X9842373Y-20410674D01*
X9842373Y-20410674D02*
X9832849Y-20382102D01*
X9832849Y-20382102D02*
X9823325Y-20363055D01*
X9823325Y-20363055D02*
X9804278Y-20334483D01*
X9804278Y-20334483D02*
X9794754Y-20324959D01*
X2861420Y-20725007D02*
G75*
G03*
X2861420Y-20725007I-100000J0D01*
G01*
X3099515Y-20636578D02*
X3109039Y-20627055D01*
X3109039Y-20627055D02*
X3128087Y-20617531D01*
X3128087Y-20617531D02*
X3175706Y-20617531D01*
X3175706Y-20617531D02*
X3194753Y-20627055D01*
X3194753Y-20627055D02*
X3204277Y-20636578D01*
X3204277Y-20636578D02*
X3213801Y-20655626D01*
X3213801Y-20655626D02*
X3213801Y-20674674D01*
X3213801Y-20674674D02*
X3204277Y-20703245D01*
X3204277Y-20703245D02*
X3089991Y-20817531D01*
X3089991Y-20817531D02*
X3213801Y-20817531D01*
X3299515Y-20798483D02*
X3309039Y-20808007D01*
X3309039Y-20808007D02*
X3299515Y-20817531D01*
X3299515Y-20817531D02*
X3289991Y-20808007D01*
X3289991Y-20808007D02*
X3299515Y-20798483D01*
X3299515Y-20798483D02*
X3299515Y-20817531D01*
X3480468Y-20684197D02*
X3480468Y-20817531D01*
X3432848Y-20608007D02*
X3385229Y-20750864D01*
X3385229Y-20750864D02*
X3509039Y-20750864D01*
X3623325Y-20617531D02*
X3642372Y-20617531D01*
X3642372Y-20617531D02*
X3661420Y-20627055D01*
X3661420Y-20627055D02*
X3670944Y-20636578D01*
X3670944Y-20636578D02*
X3680468Y-20655626D01*
X3680468Y-20655626D02*
X3689991Y-20693721D01*
X3689991Y-20693721D02*
X3689991Y-20741340D01*
X3689991Y-20741340D02*
X3680468Y-20779435D01*
X3680468Y-20779435D02*
X3670944Y-20798483D01*
X3670944Y-20798483D02*
X3661420Y-20808007D01*
X3661420Y-20808007D02*
X3642372Y-20817531D01*
X3642372Y-20817531D02*
X3623325Y-20817531D01*
X3623325Y-20817531D02*
X3604277Y-20808007D01*
X3604277Y-20808007D02*
X3594753Y-20798483D01*
X3594753Y-20798483D02*
X3585229Y-20779435D01*
X3585229Y-20779435D02*
X3575706Y-20741340D01*
X3575706Y-20741340D02*
X3575706Y-20693721D01*
X3575706Y-20693721D02*
X3585229Y-20655626D01*
X3585229Y-20655626D02*
X3594753Y-20636578D01*
X3594753Y-20636578D02*
X3604277Y-20627055D01*
X3604277Y-20627055D02*
X3623325Y-20617531D01*
X3813801Y-20617531D02*
X3832849Y-20617531D01*
X3832849Y-20617531D02*
X3851896Y-20627055D01*
X3851896Y-20627055D02*
X3861420Y-20636578D01*
X3861420Y-20636578D02*
X3870944Y-20655626D01*
X3870944Y-20655626D02*
X3880468Y-20693721D01*
X3880468Y-20693721D02*
X3880468Y-20741340D01*
X3880468Y-20741340D02*
X3870944Y-20779435D01*
X3870944Y-20779435D02*
X3861420Y-20798483D01*
X3861420Y-20798483D02*
X3851896Y-20808007D01*
X3851896Y-20808007D02*
X3832849Y-20817531D01*
X3832849Y-20817531D02*
X3813801Y-20817531D01*
X3813801Y-20817531D02*
X3794753Y-20808007D01*
X3794753Y-20808007D02*
X3785229Y-20798483D01*
X3785229Y-20798483D02*
X3775706Y-20779435D01*
X3775706Y-20779435D02*
X3766182Y-20741340D01*
X3766182Y-20741340D02*
X3766182Y-20693721D01*
X3766182Y-20693721D02*
X3775706Y-20655626D01*
X3775706Y-20655626D02*
X3785229Y-20636578D01*
X3785229Y-20636578D02*
X3794753Y-20627055D01*
X3794753Y-20627055D02*
X3813801Y-20617531D01*
X3966182Y-20817531D02*
X3966182Y-20684197D01*
X3966182Y-20703245D02*
X3975706Y-20693721D01*
X3975706Y-20693721D02*
X3994753Y-20684197D01*
X3994753Y-20684197D02*
X4023325Y-20684197D01*
X4023325Y-20684197D02*
X4042372Y-20693721D01*
X4042372Y-20693721D02*
X4051896Y-20712769D01*
X4051896Y-20712769D02*
X4051896Y-20817531D01*
X4051896Y-20712769D02*
X4061420Y-20693721D01*
X4061420Y-20693721D02*
X4080468Y-20684197D01*
X4080468Y-20684197D02*
X4109039Y-20684197D01*
X4109039Y-20684197D02*
X4128087Y-20693721D01*
X4128087Y-20693721D02*
X4137610Y-20712769D01*
X4137610Y-20712769D02*
X4137610Y-20817531D01*
X4232849Y-20817531D02*
X4232849Y-20684197D01*
X4232849Y-20703245D02*
X4242372Y-20693721D01*
X4242372Y-20693721D02*
X4261420Y-20684197D01*
X4261420Y-20684197D02*
X4289992Y-20684197D01*
X4289992Y-20684197D02*
X4309039Y-20693721D01*
X4309039Y-20693721D02*
X4318563Y-20712769D01*
X4318563Y-20712769D02*
X4318563Y-20817531D01*
X4318563Y-20712769D02*
X4328087Y-20693721D01*
X4328087Y-20693721D02*
X4347134Y-20684197D01*
X4347134Y-20684197D02*
X4375706Y-20684197D01*
X4375706Y-20684197D02*
X4394753Y-20693721D01*
X4394753Y-20693721D02*
X4404277Y-20712769D01*
X4404277Y-20712769D02*
X4404277Y-20817531D01*
X4794753Y-20608007D02*
X4623325Y-20865150D01*
X5051896Y-20617531D02*
X5070944Y-20617531D01*
X5070944Y-20617531D02*
X5089992Y-20627055D01*
X5089992Y-20627055D02*
X5099515Y-20636578D01*
X5099515Y-20636578D02*
X5109039Y-20655626D01*
X5109039Y-20655626D02*
X5118563Y-20693721D01*
X5118563Y-20693721D02*
X5118563Y-20741340D01*
X5118563Y-20741340D02*
X5109039Y-20779435D01*
X5109039Y-20779435D02*
X5099515Y-20798483D01*
X5099515Y-20798483D02*
X5089992Y-20808007D01*
X5089992Y-20808007D02*
X5070944Y-20817531D01*
X5070944Y-20817531D02*
X5051896Y-20817531D01*
X5051896Y-20817531D02*
X5032849Y-20808007D01*
X5032849Y-20808007D02*
X5023325Y-20798483D01*
X5023325Y-20798483D02*
X5013801Y-20779435D01*
X5013801Y-20779435D02*
X5004277Y-20741340D01*
X5004277Y-20741340D02*
X5004277Y-20693721D01*
X5004277Y-20693721D02*
X5013801Y-20655626D01*
X5013801Y-20655626D02*
X5023325Y-20636578D01*
X5023325Y-20636578D02*
X5032849Y-20627055D01*
X5032849Y-20627055D02*
X5051896Y-20617531D01*
X5204277Y-20798483D02*
X5213801Y-20808007D01*
X5213801Y-20808007D02*
X5204277Y-20817531D01*
X5204277Y-20817531D02*
X5194754Y-20808007D01*
X5194754Y-20808007D02*
X5204277Y-20798483D01*
X5204277Y-20798483D02*
X5204277Y-20817531D01*
X5337611Y-20617531D02*
X5356658Y-20617531D01*
X5356658Y-20617531D02*
X5375706Y-20627055D01*
X5375706Y-20627055D02*
X5385230Y-20636578D01*
X5385230Y-20636578D02*
X5394754Y-20655626D01*
X5394754Y-20655626D02*
X5404277Y-20693721D01*
X5404277Y-20693721D02*
X5404277Y-20741340D01*
X5404277Y-20741340D02*
X5394754Y-20779435D01*
X5394754Y-20779435D02*
X5385230Y-20798483D01*
X5385230Y-20798483D02*
X5375706Y-20808007D01*
X5375706Y-20808007D02*
X5356658Y-20817531D01*
X5356658Y-20817531D02*
X5337611Y-20817531D01*
X5337611Y-20817531D02*
X5318563Y-20808007D01*
X5318563Y-20808007D02*
X5309039Y-20798483D01*
X5309039Y-20798483D02*
X5299515Y-20779435D01*
X5299515Y-20779435D02*
X5289992Y-20741340D01*
X5289992Y-20741340D02*
X5289992Y-20693721D01*
X5289992Y-20693721D02*
X5299515Y-20655626D01*
X5299515Y-20655626D02*
X5309039Y-20636578D01*
X5309039Y-20636578D02*
X5318563Y-20627055D01*
X5318563Y-20627055D02*
X5337611Y-20617531D01*
X5499515Y-20817531D02*
X5537611Y-20817531D01*
X5537611Y-20817531D02*
X5556658Y-20808007D01*
X5556658Y-20808007D02*
X5566182Y-20798483D01*
X5566182Y-20798483D02*
X5585230Y-20769912D01*
X5585230Y-20769912D02*
X5594753Y-20731816D01*
X5594753Y-20731816D02*
X5594753Y-20655626D01*
X5594753Y-20655626D02*
X5585230Y-20636578D01*
X5585230Y-20636578D02*
X5575706Y-20627055D01*
X5575706Y-20627055D02*
X5556658Y-20617531D01*
X5556658Y-20617531D02*
X5518563Y-20617531D01*
X5518563Y-20617531D02*
X5499515Y-20627055D01*
X5499515Y-20627055D02*
X5489992Y-20636578D01*
X5489992Y-20636578D02*
X5480468Y-20655626D01*
X5480468Y-20655626D02*
X5480468Y-20703245D01*
X5480468Y-20703245D02*
X5489992Y-20722293D01*
X5489992Y-20722293D02*
X5499515Y-20731816D01*
X5499515Y-20731816D02*
X5518563Y-20741340D01*
X5518563Y-20741340D02*
X5556658Y-20741340D01*
X5556658Y-20741340D02*
X5575706Y-20731816D01*
X5575706Y-20731816D02*
X5585230Y-20722293D01*
X5585230Y-20722293D02*
X5594753Y-20703245D01*
X5766182Y-20684197D02*
X5766182Y-20817531D01*
X5718563Y-20608007D02*
X5670944Y-20750864D01*
X5670944Y-20750864D02*
X5794753Y-20750864D01*
X5966182Y-20617531D02*
X5870944Y-20617531D01*
X5870944Y-20617531D02*
X5861420Y-20712769D01*
X5861420Y-20712769D02*
X5870944Y-20703245D01*
X5870944Y-20703245D02*
X5889992Y-20693721D01*
X5889992Y-20693721D02*
X5937611Y-20693721D01*
X5937611Y-20693721D02*
X5956658Y-20703245D01*
X5956658Y-20703245D02*
X5966182Y-20712769D01*
X5966182Y-20712769D02*
X5975706Y-20731816D01*
X5975706Y-20731816D02*
X5975706Y-20779435D01*
X5975706Y-20779435D02*
X5966182Y-20798483D01*
X5966182Y-20798483D02*
X5956658Y-20808007D01*
X5956658Y-20808007D02*
X5937611Y-20817531D01*
X5937611Y-20817531D02*
X5889992Y-20817531D01*
X5889992Y-20817531D02*
X5870944Y-20808007D01*
X5870944Y-20808007D02*
X5861420Y-20798483D01*
X6051896Y-20617531D02*
X6051896Y-20655626D01*
X6128087Y-20617531D02*
X6128087Y-20655626D01*
X6423325Y-20893721D02*
X6413801Y-20884197D01*
X6413801Y-20884197D02*
X6394754Y-20855626D01*
X6394754Y-20855626D02*
X6385230Y-20836578D01*
X6385230Y-20836578D02*
X6375706Y-20808007D01*
X6375706Y-20808007D02*
X6366182Y-20760388D01*
X6366182Y-20760388D02*
X6366182Y-20722293D01*
X6366182Y-20722293D02*
X6375706Y-20674674D01*
X6375706Y-20674674D02*
X6385230Y-20646102D01*
X6385230Y-20646102D02*
X6394754Y-20627055D01*
X6394754Y-20627055D02*
X6413801Y-20598483D01*
X6413801Y-20598483D02*
X6423325Y-20588959D01*
X6489992Y-20636578D02*
X6499515Y-20627055D01*
X6499515Y-20627055D02*
X6518563Y-20617531D01*
X6518563Y-20617531D02*
X6566182Y-20617531D01*
X6566182Y-20617531D02*
X6585230Y-20627055D01*
X6585230Y-20627055D02*
X6594754Y-20636578D01*
X6594754Y-20636578D02*
X6604277Y-20655626D01*
X6604277Y-20655626D02*
X6604277Y-20674674D01*
X6604277Y-20674674D02*
X6594754Y-20703245D01*
X6594754Y-20703245D02*
X6480468Y-20817531D01*
X6480468Y-20817531D02*
X6604277Y-20817531D01*
X6842373Y-20817531D02*
X6842373Y-20617531D01*
X6928087Y-20817531D02*
X6928087Y-20712769D01*
X6928087Y-20712769D02*
X6918563Y-20693721D01*
X6918563Y-20693721D02*
X6899516Y-20684197D01*
X6899516Y-20684197D02*
X6870944Y-20684197D01*
X6870944Y-20684197D02*
X6851896Y-20693721D01*
X6851896Y-20693721D02*
X6842373Y-20703245D01*
X7051896Y-20817531D02*
X7032849Y-20808007D01*
X7032849Y-20808007D02*
X7023325Y-20798483D01*
X7023325Y-20798483D02*
X7013801Y-20779435D01*
X7013801Y-20779435D02*
X7013801Y-20722293D01*
X7013801Y-20722293D02*
X7023325Y-20703245D01*
X7023325Y-20703245D02*
X7032849Y-20693721D01*
X7032849Y-20693721D02*
X7051896Y-20684197D01*
X7051896Y-20684197D02*
X7080468Y-20684197D01*
X7080468Y-20684197D02*
X7099516Y-20693721D01*
X7099516Y-20693721D02*
X7109039Y-20703245D01*
X7109039Y-20703245D02*
X7118563Y-20722293D01*
X7118563Y-20722293D02*
X7118563Y-20779435D01*
X7118563Y-20779435D02*
X7109039Y-20798483D01*
X7109039Y-20798483D02*
X7099516Y-20808007D01*
X7099516Y-20808007D02*
X7080468Y-20817531D01*
X7080468Y-20817531D02*
X7051896Y-20817531D01*
X7232849Y-20817531D02*
X7213801Y-20808007D01*
X7213801Y-20808007D02*
X7204277Y-20788959D01*
X7204277Y-20788959D02*
X7204277Y-20617531D01*
X7385230Y-20808007D02*
X7366182Y-20817531D01*
X7366182Y-20817531D02*
X7328087Y-20817531D01*
X7328087Y-20817531D02*
X7309039Y-20808007D01*
X7309039Y-20808007D02*
X7299516Y-20788959D01*
X7299516Y-20788959D02*
X7299516Y-20712769D01*
X7299516Y-20712769D02*
X7309039Y-20693721D01*
X7309039Y-20693721D02*
X7328087Y-20684197D01*
X7328087Y-20684197D02*
X7366182Y-20684197D01*
X7366182Y-20684197D02*
X7385230Y-20693721D01*
X7385230Y-20693721D02*
X7394754Y-20712769D01*
X7394754Y-20712769D02*
X7394754Y-20731816D01*
X7394754Y-20731816D02*
X7299516Y-20750864D01*
X7470944Y-20808007D02*
X7489992Y-20817531D01*
X7489992Y-20817531D02*
X7528087Y-20817531D01*
X7528087Y-20817531D02*
X7547135Y-20808007D01*
X7547135Y-20808007D02*
X7556658Y-20788959D01*
X7556658Y-20788959D02*
X7556658Y-20779435D01*
X7556658Y-20779435D02*
X7547135Y-20760388D01*
X7547135Y-20760388D02*
X7528087Y-20750864D01*
X7528087Y-20750864D02*
X7499516Y-20750864D01*
X7499516Y-20750864D02*
X7480468Y-20741340D01*
X7480468Y-20741340D02*
X7470944Y-20722293D01*
X7470944Y-20722293D02*
X7470944Y-20712769D01*
X7470944Y-20712769D02*
X7480468Y-20693721D01*
X7480468Y-20693721D02*
X7499516Y-20684197D01*
X7499516Y-20684197D02*
X7528087Y-20684197D01*
X7528087Y-20684197D02*
X7547135Y-20693721D01*
X7623325Y-20893721D02*
X7632849Y-20884197D01*
X7632849Y-20884197D02*
X7651897Y-20855626D01*
X7651897Y-20855626D02*
X7661420Y-20836578D01*
X7661420Y-20836578D02*
X7670944Y-20808007D01*
X7670944Y-20808007D02*
X7680468Y-20760388D01*
X7680468Y-20760388D02*
X7680468Y-20722293D01*
X7680468Y-20722293D02*
X7670944Y-20674674D01*
X7670944Y-20674674D02*
X7661420Y-20646102D01*
X7661420Y-20646102D02*
X7651897Y-20627055D01*
X7651897Y-20627055D02*
X7632849Y-20598483D01*
X7632849Y-20598483D02*
X7623325Y-20588959D01*
X7985230Y-20893721D02*
X7975706Y-20884197D01*
X7975706Y-20884197D02*
X7956658Y-20855626D01*
X7956658Y-20855626D02*
X7947135Y-20836578D01*
X7947135Y-20836578D02*
X7937611Y-20808007D01*
X7937611Y-20808007D02*
X7928087Y-20760388D01*
X7928087Y-20760388D02*
X7928087Y-20722293D01*
X7928087Y-20722293D02*
X7937611Y-20674674D01*
X7937611Y-20674674D02*
X7947135Y-20646102D01*
X7947135Y-20646102D02*
X7956658Y-20627055D01*
X7956658Y-20627055D02*
X7975706Y-20598483D01*
X7975706Y-20598483D02*
X7985230Y-20588959D01*
X8061420Y-20684197D02*
X8061420Y-20817531D01*
X8061420Y-20703245D02*
X8070944Y-20693721D01*
X8070944Y-20693721D02*
X8089992Y-20684197D01*
X8089992Y-20684197D02*
X8118563Y-20684197D01*
X8118563Y-20684197D02*
X8137611Y-20693721D01*
X8137611Y-20693721D02*
X8147135Y-20712769D01*
X8147135Y-20712769D02*
X8147135Y-20817531D01*
X8270944Y-20817531D02*
X8251897Y-20808007D01*
X8251897Y-20808007D02*
X8242373Y-20798483D01*
X8242373Y-20798483D02*
X8232849Y-20779435D01*
X8232849Y-20779435D02*
X8232849Y-20722293D01*
X8232849Y-20722293D02*
X8242373Y-20703245D01*
X8242373Y-20703245D02*
X8251897Y-20693721D01*
X8251897Y-20693721D02*
X8270944Y-20684197D01*
X8270944Y-20684197D02*
X8299516Y-20684197D01*
X8299516Y-20684197D02*
X8318563Y-20693721D01*
X8318563Y-20693721D02*
X8328087Y-20703245D01*
X8328087Y-20703245D02*
X8337611Y-20722293D01*
X8337611Y-20722293D02*
X8337611Y-20779435D01*
X8337611Y-20779435D02*
X8328087Y-20798483D01*
X8328087Y-20798483D02*
X8318563Y-20808007D01*
X8318563Y-20808007D02*
X8299516Y-20817531D01*
X8299516Y-20817531D02*
X8270944Y-20817531D01*
X8394754Y-20684197D02*
X8470944Y-20684197D01*
X8423325Y-20617531D02*
X8423325Y-20788959D01*
X8423325Y-20788959D02*
X8432849Y-20808007D01*
X8432849Y-20808007D02*
X8451897Y-20817531D01*
X8451897Y-20817531D02*
X8470944Y-20817531D01*
X8689992Y-20684197D02*
X8689992Y-20884197D01*
X8689992Y-20693721D02*
X8709040Y-20684197D01*
X8709040Y-20684197D02*
X8747135Y-20684197D01*
X8747135Y-20684197D02*
X8766182Y-20693721D01*
X8766182Y-20693721D02*
X8775706Y-20703245D01*
X8775706Y-20703245D02*
X8785230Y-20722293D01*
X8785230Y-20722293D02*
X8785230Y-20779435D01*
X8785230Y-20779435D02*
X8775706Y-20798483D01*
X8775706Y-20798483D02*
X8766182Y-20808007D01*
X8766182Y-20808007D02*
X8747135Y-20817531D01*
X8747135Y-20817531D02*
X8709040Y-20817531D01*
X8709040Y-20817531D02*
X8689992Y-20808007D01*
X8899516Y-20817531D02*
X8880468Y-20808007D01*
X8880468Y-20808007D02*
X8870944Y-20788959D01*
X8870944Y-20788959D02*
X8870944Y-20617531D01*
X9061421Y-20817531D02*
X9061421Y-20712769D01*
X9061421Y-20712769D02*
X9051897Y-20693721D01*
X9051897Y-20693721D02*
X9032849Y-20684197D01*
X9032849Y-20684197D02*
X8994754Y-20684197D01*
X8994754Y-20684197D02*
X8975706Y-20693721D01*
X9061421Y-20808007D02*
X9042373Y-20817531D01*
X9042373Y-20817531D02*
X8994754Y-20817531D01*
X8994754Y-20817531D02*
X8975706Y-20808007D01*
X8975706Y-20808007D02*
X8966182Y-20788959D01*
X8966182Y-20788959D02*
X8966182Y-20769912D01*
X8966182Y-20769912D02*
X8975706Y-20750864D01*
X8975706Y-20750864D02*
X8994754Y-20741340D01*
X8994754Y-20741340D02*
X9042373Y-20741340D01*
X9042373Y-20741340D02*
X9061421Y-20731816D01*
X9128087Y-20684197D02*
X9204278Y-20684197D01*
X9156659Y-20617531D02*
X9156659Y-20788959D01*
X9156659Y-20788959D02*
X9166182Y-20808007D01*
X9166182Y-20808007D02*
X9185230Y-20817531D01*
X9185230Y-20817531D02*
X9204278Y-20817531D01*
X9347135Y-20808007D02*
X9328087Y-20817531D01*
X9328087Y-20817531D02*
X9289992Y-20817531D01*
X9289992Y-20817531D02*
X9270944Y-20808007D01*
X9270944Y-20808007D02*
X9261421Y-20788959D01*
X9261421Y-20788959D02*
X9261421Y-20712769D01*
X9261421Y-20712769D02*
X9270944Y-20693721D01*
X9270944Y-20693721D02*
X9289992Y-20684197D01*
X9289992Y-20684197D02*
X9328087Y-20684197D01*
X9328087Y-20684197D02*
X9347135Y-20693721D01*
X9347135Y-20693721D02*
X9356659Y-20712769D01*
X9356659Y-20712769D02*
X9356659Y-20731816D01*
X9356659Y-20731816D02*
X9261421Y-20750864D01*
X9528087Y-20817531D02*
X9528087Y-20617531D01*
X9528087Y-20808007D02*
X9509040Y-20817531D01*
X9509040Y-20817531D02*
X9470944Y-20817531D01*
X9470944Y-20817531D02*
X9451897Y-20808007D01*
X9451897Y-20808007D02*
X9442373Y-20798483D01*
X9442373Y-20798483D02*
X9432849Y-20779435D01*
X9432849Y-20779435D02*
X9432849Y-20722293D01*
X9432849Y-20722293D02*
X9442373Y-20703245D01*
X9442373Y-20703245D02*
X9451897Y-20693721D01*
X9451897Y-20693721D02*
X9470944Y-20684197D01*
X9470944Y-20684197D02*
X9509040Y-20684197D01*
X9509040Y-20684197D02*
X9528087Y-20693721D01*
X9604278Y-20893721D02*
X9613802Y-20884197D01*
X9613802Y-20884197D02*
X9632849Y-20855626D01*
X9632849Y-20855626D02*
X9642373Y-20836578D01*
X9642373Y-20836578D02*
X9651897Y-20808007D01*
X9651897Y-20808007D02*
X9661421Y-20760388D01*
X9661421Y-20760388D02*
X9661421Y-20722293D01*
X9661421Y-20722293D02*
X9651897Y-20674674D01*
X9651897Y-20674674D02*
X9642373Y-20646102D01*
X9642373Y-20646102D02*
X9632849Y-20627055D01*
X9632849Y-20627055D02*
X9613802Y-20598483D01*
X9613802Y-20598483D02*
X9604278Y-20588959D01*
M02*
