%TF.GenerationSoftware,KiCad,Pcbnew,7.0.1*%
%TF.CreationDate,2023-05-06T23:27:47+01:00*%
%TF.ProjectId,CPC464-2MINIITX,43504334-3634-42d3-924d-494e49495458,rev?*%
%TF.SameCoordinates,Original*%
%TF.FileFunction,Paste,Top*%
%TF.FilePolarity,Positive*%
%FSLAX46Y46*%
G04 Gerber Fmt 4.6, Leading zero omitted, Abs format (unit mm)*
G04 Created by KiCad (PCBNEW 7.0.1) date 2023-05-06 23:27:47*
%MOMM*%
%LPD*%
G01*
G04 APERTURE LIST*
G04 Aperture macros list*
%AMRoundRect*
0 Rectangle with rounded corners*
0 $1 Rounding radius*
0 $2 $3 $4 $5 $6 $7 $8 $9 X,Y pos of 4 corners*
0 Add a 4 corners polygon primitive as box body*
4,1,4,$2,$3,$4,$5,$6,$7,$8,$9,$2,$3,0*
0 Add four circle primitives for the rounded corners*
1,1,$1+$1,$2,$3*
1,1,$1+$1,$4,$5*
1,1,$1+$1,$6,$7*
1,1,$1+$1,$8,$9*
0 Add four rect primitives between the rounded corners*
20,1,$1+$1,$2,$3,$4,$5,0*
20,1,$1+$1,$4,$5,$6,$7,0*
20,1,$1+$1,$6,$7,$8,$9,0*
20,1,$1+$1,$8,$9,$2,$3,0*%
%AMFreePoly0*
4,1,9,3.862500,-0.866500,0.737500,-0.866500,0.737500,-0.450000,-0.737500,-0.450000,-0.737500,0.450000,0.737500,0.450000,0.737500,0.866500,3.862500,0.866500,3.862500,-0.866500,3.862500,-0.866500,$1*%
G04 Aperture macros list end*
%ADD10R,1.600000X0.550000*%
%ADD11R,0.550000X1.600000*%
%ADD12RoundRect,0.250000X-0.262500X-0.450000X0.262500X-0.450000X0.262500X0.450000X-0.262500X0.450000X0*%
%ADD13RoundRect,0.250000X0.475000X-0.250000X0.475000X0.250000X-0.475000X0.250000X-0.475000X-0.250000X0*%
%ADD14RoundRect,0.150000X0.150000X-0.825000X0.150000X0.825000X-0.150000X0.825000X-0.150000X-0.825000X0*%
%ADD15RoundRect,0.250000X-0.450000X0.262500X-0.450000X-0.262500X0.450000X-0.262500X0.450000X0.262500X0*%
%ADD16RoundRect,0.150000X-0.875000X-0.150000X0.875000X-0.150000X0.875000X0.150000X-0.875000X0.150000X0*%
%ADD17RoundRect,0.250000X0.262500X0.450000X-0.262500X0.450000X-0.262500X-0.450000X0.262500X-0.450000X0*%
%ADD18RoundRect,0.250000X0.250000X0.475000X-0.250000X0.475000X-0.250000X-0.475000X0.250000X-0.475000X0*%
%ADD19RoundRect,0.250000X-0.250000X-0.475000X0.250000X-0.475000X0.250000X0.475000X-0.250000X0.475000X0*%
%ADD20RoundRect,0.150000X-0.825000X-0.150000X0.825000X-0.150000X0.825000X0.150000X-0.825000X0.150000X0*%
%ADD21RoundRect,0.250000X-0.475000X0.250000X-0.475000X-0.250000X0.475000X-0.250000X0.475000X0.250000X0*%
%ADD22RoundRect,0.150000X0.587500X0.150000X-0.587500X0.150000X-0.587500X-0.150000X0.587500X-0.150000X0*%
%ADD23RoundRect,0.250000X0.375000X0.625000X-0.375000X0.625000X-0.375000X-0.625000X0.375000X-0.625000X0*%
%ADD24RoundRect,0.225000X-0.225000X-0.375000X0.225000X-0.375000X0.225000X0.375000X-0.225000X0.375000X0*%
%ADD25RoundRect,0.250000X0.450000X-0.262500X0.450000X0.262500X-0.450000X0.262500X-0.450000X-0.262500X0*%
%ADD26R,0.900000X1.300000*%
%ADD27FreePoly0,90.000000*%
%ADD28RoundRect,0.250000X-0.375000X-0.625000X0.375000X-0.625000X0.375000X0.625000X-0.375000X0.625000X0*%
%ADD29RoundRect,0.150000X-0.587500X-0.150000X0.587500X-0.150000X0.587500X0.150000X-0.587500X0.150000X0*%
%ADD30R,0.550000X1.500000*%
%ADD31R,1.500000X0.550000*%
%ADD32RoundRect,0.150000X0.150000X-0.875000X0.150000X0.875000X-0.150000X0.875000X-0.150000X-0.875000X0*%
%ADD33RoundRect,0.225000X0.375000X-0.225000X0.375000X0.225000X-0.375000X0.225000X-0.375000X-0.225000X0*%
%ADD34R,1.300000X0.900000*%
%ADD35FreePoly0,0.000000*%
G04 APERTURE END LIST*
D10*
%TO.C,IC800*%
X155650000Y-61300000D03*
X155650000Y-62100000D03*
X155650000Y-62900000D03*
X155650000Y-63700000D03*
X155650000Y-64500000D03*
X155650000Y-65300000D03*
X155650000Y-66100000D03*
X155650000Y-66900000D03*
D11*
X157100000Y-68350000D03*
X157900000Y-68350000D03*
X158700000Y-68350000D03*
X159500000Y-68350000D03*
X160300000Y-68350000D03*
X161100000Y-68350000D03*
X161900000Y-68350000D03*
X162700000Y-68350000D03*
D10*
X164150000Y-66900000D03*
X164150000Y-66100000D03*
X164150000Y-65300000D03*
X164150000Y-64500000D03*
X164150000Y-63700000D03*
X164150000Y-62900000D03*
X164150000Y-62100000D03*
X164150000Y-61300000D03*
D11*
X162700000Y-59850000D03*
X161900000Y-59850000D03*
X161100000Y-59850000D03*
X160300000Y-59850000D03*
X159500000Y-59850000D03*
X158700000Y-59850000D03*
X157900000Y-59850000D03*
X157100000Y-59850000D03*
%TD*%
D12*
%TO.C,R126*%
X174451700Y-54144800D03*
X176276700Y-54144800D03*
%TD*%
%TO.C,R120*%
X84255600Y-42729000D03*
X86080600Y-42729000D03*
%TD*%
%TO.C,R114*%
X65096500Y-39300000D03*
X66921500Y-39300000D03*
%TD*%
%TO.C,R314*%
X54662500Y-32450000D03*
X56487500Y-32450000D03*
%TD*%
D13*
%TO.C,C409*%
X102072600Y-97200000D03*
X102072600Y-95300000D03*
%TD*%
D14*
%TO.C,IC110*%
X69740000Y-72525000D03*
X71010000Y-72525000D03*
X72280000Y-72525000D03*
X73550000Y-72525000D03*
X74820000Y-72525000D03*
X76090000Y-72525000D03*
X77360000Y-72525000D03*
X77360000Y-67575000D03*
X76090000Y-67575000D03*
X74820000Y-67575000D03*
X73550000Y-67575000D03*
X72280000Y-67575000D03*
X71010000Y-67575000D03*
X69740000Y-67575000D03*
%TD*%
D12*
%TO.C,R317*%
X47514000Y-32450000D03*
X49339000Y-32450000D03*
%TD*%
%TO.C,R457*%
X164087500Y-107950000D03*
X165912500Y-107950000D03*
%TD*%
D15*
%TO.C,R402*%
X185729500Y-114300000D03*
X185729500Y-116125000D03*
%TD*%
D16*
%TO.C,IC403*%
X170150000Y-103790000D03*
X170150000Y-105060000D03*
X170150000Y-106330000D03*
X170150000Y-107600000D03*
X170150000Y-108870000D03*
X170150000Y-110140000D03*
X170150000Y-111410000D03*
X170150000Y-112680000D03*
X170150000Y-113950000D03*
X170150000Y-115220000D03*
X179450000Y-115220000D03*
X179450000Y-113950000D03*
X179450000Y-112680000D03*
X179450000Y-111410000D03*
X179450000Y-110140000D03*
X179450000Y-108870000D03*
X179450000Y-107600000D03*
X179450000Y-106330000D03*
X179450000Y-105060000D03*
X179450000Y-103790000D03*
%TD*%
D12*
%TO.C,R134*%
X178007700Y-64635000D03*
X179832700Y-64635000D03*
%TD*%
D17*
%TO.C,R156*%
X120800000Y-120200000D03*
X118975000Y-120200000D03*
%TD*%
D16*
%TO.C,IC114*%
X90450000Y-177985000D03*
X90450000Y-179255000D03*
X90450000Y-180525000D03*
X90450000Y-181795000D03*
X90450000Y-183065000D03*
X90450000Y-184335000D03*
X90450000Y-185605000D03*
X90450000Y-186875000D03*
X90450000Y-188145000D03*
X90450000Y-189415000D03*
X99750000Y-189415000D03*
X99750000Y-188145000D03*
X99750000Y-186875000D03*
X99750000Y-185605000D03*
X99750000Y-184335000D03*
X99750000Y-183065000D03*
X99750000Y-181795000D03*
X99750000Y-180525000D03*
X99750000Y-179255000D03*
X99750000Y-177985000D03*
%TD*%
D12*
%TO.C,R119*%
X80775800Y-42729000D03*
X82600800Y-42729000D03*
%TD*%
D18*
%TO.C,C703*%
X129670000Y-170051800D03*
X127770000Y-170051800D03*
%TD*%
D12*
%TO.C,R316*%
X51050000Y-32450000D03*
X52875000Y-32450000D03*
%TD*%
D15*
%TO.C,R1071*%
X178800000Y-138287500D03*
X178800000Y-140112500D03*
%TD*%
D13*
%TO.C,C125*%
X131317600Y-67600000D03*
X131317600Y-65700000D03*
%TD*%
D19*
%TO.C,C1070*%
X177860200Y-130609400D03*
X179760200Y-130609400D03*
%TD*%
D18*
%TO.C,C132*%
X94775400Y-74500000D03*
X92875400Y-74500000D03*
%TD*%
D17*
%TO.C,R158*%
X92737500Y-150518800D03*
X90912500Y-150518800D03*
%TD*%
D12*
%TO.C,R161*%
X98462500Y-154600000D03*
X100287500Y-154600000D03*
%TD*%
%TO.C,R136*%
X174451700Y-64635000D03*
X176276700Y-64635000D03*
%TD*%
D17*
%TO.C,R416*%
X86562500Y-91236800D03*
X84737500Y-91236800D03*
%TD*%
D20*
%TO.C,IC105*%
X70500000Y-142415000D03*
X70500000Y-143685000D03*
X70500000Y-144955000D03*
X70500000Y-146225000D03*
X70500000Y-147495000D03*
X70500000Y-148765000D03*
X70500000Y-150035000D03*
X70500000Y-151305000D03*
X75450000Y-151305000D03*
X75450000Y-150035000D03*
X75450000Y-148765000D03*
X75450000Y-147495000D03*
X75450000Y-146225000D03*
X75450000Y-144955000D03*
X75450000Y-143685000D03*
X75450000Y-142415000D03*
%TD*%
D18*
%TO.C,C706*%
X159670000Y-170051800D03*
X157770000Y-170051800D03*
%TD*%
D21*
%TO.C,C406*%
X80341800Y-96225000D03*
X80341800Y-98125000D03*
%TD*%
D22*
%TO.C,Q350*%
X65900000Y-34500000D03*
X65900000Y-32600000D03*
X64025000Y-33550000D03*
%TD*%
D12*
%TO.C,R127*%
X178007700Y-50563400D03*
X179832700Y-50563400D03*
%TD*%
D23*
%TO.C,D900*%
X162550000Y-76950000D03*
X159750000Y-76950000D03*
%TD*%
D24*
%TO.C,D401*%
X112991300Y-77950800D03*
X116291300Y-77950800D03*
%TD*%
D14*
%TO.C,IC125*%
X84850000Y-70900000D03*
X86120000Y-70900000D03*
X87390000Y-70900000D03*
X88660000Y-70900000D03*
X89930000Y-70900000D03*
X91200000Y-70900000D03*
X92470000Y-70900000D03*
X92470000Y-65950000D03*
X91200000Y-65950000D03*
X89930000Y-65950000D03*
X88660000Y-65950000D03*
X87390000Y-65950000D03*
X86120000Y-65950000D03*
X84850000Y-65950000D03*
%TD*%
D19*
%TO.C,C135*%
X185361600Y-57675400D03*
X187261600Y-57675400D03*
%TD*%
D17*
%TO.C,R112*%
X80312500Y-90100000D03*
X78487500Y-90100000D03*
%TD*%
D20*
%TO.C,IC104*%
X70500000Y-183960000D03*
X70500000Y-185230000D03*
X70500000Y-186500000D03*
X70500000Y-187770000D03*
X70500000Y-189040000D03*
X70500000Y-190310000D03*
X70500000Y-191580000D03*
X70500000Y-192850000D03*
X75450000Y-192850000D03*
X75450000Y-191580000D03*
X75450000Y-190310000D03*
X75450000Y-189040000D03*
X75450000Y-187770000D03*
X75450000Y-186500000D03*
X75450000Y-185230000D03*
X75450000Y-183960000D03*
%TD*%
D19*
%TO.C,C802*%
X158950000Y-55950000D03*
X160850000Y-55950000D03*
%TD*%
D13*
%TO.C,C407*%
X116181800Y-97200000D03*
X116181800Y-95300000D03*
%TD*%
D18*
%TO.C,C115*%
X96050000Y-192570000D03*
X94150000Y-192570000D03*
%TD*%
D20*
%TO.C,IC1070*%
X189803000Y-126873000D03*
X189803000Y-128143000D03*
X189803000Y-129413000D03*
X189803000Y-130683000D03*
X194753000Y-130683000D03*
X194753000Y-129413000D03*
X194753000Y-128143000D03*
X194753000Y-126873000D03*
%TD*%
D18*
%TO.C,C801*%
X161196000Y-49528000D03*
X159296000Y-49528000D03*
%TD*%
D14*
%TO.C,IC901*%
X32340000Y-170675000D03*
X33610000Y-170675000D03*
X34880000Y-170675000D03*
X36150000Y-170675000D03*
X37420000Y-170675000D03*
X38690000Y-170675000D03*
X39960000Y-170675000D03*
X39960000Y-165725000D03*
X38690000Y-165725000D03*
X37420000Y-165725000D03*
X36150000Y-165725000D03*
X34880000Y-165725000D03*
X33610000Y-165725000D03*
X32340000Y-165725000D03*
%TD*%
D21*
%TO.C,C118*%
X46064000Y-182461000D03*
X46064000Y-184361000D03*
%TD*%
D16*
%TO.C,IC115*%
X90450000Y-158785000D03*
X90450000Y-160055000D03*
X90450000Y-161325000D03*
X90450000Y-162595000D03*
X90450000Y-163865000D03*
X90450000Y-165135000D03*
X90450000Y-166405000D03*
X90450000Y-167675000D03*
X90450000Y-168945000D03*
X90450000Y-170215000D03*
X99750000Y-170215000D03*
X99750000Y-168945000D03*
X99750000Y-167675000D03*
X99750000Y-166405000D03*
X99750000Y-165135000D03*
X99750000Y-163865000D03*
X99750000Y-162595000D03*
X99750000Y-161325000D03*
X99750000Y-160055000D03*
X99750000Y-158785000D03*
%TD*%
D20*
%TO.C,IC113*%
X70500000Y-170840000D03*
X70500000Y-172110000D03*
X70500000Y-173380000D03*
X70500000Y-174650000D03*
X70500000Y-175920000D03*
X70500000Y-177190000D03*
X70500000Y-178460000D03*
X70500000Y-179730000D03*
X75450000Y-179730000D03*
X75450000Y-178460000D03*
X75450000Y-177190000D03*
X75450000Y-175920000D03*
X75450000Y-174650000D03*
X75450000Y-173380000D03*
X75450000Y-172110000D03*
X75450000Y-170840000D03*
%TD*%
D12*
%TO.C,R160*%
X99637500Y-194550000D03*
X101462500Y-194550000D03*
%TD*%
D25*
%TO.C,R404*%
X185729500Y-107590600D03*
X185729500Y-105765600D03*
%TD*%
D19*
%TO.C,C317*%
X47476500Y-35770000D03*
X49376500Y-35770000D03*
%TD*%
D25*
%TO.C,R1070*%
X176818800Y-140112500D03*
X176818800Y-138287500D03*
%TD*%
D18*
%TO.C,C705*%
X149670000Y-170051800D03*
X147770000Y-170051800D03*
%TD*%
D13*
%TO.C,C404*%
X157605000Y-117915000D03*
X157605000Y-116015000D03*
%TD*%
D12*
%TO.C,R116*%
X72217900Y-39300000D03*
X74042900Y-39300000D03*
%TD*%
D25*
%TO.C,R101*%
X98040400Y-76887100D03*
X98040400Y-75062100D03*
%TD*%
D13*
%TO.C,C113*%
X80433400Y-70989800D03*
X80433400Y-69089800D03*
%TD*%
D12*
%TO.C,R155*%
X78487500Y-86050000D03*
X80312500Y-86050000D03*
%TD*%
%TO.C,R122*%
X66805800Y-42729000D03*
X68630800Y-42729000D03*
%TD*%
D17*
%TO.C,R313*%
X60075000Y-35740000D03*
X58250000Y-35740000D03*
%TD*%
D20*
%TO.C,IC109*%
X70500000Y-157740000D03*
X70500000Y-159010000D03*
X70500000Y-160280000D03*
X70500000Y-161550000D03*
X70500000Y-162820000D03*
X70500000Y-164090000D03*
X70500000Y-165360000D03*
X70500000Y-166630000D03*
X75450000Y-166630000D03*
X75450000Y-165360000D03*
X75450000Y-164090000D03*
X75450000Y-162820000D03*
X75450000Y-161550000D03*
X75450000Y-160280000D03*
X75450000Y-159010000D03*
X75450000Y-157740000D03*
%TD*%
D17*
%TO.C,R310*%
X56487500Y-35740000D03*
X54662500Y-35740000D03*
%TD*%
D12*
%TO.C,R453*%
X177987500Y-126900000D03*
X179812500Y-126900000D03*
%TD*%
%TO.C,R805*%
X162537500Y-55950000D03*
X164362500Y-55950000D03*
%TD*%
%TO.C,R110*%
X69887500Y-90100000D03*
X71712500Y-90100000D03*
%TD*%
D15*
%TO.C,R452*%
X185729500Y-110083600D03*
X185729500Y-111908600D03*
%TD*%
D19*
%TO.C,C413*%
X178232800Y-99842400D03*
X180132800Y-99842400D03*
%TD*%
D12*
%TO.C,R130*%
X181487500Y-54144800D03*
X183312500Y-54144800D03*
%TD*%
%TO.C,R125*%
X174451700Y-50563400D03*
X176276700Y-50563400D03*
%TD*%
D19*
%TO.C,C134*%
X185361600Y-54170200D03*
X187261600Y-54170200D03*
%TD*%
D17*
%TO.C,R105*%
X53185700Y-39624000D03*
X51360700Y-39624000D03*
%TD*%
D18*
%TO.C,C456*%
X166245000Y-124100000D03*
X164345000Y-124100000D03*
%TD*%
D12*
%TO.C,R150*%
X90912500Y-154468800D03*
X92737500Y-154468800D03*
%TD*%
%TO.C,R411*%
X84737500Y-99562500D03*
X86562500Y-99562500D03*
%TD*%
%TO.C,R406*%
X118337500Y-77950000D03*
X120162500Y-77950000D03*
%TD*%
D21*
%TO.C,C403*%
X173650000Y-83350000D03*
X173650000Y-85250000D03*
%TD*%
D13*
%TO.C,C116*%
X167920000Y-142300000D03*
X167920000Y-140400000D03*
%TD*%
D18*
%TO.C,C130*%
X94775400Y-78741800D03*
X92875400Y-78741800D03*
%TD*%
D12*
%TO.C,R147*%
X90912500Y-146568800D03*
X92737500Y-146568800D03*
%TD*%
D15*
%TO.C,R145*%
X107159000Y-75060200D03*
X107159000Y-76885200D03*
%TD*%
D17*
%TO.C,R157*%
X100312500Y-142731200D03*
X98487500Y-142731200D03*
%TD*%
D21*
%TO.C,C104*%
X95518000Y-67475000D03*
X95518000Y-69375000D03*
%TD*%
D12*
%TO.C,R115*%
X68661900Y-39300000D03*
X70486900Y-39300000D03*
%TD*%
D15*
%TO.C,R111*%
X102815600Y-75062100D03*
X102815600Y-76887100D03*
%TD*%
D26*
%TO.C,Q1070*%
X183678000Y-130578000D03*
D27*
X185178000Y-130490500D03*
D26*
X186678000Y-130578000D03*
%TD*%
D14*
%TO.C,IC407*%
X69750000Y-99650000D03*
X71020000Y-99650000D03*
X72290000Y-99650000D03*
X73560000Y-99650000D03*
X74830000Y-99650000D03*
X76100000Y-99650000D03*
X77370000Y-99650000D03*
X77370000Y-94700000D03*
X76100000Y-94700000D03*
X74830000Y-94700000D03*
X73560000Y-94700000D03*
X72290000Y-94700000D03*
X71020000Y-94700000D03*
X69750000Y-94700000D03*
%TD*%
D17*
%TO.C,R106*%
X49705900Y-39624000D03*
X47880900Y-39624000D03*
%TD*%
D18*
%TO.C,C117*%
X36810200Y-136058800D03*
X34910200Y-136058800D03*
%TD*%
D21*
%TO.C,C127*%
X78375000Y-190935000D03*
X78375000Y-192835000D03*
%TD*%
%TO.C,C410*%
X102072600Y-85900000D03*
X102072600Y-87800000D03*
%TD*%
D28*
%TO.C,D450*%
X169402400Y-122783600D03*
X172202400Y-122783600D03*
%TD*%
D12*
%TO.C,R417*%
X84737500Y-87312500D03*
X86562500Y-87312500D03*
%TD*%
D19*
%TO.C,C126*%
X72025000Y-154510000D03*
X73925000Y-154510000D03*
%TD*%
D12*
%TO.C,R146*%
X90912500Y-148550000D03*
X92737500Y-148550000D03*
%TD*%
%TO.C,R418*%
X84737500Y-95250000D03*
X86562500Y-95250000D03*
%TD*%
D21*
%TO.C,C411*%
X116181800Y-85900000D03*
X116181800Y-87800000D03*
%TD*%
D29*
%TO.C,Q102*%
X183412500Y-61600000D03*
X183412500Y-63500000D03*
X185287500Y-62550000D03*
%TD*%
D14*
%TO.C,IC412*%
X91430000Y-89325000D03*
X92700000Y-89325000D03*
X93970000Y-89325000D03*
X95240000Y-89325000D03*
X96510000Y-89325000D03*
X97780000Y-89325000D03*
X99050000Y-89325000D03*
X99050000Y-84375000D03*
X97780000Y-84375000D03*
X96510000Y-84375000D03*
X95240000Y-84375000D03*
X93970000Y-84375000D03*
X92700000Y-84375000D03*
X91430000Y-84375000D03*
%TD*%
D20*
%TO.C,IC112*%
X33375000Y-125340000D03*
X33375000Y-126610000D03*
X33375000Y-127880000D03*
X33375000Y-129150000D03*
X33375000Y-130420000D03*
X33375000Y-131690000D03*
X33375000Y-132960000D03*
X38325000Y-132960000D03*
X38325000Y-131690000D03*
X38325000Y-130420000D03*
X38325000Y-129150000D03*
X38325000Y-127880000D03*
X38325000Y-126610000D03*
X38325000Y-125340000D03*
%TD*%
D12*
%TO.C,R123*%
X70311000Y-42729000D03*
X72136000Y-42729000D03*
%TD*%
%TO.C,R117*%
X73790800Y-42729000D03*
X75615800Y-42729000D03*
%TD*%
D30*
%TO.C,IC803*%
X140550000Y-57000000D03*
X141350000Y-57000000D03*
X142150000Y-57000000D03*
X142950000Y-57000000D03*
X143750000Y-57000000D03*
X144550000Y-57000000D03*
X145350000Y-57000000D03*
X146150000Y-57000000D03*
X146950000Y-57000000D03*
X147750000Y-57000000D03*
X148550000Y-57000000D03*
D31*
X150250000Y-58700000D03*
X150250000Y-59500000D03*
X150250000Y-60300000D03*
X150250000Y-61100000D03*
X150250000Y-61900000D03*
X150250000Y-62700000D03*
X150250000Y-63500000D03*
X150250000Y-64300000D03*
X150250000Y-65100000D03*
X150250000Y-65900000D03*
X150250000Y-66700000D03*
D30*
X148550000Y-68400000D03*
X147750000Y-68400000D03*
X146950000Y-68400000D03*
X146150000Y-68400000D03*
X145350000Y-68400000D03*
X144550000Y-68400000D03*
X143750000Y-68400000D03*
X142950000Y-68400000D03*
X142150000Y-68400000D03*
X141350000Y-68400000D03*
X140550000Y-68400000D03*
D31*
X138850000Y-66700000D03*
X138850000Y-65900000D03*
X138850000Y-65100000D03*
X138850000Y-64300000D03*
X138850000Y-63500000D03*
X138850000Y-62700000D03*
X138850000Y-61900000D03*
X138850000Y-61100000D03*
X138850000Y-60300000D03*
X138850000Y-59500000D03*
X138850000Y-58700000D03*
%TD*%
D18*
%TO.C,C702*%
X119670000Y-170051800D03*
X117770000Y-170051800D03*
%TD*%
D12*
%TO.C,R121*%
X63275200Y-42729000D03*
X65100200Y-42729000D03*
%TD*%
D19*
%TO.C,C455*%
X164050000Y-111600000D03*
X165950000Y-111600000D03*
%TD*%
D12*
%TO.C,R109*%
X69837500Y-86037500D03*
X71662500Y-86037500D03*
%TD*%
D18*
%TO.C,C454*%
X165950000Y-115250000D03*
X164050000Y-115250000D03*
%TD*%
D19*
%TO.C,C800*%
X155552000Y-49528000D03*
X157452000Y-49528000D03*
%TD*%
D12*
%TO.C,R454*%
X159900000Y-115312500D03*
X161725000Y-115312500D03*
%TD*%
D21*
%TO.C,C137*%
X42890000Y-51775000D03*
X42890000Y-53675000D03*
%TD*%
D12*
%TO.C,R151*%
X90912500Y-152487600D03*
X92737500Y-152487600D03*
%TD*%
D19*
%TO.C,C133*%
X185361600Y-50588800D03*
X187261600Y-50588800D03*
%TD*%
D18*
%TO.C,C701*%
X109670000Y-170051800D03*
X107770000Y-170051800D03*
%TD*%
%TO.C,C131*%
X94775400Y-76608200D03*
X92875400Y-76608200D03*
%TD*%
D12*
%TO.C,R455*%
X159900000Y-111625000D03*
X161725000Y-111625000D03*
%TD*%
D18*
%TO.C,C704*%
X139670000Y-170051800D03*
X137770000Y-170051800D03*
%TD*%
D21*
%TO.C,C102*%
X105000000Y-75050000D03*
X105000000Y-76950000D03*
%TD*%
D19*
%TO.C,C414*%
X173850000Y-118420400D03*
X175750000Y-118420400D03*
%TD*%
D32*
%TO.C,IC900*%
X32475000Y-184375000D03*
X33745000Y-184375000D03*
X35015000Y-184375000D03*
X36285000Y-184375000D03*
X37555000Y-184375000D03*
X38825000Y-184375000D03*
X40095000Y-184375000D03*
X41365000Y-184375000D03*
X42635000Y-184375000D03*
X43905000Y-184375000D03*
X43905000Y-175075000D03*
X42635000Y-175075000D03*
X41365000Y-175075000D03*
X40095000Y-175075000D03*
X38825000Y-175075000D03*
X37555000Y-175075000D03*
X36285000Y-175075000D03*
X35015000Y-175075000D03*
X33745000Y-175075000D03*
X32475000Y-175075000D03*
%TD*%
D12*
%TO.C,R153*%
X98450000Y-150618800D03*
X100275000Y-150618800D03*
%TD*%
D19*
%TO.C,C807*%
X138774000Y-54826000D03*
X140674000Y-54826000D03*
%TD*%
D33*
%TO.C,D101*%
X100428000Y-78294600D03*
X100428000Y-74994600D03*
%TD*%
D18*
%TO.C,C707*%
X169670000Y-170051800D03*
X167770000Y-170051800D03*
%TD*%
D12*
%TO.C,R412*%
X84737500Y-83299300D03*
X86562500Y-83299300D03*
%TD*%
D17*
%TO.C,R900*%
X166312500Y-76950000D03*
X164487500Y-76950000D03*
%TD*%
D21*
%TO.C,C120*%
X48440000Y-72720000D03*
X48440000Y-74620000D03*
%TD*%
D12*
%TO.C,R135*%
X178007700Y-61231400D03*
X179832700Y-61231400D03*
%TD*%
%TO.C,R144*%
X74137500Y-90100000D03*
X75962500Y-90100000D03*
%TD*%
%TO.C,R456*%
X159900000Y-107975000D03*
X161725000Y-107975000D03*
%TD*%
%TO.C,R137*%
X174451700Y-61231400D03*
X176276700Y-61231400D03*
%TD*%
%TO.C,R133*%
X181487500Y-57650000D03*
X183312500Y-57650000D03*
%TD*%
D14*
%TO.C,IC411*%
X105590000Y-98725000D03*
X106860000Y-98725000D03*
X108130000Y-98725000D03*
X109400000Y-98725000D03*
X110670000Y-98725000D03*
X111940000Y-98725000D03*
X113210000Y-98725000D03*
X113210000Y-93775000D03*
X111940000Y-93775000D03*
X110670000Y-93775000D03*
X109400000Y-93775000D03*
X108130000Y-93775000D03*
X106860000Y-93775000D03*
X105590000Y-93775000D03*
%TD*%
D15*
%TO.C,R124*%
X36150000Y-144227500D03*
X36150000Y-146052500D03*
%TD*%
D14*
%TO.C,IC410*%
X91430000Y-98725000D03*
X92700000Y-98725000D03*
X93970000Y-98725000D03*
X95240000Y-98725000D03*
X96510000Y-98725000D03*
X97780000Y-98725000D03*
X99050000Y-98725000D03*
X99050000Y-93775000D03*
X97780000Y-93775000D03*
X96510000Y-93775000D03*
X95240000Y-93775000D03*
X93970000Y-93775000D03*
X92700000Y-93775000D03*
X91430000Y-93775000D03*
%TD*%
D17*
%TO.C,R107*%
X46228000Y-39624000D03*
X44403000Y-39624000D03*
%TD*%
D18*
%TO.C,C121*%
X103000000Y-63300000D03*
X101100000Y-63300000D03*
%TD*%
D12*
%TO.C,R149*%
X98450000Y-146631000D03*
X100275000Y-146631000D03*
%TD*%
D19*
%TO.C,C412*%
X178232800Y-85745400D03*
X180132800Y-85745400D03*
%TD*%
D25*
%TO.C,R102*%
X109267200Y-76887100D03*
X109267200Y-75062100D03*
%TD*%
%TO.C,R1073*%
X182762400Y-140112500D03*
X182762400Y-138287500D03*
%TD*%
D12*
%TO.C,R901*%
X164087500Y-104237500D03*
X165912500Y-104237500D03*
%TD*%
D17*
%TO.C,R414*%
X170542500Y-77700000D03*
X168717500Y-77700000D03*
%TD*%
%TO.C,R104*%
X56667400Y-39624000D03*
X54842400Y-39624000D03*
%TD*%
D12*
%TO.C,R118*%
X77270600Y-42729000D03*
X79095600Y-42729000D03*
%TD*%
D15*
%TO.C,R1072*%
X180781200Y-138287500D03*
X180781200Y-140112500D03*
%TD*%
D12*
%TO.C,R808*%
X148287500Y-53650000D03*
X150112500Y-53650000D03*
%TD*%
D21*
%TO.C,C408*%
X80468800Y-77725000D03*
X80468800Y-79625000D03*
%TD*%
%TO.C,C806*%
X166250000Y-63950000D03*
X166250000Y-65850000D03*
%TD*%
D20*
%TO.C,IC406*%
X176707800Y-75102800D03*
X176707800Y-76372800D03*
X176707800Y-77642800D03*
X176707800Y-78912800D03*
X176707800Y-80182800D03*
X176707800Y-81452800D03*
X176707800Y-82722800D03*
X181657800Y-82722800D03*
X181657800Y-81452800D03*
X181657800Y-80182800D03*
X181657800Y-78912800D03*
X181657800Y-77642800D03*
X181657800Y-76372800D03*
X181657800Y-75102800D03*
%TD*%
D12*
%TO.C,R141*%
X74137500Y-86037500D03*
X75962500Y-86037500D03*
%TD*%
D25*
%TO.C,R142*%
X36200000Y-142212500D03*
X36200000Y-140387500D03*
%TD*%
D14*
%TO.C,IC101*%
X119405000Y-69125000D03*
X120675000Y-69125000D03*
X121945000Y-69125000D03*
X123215000Y-69125000D03*
X124485000Y-69125000D03*
X125755000Y-69125000D03*
X127025000Y-69125000D03*
X128295000Y-69125000D03*
X128295000Y-64175000D03*
X127025000Y-64175000D03*
X125755000Y-64175000D03*
X124485000Y-64175000D03*
X123215000Y-64175000D03*
X121945000Y-64175000D03*
X120675000Y-64175000D03*
X119405000Y-64175000D03*
%TD*%
D12*
%TO.C,R148*%
X98450000Y-148637600D03*
X100275000Y-148637600D03*
%TD*%
%TO.C,R140*%
X171325000Y-140700000D03*
X173150000Y-140700000D03*
%TD*%
D20*
%TO.C,IC408*%
X176707800Y-89199800D03*
X176707800Y-90469800D03*
X176707800Y-91739800D03*
X176707800Y-93009800D03*
X176707800Y-94279800D03*
X176707800Y-95549800D03*
X176707800Y-96819800D03*
X181657800Y-96819800D03*
X181657800Y-95549800D03*
X181657800Y-94279800D03*
X181657800Y-93009800D03*
X181657800Y-91739800D03*
X181657800Y-90469800D03*
X181657800Y-89199800D03*
%TD*%
D13*
%TO.C,C122*%
X42982600Y-169150000D03*
X42982600Y-167250000D03*
%TD*%
D18*
%TO.C,C708*%
X179670000Y-170051800D03*
X177770000Y-170051800D03*
%TD*%
%TO.C,C453*%
X161762500Y-104275000D03*
X159862500Y-104275000D03*
%TD*%
D12*
%TO.C,R131*%
X174451700Y-57650000D03*
X176276700Y-57650000D03*
%TD*%
%TO.C,R459*%
X169289900Y-126633600D03*
X171114900Y-126633600D03*
%TD*%
D17*
%TO.C,R103*%
X60147200Y-39624000D03*
X58322200Y-39624000D03*
%TD*%
D18*
%TO.C,C114*%
X96050000Y-173350000D03*
X94150000Y-173350000D03*
%TD*%
D34*
%TO.C,Q800*%
X147200000Y-45900000D03*
D35*
X147287500Y-47400000D03*
D34*
X147200000Y-48900000D03*
%TD*%
D18*
%TO.C,C124*%
X63990000Y-135720000D03*
X62090000Y-135720000D03*
%TD*%
D14*
%TO.C,IC405*%
X105590000Y-89325000D03*
X106860000Y-89325000D03*
X108130000Y-89325000D03*
X109400000Y-89325000D03*
X110670000Y-89325000D03*
X111940000Y-89325000D03*
X113210000Y-89325000D03*
X113210000Y-84375000D03*
X111940000Y-84375000D03*
X110670000Y-84375000D03*
X109400000Y-84375000D03*
X108130000Y-84375000D03*
X106860000Y-84375000D03*
X105590000Y-84375000D03*
%TD*%
D17*
%TO.C,R143*%
X94712500Y-80850000D03*
X92887500Y-80850000D03*
%TD*%
D12*
%TO.C,R315*%
X51050000Y-35740000D03*
X52875000Y-35740000D03*
%TD*%
D14*
%TO.C,IC409*%
X69750000Y-81275000D03*
X71020000Y-81275000D03*
X72290000Y-81275000D03*
X73560000Y-81275000D03*
X74830000Y-81275000D03*
X76100000Y-81275000D03*
X77370000Y-81275000D03*
X77370000Y-76325000D03*
X76100000Y-76325000D03*
X74830000Y-76325000D03*
X73560000Y-76325000D03*
X72290000Y-76325000D03*
X71020000Y-76325000D03*
X69750000Y-76325000D03*
%TD*%
D12*
%TO.C,R458*%
X169289900Y-118983600D03*
X171114900Y-118983600D03*
%TD*%
D25*
%TO.C,R403*%
X185729500Y-82216000D03*
X185729500Y-80391000D03*
%TD*%
D15*
%TO.C,R405*%
X185729500Y-101396800D03*
X185729500Y-103221800D03*
%TD*%
D12*
%TO.C,R318*%
X58250000Y-32450000D03*
X60075000Y-32450000D03*
%TD*%
D21*
%TO.C,C405*%
X112830000Y-136285000D03*
X112830000Y-138185000D03*
%TD*%
D12*
%TO.C,R804*%
X155431500Y-55950000D03*
X157256500Y-55950000D03*
%TD*%
%TO.C,R128*%
X178007700Y-54144800D03*
X179832700Y-54144800D03*
%TD*%
%TO.C,R132*%
X178007700Y-57650000D03*
X179832700Y-57650000D03*
%TD*%
%TO.C,R152*%
X98450000Y-152600000D03*
X100275000Y-152600000D03*
%TD*%
%TO.C,R129*%
X181487500Y-50563400D03*
X183312500Y-50563400D03*
%TD*%
D17*
%TO.C,R108*%
X42724700Y-39624000D03*
X40899700Y-39624000D03*
%TD*%
D21*
%TO.C,C123*%
X112850000Y-117400000D03*
X112850000Y-119300000D03*
%TD*%
M02*
