%TF.GenerationSoftware,KiCad,Pcbnew,7.0.1*%
%TF.CreationDate,2023-05-06T23:27:47+01:00*%
%TF.ProjectId,CPC464-2MINIITX,43504334-3634-42d3-924d-494e49495458,rev?*%
%TF.SameCoordinates,Original*%
%TF.FileFunction,Legend,Bot*%
%TF.FilePolarity,Positive*%
%FSLAX46Y46*%
G04 Gerber Fmt 4.6, Leading zero omitted, Abs format (unit mm)*
G04 Created by KiCad (PCBNEW 7.0.1) date 2023-05-06 23:27:47*
%MOMM*%
%LPD*%
G01*
G04 APERTURE LIST*
%ADD10C,0.150000*%
G04 APERTURE END LIST*
D10*
X186904766Y-196462619D02*
X186333338Y-196462619D01*
X186619052Y-197462619D02*
X186619052Y-196462619D01*
X186000004Y-197462619D02*
X186000004Y-196462619D01*
X185571433Y-197462619D02*
X185571433Y-196938809D01*
X185571433Y-196938809D02*
X185619052Y-196843571D01*
X185619052Y-196843571D02*
X185714290Y-196795952D01*
X185714290Y-196795952D02*
X185857147Y-196795952D01*
X185857147Y-196795952D02*
X185952385Y-196843571D01*
X185952385Y-196843571D02*
X186000004Y-196891190D01*
X184666671Y-197462619D02*
X184666671Y-196938809D01*
X184666671Y-196938809D02*
X184714290Y-196843571D01*
X184714290Y-196843571D02*
X184809528Y-196795952D01*
X184809528Y-196795952D02*
X185000004Y-196795952D01*
X185000004Y-196795952D02*
X185095242Y-196843571D01*
X184666671Y-197415000D02*
X184761909Y-197462619D01*
X184761909Y-197462619D02*
X185000004Y-197462619D01*
X185000004Y-197462619D02*
X185095242Y-197415000D01*
X185095242Y-197415000D02*
X185142861Y-197319761D01*
X185142861Y-197319761D02*
X185142861Y-197224523D01*
X185142861Y-197224523D02*
X185095242Y-197129285D01*
X185095242Y-197129285D02*
X185000004Y-197081666D01*
X185000004Y-197081666D02*
X184761909Y-197081666D01*
X184761909Y-197081666D02*
X184666671Y-197034047D01*
X184190480Y-196795952D02*
X184190480Y-197462619D01*
X184190480Y-196891190D02*
X184142861Y-196843571D01*
X184142861Y-196843571D02*
X184047623Y-196795952D01*
X184047623Y-196795952D02*
X183904766Y-196795952D01*
X183904766Y-196795952D02*
X183809528Y-196843571D01*
X183809528Y-196843571D02*
X183761909Y-196938809D01*
X183761909Y-196938809D02*
X183761909Y-197462619D01*
X183285718Y-197462619D02*
X183285718Y-196462619D01*
X183190480Y-197081666D02*
X182904766Y-197462619D01*
X182904766Y-196795952D02*
X183285718Y-197176904D01*
X182523813Y-197415000D02*
X182428575Y-197462619D01*
X182428575Y-197462619D02*
X182238099Y-197462619D01*
X182238099Y-197462619D02*
X182142861Y-197415000D01*
X182142861Y-197415000D02*
X182095242Y-197319761D01*
X182095242Y-197319761D02*
X182095242Y-197272142D01*
X182095242Y-197272142D02*
X182142861Y-197176904D01*
X182142861Y-197176904D02*
X182238099Y-197129285D01*
X182238099Y-197129285D02*
X182380956Y-197129285D01*
X182380956Y-197129285D02*
X182476194Y-197081666D01*
X182476194Y-197081666D02*
X182523813Y-196986428D01*
X182523813Y-196986428D02*
X182523813Y-196938809D01*
X182523813Y-196938809D02*
X182476194Y-196843571D01*
X182476194Y-196843571D02*
X182380956Y-196795952D01*
X182380956Y-196795952D02*
X182238099Y-196795952D01*
X182238099Y-196795952D02*
X182142861Y-196843571D01*
X181047622Y-196795952D02*
X180666670Y-196795952D01*
X180904765Y-196462619D02*
X180904765Y-197319761D01*
X180904765Y-197319761D02*
X180857146Y-197415000D01*
X180857146Y-197415000D02*
X180761908Y-197462619D01*
X180761908Y-197462619D02*
X180666670Y-197462619D01*
X180190479Y-197462619D02*
X180285717Y-197415000D01*
X180285717Y-197415000D02*
X180333336Y-197367380D01*
X180333336Y-197367380D02*
X180380955Y-197272142D01*
X180380955Y-197272142D02*
X180380955Y-196986428D01*
X180380955Y-196986428D02*
X180333336Y-196891190D01*
X180333336Y-196891190D02*
X180285717Y-196843571D01*
X180285717Y-196843571D02*
X180190479Y-196795952D01*
X180190479Y-196795952D02*
X180047622Y-196795952D01*
X180047622Y-196795952D02*
X179952384Y-196843571D01*
X179952384Y-196843571D02*
X179904765Y-196891190D01*
X179904765Y-196891190D02*
X179857146Y-196986428D01*
X179857146Y-196986428D02*
X179857146Y-197272142D01*
X179857146Y-197272142D02*
X179904765Y-197367380D01*
X179904765Y-197367380D02*
X179952384Y-197415000D01*
X179952384Y-197415000D02*
X180047622Y-197462619D01*
X180047622Y-197462619D02*
X180190479Y-197462619D01*
X178095241Y-197462619D02*
X178428574Y-196986428D01*
X178666669Y-197462619D02*
X178666669Y-196462619D01*
X178666669Y-196462619D02*
X178285717Y-196462619D01*
X178285717Y-196462619D02*
X178190479Y-196510238D01*
X178190479Y-196510238D02*
X178142860Y-196557857D01*
X178142860Y-196557857D02*
X178095241Y-196653095D01*
X178095241Y-196653095D02*
X178095241Y-196795952D01*
X178095241Y-196795952D02*
X178142860Y-196891190D01*
X178142860Y-196891190D02*
X178190479Y-196938809D01*
X178190479Y-196938809D02*
X178285717Y-196986428D01*
X178285717Y-196986428D02*
X178666669Y-196986428D01*
X177523812Y-197462619D02*
X177619050Y-197415000D01*
X177619050Y-197415000D02*
X177666669Y-197367380D01*
X177666669Y-197367380D02*
X177714288Y-197272142D01*
X177714288Y-197272142D02*
X177714288Y-196986428D01*
X177714288Y-196986428D02*
X177666669Y-196891190D01*
X177666669Y-196891190D02*
X177619050Y-196843571D01*
X177619050Y-196843571D02*
X177523812Y-196795952D01*
X177523812Y-196795952D02*
X177380955Y-196795952D01*
X177380955Y-196795952D02*
X177285717Y-196843571D01*
X177285717Y-196843571D02*
X177238098Y-196891190D01*
X177238098Y-196891190D02*
X177190479Y-196986428D01*
X177190479Y-196986428D02*
X177190479Y-197272142D01*
X177190479Y-197272142D02*
X177238098Y-197367380D01*
X177238098Y-197367380D02*
X177285717Y-197415000D01*
X177285717Y-197415000D02*
X177380955Y-197462619D01*
X177380955Y-197462619D02*
X177523812Y-197462619D01*
X176761907Y-197462619D02*
X176761907Y-196462619D01*
X176761907Y-196843571D02*
X176666669Y-196795952D01*
X176666669Y-196795952D02*
X176476193Y-196795952D01*
X176476193Y-196795952D02*
X176380955Y-196843571D01*
X176380955Y-196843571D02*
X176333336Y-196891190D01*
X176333336Y-196891190D02*
X176285717Y-196986428D01*
X176285717Y-196986428D02*
X176285717Y-197272142D01*
X176285717Y-197272142D02*
X176333336Y-197367380D01*
X176333336Y-197367380D02*
X176380955Y-197415000D01*
X176380955Y-197415000D02*
X176476193Y-197462619D01*
X176476193Y-197462619D02*
X176666669Y-197462619D01*
X176666669Y-197462619D02*
X176761907Y-197415000D01*
X175238097Y-196462619D02*
X174666669Y-196462619D01*
X174952383Y-197462619D02*
X174952383Y-196462619D01*
X173904764Y-197462619D02*
X173904764Y-196938809D01*
X173904764Y-196938809D02*
X173952383Y-196843571D01*
X173952383Y-196843571D02*
X174047621Y-196795952D01*
X174047621Y-196795952D02*
X174238097Y-196795952D01*
X174238097Y-196795952D02*
X174333335Y-196843571D01*
X173904764Y-197415000D02*
X174000002Y-197462619D01*
X174000002Y-197462619D02*
X174238097Y-197462619D01*
X174238097Y-197462619D02*
X174333335Y-197415000D01*
X174333335Y-197415000D02*
X174380954Y-197319761D01*
X174380954Y-197319761D02*
X174380954Y-197224523D01*
X174380954Y-197224523D02*
X174333335Y-197129285D01*
X174333335Y-197129285D02*
X174238097Y-197081666D01*
X174238097Y-197081666D02*
X174000002Y-197081666D01*
X174000002Y-197081666D02*
X173904764Y-197034047D01*
X173523811Y-196795952D02*
X173285716Y-197462619D01*
X173047621Y-196795952D02*
X173285716Y-197462619D01*
X173285716Y-197462619D02*
X173380954Y-197700714D01*
X173380954Y-197700714D02*
X173428573Y-197748333D01*
X173428573Y-197748333D02*
X173523811Y-197795952D01*
X172523811Y-197462619D02*
X172619049Y-197415000D01*
X172619049Y-197415000D02*
X172666668Y-197319761D01*
X172666668Y-197319761D02*
X172666668Y-196462619D01*
X172000001Y-197462619D02*
X172095239Y-197415000D01*
X172095239Y-197415000D02*
X172142858Y-197367380D01*
X172142858Y-197367380D02*
X172190477Y-197272142D01*
X172190477Y-197272142D02*
X172190477Y-196986428D01*
X172190477Y-196986428D02*
X172142858Y-196891190D01*
X172142858Y-196891190D02*
X172095239Y-196843571D01*
X172095239Y-196843571D02*
X172000001Y-196795952D01*
X172000001Y-196795952D02*
X171857144Y-196795952D01*
X171857144Y-196795952D02*
X171761906Y-196843571D01*
X171761906Y-196843571D02*
X171714287Y-196891190D01*
X171714287Y-196891190D02*
X171666668Y-196986428D01*
X171666668Y-196986428D02*
X171666668Y-197272142D01*
X171666668Y-197272142D02*
X171714287Y-197367380D01*
X171714287Y-197367380D02*
X171761906Y-197415000D01*
X171761906Y-197415000D02*
X171857144Y-197462619D01*
X171857144Y-197462619D02*
X172000001Y-197462619D01*
X171238096Y-197462619D02*
X171238096Y-196795952D01*
X171238096Y-196986428D02*
X171190477Y-196891190D01*
X171190477Y-196891190D02*
X171142858Y-196843571D01*
X171142858Y-196843571D02*
X171047620Y-196795952D01*
X171047620Y-196795952D02*
X170952382Y-196795952D01*
X169238096Y-196986428D02*
X169285715Y-196938809D01*
X169285715Y-196938809D02*
X169380953Y-196891190D01*
X169380953Y-196891190D02*
X169476191Y-196891190D01*
X169476191Y-196891190D02*
X169571429Y-196938809D01*
X169571429Y-196938809D02*
X169619048Y-196986428D01*
X169619048Y-196986428D02*
X169666667Y-197081666D01*
X169666667Y-197081666D02*
X169666667Y-197176904D01*
X169666667Y-197176904D02*
X169619048Y-197272142D01*
X169619048Y-197272142D02*
X169571429Y-197319761D01*
X169571429Y-197319761D02*
X169476191Y-197367380D01*
X169476191Y-197367380D02*
X169380953Y-197367380D01*
X169380953Y-197367380D02*
X169285715Y-197319761D01*
X169285715Y-197319761D02*
X169238096Y-197272142D01*
X169238096Y-196891190D02*
X169238096Y-197272142D01*
X169238096Y-197272142D02*
X169190477Y-197319761D01*
X169190477Y-197319761D02*
X169142858Y-197319761D01*
X169142858Y-197319761D02*
X169047619Y-197272142D01*
X169047619Y-197272142D02*
X169000000Y-197176904D01*
X169000000Y-197176904D02*
X169000000Y-196938809D01*
X169000000Y-196938809D02*
X169095239Y-196795952D01*
X169095239Y-196795952D02*
X169238096Y-196700714D01*
X169238096Y-196700714D02*
X169428572Y-196653095D01*
X169428572Y-196653095D02*
X169619048Y-196700714D01*
X169619048Y-196700714D02*
X169761905Y-196795952D01*
X169761905Y-196795952D02*
X169857143Y-196938809D01*
X169857143Y-196938809D02*
X169904762Y-197129285D01*
X169904762Y-197129285D02*
X169857143Y-197319761D01*
X169857143Y-197319761D02*
X169761905Y-197462619D01*
X169761905Y-197462619D02*
X169619048Y-197557857D01*
X169619048Y-197557857D02*
X169428572Y-197605476D01*
X169428572Y-197605476D02*
X169238096Y-197557857D01*
X169238096Y-197557857D02*
X169095239Y-197462619D01*
X168571429Y-196795952D02*
X168571429Y-197795952D01*
X168571429Y-196843571D02*
X168476191Y-196795952D01*
X168476191Y-196795952D02*
X168285715Y-196795952D01*
X168285715Y-196795952D02*
X168190477Y-196843571D01*
X168190477Y-196843571D02*
X168142858Y-196891190D01*
X168142858Y-196891190D02*
X168095239Y-196986428D01*
X168095239Y-196986428D02*
X168095239Y-197272142D01*
X168095239Y-197272142D02*
X168142858Y-197367380D01*
X168142858Y-197367380D02*
X168190477Y-197415000D01*
X168190477Y-197415000D02*
X168285715Y-197462619D01*
X168285715Y-197462619D02*
X168476191Y-197462619D01*
X168476191Y-197462619D02*
X168571429Y-197415000D01*
X167285715Y-197415000D02*
X167380953Y-197462619D01*
X167380953Y-197462619D02*
X167571429Y-197462619D01*
X167571429Y-197462619D02*
X167666667Y-197415000D01*
X167666667Y-197415000D02*
X167714286Y-197319761D01*
X167714286Y-197319761D02*
X167714286Y-196938809D01*
X167714286Y-196938809D02*
X167666667Y-196843571D01*
X167666667Y-196843571D02*
X167571429Y-196795952D01*
X167571429Y-196795952D02*
X167380953Y-196795952D01*
X167380953Y-196795952D02*
X167285715Y-196843571D01*
X167285715Y-196843571D02*
X167238096Y-196938809D01*
X167238096Y-196938809D02*
X167238096Y-197034047D01*
X167238096Y-197034047D02*
X167714286Y-197129285D01*
X166428572Y-197415000D02*
X166523810Y-197462619D01*
X166523810Y-197462619D02*
X166714286Y-197462619D01*
X166714286Y-197462619D02*
X166809524Y-197415000D01*
X166809524Y-197415000D02*
X166857143Y-197319761D01*
X166857143Y-197319761D02*
X166857143Y-196938809D01*
X166857143Y-196938809D02*
X166809524Y-196843571D01*
X166809524Y-196843571D02*
X166714286Y-196795952D01*
X166714286Y-196795952D02*
X166523810Y-196795952D01*
X166523810Y-196795952D02*
X166428572Y-196843571D01*
X166428572Y-196843571D02*
X166380953Y-196938809D01*
X166380953Y-196938809D02*
X166380953Y-197034047D01*
X166380953Y-197034047D02*
X166857143Y-197129285D01*
X165952381Y-196795952D02*
X165952381Y-197795952D01*
X165952381Y-196843571D02*
X165857143Y-196795952D01*
X165857143Y-196795952D02*
X165666667Y-196795952D01*
X165666667Y-196795952D02*
X165571429Y-196843571D01*
X165571429Y-196843571D02*
X165523810Y-196891190D01*
X165523810Y-196891190D02*
X165476191Y-196986428D01*
X165476191Y-196986428D02*
X165476191Y-197272142D01*
X165476191Y-197272142D02*
X165523810Y-197367380D01*
X165523810Y-197367380D02*
X165571429Y-197415000D01*
X165571429Y-197415000D02*
X165666667Y-197462619D01*
X165666667Y-197462619D02*
X165857143Y-197462619D01*
X165857143Y-197462619D02*
X165952381Y-197415000D01*
X164904762Y-197462619D02*
X165000000Y-197415000D01*
X165000000Y-197415000D02*
X165047619Y-197367380D01*
X165047619Y-197367380D02*
X165095238Y-197272142D01*
X165095238Y-197272142D02*
X165095238Y-196986428D01*
X165095238Y-196986428D02*
X165047619Y-196891190D01*
X165047619Y-196891190D02*
X165000000Y-196843571D01*
X165000000Y-196843571D02*
X164904762Y-196795952D01*
X164904762Y-196795952D02*
X164761905Y-196795952D01*
X164761905Y-196795952D02*
X164666667Y-196843571D01*
X164666667Y-196843571D02*
X164619048Y-196891190D01*
X164619048Y-196891190D02*
X164571429Y-196986428D01*
X164571429Y-196986428D02*
X164571429Y-197272142D01*
X164571429Y-197272142D02*
X164619048Y-197367380D01*
X164619048Y-197367380D02*
X164666667Y-197415000D01*
X164666667Y-197415000D02*
X164761905Y-197462619D01*
X164761905Y-197462619D02*
X164904762Y-197462619D01*
X163714286Y-196795952D02*
X163714286Y-197462619D01*
X164142857Y-196795952D02*
X164142857Y-197319761D01*
X164142857Y-197319761D02*
X164095238Y-197415000D01*
X164095238Y-197415000D02*
X164000000Y-197462619D01*
X164000000Y-197462619D02*
X163857143Y-197462619D01*
X163857143Y-197462619D02*
X163761905Y-197415000D01*
X163761905Y-197415000D02*
X163714286Y-197367380D01*
X163238095Y-197462619D02*
X163238095Y-196462619D01*
X163142857Y-197081666D02*
X162857143Y-197462619D01*
X162857143Y-196795952D02*
X163238095Y-197176904D01*
X162380952Y-197415000D02*
X162380952Y-197462619D01*
X162380952Y-197462619D02*
X162428571Y-197557857D01*
X162428571Y-197557857D02*
X162476190Y-197605476D01*
X160619048Y-197367380D02*
X160666667Y-197415000D01*
X160666667Y-197415000D02*
X160809524Y-197462619D01*
X160809524Y-197462619D02*
X160904762Y-197462619D01*
X160904762Y-197462619D02*
X161047619Y-197415000D01*
X161047619Y-197415000D02*
X161142857Y-197319761D01*
X161142857Y-197319761D02*
X161190476Y-197224523D01*
X161190476Y-197224523D02*
X161238095Y-197034047D01*
X161238095Y-197034047D02*
X161238095Y-196891190D01*
X161238095Y-196891190D02*
X161190476Y-196700714D01*
X161190476Y-196700714D02*
X161142857Y-196605476D01*
X161142857Y-196605476D02*
X161047619Y-196510238D01*
X161047619Y-196510238D02*
X160904762Y-196462619D01*
X160904762Y-196462619D02*
X160809524Y-196462619D01*
X160809524Y-196462619D02*
X160666667Y-196510238D01*
X160666667Y-196510238D02*
X160619048Y-196557857D01*
X160190476Y-197462619D02*
X160190476Y-196462619D01*
X159761905Y-197462619D02*
X159761905Y-196938809D01*
X159761905Y-196938809D02*
X159809524Y-196843571D01*
X159809524Y-196843571D02*
X159904762Y-196795952D01*
X159904762Y-196795952D02*
X160047619Y-196795952D01*
X160047619Y-196795952D02*
X160142857Y-196843571D01*
X160142857Y-196843571D02*
X160190476Y-196891190D01*
X159285714Y-197462619D02*
X159285714Y-196795952D01*
X159285714Y-196986428D02*
X159238095Y-196891190D01*
X159238095Y-196891190D02*
X159190476Y-196843571D01*
X159190476Y-196843571D02*
X159095238Y-196795952D01*
X159095238Y-196795952D02*
X159000000Y-196795952D01*
X158666666Y-197462619D02*
X158666666Y-196795952D01*
X158666666Y-196462619D02*
X158714285Y-196510238D01*
X158714285Y-196510238D02*
X158666666Y-196557857D01*
X158666666Y-196557857D02*
X158619047Y-196510238D01*
X158619047Y-196510238D02*
X158666666Y-196462619D01*
X158666666Y-196462619D02*
X158666666Y-196557857D01*
X158238095Y-197415000D02*
X158142857Y-197462619D01*
X158142857Y-197462619D02*
X157952381Y-197462619D01*
X157952381Y-197462619D02*
X157857143Y-197415000D01*
X157857143Y-197415000D02*
X157809524Y-197319761D01*
X157809524Y-197319761D02*
X157809524Y-197272142D01*
X157809524Y-197272142D02*
X157857143Y-197176904D01*
X157857143Y-197176904D02*
X157952381Y-197129285D01*
X157952381Y-197129285D02*
X158095238Y-197129285D01*
X158095238Y-197129285D02*
X158190476Y-197081666D01*
X158190476Y-197081666D02*
X158238095Y-196986428D01*
X158238095Y-196986428D02*
X158238095Y-196938809D01*
X158238095Y-196938809D02*
X158190476Y-196843571D01*
X158190476Y-196843571D02*
X158095238Y-196795952D01*
X158095238Y-196795952D02*
X157952381Y-196795952D01*
X157952381Y-196795952D02*
X157857143Y-196843571D01*
X157428571Y-197415000D02*
X157333333Y-197462619D01*
X157333333Y-197462619D02*
X157142857Y-197462619D01*
X157142857Y-197462619D02*
X157047619Y-197415000D01*
X157047619Y-197415000D02*
X157000000Y-197319761D01*
X157000000Y-197319761D02*
X157000000Y-197272142D01*
X157000000Y-197272142D02*
X157047619Y-197176904D01*
X157047619Y-197176904D02*
X157142857Y-197129285D01*
X157142857Y-197129285D02*
X157285714Y-197129285D01*
X157285714Y-197129285D02*
X157380952Y-197081666D01*
X157380952Y-197081666D02*
X157428571Y-196986428D01*
X157428571Y-196986428D02*
X157428571Y-196938809D01*
X157428571Y-196938809D02*
X157380952Y-196843571D01*
X157380952Y-196843571D02*
X157285714Y-196795952D01*
X157285714Y-196795952D02*
X157142857Y-196795952D01*
X157142857Y-196795952D02*
X157047619Y-196843571D01*
X156666666Y-196795952D02*
X156428571Y-197462619D01*
X156190476Y-196795952D02*
X156428571Y-197462619D01*
X156428571Y-197462619D02*
X156523809Y-197700714D01*
X156523809Y-197700714D02*
X156571428Y-197748333D01*
X156571428Y-197748333D02*
X156666666Y-197795952D01*
X154428571Y-196986428D02*
X154476190Y-196938809D01*
X154476190Y-196938809D02*
X154571428Y-196891190D01*
X154571428Y-196891190D02*
X154666666Y-196891190D01*
X154666666Y-196891190D02*
X154761904Y-196938809D01*
X154761904Y-196938809D02*
X154809523Y-196986428D01*
X154809523Y-196986428D02*
X154857142Y-197081666D01*
X154857142Y-197081666D02*
X154857142Y-197176904D01*
X154857142Y-197176904D02*
X154809523Y-197272142D01*
X154809523Y-197272142D02*
X154761904Y-197319761D01*
X154761904Y-197319761D02*
X154666666Y-197367380D01*
X154666666Y-197367380D02*
X154571428Y-197367380D01*
X154571428Y-197367380D02*
X154476190Y-197319761D01*
X154476190Y-197319761D02*
X154428571Y-197272142D01*
X154428571Y-196891190D02*
X154428571Y-197272142D01*
X154428571Y-197272142D02*
X154380952Y-197319761D01*
X154380952Y-197319761D02*
X154333333Y-197319761D01*
X154333333Y-197319761D02*
X154238094Y-197272142D01*
X154238094Y-197272142D02*
X154190475Y-197176904D01*
X154190475Y-197176904D02*
X154190475Y-196938809D01*
X154190475Y-196938809D02*
X154285714Y-196795952D01*
X154285714Y-196795952D02*
X154428571Y-196700714D01*
X154428571Y-196700714D02*
X154619047Y-196653095D01*
X154619047Y-196653095D02*
X154809523Y-196700714D01*
X154809523Y-196700714D02*
X154952380Y-196795952D01*
X154952380Y-196795952D02*
X155047618Y-196938809D01*
X155047618Y-196938809D02*
X155095237Y-197129285D01*
X155095237Y-197129285D02*
X155047618Y-197319761D01*
X155047618Y-197319761D02*
X154952380Y-197462619D01*
X154952380Y-197462619D02*
X154809523Y-197557857D01*
X154809523Y-197557857D02*
X154619047Y-197605476D01*
X154619047Y-197605476D02*
X154428571Y-197557857D01*
X154428571Y-197557857D02*
X154285714Y-197462619D01*
X153333333Y-197415000D02*
X153428571Y-197462619D01*
X153428571Y-197462619D02*
X153619047Y-197462619D01*
X153619047Y-197462619D02*
X153714285Y-197415000D01*
X153714285Y-197415000D02*
X153761904Y-197367380D01*
X153761904Y-197367380D02*
X153809523Y-197272142D01*
X153809523Y-197272142D02*
X153809523Y-196986428D01*
X153809523Y-196986428D02*
X153761904Y-196891190D01*
X153761904Y-196891190D02*
X153714285Y-196843571D01*
X153714285Y-196843571D02*
X153619047Y-196795952D01*
X153619047Y-196795952D02*
X153428571Y-196795952D01*
X153428571Y-196795952D02*
X153333333Y-196843571D01*
X152904761Y-197462619D02*
X152904761Y-196462619D01*
X152476190Y-197462619D02*
X152476190Y-196938809D01*
X152476190Y-196938809D02*
X152523809Y-196843571D01*
X152523809Y-196843571D02*
X152619047Y-196795952D01*
X152619047Y-196795952D02*
X152761904Y-196795952D01*
X152761904Y-196795952D02*
X152857142Y-196843571D01*
X152857142Y-196843571D02*
X152904761Y-196891190D01*
X151999999Y-197462619D02*
X151999999Y-196795952D01*
X151999999Y-196986428D02*
X151952380Y-196891190D01*
X151952380Y-196891190D02*
X151904761Y-196843571D01*
X151904761Y-196843571D02*
X151809523Y-196795952D01*
X151809523Y-196795952D02*
X151714285Y-196795952D01*
X151380951Y-197462619D02*
X151380951Y-196795952D01*
X151380951Y-196462619D02*
X151428570Y-196510238D01*
X151428570Y-196510238D02*
X151380951Y-196557857D01*
X151380951Y-196557857D02*
X151333332Y-196510238D01*
X151333332Y-196510238D02*
X151380951Y-196462619D01*
X151380951Y-196462619D02*
X151380951Y-196557857D01*
X150952380Y-197415000D02*
X150857142Y-197462619D01*
X150857142Y-197462619D02*
X150666666Y-197462619D01*
X150666666Y-197462619D02*
X150571428Y-197415000D01*
X150571428Y-197415000D02*
X150523809Y-197319761D01*
X150523809Y-197319761D02*
X150523809Y-197272142D01*
X150523809Y-197272142D02*
X150571428Y-197176904D01*
X150571428Y-197176904D02*
X150666666Y-197129285D01*
X150666666Y-197129285D02*
X150809523Y-197129285D01*
X150809523Y-197129285D02*
X150904761Y-197081666D01*
X150904761Y-197081666D02*
X150952380Y-196986428D01*
X150952380Y-196986428D02*
X150952380Y-196938809D01*
X150952380Y-196938809D02*
X150904761Y-196843571D01*
X150904761Y-196843571D02*
X150809523Y-196795952D01*
X150809523Y-196795952D02*
X150666666Y-196795952D01*
X150666666Y-196795952D02*
X150571428Y-196843571D01*
X150333333Y-197557857D02*
X149571428Y-197557857D01*
X149333332Y-196795952D02*
X149333332Y-197653095D01*
X149333332Y-197653095D02*
X149380951Y-197748333D01*
X149380951Y-197748333D02*
X149476189Y-197795952D01*
X149476189Y-197795952D02*
X149523808Y-197795952D01*
X149333332Y-196462619D02*
X149380951Y-196510238D01*
X149380951Y-196510238D02*
X149333332Y-196557857D01*
X149333332Y-196557857D02*
X149285713Y-196510238D01*
X149285713Y-196510238D02*
X149333332Y-196462619D01*
X149333332Y-196462619D02*
X149333332Y-196557857D01*
X148857142Y-197462619D02*
X148857142Y-196462619D01*
X148428571Y-197462619D02*
X148428571Y-196938809D01*
X148428571Y-196938809D02*
X148476190Y-196843571D01*
X148476190Y-196843571D02*
X148571428Y-196795952D01*
X148571428Y-196795952D02*
X148714285Y-196795952D01*
X148714285Y-196795952D02*
X148809523Y-196843571D01*
X148809523Y-196843571D02*
X148857142Y-196891190D01*
X146761904Y-197462619D02*
X146761904Y-196938809D01*
X146761904Y-196938809D02*
X146809523Y-196843571D01*
X146809523Y-196843571D02*
X146904761Y-196795952D01*
X146904761Y-196795952D02*
X147095237Y-196795952D01*
X147095237Y-196795952D02*
X147190475Y-196843571D01*
X146761904Y-197415000D02*
X146857142Y-197462619D01*
X146857142Y-197462619D02*
X147095237Y-197462619D01*
X147095237Y-197462619D02*
X147190475Y-197415000D01*
X147190475Y-197415000D02*
X147238094Y-197319761D01*
X147238094Y-197319761D02*
X147238094Y-197224523D01*
X147238094Y-197224523D02*
X147190475Y-197129285D01*
X147190475Y-197129285D02*
X147095237Y-197081666D01*
X147095237Y-197081666D02*
X146857142Y-197081666D01*
X146857142Y-197081666D02*
X146761904Y-197034047D01*
X146285713Y-196795952D02*
X146285713Y-197462619D01*
X146285713Y-196891190D02*
X146238094Y-196843571D01*
X146238094Y-196843571D02*
X146142856Y-196795952D01*
X146142856Y-196795952D02*
X145999999Y-196795952D01*
X145999999Y-196795952D02*
X145904761Y-196843571D01*
X145904761Y-196843571D02*
X145857142Y-196938809D01*
X145857142Y-196938809D02*
X145857142Y-197462619D01*
X144952380Y-197462619D02*
X144952380Y-196462619D01*
X144952380Y-197415000D02*
X145047618Y-197462619D01*
X145047618Y-197462619D02*
X145238094Y-197462619D01*
X145238094Y-197462619D02*
X145333332Y-197415000D01*
X145333332Y-197415000D02*
X145380951Y-197367380D01*
X145380951Y-197367380D02*
X145428570Y-197272142D01*
X145428570Y-197272142D02*
X145428570Y-196986428D01*
X145428570Y-196986428D02*
X145380951Y-196891190D01*
X145380951Y-196891190D02*
X145333332Y-196843571D01*
X145333332Y-196843571D02*
X145238094Y-196795952D01*
X145238094Y-196795952D02*
X145047618Y-196795952D01*
X145047618Y-196795952D02*
X144952380Y-196843571D01*
X143857141Y-196795952D02*
X143476189Y-196795952D01*
X143714284Y-196462619D02*
X143714284Y-197319761D01*
X143714284Y-197319761D02*
X143666665Y-197415000D01*
X143666665Y-197415000D02*
X143571427Y-197462619D01*
X143571427Y-197462619D02*
X143476189Y-197462619D01*
X143142855Y-197462619D02*
X143142855Y-196462619D01*
X142714284Y-197462619D02*
X142714284Y-196938809D01*
X142714284Y-196938809D02*
X142761903Y-196843571D01*
X142761903Y-196843571D02*
X142857141Y-196795952D01*
X142857141Y-196795952D02*
X142999998Y-196795952D01*
X142999998Y-196795952D02*
X143095236Y-196843571D01*
X143095236Y-196843571D02*
X143142855Y-196891190D01*
X141857141Y-197415000D02*
X141952379Y-197462619D01*
X141952379Y-197462619D02*
X142142855Y-197462619D01*
X142142855Y-197462619D02*
X142238093Y-197415000D01*
X142238093Y-197415000D02*
X142285712Y-197319761D01*
X142285712Y-197319761D02*
X142285712Y-196938809D01*
X142285712Y-196938809D02*
X142238093Y-196843571D01*
X142238093Y-196843571D02*
X142142855Y-196795952D01*
X142142855Y-196795952D02*
X141952379Y-196795952D01*
X141952379Y-196795952D02*
X141857141Y-196843571D01*
X141857141Y-196843571D02*
X141809522Y-196938809D01*
X141809522Y-196938809D02*
X141809522Y-197034047D01*
X141809522Y-197034047D02*
X142285712Y-197129285D01*
X140761902Y-196795952D02*
X140380950Y-196795952D01*
X140619045Y-196462619D02*
X140619045Y-197319761D01*
X140619045Y-197319761D02*
X140571426Y-197415000D01*
X140571426Y-197415000D02*
X140476188Y-197462619D01*
X140476188Y-197462619D02*
X140380950Y-197462619D01*
X139666664Y-197415000D02*
X139761902Y-197462619D01*
X139761902Y-197462619D02*
X139952378Y-197462619D01*
X139952378Y-197462619D02*
X140047616Y-197415000D01*
X140047616Y-197415000D02*
X140095235Y-197319761D01*
X140095235Y-197319761D02*
X140095235Y-196938809D01*
X140095235Y-196938809D02*
X140047616Y-196843571D01*
X140047616Y-196843571D02*
X139952378Y-196795952D01*
X139952378Y-196795952D02*
X139761902Y-196795952D01*
X139761902Y-196795952D02*
X139666664Y-196843571D01*
X139666664Y-196843571D02*
X139619045Y-196938809D01*
X139619045Y-196938809D02*
X139619045Y-197034047D01*
X139619045Y-197034047D02*
X140095235Y-197129285D01*
X138761902Y-197462619D02*
X138761902Y-196938809D01*
X138761902Y-196938809D02*
X138809521Y-196843571D01*
X138809521Y-196843571D02*
X138904759Y-196795952D01*
X138904759Y-196795952D02*
X139095235Y-196795952D01*
X139095235Y-196795952D02*
X139190473Y-196843571D01*
X138761902Y-197415000D02*
X138857140Y-197462619D01*
X138857140Y-197462619D02*
X139095235Y-197462619D01*
X139095235Y-197462619D02*
X139190473Y-197415000D01*
X139190473Y-197415000D02*
X139238092Y-197319761D01*
X139238092Y-197319761D02*
X139238092Y-197224523D01*
X139238092Y-197224523D02*
X139190473Y-197129285D01*
X139190473Y-197129285D02*
X139095235Y-197081666D01*
X139095235Y-197081666D02*
X138857140Y-197081666D01*
X138857140Y-197081666D02*
X138761902Y-197034047D01*
X138285711Y-197462619D02*
X138285711Y-196795952D01*
X138285711Y-196891190D02*
X138238092Y-196843571D01*
X138238092Y-196843571D02*
X138142854Y-196795952D01*
X138142854Y-196795952D02*
X137999997Y-196795952D01*
X137999997Y-196795952D02*
X137904759Y-196843571D01*
X137904759Y-196843571D02*
X137857140Y-196938809D01*
X137857140Y-196938809D02*
X137857140Y-197462619D01*
X137857140Y-196938809D02*
X137809521Y-196843571D01*
X137809521Y-196843571D02*
X137714283Y-196795952D01*
X137714283Y-196795952D02*
X137571426Y-196795952D01*
X137571426Y-196795952D02*
X137476187Y-196843571D01*
X137476187Y-196843571D02*
X137428568Y-196938809D01*
X137428568Y-196938809D02*
X137428568Y-197462619D01*
X135761902Y-197462619D02*
X135761902Y-196938809D01*
X135761902Y-196938809D02*
X135809521Y-196843571D01*
X135809521Y-196843571D02*
X135904759Y-196795952D01*
X135904759Y-196795952D02*
X136095235Y-196795952D01*
X136095235Y-196795952D02*
X136190473Y-196843571D01*
X135761902Y-197415000D02*
X135857140Y-197462619D01*
X135857140Y-197462619D02*
X136095235Y-197462619D01*
X136095235Y-197462619D02*
X136190473Y-197415000D01*
X136190473Y-197415000D02*
X136238092Y-197319761D01*
X136238092Y-197319761D02*
X136238092Y-197224523D01*
X136238092Y-197224523D02*
X136190473Y-197129285D01*
X136190473Y-197129285D02*
X136095235Y-197081666D01*
X136095235Y-197081666D02*
X135857140Y-197081666D01*
X135857140Y-197081666D02*
X135761902Y-197034047D01*
X135428568Y-196795952D02*
X135047616Y-196795952D01*
X135285711Y-196462619D02*
X135285711Y-197319761D01*
X135285711Y-197319761D02*
X135238092Y-197415000D01*
X135238092Y-197415000D02*
X135142854Y-197462619D01*
X135142854Y-197462619D02*
X135047616Y-197462619D01*
X133999996Y-196462619D02*
X133999996Y-196653095D01*
X133619044Y-196462619D02*
X133619044Y-196653095D01*
X132857139Y-196938809D02*
X132714282Y-196986428D01*
X132714282Y-196986428D02*
X132666663Y-197034047D01*
X132666663Y-197034047D02*
X132619044Y-197129285D01*
X132619044Y-197129285D02*
X132619044Y-197272142D01*
X132619044Y-197272142D02*
X132666663Y-197367380D01*
X132666663Y-197367380D02*
X132714282Y-197415000D01*
X132714282Y-197415000D02*
X132809520Y-197462619D01*
X132809520Y-197462619D02*
X133190472Y-197462619D01*
X133190472Y-197462619D02*
X133190472Y-196462619D01*
X133190472Y-196462619D02*
X132857139Y-196462619D01*
X132857139Y-196462619D02*
X132761901Y-196510238D01*
X132761901Y-196510238D02*
X132714282Y-196557857D01*
X132714282Y-196557857D02*
X132666663Y-196653095D01*
X132666663Y-196653095D02*
X132666663Y-196748333D01*
X132666663Y-196748333D02*
X132714282Y-196843571D01*
X132714282Y-196843571D02*
X132761901Y-196891190D01*
X132761901Y-196891190D02*
X132857139Y-196938809D01*
X132857139Y-196938809D02*
X133190472Y-196938809D01*
X132047615Y-197462619D02*
X132142853Y-197415000D01*
X132142853Y-197415000D02*
X132190472Y-197367380D01*
X132190472Y-197367380D02*
X132238091Y-197272142D01*
X132238091Y-197272142D02*
X132238091Y-196986428D01*
X132238091Y-196986428D02*
X132190472Y-196891190D01*
X132190472Y-196891190D02*
X132142853Y-196843571D01*
X132142853Y-196843571D02*
X132047615Y-196795952D01*
X132047615Y-196795952D02*
X131904758Y-196795952D01*
X131904758Y-196795952D02*
X131809520Y-196843571D01*
X131809520Y-196843571D02*
X131761901Y-196891190D01*
X131761901Y-196891190D02*
X131714282Y-196986428D01*
X131714282Y-196986428D02*
X131714282Y-197272142D01*
X131714282Y-197272142D02*
X131761901Y-197367380D01*
X131761901Y-197367380D02*
X131809520Y-197415000D01*
X131809520Y-197415000D02*
X131904758Y-197462619D01*
X131904758Y-197462619D02*
X132047615Y-197462619D01*
X130857139Y-197462619D02*
X130857139Y-196938809D01*
X130857139Y-196938809D02*
X130904758Y-196843571D01*
X130904758Y-196843571D02*
X130999996Y-196795952D01*
X130999996Y-196795952D02*
X131190472Y-196795952D01*
X131190472Y-196795952D02*
X131285710Y-196843571D01*
X130857139Y-197415000D02*
X130952377Y-197462619D01*
X130952377Y-197462619D02*
X131190472Y-197462619D01*
X131190472Y-197462619D02*
X131285710Y-197415000D01*
X131285710Y-197415000D02*
X131333329Y-197319761D01*
X131333329Y-197319761D02*
X131333329Y-197224523D01*
X131333329Y-197224523D02*
X131285710Y-197129285D01*
X131285710Y-197129285D02*
X131190472Y-197081666D01*
X131190472Y-197081666D02*
X130952377Y-197081666D01*
X130952377Y-197081666D02*
X130857139Y-197034047D01*
X130380948Y-197462619D02*
X130380948Y-196795952D01*
X130380948Y-196986428D02*
X130333329Y-196891190D01*
X130333329Y-196891190D02*
X130285710Y-196843571D01*
X130285710Y-196843571D02*
X130190472Y-196795952D01*
X130190472Y-196795952D02*
X130095234Y-196795952D01*
X129333329Y-197462619D02*
X129333329Y-196462619D01*
X129333329Y-197415000D02*
X129428567Y-197462619D01*
X129428567Y-197462619D02*
X129619043Y-197462619D01*
X129619043Y-197462619D02*
X129714281Y-197415000D01*
X129714281Y-197415000D02*
X129761900Y-197367380D01*
X129761900Y-197367380D02*
X129809519Y-197272142D01*
X129809519Y-197272142D02*
X129809519Y-196986428D01*
X129809519Y-196986428D02*
X129761900Y-196891190D01*
X129761900Y-196891190D02*
X129714281Y-196843571D01*
X129714281Y-196843571D02*
X129619043Y-196795952D01*
X129619043Y-196795952D02*
X129428567Y-196795952D01*
X129428567Y-196795952D02*
X129333329Y-196843571D01*
X127761900Y-196938809D02*
X128095233Y-196938809D01*
X128095233Y-197462619D02*
X128095233Y-196462619D01*
X128095233Y-196462619D02*
X127619043Y-196462619D01*
X127095233Y-197462619D02*
X127190471Y-197415000D01*
X127190471Y-197415000D02*
X127238090Y-197367380D01*
X127238090Y-197367380D02*
X127285709Y-197272142D01*
X127285709Y-197272142D02*
X127285709Y-196986428D01*
X127285709Y-196986428D02*
X127238090Y-196891190D01*
X127238090Y-196891190D02*
X127190471Y-196843571D01*
X127190471Y-196843571D02*
X127095233Y-196795952D01*
X127095233Y-196795952D02*
X126952376Y-196795952D01*
X126952376Y-196795952D02*
X126857138Y-196843571D01*
X126857138Y-196843571D02*
X126809519Y-196891190D01*
X126809519Y-196891190D02*
X126761900Y-196986428D01*
X126761900Y-196986428D02*
X126761900Y-197272142D01*
X126761900Y-197272142D02*
X126809519Y-197367380D01*
X126809519Y-197367380D02*
X126857138Y-197415000D01*
X126857138Y-197415000D02*
X126952376Y-197462619D01*
X126952376Y-197462619D02*
X127095233Y-197462619D01*
X126190471Y-197462619D02*
X126285709Y-197415000D01*
X126285709Y-197415000D02*
X126333328Y-197319761D01*
X126333328Y-197319761D02*
X126333328Y-196462619D01*
X125809518Y-197462619D02*
X125809518Y-196462619D01*
X125714280Y-197081666D02*
X125428566Y-197462619D01*
X125428566Y-196795952D02*
X125809518Y-197176904D01*
X125047613Y-196462619D02*
X125047613Y-196653095D01*
X124666661Y-196462619D02*
X124666661Y-196653095D01*
X124238089Y-197367380D02*
X124190470Y-197415000D01*
X124190470Y-197415000D02*
X124238089Y-197462619D01*
X124238089Y-197462619D02*
X124285708Y-197415000D01*
X124285708Y-197415000D02*
X124238089Y-197367380D01*
X124238089Y-197367380D02*
X124238089Y-197462619D01*
M02*
