M48
; DRILL file {KiCad 7.0.1} date Sat May  6 23:27:45 2023
; FORMAT={-:-/ absolute / inch / decimal}
; #@! TF.CreationDate,2023-05-06T23:27:45+01:00
; #@! TF.GenerationSoftware,Kicad,Pcbnew,7.0.1
; #@! TF.FileFunction,Plated,1,2,PTH
FMAT,2
INCH
; #@! TA.AperFunction,Plated,PTH,ViaDrill
T1C0.0157
; #@! TA.AperFunction,Plated,PTH,ComponentDrill
T2C0.0197
; #@! TA.AperFunction,Plated,PTH,ComponentDrill
T3C0.0236
; #@! TA.AperFunction,Plated,PTH,ComponentDrill
T4C0.0256
; #@! TA.AperFunction,Plated,PTH,ViaDrill
T5C0.0315
; #@! TA.AperFunction,Plated,PTH,ComponentDrill
T6C0.0315
; #@! TA.AperFunction,Plated,PTH,ComponentDrill
T7C0.0394
; #@! TA.AperFunction,Plated,PTH,ComponentDrill
T8C0.0512
; #@! TA.AperFunction,Plated,PTH,ComponentDrill
T9C0.0551
; #@! TA.AperFunction,Plated,PTH,ComponentDrill
T10C0.0610
; #@! TA.AperFunction,Plated,PTH,ComponentDrill
T11C0.1063
; #@! TA.AperFunction,Plated,PTH,ComponentDrill
T12C0.1260
; #@! TA.AperFunction,Plated,PTH,ComponentDrill
T13C0.1500
%
G90
G05
T1
X1.2333Y-3.5201
X1.2382Y-2.0965
X1.2516Y-5.0366
X1.252Y-5.2343
X1.2528Y-5.4848
X1.258Y-2.2524
X1.2646Y-6.608
X1.2717Y-2.0969
X1.2787Y-4.4582
X1.3014Y-5.5169
X1.3124Y-6.6417
X1.3482Y-7.1114
X1.3533Y-6.654
X1.3757Y-6.7897
X1.4412Y-5.2154
X1.4424Y-6.9797
X1.4447Y-6.8135
X1.4479Y-6.5909
X1.4785Y-7.0425
X1.4797Y-2.052
X1.5097Y-3.0367
X1.5097Y-3.1962
X1.5258Y-3.2674
X1.5523Y-4.6461
X1.5676Y-5.3009
X1.5706Y-3.1915
X1.6072Y-3.9664
X1.6083Y-5.5965
X1.6102Y-1.6594
X1.6154Y-2.436
X1.6272Y-6.8199
X1.6316Y-2.6033
X1.6336Y-4.6422
X1.6367Y-3.7207
X1.6444Y-4.5048
X1.6601Y-3.0946
X1.6721Y-2.3014
X1.7109Y-2.9641
X1.7123Y-3.5677
X1.7207Y-2.2557
X1.731Y-3.7336
X1.7387Y-6.5217
X1.7402Y-3.5333
X1.7481Y-1.6637
X1.7568Y-5.8186
X1.7672Y-6.7209
X1.7736Y-7.2213
X1.7925Y-6.8946
X1.8519Y-4.7843
X1.8613Y-3.9886
X1.8674Y-2.7551
X1.8858Y-5.0984
X1.892Y-5.1373
X1.9208Y-5.1673
X1.9319Y-5.1045
X1.9401Y-1.7531
X1.9584Y-3.8843
X1.9764Y-1.3189
X1.9891Y-3.1699
X2.0059Y-5.937
X2.0216Y-3.9025
X2.022Y-7.0606
X2.0221Y-1.508
X2.0276Y-3.6673
X2.0461Y-4.0848
X2.0753Y-3.2561
X2.0874Y-3.6747
X2.1024Y-5.5984
X2.1108Y-3.6128
X2.1161Y-1.2146
X2.1275Y-1.6275
X2.145Y-4.7291
X2.1558Y-4.2809
X2.1685Y-3.9432
X2.2067Y-5.3051
X2.2269Y-1.818
X2.2432Y-5.5172
X2.2433Y-1.9977
X2.2579Y-1.3563
X2.2613Y-4.178
X2.2717Y-5.4836
X2.273Y-3.5039
X2.305Y-6.8366
X2.3071Y-1.7609
X2.3121Y-4.3741
X2.3184Y-3.9776
X2.3252Y-3.3111
X2.3459Y-3.949
X2.3711Y-4.9524
X2.3839Y-7.0024
X2.3867Y-5.8081
X2.394Y-3.7713
X2.411Y-2.94
X2.4134Y-5.5
X2.4199Y-2.8844
X2.4298Y-3.8059
X2.4325Y-3.5765
X2.433Y-6.6815
X2.4335Y-6.1369
X2.4347Y-3.3521
X2.4409Y-5.3976
X2.4414Y-2.9999
X2.5256Y-1.6281
X2.5514Y-4.0887
X2.554Y-5.6881
X2.5641Y-5.1909
X2.5693Y-5.4907
X2.5699Y-4.423
X2.5903Y-3.8157
X2.5952Y-1.6016
X2.599Y-5.7538
X2.6001Y-2.71
X2.6005Y-6.2122
X2.6047Y-1.8755
X2.6099Y-5.0344
X2.6151Y-4.212
X2.6154Y-3.5056
X2.6157Y-3.6567
X2.6191Y-3.8622
X2.6247Y-6.0348
X2.6272Y-4.9325
X2.6343Y-2.9941
X2.6422Y-5.8755
X2.6448Y-6.6017
X2.6485Y-4.0291
X2.6578Y-2.2877
X2.6592Y-3.6588
X2.6637Y-3.4084
X2.6638Y-4.244
X2.6667Y-7.3333
X2.6673Y-2.6063
X2.6698Y-6.0701
X2.6699Y-3.8727
X2.6781Y-3.8156
X2.6907Y-2.9371
X2.6935Y-2.8749
X2.6936Y-2.1618
X2.6938Y-2.8108
X2.6966Y-2.2943
X2.6976Y-3.3088
X2.6988Y-3.9016
X2.7027Y-5.2198
X2.7087Y-7.628
X2.7097Y-2.6233
X2.7106Y-5.1575
X2.7114Y-5.7118
X2.7124Y-6.448
X2.7128Y-2.3302
X2.7132Y-6.4923
X2.719Y-6.5343
X2.7206Y-5.4882
X2.7208Y-2.5856
X2.7252Y-2.1367
X2.733Y-3.0825
X2.7341Y-5.5609
X2.7392Y-5.2848
X2.7441Y-3.5951
X2.7661Y-3.9961
X2.7675Y-3.7933
X2.7691Y-5.1282
X2.7756Y-2.748
X2.7785Y-2.9306
X2.7815Y-5.0907
X2.7815Y-5.3976
X2.7815Y-1.8755
X2.7934Y-5.2263
X2.801Y-4.0178
X2.8072Y-4.3094
X2.8216Y-3.6269
X2.8381Y-5.6605
X2.8382Y-5.8919
X2.8405Y-6.8318
X2.8445Y-6.5571
X2.8452Y-7.3977
X2.8466Y-5.949
X2.8545Y-7.5265
X2.8619Y-6.947
X2.8629Y-5.8515
X2.8646Y-6.284
X2.8681Y-1.6016
X2.8692Y-3.1084
X2.8711Y-3.5537
X2.874Y-5.0738
X2.8818Y-6.773
X2.883Y-6.8452
X2.8854Y-7.6111
X2.894Y-4.2108
X2.8954Y-6.9796
X2.908Y-7.5033
X2.9085Y-6.3418
X2.911Y-3.2776
X2.9127Y-4.3243
X2.9163Y-5.5136
X2.9171Y-6.699
X2.9226Y-4.2495
X2.9468Y-2.7865
X2.951Y-2.7403
X2.9528Y-3.9974
X2.954Y-5.0076
X2.9606Y-6.1555
X2.9783Y-4.3523
X2.9913Y-5.5449
X3.0079Y-1.6247
X3.0227Y-3.8498
X3.0249Y-3.6618
X3.0324Y-6.934
X3.0335Y-2.7235
X3.0347Y-7.0954
X3.0358Y-5.8849
X3.0367Y-6.2761
X3.0472Y-3.9823
X3.0512Y-3.2657
X3.0563Y-3.7994
X3.0571Y-6.3425
X3.0856Y-6.3819
X3.1014Y-5.8144
X3.1017Y-3.9485
X3.106Y-3.6529
X3.1236Y-4.5773
X3.1236Y-2.4414
X3.1277Y-6.1539
X3.13Y-6.0701
X3.1381Y-3.7437
X3.1433Y-4.4026
X3.1555Y-6.6417
X3.178Y-2.4964
X3.1894Y-3.5955
X3.1967Y-4.2584
X3.2013Y-7.2686
X3.2017Y-3.6819
X3.2031Y-4.5777
X3.2067Y-3.1969
X3.2145Y-5.4881
X3.2307Y-7.2377
X3.2413Y-3.5028
X3.248Y-5.3527
X3.2499Y-6.321
X3.2572Y-3.3964
X3.2574Y-4.4504
X3.2758Y-3.624
X3.2817Y-3.7874
X3.282Y-7.0806
X3.2835Y-6.7442
X3.2896Y-6.2002
X3.2976Y-7.3586
X3.299Y-6.8906
X3.2992Y-2.6014
X3.3209Y-6.6367
X3.3258Y-3.5113
X3.3378Y-7.0745
X3.4032Y-7.0854
X3.4044Y-6.8487
X3.4108Y-6.0418
X3.4118Y-3.673
X3.4311Y-1.622
X3.4518Y-6.1405
X3.4528Y-6.6279
X3.4752Y-4.9325
X3.4823Y-6.6988
X3.4857Y-5.9577
X3.4914Y-7.453
X3.4926Y-6.4379
X3.497Y-7.0042
X3.507Y-3.7193
X3.5239Y-6.7905
X3.5335Y-2.3681
X3.5354Y-3.3425
X3.5388Y-5.886
X3.5545Y-3.8746
X3.5573Y-6.8216
X3.56Y-2.2586
X3.5607Y-6.1798
X3.561Y-6.9647
X3.561Y-7.6713
X3.5669Y-3.3957
X3.5867Y-6.7573
X3.6012Y-5.6951
X3.6024Y-1.9528
X3.6071Y-2.9764
X3.6071Y-3.1715
X3.62Y-6.8956
X3.6252Y-7.4056
X3.6384Y-3.7602
X3.6453Y-4.3728
X3.6496Y-3.4002
X3.652Y-7.2022
X3.6586Y-6.4954
X3.6632Y-6.3279
X3.6711Y-7.118
X3.678Y-2.6061
X3.6841Y-7.1713
X3.6904Y-3.8183
X3.6924Y-3.4467
X3.695Y-6.0055
X3.7006Y-4.589
X3.7008Y-5.9311
X3.7099Y-6.3406
X3.7178Y-6.9985
X3.7211Y-5.6934
X3.7372Y-5.9635
X3.7416Y-3.7882
X3.7461Y-6.9132
X3.7463Y-7.1265
X3.7495Y-6.3279
X3.7533Y-3.4178
X3.7708Y-5.8889
X3.7958Y-6.6338
X3.797Y-5.5096
X3.7993Y-5.7963
X3.8162Y-2.8544
X3.8168Y-4.4831
X3.82Y-3.2137
X3.828Y-1.5938
X3.8307Y-5.7244
X3.8309Y-5.8889
X3.8496Y-3.7543
X3.8551Y-3.2592
X3.8583Y-3.0827
X3.8602Y-6.3399
X3.8602Y-6.7018
X3.8602Y-7.0861
X3.8715Y-6.8168
X3.8758Y-6.2098
X3.8976Y-7.5294
X3.8996Y-3.9823
X3.9122Y-2.5256
X3.9131Y-1.6062
X3.9429Y-3.5669
X3.9467Y-3.1524
X3.952Y-4.1848
X3.9536Y-5.6923
X3.9541Y-6.1952
X3.9561Y-4.3664
X3.9587Y-5.4872
X3.9598Y-6.737
X3.9925Y-6.5913
X3.997Y-6.6657
X3.9983Y-6.4359
X4.0014Y-7.2446
X4.004Y-3.9421
X4.0074Y-6.5004
X4.012Y-7.2963
X4.0186Y-4.2032
X4.0295Y-6.6894
X4.0349Y-6.5792
X4.0394Y-2.1447
X4.0468Y-4.3708
X4.0484Y-3.5092
X4.0711Y-3.8063
X4.0998Y-3.5218
X4.1232Y-3.3999
X4.1277Y-4.4596
X4.1525Y-2.7726
X4.1555Y-3.624
X4.2073Y-3.5839
X4.2421Y-6.5759
X4.2598Y-6.3189
X4.2649Y-6.8376
X4.2669Y-6.7489
X4.2821Y-3.5904
X4.2847Y-2.8904
X4.2896Y-3.4011
X4.3199Y-4.2924
X4.3304Y-3.4586
X4.3458Y-3.7616
X4.3831Y-3.429
X4.391Y-3.8145
X4.4014Y-3.1765
X4.4175Y-4.0977
X4.4178Y-3.3902
X4.4229Y-4.8692
X4.4272Y-3.622
X4.4407Y-3.1214
X4.447Y-1.5807
X4.4567Y-3.5906
X4.4567Y-3.9528
X4.4751Y-4.5457
X4.4858Y-3.3771
X4.494Y-3.3078
X4.5135Y-4.4596
X4.5148Y-3.6512
X4.5189Y-3.2047
X4.5242Y-4.2601
X4.5287Y-3.1109
X4.5321Y-1.5496
X4.5325Y-3.5932
X4.5706Y-3.6514
X4.5736Y-4.3664
X4.5903Y-4.2149
X4.5912Y-3.2832
X4.6161Y-3.8933
X4.6379Y-5.3269
X4.6391Y-3.2843
X4.6432Y-3.9244
X4.657Y-2.1294
X4.6777Y-6.7517
X4.6941Y-3.2717
X4.6988Y-3.624
X4.7308Y-6.3494
X4.7337Y-3.7083
X4.7368Y-3.7954
X4.7372Y-4.5513
X4.7426Y-3.8392
X4.7474Y-5.28
X4.7474Y-6.4477
X4.7912Y-3.0644
X4.7965Y-1.6444
X4.801Y-2.7848
X4.8078Y-2.5994
X4.8156Y-6.6355
X4.8397Y-2.6371
X4.8682Y-4.8823
X4.8772Y-3.0213
X4.8877Y-3.0966
X4.8878Y-6.6097
X4.8879Y-3.1611
X4.9355Y-2.3731
X4.9503Y-3.1591
X4.9869Y-2.8134
X5.0256Y-5.3484
X5.0709Y-2.333
X5.0723Y-5.8911
X5.0886Y-5.2529
X5.0934Y-2.7639
X5.1262Y-4.3973
X5.1535Y-1.662
X5.2211Y-2.6347
X5.2215Y-4.3573
X5.2234Y-2.6833
X5.2331Y-5.4903
X5.2584Y-6.7517
X5.2657Y-2.7007
X5.2699Y-2.4829
X5.3052Y-5.1958
X5.3127Y-4.7662
X5.313Y-2.578
X5.327Y-2.4672
X5.3328Y-7.6201
X5.3419Y-2.542
X5.3461Y-4.4258
X5.3517Y-4.1175
X5.3547Y-6.7059
X5.369Y-4.7254
X5.3795Y-2.4428
X5.4091Y-5.4941
X5.4122Y-2.4078
X5.4221Y-2.7822
X5.4251Y-2.7429
X5.4359Y-4.7979
X5.4721Y-5.2149
X5.5055Y-3.128
X5.5177Y-3.9543
X5.5199Y-4.313
X5.5567Y-4.5266
X5.5569Y-2.4423
X5.5787Y-1.8701
X5.5807Y-3.5039
X5.5848Y-2.3703
X5.5896Y-2.6084
X5.6314Y-2.3051
X5.6516Y-3.7634
X5.655Y-3.9908
X5.6701Y-4.5153
X5.6791Y-4.8278
X5.6803Y-2.1243
X5.6989Y-2.0863
X5.7074Y-4.4469
X5.709Y-4.2556
X5.7113Y-2.3419
X5.7152Y-2.5893
X5.7368Y-2.6271
X5.743Y-2.064
X5.7521Y-5.5512
X5.7561Y-4.5482
X5.7565Y-2.5805
X5.7651Y-3.9621
X5.7709Y-2.4992
X5.7831Y-2.1898
X5.7978Y-2.5828
X5.8045Y-2.4771
X5.8199Y-4.5748
X5.8328Y-2.3031
X5.8347Y-4.7112
X5.8372Y-2.591
X5.8471Y-2.4818
X5.8608Y-5.1848
X5.861Y-2.4407
X5.8817Y-2.8239
X5.8978Y-5.2222
X5.9181Y-4.729
X5.9252Y-5.4548
X5.9609Y-5.4263
X5.9687Y-2.4721
X5.969Y-2.4038
X5.9751Y-5.2147
X5.9755Y-5.2717
X5.9789Y-2.2979
X6.0158Y-3.0839
X6.0226Y-3.9352
X6.0348Y-2.7363
X6.0433Y-5.057
X6.0479Y-4.0156
X6.0579Y-4.6974
X6.0675Y-4.7641
X6.0768Y-5.7476
X6.11Y-2.7167
X6.1434Y-4.7145
X6.145Y-4.574
X6.1757Y-4.7476
X6.1789Y-2.2806
X6.189Y-2.414
X6.2264Y-4.4559
X6.236Y-2.5047
X6.2443Y-2.4124
X6.2461Y-2.6235
X6.2568Y-3.5608
X6.2619Y-2.5836
X6.2862Y-2.6294
X6.2891Y-5.1091
X6.3007Y-6.7649
X6.337Y-2.489
X6.3526Y-2.5714
X6.3568Y-3.6268
X6.3586Y-4.0229
X6.3669Y-2.2756
X6.374Y-2.7511
X6.3862Y-2.6034
X6.3881Y-2.5355
X6.4009Y-3.3544
X6.4421Y-2.6778
X6.4427Y-6.662
X6.4453Y-2.329
X6.4482Y-4.7202
X6.4578Y-5.0807
X6.4933Y-4.0375
X6.5009Y-3.6242
X6.5111Y-2.6868
X6.5552Y-4.4559
X6.6098Y-4.1134
X6.6345Y-4.3799
X6.6367Y-4.2573
X6.6758Y-6.3768
X6.738Y-3.779
X6.7629Y-4.1366
X6.7809Y-4.3799
X6.8364Y-6.6524
X6.8839Y-4.7716
X6.905Y-3.3845
X6.9283Y-3.9671
X6.9324Y-3.4639
X6.9566Y-2.0789
X6.9707Y-3.8572
X6.973Y-1.8746
X6.9775Y-3.4756
X6.9819Y-6.7505
X6.9938Y-6.6146
X6.9998Y-4.2161
X7.0156Y-3.6391
X7.0217Y-3.6785
X7.0737Y-6.6285
X7.0799Y-3.5362
X7.0834Y-3.2463
X7.0898Y-3.2067
X7.1161Y-2.0791
X7.1174Y-5.3502
X7.1202Y-4.5633
X7.124Y-2.9055
X7.1299Y-2.4665
X7.1304Y-4.3441
X7.1308Y-5.292
X7.187Y-5.1693
X7.1954Y-5.2915
X7.2176Y-3.3216
X7.2474Y-3.1812
X7.2793Y-2.0394
X7.3122Y-4.288
X7.3164Y-6.4354
X7.5905Y-6.6831
X7.6654Y-4.2244
T2
X1.266Y-1.5087
X1.266Y-7.6087
X1.299Y-1.4291
X1.299Y-1.5882
X1.299Y-7.5291
X1.299Y-7.6882
X1.3785Y-1.3962
X1.3785Y-1.6212
X1.3785Y-7.4962
X1.3785Y-7.7212
X1.4581Y-1.4291
X1.4581Y-1.5882
X1.4581Y-7.5291
X1.4581Y-7.6882
X1.491Y-1.5087
X1.491Y-7.6087
X7.466Y-2.4087
X7.466Y-7.6087
X7.499Y-2.3291
X7.499Y-2.4882
X7.499Y-7.5291
X7.499Y-7.6882
X7.5785Y-2.2962
X7.5785Y-2.5212
X7.5785Y-7.4962
X7.5785Y-7.7212
X7.6581Y-2.3291
X7.6581Y-2.4882
X7.6581Y-7.5291
X7.6581Y-7.6882
X7.691Y-2.4087
X7.691Y-7.6087
T3
X2.7894Y-1.2933
X2.8681Y-1.2933
X6.748Y-5.3091
X6.8268Y-5.3091
T4
X5.5171Y-1.7795
X5.5171Y-1.8295
X5.5171Y-1.9244
X5.5171Y-1.9744
X5.6398Y-1.7795
X5.6398Y-1.8295
X5.6398Y-1.9244
X5.6398Y-1.9744
T5
X1.498Y-2.6496
X1.561Y-7.1594
X1.7638Y-3.4193
X1.7657Y-7.4055
X2.5763Y-7.4356
X2.6811Y-7.5315
X2.6929Y-5.7933
X2.7638Y-4.4665
X2.8031Y-3.1063
X2.8973Y-2.9291
X3.0842Y-7.1511
X3.1029Y-6.9626
X3.1742Y-7.0856
X3.181Y-5.9528
X3.1988Y-3.3012
X3.4596Y-3.5876
X3.4646Y-3.3937
X3.4687Y-3.762
X3.5159Y-2.8758
X3.5177Y-3.935
X3.5492Y-4.3248
X3.5929Y-2.8921
X3.8829Y-7.5787
X4.3783Y-2.7559
X5.126Y-2.4883
X5.126Y-5.5197
X5.2165Y-4.2736
X5.2224Y-4.5571
X5.4843Y-5.5
X5.5906Y-3.9409
X5.5906Y-6.7047
X5.9243Y-3.6748
X5.9528Y-6.6929
X6.0886Y-2.9685
X6.2385Y-3.0742
X6.7047Y-3.5492
X6.7787Y-2.7008
X6.8115Y-3.7756
X6.8297Y-2.3448
X6.8361Y-4.962
X6.8583Y-3.815
X6.878Y-3.874
X6.9173Y-3.9193
X6.9764Y-2.2047
X6.9783Y-4.8189
X7.2421Y-3.6614
X7.2598Y-2.9213
X7.2622Y-2.3456
X7.376Y-2.4682
X7.4173Y-3.5039
X7.4685Y-4.9154
X7.5472Y-3.4652
X7.5512Y-2.8248
X7.5512Y-3.6618
X7.5807Y-4.7008
X7.687Y-2.6476
X7.69Y-3.7382
X7.7008Y-4.3425
X7.7047Y-4.126
T6
X1.7933Y-1.9325
X1.7933Y-2.5325
X1.8933Y-1.9325
X1.8933Y-2.5325
X1.9071Y-3.0291
X1.9071Y-3.1291
X1.9071Y-3.2291
X1.9071Y-3.3291
X1.9071Y-3.4291
X1.9071Y-3.5291
X1.9071Y-3.6291
X1.9071Y-3.7291
X1.9071Y-3.8291
X1.9071Y-3.9291
X1.9071Y-4.0291
X1.9071Y-4.1291
X1.9071Y-4.2291
X1.9071Y-4.3291
X1.9071Y-4.4291
X1.9071Y-4.5291
X1.9071Y-4.6291
X1.9071Y-4.7291
X1.9071Y-4.8291
X1.9071Y-4.9291
X1.9075Y-5.448
X1.9075Y-5.548
X1.9075Y-5.648
X1.9075Y-5.748
X1.9075Y-5.848
X1.9075Y-5.948
X1.9075Y-6.048
X1.9075Y-6.148
X1.9075Y-6.248
X1.9075Y-6.348
X1.9075Y-6.448
X1.9075Y-6.548
X1.9075Y-6.648
X1.9075Y-6.748
X1.9075Y-6.848
X1.9075Y-6.948
X1.9075Y-7.048
X1.9075Y-7.148
X1.9075Y-7.248
X1.9075Y-7.348
X1.9933Y-1.9325
X1.9933Y-2.5325
X2.0933Y-1.9325
X2.0933Y-2.5325
X2.1933Y-1.9325
X2.1933Y-2.5325
X2.2933Y-1.9325
X2.2933Y-2.5325
X2.3933Y-1.9325
X2.3933Y-2.5325
X2.4933Y-1.9325
X2.4933Y-2.5325
X2.5071Y-3.0291
X2.5071Y-3.1291
X2.5071Y-3.2291
X2.5071Y-3.3291
X2.5071Y-3.4291
X2.5071Y-3.5291
X2.5071Y-3.6291
X2.5071Y-3.7291
X2.5071Y-3.8291
X2.5071Y-3.9291
X2.5071Y-4.0291
X2.5071Y-4.1291
X2.5071Y-4.2291
X2.5071Y-4.3291
X2.5071Y-4.4291
X2.5071Y-4.5291
X2.5071Y-4.6291
X2.5071Y-4.7291
X2.5071Y-4.8291
X2.5071Y-4.9291
X2.5075Y-5.448
X2.5075Y-5.548
X2.5075Y-5.648
X2.5075Y-5.748
X2.5075Y-5.848
X2.5075Y-5.948
X2.5075Y-6.048
X2.5075Y-6.148
X2.5075Y-6.248
X2.5075Y-6.348
X2.5075Y-6.448
X2.5075Y-6.548
X2.5075Y-6.648
X2.5075Y-6.748
X2.5075Y-6.848
X2.5075Y-6.948
X2.5075Y-7.048
X2.5075Y-7.148
X2.5075Y-7.248
X2.5075Y-7.348
X2.5933Y-1.9325
X2.5933Y-2.5325
X2.6933Y-1.9325
X2.6933Y-2.5325
X2.7933Y-1.9325
X2.7933Y-2.5325
X2.8933Y-1.9325
X2.8933Y-2.5325
X2.9933Y-1.9325
X2.9933Y-2.5325
X3.0433Y-4.086
X3.0433Y-4.686
X3.0433Y-4.8285
X3.0433Y-5.4285
X3.0933Y-1.9325
X3.0933Y-2.5325
X3.1433Y-4.086
X3.1433Y-4.686
X3.1433Y-4.8285
X3.1433Y-5.4285
X3.2433Y-4.086
X3.2433Y-4.686
X3.2433Y-4.8285
X3.2433Y-5.4285
X3.3433Y-4.086
X3.3433Y-4.686
X3.3433Y-4.8285
X3.3433Y-5.4285
X3.3809Y-1.8065
X3.3809Y-2.4065
X3.4433Y-4.086
X3.4433Y-4.686
X3.4433Y-4.8285
X3.4433Y-5.4285
X3.4809Y-1.8065
X3.4809Y-2.4065
X3.5433Y-4.086
X3.5433Y-4.686
X3.5433Y-4.8285
X3.5433Y-5.4285
X3.5809Y-1.8065
X3.5809Y-2.4065
X3.6433Y-4.086
X3.6433Y-4.686
X3.6433Y-4.8285
X3.6433Y-5.4285
X3.6809Y-1.8065
X3.6809Y-2.4065
X3.7433Y-4.086
X3.7433Y-4.686
X3.7433Y-4.8285
X3.7433Y-5.4285
X3.7809Y-1.8065
X3.7809Y-2.4065
X3.8433Y-4.086
X3.8433Y-4.686
X3.8433Y-4.8285
X3.8433Y-5.4285
X3.8809Y-1.8065
X3.8809Y-2.4065
X3.9433Y-4.086
X3.9433Y-4.686
X3.9433Y-4.8285
X3.9433Y-5.4285
X3.9809Y-1.8065
X3.9809Y-2.4065
X3.9823Y-2.6831
X4.0433Y-4.086
X4.0433Y-4.686
X4.0433Y-4.8285
X4.0433Y-5.4285
X4.0809Y-1.8065
X4.0809Y-2.4065
X4.1299Y-5.8352
X4.1299Y-5.9352
X4.1299Y-6.0352
X4.1299Y-6.1352
X4.1299Y-6.2352
X4.1299Y-6.3352
X4.1299Y-6.4352
X4.1299Y-6.5352
X4.1299Y-6.8524
X4.1299Y-6.9524
X4.1299Y-7.0524
X4.1299Y-7.1524
X4.1299Y-7.2524
X4.1299Y-7.3524
X4.1299Y-7.4524
X4.1299Y-7.5524
X4.1433Y-4.086
X4.1433Y-4.686
X4.1433Y-4.8285
X4.1433Y-5.4285
X4.1744Y-2.6831
X4.1809Y-1.8065
X4.1809Y-2.4065
X4.2433Y-4.086
X4.2433Y-4.686
X4.2433Y-4.8285
X4.2433Y-5.4285
X4.2809Y-1.8065
X4.2809Y-2.4065
X4.3433Y-4.086
X4.3433Y-4.686
X4.3433Y-4.8285
X4.3433Y-5.4285
X4.3809Y-1.8065
X4.3809Y-2.4065
X4.4299Y-5.8352
X4.4299Y-5.9352
X4.4299Y-6.0352
X4.4299Y-6.1352
X4.4299Y-6.2352
X4.4299Y-6.3352
X4.4299Y-6.4352
X4.4299Y-6.5352
X4.4299Y-6.8524
X4.4299Y-6.9524
X4.4299Y-7.0524
X4.4299Y-7.1524
X4.4299Y-7.2524
X4.4299Y-7.3524
X4.4299Y-7.4524
X4.4299Y-7.5524
X4.4809Y-1.8065
X4.4809Y-2.4065
X4.5236Y-5.8352
X4.5236Y-5.9352
X4.5236Y-6.0352
X4.5236Y-6.1352
X4.5236Y-6.2352
X4.5236Y-6.3352
X4.5236Y-6.4352
X4.5236Y-6.5352
X4.5236Y-6.8524
X4.5236Y-6.9524
X4.5236Y-7.0524
X4.5236Y-7.1524
X4.5236Y-7.2524
X4.5236Y-7.3524
X4.5236Y-7.4524
X4.5236Y-7.5524
X4.5809Y-1.8065
X4.5809Y-2.4065
X4.6091Y-4.9902
X4.6091Y-5.5902
X4.6809Y-1.8065
X4.6809Y-2.4065
X4.7091Y-4.9902
X4.7091Y-5.5902
X4.7809Y-1.8065
X4.7809Y-2.4065
X4.8068Y-3.257
X4.8068Y-3.857
X4.8091Y-4.9902
X4.8091Y-5.5902
X4.8236Y-5.8352
X4.8236Y-5.9352
X4.8236Y-6.0352
X4.8236Y-6.1352
X4.8236Y-6.2352
X4.8236Y-6.3352
X4.8236Y-6.4352
X4.8236Y-6.5352
X4.8236Y-6.8524
X4.8236Y-6.9524
X4.8236Y-7.0524
X4.8236Y-7.1524
X4.8236Y-7.2524
X4.8236Y-7.3524
X4.8236Y-7.4524
X4.8236Y-7.5524
X4.8809Y-1.8065
X4.8809Y-2.4065
X4.9068Y-3.257
X4.9068Y-3.857
X4.9091Y-4.9902
X4.9091Y-5.5902
X4.9173Y-5.8354
X4.9173Y-5.9354
X4.9173Y-6.0354
X4.9173Y-6.1354
X4.9173Y-6.2354
X4.9173Y-6.3354
X4.9173Y-6.4354
X4.9173Y-6.5354
X4.9173Y-6.8524
X4.9173Y-6.9524
X4.9173Y-7.0524
X4.9173Y-7.1524
X4.9173Y-7.2524
X4.9173Y-7.3524
X4.9173Y-7.4524
X4.9173Y-7.5524
X4.9809Y-1.8065
X4.9809Y-2.4065
X5.0012Y-4.0492
X5.0012Y-4.6492
X5.0068Y-3.257
X5.0068Y-3.857
X5.0091Y-4.9902
X5.0091Y-5.5902
X5.0809Y-1.8065
X5.0809Y-2.4065
X5.1012Y-4.0492
X5.1012Y-4.6492
X5.1068Y-3.257
X5.1068Y-3.857
X5.1091Y-4.9902
X5.1091Y-5.5902
X5.1809Y-1.8065
X5.1809Y-2.4065
X5.2012Y-4.0492
X5.2012Y-4.6492
X5.2068Y-3.257
X5.2068Y-3.857
X5.2091Y-4.9902
X5.2091Y-5.5902
X5.2173Y-5.8354
X5.2173Y-5.9354
X5.2173Y-6.0354
X5.2173Y-6.1354
X5.2173Y-6.2354
X5.2173Y-6.3354
X5.2173Y-6.4354
X5.2173Y-6.5354
X5.2173Y-6.8524
X5.2173Y-6.9524
X5.2173Y-7.0524
X5.2173Y-7.1524
X5.2173Y-7.2524
X5.2173Y-7.3524
X5.2173Y-7.4524
X5.2173Y-7.5524
X5.2809Y-1.8065
X5.2809Y-2.4065
X5.3012Y-4.0492
X5.3012Y-4.6492
X5.3068Y-3.257
X5.3068Y-3.857
X5.3091Y-4.9902
X5.3091Y-5.5902
X5.311Y-5.8354
X5.311Y-5.9354
X5.311Y-6.0354
X5.311Y-6.1354
X5.311Y-6.2354
X5.311Y-6.3354
X5.311Y-6.4354
X5.311Y-6.5354
X5.311Y-6.8524
X5.311Y-6.9524
X5.311Y-7.0524
X5.311Y-7.1524
X5.311Y-7.2524
X5.311Y-7.3524
X5.311Y-7.4524
X5.311Y-7.5524
X5.3385Y-3.0227
X5.4012Y-4.0492
X5.4012Y-4.6492
X5.4068Y-3.257
X5.4068Y-3.857
X5.4091Y-4.9902
X5.4091Y-5.5902
X5.4385Y-3.0227
X5.5012Y-4.0492
X5.5012Y-4.6492
X5.5068Y-3.257
X5.5068Y-3.857
X5.5091Y-4.9902
X5.5091Y-5.5902
X5.5385Y-3.0227
X5.6012Y-4.0492
X5.6012Y-4.6492
X5.6068Y-3.257
X5.6068Y-3.857
X5.6091Y-4.9902
X5.6091Y-5.5902
X5.611Y-5.8354
X5.611Y-5.9354
X5.611Y-6.0354
X5.611Y-6.1354
X5.611Y-6.2354
X5.611Y-6.3354
X5.611Y-6.4354
X5.611Y-6.5354
X5.611Y-6.8524
X5.611Y-6.9524
X5.611Y-7.0524
X5.611Y-7.1524
X5.611Y-7.2524
X5.611Y-7.3524
X5.611Y-7.4524
X5.611Y-7.5524
X5.6385Y-3.0227
X5.7012Y-4.0492
X5.7012Y-4.6492
X5.7047Y-5.8354
X5.7047Y-5.9354
X5.7047Y-6.0354
X5.7047Y-6.1354
X5.7047Y-6.2354
X5.7047Y-6.3354
X5.7047Y-6.4354
X5.7047Y-6.5354
X5.7047Y-6.8524
X5.7047Y-6.9524
X5.7047Y-7.0524
X5.7047Y-7.1524
X5.7047Y-7.2524
X5.7047Y-7.3524
X5.7047Y-7.4524
X5.7047Y-7.5524
X5.7068Y-3.257
X5.7068Y-3.857
X5.7091Y-4.9902
X5.7091Y-5.5902
X5.7385Y-3.0227
X5.8012Y-4.0492
X5.8012Y-4.6492
X5.8068Y-3.257
X5.8068Y-3.857
X5.8091Y-4.9902
X5.8091Y-5.5902
X5.8385Y-3.0227
X5.9012Y-4.0492
X5.9012Y-4.6492
X5.9068Y-3.257
X5.9068Y-3.857
X5.9091Y-4.9902
X5.9091Y-5.5902
X5.9385Y-3.0227
X6.0012Y-4.0492
X6.0012Y-4.6492
X6.0047Y-5.8354
X6.0047Y-5.9354
X6.0047Y-6.0354
X6.0047Y-6.1354
X6.0047Y-6.2354
X6.0047Y-6.3354
X6.0047Y-6.4354
X6.0047Y-6.5354
X6.0047Y-6.8524
X6.0047Y-6.9524
X6.0047Y-7.0524
X6.0047Y-7.1524
X6.0047Y-7.2524
X6.0047Y-7.3524
X6.0047Y-7.4524
X6.0047Y-7.5524
X6.0068Y-3.257
X6.0068Y-3.857
X6.0091Y-4.9902
X6.0091Y-5.5902
X6.0339Y-2.0217
X6.0339Y-2.1217
X6.0339Y-2.2217
X6.0339Y-2.3217
X6.0339Y-2.4217
X6.0339Y-2.5217
X6.0339Y-2.6217
X6.0382Y-1.4498
X6.0382Y-1.56
X6.0385Y-3.0227
X6.0984Y-5.8354
X6.0984Y-5.9354
X6.0984Y-6.0354
X6.0984Y-6.1354
X6.0984Y-6.2354
X6.0984Y-6.3354
X6.0984Y-6.4354
X6.0984Y-6.5354
X6.0984Y-6.8524
X6.0984Y-6.9524
X6.0984Y-7.0524
X6.0984Y-7.1524
X6.0984Y-7.2524
X6.0984Y-7.3524
X6.0984Y-7.4524
X6.0984Y-7.5524
X6.1012Y-4.0492
X6.1012Y-4.6492
X6.1068Y-3.257
X6.1068Y-3.857
X6.1091Y-4.9902
X6.1091Y-5.5902
X6.1209Y-1.4498
X6.1385Y-3.0227
X6.145Y-1.7899
X6.2068Y-3.257
X6.2068Y-3.857
X6.2091Y-4.9902
X6.2091Y-5.5902
X6.2232Y-1.4498
X6.3059Y-1.4498
X6.3059Y-1.56
X6.3068Y-3.257
X6.3068Y-3.857
X6.3091Y-4.9902
X6.3091Y-5.5902
X6.3372Y-1.7899
X6.3984Y-5.8354
X6.3984Y-5.9354
X6.3984Y-6.0354
X6.3984Y-6.1354
X6.3984Y-6.2354
X6.3984Y-6.3354
X6.3984Y-6.4354
X6.3984Y-6.5354
X6.3984Y-6.8524
X6.3984Y-6.9524
X6.3984Y-7.0524
X6.3984Y-7.1524
X6.3984Y-7.2524
X6.3984Y-7.3524
X6.3984Y-7.4524
X6.3984Y-7.5524
X6.4068Y-3.257
X6.4068Y-3.857
X6.4091Y-4.9902
X6.4091Y-5.5902
X6.4921Y-5.8354
X6.4921Y-5.9354
X6.4921Y-6.0354
X6.4921Y-6.1354
X6.4921Y-6.2354
X6.4921Y-6.3354
X6.4921Y-6.4354
X6.4921Y-6.5354
X6.4921Y-6.8524
X6.4921Y-6.9524
X6.4921Y-7.0524
X6.4921Y-7.1524
X6.4921Y-7.2524
X6.4921Y-7.3524
X6.4921Y-7.4524
X6.4921Y-7.5524
X6.5068Y-3.257
X6.5068Y-3.857
X6.5091Y-4.9902
X6.5091Y-5.5902
X6.6068Y-3.257
X6.6068Y-3.857
X6.6339Y-2.0217
X6.6339Y-2.1217
X6.6339Y-2.2217
X6.6339Y-2.3217
X6.6339Y-2.4217
X6.6339Y-2.5217
X6.6339Y-2.6217
X6.7068Y-3.257
X6.7068Y-3.857
X6.7921Y-5.8354
X6.7921Y-5.9354
X6.7921Y-6.0354
X6.7921Y-6.1354
X6.7921Y-6.2354
X6.7921Y-6.3354
X6.7921Y-6.4354
X6.7921Y-6.5354
X6.7921Y-6.8524
X6.7921Y-6.9524
X6.7921Y-7.0524
X6.7921Y-7.1524
X6.7921Y-7.2524
X6.7921Y-7.3524
X6.7921Y-7.4524
X6.7921Y-7.5524
X6.8858Y-5.8354
X6.8858Y-5.9354
X6.8858Y-6.0354
X6.8858Y-6.1354
X6.8858Y-6.2354
X6.8858Y-6.3354
X6.8858Y-6.4354
X6.8858Y-6.5354
X6.8858Y-6.8524
X6.8858Y-6.9524
X6.8858Y-7.0524
X6.8858Y-7.1524
X6.8858Y-7.2524
X6.8858Y-7.3524
X6.8858Y-7.4524
X6.8858Y-7.5524
X7.1858Y-5.8354
X7.1858Y-5.9354
X7.1858Y-6.0354
X7.1858Y-6.1354
X7.1858Y-6.2354
X7.1858Y-6.3354
X7.1858Y-6.4354
X7.1858Y-6.5354
X7.1858Y-6.8524
X7.1858Y-6.9524
X7.1858Y-7.0524
X7.1858Y-7.1524
X7.1858Y-7.2524
X7.1858Y-7.3524
X7.1858Y-7.4524
X7.1858Y-7.5524
X7.5396Y-1.992
X7.638Y-1.992
T7
X1.3207Y-1.9477
X1.3207Y-2.0477
X1.3207Y-2.1477
X1.3207Y-2.2477
X1.3207Y-2.3477
X1.3207Y-2.4477
X1.3207Y-2.5477
X1.3207Y-2.6477
X1.3207Y-2.7477
X1.3207Y-2.8477
X1.3207Y-2.9477
X1.3207Y-3.0477
X1.3207Y-3.1477
X1.3207Y-3.2477
X1.3207Y-3.3477
X1.3207Y-3.4477
X1.3207Y-3.5477
X1.3207Y-3.6477
X1.3207Y-3.7477
X1.3207Y-3.8477
X1.3207Y-3.9477
X1.3207Y-4.0477
X1.3207Y-4.1477
X1.3207Y-4.2477
X1.3207Y-4.3477
X1.3803Y-5.9529
X1.3803Y-6.1031
X1.3803Y-6.2539
X1.4207Y-1.9477
X1.4207Y-2.0477
X1.4207Y-2.1477
X1.4207Y-2.2477
X1.4207Y-2.3477
X1.4207Y-2.4477
X1.4207Y-2.5477
X1.4207Y-2.6477
X1.4207Y-2.7477
X1.4207Y-2.8477
X1.4207Y-2.9477
X1.4207Y-3.0477
X1.4207Y-3.1477
X1.4207Y-3.2477
X1.4207Y-3.3477
X1.4207Y-3.4477
X1.4207Y-3.5477
X1.4207Y-3.6477
X1.4207Y-3.7477
X1.4207Y-3.8477
X1.4207Y-3.9477
X1.4207Y-4.0477
X1.4207Y-4.1477
X1.4207Y-4.2477
X1.4207Y-4.3477
X1.4803Y-5.9529
X1.4803Y-6.1031
X1.4803Y-6.2539
X1.6673Y-7.4496
X1.6673Y-7.5496
X1.6673Y-7.6496
X1.6929Y-1.31
X1.6929Y-1.41
X4.4406Y-2.876
X4.5406Y-2.876
X4.6406Y-2.876
X4.7406Y-2.876
X4.8406Y-2.876
X4.9406Y-2.876
X4.9616Y-3.0669
X4.9823Y-1.5286
X5.0368Y-1.4168
X5.0406Y-2.876
X5.0616Y-3.0669
X5.0913Y-1.5286
X5.1406Y-2.876
X5.1459Y-1.4168
X5.2004Y-1.5286
X5.2406Y-2.876
X5.2549Y-1.4168
X5.3094Y-1.5286
X5.3406Y-2.876
X5.364Y-1.4168
X5.4185Y-1.5286
X5.4406Y-2.876
X5.5406Y-2.876
X5.6406Y-2.876
X5.7406Y-2.876
X5.8406Y-2.876
X5.9406Y-2.876
X6.0406Y-2.876
X6.1406Y-2.876
X6.2406Y-2.876
X6.3406Y-2.876
X6.5402Y-2.876
X6.6402Y-2.876
X6.7402Y-2.876
X6.9706Y-2.6902
X6.9706Y-2.7902
X7.0706Y-2.6902
X7.0706Y-2.7902
X7.152Y-4.6988
X7.1524Y-4.8425
X7.1706Y-2.6902
X7.1706Y-2.7902
X7.252Y-4.6988
X7.2524Y-4.8425
X7.4376Y-4.8228
X7.5Y-2.9118
X7.5Y-3.0118
X7.5Y-3.1118
X7.5Y-3.2118
X7.5Y-3.3118
X7.5Y-3.4118
X7.5Y-3.5118
X7.5Y-3.6118
X7.5Y-3.7118
X7.5Y-3.8118
X7.5Y-3.9118
X7.5Y-4.0118
X7.5Y-4.1118
X7.5Y-4.2118
X7.5Y-4.3118
X7.5Y-4.4118
X7.5Y-4.5118
X7.5376Y-4.8228
X7.6Y-2.9118
X7.6Y-3.0118
X7.6Y-3.1118
X7.6Y-3.2118
X7.6Y-3.3118
X7.6Y-3.4118
X7.6Y-3.5118
X7.6Y-3.6118
X7.6Y-3.7118
X7.6Y-3.8118
X7.6Y-3.9118
X7.6Y-4.0118
X7.6Y-4.1118
X7.6Y-4.2118
X7.6Y-4.3118
X7.6Y-4.4118
X7.6Y-4.5118
T8
X6.6442Y-1.6129
X6.7427Y-1.7113
X6.9395Y-1.6129
X6.9395Y-1.8097
X7.1364Y-1.7113
X7.2348Y-1.6129
T9
X7.4449Y-5.4429
X7.4449Y-5.6083
X7.4449Y-5.7736
X7.4449Y-5.939
X7.4449Y-6.1043
X7.4449Y-6.2697
X7.4449Y-6.435
X7.4449Y-6.6004
X7.4449Y-6.7657
X7.4449Y-6.9311
X7.4449Y-7.0965
X7.4449Y-7.2618
X7.6614Y-5.4429
X7.6614Y-5.6083
X7.6614Y-5.7736
X7.6614Y-5.939
X7.6614Y-6.1043
X7.6614Y-6.2697
X7.6614Y-6.435
X7.6614Y-6.6004
X7.6614Y-6.7657
X7.6614Y-6.9311
X7.6614Y-7.0965
X7.6614Y-7.2618
T10
X6.7395Y-1.221
X6.8411Y-1.2191
X6.9395Y-1.221
X7.0379Y-1.2191
X7.1332Y-1.221
T11
X1.3455Y-4.7179
X3.3455Y-3.0079
T12
X4.7083Y-1.4727
X5.6925Y-1.4727
T13
X1.3785Y-1.5087
X1.3785Y-7.6087
X7.5785Y-2.4087
X7.5785Y-7.6087
T6
G00X3.0301Y-1.4734
M15
G01X3.0301Y-1.5009
M16
G05
G00X3.1285Y-1.4734
M15
G01X3.1285Y-1.5009
M16
G05
G00X3.2407Y-1.2903
M15
G01X3.2131Y-1.2903
M16
G05
G00X3.3253Y-1.4734
M15
G01X3.3253Y-1.5009
M16
G05
G00X3.4238Y-1.4734
M15
G01X3.4238Y-1.5009
M16
G05
G00X3.5601Y-1.4734
M15
G01X3.5601Y-1.5009
M16
G05
G00X3.6585Y-1.4734
M15
G01X3.6585Y-1.5009
M16
G05
G00X3.7707Y-1.2903
M15
G01X3.7431Y-1.2903
M16
G05
G00X3.8553Y-1.4734
M15
G01X3.8553Y-1.5009
M16
G05
G00X3.9538Y-1.4734
M15
G01X3.9538Y-1.5009
M16
G05
G00X4.1031Y-1.4731
M15
G01X4.1031Y-1.5006
M16
G05
G00X4.2016Y-1.4731
M15
G01X4.2016Y-1.5006
M16
G05
G00X4.3138Y-1.29
M15
G01X4.2862Y-1.29
M16
G05
G00X4.3984Y-1.4731
M15
G01X4.3984Y-1.5006
M16
G05
G00X4.4969Y-1.4731
M15
G01X4.4969Y-1.5006
M16
G05
T7
G00X5.9024Y-1.3671
M15
G01X5.9024Y-1.3081
M16
G05
G00X6.2114Y-1.3061
M15
G01X6.1327Y-1.3061
M16
G05
G00X6.4417Y-1.3671
M15
G01X6.4417Y-1.3081
M16
G05
G00X7.4427Y-1.4987
M15
G01X7.4427Y-1.5775
M16
G05
G00X7.6671Y-1.42
M15
G01X7.5883Y-1.42
M16
G05
G00X7.6671Y-1.6562
M15
G01X7.5883Y-1.6562
M16
G05
T0
M30
