%TF.GenerationSoftware,KiCad,Pcbnew,(6.0.7)*%
%TF.CreationDate,2022-12-20T23:04:02+00:00*%
%TF.ProjectId,CPC464-2MINIDDI,43504334-3634-42d3-924d-494e49444449,rev?*%
%TF.SameCoordinates,Original*%
%TF.FileFunction,Paste,Top*%
%TF.FilePolarity,Positive*%
%FSLAX46Y46*%
G04 Gerber Fmt 4.6, Leading zero omitted, Abs format (unit mm)*
G04 Created by KiCad (PCBNEW (6.0.7)) date 2022-12-20 23:04:02*
%MOMM*%
%LPD*%
G01*
G04 APERTURE LIST*
G04 Aperture macros list*
%AMRoundRect*
0 Rectangle with rounded corners*
0 $1 Rounding radius*
0 $2 $3 $4 $5 $6 $7 $8 $9 X,Y pos of 4 corners*
0 Add a 4 corners polygon primitive as box body*
4,1,4,$2,$3,$4,$5,$6,$7,$8,$9,$2,$3,0*
0 Add four circle primitives for the rounded corners*
1,1,$1+$1,$2,$3*
1,1,$1+$1,$4,$5*
1,1,$1+$1,$6,$7*
1,1,$1+$1,$8,$9*
0 Add four rect primitives between the rounded corners*
20,1,$1+$1,$2,$3,$4,$5,0*
20,1,$1+$1,$4,$5,$6,$7,0*
20,1,$1+$1,$6,$7,$8,$9,0*
20,1,$1+$1,$8,$9,$2,$3,0*%
G04 Aperture macros list end*
%ADD10RoundRect,0.150000X-0.825000X-0.150000X0.825000X-0.150000X0.825000X0.150000X-0.825000X0.150000X0*%
%ADD11RoundRect,0.150000X0.150000X-0.825000X0.150000X0.825000X-0.150000X0.825000X-0.150000X-0.825000X0*%
%ADD12RoundRect,0.250000X-0.375000X-0.625000X0.375000X-0.625000X0.375000X0.625000X-0.375000X0.625000X0*%
%ADD13RoundRect,0.250000X-0.262500X-0.450000X0.262500X-0.450000X0.262500X0.450000X-0.262500X0.450000X0*%
%ADD14RoundRect,0.250000X0.250000X0.475000X-0.250000X0.475000X-0.250000X-0.475000X0.250000X-0.475000X0*%
%ADD15RoundRect,0.250000X-0.475000X0.250000X-0.475000X-0.250000X0.475000X-0.250000X0.475000X0.250000X0*%
%ADD16RoundRect,0.250000X0.475000X-0.250000X0.475000X0.250000X-0.475000X0.250000X-0.475000X-0.250000X0*%
%ADD17RoundRect,0.250000X-0.250000X-0.475000X0.250000X-0.475000X0.250000X0.475000X-0.250000X0.475000X0*%
%ADD18RoundRect,0.250000X0.450000X-0.262500X0.450000X0.262500X-0.450000X0.262500X-0.450000X-0.262500X0*%
%ADD19RoundRect,0.250000X-0.450000X0.262500X-0.450000X-0.262500X0.450000X-0.262500X0.450000X0.262500X0*%
%ADD20RoundRect,0.150000X-0.875000X-0.150000X0.875000X-0.150000X0.875000X0.150000X-0.875000X0.150000X0*%
%ADD21RoundRect,0.250000X0.262500X0.450000X-0.262500X0.450000X-0.262500X-0.450000X0.262500X-0.450000X0*%
%ADD22R,0.900000X1.200000*%
G04 APERTURE END LIST*
D10*
%TO.C,IC408*%
X105119400Y-65481200D03*
X105119400Y-66751200D03*
X105119400Y-68021200D03*
X105119400Y-69291200D03*
X105119400Y-70561200D03*
X105119400Y-71831200D03*
X105119400Y-73101200D03*
X110069400Y-73101200D03*
X110069400Y-71831200D03*
X110069400Y-70561200D03*
X110069400Y-69291200D03*
X110069400Y-68021200D03*
X110069400Y-66751200D03*
X110069400Y-65481200D03*
%TD*%
D11*
%TO.C,IC412*%
X89890600Y-70750200D03*
X91160600Y-70750200D03*
X92430600Y-70750200D03*
X93700600Y-70750200D03*
X94970600Y-70750200D03*
X96240600Y-70750200D03*
X97510600Y-70750200D03*
X97510600Y-65800200D03*
X96240600Y-65800200D03*
X94970600Y-65800200D03*
X93700600Y-65800200D03*
X92430600Y-65800200D03*
X91160600Y-65800200D03*
X89890600Y-65800200D03*
%TD*%
D12*
%TO.C,D450*%
X100911200Y-99060000D03*
X103711200Y-99060000D03*
%TD*%
D13*
%TO.C,R411*%
X104319700Y-47345600D03*
X106144700Y-47345600D03*
%TD*%
D14*
%TO.C,C453*%
X81899800Y-65354200D03*
X79999800Y-65354200D03*
%TD*%
D13*
%TO.C,R454*%
X80037300Y-68834000D03*
X81862300Y-68834000D03*
%TD*%
D15*
%TO.C,C408*%
X86410800Y-57724000D03*
X86410800Y-59624000D03*
%TD*%
D16*
%TO.C,C407*%
X100406200Y-50226000D03*
X100406200Y-48326000D03*
%TD*%
D17*
%TO.C,C412*%
X106644400Y-62026800D03*
X108544400Y-62026800D03*
%TD*%
D11*
%TO.C,IC410*%
X89789000Y-61149000D03*
X91059000Y-61149000D03*
X92329000Y-61149000D03*
X93599000Y-61149000D03*
X94869000Y-61149000D03*
X96139000Y-61149000D03*
X97409000Y-61149000D03*
X97409000Y-56199000D03*
X96139000Y-56199000D03*
X94869000Y-56199000D03*
X93599000Y-56199000D03*
X92329000Y-56199000D03*
X91059000Y-56199000D03*
X89789000Y-56199000D03*
%TD*%
D18*
%TO.C,R404*%
X124561600Y-85062700D03*
X124561600Y-83237700D03*
%TD*%
D19*
%TO.C,R405*%
X124561600Y-78868900D03*
X124561600Y-80693900D03*
%TD*%
D16*
%TO.C,C404*%
X67462400Y-69545200D03*
X67462400Y-67645200D03*
%TD*%
D13*
%TO.C,R416*%
X95963100Y-89128600D03*
X97788100Y-89128600D03*
%TD*%
D15*
%TO.C,C403*%
X87706200Y-91150400D03*
X87706200Y-93050400D03*
%TD*%
D17*
%TO.C,C455*%
X75605600Y-65405000D03*
X77505600Y-65405000D03*
%TD*%
D12*
%TO.C,D451*%
X91513200Y-99060000D03*
X94313200Y-99060000D03*
%TD*%
D19*
%TO.C,R451*%
X76809600Y-77497300D03*
X76809600Y-79322300D03*
%TD*%
D17*
%TO.C,C413*%
X106644400Y-76123800D03*
X108544400Y-76123800D03*
%TD*%
D18*
%TO.C,R403*%
X124561600Y-59688100D03*
X124561600Y-57863100D03*
%TD*%
D15*
%TO.C,C410*%
X100533200Y-67325200D03*
X100533200Y-69225200D03*
%TD*%
D17*
%TO.C,C414*%
X104409200Y-94818200D03*
X106309200Y-94818200D03*
%TD*%
D19*
%TO.C,R452*%
X124561600Y-87555700D03*
X124561600Y-89380700D03*
%TD*%
D13*
%TO.C,R453*%
X80852000Y-82372200D03*
X82677000Y-82372200D03*
%TD*%
D15*
%TO.C,C411*%
X97815400Y-77434400D03*
X97815400Y-79334400D03*
%TD*%
D16*
%TO.C,C409*%
X100431600Y-59624000D03*
X100431600Y-57724000D03*
%TD*%
D13*
%TO.C,R457*%
X75643100Y-68834000D03*
X77468100Y-68834000D03*
%TD*%
%TO.C,R459*%
X96750500Y-99085400D03*
X98575500Y-99085400D03*
%TD*%
%TO.C,R455*%
X75643100Y-72288400D03*
X77468100Y-72288400D03*
%TD*%
%TO.C,R456*%
X80037300Y-72339200D03*
X81862300Y-72339200D03*
%TD*%
D11*
%TO.C,IC409*%
X75819000Y-61149000D03*
X77089000Y-61149000D03*
X78359000Y-61149000D03*
X79629000Y-61149000D03*
X80899000Y-61149000D03*
X82169000Y-61149000D03*
X83439000Y-61149000D03*
X83439000Y-56199000D03*
X82169000Y-56199000D03*
X80899000Y-56199000D03*
X79629000Y-56199000D03*
X78359000Y-56199000D03*
X77089000Y-56199000D03*
X75819000Y-56199000D03*
%TD*%
D13*
%TO.C,R458*%
X106148500Y-99110800D03*
X107973500Y-99110800D03*
%TD*%
D11*
%TO.C,IC405*%
X87172800Y-80859400D03*
X88442800Y-80859400D03*
X89712800Y-80859400D03*
X90982800Y-80859400D03*
X92252800Y-80859400D03*
X93522800Y-80859400D03*
X94792800Y-80859400D03*
X94792800Y-75909400D03*
X93522800Y-75909400D03*
X92252800Y-75909400D03*
X90982800Y-75909400D03*
X89712800Y-75909400D03*
X88442800Y-75909400D03*
X87172800Y-75909400D03*
%TD*%
D20*
%TO.C,IC403*%
X100633000Y-80187800D03*
X100633000Y-81457800D03*
X100633000Y-82727800D03*
X100633000Y-83997800D03*
X100633000Y-85267800D03*
X100633000Y-86537800D03*
X100633000Y-87807800D03*
X100633000Y-89077800D03*
X100633000Y-90347800D03*
X100633000Y-91617800D03*
X109933000Y-91617800D03*
X109933000Y-90347800D03*
X109933000Y-89077800D03*
X109933000Y-87807800D03*
X109933000Y-86537800D03*
X109933000Y-85267800D03*
X109933000Y-83997800D03*
X109933000Y-82727800D03*
X109933000Y-81457800D03*
X109933000Y-80187800D03*
%TD*%
D17*
%TO.C,C451*%
X73040200Y-76022200D03*
X74940200Y-76022200D03*
%TD*%
D21*
%TO.C,R418*%
X93774900Y-89128600D03*
X91949900Y-89128600D03*
%TD*%
D13*
%TO.C,R406*%
X122531500Y-34493200D03*
X124356500Y-34493200D03*
%TD*%
D11*
%TO.C,IC411*%
X89814400Y-51751000D03*
X91084400Y-51751000D03*
X92354400Y-51751000D03*
X93624400Y-51751000D03*
X94894400Y-51751000D03*
X96164400Y-51751000D03*
X97434400Y-51751000D03*
X97434400Y-46801000D03*
X96164400Y-46801000D03*
X94894400Y-46801000D03*
X93624400Y-46801000D03*
X92354400Y-46801000D03*
X91084400Y-46801000D03*
X89814400Y-46801000D03*
%TD*%
D15*
%TO.C,C406*%
X86410800Y-48326000D03*
X86410800Y-50226000D03*
%TD*%
D17*
%TO.C,C454*%
X71262200Y-68859400D03*
X73162200Y-68859400D03*
%TD*%
D10*
%TO.C,IC406*%
X105119400Y-51384200D03*
X105119400Y-52654200D03*
X105119400Y-53924200D03*
X105119400Y-55194200D03*
X105119400Y-56464200D03*
X105119400Y-57734200D03*
X105119400Y-59004200D03*
X110069400Y-59004200D03*
X110069400Y-57734200D03*
X110069400Y-56464200D03*
X110069400Y-55194200D03*
X110069400Y-53924200D03*
X110069400Y-52654200D03*
X110069400Y-51384200D03*
%TD*%
D11*
%TO.C,IC407*%
X75819000Y-51751000D03*
X77089000Y-51751000D03*
X78359000Y-51751000D03*
X79629000Y-51751000D03*
X80899000Y-51751000D03*
X82169000Y-51751000D03*
X83439000Y-51751000D03*
X83439000Y-46801000D03*
X82169000Y-46801000D03*
X80899000Y-46801000D03*
X79629000Y-46801000D03*
X78359000Y-46801000D03*
X77089000Y-46801000D03*
X75819000Y-46801000D03*
%TD*%
D17*
%TO.C,C405*%
X36880800Y-45669200D03*
X38780800Y-45669200D03*
%TD*%
D13*
%TO.C,R414*%
X108332900Y-47320200D03*
X110157900Y-47320200D03*
%TD*%
D21*
%TO.C,R417*%
X93774900Y-91186000D03*
X91949900Y-91186000D03*
%TD*%
D19*
%TO.C,R402*%
X124561600Y-91772100D03*
X124561600Y-93597100D03*
%TD*%
D22*
%TO.C,D401*%
X117272800Y-34544000D03*
X120572800Y-34544000D03*
%TD*%
D21*
%TO.C,R412*%
X97788100Y-91160600D03*
X95963100Y-91160600D03*
%TD*%
D17*
%TO.C,C452*%
X73040200Y-80924400D03*
X74940200Y-80924400D03*
%TD*%
M02*
