%TF.GenerationSoftware,KiCad,Pcbnew,(6.0.7)*%
%TF.CreationDate,2022-12-20T23:03:32+00:00*%
%TF.ProjectId,CPC464-2MINIDDI,43504334-3634-42d3-924d-494e49444449,rev?*%
%TF.SameCoordinates,Original*%
%TF.FileFunction,Drillmap*%
%TF.FilePolarity,Positive*%
%FSLAX45Y45*%
G04 Gerber Fmt 4.5, Leading zero omitted, Abs format (unit mm)*
G04 Created by KiCad (PCBNEW (6.0.7)) date 2022-12-20 23:03:32*
%MOMM*%
%LPD*%
G01*
G04 APERTURE LIST*
%ADD10C,0.150000*%
%ADD11C,0.200000*%
%ADD12C,0.040000*%
%ADD13C,0.080000*%
%ADD14C,0.100000*%
%ADD15C,0.270000*%
G04 APERTURE END LIST*
D10*
X3349760Y-2150880D02*
X12686800Y-2150880D01*
X12686800Y-2150880D02*
X12686800Y-10172200D01*
X12686800Y-10172200D02*
X3349760Y-10172200D01*
X3349760Y-10172200D02*
X3349760Y-2150880D01*
D11*
D12*
X3873110Y-7655410D02*
X3913110Y-7695410D01*
X3913110Y-7655410D02*
X3873110Y-7695410D01*
X4262670Y-5006530D02*
X4302670Y-5046530D01*
X4302670Y-5006530D02*
X4262670Y-5046530D01*
X4294460Y-7365480D02*
X4334460Y-7405480D01*
X4334460Y-7365480D02*
X4294460Y-7405480D01*
X4569830Y-8911630D02*
X4609830Y-8951630D01*
X4609830Y-8911630D02*
X4569830Y-8951630D01*
X4808670Y-7683960D02*
X4848670Y-7723960D01*
X4848670Y-7683960D02*
X4808670Y-7723960D01*
X4892120Y-4021070D02*
X4932120Y-4061070D01*
X4932120Y-4021070D02*
X4892120Y-4061070D01*
X4960980Y-7313130D02*
X5000980Y-7353130D01*
X5000980Y-7313130D02*
X4960980Y-7353130D01*
X4973520Y-9762370D02*
X5013520Y-9802370D01*
X5013520Y-9762370D02*
X4973520Y-9802370D01*
X5065090Y-7310620D02*
X5105090Y-7350620D01*
X5105090Y-7310620D02*
X5065090Y-7350620D01*
X5189020Y-7026530D02*
X5229020Y-7066530D01*
X5229020Y-7026530D02*
X5189020Y-7066530D01*
X5194240Y-6812270D02*
X5234240Y-6852270D01*
X5234240Y-6812270D02*
X5194240Y-6852270D01*
X5291800Y-7026730D02*
X5331800Y-7066730D01*
X5331800Y-7026730D02*
X5291800Y-7066730D01*
X5300120Y-8873010D02*
X5340120Y-8913010D01*
X5340120Y-8873010D02*
X5300120Y-8913010D01*
X5374980Y-4913070D02*
X5414980Y-4953070D01*
X5414980Y-4913070D02*
X5374980Y-4953070D01*
X5513470Y-5333690D02*
X5553470Y-5373690D01*
X5553470Y-5333690D02*
X5513470Y-5373690D01*
X5540740Y-8653870D02*
X5580740Y-8693870D01*
X5580740Y-8653870D02*
X5540740Y-8693870D01*
X5624520Y-7610740D02*
X5664520Y-7650740D01*
X5664520Y-7610740D02*
X5624520Y-7650740D01*
X5760930Y-7312790D02*
X5800930Y-7352790D01*
X5800930Y-7312790D02*
X5760930Y-7352790D01*
X5875990Y-7309280D02*
X5915990Y-7349280D01*
X5915990Y-7309280D02*
X5875990Y-7349280D01*
X5890530Y-7409700D02*
X5930530Y-7449700D01*
X5930530Y-7409700D02*
X5890530Y-7449700D01*
X5999500Y-7026240D02*
X6039500Y-7066240D01*
X6039500Y-7026240D02*
X5999500Y-7066240D01*
X6018040Y-5919180D02*
X6058040Y-5959180D01*
X6058040Y-5919180D02*
X6018040Y-5959180D01*
X6249090Y-5469140D02*
X6289090Y-5509140D01*
X6289090Y-5469140D02*
X6249090Y-5509140D01*
X6318330Y-9588820D02*
X6358330Y-9628820D01*
X6358330Y-9588820D02*
X6318330Y-9628820D01*
X6395860Y-4117080D02*
X6435860Y-4157080D01*
X6435860Y-4117080D02*
X6395860Y-4157080D01*
X6472320Y-4987140D02*
X6512320Y-5027140D01*
X6512320Y-4987140D02*
X6472320Y-5027140D01*
X6512200Y-5649510D02*
X6552200Y-5689510D01*
X6552200Y-5649510D02*
X6512200Y-5689510D01*
X6586850Y-7757650D02*
X6626850Y-7797650D01*
X6626850Y-7757650D02*
X6586850Y-7797650D01*
X6635760Y-8046130D02*
X6675760Y-8086130D01*
X6675760Y-8046130D02*
X6635760Y-8086130D01*
X6671140Y-5557020D02*
X6711140Y-5597020D01*
X6711140Y-5557020D02*
X6671140Y-5597020D01*
X6709790Y-9728110D02*
X6749790Y-9768110D01*
X6749790Y-9728110D02*
X6709790Y-9768110D01*
X6891560Y-5187730D02*
X6931560Y-5227730D01*
X6931560Y-5187730D02*
X6891560Y-5227730D01*
X6927070Y-5812360D02*
X6967070Y-5852360D01*
X6967070Y-5812360D02*
X6927070Y-5852360D01*
X7102950Y-5834470D02*
X7142950Y-5874470D01*
X7142950Y-5834470D02*
X7102950Y-5874470D01*
X7116420Y-8565460D02*
X7156420Y-8605460D01*
X7156420Y-8565460D02*
X7116420Y-8605460D01*
X7117050Y-6403920D02*
X7157050Y-6443920D01*
X7157050Y-6403920D02*
X7117050Y-6443920D01*
X7171530Y-8112390D02*
X7211530Y-8152390D01*
X7211530Y-8112390D02*
X7171530Y-8152390D01*
X7234690Y-5495350D02*
X7274690Y-5535350D01*
X7274690Y-5495350D02*
X7234690Y-5535350D01*
X7266720Y-7804280D02*
X7306720Y-7844280D01*
X7306720Y-7804280D02*
X7266720Y-7844280D01*
X7369780Y-5064750D02*
X7409780Y-5104750D01*
X7409780Y-5064750D02*
X7369780Y-5104750D01*
X7470020Y-5550200D02*
X7510020Y-5590200D01*
X7510020Y-5550200D02*
X7470020Y-5590200D01*
X7470580Y-5196220D02*
X7510580Y-5236220D01*
X7510580Y-5196220D02*
X7470580Y-5236220D01*
X7471580Y-5091310D02*
X7511580Y-5131310D01*
X7511580Y-5091310D02*
X7471580Y-5131310D01*
X7506020Y-6296980D02*
X7546020Y-6336980D01*
X7546020Y-6296980D02*
X7506020Y-6336980D01*
X7791850Y-4129130D02*
X7831850Y-4169130D01*
X7831850Y-4129130D02*
X7791850Y-4169130D01*
X7802380Y-7089250D02*
X7842380Y-7129250D01*
X7842380Y-7089250D02*
X7802380Y-7129250D01*
X7849970Y-4314520D02*
X7889970Y-4354520D01*
X7889970Y-4314520D02*
X7849970Y-4354520D01*
X7898480Y-5833910D02*
X7938480Y-5873910D01*
X7938480Y-5833910D02*
X7898480Y-5873910D01*
X7933440Y-4822080D02*
X7973440Y-4862080D01*
X7973440Y-4822080D02*
X7933440Y-4862080D01*
X8126600Y-4998010D02*
X8166600Y-5038010D01*
X8166600Y-4998010D02*
X8126600Y-5038010D01*
X8176890Y-8683080D02*
X8216890Y-8723080D01*
X8216890Y-8683080D02*
X8176890Y-8723080D01*
X8231960Y-9449970D02*
X8271960Y-9489970D01*
X8271960Y-9449970D02*
X8231960Y-9489970D01*
X8271170Y-8742590D02*
X8311170Y-8782590D01*
X8311170Y-8742590D02*
X8271170Y-8782590D01*
X8292540Y-9128820D02*
X8332540Y-9168820D01*
X8332540Y-9128820D02*
X8292540Y-9168820D01*
X8339000Y-4954670D02*
X8379000Y-4994670D01*
X8379000Y-4954670D02*
X8339000Y-4994670D01*
X8378250Y-4812600D02*
X8418250Y-4852600D01*
X8418250Y-4812600D02*
X8378250Y-4852600D01*
X8415950Y-2618210D02*
X8455950Y-2658210D01*
X8455950Y-2618210D02*
X8415950Y-2658210D01*
X8426730Y-5679000D02*
X8466730Y-5719000D01*
X8466730Y-5679000D02*
X8426730Y-5719000D01*
X8426730Y-6850800D02*
X8466730Y-6890800D01*
X8466730Y-6850800D02*
X8426730Y-6890800D01*
X8491540Y-9327200D02*
X8531540Y-9367200D01*
X8531540Y-9327200D02*
X8491540Y-9367200D01*
X8497060Y-5112840D02*
X8537060Y-5152840D01*
X8537060Y-5112840D02*
X8497060Y-5152840D01*
X8530210Y-4653640D02*
X8570210Y-4693640D01*
X8570210Y-4653640D02*
X8530210Y-4693640D01*
X8532820Y-8599710D02*
X8572820Y-8639710D01*
X8572820Y-8599710D02*
X8532820Y-8639710D01*
X8551950Y-5231020D02*
X8591950Y-5271020D01*
X8591950Y-5231020D02*
X8551950Y-5271020D01*
X8579510Y-4430160D02*
X8619510Y-4470160D01*
X8619510Y-4430160D02*
X8579510Y-4470160D01*
X8656040Y-8527100D02*
X8696040Y-8567100D01*
X8696040Y-8527100D02*
X8656040Y-8567100D01*
X8667830Y-4604370D02*
X8707830Y-4644370D01*
X8707830Y-4604370D02*
X8667830Y-4644370D01*
X8746700Y-4730610D02*
X8786700Y-4770610D01*
X8786700Y-4730610D02*
X8746700Y-4770610D01*
X8746700Y-7232640D02*
X8786700Y-7272640D01*
X8786700Y-7232640D02*
X8746700Y-7272640D01*
X8791850Y-7747040D02*
X8831850Y-7787040D01*
X8831850Y-7747040D02*
X8791850Y-7787040D01*
X8826200Y-5050810D02*
X8866200Y-5090810D01*
X8866200Y-5050810D02*
X8826200Y-5090810D01*
X8906080Y-5823770D02*
X8946080Y-5863770D01*
X8946080Y-5823770D02*
X8906080Y-5863770D01*
X8921980Y-7889440D02*
X8961980Y-7929440D01*
X8961980Y-7889440D02*
X8921980Y-7929440D01*
X8930310Y-9357630D02*
X8970310Y-9397630D01*
X8970310Y-9357630D02*
X8930310Y-9397630D01*
X8952190Y-8354720D02*
X8992190Y-8394720D01*
X8992190Y-8354720D02*
X8952190Y-8394720D01*
X8956970Y-9588820D02*
X8996970Y-9628820D01*
X8996970Y-9588820D02*
X8956970Y-9628820D01*
X8997540Y-6858740D02*
X9037540Y-6898740D01*
X9037540Y-6858740D02*
X8997540Y-6898740D01*
X9021250Y-9064530D02*
X9061250Y-9104530D01*
X9061250Y-9064530D02*
X9021250Y-9104530D01*
X9037420Y-10071200D02*
X9077420Y-10111200D01*
X9077420Y-10071200D02*
X9037420Y-10111200D01*
X9073040Y-8269910D02*
X9113040Y-8309910D01*
X9113040Y-8269910D02*
X9073040Y-8309910D01*
X9103770Y-4818450D02*
X9143770Y-4858450D01*
X9143770Y-4818450D02*
X9103770Y-4858450D01*
X9111070Y-7891870D02*
X9151070Y-7931870D01*
X9151070Y-7891870D02*
X9111070Y-7931870D01*
X9117220Y-5422460D02*
X9157220Y-5462460D01*
X9157220Y-5422460D02*
X9117220Y-5462460D01*
X9149980Y-6724850D02*
X9189980Y-6764850D01*
X9189980Y-6724850D02*
X9149980Y-6764850D01*
X9158210Y-7797560D02*
X9198210Y-7837560D01*
X9198210Y-7797560D02*
X9158210Y-7837560D01*
X9238840Y-5440320D02*
X9278840Y-5480320D01*
X9278840Y-5440320D02*
X9238840Y-5480320D01*
X9238990Y-6367620D02*
X9278990Y-6407620D01*
X9278990Y-6367620D02*
X9238990Y-6407620D01*
X9297690Y-7731940D02*
X9337690Y-7771940D01*
X9337690Y-7731940D02*
X9297690Y-7771940D01*
X9328920Y-8224280D02*
X9368920Y-8264280D01*
X9368920Y-8224280D02*
X9328920Y-8264280D01*
X9391090Y-8303570D02*
X9431090Y-8343570D01*
X9431090Y-8303570D02*
X9391090Y-8343570D01*
X9505200Y-5312920D02*
X9545200Y-5352920D01*
X9545200Y-5312920D02*
X9505200Y-5352920D01*
X9705320Y-7273690D02*
X9745320Y-7313690D01*
X9745320Y-7273690D02*
X9705320Y-7313690D01*
X9732570Y-5391220D02*
X9772570Y-5431220D01*
X9772570Y-5391220D02*
X9732570Y-5431220D01*
X9767810Y-4907720D02*
X9807810Y-4947720D01*
X9807810Y-4907720D02*
X9767810Y-4947720D01*
X9780110Y-6870390D02*
X9820110Y-6910390D01*
X9820110Y-6870390D02*
X9780110Y-6910390D01*
X9857310Y-6576760D02*
X9897310Y-6616760D01*
X9897310Y-6576760D02*
X9857310Y-6616760D01*
X9867370Y-6677960D02*
X9907370Y-6717960D01*
X9907370Y-6677960D02*
X9867370Y-6717960D01*
X9878370Y-5019930D02*
X9918370Y-5059930D01*
X9918370Y-5019930D02*
X9878370Y-5059930D01*
X9894840Y-6475570D02*
X9934840Y-6515570D01*
X9934840Y-6475570D02*
X9894840Y-6515570D01*
X9987560Y-5246070D02*
X10027560Y-5286070D01*
X10027560Y-5246070D02*
X9987560Y-5286070D01*
X9992900Y-10071200D02*
X10032900Y-10111200D01*
X10032900Y-10071200D02*
X9992900Y-10111200D01*
X10033470Y-7226630D02*
X10073470Y-7266630D01*
X10073470Y-7226630D02*
X10033470Y-7266630D01*
X10205870Y-8379780D02*
X10245870Y-8419780D01*
X10245870Y-8379780D02*
X10205870Y-8419780D01*
X10206000Y-9573580D02*
X10246000Y-9613580D01*
X10246000Y-9573580D02*
X10206000Y-9613580D01*
X10277990Y-8061370D02*
X10317990Y-8101370D01*
X10317990Y-8061370D02*
X10277990Y-8101370D01*
X10357200Y-8252780D02*
X10397200Y-8292780D01*
X10397200Y-8252780D02*
X10357200Y-8292780D01*
X10435310Y-8781940D02*
X10475310Y-8821940D01*
X10475310Y-8781940D02*
X10435310Y-8821940D01*
X10532950Y-8716380D02*
X10572950Y-8756380D01*
X10572950Y-8716380D02*
X10532950Y-8756380D01*
X10536030Y-7700790D02*
X10576030Y-7740790D01*
X10576030Y-7700790D02*
X10536030Y-7740790D01*
X10668550Y-8157530D02*
X10708550Y-8197530D01*
X10708550Y-8157530D02*
X10668550Y-8197530D01*
X10676380Y-5693650D02*
X10716380Y-5733650D01*
X10716380Y-5693650D02*
X10676380Y-5733650D01*
X10691490Y-8691700D02*
X10731490Y-8731700D01*
X10731490Y-8691700D02*
X10691490Y-8731700D01*
X10736120Y-5372420D02*
X10776120Y-5412420D01*
X10776120Y-5372420D02*
X10736120Y-5412420D01*
X10742910Y-5488920D02*
X10782910Y-5528920D01*
X10782910Y-5488920D02*
X10742910Y-5528920D01*
X10753840Y-5757620D02*
X10793840Y-5797620D01*
X10793840Y-5757620D02*
X10753840Y-5797620D01*
X10794710Y-8907240D02*
X10834710Y-8947240D01*
X10834710Y-8907240D02*
X10794710Y-8947240D01*
X10795740Y-9307240D02*
X10835740Y-9347240D01*
X10835740Y-9307240D02*
X10795740Y-9347240D01*
X10825940Y-6904700D02*
X10865940Y-6944700D01*
X10865940Y-6904700D02*
X10825940Y-6944700D01*
X10828220Y-6655120D02*
X10868220Y-6695120D01*
X10868220Y-6655120D02*
X10828220Y-6695120D01*
X10925020Y-5971040D02*
X10965020Y-6011040D01*
X10965020Y-5971040D02*
X10925020Y-6011040D01*
X11145870Y-7680210D02*
X11185870Y-7720210D01*
X11185870Y-7680210D02*
X11145870Y-7720210D01*
X11232200Y-4732340D02*
X11272200Y-4772340D01*
X11272200Y-4732340D02*
X11232200Y-4772340D01*
X11232200Y-9825040D02*
X11272200Y-9865040D01*
X11272200Y-9825040D02*
X11232200Y-9865040D01*
X11237300Y-5108260D02*
X11277300Y-5148260D01*
X11277300Y-5108260D02*
X11237300Y-5148260D01*
X11237300Y-6528120D02*
X11277300Y-6568120D01*
X11277300Y-6528120D02*
X11237300Y-6568120D01*
X11237300Y-8006400D02*
X11277300Y-8046400D01*
X11277300Y-8006400D02*
X11237300Y-8046400D01*
X11855420Y-5868430D02*
X11895420Y-5908430D01*
X11895420Y-5868430D02*
X11855420Y-5908430D01*
X11857780Y-7942360D02*
X11897780Y-7982360D01*
X11897780Y-7942360D02*
X11857780Y-7982360D01*
D13*
X3719960Y-8472940D02*
G75*
G03*
X3719960Y-8472940I-40000J0D01*
G01*
X3719960Y-9996940D02*
G75*
G03*
X3719960Y-9996940I-40000J0D01*
G01*
X3728080Y-4787400D02*
G75*
G03*
X3728080Y-4787400I-40000J0D01*
G01*
X3728080Y-6311400D02*
G75*
G03*
X3728080Y-6311400I-40000J0D01*
G01*
X3728080Y-6626860D02*
G75*
G03*
X3728080Y-6626860I-40000J0D01*
G01*
X3728080Y-8150860D02*
G75*
G03*
X3728080Y-8150860I-40000J0D01*
G01*
X3973960Y-8472940D02*
G75*
G03*
X3973960Y-8472940I-40000J0D01*
G01*
X3973960Y-9996940D02*
G75*
G03*
X3973960Y-9996940I-40000J0D01*
G01*
X3982080Y-4787400D02*
G75*
G03*
X3982080Y-4787400I-40000J0D01*
G01*
X3982080Y-6311400D02*
G75*
G03*
X3982080Y-6311400I-40000J0D01*
G01*
X3982080Y-6626860D02*
G75*
G03*
X3982080Y-6626860I-40000J0D01*
G01*
X3982080Y-8150860D02*
G75*
G03*
X3982080Y-8150860I-40000J0D01*
G01*
X4227960Y-8472940D02*
G75*
G03*
X4227960Y-8472940I-40000J0D01*
G01*
X4227960Y-9996940D02*
G75*
G03*
X4227960Y-9996940I-40000J0D01*
G01*
X4236080Y-4787400D02*
G75*
G03*
X4236080Y-4787400I-40000J0D01*
G01*
X4236080Y-6311400D02*
G75*
G03*
X4236080Y-6311400I-40000J0D01*
G01*
X4236080Y-6626860D02*
G75*
G03*
X4236080Y-6626860I-40000J0D01*
G01*
X4236080Y-8150860D02*
G75*
G03*
X4236080Y-8150860I-40000J0D01*
G01*
X4481960Y-8472940D02*
G75*
G03*
X4481960Y-8472940I-40000J0D01*
G01*
X4481960Y-9996940D02*
G75*
G03*
X4481960Y-9996940I-40000J0D01*
G01*
X4490080Y-4787400D02*
G75*
G03*
X4490080Y-4787400I-40000J0D01*
G01*
X4490080Y-6311400D02*
G75*
G03*
X4490080Y-6311400I-40000J0D01*
G01*
X4490080Y-6626860D02*
G75*
G03*
X4490080Y-6626860I-40000J0D01*
G01*
X4490080Y-8150860D02*
G75*
G03*
X4490080Y-8150860I-40000J0D01*
G01*
X4735960Y-8472940D02*
G75*
G03*
X4735960Y-8472940I-40000J0D01*
G01*
X4735960Y-9996940D02*
G75*
G03*
X4735960Y-9996940I-40000J0D01*
G01*
X4744080Y-4787400D02*
G75*
G03*
X4744080Y-4787400I-40000J0D01*
G01*
X4744080Y-6311400D02*
G75*
G03*
X4744080Y-6311400I-40000J0D01*
G01*
X4744080Y-6626860D02*
G75*
G03*
X4744080Y-6626860I-40000J0D01*
G01*
X4744080Y-8150860D02*
G75*
G03*
X4744080Y-8150860I-40000J0D01*
G01*
X4989960Y-8472940D02*
G75*
G03*
X4989960Y-8472940I-40000J0D01*
G01*
X4989960Y-9996940D02*
G75*
G03*
X4989960Y-9996940I-40000J0D01*
G01*
X4998080Y-4787400D02*
G75*
G03*
X4998080Y-4787400I-40000J0D01*
G01*
X4998080Y-6311400D02*
G75*
G03*
X4998080Y-6311400I-40000J0D01*
G01*
X4998080Y-6626860D02*
G75*
G03*
X4998080Y-6626860I-40000J0D01*
G01*
X4998080Y-8150860D02*
G75*
G03*
X4998080Y-8150860I-40000J0D01*
G01*
X5243960Y-8472940D02*
G75*
G03*
X5243960Y-8472940I-40000J0D01*
G01*
X5243960Y-9996940D02*
G75*
G03*
X5243960Y-9996940I-40000J0D01*
G01*
X5252080Y-4787400D02*
G75*
G03*
X5252080Y-4787400I-40000J0D01*
G01*
X5252080Y-6311400D02*
G75*
G03*
X5252080Y-6311400I-40000J0D01*
G01*
X5252080Y-6626860D02*
G75*
G03*
X5252080Y-6626860I-40000J0D01*
G01*
X5252080Y-8150860D02*
G75*
G03*
X5252080Y-8150860I-40000J0D01*
G01*
X5497960Y-8472940D02*
G75*
G03*
X5497960Y-8472940I-40000J0D01*
G01*
X5497960Y-9996940D02*
G75*
G03*
X5497960Y-9996940I-40000J0D01*
G01*
X5506080Y-4787400D02*
G75*
G03*
X5506080Y-4787400I-40000J0D01*
G01*
X5506080Y-6311400D02*
G75*
G03*
X5506080Y-6311400I-40000J0D01*
G01*
X5506080Y-6626860D02*
G75*
G03*
X5506080Y-6626860I-40000J0D01*
G01*
X5506080Y-8150860D02*
G75*
G03*
X5506080Y-8150860I-40000J0D01*
G01*
X5751960Y-8472940D02*
G75*
G03*
X5751960Y-8472940I-40000J0D01*
G01*
X5751960Y-9996940D02*
G75*
G03*
X5751960Y-9996940I-40000J0D01*
G01*
X5760080Y-4787400D02*
G75*
G03*
X5760080Y-4787400I-40000J0D01*
G01*
X5760080Y-6311400D02*
G75*
G03*
X5760080Y-6311400I-40000J0D01*
G01*
X5760080Y-6626860D02*
G75*
G03*
X5760080Y-6626860I-40000J0D01*
G01*
X5760080Y-8150860D02*
G75*
G03*
X5760080Y-8150860I-40000J0D01*
G01*
X6005960Y-8472940D02*
G75*
G03*
X6005960Y-8472940I-40000J0D01*
G01*
X6005960Y-9996940D02*
G75*
G03*
X6005960Y-9996940I-40000J0D01*
G01*
X6014080Y-4787400D02*
G75*
G03*
X6014080Y-4787400I-40000J0D01*
G01*
X6014080Y-6311400D02*
G75*
G03*
X6014080Y-6311400I-40000J0D01*
G01*
X6014080Y-6626860D02*
G75*
G03*
X6014080Y-6626860I-40000J0D01*
G01*
X6014080Y-8150860D02*
G75*
G03*
X6014080Y-8150860I-40000J0D01*
G01*
X6259960Y-8472940D02*
G75*
G03*
X6259960Y-8472940I-40000J0D01*
G01*
X6259960Y-9996940D02*
G75*
G03*
X6259960Y-9996940I-40000J0D01*
G01*
X6268080Y-4787400D02*
G75*
G03*
X6268080Y-4787400I-40000J0D01*
G01*
X6268080Y-6311400D02*
G75*
G03*
X6268080Y-6311400I-40000J0D01*
G01*
X6268080Y-6626860D02*
G75*
G03*
X6268080Y-6626860I-40000J0D01*
G01*
X6268080Y-8150860D02*
G75*
G03*
X6268080Y-8150860I-40000J0D01*
G01*
X6513960Y-8472940D02*
G75*
G03*
X6513960Y-8472940I-40000J0D01*
G01*
X6513960Y-9996940D02*
G75*
G03*
X6513960Y-9996940I-40000J0D01*
G01*
X6522080Y-4787400D02*
G75*
G03*
X6522080Y-4787400I-40000J0D01*
G01*
X6522080Y-6311400D02*
G75*
G03*
X6522080Y-6311400I-40000J0D01*
G01*
X6522080Y-6626860D02*
G75*
G03*
X6522080Y-6626860I-40000J0D01*
G01*
X6522080Y-8150860D02*
G75*
G03*
X6522080Y-8150860I-40000J0D01*
G01*
X6767960Y-8472940D02*
G75*
G03*
X6767960Y-8472940I-40000J0D01*
G01*
X6767960Y-9996940D02*
G75*
G03*
X6767960Y-9996940I-40000J0D01*
G01*
X6776080Y-4787400D02*
G75*
G03*
X6776080Y-4787400I-40000J0D01*
G01*
X6776080Y-6311400D02*
G75*
G03*
X6776080Y-6311400I-40000J0D01*
G01*
X6976740Y-7415100D02*
G75*
G03*
X6976740Y-7415100I-40000J0D01*
G01*
X6976740Y-7903100D02*
G75*
G03*
X6976740Y-7903100I-40000J0D01*
G01*
X7021960Y-8472940D02*
G75*
G03*
X7021960Y-8472940I-40000J0D01*
G01*
X7021960Y-9996940D02*
G75*
G03*
X7021960Y-9996940I-40000J0D01*
G01*
X7030080Y-4787400D02*
G75*
G03*
X7030080Y-4787400I-40000J0D01*
G01*
X7030080Y-6311400D02*
G75*
G03*
X7030080Y-6311400I-40000J0D01*
G01*
X7275960Y-8472940D02*
G75*
G03*
X7275960Y-8472940I-40000J0D01*
G01*
X7275960Y-9996940D02*
G75*
G03*
X7275960Y-9996940I-40000J0D01*
G01*
X7529960Y-8472940D02*
G75*
G03*
X7529960Y-8472940I-40000J0D01*
G01*
X7529960Y-9996940D02*
G75*
G03*
X7529960Y-9996940I-40000J0D01*
G01*
X7783960Y-8472940D02*
G75*
G03*
X7783960Y-8472940I-40000J0D01*
G01*
X7783960Y-9996940D02*
G75*
G03*
X7783960Y-9996940I-40000J0D01*
G01*
X8037960Y-8472940D02*
G75*
G03*
X8037960Y-8472940I-40000J0D01*
G01*
X8037960Y-9996940D02*
G75*
G03*
X8037960Y-9996940I-40000J0D01*
G01*
X8291960Y-8472940D02*
G75*
G03*
X8291960Y-8472940I-40000J0D01*
G01*
X8291960Y-9996940D02*
G75*
G03*
X8291960Y-9996940I-40000J0D01*
G01*
X8545960Y-8472940D02*
G75*
G03*
X8545960Y-8472940I-40000J0D01*
G01*
X8545960Y-9996940D02*
G75*
G03*
X8545960Y-9996940I-40000J0D01*
G01*
X12132940Y-2489200D02*
G75*
G03*
X12132940Y-2489200I-40000J0D01*
G01*
X12132940Y-2739200D02*
G75*
G03*
X12132940Y-2739200I-40000J0D01*
G01*
D14*
X3771900Y-3255040D02*
X3771900Y-3355040D01*
X3721900Y-3305040D02*
X3821900Y-3305040D01*
X3771900Y-3509040D02*
X3771900Y-3609040D01*
X3721900Y-3559040D02*
X3821900Y-3559040D01*
X4767580Y-2484920D02*
X4767580Y-2584920D01*
X4717580Y-2534920D02*
X4817580Y-2534920D01*
X4767580Y-2738920D02*
X4767580Y-2838920D01*
X4717580Y-2788920D02*
X4817580Y-2788920D01*
X4767580Y-3638080D02*
X4767580Y-3738080D01*
X4717580Y-3688080D02*
X4817580Y-3688080D01*
X4767580Y-3892080D02*
X4767580Y-3992080D01*
X4717580Y-3942080D02*
X4817580Y-3942080D01*
X5021580Y-2484920D02*
X5021580Y-2584920D01*
X4971580Y-2534920D02*
X5071580Y-2534920D01*
X5021580Y-2738920D02*
X5021580Y-2838920D01*
X4971580Y-2788920D02*
X5071580Y-2788920D01*
X5021580Y-3638080D02*
X5021580Y-3738080D01*
X4971580Y-3688080D02*
X5071580Y-3688080D01*
X5021580Y-3892080D02*
X5021580Y-3992080D01*
X4971580Y-3942080D02*
X5071580Y-3942080D01*
X5275580Y-2484920D02*
X5275580Y-2584920D01*
X5225580Y-2534920D02*
X5325580Y-2534920D01*
X5275580Y-2738920D02*
X5275580Y-2838920D01*
X5225580Y-2788920D02*
X5325580Y-2788920D01*
X5275580Y-3638080D02*
X5275580Y-3738080D01*
X5225580Y-3688080D02*
X5325580Y-3688080D01*
X5275580Y-3892080D02*
X5275580Y-3992080D01*
X5225580Y-3942080D02*
X5325580Y-3942080D01*
X5529580Y-2484920D02*
X5529580Y-2584920D01*
X5479580Y-2534920D02*
X5579580Y-2534920D01*
X5529580Y-2738920D02*
X5529580Y-2838920D01*
X5479580Y-2788920D02*
X5579580Y-2788920D01*
X5529580Y-3638080D02*
X5529580Y-3738080D01*
X5479580Y-3688080D02*
X5579580Y-3688080D01*
X5529580Y-3892080D02*
X5529580Y-3992080D01*
X5479580Y-3942080D02*
X5579580Y-3942080D01*
X5783580Y-2484920D02*
X5783580Y-2584920D01*
X5733580Y-2534920D02*
X5833580Y-2534920D01*
X5783580Y-2738920D02*
X5783580Y-2838920D01*
X5733580Y-2788920D02*
X5833580Y-2788920D01*
X5783580Y-3638080D02*
X5783580Y-3738080D01*
X5733580Y-3688080D02*
X5833580Y-3688080D01*
X5783580Y-3892080D02*
X5783580Y-3992080D01*
X5733580Y-3942080D02*
X5833580Y-3942080D01*
X6037580Y-2484920D02*
X6037580Y-2584920D01*
X5987580Y-2534920D02*
X6087580Y-2534920D01*
X6037580Y-2738920D02*
X6037580Y-2838920D01*
X5987580Y-2788920D02*
X6087580Y-2788920D01*
X6037580Y-3638080D02*
X6037580Y-3738080D01*
X5987580Y-3688080D02*
X6087580Y-3688080D01*
X6037580Y-3892080D02*
X6037580Y-3992080D01*
X5987580Y-3942080D02*
X6087580Y-3942080D01*
X6291580Y-2484920D02*
X6291580Y-2584920D01*
X6241580Y-2534920D02*
X6341580Y-2534920D01*
X6291580Y-2738920D02*
X6291580Y-2838920D01*
X6241580Y-2788920D02*
X6341580Y-2788920D01*
X6291580Y-3638080D02*
X6291580Y-3738080D01*
X6241580Y-3688080D02*
X6341580Y-3688080D01*
X6291580Y-3892080D02*
X6291580Y-3992080D01*
X6241580Y-3942080D02*
X6341580Y-3942080D01*
X6545580Y-2484920D02*
X6545580Y-2584920D01*
X6495580Y-2534920D02*
X6595580Y-2534920D01*
X6545580Y-2738920D02*
X6545580Y-2838920D01*
X6495580Y-2788920D02*
X6595580Y-2788920D01*
X6545580Y-3638080D02*
X6545580Y-3738080D01*
X6495580Y-3688080D02*
X6595580Y-3688080D01*
X6545580Y-3892080D02*
X6545580Y-3992080D01*
X6495580Y-3942080D02*
X6595580Y-3942080D01*
X6799580Y-2484920D02*
X6799580Y-2584920D01*
X6749580Y-2534920D02*
X6849580Y-2534920D01*
X6799580Y-2738920D02*
X6799580Y-2838920D01*
X6749580Y-2788920D02*
X6849580Y-2788920D01*
X6799580Y-3638080D02*
X6799580Y-3738080D01*
X6749580Y-3688080D02*
X6849580Y-3688080D01*
X6799580Y-3892080D02*
X6799580Y-3992080D01*
X6749580Y-3942080D02*
X6849580Y-3942080D01*
X7053580Y-2484920D02*
X7053580Y-2584920D01*
X7003580Y-2534920D02*
X7103580Y-2534920D01*
X7053580Y-2738920D02*
X7053580Y-2838920D01*
X7003580Y-2788920D02*
X7103580Y-2788920D01*
X7053580Y-3638080D02*
X7053580Y-3738080D01*
X7003580Y-3688080D02*
X7103580Y-3688080D01*
X7053580Y-3892080D02*
X7053580Y-3992080D01*
X7003580Y-3942080D02*
X7103580Y-3942080D01*
X7307580Y-2484920D02*
X7307580Y-2584920D01*
X7257580Y-2534920D02*
X7357580Y-2534920D01*
X7307580Y-2738920D02*
X7307580Y-2838920D01*
X7257580Y-2788920D02*
X7357580Y-2788920D01*
X7307580Y-3638080D02*
X7307580Y-3738080D01*
X7257580Y-3688080D02*
X7357580Y-3688080D01*
X7307580Y-3892080D02*
X7307580Y-3992080D01*
X7257580Y-3942080D02*
X7357580Y-3942080D01*
X7561580Y-2484920D02*
X7561580Y-2584920D01*
X7511580Y-2534920D02*
X7611580Y-2534920D01*
X7561580Y-2738920D02*
X7561580Y-2838920D01*
X7511580Y-2788920D02*
X7611580Y-2788920D01*
X7561580Y-3638080D02*
X7561580Y-3738080D01*
X7511580Y-3688080D02*
X7611580Y-3688080D01*
X7561580Y-3892080D02*
X7561580Y-3992080D01*
X7511580Y-3942080D02*
X7611580Y-3942080D01*
X7815580Y-2484920D02*
X7815580Y-2584920D01*
X7765580Y-2534920D02*
X7865580Y-2534920D01*
X7815580Y-2738920D02*
X7815580Y-2838920D01*
X7765580Y-2788920D02*
X7865580Y-2788920D01*
X7815580Y-3638080D02*
X7815580Y-3738080D01*
X7765580Y-3688080D02*
X7865580Y-3688080D01*
X7815580Y-3892080D02*
X7815580Y-3992080D01*
X7765580Y-3942080D02*
X7865580Y-3942080D01*
X8069580Y-2484920D02*
X8069580Y-2584920D01*
X8019580Y-2534920D02*
X8119580Y-2534920D01*
X8069580Y-2738920D02*
X8069580Y-2838920D01*
X8019580Y-2788920D02*
X8119580Y-2788920D01*
X8069580Y-3638080D02*
X8069580Y-3738080D01*
X8019580Y-3688080D02*
X8119580Y-3688080D01*
X8069580Y-3892080D02*
X8069580Y-3992080D01*
X8019580Y-3942080D02*
X8119580Y-3942080D01*
X8323580Y-2484920D02*
X8323580Y-2584920D01*
X8273580Y-2534920D02*
X8373580Y-2534920D01*
X8323580Y-2738920D02*
X8323580Y-2838920D01*
X8273580Y-2788920D02*
X8373580Y-2788920D01*
X8323580Y-3638080D02*
X8323580Y-3738080D01*
X8273580Y-3688080D02*
X8373580Y-3688080D01*
X8323580Y-3892080D02*
X8323580Y-3992080D01*
X8273580Y-3942080D02*
X8373580Y-3942080D01*
X8577580Y-2484920D02*
X8577580Y-2584920D01*
X8527580Y-2534920D02*
X8627580Y-2534920D01*
X8577580Y-2738920D02*
X8577580Y-2838920D01*
X8527580Y-2788920D02*
X8627580Y-2788920D01*
X8577580Y-3638080D02*
X8577580Y-3738080D01*
X8527580Y-3688080D02*
X8627580Y-3688080D01*
X8577580Y-3892080D02*
X8577580Y-3992080D01*
X8527580Y-3942080D02*
X8627580Y-3942080D01*
X8831580Y-2484920D02*
X8831580Y-2584920D01*
X8781580Y-2534920D02*
X8881580Y-2534920D01*
X8831580Y-2738920D02*
X8831580Y-2838920D01*
X8781580Y-2788920D02*
X8881580Y-2788920D01*
X8831580Y-3638080D02*
X8831580Y-3738080D01*
X8781580Y-3688080D02*
X8881580Y-3688080D01*
X8831580Y-3892080D02*
X8831580Y-3992080D01*
X8781580Y-3942080D02*
X8881580Y-3942080D01*
X9085580Y-2484920D02*
X9085580Y-2584920D01*
X9035580Y-2534920D02*
X9135580Y-2534920D01*
X9085580Y-2738920D02*
X9085580Y-2838920D01*
X9035580Y-2788920D02*
X9135580Y-2788920D01*
X9085580Y-3638080D02*
X9085580Y-3738080D01*
X9035580Y-3688080D02*
X9135580Y-3688080D01*
X9085580Y-3892080D02*
X9085580Y-3992080D01*
X9035580Y-3942080D02*
X9135580Y-3942080D01*
X9339580Y-2484920D02*
X9339580Y-2584920D01*
X9289580Y-2534920D02*
X9389580Y-2534920D01*
X9339580Y-2738920D02*
X9339580Y-2838920D01*
X9289580Y-2788920D02*
X9389580Y-2788920D01*
X9339580Y-3638080D02*
X9339580Y-3738080D01*
X9289580Y-3688080D02*
X9389580Y-3688080D01*
X9339580Y-3892080D02*
X9339580Y-3992080D01*
X9289580Y-3942080D02*
X9389580Y-3942080D01*
X9593580Y-2484920D02*
X9593580Y-2584920D01*
X9543580Y-2534920D02*
X9643580Y-2534920D01*
X9593580Y-2738920D02*
X9593580Y-2838920D01*
X9543580Y-2788920D02*
X9643580Y-2788920D01*
X9593580Y-3638080D02*
X9593580Y-3738080D01*
X9543580Y-3688080D02*
X9643580Y-3688080D01*
X9593580Y-3892080D02*
X9593580Y-3992080D01*
X9543580Y-3942080D02*
X9643580Y-3942080D01*
X9847580Y-2484920D02*
X9847580Y-2584920D01*
X9797580Y-2534920D02*
X9897580Y-2534920D01*
X9847580Y-2738920D02*
X9847580Y-2838920D01*
X9797580Y-2788920D02*
X9897580Y-2788920D01*
X9847580Y-3638080D02*
X9847580Y-3738080D01*
X9797580Y-3688080D02*
X9897580Y-3688080D01*
X9847580Y-3892080D02*
X9847580Y-3992080D01*
X9797580Y-3942080D02*
X9897580Y-3942080D01*
X10101580Y-2484920D02*
X10101580Y-2584920D01*
X10051580Y-2534920D02*
X10151580Y-2534920D01*
X10101580Y-2738920D02*
X10101580Y-2838920D01*
X10051580Y-2788920D02*
X10151580Y-2788920D01*
X10101580Y-3638080D02*
X10101580Y-3738080D01*
X10051580Y-3688080D02*
X10151580Y-3688080D01*
X10101580Y-3892080D02*
X10101580Y-3992080D01*
X10051580Y-3942080D02*
X10151580Y-3942080D01*
X10355580Y-2484920D02*
X10355580Y-2584920D01*
X10305580Y-2534920D02*
X10405580Y-2534920D01*
X10355580Y-2738920D02*
X10355580Y-2838920D01*
X10305580Y-2788920D02*
X10405580Y-2788920D01*
X10355580Y-3638080D02*
X10355580Y-3738080D01*
X10305580Y-3688080D02*
X10405580Y-3688080D01*
X10355580Y-3892080D02*
X10355580Y-3992080D01*
X10305580Y-3942080D02*
X10405580Y-3942080D01*
X10609580Y-2484920D02*
X10609580Y-2584920D01*
X10559580Y-2534920D02*
X10659580Y-2534920D01*
X10609580Y-2738920D02*
X10609580Y-2838920D01*
X10559580Y-2788920D02*
X10659580Y-2788920D01*
X10609580Y-3638080D02*
X10609580Y-3738080D01*
X10559580Y-3688080D02*
X10659580Y-3688080D01*
X10609580Y-3892080D02*
X10609580Y-3992080D01*
X10559580Y-3942080D02*
X10659580Y-3942080D01*
X10863580Y-2484920D02*
X10863580Y-2584920D01*
X10813580Y-2534920D02*
X10913580Y-2534920D01*
X10863580Y-2738920D02*
X10863580Y-2838920D01*
X10813580Y-2788920D02*
X10913580Y-2788920D01*
X10863580Y-3638080D02*
X10863580Y-3738080D01*
X10813580Y-3688080D02*
X10913580Y-3688080D01*
X10863580Y-3892080D02*
X10863580Y-3992080D01*
X10813580Y-3942080D02*
X10913580Y-3942080D01*
X11732760Y-9828060D02*
X11732760Y-9928060D01*
X11682760Y-9878060D02*
X11782760Y-9878060D01*
X11733210Y-4974120D02*
X11733210Y-5074120D01*
X11683210Y-5024120D02*
X11783210Y-5024120D01*
X11733210Y-5228120D02*
X11733210Y-5328120D01*
X11683210Y-5278120D02*
X11783210Y-5278120D01*
X11733210Y-5482120D02*
X11733210Y-5582120D01*
X11683210Y-5532120D02*
X11783210Y-5532120D01*
X11733210Y-5736120D02*
X11733210Y-5836120D01*
X11683210Y-5786120D02*
X11783210Y-5786120D01*
X11733210Y-5990120D02*
X11733210Y-6090120D01*
X11683210Y-6040120D02*
X11783210Y-6040120D01*
X11733210Y-6244120D02*
X11733210Y-6344120D01*
X11683210Y-6294120D02*
X11783210Y-6294120D01*
X11733210Y-6498120D02*
X11733210Y-6598120D01*
X11683210Y-6548120D02*
X11783210Y-6548120D01*
X11733210Y-6752120D02*
X11733210Y-6852120D01*
X11683210Y-6802120D02*
X11783210Y-6802120D01*
X11733210Y-7006120D02*
X11733210Y-7106120D01*
X11683210Y-7056120D02*
X11783210Y-7056120D01*
X11733210Y-7260120D02*
X11733210Y-7360120D01*
X11683210Y-7310120D02*
X11783210Y-7310120D01*
X11733210Y-7514120D02*
X11733210Y-7614120D01*
X11683210Y-7564120D02*
X11783210Y-7564120D01*
X11733210Y-7768120D02*
X11733210Y-7868120D01*
X11683210Y-7818120D02*
X11783210Y-7818120D01*
X11733210Y-8022120D02*
X11733210Y-8122120D01*
X11683210Y-8072120D02*
X11783210Y-8072120D01*
X11733210Y-8276120D02*
X11733210Y-8376120D01*
X11683210Y-8326120D02*
X11783210Y-8326120D01*
X11733210Y-8530120D02*
X11733210Y-8630120D01*
X11683210Y-8580120D02*
X11783210Y-8580120D01*
X11733210Y-8784120D02*
X11733210Y-8884120D01*
X11683210Y-8834120D02*
X11783210Y-8834120D01*
X11733210Y-9038120D02*
X11733210Y-9138120D01*
X11683210Y-9088120D02*
X11783210Y-9088120D01*
X11986760Y-9828060D02*
X11986760Y-9928060D01*
X11936760Y-9878060D02*
X12036760Y-9878060D01*
X11987210Y-4974120D02*
X11987210Y-5074120D01*
X11937210Y-5024120D02*
X12037210Y-5024120D01*
X11987210Y-5228120D02*
X11987210Y-5328120D01*
X11937210Y-5278120D02*
X12037210Y-5278120D01*
X11987210Y-5482120D02*
X11987210Y-5582120D01*
X11937210Y-5532120D02*
X12037210Y-5532120D01*
X11987210Y-5736120D02*
X11987210Y-5836120D01*
X11937210Y-5786120D02*
X12037210Y-5786120D01*
X11987210Y-5990120D02*
X11987210Y-6090120D01*
X11937210Y-6040120D02*
X12037210Y-6040120D01*
X11987210Y-6244120D02*
X11987210Y-6344120D01*
X11937210Y-6294120D02*
X12037210Y-6294120D01*
X11987210Y-6498120D02*
X11987210Y-6598120D01*
X11937210Y-6548120D02*
X12037210Y-6548120D01*
X11987210Y-6752120D02*
X11987210Y-6852120D01*
X11937210Y-6802120D02*
X12037210Y-6802120D01*
X11987210Y-7006120D02*
X11987210Y-7106120D01*
X11937210Y-7056120D02*
X12037210Y-7056120D01*
X11987210Y-7260120D02*
X11987210Y-7360120D01*
X11937210Y-7310120D02*
X12037210Y-7310120D01*
X11987210Y-7514120D02*
X11987210Y-7614120D01*
X11937210Y-7564120D02*
X12037210Y-7564120D01*
X11987210Y-7768120D02*
X11987210Y-7868120D01*
X11937210Y-7818120D02*
X12037210Y-7818120D01*
X11987210Y-8022120D02*
X11987210Y-8122120D01*
X11937210Y-8072120D02*
X12037210Y-8072120D01*
X11987210Y-8276120D02*
X11987210Y-8376120D01*
X11937210Y-8326120D02*
X12037210Y-8326120D01*
X11987210Y-8530120D02*
X11987210Y-8630120D01*
X11937210Y-8580120D02*
X12037210Y-8580120D01*
X11987210Y-8784120D02*
X11987210Y-8884120D01*
X11937210Y-8834120D02*
X12037210Y-8834120D01*
X11987210Y-9038120D02*
X11987210Y-9138120D01*
X11937210Y-9088120D02*
X12037210Y-9088120D01*
D15*
X3922740Y-2693380D02*
X3922740Y-2502460D01*
X3731820Y-2502460D01*
X3731820Y-2693380D01*
X3922740Y-2693380D01*
X8266140Y-7773380D02*
X8266140Y-7582460D01*
X8075220Y-7582460D01*
X8075220Y-7773380D01*
X8266140Y-7773380D01*
D11*
X3599879Y-10490176D02*
X3599879Y-10290176D01*
X3647498Y-10290176D01*
X3676069Y-10299700D01*
X3695117Y-10318748D01*
X3704641Y-10337795D01*
X3714165Y-10375890D01*
X3714165Y-10404462D01*
X3704641Y-10442557D01*
X3695117Y-10461605D01*
X3676069Y-10480652D01*
X3647498Y-10490176D01*
X3599879Y-10490176D01*
X3799879Y-10490176D02*
X3799879Y-10356843D01*
X3799879Y-10394938D02*
X3809403Y-10375890D01*
X3818927Y-10366367D01*
X3837974Y-10356843D01*
X3857022Y-10356843D01*
X3923688Y-10490176D02*
X3923688Y-10356843D01*
X3923688Y-10290176D02*
X3914165Y-10299700D01*
X3923688Y-10309224D01*
X3933212Y-10299700D01*
X3923688Y-10290176D01*
X3923688Y-10309224D01*
X4047498Y-10490176D02*
X4028450Y-10480652D01*
X4018927Y-10461605D01*
X4018927Y-10290176D01*
X4152260Y-10490176D02*
X4133212Y-10480652D01*
X4123688Y-10461605D01*
X4123688Y-10290176D01*
X4380831Y-10490176D02*
X4380831Y-10290176D01*
X4447498Y-10433033D01*
X4514165Y-10290176D01*
X4514165Y-10490176D01*
X4695117Y-10490176D02*
X4695117Y-10385414D01*
X4685593Y-10366367D01*
X4666546Y-10356843D01*
X4628450Y-10356843D01*
X4609403Y-10366367D01*
X4695117Y-10480652D02*
X4676070Y-10490176D01*
X4628450Y-10490176D01*
X4609403Y-10480652D01*
X4599879Y-10461605D01*
X4599879Y-10442557D01*
X4609403Y-10423510D01*
X4628450Y-10413986D01*
X4676070Y-10413986D01*
X4695117Y-10404462D01*
X4790355Y-10356843D02*
X4790355Y-10556843D01*
X4790355Y-10366367D02*
X4809403Y-10356843D01*
X4847498Y-10356843D01*
X4866546Y-10366367D01*
X4876070Y-10375890D01*
X4885593Y-10394938D01*
X4885593Y-10452081D01*
X4876070Y-10471129D01*
X4866546Y-10480652D01*
X4847498Y-10490176D01*
X4809403Y-10490176D01*
X4790355Y-10480652D01*
X4971308Y-10471129D02*
X4980831Y-10480652D01*
X4971308Y-10490176D01*
X4961784Y-10480652D01*
X4971308Y-10471129D01*
X4971308Y-10490176D01*
X4971308Y-10366367D02*
X4980831Y-10375890D01*
X4971308Y-10385414D01*
X4961784Y-10375890D01*
X4971308Y-10366367D01*
X4971308Y-10385414D01*
D12*
X3302260Y-10799700D02*
X3342260Y-10839700D01*
X3342260Y-10799700D02*
X3302260Y-10839700D01*
D11*
X3637974Y-10710176D02*
X3657022Y-10710176D01*
X3676069Y-10719700D01*
X3685593Y-10729224D01*
X3695117Y-10748271D01*
X3704641Y-10786367D01*
X3704641Y-10833986D01*
X3695117Y-10872081D01*
X3685593Y-10891129D01*
X3676069Y-10900652D01*
X3657022Y-10910176D01*
X3637974Y-10910176D01*
X3618927Y-10900652D01*
X3609403Y-10891129D01*
X3599879Y-10872081D01*
X3590355Y-10833986D01*
X3590355Y-10786367D01*
X3599879Y-10748271D01*
X3609403Y-10729224D01*
X3618927Y-10719700D01*
X3637974Y-10710176D01*
X3790355Y-10891129D02*
X3799879Y-10900652D01*
X3790355Y-10910176D01*
X3780831Y-10900652D01*
X3790355Y-10891129D01*
X3790355Y-10910176D01*
X3971308Y-10776843D02*
X3971308Y-10910176D01*
X3923688Y-10700652D02*
X3876069Y-10843510D01*
X3999879Y-10843510D01*
X4114165Y-10710176D02*
X4133212Y-10710176D01*
X4152260Y-10719700D01*
X4161784Y-10729224D01*
X4171308Y-10748271D01*
X4180831Y-10786367D01*
X4180831Y-10833986D01*
X4171308Y-10872081D01*
X4161784Y-10891129D01*
X4152260Y-10900652D01*
X4133212Y-10910176D01*
X4114165Y-10910176D01*
X4095117Y-10900652D01*
X4085593Y-10891129D01*
X4076069Y-10872081D01*
X4066546Y-10833986D01*
X4066546Y-10786367D01*
X4076069Y-10748271D01*
X4085593Y-10729224D01*
X4095117Y-10719700D01*
X4114165Y-10710176D01*
X4304641Y-10710176D02*
X4323689Y-10710176D01*
X4342736Y-10719700D01*
X4352260Y-10729224D01*
X4361784Y-10748271D01*
X4371308Y-10786367D01*
X4371308Y-10833986D01*
X4361784Y-10872081D01*
X4352260Y-10891129D01*
X4342736Y-10900652D01*
X4323689Y-10910176D01*
X4304641Y-10910176D01*
X4285593Y-10900652D01*
X4276070Y-10891129D01*
X4266546Y-10872081D01*
X4257022Y-10833986D01*
X4257022Y-10786367D01*
X4266546Y-10748271D01*
X4276070Y-10729224D01*
X4285593Y-10719700D01*
X4304641Y-10710176D01*
X4457022Y-10910176D02*
X4457022Y-10776843D01*
X4457022Y-10795890D02*
X4466546Y-10786367D01*
X4485593Y-10776843D01*
X4514165Y-10776843D01*
X4533212Y-10786367D01*
X4542736Y-10805414D01*
X4542736Y-10910176D01*
X4542736Y-10805414D02*
X4552260Y-10786367D01*
X4571308Y-10776843D01*
X4599879Y-10776843D01*
X4618927Y-10786367D01*
X4628450Y-10805414D01*
X4628450Y-10910176D01*
X4723689Y-10910176D02*
X4723689Y-10776843D01*
X4723689Y-10795890D02*
X4733212Y-10786367D01*
X4752260Y-10776843D01*
X4780831Y-10776843D01*
X4799879Y-10786367D01*
X4809403Y-10805414D01*
X4809403Y-10910176D01*
X4809403Y-10805414D02*
X4818927Y-10786367D01*
X4837974Y-10776843D01*
X4866546Y-10776843D01*
X4885593Y-10786367D01*
X4895117Y-10805414D01*
X4895117Y-10910176D01*
X5285593Y-10700652D02*
X5114165Y-10957795D01*
X5542736Y-10710176D02*
X5561784Y-10710176D01*
X5580831Y-10719700D01*
X5590355Y-10729224D01*
X5599879Y-10748271D01*
X5609403Y-10786367D01*
X5609403Y-10833986D01*
X5599879Y-10872081D01*
X5590355Y-10891129D01*
X5580831Y-10900652D01*
X5561784Y-10910176D01*
X5542736Y-10910176D01*
X5523689Y-10900652D01*
X5514165Y-10891129D01*
X5504641Y-10872081D01*
X5495117Y-10833986D01*
X5495117Y-10786367D01*
X5504641Y-10748271D01*
X5514165Y-10729224D01*
X5523689Y-10719700D01*
X5542736Y-10710176D01*
X5695117Y-10891129D02*
X5704641Y-10900652D01*
X5695117Y-10910176D01*
X5685593Y-10900652D01*
X5695117Y-10891129D01*
X5695117Y-10910176D01*
X5828450Y-10710176D02*
X5847498Y-10710176D01*
X5866546Y-10719700D01*
X5876069Y-10729224D01*
X5885593Y-10748271D01*
X5895117Y-10786367D01*
X5895117Y-10833986D01*
X5885593Y-10872081D01*
X5876069Y-10891129D01*
X5866546Y-10900652D01*
X5847498Y-10910176D01*
X5828450Y-10910176D01*
X5809403Y-10900652D01*
X5799879Y-10891129D01*
X5790355Y-10872081D01*
X5780831Y-10833986D01*
X5780831Y-10786367D01*
X5790355Y-10748271D01*
X5799879Y-10729224D01*
X5809403Y-10719700D01*
X5828450Y-10710176D01*
X6085593Y-10910176D02*
X5971308Y-10910176D01*
X6028450Y-10910176D02*
X6028450Y-10710176D01*
X6009403Y-10738748D01*
X5990355Y-10757795D01*
X5971308Y-10767319D01*
X6266546Y-10710176D02*
X6171308Y-10710176D01*
X6161784Y-10805414D01*
X6171308Y-10795890D01*
X6190355Y-10786367D01*
X6237974Y-10786367D01*
X6257022Y-10795890D01*
X6266546Y-10805414D01*
X6276069Y-10824462D01*
X6276069Y-10872081D01*
X6266546Y-10891129D01*
X6257022Y-10900652D01*
X6237974Y-10910176D01*
X6190355Y-10910176D01*
X6171308Y-10900652D01*
X6161784Y-10891129D01*
X6342736Y-10710176D02*
X6476069Y-10710176D01*
X6390355Y-10910176D01*
X6542736Y-10710176D02*
X6542736Y-10748271D01*
X6618927Y-10710176D02*
X6618927Y-10748271D01*
X6914165Y-10986367D02*
X6904641Y-10976843D01*
X6885593Y-10948271D01*
X6876069Y-10929224D01*
X6866546Y-10900652D01*
X6857022Y-10853033D01*
X6857022Y-10814938D01*
X6866546Y-10767319D01*
X6876069Y-10738748D01*
X6885593Y-10719700D01*
X6904641Y-10691129D01*
X6914165Y-10681605D01*
X7095117Y-10910176D02*
X6980831Y-10910176D01*
X7037974Y-10910176D02*
X7037974Y-10710176D01*
X7018927Y-10738748D01*
X6999879Y-10757795D01*
X6980831Y-10767319D01*
X7171308Y-10729224D02*
X7180831Y-10719700D01*
X7199879Y-10710176D01*
X7247498Y-10710176D01*
X7266546Y-10719700D01*
X7276069Y-10729224D01*
X7285593Y-10748271D01*
X7285593Y-10767319D01*
X7276069Y-10795890D01*
X7161784Y-10910176D01*
X7285593Y-10910176D01*
X7399879Y-10795890D02*
X7380831Y-10786367D01*
X7371308Y-10776843D01*
X7361784Y-10757795D01*
X7361784Y-10748271D01*
X7371308Y-10729224D01*
X7380831Y-10719700D01*
X7399879Y-10710176D01*
X7437974Y-10710176D01*
X7457022Y-10719700D01*
X7466546Y-10729224D01*
X7476069Y-10748271D01*
X7476069Y-10757795D01*
X7466546Y-10776843D01*
X7457022Y-10786367D01*
X7437974Y-10795890D01*
X7399879Y-10795890D01*
X7380831Y-10805414D01*
X7371308Y-10814938D01*
X7361784Y-10833986D01*
X7361784Y-10872081D01*
X7371308Y-10891129D01*
X7380831Y-10900652D01*
X7399879Y-10910176D01*
X7437974Y-10910176D01*
X7457022Y-10900652D01*
X7466546Y-10891129D01*
X7476069Y-10872081D01*
X7476069Y-10833986D01*
X7466546Y-10814938D01*
X7457022Y-10805414D01*
X7437974Y-10795890D01*
X7714165Y-10910176D02*
X7714165Y-10710176D01*
X7799879Y-10910176D02*
X7799879Y-10805414D01*
X7790355Y-10786367D01*
X7771308Y-10776843D01*
X7742736Y-10776843D01*
X7723688Y-10786367D01*
X7714165Y-10795890D01*
X7923688Y-10910176D02*
X7904641Y-10900652D01*
X7895117Y-10891129D01*
X7885593Y-10872081D01*
X7885593Y-10814938D01*
X7895117Y-10795890D01*
X7904641Y-10786367D01*
X7923688Y-10776843D01*
X7952260Y-10776843D01*
X7971308Y-10786367D01*
X7980831Y-10795890D01*
X7990355Y-10814938D01*
X7990355Y-10872081D01*
X7980831Y-10891129D01*
X7971308Y-10900652D01*
X7952260Y-10910176D01*
X7923688Y-10910176D01*
X8104641Y-10910176D02*
X8085593Y-10900652D01*
X8076069Y-10881605D01*
X8076069Y-10710176D01*
X8257022Y-10900652D02*
X8237974Y-10910176D01*
X8199879Y-10910176D01*
X8180831Y-10900652D01*
X8171308Y-10881605D01*
X8171308Y-10805414D01*
X8180831Y-10786367D01*
X8199879Y-10776843D01*
X8237974Y-10776843D01*
X8257022Y-10786367D01*
X8266546Y-10805414D01*
X8266546Y-10824462D01*
X8171308Y-10843510D01*
X8342736Y-10900652D02*
X8361784Y-10910176D01*
X8399879Y-10910176D01*
X8418927Y-10900652D01*
X8428450Y-10881605D01*
X8428450Y-10872081D01*
X8418927Y-10853033D01*
X8399879Y-10843510D01*
X8371308Y-10843510D01*
X8352260Y-10833986D01*
X8342736Y-10814938D01*
X8342736Y-10805414D01*
X8352260Y-10786367D01*
X8371308Y-10776843D01*
X8399879Y-10776843D01*
X8418927Y-10786367D01*
X8495117Y-10986367D02*
X8504641Y-10976843D01*
X8523689Y-10948271D01*
X8533212Y-10929224D01*
X8542736Y-10900652D01*
X8552260Y-10853033D01*
X8552260Y-10814938D01*
X8542736Y-10767319D01*
X8533212Y-10738748D01*
X8523689Y-10719700D01*
X8504641Y-10691129D01*
X8495117Y-10681605D01*
D13*
X3342260Y-11083700D02*
G75*
G03*
X3342260Y-11083700I-40000J0D01*
G01*
D11*
X3637974Y-10974176D02*
X3657022Y-10974176D01*
X3676069Y-10983700D01*
X3685593Y-10993224D01*
X3695117Y-11012271D01*
X3704641Y-11050367D01*
X3704641Y-11097986D01*
X3695117Y-11136081D01*
X3685593Y-11155129D01*
X3676069Y-11164652D01*
X3657022Y-11174176D01*
X3637974Y-11174176D01*
X3618927Y-11164652D01*
X3609403Y-11155129D01*
X3599879Y-11136081D01*
X3590355Y-11097986D01*
X3590355Y-11050367D01*
X3599879Y-11012271D01*
X3609403Y-10993224D01*
X3618927Y-10983700D01*
X3637974Y-10974176D01*
X3790355Y-11155129D02*
X3799879Y-11164652D01*
X3790355Y-11174176D01*
X3780831Y-11164652D01*
X3790355Y-11155129D01*
X3790355Y-11174176D01*
X3914165Y-11059890D02*
X3895117Y-11050367D01*
X3885593Y-11040843D01*
X3876069Y-11021795D01*
X3876069Y-11012271D01*
X3885593Y-10993224D01*
X3895117Y-10983700D01*
X3914165Y-10974176D01*
X3952260Y-10974176D01*
X3971308Y-10983700D01*
X3980831Y-10993224D01*
X3990355Y-11012271D01*
X3990355Y-11021795D01*
X3980831Y-11040843D01*
X3971308Y-11050367D01*
X3952260Y-11059890D01*
X3914165Y-11059890D01*
X3895117Y-11069414D01*
X3885593Y-11078938D01*
X3876069Y-11097986D01*
X3876069Y-11136081D01*
X3885593Y-11155129D01*
X3895117Y-11164652D01*
X3914165Y-11174176D01*
X3952260Y-11174176D01*
X3971308Y-11164652D01*
X3980831Y-11155129D01*
X3990355Y-11136081D01*
X3990355Y-11097986D01*
X3980831Y-11078938D01*
X3971308Y-11069414D01*
X3952260Y-11059890D01*
X4114165Y-10974176D02*
X4133212Y-10974176D01*
X4152260Y-10983700D01*
X4161784Y-10993224D01*
X4171308Y-11012271D01*
X4180831Y-11050367D01*
X4180831Y-11097986D01*
X4171308Y-11136081D01*
X4161784Y-11155129D01*
X4152260Y-11164652D01*
X4133212Y-11174176D01*
X4114165Y-11174176D01*
X4095117Y-11164652D01*
X4085593Y-11155129D01*
X4076069Y-11136081D01*
X4066546Y-11097986D01*
X4066546Y-11050367D01*
X4076069Y-11012271D01*
X4085593Y-10993224D01*
X4095117Y-10983700D01*
X4114165Y-10974176D01*
X4304641Y-10974176D02*
X4323689Y-10974176D01*
X4342736Y-10983700D01*
X4352260Y-10993224D01*
X4361784Y-11012271D01*
X4371308Y-11050367D01*
X4371308Y-11097986D01*
X4361784Y-11136081D01*
X4352260Y-11155129D01*
X4342736Y-11164652D01*
X4323689Y-11174176D01*
X4304641Y-11174176D01*
X4285593Y-11164652D01*
X4276070Y-11155129D01*
X4266546Y-11136081D01*
X4257022Y-11097986D01*
X4257022Y-11050367D01*
X4266546Y-11012271D01*
X4276070Y-10993224D01*
X4285593Y-10983700D01*
X4304641Y-10974176D01*
X4457022Y-11174176D02*
X4457022Y-11040843D01*
X4457022Y-11059890D02*
X4466546Y-11050367D01*
X4485593Y-11040843D01*
X4514165Y-11040843D01*
X4533212Y-11050367D01*
X4542736Y-11069414D01*
X4542736Y-11174176D01*
X4542736Y-11069414D02*
X4552260Y-11050367D01*
X4571308Y-11040843D01*
X4599879Y-11040843D01*
X4618927Y-11050367D01*
X4628450Y-11069414D01*
X4628450Y-11174176D01*
X4723689Y-11174176D02*
X4723689Y-11040843D01*
X4723689Y-11059890D02*
X4733212Y-11050367D01*
X4752260Y-11040843D01*
X4780831Y-11040843D01*
X4799879Y-11050367D01*
X4809403Y-11069414D01*
X4809403Y-11174176D01*
X4809403Y-11069414D02*
X4818927Y-11050367D01*
X4837974Y-11040843D01*
X4866546Y-11040843D01*
X4885593Y-11050367D01*
X4895117Y-11069414D01*
X4895117Y-11174176D01*
X5285593Y-10964652D02*
X5114165Y-11221795D01*
X5542736Y-10974176D02*
X5561784Y-10974176D01*
X5580831Y-10983700D01*
X5590355Y-10993224D01*
X5599879Y-11012271D01*
X5609403Y-11050367D01*
X5609403Y-11097986D01*
X5599879Y-11136081D01*
X5590355Y-11155129D01*
X5580831Y-11164652D01*
X5561784Y-11174176D01*
X5542736Y-11174176D01*
X5523689Y-11164652D01*
X5514165Y-11155129D01*
X5504641Y-11136081D01*
X5495117Y-11097986D01*
X5495117Y-11050367D01*
X5504641Y-11012271D01*
X5514165Y-10993224D01*
X5523689Y-10983700D01*
X5542736Y-10974176D01*
X5695117Y-11155129D02*
X5704641Y-11164652D01*
X5695117Y-11174176D01*
X5685593Y-11164652D01*
X5695117Y-11155129D01*
X5695117Y-11174176D01*
X5828450Y-10974176D02*
X5847498Y-10974176D01*
X5866546Y-10983700D01*
X5876069Y-10993224D01*
X5885593Y-11012271D01*
X5895117Y-11050367D01*
X5895117Y-11097986D01*
X5885593Y-11136081D01*
X5876069Y-11155129D01*
X5866546Y-11164652D01*
X5847498Y-11174176D01*
X5828450Y-11174176D01*
X5809403Y-11164652D01*
X5799879Y-11155129D01*
X5790355Y-11136081D01*
X5780831Y-11097986D01*
X5780831Y-11050367D01*
X5790355Y-11012271D01*
X5799879Y-10993224D01*
X5809403Y-10983700D01*
X5828450Y-10974176D01*
X5961784Y-10974176D02*
X6085593Y-10974176D01*
X6018927Y-11050367D01*
X6047498Y-11050367D01*
X6066546Y-11059890D01*
X6076069Y-11069414D01*
X6085593Y-11088462D01*
X6085593Y-11136081D01*
X6076069Y-11155129D01*
X6066546Y-11164652D01*
X6047498Y-11174176D01*
X5990355Y-11174176D01*
X5971308Y-11164652D01*
X5961784Y-11155129D01*
X6276069Y-11174176D02*
X6161784Y-11174176D01*
X6218927Y-11174176D02*
X6218927Y-10974176D01*
X6199879Y-11002748D01*
X6180831Y-11021795D01*
X6161784Y-11031319D01*
X6457022Y-10974176D02*
X6361784Y-10974176D01*
X6352260Y-11069414D01*
X6361784Y-11059890D01*
X6380831Y-11050367D01*
X6428450Y-11050367D01*
X6447498Y-11059890D01*
X6457022Y-11069414D01*
X6466546Y-11088462D01*
X6466546Y-11136081D01*
X6457022Y-11155129D01*
X6447498Y-11164652D01*
X6428450Y-11174176D01*
X6380831Y-11174176D01*
X6361784Y-11164652D01*
X6352260Y-11155129D01*
X6542736Y-10974176D02*
X6542736Y-11012271D01*
X6618927Y-10974176D02*
X6618927Y-11012271D01*
X6914165Y-11250367D02*
X6904641Y-11240843D01*
X6885593Y-11212271D01*
X6876069Y-11193224D01*
X6866546Y-11164652D01*
X6857022Y-11117033D01*
X6857022Y-11078938D01*
X6866546Y-11031319D01*
X6876069Y-11002748D01*
X6885593Y-10983700D01*
X6904641Y-10955129D01*
X6914165Y-10945605D01*
X6999879Y-11174176D02*
X7037974Y-11174176D01*
X7057022Y-11164652D01*
X7066546Y-11155129D01*
X7085593Y-11126557D01*
X7095117Y-11088462D01*
X7095117Y-11012271D01*
X7085593Y-10993224D01*
X7076069Y-10983700D01*
X7057022Y-10974176D01*
X7018927Y-10974176D01*
X6999879Y-10983700D01*
X6990355Y-10993224D01*
X6980831Y-11012271D01*
X6980831Y-11059890D01*
X6990355Y-11078938D01*
X6999879Y-11088462D01*
X7018927Y-11097986D01*
X7057022Y-11097986D01*
X7076069Y-11088462D01*
X7085593Y-11078938D01*
X7095117Y-11059890D01*
X7266546Y-10974176D02*
X7228450Y-10974176D01*
X7209403Y-10983700D01*
X7199879Y-10993224D01*
X7180831Y-11021795D01*
X7171308Y-11059890D01*
X7171308Y-11136081D01*
X7180831Y-11155129D01*
X7190355Y-11164652D01*
X7209403Y-11174176D01*
X7247498Y-11174176D01*
X7266546Y-11164652D01*
X7276069Y-11155129D01*
X7285593Y-11136081D01*
X7285593Y-11088462D01*
X7276069Y-11069414D01*
X7266546Y-11059890D01*
X7247498Y-11050367D01*
X7209403Y-11050367D01*
X7190355Y-11059890D01*
X7180831Y-11069414D01*
X7171308Y-11088462D01*
X7523688Y-11174176D02*
X7523688Y-10974176D01*
X7609403Y-11174176D02*
X7609403Y-11069414D01*
X7599879Y-11050367D01*
X7580831Y-11040843D01*
X7552260Y-11040843D01*
X7533212Y-11050367D01*
X7523688Y-11059890D01*
X7733212Y-11174176D02*
X7714165Y-11164652D01*
X7704641Y-11155129D01*
X7695117Y-11136081D01*
X7695117Y-11078938D01*
X7704641Y-11059890D01*
X7714165Y-11050367D01*
X7733212Y-11040843D01*
X7761784Y-11040843D01*
X7780831Y-11050367D01*
X7790355Y-11059890D01*
X7799879Y-11078938D01*
X7799879Y-11136081D01*
X7790355Y-11155129D01*
X7780831Y-11164652D01*
X7761784Y-11174176D01*
X7733212Y-11174176D01*
X7914165Y-11174176D02*
X7895117Y-11164652D01*
X7885593Y-11145605D01*
X7885593Y-10974176D01*
X8066546Y-11164652D02*
X8047498Y-11174176D01*
X8009403Y-11174176D01*
X7990355Y-11164652D01*
X7980831Y-11145605D01*
X7980831Y-11069414D01*
X7990355Y-11050367D01*
X8009403Y-11040843D01*
X8047498Y-11040843D01*
X8066546Y-11050367D01*
X8076069Y-11069414D01*
X8076069Y-11088462D01*
X7980831Y-11107510D01*
X8152260Y-11164652D02*
X8171308Y-11174176D01*
X8209403Y-11174176D01*
X8228450Y-11164652D01*
X8237974Y-11145605D01*
X8237974Y-11136081D01*
X8228450Y-11117033D01*
X8209403Y-11107510D01*
X8180831Y-11107510D01*
X8161784Y-11097986D01*
X8152260Y-11078938D01*
X8152260Y-11069414D01*
X8161784Y-11050367D01*
X8180831Y-11040843D01*
X8209403Y-11040843D01*
X8228450Y-11050367D01*
X8304641Y-11250367D02*
X8314165Y-11240843D01*
X8333212Y-11212271D01*
X8342736Y-11193224D01*
X8352260Y-11164652D01*
X8361784Y-11117033D01*
X8361784Y-11078938D01*
X8352260Y-11031319D01*
X8342736Y-11002748D01*
X8333212Y-10983700D01*
X8314165Y-10955129D01*
X8304641Y-10945605D01*
D14*
X3292260Y-11297700D02*
X3292260Y-11397700D01*
X3242260Y-11347700D02*
X3342260Y-11347700D01*
D11*
X3704641Y-11438176D02*
X3590355Y-11438176D01*
X3647498Y-11438176D02*
X3647498Y-11238176D01*
X3628450Y-11266748D01*
X3609403Y-11285795D01*
X3590355Y-11295319D01*
X3790355Y-11419128D02*
X3799879Y-11428652D01*
X3790355Y-11438176D01*
X3780831Y-11428652D01*
X3790355Y-11419128D01*
X3790355Y-11438176D01*
X3923688Y-11238176D02*
X3942736Y-11238176D01*
X3961784Y-11247700D01*
X3971308Y-11257224D01*
X3980831Y-11276271D01*
X3990355Y-11314367D01*
X3990355Y-11361986D01*
X3980831Y-11400081D01*
X3971308Y-11419128D01*
X3961784Y-11428652D01*
X3942736Y-11438176D01*
X3923688Y-11438176D01*
X3904641Y-11428652D01*
X3895117Y-11419128D01*
X3885593Y-11400081D01*
X3876069Y-11361986D01*
X3876069Y-11314367D01*
X3885593Y-11276271D01*
X3895117Y-11257224D01*
X3904641Y-11247700D01*
X3923688Y-11238176D01*
X4114165Y-11238176D02*
X4133212Y-11238176D01*
X4152260Y-11247700D01*
X4161784Y-11257224D01*
X4171308Y-11276271D01*
X4180831Y-11314367D01*
X4180831Y-11361986D01*
X4171308Y-11400081D01*
X4161784Y-11419128D01*
X4152260Y-11428652D01*
X4133212Y-11438176D01*
X4114165Y-11438176D01*
X4095117Y-11428652D01*
X4085593Y-11419128D01*
X4076069Y-11400081D01*
X4066546Y-11361986D01*
X4066546Y-11314367D01*
X4076069Y-11276271D01*
X4085593Y-11257224D01*
X4095117Y-11247700D01*
X4114165Y-11238176D01*
X4304641Y-11238176D02*
X4323689Y-11238176D01*
X4342736Y-11247700D01*
X4352260Y-11257224D01*
X4361784Y-11276271D01*
X4371308Y-11314367D01*
X4371308Y-11361986D01*
X4361784Y-11400081D01*
X4352260Y-11419128D01*
X4342736Y-11428652D01*
X4323689Y-11438176D01*
X4304641Y-11438176D01*
X4285593Y-11428652D01*
X4276070Y-11419128D01*
X4266546Y-11400081D01*
X4257022Y-11361986D01*
X4257022Y-11314367D01*
X4266546Y-11276271D01*
X4276070Y-11257224D01*
X4285593Y-11247700D01*
X4304641Y-11238176D01*
X4457022Y-11438176D02*
X4457022Y-11304843D01*
X4457022Y-11323890D02*
X4466546Y-11314367D01*
X4485593Y-11304843D01*
X4514165Y-11304843D01*
X4533212Y-11314367D01*
X4542736Y-11333414D01*
X4542736Y-11438176D01*
X4542736Y-11333414D02*
X4552260Y-11314367D01*
X4571308Y-11304843D01*
X4599879Y-11304843D01*
X4618927Y-11314367D01*
X4628450Y-11333414D01*
X4628450Y-11438176D01*
X4723689Y-11438176D02*
X4723689Y-11304843D01*
X4723689Y-11323890D02*
X4733212Y-11314367D01*
X4752260Y-11304843D01*
X4780831Y-11304843D01*
X4799879Y-11314367D01*
X4809403Y-11333414D01*
X4809403Y-11438176D01*
X4809403Y-11333414D02*
X4818927Y-11314367D01*
X4837974Y-11304843D01*
X4866546Y-11304843D01*
X4885593Y-11314367D01*
X4895117Y-11333414D01*
X4895117Y-11438176D01*
X5285593Y-11228652D02*
X5114165Y-11485795D01*
X5542736Y-11238176D02*
X5561784Y-11238176D01*
X5580831Y-11247700D01*
X5590355Y-11257224D01*
X5599879Y-11276271D01*
X5609403Y-11314367D01*
X5609403Y-11361986D01*
X5599879Y-11400081D01*
X5590355Y-11419128D01*
X5580831Y-11428652D01*
X5561784Y-11438176D01*
X5542736Y-11438176D01*
X5523689Y-11428652D01*
X5514165Y-11419128D01*
X5504641Y-11400081D01*
X5495117Y-11361986D01*
X5495117Y-11314367D01*
X5504641Y-11276271D01*
X5514165Y-11257224D01*
X5523689Y-11247700D01*
X5542736Y-11238176D01*
X5695117Y-11419128D02*
X5704641Y-11428652D01*
X5695117Y-11438176D01*
X5685593Y-11428652D01*
X5695117Y-11419128D01*
X5695117Y-11438176D01*
X5828450Y-11238176D02*
X5847498Y-11238176D01*
X5866546Y-11247700D01*
X5876069Y-11257224D01*
X5885593Y-11276271D01*
X5895117Y-11314367D01*
X5895117Y-11361986D01*
X5885593Y-11400081D01*
X5876069Y-11419128D01*
X5866546Y-11428652D01*
X5847498Y-11438176D01*
X5828450Y-11438176D01*
X5809403Y-11428652D01*
X5799879Y-11419128D01*
X5790355Y-11400081D01*
X5780831Y-11361986D01*
X5780831Y-11314367D01*
X5790355Y-11276271D01*
X5799879Y-11257224D01*
X5809403Y-11247700D01*
X5828450Y-11238176D01*
X5961784Y-11238176D02*
X6085593Y-11238176D01*
X6018927Y-11314367D01*
X6047498Y-11314367D01*
X6066546Y-11323890D01*
X6076069Y-11333414D01*
X6085593Y-11352462D01*
X6085593Y-11400081D01*
X6076069Y-11419128D01*
X6066546Y-11428652D01*
X6047498Y-11438176D01*
X5990355Y-11438176D01*
X5971308Y-11428652D01*
X5961784Y-11419128D01*
X6180831Y-11438176D02*
X6218927Y-11438176D01*
X6237974Y-11428652D01*
X6247498Y-11419128D01*
X6266546Y-11390557D01*
X6276069Y-11352462D01*
X6276069Y-11276271D01*
X6266546Y-11257224D01*
X6257022Y-11247700D01*
X6237974Y-11238176D01*
X6199879Y-11238176D01*
X6180831Y-11247700D01*
X6171308Y-11257224D01*
X6161784Y-11276271D01*
X6161784Y-11323890D01*
X6171308Y-11342938D01*
X6180831Y-11352462D01*
X6199879Y-11361986D01*
X6237974Y-11361986D01*
X6257022Y-11352462D01*
X6266546Y-11342938D01*
X6276069Y-11323890D01*
X6447498Y-11304843D02*
X6447498Y-11438176D01*
X6399879Y-11228652D02*
X6352260Y-11371509D01*
X6476069Y-11371509D01*
X6542736Y-11238176D02*
X6542736Y-11276271D01*
X6618927Y-11238176D02*
X6618927Y-11276271D01*
X6914165Y-11514367D02*
X6904641Y-11504843D01*
X6885593Y-11476271D01*
X6876069Y-11457224D01*
X6866546Y-11428652D01*
X6857022Y-11381033D01*
X6857022Y-11342938D01*
X6866546Y-11295319D01*
X6876069Y-11266748D01*
X6885593Y-11247700D01*
X6904641Y-11219128D01*
X6914165Y-11209605D01*
X7095117Y-11438176D02*
X6980831Y-11438176D01*
X7037974Y-11438176D02*
X7037974Y-11238176D01*
X7018927Y-11266748D01*
X6999879Y-11285795D01*
X6980831Y-11295319D01*
X7161784Y-11238176D02*
X7285593Y-11238176D01*
X7218927Y-11314367D01*
X7247498Y-11314367D01*
X7266546Y-11323890D01*
X7276069Y-11333414D01*
X7285593Y-11352462D01*
X7285593Y-11400081D01*
X7276069Y-11419128D01*
X7266546Y-11428652D01*
X7247498Y-11438176D01*
X7190355Y-11438176D01*
X7171308Y-11428652D01*
X7161784Y-11419128D01*
X7399879Y-11323890D02*
X7380831Y-11314367D01*
X7371308Y-11304843D01*
X7361784Y-11285795D01*
X7361784Y-11276271D01*
X7371308Y-11257224D01*
X7380831Y-11247700D01*
X7399879Y-11238176D01*
X7437974Y-11238176D01*
X7457022Y-11247700D01*
X7466546Y-11257224D01*
X7476069Y-11276271D01*
X7476069Y-11285795D01*
X7466546Y-11304843D01*
X7457022Y-11314367D01*
X7437974Y-11323890D01*
X7399879Y-11323890D01*
X7380831Y-11333414D01*
X7371308Y-11342938D01*
X7361784Y-11361986D01*
X7361784Y-11400081D01*
X7371308Y-11419128D01*
X7380831Y-11428652D01*
X7399879Y-11438176D01*
X7437974Y-11438176D01*
X7457022Y-11428652D01*
X7466546Y-11419128D01*
X7476069Y-11400081D01*
X7476069Y-11361986D01*
X7466546Y-11342938D01*
X7457022Y-11333414D01*
X7437974Y-11323890D01*
X7714165Y-11438176D02*
X7714165Y-11238176D01*
X7799879Y-11438176D02*
X7799879Y-11333414D01*
X7790355Y-11314367D01*
X7771308Y-11304843D01*
X7742736Y-11304843D01*
X7723688Y-11314367D01*
X7714165Y-11323890D01*
X7923688Y-11438176D02*
X7904641Y-11428652D01*
X7895117Y-11419128D01*
X7885593Y-11400081D01*
X7885593Y-11342938D01*
X7895117Y-11323890D01*
X7904641Y-11314367D01*
X7923688Y-11304843D01*
X7952260Y-11304843D01*
X7971308Y-11314367D01*
X7980831Y-11323890D01*
X7990355Y-11342938D01*
X7990355Y-11400081D01*
X7980831Y-11419128D01*
X7971308Y-11428652D01*
X7952260Y-11438176D01*
X7923688Y-11438176D01*
X8104641Y-11438176D02*
X8085593Y-11428652D01*
X8076069Y-11409605D01*
X8076069Y-11238176D01*
X8257022Y-11428652D02*
X8237974Y-11438176D01*
X8199879Y-11438176D01*
X8180831Y-11428652D01*
X8171308Y-11409605D01*
X8171308Y-11333414D01*
X8180831Y-11314367D01*
X8199879Y-11304843D01*
X8237974Y-11304843D01*
X8257022Y-11314367D01*
X8266546Y-11333414D01*
X8266546Y-11352462D01*
X8171308Y-11371509D01*
X8342736Y-11428652D02*
X8361784Y-11438176D01*
X8399879Y-11438176D01*
X8418927Y-11428652D01*
X8428450Y-11409605D01*
X8428450Y-11400081D01*
X8418927Y-11381033D01*
X8399879Y-11371509D01*
X8371308Y-11371509D01*
X8352260Y-11361986D01*
X8342736Y-11342938D01*
X8342736Y-11333414D01*
X8352260Y-11314367D01*
X8371308Y-11304843D01*
X8399879Y-11304843D01*
X8418927Y-11314367D01*
X8495117Y-11514367D02*
X8504641Y-11504843D01*
X8523689Y-11476271D01*
X8533212Y-11457224D01*
X8542736Y-11428652D01*
X8552260Y-11381033D01*
X8552260Y-11342938D01*
X8542736Y-11295319D01*
X8533212Y-11266748D01*
X8523689Y-11247700D01*
X8504641Y-11219128D01*
X8495117Y-11209605D01*
X3312971Y-11682411D02*
X3312971Y-11540989D01*
X3171549Y-11540989D01*
X3171549Y-11682411D01*
X3312971Y-11682411D01*
X3590355Y-11521224D02*
X3599879Y-11511700D01*
X3618927Y-11502176D01*
X3666546Y-11502176D01*
X3685593Y-11511700D01*
X3695117Y-11521224D01*
X3704641Y-11540271D01*
X3704641Y-11559319D01*
X3695117Y-11587890D01*
X3580831Y-11702176D01*
X3704641Y-11702176D01*
X3790355Y-11683128D02*
X3799879Y-11692652D01*
X3790355Y-11702176D01*
X3780831Y-11692652D01*
X3790355Y-11683128D01*
X3790355Y-11702176D01*
X3866546Y-11502176D02*
X3999879Y-11502176D01*
X3914165Y-11702176D01*
X4114165Y-11502176D02*
X4133212Y-11502176D01*
X4152260Y-11511700D01*
X4161784Y-11521224D01*
X4171308Y-11540271D01*
X4180831Y-11578367D01*
X4180831Y-11625986D01*
X4171308Y-11664081D01*
X4161784Y-11683128D01*
X4152260Y-11692652D01*
X4133212Y-11702176D01*
X4114165Y-11702176D01*
X4095117Y-11692652D01*
X4085593Y-11683128D01*
X4076069Y-11664081D01*
X4066546Y-11625986D01*
X4066546Y-11578367D01*
X4076069Y-11540271D01*
X4085593Y-11521224D01*
X4095117Y-11511700D01*
X4114165Y-11502176D01*
X4304641Y-11502176D02*
X4323689Y-11502176D01*
X4342736Y-11511700D01*
X4352260Y-11521224D01*
X4361784Y-11540271D01*
X4371308Y-11578367D01*
X4371308Y-11625986D01*
X4361784Y-11664081D01*
X4352260Y-11683128D01*
X4342736Y-11692652D01*
X4323689Y-11702176D01*
X4304641Y-11702176D01*
X4285593Y-11692652D01*
X4276070Y-11683128D01*
X4266546Y-11664081D01*
X4257022Y-11625986D01*
X4257022Y-11578367D01*
X4266546Y-11540271D01*
X4276070Y-11521224D01*
X4285593Y-11511700D01*
X4304641Y-11502176D01*
X4457022Y-11702176D02*
X4457022Y-11568843D01*
X4457022Y-11587890D02*
X4466546Y-11578367D01*
X4485593Y-11568843D01*
X4514165Y-11568843D01*
X4533212Y-11578367D01*
X4542736Y-11597414D01*
X4542736Y-11702176D01*
X4542736Y-11597414D02*
X4552260Y-11578367D01*
X4571308Y-11568843D01*
X4599879Y-11568843D01*
X4618927Y-11578367D01*
X4628450Y-11597414D01*
X4628450Y-11702176D01*
X4723689Y-11702176D02*
X4723689Y-11568843D01*
X4723689Y-11587890D02*
X4733212Y-11578367D01*
X4752260Y-11568843D01*
X4780831Y-11568843D01*
X4799879Y-11578367D01*
X4809403Y-11597414D01*
X4809403Y-11702176D01*
X4809403Y-11597414D02*
X4818927Y-11578367D01*
X4837974Y-11568843D01*
X4866546Y-11568843D01*
X4885593Y-11578367D01*
X4895117Y-11597414D01*
X4895117Y-11702176D01*
X5285593Y-11492652D02*
X5114165Y-11749795D01*
X5542736Y-11502176D02*
X5561784Y-11502176D01*
X5580831Y-11511700D01*
X5590355Y-11521224D01*
X5599879Y-11540271D01*
X5609403Y-11578367D01*
X5609403Y-11625986D01*
X5599879Y-11664081D01*
X5590355Y-11683128D01*
X5580831Y-11692652D01*
X5561784Y-11702176D01*
X5542736Y-11702176D01*
X5523689Y-11692652D01*
X5514165Y-11683128D01*
X5504641Y-11664081D01*
X5495117Y-11625986D01*
X5495117Y-11578367D01*
X5504641Y-11540271D01*
X5514165Y-11521224D01*
X5523689Y-11511700D01*
X5542736Y-11502176D01*
X5695117Y-11683128D02*
X5704641Y-11692652D01*
X5695117Y-11702176D01*
X5685593Y-11692652D01*
X5695117Y-11683128D01*
X5695117Y-11702176D01*
X5895117Y-11702176D02*
X5780831Y-11702176D01*
X5837974Y-11702176D02*
X5837974Y-11502176D01*
X5818927Y-11530748D01*
X5799879Y-11549795D01*
X5780831Y-11559319D01*
X6018927Y-11502176D02*
X6037974Y-11502176D01*
X6057022Y-11511700D01*
X6066546Y-11521224D01*
X6076069Y-11540271D01*
X6085593Y-11578367D01*
X6085593Y-11625986D01*
X6076069Y-11664081D01*
X6066546Y-11683128D01*
X6057022Y-11692652D01*
X6037974Y-11702176D01*
X6018927Y-11702176D01*
X5999879Y-11692652D01*
X5990355Y-11683128D01*
X5980831Y-11664081D01*
X5971308Y-11625986D01*
X5971308Y-11578367D01*
X5980831Y-11540271D01*
X5990355Y-11521224D01*
X5999879Y-11511700D01*
X6018927Y-11502176D01*
X6257022Y-11502176D02*
X6218927Y-11502176D01*
X6199879Y-11511700D01*
X6190355Y-11521224D01*
X6171308Y-11549795D01*
X6161784Y-11587890D01*
X6161784Y-11664081D01*
X6171308Y-11683128D01*
X6180831Y-11692652D01*
X6199879Y-11702176D01*
X6237974Y-11702176D01*
X6257022Y-11692652D01*
X6266546Y-11683128D01*
X6276069Y-11664081D01*
X6276069Y-11616462D01*
X6266546Y-11597414D01*
X6257022Y-11587890D01*
X6237974Y-11578367D01*
X6199879Y-11578367D01*
X6180831Y-11587890D01*
X6171308Y-11597414D01*
X6161784Y-11616462D01*
X6342736Y-11502176D02*
X6466546Y-11502176D01*
X6399879Y-11578367D01*
X6428450Y-11578367D01*
X6447498Y-11587890D01*
X6457022Y-11597414D01*
X6466546Y-11616462D01*
X6466546Y-11664081D01*
X6457022Y-11683128D01*
X6447498Y-11692652D01*
X6428450Y-11702176D01*
X6371308Y-11702176D01*
X6352260Y-11692652D01*
X6342736Y-11683128D01*
X6542736Y-11502176D02*
X6542736Y-11540271D01*
X6618927Y-11502176D02*
X6618927Y-11540271D01*
X6914165Y-11778367D02*
X6904641Y-11768843D01*
X6885593Y-11740271D01*
X6876069Y-11721224D01*
X6866546Y-11692652D01*
X6857022Y-11645033D01*
X6857022Y-11606938D01*
X6866546Y-11559319D01*
X6876069Y-11530748D01*
X6885593Y-11511700D01*
X6904641Y-11483128D01*
X6914165Y-11473605D01*
X6980831Y-11521224D02*
X6990355Y-11511700D01*
X7009403Y-11502176D01*
X7057022Y-11502176D01*
X7076069Y-11511700D01*
X7085593Y-11521224D01*
X7095117Y-11540271D01*
X7095117Y-11559319D01*
X7085593Y-11587890D01*
X6971308Y-11702176D01*
X7095117Y-11702176D01*
X7333212Y-11702176D02*
X7333212Y-11502176D01*
X7418927Y-11702176D02*
X7418927Y-11597414D01*
X7409403Y-11578367D01*
X7390355Y-11568843D01*
X7361784Y-11568843D01*
X7342736Y-11578367D01*
X7333212Y-11587890D01*
X7542736Y-11702176D02*
X7523688Y-11692652D01*
X7514165Y-11683128D01*
X7504641Y-11664081D01*
X7504641Y-11606938D01*
X7514165Y-11587890D01*
X7523688Y-11578367D01*
X7542736Y-11568843D01*
X7571308Y-11568843D01*
X7590355Y-11578367D01*
X7599879Y-11587890D01*
X7609403Y-11606938D01*
X7609403Y-11664081D01*
X7599879Y-11683128D01*
X7590355Y-11692652D01*
X7571308Y-11702176D01*
X7542736Y-11702176D01*
X7723688Y-11702176D02*
X7704641Y-11692652D01*
X7695117Y-11673605D01*
X7695117Y-11502176D01*
X7876069Y-11692652D02*
X7857022Y-11702176D01*
X7818927Y-11702176D01*
X7799879Y-11692652D01*
X7790355Y-11673605D01*
X7790355Y-11597414D01*
X7799879Y-11578367D01*
X7818927Y-11568843D01*
X7857022Y-11568843D01*
X7876069Y-11578367D01*
X7885593Y-11597414D01*
X7885593Y-11616462D01*
X7790355Y-11635509D01*
X7961784Y-11692652D02*
X7980831Y-11702176D01*
X8018927Y-11702176D01*
X8037974Y-11692652D01*
X8047498Y-11673605D01*
X8047498Y-11664081D01*
X8037974Y-11645033D01*
X8018927Y-11635509D01*
X7990355Y-11635509D01*
X7971308Y-11625986D01*
X7961784Y-11606938D01*
X7961784Y-11597414D01*
X7971308Y-11578367D01*
X7990355Y-11568843D01*
X8018927Y-11568843D01*
X8037974Y-11578367D01*
X8114165Y-11778367D02*
X8123688Y-11768843D01*
X8142736Y-11740271D01*
X8152260Y-11721224D01*
X8161784Y-11692652D01*
X8171308Y-11645033D01*
X8171308Y-11606938D01*
X8161784Y-11559319D01*
X8152260Y-11530748D01*
X8142736Y-11511700D01*
X8123688Y-11483128D01*
X8114165Y-11473605D01*
M02*
