%TF.GenerationSoftware,KiCad,Pcbnew,(6.0.7)*%
%TF.CreationDate,2022-12-20T23:04:03+00:00*%
%TF.ProjectId,CPC464-2MINIDDI,43504334-3634-42d3-924d-494e49444449,rev?*%
%TF.SameCoordinates,Original*%
%TF.FileFunction,Legend,Bot*%
%TF.FilePolarity,Positive*%
%FSLAX46Y46*%
G04 Gerber Fmt 4.6, Leading zero omitted, Abs format (unit mm)*
G04 Created by KiCad (PCBNEW (6.0.7)) date 2022-12-20 23:04:03*
%MOMM*%
%LPD*%
G01*
G04 APERTURE LIST*
%ADD10C,0.250000*%
G04 APERTURE END LIST*
D10*
X68412876Y-96937580D02*
X67841447Y-96937580D01*
X68127161Y-97937580D02*
X68127161Y-96937580D01*
X67508114Y-97937580D02*
X67508114Y-96937580D01*
X67079542Y-97937580D02*
X67079542Y-97413771D01*
X67127161Y-97318533D01*
X67222400Y-97270914D01*
X67365257Y-97270914D01*
X67460495Y-97318533D01*
X67508114Y-97366152D01*
X66174780Y-97937580D02*
X66174780Y-97413771D01*
X66222400Y-97318533D01*
X66317638Y-97270914D01*
X66508114Y-97270914D01*
X66603352Y-97318533D01*
X66174780Y-97889961D02*
X66270019Y-97937580D01*
X66508114Y-97937580D01*
X66603352Y-97889961D01*
X66650971Y-97794723D01*
X66650971Y-97699485D01*
X66603352Y-97604247D01*
X66508114Y-97556628D01*
X66270019Y-97556628D01*
X66174780Y-97509009D01*
X65698590Y-97270914D02*
X65698590Y-97937580D01*
X65698590Y-97366152D02*
X65650971Y-97318533D01*
X65555733Y-97270914D01*
X65412876Y-97270914D01*
X65317638Y-97318533D01*
X65270019Y-97413771D01*
X65270019Y-97937580D01*
X64793828Y-97937580D02*
X64793828Y-96937580D01*
X64698590Y-97556628D02*
X64412876Y-97937580D01*
X64412876Y-97270914D02*
X64793828Y-97651866D01*
X64031923Y-97889961D02*
X63936685Y-97937580D01*
X63746209Y-97937580D01*
X63650971Y-97889961D01*
X63603352Y-97794723D01*
X63603352Y-97747104D01*
X63650971Y-97651866D01*
X63746209Y-97604247D01*
X63889066Y-97604247D01*
X63984304Y-97556628D01*
X64031923Y-97461390D01*
X64031923Y-97413771D01*
X63984304Y-97318533D01*
X63889066Y-97270914D01*
X63746209Y-97270914D01*
X63650971Y-97318533D01*
X62555733Y-97270914D02*
X62174780Y-97270914D01*
X62412876Y-96937580D02*
X62412876Y-97794723D01*
X62365257Y-97889961D01*
X62270019Y-97937580D01*
X62174780Y-97937580D01*
X61698590Y-97937580D02*
X61793828Y-97889961D01*
X61841447Y-97842342D01*
X61889066Y-97747104D01*
X61889066Y-97461390D01*
X61841447Y-97366152D01*
X61793828Y-97318533D01*
X61698590Y-97270914D01*
X61555733Y-97270914D01*
X61460495Y-97318533D01*
X61412876Y-97366152D01*
X61365257Y-97461390D01*
X61365257Y-97747104D01*
X61412876Y-97842342D01*
X61460495Y-97889961D01*
X61555733Y-97937580D01*
X61698590Y-97937580D01*
X59603352Y-97937580D02*
X59936685Y-97461390D01*
X60174780Y-97937580D02*
X60174780Y-96937580D01*
X59793828Y-96937580D01*
X59698590Y-96985200D01*
X59650971Y-97032819D01*
X59603352Y-97128057D01*
X59603352Y-97270914D01*
X59650971Y-97366152D01*
X59698590Y-97413771D01*
X59793828Y-97461390D01*
X60174780Y-97461390D01*
X59031923Y-97937580D02*
X59127161Y-97889961D01*
X59174780Y-97842342D01*
X59222400Y-97747104D01*
X59222400Y-97461390D01*
X59174780Y-97366152D01*
X59127161Y-97318533D01*
X59031923Y-97270914D01*
X58889066Y-97270914D01*
X58793828Y-97318533D01*
X58746209Y-97366152D01*
X58698590Y-97461390D01*
X58698590Y-97747104D01*
X58746209Y-97842342D01*
X58793828Y-97889961D01*
X58889066Y-97937580D01*
X59031923Y-97937580D01*
X58270019Y-97937580D02*
X58270019Y-96937580D01*
X58270019Y-97318533D02*
X58174780Y-97270914D01*
X57984304Y-97270914D01*
X57889066Y-97318533D01*
X57841447Y-97366152D01*
X57793828Y-97461390D01*
X57793828Y-97747104D01*
X57841447Y-97842342D01*
X57889066Y-97889961D01*
X57984304Y-97937580D01*
X58174780Y-97937580D01*
X58270019Y-97889961D01*
X56650971Y-96937580D02*
X56650971Y-97128057D01*
X56270019Y-96937580D02*
X56270019Y-97128057D01*
X55841447Y-97937580D02*
X55841447Y-96937580D01*
X55460495Y-96937580D01*
X55365257Y-96985200D01*
X55317638Y-97032819D01*
X55270019Y-97128057D01*
X55270019Y-97270914D01*
X55317638Y-97366152D01*
X55365257Y-97413771D01*
X55460495Y-97461390D01*
X55841447Y-97461390D01*
X54460495Y-97889961D02*
X54555733Y-97937580D01*
X54746209Y-97937580D01*
X54841447Y-97889961D01*
X54889066Y-97794723D01*
X54889066Y-97413771D01*
X54841447Y-97318533D01*
X54746209Y-97270914D01*
X54555733Y-97270914D01*
X54460495Y-97318533D01*
X54412876Y-97413771D01*
X54412876Y-97509009D01*
X54889066Y-97604247D01*
X53603352Y-97889961D02*
X53698590Y-97937580D01*
X53889066Y-97937580D01*
X53984304Y-97889961D01*
X54031923Y-97794723D01*
X54031923Y-97413771D01*
X53984304Y-97318533D01*
X53889066Y-97270914D01*
X53698590Y-97270914D01*
X53603352Y-97318533D01*
X53555733Y-97413771D01*
X53555733Y-97509009D01*
X54031923Y-97604247D01*
X53127161Y-97270914D02*
X53127161Y-98270914D01*
X53127161Y-97318533D02*
X53031923Y-97270914D01*
X52841447Y-97270914D01*
X52746209Y-97318533D01*
X52698590Y-97366152D01*
X52650971Y-97461390D01*
X52650971Y-97747104D01*
X52698590Y-97842342D01*
X52746209Y-97889961D01*
X52841447Y-97937580D01*
X53031923Y-97937580D01*
X53127161Y-97889961D01*
X52079542Y-97937580D02*
X52174780Y-97889961D01*
X52222400Y-97842342D01*
X52270019Y-97747104D01*
X52270019Y-97461390D01*
X52222400Y-97366152D01*
X52174780Y-97318533D01*
X52079542Y-97270914D01*
X51936685Y-97270914D01*
X51841447Y-97318533D01*
X51793828Y-97366152D01*
X51746209Y-97461390D01*
X51746209Y-97747104D01*
X51793828Y-97842342D01*
X51841447Y-97889961D01*
X51936685Y-97937580D01*
X52079542Y-97937580D01*
X51365257Y-96937580D02*
X51365257Y-97128057D01*
X50984304Y-96937580D02*
X50984304Y-97128057D01*
X49936685Y-96937580D02*
X49365257Y-96937580D01*
X49650971Y-97937580D02*
X49650971Y-96937580D01*
X48603352Y-97937580D02*
X48603352Y-97413771D01*
X48650971Y-97318533D01*
X48746209Y-97270914D01*
X48936685Y-97270914D01*
X49031923Y-97318533D01*
X48603352Y-97889961D02*
X48698590Y-97937580D01*
X48936685Y-97937580D01*
X49031923Y-97889961D01*
X49079542Y-97794723D01*
X49079542Y-97699485D01*
X49031923Y-97604247D01*
X48936685Y-97556628D01*
X48698590Y-97556628D01*
X48603352Y-97509009D01*
X48222400Y-97270914D02*
X47984304Y-97937580D01*
X47746209Y-97270914D02*
X47984304Y-97937580D01*
X48079542Y-98175676D01*
X48127161Y-98223295D01*
X48222400Y-98270914D01*
X47222400Y-97937580D02*
X47317638Y-97889961D01*
X47365257Y-97794723D01*
X47365257Y-96937580D01*
X46698590Y-97937580D02*
X46793828Y-97889961D01*
X46841447Y-97842342D01*
X46889066Y-97747104D01*
X46889066Y-97461390D01*
X46841447Y-97366152D01*
X46793828Y-97318533D01*
X46698590Y-97270914D01*
X46555733Y-97270914D01*
X46460495Y-97318533D01*
X46412876Y-97366152D01*
X46365257Y-97461390D01*
X46365257Y-97747104D01*
X46412876Y-97842342D01*
X46460495Y-97889961D01*
X46555733Y-97937580D01*
X46698590Y-97937580D01*
X45936685Y-97937580D02*
X45936685Y-97270914D01*
X45936685Y-97461390D02*
X45889066Y-97366152D01*
X45841447Y-97318533D01*
X45746209Y-97270914D01*
X45650971Y-97270914D01*
X44127161Y-97937580D02*
X44127161Y-97413771D01*
X44174780Y-97318533D01*
X44270019Y-97270914D01*
X44460495Y-97270914D01*
X44555733Y-97318533D01*
X44127161Y-97889961D02*
X44222400Y-97937580D01*
X44460495Y-97937580D01*
X44555733Y-97889961D01*
X44603352Y-97794723D01*
X44603352Y-97699485D01*
X44555733Y-97604247D01*
X44460495Y-97556628D01*
X44222400Y-97556628D01*
X44127161Y-97509009D01*
X43650971Y-97270914D02*
X43650971Y-97937580D01*
X43650971Y-97366152D02*
X43603352Y-97318533D01*
X43508114Y-97270914D01*
X43365257Y-97270914D01*
X43270019Y-97318533D01*
X43222400Y-97413771D01*
X43222400Y-97937580D01*
X42317638Y-97937580D02*
X42317638Y-96937580D01*
X42317638Y-97889961D02*
X42412876Y-97937580D01*
X42603352Y-97937580D01*
X42698590Y-97889961D01*
X42746209Y-97842342D01*
X42793828Y-97747104D01*
X42793828Y-97461390D01*
X42746209Y-97366152D01*
X42698590Y-97318533D01*
X42603352Y-97270914D01*
X42412876Y-97270914D01*
X42317638Y-97318533D01*
X40508114Y-97842342D02*
X40555733Y-97889961D01*
X40698590Y-97937580D01*
X40793828Y-97937580D01*
X40936685Y-97889961D01*
X41031923Y-97794723D01*
X41079542Y-97699485D01*
X41127161Y-97509009D01*
X41127161Y-97366152D01*
X41079542Y-97175676D01*
X41031923Y-97080438D01*
X40936685Y-96985200D01*
X40793828Y-96937580D01*
X40698590Y-96937580D01*
X40555733Y-96985200D01*
X40508114Y-97032819D01*
X40079542Y-97937580D02*
X40079542Y-96937580D01*
X39650971Y-97937580D02*
X39650971Y-97413771D01*
X39698590Y-97318533D01*
X39793828Y-97270914D01*
X39936685Y-97270914D01*
X40031923Y-97318533D01*
X40079542Y-97366152D01*
X39174780Y-97937580D02*
X39174780Y-97270914D01*
X39174780Y-97461390D02*
X39127161Y-97366152D01*
X39079542Y-97318533D01*
X38984304Y-97270914D01*
X38889066Y-97270914D01*
X38555733Y-97937580D02*
X38555733Y-97270914D01*
X38555733Y-96937580D02*
X38603352Y-96985200D01*
X38555733Y-97032819D01*
X38508114Y-96985200D01*
X38555733Y-96937580D01*
X38555733Y-97032819D01*
X38127161Y-97889961D02*
X38031923Y-97937580D01*
X37841447Y-97937580D01*
X37746209Y-97889961D01*
X37698590Y-97794723D01*
X37698590Y-97747104D01*
X37746209Y-97651866D01*
X37841447Y-97604247D01*
X37984304Y-97604247D01*
X38079542Y-97556628D01*
X38127161Y-97461390D01*
X38127161Y-97413771D01*
X38079542Y-97318533D01*
X37984304Y-97270914D01*
X37841447Y-97270914D01*
X37746209Y-97318533D01*
X37317638Y-97889961D02*
X37222400Y-97937580D01*
X37031923Y-97937580D01*
X36936685Y-97889961D01*
X36889066Y-97794723D01*
X36889066Y-97747104D01*
X36936685Y-97651866D01*
X37031923Y-97604247D01*
X37174780Y-97604247D01*
X37270019Y-97556628D01*
X37317638Y-97461390D01*
X37317638Y-97413771D01*
X37270019Y-97318533D01*
X37174780Y-97270914D01*
X37031923Y-97270914D01*
X36936685Y-97318533D01*
X36555733Y-97270914D02*
X36317638Y-97937580D01*
X36079542Y-97270914D02*
X36317638Y-97937580D01*
X36412876Y-98175676D01*
X36460495Y-98223295D01*
X36555733Y-98270914D01*
M02*
