M48
; DRILL file {KiCad (6.0.7)} date Tue Dec 20 23:04:01 2022
; FORMAT={-:-/ absolute / inch / decimal}
; #@! TF.CreationDate,2022-12-20T23:04:01+00:00
; #@! TF.GenerationSoftware,Kicad,Pcbnew,(6.0.7)
; #@! TF.FileFunction,Plated,1,2,PTH
FMAT,2
INCH
; #@! TA.AperFunction,Plated,PTH,ViaDrill
T1C0.0157
; #@! TA.AperFunction,Plated,PTH,ComponentDrill
T2C0.0315
; #@! TA.AperFunction,Plated,PTH,ComponentDrill
T3C0.0394
; #@! TA.AperFunction,Plated,PTH,ComponentDrill
T4C0.1063
%
G90
G05
T1
X1.5327Y-3.0218
X1.6861Y-1.9789
X1.6986Y-2.9077
X1.807Y-3.5164
X1.9011Y-3.0331
X1.9339Y-1.591
X1.961Y-2.8871
X1.966Y-3.8513
X2.002Y-2.8861
X2.0508Y-2.7742
X2.0529Y-2.6899
X2.0913Y-2.7743
X2.0945Y-3.5012
X2.124Y-1.9422
X2.1785Y-2.1078
X2.1893Y-3.4149
X2.2223Y-3.0042
X2.276Y-2.8869
X2.3213Y-2.8855
X2.327Y-2.9251
X2.3699Y-2.7741
X2.3772Y-2.3383
X2.4681Y-2.1611
X2.4954Y-3.783
X2.5259Y-1.6288
X2.556Y-1.9713
X2.5717Y-2.2321
X2.6011Y-3.0621
X2.6204Y-3.1756
X2.6343Y-2.1957
X2.6495Y-3.8378
X2.7211Y-2.0503
X2.7351Y-2.2962
X2.8043Y-2.3049
X2.8096Y-3.3801
X2.8099Y-2.5291
X2.8313Y-3.2017
X2.8562Y-2.1714
X2.8688Y-3.0804
X2.9094Y-2.0019
X2.9488Y-2.193
X2.949Y-2.0536
X2.9494Y-2.0123
X2.963Y-2.487
X3.0755Y-1.6335
X3.0797Y-2.7989
X3.0984Y-1.7065
X3.1175Y-2.3047
X3.1313Y-1.9063
X3.2073Y-1.9756
X3.2271Y-3.4264
X3.2488Y-3.7283
X3.2642Y-3.4498
X3.2727Y-3.6019
X3.2909Y-1.9585
X3.3064Y-1.9026
X3.3212Y-1.0387
X3.3255Y-2.2437
X3.3255Y-2.705
X3.351Y-3.68
X3.3532Y-2.0208
X3.3662Y-1.84
X3.3673Y-3.3936
X3.3748Y-2.0673
X3.3856Y-1.752
X3.4158Y-3.365
X3.4204Y-1.8206
X3.4515Y-1.8703
X3.4515Y-2.8554
X3.4692Y-3.0579
X3.4828Y-1.9964
X3.5142Y-2.3007
X3.5205Y-3.114
X3.5237Y-3.692
X3.5324Y-3.2971
X3.5342Y-3.783
X3.5502Y-2.7082
X3.5595Y-3.5766
X3.5659Y-3.9729
X3.5799Y-3.2637
X3.592Y-1.9049
X3.5949Y-3.1149
X3.5973Y-2.1427
X3.6102Y-2.6555
X3.6135Y-3.0778
X3.6452Y-2.1497
X3.6453Y-2.5148
X3.6684Y-3.0519
X3.6807Y-3.2458
X3.7052Y-3.277
X3.7501Y-2.0996
X3.8289Y-2.8715
X3.8396Y-2.1304
X3.8535Y-1.94
X3.8583Y-2.7128
X3.8887Y-2.5971
X3.8927Y-2.637
X3.897Y-1.9842
X3.9035Y-2.5573
X3.94Y-2.0733
X3.9421Y-3.9729
X3.9581Y-2.853
X4.0259Y-3.307
X4.026Y-3.777
X4.0543Y-3.1816
X4.0855Y-3.257
X4.1163Y-3.4653
X4.1547Y-3.4395
X4.1559Y-3.0397
X4.2081Y-3.2195
X4.2112Y-2.2495
X4.2171Y-3.4298
X4.2347Y-2.123
X4.2374Y-2.1689
X4.2417Y-2.2747
X4.2578Y-3.5147
X4.2582Y-3.6721
X4.2701Y-2.7263
X4.271Y-2.628
X4.3091Y-2.3587
X4.396Y-3.0316
X4.43Y-1.871
X4.43Y-3.876
X4.432Y-2.019
X4.432Y-2.578
X4.432Y-3.16
X4.6754Y-2.3183
X4.6763Y-3.1348
T2
X1.4488Y-3.3358
X1.4488Y-3.9358
X1.452Y-1.8848
X1.452Y-2.4848
X1.452Y-2.609
X1.452Y-3.209
X1.5488Y-3.3358
X1.5488Y-3.9358
X1.552Y-1.8848
X1.552Y-2.4848
X1.552Y-2.609
X1.552Y-3.209
X1.6488Y-3.3358
X1.6488Y-3.9358
X1.652Y-1.8848
X1.652Y-2.4848
X1.652Y-2.609
X1.652Y-3.209
X1.7488Y-3.3358
X1.7488Y-3.9358
X1.752Y-1.8848
X1.752Y-2.4848
X1.752Y-2.609
X1.752Y-3.209
X1.8488Y-3.3358
X1.8488Y-3.9358
X1.852Y-1.8848
X1.852Y-2.4848
X1.852Y-2.609
X1.852Y-3.209
X1.9488Y-3.3358
X1.9488Y-3.9358
X1.952Y-1.8848
X1.952Y-2.4848
X1.952Y-2.609
X1.952Y-3.209
X2.0488Y-3.3358
X2.0488Y-3.9358
X2.052Y-1.8848
X2.052Y-2.4848
X2.052Y-2.609
X2.052Y-3.209
X2.1488Y-3.3358
X2.1488Y-3.9358
X2.152Y-1.8848
X2.152Y-2.4848
X2.152Y-2.609
X2.152Y-3.209
X2.2488Y-3.3358
X2.2488Y-3.9358
X2.252Y-1.8848
X2.252Y-2.4848
X2.252Y-2.609
X2.252Y-3.209
X2.3488Y-3.3358
X2.3488Y-3.9358
X2.352Y-1.8848
X2.352Y-2.4848
X2.352Y-2.609
X2.352Y-3.209
X2.4488Y-3.3358
X2.4488Y-3.9358
X2.452Y-1.8848
X2.452Y-2.4848
X2.452Y-2.609
X2.452Y-3.209
X2.5488Y-3.3358
X2.5488Y-3.9358
X2.552Y-1.8848
X2.552Y-2.4848
X2.552Y-2.609
X2.552Y-3.209
X2.6488Y-3.3358
X2.6488Y-3.9358
X2.652Y-1.8848
X2.652Y-2.4848
X2.731Y-2.9193
X2.731Y-3.1115
X2.7488Y-3.3358
X2.7488Y-3.9358
X2.752Y-1.8848
X2.752Y-2.4848
X2.8488Y-3.3358
X2.8488Y-3.9358
X2.9488Y-3.3358
X2.9488Y-3.9358
X3.0488Y-3.3358
X3.0488Y-3.9358
X3.1488Y-3.3358
X3.1488Y-3.9358
X3.2488Y-3.3358
X3.2488Y-3.9358
X3.3488Y-3.3358
X3.3488Y-3.9358
X4.761Y-0.98
X4.761Y-1.0784
T3
X1.485Y-1.3012
X1.485Y-1.4012
X1.877Y-0.998
X1.877Y-1.098
X1.877Y-1.452
X1.877Y-1.552
X1.977Y-0.998
X1.977Y-1.098
X1.977Y-1.452
X1.977Y-1.552
X2.077Y-0.998
X2.077Y-1.098
X2.077Y-1.452
X2.077Y-1.552
X2.177Y-0.998
X2.177Y-1.098
X2.177Y-1.452
X2.177Y-1.552
X2.277Y-0.998
X2.277Y-1.098
X2.277Y-1.452
X2.277Y-1.552
X2.377Y-0.998
X2.377Y-1.098
X2.377Y-1.452
X2.377Y-1.552
X2.477Y-0.998
X2.477Y-1.098
X2.477Y-1.452
X2.477Y-1.552
X2.577Y-0.998
X2.577Y-1.098
X2.577Y-1.452
X2.577Y-1.552
X2.677Y-0.998
X2.677Y-1.098
X2.677Y-1.452
X2.677Y-1.552
X2.777Y-0.998
X2.777Y-1.098
X2.777Y-1.452
X2.777Y-1.552
X2.877Y-0.998
X2.877Y-1.098
X2.877Y-1.452
X2.877Y-1.552
X2.977Y-0.998
X2.977Y-1.098
X2.977Y-1.452
X2.977Y-1.552
X3.077Y-0.998
X3.077Y-1.098
X3.077Y-1.452
X3.077Y-1.552
X3.177Y-0.998
X3.177Y-1.098
X3.177Y-1.452
X3.177Y-1.552
X3.277Y-0.998
X3.277Y-1.098
X3.277Y-1.452
X3.277Y-1.552
X3.377Y-0.998
X3.377Y-1.098
X3.377Y-1.452
X3.377Y-1.552
X3.477Y-0.998
X3.477Y-1.098
X3.477Y-1.452
X3.477Y-1.552
X3.577Y-0.998
X3.577Y-1.098
X3.577Y-1.452
X3.577Y-1.552
X3.677Y-0.998
X3.677Y-1.098
X3.677Y-1.452
X3.677Y-1.552
X3.777Y-0.998
X3.777Y-1.098
X3.777Y-1.452
X3.777Y-1.552
X3.877Y-0.998
X3.877Y-1.098
X3.877Y-1.452
X3.877Y-1.552
X3.977Y-0.998
X3.977Y-1.098
X3.977Y-1.452
X3.977Y-1.552
X4.077Y-0.998
X4.077Y-1.098
X4.077Y-1.452
X4.077Y-1.552
X4.177Y-0.998
X4.177Y-1.098
X4.177Y-1.452
X4.177Y-1.552
X4.277Y-0.998
X4.277Y-1.098
X4.277Y-1.452
X4.277Y-1.552
X4.6192Y-3.889
X4.6194Y-1.978
X4.6194Y-2.078
X4.6194Y-2.178
X4.6194Y-2.278
X4.6194Y-2.378
X4.6194Y-2.478
X4.6194Y-2.578
X4.6194Y-2.678
X4.6194Y-2.778
X4.6194Y-2.878
X4.6194Y-2.978
X4.6194Y-3.078
X4.6194Y-3.178
X4.6194Y-3.278
X4.6194Y-3.378
X4.6194Y-3.478
X4.6194Y-3.578
X4.7192Y-3.889
X4.7194Y-1.978
X4.7194Y-2.078
X4.7194Y-2.178
X4.7194Y-2.278
X4.7194Y-2.378
X4.7194Y-2.478
X4.7194Y-2.578
X4.7194Y-2.678
X4.7194Y-2.778
X4.7194Y-2.878
X4.7194Y-2.978
X4.7194Y-3.078
X4.7194Y-3.178
X4.7194Y-3.278
X4.7194Y-3.378
X4.7194Y-3.478
X4.7194Y-3.578
T4
X1.5068Y-1.0228
X3.2168Y-3.0228
T0
M30
