%TF.GenerationSoftware,KiCad,Pcbnew,(6.0.7)*%
%TF.CreationDate,2022-12-20T23:03:32+00:00*%
%TF.ProjectId,CPC464-2MINIDDI,43504334-3634-42d3-924d-494e49444449,rev?*%
%TF.SameCoordinates,Original*%
%TF.FileFunction,Drillmap*%
%TF.FilePolarity,Positive*%
%FSLAX45Y45*%
G04 Gerber Fmt 4.5, Leading zero omitted, Abs format (unit mm)*
G04 Created by KiCad (PCBNEW (6.0.7)) date 2022-12-20 23:03:32*
%MOMM*%
%LPD*%
G01*
G04 APERTURE LIST*
%ADD10C,0.150000*%
%ADD11C,0.200000*%
G04 APERTURE END LIST*
D10*
X3349760Y-2150880D02*
X12686800Y-2150880D01*
X12686800Y-2150880D02*
X12686800Y-10172200D01*
X12686800Y-10172200D02*
X3349760Y-10172200D01*
X3349760Y-10172200D02*
X3349760Y-2150880D01*
D11*
X3599879Y-10490176D02*
X3599879Y-10290176D01*
X3647498Y-10290176D01*
X3676069Y-10299700D01*
X3695117Y-10318748D01*
X3704641Y-10337795D01*
X3714165Y-10375890D01*
X3714165Y-10404462D01*
X3704641Y-10442557D01*
X3695117Y-10461605D01*
X3676069Y-10480652D01*
X3647498Y-10490176D01*
X3599879Y-10490176D01*
X3799879Y-10490176D02*
X3799879Y-10356843D01*
X3799879Y-10394938D02*
X3809403Y-10375890D01*
X3818927Y-10366367D01*
X3837974Y-10356843D01*
X3857022Y-10356843D01*
X3923688Y-10490176D02*
X3923688Y-10356843D01*
X3923688Y-10290176D02*
X3914165Y-10299700D01*
X3923688Y-10309224D01*
X3933212Y-10299700D01*
X3923688Y-10290176D01*
X3923688Y-10309224D01*
X4047498Y-10490176D02*
X4028450Y-10480652D01*
X4018927Y-10461605D01*
X4018927Y-10290176D01*
X4152260Y-10490176D02*
X4133212Y-10480652D01*
X4123688Y-10461605D01*
X4123688Y-10290176D01*
X4380831Y-10490176D02*
X4380831Y-10290176D01*
X4447498Y-10433033D01*
X4514165Y-10290176D01*
X4514165Y-10490176D01*
X4695117Y-10490176D02*
X4695117Y-10385414D01*
X4685593Y-10366367D01*
X4666546Y-10356843D01*
X4628450Y-10356843D01*
X4609403Y-10366367D01*
X4695117Y-10480652D02*
X4676070Y-10490176D01*
X4628450Y-10490176D01*
X4609403Y-10480652D01*
X4599879Y-10461605D01*
X4599879Y-10442557D01*
X4609403Y-10423510D01*
X4628450Y-10413986D01*
X4676070Y-10413986D01*
X4695117Y-10404462D01*
X4790355Y-10356843D02*
X4790355Y-10556843D01*
X4790355Y-10366367D02*
X4809403Y-10356843D01*
X4847498Y-10356843D01*
X4866546Y-10366367D01*
X4876070Y-10375890D01*
X4885593Y-10394938D01*
X4885593Y-10452081D01*
X4876070Y-10471129D01*
X4866546Y-10480652D01*
X4847498Y-10490176D01*
X4809403Y-10490176D01*
X4790355Y-10480652D01*
X4971308Y-10471129D02*
X4980831Y-10480652D01*
X4971308Y-10490176D01*
X4961784Y-10480652D01*
X4971308Y-10471129D01*
X4971308Y-10490176D01*
X4971308Y-10366367D02*
X4980831Y-10375890D01*
X4971308Y-10385414D01*
X4961784Y-10375890D01*
X4971308Y-10366367D01*
X4971308Y-10385414D01*
M02*
