%TF.GenerationSoftware,KiCad,Pcbnew,(6.0.7)*%
%TF.CreationDate,2022-12-20T23:04:03+00:00*%
%TF.ProjectId,CPC464-2MINIDDI,43504334-3634-42d3-924d-494e49444449,rev?*%
%TF.SameCoordinates,Original*%
%TF.FileFunction,Legend,Top*%
%TF.FilePolarity,Positive*%
%FSLAX46Y46*%
G04 Gerber Fmt 4.6, Leading zero omitted, Abs format (unit mm)*
G04 Created by KiCad (PCBNEW (6.0.7)) date 2022-12-20 23:04:03*
%MOMM*%
%LPD*%
G01*
G04 APERTURE LIST*
%ADD10C,0.225000*%
%ADD11C,0.150000*%
%ADD12C,0.120000*%
G04 APERTURE END LIST*
D10*
X116342857Y-38025928D02*
X116300000Y-38068785D01*
X116171428Y-38111642D01*
X116085714Y-38111642D01*
X115957142Y-38068785D01*
X115871428Y-37983071D01*
X115828571Y-37897357D01*
X115785714Y-37725928D01*
X115785714Y-37597357D01*
X115828571Y-37425928D01*
X115871428Y-37340214D01*
X115957142Y-37254500D01*
X116085714Y-37211642D01*
X116171428Y-37211642D01*
X116300000Y-37254500D01*
X116342857Y-37297357D01*
X116728571Y-38111642D02*
X116728571Y-37211642D01*
X117071428Y-37211642D01*
X117157142Y-37254500D01*
X117200000Y-37297357D01*
X117242857Y-37383071D01*
X117242857Y-37511642D01*
X117200000Y-37597357D01*
X117157142Y-37640214D01*
X117071428Y-37683071D01*
X116728571Y-37683071D01*
X118142857Y-38025928D02*
X118100000Y-38068785D01*
X117971428Y-38111642D01*
X117885714Y-38111642D01*
X117757142Y-38068785D01*
X117671428Y-37983071D01*
X117628571Y-37897357D01*
X117585714Y-37725928D01*
X117585714Y-37597357D01*
X117628571Y-37425928D01*
X117671428Y-37340214D01*
X117757142Y-37254500D01*
X117885714Y-37211642D01*
X117971428Y-37211642D01*
X118100000Y-37254500D01*
X118142857Y-37297357D01*
X118914285Y-37511642D02*
X118914285Y-38111642D01*
X118700000Y-37168785D02*
X118485714Y-37811642D01*
X119042857Y-37811642D01*
X119771428Y-37211642D02*
X119600000Y-37211642D01*
X119514285Y-37254500D01*
X119471428Y-37297357D01*
X119385714Y-37425928D01*
X119342857Y-37597357D01*
X119342857Y-37940214D01*
X119385714Y-38025928D01*
X119428571Y-38068785D01*
X119514285Y-38111642D01*
X119685714Y-38111642D01*
X119771428Y-38068785D01*
X119814285Y-38025928D01*
X119857142Y-37940214D01*
X119857142Y-37725928D01*
X119814285Y-37640214D01*
X119771428Y-37597357D01*
X119685714Y-37554500D01*
X119514285Y-37554500D01*
X119428571Y-37597357D01*
X119385714Y-37640214D01*
X119342857Y-37725928D01*
X120628571Y-37511642D02*
X120628571Y-38111642D01*
X120414285Y-37168785D02*
X120200000Y-37811642D01*
X120757142Y-37811642D01*
X121100000Y-37768785D02*
X121785714Y-37768785D01*
X122171428Y-37297357D02*
X122214285Y-37254500D01*
X122300000Y-37211642D01*
X122514285Y-37211642D01*
X122600000Y-37254500D01*
X122642857Y-37297357D01*
X122685714Y-37383071D01*
X122685714Y-37468785D01*
X122642857Y-37597357D01*
X122128571Y-38111642D01*
X122685714Y-38111642D01*
X123071428Y-38111642D02*
X123071428Y-37211642D01*
X123371428Y-37854500D01*
X123671428Y-37211642D01*
X123671428Y-38111642D01*
X124100000Y-38111642D02*
X124100000Y-37211642D01*
X124528571Y-38111642D02*
X124528571Y-37211642D01*
X125042857Y-38111642D01*
X125042857Y-37211642D01*
X125471428Y-38111642D02*
X125471428Y-37211642D01*
X117221428Y-39560642D02*
X117221428Y-38660642D01*
X117521428Y-39303500D01*
X117821428Y-38660642D01*
X117821428Y-39560642D01*
X118250000Y-39560642D02*
X118250000Y-38660642D01*
X118678571Y-39560642D02*
X118678571Y-38660642D01*
X119192857Y-39560642D01*
X119192857Y-38660642D01*
X119621428Y-39560642D02*
X119621428Y-38660642D01*
X120050000Y-39560642D02*
X120050000Y-38660642D01*
X120264285Y-38660642D01*
X120392857Y-38703500D01*
X120478571Y-38789214D01*
X120521428Y-38874928D01*
X120564285Y-39046357D01*
X120564285Y-39174928D01*
X120521428Y-39346357D01*
X120478571Y-39432071D01*
X120392857Y-39517785D01*
X120264285Y-39560642D01*
X120050000Y-39560642D01*
X120950000Y-39560642D02*
X120950000Y-38660642D01*
X121164285Y-38660642D01*
X121292857Y-38703500D01*
X121378571Y-38789214D01*
X121421428Y-38874928D01*
X121464285Y-39046357D01*
X121464285Y-39174928D01*
X121421428Y-39346357D01*
X121378571Y-39432071D01*
X121292857Y-39517785D01*
X121164285Y-39560642D01*
X120950000Y-39560642D01*
X121850000Y-39560642D02*
X121850000Y-38660642D01*
X122878571Y-38960642D02*
X123092857Y-39560642D01*
X123307142Y-38960642D01*
X124121428Y-39560642D02*
X123607142Y-39560642D01*
X123864285Y-39560642D02*
X123864285Y-38660642D01*
X123778571Y-38789214D01*
X123692857Y-38874928D01*
X123607142Y-38917785D01*
X116857142Y-40581071D02*
X116814285Y-40538214D01*
X116728571Y-40495357D01*
X116642857Y-40495357D01*
X116557142Y-40538214D01*
X116514285Y-40581071D01*
X116471428Y-40666785D01*
X116471428Y-40752500D01*
X116514285Y-40838214D01*
X116557142Y-40881071D01*
X116642857Y-40923928D01*
X116728571Y-40923928D01*
X116814285Y-40881071D01*
X116857142Y-40838214D01*
X116857142Y-40495357D02*
X116857142Y-40838214D01*
X116900000Y-40881071D01*
X116942857Y-40881071D01*
X117028571Y-40838214D01*
X117071428Y-40752500D01*
X117071428Y-40538214D01*
X116985714Y-40409642D01*
X116857142Y-40323928D01*
X116685714Y-40281071D01*
X116514285Y-40323928D01*
X116385714Y-40409642D01*
X116300000Y-40538214D01*
X116257142Y-40709642D01*
X116300000Y-40881071D01*
X116385714Y-41009642D01*
X116514285Y-41095357D01*
X116685714Y-41138214D01*
X116857142Y-41095357D01*
X116985714Y-41009642D01*
X117842857Y-40409642D02*
X117842857Y-41138214D01*
X117800000Y-41223928D01*
X117757142Y-41266785D01*
X117671428Y-41309642D01*
X117542857Y-41309642D01*
X117457142Y-41266785D01*
X117842857Y-40966785D02*
X117757142Y-41009642D01*
X117585714Y-41009642D01*
X117500000Y-40966785D01*
X117457142Y-40923928D01*
X117414285Y-40838214D01*
X117414285Y-40581071D01*
X117457142Y-40495357D01*
X117500000Y-40452500D01*
X117585714Y-40409642D01*
X117757142Y-40409642D01*
X117842857Y-40452500D01*
X118271428Y-41009642D02*
X118271428Y-40409642D01*
X118271428Y-40581071D02*
X118314285Y-40495357D01*
X118357142Y-40452500D01*
X118442857Y-40409642D01*
X118528571Y-40409642D01*
X119214285Y-41009642D02*
X119214285Y-40538214D01*
X119171428Y-40452500D01*
X119085714Y-40409642D01*
X118914285Y-40409642D01*
X118828571Y-40452500D01*
X119214285Y-40966785D02*
X119128571Y-41009642D01*
X118914285Y-41009642D01*
X118828571Y-40966785D01*
X118785714Y-40881071D01*
X118785714Y-40795357D01*
X118828571Y-40709642D01*
X118914285Y-40666785D01*
X119128571Y-40666785D01*
X119214285Y-40623928D01*
X119642857Y-40409642D02*
X119642857Y-41009642D01*
X119642857Y-40495357D02*
X119685714Y-40452500D01*
X119771428Y-40409642D01*
X119900000Y-40409642D01*
X119985714Y-40452500D01*
X120028571Y-40538214D01*
X120028571Y-41009642D01*
X120842857Y-41009642D02*
X120842857Y-40109642D01*
X120842857Y-40966785D02*
X120757142Y-41009642D01*
X120585714Y-41009642D01*
X120500000Y-40966785D01*
X120457142Y-40923928D01*
X120414285Y-40838214D01*
X120414285Y-40581071D01*
X120457142Y-40495357D01*
X120500000Y-40452500D01*
X120585714Y-40409642D01*
X120757142Y-40409642D01*
X120842857Y-40452500D01*
X121400000Y-41009642D02*
X121314285Y-40966785D01*
X121271428Y-40923928D01*
X121228571Y-40838214D01*
X121228571Y-40581071D01*
X121271428Y-40495357D01*
X121314285Y-40452500D01*
X121400000Y-40409642D01*
X121528571Y-40409642D01*
X121614285Y-40452500D01*
X121657142Y-40495357D01*
X121700000Y-40581071D01*
X121700000Y-40838214D01*
X121657142Y-40923928D01*
X121614285Y-40966785D01*
X121528571Y-41009642D01*
X121400000Y-41009642D01*
X122214285Y-41009642D02*
X122128571Y-40966785D01*
X122085714Y-40881071D01*
X122085714Y-40109642D01*
X122942857Y-41009642D02*
X122942857Y-40109642D01*
X122942857Y-40966785D02*
X122857142Y-41009642D01*
X122685714Y-41009642D01*
X122600000Y-40966785D01*
X122557142Y-40923928D01*
X122514285Y-40838214D01*
X122514285Y-40581071D01*
X122557142Y-40495357D01*
X122600000Y-40452500D01*
X122685714Y-40409642D01*
X122857142Y-40409642D01*
X122942857Y-40452500D01*
X123371428Y-41009642D02*
X123371428Y-40409642D01*
X123371428Y-40109642D02*
X123328571Y-40152500D01*
X123371428Y-40195357D01*
X123414285Y-40152500D01*
X123371428Y-40109642D01*
X123371428Y-40195357D01*
X124185714Y-41009642D02*
X124185714Y-40538214D01*
X124142857Y-40452500D01*
X124057142Y-40409642D01*
X123885714Y-40409642D01*
X123800000Y-40452500D01*
X124185714Y-40966785D02*
X124100000Y-41009642D01*
X123885714Y-41009642D01*
X123800000Y-40966785D01*
X123757142Y-40881071D01*
X123757142Y-40795357D01*
X123800000Y-40709642D01*
X123885714Y-40666785D01*
X124100000Y-40666785D01*
X124185714Y-40623928D01*
X124614285Y-40409642D02*
X124614285Y-41009642D01*
X124614285Y-40495357D02*
X124657142Y-40452500D01*
X124742857Y-40409642D01*
X124871428Y-40409642D01*
X124957142Y-40452500D01*
X125000000Y-40538214D01*
X125000000Y-41009642D01*
X118292857Y-42458642D02*
X117778571Y-42458642D01*
X118035714Y-42458642D02*
X118035714Y-41558642D01*
X117950000Y-41687214D01*
X117864285Y-41772928D01*
X117778571Y-41815785D01*
X118635714Y-41644357D02*
X118678571Y-41601500D01*
X118764285Y-41558642D01*
X118978571Y-41558642D01*
X119064285Y-41601500D01*
X119107142Y-41644357D01*
X119150000Y-41730071D01*
X119150000Y-41815785D01*
X119107142Y-41944357D01*
X118592857Y-42458642D01*
X119150000Y-42458642D01*
X120178571Y-41515785D02*
X119407142Y-42672928D01*
X120435714Y-41644357D02*
X120478571Y-41601500D01*
X120564285Y-41558642D01*
X120778571Y-41558642D01*
X120864285Y-41601500D01*
X120907142Y-41644357D01*
X120950000Y-41730071D01*
X120950000Y-41815785D01*
X120907142Y-41944357D01*
X120392857Y-42458642D01*
X120950000Y-42458642D01*
X121507142Y-41558642D02*
X121592857Y-41558642D01*
X121678571Y-41601500D01*
X121721428Y-41644357D01*
X121764285Y-41730071D01*
X121807142Y-41901500D01*
X121807142Y-42115785D01*
X121764285Y-42287214D01*
X121721428Y-42372928D01*
X121678571Y-42415785D01*
X121592857Y-42458642D01*
X121507142Y-42458642D01*
X121421428Y-42415785D01*
X121378571Y-42372928D01*
X121335714Y-42287214D01*
X121292857Y-42115785D01*
X121292857Y-41901500D01*
X121335714Y-41730071D01*
X121378571Y-41644357D01*
X121421428Y-41601500D01*
X121507142Y-41558642D01*
X122150000Y-41644357D02*
X122192857Y-41601500D01*
X122278571Y-41558642D01*
X122492857Y-41558642D01*
X122578571Y-41601500D01*
X122621428Y-41644357D01*
X122664285Y-41730071D01*
X122664285Y-41815785D01*
X122621428Y-41944357D01*
X122107142Y-42458642D01*
X122664285Y-42458642D01*
X123007142Y-41644357D02*
X123050000Y-41601500D01*
X123135714Y-41558642D01*
X123350000Y-41558642D01*
X123435714Y-41601500D01*
X123478571Y-41644357D01*
X123521428Y-41730071D01*
X123521428Y-41815785D01*
X123478571Y-41944357D01*
X122964285Y-42458642D01*
X123521428Y-42458642D01*
D11*
%TO.C,IC408*%
X105665828Y-64463580D02*
X105665828Y-63463580D01*
X106713447Y-64368342D02*
X106665828Y-64415961D01*
X106522971Y-64463580D01*
X106427733Y-64463580D01*
X106284876Y-64415961D01*
X106189638Y-64320723D01*
X106142019Y-64225485D01*
X106094400Y-64035009D01*
X106094400Y-63892152D01*
X106142019Y-63701676D01*
X106189638Y-63606438D01*
X106284876Y-63511200D01*
X106427733Y-63463580D01*
X106522971Y-63463580D01*
X106665828Y-63511200D01*
X106713447Y-63558819D01*
X107570590Y-63796914D02*
X107570590Y-64463580D01*
X107332495Y-63415961D02*
X107094400Y-64130247D01*
X107713447Y-64130247D01*
X108284876Y-63463580D02*
X108380114Y-63463580D01*
X108475352Y-63511200D01*
X108522971Y-63558819D01*
X108570590Y-63654057D01*
X108618209Y-63844533D01*
X108618209Y-64082628D01*
X108570590Y-64273104D01*
X108522971Y-64368342D01*
X108475352Y-64415961D01*
X108380114Y-64463580D01*
X108284876Y-64463580D01*
X108189638Y-64415961D01*
X108142019Y-64368342D01*
X108094400Y-64273104D01*
X108046780Y-64082628D01*
X108046780Y-63844533D01*
X108094400Y-63654057D01*
X108142019Y-63558819D01*
X108189638Y-63511200D01*
X108284876Y-63463580D01*
X109189638Y-63892152D02*
X109094400Y-63844533D01*
X109046780Y-63796914D01*
X108999161Y-63701676D01*
X108999161Y-63654057D01*
X109046780Y-63558819D01*
X109094400Y-63511200D01*
X109189638Y-63463580D01*
X109380114Y-63463580D01*
X109475352Y-63511200D01*
X109522971Y-63558819D01*
X109570590Y-63654057D01*
X109570590Y-63701676D01*
X109522971Y-63796914D01*
X109475352Y-63844533D01*
X109380114Y-63892152D01*
X109189638Y-63892152D01*
X109094400Y-63939771D01*
X109046780Y-63987390D01*
X108999161Y-64082628D01*
X108999161Y-64273104D01*
X109046780Y-64368342D01*
X109094400Y-64415961D01*
X109189638Y-64463580D01*
X109380114Y-64463580D01*
X109475352Y-64415961D01*
X109522971Y-64368342D01*
X109570590Y-64273104D01*
X109570590Y-64082628D01*
X109522971Y-63987390D01*
X109475352Y-63939771D01*
X109380114Y-63892152D01*
X104951542Y-74023580D02*
X105618209Y-74023580D01*
X105189638Y-75023580D01*
X106427733Y-74356914D02*
X106427733Y-75023580D01*
X106189638Y-73975961D02*
X105951542Y-74690247D01*
X106570590Y-74690247D01*
X107427733Y-75023580D02*
X106951542Y-75023580D01*
X106951542Y-74023580D01*
X107713447Y-74975961D02*
X107856304Y-75023580D01*
X108094400Y-75023580D01*
X108189638Y-74975961D01*
X108237257Y-74928342D01*
X108284876Y-74833104D01*
X108284876Y-74737866D01*
X108237257Y-74642628D01*
X108189638Y-74595009D01*
X108094400Y-74547390D01*
X107903923Y-74499771D01*
X107808685Y-74452152D01*
X107761066Y-74404533D01*
X107713447Y-74309295D01*
X107713447Y-74214057D01*
X107761066Y-74118819D01*
X107808685Y-74071200D01*
X107903923Y-74023580D01*
X108142019Y-74023580D01*
X108284876Y-74071200D01*
X108618209Y-74023580D02*
X109237257Y-74023580D01*
X108903923Y-74404533D01*
X109046780Y-74404533D01*
X109142019Y-74452152D01*
X109189638Y-74499771D01*
X109237257Y-74595009D01*
X109237257Y-74833104D01*
X109189638Y-74928342D01*
X109142019Y-74975961D01*
X109046780Y-75023580D01*
X108761066Y-75023580D01*
X108665828Y-74975961D01*
X108618209Y-74928342D01*
X109808685Y-74452152D02*
X109713447Y-74404533D01*
X109665828Y-74356914D01*
X109618209Y-74261676D01*
X109618209Y-74214057D01*
X109665828Y-74118819D01*
X109713447Y-74071200D01*
X109808685Y-74023580D01*
X109999161Y-74023580D01*
X110094400Y-74071200D01*
X110142019Y-74118819D01*
X110189638Y-74214057D01*
X110189638Y-74261676D01*
X110142019Y-74356914D01*
X110094400Y-74404533D01*
X109999161Y-74452152D01*
X109808685Y-74452152D01*
X109713447Y-74499771D01*
X109665828Y-74547390D01*
X109618209Y-74642628D01*
X109618209Y-74833104D01*
X109665828Y-74928342D01*
X109713447Y-74975961D01*
X109808685Y-75023580D01*
X109999161Y-75023580D01*
X110094400Y-74975961D01*
X110142019Y-74928342D01*
X110189638Y-74833104D01*
X110189638Y-74642628D01*
X110142019Y-74547390D01*
X110094400Y-74499771D01*
X109999161Y-74452152D01*
%TO.C,IC412*%
X88872980Y-70203771D02*
X87872980Y-70203771D01*
X88777742Y-69156152D02*
X88825361Y-69203771D01*
X88872980Y-69346628D01*
X88872980Y-69441866D01*
X88825361Y-69584723D01*
X88730123Y-69679961D01*
X88634885Y-69727580D01*
X88444409Y-69775200D01*
X88301552Y-69775200D01*
X88111076Y-69727580D01*
X88015838Y-69679961D01*
X87920600Y-69584723D01*
X87872980Y-69441866D01*
X87872980Y-69346628D01*
X87920600Y-69203771D01*
X87968219Y-69156152D01*
X88206314Y-68299009D02*
X88872980Y-68299009D01*
X87825361Y-68537104D02*
X88539647Y-68775200D01*
X88539647Y-68156152D01*
X88872980Y-67251390D02*
X88872980Y-67822819D01*
X88872980Y-67537104D02*
X87872980Y-67537104D01*
X88015838Y-67632342D01*
X88111076Y-67727580D01*
X88158695Y-67822819D01*
X87968219Y-66870438D02*
X87920600Y-66822819D01*
X87872980Y-66727580D01*
X87872980Y-66489485D01*
X87920600Y-66394247D01*
X87968219Y-66346628D01*
X88063457Y-66299009D01*
X88158695Y-66299009D01*
X88301552Y-66346628D01*
X88872980Y-66918057D01*
X88872980Y-66299009D01*
X98432980Y-70918057D02*
X98432980Y-70251390D01*
X99432980Y-70679961D01*
X98766314Y-69441866D02*
X99432980Y-69441866D01*
X98385361Y-69679961D02*
X99099647Y-69918057D01*
X99099647Y-69299009D01*
X99432980Y-68441866D02*
X99432980Y-68918057D01*
X98432980Y-68918057D01*
X99385361Y-68156152D02*
X99432980Y-68013295D01*
X99432980Y-67775200D01*
X99385361Y-67679961D01*
X99337742Y-67632342D01*
X99242504Y-67584723D01*
X99147266Y-67584723D01*
X99052028Y-67632342D01*
X99004409Y-67679961D01*
X98956790Y-67775200D01*
X98909171Y-67965676D01*
X98861552Y-68060914D01*
X98813933Y-68108533D01*
X98718695Y-68156152D01*
X98623457Y-68156152D01*
X98528219Y-68108533D01*
X98480600Y-68060914D01*
X98432980Y-67965676D01*
X98432980Y-67727580D01*
X98480600Y-67584723D01*
X98432980Y-67251390D02*
X98432980Y-66584723D01*
X99432980Y-67013295D01*
X98766314Y-65775200D02*
X99432980Y-65775200D01*
X98385361Y-66013295D02*
X99099647Y-66251390D01*
X99099647Y-65632342D01*
%TO.C,D450*%
X100620723Y-97692380D02*
X100620723Y-96692380D01*
X100858819Y-96692380D01*
X101001676Y-96740000D01*
X101096914Y-96835238D01*
X101144533Y-96930476D01*
X101192152Y-97120952D01*
X101192152Y-97263809D01*
X101144533Y-97454285D01*
X101096914Y-97549523D01*
X101001676Y-97644761D01*
X100858819Y-97692380D01*
X100620723Y-97692380D01*
X102049295Y-97025714D02*
X102049295Y-97692380D01*
X101811200Y-96644761D02*
X101573104Y-97359047D01*
X102192152Y-97359047D01*
X103049295Y-96692380D02*
X102573104Y-96692380D01*
X102525485Y-97168571D01*
X102573104Y-97120952D01*
X102668342Y-97073333D01*
X102906438Y-97073333D01*
X103001676Y-97120952D01*
X103049295Y-97168571D01*
X103096914Y-97263809D01*
X103096914Y-97501904D01*
X103049295Y-97597142D01*
X103001676Y-97644761D01*
X102906438Y-97692380D01*
X102668342Y-97692380D01*
X102573104Y-97644761D01*
X102525485Y-97597142D01*
X103715961Y-96692380D02*
X103811200Y-96692380D01*
X103906438Y-96740000D01*
X103954057Y-96787619D01*
X104001676Y-96882857D01*
X104049295Y-97073333D01*
X104049295Y-97311428D01*
X104001676Y-97501904D01*
X103954057Y-97597142D01*
X103906438Y-97644761D01*
X103811200Y-97692380D01*
X103715961Y-97692380D01*
X103620723Y-97644761D01*
X103573104Y-97597142D01*
X103525485Y-97501904D01*
X103477866Y-97311428D01*
X103477866Y-97073333D01*
X103525485Y-96882857D01*
X103573104Y-96787619D01*
X103620723Y-96740000D01*
X103715961Y-96692380D01*
X100049295Y-101332380D02*
X100049295Y-100332380D01*
X100382628Y-101046666D01*
X100715961Y-100332380D01*
X100715961Y-101332380D01*
X101382628Y-100332380D02*
X101573104Y-100332380D01*
X101668342Y-100380000D01*
X101763580Y-100475238D01*
X101811200Y-100665714D01*
X101811200Y-100999047D01*
X101763580Y-101189523D01*
X101668342Y-101284761D01*
X101573104Y-101332380D01*
X101382628Y-101332380D01*
X101287390Y-101284761D01*
X101192152Y-101189523D01*
X101144533Y-100999047D01*
X101144533Y-100665714D01*
X101192152Y-100475238D01*
X101287390Y-100380000D01*
X101382628Y-100332380D01*
X102096914Y-100332380D02*
X102668342Y-100332380D01*
X102382628Y-101332380D02*
X102382628Y-100332380D01*
X103192152Y-100332380D02*
X103382628Y-100332380D01*
X103477866Y-100380000D01*
X103573104Y-100475238D01*
X103620723Y-100665714D01*
X103620723Y-100999047D01*
X103573104Y-101189523D01*
X103477866Y-101284761D01*
X103382628Y-101332380D01*
X103192152Y-101332380D01*
X103096914Y-101284761D01*
X103001676Y-101189523D01*
X102954057Y-100999047D01*
X102954057Y-100665714D01*
X103001676Y-100475238D01*
X103096914Y-100380000D01*
X103192152Y-100332380D01*
X104620723Y-101332380D02*
X104287390Y-100856190D01*
X104049295Y-101332380D02*
X104049295Y-100332380D01*
X104430247Y-100332380D01*
X104525485Y-100380000D01*
X104573104Y-100427619D01*
X104620723Y-100522857D01*
X104620723Y-100665714D01*
X104573104Y-100760952D01*
X104525485Y-100808571D01*
X104430247Y-100856190D01*
X104049295Y-100856190D01*
%TO.C,R411*%
X104113152Y-46147980D02*
X103779819Y-45671790D01*
X103541723Y-46147980D02*
X103541723Y-45147980D01*
X103922676Y-45147980D01*
X104017914Y-45195600D01*
X104065533Y-45243219D01*
X104113152Y-45338457D01*
X104113152Y-45481314D01*
X104065533Y-45576552D01*
X104017914Y-45624171D01*
X103922676Y-45671790D01*
X103541723Y-45671790D01*
X104970295Y-45481314D02*
X104970295Y-46147980D01*
X104732200Y-45100361D02*
X104494104Y-45814647D01*
X105113152Y-45814647D01*
X106017914Y-46147980D02*
X105446485Y-46147980D01*
X105732200Y-46147980D02*
X105732200Y-45147980D01*
X105636961Y-45290838D01*
X105541723Y-45386076D01*
X105446485Y-45433695D01*
X106970295Y-46147980D02*
X106398866Y-46147980D01*
X106684580Y-46147980D02*
X106684580Y-45147980D01*
X106589342Y-45290838D01*
X106494104Y-45386076D01*
X106398866Y-45433695D01*
%TO.C,C453*%
X79830752Y-64034942D02*
X79783133Y-64082561D01*
X79640276Y-64130180D01*
X79545038Y-64130180D01*
X79402180Y-64082561D01*
X79306942Y-63987323D01*
X79259323Y-63892085D01*
X79211704Y-63701609D01*
X79211704Y-63558752D01*
X79259323Y-63368276D01*
X79306942Y-63273038D01*
X79402180Y-63177800D01*
X79545038Y-63130180D01*
X79640276Y-63130180D01*
X79783133Y-63177800D01*
X79830752Y-63225419D01*
X80687895Y-63463514D02*
X80687895Y-64130180D01*
X80449800Y-63082561D02*
X80211704Y-63796847D01*
X80830752Y-63796847D01*
X81687895Y-63130180D02*
X81211704Y-63130180D01*
X81164085Y-63606371D01*
X81211704Y-63558752D01*
X81306942Y-63511133D01*
X81545038Y-63511133D01*
X81640276Y-63558752D01*
X81687895Y-63606371D01*
X81735514Y-63701609D01*
X81735514Y-63939704D01*
X81687895Y-64034942D01*
X81640276Y-64082561D01*
X81545038Y-64130180D01*
X81306942Y-64130180D01*
X81211704Y-64082561D01*
X81164085Y-64034942D01*
X82068847Y-63130180D02*
X82687895Y-63130180D01*
X82354561Y-63511133D01*
X82497419Y-63511133D01*
X82592657Y-63558752D01*
X82640276Y-63606371D01*
X82687895Y-63701609D01*
X82687895Y-63939704D01*
X82640276Y-64034942D01*
X82592657Y-64082561D01*
X82497419Y-64130180D01*
X82211704Y-64130180D01*
X82116466Y-64082561D01*
X82068847Y-64034942D01*
%TO.C,R454*%
X79830752Y-67636380D02*
X79497419Y-67160190D01*
X79259323Y-67636380D02*
X79259323Y-66636380D01*
X79640276Y-66636380D01*
X79735514Y-66684000D01*
X79783133Y-66731619D01*
X79830752Y-66826857D01*
X79830752Y-66969714D01*
X79783133Y-67064952D01*
X79735514Y-67112571D01*
X79640276Y-67160190D01*
X79259323Y-67160190D01*
X80687895Y-66969714D02*
X80687895Y-67636380D01*
X80449800Y-66588761D02*
X80211704Y-67303047D01*
X80830752Y-67303047D01*
X81687895Y-66636380D02*
X81211704Y-66636380D01*
X81164085Y-67112571D01*
X81211704Y-67064952D01*
X81306942Y-67017333D01*
X81545038Y-67017333D01*
X81640276Y-67064952D01*
X81687895Y-67112571D01*
X81735514Y-67207809D01*
X81735514Y-67445904D01*
X81687895Y-67541142D01*
X81640276Y-67588761D01*
X81545038Y-67636380D01*
X81306942Y-67636380D01*
X81211704Y-67588761D01*
X81164085Y-67541142D01*
X82592657Y-66969714D02*
X82592657Y-67636380D01*
X82354561Y-66588761D02*
X82116466Y-67303047D01*
X82735514Y-67303047D01*
%TO.C,IC410*%
X88771380Y-60602571D02*
X87771380Y-60602571D01*
X88676142Y-59554952D02*
X88723761Y-59602571D01*
X88771380Y-59745428D01*
X88771380Y-59840666D01*
X88723761Y-59983523D01*
X88628523Y-60078761D01*
X88533285Y-60126380D01*
X88342809Y-60174000D01*
X88199952Y-60174000D01*
X88009476Y-60126380D01*
X87914238Y-60078761D01*
X87819000Y-59983523D01*
X87771380Y-59840666D01*
X87771380Y-59745428D01*
X87819000Y-59602571D01*
X87866619Y-59554952D01*
X88104714Y-58697809D02*
X88771380Y-58697809D01*
X87723761Y-58935904D02*
X88438047Y-59174000D01*
X88438047Y-58554952D01*
X88771380Y-57650190D02*
X88771380Y-58221619D01*
X88771380Y-57935904D02*
X87771380Y-57935904D01*
X87914238Y-58031142D01*
X88009476Y-58126380D01*
X88057095Y-58221619D01*
X87771380Y-57031142D02*
X87771380Y-56935904D01*
X87819000Y-56840666D01*
X87866619Y-56793047D01*
X87961857Y-56745428D01*
X88152333Y-56697809D01*
X88390428Y-56697809D01*
X88580904Y-56745428D01*
X88676142Y-56793047D01*
X88723761Y-56840666D01*
X88771380Y-56935904D01*
X88771380Y-57031142D01*
X88723761Y-57126380D01*
X88676142Y-57174000D01*
X88580904Y-57221619D01*
X88390428Y-57269238D01*
X88152333Y-57269238D01*
X87961857Y-57221619D01*
X87866619Y-57174000D01*
X87819000Y-57126380D01*
X87771380Y-57031142D01*
X98331380Y-61793047D02*
X98331380Y-61126380D01*
X99331380Y-61554952D01*
X98664714Y-60316857D02*
X99331380Y-60316857D01*
X98283761Y-60554952D02*
X98998047Y-60793047D01*
X98998047Y-60174000D01*
X99331380Y-59316857D02*
X99331380Y-59793047D01*
X98331380Y-59793047D01*
X99283761Y-59031142D02*
X99331380Y-58888285D01*
X99331380Y-58650190D01*
X99283761Y-58554952D01*
X99236142Y-58507333D01*
X99140904Y-58459714D01*
X99045666Y-58459714D01*
X98950428Y-58507333D01*
X98902809Y-58554952D01*
X98855190Y-58650190D01*
X98807571Y-58840666D01*
X98759952Y-58935904D01*
X98712333Y-58983523D01*
X98617095Y-59031142D01*
X98521857Y-59031142D01*
X98426619Y-58983523D01*
X98379000Y-58935904D01*
X98331380Y-58840666D01*
X98331380Y-58602571D01*
X98379000Y-58459714D01*
X99331380Y-57507333D02*
X99331380Y-58078761D01*
X99331380Y-57793047D02*
X98331380Y-57793047D01*
X98474238Y-57888285D01*
X98569476Y-57983523D01*
X98617095Y-58078761D01*
X98331380Y-57174000D02*
X98331380Y-56554952D01*
X98712333Y-56888285D01*
X98712333Y-56745428D01*
X98759952Y-56650190D01*
X98807571Y-56602571D01*
X98902809Y-56554952D01*
X99140904Y-56554952D01*
X99236142Y-56602571D01*
X99283761Y-56650190D01*
X99331380Y-56745428D01*
X99331380Y-57031142D01*
X99283761Y-57126380D01*
X99236142Y-57174000D01*
X98426619Y-56174000D02*
X98379000Y-56126380D01*
X98331380Y-56031142D01*
X98331380Y-55793047D01*
X98379000Y-55697809D01*
X98426619Y-55650190D01*
X98521857Y-55602571D01*
X98617095Y-55602571D01*
X98759952Y-55650190D01*
X99331380Y-56221619D01*
X99331380Y-55602571D01*
%TO.C,R404*%
X126690380Y-85320047D02*
X126214190Y-85653380D01*
X126690380Y-85891476D02*
X125690380Y-85891476D01*
X125690380Y-85510523D01*
X125738000Y-85415285D01*
X125785619Y-85367666D01*
X125880857Y-85320047D01*
X126023714Y-85320047D01*
X126118952Y-85367666D01*
X126166571Y-85415285D01*
X126214190Y-85510523D01*
X126214190Y-85891476D01*
X126023714Y-84462904D02*
X126690380Y-84462904D01*
X125642761Y-84701000D02*
X126357047Y-84939095D01*
X126357047Y-84320047D01*
X125690380Y-83748619D02*
X125690380Y-83653380D01*
X125738000Y-83558142D01*
X125785619Y-83510523D01*
X125880857Y-83462904D01*
X126071333Y-83415285D01*
X126309428Y-83415285D01*
X126499904Y-83462904D01*
X126595142Y-83510523D01*
X126642761Y-83558142D01*
X126690380Y-83653380D01*
X126690380Y-83748619D01*
X126642761Y-83843857D01*
X126595142Y-83891476D01*
X126499904Y-83939095D01*
X126309428Y-83986714D01*
X126071333Y-83986714D01*
X125880857Y-83939095D01*
X125785619Y-83891476D01*
X125738000Y-83843857D01*
X125690380Y-83748619D01*
X126023714Y-82558142D02*
X126690380Y-82558142D01*
X125642761Y-82796238D02*
X126357047Y-83034333D01*
X126357047Y-82415285D01*
%TO.C,R405*%
X126663980Y-80900447D02*
X126187790Y-81233780D01*
X126663980Y-81471876D02*
X125663980Y-81471876D01*
X125663980Y-81090923D01*
X125711600Y-80995685D01*
X125759219Y-80948066D01*
X125854457Y-80900447D01*
X125997314Y-80900447D01*
X126092552Y-80948066D01*
X126140171Y-80995685D01*
X126187790Y-81090923D01*
X126187790Y-81471876D01*
X125997314Y-80043304D02*
X126663980Y-80043304D01*
X125616361Y-80281400D02*
X126330647Y-80519495D01*
X126330647Y-79900447D01*
X125663980Y-79329019D02*
X125663980Y-79233780D01*
X125711600Y-79138542D01*
X125759219Y-79090923D01*
X125854457Y-79043304D01*
X126044933Y-78995685D01*
X126283028Y-78995685D01*
X126473504Y-79043304D01*
X126568742Y-79090923D01*
X126616361Y-79138542D01*
X126663980Y-79233780D01*
X126663980Y-79329019D01*
X126616361Y-79424257D01*
X126568742Y-79471876D01*
X126473504Y-79519495D01*
X126283028Y-79567114D01*
X126044933Y-79567114D01*
X125854457Y-79519495D01*
X125759219Y-79471876D01*
X125711600Y-79424257D01*
X125663980Y-79329019D01*
X125663980Y-78090923D02*
X125663980Y-78567114D01*
X126140171Y-78614733D01*
X126092552Y-78567114D01*
X126044933Y-78471876D01*
X126044933Y-78233780D01*
X126092552Y-78138542D01*
X126140171Y-78090923D01*
X126235409Y-78043304D01*
X126473504Y-78043304D01*
X126568742Y-78090923D01*
X126616361Y-78138542D01*
X126663980Y-78233780D01*
X126663980Y-78471876D01*
X126616361Y-78567114D01*
X126568742Y-78614733D01*
%TO.C,R416*%
X95756552Y-87930980D02*
X95423219Y-87454790D01*
X95185123Y-87930980D02*
X95185123Y-86930980D01*
X95566076Y-86930980D01*
X95661314Y-86978600D01*
X95708933Y-87026219D01*
X95756552Y-87121457D01*
X95756552Y-87264314D01*
X95708933Y-87359552D01*
X95661314Y-87407171D01*
X95566076Y-87454790D01*
X95185123Y-87454790D01*
X96613695Y-87264314D02*
X96613695Y-87930980D01*
X96375600Y-86883361D02*
X96137504Y-87597647D01*
X96756552Y-87597647D01*
X97661314Y-87930980D02*
X97089885Y-87930980D01*
X97375600Y-87930980D02*
X97375600Y-86930980D01*
X97280361Y-87073838D01*
X97185123Y-87169076D01*
X97089885Y-87216695D01*
X98518457Y-86930980D02*
X98327980Y-86930980D01*
X98232742Y-86978600D01*
X98185123Y-87026219D01*
X98089885Y-87169076D01*
X98042266Y-87359552D01*
X98042266Y-87740504D01*
X98089885Y-87835742D01*
X98137504Y-87883361D01*
X98232742Y-87930980D01*
X98423219Y-87930980D01*
X98518457Y-87883361D01*
X98566076Y-87835742D01*
X98613695Y-87740504D01*
X98613695Y-87502409D01*
X98566076Y-87407171D01*
X98518457Y-87359552D01*
X98423219Y-87311933D01*
X98232742Y-87311933D01*
X98137504Y-87359552D01*
X98089885Y-87407171D01*
X98042266Y-87502409D01*
%TO.C,C401*%
X116886542Y-27261047D02*
X116934161Y-27308666D01*
X116981780Y-27451523D01*
X116981780Y-27546761D01*
X116934161Y-27689619D01*
X116838923Y-27784857D01*
X116743685Y-27832476D01*
X116553209Y-27880095D01*
X116410352Y-27880095D01*
X116219876Y-27832476D01*
X116124638Y-27784857D01*
X116029400Y-27689619D01*
X115981780Y-27546761D01*
X115981780Y-27451523D01*
X116029400Y-27308666D01*
X116077019Y-27261047D01*
X116315114Y-26403904D02*
X116981780Y-26403904D01*
X115934161Y-26642000D02*
X116648447Y-26880095D01*
X116648447Y-26261047D01*
X115981780Y-25689619D02*
X115981780Y-25594380D01*
X116029400Y-25499142D01*
X116077019Y-25451523D01*
X116172257Y-25403904D01*
X116362733Y-25356285D01*
X116600828Y-25356285D01*
X116791304Y-25403904D01*
X116886542Y-25451523D01*
X116934161Y-25499142D01*
X116981780Y-25594380D01*
X116981780Y-25689619D01*
X116934161Y-25784857D01*
X116886542Y-25832476D01*
X116791304Y-25880095D01*
X116600828Y-25927714D01*
X116362733Y-25927714D01*
X116172257Y-25880095D01*
X116077019Y-25832476D01*
X116029400Y-25784857D01*
X115981780Y-25689619D01*
X116981780Y-24403904D02*
X116981780Y-24975333D01*
X116981780Y-24689619D02*
X115981780Y-24689619D01*
X116124638Y-24784857D01*
X116219876Y-24880095D01*
X116267495Y-24975333D01*
X125781780Y-27689619D02*
X125781780Y-28261047D01*
X125781780Y-27975333D02*
X124781780Y-27975333D01*
X124924638Y-28070571D01*
X125019876Y-28165809D01*
X125067495Y-28261047D01*
X124781780Y-27070571D02*
X124781780Y-26975333D01*
X124829400Y-26880095D01*
X124877019Y-26832476D01*
X124972257Y-26784857D01*
X125162733Y-26737238D01*
X125400828Y-26737238D01*
X125591304Y-26784857D01*
X125686542Y-26832476D01*
X125734161Y-26880095D01*
X125781780Y-26975333D01*
X125781780Y-27070571D01*
X125734161Y-27165809D01*
X125686542Y-27213428D01*
X125591304Y-27261047D01*
X125400828Y-27308666D01*
X125162733Y-27308666D01*
X124972257Y-27261047D01*
X124877019Y-27213428D01*
X124829400Y-27165809D01*
X124781780Y-27070571D01*
X124781780Y-26118190D02*
X124781780Y-26022952D01*
X124829400Y-25927714D01*
X124877019Y-25880095D01*
X124972257Y-25832476D01*
X125162733Y-25784857D01*
X125400828Y-25784857D01*
X125591304Y-25832476D01*
X125686542Y-25880095D01*
X125734161Y-25927714D01*
X125781780Y-26022952D01*
X125781780Y-26118190D01*
X125734161Y-26213428D01*
X125686542Y-26261047D01*
X125591304Y-26308666D01*
X125400828Y-26356285D01*
X125162733Y-26356285D01*
X124972257Y-26308666D01*
X124877019Y-26261047D01*
X124829400Y-26213428D01*
X124781780Y-26118190D01*
X125115114Y-24927714D02*
X125781780Y-24927714D01*
X125115114Y-25356285D02*
X125638923Y-25356285D01*
X125734161Y-25308666D01*
X125781780Y-25213428D01*
X125781780Y-25070571D01*
X125734161Y-24975333D01*
X125686542Y-24927714D01*
X125257971Y-24118190D02*
X125257971Y-24451523D01*
X125781780Y-24451523D02*
X124781780Y-24451523D01*
X124781780Y-23975333D01*
%TO.C,IC404*%
X35003180Y-57422571D02*
X34003180Y-57422571D01*
X34907942Y-56374952D02*
X34955561Y-56422571D01*
X35003180Y-56565428D01*
X35003180Y-56660666D01*
X34955561Y-56803523D01*
X34860323Y-56898761D01*
X34765085Y-56946380D01*
X34574609Y-56994000D01*
X34431752Y-56994000D01*
X34241276Y-56946380D01*
X34146038Y-56898761D01*
X34050800Y-56803523D01*
X34003180Y-56660666D01*
X34003180Y-56565428D01*
X34050800Y-56422571D01*
X34098419Y-56374952D01*
X34336514Y-55517809D02*
X35003180Y-55517809D01*
X33955561Y-55755904D02*
X34669847Y-55994000D01*
X34669847Y-55374952D01*
X34003180Y-54803523D02*
X34003180Y-54708285D01*
X34050800Y-54613047D01*
X34098419Y-54565428D01*
X34193657Y-54517809D01*
X34384133Y-54470190D01*
X34622228Y-54470190D01*
X34812704Y-54517809D01*
X34907942Y-54565428D01*
X34955561Y-54613047D01*
X35003180Y-54708285D01*
X35003180Y-54803523D01*
X34955561Y-54898761D01*
X34907942Y-54946380D01*
X34812704Y-54994000D01*
X34622228Y-55041619D01*
X34384133Y-55041619D01*
X34193657Y-54994000D01*
X34098419Y-54946380D01*
X34050800Y-54898761D01*
X34003180Y-54803523D01*
X34336514Y-53613047D02*
X35003180Y-53613047D01*
X33955561Y-53851142D02*
X34669847Y-54089238D01*
X34669847Y-53470190D01*
X50833780Y-55971780D02*
X50500447Y-55495590D01*
X50262352Y-55971780D02*
X50262352Y-54971780D01*
X50643304Y-54971780D01*
X50738542Y-55019400D01*
X50786161Y-55067019D01*
X50833780Y-55162257D01*
X50833780Y-55305114D01*
X50786161Y-55400352D01*
X50738542Y-55447971D01*
X50643304Y-55495590D01*
X50262352Y-55495590D01*
X51452828Y-54971780D02*
X51643304Y-54971780D01*
X51738542Y-55019400D01*
X51833780Y-55114638D01*
X51881400Y-55305114D01*
X51881400Y-55638447D01*
X51833780Y-55828923D01*
X51738542Y-55924161D01*
X51643304Y-55971780D01*
X51452828Y-55971780D01*
X51357590Y-55924161D01*
X51262352Y-55828923D01*
X51214733Y-55638447D01*
X51214733Y-55305114D01*
X51262352Y-55114638D01*
X51357590Y-55019400D01*
X51452828Y-54971780D01*
X52309971Y-55971780D02*
X52309971Y-54971780D01*
X52643304Y-55686066D01*
X52976638Y-54971780D01*
X52976638Y-55971780D01*
X54167114Y-55067019D02*
X54214733Y-55019400D01*
X54309971Y-54971780D01*
X54548066Y-54971780D01*
X54643304Y-55019400D01*
X54690923Y-55067019D01*
X54738542Y-55162257D01*
X54738542Y-55257495D01*
X54690923Y-55400352D01*
X54119495Y-55971780D01*
X54738542Y-55971780D01*
X55071876Y-54971780D02*
X55738542Y-54971780D01*
X55309971Y-55971780D01*
X56643304Y-55971780D02*
X56071876Y-55971780D01*
X56357590Y-55971780D02*
X56357590Y-54971780D01*
X56262352Y-55114638D01*
X56167114Y-55209876D01*
X56071876Y-55257495D01*
X57024257Y-55067019D02*
X57071876Y-55019400D01*
X57167114Y-54971780D01*
X57405209Y-54971780D01*
X57500447Y-55019400D01*
X57548066Y-55067019D01*
X57595685Y-55162257D01*
X57595685Y-55257495D01*
X57548066Y-55400352D01*
X56976638Y-55971780D01*
X57595685Y-55971780D01*
X58167114Y-55400352D02*
X58071876Y-55352733D01*
X58024257Y-55305114D01*
X57976638Y-55209876D01*
X57976638Y-55162257D01*
X58024257Y-55067019D01*
X58071876Y-55019400D01*
X58167114Y-54971780D01*
X58357590Y-54971780D01*
X58452828Y-55019400D01*
X58500447Y-55067019D01*
X58548066Y-55162257D01*
X58548066Y-55209876D01*
X58500447Y-55305114D01*
X58452828Y-55352733D01*
X58357590Y-55400352D01*
X58167114Y-55400352D01*
X58071876Y-55447971D01*
X58024257Y-55495590D01*
X57976638Y-55590828D01*
X57976638Y-55781304D01*
X58024257Y-55876542D01*
X58071876Y-55924161D01*
X58167114Y-55971780D01*
X58357590Y-55971780D01*
X58452828Y-55924161D01*
X58500447Y-55876542D01*
X58548066Y-55781304D01*
X58548066Y-55590828D01*
X58500447Y-55495590D01*
X58452828Y-55447971D01*
X58357590Y-55400352D01*
%TO.C,C455*%
X75436552Y-64082142D02*
X75388933Y-64129761D01*
X75246076Y-64177380D01*
X75150838Y-64177380D01*
X75007980Y-64129761D01*
X74912742Y-64034523D01*
X74865123Y-63939285D01*
X74817504Y-63748809D01*
X74817504Y-63605952D01*
X74865123Y-63415476D01*
X74912742Y-63320238D01*
X75007980Y-63225000D01*
X75150838Y-63177380D01*
X75246076Y-63177380D01*
X75388933Y-63225000D01*
X75436552Y-63272619D01*
X76293695Y-63510714D02*
X76293695Y-64177380D01*
X76055600Y-63129761D02*
X75817504Y-63844047D01*
X76436552Y-63844047D01*
X77293695Y-63177380D02*
X76817504Y-63177380D01*
X76769885Y-63653571D01*
X76817504Y-63605952D01*
X76912742Y-63558333D01*
X77150838Y-63558333D01*
X77246076Y-63605952D01*
X77293695Y-63653571D01*
X77341314Y-63748809D01*
X77341314Y-63986904D01*
X77293695Y-64082142D01*
X77246076Y-64129761D01*
X77150838Y-64177380D01*
X76912742Y-64177380D01*
X76817504Y-64129761D01*
X76769885Y-64082142D01*
X78246076Y-63177380D02*
X77769885Y-63177380D01*
X77722266Y-63653571D01*
X77769885Y-63605952D01*
X77865123Y-63558333D01*
X78103219Y-63558333D01*
X78198457Y-63605952D01*
X78246076Y-63653571D01*
X78293695Y-63748809D01*
X78293695Y-63986904D01*
X78246076Y-64082142D01*
X78198457Y-64129761D01*
X78103219Y-64177380D01*
X77865123Y-64177380D01*
X77769885Y-64129761D01*
X77722266Y-64082142D01*
%TO.C,D451*%
X91222723Y-97692380D02*
X91222723Y-96692380D01*
X91460819Y-96692380D01*
X91603676Y-96740000D01*
X91698914Y-96835238D01*
X91746533Y-96930476D01*
X91794152Y-97120952D01*
X91794152Y-97263809D01*
X91746533Y-97454285D01*
X91698914Y-97549523D01*
X91603676Y-97644761D01*
X91460819Y-97692380D01*
X91222723Y-97692380D01*
X92651295Y-97025714D02*
X92651295Y-97692380D01*
X92413200Y-96644761D02*
X92175104Y-97359047D01*
X92794152Y-97359047D01*
X93651295Y-96692380D02*
X93175104Y-96692380D01*
X93127485Y-97168571D01*
X93175104Y-97120952D01*
X93270342Y-97073333D01*
X93508438Y-97073333D01*
X93603676Y-97120952D01*
X93651295Y-97168571D01*
X93698914Y-97263809D01*
X93698914Y-97501904D01*
X93651295Y-97597142D01*
X93603676Y-97644761D01*
X93508438Y-97692380D01*
X93270342Y-97692380D01*
X93175104Y-97644761D01*
X93127485Y-97597142D01*
X94651295Y-97692380D02*
X94079866Y-97692380D01*
X94365580Y-97692380D02*
X94365580Y-96692380D01*
X94270342Y-96835238D01*
X94175104Y-96930476D01*
X94079866Y-96978095D01*
X90603676Y-101332380D02*
X90603676Y-100332380D01*
X90984628Y-100332380D01*
X91079866Y-100380000D01*
X91127485Y-100427619D01*
X91175104Y-100522857D01*
X91175104Y-100665714D01*
X91127485Y-100760952D01*
X91079866Y-100808571D01*
X90984628Y-100856190D01*
X90603676Y-100856190D01*
X91794152Y-100332380D02*
X91984628Y-100332380D01*
X92079866Y-100380000D01*
X92175104Y-100475238D01*
X92222723Y-100665714D01*
X92222723Y-100999047D01*
X92175104Y-101189523D01*
X92079866Y-101284761D01*
X91984628Y-101332380D01*
X91794152Y-101332380D01*
X91698914Y-101284761D01*
X91603676Y-101189523D01*
X91556057Y-100999047D01*
X91556057Y-100665714D01*
X91603676Y-100475238D01*
X91698914Y-100380000D01*
X91794152Y-100332380D01*
X92556057Y-100332380D02*
X92794152Y-101332380D01*
X92984628Y-100618095D01*
X93175104Y-101332380D01*
X93413200Y-100332380D01*
X93794152Y-100808571D02*
X94127485Y-100808571D01*
X94270342Y-101332380D02*
X93794152Y-101332380D01*
X93794152Y-100332380D01*
X94270342Y-100332380D01*
X95270342Y-101332380D02*
X94937009Y-100856190D01*
X94698914Y-101332380D02*
X94698914Y-100332380D01*
X95079866Y-100332380D01*
X95175104Y-100380000D01*
X95222723Y-100427619D01*
X95270342Y-100522857D01*
X95270342Y-100665714D01*
X95222723Y-100760952D01*
X95175104Y-100808571D01*
X95079866Y-100856190D01*
X94698914Y-100856190D01*
%TO.C,R451*%
X79014580Y-79503447D02*
X78538390Y-79836780D01*
X79014580Y-80074876D02*
X78014580Y-80074876D01*
X78014580Y-79693923D01*
X78062200Y-79598685D01*
X78109819Y-79551066D01*
X78205057Y-79503447D01*
X78347914Y-79503447D01*
X78443152Y-79551066D01*
X78490771Y-79598685D01*
X78538390Y-79693923D01*
X78538390Y-80074876D01*
X78347914Y-78646304D02*
X79014580Y-78646304D01*
X77966961Y-78884400D02*
X78681247Y-79122495D01*
X78681247Y-78503447D01*
X78014580Y-77646304D02*
X78014580Y-78122495D01*
X78490771Y-78170114D01*
X78443152Y-78122495D01*
X78395533Y-78027257D01*
X78395533Y-77789161D01*
X78443152Y-77693923D01*
X78490771Y-77646304D01*
X78586009Y-77598685D01*
X78824104Y-77598685D01*
X78919342Y-77646304D01*
X78966961Y-77693923D01*
X79014580Y-77789161D01*
X79014580Y-78027257D01*
X78966961Y-78122495D01*
X78919342Y-78170114D01*
X79014580Y-76646304D02*
X79014580Y-77217733D01*
X79014580Y-76932019D02*
X78014580Y-76932019D01*
X78157438Y-77027257D01*
X78252676Y-77122495D01*
X78300295Y-77217733D01*
%TO.C,X451*%
X67524380Y-78317504D02*
X68524380Y-77650838D01*
X67524380Y-77650838D02*
X68524380Y-78317504D01*
X67857714Y-76841314D02*
X68524380Y-76841314D01*
X67476761Y-77079409D02*
X68191047Y-77317504D01*
X68191047Y-76698457D01*
X67524380Y-75841314D02*
X67524380Y-76317504D01*
X68000571Y-76365123D01*
X67952952Y-76317504D01*
X67905333Y-76222266D01*
X67905333Y-75984171D01*
X67952952Y-75888933D01*
X68000571Y-75841314D01*
X68095809Y-75793695D01*
X68333904Y-75793695D01*
X68429142Y-75841314D01*
X68476761Y-75888933D01*
X68524380Y-75984171D01*
X68524380Y-76222266D01*
X68476761Y-76317504D01*
X68429142Y-76365123D01*
X68524380Y-74841314D02*
X68524380Y-75412742D01*
X68524380Y-75127028D02*
X67524380Y-75127028D01*
X67667238Y-75222266D01*
X67762476Y-75317504D01*
X67810095Y-75412742D01*
X71191380Y-78220676D02*
X71191380Y-78792104D01*
X71191380Y-78506390D02*
X70191380Y-78506390D01*
X70334238Y-78601628D01*
X70429476Y-78696866D01*
X70477095Y-78792104D01*
X70191380Y-77363533D02*
X70191380Y-77554009D01*
X70239000Y-77649247D01*
X70286619Y-77696866D01*
X70429476Y-77792104D01*
X70619952Y-77839723D01*
X71000904Y-77839723D01*
X71096142Y-77792104D01*
X71143761Y-77744485D01*
X71191380Y-77649247D01*
X71191380Y-77458771D01*
X71143761Y-77363533D01*
X71096142Y-77315914D01*
X71000904Y-77268295D01*
X70762809Y-77268295D01*
X70667571Y-77315914D01*
X70619952Y-77363533D01*
X70572333Y-77458771D01*
X70572333Y-77649247D01*
X70619952Y-77744485D01*
X70667571Y-77792104D01*
X70762809Y-77839723D01*
X71191380Y-76839723D02*
X70191380Y-76839723D01*
X70905666Y-76506390D01*
X70191380Y-76173057D01*
X71191380Y-76173057D01*
X71191380Y-75696866D02*
X70191380Y-75696866D01*
X70667571Y-75696866D02*
X70667571Y-75125438D01*
X71191380Y-75125438D02*
X70191380Y-75125438D01*
X70524714Y-74744485D02*
X70524714Y-74220676D01*
X71191380Y-74744485D01*
X71191380Y-74220676D01*
%TO.C,R403*%
X126741180Y-59894647D02*
X126264990Y-60227980D01*
X126741180Y-60466076D02*
X125741180Y-60466076D01*
X125741180Y-60085123D01*
X125788800Y-59989885D01*
X125836419Y-59942266D01*
X125931657Y-59894647D01*
X126074514Y-59894647D01*
X126169752Y-59942266D01*
X126217371Y-59989885D01*
X126264990Y-60085123D01*
X126264990Y-60466076D01*
X126074514Y-59037504D02*
X126741180Y-59037504D01*
X125693561Y-59275600D02*
X126407847Y-59513695D01*
X126407847Y-58894647D01*
X125741180Y-58323219D02*
X125741180Y-58227980D01*
X125788800Y-58132742D01*
X125836419Y-58085123D01*
X125931657Y-58037504D01*
X126122133Y-57989885D01*
X126360228Y-57989885D01*
X126550704Y-58037504D01*
X126645942Y-58085123D01*
X126693561Y-58132742D01*
X126741180Y-58227980D01*
X126741180Y-58323219D01*
X126693561Y-58418457D01*
X126645942Y-58466076D01*
X126550704Y-58513695D01*
X126360228Y-58561314D01*
X126122133Y-58561314D01*
X125931657Y-58513695D01*
X125836419Y-58466076D01*
X125788800Y-58418457D01*
X125741180Y-58323219D01*
X125741180Y-57656552D02*
X125741180Y-57037504D01*
X126122133Y-57370838D01*
X126122133Y-57227980D01*
X126169752Y-57132742D01*
X126217371Y-57085123D01*
X126312609Y-57037504D01*
X126550704Y-57037504D01*
X126645942Y-57085123D01*
X126693561Y-57132742D01*
X126741180Y-57227980D01*
X126741180Y-57513695D01*
X126693561Y-57608933D01*
X126645942Y-57656552D01*
%TO.C,R452*%
X126663980Y-89587247D02*
X126187790Y-89920580D01*
X126663980Y-90158676D02*
X125663980Y-90158676D01*
X125663980Y-89777723D01*
X125711600Y-89682485D01*
X125759219Y-89634866D01*
X125854457Y-89587247D01*
X125997314Y-89587247D01*
X126092552Y-89634866D01*
X126140171Y-89682485D01*
X126187790Y-89777723D01*
X126187790Y-90158676D01*
X125997314Y-88730104D02*
X126663980Y-88730104D01*
X125616361Y-88968200D02*
X126330647Y-89206295D01*
X126330647Y-88587247D01*
X125663980Y-87730104D02*
X125663980Y-88206295D01*
X126140171Y-88253914D01*
X126092552Y-88206295D01*
X126044933Y-88111057D01*
X126044933Y-87872961D01*
X126092552Y-87777723D01*
X126140171Y-87730104D01*
X126235409Y-87682485D01*
X126473504Y-87682485D01*
X126568742Y-87730104D01*
X126616361Y-87777723D01*
X126663980Y-87872961D01*
X126663980Y-88111057D01*
X126616361Y-88206295D01*
X126568742Y-88253914D01*
X125759219Y-87301533D02*
X125711600Y-87253914D01*
X125663980Y-87158676D01*
X125663980Y-86920580D01*
X125711600Y-86825342D01*
X125759219Y-86777723D01*
X125854457Y-86730104D01*
X125949695Y-86730104D01*
X126092552Y-86777723D01*
X126663980Y-87349152D01*
X126663980Y-86730104D01*
%TO.C,LK401*%
X36099952Y-38372780D02*
X35623761Y-38372780D01*
X35623761Y-37372780D01*
X36433285Y-38372780D02*
X36433285Y-37372780D01*
X37004714Y-38372780D02*
X36576142Y-37801352D01*
X37004714Y-37372780D02*
X36433285Y-37944209D01*
X37861857Y-37706114D02*
X37861857Y-38372780D01*
X37623761Y-37325161D02*
X37385666Y-38039447D01*
X38004714Y-38039447D01*
X38576142Y-37372780D02*
X38671380Y-37372780D01*
X38766619Y-37420400D01*
X38814238Y-37468019D01*
X38861857Y-37563257D01*
X38909476Y-37753733D01*
X38909476Y-37991828D01*
X38861857Y-38182304D01*
X38814238Y-38277542D01*
X38766619Y-38325161D01*
X38671380Y-38372780D01*
X38576142Y-38372780D01*
X38480904Y-38325161D01*
X38433285Y-38277542D01*
X38385666Y-38182304D01*
X38338047Y-37991828D01*
X38338047Y-37753733D01*
X38385666Y-37563257D01*
X38433285Y-37468019D01*
X38480904Y-37420400D01*
X38576142Y-37372780D01*
X39861857Y-38372780D02*
X39290428Y-38372780D01*
X39576142Y-38372780D02*
X39576142Y-37372780D01*
X39480904Y-37515638D01*
X39385666Y-37610876D01*
X39290428Y-37658495D01*
%TO.C,R453*%
X80645452Y-81174580D02*
X80312119Y-80698390D01*
X80074023Y-81174580D02*
X80074023Y-80174580D01*
X80454976Y-80174580D01*
X80550214Y-80222200D01*
X80597833Y-80269819D01*
X80645452Y-80365057D01*
X80645452Y-80507914D01*
X80597833Y-80603152D01*
X80550214Y-80650771D01*
X80454976Y-80698390D01*
X80074023Y-80698390D01*
X81502595Y-80507914D02*
X81502595Y-81174580D01*
X81264500Y-80126961D02*
X81026404Y-80841247D01*
X81645452Y-80841247D01*
X82502595Y-80174580D02*
X82026404Y-80174580D01*
X81978785Y-80650771D01*
X82026404Y-80603152D01*
X82121642Y-80555533D01*
X82359738Y-80555533D01*
X82454976Y-80603152D01*
X82502595Y-80650771D01*
X82550214Y-80746009D01*
X82550214Y-80984104D01*
X82502595Y-81079342D01*
X82454976Y-81126961D01*
X82359738Y-81174580D01*
X82121642Y-81174580D01*
X82026404Y-81126961D01*
X81978785Y-81079342D01*
X82883547Y-80174580D02*
X83502595Y-80174580D01*
X83169261Y-80555533D01*
X83312119Y-80555533D01*
X83407357Y-80603152D01*
X83454976Y-80650771D01*
X83502595Y-80746009D01*
X83502595Y-80984104D01*
X83454976Y-81079342D01*
X83407357Y-81126961D01*
X83312119Y-81174580D01*
X83026404Y-81174580D01*
X82931166Y-81126961D01*
X82883547Y-81079342D01*
%TO.C,R457*%
X75436552Y-67636380D02*
X75103219Y-67160190D01*
X74865123Y-67636380D02*
X74865123Y-66636380D01*
X75246076Y-66636380D01*
X75341314Y-66684000D01*
X75388933Y-66731619D01*
X75436552Y-66826857D01*
X75436552Y-66969714D01*
X75388933Y-67064952D01*
X75341314Y-67112571D01*
X75246076Y-67160190D01*
X74865123Y-67160190D01*
X76293695Y-66969714D02*
X76293695Y-67636380D01*
X76055600Y-66588761D02*
X75817504Y-67303047D01*
X76436552Y-67303047D01*
X77293695Y-66636380D02*
X76817504Y-66636380D01*
X76769885Y-67112571D01*
X76817504Y-67064952D01*
X76912742Y-67017333D01*
X77150838Y-67017333D01*
X77246076Y-67064952D01*
X77293695Y-67112571D01*
X77341314Y-67207809D01*
X77341314Y-67445904D01*
X77293695Y-67541142D01*
X77246076Y-67588761D01*
X77150838Y-67636380D01*
X76912742Y-67636380D01*
X76817504Y-67588761D01*
X76769885Y-67541142D01*
X77674647Y-66636380D02*
X78341314Y-66636380D01*
X77912742Y-67636380D01*
%TO.C,IC451*%
X35003180Y-75817171D02*
X34003180Y-75817171D01*
X34907942Y-74769552D02*
X34955561Y-74817171D01*
X35003180Y-74960028D01*
X35003180Y-75055266D01*
X34955561Y-75198123D01*
X34860323Y-75293361D01*
X34765085Y-75340980D01*
X34574609Y-75388600D01*
X34431752Y-75388600D01*
X34241276Y-75340980D01*
X34146038Y-75293361D01*
X34050800Y-75198123D01*
X34003180Y-75055266D01*
X34003180Y-74960028D01*
X34050800Y-74817171D01*
X34098419Y-74769552D01*
X34336514Y-73912409D02*
X35003180Y-73912409D01*
X33955561Y-74150504D02*
X34669847Y-74388600D01*
X34669847Y-73769552D01*
X34003180Y-72912409D02*
X34003180Y-73388600D01*
X34479371Y-73436219D01*
X34431752Y-73388600D01*
X34384133Y-73293361D01*
X34384133Y-73055266D01*
X34431752Y-72960028D01*
X34479371Y-72912409D01*
X34574609Y-72864790D01*
X34812704Y-72864790D01*
X34907942Y-72912409D01*
X34955561Y-72960028D01*
X35003180Y-73055266D01*
X35003180Y-73293361D01*
X34955561Y-73388600D01*
X34907942Y-73436219D01*
X35003180Y-71912409D02*
X35003180Y-72483838D01*
X35003180Y-72198123D02*
X34003180Y-72198123D01*
X34146038Y-72293361D01*
X34241276Y-72388600D01*
X34288895Y-72483838D01*
X46335171Y-74313761D02*
X46478028Y-74361380D01*
X46716123Y-74361380D01*
X46811361Y-74313761D01*
X46858980Y-74266142D01*
X46906600Y-74170904D01*
X46906600Y-74075666D01*
X46858980Y-73980428D01*
X46811361Y-73932809D01*
X46716123Y-73885190D01*
X46525647Y-73837571D01*
X46430409Y-73789952D01*
X46382790Y-73742333D01*
X46335171Y-73647095D01*
X46335171Y-73551857D01*
X46382790Y-73456619D01*
X46430409Y-73409000D01*
X46525647Y-73361380D01*
X46763742Y-73361380D01*
X46906600Y-73409000D01*
X47335171Y-73837571D02*
X47668504Y-73837571D01*
X47811361Y-74361380D02*
X47335171Y-74361380D01*
X47335171Y-73361380D01*
X47811361Y-73361380D01*
X48239933Y-74361380D02*
X48239933Y-73361380D01*
X48478028Y-73361380D01*
X48620885Y-73409000D01*
X48716123Y-73504238D01*
X48763742Y-73599476D01*
X48811361Y-73789952D01*
X48811361Y-73932809D01*
X48763742Y-74123285D01*
X48716123Y-74218523D01*
X48620885Y-74313761D01*
X48478028Y-74361380D01*
X48239933Y-74361380D01*
X49287552Y-74361380D02*
X49478028Y-74361380D01*
X49573266Y-74313761D01*
X49620885Y-74266142D01*
X49716123Y-74123285D01*
X49763742Y-73932809D01*
X49763742Y-73551857D01*
X49716123Y-73456619D01*
X49668504Y-73409000D01*
X49573266Y-73361380D01*
X49382790Y-73361380D01*
X49287552Y-73409000D01*
X49239933Y-73456619D01*
X49192314Y-73551857D01*
X49192314Y-73789952D01*
X49239933Y-73885190D01*
X49287552Y-73932809D01*
X49382790Y-73980428D01*
X49573266Y-73980428D01*
X49668504Y-73932809D01*
X49716123Y-73885190D01*
X49763742Y-73789952D01*
X50620885Y-73694714D02*
X50620885Y-74361380D01*
X50382790Y-73313761D02*
X50144695Y-74028047D01*
X50763742Y-74028047D01*
X51097076Y-73456619D02*
X51144695Y-73409000D01*
X51239933Y-73361380D01*
X51478028Y-73361380D01*
X51573266Y-73409000D01*
X51620885Y-73456619D01*
X51668504Y-73551857D01*
X51668504Y-73647095D01*
X51620885Y-73789952D01*
X51049457Y-74361380D01*
X51668504Y-74361380D01*
X52287552Y-73361380D02*
X52382790Y-73361380D01*
X52478028Y-73409000D01*
X52525647Y-73456619D01*
X52573266Y-73551857D01*
X52620885Y-73742333D01*
X52620885Y-73980428D01*
X52573266Y-74170904D01*
X52525647Y-74266142D01*
X52478028Y-74313761D01*
X52382790Y-74361380D01*
X52287552Y-74361380D01*
X52192314Y-74313761D01*
X52144695Y-74266142D01*
X52097076Y-74170904D01*
X52049457Y-73980428D01*
X52049457Y-73742333D01*
X52097076Y-73551857D01*
X52144695Y-73456619D01*
X52192314Y-73409000D01*
X52287552Y-73361380D01*
X53620885Y-74266142D02*
X53573266Y-74313761D01*
X53430409Y-74361380D01*
X53335171Y-74361380D01*
X53192314Y-74313761D01*
X53097076Y-74218523D01*
X53049457Y-74123285D01*
X53001838Y-73932809D01*
X53001838Y-73789952D01*
X53049457Y-73599476D01*
X53097076Y-73504238D01*
X53192314Y-73409000D01*
X53335171Y-73361380D01*
X53430409Y-73361380D01*
X53573266Y-73409000D01*
X53620885Y-73456619D01*
X54001838Y-74075666D02*
X54478028Y-74075666D01*
X53906600Y-74361380D02*
X54239933Y-73361380D01*
X54573266Y-74361380D01*
X55478028Y-74266142D02*
X55430409Y-74313761D01*
X55287552Y-74361380D01*
X55192314Y-74361380D01*
X55049457Y-74313761D01*
X54954219Y-74218523D01*
X54906600Y-74123285D01*
X54858980Y-73932809D01*
X54858980Y-73789952D01*
X54906600Y-73599476D01*
X54954219Y-73504238D01*
X55049457Y-73409000D01*
X55192314Y-73361380D01*
X55287552Y-73361380D01*
X55430409Y-73409000D01*
X55478028Y-73456619D01*
%TO.C,R459*%
X96543952Y-97887780D02*
X96210619Y-97411590D01*
X95972523Y-97887780D02*
X95972523Y-96887780D01*
X96353476Y-96887780D01*
X96448714Y-96935400D01*
X96496333Y-96983019D01*
X96543952Y-97078257D01*
X96543952Y-97221114D01*
X96496333Y-97316352D01*
X96448714Y-97363971D01*
X96353476Y-97411590D01*
X95972523Y-97411590D01*
X97401095Y-97221114D02*
X97401095Y-97887780D01*
X97163000Y-96840161D02*
X96924904Y-97554447D01*
X97543952Y-97554447D01*
X98401095Y-96887780D02*
X97924904Y-96887780D01*
X97877285Y-97363971D01*
X97924904Y-97316352D01*
X98020142Y-97268733D01*
X98258238Y-97268733D01*
X98353476Y-97316352D01*
X98401095Y-97363971D01*
X98448714Y-97459209D01*
X98448714Y-97697304D01*
X98401095Y-97792542D01*
X98353476Y-97840161D01*
X98258238Y-97887780D01*
X98020142Y-97887780D01*
X97924904Y-97840161D01*
X97877285Y-97792542D01*
X98924904Y-97887780D02*
X99115380Y-97887780D01*
X99210619Y-97840161D01*
X99258238Y-97792542D01*
X99353476Y-97649685D01*
X99401095Y-97459209D01*
X99401095Y-97078257D01*
X99353476Y-96983019D01*
X99305857Y-96935400D01*
X99210619Y-96887780D01*
X99020142Y-96887780D01*
X98924904Y-96935400D01*
X98877285Y-96983019D01*
X98829666Y-97078257D01*
X98829666Y-97316352D01*
X98877285Y-97411590D01*
X98924904Y-97459209D01*
X99020142Y-97506828D01*
X99210619Y-97506828D01*
X99305857Y-97459209D01*
X99353476Y-97411590D01*
X99401095Y-97316352D01*
%TO.C,R455*%
X75436552Y-71090780D02*
X75103219Y-70614590D01*
X74865123Y-71090780D02*
X74865123Y-70090780D01*
X75246076Y-70090780D01*
X75341314Y-70138400D01*
X75388933Y-70186019D01*
X75436552Y-70281257D01*
X75436552Y-70424114D01*
X75388933Y-70519352D01*
X75341314Y-70566971D01*
X75246076Y-70614590D01*
X74865123Y-70614590D01*
X76293695Y-70424114D02*
X76293695Y-71090780D01*
X76055600Y-70043161D02*
X75817504Y-70757447D01*
X76436552Y-70757447D01*
X77293695Y-70090780D02*
X76817504Y-70090780D01*
X76769885Y-70566971D01*
X76817504Y-70519352D01*
X76912742Y-70471733D01*
X77150838Y-70471733D01*
X77246076Y-70519352D01*
X77293695Y-70566971D01*
X77341314Y-70662209D01*
X77341314Y-70900304D01*
X77293695Y-70995542D01*
X77246076Y-71043161D01*
X77150838Y-71090780D01*
X76912742Y-71090780D01*
X76817504Y-71043161D01*
X76769885Y-70995542D01*
X78246076Y-70090780D02*
X77769885Y-70090780D01*
X77722266Y-70566971D01*
X77769885Y-70519352D01*
X77865123Y-70471733D01*
X78103219Y-70471733D01*
X78198457Y-70519352D01*
X78246076Y-70566971D01*
X78293695Y-70662209D01*
X78293695Y-70900304D01*
X78246076Y-70995542D01*
X78198457Y-71043161D01*
X78103219Y-71090780D01*
X77865123Y-71090780D01*
X77769885Y-71043161D01*
X77722266Y-70995542D01*
%TO.C,R456*%
X79830752Y-71141580D02*
X79497419Y-70665390D01*
X79259323Y-71141580D02*
X79259323Y-70141580D01*
X79640276Y-70141580D01*
X79735514Y-70189200D01*
X79783133Y-70236819D01*
X79830752Y-70332057D01*
X79830752Y-70474914D01*
X79783133Y-70570152D01*
X79735514Y-70617771D01*
X79640276Y-70665390D01*
X79259323Y-70665390D01*
X80687895Y-70474914D02*
X80687895Y-71141580D01*
X80449800Y-70093961D02*
X80211704Y-70808247D01*
X80830752Y-70808247D01*
X81687895Y-70141580D02*
X81211704Y-70141580D01*
X81164085Y-70617771D01*
X81211704Y-70570152D01*
X81306942Y-70522533D01*
X81545038Y-70522533D01*
X81640276Y-70570152D01*
X81687895Y-70617771D01*
X81735514Y-70713009D01*
X81735514Y-70951104D01*
X81687895Y-71046342D01*
X81640276Y-71093961D01*
X81545038Y-71141580D01*
X81306942Y-71141580D01*
X81211704Y-71093961D01*
X81164085Y-71046342D01*
X82592657Y-70141580D02*
X82402180Y-70141580D01*
X82306942Y-70189200D01*
X82259323Y-70236819D01*
X82164085Y-70379676D01*
X82116466Y-70570152D01*
X82116466Y-70951104D01*
X82164085Y-71046342D01*
X82211704Y-71093961D01*
X82306942Y-71141580D01*
X82497419Y-71141580D01*
X82592657Y-71093961D01*
X82640276Y-71046342D01*
X82687895Y-70951104D01*
X82687895Y-70713009D01*
X82640276Y-70617771D01*
X82592657Y-70570152D01*
X82497419Y-70522533D01*
X82306942Y-70522533D01*
X82211704Y-70570152D01*
X82164085Y-70617771D01*
X82116466Y-70713009D01*
%TO.C,CE402*%
X41932942Y-39722228D02*
X41980561Y-39769847D01*
X42028180Y-39912704D01*
X42028180Y-40007942D01*
X41980561Y-40150800D01*
X41885323Y-40246038D01*
X41790085Y-40293657D01*
X41599609Y-40341276D01*
X41456752Y-40341276D01*
X41266276Y-40293657D01*
X41171038Y-40246038D01*
X41075800Y-40150800D01*
X41028180Y-40007942D01*
X41028180Y-39912704D01*
X41075800Y-39769847D01*
X41123419Y-39722228D01*
X41504371Y-39293657D02*
X41504371Y-38960323D01*
X42028180Y-38817466D02*
X42028180Y-39293657D01*
X41028180Y-39293657D01*
X41028180Y-38817466D01*
X41361514Y-37960323D02*
X42028180Y-37960323D01*
X40980561Y-38198419D02*
X41694847Y-38436514D01*
X41694847Y-37817466D01*
X41028180Y-37246038D02*
X41028180Y-37150800D01*
X41075800Y-37055561D01*
X41123419Y-37007942D01*
X41218657Y-36960323D01*
X41409133Y-36912704D01*
X41647228Y-36912704D01*
X41837704Y-36960323D01*
X41932942Y-37007942D01*
X41980561Y-37055561D01*
X42028180Y-37150800D01*
X42028180Y-37246038D01*
X41980561Y-37341276D01*
X41932942Y-37388895D01*
X41837704Y-37436514D01*
X41647228Y-37484133D01*
X41409133Y-37484133D01*
X41218657Y-37436514D01*
X41123419Y-37388895D01*
X41075800Y-37341276D01*
X41028180Y-37246038D01*
X41123419Y-36531752D02*
X41075800Y-36484133D01*
X41028180Y-36388895D01*
X41028180Y-36150800D01*
X41075800Y-36055561D01*
X41123419Y-36007942D01*
X41218657Y-35960323D01*
X41313895Y-35960323D01*
X41456752Y-36007942D01*
X42028180Y-36579371D01*
X42028180Y-35960323D01*
X68466914Y-43419780D02*
X67990723Y-43419780D01*
X67943104Y-43895971D01*
X67990723Y-43848352D01*
X68085961Y-43800733D01*
X68324057Y-43800733D01*
X68419295Y-43848352D01*
X68466914Y-43895971D01*
X68514533Y-43991209D01*
X68514533Y-44229304D01*
X68466914Y-44324542D01*
X68419295Y-44372161D01*
X68324057Y-44419780D01*
X68085961Y-44419780D01*
X67990723Y-44372161D01*
X67943104Y-44324542D01*
X69133580Y-43419780D02*
X69228819Y-43419780D01*
X69324057Y-43467400D01*
X69371676Y-43515019D01*
X69419295Y-43610257D01*
X69466914Y-43800733D01*
X69466914Y-44038828D01*
X69419295Y-44229304D01*
X69371676Y-44324542D01*
X69324057Y-44372161D01*
X69228819Y-44419780D01*
X69133580Y-44419780D01*
X69038342Y-44372161D01*
X68990723Y-44324542D01*
X68943104Y-44229304D01*
X68895485Y-44038828D01*
X68895485Y-43800733D01*
X68943104Y-43610257D01*
X68990723Y-43515019D01*
X69038342Y-43467400D01*
X69133580Y-43419780D01*
X69895485Y-44419780D02*
X69895485Y-43419780D01*
X70276438Y-43419780D01*
X70371676Y-43467400D01*
X70419295Y-43515019D01*
X70466914Y-43610257D01*
X70466914Y-43753114D01*
X70419295Y-43848352D01*
X70371676Y-43895971D01*
X70276438Y-43943590D01*
X69895485Y-43943590D01*
X70895485Y-44419780D02*
X70895485Y-43753114D01*
X70895485Y-43419780D02*
X70847866Y-43467400D01*
X70895485Y-43515019D01*
X70943104Y-43467400D01*
X70895485Y-43419780D01*
X70895485Y-43515019D01*
X71371676Y-43753114D02*
X71371676Y-44419780D01*
X71371676Y-43848352D02*
X71419295Y-43800733D01*
X71514533Y-43753114D01*
X71657390Y-43753114D01*
X71752628Y-43800733D01*
X71800247Y-43895971D01*
X71800247Y-44419780D01*
X73038342Y-43895971D02*
X73371676Y-43895971D01*
X73514533Y-44419780D02*
X73038342Y-44419780D01*
X73038342Y-43419780D01*
X73514533Y-43419780D01*
X73847866Y-44419780D02*
X74371676Y-43753114D01*
X73847866Y-43753114D02*
X74371676Y-44419780D01*
X74752628Y-43753114D02*
X74752628Y-44753114D01*
X74752628Y-43800733D02*
X74847866Y-43753114D01*
X75038342Y-43753114D01*
X75133580Y-43800733D01*
X75181200Y-43848352D01*
X75228819Y-43943590D01*
X75228819Y-44229304D01*
X75181200Y-44324542D01*
X75133580Y-44372161D01*
X75038342Y-44419780D01*
X74847866Y-44419780D01*
X74752628Y-44372161D01*
X76085961Y-44419780D02*
X76085961Y-43895971D01*
X76038342Y-43800733D01*
X75943104Y-43753114D01*
X75752628Y-43753114D01*
X75657390Y-43800733D01*
X76085961Y-44372161D02*
X75990723Y-44419780D01*
X75752628Y-44419780D01*
X75657390Y-44372161D01*
X75609771Y-44276923D01*
X75609771Y-44181685D01*
X75657390Y-44086447D01*
X75752628Y-44038828D01*
X75990723Y-44038828D01*
X76085961Y-43991209D01*
X76562152Y-43753114D02*
X76562152Y-44419780D01*
X76562152Y-43848352D02*
X76609771Y-43800733D01*
X76705009Y-43753114D01*
X76847866Y-43753114D01*
X76943104Y-43800733D01*
X76990723Y-43895971D01*
X76990723Y-44419780D01*
X77419295Y-44372161D02*
X77514533Y-44419780D01*
X77705009Y-44419780D01*
X77800247Y-44372161D01*
X77847866Y-44276923D01*
X77847866Y-44229304D01*
X77800247Y-44134066D01*
X77705009Y-44086447D01*
X77562152Y-44086447D01*
X77466914Y-44038828D01*
X77419295Y-43943590D01*
X77419295Y-43895971D01*
X77466914Y-43800733D01*
X77562152Y-43753114D01*
X77705009Y-43753114D01*
X77800247Y-43800733D01*
X78276438Y-44419780D02*
X78276438Y-43753114D01*
X78276438Y-43419780D02*
X78228819Y-43467400D01*
X78276438Y-43515019D01*
X78324057Y-43467400D01*
X78276438Y-43419780D01*
X78276438Y-43515019D01*
X78895485Y-44419780D02*
X78800247Y-44372161D01*
X78752628Y-44324542D01*
X78705009Y-44229304D01*
X78705009Y-43943590D01*
X78752628Y-43848352D01*
X78800247Y-43800733D01*
X78895485Y-43753114D01*
X79038342Y-43753114D01*
X79133580Y-43800733D01*
X79181200Y-43848352D01*
X79228819Y-43943590D01*
X79228819Y-44229304D01*
X79181200Y-44324542D01*
X79133580Y-44372161D01*
X79038342Y-44419780D01*
X78895485Y-44419780D01*
X79657390Y-43753114D02*
X79657390Y-44419780D01*
X79657390Y-43848352D02*
X79705009Y-43800733D01*
X79800247Y-43753114D01*
X79943104Y-43753114D01*
X80038342Y-43800733D01*
X80085961Y-43895971D01*
X80085961Y-44419780D01*
X81895485Y-44324542D02*
X81847866Y-44372161D01*
X81705009Y-44419780D01*
X81609771Y-44419780D01*
X81466914Y-44372161D01*
X81371676Y-44276923D01*
X81324057Y-44181685D01*
X81276438Y-43991209D01*
X81276438Y-43848352D01*
X81324057Y-43657876D01*
X81371676Y-43562638D01*
X81466914Y-43467400D01*
X81609771Y-43419780D01*
X81705009Y-43419780D01*
X81847866Y-43467400D01*
X81895485Y-43515019D01*
X82466914Y-44419780D02*
X82371676Y-44372161D01*
X82324057Y-44324542D01*
X82276438Y-44229304D01*
X82276438Y-43943590D01*
X82324057Y-43848352D01*
X82371676Y-43800733D01*
X82466914Y-43753114D01*
X82609771Y-43753114D01*
X82705009Y-43800733D01*
X82752628Y-43848352D01*
X82800247Y-43943590D01*
X82800247Y-44229304D01*
X82752628Y-44324542D01*
X82705009Y-44372161D01*
X82609771Y-44419780D01*
X82466914Y-44419780D01*
X83228819Y-43753114D02*
X83228819Y-44419780D01*
X83228819Y-43848352D02*
X83276438Y-43800733D01*
X83371676Y-43753114D01*
X83514533Y-43753114D01*
X83609771Y-43800733D01*
X83657390Y-43895971D01*
X83657390Y-44419780D01*
X84133580Y-43753114D02*
X84133580Y-44419780D01*
X84133580Y-43848352D02*
X84181200Y-43800733D01*
X84276438Y-43753114D01*
X84419295Y-43753114D01*
X84514533Y-43800733D01*
X84562152Y-43895971D01*
X84562152Y-44419780D01*
X85419295Y-44372161D02*
X85324057Y-44419780D01*
X85133580Y-44419780D01*
X85038342Y-44372161D01*
X84990723Y-44276923D01*
X84990723Y-43895971D01*
X85038342Y-43800733D01*
X85133580Y-43753114D01*
X85324057Y-43753114D01*
X85419295Y-43800733D01*
X85466914Y-43895971D01*
X85466914Y-43991209D01*
X84990723Y-44086447D01*
X86324057Y-44372161D02*
X86228819Y-44419780D01*
X86038342Y-44419780D01*
X85943104Y-44372161D01*
X85895485Y-44324542D01*
X85847866Y-44229304D01*
X85847866Y-43943590D01*
X85895485Y-43848352D01*
X85943104Y-43800733D01*
X86038342Y-43753114D01*
X86228819Y-43753114D01*
X86324057Y-43800733D01*
X86609771Y-43753114D02*
X86990723Y-43753114D01*
X86752628Y-43419780D02*
X86752628Y-44276923D01*
X86800247Y-44372161D01*
X86895485Y-44419780D01*
X86990723Y-44419780D01*
X87466914Y-44419780D02*
X87371676Y-44372161D01*
X87324057Y-44324542D01*
X87276438Y-44229304D01*
X87276438Y-43943590D01*
X87324057Y-43848352D01*
X87371676Y-43800733D01*
X87466914Y-43753114D01*
X87609771Y-43753114D01*
X87705009Y-43800733D01*
X87752628Y-43848352D01*
X87800247Y-43943590D01*
X87800247Y-44229304D01*
X87752628Y-44324542D01*
X87705009Y-44372161D01*
X87609771Y-44419780D01*
X87466914Y-44419780D01*
X88228819Y-44419780D02*
X88228819Y-43753114D01*
X88228819Y-43943590D02*
X88276438Y-43848352D01*
X88324057Y-43800733D01*
X88419295Y-43753114D01*
X88514533Y-43753114D01*
%TO.C,IC409*%
X74801380Y-60602571D02*
X73801380Y-60602571D01*
X74706142Y-59554952D02*
X74753761Y-59602571D01*
X74801380Y-59745428D01*
X74801380Y-59840666D01*
X74753761Y-59983523D01*
X74658523Y-60078761D01*
X74563285Y-60126380D01*
X74372809Y-60174000D01*
X74229952Y-60174000D01*
X74039476Y-60126380D01*
X73944238Y-60078761D01*
X73849000Y-59983523D01*
X73801380Y-59840666D01*
X73801380Y-59745428D01*
X73849000Y-59602571D01*
X73896619Y-59554952D01*
X74134714Y-58697809D02*
X74801380Y-58697809D01*
X73753761Y-58935904D02*
X74468047Y-59174000D01*
X74468047Y-58554952D01*
X73801380Y-57983523D02*
X73801380Y-57888285D01*
X73849000Y-57793047D01*
X73896619Y-57745428D01*
X73991857Y-57697809D01*
X74182333Y-57650190D01*
X74420428Y-57650190D01*
X74610904Y-57697809D01*
X74706142Y-57745428D01*
X74753761Y-57793047D01*
X74801380Y-57888285D01*
X74801380Y-57983523D01*
X74753761Y-58078761D01*
X74706142Y-58126380D01*
X74610904Y-58174000D01*
X74420428Y-58221619D01*
X74182333Y-58221619D01*
X73991857Y-58174000D01*
X73896619Y-58126380D01*
X73849000Y-58078761D01*
X73801380Y-57983523D01*
X74801380Y-57174000D02*
X74801380Y-56983523D01*
X74753761Y-56888285D01*
X74706142Y-56840666D01*
X74563285Y-56745428D01*
X74372809Y-56697809D01*
X73991857Y-56697809D01*
X73896619Y-56745428D01*
X73849000Y-56793047D01*
X73801380Y-56888285D01*
X73801380Y-57078761D01*
X73849000Y-57174000D01*
X73896619Y-57221619D01*
X73991857Y-57269238D01*
X74229952Y-57269238D01*
X74325190Y-57221619D01*
X74372809Y-57174000D01*
X74420428Y-57078761D01*
X74420428Y-56888285D01*
X74372809Y-56793047D01*
X74325190Y-56745428D01*
X74229952Y-56697809D01*
X84361380Y-61793047D02*
X84361380Y-61126380D01*
X85361380Y-61554952D01*
X84694714Y-60316857D02*
X85361380Y-60316857D01*
X84313761Y-60554952D02*
X85028047Y-60793047D01*
X85028047Y-60174000D01*
X85361380Y-59316857D02*
X85361380Y-59793047D01*
X84361380Y-59793047D01*
X85313761Y-59031142D02*
X85361380Y-58888285D01*
X85361380Y-58650190D01*
X85313761Y-58554952D01*
X85266142Y-58507333D01*
X85170904Y-58459714D01*
X85075666Y-58459714D01*
X84980428Y-58507333D01*
X84932809Y-58554952D01*
X84885190Y-58650190D01*
X84837571Y-58840666D01*
X84789952Y-58935904D01*
X84742333Y-58983523D01*
X84647095Y-59031142D01*
X84551857Y-59031142D01*
X84456619Y-58983523D01*
X84409000Y-58935904D01*
X84361380Y-58840666D01*
X84361380Y-58602571D01*
X84409000Y-58459714D01*
X85361380Y-57507333D02*
X85361380Y-58078761D01*
X85361380Y-57793047D02*
X84361380Y-57793047D01*
X84504238Y-57888285D01*
X84599476Y-57983523D01*
X84647095Y-58078761D01*
X84361380Y-57174000D02*
X84361380Y-56554952D01*
X84742333Y-56888285D01*
X84742333Y-56745428D01*
X84789952Y-56650190D01*
X84837571Y-56602571D01*
X84932809Y-56554952D01*
X85170904Y-56554952D01*
X85266142Y-56602571D01*
X85313761Y-56650190D01*
X85361380Y-56745428D01*
X85361380Y-57031142D01*
X85313761Y-57126380D01*
X85266142Y-57174000D01*
X84361380Y-55697809D02*
X84361380Y-55888285D01*
X84409000Y-55983523D01*
X84456619Y-56031142D01*
X84599476Y-56126380D01*
X84789952Y-56174000D01*
X85170904Y-56174000D01*
X85266142Y-56126380D01*
X85313761Y-56078761D01*
X85361380Y-55983523D01*
X85361380Y-55793047D01*
X85313761Y-55697809D01*
X85266142Y-55650190D01*
X85170904Y-55602571D01*
X84932809Y-55602571D01*
X84837571Y-55650190D01*
X84789952Y-55697809D01*
X84742333Y-55793047D01*
X84742333Y-55983523D01*
X84789952Y-56078761D01*
X84837571Y-56126380D01*
X84932809Y-56174000D01*
%TO.C,CE401*%
X41932942Y-28190628D02*
X41980561Y-28238247D01*
X42028180Y-28381104D01*
X42028180Y-28476342D01*
X41980561Y-28619200D01*
X41885323Y-28714438D01*
X41790085Y-28762057D01*
X41599609Y-28809676D01*
X41456752Y-28809676D01*
X41266276Y-28762057D01*
X41171038Y-28714438D01*
X41075800Y-28619200D01*
X41028180Y-28476342D01*
X41028180Y-28381104D01*
X41075800Y-28238247D01*
X41123419Y-28190628D01*
X41504371Y-27762057D02*
X41504371Y-27428723D01*
X42028180Y-27285866D02*
X42028180Y-27762057D01*
X41028180Y-27762057D01*
X41028180Y-27285866D01*
X41361514Y-26428723D02*
X42028180Y-26428723D01*
X40980561Y-26666819D02*
X41694847Y-26904914D01*
X41694847Y-26285866D01*
X41028180Y-25714438D02*
X41028180Y-25619200D01*
X41075800Y-25523961D01*
X41123419Y-25476342D01*
X41218657Y-25428723D01*
X41409133Y-25381104D01*
X41647228Y-25381104D01*
X41837704Y-25428723D01*
X41932942Y-25476342D01*
X41980561Y-25523961D01*
X42028180Y-25619200D01*
X42028180Y-25714438D01*
X41980561Y-25809676D01*
X41932942Y-25857295D01*
X41837704Y-25904914D01*
X41647228Y-25952533D01*
X41409133Y-25952533D01*
X41218657Y-25904914D01*
X41123419Y-25857295D01*
X41075800Y-25809676D01*
X41028180Y-25714438D01*
X42028180Y-24428723D02*
X42028180Y-25000152D01*
X42028180Y-24714438D02*
X41028180Y-24714438D01*
X41171038Y-24809676D01*
X41266276Y-24904914D01*
X41313895Y-25000152D01*
X68466914Y-31913580D02*
X67990723Y-31913580D01*
X67943104Y-32389771D01*
X67990723Y-32342152D01*
X68085961Y-32294533D01*
X68324057Y-32294533D01*
X68419295Y-32342152D01*
X68466914Y-32389771D01*
X68514533Y-32485009D01*
X68514533Y-32723104D01*
X68466914Y-32818342D01*
X68419295Y-32865961D01*
X68324057Y-32913580D01*
X68085961Y-32913580D01*
X67990723Y-32865961D01*
X67943104Y-32818342D01*
X69133580Y-31913580D02*
X69228819Y-31913580D01*
X69324057Y-31961200D01*
X69371676Y-32008819D01*
X69419295Y-32104057D01*
X69466914Y-32294533D01*
X69466914Y-32532628D01*
X69419295Y-32723104D01*
X69371676Y-32818342D01*
X69324057Y-32865961D01*
X69228819Y-32913580D01*
X69133580Y-32913580D01*
X69038342Y-32865961D01*
X68990723Y-32818342D01*
X68943104Y-32723104D01*
X68895485Y-32532628D01*
X68895485Y-32294533D01*
X68943104Y-32104057D01*
X68990723Y-32008819D01*
X69038342Y-31961200D01*
X69133580Y-31913580D01*
X69895485Y-32913580D02*
X69895485Y-31913580D01*
X70276438Y-31913580D01*
X70371676Y-31961200D01*
X70419295Y-32008819D01*
X70466914Y-32104057D01*
X70466914Y-32246914D01*
X70419295Y-32342152D01*
X70371676Y-32389771D01*
X70276438Y-32437390D01*
X69895485Y-32437390D01*
X70895485Y-32913580D02*
X70895485Y-32246914D01*
X70895485Y-31913580D02*
X70847866Y-31961200D01*
X70895485Y-32008819D01*
X70943104Y-31961200D01*
X70895485Y-31913580D01*
X70895485Y-32008819D01*
X71371676Y-32246914D02*
X71371676Y-32913580D01*
X71371676Y-32342152D02*
X71419295Y-32294533D01*
X71514533Y-32246914D01*
X71657390Y-32246914D01*
X71752628Y-32294533D01*
X71800247Y-32389771D01*
X71800247Y-32913580D01*
X73038342Y-32389771D02*
X73371676Y-32389771D01*
X73514533Y-32913580D02*
X73038342Y-32913580D01*
X73038342Y-31913580D01*
X73514533Y-31913580D01*
X73847866Y-32913580D02*
X74371676Y-32246914D01*
X73847866Y-32246914D02*
X74371676Y-32913580D01*
X74752628Y-32246914D02*
X74752628Y-33246914D01*
X74752628Y-32294533D02*
X74847866Y-32246914D01*
X75038342Y-32246914D01*
X75133580Y-32294533D01*
X75181200Y-32342152D01*
X75228819Y-32437390D01*
X75228819Y-32723104D01*
X75181200Y-32818342D01*
X75133580Y-32865961D01*
X75038342Y-32913580D01*
X74847866Y-32913580D01*
X74752628Y-32865961D01*
X76085961Y-32913580D02*
X76085961Y-32389771D01*
X76038342Y-32294533D01*
X75943104Y-32246914D01*
X75752628Y-32246914D01*
X75657390Y-32294533D01*
X76085961Y-32865961D02*
X75990723Y-32913580D01*
X75752628Y-32913580D01*
X75657390Y-32865961D01*
X75609771Y-32770723D01*
X75609771Y-32675485D01*
X75657390Y-32580247D01*
X75752628Y-32532628D01*
X75990723Y-32532628D01*
X76085961Y-32485009D01*
X76562152Y-32246914D02*
X76562152Y-32913580D01*
X76562152Y-32342152D02*
X76609771Y-32294533D01*
X76705009Y-32246914D01*
X76847866Y-32246914D01*
X76943104Y-32294533D01*
X76990723Y-32389771D01*
X76990723Y-32913580D01*
X77419295Y-32865961D02*
X77514533Y-32913580D01*
X77705009Y-32913580D01*
X77800247Y-32865961D01*
X77847866Y-32770723D01*
X77847866Y-32723104D01*
X77800247Y-32627866D01*
X77705009Y-32580247D01*
X77562152Y-32580247D01*
X77466914Y-32532628D01*
X77419295Y-32437390D01*
X77419295Y-32389771D01*
X77466914Y-32294533D01*
X77562152Y-32246914D01*
X77705009Y-32246914D01*
X77800247Y-32294533D01*
X78276438Y-32913580D02*
X78276438Y-32246914D01*
X78276438Y-31913580D02*
X78228819Y-31961200D01*
X78276438Y-32008819D01*
X78324057Y-31961200D01*
X78276438Y-31913580D01*
X78276438Y-32008819D01*
X78895485Y-32913580D02*
X78800247Y-32865961D01*
X78752628Y-32818342D01*
X78705009Y-32723104D01*
X78705009Y-32437390D01*
X78752628Y-32342152D01*
X78800247Y-32294533D01*
X78895485Y-32246914D01*
X79038342Y-32246914D01*
X79133580Y-32294533D01*
X79181200Y-32342152D01*
X79228819Y-32437390D01*
X79228819Y-32723104D01*
X79181200Y-32818342D01*
X79133580Y-32865961D01*
X79038342Y-32913580D01*
X78895485Y-32913580D01*
X79657390Y-32246914D02*
X79657390Y-32913580D01*
X79657390Y-32342152D02*
X79705009Y-32294533D01*
X79800247Y-32246914D01*
X79943104Y-32246914D01*
X80038342Y-32294533D01*
X80085961Y-32389771D01*
X80085961Y-32913580D01*
X81895485Y-32818342D02*
X81847866Y-32865961D01*
X81705009Y-32913580D01*
X81609771Y-32913580D01*
X81466914Y-32865961D01*
X81371676Y-32770723D01*
X81324057Y-32675485D01*
X81276438Y-32485009D01*
X81276438Y-32342152D01*
X81324057Y-32151676D01*
X81371676Y-32056438D01*
X81466914Y-31961200D01*
X81609771Y-31913580D01*
X81705009Y-31913580D01*
X81847866Y-31961200D01*
X81895485Y-32008819D01*
X82466914Y-32913580D02*
X82371676Y-32865961D01*
X82324057Y-32818342D01*
X82276438Y-32723104D01*
X82276438Y-32437390D01*
X82324057Y-32342152D01*
X82371676Y-32294533D01*
X82466914Y-32246914D01*
X82609771Y-32246914D01*
X82705009Y-32294533D01*
X82752628Y-32342152D01*
X82800247Y-32437390D01*
X82800247Y-32723104D01*
X82752628Y-32818342D01*
X82705009Y-32865961D01*
X82609771Y-32913580D01*
X82466914Y-32913580D01*
X83228819Y-32246914D02*
X83228819Y-32913580D01*
X83228819Y-32342152D02*
X83276438Y-32294533D01*
X83371676Y-32246914D01*
X83514533Y-32246914D01*
X83609771Y-32294533D01*
X83657390Y-32389771D01*
X83657390Y-32913580D01*
X84133580Y-32246914D02*
X84133580Y-32913580D01*
X84133580Y-32342152D02*
X84181200Y-32294533D01*
X84276438Y-32246914D01*
X84419295Y-32246914D01*
X84514533Y-32294533D01*
X84562152Y-32389771D01*
X84562152Y-32913580D01*
X85419295Y-32865961D02*
X85324057Y-32913580D01*
X85133580Y-32913580D01*
X85038342Y-32865961D01*
X84990723Y-32770723D01*
X84990723Y-32389771D01*
X85038342Y-32294533D01*
X85133580Y-32246914D01*
X85324057Y-32246914D01*
X85419295Y-32294533D01*
X85466914Y-32389771D01*
X85466914Y-32485009D01*
X84990723Y-32580247D01*
X86324057Y-32865961D02*
X86228819Y-32913580D01*
X86038342Y-32913580D01*
X85943104Y-32865961D01*
X85895485Y-32818342D01*
X85847866Y-32723104D01*
X85847866Y-32437390D01*
X85895485Y-32342152D01*
X85943104Y-32294533D01*
X86038342Y-32246914D01*
X86228819Y-32246914D01*
X86324057Y-32294533D01*
X86609771Y-32246914D02*
X86990723Y-32246914D01*
X86752628Y-31913580D02*
X86752628Y-32770723D01*
X86800247Y-32865961D01*
X86895485Y-32913580D01*
X86990723Y-32913580D01*
X87466914Y-32913580D02*
X87371676Y-32865961D01*
X87324057Y-32818342D01*
X87276438Y-32723104D01*
X87276438Y-32437390D01*
X87324057Y-32342152D01*
X87371676Y-32294533D01*
X87466914Y-32246914D01*
X87609771Y-32246914D01*
X87705009Y-32294533D01*
X87752628Y-32342152D01*
X87800247Y-32437390D01*
X87800247Y-32723104D01*
X87752628Y-32818342D01*
X87705009Y-32865961D01*
X87609771Y-32913580D01*
X87466914Y-32913580D01*
X88228819Y-32913580D02*
X88228819Y-32246914D01*
X88228819Y-32437390D02*
X88276438Y-32342152D01*
X88324057Y-32294533D01*
X88419295Y-32246914D01*
X88514533Y-32246914D01*
%TO.C,R458*%
X105941952Y-97913180D02*
X105608619Y-97436990D01*
X105370523Y-97913180D02*
X105370523Y-96913180D01*
X105751476Y-96913180D01*
X105846714Y-96960800D01*
X105894333Y-97008419D01*
X105941952Y-97103657D01*
X105941952Y-97246514D01*
X105894333Y-97341752D01*
X105846714Y-97389371D01*
X105751476Y-97436990D01*
X105370523Y-97436990D01*
X106799095Y-97246514D02*
X106799095Y-97913180D01*
X106561000Y-96865561D02*
X106322904Y-97579847D01*
X106941952Y-97579847D01*
X107799095Y-96913180D02*
X107322904Y-96913180D01*
X107275285Y-97389371D01*
X107322904Y-97341752D01*
X107418142Y-97294133D01*
X107656238Y-97294133D01*
X107751476Y-97341752D01*
X107799095Y-97389371D01*
X107846714Y-97484609D01*
X107846714Y-97722704D01*
X107799095Y-97817942D01*
X107751476Y-97865561D01*
X107656238Y-97913180D01*
X107418142Y-97913180D01*
X107322904Y-97865561D01*
X107275285Y-97817942D01*
X108418142Y-97341752D02*
X108322904Y-97294133D01*
X108275285Y-97246514D01*
X108227666Y-97151276D01*
X108227666Y-97103657D01*
X108275285Y-97008419D01*
X108322904Y-96960800D01*
X108418142Y-96913180D01*
X108608619Y-96913180D01*
X108703857Y-96960800D01*
X108751476Y-97008419D01*
X108799095Y-97103657D01*
X108799095Y-97151276D01*
X108751476Y-97246514D01*
X108703857Y-97294133D01*
X108608619Y-97341752D01*
X108418142Y-97341752D01*
X108322904Y-97389371D01*
X108275285Y-97436990D01*
X108227666Y-97532228D01*
X108227666Y-97722704D01*
X108275285Y-97817942D01*
X108322904Y-97865561D01*
X108418142Y-97913180D01*
X108608619Y-97913180D01*
X108703857Y-97865561D01*
X108751476Y-97817942D01*
X108799095Y-97722704D01*
X108799095Y-97532228D01*
X108751476Y-97436990D01*
X108703857Y-97389371D01*
X108608619Y-97341752D01*
%TO.C,IC405*%
X86155180Y-80312971D02*
X85155180Y-80312971D01*
X86059942Y-79265352D02*
X86107561Y-79312971D01*
X86155180Y-79455828D01*
X86155180Y-79551066D01*
X86107561Y-79693923D01*
X86012323Y-79789161D01*
X85917085Y-79836780D01*
X85726609Y-79884400D01*
X85583752Y-79884400D01*
X85393276Y-79836780D01*
X85298038Y-79789161D01*
X85202800Y-79693923D01*
X85155180Y-79551066D01*
X85155180Y-79455828D01*
X85202800Y-79312971D01*
X85250419Y-79265352D01*
X85488514Y-78408209D02*
X86155180Y-78408209D01*
X85107561Y-78646304D02*
X85821847Y-78884400D01*
X85821847Y-78265352D01*
X85155180Y-77693923D02*
X85155180Y-77598685D01*
X85202800Y-77503447D01*
X85250419Y-77455828D01*
X85345657Y-77408209D01*
X85536133Y-77360590D01*
X85774228Y-77360590D01*
X85964704Y-77408209D01*
X86059942Y-77455828D01*
X86107561Y-77503447D01*
X86155180Y-77598685D01*
X86155180Y-77693923D01*
X86107561Y-77789161D01*
X86059942Y-77836780D01*
X85964704Y-77884400D01*
X85774228Y-77932019D01*
X85536133Y-77932019D01*
X85345657Y-77884400D01*
X85250419Y-77836780D01*
X85202800Y-77789161D01*
X85155180Y-77693923D01*
X85155180Y-76455828D02*
X85155180Y-76932019D01*
X85631371Y-76979638D01*
X85583752Y-76932019D01*
X85536133Y-76836780D01*
X85536133Y-76598685D01*
X85583752Y-76503447D01*
X85631371Y-76455828D01*
X85726609Y-76408209D01*
X85964704Y-76408209D01*
X86059942Y-76455828D01*
X86107561Y-76503447D01*
X86155180Y-76598685D01*
X86155180Y-76836780D01*
X86107561Y-76932019D01*
X86059942Y-76979638D01*
X95715180Y-81027257D02*
X95715180Y-80360590D01*
X96715180Y-80789161D01*
X96048514Y-79551066D02*
X96715180Y-79551066D01*
X95667561Y-79789161D02*
X96381847Y-80027257D01*
X96381847Y-79408209D01*
X96715180Y-78551066D02*
X96715180Y-79027257D01*
X95715180Y-79027257D01*
X96667561Y-78265352D02*
X96715180Y-78122495D01*
X96715180Y-77884400D01*
X96667561Y-77789161D01*
X96619942Y-77741542D01*
X96524704Y-77693923D01*
X96429466Y-77693923D01*
X96334228Y-77741542D01*
X96286609Y-77789161D01*
X96238990Y-77884400D01*
X96191371Y-78074876D01*
X96143752Y-78170114D01*
X96096133Y-78217733D01*
X96000895Y-78265352D01*
X95905657Y-78265352D01*
X95810419Y-78217733D01*
X95762800Y-78170114D01*
X95715180Y-78074876D01*
X95715180Y-77836780D01*
X95762800Y-77693923D01*
X95715180Y-77074876D02*
X95715180Y-76979638D01*
X95762800Y-76884400D01*
X95810419Y-76836780D01*
X95905657Y-76789161D01*
X96096133Y-76741542D01*
X96334228Y-76741542D01*
X96524704Y-76789161D01*
X96619942Y-76836780D01*
X96667561Y-76884400D01*
X96715180Y-76979638D01*
X96715180Y-77074876D01*
X96667561Y-77170114D01*
X96619942Y-77217733D01*
X96524704Y-77265352D01*
X96334228Y-77312971D01*
X96096133Y-77312971D01*
X95905657Y-77265352D01*
X95810419Y-77217733D01*
X95762800Y-77170114D01*
X95715180Y-77074876D01*
X96143752Y-76170114D02*
X96096133Y-76265352D01*
X96048514Y-76312971D01*
X95953276Y-76360590D01*
X95905657Y-76360590D01*
X95810419Y-76312971D01*
X95762800Y-76265352D01*
X95715180Y-76170114D01*
X95715180Y-75979638D01*
X95762800Y-75884400D01*
X95810419Y-75836780D01*
X95905657Y-75789161D01*
X95953276Y-75789161D01*
X96048514Y-75836780D01*
X96096133Y-75884400D01*
X96143752Y-75979638D01*
X96143752Y-76170114D01*
X96191371Y-76265352D01*
X96238990Y-76312971D01*
X96334228Y-76360590D01*
X96524704Y-76360590D01*
X96619942Y-76312971D01*
X96667561Y-76265352D01*
X96715180Y-76170114D01*
X96715180Y-75979638D01*
X96667561Y-75884400D01*
X96619942Y-75836780D01*
X96524704Y-75789161D01*
X96334228Y-75789161D01*
X96238990Y-75836780D01*
X96191371Y-75884400D01*
X96143752Y-75979638D01*
%TO.C,IC403*%
X103354428Y-79005180D02*
X103354428Y-78005180D01*
X104402047Y-78909942D02*
X104354428Y-78957561D01*
X104211571Y-79005180D01*
X104116333Y-79005180D01*
X103973476Y-78957561D01*
X103878238Y-78862323D01*
X103830619Y-78767085D01*
X103783000Y-78576609D01*
X103783000Y-78433752D01*
X103830619Y-78243276D01*
X103878238Y-78148038D01*
X103973476Y-78052800D01*
X104116333Y-78005180D01*
X104211571Y-78005180D01*
X104354428Y-78052800D01*
X104402047Y-78100419D01*
X105259190Y-78338514D02*
X105259190Y-79005180D01*
X105021095Y-77957561D02*
X104783000Y-78671847D01*
X105402047Y-78671847D01*
X105973476Y-78005180D02*
X106068714Y-78005180D01*
X106163952Y-78052800D01*
X106211571Y-78100419D01*
X106259190Y-78195657D01*
X106306809Y-78386133D01*
X106306809Y-78624228D01*
X106259190Y-78814704D01*
X106211571Y-78909942D01*
X106163952Y-78957561D01*
X106068714Y-79005180D01*
X105973476Y-79005180D01*
X105878238Y-78957561D01*
X105830619Y-78909942D01*
X105783000Y-78814704D01*
X105735380Y-78624228D01*
X105735380Y-78386133D01*
X105783000Y-78195657D01*
X105830619Y-78100419D01*
X105878238Y-78052800D01*
X105973476Y-78005180D01*
X106640142Y-78005180D02*
X107259190Y-78005180D01*
X106925857Y-78386133D01*
X107068714Y-78386133D01*
X107163952Y-78433752D01*
X107211571Y-78481371D01*
X107259190Y-78576609D01*
X107259190Y-78814704D01*
X107211571Y-78909942D01*
X107163952Y-78957561D01*
X107068714Y-79005180D01*
X106783000Y-79005180D01*
X106687761Y-78957561D01*
X106640142Y-78909942D01*
X102021095Y-92705180D02*
X102687761Y-92705180D01*
X102259190Y-93705180D01*
X103497285Y-93038514D02*
X103497285Y-93705180D01*
X103259190Y-92657561D02*
X103021095Y-93371847D01*
X103640142Y-93371847D01*
X104021095Y-93705180D02*
X104021095Y-92705180D01*
X104021095Y-93181371D02*
X104592523Y-93181371D01*
X104592523Y-93705180D02*
X104592523Y-92705180D01*
X105640142Y-93609942D02*
X105592523Y-93657561D01*
X105449666Y-93705180D01*
X105354428Y-93705180D01*
X105211571Y-93657561D01*
X105116333Y-93562323D01*
X105068714Y-93467085D01*
X105021095Y-93276609D01*
X105021095Y-93133752D01*
X105068714Y-92943276D01*
X105116333Y-92848038D01*
X105211571Y-92752800D01*
X105354428Y-92705180D01*
X105449666Y-92705180D01*
X105592523Y-92752800D01*
X105640142Y-92800419D01*
X106021095Y-92800419D02*
X106068714Y-92752800D01*
X106163952Y-92705180D01*
X106402047Y-92705180D01*
X106497285Y-92752800D01*
X106544904Y-92800419D01*
X106592523Y-92895657D01*
X106592523Y-92990895D01*
X106544904Y-93133752D01*
X105973476Y-93705180D01*
X106592523Y-93705180D01*
X107449666Y-93038514D02*
X107449666Y-93705180D01*
X107211571Y-92657561D02*
X106973476Y-93371847D01*
X107592523Y-93371847D01*
X108163952Y-92705180D02*
X108259190Y-92705180D01*
X108354428Y-92752800D01*
X108402047Y-92800419D01*
X108449666Y-92895657D01*
X108497285Y-93086133D01*
X108497285Y-93324228D01*
X108449666Y-93514704D01*
X108402047Y-93609942D01*
X108354428Y-93657561D01*
X108259190Y-93705180D01*
X108163952Y-93705180D01*
X108068714Y-93657561D01*
X108021095Y-93609942D01*
X107973476Y-93514704D01*
X107925857Y-93324228D01*
X107925857Y-93086133D01*
X107973476Y-92895657D01*
X108021095Y-92800419D01*
X108068714Y-92752800D01*
X108163952Y-92705180D01*
%TO.C,C451*%
X72845752Y-74753742D02*
X72798133Y-74801361D01*
X72655276Y-74848980D01*
X72560038Y-74848980D01*
X72417180Y-74801361D01*
X72321942Y-74706123D01*
X72274323Y-74610885D01*
X72226704Y-74420409D01*
X72226704Y-74277552D01*
X72274323Y-74087076D01*
X72321942Y-73991838D01*
X72417180Y-73896600D01*
X72560038Y-73848980D01*
X72655276Y-73848980D01*
X72798133Y-73896600D01*
X72845752Y-73944219D01*
X73702895Y-74182314D02*
X73702895Y-74848980D01*
X73464800Y-73801361D02*
X73226704Y-74515647D01*
X73845752Y-74515647D01*
X74702895Y-73848980D02*
X74226704Y-73848980D01*
X74179085Y-74325171D01*
X74226704Y-74277552D01*
X74321942Y-74229933D01*
X74560038Y-74229933D01*
X74655276Y-74277552D01*
X74702895Y-74325171D01*
X74750514Y-74420409D01*
X74750514Y-74658504D01*
X74702895Y-74753742D01*
X74655276Y-74801361D01*
X74560038Y-74848980D01*
X74321942Y-74848980D01*
X74226704Y-74801361D01*
X74179085Y-74753742D01*
X75702895Y-74848980D02*
X75131466Y-74848980D01*
X75417180Y-74848980D02*
X75417180Y-73848980D01*
X75321942Y-73991838D01*
X75226704Y-74087076D01*
X75131466Y-74134695D01*
%TO.C,R418*%
X91692552Y-87904580D02*
X91359219Y-87428390D01*
X91121123Y-87904580D02*
X91121123Y-86904580D01*
X91502076Y-86904580D01*
X91597314Y-86952200D01*
X91644933Y-86999819D01*
X91692552Y-87095057D01*
X91692552Y-87237914D01*
X91644933Y-87333152D01*
X91597314Y-87380771D01*
X91502076Y-87428390D01*
X91121123Y-87428390D01*
X92549695Y-87237914D02*
X92549695Y-87904580D01*
X92311600Y-86856961D02*
X92073504Y-87571247D01*
X92692552Y-87571247D01*
X93597314Y-87904580D02*
X93025885Y-87904580D01*
X93311600Y-87904580D02*
X93311600Y-86904580D01*
X93216361Y-87047438D01*
X93121123Y-87142676D01*
X93025885Y-87190295D01*
X94168742Y-87333152D02*
X94073504Y-87285533D01*
X94025885Y-87237914D01*
X93978266Y-87142676D01*
X93978266Y-87095057D01*
X94025885Y-86999819D01*
X94073504Y-86952200D01*
X94168742Y-86904580D01*
X94359219Y-86904580D01*
X94454457Y-86952200D01*
X94502076Y-86999819D01*
X94549695Y-87095057D01*
X94549695Y-87142676D01*
X94502076Y-87237914D01*
X94454457Y-87285533D01*
X94359219Y-87333152D01*
X94168742Y-87333152D01*
X94073504Y-87380771D01*
X94025885Y-87428390D01*
X93978266Y-87523628D01*
X93978266Y-87714104D01*
X94025885Y-87809342D01*
X94073504Y-87856961D01*
X94168742Y-87904580D01*
X94359219Y-87904580D01*
X94454457Y-87856961D01*
X94502076Y-87809342D01*
X94549695Y-87714104D01*
X94549695Y-87523628D01*
X94502076Y-87428390D01*
X94454457Y-87380771D01*
X94359219Y-87333152D01*
%TO.C,R406*%
X122324952Y-33295580D02*
X121991619Y-32819390D01*
X121753523Y-33295580D02*
X121753523Y-32295580D01*
X122134476Y-32295580D01*
X122229714Y-32343200D01*
X122277333Y-32390819D01*
X122324952Y-32486057D01*
X122324952Y-32628914D01*
X122277333Y-32724152D01*
X122229714Y-32771771D01*
X122134476Y-32819390D01*
X121753523Y-32819390D01*
X123182095Y-32628914D02*
X123182095Y-33295580D01*
X122944000Y-32247961D02*
X122705904Y-32962247D01*
X123324952Y-32962247D01*
X123896380Y-32295580D02*
X123991619Y-32295580D01*
X124086857Y-32343200D01*
X124134476Y-32390819D01*
X124182095Y-32486057D01*
X124229714Y-32676533D01*
X124229714Y-32914628D01*
X124182095Y-33105104D01*
X124134476Y-33200342D01*
X124086857Y-33247961D01*
X123991619Y-33295580D01*
X123896380Y-33295580D01*
X123801142Y-33247961D01*
X123753523Y-33200342D01*
X123705904Y-33105104D01*
X123658285Y-32914628D01*
X123658285Y-32676533D01*
X123705904Y-32486057D01*
X123753523Y-32390819D01*
X123801142Y-32343200D01*
X123896380Y-32295580D01*
X125086857Y-32295580D02*
X124896380Y-32295580D01*
X124801142Y-32343200D01*
X124753523Y-32390819D01*
X124658285Y-32533676D01*
X124610666Y-32724152D01*
X124610666Y-33105104D01*
X124658285Y-33200342D01*
X124705904Y-33247961D01*
X124801142Y-33295580D01*
X124991619Y-33295580D01*
X125086857Y-33247961D01*
X125134476Y-33200342D01*
X125182095Y-33105104D01*
X125182095Y-32867009D01*
X125134476Y-32771771D01*
X125086857Y-32724152D01*
X124991619Y-32676533D01*
X124801142Y-32676533D01*
X124705904Y-32724152D01*
X124658285Y-32771771D01*
X124610666Y-32867009D01*
%TO.C,IC411*%
X88796780Y-51204571D02*
X87796780Y-51204571D01*
X88701542Y-50156952D02*
X88749161Y-50204571D01*
X88796780Y-50347428D01*
X88796780Y-50442666D01*
X88749161Y-50585523D01*
X88653923Y-50680761D01*
X88558685Y-50728380D01*
X88368209Y-50776000D01*
X88225352Y-50776000D01*
X88034876Y-50728380D01*
X87939638Y-50680761D01*
X87844400Y-50585523D01*
X87796780Y-50442666D01*
X87796780Y-50347428D01*
X87844400Y-50204571D01*
X87892019Y-50156952D01*
X88130114Y-49299809D02*
X88796780Y-49299809D01*
X87749161Y-49537904D02*
X88463447Y-49776000D01*
X88463447Y-49156952D01*
X88796780Y-48252190D02*
X88796780Y-48823619D01*
X88796780Y-48537904D02*
X87796780Y-48537904D01*
X87939638Y-48633142D01*
X88034876Y-48728380D01*
X88082495Y-48823619D01*
X88796780Y-47299809D02*
X88796780Y-47871238D01*
X88796780Y-47585523D02*
X87796780Y-47585523D01*
X87939638Y-47680761D01*
X88034876Y-47776000D01*
X88082495Y-47871238D01*
X98356780Y-51918857D02*
X98356780Y-51252190D01*
X99356780Y-51680761D01*
X98690114Y-50442666D02*
X99356780Y-50442666D01*
X98309161Y-50680761D02*
X99023447Y-50918857D01*
X99023447Y-50299809D01*
X99356780Y-49442666D02*
X99356780Y-49918857D01*
X98356780Y-49918857D01*
X99309161Y-49156952D02*
X99356780Y-49014095D01*
X99356780Y-48776000D01*
X99309161Y-48680761D01*
X99261542Y-48633142D01*
X99166304Y-48585523D01*
X99071066Y-48585523D01*
X98975828Y-48633142D01*
X98928209Y-48680761D01*
X98880590Y-48776000D01*
X98832971Y-48966476D01*
X98785352Y-49061714D01*
X98737733Y-49109333D01*
X98642495Y-49156952D01*
X98547257Y-49156952D01*
X98452019Y-49109333D01*
X98404400Y-49061714D01*
X98356780Y-48966476D01*
X98356780Y-48728380D01*
X98404400Y-48585523D01*
X98452019Y-48204571D02*
X98404400Y-48156952D01*
X98356780Y-48061714D01*
X98356780Y-47823619D01*
X98404400Y-47728380D01*
X98452019Y-47680761D01*
X98547257Y-47633142D01*
X98642495Y-47633142D01*
X98785352Y-47680761D01*
X99356780Y-48252190D01*
X99356780Y-47633142D01*
X98356780Y-47299809D02*
X98356780Y-46633142D01*
X99356780Y-47061714D01*
%TO.C,C454*%
X71093152Y-67536542D02*
X71045533Y-67584161D01*
X70902676Y-67631780D01*
X70807438Y-67631780D01*
X70664580Y-67584161D01*
X70569342Y-67488923D01*
X70521723Y-67393685D01*
X70474104Y-67203209D01*
X70474104Y-67060352D01*
X70521723Y-66869876D01*
X70569342Y-66774638D01*
X70664580Y-66679400D01*
X70807438Y-66631780D01*
X70902676Y-66631780D01*
X71045533Y-66679400D01*
X71093152Y-66727019D01*
X71950295Y-66965114D02*
X71950295Y-67631780D01*
X71712200Y-66584161D02*
X71474104Y-67298447D01*
X72093152Y-67298447D01*
X72950295Y-66631780D02*
X72474104Y-66631780D01*
X72426485Y-67107971D01*
X72474104Y-67060352D01*
X72569342Y-67012733D01*
X72807438Y-67012733D01*
X72902676Y-67060352D01*
X72950295Y-67107971D01*
X72997914Y-67203209D01*
X72997914Y-67441304D01*
X72950295Y-67536542D01*
X72902676Y-67584161D01*
X72807438Y-67631780D01*
X72569342Y-67631780D01*
X72474104Y-67584161D01*
X72426485Y-67536542D01*
X73855057Y-66965114D02*
X73855057Y-67631780D01*
X73616961Y-66584161D02*
X73378866Y-67298447D01*
X73997914Y-67298447D01*
%TO.C,IC406*%
X105665828Y-50366580D02*
X105665828Y-49366580D01*
X106713447Y-50271342D02*
X106665828Y-50318961D01*
X106522971Y-50366580D01*
X106427733Y-50366580D01*
X106284876Y-50318961D01*
X106189638Y-50223723D01*
X106142019Y-50128485D01*
X106094400Y-49938009D01*
X106094400Y-49795152D01*
X106142019Y-49604676D01*
X106189638Y-49509438D01*
X106284876Y-49414200D01*
X106427733Y-49366580D01*
X106522971Y-49366580D01*
X106665828Y-49414200D01*
X106713447Y-49461819D01*
X107570590Y-49699914D02*
X107570590Y-50366580D01*
X107332495Y-49318961D02*
X107094400Y-50033247D01*
X107713447Y-50033247D01*
X108284876Y-49366580D02*
X108380114Y-49366580D01*
X108475352Y-49414200D01*
X108522971Y-49461819D01*
X108570590Y-49557057D01*
X108618209Y-49747533D01*
X108618209Y-49985628D01*
X108570590Y-50176104D01*
X108522971Y-50271342D01*
X108475352Y-50318961D01*
X108380114Y-50366580D01*
X108284876Y-50366580D01*
X108189638Y-50318961D01*
X108142019Y-50271342D01*
X108094400Y-50176104D01*
X108046780Y-49985628D01*
X108046780Y-49747533D01*
X108094400Y-49557057D01*
X108142019Y-49461819D01*
X108189638Y-49414200D01*
X108284876Y-49366580D01*
X109475352Y-49366580D02*
X109284876Y-49366580D01*
X109189638Y-49414200D01*
X109142019Y-49461819D01*
X109046780Y-49604676D01*
X108999161Y-49795152D01*
X108999161Y-50176104D01*
X109046780Y-50271342D01*
X109094400Y-50318961D01*
X109189638Y-50366580D01*
X109380114Y-50366580D01*
X109475352Y-50318961D01*
X109522971Y-50271342D01*
X109570590Y-50176104D01*
X109570590Y-49938009D01*
X109522971Y-49842771D01*
X109475352Y-49795152D01*
X109380114Y-49747533D01*
X109189638Y-49747533D01*
X109094400Y-49795152D01*
X109046780Y-49842771D01*
X108999161Y-49938009D01*
X104951542Y-59926580D02*
X105618209Y-59926580D01*
X105189638Y-60926580D01*
X106427733Y-60259914D02*
X106427733Y-60926580D01*
X106189638Y-59878961D02*
X105951542Y-60593247D01*
X106570590Y-60593247D01*
X107427733Y-60926580D02*
X106951542Y-60926580D01*
X106951542Y-59926580D01*
X107713447Y-60878961D02*
X107856304Y-60926580D01*
X108094400Y-60926580D01*
X108189638Y-60878961D01*
X108237257Y-60831342D01*
X108284876Y-60736104D01*
X108284876Y-60640866D01*
X108237257Y-60545628D01*
X108189638Y-60498009D01*
X108094400Y-60450390D01*
X107903923Y-60402771D01*
X107808685Y-60355152D01*
X107761066Y-60307533D01*
X107713447Y-60212295D01*
X107713447Y-60117057D01*
X107761066Y-60021819D01*
X107808685Y-59974200D01*
X107903923Y-59926580D01*
X108142019Y-59926580D01*
X108284876Y-59974200D01*
X108618209Y-59926580D02*
X109237257Y-59926580D01*
X108903923Y-60307533D01*
X109046780Y-60307533D01*
X109142019Y-60355152D01*
X109189638Y-60402771D01*
X109237257Y-60498009D01*
X109237257Y-60736104D01*
X109189638Y-60831342D01*
X109142019Y-60878961D01*
X109046780Y-60926580D01*
X108761066Y-60926580D01*
X108665828Y-60878961D01*
X108618209Y-60831342D01*
X109808685Y-60355152D02*
X109713447Y-60307533D01*
X109665828Y-60259914D01*
X109618209Y-60164676D01*
X109618209Y-60117057D01*
X109665828Y-60021819D01*
X109713447Y-59974200D01*
X109808685Y-59926580D01*
X109999161Y-59926580D01*
X110094400Y-59974200D01*
X110142019Y-60021819D01*
X110189638Y-60117057D01*
X110189638Y-60164676D01*
X110142019Y-60259914D01*
X110094400Y-60307533D01*
X109999161Y-60355152D01*
X109808685Y-60355152D01*
X109713447Y-60402771D01*
X109665828Y-60450390D01*
X109618209Y-60545628D01*
X109618209Y-60736104D01*
X109665828Y-60831342D01*
X109713447Y-60878961D01*
X109808685Y-60926580D01*
X109999161Y-60926580D01*
X110094400Y-60878961D01*
X110142019Y-60831342D01*
X110189638Y-60736104D01*
X110189638Y-60545628D01*
X110142019Y-60450390D01*
X110094400Y-60402771D01*
X109999161Y-60355152D01*
%TO.C,IC407*%
X74801380Y-51204571D02*
X73801380Y-51204571D01*
X74706142Y-50156952D02*
X74753761Y-50204571D01*
X74801380Y-50347428D01*
X74801380Y-50442666D01*
X74753761Y-50585523D01*
X74658523Y-50680761D01*
X74563285Y-50728380D01*
X74372809Y-50776000D01*
X74229952Y-50776000D01*
X74039476Y-50728380D01*
X73944238Y-50680761D01*
X73849000Y-50585523D01*
X73801380Y-50442666D01*
X73801380Y-50347428D01*
X73849000Y-50204571D01*
X73896619Y-50156952D01*
X74134714Y-49299809D02*
X74801380Y-49299809D01*
X73753761Y-49537904D02*
X74468047Y-49776000D01*
X74468047Y-49156952D01*
X73801380Y-48585523D02*
X73801380Y-48490285D01*
X73849000Y-48395047D01*
X73896619Y-48347428D01*
X73991857Y-48299809D01*
X74182333Y-48252190D01*
X74420428Y-48252190D01*
X74610904Y-48299809D01*
X74706142Y-48347428D01*
X74753761Y-48395047D01*
X74801380Y-48490285D01*
X74801380Y-48585523D01*
X74753761Y-48680761D01*
X74706142Y-48728380D01*
X74610904Y-48776000D01*
X74420428Y-48823619D01*
X74182333Y-48823619D01*
X73991857Y-48776000D01*
X73896619Y-48728380D01*
X73849000Y-48680761D01*
X73801380Y-48585523D01*
X73801380Y-47918857D02*
X73801380Y-47252190D01*
X74801380Y-47680761D01*
X84361380Y-51918857D02*
X84361380Y-51252190D01*
X85361380Y-51680761D01*
X84694714Y-50442666D02*
X85361380Y-50442666D01*
X84313761Y-50680761D02*
X85028047Y-50918857D01*
X85028047Y-50299809D01*
X85361380Y-49442666D02*
X85361380Y-49918857D01*
X84361380Y-49918857D01*
X85313761Y-49156952D02*
X85361380Y-49014095D01*
X85361380Y-48776000D01*
X85313761Y-48680761D01*
X85266142Y-48633142D01*
X85170904Y-48585523D01*
X85075666Y-48585523D01*
X84980428Y-48633142D01*
X84932809Y-48680761D01*
X84885190Y-48776000D01*
X84837571Y-48966476D01*
X84789952Y-49061714D01*
X84742333Y-49109333D01*
X84647095Y-49156952D01*
X84551857Y-49156952D01*
X84456619Y-49109333D01*
X84409000Y-49061714D01*
X84361380Y-48966476D01*
X84361380Y-48728380D01*
X84409000Y-48585523D01*
X84361380Y-48252190D02*
X84361380Y-47633142D01*
X84742333Y-47966476D01*
X84742333Y-47823619D01*
X84789952Y-47728380D01*
X84837571Y-47680761D01*
X84932809Y-47633142D01*
X85170904Y-47633142D01*
X85266142Y-47680761D01*
X85313761Y-47728380D01*
X85361380Y-47823619D01*
X85361380Y-48109333D01*
X85313761Y-48204571D01*
X85266142Y-48252190D01*
X84456619Y-47252190D02*
X84409000Y-47204571D01*
X84361380Y-47109333D01*
X84361380Y-46871238D01*
X84409000Y-46776000D01*
X84456619Y-46728380D01*
X84551857Y-46680761D01*
X84647095Y-46680761D01*
X84789952Y-46728380D01*
X85361380Y-47299809D01*
X85361380Y-46680761D01*
%TO.C,LK402*%
X122649980Y-100399647D02*
X122649980Y-100875838D01*
X121649980Y-100875838D01*
X122649980Y-100066314D02*
X121649980Y-100066314D01*
X122649980Y-99494885D02*
X122078552Y-99923457D01*
X121649980Y-99494885D02*
X122221409Y-100066314D01*
X121983314Y-98637742D02*
X122649980Y-98637742D01*
X121602361Y-98875838D02*
X122316647Y-99113933D01*
X122316647Y-98494885D01*
X121649980Y-97923457D02*
X121649980Y-97828219D01*
X121697600Y-97732980D01*
X121745219Y-97685361D01*
X121840457Y-97637742D01*
X122030933Y-97590123D01*
X122269028Y-97590123D01*
X122459504Y-97637742D01*
X122554742Y-97685361D01*
X122602361Y-97732980D01*
X122649980Y-97828219D01*
X122649980Y-97923457D01*
X122602361Y-98018695D01*
X122554742Y-98066314D01*
X122459504Y-98113933D01*
X122269028Y-98161552D01*
X122030933Y-98161552D01*
X121840457Y-98113933D01*
X121745219Y-98066314D01*
X121697600Y-98018695D01*
X121649980Y-97923457D01*
X121745219Y-97209171D02*
X121697600Y-97161552D01*
X121649980Y-97066314D01*
X121649980Y-96828219D01*
X121697600Y-96732980D01*
X121745219Y-96685361D01*
X121840457Y-96637742D01*
X121935695Y-96637742D01*
X122078552Y-96685361D01*
X122649980Y-97256790D01*
X122649980Y-96637742D01*
%TO.C,CD402*%
X116983052Y-44498342D02*
X116935433Y-44545961D01*
X116792576Y-44593580D01*
X116697338Y-44593580D01*
X116554480Y-44545961D01*
X116459242Y-44450723D01*
X116411623Y-44355485D01*
X116364004Y-44165009D01*
X116364004Y-44022152D01*
X116411623Y-43831676D01*
X116459242Y-43736438D01*
X116554480Y-43641200D01*
X116697338Y-43593580D01*
X116792576Y-43593580D01*
X116935433Y-43641200D01*
X116983052Y-43688819D01*
X117411623Y-44593580D02*
X117411623Y-43593580D01*
X117649719Y-43593580D01*
X117792576Y-43641200D01*
X117887814Y-43736438D01*
X117935433Y-43831676D01*
X117983052Y-44022152D01*
X117983052Y-44165009D01*
X117935433Y-44355485D01*
X117887814Y-44450723D01*
X117792576Y-44545961D01*
X117649719Y-44593580D01*
X117411623Y-44593580D01*
X118840195Y-43926914D02*
X118840195Y-44593580D01*
X118602100Y-43545961D02*
X118364004Y-44260247D01*
X118983052Y-44260247D01*
X119554480Y-43593580D02*
X119649719Y-43593580D01*
X119744957Y-43641200D01*
X119792576Y-43688819D01*
X119840195Y-43784057D01*
X119887814Y-43974533D01*
X119887814Y-44212628D01*
X119840195Y-44403104D01*
X119792576Y-44498342D01*
X119744957Y-44545961D01*
X119649719Y-44593580D01*
X119554480Y-44593580D01*
X119459242Y-44545961D01*
X119411623Y-44498342D01*
X119364004Y-44403104D01*
X119316385Y-44212628D01*
X119316385Y-43974533D01*
X119364004Y-43784057D01*
X119411623Y-43688819D01*
X119459242Y-43641200D01*
X119554480Y-43593580D01*
X120268766Y-43688819D02*
X120316385Y-43641200D01*
X120411623Y-43593580D01*
X120649719Y-43593580D01*
X120744957Y-43641200D01*
X120792576Y-43688819D01*
X120840195Y-43784057D01*
X120840195Y-43879295D01*
X120792576Y-44022152D01*
X120221147Y-44593580D01*
X120840195Y-44593580D01*
%TO.C,R414*%
X108126352Y-46122580D02*
X107793019Y-45646390D01*
X107554923Y-46122580D02*
X107554923Y-45122580D01*
X107935876Y-45122580D01*
X108031114Y-45170200D01*
X108078733Y-45217819D01*
X108126352Y-45313057D01*
X108126352Y-45455914D01*
X108078733Y-45551152D01*
X108031114Y-45598771D01*
X107935876Y-45646390D01*
X107554923Y-45646390D01*
X108983495Y-45455914D02*
X108983495Y-46122580D01*
X108745400Y-45074961D02*
X108507304Y-45789247D01*
X109126352Y-45789247D01*
X110031114Y-46122580D02*
X109459685Y-46122580D01*
X109745400Y-46122580D02*
X109745400Y-45122580D01*
X109650161Y-45265438D01*
X109554923Y-45360676D01*
X109459685Y-45408295D01*
X110888257Y-45455914D02*
X110888257Y-46122580D01*
X110650161Y-45074961D02*
X110412066Y-45789247D01*
X111031114Y-45789247D01*
%TO.C,R417*%
X91743352Y-93288380D02*
X91410019Y-92812190D01*
X91171923Y-93288380D02*
X91171923Y-92288380D01*
X91552876Y-92288380D01*
X91648114Y-92336000D01*
X91695733Y-92383619D01*
X91743352Y-92478857D01*
X91743352Y-92621714D01*
X91695733Y-92716952D01*
X91648114Y-92764571D01*
X91552876Y-92812190D01*
X91171923Y-92812190D01*
X92600495Y-92621714D02*
X92600495Y-93288380D01*
X92362400Y-92240761D02*
X92124304Y-92955047D01*
X92743352Y-92955047D01*
X93648114Y-93288380D02*
X93076685Y-93288380D01*
X93362400Y-93288380D02*
X93362400Y-92288380D01*
X93267161Y-92431238D01*
X93171923Y-92526476D01*
X93076685Y-92574095D01*
X93981447Y-92288380D02*
X94648114Y-92288380D01*
X94219542Y-93288380D01*
%TO.C,R402*%
X126663980Y-93803647D02*
X126187790Y-94136980D01*
X126663980Y-94375076D02*
X125663980Y-94375076D01*
X125663980Y-93994123D01*
X125711600Y-93898885D01*
X125759219Y-93851266D01*
X125854457Y-93803647D01*
X125997314Y-93803647D01*
X126092552Y-93851266D01*
X126140171Y-93898885D01*
X126187790Y-93994123D01*
X126187790Y-94375076D01*
X125997314Y-92946504D02*
X126663980Y-92946504D01*
X125616361Y-93184600D02*
X126330647Y-93422695D01*
X126330647Y-92803647D01*
X125663980Y-92232219D02*
X125663980Y-92136980D01*
X125711600Y-92041742D01*
X125759219Y-91994123D01*
X125854457Y-91946504D01*
X126044933Y-91898885D01*
X126283028Y-91898885D01*
X126473504Y-91946504D01*
X126568742Y-91994123D01*
X126616361Y-92041742D01*
X126663980Y-92136980D01*
X126663980Y-92232219D01*
X126616361Y-92327457D01*
X126568742Y-92375076D01*
X126473504Y-92422695D01*
X126283028Y-92470314D01*
X126044933Y-92470314D01*
X125854457Y-92422695D01*
X125759219Y-92375076D01*
X125711600Y-92327457D01*
X125663980Y-92232219D01*
X125759219Y-91517933D02*
X125711600Y-91470314D01*
X125663980Y-91375076D01*
X125663980Y-91136980D01*
X125711600Y-91041742D01*
X125759219Y-90994123D01*
X125854457Y-90946504D01*
X125949695Y-90946504D01*
X126092552Y-90994123D01*
X126663980Y-91565552D01*
X126663980Y-90946504D01*
%TO.C,D401*%
X117232323Y-32996380D02*
X117232323Y-31996380D01*
X117470419Y-31996380D01*
X117613276Y-32044000D01*
X117708514Y-32139238D01*
X117756133Y-32234476D01*
X117803752Y-32424952D01*
X117803752Y-32567809D01*
X117756133Y-32758285D01*
X117708514Y-32853523D01*
X117613276Y-32948761D01*
X117470419Y-32996380D01*
X117232323Y-32996380D01*
X118660895Y-32329714D02*
X118660895Y-32996380D01*
X118422800Y-31948761D02*
X118184704Y-32663047D01*
X118803752Y-32663047D01*
X119375180Y-31996380D02*
X119470419Y-31996380D01*
X119565657Y-32044000D01*
X119613276Y-32091619D01*
X119660895Y-32186857D01*
X119708514Y-32377333D01*
X119708514Y-32615428D01*
X119660895Y-32805904D01*
X119613276Y-32901142D01*
X119565657Y-32948761D01*
X119470419Y-32996380D01*
X119375180Y-32996380D01*
X119279942Y-32948761D01*
X119232323Y-32901142D01*
X119184704Y-32805904D01*
X119137085Y-32615428D01*
X119137085Y-32377333D01*
X119184704Y-32186857D01*
X119232323Y-32091619D01*
X119279942Y-32044000D01*
X119375180Y-31996380D01*
X120660895Y-32996380D02*
X120089466Y-32996380D01*
X120375180Y-32996380D02*
X120375180Y-31996380D01*
X120279942Y-32139238D01*
X120184704Y-32234476D01*
X120089466Y-32282095D01*
%TO.C,R412*%
X95756552Y-93262980D02*
X95423219Y-92786790D01*
X95185123Y-93262980D02*
X95185123Y-92262980D01*
X95566076Y-92262980D01*
X95661314Y-92310600D01*
X95708933Y-92358219D01*
X95756552Y-92453457D01*
X95756552Y-92596314D01*
X95708933Y-92691552D01*
X95661314Y-92739171D01*
X95566076Y-92786790D01*
X95185123Y-92786790D01*
X96613695Y-92596314D02*
X96613695Y-93262980D01*
X96375600Y-92215361D02*
X96137504Y-92929647D01*
X96756552Y-92929647D01*
X97661314Y-93262980D02*
X97089885Y-93262980D01*
X97375600Y-93262980D02*
X97375600Y-92262980D01*
X97280361Y-92405838D01*
X97185123Y-92501076D01*
X97089885Y-92548695D01*
X98042266Y-92358219D02*
X98089885Y-92310600D01*
X98185123Y-92262980D01*
X98423219Y-92262980D01*
X98518457Y-92310600D01*
X98566076Y-92358219D01*
X98613695Y-92453457D01*
X98613695Y-92548695D01*
X98566076Y-92691552D01*
X97994647Y-93262980D01*
X98613695Y-93262980D01*
%TO.C,C452*%
X72871152Y-79601542D02*
X72823533Y-79649161D01*
X72680676Y-79696780D01*
X72585438Y-79696780D01*
X72442580Y-79649161D01*
X72347342Y-79553923D01*
X72299723Y-79458685D01*
X72252104Y-79268209D01*
X72252104Y-79125352D01*
X72299723Y-78934876D01*
X72347342Y-78839638D01*
X72442580Y-78744400D01*
X72585438Y-78696780D01*
X72680676Y-78696780D01*
X72823533Y-78744400D01*
X72871152Y-78792019D01*
X73728295Y-79030114D02*
X73728295Y-79696780D01*
X73490200Y-78649161D02*
X73252104Y-79363447D01*
X73871152Y-79363447D01*
X74728295Y-78696780D02*
X74252104Y-78696780D01*
X74204485Y-79172971D01*
X74252104Y-79125352D01*
X74347342Y-79077733D01*
X74585438Y-79077733D01*
X74680676Y-79125352D01*
X74728295Y-79172971D01*
X74775914Y-79268209D01*
X74775914Y-79506304D01*
X74728295Y-79601542D01*
X74680676Y-79649161D01*
X74585438Y-79696780D01*
X74347342Y-79696780D01*
X74252104Y-79649161D01*
X74204485Y-79601542D01*
X75156866Y-78792019D02*
X75204485Y-78744400D01*
X75299723Y-78696780D01*
X75537819Y-78696780D01*
X75633057Y-78744400D01*
X75680676Y-78792019D01*
X75728295Y-78887257D01*
X75728295Y-78982495D01*
X75680676Y-79125352D01*
X75109247Y-79696780D01*
X75728295Y-79696780D01*
%TO.C,IC401*%
X34921980Y-94277971D02*
X33921980Y-94277971D01*
X34826742Y-93230352D02*
X34874361Y-93277971D01*
X34921980Y-93420828D01*
X34921980Y-93516066D01*
X34874361Y-93658923D01*
X34779123Y-93754161D01*
X34683885Y-93801780D01*
X34493409Y-93849400D01*
X34350552Y-93849400D01*
X34160076Y-93801780D01*
X34064838Y-93754161D01*
X33969600Y-93658923D01*
X33921980Y-93516066D01*
X33921980Y-93420828D01*
X33969600Y-93277971D01*
X34017219Y-93230352D01*
X34255314Y-92373209D02*
X34921980Y-92373209D01*
X33874361Y-92611304D02*
X34588647Y-92849400D01*
X34588647Y-92230352D01*
X33921980Y-91658923D02*
X33921980Y-91563685D01*
X33969600Y-91468447D01*
X34017219Y-91420828D01*
X34112457Y-91373209D01*
X34302933Y-91325590D01*
X34541028Y-91325590D01*
X34731504Y-91373209D01*
X34826742Y-91420828D01*
X34874361Y-91468447D01*
X34921980Y-91563685D01*
X34921980Y-91658923D01*
X34874361Y-91754161D01*
X34826742Y-91801780D01*
X34731504Y-91849400D01*
X34541028Y-91897019D01*
X34302933Y-91897019D01*
X34112457Y-91849400D01*
X34017219Y-91801780D01*
X33969600Y-91754161D01*
X33921980Y-91658923D01*
X34921980Y-90373209D02*
X34921980Y-90944638D01*
X34921980Y-90658923D02*
X33921980Y-90658923D01*
X34064838Y-90754161D01*
X34160076Y-90849400D01*
X34207695Y-90944638D01*
X58774114Y-91649380D02*
X59440780Y-91649380D01*
X59012209Y-92649380D01*
X60250304Y-91649380D02*
X60059828Y-91649380D01*
X59964590Y-91697000D01*
X59916971Y-91744619D01*
X59821733Y-91887476D01*
X59774114Y-92077952D01*
X59774114Y-92458904D01*
X59821733Y-92554142D01*
X59869352Y-92601761D01*
X59964590Y-92649380D01*
X60155066Y-92649380D01*
X60250304Y-92601761D01*
X60297923Y-92554142D01*
X60345542Y-92458904D01*
X60345542Y-92220809D01*
X60297923Y-92125571D01*
X60250304Y-92077952D01*
X60155066Y-92030333D01*
X59964590Y-92030333D01*
X59869352Y-92077952D01*
X59821733Y-92125571D01*
X59774114Y-92220809D01*
X61250304Y-91649380D02*
X60774114Y-91649380D01*
X60726495Y-92125571D01*
X60774114Y-92077952D01*
X60869352Y-92030333D01*
X61107447Y-92030333D01*
X61202685Y-92077952D01*
X61250304Y-92125571D01*
X61297923Y-92220809D01*
X61297923Y-92458904D01*
X61250304Y-92554142D01*
X61202685Y-92601761D01*
X61107447Y-92649380D01*
X60869352Y-92649380D01*
X60774114Y-92601761D01*
X60726495Y-92554142D01*
X62059828Y-92125571D02*
X61726495Y-92125571D01*
X61726495Y-92649380D02*
X61726495Y-91649380D01*
X62202685Y-91649380D01*
X62583638Y-92649380D02*
X62583638Y-91649380D01*
X62821733Y-91649380D01*
X62964590Y-91697000D01*
X63059828Y-91792238D01*
X63107447Y-91887476D01*
X63155066Y-92077952D01*
X63155066Y-92220809D01*
X63107447Y-92411285D01*
X63059828Y-92506523D01*
X62964590Y-92601761D01*
X62821733Y-92649380D01*
X62583638Y-92649380D01*
X64155066Y-92554142D02*
X64107447Y-92601761D01*
X63964590Y-92649380D01*
X63869352Y-92649380D01*
X63726495Y-92601761D01*
X63631257Y-92506523D01*
X63583638Y-92411285D01*
X63536019Y-92220809D01*
X63536019Y-92077952D01*
X63583638Y-91887476D01*
X63631257Y-91792238D01*
X63726495Y-91697000D01*
X63869352Y-91649380D01*
X63964590Y-91649380D01*
X64107447Y-91697000D01*
X64155066Y-91744619D01*
D12*
%TO.C,IC408*%
X107594400Y-64856200D02*
X104144400Y-64856200D01*
X107594400Y-73726200D02*
X105644400Y-73726200D01*
X107594400Y-73726200D02*
X109544400Y-73726200D01*
X107594400Y-64856200D02*
X109544400Y-64856200D01*
%TO.C,IC412*%
X89265600Y-68275200D02*
X89265600Y-71725200D01*
X98135600Y-68275200D02*
X98135600Y-70225200D01*
X98135600Y-68275200D02*
X98135600Y-66325200D01*
X89265600Y-68275200D02*
X89265600Y-66325200D01*
%TO.C,D450*%
X100026200Y-100195000D02*
X103911200Y-100195000D01*
X103911200Y-97925000D02*
X100026200Y-97925000D01*
X100026200Y-97925000D02*
X100026200Y-100195000D01*
%TO.C,R411*%
X105005136Y-48080600D02*
X105459264Y-48080600D01*
X105005136Y-46610600D02*
X105459264Y-46610600D01*
%TO.C,C453*%
X81211052Y-64619200D02*
X80688548Y-64619200D01*
X81211052Y-66089200D02*
X80688548Y-66089200D01*
%TO.C,R454*%
X80722736Y-69569000D02*
X81176864Y-69569000D01*
X80722736Y-68099000D02*
X81176864Y-68099000D01*
%TO.C,C408*%
X87145800Y-58412748D02*
X87145800Y-58935252D01*
X85675800Y-58412748D02*
X85675800Y-58935252D01*
%TO.C,C407*%
X101141200Y-49537252D02*
X101141200Y-49014748D01*
X99671200Y-49537252D02*
X99671200Y-49014748D01*
%TO.C,C412*%
X107333148Y-62761800D02*
X107855652Y-62761800D01*
X107333148Y-61291800D02*
X107855652Y-61291800D01*
%TO.C,IC410*%
X89164000Y-58674000D02*
X89164000Y-62124000D01*
X98034000Y-58674000D02*
X98034000Y-56724000D01*
X98034000Y-58674000D02*
X98034000Y-60624000D01*
X89164000Y-58674000D02*
X89164000Y-56724000D01*
%TO.C,R404*%
X123826600Y-84377264D02*
X123826600Y-83923136D01*
X125296600Y-84377264D02*
X125296600Y-83923136D01*
%TO.C,R405*%
X125296600Y-79554336D02*
X125296600Y-80008464D01*
X123826600Y-79554336D02*
X123826600Y-80008464D01*
%TO.C,C404*%
X68197400Y-68856452D02*
X68197400Y-68333948D01*
X66727400Y-68856452D02*
X66727400Y-68333948D01*
%TO.C,R416*%
X96648536Y-89863600D02*
X97102664Y-89863600D01*
X96648536Y-88393600D02*
X97102664Y-88393600D01*
%TO.C,C401*%
X118985400Y-23541000D02*
X122873400Y-23541000D01*
X121969400Y-24181000D02*
X123507400Y-24181000D01*
X121969400Y-25502000D02*
X124096400Y-25502000D01*
X117943400Y-24901000D02*
X119889400Y-24901000D01*
X118117400Y-24541000D02*
X119889400Y-24541000D01*
X121969400Y-24861000D02*
X123899400Y-24861000D01*
X119497400Y-23221000D02*
X122361400Y-23221000D01*
X119215400Y-23381000D02*
X122643400Y-23381000D01*
X121969400Y-24021000D02*
X123379400Y-24021000D01*
X121969400Y-24701000D02*
X123825400Y-24701000D01*
X121969400Y-24541000D02*
X123741400Y-24541000D01*
X117959400Y-24861000D02*
X119889400Y-24861000D01*
X119279400Y-23341000D02*
X122579400Y-23341000D01*
X117977400Y-24821000D02*
X119889400Y-24821000D01*
X119039400Y-23501000D02*
X122819400Y-23501000D01*
X121969400Y-24381000D02*
X123645400Y-24381000D01*
X118479400Y-24021000D02*
X119889400Y-24021000D01*
X118053400Y-24661000D02*
X119889400Y-24661000D01*
X121969400Y-24661000D02*
X123805400Y-24661000D01*
X118586400Y-23901000D02*
X119889400Y-23901000D01*
X121969400Y-25542000D02*
X124104400Y-25542000D01*
X118513400Y-23981000D02*
X119889400Y-23981000D01*
X118163400Y-24461000D02*
X119889400Y-24461000D01*
X121969400Y-24821000D02*
X123881400Y-24821000D01*
X117747400Y-25582000D02*
X119889400Y-25582000D01*
X117798400Y-25341000D02*
X119889400Y-25341000D01*
X121969400Y-23941000D02*
X123309400Y-23941000D01*
X117911400Y-24981000D02*
X119889400Y-24981000D01*
X117762400Y-25502000D02*
X119889400Y-25502000D01*
X118445400Y-24061000D02*
X119889400Y-24061000D01*
X118664400Y-23821000D02*
X123194400Y-23821000D01*
X118775400Y-29327241D02*
X119405400Y-29327241D01*
X118351400Y-24181000D02*
X119889400Y-24181000D01*
X121969400Y-25622000D02*
X124118400Y-25622000D01*
X121969400Y-25141000D02*
X124003400Y-25141000D01*
X121969400Y-24741000D02*
X123845400Y-24741000D01*
X119870400Y-23061000D02*
X121988400Y-23061000D01*
X121969400Y-24141000D02*
X123477400Y-24141000D01*
X121969400Y-25101000D02*
X123990400Y-25101000D01*
X118747400Y-23741000D02*
X123111400Y-23741000D01*
X120127400Y-22981000D02*
X121731400Y-22981000D01*
X117734400Y-25662000D02*
X119889400Y-25662000D01*
X117754400Y-25542000D02*
X119889400Y-25542000D01*
X121969400Y-24221000D02*
X123536400Y-24221000D01*
X117855400Y-25141000D02*
X119889400Y-25141000D01*
X121969400Y-23981000D02*
X123345400Y-23981000D01*
X118792400Y-23701000D02*
X123066400Y-23701000D01*
X117808400Y-25301000D02*
X119889400Y-25301000D01*
X117995400Y-24781000D02*
X119889400Y-24781000D01*
X121969400Y-24501000D02*
X123719400Y-24501000D01*
X118213400Y-24381000D02*
X119889400Y-24381000D01*
X117788400Y-25381000D02*
X119889400Y-25381000D01*
X118837400Y-23661000D02*
X123021400Y-23661000D01*
X121969400Y-25582000D02*
X124111400Y-25582000D01*
X118293400Y-24261000D02*
X119889400Y-24261000D01*
X119420400Y-23261000D02*
X122438400Y-23261000D01*
X117718400Y-25782000D02*
X119889400Y-25782000D01*
X117714400Y-25822000D02*
X119889400Y-25822000D01*
X117701400Y-26022000D02*
X124157400Y-26022000D01*
X118033400Y-24701000D02*
X119889400Y-24701000D01*
X117705400Y-25942000D02*
X124153400Y-25942000D01*
X117723400Y-25742000D02*
X119889400Y-25742000D01*
X121969400Y-23861000D02*
X123234400Y-23861000D01*
X120527400Y-22901000D02*
X121331400Y-22901000D01*
X121969400Y-25181000D02*
X124015400Y-25181000D01*
X118139400Y-24501000D02*
X119889400Y-24501000D01*
X119764400Y-23101000D02*
X122094400Y-23101000D01*
X118705400Y-23781000D02*
X123153400Y-23781000D01*
X119667400Y-23141000D02*
X122191400Y-23141000D01*
X118885400Y-23621000D02*
X122973400Y-23621000D01*
X117702400Y-25982000D02*
X124156400Y-25982000D01*
X117927400Y-24941000D02*
X119889400Y-24941000D01*
X121969400Y-25421000D02*
X124079400Y-25421000D01*
X121969400Y-24941000D02*
X123931400Y-24941000D01*
X117699400Y-26142000D02*
X124159400Y-26142000D01*
X121969400Y-25021000D02*
X123962400Y-25021000D01*
X117699400Y-26062000D02*
X124159400Y-26062000D01*
X121969400Y-24461000D02*
X123695400Y-24461000D01*
X118624400Y-23861000D02*
X119889400Y-23861000D01*
X117770400Y-25462000D02*
X119889400Y-25462000D01*
X121969400Y-24301000D02*
X123593400Y-24301000D01*
X121969400Y-25822000D02*
X124144400Y-25822000D01*
X121969400Y-25782000D02*
X124140400Y-25782000D01*
X121969400Y-24341000D02*
X123619400Y-24341000D01*
X121969400Y-24981000D02*
X123947400Y-24981000D01*
X120296400Y-22941000D02*
X121562400Y-22941000D01*
X118413400Y-24101000D02*
X119889400Y-24101000D01*
X121969400Y-25341000D02*
X124060400Y-25341000D01*
X121969400Y-25301000D02*
X124050400Y-25301000D01*
X118322400Y-24221000D02*
X119889400Y-24221000D01*
X118187400Y-24421000D02*
X119889400Y-24421000D01*
X117740400Y-25622000D02*
X119889400Y-25622000D01*
X118934400Y-23581000D02*
X122924400Y-23581000D01*
X119153400Y-23421000D02*
X122705400Y-23421000D01*
X121969400Y-24061000D02*
X123413400Y-24061000D01*
X121969400Y-25662000D02*
X124124400Y-25662000D01*
X121969400Y-25221000D02*
X124027400Y-25221000D01*
X121969400Y-24421000D02*
X123671400Y-24421000D01*
X121969400Y-24901000D02*
X123915400Y-24901000D01*
X121969400Y-25261000D02*
X124039400Y-25261000D01*
X117868400Y-25101000D02*
X119889400Y-25101000D01*
X121969400Y-25702000D02*
X124130400Y-25702000D01*
X121969400Y-23901000D02*
X123272400Y-23901000D01*
X121969400Y-25862000D02*
X124147400Y-25862000D01*
X121969400Y-24101000D02*
X123445400Y-24101000D01*
X121969400Y-25742000D02*
X124135400Y-25742000D01*
X121969400Y-25061000D02*
X123976400Y-25061000D01*
X117707400Y-25902000D02*
X119889400Y-25902000D01*
X118549400Y-23941000D02*
X119889400Y-23941000D01*
X118265400Y-24301000D02*
X119889400Y-24301000D01*
X119095400Y-23461000D02*
X122763400Y-23461000D01*
X121969400Y-24621000D02*
X123785400Y-24621000D01*
X121969400Y-25902000D02*
X124151400Y-25902000D01*
X117896400Y-25021000D02*
X119889400Y-25021000D01*
X117699400Y-26102000D02*
X124159400Y-26102000D01*
X117779400Y-25421000D02*
X119889400Y-25421000D01*
X117843400Y-25181000D02*
X119889400Y-25181000D01*
X121969400Y-24261000D02*
X123565400Y-24261000D01*
X117882400Y-25061000D02*
X119889400Y-25061000D01*
X117819400Y-25261000D02*
X119889400Y-25261000D01*
X121969400Y-24581000D02*
X123763400Y-24581000D01*
X118095400Y-24581000D02*
X119889400Y-24581000D01*
X117831400Y-25221000D02*
X119889400Y-25221000D01*
X121969400Y-24781000D02*
X123863400Y-24781000D01*
X118073400Y-24621000D02*
X119889400Y-24621000D01*
X119989400Y-23021000D02*
X121869400Y-23021000D01*
X121969400Y-25462000D02*
X124088400Y-25462000D01*
X118013400Y-24741000D02*
X119889400Y-24741000D01*
X117728400Y-25702000D02*
X119889400Y-25702000D01*
X118239400Y-24341000D02*
X119889400Y-24341000D01*
X119348400Y-23301000D02*
X122510400Y-23301000D01*
X117711400Y-25862000D02*
X119889400Y-25862000D01*
X119579400Y-23181000D02*
X122279400Y-23181000D01*
X121969400Y-25381000D02*
X124070400Y-25381000D01*
X118381400Y-24141000D02*
X119889400Y-24141000D01*
X119090400Y-29642241D02*
X119090400Y-29012241D01*
X124199400Y-26142000D02*
G75*
G03*
X124199400Y-26142000I-3270000J0D01*
G01*
%TO.C,C403*%
X88441200Y-91839148D02*
X88441200Y-92361652D01*
X86971200Y-91839148D02*
X86971200Y-92361652D01*
%TO.C,IC404*%
X71230800Y-49034000D02*
X35550800Y-49034000D01*
X71230800Y-61954000D02*
X71230800Y-49034000D01*
X35550800Y-61954000D02*
X71230800Y-61954000D01*
X35550800Y-49034000D02*
X35550800Y-54494000D01*
X35550800Y-56494000D02*
X35550800Y-61954000D01*
X35550800Y-56494000D02*
G75*
G03*
X35550800Y-54494000I0J1000000D01*
G01*
%TO.C,C455*%
X76294348Y-64670000D02*
X76816852Y-64670000D01*
X76294348Y-66140000D02*
X76816852Y-66140000D01*
%TO.C,D451*%
X90628200Y-100195000D02*
X94513200Y-100195000D01*
X90628200Y-97925000D02*
X90628200Y-100195000D01*
X94513200Y-97925000D02*
X90628200Y-97925000D01*
%TO.C,R451*%
X76074600Y-78182736D02*
X76074600Y-78636864D01*
X77544600Y-78182736D02*
X77544600Y-78636864D01*
%TO.C,C413*%
X107333148Y-75388800D02*
X107855652Y-75388800D01*
X107333148Y-76858800D02*
X107855652Y-76858800D01*
%TO.C,X451*%
X66842400Y-79716000D02*
X66842400Y-73466000D01*
X71892400Y-79716000D02*
X71892400Y-73466000D01*
X66842400Y-79716000D02*
G75*
G03*
X71892400Y-79716000I2525000J0D01*
G01*
X71892400Y-73466000D02*
G75*
G03*
X66842400Y-73466000I-2525000J0D01*
G01*
%TO.C,R403*%
X123826600Y-59002664D02*
X123826600Y-58548536D01*
X125296600Y-59002664D02*
X125296600Y-58548536D01*
%TO.C,C410*%
X101268200Y-68013948D02*
X101268200Y-68536452D01*
X99798200Y-68013948D02*
X99798200Y-68536452D01*
%TO.C,C414*%
X105097948Y-94083200D02*
X105620452Y-94083200D01*
X105097948Y-95553200D02*
X105620452Y-95553200D01*
%TO.C,R452*%
X123826600Y-88241136D02*
X123826600Y-88695264D01*
X125296600Y-88241136D02*
X125296600Y-88695264D01*
%TO.C,LK401*%
X39049000Y-35590400D02*
X39049000Y-36920400D01*
X39049000Y-31720400D02*
X36389000Y-31720400D01*
X39049000Y-34320400D02*
X39049000Y-31720400D01*
X39049000Y-36920400D02*
X37719000Y-36920400D01*
X36389000Y-34320400D02*
X36389000Y-31720400D01*
X39049000Y-34320400D02*
X36389000Y-34320400D01*
%TO.C,R453*%
X81537436Y-83107200D02*
X81991564Y-83107200D01*
X81537436Y-81637200D02*
X81991564Y-81637200D01*
%TO.C,C411*%
X97080400Y-78123148D02*
X97080400Y-78645652D01*
X98550400Y-78123148D02*
X98550400Y-78645652D01*
%TO.C,C409*%
X101166600Y-58935252D02*
X101166600Y-58412748D01*
X99696600Y-58935252D02*
X99696600Y-58412748D01*
%TO.C,R457*%
X76328536Y-69569000D02*
X76782664Y-69569000D01*
X76328536Y-68099000D02*
X76782664Y-68099000D01*
%TO.C,IC451*%
X35550800Y-80348600D02*
X66150800Y-80348600D01*
X66150800Y-80348600D02*
X66150800Y-67428600D01*
X35550800Y-74888600D02*
X35550800Y-80348600D01*
X66150800Y-67428600D02*
X35550800Y-67428600D01*
X35550800Y-67428600D02*
X35550800Y-72888600D01*
X35550800Y-74888600D02*
G75*
G03*
X35550800Y-72888600I0J1000000D01*
G01*
%TO.C,R459*%
X97435936Y-99820400D02*
X97890064Y-99820400D01*
X97435936Y-98350400D02*
X97890064Y-98350400D01*
%TO.C,R455*%
X76328536Y-73023400D02*
X76782664Y-73023400D01*
X76328536Y-71553400D02*
X76782664Y-71553400D01*
%TO.C,R456*%
X80722736Y-71604200D02*
X81176864Y-71604200D01*
X80722736Y-73074200D02*
X81176864Y-73074200D01*
%TO.C,CE402*%
X47175800Y-44100800D02*
X48175800Y-44100800D01*
X112545800Y-41400800D02*
X80205800Y-41400800D01*
X113845800Y-33590800D02*
X113845800Y-42710800D01*
X113845800Y-42710800D02*
X42465800Y-42710800D01*
X48175800Y-44100800D02*
X47675800Y-43100800D01*
X43765800Y-34900800D02*
X112545800Y-34900800D01*
X76105800Y-41400800D02*
X43765800Y-41400800D01*
X42465800Y-33590800D02*
X113845800Y-33590800D01*
X47675800Y-43100800D02*
X47175800Y-44100800D01*
X112545800Y-34900800D02*
X112545800Y-41400800D01*
X80205800Y-41400800D02*
X76105800Y-41400800D01*
X42465800Y-42710800D02*
X42465800Y-33590800D01*
X80205800Y-41400800D02*
X80205800Y-41400800D01*
X43765800Y-41400800D02*
X43765800Y-34900800D01*
%TO.C,IC409*%
X75194000Y-58674000D02*
X75194000Y-56724000D01*
X84064000Y-58674000D02*
X84064000Y-56724000D01*
X84064000Y-58674000D02*
X84064000Y-60624000D01*
X75194000Y-58674000D02*
X75194000Y-62124000D01*
%TO.C,CE401*%
X47675800Y-31569200D02*
X47175800Y-32569200D01*
X80205800Y-29869200D02*
X76105800Y-29869200D01*
X112545800Y-23369200D02*
X112545800Y-29869200D01*
X80205800Y-29869200D02*
X80205800Y-29869200D01*
X47175800Y-32569200D02*
X48175800Y-32569200D01*
X113845800Y-22059200D02*
X113845800Y-31179200D01*
X42465800Y-22059200D02*
X113845800Y-22059200D01*
X42465800Y-31179200D02*
X42465800Y-22059200D01*
X113845800Y-31179200D02*
X42465800Y-31179200D01*
X43765800Y-23369200D02*
X112545800Y-23369200D01*
X112545800Y-29869200D02*
X80205800Y-29869200D01*
X48175800Y-32569200D02*
X47675800Y-31569200D01*
X76105800Y-29869200D02*
X43765800Y-29869200D01*
X43765800Y-29869200D02*
X43765800Y-23369200D01*
%TO.C,R458*%
X106833936Y-98375800D02*
X107288064Y-98375800D01*
X106833936Y-99845800D02*
X107288064Y-99845800D01*
%TO.C,IC405*%
X95417800Y-78384400D02*
X95417800Y-76434400D01*
X86547800Y-78384400D02*
X86547800Y-76434400D01*
X95417800Y-78384400D02*
X95417800Y-80334400D01*
X86547800Y-78384400D02*
X86547800Y-81834400D01*
%TO.C,IC403*%
X101423000Y-92412800D02*
X101423000Y-92177800D01*
X105283000Y-79392800D02*
X109143000Y-79392800D01*
X109143000Y-79392800D02*
X109143000Y-79627800D01*
X101423000Y-79392800D02*
X101423000Y-79627800D01*
X105283000Y-79392800D02*
X101423000Y-79392800D01*
X105283000Y-92412800D02*
X109143000Y-92412800D01*
X101423000Y-79627800D02*
X99608000Y-79627800D01*
X109143000Y-92412800D02*
X109143000Y-92177800D01*
X105283000Y-92412800D02*
X101423000Y-92412800D01*
%TO.C,C451*%
X73728948Y-76757200D02*
X74251452Y-76757200D01*
X73728948Y-75287200D02*
X74251452Y-75287200D01*
%TO.C,R418*%
X93089464Y-88393600D02*
X92635336Y-88393600D01*
X93089464Y-89863600D02*
X92635336Y-89863600D01*
%TO.C,R406*%
X123216936Y-35228200D02*
X123671064Y-35228200D01*
X123216936Y-33758200D02*
X123671064Y-33758200D01*
%TO.C,IC411*%
X89189400Y-49276000D02*
X89189400Y-52726000D01*
X98059400Y-49276000D02*
X98059400Y-47326000D01*
X98059400Y-49276000D02*
X98059400Y-51226000D01*
X89189400Y-49276000D02*
X89189400Y-47326000D01*
%TO.C,C406*%
X85675800Y-49014748D02*
X85675800Y-49537252D01*
X87145800Y-49014748D02*
X87145800Y-49537252D01*
%TO.C,C454*%
X71950948Y-69594400D02*
X72473452Y-69594400D01*
X71950948Y-68124400D02*
X72473452Y-68124400D01*
%TO.C,IC406*%
X107594400Y-59629200D02*
X105644400Y-59629200D01*
X107594400Y-50759200D02*
X109544400Y-50759200D01*
X107594400Y-59629200D02*
X109544400Y-59629200D01*
X107594400Y-50759200D02*
X104144400Y-50759200D01*
%TO.C,IC407*%
X75194000Y-49276000D02*
X75194000Y-47326000D01*
X84064000Y-49276000D02*
X84064000Y-51226000D01*
X84064000Y-49276000D02*
X84064000Y-47326000D01*
X75194000Y-49276000D02*
X75194000Y-52726000D01*
%TO.C,LK402*%
X121197600Y-97450600D02*
X121197600Y-98780600D01*
X119867600Y-97450600D02*
X121197600Y-97450600D01*
X118597600Y-97450600D02*
X115997600Y-97450600D01*
X118597600Y-97450600D02*
X118597600Y-100110600D01*
X115997600Y-97450600D02*
X115997600Y-100110600D01*
X118597600Y-100110600D02*
X115997600Y-100110600D01*
%TO.C,CD402*%
X115352100Y-94791200D02*
X115352100Y-72611200D01*
X112652100Y-50741200D02*
X113652100Y-50241200D01*
X115352100Y-72611200D02*
X115352100Y-72611200D01*
X115352100Y-46331200D02*
X121852100Y-46331200D01*
X114042100Y-45031200D02*
X123162100Y-45031200D01*
X121852100Y-94791200D02*
X115352100Y-94791200D01*
X113652100Y-50241200D02*
X112652100Y-49741200D01*
X114042100Y-68511200D02*
X115352100Y-68511200D01*
X115352100Y-72611200D02*
X114042100Y-72611200D01*
X112652100Y-49741200D02*
X112652100Y-50741200D01*
X115352100Y-68511200D02*
X115352100Y-46331200D01*
X123162100Y-45031200D02*
X123162100Y-96091200D01*
X123162100Y-96091200D02*
X114042100Y-96091200D01*
X114042100Y-96091200D02*
X114042100Y-45031200D01*
X121852100Y-46331200D02*
X121852100Y-94791200D01*
%TO.C,C405*%
X37569548Y-46404200D02*
X38092052Y-46404200D01*
X37569548Y-44934200D02*
X38092052Y-44934200D01*
%TO.C,R414*%
X109018336Y-46585200D02*
X109472464Y-46585200D01*
X109018336Y-48055200D02*
X109472464Y-48055200D01*
%TO.C,R417*%
X93089464Y-91921000D02*
X92635336Y-91921000D01*
X93089464Y-90451000D02*
X92635336Y-90451000D01*
%TO.C,R402*%
X125296600Y-92457536D02*
X125296600Y-92911664D01*
X123826600Y-92457536D02*
X123826600Y-92911664D01*
%TO.C,D401*%
X116672800Y-33544000D02*
X116672800Y-35544000D01*
X116672800Y-33544000D02*
X120572800Y-33544000D01*
X116672800Y-35544000D02*
X120572800Y-35544000D01*
%TO.C,R412*%
X97102664Y-91895600D02*
X96648536Y-91895600D01*
X97102664Y-90425600D02*
X96648536Y-90425600D01*
%TO.C,C452*%
X73728948Y-81659400D02*
X74251452Y-81659400D01*
X73728948Y-80189400D02*
X74251452Y-80189400D01*
%TO.C,IC401*%
X35469600Y-93349400D02*
X35469600Y-98809400D01*
X86389600Y-85889400D02*
X35469600Y-85889400D01*
X35469600Y-98809400D02*
X86389600Y-98809400D01*
X35469600Y-85889400D02*
X35469600Y-91349400D01*
X86389600Y-98809400D02*
X86389600Y-85889400D01*
X35469600Y-93349400D02*
G75*
G03*
X35469600Y-91349400I0J1000000D01*
G01*
%TD*%
M02*
