%TF.GenerationSoftware,KiCad,Pcbnew,(6.0.7)*%
%TF.CreationDate,2023-01-02T03:09:55+00:00*%
%TF.ProjectId,CPC-40007AdapterLM1117,4350432d-3430-4303-9037-416461707465,rev?*%
%TF.SameCoordinates,Original*%
%TF.FileFunction,Copper,L2,Bot*%
%TF.FilePolarity,Positive*%
%FSLAX46Y46*%
G04 Gerber Fmt 4.6, Leading zero omitted, Abs format (unit mm)*
G04 Created by KiCad (PCBNEW (6.0.7)) date 2023-01-02 03:09:55*
%MOMM*%
%LPD*%
G01*
G04 APERTURE LIST*
%TA.AperFunction,ComponentPad*%
%ADD10R,1.600000X2.400000*%
%TD*%
%TA.AperFunction,ComponentPad*%
%ADD11O,1.600000X2.400000*%
%TD*%
%TA.AperFunction,ComponentPad*%
%ADD12R,1.600000X1.600000*%
%TD*%
%TA.AperFunction,ComponentPad*%
%ADD13O,1.600000X1.600000*%
%TD*%
%TA.AperFunction,ViaPad*%
%ADD14C,0.800000*%
%TD*%
%TA.AperFunction,Conductor*%
%ADD15C,0.750000*%
%TD*%
%TA.AperFunction,Conductor*%
%ADD16C,1.000000*%
%TD*%
%TA.AperFunction,Conductor*%
%ADD17C,0.500000*%
%TD*%
%TA.AperFunction,Conductor*%
%ADD18C,0.250000*%
%TD*%
G04 APERTURE END LIST*
D10*
%TO.P,IC2,1,~{CPUAD}*%
%TO.N,CPU*%
X141305200Y-33812400D03*
D11*
%TO.P,IC2,2,READY*%
%TO.N,READY*%
X143845200Y-33812400D03*
%TO.P,IC2,3,~{CAS}*%
%TO.N,CAS*%
X146385200Y-33812400D03*
%TO.P,IC2,4,~{244EN}*%
%TO.N,244EN*%
X148925200Y-33812400D03*
%TO.P,IC2,5,~{MWE}*%
%TO.N,MWE*%
X151465200Y-33812400D03*
%TO.P,IC2,6,~{CASAD}*%
%TO.N,CASAD*%
X154005200Y-33812400D03*
%TO.P,IC2,7,~{RAS}*%
%TO.N,RAS*%
X156545200Y-33812400D03*
%TO.P,IC2,8,XTAL*%
%TO.N,CK16*%
X159085200Y-33812400D03*
%TO.P,IC2,9,VCC2A*%
%TO.N,3.3V*%
X161625200Y-33812400D03*
%TO.P,IC2,10,~{INT}*%
%TO.N,INT*%
X164165200Y-33812400D03*
%TO.P,IC2,11,SYNC*%
%TO.N,SYNC*%
X166705200Y-33812400D03*
%TO.P,IC2,12,~{ROMEN}*%
%TO.N,ROMEN*%
X169245200Y-33812400D03*
%TO.P,IC2,13,~{RAMRD}*%
%TO.N,RAMRD*%
X171785200Y-33812400D03*
%TO.P,IC2,14,HSYNC*%
%TO.N,HSYNC*%
X174325200Y-33812400D03*
%TO.P,IC2,15,VSYNC*%
%TO.N,VSYNC*%
X176865200Y-33812400D03*
%TO.P,IC2,16,~{IORQ}*%
%TO.N,IORQ*%
X179405200Y-33812400D03*
%TO.P,IC2,17,~{M1}*%
%TO.N,M1*%
X181945200Y-33812400D03*
%TO.P,IC2,18,~{MREQ}*%
%TO.N,MREQ*%
X184485200Y-33812400D03*
%TO.P,IC2,19,~{RD}*%
%TO.N,RD*%
X187025200Y-33812400D03*
%TO.P,IC2,20,A15*%
%TO.N,/A15*%
X189565200Y-33812400D03*
%TO.P,IC2,21,A14*%
%TO.N,/A14*%
X189565200Y-18572400D03*
%TO.P,IC2,22,VCC1A*%
%TO.N,+5V*%
X187025200Y-18572400D03*
%TO.P,IC2,23,DISPEN*%
%TO.N,DISPEN*%
X184485200Y-18572400D03*
%TO.P,IC2,24,D0*%
%TO.N,/GD0*%
X181945200Y-18572400D03*
%TO.P,IC2,25,D1*%
%TO.N,/GD1*%
X179405200Y-18572400D03*
%TO.P,IC2,26,D2*%
%TO.N,/GD2*%
X176865200Y-18572400D03*
%TO.P,IC2,27,D3*%
%TO.N,/GD3*%
X174325200Y-18572400D03*
%TO.P,IC2,28,D4*%
%TO.N,/GD4*%
X171785200Y-18572400D03*
%TO.P,IC2,29,D5*%
%TO.N,/GD5*%
X169245200Y-18572400D03*
%TO.P,IC2,30,D6*%
%TO.N,/GD6*%
X166705200Y-18572400D03*
%TO.P,IC2,31,D7*%
%TO.N,/GD7*%
X164165200Y-18572400D03*
%TO.P,IC2,32,B*%
%TO.N,B*%
X161625200Y-18572400D03*
%TO.P,IC2,33,VCC2B*%
%TO.N,3.3V*%
X159085200Y-18572400D03*
%TO.P,IC2,34,G*%
%TO.N,G*%
X156545200Y-18572400D03*
%TO.P,IC2,35,GND*%
%TO.N,GND*%
X154005200Y-18572400D03*
%TO.P,IC2,36,R*%
%TO.N,R*%
X151465200Y-18572400D03*
%TO.P,IC2,37,~{RESET}*%
%TO.N,RESET*%
X148925200Y-18572400D03*
%TO.P,IC2,38,VCC1B*%
%TO.N,+5V*%
X146385200Y-18572400D03*
%TO.P,IC2,39,PHI*%
%TO.N,PHI*%
X143845200Y-18572400D03*
%TO.P,IC2,40,CCLK*%
%TO.N,CCLK*%
X141305200Y-18572400D03*
%TD*%
D12*
%TO.P,IC3,1,D5*%
%TO.N,/GD5*%
X146349200Y-45416000D03*
D13*
%TO.P,IC3,2,D6*%
%TO.N,/GD6*%
X148889200Y-45416000D03*
%TO.P,IC3,3,D7*%
%TO.N,/GD7*%
X151429200Y-45416000D03*
%TO.P,IC3,4,CCLK*%
%TO.N,CCLK*%
X153969200Y-45416000D03*
%TO.P,IC3,5,SYNC*%
%TO.N,SYNC*%
X156509200Y-45416000D03*
%TO.P,IC3,6,VCCA*%
%TO.N,+5V*%
X159049200Y-45416000D03*
%TO.P,IC3,7,~{RESET}*%
%TO.N,RESET*%
X161589200Y-45416000D03*
%TO.P,IC3,8,B*%
%TO.N,B*%
X164129200Y-45416000D03*
%TO.P,IC3,9,DISPEN*%
%TO.N,DISPEN*%
X166669200Y-45416000D03*
%TO.P,IC3,10,G*%
%TO.N,G*%
X169209200Y-45416000D03*
%TO.P,IC3,11,HSYNC*%
%TO.N,HSYNC*%
X171749200Y-45416000D03*
%TO.P,IC3,12,R*%
%TO.N,R*%
X174289200Y-45416000D03*
%TO.P,IC3,13,VSYNC*%
%TO.N,VSYNC*%
X176829200Y-45416000D03*
%TO.P,IC3,14,~{CPU}*%
%TO.N,CPU*%
X179369200Y-45416000D03*
%TO.P,IC3,15,GNDA*%
%TO.N,GND*%
X181909200Y-45416000D03*
%TO.P,IC3,16,~{CAS}*%
%TO.N,CAS*%
X184449200Y-45416000D03*
%TO.P,IC3,17,~{MREQ}*%
%TO.N,MREQ*%
X186989200Y-45416000D03*
%TO.P,IC3,18,~{IORQ}*%
%TO.N,IORQ*%
X189529200Y-45416000D03*
%TO.P,IC3,19,PHI*%
%TO.N,PHI*%
X192069200Y-45416000D03*
%TO.P,IC3,20,~{M1}*%
%TO.N,M1*%
X194609200Y-45416000D03*
%TO.P,IC3,21,~{RD}*%
%TO.N,RD*%
X194609200Y-30176000D03*
%TO.P,IC3,22,READY*%
%TO.N,READY*%
X192069200Y-30176000D03*
%TO.P,IC3,23,~{244EN}*%
%TO.N,244EN*%
X189529200Y-30176000D03*
%TO.P,IC3,24,XTAL*%
%TO.N,CK16*%
X186989200Y-30176000D03*
%TO.P,IC3,25,VCCB*%
%TO.N,+5V*%
X184449200Y-30176000D03*
%TO.P,IC3,26,GNDB*%
%TO.N,GND*%
X181909200Y-30176000D03*
%TO.P,IC3,27,~{ROMEN}*%
%TO.N,ROMEN*%
X179369200Y-30176000D03*
%TO.P,IC3,28,A15*%
%TO.N,/A15*%
X176829200Y-30176000D03*
%TO.P,IC3,29,~{RAMRD}*%
%TO.N,RAMRD*%
X174289200Y-30176000D03*
%TO.P,IC3,30,A14*%
%TO.N,/A14*%
X171749200Y-30176000D03*
%TO.P,IC3,31,~{CASAD}*%
%TO.N,CASAD*%
X169209200Y-30176000D03*
%TO.P,IC3,32,~{INT}*%
%TO.N,INT*%
X166669200Y-30176000D03*
%TO.P,IC3,33,~{MWE}*%
%TO.N,MWE*%
X164129200Y-30176000D03*
%TO.P,IC3,34,~{RAS}*%
%TO.N,RAS*%
X161589200Y-30176000D03*
%TO.P,IC3,35,D0*%
%TO.N,/GD0*%
X159049200Y-30176000D03*
%TO.P,IC3,36,GNDC*%
%TO.N,GND*%
X156509200Y-30176000D03*
%TO.P,IC3,37,D1*%
%TO.N,/GD1*%
X153969200Y-30176000D03*
%TO.P,IC3,38,D2*%
%TO.N,/GD2*%
X151429200Y-30176000D03*
%TO.P,IC3,39,D3*%
%TO.N,/GD3*%
X148889200Y-30176000D03*
%TO.P,IC3,40,D4*%
%TO.N,/GD4*%
X146349200Y-30176000D03*
%TD*%
D14*
%TO.N,3.3V*%
X193929000Y-39776400D03*
X194513000Y-38023800D03*
X194513000Y-36677600D03*
X193091000Y-36677600D03*
X193065000Y-38150800D03*
%TO.N,CPU*%
X149359100Y-41758700D03*
%TO.N,READY*%
X179641000Y-26877500D03*
X153052800Y-26595500D03*
X160916300Y-26564900D03*
%TO.N,244EN*%
X180918800Y-28540700D03*
%TO.N,CK16*%
X180313800Y-31562000D03*
%TO.N,/GD5*%
X155481400Y-25209600D03*
X145162000Y-40310700D03*
%TO.N,/GD6*%
X143988400Y-38369600D03*
X147368500Y-29000900D03*
%TO.N,B*%
X171254800Y-23711300D03*
%TO.N,G*%
X154986700Y-21650900D03*
X158538300Y-43047700D03*
%TO.N,GND*%
X146550000Y-42850000D03*
X181127000Y-43713400D03*
X153900000Y-38100000D03*
X182067000Y-38379400D03*
X172862200Y-41137800D03*
X142400000Y-43800000D03*
X165364200Y-41135800D03*
X179726200Y-25573800D03*
X187200000Y-38300000D03*
X188500000Y-37000000D03*
X168462200Y-41137800D03*
X172391400Y-24708600D03*
X175362200Y-41137800D03*
%TO.N,R*%
X156015100Y-42495200D03*
%TO.N,RESET*%
X154634000Y-44080300D03*
%TO.N,MREQ*%
X190257000Y-44122100D03*
%TO.N,PHI*%
X162793000Y-20204400D03*
X179816900Y-24180700D03*
%TD*%
D15*
%TO.N,3.3V*%
X159085000Y-18572400D02*
X159085000Y-17414800D01*
D16*
X193192000Y-38023800D02*
X193065000Y-38150800D01*
X194513000Y-38023800D02*
X193192000Y-38023800D01*
D15*
X195750000Y-16500000D02*
X195916000Y-16666200D01*
D17*
X194513000Y-34486800D02*
X195916000Y-33083800D01*
D18*
X159085200Y-18572400D02*
X159085000Y-18572400D01*
D16*
X193929000Y-39014400D02*
X193065000Y-38150800D01*
X194513000Y-36677600D02*
X194513000Y-34486800D01*
X193091000Y-36677600D02*
X194513000Y-36677600D01*
D15*
X160000000Y-16500000D02*
X195750000Y-16500000D01*
D16*
X193929000Y-39776400D02*
X193929000Y-39014400D01*
D15*
X159085000Y-17414800D02*
X160000000Y-16500000D01*
X195916000Y-16666200D02*
X195916000Y-28500000D01*
D17*
X195916000Y-33083800D02*
X195916000Y-28500000D01*
D18*
%TO.N,CPU*%
X141305200Y-33812400D02*
X141305200Y-35337500D01*
X141305200Y-35337500D02*
X142718900Y-35337500D01*
X142718900Y-35337500D02*
X149140100Y-41758700D01*
X149140100Y-41758700D02*
X149359100Y-41758700D01*
%TO.N,/A14*%
X186215000Y-23447700D02*
X189565200Y-20097500D01*
X178477500Y-23447700D02*
X186215000Y-23447700D01*
X189565200Y-18572400D02*
X189565200Y-20097500D01*
X171749200Y-30176000D02*
X178477500Y-23447700D01*
%TO.N,READY*%
X190944100Y-30176000D02*
X190944100Y-29894700D01*
X187926900Y-26877500D02*
X179641000Y-26877500D01*
X160885700Y-26595500D02*
X153052800Y-26595500D01*
X190944100Y-29894700D02*
X187926900Y-26877500D01*
X192069200Y-30176000D02*
X190944100Y-30176000D01*
X160916300Y-26564900D02*
X160885700Y-26595500D01*
%TO.N,CAS*%
X155380800Y-42898900D02*
X146385200Y-33903300D01*
X156076500Y-46576500D02*
X155380800Y-45880800D01*
X183324100Y-45416000D02*
X183324100Y-45697300D01*
X146385200Y-33903300D02*
X146385200Y-33812400D01*
X184449200Y-45416000D02*
X183324100Y-45416000D01*
X182444900Y-46576500D02*
X156076500Y-46576500D01*
X155380800Y-45880800D02*
X155380800Y-42898900D01*
X183324100Y-45697300D02*
X182444900Y-46576500D01*
%TO.N,DISPEN*%
X166669200Y-45416000D02*
X166669200Y-44290900D01*
X170479200Y-29829700D02*
X177311400Y-22997500D01*
X166669200Y-44290900D02*
X170479200Y-40480900D01*
X184485200Y-18572400D02*
X184485200Y-20097500D01*
X181585200Y-22997500D02*
X184485200Y-20097500D01*
X170479200Y-40480900D02*
X170479200Y-29829700D01*
X177311400Y-22997500D02*
X181585200Y-22997500D01*
%TO.N,244EN*%
X189529200Y-30176000D02*
X188404100Y-30176000D01*
X188404100Y-29894700D02*
X187050100Y-28540700D01*
X187050100Y-28540700D02*
X180918800Y-28540700D01*
X188404100Y-30176000D02*
X188404100Y-29894700D01*
%TO.N,/GD0*%
X181945200Y-20097500D02*
X179544500Y-22498200D01*
X160174300Y-29912400D02*
X160174300Y-30176000D01*
X181945200Y-18572400D02*
X181945200Y-20097500D01*
X164889900Y-29050900D02*
X161035800Y-29050900D01*
X161035800Y-29050900D02*
X160174300Y-29912400D01*
X159049200Y-30176000D02*
X160174300Y-30176000D01*
X179544500Y-22498200D02*
X171442600Y-22498200D01*
X171442600Y-22498200D02*
X164889900Y-29050900D01*
%TO.N,MWE*%
X164129200Y-30176000D02*
X163004100Y-30176000D01*
X163004100Y-30409100D02*
X163004100Y-30176000D01*
X151465200Y-33812400D02*
X151465200Y-35337500D01*
X151465200Y-35337500D02*
X157089600Y-35337500D01*
X158618800Y-32287300D02*
X161125900Y-32287300D01*
X161125900Y-32287300D02*
X163004100Y-30409100D01*
X157815200Y-34611900D02*
X157815200Y-33090900D01*
X157815200Y-33090900D02*
X158618800Y-32287300D01*
X157089600Y-35337500D02*
X157815200Y-34611900D01*
%TO.N,/GD1*%
X156661400Y-28375700D02*
X155094300Y-29942800D01*
X164928500Y-28375700D02*
X156661400Y-28375700D01*
X171256100Y-22048100D02*
X164928500Y-28375700D01*
X177454600Y-22048100D02*
X171256100Y-22048100D01*
X179405200Y-20097500D02*
X177454600Y-22048100D01*
X179405200Y-18572400D02*
X179405200Y-20097500D01*
X155094300Y-29942800D02*
X155094300Y-30176000D01*
X153969200Y-30176000D02*
X155094300Y-30176000D01*
%TO.N,/GD2*%
X154523500Y-27925500D02*
X164742200Y-27925500D01*
X172083600Y-20584100D02*
X176378600Y-20584100D01*
X152554300Y-30176000D02*
X152554300Y-29894700D01*
X176378600Y-20584100D02*
X176865200Y-20097500D01*
X152554300Y-29894700D02*
X154523500Y-27925500D01*
X151429200Y-30176000D02*
X152554300Y-30176000D01*
X164742200Y-27925500D02*
X172083600Y-20584100D01*
X176865200Y-18572400D02*
X176865200Y-20097500D01*
%TO.N,RAS*%
X161589200Y-30176000D02*
X159928000Y-31837200D01*
X159928000Y-31837200D02*
X156995300Y-31837200D01*
X156545200Y-33812400D02*
X156545200Y-32287300D01*
X156995300Y-31837200D02*
X156545200Y-32287300D01*
%TO.N,/GD3*%
X150014300Y-29957000D02*
X152650700Y-27320600D01*
X171933500Y-20097500D02*
X174325200Y-20097500D01*
X174325200Y-18572400D02*
X174325200Y-20097500D01*
X148889200Y-30176000D02*
X150014300Y-30176000D01*
X150014300Y-30176000D02*
X150014300Y-29957000D01*
X164710400Y-27320600D02*
X171933500Y-20097500D01*
X152650700Y-27320600D02*
X164710400Y-27320600D01*
%TO.N,CK16*%
X186989200Y-30176000D02*
X185864100Y-30176000D01*
X184886200Y-31387000D02*
X180488800Y-31387000D01*
X185864100Y-30176000D02*
X185864100Y-30409100D01*
X180488800Y-31387000D02*
X180313800Y-31562000D01*
X185864100Y-30409100D02*
X184886200Y-31387000D01*
%TO.N,/GD4*%
X158649800Y-25976000D02*
X159689700Y-24936100D01*
X153397200Y-25867500D02*
X153505700Y-25976000D01*
X153505700Y-25976000D02*
X158649800Y-25976000D01*
X165421500Y-24936100D02*
X171785200Y-18572400D01*
X147474300Y-30176000D02*
X147474300Y-29960000D01*
X146349200Y-30176000D02*
X147474300Y-30176000D01*
X159689700Y-24936100D02*
X165421500Y-24936100D01*
X151566800Y-25867500D02*
X153397200Y-25867500D01*
X147474300Y-29960000D02*
X151566800Y-25867500D01*
%TO.N,/GD5*%
X146349200Y-44290900D02*
X145162000Y-43103700D01*
X146349200Y-45416000D02*
X146349200Y-44290900D01*
X145162000Y-43103700D02*
X145162000Y-40310700D01*
X156430000Y-24261000D02*
X155481400Y-25209600D01*
X169245200Y-20097500D02*
X165081700Y-24261000D01*
X165081700Y-24261000D02*
X156430000Y-24261000D01*
X169245200Y-18572400D02*
X169245200Y-20097500D01*
%TO.N,INT*%
X165544100Y-30908400D02*
X164165200Y-32287300D01*
X166669200Y-30176000D02*
X165544100Y-30176000D01*
X164165200Y-33812400D02*
X164165200Y-32287300D01*
X165544100Y-30176000D02*
X165544100Y-30908400D01*
%TO.N,/GD6*%
X148889200Y-45416000D02*
X148889200Y-44290900D01*
X166705200Y-20097500D02*
X164390200Y-22412500D01*
X144279600Y-38369600D02*
X143988400Y-38369600D01*
X148889200Y-44290900D02*
X148889200Y-42979200D01*
X166705200Y-18572400D02*
X166705200Y-20097500D01*
X164390200Y-22412500D02*
X153956900Y-22412500D01*
X148889200Y-42979200D02*
X144279600Y-38369600D01*
X153956900Y-22412500D02*
X147368500Y-29000900D01*
%TO.N,SYNC*%
X157634300Y-45170700D02*
X166705200Y-36099800D01*
X157634300Y-45416000D02*
X157634300Y-45170700D01*
X166705200Y-33812400D02*
X166705200Y-35337500D01*
X166705200Y-36099800D02*
X166705200Y-35337500D01*
X156509200Y-45416000D02*
X157634300Y-45416000D01*
%TO.N,/GD7*%
X141874200Y-36918600D02*
X140155000Y-35199400D01*
X148633900Y-41984000D02*
X143568500Y-36918600D01*
X140155000Y-17721800D02*
X140836600Y-17040200D01*
X141774100Y-17040200D02*
X142575200Y-17841300D01*
X148489200Y-17014300D02*
X151936100Y-17014300D01*
X156014400Y-20957100D02*
X163305600Y-20957100D01*
X148633900Y-42087200D02*
X148633900Y-41984000D01*
X143368300Y-20097600D02*
X146858700Y-20097600D01*
X164165200Y-18572400D02*
X164165200Y-20097500D01*
X147655200Y-17848300D02*
X148489200Y-17014300D01*
X142575200Y-19304500D02*
X143368300Y-20097600D01*
X143568500Y-36918600D02*
X141874200Y-36918600D01*
X151429200Y-44290900D02*
X150837600Y-44290900D01*
X140155000Y-35199400D02*
X140155000Y-17721800D01*
X152735200Y-19307100D02*
X154082700Y-20654600D01*
X150837600Y-44290900D02*
X148633900Y-42087200D01*
X140836600Y-17040200D02*
X141774100Y-17040200D01*
X146858700Y-20097600D02*
X147655200Y-19301100D01*
X154082700Y-20654600D02*
X155711900Y-20654600D01*
X152735200Y-17813400D02*
X152735200Y-19307100D01*
X147655200Y-19301100D02*
X147655200Y-17848300D01*
X163305600Y-20957100D02*
X164165200Y-20097500D01*
X142575200Y-17841300D02*
X142575200Y-19304500D01*
X151936100Y-17014300D02*
X152735200Y-17813400D01*
X151429200Y-45416000D02*
X151429200Y-44290900D01*
X155711900Y-20654600D02*
X156014400Y-20957100D01*
%TO.N,B*%
X167939200Y-27026900D02*
X171254800Y-23711300D01*
X167939200Y-40480900D02*
X167939200Y-27026900D01*
X164129200Y-45416000D02*
X164129200Y-44290900D01*
X164129200Y-44290900D02*
X167939200Y-40480900D01*
%TO.N,RAMRD*%
X174289200Y-30176000D02*
X173164100Y-30176000D01*
X171785200Y-33812400D02*
X171785200Y-32287300D01*
X173164100Y-30176000D02*
X173164100Y-30908400D01*
X173164100Y-30908400D02*
X171785200Y-32287300D01*
%TO.N,HSYNC*%
X174325200Y-41714900D02*
X174325200Y-33812400D01*
X171749200Y-45416000D02*
X171749200Y-44290900D01*
X171749200Y-44290900D02*
X174325200Y-41714900D01*
%TO.N,G*%
X150195200Y-33073300D02*
X148850300Y-31728400D01*
X156647700Y-43047700D02*
X156567802Y-42967802D01*
X156315405Y-41770200D02*
X155527696Y-41770200D01*
X155527696Y-41770200D02*
X150195200Y-36437704D01*
X156740100Y-42795505D02*
X156740100Y-42194895D01*
X158538300Y-43047700D02*
X156647700Y-43047700D01*
X153208200Y-21650900D02*
X154986700Y-21650900D01*
X150195200Y-36437704D02*
X150195200Y-33073300D01*
X145165500Y-29693600D02*
X153208200Y-21650900D01*
X156740100Y-42194895D02*
X156315405Y-41770200D01*
X145165500Y-30612900D02*
X145165500Y-29693600D01*
X148850300Y-31728400D02*
X146281000Y-31728400D01*
X156567802Y-42967802D02*
X156740100Y-42795505D01*
X146281000Y-31728400D02*
X145165500Y-30612900D01*
%TO.N,VSYNC*%
X176829200Y-44290900D02*
X176865200Y-44254900D01*
X176829200Y-45416000D02*
X176829200Y-44290900D01*
X176865200Y-44254900D02*
X176865200Y-33812400D01*
D15*
%TO.N,GND*%
X181127000Y-43713400D02*
X181127000Y-39319200D01*
X181127000Y-39319200D02*
X182067000Y-38379400D01*
D18*
%TO.N,IORQ*%
X189529200Y-45416000D02*
X189529200Y-44290900D01*
X180839400Y-35337500D02*
X179405200Y-35337500D01*
X183792300Y-38290400D02*
X180839400Y-35337500D01*
X183792300Y-38554000D02*
X183792300Y-38290400D01*
X179405200Y-33812400D02*
X179405200Y-35337500D01*
X189529200Y-44290900D02*
X183792300Y-38554000D01*
%TO.N,R*%
X144715300Y-30882900D02*
X146119600Y-32287200D01*
X151465200Y-18572400D02*
X151465200Y-20097500D01*
X147600900Y-34479800D02*
X155616300Y-42495200D01*
X146119600Y-32287200D02*
X146858000Y-32287200D01*
X147600900Y-33030100D02*
X147600900Y-34479800D01*
X146858000Y-32287200D02*
X147600900Y-33030100D01*
X144715300Y-26847400D02*
X144715300Y-30882900D01*
X151465200Y-20097500D02*
X144715300Y-26847400D01*
X155616300Y-42495200D02*
X156015100Y-42495200D01*
%TO.N,M1*%
X194609200Y-45416000D02*
X194609200Y-44290900D01*
X185755200Y-33083600D02*
X185755200Y-35436900D01*
X181945200Y-33812400D02*
X181945200Y-32287300D01*
X184958900Y-32287300D02*
X185755200Y-33083600D01*
X181945200Y-32287300D02*
X184958900Y-32287300D01*
X185755200Y-35436900D02*
X194609200Y-44290900D01*
%TO.N,RESET*%
X145115200Y-33024800D02*
X145115200Y-34561500D01*
X148925200Y-20559500D02*
X144264400Y-25220300D01*
X144264400Y-25220300D02*
X144264400Y-32174000D01*
X148925200Y-18572400D02*
X148925200Y-20559500D01*
X145115200Y-34561500D02*
X154634000Y-44080300D01*
X144264400Y-32174000D02*
X145115200Y-33024800D01*
%TO.N,MREQ*%
X184485200Y-33812400D02*
X184485200Y-38350300D01*
X184485200Y-38350300D02*
X190257000Y-44122100D01*
%TO.N,RD*%
X187025200Y-33812400D02*
X187025200Y-35337500D01*
X190572800Y-35337500D02*
X187025200Y-35337500D01*
X194609200Y-30176000D02*
X194609200Y-31301100D01*
X194609200Y-31301100D02*
X190572800Y-35337500D01*
%TO.N,PHI*%
X175639700Y-28357900D02*
X179816900Y-24180700D01*
X189051900Y-46576300D02*
X188259200Y-45783600D01*
X183342100Y-38561700D02*
X181440300Y-36659900D01*
X175639700Y-30577900D02*
X175639700Y-28357900D01*
X181440300Y-36659900D02*
X180084600Y-36659900D01*
X188259200Y-43733200D02*
X183342100Y-38816100D01*
X162793000Y-20204400D02*
X158687500Y-20204400D01*
X157815200Y-19332100D02*
X157815200Y-17796400D01*
X192069200Y-45416000D02*
X190944100Y-45416000D01*
X178135200Y-34710500D02*
X178135200Y-33073400D01*
X158687500Y-20204400D02*
X157815200Y-19332100D01*
X190944100Y-45697300D02*
X190065100Y-46576300D01*
X183342100Y-38816100D02*
X183342100Y-38561700D01*
X190944100Y-45416000D02*
X190944100Y-45697300D01*
X188259200Y-45783600D02*
X188259200Y-43733200D01*
X144328400Y-16564100D02*
X143845200Y-17047300D01*
X190065100Y-46576300D02*
X189051900Y-46576300D01*
X157815200Y-17796400D02*
X156582900Y-16564100D01*
X143845200Y-18572400D02*
X143845200Y-17047300D01*
X180084600Y-36659900D02*
X178135200Y-34710500D01*
X178135200Y-33073400D02*
X175639700Y-30577900D01*
X156582900Y-16564100D02*
X144328400Y-16564100D01*
%TO.N,/A15*%
X180614100Y-32306200D02*
X181083100Y-31837200D01*
X177954300Y-30409200D02*
X179382300Y-31837200D01*
X176829200Y-30176000D02*
X177954300Y-30176000D01*
X180013500Y-32306200D02*
X180614100Y-32306200D01*
X189565200Y-33812400D02*
X189565200Y-32287300D01*
X177954300Y-30176000D02*
X177954300Y-30409200D01*
X189115100Y-31837200D02*
X189565200Y-32287300D01*
X179382300Y-31837200D02*
X179544500Y-31837200D01*
X179544500Y-31837200D02*
X180013500Y-32306200D01*
X181083100Y-31837200D02*
X189115100Y-31837200D01*
%TO.N,CCLK*%
X153969200Y-45416000D02*
X152844100Y-45416000D01*
X152844100Y-45416000D02*
X152844100Y-44206000D01*
X147766900Y-39128800D02*
X147146900Y-39128800D01*
X152844100Y-44206000D02*
X147766900Y-39128800D01*
X147146900Y-39128800D02*
X142430400Y-34412300D01*
X142430400Y-34412300D02*
X142430400Y-21222700D01*
X142430400Y-21222700D02*
X141305200Y-20097500D01*
X141305200Y-18572400D02*
X141305200Y-20097500D01*
%TD*%
%TA.AperFunction,Conductor*%
%TO.N,GND*%
G36*
X140217012Y-36157770D02*
G01*
X140223593Y-36163897D01*
X140797566Y-36737871D01*
X141370548Y-37310853D01*
X141378088Y-37319139D01*
X141382200Y-37325618D01*
X141387977Y-37331043D01*
X141431851Y-37372243D01*
X141434693Y-37374998D01*
X141454430Y-37394735D01*
X141457627Y-37397215D01*
X141466647Y-37404918D01*
X141498879Y-37435186D01*
X141505825Y-37439005D01*
X141505828Y-37439007D01*
X141516634Y-37444948D01*
X141533153Y-37455799D01*
X141549159Y-37468214D01*
X141556428Y-37471359D01*
X141556432Y-37471362D01*
X141589737Y-37485774D01*
X141600387Y-37490991D01*
X141639140Y-37512295D01*
X141646815Y-37514266D01*
X141646816Y-37514266D01*
X141658762Y-37517333D01*
X141677467Y-37523737D01*
X141696055Y-37531781D01*
X141703878Y-37533020D01*
X141703888Y-37533023D01*
X141739724Y-37538699D01*
X141751344Y-37541105D01*
X141786489Y-37550128D01*
X141794170Y-37552100D01*
X141814424Y-37552100D01*
X141834134Y-37553651D01*
X141854143Y-37556820D01*
X141862035Y-37556074D01*
X141898161Y-37552659D01*
X141910019Y-37552100D01*
X143218974Y-37552100D01*
X143287095Y-37572102D01*
X143333588Y-37625758D01*
X143343692Y-37696032D01*
X143312611Y-37762408D01*
X143249360Y-37832656D01*
X143153873Y-37998044D01*
X143094858Y-38179672D01*
X143074896Y-38369600D01*
X143075586Y-38376165D01*
X143092628Y-38538306D01*
X143094858Y-38559528D01*
X143153873Y-38741156D01*
X143249360Y-38906544D01*
X143253778Y-38911451D01*
X143253779Y-38911452D01*
X143344770Y-39012508D01*
X143377147Y-39048466D01*
X143531648Y-39160718D01*
X143537676Y-39163402D01*
X143537678Y-39163403D01*
X143700081Y-39235709D01*
X143706112Y-39238394D01*
X143788038Y-39255808D01*
X143886456Y-39276728D01*
X143886461Y-39276728D01*
X143892913Y-39278100D01*
X144083887Y-39278100D01*
X144090339Y-39276728D01*
X144090344Y-39276728D01*
X144188764Y-39255808D01*
X144259555Y-39261210D01*
X144304056Y-39289960D01*
X144511296Y-39497200D01*
X144545322Y-39559512D01*
X144540257Y-39630327D01*
X144515839Y-39670603D01*
X144422960Y-39773756D01*
X144327473Y-39939144D01*
X144268458Y-40120772D01*
X144267768Y-40127333D01*
X144267768Y-40127335D01*
X144254308Y-40255401D01*
X144248496Y-40310700D01*
X144249186Y-40317265D01*
X144267390Y-40490462D01*
X144268458Y-40500628D01*
X144327473Y-40682256D01*
X144330776Y-40687978D01*
X144330777Y-40687979D01*
X144343836Y-40710598D01*
X144422960Y-40847644D01*
X144496137Y-40928915D01*
X144526853Y-40992921D01*
X144528500Y-41013224D01*
X144528500Y-43024933D01*
X144527973Y-43036116D01*
X144526298Y-43043609D01*
X144526547Y-43051535D01*
X144526547Y-43051536D01*
X144528438Y-43111686D01*
X144528500Y-43115645D01*
X144528500Y-43143556D01*
X144528997Y-43147490D01*
X144528997Y-43147491D01*
X144529005Y-43147556D01*
X144529938Y-43159393D01*
X144531327Y-43203589D01*
X144536978Y-43223039D01*
X144540987Y-43242400D01*
X144542192Y-43251934D01*
X144543526Y-43262497D01*
X144546445Y-43269868D01*
X144546445Y-43269870D01*
X144559804Y-43303612D01*
X144563649Y-43314842D01*
X144573771Y-43349683D01*
X144575982Y-43357293D01*
X144580015Y-43364112D01*
X144580017Y-43364117D01*
X144586293Y-43374728D01*
X144594988Y-43392476D01*
X144602448Y-43411317D01*
X144607110Y-43417733D01*
X144607110Y-43417734D01*
X144628436Y-43447087D01*
X144634952Y-43457007D01*
X144657458Y-43495062D01*
X144671779Y-43509383D01*
X144684619Y-43524416D01*
X144696528Y-43540807D01*
X144718349Y-43558859D01*
X144730605Y-43568998D01*
X144739384Y-43576988D01*
X145214185Y-44051789D01*
X145248211Y-44114101D01*
X145243146Y-44184916D01*
X145200655Y-44241710D01*
X145185939Y-44252739D01*
X145098585Y-44369295D01*
X145047455Y-44505684D01*
X145040700Y-44567866D01*
X145040700Y-46264134D01*
X145047455Y-46326316D01*
X145050228Y-46333714D01*
X145050856Y-46336354D01*
X145047153Y-46407254D01*
X145005707Y-46464898D01*
X144939677Y-46490983D01*
X144928273Y-46491500D01*
X140134500Y-46491500D01*
X140066379Y-46471498D01*
X140019886Y-46417842D01*
X140008500Y-46365500D01*
X140008500Y-36252994D01*
X140028502Y-36184873D01*
X140082158Y-36138380D01*
X140152432Y-36128276D01*
X140217012Y-36157770D01*
G37*
%TD.AperFunction*%
%TA.AperFunction,Conductor*%
G36*
X177781316Y-35258231D02*
G01*
X177806548Y-35277752D01*
X178704094Y-36175299D01*
X179580948Y-37052153D01*
X179588488Y-37060439D01*
X179592600Y-37066918D01*
X179598377Y-37072343D01*
X179642251Y-37113543D01*
X179645093Y-37116298D01*
X179664830Y-37136035D01*
X179668027Y-37138515D01*
X179677047Y-37146218D01*
X179709279Y-37176486D01*
X179716225Y-37180305D01*
X179716228Y-37180307D01*
X179727034Y-37186248D01*
X179743553Y-37197099D01*
X179759559Y-37209514D01*
X179766828Y-37212659D01*
X179766832Y-37212662D01*
X179800137Y-37227074D01*
X179810787Y-37232291D01*
X179849540Y-37253595D01*
X179857215Y-37255566D01*
X179857216Y-37255566D01*
X179869162Y-37258633D01*
X179887867Y-37265037D01*
X179906455Y-37273081D01*
X179914278Y-37274320D01*
X179914288Y-37274323D01*
X179950124Y-37279999D01*
X179961744Y-37282405D01*
X179996889Y-37291428D01*
X180004570Y-37293400D01*
X180024824Y-37293400D01*
X180044534Y-37294951D01*
X180064543Y-37298120D01*
X180072435Y-37297374D01*
X180108561Y-37293959D01*
X180120419Y-37293400D01*
X181125706Y-37293400D01*
X181193827Y-37313402D01*
X181214801Y-37330305D01*
X182673261Y-38788765D01*
X182707287Y-38851077D01*
X182710104Y-38873899D01*
X182711427Y-38915989D01*
X182717078Y-38935439D01*
X182721087Y-38954800D01*
X182723626Y-38974897D01*
X182726545Y-38982268D01*
X182726545Y-38982270D01*
X182739904Y-39016012D01*
X182743749Y-39027242D01*
X182756082Y-39069693D01*
X182760115Y-39076512D01*
X182760117Y-39076517D01*
X182766393Y-39087128D01*
X182775088Y-39104876D01*
X182782548Y-39123717D01*
X182787210Y-39130133D01*
X182787210Y-39130134D01*
X182808536Y-39159487D01*
X182815052Y-39169407D01*
X182837558Y-39207462D01*
X182851879Y-39221783D01*
X182864719Y-39236816D01*
X182876628Y-39253207D01*
X182882734Y-39258258D01*
X182910705Y-39281398D01*
X182919484Y-39289388D01*
X187588795Y-43958699D01*
X187622821Y-44021011D01*
X187625700Y-44047794D01*
X187625700Y-44071255D01*
X187605698Y-44139376D01*
X187552042Y-44185869D01*
X187481768Y-44195973D01*
X187446447Y-44185448D01*
X187443430Y-44184041D01*
X187443425Y-44184039D01*
X187438443Y-44181716D01*
X187433135Y-44180294D01*
X187433133Y-44180293D01*
X187222602Y-44123881D01*
X187222600Y-44123881D01*
X187217287Y-44122457D01*
X186989200Y-44102502D01*
X186761113Y-44122457D01*
X186755800Y-44123881D01*
X186755798Y-44123881D01*
X186545267Y-44180293D01*
X186545265Y-44180294D01*
X186539957Y-44181716D01*
X186534976Y-44184039D01*
X186534975Y-44184039D01*
X186337438Y-44276151D01*
X186337433Y-44276154D01*
X186332451Y-44278477D01*
X186272308Y-44320590D01*
X186149411Y-44406643D01*
X186149408Y-44406645D01*
X186144900Y-44409802D01*
X185983002Y-44571700D01*
X185979845Y-44576208D01*
X185979843Y-44576211D01*
X185949552Y-44619471D01*
X185851677Y-44759251D01*
X185849354Y-44764233D01*
X185849351Y-44764238D01*
X185833395Y-44798457D01*
X185786478Y-44851742D01*
X185718201Y-44871203D01*
X185650241Y-44850661D01*
X185605005Y-44798457D01*
X185589049Y-44764238D01*
X185589046Y-44764233D01*
X185586723Y-44759251D01*
X185488848Y-44619471D01*
X185458557Y-44576211D01*
X185458555Y-44576208D01*
X185455398Y-44571700D01*
X185293500Y-44409802D01*
X185288992Y-44406645D01*
X185288989Y-44406643D01*
X185166092Y-44320590D01*
X185105949Y-44278477D01*
X185100967Y-44276154D01*
X185100962Y-44276151D01*
X184903425Y-44184039D01*
X184903424Y-44184039D01*
X184898443Y-44181716D01*
X184893135Y-44180294D01*
X184893133Y-44180293D01*
X184682602Y-44123881D01*
X184682600Y-44123881D01*
X184677287Y-44122457D01*
X184449200Y-44102502D01*
X184221113Y-44122457D01*
X184215800Y-44123881D01*
X184215798Y-44123881D01*
X184005267Y-44180293D01*
X184005265Y-44180294D01*
X183999957Y-44181716D01*
X183994976Y-44184039D01*
X183994975Y-44184039D01*
X183797438Y-44276151D01*
X183797433Y-44276154D01*
X183792451Y-44278477D01*
X183732308Y-44320590D01*
X183609411Y-44406643D01*
X183609408Y-44406645D01*
X183604900Y-44409802D01*
X183443002Y-44571700D01*
X183439845Y-44576208D01*
X183439843Y-44576211D01*
X183329774Y-44733406D01*
X183274317Y-44777734D01*
X183234473Y-44786886D01*
X183212364Y-44788277D01*
X183212363Y-44788277D01*
X183204450Y-44788775D01*
X183196909Y-44791225D01*
X183196613Y-44791321D01*
X183173469Y-44796494D01*
X183173272Y-44796519D01*
X183171246Y-44796775D01*
X183171241Y-44796775D01*
X183165300Y-44797526D01*
X183165179Y-44796568D01*
X183101147Y-44794371D01*
X183042773Y-44753961D01*
X183037558Y-44747034D01*
X182918172Y-44576533D01*
X182911116Y-44568125D01*
X182757075Y-44414084D01*
X182748667Y-44407028D01*
X182570207Y-44282069D01*
X182560711Y-44276586D01*
X182363253Y-44184510D01*
X182352961Y-44180764D01*
X182180697Y-44134606D01*
X182166601Y-44134942D01*
X182163200Y-44142884D01*
X182163200Y-45544000D01*
X182143198Y-45612121D01*
X182089542Y-45658614D01*
X182037200Y-45670000D01*
X181781200Y-45670000D01*
X181713079Y-45649998D01*
X181666586Y-45596342D01*
X181655200Y-45544000D01*
X181655200Y-44148033D01*
X181651227Y-44134502D01*
X181642678Y-44133273D01*
X181465439Y-44180764D01*
X181455147Y-44184510D01*
X181257689Y-44276586D01*
X181248193Y-44282069D01*
X181069733Y-44407028D01*
X181061325Y-44414084D01*
X180907284Y-44568125D01*
X180900228Y-44576533D01*
X180775269Y-44754993D01*
X180769786Y-44764489D01*
X180753671Y-44799049D01*
X180706754Y-44852334D01*
X180638477Y-44871795D01*
X180570517Y-44851253D01*
X180525281Y-44799049D01*
X180509049Y-44764238D01*
X180509046Y-44764233D01*
X180506723Y-44759251D01*
X180408848Y-44619471D01*
X180378557Y-44576211D01*
X180378555Y-44576208D01*
X180375398Y-44571700D01*
X180213500Y-44409802D01*
X180208992Y-44406645D01*
X180208989Y-44406643D01*
X180086092Y-44320590D01*
X180025949Y-44278477D01*
X180020967Y-44276154D01*
X180020962Y-44276151D01*
X179823425Y-44184039D01*
X179823424Y-44184039D01*
X179818443Y-44181716D01*
X179813135Y-44180294D01*
X179813133Y-44180293D01*
X179602602Y-44123881D01*
X179602600Y-44123881D01*
X179597287Y-44122457D01*
X179369200Y-44102502D01*
X179141113Y-44122457D01*
X179135800Y-44123881D01*
X179135798Y-44123881D01*
X178925267Y-44180293D01*
X178925265Y-44180294D01*
X178919957Y-44181716D01*
X178914976Y-44184039D01*
X178914975Y-44184039D01*
X178717438Y-44276151D01*
X178717433Y-44276154D01*
X178712451Y-44278477D01*
X178652308Y-44320590D01*
X178529411Y-44406643D01*
X178529408Y-44406645D01*
X178524900Y-44409802D01*
X178363002Y-44571700D01*
X178359845Y-44576208D01*
X178359843Y-44576211D01*
X178329552Y-44619471D01*
X178231677Y-44759251D01*
X178229354Y-44764233D01*
X178229351Y-44764238D01*
X178213395Y-44798457D01*
X178166478Y-44851742D01*
X178098201Y-44871203D01*
X178030241Y-44850661D01*
X177985005Y-44798457D01*
X177969049Y-44764238D01*
X177969046Y-44764233D01*
X177966723Y-44759251D01*
X177868848Y-44619471D01*
X177838557Y-44576211D01*
X177838555Y-44576208D01*
X177835398Y-44571700D01*
X177673500Y-44409802D01*
X177668992Y-44406645D01*
X177668989Y-44406643D01*
X177552706Y-44325221D01*
X177508378Y-44269764D01*
X177499537Y-44233879D01*
X177499260Y-44230952D01*
X177498700Y-44219081D01*
X177498700Y-35431794D01*
X177518702Y-35363673D01*
X177552429Y-35328581D01*
X177645182Y-35263634D01*
X177712456Y-35240946D01*
X177781316Y-35258231D01*
G37*
%TD.AperFunction*%
%TA.AperFunction,Conductor*%
G36*
X173124159Y-34777739D02*
G01*
X173169395Y-34829943D01*
X173185351Y-34864162D01*
X173185354Y-34864167D01*
X173187677Y-34869149D01*
X173319002Y-35056700D01*
X173480900Y-35218598D01*
X173485408Y-35221755D01*
X173485411Y-35221757D01*
X173637971Y-35328581D01*
X173682299Y-35384038D01*
X173691700Y-35431794D01*
X173691700Y-41400306D01*
X173671698Y-41468427D01*
X173654795Y-41489401D01*
X171356947Y-43787248D01*
X171348661Y-43794788D01*
X171342182Y-43798900D01*
X171336757Y-43804677D01*
X171295557Y-43848551D01*
X171292802Y-43851393D01*
X171273065Y-43871130D01*
X171270590Y-43874321D01*
X171262882Y-43883347D01*
X171232614Y-43915579D01*
X171228795Y-43922525D01*
X171228793Y-43922528D01*
X171222852Y-43933334D01*
X171212001Y-43949853D01*
X171199586Y-43965859D01*
X171196441Y-43973128D01*
X171196438Y-43973132D01*
X171182026Y-44006437D01*
X171176809Y-44017087D01*
X171155505Y-44055840D01*
X171153534Y-44063515D01*
X171153534Y-44063516D01*
X171150467Y-44075462D01*
X171144063Y-44094166D01*
X171140249Y-44102981D01*
X171136019Y-44112755D01*
X171134780Y-44120578D01*
X171134777Y-44120588D01*
X171129101Y-44156424D01*
X171126695Y-44168044D01*
X171117671Y-44203190D01*
X171117670Y-44203196D01*
X171115700Y-44210870D01*
X171115700Y-44213265D01*
X171088304Y-44276087D01*
X171063948Y-44298435D01*
X170909411Y-44406643D01*
X170909408Y-44406645D01*
X170904900Y-44409802D01*
X170743002Y-44571700D01*
X170739845Y-44576208D01*
X170739843Y-44576211D01*
X170709552Y-44619471D01*
X170611677Y-44759251D01*
X170609354Y-44764233D01*
X170609351Y-44764238D01*
X170593395Y-44798457D01*
X170546478Y-44851742D01*
X170478201Y-44871203D01*
X170410241Y-44850661D01*
X170365005Y-44798457D01*
X170349049Y-44764238D01*
X170349046Y-44764233D01*
X170346723Y-44759251D01*
X170248848Y-44619471D01*
X170218557Y-44576211D01*
X170218555Y-44576208D01*
X170215398Y-44571700D01*
X170053500Y-44409802D01*
X170048992Y-44406645D01*
X170048989Y-44406643D01*
X169926092Y-44320590D01*
X169865949Y-44278477D01*
X169860967Y-44276154D01*
X169860962Y-44276151D01*
X169663425Y-44184039D01*
X169663424Y-44184039D01*
X169658443Y-44181716D01*
X169653135Y-44180294D01*
X169653133Y-44180293D01*
X169442602Y-44123881D01*
X169442600Y-44123881D01*
X169437287Y-44122457D01*
X169209200Y-44102502D01*
X168981113Y-44122457D01*
X168975800Y-44123881D01*
X168975798Y-44123881D01*
X168765267Y-44180293D01*
X168765265Y-44180294D01*
X168759957Y-44181716D01*
X168754976Y-44184039D01*
X168754975Y-44184039D01*
X168557438Y-44276151D01*
X168557433Y-44276154D01*
X168552451Y-44278477D01*
X168492308Y-44320590D01*
X168369411Y-44406643D01*
X168369408Y-44406645D01*
X168364900Y-44409802D01*
X168203002Y-44571700D01*
X168199845Y-44576208D01*
X168199843Y-44576211D01*
X168169552Y-44619471D01*
X168071677Y-44759251D01*
X168069354Y-44764233D01*
X168069351Y-44764238D01*
X168053395Y-44798457D01*
X168006478Y-44851742D01*
X167938201Y-44871203D01*
X167870241Y-44850661D01*
X167825005Y-44798457D01*
X167809049Y-44764238D01*
X167809046Y-44764233D01*
X167806723Y-44759251D01*
X167708848Y-44619471D01*
X167678557Y-44576211D01*
X167678555Y-44576208D01*
X167675398Y-44571700D01*
X167568946Y-44465248D01*
X167534920Y-44402936D01*
X167539985Y-44332121D01*
X167568946Y-44287058D01*
X170871447Y-40984557D01*
X170879737Y-40977013D01*
X170886218Y-40972900D01*
X170932859Y-40923232D01*
X170935613Y-40920391D01*
X170955335Y-40900669D01*
X170957812Y-40897476D01*
X170965517Y-40888455D01*
X170990359Y-40862000D01*
X170995786Y-40856221D01*
X171000501Y-40847644D01*
X171005546Y-40838468D01*
X171016402Y-40821941D01*
X171023957Y-40812202D01*
X171023958Y-40812200D01*
X171028814Y-40805940D01*
X171046374Y-40765360D01*
X171051591Y-40754712D01*
X171069075Y-40722909D01*
X171069076Y-40722907D01*
X171072895Y-40715960D01*
X171077933Y-40696337D01*
X171084337Y-40677634D01*
X171089233Y-40666320D01*
X171089233Y-40666319D01*
X171092381Y-40659045D01*
X171093620Y-40651222D01*
X171093623Y-40651212D01*
X171099299Y-40615376D01*
X171101705Y-40603756D01*
X171110728Y-40568611D01*
X171110728Y-40568610D01*
X171112700Y-40560930D01*
X171112700Y-40540676D01*
X171114251Y-40520965D01*
X171116180Y-40508786D01*
X171117420Y-40500957D01*
X171113259Y-40456938D01*
X171112700Y-40445081D01*
X171112700Y-35540358D01*
X171132702Y-35472237D01*
X171186358Y-35425744D01*
X171256632Y-35415640D01*
X171291948Y-35426162D01*
X171335957Y-35446684D01*
X171341265Y-35448106D01*
X171341267Y-35448107D01*
X171551798Y-35504519D01*
X171551800Y-35504519D01*
X171557113Y-35505943D01*
X171785200Y-35525898D01*
X172013287Y-35505943D01*
X172018600Y-35504519D01*
X172018602Y-35504519D01*
X172229133Y-35448107D01*
X172229135Y-35448106D01*
X172234443Y-35446684D01*
X172266375Y-35431794D01*
X172436962Y-35352249D01*
X172436967Y-35352246D01*
X172441949Y-35349923D01*
X172565182Y-35263634D01*
X172624989Y-35221757D01*
X172624992Y-35221755D01*
X172629500Y-35218598D01*
X172791398Y-35056700D01*
X172922723Y-34869149D01*
X172925046Y-34864167D01*
X172925049Y-34864162D01*
X172941005Y-34829943D01*
X172987922Y-34776658D01*
X173056199Y-34757197D01*
X173124159Y-34777739D01*
G37*
%TD.AperFunction*%
%TA.AperFunction,Conductor*%
G36*
X175664159Y-34777739D02*
G01*
X175709395Y-34829943D01*
X175725351Y-34864162D01*
X175725354Y-34864167D01*
X175727677Y-34869149D01*
X175859002Y-35056700D01*
X176020900Y-35218598D01*
X176025408Y-35221755D01*
X176025411Y-35221757D01*
X176177971Y-35328581D01*
X176222299Y-35384038D01*
X176231700Y-35431794D01*
X176231700Y-44050426D01*
X176221338Y-44100465D01*
X176216019Y-44112755D01*
X176214780Y-44120578D01*
X176214777Y-44120588D01*
X176209101Y-44156424D01*
X176206695Y-44168044D01*
X176197671Y-44203190D01*
X176197670Y-44203196D01*
X176195700Y-44210870D01*
X176195700Y-44213265D01*
X176168304Y-44276087D01*
X176143948Y-44298435D01*
X175989411Y-44406643D01*
X175989408Y-44406645D01*
X175984900Y-44409802D01*
X175823002Y-44571700D01*
X175819845Y-44576208D01*
X175819843Y-44576211D01*
X175789552Y-44619471D01*
X175691677Y-44759251D01*
X175689354Y-44764233D01*
X175689351Y-44764238D01*
X175673395Y-44798457D01*
X175626478Y-44851742D01*
X175558201Y-44871203D01*
X175490241Y-44850661D01*
X175445005Y-44798457D01*
X175429049Y-44764238D01*
X175429046Y-44764233D01*
X175426723Y-44759251D01*
X175328848Y-44619471D01*
X175298557Y-44576211D01*
X175298555Y-44576208D01*
X175295398Y-44571700D01*
X175133500Y-44409802D01*
X175128992Y-44406645D01*
X175128989Y-44406643D01*
X175006092Y-44320590D01*
X174945949Y-44278477D01*
X174940967Y-44276154D01*
X174940962Y-44276151D01*
X174743425Y-44184039D01*
X174743424Y-44184039D01*
X174738443Y-44181716D01*
X174733135Y-44180294D01*
X174733133Y-44180293D01*
X174522602Y-44123881D01*
X174522600Y-44123881D01*
X174517287Y-44122457D01*
X174289200Y-44102502D01*
X174061113Y-44122457D01*
X174055800Y-44123881D01*
X174055798Y-44123881D01*
X173845267Y-44180293D01*
X173845265Y-44180294D01*
X173839957Y-44181716D01*
X173834976Y-44184039D01*
X173834975Y-44184039D01*
X173637438Y-44276151D01*
X173637433Y-44276154D01*
X173632451Y-44278477D01*
X173572308Y-44320590D01*
X173449411Y-44406643D01*
X173449408Y-44406645D01*
X173444900Y-44409802D01*
X173283002Y-44571700D01*
X173279845Y-44576208D01*
X173279843Y-44576211D01*
X173249552Y-44619471D01*
X173151677Y-44759251D01*
X173149354Y-44764233D01*
X173149351Y-44764238D01*
X173133395Y-44798457D01*
X173086478Y-44851742D01*
X173018201Y-44871203D01*
X172950241Y-44850661D01*
X172905005Y-44798457D01*
X172889049Y-44764238D01*
X172889046Y-44764233D01*
X172886723Y-44759251D01*
X172788848Y-44619471D01*
X172758557Y-44576211D01*
X172758555Y-44576208D01*
X172755398Y-44571700D01*
X172648946Y-44465248D01*
X172614920Y-44402936D01*
X172619985Y-44332121D01*
X172648946Y-44287058D01*
X174717447Y-42218557D01*
X174725737Y-42211013D01*
X174732218Y-42206900D01*
X174778859Y-42157232D01*
X174781613Y-42154391D01*
X174801334Y-42134670D01*
X174803812Y-42131475D01*
X174811518Y-42122453D01*
X174813975Y-42119837D01*
X174841786Y-42090221D01*
X174851546Y-42072468D01*
X174862399Y-42055945D01*
X174869953Y-42046206D01*
X174874813Y-42039941D01*
X174892376Y-41999357D01*
X174897583Y-41988727D01*
X174918895Y-41949960D01*
X174920866Y-41942283D01*
X174920868Y-41942278D01*
X174923932Y-41930342D01*
X174930338Y-41911630D01*
X174935233Y-41900319D01*
X174938381Y-41893045D01*
X174939621Y-41885217D01*
X174939623Y-41885210D01*
X174945299Y-41849376D01*
X174947705Y-41837756D01*
X174956728Y-41802611D01*
X174956728Y-41802610D01*
X174958700Y-41794930D01*
X174958700Y-41774676D01*
X174960251Y-41754965D01*
X174962180Y-41742786D01*
X174963420Y-41734957D01*
X174959259Y-41690938D01*
X174958700Y-41679081D01*
X174958700Y-35431794D01*
X174978702Y-35363673D01*
X175012429Y-35328581D01*
X175164989Y-35221757D01*
X175164992Y-35221755D01*
X175169500Y-35218598D01*
X175331398Y-35056700D01*
X175462723Y-34869149D01*
X175465046Y-34864167D01*
X175465049Y-34864162D01*
X175481005Y-34829943D01*
X175527922Y-34776658D01*
X175596199Y-34757197D01*
X175664159Y-34777739D01*
G37*
%TD.AperFunction*%
%TA.AperFunction,Conductor*%
G36*
X185327212Y-35905270D02*
G01*
X185333795Y-35911399D01*
X193709455Y-44287060D01*
X193743480Y-44349370D01*
X193738415Y-44420185D01*
X193709454Y-44465248D01*
X193603002Y-44571700D01*
X193599845Y-44576208D01*
X193599843Y-44576211D01*
X193569552Y-44619471D01*
X193471677Y-44759251D01*
X193469354Y-44764233D01*
X193469351Y-44764238D01*
X193453395Y-44798457D01*
X193406478Y-44851742D01*
X193338201Y-44871203D01*
X193270241Y-44850661D01*
X193225005Y-44798457D01*
X193209049Y-44764238D01*
X193209046Y-44764233D01*
X193206723Y-44759251D01*
X193108848Y-44619471D01*
X193078557Y-44576211D01*
X193078555Y-44576208D01*
X193075398Y-44571700D01*
X192913500Y-44409802D01*
X192908992Y-44406645D01*
X192908989Y-44406643D01*
X192786092Y-44320590D01*
X192725949Y-44278477D01*
X192720967Y-44276154D01*
X192720962Y-44276151D01*
X192523425Y-44184039D01*
X192523424Y-44184039D01*
X192518443Y-44181716D01*
X192513135Y-44180294D01*
X192513133Y-44180293D01*
X192302602Y-44123881D01*
X192302600Y-44123881D01*
X192297287Y-44122457D01*
X192069200Y-44102502D01*
X191841113Y-44122457D01*
X191835800Y-44123881D01*
X191835798Y-44123881D01*
X191625267Y-44180293D01*
X191625265Y-44180294D01*
X191619957Y-44181716D01*
X191614976Y-44184039D01*
X191614975Y-44184039D01*
X191417438Y-44276151D01*
X191417433Y-44276154D01*
X191412451Y-44278477D01*
X191381972Y-44299819D01*
X191360022Y-44315188D01*
X191292748Y-44337875D01*
X191223888Y-44320590D01*
X191175304Y-44268820D01*
X191162442Y-44198803D01*
X191162740Y-44195973D01*
X191170504Y-44122100D01*
X191169008Y-44107869D01*
X191151232Y-43938735D01*
X191151232Y-43938733D01*
X191150542Y-43932172D01*
X191091527Y-43750544D01*
X190996040Y-43585156D01*
X190941351Y-43524417D01*
X190872675Y-43448145D01*
X190872674Y-43448144D01*
X190868253Y-43443234D01*
X190713752Y-43330982D01*
X190707724Y-43328298D01*
X190707722Y-43328297D01*
X190545319Y-43255991D01*
X190545318Y-43255991D01*
X190539288Y-43253306D01*
X190441691Y-43232561D01*
X190358944Y-43214972D01*
X190358939Y-43214972D01*
X190352487Y-43213600D01*
X190296594Y-43213600D01*
X190228473Y-43193598D01*
X190207499Y-43176695D01*
X185155605Y-38124800D01*
X185121579Y-38062488D01*
X185118700Y-38035705D01*
X185118700Y-36000494D01*
X185138702Y-35932373D01*
X185192358Y-35885880D01*
X185262632Y-35875776D01*
X185327212Y-35905270D01*
G37*
%TD.AperFunction*%
%TA.AperFunction,Conductor*%
G36*
X168751948Y-35426162D02*
G01*
X168795957Y-35446684D01*
X168801265Y-35448106D01*
X168801267Y-35448107D01*
X169011798Y-35504519D01*
X169011800Y-35504519D01*
X169017113Y-35505943D01*
X169245200Y-35525898D01*
X169473287Y-35505943D01*
X169478600Y-35504519D01*
X169478602Y-35504519D01*
X169687089Y-35448655D01*
X169758065Y-35450345D01*
X169816861Y-35490139D01*
X169844809Y-35555403D01*
X169845700Y-35570362D01*
X169845700Y-40166306D01*
X169825698Y-40234427D01*
X169808795Y-40255401D01*
X166276947Y-43787248D01*
X166268661Y-43794788D01*
X166262182Y-43798900D01*
X166256757Y-43804677D01*
X166215557Y-43848551D01*
X166212802Y-43851393D01*
X166193065Y-43871130D01*
X166190590Y-43874321D01*
X166182882Y-43883347D01*
X166152614Y-43915579D01*
X166148795Y-43922525D01*
X166148793Y-43922528D01*
X166142852Y-43933334D01*
X166132001Y-43949853D01*
X166119586Y-43965859D01*
X166116441Y-43973128D01*
X166116438Y-43973132D01*
X166102026Y-44006437D01*
X166096809Y-44017087D01*
X166075505Y-44055840D01*
X166073534Y-44063515D01*
X166073534Y-44063516D01*
X166070467Y-44075462D01*
X166064063Y-44094166D01*
X166060249Y-44102981D01*
X166056019Y-44112755D01*
X166054780Y-44120578D01*
X166054777Y-44120588D01*
X166049101Y-44156424D01*
X166046695Y-44168044D01*
X166037671Y-44203190D01*
X166037670Y-44203196D01*
X166035700Y-44210870D01*
X166035700Y-44213265D01*
X166008304Y-44276087D01*
X165983948Y-44298435D01*
X165829411Y-44406643D01*
X165829408Y-44406645D01*
X165824900Y-44409802D01*
X165663002Y-44571700D01*
X165659845Y-44576208D01*
X165659843Y-44576211D01*
X165629552Y-44619471D01*
X165531677Y-44759251D01*
X165529354Y-44764233D01*
X165529351Y-44764238D01*
X165513395Y-44798457D01*
X165466478Y-44851742D01*
X165398201Y-44871203D01*
X165330241Y-44850661D01*
X165285005Y-44798457D01*
X165269049Y-44764238D01*
X165269046Y-44764233D01*
X165266723Y-44759251D01*
X165168848Y-44619471D01*
X165138557Y-44576211D01*
X165138555Y-44576208D01*
X165135398Y-44571700D01*
X165028946Y-44465248D01*
X164994920Y-44402936D01*
X164999985Y-44332121D01*
X165028946Y-44287058D01*
X168331447Y-40984557D01*
X168339737Y-40977013D01*
X168346218Y-40972900D01*
X168392859Y-40923232D01*
X168395613Y-40920391D01*
X168415335Y-40900669D01*
X168417812Y-40897476D01*
X168425517Y-40888455D01*
X168450359Y-40862000D01*
X168455786Y-40856221D01*
X168460501Y-40847644D01*
X168465546Y-40838468D01*
X168476402Y-40821941D01*
X168483957Y-40812202D01*
X168483958Y-40812200D01*
X168488814Y-40805940D01*
X168506374Y-40765360D01*
X168511591Y-40754712D01*
X168529075Y-40722909D01*
X168529076Y-40722907D01*
X168532895Y-40715960D01*
X168537933Y-40696337D01*
X168544337Y-40677634D01*
X168549233Y-40666320D01*
X168549233Y-40666319D01*
X168552381Y-40659045D01*
X168553620Y-40651222D01*
X168553623Y-40651212D01*
X168559299Y-40615376D01*
X168561705Y-40603756D01*
X168570728Y-40568611D01*
X168570728Y-40568610D01*
X168572700Y-40560930D01*
X168572700Y-40540676D01*
X168574251Y-40520965D01*
X168576180Y-40508786D01*
X168577420Y-40500957D01*
X168573259Y-40456938D01*
X168572700Y-40445081D01*
X168572700Y-35540358D01*
X168592702Y-35472237D01*
X168646358Y-35425744D01*
X168716632Y-35415640D01*
X168751948Y-35426162D01*
G37*
%TD.AperFunction*%
%TA.AperFunction,Conductor*%
G36*
X167223732Y-36581339D02*
G01*
X167280568Y-36623886D01*
X167305379Y-36690406D01*
X167305700Y-36699395D01*
X167305700Y-40166306D01*
X167285698Y-40234427D01*
X167268795Y-40255401D01*
X163736947Y-43787248D01*
X163728661Y-43794788D01*
X163722182Y-43798900D01*
X163716757Y-43804677D01*
X163675557Y-43848551D01*
X163672802Y-43851393D01*
X163653065Y-43871130D01*
X163650590Y-43874321D01*
X163642882Y-43883347D01*
X163612614Y-43915579D01*
X163608795Y-43922525D01*
X163608793Y-43922528D01*
X163602852Y-43933334D01*
X163592001Y-43949853D01*
X163579586Y-43965859D01*
X163576441Y-43973128D01*
X163576438Y-43973132D01*
X163562026Y-44006437D01*
X163556809Y-44017087D01*
X163535505Y-44055840D01*
X163533534Y-44063515D01*
X163533534Y-44063516D01*
X163530467Y-44075462D01*
X163524063Y-44094166D01*
X163520249Y-44102981D01*
X163516019Y-44112755D01*
X163514780Y-44120578D01*
X163514777Y-44120588D01*
X163509101Y-44156424D01*
X163506695Y-44168044D01*
X163497671Y-44203190D01*
X163497670Y-44203196D01*
X163495700Y-44210870D01*
X163495700Y-44213265D01*
X163468304Y-44276087D01*
X163443948Y-44298435D01*
X163289411Y-44406643D01*
X163289408Y-44406645D01*
X163284900Y-44409802D01*
X163123002Y-44571700D01*
X163119845Y-44576208D01*
X163119843Y-44576211D01*
X163089552Y-44619471D01*
X162991677Y-44759251D01*
X162989354Y-44764233D01*
X162989351Y-44764238D01*
X162973395Y-44798457D01*
X162926478Y-44851742D01*
X162858201Y-44871203D01*
X162790241Y-44850661D01*
X162745005Y-44798457D01*
X162729049Y-44764238D01*
X162729046Y-44764233D01*
X162726723Y-44759251D01*
X162628848Y-44619471D01*
X162598557Y-44576211D01*
X162598555Y-44576208D01*
X162595398Y-44571700D01*
X162433500Y-44409802D01*
X162428992Y-44406645D01*
X162428989Y-44406643D01*
X162306092Y-44320590D01*
X162245949Y-44278477D01*
X162240967Y-44276154D01*
X162240962Y-44276151D01*
X162043425Y-44184039D01*
X162043424Y-44184039D01*
X162038443Y-44181716D01*
X162033135Y-44180294D01*
X162033133Y-44180293D01*
X161822602Y-44123881D01*
X161822600Y-44123881D01*
X161817287Y-44122457D01*
X161589200Y-44102502D01*
X161361113Y-44122457D01*
X161355800Y-44123881D01*
X161355798Y-44123881D01*
X161145267Y-44180293D01*
X161145265Y-44180294D01*
X161139957Y-44181716D01*
X161134976Y-44184039D01*
X161134975Y-44184039D01*
X160937438Y-44276151D01*
X160937433Y-44276154D01*
X160932451Y-44278477D01*
X160872308Y-44320590D01*
X160749411Y-44406643D01*
X160749408Y-44406645D01*
X160744900Y-44409802D01*
X160583002Y-44571700D01*
X160579845Y-44576208D01*
X160579843Y-44576211D01*
X160549552Y-44619471D01*
X160451677Y-44759251D01*
X160449354Y-44764233D01*
X160449351Y-44764238D01*
X160433395Y-44798457D01*
X160386478Y-44851742D01*
X160318201Y-44871203D01*
X160250241Y-44850661D01*
X160205005Y-44798457D01*
X160189049Y-44764238D01*
X160189046Y-44764233D01*
X160186723Y-44759251D01*
X160088848Y-44619471D01*
X160058557Y-44576211D01*
X160058555Y-44576208D01*
X160055398Y-44571700D01*
X159893500Y-44409802D01*
X159888992Y-44406645D01*
X159888989Y-44406643D01*
X159766092Y-44320590D01*
X159705949Y-44278477D01*
X159700961Y-44276151D01*
X159700956Y-44276148D01*
X159675677Y-44264360D01*
X159622392Y-44217443D01*
X159602932Y-44149165D01*
X159623475Y-44081205D01*
X159639833Y-44061071D01*
X163347252Y-40353653D01*
X167090605Y-36610300D01*
X167152917Y-36576274D01*
X167223732Y-36581339D01*
G37*
%TD.AperFunction*%
%TA.AperFunction,Conductor*%
G36*
X146004012Y-40990370D02*
G01*
X146010594Y-40996498D01*
X147117027Y-42102932D01*
X148218795Y-43204700D01*
X148252821Y-43267012D01*
X148255700Y-43293795D01*
X148255700Y-44196606D01*
X148235698Y-44264727D01*
X148201971Y-44299819D01*
X148049411Y-44406643D01*
X148049408Y-44406645D01*
X148044900Y-44409802D01*
X147883002Y-44571700D01*
X147879843Y-44576211D01*
X147876308Y-44580424D01*
X147875174Y-44579473D01*
X147825129Y-44619471D01*
X147754510Y-44626776D01*
X147691151Y-44594742D01*
X147655170Y-44533538D01*
X147652118Y-44516483D01*
X147650945Y-44505684D01*
X147599815Y-44369295D01*
X147512461Y-44252739D01*
X147395905Y-44165385D01*
X147259516Y-44114255D01*
X147197334Y-44107500D01*
X147047278Y-44107500D01*
X146979157Y-44087498D01*
X146936093Y-44036786D01*
X146935217Y-44037304D01*
X146932199Y-44032201D01*
X146932197Y-44032199D01*
X146931184Y-44030486D01*
X146931182Y-44030481D01*
X146924906Y-44019868D01*
X146916210Y-44002118D01*
X146911672Y-43990656D01*
X146911669Y-43990651D01*
X146908752Y-43983283D01*
X146890891Y-43958699D01*
X146882773Y-43947525D01*
X146876257Y-43937607D01*
X146863229Y-43915579D01*
X146853742Y-43899537D01*
X146839418Y-43885213D01*
X146826576Y-43870178D01*
X146814672Y-43853793D01*
X146780606Y-43825611D01*
X146771827Y-43817622D01*
X145832405Y-42878200D01*
X145798379Y-42815888D01*
X145795500Y-42789105D01*
X145795500Y-41085594D01*
X145815502Y-41017473D01*
X145869158Y-40970980D01*
X145939432Y-40960876D01*
X146004012Y-40990370D01*
G37*
%TD.AperFunction*%
%TA.AperFunction,Conductor*%
G36*
X195075532Y-31834838D02*
G01*
X195132368Y-31877385D01*
X195157179Y-31943905D01*
X195157500Y-31952894D01*
X195157500Y-32717429D01*
X195137498Y-32785550D01*
X195120595Y-32806525D01*
X194479277Y-33447842D01*
X194416965Y-33481867D01*
X194401601Y-33484227D01*
X194329252Y-33490811D01*
X194329250Y-33490811D01*
X194323112Y-33491370D01*
X194317206Y-33493108D01*
X194317202Y-33493109D01*
X194212076Y-33524049D01*
X194133381Y-33547210D01*
X194127923Y-33550063D01*
X194127919Y-33550065D01*
X194037147Y-33597520D01*
X193958110Y-33638840D01*
X193803975Y-33762768D01*
X193676846Y-33914274D01*
X193673879Y-33919672D01*
X193673875Y-33919677D01*
X193595095Y-34062980D01*
X193581567Y-34087587D01*
X193521765Y-34276106D01*
X193504500Y-34430027D01*
X193504500Y-35543100D01*
X193484498Y-35611221D01*
X193430842Y-35657714D01*
X193378500Y-35669100D01*
X193041231Y-35669100D01*
X193038175Y-35669400D01*
X193038168Y-35669400D01*
X192979660Y-35675137D01*
X192894167Y-35683520D01*
X192888266Y-35685302D01*
X192888264Y-35685302D01*
X192871071Y-35690493D01*
X192704831Y-35740684D01*
X192530204Y-35833534D01*
X192448747Y-35899969D01*
X192381713Y-35954640D01*
X192381710Y-35954643D01*
X192376938Y-35958535D01*
X192373011Y-35963282D01*
X192373009Y-35963284D01*
X192254799Y-36106175D01*
X192254797Y-36106179D01*
X192250870Y-36110925D01*
X192156802Y-36284899D01*
X192098318Y-36473832D01*
X192077645Y-36670525D01*
X192082860Y-36727824D01*
X192088242Y-36786962D01*
X192095570Y-36867488D01*
X192097308Y-36873394D01*
X192097309Y-36873398D01*
X192098508Y-36877472D01*
X192151410Y-37057219D01*
X192154263Y-37062677D01*
X192154265Y-37062681D01*
X192181557Y-37114884D01*
X192243040Y-37232490D01*
X192312981Y-37319479D01*
X192340077Y-37385099D01*
X192327394Y-37454953D01*
X192312148Y-37478405D01*
X192287973Y-37507836D01*
X192287590Y-37508299D01*
X192226722Y-37581390D01*
X192225080Y-37584404D01*
X192222897Y-37587061D01*
X192182558Y-37662294D01*
X192178035Y-37670729D01*
X192177661Y-37671422D01*
X192132087Y-37755057D01*
X192131059Y-37758340D01*
X192129438Y-37761363D01*
X192101616Y-37852364D01*
X192101476Y-37852817D01*
X192072987Y-37943798D01*
X192072617Y-37947216D01*
X192071613Y-37950498D01*
X192070990Y-37956629D01*
X192070990Y-37956630D01*
X192062007Y-38045066D01*
X192061918Y-38045912D01*
X192053367Y-38124800D01*
X192051673Y-38140423D01*
X192051973Y-38143845D01*
X192051626Y-38147262D01*
X192059218Y-38227568D01*
X192060572Y-38241894D01*
X192060640Y-38242645D01*
X192068956Y-38337444D01*
X192069916Y-38340746D01*
X192070239Y-38344162D01*
X192071999Y-38350065D01*
X192071999Y-38350066D01*
X192097395Y-38435255D01*
X192097635Y-38436071D01*
X192124178Y-38527354D01*
X192125759Y-38530403D01*
X192126741Y-38533696D01*
X192156678Y-38590475D01*
X192171101Y-38617831D01*
X192171364Y-38618333D01*
X192215236Y-38702923D01*
X192217380Y-38705607D01*
X192218982Y-38708646D01*
X192222854Y-38713428D01*
X192222857Y-38713432D01*
X192278755Y-38782460D01*
X192279287Y-38783122D01*
X192309695Y-38821195D01*
X192309704Y-38821206D01*
X192311894Y-38823947D01*
X192313655Y-38825708D01*
X192316138Y-38828624D01*
X192343447Y-38862347D01*
X192348183Y-38866293D01*
X192348187Y-38866297D01*
X192380306Y-38893058D01*
X192388726Y-38900744D01*
X192749360Y-39261210D01*
X192883575Y-39395363D01*
X192917614Y-39457667D01*
X192920500Y-39484479D01*
X192920500Y-39826169D01*
X192920800Y-39829225D01*
X192920800Y-39829232D01*
X192921530Y-39836673D01*
X192934920Y-39973233D01*
X192992084Y-40162569D01*
X193084934Y-40337196D01*
X193155291Y-40423462D01*
X193206040Y-40485687D01*
X193206043Y-40485690D01*
X193209935Y-40490462D01*
X193214682Y-40494389D01*
X193214684Y-40494391D01*
X193357575Y-40612601D01*
X193357579Y-40612603D01*
X193362325Y-40616530D01*
X193536299Y-40710598D01*
X193725232Y-40769082D01*
X193731357Y-40769726D01*
X193731358Y-40769726D01*
X193915796Y-40789111D01*
X193915798Y-40789111D01*
X193921925Y-40789755D01*
X194004424Y-40782247D01*
X194112749Y-40772389D01*
X194112752Y-40772388D01*
X194118888Y-40771830D01*
X194124794Y-40770092D01*
X194124798Y-40770091D01*
X194229924Y-40739151D01*
X194308619Y-40715990D01*
X194314077Y-40713137D01*
X194314081Y-40713135D01*
X194432527Y-40651212D01*
X194483890Y-40624360D01*
X194638025Y-40500432D01*
X194765154Y-40348926D01*
X194768121Y-40343528D01*
X194768125Y-40343523D01*
X194857467Y-40181008D01*
X194860433Y-40175613D01*
X194862846Y-40168008D01*
X194918373Y-39992964D01*
X194918373Y-39992963D01*
X194920235Y-39987094D01*
X194937500Y-39833173D01*
X194937500Y-39076115D01*
X194938234Y-39062536D01*
X194941663Y-39030901D01*
X194942327Y-39024777D01*
X194941789Y-39018641D01*
X194941852Y-39012475D01*
X194945056Y-39012508D01*
X194955592Y-38956501D01*
X195008689Y-38902485D01*
X195068347Y-38870764D01*
X195068353Y-38870760D01*
X195073796Y-38867866D01*
X195178514Y-38782460D01*
X195222287Y-38746760D01*
X195222290Y-38746757D01*
X195227062Y-38742865D01*
X195230991Y-38738116D01*
X195349201Y-38595225D01*
X195349203Y-38595221D01*
X195353130Y-38590475D01*
X195447198Y-38416501D01*
X195505682Y-38227568D01*
X195513691Y-38151371D01*
X195525711Y-38037004D01*
X195525711Y-38037002D01*
X195526355Y-38030875D01*
X195508430Y-37833912D01*
X195506618Y-37827753D01*
X195454330Y-37650094D01*
X195452590Y-37644181D01*
X195419764Y-37581390D01*
X195372506Y-37490996D01*
X195360960Y-37468910D01*
X195330202Y-37430655D01*
X195303107Y-37365034D01*
X195315791Y-37295180D01*
X195331879Y-37270713D01*
X195349154Y-37250126D01*
X195350866Y-37247011D01*
X195353130Y-37244275D01*
X195398318Y-37160701D01*
X195398721Y-37159963D01*
X195404361Y-37149705D01*
X195444433Y-37076813D01*
X195445506Y-37073430D01*
X195447198Y-37070301D01*
X195475282Y-36979574D01*
X195475538Y-36978758D01*
X195502373Y-36894165D01*
X195502374Y-36894161D01*
X195504235Y-36888294D01*
X195504631Y-36884763D01*
X195505682Y-36881368D01*
X195515611Y-36786893D01*
X195515699Y-36786086D01*
X195521500Y-36734373D01*
X195521500Y-36731800D01*
X195521820Y-36727824D01*
X195525711Y-36690804D01*
X195525711Y-36690802D01*
X195526355Y-36684675D01*
X195522019Y-36637030D01*
X195521500Y-36625610D01*
X195521500Y-34603171D01*
X195541502Y-34535050D01*
X195558405Y-34514076D01*
X195567605Y-34504876D01*
X195629917Y-34470850D01*
X195700732Y-34475915D01*
X195757568Y-34518462D01*
X195782379Y-34584982D01*
X195782700Y-34593971D01*
X195782700Y-44434812D01*
X195762698Y-44502933D01*
X195709042Y-44549426D01*
X195638768Y-44559530D01*
X195574188Y-44530036D01*
X195567605Y-44523907D01*
X195453500Y-44409802D01*
X195448992Y-44406645D01*
X195448989Y-44406643D01*
X195326092Y-44320590D01*
X195293782Y-44297966D01*
X195249455Y-44242510D01*
X195241818Y-44206692D01*
X195241363Y-44206764D01*
X195240123Y-44198936D01*
X195239874Y-44191011D01*
X195237662Y-44183397D01*
X195237661Y-44183392D01*
X195234223Y-44171559D01*
X195230212Y-44152195D01*
X195229905Y-44149760D01*
X195227674Y-44132103D01*
X195224757Y-44124736D01*
X195224756Y-44124731D01*
X195211398Y-44090992D01*
X195207554Y-44079765D01*
X195202122Y-44061071D01*
X195195218Y-44037307D01*
X195190745Y-44029743D01*
X195184907Y-44019872D01*
X195176212Y-44002124D01*
X195168752Y-43983283D01*
X195142764Y-43947513D01*
X195136248Y-43937593D01*
X195117780Y-43906365D01*
X195117778Y-43906362D01*
X195113742Y-43899538D01*
X195099421Y-43885217D01*
X195086580Y-43870183D01*
X195079331Y-43860206D01*
X195074672Y-43853793D01*
X195040595Y-43825602D01*
X195031816Y-43817612D01*
X187400300Y-36186095D01*
X187366274Y-36123783D01*
X187371339Y-36052968D01*
X187413886Y-35996132D01*
X187480406Y-35971321D01*
X187489395Y-35971000D01*
X190494033Y-35971000D01*
X190505216Y-35971527D01*
X190512709Y-35973202D01*
X190520635Y-35972953D01*
X190520636Y-35972953D01*
X190580786Y-35971062D01*
X190584745Y-35971000D01*
X190612656Y-35971000D01*
X190616591Y-35970503D01*
X190616656Y-35970495D01*
X190628493Y-35969562D01*
X190660751Y-35968548D01*
X190664770Y-35968422D01*
X190672689Y-35968173D01*
X190692143Y-35962521D01*
X190711500Y-35958513D01*
X190723730Y-35956968D01*
X190723731Y-35956968D01*
X190731597Y-35955974D01*
X190738968Y-35953055D01*
X190738970Y-35953055D01*
X190772712Y-35939696D01*
X190783942Y-35935851D01*
X190818783Y-35925729D01*
X190818784Y-35925729D01*
X190826393Y-35923518D01*
X190833212Y-35919485D01*
X190833217Y-35919483D01*
X190843828Y-35913207D01*
X190861576Y-35904512D01*
X190880417Y-35897052D01*
X190916187Y-35871064D01*
X190926107Y-35864548D01*
X190957335Y-35846080D01*
X190957338Y-35846078D01*
X190964162Y-35842042D01*
X190978483Y-35827721D01*
X190993517Y-35814880D01*
X191003494Y-35807631D01*
X191009907Y-35802972D01*
X191038098Y-35768895D01*
X191046088Y-35760116D01*
X194942405Y-31863799D01*
X195004717Y-31829773D01*
X195075532Y-31834838D01*
G37*
%TD.AperFunction*%
%TA.AperFunction,Conductor*%
G36*
X165504159Y-34777739D02*
G01*
X165549395Y-34829943D01*
X165565351Y-34864162D01*
X165565354Y-34864167D01*
X165567677Y-34869149D01*
X165699002Y-35056700D01*
X165860900Y-35218598D01*
X165865408Y-35221755D01*
X165865411Y-35221757D01*
X166017971Y-35328581D01*
X166062299Y-35384038D01*
X166071700Y-35431794D01*
X166071700Y-35785206D01*
X166051698Y-35853327D01*
X166034795Y-35874301D01*
X159428556Y-42480539D01*
X159366244Y-42514565D01*
X159295429Y-42509500D01*
X159245825Y-42475755D01*
X159245343Y-42475219D01*
X159149553Y-42368834D01*
X159018555Y-42273658D01*
X159000394Y-42260463D01*
X159000393Y-42260462D01*
X158995052Y-42256582D01*
X158989024Y-42253898D01*
X158989022Y-42253897D01*
X158826619Y-42181591D01*
X158826618Y-42181591D01*
X158820588Y-42178906D01*
X158711907Y-42155805D01*
X158640244Y-42140572D01*
X158640239Y-42140572D01*
X158633787Y-42139200D01*
X158442813Y-42139200D01*
X158436361Y-42140572D01*
X158436356Y-42140572D01*
X158364693Y-42155805D01*
X158256012Y-42178906D01*
X158249982Y-42181591D01*
X158249981Y-42181591D01*
X158087578Y-42253897D01*
X158087576Y-42253898D01*
X158081548Y-42256582D01*
X158076207Y-42260462D01*
X158076206Y-42260463D01*
X157965987Y-42340542D01*
X157927047Y-42368834D01*
X157922632Y-42373737D01*
X157917720Y-42378160D01*
X157916595Y-42376911D01*
X157863286Y-42409751D01*
X157830100Y-42414200D01*
X157499600Y-42414200D01*
X157431479Y-42394198D01*
X157384986Y-42340542D01*
X157373600Y-42288200D01*
X157373600Y-42273658D01*
X157374127Y-42262474D01*
X157375801Y-42254986D01*
X157373662Y-42186927D01*
X157373600Y-42182970D01*
X157373600Y-42155039D01*
X157373094Y-42151033D01*
X157372161Y-42139187D01*
X157371772Y-42126786D01*
X157370773Y-42095005D01*
X157365122Y-42075553D01*
X157361114Y-42056201D01*
X157359568Y-42043963D01*
X157359567Y-42043961D01*
X157358574Y-42036098D01*
X157342294Y-41994981D01*
X157338459Y-41983780D01*
X157326118Y-41941301D01*
X157322085Y-41934482D01*
X157322083Y-41934477D01*
X157315807Y-41923866D01*
X157307110Y-41906116D01*
X157299652Y-41887278D01*
X157273671Y-41851518D01*
X157267153Y-41841596D01*
X157248678Y-41810355D01*
X157248674Y-41810350D01*
X157244642Y-41803532D01*
X157230318Y-41789208D01*
X157217476Y-41774173D01*
X157205572Y-41757788D01*
X157171506Y-41729606D01*
X157162727Y-41721617D01*
X156819057Y-41377947D01*
X156811517Y-41369661D01*
X156807405Y-41363182D01*
X156757753Y-41316556D01*
X156754912Y-41313802D01*
X156735175Y-41294065D01*
X156731978Y-41291585D01*
X156722956Y-41283880D01*
X156696505Y-41259041D01*
X156690726Y-41253614D01*
X156683780Y-41249795D01*
X156683777Y-41249793D01*
X156672971Y-41243852D01*
X156656452Y-41233001D01*
X156655988Y-41232641D01*
X156640446Y-41220586D01*
X156633177Y-41217441D01*
X156633173Y-41217438D01*
X156599868Y-41203026D01*
X156589218Y-41197809D01*
X156550465Y-41176505D01*
X156530842Y-41171467D01*
X156512139Y-41165063D01*
X156500825Y-41160167D01*
X156500824Y-41160167D01*
X156493550Y-41157019D01*
X156485727Y-41155780D01*
X156485717Y-41155777D01*
X156449881Y-41150101D01*
X156438261Y-41147695D01*
X156403116Y-41138672D01*
X156403115Y-41138672D01*
X156395435Y-41136700D01*
X156375181Y-41136700D01*
X156355470Y-41135149D01*
X156343291Y-41133220D01*
X156335462Y-41131980D01*
X156327570Y-41132726D01*
X156291444Y-41136141D01*
X156279586Y-41136700D01*
X155842291Y-41136700D01*
X155774170Y-41116698D01*
X155753196Y-41099795D01*
X150865605Y-36212204D01*
X150831579Y-36149892D01*
X150828700Y-36123109D01*
X150828700Y-35900884D01*
X150848702Y-35832763D01*
X150902358Y-35786270D01*
X150972632Y-35776166D01*
X151035021Y-35803805D01*
X151042305Y-35809830D01*
X151043003Y-35810408D01*
X151048930Y-35815634D01*
X151084098Y-35848658D01*
X151084101Y-35848660D01*
X151089879Y-35854086D01*
X151097103Y-35858058D01*
X151116706Y-35871381D01*
X151116946Y-35871580D01*
X151116953Y-35871584D01*
X151123056Y-35876633D01*
X151156542Y-35892390D01*
X151173876Y-35900547D01*
X151180908Y-35904129D01*
X151230140Y-35931195D01*
X151237815Y-35933165D01*
X151237821Y-35933168D01*
X151238119Y-35933244D01*
X151260428Y-35941276D01*
X151260703Y-35941406D01*
X151260711Y-35941409D01*
X151267882Y-35944783D01*
X151323049Y-35955306D01*
X151330758Y-35957029D01*
X151355119Y-35963284D01*
X151377493Y-35969029D01*
X151377494Y-35969029D01*
X151385170Y-35971000D01*
X151393407Y-35971000D01*
X151417016Y-35973232D01*
X151417319Y-35973290D01*
X151417323Y-35973290D01*
X151425106Y-35974775D01*
X151481151Y-35971249D01*
X151489062Y-35971000D01*
X157010833Y-35971000D01*
X157022016Y-35971527D01*
X157029509Y-35973202D01*
X157037435Y-35972953D01*
X157037436Y-35972953D01*
X157097586Y-35971062D01*
X157101545Y-35971000D01*
X157129456Y-35971000D01*
X157133391Y-35970503D01*
X157133456Y-35970495D01*
X157145293Y-35969562D01*
X157177551Y-35968548D01*
X157181570Y-35968422D01*
X157189489Y-35968173D01*
X157208943Y-35962521D01*
X157228300Y-35958513D01*
X157240530Y-35956968D01*
X157240531Y-35956968D01*
X157248397Y-35955974D01*
X157255768Y-35953055D01*
X157255770Y-35953055D01*
X157289512Y-35939696D01*
X157300742Y-35935851D01*
X157335583Y-35925729D01*
X157335584Y-35925729D01*
X157343193Y-35923518D01*
X157350012Y-35919485D01*
X157350017Y-35919483D01*
X157360628Y-35913207D01*
X157378376Y-35904512D01*
X157397217Y-35897052D01*
X157432987Y-35871064D01*
X157442907Y-35864548D01*
X157474135Y-35846080D01*
X157474138Y-35846078D01*
X157480962Y-35842042D01*
X157495283Y-35827721D01*
X157510317Y-35814880D01*
X157520294Y-35807631D01*
X157526707Y-35802972D01*
X157554898Y-35768895D01*
X157562888Y-35760116D01*
X158085859Y-35237145D01*
X158148171Y-35203119D01*
X158218986Y-35208184D01*
X158247225Y-35223027D01*
X158397972Y-35328581D01*
X158428451Y-35349923D01*
X158433433Y-35352246D01*
X158433438Y-35352249D01*
X158604025Y-35431794D01*
X158635957Y-35446684D01*
X158641265Y-35448106D01*
X158641267Y-35448107D01*
X158851798Y-35504519D01*
X158851800Y-35504519D01*
X158857113Y-35505943D01*
X159085200Y-35525898D01*
X159313287Y-35505943D01*
X159318600Y-35504519D01*
X159318602Y-35504519D01*
X159529133Y-35448107D01*
X159529135Y-35448106D01*
X159534443Y-35446684D01*
X159566375Y-35431794D01*
X159736962Y-35352249D01*
X159736967Y-35352246D01*
X159741949Y-35349923D01*
X159865182Y-35263634D01*
X159924989Y-35221757D01*
X159924992Y-35221755D01*
X159929500Y-35218598D01*
X160091398Y-35056700D01*
X160222723Y-34869149D01*
X160225046Y-34864167D01*
X160225049Y-34864162D01*
X160241005Y-34829943D01*
X160287922Y-34776658D01*
X160356199Y-34757197D01*
X160424159Y-34777739D01*
X160469395Y-34829943D01*
X160485351Y-34864162D01*
X160485354Y-34864167D01*
X160487677Y-34869149D01*
X160619002Y-35056700D01*
X160780900Y-35218598D01*
X160785408Y-35221755D01*
X160785411Y-35221757D01*
X160845218Y-35263634D01*
X160968451Y-35349923D01*
X160973433Y-35352246D01*
X160973438Y-35352249D01*
X161144025Y-35431794D01*
X161175957Y-35446684D01*
X161181265Y-35448106D01*
X161181267Y-35448107D01*
X161391798Y-35504519D01*
X161391800Y-35504519D01*
X161397113Y-35505943D01*
X161625200Y-35525898D01*
X161853287Y-35505943D01*
X161858600Y-35504519D01*
X161858602Y-35504519D01*
X162069133Y-35448107D01*
X162069135Y-35448106D01*
X162074443Y-35446684D01*
X162106375Y-35431794D01*
X162276962Y-35352249D01*
X162276967Y-35352246D01*
X162281949Y-35349923D01*
X162405182Y-35263634D01*
X162464989Y-35221757D01*
X162464992Y-35221755D01*
X162469500Y-35218598D01*
X162631398Y-35056700D01*
X162762723Y-34869149D01*
X162765046Y-34864167D01*
X162765049Y-34864162D01*
X162781005Y-34829943D01*
X162827922Y-34776658D01*
X162896199Y-34757197D01*
X162964159Y-34777739D01*
X163009395Y-34829943D01*
X163025351Y-34864162D01*
X163025354Y-34864167D01*
X163027677Y-34869149D01*
X163159002Y-35056700D01*
X163320900Y-35218598D01*
X163325408Y-35221755D01*
X163325411Y-35221757D01*
X163385218Y-35263634D01*
X163508451Y-35349923D01*
X163513433Y-35352246D01*
X163513438Y-35352249D01*
X163684025Y-35431794D01*
X163715957Y-35446684D01*
X163721265Y-35448106D01*
X163721267Y-35448107D01*
X163931798Y-35504519D01*
X163931800Y-35504519D01*
X163937113Y-35505943D01*
X164165200Y-35525898D01*
X164393287Y-35505943D01*
X164398600Y-35504519D01*
X164398602Y-35504519D01*
X164609133Y-35448107D01*
X164609135Y-35448106D01*
X164614443Y-35446684D01*
X164646375Y-35431794D01*
X164816962Y-35352249D01*
X164816967Y-35352246D01*
X164821949Y-35349923D01*
X164945182Y-35263634D01*
X165004989Y-35221757D01*
X165004992Y-35221755D01*
X165009500Y-35218598D01*
X165171398Y-35056700D01*
X165302723Y-34869149D01*
X165305046Y-34864167D01*
X165305049Y-34864162D01*
X165321005Y-34829943D01*
X165367922Y-34776658D01*
X165436199Y-34757197D01*
X165504159Y-34777739D01*
G37*
%TD.AperFunction*%
%TA.AperFunction,Conductor*%
G36*
X194974621Y-17403502D02*
G01*
X195021114Y-17457158D01*
X195032500Y-17509500D01*
X195032500Y-28546306D01*
X195047046Y-28684702D01*
X195049086Y-28690980D01*
X195049086Y-28690981D01*
X195065720Y-28742175D01*
X195067747Y-28813143D01*
X195031085Y-28873941D01*
X194967373Y-28905266D01*
X194913276Y-28902818D01*
X194842602Y-28883881D01*
X194842600Y-28883881D01*
X194837287Y-28882457D01*
X194609200Y-28862502D01*
X194381113Y-28882457D01*
X194375800Y-28883881D01*
X194375798Y-28883881D01*
X194165267Y-28940293D01*
X194165265Y-28940294D01*
X194159957Y-28941716D01*
X194154976Y-28944039D01*
X194154975Y-28944039D01*
X193957438Y-29036151D01*
X193957433Y-29036154D01*
X193952451Y-29038477D01*
X193889069Y-29082858D01*
X193769411Y-29166643D01*
X193769410Y-29166644D01*
X193764900Y-29169802D01*
X193603002Y-29331700D01*
X193471677Y-29519251D01*
X193469354Y-29524233D01*
X193469351Y-29524238D01*
X193453395Y-29558457D01*
X193406478Y-29611742D01*
X193338201Y-29631203D01*
X193270241Y-29610661D01*
X193225005Y-29558457D01*
X193209049Y-29524238D01*
X193209046Y-29524233D01*
X193206723Y-29519251D01*
X193075398Y-29331700D01*
X192913500Y-29169802D01*
X192908990Y-29166644D01*
X192908989Y-29166643D01*
X192789331Y-29082858D01*
X192725949Y-29038477D01*
X192720967Y-29036154D01*
X192720962Y-29036151D01*
X192523425Y-28944039D01*
X192523424Y-28944039D01*
X192518443Y-28941716D01*
X192513135Y-28940294D01*
X192513133Y-28940293D01*
X192302602Y-28883881D01*
X192302600Y-28883881D01*
X192297287Y-28882457D01*
X192069200Y-28862502D01*
X191841113Y-28882457D01*
X191835800Y-28883881D01*
X191835798Y-28883881D01*
X191625267Y-28940293D01*
X191625265Y-28940294D01*
X191619957Y-28941716D01*
X191614976Y-28944039D01*
X191614975Y-28944039D01*
X191417438Y-29036151D01*
X191417433Y-29036154D01*
X191412451Y-29038477D01*
X191246928Y-29154378D01*
X191179656Y-29177065D01*
X191110796Y-29159780D01*
X191085564Y-29140259D01*
X188430552Y-26485247D01*
X188423012Y-26476961D01*
X188418900Y-26470482D01*
X188369248Y-26423856D01*
X188366407Y-26421102D01*
X188346670Y-26401365D01*
X188343473Y-26398885D01*
X188334451Y-26391180D01*
X188308000Y-26366341D01*
X188302221Y-26360914D01*
X188295275Y-26357095D01*
X188295272Y-26357093D01*
X188284466Y-26351152D01*
X188267947Y-26340301D01*
X188267483Y-26339941D01*
X188251941Y-26327886D01*
X188244672Y-26324741D01*
X188244668Y-26324738D01*
X188211363Y-26310326D01*
X188200713Y-26305109D01*
X188161960Y-26283805D01*
X188142337Y-26278767D01*
X188123634Y-26272363D01*
X188112320Y-26267467D01*
X188112319Y-26267467D01*
X188105045Y-26264319D01*
X188097222Y-26263080D01*
X188097212Y-26263077D01*
X188061376Y-26257401D01*
X188049756Y-26254995D01*
X188014611Y-26245972D01*
X188014610Y-26245972D01*
X188006930Y-26244000D01*
X187986676Y-26244000D01*
X187966965Y-26242449D01*
X187954786Y-26240520D01*
X187946957Y-26239280D01*
X187939065Y-26240026D01*
X187902939Y-26243441D01*
X187891081Y-26244000D01*
X180349200Y-26244000D01*
X180281079Y-26223998D01*
X180261853Y-26207657D01*
X180261580Y-26207960D01*
X180256668Y-26203537D01*
X180252253Y-26198634D01*
X180097752Y-26086382D01*
X180091724Y-26083698D01*
X180091722Y-26083697D01*
X179929319Y-26011391D01*
X179929318Y-26011391D01*
X179923288Y-26008706D01*
X179829887Y-25988853D01*
X179742944Y-25970372D01*
X179742939Y-25970372D01*
X179736487Y-25969000D01*
X179545513Y-25969000D01*
X179539061Y-25970372D01*
X179539056Y-25970372D01*
X179452112Y-25988853D01*
X179358712Y-26008706D01*
X179352682Y-26011391D01*
X179352681Y-26011391D01*
X179190278Y-26083697D01*
X179190276Y-26083698D01*
X179184248Y-26086382D01*
X179178907Y-26090262D01*
X179178906Y-26090263D01*
X179100365Y-26147327D01*
X179033498Y-26171185D01*
X178964346Y-26155105D01*
X178914866Y-26104191D01*
X178900766Y-26034609D01*
X178926524Y-25968450D01*
X178937209Y-25956296D01*
X179767400Y-25126105D01*
X179829712Y-25092079D01*
X179856495Y-25089200D01*
X179912387Y-25089200D01*
X179918839Y-25087828D01*
X179918844Y-25087828D01*
X180005787Y-25069347D01*
X180099188Y-25049494D01*
X180166170Y-25019672D01*
X180267622Y-24974503D01*
X180267624Y-24974502D01*
X180273652Y-24971818D01*
X180428153Y-24859566D01*
X180441287Y-24844979D01*
X180551521Y-24722552D01*
X180551522Y-24722551D01*
X180555940Y-24717644D01*
X180651427Y-24552256D01*
X180710442Y-24370628D01*
X180713577Y-24340806D01*
X180729003Y-24194030D01*
X180756016Y-24128373D01*
X180814238Y-24087743D01*
X180854313Y-24081200D01*
X186136233Y-24081200D01*
X186147416Y-24081727D01*
X186154909Y-24083402D01*
X186162835Y-24083153D01*
X186162836Y-24083153D01*
X186222986Y-24081262D01*
X186226945Y-24081200D01*
X186254856Y-24081200D01*
X186258791Y-24080703D01*
X186258856Y-24080695D01*
X186270693Y-24079762D01*
X186302951Y-24078748D01*
X186306970Y-24078622D01*
X186314889Y-24078373D01*
X186334343Y-24072721D01*
X186353700Y-24068713D01*
X186365930Y-24067168D01*
X186365931Y-24067168D01*
X186373797Y-24066174D01*
X186381168Y-24063255D01*
X186381170Y-24063255D01*
X186414912Y-24049896D01*
X186426142Y-24046051D01*
X186460983Y-24035929D01*
X186460984Y-24035929D01*
X186468593Y-24033718D01*
X186475412Y-24029685D01*
X186475417Y-24029683D01*
X186486028Y-24023407D01*
X186503776Y-24014712D01*
X186522617Y-24007252D01*
X186558387Y-23981264D01*
X186568307Y-23974748D01*
X186599535Y-23956280D01*
X186599538Y-23956278D01*
X186606362Y-23952242D01*
X186620683Y-23937921D01*
X186635717Y-23925080D01*
X186645694Y-23917831D01*
X186652107Y-23913172D01*
X186680298Y-23879095D01*
X186688288Y-23870316D01*
X189957447Y-20601157D01*
X189965737Y-20593613D01*
X189972218Y-20589500D01*
X190018859Y-20539832D01*
X190021613Y-20536991D01*
X190041334Y-20517270D01*
X190043812Y-20514075D01*
X190051518Y-20505053D01*
X190076358Y-20478601D01*
X190076359Y-20478600D01*
X190081786Y-20472821D01*
X190091547Y-20455066D01*
X190102399Y-20438545D01*
X190109953Y-20428806D01*
X190114813Y-20422541D01*
X190132376Y-20381957D01*
X190137583Y-20371327D01*
X190158895Y-20332560D01*
X190160866Y-20324883D01*
X190160868Y-20324878D01*
X190163932Y-20312942D01*
X190170338Y-20294230D01*
X190175233Y-20282919D01*
X190175234Y-20282917D01*
X190178381Y-20275645D01*
X190179622Y-20267812D01*
X190179623Y-20267810D01*
X190185299Y-20231976D01*
X190187705Y-20220356D01*
X190196729Y-20185210D01*
X190196730Y-20185204D01*
X190198700Y-20177530D01*
X190198700Y-20175135D01*
X190226096Y-20112313D01*
X190250452Y-20089965D01*
X190404989Y-19981757D01*
X190404992Y-19981755D01*
X190409500Y-19978598D01*
X190571398Y-19816700D01*
X190574780Y-19811871D01*
X190699566Y-19633657D01*
X190702723Y-19629149D01*
X190705046Y-19624167D01*
X190705049Y-19624162D01*
X190797161Y-19426625D01*
X190797161Y-19426624D01*
X190799484Y-19421643D01*
X190832650Y-19297869D01*
X190857319Y-19205802D01*
X190857319Y-19205800D01*
X190858743Y-19200487D01*
X190873700Y-19029527D01*
X190873700Y-18115273D01*
X190858743Y-17944313D01*
X190835200Y-17856450D01*
X190800907Y-17728467D01*
X190800906Y-17728465D01*
X190799484Y-17723157D01*
X190724685Y-17562748D01*
X190714024Y-17492558D01*
X190743004Y-17427746D01*
X190802424Y-17388889D01*
X190838880Y-17383500D01*
X194906500Y-17383500D01*
X194974621Y-17403502D01*
G37*
%TD.AperFunction*%
%TA.AperFunction,Conductor*%
G36*
X176045227Y-23151702D02*
G01*
X176091720Y-23205358D01*
X176101824Y-23275632D01*
X176072330Y-23340212D01*
X176066201Y-23346795D01*
X170237442Y-29175554D01*
X170175130Y-29209580D01*
X170104315Y-29204515D01*
X170061689Y-29177120D01*
X170061600Y-29177226D01*
X170060770Y-29176530D01*
X170059252Y-29175554D01*
X170053500Y-29169802D01*
X170048990Y-29166644D01*
X170048989Y-29166643D01*
X169929331Y-29082858D01*
X169865949Y-29038477D01*
X169860967Y-29036154D01*
X169860962Y-29036151D01*
X169663425Y-28944039D01*
X169663424Y-28944039D01*
X169658443Y-28941716D01*
X169653135Y-28940294D01*
X169653133Y-28940293D01*
X169442602Y-28883881D01*
X169442600Y-28883881D01*
X169437287Y-28882457D01*
X169209200Y-28862502D01*
X168981113Y-28882457D01*
X168975800Y-28883881D01*
X168975798Y-28883881D01*
X168765267Y-28940293D01*
X168765265Y-28940294D01*
X168759957Y-28941716D01*
X168754975Y-28944039D01*
X168754970Y-28944041D01*
X168751953Y-28945448D01*
X168750496Y-28945669D01*
X168749802Y-28945922D01*
X168749751Y-28945782D01*
X168681762Y-28956111D01*
X168616948Y-28927133D01*
X168578090Y-28867715D01*
X168572700Y-28831255D01*
X168572700Y-27341494D01*
X168592702Y-27273373D01*
X168609605Y-27252399D01*
X171205299Y-24656705D01*
X171267611Y-24622679D01*
X171294394Y-24619800D01*
X171350287Y-24619800D01*
X171356739Y-24618428D01*
X171356744Y-24618428D01*
X171443687Y-24599947D01*
X171537088Y-24580094D01*
X171543119Y-24577409D01*
X171705522Y-24505103D01*
X171705524Y-24505102D01*
X171711552Y-24502418D01*
X171866053Y-24390166D01*
X171883645Y-24370628D01*
X171989421Y-24253152D01*
X171989422Y-24253151D01*
X171993840Y-24248244D01*
X172089327Y-24082856D01*
X172148342Y-23901228D01*
X172151149Y-23874527D01*
X172167614Y-23717865D01*
X172168304Y-23711300D01*
X172164487Y-23674982D01*
X172149032Y-23527935D01*
X172149032Y-23527933D01*
X172148342Y-23521372D01*
X172089327Y-23339744D01*
X172078332Y-23320700D01*
X172061594Y-23251704D01*
X172084815Y-23184613D01*
X172140622Y-23140726D01*
X172187451Y-23131700D01*
X175977106Y-23131700D01*
X176045227Y-23151702D01*
G37*
%TD.AperFunction*%
%TD*%
M02*
