%TF.GenerationSoftware,KiCad,Pcbnew,(6.0.7)*%
%TF.CreationDate,2023-01-02T03:09:55+00:00*%
%TF.ProjectId,CPC-40007AdapterLM1117,4350432d-3430-4303-9037-416461707465,rev?*%
%TF.SameCoordinates,Original*%
%TF.FileFunction,Soldermask,Bot*%
%TF.FilePolarity,Negative*%
%FSLAX46Y46*%
G04 Gerber Fmt 4.6, Leading zero omitted, Abs format (unit mm)*
G04 Created by KiCad (PCBNEW (6.0.7)) date 2023-01-02 03:09:55*
%MOMM*%
%LPD*%
G01*
G04 APERTURE LIST*
%ADD10R,1.600000X2.400000*%
%ADD11O,1.600000X2.400000*%
%ADD12R,1.600000X1.600000*%
%ADD13O,1.600000X1.600000*%
G04 APERTURE END LIST*
D10*
%TO.C,IC2*%
X141305200Y-33812400D03*
D11*
X143845200Y-33812400D03*
X146385200Y-33812400D03*
X148925200Y-33812400D03*
X151465200Y-33812400D03*
X154005200Y-33812400D03*
X156545200Y-33812400D03*
X159085200Y-33812400D03*
X161625200Y-33812400D03*
X164165200Y-33812400D03*
X166705200Y-33812400D03*
X169245200Y-33812400D03*
X171785200Y-33812400D03*
X174325200Y-33812400D03*
X176865200Y-33812400D03*
X179405200Y-33812400D03*
X181945200Y-33812400D03*
X184485200Y-33812400D03*
X187025200Y-33812400D03*
X189565200Y-33812400D03*
X189565200Y-18572400D03*
X187025200Y-18572400D03*
X184485200Y-18572400D03*
X181945200Y-18572400D03*
X179405200Y-18572400D03*
X176865200Y-18572400D03*
X174325200Y-18572400D03*
X171785200Y-18572400D03*
X169245200Y-18572400D03*
X166705200Y-18572400D03*
X164165200Y-18572400D03*
X161625200Y-18572400D03*
X159085200Y-18572400D03*
X156545200Y-18572400D03*
X154005200Y-18572400D03*
X151465200Y-18572400D03*
X148925200Y-18572400D03*
X146385200Y-18572400D03*
X143845200Y-18572400D03*
X141305200Y-18572400D03*
%TD*%
D12*
%TO.C,IC3*%
X146349200Y-45416000D03*
D13*
X148889200Y-45416000D03*
X151429200Y-45416000D03*
X153969200Y-45416000D03*
X156509200Y-45416000D03*
X159049200Y-45416000D03*
X161589200Y-45416000D03*
X164129200Y-45416000D03*
X166669200Y-45416000D03*
X169209200Y-45416000D03*
X171749200Y-45416000D03*
X174289200Y-45416000D03*
X176829200Y-45416000D03*
X179369200Y-45416000D03*
X181909200Y-45416000D03*
X184449200Y-45416000D03*
X186989200Y-45416000D03*
X189529200Y-45416000D03*
X192069200Y-45416000D03*
X194609200Y-45416000D03*
X194609200Y-30176000D03*
X192069200Y-30176000D03*
X189529200Y-30176000D03*
X186989200Y-30176000D03*
X184449200Y-30176000D03*
X181909200Y-30176000D03*
X179369200Y-30176000D03*
X176829200Y-30176000D03*
X174289200Y-30176000D03*
X171749200Y-30176000D03*
X169209200Y-30176000D03*
X166669200Y-30176000D03*
X164129200Y-30176000D03*
X161589200Y-30176000D03*
X159049200Y-30176000D03*
X156509200Y-30176000D03*
X153969200Y-30176000D03*
X151429200Y-30176000D03*
X148889200Y-30176000D03*
X146349200Y-30176000D03*
%TD*%
M02*
