%TF.GenerationSoftware,KiCad,Pcbnew,(6.0.7)*%
%TF.CreationDate,2023-01-02T03:09:55+00:00*%
%TF.ProjectId,CPC-40007AdapterLM1117,4350432d-3430-4303-9037-416461707465,rev?*%
%TF.SameCoordinates,Original*%
%TF.FileFunction,Copper,L1,Top*%
%TF.FilePolarity,Positive*%
%FSLAX46Y46*%
G04 Gerber Fmt 4.6, Leading zero omitted, Abs format (unit mm)*
G04 Created by KiCad (PCBNEW (6.0.7)) date 2023-01-02 03:09:55*
%MOMM*%
%LPD*%
G01*
G04 APERTURE LIST*
G04 Aperture macros list*
%AMRoundRect*
0 Rectangle with rounded corners*
0 $1 Rounding radius*
0 $2 $3 $4 $5 $6 $7 $8 $9 X,Y pos of 4 corners*
0 Add a 4 corners polygon primitive as box body*
4,1,4,$2,$3,$4,$5,$6,$7,$8,$9,$2,$3,0*
0 Add four circle primitives for the rounded corners*
1,1,$1+$1,$2,$3*
1,1,$1+$1,$4,$5*
1,1,$1+$1,$6,$7*
1,1,$1+$1,$8,$9*
0 Add four rect primitives between the rounded corners*
20,1,$1+$1,$2,$3,$4,$5,0*
20,1,$1+$1,$4,$5,$6,$7,0*
20,1,$1+$1,$6,$7,$8,$9,0*
20,1,$1+$1,$8,$9,$2,$3,0*%
G04 Aperture macros list end*
%TA.AperFunction,SMDPad,CuDef*%
%ADD10R,2.000000X1.500000*%
%TD*%
%TA.AperFunction,SMDPad,CuDef*%
%ADD11R,2.000000X3.800000*%
%TD*%
%TA.AperFunction,ComponentPad*%
%ADD12R,1.600000X2.400000*%
%TD*%
%TA.AperFunction,ComponentPad*%
%ADD13O,1.600000X2.400000*%
%TD*%
%TA.AperFunction,SMDPad,CuDef*%
%ADD14RoundRect,0.250000X0.450000X0.425000X-0.450000X0.425000X-0.450000X-0.425000X0.450000X-0.425000X0*%
%TD*%
%TA.AperFunction,SMDPad,CuDef*%
%ADD15RoundRect,0.250000X-0.262500X-0.450000X0.262500X-0.450000X0.262500X0.450000X-0.262500X0.450000X0*%
%TD*%
%TA.AperFunction,SMDPad,CuDef*%
%ADD16RoundRect,0.250000X-0.375000X-0.625000X0.375000X-0.625000X0.375000X0.625000X-0.375000X0.625000X0*%
%TD*%
%TA.AperFunction,ComponentPad*%
%ADD17R,1.600000X1.600000*%
%TD*%
%TA.AperFunction,ComponentPad*%
%ADD18O,1.600000X1.600000*%
%TD*%
%TA.AperFunction,SMDPad,CuDef*%
%ADD19RoundRect,0.250000X0.262500X0.450000X-0.262500X0.450000X-0.262500X-0.450000X0.262500X-0.450000X0*%
%TD*%
%TA.AperFunction,SMDPad,CuDef*%
%ADD20RoundRect,0.250000X0.450000X-0.262500X0.450000X0.262500X-0.450000X0.262500X-0.450000X-0.262500X0*%
%TD*%
%TA.AperFunction,ViaPad*%
%ADD21C,0.800000*%
%TD*%
%TA.AperFunction,Conductor*%
%ADD22C,0.750000*%
%TD*%
%TA.AperFunction,Conductor*%
%ADD23C,0.250000*%
%TD*%
%TA.AperFunction,Conductor*%
%ADD24C,1.000000*%
%TD*%
%TA.AperFunction,Conductor*%
%ADD25C,0.500000*%
%TD*%
G04 APERTURE END LIST*
D10*
%TO.P,U1,1,GND*%
%TO.N,GND*%
X184200400Y-37476400D03*
D11*
%TO.P,U1,2,VO*%
%TO.N,3.3V*%
X190500400Y-39776400D03*
D10*
X184200400Y-39776400D03*
%TO.P,U1,3,VI*%
%TO.N,+5V*%
X184200400Y-42076400D03*
%TD*%
D12*
%TO.P,IC2,1,~{CPUAD}*%
%TO.N,CPU*%
X141305200Y-33812400D03*
D13*
%TO.P,IC2,2,READY*%
%TO.N,READY*%
X143845200Y-33812400D03*
%TO.P,IC2,3,~{CAS}*%
%TO.N,CAS*%
X146385200Y-33812400D03*
%TO.P,IC2,4,~{244EN}*%
%TO.N,244EN*%
X148925200Y-33812400D03*
%TO.P,IC2,5,~{MWE}*%
%TO.N,MWE*%
X151465200Y-33812400D03*
%TO.P,IC2,6,~{CASAD}*%
%TO.N,CASAD*%
X154005200Y-33812400D03*
%TO.P,IC2,7,~{RAS}*%
%TO.N,RAS*%
X156545200Y-33812400D03*
%TO.P,IC2,8,XTAL*%
%TO.N,CK16*%
X159085200Y-33812400D03*
%TO.P,IC2,9,VCC2A*%
%TO.N,3.3V*%
X161625200Y-33812400D03*
%TO.P,IC2,10,~{INT}*%
%TO.N,INT*%
X164165200Y-33812400D03*
%TO.P,IC2,11,SYNC*%
%TO.N,SYNC*%
X166705200Y-33812400D03*
%TO.P,IC2,12,~{ROMEN}*%
%TO.N,ROMEN*%
X169245200Y-33812400D03*
%TO.P,IC2,13,~{RAMRD}*%
%TO.N,RAMRD*%
X171785200Y-33812400D03*
%TO.P,IC2,14,HSYNC*%
%TO.N,HSYNC*%
X174325200Y-33812400D03*
%TO.P,IC2,15,VSYNC*%
%TO.N,VSYNC*%
X176865200Y-33812400D03*
%TO.P,IC2,16,~{IORQ}*%
%TO.N,IORQ*%
X179405200Y-33812400D03*
%TO.P,IC2,17,~{M1}*%
%TO.N,M1*%
X181945200Y-33812400D03*
%TO.P,IC2,18,~{MREQ}*%
%TO.N,MREQ*%
X184485200Y-33812400D03*
%TO.P,IC2,19,~{RD}*%
%TO.N,RD*%
X187025200Y-33812400D03*
%TO.P,IC2,20,A15*%
%TO.N,/A15*%
X189565200Y-33812400D03*
%TO.P,IC2,21,A14*%
%TO.N,/A14*%
X189565200Y-18572400D03*
%TO.P,IC2,22,VCC1A*%
%TO.N,+5V*%
X187025200Y-18572400D03*
%TO.P,IC2,23,DISPEN*%
%TO.N,DISPEN*%
X184485200Y-18572400D03*
%TO.P,IC2,24,D0*%
%TO.N,/GD0*%
X181945200Y-18572400D03*
%TO.P,IC2,25,D1*%
%TO.N,/GD1*%
X179405200Y-18572400D03*
%TO.P,IC2,26,D2*%
%TO.N,/GD2*%
X176865200Y-18572400D03*
%TO.P,IC2,27,D3*%
%TO.N,/GD3*%
X174325200Y-18572400D03*
%TO.P,IC2,28,D4*%
%TO.N,/GD4*%
X171785200Y-18572400D03*
%TO.P,IC2,29,D5*%
%TO.N,/GD5*%
X169245200Y-18572400D03*
%TO.P,IC2,30,D6*%
%TO.N,/GD6*%
X166705200Y-18572400D03*
%TO.P,IC2,31,D7*%
%TO.N,/GD7*%
X164165200Y-18572400D03*
%TO.P,IC2,32,B*%
%TO.N,B*%
X161625200Y-18572400D03*
%TO.P,IC2,33,VCC2B*%
%TO.N,3.3V*%
X159085200Y-18572400D03*
%TO.P,IC2,34,G*%
%TO.N,G*%
X156545200Y-18572400D03*
%TO.P,IC2,35,GND*%
%TO.N,GND*%
X154005200Y-18572400D03*
%TO.P,IC2,36,R*%
%TO.N,R*%
X151465200Y-18572400D03*
%TO.P,IC2,37,~{RESET}*%
%TO.N,RESET*%
X148925200Y-18572400D03*
%TO.P,IC2,38,VCC1B*%
%TO.N,+5V*%
X146385200Y-18572400D03*
%TO.P,IC2,39,PHI*%
%TO.N,PHI*%
X143845200Y-18572400D03*
%TO.P,IC2,40,CCLK*%
%TO.N,CCLK*%
X141305200Y-18572400D03*
%TD*%
D14*
%TO.P,C2,1*%
%TO.N,3.3V*%
X179810400Y-39776400D03*
%TO.P,C2,2*%
%TO.N,GND*%
X177110400Y-39776400D03*
%TD*%
D15*
%TO.P,R5,1*%
%TO.N,Net-(D1-Pad2)*%
X155526100Y-40055800D03*
%TO.P,R5,2*%
%TO.N,+5V*%
X157351100Y-40055800D03*
%TD*%
D14*
%TO.P,C1,1*%
%TO.N,+5V*%
X179810400Y-42087800D03*
%TO.P,C1,2*%
%TO.N,GND*%
X177110400Y-42087800D03*
%TD*%
D16*
%TO.P,D1,1,K*%
%TO.N,GND*%
X150009400Y-39852600D03*
%TO.P,D1,2,A*%
%TO.N,Net-(D1-Pad2)*%
X152809400Y-39852600D03*
%TD*%
D17*
%TO.P,IC3,1,D5*%
%TO.N,/GD5*%
X146349200Y-45416000D03*
D18*
%TO.P,IC3,2,D6*%
%TO.N,/GD6*%
X148889200Y-45416000D03*
%TO.P,IC3,3,D7*%
%TO.N,/GD7*%
X151429200Y-45416000D03*
%TO.P,IC3,4,CCLK*%
%TO.N,CCLK*%
X153969200Y-45416000D03*
%TO.P,IC3,5,SYNC*%
%TO.N,SYNC*%
X156509200Y-45416000D03*
%TO.P,IC3,6,VCCA*%
%TO.N,+5V*%
X159049200Y-45416000D03*
%TO.P,IC3,7,~{RESET}*%
%TO.N,RESET*%
X161589200Y-45416000D03*
%TO.P,IC3,8,B*%
%TO.N,B*%
X164129200Y-45416000D03*
%TO.P,IC3,9,DISPEN*%
%TO.N,DISPEN*%
X166669200Y-45416000D03*
%TO.P,IC3,10,G*%
%TO.N,G*%
X169209200Y-45416000D03*
%TO.P,IC3,11,HSYNC*%
%TO.N,HSYNC*%
X171749200Y-45416000D03*
%TO.P,IC3,12,R*%
%TO.N,R*%
X174289200Y-45416000D03*
%TO.P,IC3,13,VSYNC*%
%TO.N,VSYNC*%
X176829200Y-45416000D03*
%TO.P,IC3,14,~{CPU}*%
%TO.N,CPU*%
X179369200Y-45416000D03*
%TO.P,IC3,15,GNDA*%
%TO.N,GND*%
X181909200Y-45416000D03*
%TO.P,IC3,16,~{CAS}*%
%TO.N,CAS*%
X184449200Y-45416000D03*
%TO.P,IC3,17,~{MREQ}*%
%TO.N,MREQ*%
X186989200Y-45416000D03*
%TO.P,IC3,18,~{IORQ}*%
%TO.N,IORQ*%
X189529200Y-45416000D03*
%TO.P,IC3,19,PHI*%
%TO.N,PHI*%
X192069200Y-45416000D03*
%TO.P,IC3,20,~{M1}*%
%TO.N,M1*%
X194609200Y-45416000D03*
%TO.P,IC3,21,~{RD}*%
%TO.N,RD*%
X194609200Y-30176000D03*
%TO.P,IC3,22,READY*%
%TO.N,READY*%
X192069200Y-30176000D03*
%TO.P,IC3,23,~{244EN}*%
%TO.N,244EN*%
X189529200Y-30176000D03*
%TO.P,IC3,24,XTAL*%
%TO.N,CK16*%
X186989200Y-30176000D03*
%TO.P,IC3,25,VCCB*%
%TO.N,+5V*%
X184449200Y-30176000D03*
%TO.P,IC3,26,GNDB*%
%TO.N,GND*%
X181909200Y-30176000D03*
%TO.P,IC3,27,~{ROMEN}*%
%TO.N,ROMEN*%
X179369200Y-30176000D03*
%TO.P,IC3,28,A15*%
%TO.N,/A15*%
X176829200Y-30176000D03*
%TO.P,IC3,29,~{RAMRD}*%
%TO.N,RAMRD*%
X174289200Y-30176000D03*
%TO.P,IC3,30,A14*%
%TO.N,/A14*%
X171749200Y-30176000D03*
%TO.P,IC3,31,~{CASAD}*%
%TO.N,CASAD*%
X169209200Y-30176000D03*
%TO.P,IC3,32,~{INT}*%
%TO.N,INT*%
X166669200Y-30176000D03*
%TO.P,IC3,33,~{MWE}*%
%TO.N,MWE*%
X164129200Y-30176000D03*
%TO.P,IC3,34,~{RAS}*%
%TO.N,RAS*%
X161589200Y-30176000D03*
%TO.P,IC3,35,D0*%
%TO.N,/GD0*%
X159049200Y-30176000D03*
%TO.P,IC3,36,GNDC*%
%TO.N,GND*%
X156509200Y-30176000D03*
%TO.P,IC3,37,D1*%
%TO.N,/GD1*%
X153969200Y-30176000D03*
%TO.P,IC3,38,D2*%
%TO.N,/GD2*%
X151429200Y-30176000D03*
%TO.P,IC3,39,D3*%
%TO.N,/GD3*%
X148889200Y-30176000D03*
%TO.P,IC3,40,D4*%
%TO.N,/GD4*%
X146349200Y-30176000D03*
%TD*%
D16*
%TO.P,D2,1,K*%
%TO.N,GND*%
X164157200Y-39928800D03*
%TO.P,D2,2,A*%
%TO.N,Net-(D2-Pad2)*%
X166957200Y-39928800D03*
%TD*%
D19*
%TO.P,R6,1*%
%TO.N,Net-(D2-Pad2)*%
X161084900Y-40055800D03*
%TO.P,R6,2*%
%TO.N,3.3V*%
X159259900Y-40055800D03*
%TD*%
D20*
%TO.P,R2,1*%
%TO.N,READY*%
X193065400Y-27887300D03*
%TO.P,R2,2*%
%TO.N,+5V*%
X193065400Y-26062300D03*
%TD*%
D15*
%TO.P,R1,1*%
%TO.N,INT*%
X140687500Y-36600000D03*
%TO.P,R1,2*%
%TO.N,+5V*%
X142512500Y-36600000D03*
%TD*%
D21*
%TO.N,3.3V*%
X193929000Y-39776400D03*
X194513000Y-38023800D03*
X194513000Y-36677600D03*
X193091000Y-36677600D03*
X193065000Y-38150800D03*
%TO.N,CPU*%
X149359100Y-41758700D03*
%TO.N,READY*%
X179641000Y-26877500D03*
X153052800Y-26595500D03*
X160916300Y-26564900D03*
%TO.N,244EN*%
X180918800Y-28540700D03*
%TO.N,CK16*%
X180313800Y-31562000D03*
%TO.N,/GD5*%
X155481400Y-25209600D03*
X145162000Y-40310700D03*
%TO.N,/GD6*%
X143988400Y-38369600D03*
X147368500Y-29000900D03*
%TO.N,B*%
X171254800Y-23711300D03*
%TO.N,G*%
X154986700Y-21650900D03*
X158538300Y-43047700D03*
%TO.N,GND*%
X146550000Y-42850000D03*
X181127000Y-43713400D03*
X153900000Y-38100000D03*
X182067000Y-38379400D03*
X172862200Y-41137800D03*
X142400000Y-43800000D03*
X165364200Y-41135800D03*
X179726200Y-25573800D03*
X187200000Y-38300000D03*
X188500000Y-37000000D03*
X168462200Y-41137800D03*
X172391400Y-24708600D03*
X175362200Y-41137800D03*
%TO.N,R*%
X156015100Y-42495200D03*
%TO.N,RESET*%
X154634000Y-44080300D03*
%TO.N,MREQ*%
X190257000Y-44122100D03*
%TO.N,PHI*%
X162793000Y-20204400D03*
X179816900Y-24180700D03*
%TD*%
D22*
%TO.N,3.3V*%
X179810000Y-39776400D02*
X179810000Y-39424600D01*
D23*
X162018400Y-37126800D02*
X159259900Y-39885300D01*
D24*
X190500000Y-39776400D02*
X190500400Y-39776400D01*
D23*
X161625000Y-34462400D02*
X161625200Y-34462200D01*
D22*
X184200400Y-39776400D02*
X179810400Y-39776400D01*
D24*
X193065000Y-36703000D02*
X193091000Y-36677600D01*
D22*
X190500000Y-39776400D02*
X184200400Y-39776400D01*
X162018400Y-37126800D02*
X161625000Y-36733400D01*
D24*
X194513000Y-36677600D02*
X194513000Y-38023800D01*
D22*
X161625000Y-36733400D02*
X161625000Y-34462400D01*
X179810400Y-39776400D02*
X179810000Y-39776400D01*
X177952000Y-37566600D02*
X162458000Y-37566600D01*
D23*
X159259900Y-39885300D02*
X159259900Y-40055800D01*
D24*
X190500400Y-39776400D02*
X193929000Y-39776400D01*
X193065000Y-38150800D02*
X193065000Y-36703000D01*
D22*
X162458000Y-37566600D02*
X162018400Y-37126800D01*
D23*
X161625200Y-34462200D02*
X161625200Y-33812400D01*
D22*
X179810000Y-39424600D02*
X177952000Y-37566600D01*
X161625000Y-34462400D02*
X161625000Y-33812400D01*
D25*
%TO.N,+5V*%
X185699000Y-31426000D02*
X195713000Y-31426000D01*
X139750000Y-41000000D02*
X139750000Y-40000000D01*
D23*
X153995300Y-36700000D02*
X150445300Y-36700000D01*
D22*
X187325000Y-16484600D02*
X148473000Y-16484600D01*
X195834000Y-16535400D02*
X195834000Y-26111200D01*
D25*
X192225000Y-26062300D02*
X193065000Y-26062300D01*
D22*
X148473000Y-16484600D02*
X146385100Y-18572300D01*
D23*
X159049200Y-45416000D02*
X159049100Y-45416100D01*
D25*
X140185200Y-46685200D02*
X139750000Y-46250000D01*
X184449000Y-30176000D02*
X184449100Y-30176100D01*
D23*
X187025200Y-22192000D02*
X187025200Y-18572400D01*
D25*
X185822000Y-28803600D02*
X189484000Y-28803600D01*
D23*
X142213173Y-36600000D02*
X141188173Y-35575000D01*
X193065400Y-26062300D02*
X193065200Y-26062500D01*
X184449200Y-30176000D02*
X184449100Y-30176100D01*
X150445300Y-36700000D02*
X145629400Y-41515900D01*
X145629400Y-41515900D02*
X140265900Y-41515900D01*
X139750000Y-35750000D02*
X139750000Y-40000000D01*
D22*
X195916000Y-31223000D02*
X195916000Y-31098000D01*
D25*
X185736000Y-46496000D02*
X185736000Y-42076400D01*
X139750000Y-46250000D02*
X139750000Y-41000000D01*
D22*
X195916000Y-42945400D02*
X195916000Y-31223000D01*
D23*
X140265900Y-41515900D02*
X139750000Y-41000000D01*
D25*
X195713000Y-31426000D02*
X195916000Y-31223000D01*
X159049100Y-45416100D02*
X160318000Y-46685200D01*
D23*
X142512500Y-36600000D02*
X142213173Y-36600000D01*
X139925000Y-35575000D02*
X139750000Y-35750000D01*
D22*
X184189000Y-42087800D02*
X184200000Y-42076400D01*
X193140000Y-26136600D02*
X193065200Y-26062500D01*
X187025000Y-16784400D02*
X187025000Y-22192200D01*
D25*
X184449100Y-30176100D02*
X185699000Y-31426000D01*
D22*
X187325000Y-16484600D02*
X195783000Y-16484600D01*
D25*
X185547000Y-46685200D02*
X185736000Y-46496000D01*
X157780000Y-46685200D02*
X140185200Y-46685200D01*
D23*
X157351100Y-40055800D02*
X153995300Y-36700000D01*
D25*
X195916000Y-31223000D02*
X196041000Y-31098000D01*
D22*
X187025000Y-22192200D02*
X187025000Y-27600000D01*
X186247000Y-42076400D02*
X187249000Y-43078400D01*
D25*
X160318000Y-46685200D02*
X185547000Y-46685200D01*
D23*
X141188173Y-35575000D02*
X139925000Y-35575000D01*
D22*
X184200000Y-42076400D02*
X184200400Y-42076400D01*
X179810400Y-42087800D02*
X184189000Y-42087800D01*
X187249000Y-43078400D02*
X195783000Y-43078400D01*
X195783000Y-16484600D02*
X195834000Y-16535400D01*
X195783000Y-43078400D02*
X195916000Y-42945400D01*
D25*
X196041000Y-31098000D02*
X196041000Y-26187400D01*
X159049100Y-45416100D02*
X159049000Y-45416000D01*
X184449000Y-30176000D02*
X185822000Y-28803600D01*
D23*
X187025000Y-22192200D02*
X187025200Y-22192000D01*
D22*
X184200400Y-42076400D02*
X185736000Y-42076400D01*
D25*
X189484000Y-28803600D02*
X192225000Y-26062300D01*
D22*
X195834000Y-26111200D02*
X195809000Y-26136600D01*
D25*
X159049000Y-45416000D02*
X157780000Y-46685200D01*
D22*
X185736000Y-42076400D02*
X186247000Y-42076400D01*
X187325000Y-16484600D02*
X187025000Y-16784400D01*
X193065200Y-26062500D02*
X193065000Y-26062300D01*
X195809000Y-26136600D02*
X193140000Y-26136600D01*
X187025000Y-27600000D02*
X184449000Y-30176000D01*
D23*
%TO.N,CPU*%
X178244100Y-45416000D02*
X178244100Y-45161800D01*
X176682300Y-43600000D02*
X173200000Y-43600000D01*
X153884995Y-43600000D02*
X151200400Y-43600000D01*
X179369200Y-45416000D02*
X178244100Y-45416000D01*
X172056796Y-43391000D02*
X160629688Y-43391000D01*
X159008888Y-41770200D02*
X155714795Y-41770200D01*
X151200400Y-43600000D02*
X149359100Y-41758700D01*
X173200000Y-43600000D02*
X172732898Y-44067102D01*
X160629688Y-43391000D02*
X159008888Y-41770200D01*
X155714795Y-41770200D02*
X153884995Y-43600000D01*
X178244100Y-45161800D02*
X176682300Y-43600000D01*
X172732898Y-44067102D02*
X172056796Y-43391000D01*
%TO.N,READY*%
X179641000Y-26877500D02*
X161228900Y-26877500D01*
X161228900Y-26877500D02*
X160916300Y-26564900D01*
X193065400Y-27887300D02*
X192069200Y-28883500D01*
X143845200Y-31087200D02*
X148336900Y-26595500D01*
X148336900Y-26595500D02*
X153052800Y-26595500D01*
X192069200Y-28883500D02*
X192069200Y-30176000D01*
X143845200Y-33812400D02*
X143845200Y-31087200D01*
%TO.N,244EN*%
X157779200Y-30529800D02*
X157779200Y-29829000D01*
X148925200Y-32287300D02*
X150450300Y-32287300D01*
X156968800Y-31340200D02*
X157779200Y-30529800D01*
X150450300Y-32287300D02*
X151397400Y-31340200D01*
X157779200Y-29829000D02*
X159067500Y-28540700D01*
X148925200Y-33812400D02*
X148925200Y-32287300D01*
X159067500Y-28540700D02*
X180918800Y-28540700D01*
X151397400Y-31340200D02*
X156968800Y-31340200D01*
%TO.N,CASAD*%
X169209200Y-30176000D02*
X168084100Y-30176000D01*
X160319200Y-29792700D02*
X160319200Y-30546900D01*
X154005200Y-33812400D02*
X154005200Y-32287300D01*
X168084100Y-29894700D02*
X167212400Y-29023000D01*
X168084100Y-30176000D02*
X168084100Y-29894700D01*
X167212400Y-29023000D02*
X161088900Y-29023000D01*
X161088900Y-29023000D02*
X160319200Y-29792700D01*
X158578800Y-32287300D02*
X154005200Y-32287300D01*
X160319200Y-30546900D02*
X158578800Y-32287300D01*
%TO.N,CK16*%
X161214800Y-31562000D02*
X180313800Y-31562000D01*
X159085200Y-33691600D02*
X161214800Y-31562000D01*
X159085200Y-33812400D02*
X159085200Y-33691600D01*
%TO.N,Net-(D1-Pad2)*%
X155322900Y-39852600D02*
X155526100Y-40055800D01*
X152809400Y-39852600D02*
X155322900Y-39852600D01*
%TO.N,/GD5*%
X152991000Y-27700000D02*
X155481400Y-25209600D01*
X152273200Y-27700000D02*
X152991000Y-27700000D01*
X145162000Y-40310700D02*
X147655200Y-37817500D01*
X147655200Y-37817500D02*
X147655200Y-32882100D01*
X149035500Y-31501800D02*
X149244600Y-31501800D01*
X150014400Y-30732000D02*
X150014400Y-29958800D01*
X150014400Y-29958800D02*
X152273200Y-27700000D01*
X147655200Y-32882100D02*
X149035500Y-31501800D01*
X149244600Y-31501800D02*
X150014400Y-30732000D01*
%TO.N,INT*%
X140687500Y-39937500D02*
X140687500Y-36600000D01*
X164165200Y-33812400D02*
X164165200Y-32287300D01*
X150298100Y-36200000D02*
X145432200Y-41065900D01*
X160355200Y-33058300D02*
X160355200Y-34554100D01*
X141815900Y-41065900D02*
X140687500Y-39937500D01*
X161126200Y-32287300D02*
X160355200Y-33058300D01*
X158709300Y-36200000D02*
X150298100Y-36200000D01*
X164165200Y-32287300D02*
X161126200Y-32287300D01*
X160355200Y-34554100D02*
X158709300Y-36200000D01*
X145432200Y-41065900D02*
X141815900Y-41065900D01*
%TO.N,/GD6*%
X147368500Y-29000900D02*
X147474400Y-29106800D01*
X144970400Y-33234900D02*
X144970400Y-37387600D01*
X147474400Y-29106800D02*
X147474400Y-30730900D01*
X147474400Y-30730900D02*
X144970400Y-33234900D01*
X144970400Y-37387600D02*
X143988400Y-38369600D01*
%TO.N,ROMEN*%
X179369200Y-30176000D02*
X180494300Y-30176000D01*
X181041600Y-31241000D02*
X181041600Y-31883300D01*
X180494300Y-30176000D02*
X180494300Y-30693700D01*
X181041600Y-31883300D02*
X180637600Y-32287300D01*
X180637600Y-32287300D02*
X169245200Y-32287300D01*
X169245200Y-33812400D02*
X169245200Y-32287300D01*
X180494300Y-30693700D02*
X181041600Y-31241000D01*
%TO.N,B*%
X161625200Y-20097500D02*
X165238900Y-23711200D01*
X161625200Y-18572400D02*
X161625200Y-20097500D01*
X165238900Y-23711200D02*
X171254800Y-23711200D01*
X171254800Y-23711200D02*
X171254800Y-23711300D01*
%TO.N,G*%
X169209200Y-45416000D02*
X167794200Y-45416000D01*
X167794200Y-45416000D02*
X167794200Y-44950009D01*
X167794200Y-44950009D02*
X167135191Y-44291000D01*
X160256896Y-44291000D02*
X159013596Y-43047700D01*
X167135191Y-44291000D02*
X160256896Y-44291000D01*
X159013596Y-43047700D02*
X158538300Y-43047700D01*
X156545200Y-18572400D02*
X156545200Y-20097500D01*
X156545200Y-20097500D02*
X156540100Y-20097500D01*
X156540100Y-20097500D02*
X154986700Y-21650900D01*
%TO.N,GND*%
X175362200Y-41137800D02*
X172862200Y-41137800D01*
X164157200Y-39928800D02*
X161986000Y-42100000D01*
D22*
X183748500Y-37927900D02*
X184200000Y-37476400D01*
X154005000Y-18572400D02*
X154005000Y-19857200D01*
D23*
X172862200Y-41137800D02*
X168462200Y-41137800D01*
D22*
X177470000Y-42087800D02*
X179095000Y-43713400D01*
D25*
X181909000Y-30176000D02*
X181909200Y-30176200D01*
D22*
X177110000Y-41137800D02*
X177110000Y-42087800D01*
D23*
X177110000Y-41137800D02*
X175362200Y-41137800D01*
D22*
X177110000Y-42087800D02*
X177110400Y-42087800D01*
D25*
X183859000Y-32126000D02*
X190317000Y-32126000D01*
D23*
X181909200Y-44955800D02*
X181909200Y-45416000D01*
D22*
X181909000Y-27756600D02*
X181909000Y-30176000D01*
D23*
X184200400Y-37476400D02*
X186376400Y-37476400D01*
D22*
X172391400Y-24708600D02*
X178861000Y-24708600D01*
D23*
X155528399Y-41320200D02*
X154748599Y-42100000D01*
D22*
X183297000Y-38379400D02*
X183748500Y-37927900D01*
D23*
X181909000Y-44955600D02*
X181909200Y-44955800D01*
X181909200Y-30176200D02*
X181909200Y-30176000D01*
D22*
X181909000Y-44955600D02*
X181909000Y-45416000D01*
D23*
X152256800Y-42100000D02*
X150009400Y-39852600D01*
D22*
X179726200Y-25573800D02*
X181909000Y-27756600D01*
D25*
X184201000Y-36601400D02*
X184201000Y-37490400D01*
D22*
X177110400Y-42087800D02*
X177470000Y-42087800D01*
X181909000Y-44495200D02*
X181909000Y-44955600D01*
D25*
X191313000Y-34232600D02*
X189579000Y-35966400D01*
D23*
X150009400Y-39852600D02*
X149547400Y-39852600D01*
X183748500Y-37927900D02*
X183748900Y-37927900D01*
D25*
X189579000Y-35966400D02*
X184836000Y-35966400D01*
D23*
X183748900Y-37927900D02*
X184200400Y-37476400D01*
X156509200Y-28881800D02*
X156509200Y-30176000D01*
X159975084Y-42100000D02*
X159195284Y-41320200D01*
X159195284Y-41320200D02*
X155528399Y-41320200D01*
D22*
X156509000Y-28881600D02*
X156509000Y-30176000D01*
D23*
X186376400Y-37476400D02*
X187200000Y-38300000D01*
X145600000Y-43800000D02*
X142400000Y-43800000D01*
D25*
X183195000Y-31462000D02*
X183195000Y-36471200D01*
D22*
X178861000Y-24708600D02*
X179726200Y-25573800D01*
D23*
X161986000Y-42100000D02*
X159975084Y-42100000D01*
D25*
X191313000Y-33121600D02*
X191313000Y-34232600D01*
D22*
X182067000Y-38379400D02*
X183297000Y-38379400D01*
D25*
X190317000Y-32126000D02*
X191313000Y-33121600D01*
D23*
X153400000Y-37600000D02*
X153900000Y-38100000D01*
X152262000Y-37600000D02*
X153400000Y-37600000D01*
D22*
X154005000Y-22204600D02*
X156509000Y-24708600D01*
D25*
X183195000Y-36471200D02*
X184200000Y-37476400D01*
D23*
X165366200Y-41137800D02*
X165364200Y-41135800D01*
X154005200Y-19857000D02*
X154005200Y-18572400D01*
D22*
X156509000Y-24708600D02*
X172391400Y-24708600D01*
D23*
X168462200Y-41137800D02*
X165366200Y-41137800D01*
X149547400Y-39852600D02*
X146550000Y-42850000D01*
X156509000Y-28881600D02*
X156509200Y-28881800D01*
D25*
X184836000Y-35966400D02*
X184201000Y-36601400D01*
D23*
X146550000Y-42850000D02*
X145600000Y-43800000D01*
D25*
X183195000Y-31462000D02*
X183859000Y-32126000D01*
D23*
X165364200Y-41135800D02*
X164157200Y-39928800D01*
D22*
X177110000Y-39776400D02*
X177110000Y-41137800D01*
D25*
X181909200Y-30176200D02*
X183195000Y-31462000D01*
D22*
X181127000Y-43713400D02*
X181909000Y-44495200D01*
D23*
X154748599Y-42100000D02*
X152256800Y-42100000D01*
D22*
X179095000Y-43713400D02*
X181127000Y-43713400D01*
D23*
X150009400Y-39852600D02*
X152262000Y-37600000D01*
D22*
X154005000Y-19857200D02*
X154005000Y-22204600D01*
D23*
X154005000Y-19857200D02*
X154005200Y-19857000D01*
D22*
X156509000Y-24708600D02*
X156509000Y-28881600D01*
D23*
X187200000Y-38300000D02*
X188500000Y-37000000D01*
%TO.N,R*%
X173164100Y-45416000D02*
X173164100Y-45134700D01*
X160443292Y-43841000D02*
X158924992Y-42322700D01*
X173164100Y-45134700D02*
X171870400Y-43841000D01*
X171870400Y-43841000D02*
X160443292Y-43841000D01*
X174289200Y-45416000D02*
X173164100Y-45416000D01*
X158924992Y-42322700D02*
X156187600Y-42322700D01*
X156187600Y-42322700D02*
X156015100Y-42495200D01*
%TO.N,RESET*%
X161589200Y-45416000D02*
X160464100Y-45416000D01*
X160464100Y-45134600D02*
X160464100Y-45416000D01*
X154634000Y-44080300D02*
X159409800Y-44080300D01*
X159409800Y-44080300D02*
X160464100Y-45134600D01*
%TO.N,MREQ*%
X188114300Y-45134700D02*
X189126900Y-44122100D01*
X189126900Y-44122100D02*
X190257000Y-44122100D01*
X188114300Y-45416000D02*
X188114300Y-45134700D01*
X186989200Y-45416000D02*
X188114300Y-45416000D01*
%TO.N,PHI*%
X179816900Y-24180700D02*
X175840600Y-20204400D01*
X175840600Y-20204400D02*
X162793000Y-20204400D01*
%TO.N,Net-(D2-Pad2)*%
X165745400Y-38717000D02*
X166957200Y-39928800D01*
X161084900Y-40055800D02*
X162423700Y-38717000D01*
X162423700Y-38717000D02*
X165745400Y-38717000D01*
%TD*%
%TA.AperFunction,Conductor*%
%TO.N,3.3V*%
G36*
X160930569Y-35322787D02*
G01*
X160964193Y-35346331D01*
X160973689Y-35351814D01*
X161171147Y-35443890D01*
X161181439Y-35447636D01*
X161353703Y-35493794D01*
X161367799Y-35493458D01*
X161371200Y-35485516D01*
X161371200Y-35300000D01*
X161879200Y-35300000D01*
X161879200Y-35480367D01*
X161883173Y-35493898D01*
X161891722Y-35495127D01*
X162068961Y-35447636D01*
X162079253Y-35443890D01*
X162276711Y-35351814D01*
X162286207Y-35346331D01*
X162319831Y-35322787D01*
X162392102Y-35300000D01*
X163397426Y-35300000D01*
X163469697Y-35322787D01*
X163508451Y-35349923D01*
X163513433Y-35352246D01*
X163513438Y-35352249D01*
X163709965Y-35443890D01*
X163715957Y-35446684D01*
X163721265Y-35448106D01*
X163721267Y-35448107D01*
X163931798Y-35504519D01*
X163931800Y-35504519D01*
X163937113Y-35505943D01*
X164165200Y-35525898D01*
X164393287Y-35505943D01*
X164398600Y-35504519D01*
X164398602Y-35504519D01*
X164609133Y-35448107D01*
X164609135Y-35448106D01*
X164614443Y-35446684D01*
X164620435Y-35443890D01*
X164816962Y-35352249D01*
X164816967Y-35352246D01*
X164821949Y-35349923D01*
X164860703Y-35322787D01*
X164932974Y-35300000D01*
X165937426Y-35300000D01*
X166009697Y-35322787D01*
X166048451Y-35349923D01*
X166053433Y-35352246D01*
X166053438Y-35352249D01*
X166249965Y-35443890D01*
X166255957Y-35446684D01*
X166261265Y-35448106D01*
X166261267Y-35448107D01*
X166471798Y-35504519D01*
X166471800Y-35504519D01*
X166477113Y-35505943D01*
X166705200Y-35525898D01*
X166933287Y-35505943D01*
X166938600Y-35504519D01*
X166938602Y-35504519D01*
X167149133Y-35448107D01*
X167149135Y-35448106D01*
X167154443Y-35446684D01*
X167160435Y-35443890D01*
X167356962Y-35352249D01*
X167356967Y-35352246D01*
X167361949Y-35349923D01*
X167400703Y-35322787D01*
X167472974Y-35300000D01*
X168477426Y-35300000D01*
X168549697Y-35322787D01*
X168588451Y-35349923D01*
X168593433Y-35352246D01*
X168593438Y-35352249D01*
X168789965Y-35443890D01*
X168795957Y-35446684D01*
X168801265Y-35448106D01*
X168801267Y-35448107D01*
X169011798Y-35504519D01*
X169011800Y-35504519D01*
X169017113Y-35505943D01*
X169245200Y-35525898D01*
X169473287Y-35505943D01*
X169478600Y-35504519D01*
X169478602Y-35504519D01*
X169689133Y-35448107D01*
X169689135Y-35448106D01*
X169694443Y-35446684D01*
X169700435Y-35443890D01*
X169896962Y-35352249D01*
X169896967Y-35352246D01*
X169901949Y-35349923D01*
X169940703Y-35322787D01*
X170012974Y-35300000D01*
X171017426Y-35300000D01*
X171089697Y-35322787D01*
X171128451Y-35349923D01*
X171133433Y-35352246D01*
X171133438Y-35352249D01*
X171329965Y-35443890D01*
X171335957Y-35446684D01*
X171341265Y-35448106D01*
X171341267Y-35448107D01*
X171551798Y-35504519D01*
X171551800Y-35504519D01*
X171557113Y-35505943D01*
X171785200Y-35525898D01*
X172013287Y-35505943D01*
X172018600Y-35504519D01*
X172018602Y-35504519D01*
X172229133Y-35448107D01*
X172229135Y-35448106D01*
X172234443Y-35446684D01*
X172240435Y-35443890D01*
X172436962Y-35352249D01*
X172436967Y-35352246D01*
X172441949Y-35349923D01*
X172480703Y-35322787D01*
X172552974Y-35300000D01*
X173557426Y-35300000D01*
X173629697Y-35322787D01*
X173668451Y-35349923D01*
X173673433Y-35352246D01*
X173673438Y-35352249D01*
X173869965Y-35443890D01*
X173875957Y-35446684D01*
X173881265Y-35448106D01*
X173881267Y-35448107D01*
X174091798Y-35504519D01*
X174091800Y-35504519D01*
X174097113Y-35505943D01*
X174325200Y-35525898D01*
X174553287Y-35505943D01*
X174558600Y-35504519D01*
X174558602Y-35504519D01*
X174769133Y-35448107D01*
X174769135Y-35448106D01*
X174774443Y-35446684D01*
X174780435Y-35443890D01*
X174976962Y-35352249D01*
X174976967Y-35352246D01*
X174981949Y-35349923D01*
X175020703Y-35322787D01*
X175092974Y-35300000D01*
X176097426Y-35300000D01*
X176169697Y-35322787D01*
X176208451Y-35349923D01*
X176213433Y-35352246D01*
X176213438Y-35352249D01*
X176409965Y-35443890D01*
X176415957Y-35446684D01*
X176421265Y-35448106D01*
X176421267Y-35448107D01*
X176631798Y-35504519D01*
X176631800Y-35504519D01*
X176637113Y-35505943D01*
X176865200Y-35525898D01*
X177093287Y-35505943D01*
X177098600Y-35504519D01*
X177098602Y-35504519D01*
X177309133Y-35448107D01*
X177309135Y-35448106D01*
X177314443Y-35446684D01*
X177320435Y-35443890D01*
X177516962Y-35352249D01*
X177516967Y-35352246D01*
X177521949Y-35349923D01*
X177560703Y-35322787D01*
X177632974Y-35300000D01*
X178637426Y-35300000D01*
X178709697Y-35322787D01*
X178748451Y-35349923D01*
X178753433Y-35352246D01*
X178753438Y-35352249D01*
X178949965Y-35443890D01*
X178955957Y-35446684D01*
X178961265Y-35448106D01*
X178961267Y-35448107D01*
X179171798Y-35504519D01*
X179171800Y-35504519D01*
X179177113Y-35505943D01*
X179405200Y-35525898D01*
X179633287Y-35505943D01*
X179638600Y-35504519D01*
X179638602Y-35504519D01*
X179849133Y-35448107D01*
X179849135Y-35448106D01*
X179854443Y-35446684D01*
X179860435Y-35443890D01*
X180056962Y-35352249D01*
X180056967Y-35352246D01*
X180061949Y-35349923D01*
X180100703Y-35322787D01*
X180172974Y-35300000D01*
X181177426Y-35300000D01*
X181249697Y-35322787D01*
X181288451Y-35349923D01*
X181293433Y-35352246D01*
X181293438Y-35352249D01*
X181489965Y-35443890D01*
X181495957Y-35446684D01*
X181501265Y-35448106D01*
X181501267Y-35448107D01*
X181711798Y-35504519D01*
X181711800Y-35504519D01*
X181717113Y-35505943D01*
X181945200Y-35525898D01*
X182173287Y-35505943D01*
X182178600Y-35504519D01*
X182178602Y-35504519D01*
X182277889Y-35477915D01*
X182348865Y-35479605D01*
X182407661Y-35519399D01*
X182435609Y-35584663D01*
X182436500Y-35599622D01*
X182436500Y-36404089D01*
X182435065Y-36423051D01*
X182431804Y-36444473D01*
X182432397Y-36451772D01*
X182436086Y-36497184D01*
X182436500Y-36507386D01*
X182436500Y-36515493D01*
X182439789Y-36543702D01*
X182440217Y-36548035D01*
X182441321Y-36561625D01*
X182445091Y-36608029D01*
X182446125Y-36620762D01*
X182448379Y-36627723D01*
X182449573Y-36633701D01*
X182450970Y-36639612D01*
X182451818Y-36646881D01*
X182476722Y-36715490D01*
X182478134Y-36719606D01*
X182485191Y-36741398D01*
X182498335Y-36781983D01*
X182500617Y-36789030D01*
X182504416Y-36795292D01*
X182506937Y-36800799D01*
X182509668Y-36806253D01*
X182512167Y-36813137D01*
X182539858Y-36855373D01*
X182552158Y-36874134D01*
X182554510Y-36877862D01*
X182592358Y-36940247D01*
X182596068Y-36944449D01*
X182599755Y-36948625D01*
X182599727Y-36948650D01*
X182602372Y-36951630D01*
X182605129Y-36954927D01*
X182609144Y-36961052D01*
X182614462Y-36966090D01*
X182614463Y-36966091D01*
X182652553Y-37002175D01*
X182688251Y-37063544D01*
X182691900Y-37093647D01*
X182691900Y-37369900D01*
X182671898Y-37438021D01*
X182618242Y-37484514D01*
X182565900Y-37495900D01*
X182293347Y-37495900D01*
X182267150Y-37493147D01*
X182168944Y-37472272D01*
X182168939Y-37472272D01*
X182162487Y-37470900D01*
X181971513Y-37470900D01*
X181965061Y-37472272D01*
X181965056Y-37472272D01*
X181878113Y-37490753D01*
X181784712Y-37510606D01*
X181778682Y-37513291D01*
X181778681Y-37513291D01*
X181616278Y-37585597D01*
X181616276Y-37585598D01*
X181610248Y-37588282D01*
X181455747Y-37700534D01*
X181451326Y-37705444D01*
X181451325Y-37705445D01*
X181340522Y-37828505D01*
X181327960Y-37842456D01*
X181232473Y-38007844D01*
X181173458Y-38189472D01*
X181172768Y-38196033D01*
X181172768Y-38196035D01*
X181159244Y-38324707D01*
X181153496Y-38379400D01*
X181154186Y-38385965D01*
X181172058Y-38556003D01*
X181173458Y-38569328D01*
X181232473Y-38750956D01*
X181235776Y-38756678D01*
X181235777Y-38756679D01*
X181248587Y-38778866D01*
X181327960Y-38916344D01*
X181332378Y-38921251D01*
X181332379Y-38921252D01*
X181435540Y-39035824D01*
X181455747Y-39058266D01*
X181505506Y-39094418D01*
X181604180Y-39166109D01*
X181610248Y-39170518D01*
X181616276Y-39173202D01*
X181616278Y-39173203D01*
X181765782Y-39239766D01*
X181784712Y-39248194D01*
X181854712Y-39263073D01*
X181965056Y-39286528D01*
X181965061Y-39286528D01*
X181971513Y-39287900D01*
X182162487Y-39287900D01*
X182168939Y-39286528D01*
X182168944Y-39286528D01*
X182267150Y-39265653D01*
X182293347Y-39262900D01*
X182566400Y-39262900D01*
X182634521Y-39282902D01*
X182681014Y-39336558D01*
X182692400Y-39388900D01*
X182692400Y-39504285D01*
X182696875Y-39519524D01*
X182698265Y-39520729D01*
X182705948Y-39522400D01*
X185690284Y-39522400D01*
X185705523Y-39517925D01*
X185706728Y-39516535D01*
X185708399Y-39508852D01*
X185708399Y-38981731D01*
X185708029Y-38974910D01*
X185702505Y-38924048D01*
X185698879Y-38908796D01*
X185653724Y-38788346D01*
X185645186Y-38772752D01*
X185592447Y-38702382D01*
X185567599Y-38635876D01*
X185582652Y-38566493D01*
X185592447Y-38551252D01*
X185629975Y-38501178D01*
X185651015Y-38473105D01*
X185702145Y-38336716D01*
X185708900Y-38274534D01*
X185708900Y-38235900D01*
X185728902Y-38167779D01*
X185782558Y-38121286D01*
X185834900Y-38109900D01*
X186061806Y-38109900D01*
X186129927Y-38129902D01*
X186150901Y-38146805D01*
X186252878Y-38248782D01*
X186286904Y-38311094D01*
X186289092Y-38324703D01*
X186289141Y-38325168D01*
X186305444Y-38480276D01*
X186306458Y-38489928D01*
X186365473Y-38671556D01*
X186460960Y-38836944D01*
X186465378Y-38841851D01*
X186465379Y-38841852D01*
X186584027Y-38973624D01*
X186588747Y-38978866D01*
X186665480Y-39034616D01*
X186717952Y-39072739D01*
X186743248Y-39091118D01*
X186749276Y-39093802D01*
X186749278Y-39093803D01*
X186906825Y-39163947D01*
X186917712Y-39168794D01*
X187011113Y-39188647D01*
X187098056Y-39207128D01*
X187098061Y-39207128D01*
X187104513Y-39208500D01*
X187295487Y-39208500D01*
X187301939Y-39207128D01*
X187301944Y-39207128D01*
X187388887Y-39188647D01*
X187482288Y-39168794D01*
X187493175Y-39163947D01*
X187650722Y-39093803D01*
X187650724Y-39093802D01*
X187656752Y-39091118D01*
X187682049Y-39072739D01*
X187734520Y-39034616D01*
X187811253Y-38978866D01*
X187815973Y-38973624D01*
X187934621Y-38841852D01*
X187934622Y-38841851D01*
X187939040Y-38836944D01*
X188034527Y-38671556D01*
X188093542Y-38489928D01*
X188094557Y-38480276D01*
X188110859Y-38325168D01*
X188110907Y-38324706D01*
X188137920Y-38259050D01*
X188147122Y-38248782D01*
X188450499Y-37945405D01*
X188512811Y-37911379D01*
X188539594Y-37908500D01*
X188595487Y-37908500D01*
X188601939Y-37907128D01*
X188601944Y-37907128D01*
X188688887Y-37888647D01*
X188782288Y-37868794D01*
X188788321Y-37866108D01*
X188788327Y-37866106D01*
X188815153Y-37854163D01*
X188885520Y-37844729D01*
X188949817Y-37874837D01*
X188987629Y-37934926D01*
X188992400Y-37969270D01*
X188992400Y-39504285D01*
X188996875Y-39519524D01*
X188998265Y-39520729D01*
X189005948Y-39522400D01*
X190228285Y-39522400D01*
X190243524Y-39517925D01*
X190244729Y-39516535D01*
X190246400Y-39508852D01*
X190246400Y-39504285D01*
X190754400Y-39504285D01*
X190758875Y-39519524D01*
X190760265Y-39520729D01*
X190767948Y-39522400D01*
X191990284Y-39522400D01*
X192005523Y-39517925D01*
X192006728Y-39516535D01*
X192008399Y-39508852D01*
X192008399Y-37831731D01*
X192008029Y-37824910D01*
X192002505Y-37774048D01*
X191998879Y-37758796D01*
X191953724Y-37638346D01*
X191945186Y-37622751D01*
X191868685Y-37520676D01*
X191856124Y-37508115D01*
X191754049Y-37431614D01*
X191738454Y-37423076D01*
X191618006Y-37377922D01*
X191602751Y-37374295D01*
X191551886Y-37368769D01*
X191545072Y-37368400D01*
X190772515Y-37368400D01*
X190757276Y-37372875D01*
X190756071Y-37374265D01*
X190754400Y-37381948D01*
X190754400Y-39504285D01*
X190246400Y-39504285D01*
X190246400Y-37386516D01*
X190241925Y-37371277D01*
X190240535Y-37370072D01*
X190232852Y-37368401D01*
X189508977Y-37368401D01*
X189440856Y-37348399D01*
X189394363Y-37294743D01*
X189384259Y-37224469D01*
X189389143Y-37203468D01*
X189391502Y-37196207D01*
X189391502Y-37196205D01*
X189393542Y-37189928D01*
X189403662Y-37093647D01*
X189412814Y-37006565D01*
X189413504Y-37000000D01*
X189399422Y-36866021D01*
X189412194Y-36796185D01*
X189460696Y-36744338D01*
X189529529Y-36726943D01*
X189543686Y-36728286D01*
X189545065Y-36728496D01*
X189545072Y-36728496D01*
X189552305Y-36729597D01*
X189605002Y-36725314D01*
X189615209Y-36724900D01*
X189623293Y-36724900D01*
X189626929Y-36724476D01*
X189626930Y-36724476D01*
X189631550Y-36723937D01*
X189651489Y-36721612D01*
X189655854Y-36721181D01*
X189665968Y-36720359D01*
X189721303Y-36715862D01*
X189721307Y-36715861D01*
X189728593Y-36715269D01*
X189735552Y-36713015D01*
X189741480Y-36711831D01*
X189747403Y-36710431D01*
X189754681Y-36709582D01*
X189823260Y-36684688D01*
X189827400Y-36683268D01*
X189889888Y-36663029D01*
X189889897Y-36663025D01*
X189896859Y-36660770D01*
X189903116Y-36656974D01*
X189908614Y-36654457D01*
X189914061Y-36651729D01*
X189920937Y-36649233D01*
X189981936Y-36609240D01*
X189985662Y-36606889D01*
X190043282Y-36571929D01*
X190043283Y-36571928D01*
X190048073Y-36569022D01*
X190056449Y-36561625D01*
X190056473Y-36561652D01*
X190059468Y-36558996D01*
X190062726Y-36556272D01*
X190068852Y-36552256D01*
X190122100Y-36496046D01*
X190124478Y-36493603D01*
X191281316Y-35336899D01*
X191343630Y-35302878D01*
X191370406Y-35300000D01*
X194906500Y-35300000D01*
X194974621Y-35320002D01*
X195021114Y-35373658D01*
X195032500Y-35426000D01*
X195032500Y-42068900D01*
X195012498Y-42137021D01*
X194958842Y-42183514D01*
X194906500Y-42194900D01*
X191998582Y-42194900D01*
X191930461Y-42174898D01*
X191883968Y-42121242D01*
X191873864Y-42050968D01*
X191897755Y-41993335D01*
X191945189Y-41930044D01*
X191953724Y-41914454D01*
X191998878Y-41794006D01*
X192002505Y-41778751D01*
X192008031Y-41727886D01*
X192008400Y-41721072D01*
X192008400Y-40048515D01*
X192003925Y-40033276D01*
X192002535Y-40032071D01*
X191994852Y-40030400D01*
X189010516Y-40030400D01*
X188995277Y-40034875D01*
X188994072Y-40036265D01*
X188992401Y-40043948D01*
X188992401Y-41721069D01*
X188992771Y-41727890D01*
X188998295Y-41778752D01*
X189001921Y-41794004D01*
X189047076Y-41914454D01*
X189055611Y-41930044D01*
X189103045Y-41993335D01*
X189127892Y-42059842D01*
X189112839Y-42129224D01*
X189062664Y-42179454D01*
X189002218Y-42194900D01*
X187667148Y-42194900D01*
X187599027Y-42174898D01*
X187578053Y-42157995D01*
X186927912Y-41507854D01*
X186915075Y-41492826D01*
X186907185Y-41481966D01*
X186857816Y-41437514D01*
X186853031Y-41432973D01*
X186838986Y-41418928D01*
X186836409Y-41416841D01*
X186823554Y-41406431D01*
X186818538Y-41402147D01*
X186774080Y-41362117D01*
X186774075Y-41362113D01*
X186769169Y-41357696D01*
X186757552Y-41350989D01*
X186741259Y-41339791D01*
X186735971Y-41335509D01*
X186730839Y-41331353D01*
X186671637Y-41301187D01*
X186665867Y-41298054D01*
X186614055Y-41268140D01*
X186614050Y-41268138D01*
X186608331Y-41264836D01*
X186602051Y-41262795D01*
X186602043Y-41262792D01*
X186595579Y-41260692D01*
X186577317Y-41253128D01*
X186571251Y-41250037D01*
X186571242Y-41250034D01*
X186565363Y-41247038D01*
X186524543Y-41236100D01*
X186501196Y-41229844D01*
X186494894Y-41227978D01*
X186431702Y-41207446D01*
X186418372Y-41206045D01*
X186398929Y-41202442D01*
X186385971Y-41198970D01*
X186379381Y-41198625D01*
X186379377Y-41198624D01*
X186335427Y-41196321D01*
X186319628Y-41195493D01*
X186313069Y-41194977D01*
X186293306Y-41192900D01*
X186273445Y-41192900D01*
X186266850Y-41192727D01*
X186207098Y-41189595D01*
X186207094Y-41189595D01*
X186200507Y-41189250D01*
X186187253Y-41191349D01*
X186167544Y-41192900D01*
X185780782Y-41192900D01*
X185712661Y-41172898D01*
X185666168Y-41119242D01*
X185662801Y-41111131D01*
X185654169Y-41088107D01*
X185654168Y-41088104D01*
X185651015Y-41079695D01*
X185592447Y-41001548D01*
X185567599Y-40935042D01*
X185582652Y-40865659D01*
X185592447Y-40850418D01*
X185645186Y-40780048D01*
X185653724Y-40764454D01*
X185698878Y-40644006D01*
X185702505Y-40628751D01*
X185708031Y-40577886D01*
X185708400Y-40571072D01*
X185708400Y-40048515D01*
X185703925Y-40033276D01*
X185702535Y-40032071D01*
X185694852Y-40030400D01*
X182710516Y-40030400D01*
X182695277Y-40034875D01*
X182694072Y-40036265D01*
X182692401Y-40043948D01*
X182692401Y-40571069D01*
X182692771Y-40577890D01*
X182698295Y-40628752D01*
X182701921Y-40644004D01*
X182747076Y-40764454D01*
X182755614Y-40780048D01*
X182808353Y-40850418D01*
X182833201Y-40916924D01*
X182818148Y-40986307D01*
X182808353Y-41001548D01*
X182755167Y-41072513D01*
X182755165Y-41072516D01*
X182749785Y-41079695D01*
X182734960Y-41119242D01*
X182733727Y-41122530D01*
X182691085Y-41179294D01*
X182624523Y-41203994D01*
X182615745Y-41204300D01*
X180926880Y-41204300D01*
X180858759Y-41184298D01*
X180837862Y-41167473D01*
X180835680Y-41165294D01*
X180733703Y-41063495D01*
X180727469Y-41059652D01*
X180694002Y-41039022D01*
X180646509Y-40986250D01*
X180635087Y-40916178D01*
X180663361Y-40851054D01*
X180693816Y-40824619D01*
X180728207Y-40803337D01*
X180739608Y-40794301D01*
X180854139Y-40679571D01*
X180863151Y-40668160D01*
X180948216Y-40530157D01*
X180954363Y-40516976D01*
X181005538Y-40362690D01*
X181008405Y-40349314D01*
X181018072Y-40254962D01*
X181018400Y-40248546D01*
X181018400Y-40048515D01*
X181013925Y-40033276D01*
X181012535Y-40032071D01*
X181004852Y-40030400D01*
X178620516Y-40030400D01*
X178605277Y-40034875D01*
X178604072Y-40036265D01*
X178602401Y-40043948D01*
X178602401Y-40248495D01*
X178602738Y-40255014D01*
X178612657Y-40350606D01*
X178615549Y-40364000D01*
X178666988Y-40518184D01*
X178673161Y-40531362D01*
X178758463Y-40669207D01*
X178767499Y-40680608D01*
X178882229Y-40795139D01*
X178893640Y-40804151D01*
X178926797Y-40824589D01*
X178974290Y-40877361D01*
X178985714Y-40947433D01*
X178957440Y-41012556D01*
X178926987Y-41038991D01*
X178886052Y-41064322D01*
X178761095Y-41189497D01*
X178757255Y-41195727D01*
X178757254Y-41195728D01*
X178677121Y-41325728D01*
X178668285Y-41340062D01*
X178665981Y-41347009D01*
X178622685Y-41477544D01*
X178612603Y-41507939D01*
X178601900Y-41612400D01*
X178601900Y-41666159D01*
X178581898Y-41734280D01*
X178528242Y-41780773D01*
X178457968Y-41790877D01*
X178393388Y-41761383D01*
X178386789Y-41755239D01*
X178368050Y-41736493D01*
X178355789Y-41724227D01*
X178321775Y-41661909D01*
X178318900Y-41635148D01*
X178318900Y-41612400D01*
X178318563Y-41609150D01*
X178308638Y-41513492D01*
X178308637Y-41513488D01*
X178307926Y-41506634D01*
X178251950Y-41338854D01*
X178158878Y-41188452D01*
X178033703Y-41063495D01*
X178035237Y-41061958D01*
X178000344Y-41012738D01*
X177993500Y-40971778D01*
X177993500Y-40892400D01*
X178013502Y-40824279D01*
X178035195Y-40800324D01*
X178034748Y-40799878D01*
X178154534Y-40679883D01*
X178159705Y-40674703D01*
X178181720Y-40638989D01*
X178248675Y-40530368D01*
X178248676Y-40530366D01*
X178252515Y-40524138D01*
X178297960Y-40387126D01*
X178306032Y-40362789D01*
X178306032Y-40362787D01*
X178308197Y-40356261D01*
X178309179Y-40346682D01*
X178317137Y-40269006D01*
X178318900Y-40251800D01*
X178318900Y-39504285D01*
X178602400Y-39504285D01*
X178606875Y-39519524D01*
X178608265Y-39520729D01*
X178615948Y-39522400D01*
X179538285Y-39522400D01*
X179553524Y-39517925D01*
X179554729Y-39516535D01*
X179556400Y-39508852D01*
X179556400Y-39504285D01*
X180064400Y-39504285D01*
X180068875Y-39519524D01*
X180070265Y-39520729D01*
X180077948Y-39522400D01*
X181000284Y-39522400D01*
X181015523Y-39517925D01*
X181016728Y-39516535D01*
X181018399Y-39508852D01*
X181018399Y-39304305D01*
X181018062Y-39297786D01*
X181008143Y-39202194D01*
X181005251Y-39188800D01*
X180953812Y-39034616D01*
X180947639Y-39021438D01*
X180862337Y-38883593D01*
X180853301Y-38872192D01*
X180738571Y-38757661D01*
X180727160Y-38748649D01*
X180589157Y-38663584D01*
X180575976Y-38657437D01*
X180421690Y-38606262D01*
X180408314Y-38603395D01*
X180313962Y-38593728D01*
X180307545Y-38593400D01*
X180082515Y-38593400D01*
X180067276Y-38597875D01*
X180066071Y-38599265D01*
X180064400Y-38606948D01*
X180064400Y-39504285D01*
X179556400Y-39504285D01*
X179556400Y-38611516D01*
X179551925Y-38596277D01*
X179550535Y-38595072D01*
X179542852Y-38593401D01*
X179313305Y-38593401D01*
X179306786Y-38593738D01*
X179211194Y-38603657D01*
X179197800Y-38606549D01*
X179043616Y-38657988D01*
X179030438Y-38664161D01*
X178892593Y-38749463D01*
X178881192Y-38758499D01*
X178766661Y-38873229D01*
X178757649Y-38884640D01*
X178672584Y-39022643D01*
X178666437Y-39035824D01*
X178615262Y-39190110D01*
X178612395Y-39203486D01*
X178602728Y-39297838D01*
X178602400Y-39304255D01*
X178602400Y-39504285D01*
X178318900Y-39504285D01*
X178318900Y-39301000D01*
X178317541Y-39287900D01*
X178308638Y-39202092D01*
X178308637Y-39202088D01*
X178307926Y-39195234D01*
X178301910Y-39177200D01*
X178254268Y-39034402D01*
X178251950Y-39027454D01*
X178158878Y-38877052D01*
X178033703Y-38752095D01*
X177912330Y-38677279D01*
X177889368Y-38663125D01*
X177889366Y-38663124D01*
X177883138Y-38659285D01*
X177739628Y-38611685D01*
X177721789Y-38605768D01*
X177721787Y-38605768D01*
X177715261Y-38603603D01*
X177708425Y-38602903D01*
X177708422Y-38602902D01*
X177665369Y-38598491D01*
X177610800Y-38592900D01*
X176610000Y-38592900D01*
X176606754Y-38593237D01*
X176606750Y-38593237D01*
X176511092Y-38603162D01*
X176511088Y-38603163D01*
X176504234Y-38603874D01*
X176497698Y-38606055D01*
X176497696Y-38606055D01*
X176405111Y-38636944D01*
X176336454Y-38659850D01*
X176186052Y-38752922D01*
X176061095Y-38878097D01*
X176057255Y-38884327D01*
X176057254Y-38884328D01*
X175978762Y-39011666D01*
X175968285Y-39028662D01*
X175960095Y-39053355D01*
X175921202Y-39170615D01*
X175912603Y-39196539D01*
X175911903Y-39203375D01*
X175911902Y-39203378D01*
X175908590Y-39235709D01*
X175901900Y-39301000D01*
X175901900Y-40189590D01*
X175881898Y-40257711D01*
X175828242Y-40304204D01*
X175757968Y-40314308D01*
X175724653Y-40304698D01*
X175644488Y-40269006D01*
X175547992Y-40248495D01*
X175464144Y-40230672D01*
X175464139Y-40230672D01*
X175457687Y-40229300D01*
X175266713Y-40229300D01*
X175260261Y-40230672D01*
X175260256Y-40230672D01*
X175176408Y-40248495D01*
X175079912Y-40269006D01*
X175073882Y-40271691D01*
X175073881Y-40271691D01*
X174911478Y-40343997D01*
X174911476Y-40343998D01*
X174905448Y-40346682D01*
X174900107Y-40350562D01*
X174900106Y-40350563D01*
X174881612Y-40364000D01*
X174750947Y-40458934D01*
X174746532Y-40463837D01*
X174741620Y-40468260D01*
X174740495Y-40467011D01*
X174687186Y-40499851D01*
X174654000Y-40504300D01*
X173570400Y-40504300D01*
X173502279Y-40484298D01*
X173483053Y-40467957D01*
X173482780Y-40468260D01*
X173477868Y-40463837D01*
X173473453Y-40458934D01*
X173342788Y-40364000D01*
X173324294Y-40350563D01*
X173324293Y-40350562D01*
X173318952Y-40346682D01*
X173312924Y-40343998D01*
X173312922Y-40343997D01*
X173150519Y-40271691D01*
X173150518Y-40271691D01*
X173144488Y-40269006D01*
X173047992Y-40248495D01*
X172964144Y-40230672D01*
X172964139Y-40230672D01*
X172957687Y-40229300D01*
X172766713Y-40229300D01*
X172760261Y-40230672D01*
X172760256Y-40230672D01*
X172676408Y-40248495D01*
X172579912Y-40269006D01*
X172573882Y-40271691D01*
X172573881Y-40271691D01*
X172411478Y-40343997D01*
X172411476Y-40343998D01*
X172405448Y-40346682D01*
X172400107Y-40350562D01*
X172400106Y-40350563D01*
X172381612Y-40364000D01*
X172250947Y-40458934D01*
X172246532Y-40463837D01*
X172241620Y-40468260D01*
X172240495Y-40467011D01*
X172187186Y-40499851D01*
X172154000Y-40504300D01*
X169170400Y-40504300D01*
X169102279Y-40484298D01*
X169083053Y-40467957D01*
X169082780Y-40468260D01*
X169077868Y-40463837D01*
X169073453Y-40458934D01*
X168942788Y-40364000D01*
X168924294Y-40350563D01*
X168924293Y-40350562D01*
X168918952Y-40346682D01*
X168912924Y-40343998D01*
X168912922Y-40343997D01*
X168750519Y-40271691D01*
X168750518Y-40271691D01*
X168744488Y-40269006D01*
X168647992Y-40248495D01*
X168564144Y-40230672D01*
X168564139Y-40230672D01*
X168557687Y-40229300D01*
X168366713Y-40229300D01*
X168360261Y-40230672D01*
X168360256Y-40230672D01*
X168242897Y-40255618D01*
X168172106Y-40250216D01*
X168115474Y-40207399D01*
X168090980Y-40140762D01*
X168090700Y-40132371D01*
X168090700Y-39253400D01*
X168090302Y-39249566D01*
X168080438Y-39154492D01*
X168080437Y-39154488D01*
X168079726Y-39147634D01*
X168074373Y-39131587D01*
X168026068Y-38986802D01*
X168023750Y-38979854D01*
X167930678Y-38829452D01*
X167805503Y-38704495D01*
X167761351Y-38677279D01*
X167661168Y-38615525D01*
X167661166Y-38615524D01*
X167654938Y-38611685D01*
X167518688Y-38566493D01*
X167493589Y-38558168D01*
X167493587Y-38558168D01*
X167487061Y-38556003D01*
X167480225Y-38555303D01*
X167480222Y-38555302D01*
X167437169Y-38550891D01*
X167382600Y-38545300D01*
X166531800Y-38545300D01*
X166528759Y-38545616D01*
X166459732Y-38529167D01*
X166433191Y-38508887D01*
X166356986Y-38432681D01*
X166249047Y-38324742D01*
X166241513Y-38316463D01*
X166237400Y-38309982D01*
X166187748Y-38263356D01*
X166184907Y-38260602D01*
X166165170Y-38240865D01*
X166161973Y-38238385D01*
X166152951Y-38230680D01*
X166139522Y-38218069D01*
X166120721Y-38200414D01*
X166113775Y-38196595D01*
X166113772Y-38196593D01*
X166102966Y-38190652D01*
X166086447Y-38179801D01*
X166085983Y-38179441D01*
X166070441Y-38167386D01*
X166063172Y-38164241D01*
X166063168Y-38164238D01*
X166029863Y-38149826D01*
X166019213Y-38144609D01*
X165980460Y-38123305D01*
X165960837Y-38118267D01*
X165942134Y-38111863D01*
X165930820Y-38106967D01*
X165930819Y-38106967D01*
X165923545Y-38103819D01*
X165915722Y-38102580D01*
X165915712Y-38102577D01*
X165879876Y-38096901D01*
X165868256Y-38094495D01*
X165833111Y-38085472D01*
X165833110Y-38085472D01*
X165825430Y-38083500D01*
X165805176Y-38083500D01*
X165785465Y-38081949D01*
X165773286Y-38080020D01*
X165765457Y-38078780D01*
X165736186Y-38081547D01*
X165721439Y-38082941D01*
X165709581Y-38083500D01*
X162502467Y-38083500D01*
X162491284Y-38082973D01*
X162483791Y-38081298D01*
X162475865Y-38081547D01*
X162475864Y-38081547D01*
X162415714Y-38083438D01*
X162411755Y-38083500D01*
X162383844Y-38083500D01*
X162379910Y-38083997D01*
X162379909Y-38083997D01*
X162379844Y-38084005D01*
X162368007Y-38084938D01*
X162336190Y-38085938D01*
X162331729Y-38086078D01*
X162323810Y-38086327D01*
X162306154Y-38091456D01*
X162304358Y-38091978D01*
X162285006Y-38095986D01*
X162277935Y-38096880D01*
X162264903Y-38098526D01*
X162257534Y-38101443D01*
X162257532Y-38101444D01*
X162223797Y-38114800D01*
X162212569Y-38118645D01*
X162170107Y-38130982D01*
X162163284Y-38135017D01*
X162163282Y-38135018D01*
X162152672Y-38141293D01*
X162134924Y-38149988D01*
X162116083Y-38157448D01*
X162109667Y-38162110D01*
X162109666Y-38162110D01*
X162080313Y-38183436D01*
X162070393Y-38189952D01*
X162039165Y-38208420D01*
X162039162Y-38208422D01*
X162032338Y-38212458D01*
X162018017Y-38226779D01*
X162002984Y-38239619D01*
X161986593Y-38251528D01*
X161959669Y-38284074D01*
X161958402Y-38285605D01*
X161950412Y-38294384D01*
X161434401Y-38810395D01*
X161372089Y-38844421D01*
X161345306Y-38847300D01*
X160772000Y-38847300D01*
X160768754Y-38847637D01*
X160768750Y-38847637D01*
X160673092Y-38857562D01*
X160673088Y-38857563D01*
X160666234Y-38858274D01*
X160659698Y-38860455D01*
X160659696Y-38860455D01*
X160527594Y-38904528D01*
X160498454Y-38914250D01*
X160348052Y-39007322D01*
X160342879Y-39012504D01*
X160261262Y-39094263D01*
X160198979Y-39128342D01*
X160128159Y-39123339D01*
X160083071Y-39094418D01*
X160000571Y-39012061D01*
X159989160Y-39003049D01*
X159851157Y-38917984D01*
X159837976Y-38911837D01*
X159683690Y-38860662D01*
X159670314Y-38857795D01*
X159575962Y-38848128D01*
X159569545Y-38847800D01*
X159532015Y-38847800D01*
X159516776Y-38852275D01*
X159515571Y-38853665D01*
X159513900Y-38861348D01*
X159513900Y-40183800D01*
X159493898Y-40251921D01*
X159440242Y-40298414D01*
X159387900Y-40309800D01*
X159131900Y-40309800D01*
X159063779Y-40289798D01*
X159017286Y-40236142D01*
X159005900Y-40183800D01*
X159005900Y-38865916D01*
X159001425Y-38850677D01*
X159000035Y-38849472D01*
X158992352Y-38847801D01*
X158950305Y-38847801D01*
X158943786Y-38848138D01*
X158848194Y-38858057D01*
X158834800Y-38860949D01*
X158680616Y-38912388D01*
X158667438Y-38918561D01*
X158529593Y-39003863D01*
X158518192Y-39012899D01*
X158398490Y-39132809D01*
X158397266Y-39131587D01*
X158346776Y-39167384D01*
X158275853Y-39170615D01*
X158214441Y-39134990D01*
X158213836Y-39134293D01*
X158212078Y-39131452D01*
X158086903Y-39006495D01*
X158046729Y-38981731D01*
X157942568Y-38917525D01*
X157942566Y-38917524D01*
X157936338Y-38913685D01*
X157829043Y-38878097D01*
X157774989Y-38860168D01*
X157774987Y-38860168D01*
X157768461Y-38858003D01*
X157761625Y-38857303D01*
X157761622Y-38857302D01*
X157718569Y-38852891D01*
X157664000Y-38847300D01*
X157090694Y-38847300D01*
X157022573Y-38827298D01*
X157001599Y-38810395D01*
X155239800Y-37048595D01*
X155205774Y-36986283D01*
X155210839Y-36915467D01*
X155253386Y-36858632D01*
X155319906Y-36833821D01*
X155328895Y-36833500D01*
X158630533Y-36833500D01*
X158641716Y-36834027D01*
X158649209Y-36835702D01*
X158657135Y-36835453D01*
X158657136Y-36835453D01*
X158717286Y-36833562D01*
X158721245Y-36833500D01*
X158749156Y-36833500D01*
X158753091Y-36833003D01*
X158753156Y-36832995D01*
X158764993Y-36832062D01*
X158797251Y-36831048D01*
X158801270Y-36830922D01*
X158809189Y-36830673D01*
X158828643Y-36825021D01*
X158848000Y-36821013D01*
X158860230Y-36819468D01*
X158860231Y-36819468D01*
X158868097Y-36818474D01*
X158875468Y-36815555D01*
X158875470Y-36815555D01*
X158909212Y-36802196D01*
X158920442Y-36798351D01*
X158955283Y-36788229D01*
X158955284Y-36788229D01*
X158962893Y-36786018D01*
X158969712Y-36781985D01*
X158969717Y-36781983D01*
X158980328Y-36775707D01*
X158998076Y-36767012D01*
X159016917Y-36759552D01*
X159052687Y-36733564D01*
X159062607Y-36727048D01*
X159093835Y-36708580D01*
X159093838Y-36708578D01*
X159100662Y-36704542D01*
X159114983Y-36690221D01*
X159130017Y-36677380D01*
X159139994Y-36670131D01*
X159146407Y-36665472D01*
X159174598Y-36631395D01*
X159182588Y-36622616D01*
X160468300Y-35336905D01*
X160530612Y-35302879D01*
X160557395Y-35300000D01*
X160858298Y-35300000D01*
X160930569Y-35322787D01*
G37*
%TD.AperFunction*%
%TD*%
%TA.AperFunction,Conductor*%
%TO.N,+5V*%
G36*
X193408159Y-30741339D02*
G01*
X193453395Y-30793543D01*
X193469351Y-30827762D01*
X193469354Y-30827767D01*
X193471677Y-30832749D01*
X193505719Y-30881366D01*
X193569286Y-30972148D01*
X193603002Y-31020300D01*
X193764900Y-31182198D01*
X193769408Y-31185355D01*
X193769411Y-31185357D01*
X193830750Y-31228307D01*
X193952451Y-31313523D01*
X193957433Y-31315846D01*
X193957438Y-31315849D01*
X194137564Y-31399842D01*
X194159957Y-31410284D01*
X194165265Y-31411706D01*
X194165267Y-31411707D01*
X194375798Y-31468119D01*
X194375800Y-31468119D01*
X194381113Y-31469543D01*
X194609200Y-31489498D01*
X194837287Y-31469543D01*
X194842600Y-31468119D01*
X194842602Y-31468119D01*
X195053133Y-31411707D01*
X195053135Y-31411706D01*
X195058443Y-31410284D01*
X195080836Y-31399842D01*
X195260962Y-31315849D01*
X195260967Y-31315846D01*
X195265949Y-31313523D01*
X195387650Y-31228307D01*
X195448989Y-31185357D01*
X195448992Y-31185355D01*
X195453500Y-31182198D01*
X195567605Y-31068093D01*
X195629917Y-31034067D01*
X195700732Y-31039132D01*
X195757568Y-31081679D01*
X195782379Y-31148199D01*
X195782700Y-31157188D01*
X195782700Y-33473040D01*
X195762698Y-33541161D01*
X195709042Y-33587654D01*
X195656478Y-33599040D01*
X192719760Y-33593851D01*
X192197277Y-33592928D01*
X192129192Y-33572805D01*
X192082794Y-33519068D01*
X192071500Y-33466928D01*
X192071500Y-33188581D01*
X192072929Y-33169657D01*
X192075105Y-33155333D01*
X192075105Y-33155332D01*
X192076204Y-33148098D01*
X192071917Y-33095521D01*
X192071500Y-33085281D01*
X192071500Y-33077307D01*
X192068196Y-33048962D01*
X192067770Y-33044658D01*
X192062425Y-32979111D01*
X192061830Y-32971813D01*
X192059571Y-32964846D01*
X192058396Y-32958971D01*
X192057029Y-32953189D01*
X192056182Y-32945919D01*
X192031239Y-32877203D01*
X192029819Y-32873067D01*
X192009545Y-32810527D01*
X192009545Y-32810526D01*
X192007287Y-32803562D01*
X192003487Y-32797302D01*
X192000997Y-32791867D01*
X191998329Y-32786540D01*
X191995833Y-32779663D01*
X191991822Y-32773546D01*
X191991819Y-32773539D01*
X191955770Y-32718555D01*
X191953437Y-32714859D01*
X191918416Y-32657172D01*
X191918411Y-32657165D01*
X191915501Y-32652372D01*
X191908101Y-32643997D01*
X191908128Y-32643974D01*
X191905436Y-32640938D01*
X191902867Y-32637866D01*
X191898856Y-32631748D01*
X191893545Y-32626717D01*
X191893541Y-32626712D01*
X191842556Y-32578413D01*
X191840131Y-32576054D01*
X190900726Y-31637025D01*
X190888323Y-31622596D01*
X190879843Y-31611073D01*
X190875508Y-31605182D01*
X190869930Y-31600443D01*
X190869927Y-31600440D01*
X190835161Y-31570903D01*
X190827669Y-31563998D01*
X190821907Y-31558238D01*
X190819033Y-31555965D01*
X190819026Y-31555959D01*
X190799690Y-31540668D01*
X190796266Y-31537861D01*
X190746295Y-31495407D01*
X190746292Y-31495405D01*
X190740715Y-31490667D01*
X190734199Y-31487339D01*
X190729102Y-31483940D01*
X190723894Y-31480725D01*
X190718153Y-31476185D01*
X190652068Y-31445316D01*
X190648145Y-31443398D01*
X190610841Y-31424350D01*
X190589712Y-31413560D01*
X190589710Y-31413559D01*
X190583192Y-31410231D01*
X190576080Y-31408491D01*
X190570369Y-31406367D01*
X190564536Y-31404428D01*
X190557904Y-31401330D01*
X190486535Y-31386500D01*
X190482223Y-31385524D01*
X190448948Y-31377382D01*
X190387533Y-31341763D01*
X190355125Y-31278594D01*
X190362013Y-31207933D01*
X190389800Y-31165898D01*
X190535398Y-31020300D01*
X190569115Y-30972148D01*
X190632681Y-30881366D01*
X190666723Y-30832749D01*
X190669046Y-30827767D01*
X190669049Y-30827762D01*
X190685005Y-30793543D01*
X190731922Y-30740258D01*
X190800199Y-30720797D01*
X190868159Y-30741339D01*
X190913395Y-30793543D01*
X190929351Y-30827762D01*
X190929354Y-30827767D01*
X190931677Y-30832749D01*
X190965719Y-30881366D01*
X191029286Y-30972148D01*
X191063002Y-31020300D01*
X191224900Y-31182198D01*
X191229408Y-31185355D01*
X191229411Y-31185357D01*
X191290750Y-31228307D01*
X191412451Y-31313523D01*
X191417433Y-31315846D01*
X191417438Y-31315849D01*
X191597564Y-31399842D01*
X191619957Y-31410284D01*
X191625265Y-31411706D01*
X191625267Y-31411707D01*
X191835798Y-31468119D01*
X191835800Y-31468119D01*
X191841113Y-31469543D01*
X192069200Y-31489498D01*
X192297287Y-31469543D01*
X192302600Y-31468119D01*
X192302602Y-31468119D01*
X192513133Y-31411707D01*
X192513135Y-31411706D01*
X192518443Y-31410284D01*
X192540836Y-31399842D01*
X192720962Y-31315849D01*
X192720967Y-31315846D01*
X192725949Y-31313523D01*
X192847650Y-31228307D01*
X192908989Y-31185357D01*
X192908992Y-31185355D01*
X192913500Y-31182198D01*
X193075398Y-31020300D01*
X193109115Y-30972148D01*
X193172681Y-30881366D01*
X193206723Y-30832749D01*
X193209046Y-30827767D01*
X193209049Y-30827762D01*
X193225005Y-30793543D01*
X193271922Y-30740258D01*
X193340199Y-30720797D01*
X193408159Y-30741339D01*
G37*
%TD.AperFunction*%
%TA.AperFunction,Conductor*%
G36*
X195724821Y-16428502D02*
G01*
X195771314Y-16482158D01*
X195782700Y-16534500D01*
X195782700Y-29194812D01*
X195762698Y-29262933D01*
X195709042Y-29309426D01*
X195638768Y-29319530D01*
X195574188Y-29290036D01*
X195567605Y-29283907D01*
X195453500Y-29169802D01*
X195448992Y-29166645D01*
X195448989Y-29166643D01*
X195359257Y-29103812D01*
X195265949Y-29038477D01*
X195260967Y-29036154D01*
X195260962Y-29036151D01*
X195063425Y-28944039D01*
X195063424Y-28944039D01*
X195058443Y-28941716D01*
X195053135Y-28940294D01*
X195053133Y-28940293D01*
X194842602Y-28883881D01*
X194842600Y-28883881D01*
X194837287Y-28882457D01*
X194609200Y-28862502D01*
X194381113Y-28882457D01*
X194375800Y-28883881D01*
X194375798Y-28883881D01*
X194165267Y-28940293D01*
X194165265Y-28940294D01*
X194159957Y-28941716D01*
X194154975Y-28944039D01*
X194154970Y-28944041D01*
X194122418Y-28959220D01*
X194052227Y-28969881D01*
X193987414Y-28940901D01*
X193948558Y-28881481D01*
X193947995Y-28810486D01*
X193989443Y-28748466D01*
X193989748Y-28748278D01*
X194114705Y-28623103D01*
X194181262Y-28515128D01*
X194203675Y-28478768D01*
X194203676Y-28478766D01*
X194207515Y-28472538D01*
X194253632Y-28333500D01*
X194261032Y-28311189D01*
X194261032Y-28311187D01*
X194263197Y-28304661D01*
X194273900Y-28200200D01*
X194273900Y-27574400D01*
X194272936Y-27565111D01*
X194263638Y-27475492D01*
X194263637Y-27475488D01*
X194262926Y-27468634D01*
X194250823Y-27432355D01*
X194209268Y-27307802D01*
X194206950Y-27300854D01*
X194113878Y-27150452D01*
X194065185Y-27101844D01*
X194026937Y-27063662D01*
X193992858Y-27001379D01*
X193997861Y-26930559D01*
X194026782Y-26885471D01*
X194109139Y-26802971D01*
X194118151Y-26791560D01*
X194203216Y-26653557D01*
X194209363Y-26640376D01*
X194260538Y-26486090D01*
X194263405Y-26472714D01*
X194273072Y-26378362D01*
X194273400Y-26371946D01*
X194273400Y-26334415D01*
X194268925Y-26319176D01*
X194267535Y-26317971D01*
X194259852Y-26316300D01*
X191875516Y-26316300D01*
X191860277Y-26320775D01*
X191859072Y-26322165D01*
X191857401Y-26329848D01*
X191857401Y-26371895D01*
X191857738Y-26378414D01*
X191867657Y-26474006D01*
X191870549Y-26487400D01*
X191921988Y-26641584D01*
X191928161Y-26654762D01*
X192013463Y-26792607D01*
X192022499Y-26804008D01*
X192103862Y-26885230D01*
X192137941Y-26947513D01*
X192132938Y-27018333D01*
X192104017Y-27063420D01*
X192021270Y-27146312D01*
X192021266Y-27146317D01*
X192016095Y-27151497D01*
X192012255Y-27157727D01*
X192012254Y-27157728D01*
X191941093Y-27273173D01*
X191923285Y-27302062D01*
X191867603Y-27469939D01*
X191866903Y-27476775D01*
X191866902Y-27476778D01*
X191864769Y-27497599D01*
X191856900Y-27574400D01*
X191856900Y-28147705D01*
X191836898Y-28215826D01*
X191819995Y-28236800D01*
X191676947Y-28379848D01*
X191668661Y-28387388D01*
X191662182Y-28391500D01*
X191656757Y-28397277D01*
X191615557Y-28441151D01*
X191612802Y-28443993D01*
X191593065Y-28463730D01*
X191590585Y-28466927D01*
X191582882Y-28475947D01*
X191552614Y-28508179D01*
X191548795Y-28515125D01*
X191548793Y-28515128D01*
X191542852Y-28525934D01*
X191532001Y-28542453D01*
X191519586Y-28558459D01*
X191516441Y-28565728D01*
X191516438Y-28565732D01*
X191502026Y-28599037D01*
X191496809Y-28609687D01*
X191475505Y-28648440D01*
X191473534Y-28656115D01*
X191473534Y-28656116D01*
X191470467Y-28668062D01*
X191464063Y-28686766D01*
X191456019Y-28705355D01*
X191454780Y-28713178D01*
X191454777Y-28713188D01*
X191449101Y-28749024D01*
X191446695Y-28760644D01*
X191435700Y-28803470D01*
X191435700Y-28823724D01*
X191434149Y-28843434D01*
X191430980Y-28863443D01*
X191431726Y-28871335D01*
X191435141Y-28907461D01*
X191435700Y-28919319D01*
X191435700Y-28956606D01*
X191415698Y-29024727D01*
X191381971Y-29059819D01*
X191229411Y-29166643D01*
X191229408Y-29166645D01*
X191224900Y-29169802D01*
X191063002Y-29331700D01*
X190931677Y-29519251D01*
X190929354Y-29524233D01*
X190929351Y-29524238D01*
X190913395Y-29558457D01*
X190866478Y-29611742D01*
X190798201Y-29631203D01*
X190730241Y-29610661D01*
X190685005Y-29558457D01*
X190669049Y-29524238D01*
X190669046Y-29524233D01*
X190666723Y-29519251D01*
X190535398Y-29331700D01*
X190373500Y-29169802D01*
X190368992Y-29166645D01*
X190368989Y-29166643D01*
X190279257Y-29103812D01*
X190185949Y-29038477D01*
X190180967Y-29036154D01*
X190180962Y-29036151D01*
X189983425Y-28944039D01*
X189983424Y-28944039D01*
X189978443Y-28941716D01*
X189973135Y-28940294D01*
X189973133Y-28940293D01*
X189762602Y-28883881D01*
X189762600Y-28883881D01*
X189757287Y-28882457D01*
X189529200Y-28862502D01*
X189301113Y-28882457D01*
X189295800Y-28883881D01*
X189295798Y-28883881D01*
X189085267Y-28940293D01*
X189085265Y-28940294D01*
X189079957Y-28941716D01*
X189074976Y-28944039D01*
X189074975Y-28944039D01*
X188877438Y-29036151D01*
X188877433Y-29036154D01*
X188872451Y-29038477D01*
X188779143Y-29103812D01*
X188689411Y-29166643D01*
X188689408Y-29166645D01*
X188684900Y-29169802D01*
X188523002Y-29331700D01*
X188391677Y-29519251D01*
X188389354Y-29524233D01*
X188389351Y-29524238D01*
X188373395Y-29558457D01*
X188326478Y-29611742D01*
X188258201Y-29631203D01*
X188190241Y-29610661D01*
X188145005Y-29558457D01*
X188129049Y-29524238D01*
X188129046Y-29524233D01*
X188126723Y-29519251D01*
X187995398Y-29331700D01*
X187833500Y-29169802D01*
X187828992Y-29166645D01*
X187828989Y-29166643D01*
X187739257Y-29103812D01*
X187645949Y-29038477D01*
X187640967Y-29036154D01*
X187640962Y-29036151D01*
X187443425Y-28944039D01*
X187443424Y-28944039D01*
X187438443Y-28941716D01*
X187433135Y-28940294D01*
X187433133Y-28940293D01*
X187222602Y-28883881D01*
X187222600Y-28883881D01*
X187217287Y-28882457D01*
X186989200Y-28862502D01*
X186761113Y-28882457D01*
X186755800Y-28883881D01*
X186755798Y-28883881D01*
X186545267Y-28940293D01*
X186545265Y-28940294D01*
X186539957Y-28941716D01*
X186534976Y-28944039D01*
X186534975Y-28944039D01*
X186337438Y-29036151D01*
X186337433Y-29036154D01*
X186332451Y-29038477D01*
X186239143Y-29103812D01*
X186149411Y-29166643D01*
X186149408Y-29166645D01*
X186144900Y-29169802D01*
X185983002Y-29331700D01*
X185851677Y-29519251D01*
X185849354Y-29524233D01*
X185849351Y-29524238D01*
X185833119Y-29559049D01*
X185786202Y-29612334D01*
X185717925Y-29631795D01*
X185649965Y-29611253D01*
X185604729Y-29559049D01*
X185588614Y-29524489D01*
X185583131Y-29514993D01*
X185458172Y-29336533D01*
X185451116Y-29328125D01*
X185297075Y-29174084D01*
X185288667Y-29167028D01*
X185110207Y-29042069D01*
X185100711Y-29036586D01*
X184903253Y-28944510D01*
X184892961Y-28940764D01*
X184720697Y-28894606D01*
X184706601Y-28894942D01*
X184703200Y-28902884D01*
X184703200Y-30304000D01*
X184683198Y-30372121D01*
X184629542Y-30418614D01*
X184577200Y-30430000D01*
X184321200Y-30430000D01*
X184253079Y-30409998D01*
X184206586Y-30356342D01*
X184195200Y-30304000D01*
X184195200Y-28908033D01*
X184191227Y-28894502D01*
X184182678Y-28893273D01*
X184005439Y-28940764D01*
X183995147Y-28944510D01*
X183797689Y-29036586D01*
X183788193Y-29042069D01*
X183609733Y-29167028D01*
X183601325Y-29174084D01*
X183447284Y-29328125D01*
X183440228Y-29336533D01*
X183315269Y-29514993D01*
X183309786Y-29524489D01*
X183293671Y-29559049D01*
X183246754Y-29612334D01*
X183178477Y-29631795D01*
X183110517Y-29611253D01*
X183065281Y-29559049D01*
X183049049Y-29524238D01*
X183049046Y-29524233D01*
X183046723Y-29519251D01*
X182915398Y-29331700D01*
X182829405Y-29245707D01*
X182795379Y-29183395D01*
X182792500Y-29156612D01*
X182792500Y-27836050D01*
X182794051Y-27816339D01*
X182795117Y-27809609D01*
X182796149Y-27803093D01*
X182795630Y-27793178D01*
X182792673Y-27736769D01*
X182792500Y-27730174D01*
X182792500Y-27710294D01*
X182790421Y-27690512D01*
X182789905Y-27683948D01*
X182786775Y-27624227D01*
X182786775Y-27624225D01*
X182786429Y-27617629D01*
X182782958Y-27604674D01*
X182779358Y-27585245D01*
X182778646Y-27578474D01*
X182778644Y-27578467D01*
X182777954Y-27571898D01*
X182757424Y-27508712D01*
X182755558Y-27502413D01*
X182752415Y-27490681D01*
X182738362Y-27438237D01*
X182734679Y-27431009D01*
X182732272Y-27426283D01*
X182724708Y-27408021D01*
X182722608Y-27401557D01*
X182722605Y-27401549D01*
X182720564Y-27395269D01*
X182717262Y-27389550D01*
X182717260Y-27389545D01*
X182687346Y-27337733D01*
X182684213Y-27331963D01*
X182654047Y-27272761D01*
X182645609Y-27262341D01*
X182634411Y-27246048D01*
X182633093Y-27243766D01*
X182627704Y-27234431D01*
X182623287Y-27229525D01*
X182623283Y-27229520D01*
X182583253Y-27185062D01*
X182578969Y-27180046D01*
X182568559Y-27167191D01*
X182568556Y-27167188D01*
X182566472Y-27164614D01*
X182552427Y-27150569D01*
X182547886Y-27145784D01*
X182507856Y-27101326D01*
X182507855Y-27101325D01*
X182503434Y-27096415D01*
X182492574Y-27088525D01*
X182477546Y-27075688D01*
X181192043Y-25790185D01*
X191857400Y-25790185D01*
X191861875Y-25805424D01*
X191863265Y-25806629D01*
X191870948Y-25808300D01*
X192793285Y-25808300D01*
X192808524Y-25803825D01*
X192809729Y-25802435D01*
X192811400Y-25794752D01*
X192811400Y-25790185D01*
X193319400Y-25790185D01*
X193323875Y-25805424D01*
X193325265Y-25806629D01*
X193332948Y-25808300D01*
X194255284Y-25808300D01*
X194270523Y-25803825D01*
X194271728Y-25802435D01*
X194273399Y-25794752D01*
X194273399Y-25752705D01*
X194273062Y-25746186D01*
X194263143Y-25650594D01*
X194260251Y-25637200D01*
X194208812Y-25483016D01*
X194202639Y-25469838D01*
X194117337Y-25331993D01*
X194108301Y-25320592D01*
X193993571Y-25206061D01*
X193982160Y-25197049D01*
X193844157Y-25111984D01*
X193830976Y-25105837D01*
X193676690Y-25054662D01*
X193663314Y-25051795D01*
X193568962Y-25042128D01*
X193562545Y-25041800D01*
X193337515Y-25041800D01*
X193322276Y-25046275D01*
X193321071Y-25047665D01*
X193319400Y-25055348D01*
X193319400Y-25790185D01*
X192811400Y-25790185D01*
X192811400Y-25059916D01*
X192806925Y-25044677D01*
X192805535Y-25043472D01*
X192797852Y-25041801D01*
X192568305Y-25041801D01*
X192561786Y-25042138D01*
X192466194Y-25052057D01*
X192452800Y-25054949D01*
X192298616Y-25106388D01*
X192285438Y-25112561D01*
X192147593Y-25197863D01*
X192136192Y-25206899D01*
X192021661Y-25321629D01*
X192012649Y-25333040D01*
X191927584Y-25471043D01*
X191921437Y-25484224D01*
X191870262Y-25638510D01*
X191867395Y-25651886D01*
X191857728Y-25746238D01*
X191857400Y-25752655D01*
X191857400Y-25790185D01*
X181192043Y-25790185D01*
X180513206Y-25111348D01*
X180493182Y-25085253D01*
X180473865Y-25051795D01*
X180465240Y-25036856D01*
X180449768Y-25019672D01*
X180442793Y-25011926D01*
X180412075Y-24947919D01*
X180420840Y-24877465D01*
X180442789Y-24843311D01*
X180555940Y-24717644D01*
X180651427Y-24552256D01*
X180710442Y-24370628D01*
X180730404Y-24180700D01*
X180710442Y-23990772D01*
X180651427Y-23809144D01*
X180646206Y-23800100D01*
X180559241Y-23649474D01*
X180555940Y-23643756D01*
X180525551Y-23610005D01*
X180432575Y-23506745D01*
X180432574Y-23506744D01*
X180428153Y-23501834D01*
X180273652Y-23389582D01*
X180267624Y-23386898D01*
X180267622Y-23386897D01*
X180105219Y-23314591D01*
X180105218Y-23314591D01*
X180099188Y-23311906D01*
X180005787Y-23292053D01*
X179918844Y-23273572D01*
X179918839Y-23273572D01*
X179912387Y-23272200D01*
X179856495Y-23272200D01*
X179788374Y-23252198D01*
X179767400Y-23235295D01*
X177012866Y-20480761D01*
X176978840Y-20418449D01*
X176983905Y-20347634D01*
X177026452Y-20290798D01*
X177082726Y-20269297D01*
X177082388Y-20267378D01*
X177087807Y-20266422D01*
X177093287Y-20265943D01*
X177098600Y-20264519D01*
X177098602Y-20264519D01*
X177309133Y-20208107D01*
X177309135Y-20208106D01*
X177314443Y-20206684D01*
X177320435Y-20203890D01*
X177516962Y-20112249D01*
X177516967Y-20112246D01*
X177521949Y-20109923D01*
X177691234Y-19991388D01*
X177704989Y-19981757D01*
X177704992Y-19981755D01*
X177709500Y-19978598D01*
X177871398Y-19816700D01*
X177874561Y-19812184D01*
X177999566Y-19633657D01*
X178002723Y-19629149D01*
X178005046Y-19624167D01*
X178005049Y-19624162D01*
X178021005Y-19589943D01*
X178067922Y-19536658D01*
X178136199Y-19517197D01*
X178204159Y-19537739D01*
X178249395Y-19589943D01*
X178265351Y-19624162D01*
X178265354Y-19624167D01*
X178267677Y-19629149D01*
X178270834Y-19633657D01*
X178395840Y-19812184D01*
X178399002Y-19816700D01*
X178560900Y-19978598D01*
X178565408Y-19981755D01*
X178565411Y-19981757D01*
X178579166Y-19991388D01*
X178748451Y-20109923D01*
X178753433Y-20112246D01*
X178753438Y-20112249D01*
X178949965Y-20203890D01*
X178955957Y-20206684D01*
X178961265Y-20208106D01*
X178961267Y-20208107D01*
X179171798Y-20264519D01*
X179171800Y-20264519D01*
X179177113Y-20265943D01*
X179405200Y-20285898D01*
X179633287Y-20265943D01*
X179638600Y-20264519D01*
X179638602Y-20264519D01*
X179849133Y-20208107D01*
X179849135Y-20208106D01*
X179854443Y-20206684D01*
X179860435Y-20203890D01*
X180056962Y-20112249D01*
X180056967Y-20112246D01*
X180061949Y-20109923D01*
X180231234Y-19991388D01*
X180244989Y-19981757D01*
X180244992Y-19981755D01*
X180249500Y-19978598D01*
X180411398Y-19816700D01*
X180414561Y-19812184D01*
X180539566Y-19633657D01*
X180542723Y-19629149D01*
X180545046Y-19624167D01*
X180545049Y-19624162D01*
X180561005Y-19589943D01*
X180607922Y-19536658D01*
X180676199Y-19517197D01*
X180744159Y-19537739D01*
X180789395Y-19589943D01*
X180805351Y-19624162D01*
X180805354Y-19624167D01*
X180807677Y-19629149D01*
X180810834Y-19633657D01*
X180935840Y-19812184D01*
X180939002Y-19816700D01*
X181100900Y-19978598D01*
X181105408Y-19981755D01*
X181105411Y-19981757D01*
X181119166Y-19991388D01*
X181288451Y-20109923D01*
X181293433Y-20112246D01*
X181293438Y-20112249D01*
X181489965Y-20203890D01*
X181495957Y-20206684D01*
X181501265Y-20208106D01*
X181501267Y-20208107D01*
X181711798Y-20264519D01*
X181711800Y-20264519D01*
X181717113Y-20265943D01*
X181945200Y-20285898D01*
X182173287Y-20265943D01*
X182178600Y-20264519D01*
X182178602Y-20264519D01*
X182389133Y-20208107D01*
X182389135Y-20208106D01*
X182394443Y-20206684D01*
X182400435Y-20203890D01*
X182596962Y-20112249D01*
X182596967Y-20112246D01*
X182601949Y-20109923D01*
X182771234Y-19991388D01*
X182784989Y-19981757D01*
X182784992Y-19981755D01*
X182789500Y-19978598D01*
X182951398Y-19816700D01*
X182954561Y-19812184D01*
X183079566Y-19633657D01*
X183082723Y-19629149D01*
X183085046Y-19624167D01*
X183085049Y-19624162D01*
X183101005Y-19589943D01*
X183147922Y-19536658D01*
X183216199Y-19517197D01*
X183284159Y-19537739D01*
X183329395Y-19589943D01*
X183345351Y-19624162D01*
X183345354Y-19624167D01*
X183347677Y-19629149D01*
X183350834Y-19633657D01*
X183475840Y-19812184D01*
X183479002Y-19816700D01*
X183640900Y-19978598D01*
X183645408Y-19981755D01*
X183645411Y-19981757D01*
X183659166Y-19991388D01*
X183828451Y-20109923D01*
X183833433Y-20112246D01*
X183833438Y-20112249D01*
X184029965Y-20203890D01*
X184035957Y-20206684D01*
X184041265Y-20208106D01*
X184041267Y-20208107D01*
X184251798Y-20264519D01*
X184251800Y-20264519D01*
X184257113Y-20265943D01*
X184485200Y-20285898D01*
X184713287Y-20265943D01*
X184718600Y-20264519D01*
X184718602Y-20264519D01*
X184929133Y-20208107D01*
X184929135Y-20208106D01*
X184934443Y-20206684D01*
X184940435Y-20203890D01*
X185136962Y-20112249D01*
X185136967Y-20112246D01*
X185141949Y-20109923D01*
X185311234Y-19991388D01*
X185324989Y-19981757D01*
X185324992Y-19981755D01*
X185329500Y-19978598D01*
X185491398Y-19816700D01*
X185494561Y-19812184D01*
X185619566Y-19633657D01*
X185622723Y-19629149D01*
X185625046Y-19624167D01*
X185625049Y-19624162D01*
X185641281Y-19589351D01*
X185688198Y-19536066D01*
X185756475Y-19516605D01*
X185824435Y-19537147D01*
X185869671Y-19589351D01*
X185885786Y-19623911D01*
X185891269Y-19633407D01*
X186016228Y-19811867D01*
X186023284Y-19820275D01*
X186177325Y-19974316D01*
X186185733Y-19981372D01*
X186364193Y-20106331D01*
X186373689Y-20111814D01*
X186571147Y-20203890D01*
X186581439Y-20207636D01*
X186753703Y-20253794D01*
X186767799Y-20253458D01*
X186771200Y-20245516D01*
X186771200Y-20240367D01*
X187279200Y-20240367D01*
X187283173Y-20253898D01*
X187291722Y-20255127D01*
X187468961Y-20207636D01*
X187479253Y-20203890D01*
X187676711Y-20111814D01*
X187686207Y-20106331D01*
X187864667Y-19981372D01*
X187873075Y-19974316D01*
X188027116Y-19820275D01*
X188034172Y-19811867D01*
X188159131Y-19633407D01*
X188164614Y-19623911D01*
X188180729Y-19589351D01*
X188227646Y-19536066D01*
X188295923Y-19516605D01*
X188363883Y-19537147D01*
X188409119Y-19589351D01*
X188425351Y-19624162D01*
X188425354Y-19624167D01*
X188427677Y-19629149D01*
X188430834Y-19633657D01*
X188555840Y-19812184D01*
X188559002Y-19816700D01*
X188720900Y-19978598D01*
X188725408Y-19981755D01*
X188725411Y-19981757D01*
X188739166Y-19991388D01*
X188908451Y-20109923D01*
X188913433Y-20112246D01*
X188913438Y-20112249D01*
X189109965Y-20203890D01*
X189115957Y-20206684D01*
X189121265Y-20208106D01*
X189121267Y-20208107D01*
X189331798Y-20264519D01*
X189331800Y-20264519D01*
X189337113Y-20265943D01*
X189565200Y-20285898D01*
X189793287Y-20265943D01*
X189798600Y-20264519D01*
X189798602Y-20264519D01*
X190009133Y-20208107D01*
X190009135Y-20208106D01*
X190014443Y-20206684D01*
X190020435Y-20203890D01*
X190216962Y-20112249D01*
X190216967Y-20112246D01*
X190221949Y-20109923D01*
X190391234Y-19991388D01*
X190404989Y-19981757D01*
X190404992Y-19981755D01*
X190409500Y-19978598D01*
X190571398Y-19816700D01*
X190574561Y-19812184D01*
X190699566Y-19633657D01*
X190702723Y-19629149D01*
X190705046Y-19624167D01*
X190705049Y-19624162D01*
X190797161Y-19426625D01*
X190797161Y-19426624D01*
X190799484Y-19421643D01*
X190832650Y-19297869D01*
X190857319Y-19205802D01*
X190857319Y-19205800D01*
X190858743Y-19200487D01*
X190873700Y-19029527D01*
X190873700Y-18115273D01*
X190858743Y-17944313D01*
X190799484Y-17723157D01*
X190705166Y-17520889D01*
X190705049Y-17520638D01*
X190705046Y-17520633D01*
X190702723Y-17515651D01*
X190603562Y-17374035D01*
X190574557Y-17332611D01*
X190574555Y-17332608D01*
X190571398Y-17328100D01*
X190409500Y-17166202D01*
X190404992Y-17163045D01*
X190404989Y-17163043D01*
X190326811Y-17108302D01*
X190221949Y-17034877D01*
X190216967Y-17032554D01*
X190216962Y-17032551D01*
X190019425Y-16940439D01*
X190019424Y-16940439D01*
X190014443Y-16938116D01*
X190009135Y-16936694D01*
X190009133Y-16936693D01*
X189798602Y-16880281D01*
X189798600Y-16880281D01*
X189793287Y-16878857D01*
X189565200Y-16858902D01*
X189337113Y-16878857D01*
X189331800Y-16880281D01*
X189331798Y-16880281D01*
X189121267Y-16936693D01*
X189121265Y-16936694D01*
X189115957Y-16938116D01*
X189110976Y-16940439D01*
X189110975Y-16940439D01*
X188913438Y-17032551D01*
X188913433Y-17032554D01*
X188908451Y-17034877D01*
X188803589Y-17108302D01*
X188725411Y-17163043D01*
X188725408Y-17163045D01*
X188720900Y-17166202D01*
X188559002Y-17328100D01*
X188555845Y-17332608D01*
X188555843Y-17332611D01*
X188526838Y-17374035D01*
X188427677Y-17515651D01*
X188425354Y-17520633D01*
X188425351Y-17520638D01*
X188409119Y-17555449D01*
X188362202Y-17608734D01*
X188293925Y-17628195D01*
X188225965Y-17607653D01*
X188180729Y-17555449D01*
X188164614Y-17520889D01*
X188159131Y-17511393D01*
X188034172Y-17332933D01*
X188027116Y-17324525D01*
X187873075Y-17170484D01*
X187864667Y-17163428D01*
X187686207Y-17038469D01*
X187676711Y-17032986D01*
X187479253Y-16940910D01*
X187468961Y-16937164D01*
X187296697Y-16891006D01*
X187282601Y-16891342D01*
X187279200Y-16899284D01*
X187279200Y-20240367D01*
X186771200Y-20240367D01*
X186771200Y-16904433D01*
X186767227Y-16890902D01*
X186758678Y-16889673D01*
X186581439Y-16937164D01*
X186571147Y-16940910D01*
X186373689Y-17032986D01*
X186364193Y-17038469D01*
X186185733Y-17163428D01*
X186177325Y-17170484D01*
X186023284Y-17324525D01*
X186016228Y-17332933D01*
X185891269Y-17511393D01*
X185885786Y-17520889D01*
X185869671Y-17555449D01*
X185822754Y-17608734D01*
X185754477Y-17628195D01*
X185686517Y-17607653D01*
X185641281Y-17555449D01*
X185625049Y-17520638D01*
X185625046Y-17520633D01*
X185622723Y-17515651D01*
X185523562Y-17374035D01*
X185494557Y-17332611D01*
X185494555Y-17332608D01*
X185491398Y-17328100D01*
X185329500Y-17166202D01*
X185324992Y-17163045D01*
X185324989Y-17163043D01*
X185246811Y-17108302D01*
X185141949Y-17034877D01*
X185136967Y-17032554D01*
X185136962Y-17032551D01*
X184939425Y-16940439D01*
X184939424Y-16940439D01*
X184934443Y-16938116D01*
X184929135Y-16936694D01*
X184929133Y-16936693D01*
X184718602Y-16880281D01*
X184718600Y-16880281D01*
X184713287Y-16878857D01*
X184485200Y-16858902D01*
X184257113Y-16878857D01*
X184251800Y-16880281D01*
X184251798Y-16880281D01*
X184041267Y-16936693D01*
X184041265Y-16936694D01*
X184035957Y-16938116D01*
X184030976Y-16940439D01*
X184030975Y-16940439D01*
X183833438Y-17032551D01*
X183833433Y-17032554D01*
X183828451Y-17034877D01*
X183723589Y-17108302D01*
X183645411Y-17163043D01*
X183645408Y-17163045D01*
X183640900Y-17166202D01*
X183479002Y-17328100D01*
X183475845Y-17332608D01*
X183475843Y-17332611D01*
X183446838Y-17374035D01*
X183347677Y-17515651D01*
X183345354Y-17520633D01*
X183345351Y-17520638D01*
X183329395Y-17554857D01*
X183282478Y-17608142D01*
X183214201Y-17627603D01*
X183146241Y-17607061D01*
X183101005Y-17554857D01*
X183085049Y-17520638D01*
X183085046Y-17520633D01*
X183082723Y-17515651D01*
X182983562Y-17374035D01*
X182954557Y-17332611D01*
X182954555Y-17332608D01*
X182951398Y-17328100D01*
X182789500Y-17166202D01*
X182784992Y-17163045D01*
X182784989Y-17163043D01*
X182706811Y-17108302D01*
X182601949Y-17034877D01*
X182596967Y-17032554D01*
X182596962Y-17032551D01*
X182399425Y-16940439D01*
X182399424Y-16940439D01*
X182394443Y-16938116D01*
X182389135Y-16936694D01*
X182389133Y-16936693D01*
X182178602Y-16880281D01*
X182178600Y-16880281D01*
X182173287Y-16878857D01*
X181945200Y-16858902D01*
X181717113Y-16878857D01*
X181711800Y-16880281D01*
X181711798Y-16880281D01*
X181501267Y-16936693D01*
X181501265Y-16936694D01*
X181495957Y-16938116D01*
X181490976Y-16940439D01*
X181490975Y-16940439D01*
X181293438Y-17032551D01*
X181293433Y-17032554D01*
X181288451Y-17034877D01*
X181183589Y-17108302D01*
X181105411Y-17163043D01*
X181105408Y-17163045D01*
X181100900Y-17166202D01*
X180939002Y-17328100D01*
X180935845Y-17332608D01*
X180935843Y-17332611D01*
X180906838Y-17374035D01*
X180807677Y-17515651D01*
X180805354Y-17520633D01*
X180805351Y-17520638D01*
X180789395Y-17554857D01*
X180742478Y-17608142D01*
X180674201Y-17627603D01*
X180606241Y-17607061D01*
X180561005Y-17554857D01*
X180545049Y-17520638D01*
X180545046Y-17520633D01*
X180542723Y-17515651D01*
X180443562Y-17374035D01*
X180414557Y-17332611D01*
X180414555Y-17332608D01*
X180411398Y-17328100D01*
X180249500Y-17166202D01*
X180244992Y-17163045D01*
X180244989Y-17163043D01*
X180166811Y-17108302D01*
X180061949Y-17034877D01*
X180056967Y-17032554D01*
X180056962Y-17032551D01*
X179859425Y-16940439D01*
X179859424Y-16940439D01*
X179854443Y-16938116D01*
X179849135Y-16936694D01*
X179849133Y-16936693D01*
X179638602Y-16880281D01*
X179638600Y-16880281D01*
X179633287Y-16878857D01*
X179405200Y-16858902D01*
X179177113Y-16878857D01*
X179171800Y-16880281D01*
X179171798Y-16880281D01*
X178961267Y-16936693D01*
X178961265Y-16936694D01*
X178955957Y-16938116D01*
X178950976Y-16940439D01*
X178950975Y-16940439D01*
X178753438Y-17032551D01*
X178753433Y-17032554D01*
X178748451Y-17034877D01*
X178643589Y-17108302D01*
X178565411Y-17163043D01*
X178565408Y-17163045D01*
X178560900Y-17166202D01*
X178399002Y-17328100D01*
X178395845Y-17332608D01*
X178395843Y-17332611D01*
X178366838Y-17374035D01*
X178267677Y-17515651D01*
X178265354Y-17520633D01*
X178265351Y-17520638D01*
X178249395Y-17554857D01*
X178202478Y-17608142D01*
X178134201Y-17627603D01*
X178066241Y-17607061D01*
X178021005Y-17554857D01*
X178005049Y-17520638D01*
X178005046Y-17520633D01*
X178002723Y-17515651D01*
X177903562Y-17374035D01*
X177874557Y-17332611D01*
X177874555Y-17332608D01*
X177871398Y-17328100D01*
X177709500Y-17166202D01*
X177704992Y-17163045D01*
X177704989Y-17163043D01*
X177626811Y-17108302D01*
X177521949Y-17034877D01*
X177516967Y-17032554D01*
X177516962Y-17032551D01*
X177319425Y-16940439D01*
X177319424Y-16940439D01*
X177314443Y-16938116D01*
X177309135Y-16936694D01*
X177309133Y-16936693D01*
X177098602Y-16880281D01*
X177098600Y-16880281D01*
X177093287Y-16878857D01*
X176865200Y-16858902D01*
X176637113Y-16878857D01*
X176631800Y-16880281D01*
X176631798Y-16880281D01*
X176421267Y-16936693D01*
X176421265Y-16936694D01*
X176415957Y-16938116D01*
X176410976Y-16940439D01*
X176410975Y-16940439D01*
X176213438Y-17032551D01*
X176213433Y-17032554D01*
X176208451Y-17034877D01*
X176103589Y-17108302D01*
X176025411Y-17163043D01*
X176025408Y-17163045D01*
X176020900Y-17166202D01*
X175859002Y-17328100D01*
X175855845Y-17332608D01*
X175855843Y-17332611D01*
X175826838Y-17374035D01*
X175727677Y-17515651D01*
X175725354Y-17520633D01*
X175725351Y-17520638D01*
X175709395Y-17554857D01*
X175662478Y-17608142D01*
X175594201Y-17627603D01*
X175526241Y-17607061D01*
X175481005Y-17554857D01*
X175465049Y-17520638D01*
X175465046Y-17520633D01*
X175462723Y-17515651D01*
X175363562Y-17374035D01*
X175334557Y-17332611D01*
X175334555Y-17332608D01*
X175331398Y-17328100D01*
X175169500Y-17166202D01*
X175164992Y-17163045D01*
X175164989Y-17163043D01*
X175086811Y-17108302D01*
X174981949Y-17034877D01*
X174976967Y-17032554D01*
X174976962Y-17032551D01*
X174779425Y-16940439D01*
X174779424Y-16940439D01*
X174774443Y-16938116D01*
X174769135Y-16936694D01*
X174769133Y-16936693D01*
X174558602Y-16880281D01*
X174558600Y-16880281D01*
X174553287Y-16878857D01*
X174325200Y-16858902D01*
X174097113Y-16878857D01*
X174091800Y-16880281D01*
X174091798Y-16880281D01*
X173881267Y-16936693D01*
X173881265Y-16936694D01*
X173875957Y-16938116D01*
X173870976Y-16940439D01*
X173870975Y-16940439D01*
X173673438Y-17032551D01*
X173673433Y-17032554D01*
X173668451Y-17034877D01*
X173563589Y-17108302D01*
X173485411Y-17163043D01*
X173485408Y-17163045D01*
X173480900Y-17166202D01*
X173319002Y-17328100D01*
X173315845Y-17332608D01*
X173315843Y-17332611D01*
X173286838Y-17374035D01*
X173187677Y-17515651D01*
X173185354Y-17520633D01*
X173185351Y-17520638D01*
X173169395Y-17554857D01*
X173122478Y-17608142D01*
X173054201Y-17627603D01*
X172986241Y-17607061D01*
X172941005Y-17554857D01*
X172925049Y-17520638D01*
X172925046Y-17520633D01*
X172922723Y-17515651D01*
X172823562Y-17374035D01*
X172794557Y-17332611D01*
X172794555Y-17332608D01*
X172791398Y-17328100D01*
X172629500Y-17166202D01*
X172624992Y-17163045D01*
X172624989Y-17163043D01*
X172546811Y-17108302D01*
X172441949Y-17034877D01*
X172436967Y-17032554D01*
X172436962Y-17032551D01*
X172239425Y-16940439D01*
X172239424Y-16940439D01*
X172234443Y-16938116D01*
X172229135Y-16936694D01*
X172229133Y-16936693D01*
X172018602Y-16880281D01*
X172018600Y-16880281D01*
X172013287Y-16878857D01*
X171785200Y-16858902D01*
X171557113Y-16878857D01*
X171551800Y-16880281D01*
X171551798Y-16880281D01*
X171341267Y-16936693D01*
X171341265Y-16936694D01*
X171335957Y-16938116D01*
X171330976Y-16940439D01*
X171330975Y-16940439D01*
X171133438Y-17032551D01*
X171133433Y-17032554D01*
X171128451Y-17034877D01*
X171023589Y-17108302D01*
X170945411Y-17163043D01*
X170945408Y-17163045D01*
X170940900Y-17166202D01*
X170779002Y-17328100D01*
X170775845Y-17332608D01*
X170775843Y-17332611D01*
X170746838Y-17374035D01*
X170647677Y-17515651D01*
X170645354Y-17520633D01*
X170645351Y-17520638D01*
X170629395Y-17554857D01*
X170582478Y-17608142D01*
X170514201Y-17627603D01*
X170446241Y-17607061D01*
X170401005Y-17554857D01*
X170385049Y-17520638D01*
X170385046Y-17520633D01*
X170382723Y-17515651D01*
X170283562Y-17374035D01*
X170254557Y-17332611D01*
X170254555Y-17332608D01*
X170251398Y-17328100D01*
X170089500Y-17166202D01*
X170084992Y-17163045D01*
X170084989Y-17163043D01*
X170006811Y-17108302D01*
X169901949Y-17034877D01*
X169896967Y-17032554D01*
X169896962Y-17032551D01*
X169699425Y-16940439D01*
X169699424Y-16940439D01*
X169694443Y-16938116D01*
X169689135Y-16936694D01*
X169689133Y-16936693D01*
X169478602Y-16880281D01*
X169478600Y-16880281D01*
X169473287Y-16878857D01*
X169245200Y-16858902D01*
X169017113Y-16878857D01*
X169011800Y-16880281D01*
X169011798Y-16880281D01*
X168801267Y-16936693D01*
X168801265Y-16936694D01*
X168795957Y-16938116D01*
X168790976Y-16940439D01*
X168790975Y-16940439D01*
X168593438Y-17032551D01*
X168593433Y-17032554D01*
X168588451Y-17034877D01*
X168483589Y-17108302D01*
X168405411Y-17163043D01*
X168405408Y-17163045D01*
X168400900Y-17166202D01*
X168239002Y-17328100D01*
X168235845Y-17332608D01*
X168235843Y-17332611D01*
X168206838Y-17374035D01*
X168107677Y-17515651D01*
X168105354Y-17520633D01*
X168105351Y-17520638D01*
X168089395Y-17554857D01*
X168042478Y-17608142D01*
X167974201Y-17627603D01*
X167906241Y-17607061D01*
X167861005Y-17554857D01*
X167845049Y-17520638D01*
X167845046Y-17520633D01*
X167842723Y-17515651D01*
X167743562Y-17374035D01*
X167714557Y-17332611D01*
X167714555Y-17332608D01*
X167711398Y-17328100D01*
X167549500Y-17166202D01*
X167544992Y-17163045D01*
X167544989Y-17163043D01*
X167466811Y-17108302D01*
X167361949Y-17034877D01*
X167356967Y-17032554D01*
X167356962Y-17032551D01*
X167159425Y-16940439D01*
X167159424Y-16940439D01*
X167154443Y-16938116D01*
X167149135Y-16936694D01*
X167149133Y-16936693D01*
X166938602Y-16880281D01*
X166938600Y-16880281D01*
X166933287Y-16878857D01*
X166705200Y-16858902D01*
X166477113Y-16878857D01*
X166471800Y-16880281D01*
X166471798Y-16880281D01*
X166261267Y-16936693D01*
X166261265Y-16936694D01*
X166255957Y-16938116D01*
X166250976Y-16940439D01*
X166250975Y-16940439D01*
X166053438Y-17032551D01*
X166053433Y-17032554D01*
X166048451Y-17034877D01*
X165943589Y-17108302D01*
X165865411Y-17163043D01*
X165865408Y-17163045D01*
X165860900Y-17166202D01*
X165699002Y-17328100D01*
X165695845Y-17332608D01*
X165695843Y-17332611D01*
X165666838Y-17374035D01*
X165567677Y-17515651D01*
X165565354Y-17520633D01*
X165565351Y-17520638D01*
X165549395Y-17554857D01*
X165502478Y-17608142D01*
X165434201Y-17627603D01*
X165366241Y-17607061D01*
X165321005Y-17554857D01*
X165305049Y-17520638D01*
X165305046Y-17520633D01*
X165302723Y-17515651D01*
X165203562Y-17374035D01*
X165174557Y-17332611D01*
X165174555Y-17332608D01*
X165171398Y-17328100D01*
X165009500Y-17166202D01*
X165004992Y-17163045D01*
X165004989Y-17163043D01*
X164926811Y-17108302D01*
X164821949Y-17034877D01*
X164816967Y-17032554D01*
X164816962Y-17032551D01*
X164619425Y-16940439D01*
X164619424Y-16940439D01*
X164614443Y-16938116D01*
X164609135Y-16936694D01*
X164609133Y-16936693D01*
X164398602Y-16880281D01*
X164398600Y-16880281D01*
X164393287Y-16878857D01*
X164165200Y-16858902D01*
X163937113Y-16878857D01*
X163931800Y-16880281D01*
X163931798Y-16880281D01*
X163721267Y-16936693D01*
X163721265Y-16936694D01*
X163715957Y-16938116D01*
X163710976Y-16940439D01*
X163710975Y-16940439D01*
X163513438Y-17032551D01*
X163513433Y-17032554D01*
X163508451Y-17034877D01*
X163403589Y-17108302D01*
X163325411Y-17163043D01*
X163325408Y-17163045D01*
X163320900Y-17166202D01*
X163159002Y-17328100D01*
X163155845Y-17332608D01*
X163155843Y-17332611D01*
X163126838Y-17374035D01*
X163027677Y-17515651D01*
X163025354Y-17520633D01*
X163025351Y-17520638D01*
X163009395Y-17554857D01*
X162962478Y-17608142D01*
X162894201Y-17627603D01*
X162826241Y-17607061D01*
X162781005Y-17554857D01*
X162765049Y-17520638D01*
X162765046Y-17520633D01*
X162762723Y-17515651D01*
X162663562Y-17374035D01*
X162634557Y-17332611D01*
X162634555Y-17332608D01*
X162631398Y-17328100D01*
X162469500Y-17166202D01*
X162464992Y-17163045D01*
X162464989Y-17163043D01*
X162386811Y-17108302D01*
X162281949Y-17034877D01*
X162276967Y-17032554D01*
X162276962Y-17032551D01*
X162079425Y-16940439D01*
X162079424Y-16940439D01*
X162074443Y-16938116D01*
X162069135Y-16936694D01*
X162069133Y-16936693D01*
X161858602Y-16880281D01*
X161858600Y-16880281D01*
X161853287Y-16878857D01*
X161625200Y-16858902D01*
X161397113Y-16878857D01*
X161391800Y-16880281D01*
X161391798Y-16880281D01*
X161181267Y-16936693D01*
X161181265Y-16936694D01*
X161175957Y-16938116D01*
X161170976Y-16940439D01*
X161170975Y-16940439D01*
X160973438Y-17032551D01*
X160973433Y-17032554D01*
X160968451Y-17034877D01*
X160863589Y-17108302D01*
X160785411Y-17163043D01*
X160785408Y-17163045D01*
X160780900Y-17166202D01*
X160619002Y-17328100D01*
X160615845Y-17332608D01*
X160615843Y-17332611D01*
X160586838Y-17374035D01*
X160487677Y-17515651D01*
X160485354Y-17520633D01*
X160485351Y-17520638D01*
X160469395Y-17554857D01*
X160422478Y-17608142D01*
X160354201Y-17627603D01*
X160286241Y-17607061D01*
X160241005Y-17554857D01*
X160225049Y-17520638D01*
X160225046Y-17520633D01*
X160222723Y-17515651D01*
X160123562Y-17374035D01*
X160094557Y-17332611D01*
X160094555Y-17332608D01*
X160091398Y-17328100D01*
X159929500Y-17166202D01*
X159924992Y-17163045D01*
X159924989Y-17163043D01*
X159846811Y-17108302D01*
X159741949Y-17034877D01*
X159736967Y-17032554D01*
X159736962Y-17032551D01*
X159539425Y-16940439D01*
X159539424Y-16940439D01*
X159534443Y-16938116D01*
X159529135Y-16936694D01*
X159529133Y-16936693D01*
X159318602Y-16880281D01*
X159318600Y-16880281D01*
X159313287Y-16878857D01*
X159085200Y-16858902D01*
X158857113Y-16878857D01*
X158851800Y-16880281D01*
X158851798Y-16880281D01*
X158641267Y-16936693D01*
X158641265Y-16936694D01*
X158635957Y-16938116D01*
X158630976Y-16940439D01*
X158630975Y-16940439D01*
X158433438Y-17032551D01*
X158433433Y-17032554D01*
X158428451Y-17034877D01*
X158323589Y-17108302D01*
X158245411Y-17163043D01*
X158245408Y-17163045D01*
X158240900Y-17166202D01*
X158079002Y-17328100D01*
X158075845Y-17332608D01*
X158075843Y-17332611D01*
X158046838Y-17374035D01*
X157947677Y-17515651D01*
X157945354Y-17520633D01*
X157945351Y-17520638D01*
X157929395Y-17554857D01*
X157882478Y-17608142D01*
X157814201Y-17627603D01*
X157746241Y-17607061D01*
X157701005Y-17554857D01*
X157685049Y-17520638D01*
X157685046Y-17520633D01*
X157682723Y-17515651D01*
X157583562Y-17374035D01*
X157554557Y-17332611D01*
X157554555Y-17332608D01*
X157551398Y-17328100D01*
X157389500Y-17166202D01*
X157384992Y-17163045D01*
X157384989Y-17163043D01*
X157306811Y-17108302D01*
X157201949Y-17034877D01*
X157196967Y-17032554D01*
X157196962Y-17032551D01*
X156999425Y-16940439D01*
X156999424Y-16940439D01*
X156994443Y-16938116D01*
X156989135Y-16936694D01*
X156989133Y-16936693D01*
X156778602Y-16880281D01*
X156778600Y-16880281D01*
X156773287Y-16878857D01*
X156545200Y-16858902D01*
X156317113Y-16878857D01*
X156311800Y-16880281D01*
X156311798Y-16880281D01*
X156101267Y-16936693D01*
X156101265Y-16936694D01*
X156095957Y-16938116D01*
X156090976Y-16940439D01*
X156090975Y-16940439D01*
X155893438Y-17032551D01*
X155893433Y-17032554D01*
X155888451Y-17034877D01*
X155783589Y-17108302D01*
X155705411Y-17163043D01*
X155705408Y-17163045D01*
X155700900Y-17166202D01*
X155539002Y-17328100D01*
X155535845Y-17332608D01*
X155535843Y-17332611D01*
X155506838Y-17374035D01*
X155407677Y-17515651D01*
X155405354Y-17520633D01*
X155405351Y-17520638D01*
X155389395Y-17554857D01*
X155342478Y-17608142D01*
X155274201Y-17627603D01*
X155206241Y-17607061D01*
X155161005Y-17554857D01*
X155145049Y-17520638D01*
X155145046Y-17520633D01*
X155142723Y-17515651D01*
X155043562Y-17374035D01*
X155014557Y-17332611D01*
X155014555Y-17332608D01*
X155011398Y-17328100D01*
X154849500Y-17166202D01*
X154844992Y-17163045D01*
X154844989Y-17163043D01*
X154766811Y-17108302D01*
X154661949Y-17034877D01*
X154656967Y-17032554D01*
X154656962Y-17032551D01*
X154459425Y-16940439D01*
X154459424Y-16940439D01*
X154454443Y-16938116D01*
X154449135Y-16936694D01*
X154449133Y-16936693D01*
X154238602Y-16880281D01*
X154238600Y-16880281D01*
X154233287Y-16878857D01*
X154005200Y-16858902D01*
X153777113Y-16878857D01*
X153771800Y-16880281D01*
X153771798Y-16880281D01*
X153561267Y-16936693D01*
X153561265Y-16936694D01*
X153555957Y-16938116D01*
X153550976Y-16940439D01*
X153550975Y-16940439D01*
X153353438Y-17032551D01*
X153353433Y-17032554D01*
X153348451Y-17034877D01*
X153243589Y-17108302D01*
X153165411Y-17163043D01*
X153165408Y-17163045D01*
X153160900Y-17166202D01*
X152999002Y-17328100D01*
X152995845Y-17332608D01*
X152995843Y-17332611D01*
X152966838Y-17374035D01*
X152867677Y-17515651D01*
X152865354Y-17520633D01*
X152865351Y-17520638D01*
X152849395Y-17554857D01*
X152802478Y-17608142D01*
X152734201Y-17627603D01*
X152666241Y-17607061D01*
X152621005Y-17554857D01*
X152605049Y-17520638D01*
X152605046Y-17520633D01*
X152602723Y-17515651D01*
X152503562Y-17374035D01*
X152474557Y-17332611D01*
X152474555Y-17332608D01*
X152471398Y-17328100D01*
X152309500Y-17166202D01*
X152304992Y-17163045D01*
X152304989Y-17163043D01*
X152226811Y-17108302D01*
X152121949Y-17034877D01*
X152116967Y-17032554D01*
X152116962Y-17032551D01*
X151919425Y-16940439D01*
X151919424Y-16940439D01*
X151914443Y-16938116D01*
X151909135Y-16936694D01*
X151909133Y-16936693D01*
X151698602Y-16880281D01*
X151698600Y-16880281D01*
X151693287Y-16878857D01*
X151465200Y-16858902D01*
X151237113Y-16878857D01*
X151231800Y-16880281D01*
X151231798Y-16880281D01*
X151021267Y-16936693D01*
X151021265Y-16936694D01*
X151015957Y-16938116D01*
X151010976Y-16940439D01*
X151010975Y-16940439D01*
X150813438Y-17032551D01*
X150813433Y-17032554D01*
X150808451Y-17034877D01*
X150703589Y-17108302D01*
X150625411Y-17163043D01*
X150625408Y-17163045D01*
X150620900Y-17166202D01*
X150459002Y-17328100D01*
X150455845Y-17332608D01*
X150455843Y-17332611D01*
X150426838Y-17374035D01*
X150327677Y-17515651D01*
X150325354Y-17520633D01*
X150325351Y-17520638D01*
X150309395Y-17554857D01*
X150262478Y-17608142D01*
X150194201Y-17627603D01*
X150126241Y-17607061D01*
X150081005Y-17554857D01*
X150065049Y-17520638D01*
X150065046Y-17520633D01*
X150062723Y-17515651D01*
X149963562Y-17374035D01*
X149934557Y-17332611D01*
X149934555Y-17332608D01*
X149931398Y-17328100D01*
X149769500Y-17166202D01*
X149764992Y-17163045D01*
X149764989Y-17163043D01*
X149686811Y-17108302D01*
X149581949Y-17034877D01*
X149576967Y-17032554D01*
X149576962Y-17032551D01*
X149379425Y-16940439D01*
X149379424Y-16940439D01*
X149374443Y-16938116D01*
X149369135Y-16936694D01*
X149369133Y-16936693D01*
X149158602Y-16880281D01*
X149158600Y-16880281D01*
X149153287Y-16878857D01*
X148925200Y-16858902D01*
X148697113Y-16878857D01*
X148691800Y-16880281D01*
X148691798Y-16880281D01*
X148481267Y-16936693D01*
X148481265Y-16936694D01*
X148475957Y-16938116D01*
X148470976Y-16940439D01*
X148470975Y-16940439D01*
X148273438Y-17032551D01*
X148273433Y-17032554D01*
X148268451Y-17034877D01*
X148163589Y-17108302D01*
X148085411Y-17163043D01*
X148085408Y-17163045D01*
X148080900Y-17166202D01*
X147919002Y-17328100D01*
X147915845Y-17332608D01*
X147915843Y-17332611D01*
X147886838Y-17374035D01*
X147787677Y-17515651D01*
X147785354Y-17520633D01*
X147785351Y-17520638D01*
X147769119Y-17555449D01*
X147722202Y-17608734D01*
X147653925Y-17628195D01*
X147585965Y-17607653D01*
X147540729Y-17555449D01*
X147524614Y-17520889D01*
X147519131Y-17511393D01*
X147394172Y-17332933D01*
X147387116Y-17324525D01*
X147233075Y-17170484D01*
X147224667Y-17163428D01*
X147046207Y-17038469D01*
X147036711Y-17032986D01*
X146839253Y-16940910D01*
X146828961Y-16937164D01*
X146656697Y-16891006D01*
X146642601Y-16891342D01*
X146639200Y-16899284D01*
X146639200Y-20240367D01*
X146643173Y-20253898D01*
X146651722Y-20255127D01*
X146828961Y-20207636D01*
X146839253Y-20203890D01*
X147036711Y-20111814D01*
X147046207Y-20106331D01*
X147224667Y-19981372D01*
X147233075Y-19974316D01*
X147387116Y-19820275D01*
X147394172Y-19811867D01*
X147519131Y-19633407D01*
X147524614Y-19623911D01*
X147540729Y-19589351D01*
X147587646Y-19536066D01*
X147655923Y-19516605D01*
X147723883Y-19537147D01*
X147769119Y-19589351D01*
X147785351Y-19624162D01*
X147785354Y-19624167D01*
X147787677Y-19629149D01*
X147790834Y-19633657D01*
X147915840Y-19812184D01*
X147919002Y-19816700D01*
X148080900Y-19978598D01*
X148085408Y-19981755D01*
X148085411Y-19981757D01*
X148099166Y-19991388D01*
X148268451Y-20109923D01*
X148273433Y-20112246D01*
X148273438Y-20112249D01*
X148469965Y-20203890D01*
X148475957Y-20206684D01*
X148481265Y-20208106D01*
X148481267Y-20208107D01*
X148691798Y-20264519D01*
X148691800Y-20264519D01*
X148697113Y-20265943D01*
X148925200Y-20285898D01*
X149153287Y-20265943D01*
X149158600Y-20264519D01*
X149158602Y-20264519D01*
X149369133Y-20208107D01*
X149369135Y-20208106D01*
X149374443Y-20206684D01*
X149380435Y-20203890D01*
X149576962Y-20112249D01*
X149576967Y-20112246D01*
X149581949Y-20109923D01*
X149751234Y-19991388D01*
X149764989Y-19981757D01*
X149764992Y-19981755D01*
X149769500Y-19978598D01*
X149931398Y-19816700D01*
X149934561Y-19812184D01*
X150059566Y-19633657D01*
X150062723Y-19629149D01*
X150065046Y-19624167D01*
X150065049Y-19624162D01*
X150081005Y-19589943D01*
X150127922Y-19536658D01*
X150196199Y-19517197D01*
X150264159Y-19537739D01*
X150309395Y-19589943D01*
X150325351Y-19624162D01*
X150325354Y-19624167D01*
X150327677Y-19629149D01*
X150330834Y-19633657D01*
X150455840Y-19812184D01*
X150459002Y-19816700D01*
X150620900Y-19978598D01*
X150625408Y-19981755D01*
X150625411Y-19981757D01*
X150639166Y-19991388D01*
X150808451Y-20109923D01*
X150813433Y-20112246D01*
X150813438Y-20112249D01*
X151009965Y-20203890D01*
X151015957Y-20206684D01*
X151021265Y-20208106D01*
X151021267Y-20208107D01*
X151231798Y-20264519D01*
X151231800Y-20264519D01*
X151237113Y-20265943D01*
X151465200Y-20285898D01*
X151693287Y-20265943D01*
X151698600Y-20264519D01*
X151698602Y-20264519D01*
X151909133Y-20208107D01*
X151909135Y-20208106D01*
X151914443Y-20206684D01*
X151920435Y-20203890D01*
X152116962Y-20112249D01*
X152116967Y-20112246D01*
X152121949Y-20109923D01*
X152291234Y-19991388D01*
X152304989Y-19981757D01*
X152304992Y-19981755D01*
X152309500Y-19978598D01*
X152471398Y-19816700D01*
X152474561Y-19812184D01*
X152599566Y-19633657D01*
X152602723Y-19629149D01*
X152605046Y-19624167D01*
X152605049Y-19624162D01*
X152621005Y-19589943D01*
X152667922Y-19536658D01*
X152736199Y-19517197D01*
X152804159Y-19537739D01*
X152849395Y-19589943D01*
X152865351Y-19624162D01*
X152865354Y-19624167D01*
X152867677Y-19629149D01*
X152870834Y-19633657D01*
X152995840Y-19812184D01*
X152999002Y-19816700D01*
X153084595Y-19902293D01*
X153118621Y-19964605D01*
X153121500Y-19991388D01*
X153121500Y-22125143D01*
X153119949Y-22144855D01*
X153117850Y-22158107D01*
X153118195Y-22164694D01*
X153118195Y-22164698D01*
X153121327Y-22224450D01*
X153121500Y-22231045D01*
X153121500Y-22250906D01*
X153121844Y-22254177D01*
X153123576Y-22270659D01*
X153124093Y-22277233D01*
X153127168Y-22335898D01*
X153127570Y-22343571D01*
X153131042Y-22356529D01*
X153134645Y-22375972D01*
X153136046Y-22389302D01*
X153156578Y-22452494D01*
X153158444Y-22458796D01*
X153175638Y-22522963D01*
X153178634Y-22528842D01*
X153178637Y-22528851D01*
X153181728Y-22534917D01*
X153189292Y-22553179D01*
X153191392Y-22559643D01*
X153191395Y-22559651D01*
X153193436Y-22565931D01*
X153196738Y-22571650D01*
X153196740Y-22571655D01*
X153226654Y-22623467D01*
X153229787Y-22629237D01*
X153259953Y-22688439D01*
X153264109Y-22693571D01*
X153268391Y-22698859D01*
X153279589Y-22715152D01*
X153286296Y-22726769D01*
X153290713Y-22731675D01*
X153290717Y-22731680D01*
X153330747Y-22776138D01*
X153335031Y-22781154D01*
X153345441Y-22794009D01*
X153347528Y-22796586D01*
X153361573Y-22810631D01*
X153366114Y-22815416D01*
X153389271Y-22841134D01*
X153410566Y-22864785D01*
X153421426Y-22872675D01*
X153436454Y-22885512D01*
X154200417Y-23649474D01*
X154888346Y-24337403D01*
X154922371Y-24399715D01*
X154917307Y-24470530D01*
X154879030Y-24520914D01*
X154880398Y-24522433D01*
X154875492Y-24526851D01*
X154870147Y-24530734D01*
X154865726Y-24535644D01*
X154865725Y-24535645D01*
X154845616Y-24557979D01*
X154742360Y-24672656D01*
X154646873Y-24838044D01*
X154587858Y-25019672D01*
X154587168Y-25026233D01*
X154587168Y-25026235D01*
X154570493Y-25184892D01*
X154543480Y-25250549D01*
X154534278Y-25260817D01*
X153859526Y-25935569D01*
X153797214Y-25969595D01*
X153726399Y-25964530D01*
X153676796Y-25930786D01*
X153668469Y-25921538D01*
X153668467Y-25921536D01*
X153664053Y-25916634D01*
X153509552Y-25804382D01*
X153503524Y-25801698D01*
X153503522Y-25801697D01*
X153341119Y-25729391D01*
X153341118Y-25729391D01*
X153335088Y-25726706D01*
X153241687Y-25706853D01*
X153154744Y-25688372D01*
X153154739Y-25688372D01*
X153148287Y-25687000D01*
X152957313Y-25687000D01*
X152950861Y-25688372D01*
X152950856Y-25688372D01*
X152863912Y-25706853D01*
X152770512Y-25726706D01*
X152764482Y-25729391D01*
X152764481Y-25729391D01*
X152602078Y-25801697D01*
X152602076Y-25801698D01*
X152596048Y-25804382D01*
X152441547Y-25916634D01*
X152437132Y-25921537D01*
X152432220Y-25925960D01*
X152431095Y-25924711D01*
X152377786Y-25957551D01*
X152344600Y-25962000D01*
X148415667Y-25962000D01*
X148404484Y-25961473D01*
X148396991Y-25959798D01*
X148389065Y-25960047D01*
X148389064Y-25960047D01*
X148328914Y-25961938D01*
X148324955Y-25962000D01*
X148297044Y-25962000D01*
X148293110Y-25962497D01*
X148293109Y-25962497D01*
X148293044Y-25962505D01*
X148281207Y-25963438D01*
X148248949Y-25964452D01*
X148244930Y-25964578D01*
X148237011Y-25964827D01*
X148217557Y-25970479D01*
X148198200Y-25974487D01*
X148185970Y-25976032D01*
X148185969Y-25976032D01*
X148178103Y-25977026D01*
X148170732Y-25979945D01*
X148170730Y-25979945D01*
X148136988Y-25993304D01*
X148125758Y-25997149D01*
X148090917Y-26007271D01*
X148090916Y-26007271D01*
X148083307Y-26009482D01*
X148076488Y-26013515D01*
X148076483Y-26013517D01*
X148065872Y-26019793D01*
X148048124Y-26028488D01*
X148029283Y-26035948D01*
X148022867Y-26040610D01*
X148022866Y-26040610D01*
X147993513Y-26061936D01*
X147983593Y-26068452D01*
X147952365Y-26086920D01*
X147952362Y-26086922D01*
X147945538Y-26090958D01*
X147931217Y-26105279D01*
X147916184Y-26118119D01*
X147899793Y-26130028D01*
X147873317Y-26162032D01*
X147871602Y-26164105D01*
X147863612Y-26172884D01*
X143452947Y-30583548D01*
X143444661Y-30591088D01*
X143438182Y-30595200D01*
X143432757Y-30600977D01*
X143391557Y-30644851D01*
X143388802Y-30647693D01*
X143369065Y-30667430D01*
X143366585Y-30670627D01*
X143358882Y-30679647D01*
X143328614Y-30711879D01*
X143324795Y-30718825D01*
X143324793Y-30718828D01*
X143318852Y-30729634D01*
X143308001Y-30746153D01*
X143295586Y-30762159D01*
X143292441Y-30769428D01*
X143292438Y-30769432D01*
X143278026Y-30802737D01*
X143272809Y-30813387D01*
X143251505Y-30852140D01*
X143249534Y-30859815D01*
X143249534Y-30859816D01*
X143246467Y-30871762D01*
X143240063Y-30890466D01*
X143232019Y-30909055D01*
X143230780Y-30916878D01*
X143230777Y-30916888D01*
X143225101Y-30952724D01*
X143222695Y-30964344D01*
X143218435Y-30980938D01*
X143211700Y-31007170D01*
X143211700Y-31027424D01*
X143210149Y-31047134D01*
X143206980Y-31067143D01*
X143207726Y-31075035D01*
X143211141Y-31111161D01*
X143211700Y-31123019D01*
X143211700Y-32193006D01*
X143191698Y-32261127D01*
X143157971Y-32296219D01*
X143005411Y-32403043D01*
X143005408Y-32403045D01*
X143000900Y-32406202D01*
X142839002Y-32568100D01*
X142835843Y-32572611D01*
X142832308Y-32576824D01*
X142831174Y-32575873D01*
X142781129Y-32615871D01*
X142710510Y-32623176D01*
X142647151Y-32591142D01*
X142611170Y-32529938D01*
X142608118Y-32512883D01*
X142606945Y-32502084D01*
X142555815Y-32365695D01*
X142468461Y-32249139D01*
X142351905Y-32161785D01*
X142215516Y-32110655D01*
X142153334Y-32103900D01*
X140457066Y-32103900D01*
X140394884Y-32110655D01*
X140258495Y-32161785D01*
X140251310Y-32167170D01*
X140251308Y-32167171D01*
X140210065Y-32198081D01*
X140143558Y-32222929D01*
X140074176Y-32207876D01*
X140023946Y-32157701D01*
X140008500Y-32097255D01*
X140008500Y-19801441D01*
X140028502Y-19733320D01*
X140082158Y-19686827D01*
X140152432Y-19676723D01*
X140217012Y-19706217D01*
X140237713Y-19729171D01*
X140295839Y-19812184D01*
X140295843Y-19812189D01*
X140299002Y-19816700D01*
X140460900Y-19978598D01*
X140465408Y-19981755D01*
X140465411Y-19981757D01*
X140479166Y-19991388D01*
X140648451Y-20109923D01*
X140653433Y-20112246D01*
X140653438Y-20112249D01*
X140849965Y-20203890D01*
X140855957Y-20206684D01*
X140861265Y-20208106D01*
X140861267Y-20208107D01*
X141071798Y-20264519D01*
X141071800Y-20264519D01*
X141077113Y-20265943D01*
X141305200Y-20285898D01*
X141533287Y-20265943D01*
X141538600Y-20264519D01*
X141538602Y-20264519D01*
X141749133Y-20208107D01*
X141749135Y-20208106D01*
X141754443Y-20206684D01*
X141760435Y-20203890D01*
X141956962Y-20112249D01*
X141956967Y-20112246D01*
X141961949Y-20109923D01*
X142131234Y-19991388D01*
X142144989Y-19981757D01*
X142144992Y-19981755D01*
X142149500Y-19978598D01*
X142311398Y-19816700D01*
X142314561Y-19812184D01*
X142439566Y-19633657D01*
X142442723Y-19629149D01*
X142445046Y-19624167D01*
X142445049Y-19624162D01*
X142461005Y-19589943D01*
X142507922Y-19536658D01*
X142576199Y-19517197D01*
X142644159Y-19537739D01*
X142689395Y-19589943D01*
X142705351Y-19624162D01*
X142705354Y-19624167D01*
X142707677Y-19629149D01*
X142710834Y-19633657D01*
X142835840Y-19812184D01*
X142839002Y-19816700D01*
X143000900Y-19978598D01*
X143005408Y-19981755D01*
X143005411Y-19981757D01*
X143019166Y-19991388D01*
X143188451Y-20109923D01*
X143193433Y-20112246D01*
X143193438Y-20112249D01*
X143389965Y-20203890D01*
X143395957Y-20206684D01*
X143401265Y-20208106D01*
X143401267Y-20208107D01*
X143611798Y-20264519D01*
X143611800Y-20264519D01*
X143617113Y-20265943D01*
X143845200Y-20285898D01*
X144073287Y-20265943D01*
X144078600Y-20264519D01*
X144078602Y-20264519D01*
X144289133Y-20208107D01*
X144289135Y-20208106D01*
X144294443Y-20206684D01*
X144300435Y-20203890D01*
X144496962Y-20112249D01*
X144496967Y-20112246D01*
X144501949Y-20109923D01*
X144671234Y-19991388D01*
X144684989Y-19981757D01*
X144684992Y-19981755D01*
X144689500Y-19978598D01*
X144851398Y-19816700D01*
X144854561Y-19812184D01*
X144979566Y-19633657D01*
X144982723Y-19629149D01*
X144985046Y-19624167D01*
X144985049Y-19624162D01*
X145001281Y-19589351D01*
X145048198Y-19536066D01*
X145116475Y-19516605D01*
X145184435Y-19537147D01*
X145229671Y-19589351D01*
X145245786Y-19623911D01*
X145251269Y-19633407D01*
X145376228Y-19811867D01*
X145383284Y-19820275D01*
X145537325Y-19974316D01*
X145545733Y-19981372D01*
X145724193Y-20106331D01*
X145733689Y-20111814D01*
X145931147Y-20203890D01*
X145941439Y-20207636D01*
X146113703Y-20253794D01*
X146127799Y-20253458D01*
X146131200Y-20245516D01*
X146131200Y-16904433D01*
X146127227Y-16890902D01*
X146118678Y-16889673D01*
X145941439Y-16937164D01*
X145931147Y-16940910D01*
X145733689Y-17032986D01*
X145724193Y-17038469D01*
X145545733Y-17163428D01*
X145537325Y-17170484D01*
X145383284Y-17324525D01*
X145376228Y-17332933D01*
X145251269Y-17511393D01*
X145245786Y-17520889D01*
X145229671Y-17555449D01*
X145182754Y-17608734D01*
X145114477Y-17628195D01*
X145046517Y-17607653D01*
X145001281Y-17555449D01*
X144985049Y-17520638D01*
X144985046Y-17520633D01*
X144982723Y-17515651D01*
X144883562Y-17374035D01*
X144854557Y-17332611D01*
X144854555Y-17332608D01*
X144851398Y-17328100D01*
X144689500Y-17166202D01*
X144684992Y-17163045D01*
X144684989Y-17163043D01*
X144606811Y-17108302D01*
X144501949Y-17034877D01*
X144496967Y-17032554D01*
X144496962Y-17032551D01*
X144299425Y-16940439D01*
X144299424Y-16940439D01*
X144294443Y-16938116D01*
X144289135Y-16936694D01*
X144289133Y-16936693D01*
X144078602Y-16880281D01*
X144078600Y-16880281D01*
X144073287Y-16878857D01*
X143845200Y-16858902D01*
X143617113Y-16878857D01*
X143611800Y-16880281D01*
X143611798Y-16880281D01*
X143401267Y-16936693D01*
X143401265Y-16936694D01*
X143395957Y-16938116D01*
X143390976Y-16940439D01*
X143390975Y-16940439D01*
X143193438Y-17032551D01*
X143193433Y-17032554D01*
X143188451Y-17034877D01*
X143083589Y-17108302D01*
X143005411Y-17163043D01*
X143005408Y-17163045D01*
X143000900Y-17166202D01*
X142839002Y-17328100D01*
X142835845Y-17332608D01*
X142835843Y-17332611D01*
X142806838Y-17374035D01*
X142707677Y-17515651D01*
X142705354Y-17520633D01*
X142705351Y-17520638D01*
X142689395Y-17554857D01*
X142642478Y-17608142D01*
X142574201Y-17627603D01*
X142506241Y-17607061D01*
X142461005Y-17554857D01*
X142445049Y-17520638D01*
X142445046Y-17520633D01*
X142442723Y-17515651D01*
X142343562Y-17374035D01*
X142314557Y-17332611D01*
X142314555Y-17332608D01*
X142311398Y-17328100D01*
X142149500Y-17166202D01*
X142144992Y-17163045D01*
X142144989Y-17163043D01*
X142066811Y-17108302D01*
X141961949Y-17034877D01*
X141956967Y-17032554D01*
X141956962Y-17032551D01*
X141759425Y-16940439D01*
X141759424Y-16940439D01*
X141754443Y-16938116D01*
X141749135Y-16936694D01*
X141749133Y-16936693D01*
X141538602Y-16880281D01*
X141538600Y-16880281D01*
X141533287Y-16878857D01*
X141305200Y-16858902D01*
X141077113Y-16878857D01*
X141071800Y-16880281D01*
X141071798Y-16880281D01*
X140861267Y-16936693D01*
X140861265Y-16936694D01*
X140855957Y-16938116D01*
X140850976Y-16940439D01*
X140850975Y-16940439D01*
X140653438Y-17032551D01*
X140653433Y-17032554D01*
X140648451Y-17034877D01*
X140543589Y-17108302D01*
X140465411Y-17163043D01*
X140465408Y-17163045D01*
X140460900Y-17166202D01*
X140299002Y-17328100D01*
X140295844Y-17332610D01*
X140295839Y-17332616D01*
X140237713Y-17415629D01*
X140182256Y-17459958D01*
X140111637Y-17467267D01*
X140048276Y-17435237D01*
X140012291Y-17374035D01*
X140008500Y-17343359D01*
X140008500Y-16534500D01*
X140028502Y-16466379D01*
X140082158Y-16419886D01*
X140134500Y-16408500D01*
X195656700Y-16408500D01*
X195724821Y-16428502D01*
G37*
%TD.AperFunction*%
%TD*%
M02*
