%TF.GenerationSoftware,KiCad,Pcbnew,(6.0.7)*%
%TF.CreationDate,2023-01-02T03:09:55+00:00*%
%TF.ProjectId,CPC-40007AdapterLM1117,4350432d-3430-4303-9037-416461707465,rev?*%
%TF.SameCoordinates,Original*%
%TF.FileFunction,Soldermask,Top*%
%TF.FilePolarity,Negative*%
%FSLAX46Y46*%
G04 Gerber Fmt 4.6, Leading zero omitted, Abs format (unit mm)*
G04 Created by KiCad (PCBNEW (6.0.7)) date 2023-01-02 03:09:55*
%MOMM*%
%LPD*%
G01*
G04 APERTURE LIST*
G04 Aperture macros list*
%AMRoundRect*
0 Rectangle with rounded corners*
0 $1 Rounding radius*
0 $2 $3 $4 $5 $6 $7 $8 $9 X,Y pos of 4 corners*
0 Add a 4 corners polygon primitive as box body*
4,1,4,$2,$3,$4,$5,$6,$7,$8,$9,$2,$3,0*
0 Add four circle primitives for the rounded corners*
1,1,$1+$1,$2,$3*
1,1,$1+$1,$4,$5*
1,1,$1+$1,$6,$7*
1,1,$1+$1,$8,$9*
0 Add four rect primitives between the rounded corners*
20,1,$1+$1,$2,$3,$4,$5,0*
20,1,$1+$1,$4,$5,$6,$7,0*
20,1,$1+$1,$6,$7,$8,$9,0*
20,1,$1+$1,$8,$9,$2,$3,0*%
G04 Aperture macros list end*
%ADD10R,2.000000X1.500000*%
%ADD11R,2.000000X3.800000*%
%ADD12R,1.600000X2.400000*%
%ADD13O,1.600000X2.400000*%
%ADD14RoundRect,0.250000X0.450000X0.425000X-0.450000X0.425000X-0.450000X-0.425000X0.450000X-0.425000X0*%
%ADD15RoundRect,0.250000X-0.262500X-0.450000X0.262500X-0.450000X0.262500X0.450000X-0.262500X0.450000X0*%
%ADD16RoundRect,0.250000X-0.375000X-0.625000X0.375000X-0.625000X0.375000X0.625000X-0.375000X0.625000X0*%
%ADD17R,1.600000X1.600000*%
%ADD18O,1.600000X1.600000*%
%ADD19RoundRect,0.250000X0.262500X0.450000X-0.262500X0.450000X-0.262500X-0.450000X0.262500X-0.450000X0*%
%ADD20RoundRect,0.250000X0.450000X-0.262500X0.450000X0.262500X-0.450000X0.262500X-0.450000X-0.262500X0*%
G04 APERTURE END LIST*
D10*
%TO.C,U1*%
X184200400Y-37476400D03*
D11*
X190500400Y-39776400D03*
D10*
X184200400Y-39776400D03*
X184200400Y-42076400D03*
%TD*%
D12*
%TO.C,IC2*%
X141305200Y-33812400D03*
D13*
X143845200Y-33812400D03*
X146385200Y-33812400D03*
X148925200Y-33812400D03*
X151465200Y-33812400D03*
X154005200Y-33812400D03*
X156545200Y-33812400D03*
X159085200Y-33812400D03*
X161625200Y-33812400D03*
X164165200Y-33812400D03*
X166705200Y-33812400D03*
X169245200Y-33812400D03*
X171785200Y-33812400D03*
X174325200Y-33812400D03*
X176865200Y-33812400D03*
X179405200Y-33812400D03*
X181945200Y-33812400D03*
X184485200Y-33812400D03*
X187025200Y-33812400D03*
X189565200Y-33812400D03*
X189565200Y-18572400D03*
X187025200Y-18572400D03*
X184485200Y-18572400D03*
X181945200Y-18572400D03*
X179405200Y-18572400D03*
X176865200Y-18572400D03*
X174325200Y-18572400D03*
X171785200Y-18572400D03*
X169245200Y-18572400D03*
X166705200Y-18572400D03*
X164165200Y-18572400D03*
X161625200Y-18572400D03*
X159085200Y-18572400D03*
X156545200Y-18572400D03*
X154005200Y-18572400D03*
X151465200Y-18572400D03*
X148925200Y-18572400D03*
X146385200Y-18572400D03*
X143845200Y-18572400D03*
X141305200Y-18572400D03*
%TD*%
D14*
%TO.C,C2*%
X179810400Y-39776400D03*
X177110400Y-39776400D03*
%TD*%
D15*
%TO.C,R5*%
X155526100Y-40055800D03*
X157351100Y-40055800D03*
%TD*%
D14*
%TO.C,C1*%
X179810400Y-42087800D03*
X177110400Y-42087800D03*
%TD*%
D16*
%TO.C,D1*%
X150009400Y-39852600D03*
X152809400Y-39852600D03*
%TD*%
D17*
%TO.C,IC3*%
X146349200Y-45416000D03*
D18*
X148889200Y-45416000D03*
X151429200Y-45416000D03*
X153969200Y-45416000D03*
X156509200Y-45416000D03*
X159049200Y-45416000D03*
X161589200Y-45416000D03*
X164129200Y-45416000D03*
X166669200Y-45416000D03*
X169209200Y-45416000D03*
X171749200Y-45416000D03*
X174289200Y-45416000D03*
X176829200Y-45416000D03*
X179369200Y-45416000D03*
X181909200Y-45416000D03*
X184449200Y-45416000D03*
X186989200Y-45416000D03*
X189529200Y-45416000D03*
X192069200Y-45416000D03*
X194609200Y-45416000D03*
X194609200Y-30176000D03*
X192069200Y-30176000D03*
X189529200Y-30176000D03*
X186989200Y-30176000D03*
X184449200Y-30176000D03*
X181909200Y-30176000D03*
X179369200Y-30176000D03*
X176829200Y-30176000D03*
X174289200Y-30176000D03*
X171749200Y-30176000D03*
X169209200Y-30176000D03*
X166669200Y-30176000D03*
X164129200Y-30176000D03*
X161589200Y-30176000D03*
X159049200Y-30176000D03*
X156509200Y-30176000D03*
X153969200Y-30176000D03*
X151429200Y-30176000D03*
X148889200Y-30176000D03*
X146349200Y-30176000D03*
%TD*%
D16*
%TO.C,D2*%
X164157200Y-39928800D03*
X166957200Y-39928800D03*
%TD*%
D19*
%TO.C,R6*%
X161084900Y-40055800D03*
X159259900Y-40055800D03*
%TD*%
D20*
%TO.C,R2*%
X193065400Y-27887300D03*
X193065400Y-26062300D03*
%TD*%
D15*
%TO.C,R1*%
X140687500Y-36600000D03*
X142512500Y-36600000D03*
%TD*%
M02*
