M48
; DRILL file {KiCad (6.0.7)} date Mon Jan  2 03:09:53 2023
; FORMAT={-:-/ absolute / inch / decimal}
; #@! TF.CreationDate,2023-01-02T03:09:53+00:00
; #@! TF.GenerationSoftware,Kicad,Pcbnew,(6.0.7)
; #@! TF.FileFunction,Plated,1,2,PTH
FMAT,2
INCH
; #@! TA.AperFunction,Plated,PTH,ViaDrill
T1C0.0157
; #@! TA.AperFunction,Plated,PTH,ComponentDrill
T2C0.0315
%
G90
G05
T1
X5.6063Y-1.7244
X5.6688Y-1.5106
X5.715Y-1.587
X5.7697Y-1.687
X5.8019Y-1.1418
X5.8803Y-1.644
X6.0257Y-1.0471
X6.0591Y-1.5
X6.088Y-1.7354
X6.1018Y-0.8524
X6.1213Y-0.9925
X6.1423Y-1.673
X6.2417Y-1.6948
X6.3353Y-1.0459
X6.4092Y-0.7954
X6.5104Y-1.6195
X6.6324Y-1.6196
X6.7423Y-0.9335
X6.7871Y-0.9728
X6.8056Y-1.6196
X6.904Y-1.6196
X7.0725Y-1.0582
X7.0758Y-1.0068
X7.0794Y-0.952
X7.099Y-1.2426
X7.1228Y-1.1236
X7.131Y-1.721
X7.168Y-1.511
X7.3701Y-1.5079
X7.4213Y-1.4567
X7.4904Y-1.7371
X7.601Y-1.502
X7.602Y-1.444
X7.635Y-1.566
X7.658Y-1.444
X7.658Y-1.497
T2
X5.5632Y-0.7312
X5.5632Y-1.3312
X5.6632Y-0.7312
X5.6632Y-1.3312
X5.7618Y-1.188
X5.7618Y-1.788
X5.7632Y-0.7312
X5.7632Y-1.3312
X5.8618Y-1.188
X5.8618Y-1.788
X5.8632Y-0.7312
X5.8632Y-1.3312
X5.9618Y-1.188
X5.9618Y-1.788
X5.9632Y-0.7312
X5.9632Y-1.3312
X6.0618Y-1.188
X6.0618Y-1.788
X6.0632Y-0.7312
X6.0632Y-1.3312
X6.1618Y-1.188
X6.1618Y-1.788
X6.1632Y-0.7312
X6.1632Y-1.3312
X6.2618Y-1.188
X6.2618Y-1.788
X6.2632Y-0.7312
X6.2632Y-1.3312
X6.3618Y-1.188
X6.3618Y-1.788
X6.3632Y-0.7312
X6.3632Y-1.3312
X6.4618Y-1.188
X6.4618Y-1.788
X6.4632Y-0.7312
X6.4632Y-1.3312
X6.5618Y-1.188
X6.5618Y-1.788
X6.5632Y-0.7312
X6.5632Y-1.3312
X6.6618Y-1.188
X6.6618Y-1.788
X6.6632Y-0.7312
X6.6632Y-1.3312
X6.7618Y-1.188
X6.7618Y-1.788
X6.7632Y-0.7312
X6.7632Y-1.3312
X6.8618Y-1.188
X6.8618Y-1.788
X6.8632Y-0.7312
X6.8632Y-1.3312
X6.9618Y-1.188
X6.9618Y-1.788
X6.9632Y-0.7312
X6.9632Y-1.3312
X7.0618Y-1.188
X7.0618Y-1.788
X7.0632Y-0.7312
X7.0632Y-1.3312
X7.1618Y-1.188
X7.1618Y-1.788
X7.1632Y-0.7312
X7.1632Y-1.3312
X7.2618Y-1.188
X7.2618Y-1.788
X7.2632Y-0.7312
X7.2632Y-1.3312
X7.3618Y-1.188
X7.3618Y-1.788
X7.3632Y-0.7312
X7.3632Y-1.3312
X7.4618Y-1.188
X7.4618Y-1.788
X7.4632Y-0.7312
X7.4632Y-1.3312
X7.5618Y-1.188
X7.5618Y-1.788
X7.6618Y-1.188
X7.6618Y-1.788
T0
M30
