%TF.GenerationSoftware,KiCad,Pcbnew,(6.0.7)*%
%TF.CreationDate,2023-01-02T03:09:52+00:00*%
%TF.ProjectId,CPC-40007AdapterLM1117,4350432d-3430-4303-9037-416461707465,rev?*%
%TF.SameCoordinates,Original*%
%TF.FileFunction,Drillmap*%
%TF.FilePolarity,Positive*%
%FSLAX45Y45*%
G04 Gerber Fmt 4.5, Leading zero omitted, Abs format (unit mm)*
G04 Created by KiCad (PCBNEW (6.0.7)) date 2023-01-02 03:09:52*
%MOMM*%
%LPD*%
G01*
G04 APERTURE LIST*
%ADD10C,0.100000*%
%ADD11C,0.200000*%
G04 APERTURE END LIST*
D10*
X13950000Y-4700000D02*
X13950000Y-1590000D01*
X13950000Y-1590000D02*
X19629120Y-1590000D01*
X19629120Y-1590000D02*
X19629120Y-4700000D01*
X19629120Y-4700000D02*
X13950000Y-4700000D01*
D11*
X14202619Y-5015476D02*
X14202619Y-4815476D01*
X14250238Y-4815476D01*
X14278809Y-4825000D01*
X14297857Y-4844048D01*
X14307381Y-4863095D01*
X14316905Y-4901190D01*
X14316905Y-4929762D01*
X14307381Y-4967857D01*
X14297857Y-4986905D01*
X14278809Y-5005952D01*
X14250238Y-5015476D01*
X14202619Y-5015476D01*
X14402619Y-5015476D02*
X14402619Y-4882143D01*
X14402619Y-4920238D02*
X14412143Y-4901190D01*
X14421667Y-4891667D01*
X14440714Y-4882143D01*
X14459762Y-4882143D01*
X14526428Y-5015476D02*
X14526428Y-4882143D01*
X14526428Y-4815476D02*
X14516905Y-4825000D01*
X14526428Y-4834524D01*
X14535952Y-4825000D01*
X14526428Y-4815476D01*
X14526428Y-4834524D01*
X14650238Y-5015476D02*
X14631190Y-5005952D01*
X14621667Y-4986905D01*
X14621667Y-4815476D01*
X14755000Y-5015476D02*
X14735952Y-5005952D01*
X14726428Y-4986905D01*
X14726428Y-4815476D01*
X14983571Y-5015476D02*
X14983571Y-4815476D01*
X15050238Y-4958333D01*
X15116905Y-4815476D01*
X15116905Y-5015476D01*
X15297857Y-5015476D02*
X15297857Y-4910714D01*
X15288333Y-4891667D01*
X15269286Y-4882143D01*
X15231190Y-4882143D01*
X15212143Y-4891667D01*
X15297857Y-5005952D02*
X15278809Y-5015476D01*
X15231190Y-5015476D01*
X15212143Y-5005952D01*
X15202619Y-4986905D01*
X15202619Y-4967857D01*
X15212143Y-4948810D01*
X15231190Y-4939286D01*
X15278809Y-4939286D01*
X15297857Y-4929762D01*
X15393095Y-4882143D02*
X15393095Y-5082143D01*
X15393095Y-4891667D02*
X15412143Y-4882143D01*
X15450238Y-4882143D01*
X15469286Y-4891667D01*
X15478809Y-4901190D01*
X15488333Y-4920238D01*
X15488333Y-4977381D01*
X15478809Y-4996429D01*
X15469286Y-5005952D01*
X15450238Y-5015476D01*
X15412143Y-5015476D01*
X15393095Y-5005952D01*
X15574048Y-4996429D02*
X15583571Y-5005952D01*
X15574048Y-5015476D01*
X15564524Y-5005952D01*
X15574048Y-4996429D01*
X15574048Y-5015476D01*
X15574048Y-4891667D02*
X15583571Y-4901190D01*
X15574048Y-4910714D01*
X15564524Y-4901190D01*
X15574048Y-4891667D01*
X15574048Y-4910714D01*
M02*
