%TF.GenerationSoftware,KiCad,Pcbnew,(6.0.7)*%
%TF.CreationDate,2023-01-02T00:51:12+00:00*%
%TF.ProjectId,CPC464-2MINIPS2,43504334-3634-42d3-924d-494e49505332,rev?*%
%TF.SameCoordinates,Original*%
%TF.FileFunction,Legend,Top*%
%TF.FilePolarity,Positive*%
%FSLAX46Y46*%
G04 Gerber Fmt 4.6, Leading zero omitted, Abs format (unit mm)*
G04 Created by KiCad (PCBNEW (6.0.7)) date 2023-01-02 00:51:12*
%MOMM*%
%LPD*%
G01*
G04 APERTURE LIST*
%ADD10C,0.150000*%
%ADD11C,0.100000*%
%ADD12C,0.120000*%
G04 APERTURE END LIST*
D10*
X61302142Y-77942857D02*
X61349761Y-77990476D01*
X61397380Y-78133333D01*
X61397380Y-78228571D01*
X61349761Y-78371428D01*
X61254523Y-78466666D01*
X61159285Y-78514285D01*
X60968809Y-78561904D01*
X60825952Y-78561904D01*
X60635476Y-78514285D01*
X60540238Y-78466666D01*
X60445000Y-78371428D01*
X60397380Y-78228571D01*
X60397380Y-78133333D01*
X60445000Y-77990476D01*
X60492619Y-77942857D01*
X61397380Y-77514285D02*
X60397380Y-77514285D01*
X60397380Y-77133333D01*
X60445000Y-77038095D01*
X60492619Y-76990476D01*
X60587857Y-76942857D01*
X60730714Y-76942857D01*
X60825952Y-76990476D01*
X60873571Y-77038095D01*
X60921190Y-77133333D01*
X60921190Y-77514285D01*
X61302142Y-75942857D02*
X61349761Y-75990476D01*
X61397380Y-76133333D01*
X61397380Y-76228571D01*
X61349761Y-76371428D01*
X61254523Y-76466666D01*
X61159285Y-76514285D01*
X60968809Y-76561904D01*
X60825952Y-76561904D01*
X60635476Y-76514285D01*
X60540238Y-76466666D01*
X60445000Y-76371428D01*
X60397380Y-76228571D01*
X60397380Y-76133333D01*
X60445000Y-75990476D01*
X60492619Y-75942857D01*
X60730714Y-75085714D02*
X61397380Y-75085714D01*
X60349761Y-75323809D02*
X61064047Y-75561904D01*
X61064047Y-74942857D01*
X60397380Y-74133333D02*
X60397380Y-74323809D01*
X60445000Y-74419047D01*
X60492619Y-74466666D01*
X60635476Y-74561904D01*
X60825952Y-74609523D01*
X61206904Y-74609523D01*
X61302142Y-74561904D01*
X61349761Y-74514285D01*
X61397380Y-74419047D01*
X61397380Y-74228571D01*
X61349761Y-74133333D01*
X61302142Y-74085714D01*
X61206904Y-74038095D01*
X60968809Y-74038095D01*
X60873571Y-74085714D01*
X60825952Y-74133333D01*
X60778333Y-74228571D01*
X60778333Y-74419047D01*
X60825952Y-74514285D01*
X60873571Y-74561904D01*
X60968809Y-74609523D01*
X60730714Y-73180952D02*
X61397380Y-73180952D01*
X60349761Y-73419047D02*
X61064047Y-73657142D01*
X61064047Y-73038095D01*
X61016428Y-72657142D02*
X61016428Y-71895238D01*
X60492619Y-71466666D02*
X60445000Y-71419047D01*
X60397380Y-71323809D01*
X60397380Y-71085714D01*
X60445000Y-70990476D01*
X60492619Y-70942857D01*
X60587857Y-70895238D01*
X60683095Y-70895238D01*
X60825952Y-70942857D01*
X61397380Y-71514285D01*
X61397380Y-70895238D01*
X61397380Y-70466666D02*
X60397380Y-70466666D01*
X61111666Y-70133333D01*
X60397380Y-69800000D01*
X61397380Y-69800000D01*
X61397380Y-69323809D02*
X60397380Y-69323809D01*
X61397380Y-68847619D02*
X60397380Y-68847619D01*
X61397380Y-68276190D01*
X60397380Y-68276190D01*
X61397380Y-67800000D02*
X60397380Y-67800000D01*
X61397380Y-66561904D02*
X60397380Y-66561904D01*
X60397380Y-66180952D01*
X60445000Y-66085714D01*
X60492619Y-66038095D01*
X60587857Y-65990476D01*
X60730714Y-65990476D01*
X60825952Y-66038095D01*
X60873571Y-66085714D01*
X60921190Y-66180952D01*
X60921190Y-66561904D01*
X61349761Y-65609523D02*
X61397380Y-65466666D01*
X61397380Y-65228571D01*
X61349761Y-65133333D01*
X61302142Y-65085714D01*
X61206904Y-65038095D01*
X61111666Y-65038095D01*
X61016428Y-65085714D01*
X60968809Y-65133333D01*
X60921190Y-65228571D01*
X60873571Y-65419047D01*
X60825952Y-65514285D01*
X60778333Y-65561904D01*
X60683095Y-65609523D01*
X60587857Y-65609523D01*
X60492619Y-65561904D01*
X60445000Y-65514285D01*
X60397380Y-65419047D01*
X60397380Y-65180952D01*
X60445000Y-65038095D01*
X60349761Y-63895238D02*
X61635476Y-64752380D01*
X60492619Y-63609523D02*
X60445000Y-63561904D01*
X60397380Y-63466666D01*
X60397380Y-63228571D01*
X60445000Y-63133333D01*
X60492619Y-63085714D01*
X60587857Y-63038095D01*
X60683095Y-63038095D01*
X60825952Y-63085714D01*
X61397380Y-63657142D01*
X61397380Y-63038095D01*
X63007380Y-78919047D02*
X62007380Y-78919047D01*
X63007380Y-78347619D02*
X62435952Y-78776190D01*
X62007380Y-78347619D02*
X62578809Y-78919047D01*
X62959761Y-77538095D02*
X63007380Y-77633333D01*
X63007380Y-77823809D01*
X62959761Y-77919047D01*
X62864523Y-77966666D01*
X62483571Y-77966666D01*
X62388333Y-77919047D01*
X62340714Y-77823809D01*
X62340714Y-77633333D01*
X62388333Y-77538095D01*
X62483571Y-77490476D01*
X62578809Y-77490476D01*
X62674047Y-77966666D01*
X62340714Y-77157142D02*
X63007380Y-76919047D01*
X62340714Y-76680952D02*
X63007380Y-76919047D01*
X63245476Y-77014285D01*
X63293095Y-77061904D01*
X63340714Y-77157142D01*
X63007380Y-76300000D02*
X62007380Y-76300000D01*
X62388333Y-76300000D02*
X62340714Y-76204761D01*
X62340714Y-76014285D01*
X62388333Y-75919047D01*
X62435952Y-75871428D01*
X62531190Y-75823809D01*
X62816904Y-75823809D01*
X62912142Y-75871428D01*
X62959761Y-75919047D01*
X63007380Y-76014285D01*
X63007380Y-76204761D01*
X62959761Y-76300000D01*
X63007380Y-75252380D02*
X62959761Y-75347619D01*
X62912142Y-75395238D01*
X62816904Y-75442857D01*
X62531190Y-75442857D01*
X62435952Y-75395238D01*
X62388333Y-75347619D01*
X62340714Y-75252380D01*
X62340714Y-75109523D01*
X62388333Y-75014285D01*
X62435952Y-74966666D01*
X62531190Y-74919047D01*
X62816904Y-74919047D01*
X62912142Y-74966666D01*
X62959761Y-75014285D01*
X63007380Y-75109523D01*
X63007380Y-75252380D01*
X63007380Y-74061904D02*
X62483571Y-74061904D01*
X62388333Y-74109523D01*
X62340714Y-74204761D01*
X62340714Y-74395238D01*
X62388333Y-74490476D01*
X62959761Y-74061904D02*
X63007380Y-74157142D01*
X63007380Y-74395238D01*
X62959761Y-74490476D01*
X62864523Y-74538095D01*
X62769285Y-74538095D01*
X62674047Y-74490476D01*
X62626428Y-74395238D01*
X62626428Y-74157142D01*
X62578809Y-74061904D01*
X63007380Y-73585714D02*
X62340714Y-73585714D01*
X62531190Y-73585714D02*
X62435952Y-73538095D01*
X62388333Y-73490476D01*
X62340714Y-73395238D01*
X62340714Y-73300000D01*
X63007380Y-72538095D02*
X62007380Y-72538095D01*
X62959761Y-72538095D02*
X63007380Y-72633333D01*
X63007380Y-72823809D01*
X62959761Y-72919047D01*
X62912142Y-72966666D01*
X62816904Y-73014285D01*
X62531190Y-73014285D01*
X62435952Y-72966666D01*
X62388333Y-72919047D01*
X62340714Y-72823809D01*
X62340714Y-72633333D01*
X62388333Y-72538095D01*
X63007380Y-71300000D02*
X62007380Y-71300000D01*
X62340714Y-70823809D02*
X63007380Y-70823809D01*
X62435952Y-70823809D02*
X62388333Y-70776190D01*
X62340714Y-70680952D01*
X62340714Y-70538095D01*
X62388333Y-70442857D01*
X62483571Y-70395238D01*
X63007380Y-70395238D01*
X62340714Y-70061904D02*
X62340714Y-69680952D01*
X62007380Y-69919047D02*
X62864523Y-69919047D01*
X62959761Y-69871428D01*
X63007380Y-69776190D01*
X63007380Y-69680952D01*
X62959761Y-68966666D02*
X63007380Y-69061904D01*
X63007380Y-69252380D01*
X62959761Y-69347619D01*
X62864523Y-69395238D01*
X62483571Y-69395238D01*
X62388333Y-69347619D01*
X62340714Y-69252380D01*
X62340714Y-69061904D01*
X62388333Y-68966666D01*
X62483571Y-68919047D01*
X62578809Y-68919047D01*
X62674047Y-69395238D01*
X63007380Y-68490476D02*
X62340714Y-68490476D01*
X62531190Y-68490476D02*
X62435952Y-68442857D01*
X62388333Y-68395238D01*
X62340714Y-68300000D01*
X62340714Y-68204761D01*
X62340714Y-68014285D02*
X62340714Y-67633333D01*
X63007380Y-67871428D02*
X62150238Y-67871428D01*
X62055000Y-67823809D01*
X62007380Y-67728571D01*
X62007380Y-67633333D01*
X63007380Y-66871428D02*
X62483571Y-66871428D01*
X62388333Y-66919047D01*
X62340714Y-67014285D01*
X62340714Y-67204761D01*
X62388333Y-67300000D01*
X62959761Y-66871428D02*
X63007380Y-66966666D01*
X63007380Y-67204761D01*
X62959761Y-67300000D01*
X62864523Y-67347619D01*
X62769285Y-67347619D01*
X62674047Y-67300000D01*
X62626428Y-67204761D01*
X62626428Y-66966666D01*
X62578809Y-66871428D01*
X62959761Y-65966666D02*
X63007380Y-66061904D01*
X63007380Y-66252380D01*
X62959761Y-66347619D01*
X62912142Y-66395238D01*
X62816904Y-66442857D01*
X62531190Y-66442857D01*
X62435952Y-66395238D01*
X62388333Y-66347619D01*
X62340714Y-66252380D01*
X62340714Y-66061904D01*
X62388333Y-65966666D01*
X62959761Y-65157142D02*
X63007380Y-65252380D01*
X63007380Y-65442857D01*
X62959761Y-65538095D01*
X62864523Y-65585714D01*
X62483571Y-65585714D01*
X62388333Y-65538095D01*
X62340714Y-65442857D01*
X62340714Y-65252380D01*
X62388333Y-65157142D01*
X62483571Y-65109523D01*
X62578809Y-65109523D01*
X62674047Y-65585714D01*
X62340714Y-64014285D02*
X63007380Y-63776190D01*
X62340714Y-63538095D01*
X63007380Y-62633333D02*
X63007380Y-63204761D01*
X63007380Y-62919047D02*
X62007380Y-62919047D01*
X62150238Y-63014285D01*
X62245476Y-63109523D01*
X62293095Y-63204761D01*
D11*
X44905714Y-62565714D02*
X44877142Y-62594285D01*
X44848571Y-62651428D01*
X44848571Y-62708571D01*
X44877142Y-62765714D01*
X44905714Y-62794285D01*
X44962857Y-62822857D01*
X45020000Y-62822857D01*
X45077142Y-62794285D01*
X45105714Y-62765714D01*
X45134285Y-62708571D01*
X45134285Y-62651428D01*
X45105714Y-62594285D01*
X45077142Y-62565714D01*
X44848571Y-62565714D02*
X45077142Y-62565714D01*
X45105714Y-62537142D01*
X45105714Y-62508571D01*
X45077142Y-62451428D01*
X45020000Y-62422857D01*
X44877142Y-62422857D01*
X44791428Y-62480000D01*
X44734285Y-62565714D01*
X44705714Y-62680000D01*
X44734285Y-62794285D01*
X44791428Y-62880000D01*
X44877142Y-62937142D01*
X44991428Y-62965714D01*
X45105714Y-62937142D01*
X45191428Y-62880000D01*
X45248571Y-62794285D01*
X45277142Y-62680000D01*
X45248571Y-62565714D01*
X45191428Y-62480000D01*
X44791428Y-61908571D02*
X45277142Y-61908571D01*
X45334285Y-61937142D01*
X45362857Y-61965714D01*
X45391428Y-62022857D01*
X45391428Y-62108571D01*
X45362857Y-62165714D01*
X45162857Y-61908571D02*
X45191428Y-61965714D01*
X45191428Y-62080000D01*
X45162857Y-62137142D01*
X45134285Y-62165714D01*
X45077142Y-62194285D01*
X44905714Y-62194285D01*
X44848571Y-62165714D01*
X44820000Y-62137142D01*
X44791428Y-62080000D01*
X44791428Y-61965714D01*
X44820000Y-61908571D01*
X45191428Y-61622857D02*
X44791428Y-61622857D01*
X44905714Y-61622857D02*
X44848571Y-61594285D01*
X44820000Y-61565714D01*
X44791428Y-61508571D01*
X44791428Y-61451428D01*
X45191428Y-60994285D02*
X44877142Y-60994285D01*
X44820000Y-61022857D01*
X44791428Y-61080000D01*
X44791428Y-61194285D01*
X44820000Y-61251428D01*
X45162857Y-60994285D02*
X45191428Y-61051428D01*
X45191428Y-61194285D01*
X45162857Y-61251428D01*
X45105714Y-61280000D01*
X45048571Y-61280000D01*
X44991428Y-61251428D01*
X44962857Y-61194285D01*
X44962857Y-61051428D01*
X44934285Y-60994285D01*
X44791428Y-60708571D02*
X45191428Y-60708571D01*
X44848571Y-60708571D02*
X44820000Y-60680000D01*
X44791428Y-60622857D01*
X44791428Y-60537142D01*
X44820000Y-60480000D01*
X44877142Y-60451428D01*
X45191428Y-60451428D01*
X45191428Y-59908571D02*
X44591428Y-59908571D01*
X45162857Y-59908571D02*
X45191428Y-59965714D01*
X45191428Y-60080000D01*
X45162857Y-60137142D01*
X45134285Y-60165714D01*
X45077142Y-60194285D01*
X44905714Y-60194285D01*
X44848571Y-60165714D01*
X44820000Y-60137142D01*
X44791428Y-60080000D01*
X44791428Y-59965714D01*
X44820000Y-59908571D01*
X45191428Y-59537142D02*
X45162857Y-59594285D01*
X45134285Y-59622857D01*
X45077142Y-59651428D01*
X44905714Y-59651428D01*
X44848571Y-59622857D01*
X44820000Y-59594285D01*
X44791428Y-59537142D01*
X44791428Y-59451428D01*
X44820000Y-59394285D01*
X44848571Y-59365714D01*
X44905714Y-59337142D01*
X45077142Y-59337142D01*
X45134285Y-59365714D01*
X45162857Y-59394285D01*
X45191428Y-59451428D01*
X45191428Y-59537142D01*
X45191428Y-58994285D02*
X45162857Y-59051428D01*
X45105714Y-59080000D01*
X44591428Y-59080000D01*
X45191428Y-58508571D02*
X44591428Y-58508571D01*
X45162857Y-58508571D02*
X45191428Y-58565714D01*
X45191428Y-58680000D01*
X45162857Y-58737142D01*
X45134285Y-58765714D01*
X45077142Y-58794285D01*
X44905714Y-58794285D01*
X44848571Y-58765714D01*
X44820000Y-58737142D01*
X44791428Y-58680000D01*
X44791428Y-58565714D01*
X44820000Y-58508571D01*
X45191428Y-58222857D02*
X44791428Y-58222857D01*
X44591428Y-58222857D02*
X44620000Y-58251428D01*
X44648571Y-58222857D01*
X44620000Y-58194285D01*
X44591428Y-58222857D01*
X44648571Y-58222857D01*
X45191428Y-57680000D02*
X44877142Y-57680000D01*
X44820000Y-57708571D01*
X44791428Y-57765714D01*
X44791428Y-57880000D01*
X44820000Y-57937142D01*
X45162857Y-57680000D02*
X45191428Y-57737142D01*
X45191428Y-57880000D01*
X45162857Y-57937142D01*
X45105714Y-57965714D01*
X45048571Y-57965714D01*
X44991428Y-57937142D01*
X44962857Y-57880000D01*
X44962857Y-57737142D01*
X44934285Y-57680000D01*
X44791428Y-57394285D02*
X45191428Y-57394285D01*
X44848571Y-57394285D02*
X44820000Y-57365714D01*
X44791428Y-57308571D01*
X44791428Y-57222857D01*
X44820000Y-57165714D01*
X44877142Y-57137142D01*
X45191428Y-57137142D01*
X44591428Y-56280000D02*
X44591428Y-56222857D01*
X44620000Y-56165714D01*
X44648571Y-56137142D01*
X44705714Y-56108571D01*
X44820000Y-56080000D01*
X44962857Y-56080000D01*
X45077142Y-56108571D01*
X45134285Y-56137142D01*
X45162857Y-56165714D01*
X45191428Y-56222857D01*
X45191428Y-56280000D01*
X45162857Y-56337142D01*
X45134285Y-56365714D01*
X45077142Y-56394285D01*
X44962857Y-56422857D01*
X44820000Y-56422857D01*
X44705714Y-56394285D01*
X44648571Y-56365714D01*
X44620000Y-56337142D01*
X44591428Y-56280000D01*
X45191428Y-55508571D02*
X45191428Y-55851428D01*
X45191428Y-55680000D02*
X44591428Y-55680000D01*
X44677142Y-55737142D01*
X44734285Y-55794285D01*
X44762857Y-55851428D01*
X44562857Y-54822857D02*
X45334285Y-55337142D01*
X44648571Y-54651428D02*
X44620000Y-54622857D01*
X44591428Y-54565714D01*
X44591428Y-54422857D01*
X44620000Y-54365714D01*
X44648571Y-54337142D01*
X44705714Y-54308571D01*
X44762857Y-54308571D01*
X44848571Y-54337142D01*
X45191428Y-54680000D01*
X45191428Y-54308571D01*
X44591428Y-53937142D02*
X44591428Y-53880000D01*
X44620000Y-53822857D01*
X44648571Y-53794285D01*
X44705714Y-53765714D01*
X44820000Y-53737142D01*
X44962857Y-53737142D01*
X45077142Y-53765714D01*
X45134285Y-53794285D01*
X45162857Y-53822857D01*
X45191428Y-53880000D01*
X45191428Y-53937142D01*
X45162857Y-53994285D01*
X45134285Y-54022857D01*
X45077142Y-54051428D01*
X44962857Y-54080000D01*
X44820000Y-54080000D01*
X44705714Y-54051428D01*
X44648571Y-54022857D01*
X44620000Y-53994285D01*
X44591428Y-53937142D01*
X44648571Y-53508571D02*
X44620000Y-53480000D01*
X44591428Y-53422857D01*
X44591428Y-53280000D01*
X44620000Y-53222857D01*
X44648571Y-53194285D01*
X44705714Y-53165714D01*
X44762857Y-53165714D01*
X44848571Y-53194285D01*
X45191428Y-53537142D01*
X45191428Y-53165714D01*
X44591428Y-52965714D02*
X44591428Y-52594285D01*
X44820000Y-52794285D01*
X44820000Y-52708571D01*
X44848571Y-52651428D01*
X44877142Y-52622857D01*
X44934285Y-52594285D01*
X45077142Y-52594285D01*
X45134285Y-52622857D01*
X45162857Y-52651428D01*
X45191428Y-52708571D01*
X45191428Y-52880000D01*
X45162857Y-52937142D01*
X45134285Y-52965714D01*
D10*
%TO.C,R809*%
X63021904Y-91285238D02*
X62640952Y-91551904D01*
X63021904Y-91742380D02*
X62221904Y-91742380D01*
X62221904Y-91437619D01*
X62260000Y-91361428D01*
X62298095Y-91323333D01*
X62374285Y-91285238D01*
X62488571Y-91285238D01*
X62564761Y-91323333D01*
X62602857Y-91361428D01*
X62640952Y-91437619D01*
X62640952Y-91742380D01*
X62564761Y-90828095D02*
X62526666Y-90904285D01*
X62488571Y-90942380D01*
X62412380Y-90980476D01*
X62374285Y-90980476D01*
X62298095Y-90942380D01*
X62260000Y-90904285D01*
X62221904Y-90828095D01*
X62221904Y-90675714D01*
X62260000Y-90599523D01*
X62298095Y-90561428D01*
X62374285Y-90523333D01*
X62412380Y-90523333D01*
X62488571Y-90561428D01*
X62526666Y-90599523D01*
X62564761Y-90675714D01*
X62564761Y-90828095D01*
X62602857Y-90904285D01*
X62640952Y-90942380D01*
X62717142Y-90980476D01*
X62869523Y-90980476D01*
X62945714Y-90942380D01*
X62983809Y-90904285D01*
X63021904Y-90828095D01*
X63021904Y-90675714D01*
X62983809Y-90599523D01*
X62945714Y-90561428D01*
X62869523Y-90523333D01*
X62717142Y-90523333D01*
X62640952Y-90561428D01*
X62602857Y-90599523D01*
X62564761Y-90675714D01*
X62221904Y-90028095D02*
X62221904Y-89951904D01*
X62260000Y-89875714D01*
X62298095Y-89837619D01*
X62374285Y-89799523D01*
X62526666Y-89761428D01*
X62717142Y-89761428D01*
X62869523Y-89799523D01*
X62945714Y-89837619D01*
X62983809Y-89875714D01*
X63021904Y-89951904D01*
X63021904Y-90028095D01*
X62983809Y-90104285D01*
X62945714Y-90142380D01*
X62869523Y-90180476D01*
X62717142Y-90218571D01*
X62526666Y-90218571D01*
X62374285Y-90180476D01*
X62298095Y-90142380D01*
X62260000Y-90104285D01*
X62221904Y-90028095D01*
X63021904Y-89380476D02*
X63021904Y-89228095D01*
X62983809Y-89151904D01*
X62945714Y-89113809D01*
X62831428Y-89037619D01*
X62679047Y-88999523D01*
X62374285Y-88999523D01*
X62298095Y-89037619D01*
X62260000Y-89075714D01*
X62221904Y-89151904D01*
X62221904Y-89304285D01*
X62260000Y-89380476D01*
X62298095Y-89418571D01*
X62374285Y-89456666D01*
X62564761Y-89456666D01*
X62640952Y-89418571D01*
X62679047Y-89380476D01*
X62717142Y-89304285D01*
X62717142Y-89151904D01*
X62679047Y-89075714D01*
X62640952Y-89037619D01*
X62564761Y-88999523D01*
%TO.C,D810*%
X56004285Y-97661428D02*
X56004285Y-97061428D01*
X56232857Y-97061428D01*
X56290000Y-97090000D01*
X56318571Y-97118571D01*
X56347142Y-97175714D01*
X56347142Y-97261428D01*
X56318571Y-97318571D01*
X56290000Y-97347142D01*
X56232857Y-97375714D01*
X56004285Y-97375714D01*
X56718571Y-97061428D02*
X56832857Y-97061428D01*
X56890000Y-97090000D01*
X56947142Y-97147142D01*
X56975714Y-97261428D01*
X56975714Y-97461428D01*
X56947142Y-97575714D01*
X56890000Y-97632857D01*
X56832857Y-97661428D01*
X56718571Y-97661428D01*
X56661428Y-97632857D01*
X56604285Y-97575714D01*
X56575714Y-97461428D01*
X56575714Y-97261428D01*
X56604285Y-97147142D01*
X56661428Y-97090000D01*
X56718571Y-97061428D01*
X57175714Y-97061428D02*
X57318571Y-97661428D01*
X57432857Y-97232857D01*
X57547142Y-97661428D01*
X57690000Y-97061428D01*
X57918571Y-97347142D02*
X58118571Y-97347142D01*
X58204285Y-97661428D02*
X57918571Y-97661428D01*
X57918571Y-97061428D01*
X58204285Y-97061428D01*
X58804285Y-97661428D02*
X58604285Y-97375714D01*
X58461428Y-97661428D02*
X58461428Y-97061428D01*
X58690000Y-97061428D01*
X58747142Y-97090000D01*
X58775714Y-97118571D01*
X58804285Y-97175714D01*
X58804285Y-97261428D01*
X58775714Y-97318571D01*
X58747142Y-97347142D01*
X58690000Y-97375714D01*
X58461428Y-97375714D01*
%TO.C,Y800*%
X50107619Y-59711904D02*
X49650476Y-59711904D01*
X49879047Y-59711904D02*
X49879047Y-58911904D01*
X49802857Y-59026190D01*
X49726666Y-59102380D01*
X49650476Y-59140476D01*
X50793333Y-58911904D02*
X50640952Y-58911904D01*
X50564761Y-58950000D01*
X50526666Y-58988095D01*
X50450476Y-59102380D01*
X50412380Y-59254761D01*
X50412380Y-59559523D01*
X50450476Y-59635714D01*
X50488571Y-59673809D01*
X50564761Y-59711904D01*
X50717142Y-59711904D01*
X50793333Y-59673809D01*
X50831428Y-59635714D01*
X50869523Y-59559523D01*
X50869523Y-59369047D01*
X50831428Y-59292857D01*
X50793333Y-59254761D01*
X50717142Y-59216666D01*
X50564761Y-59216666D01*
X50488571Y-59254761D01*
X50450476Y-59292857D01*
X50412380Y-59369047D01*
X51212380Y-59711904D02*
X51212380Y-58911904D01*
X51479047Y-59483333D01*
X51745714Y-58911904D01*
X51745714Y-59711904D01*
X52126666Y-59711904D02*
X52126666Y-58911904D01*
X52126666Y-59292857D02*
X52583809Y-59292857D01*
X52583809Y-59711904D02*
X52583809Y-58911904D01*
X52888571Y-59178571D02*
X53307619Y-59178571D01*
X52888571Y-59711904D01*
X53307619Y-59711904D01*
%TO.C,R808*%
X55404761Y-46111904D02*
X55138095Y-45730952D01*
X54947619Y-46111904D02*
X54947619Y-45311904D01*
X55252380Y-45311904D01*
X55328571Y-45350000D01*
X55366666Y-45388095D01*
X55404761Y-45464285D01*
X55404761Y-45578571D01*
X55366666Y-45654761D01*
X55328571Y-45692857D01*
X55252380Y-45730952D01*
X54947619Y-45730952D01*
X55861904Y-45654761D02*
X55785714Y-45616666D01*
X55747619Y-45578571D01*
X55709523Y-45502380D01*
X55709523Y-45464285D01*
X55747619Y-45388095D01*
X55785714Y-45350000D01*
X55861904Y-45311904D01*
X56014285Y-45311904D01*
X56090476Y-45350000D01*
X56128571Y-45388095D01*
X56166666Y-45464285D01*
X56166666Y-45502380D01*
X56128571Y-45578571D01*
X56090476Y-45616666D01*
X56014285Y-45654761D01*
X55861904Y-45654761D01*
X55785714Y-45692857D01*
X55747619Y-45730952D01*
X55709523Y-45807142D01*
X55709523Y-45959523D01*
X55747619Y-46035714D01*
X55785714Y-46073809D01*
X55861904Y-46111904D01*
X56014285Y-46111904D01*
X56090476Y-46073809D01*
X56128571Y-46035714D01*
X56166666Y-45959523D01*
X56166666Y-45807142D01*
X56128571Y-45730952D01*
X56090476Y-45692857D01*
X56014285Y-45654761D01*
X56661904Y-45311904D02*
X56738095Y-45311904D01*
X56814285Y-45350000D01*
X56852380Y-45388095D01*
X56890476Y-45464285D01*
X56928571Y-45616666D01*
X56928571Y-45807142D01*
X56890476Y-45959523D01*
X56852380Y-46035714D01*
X56814285Y-46073809D01*
X56738095Y-46111904D01*
X56661904Y-46111904D01*
X56585714Y-46073809D01*
X56547619Y-46035714D01*
X56509523Y-45959523D01*
X56471428Y-45807142D01*
X56471428Y-45616666D01*
X56509523Y-45464285D01*
X56547619Y-45388095D01*
X56585714Y-45350000D01*
X56661904Y-45311904D01*
X57385714Y-45654761D02*
X57309523Y-45616666D01*
X57271428Y-45578571D01*
X57233333Y-45502380D01*
X57233333Y-45464285D01*
X57271428Y-45388095D01*
X57309523Y-45350000D01*
X57385714Y-45311904D01*
X57538095Y-45311904D01*
X57614285Y-45350000D01*
X57652380Y-45388095D01*
X57690476Y-45464285D01*
X57690476Y-45502380D01*
X57652380Y-45578571D01*
X57614285Y-45616666D01*
X57538095Y-45654761D01*
X57385714Y-45654761D01*
X57309523Y-45692857D01*
X57271428Y-45730952D01*
X57233333Y-45807142D01*
X57233333Y-45959523D01*
X57271428Y-46035714D01*
X57309523Y-46073809D01*
X57385714Y-46111904D01*
X57538095Y-46111904D01*
X57614285Y-46073809D01*
X57652380Y-46035714D01*
X57690476Y-45959523D01*
X57690476Y-45807142D01*
X57652380Y-45730952D01*
X57614285Y-45692857D01*
X57538095Y-45654761D01*
%TO.C,R804*%
X55354761Y-49461904D02*
X55088095Y-49080952D01*
X54897619Y-49461904D02*
X54897619Y-48661904D01*
X55202380Y-48661904D01*
X55278571Y-48700000D01*
X55316666Y-48738095D01*
X55354761Y-48814285D01*
X55354761Y-48928571D01*
X55316666Y-49004761D01*
X55278571Y-49042857D01*
X55202380Y-49080952D01*
X54897619Y-49080952D01*
X55811904Y-49004761D02*
X55735714Y-48966666D01*
X55697619Y-48928571D01*
X55659523Y-48852380D01*
X55659523Y-48814285D01*
X55697619Y-48738095D01*
X55735714Y-48700000D01*
X55811904Y-48661904D01*
X55964285Y-48661904D01*
X56040476Y-48700000D01*
X56078571Y-48738095D01*
X56116666Y-48814285D01*
X56116666Y-48852380D01*
X56078571Y-48928571D01*
X56040476Y-48966666D01*
X55964285Y-49004761D01*
X55811904Y-49004761D01*
X55735714Y-49042857D01*
X55697619Y-49080952D01*
X55659523Y-49157142D01*
X55659523Y-49309523D01*
X55697619Y-49385714D01*
X55735714Y-49423809D01*
X55811904Y-49461904D01*
X55964285Y-49461904D01*
X56040476Y-49423809D01*
X56078571Y-49385714D01*
X56116666Y-49309523D01*
X56116666Y-49157142D01*
X56078571Y-49080952D01*
X56040476Y-49042857D01*
X55964285Y-49004761D01*
X56611904Y-48661904D02*
X56688095Y-48661904D01*
X56764285Y-48700000D01*
X56802380Y-48738095D01*
X56840476Y-48814285D01*
X56878571Y-48966666D01*
X56878571Y-49157142D01*
X56840476Y-49309523D01*
X56802380Y-49385714D01*
X56764285Y-49423809D01*
X56688095Y-49461904D01*
X56611904Y-49461904D01*
X56535714Y-49423809D01*
X56497619Y-49385714D01*
X56459523Y-49309523D01*
X56421428Y-49157142D01*
X56421428Y-48966666D01*
X56459523Y-48814285D01*
X56497619Y-48738095D01*
X56535714Y-48700000D01*
X56611904Y-48661904D01*
X57564285Y-48928571D02*
X57564285Y-49461904D01*
X57373809Y-48623809D02*
X57183333Y-49195238D01*
X57678571Y-49195238D01*
%TO.C,Q800*%
X46552380Y-51542857D02*
X46666666Y-51580952D01*
X46704761Y-51619047D01*
X46742857Y-51695238D01*
X46742857Y-51809523D01*
X46704761Y-51885714D01*
X46666666Y-51923809D01*
X46590476Y-51961904D01*
X46285714Y-51961904D01*
X46285714Y-51161904D01*
X46552380Y-51161904D01*
X46628571Y-51200000D01*
X46666666Y-51238095D01*
X46704761Y-51314285D01*
X46704761Y-51390476D01*
X46666666Y-51466666D01*
X46628571Y-51504761D01*
X46552380Y-51542857D01*
X46285714Y-51542857D01*
X47542857Y-51885714D02*
X47504761Y-51923809D01*
X47390476Y-51961904D01*
X47314285Y-51961904D01*
X47200000Y-51923809D01*
X47123809Y-51847619D01*
X47085714Y-51771428D01*
X47047619Y-51619047D01*
X47047619Y-51504761D01*
X47085714Y-51352380D01*
X47123809Y-51276190D01*
X47200000Y-51200000D01*
X47314285Y-51161904D01*
X47390476Y-51161904D01*
X47504761Y-51200000D01*
X47542857Y-51238095D01*
X47771428Y-51161904D02*
X48038095Y-51961904D01*
X48304761Y-51161904D01*
X48914285Y-51428571D02*
X48914285Y-51961904D01*
X48723809Y-51123809D02*
X48533333Y-51695238D01*
X49028571Y-51695238D01*
X49371428Y-51961904D02*
X49523809Y-51961904D01*
X49600000Y-51923809D01*
X49638095Y-51885714D01*
X49714285Y-51771428D01*
X49752380Y-51619047D01*
X49752380Y-51314285D01*
X49714285Y-51238095D01*
X49676190Y-51200000D01*
X49600000Y-51161904D01*
X49447619Y-51161904D01*
X49371428Y-51200000D01*
X49333333Y-51238095D01*
X49295238Y-51314285D01*
X49295238Y-51504761D01*
X49333333Y-51580952D01*
X49371428Y-51619047D01*
X49447619Y-51657142D01*
X49600000Y-51657142D01*
X49676190Y-51619047D01*
X49714285Y-51580952D01*
X49752380Y-51504761D01*
%TO.C,J804*%
X45209523Y-45261904D02*
X45209523Y-44461904D01*
X45514285Y-44461904D01*
X45590476Y-44500000D01*
X45628571Y-44538095D01*
X45666666Y-44614285D01*
X45666666Y-44728571D01*
X45628571Y-44804761D01*
X45590476Y-44842857D01*
X45514285Y-44880952D01*
X45209523Y-44880952D01*
X45971428Y-45223809D02*
X46085714Y-45261904D01*
X46276190Y-45261904D01*
X46352380Y-45223809D01*
X46390476Y-45185714D01*
X46428571Y-45109523D01*
X46428571Y-45033333D01*
X46390476Y-44957142D01*
X46352380Y-44919047D01*
X46276190Y-44880952D01*
X46123809Y-44842857D01*
X46047619Y-44804761D01*
X46009523Y-44766666D01*
X45971428Y-44690476D01*
X45971428Y-44614285D01*
X46009523Y-44538095D01*
X46047619Y-44500000D01*
X46123809Y-44461904D01*
X46314285Y-44461904D01*
X46428571Y-44500000D01*
X47342857Y-44423809D02*
X46657142Y-45452380D01*
X47571428Y-44538095D02*
X47609523Y-44500000D01*
X47685714Y-44461904D01*
X47876190Y-44461904D01*
X47952380Y-44500000D01*
X47990476Y-44538095D01*
X48028571Y-44614285D01*
X48028571Y-44690476D01*
X47990476Y-44804761D01*
X47533333Y-45261904D01*
X48028571Y-45261904D01*
%TO.C,IC803*%
X52957142Y-81611904D02*
X52957142Y-80811904D01*
X53795238Y-81535714D02*
X53757142Y-81573809D01*
X53642857Y-81611904D01*
X53566666Y-81611904D01*
X53452380Y-81573809D01*
X53376190Y-81497619D01*
X53338095Y-81421428D01*
X53300000Y-81269047D01*
X53300000Y-81154761D01*
X53338095Y-81002380D01*
X53376190Y-80926190D01*
X53452380Y-80850000D01*
X53566666Y-80811904D01*
X53642857Y-80811904D01*
X53757142Y-80850000D01*
X53795238Y-80888095D01*
X54252380Y-81154761D02*
X54176190Y-81116666D01*
X54138095Y-81078571D01*
X54100000Y-81002380D01*
X54100000Y-80964285D01*
X54138095Y-80888095D01*
X54176190Y-80850000D01*
X54252380Y-80811904D01*
X54404761Y-80811904D01*
X54480952Y-80850000D01*
X54519047Y-80888095D01*
X54557142Y-80964285D01*
X54557142Y-81002380D01*
X54519047Y-81078571D01*
X54480952Y-81116666D01*
X54404761Y-81154761D01*
X54252380Y-81154761D01*
X54176190Y-81192857D01*
X54138095Y-81230952D01*
X54100000Y-81307142D01*
X54100000Y-81459523D01*
X54138095Y-81535714D01*
X54176190Y-81573809D01*
X54252380Y-81611904D01*
X54404761Y-81611904D01*
X54480952Y-81573809D01*
X54519047Y-81535714D01*
X54557142Y-81459523D01*
X54557142Y-81307142D01*
X54519047Y-81230952D01*
X54480952Y-81192857D01*
X54404761Y-81154761D01*
X55052380Y-80811904D02*
X55128571Y-80811904D01*
X55204761Y-80850000D01*
X55242857Y-80888095D01*
X55280952Y-80964285D01*
X55319047Y-81116666D01*
X55319047Y-81307142D01*
X55280952Y-81459523D01*
X55242857Y-81535714D01*
X55204761Y-81573809D01*
X55128571Y-81611904D01*
X55052380Y-81611904D01*
X54976190Y-81573809D01*
X54938095Y-81535714D01*
X54900000Y-81459523D01*
X54861904Y-81307142D01*
X54861904Y-81116666D01*
X54900000Y-80964285D01*
X54938095Y-80888095D01*
X54976190Y-80850000D01*
X55052380Y-80811904D01*
X55585714Y-80811904D02*
X56080952Y-80811904D01*
X55814285Y-81116666D01*
X55928571Y-81116666D01*
X56004761Y-81154761D01*
X56042857Y-81192857D01*
X56080952Y-81269047D01*
X56080952Y-81459523D01*
X56042857Y-81535714D01*
X56004761Y-81573809D01*
X55928571Y-81611904D01*
X55700000Y-81611904D01*
X55623809Y-81573809D01*
X55585714Y-81535714D01*
X51338095Y-96511904D02*
X51338095Y-95711904D01*
X51604761Y-96283333D01*
X51871428Y-95711904D01*
X51871428Y-96511904D01*
X52138095Y-95711904D02*
X52595238Y-95711904D01*
X52366666Y-96511904D02*
X52366666Y-95711904D01*
X52976190Y-96054761D02*
X52900000Y-96016666D01*
X52861904Y-95978571D01*
X52823809Y-95902380D01*
X52823809Y-95864285D01*
X52861904Y-95788095D01*
X52900000Y-95750000D01*
X52976190Y-95711904D01*
X53128571Y-95711904D01*
X53204761Y-95750000D01*
X53242857Y-95788095D01*
X53280952Y-95864285D01*
X53280952Y-95902380D01*
X53242857Y-95978571D01*
X53204761Y-96016666D01*
X53128571Y-96054761D01*
X52976190Y-96054761D01*
X52900000Y-96092857D01*
X52861904Y-96130952D01*
X52823809Y-96207142D01*
X52823809Y-96359523D01*
X52861904Y-96435714D01*
X52900000Y-96473809D01*
X52976190Y-96511904D01*
X53128571Y-96511904D01*
X53204761Y-96473809D01*
X53242857Y-96435714D01*
X53280952Y-96359523D01*
X53280952Y-96207142D01*
X53242857Y-96130952D01*
X53204761Y-96092857D01*
X53128571Y-96054761D01*
X53738095Y-96054761D02*
X53661904Y-96016666D01*
X53623809Y-95978571D01*
X53585714Y-95902380D01*
X53585714Y-95864285D01*
X53623809Y-95788095D01*
X53661904Y-95750000D01*
X53738095Y-95711904D01*
X53890476Y-95711904D01*
X53966666Y-95750000D01*
X54004761Y-95788095D01*
X54042857Y-95864285D01*
X54042857Y-95902380D01*
X54004761Y-95978571D01*
X53966666Y-96016666D01*
X53890476Y-96054761D01*
X53738095Y-96054761D01*
X53661904Y-96092857D01*
X53623809Y-96130952D01*
X53585714Y-96207142D01*
X53585714Y-96359523D01*
X53623809Y-96435714D01*
X53661904Y-96473809D01*
X53738095Y-96511904D01*
X53890476Y-96511904D01*
X53966666Y-96473809D01*
X54004761Y-96435714D01*
X54042857Y-96359523D01*
X54042857Y-96207142D01*
X54004761Y-96130952D01*
X53966666Y-96092857D01*
X53890476Y-96054761D01*
X54804761Y-96511904D02*
X54347619Y-96511904D01*
X54576190Y-96511904D02*
X54576190Y-95711904D01*
X54500000Y-95826190D01*
X54423809Y-95902380D01*
X54347619Y-95940476D01*
X55490476Y-95711904D02*
X55338095Y-95711904D01*
X55261904Y-95750000D01*
X55223809Y-95788095D01*
X55147619Y-95902380D01*
X55109523Y-96054761D01*
X55109523Y-96359523D01*
X55147619Y-96435714D01*
X55185714Y-96473809D01*
X55261904Y-96511904D01*
X55414285Y-96511904D01*
X55490476Y-96473809D01*
X55528571Y-96435714D01*
X55566666Y-96359523D01*
X55566666Y-96169047D01*
X55528571Y-96092857D01*
X55490476Y-96054761D01*
X55414285Y-96016666D01*
X55261904Y-96016666D01*
X55185714Y-96054761D01*
X55147619Y-96092857D01*
X55109523Y-96169047D01*
X55871428Y-96283333D02*
X56252380Y-96283333D01*
X55795238Y-96511904D02*
X56061904Y-95711904D01*
X56328571Y-96511904D01*
X56861904Y-96092857D02*
X56595238Y-96092857D01*
X56595238Y-96511904D02*
X56595238Y-95711904D01*
X56976190Y-95711904D01*
X57700000Y-96511904D02*
X57242857Y-96511904D01*
X57471428Y-96511904D02*
X57471428Y-95711904D01*
X57395238Y-95826190D01*
X57319047Y-95902380D01*
X57242857Y-95940476D01*
X52957142Y-89061904D02*
X52957142Y-88261904D01*
X53795238Y-88985714D02*
X53757142Y-89023809D01*
X53642857Y-89061904D01*
X53566666Y-89061904D01*
X53452380Y-89023809D01*
X53376190Y-88947619D01*
X53338095Y-88871428D01*
X53300000Y-88719047D01*
X53300000Y-88604761D01*
X53338095Y-88452380D01*
X53376190Y-88376190D01*
X53452380Y-88300000D01*
X53566666Y-88261904D01*
X53642857Y-88261904D01*
X53757142Y-88300000D01*
X53795238Y-88338095D01*
X54252380Y-88604761D02*
X54176190Y-88566666D01*
X54138095Y-88528571D01*
X54100000Y-88452380D01*
X54100000Y-88414285D01*
X54138095Y-88338095D01*
X54176190Y-88300000D01*
X54252380Y-88261904D01*
X54404761Y-88261904D01*
X54480952Y-88300000D01*
X54519047Y-88338095D01*
X54557142Y-88414285D01*
X54557142Y-88452380D01*
X54519047Y-88528571D01*
X54480952Y-88566666D01*
X54404761Y-88604761D01*
X54252380Y-88604761D01*
X54176190Y-88642857D01*
X54138095Y-88680952D01*
X54100000Y-88757142D01*
X54100000Y-88909523D01*
X54138095Y-88985714D01*
X54176190Y-89023809D01*
X54252380Y-89061904D01*
X54404761Y-89061904D01*
X54480952Y-89023809D01*
X54519047Y-88985714D01*
X54557142Y-88909523D01*
X54557142Y-88757142D01*
X54519047Y-88680952D01*
X54480952Y-88642857D01*
X54404761Y-88604761D01*
X55052380Y-88261904D02*
X55128571Y-88261904D01*
X55204761Y-88300000D01*
X55242857Y-88338095D01*
X55280952Y-88414285D01*
X55319047Y-88566666D01*
X55319047Y-88757142D01*
X55280952Y-88909523D01*
X55242857Y-88985714D01*
X55204761Y-89023809D01*
X55128571Y-89061904D01*
X55052380Y-89061904D01*
X54976190Y-89023809D01*
X54938095Y-88985714D01*
X54900000Y-88909523D01*
X54861904Y-88757142D01*
X54861904Y-88566666D01*
X54900000Y-88414285D01*
X54938095Y-88338095D01*
X54976190Y-88300000D01*
X55052380Y-88261904D01*
X55585714Y-88261904D02*
X56080952Y-88261904D01*
X55814285Y-88566666D01*
X55928571Y-88566666D01*
X56004761Y-88604761D01*
X56042857Y-88642857D01*
X56080952Y-88719047D01*
X56080952Y-88909523D01*
X56042857Y-88985714D01*
X56004761Y-89023809D01*
X55928571Y-89061904D01*
X55700000Y-89061904D01*
X55623809Y-89023809D01*
X55585714Y-88985714D01*
%TO.C,IC800*%
X51787142Y-65981904D02*
X51787142Y-65181904D01*
X52625238Y-65905714D02*
X52587142Y-65943809D01*
X52472857Y-65981904D01*
X52396666Y-65981904D01*
X52282380Y-65943809D01*
X52206190Y-65867619D01*
X52168095Y-65791428D01*
X52130000Y-65639047D01*
X52130000Y-65524761D01*
X52168095Y-65372380D01*
X52206190Y-65296190D01*
X52282380Y-65220000D01*
X52396666Y-65181904D01*
X52472857Y-65181904D01*
X52587142Y-65220000D01*
X52625238Y-65258095D01*
X53082380Y-65524761D02*
X53006190Y-65486666D01*
X52968095Y-65448571D01*
X52930000Y-65372380D01*
X52930000Y-65334285D01*
X52968095Y-65258095D01*
X53006190Y-65220000D01*
X53082380Y-65181904D01*
X53234761Y-65181904D01*
X53310952Y-65220000D01*
X53349047Y-65258095D01*
X53387142Y-65334285D01*
X53387142Y-65372380D01*
X53349047Y-65448571D01*
X53310952Y-65486666D01*
X53234761Y-65524761D01*
X53082380Y-65524761D01*
X53006190Y-65562857D01*
X52968095Y-65600952D01*
X52930000Y-65677142D01*
X52930000Y-65829523D01*
X52968095Y-65905714D01*
X53006190Y-65943809D01*
X53082380Y-65981904D01*
X53234761Y-65981904D01*
X53310952Y-65943809D01*
X53349047Y-65905714D01*
X53387142Y-65829523D01*
X53387142Y-65677142D01*
X53349047Y-65600952D01*
X53310952Y-65562857D01*
X53234761Y-65524761D01*
X53882380Y-65181904D02*
X53958571Y-65181904D01*
X54034761Y-65220000D01*
X54072857Y-65258095D01*
X54110952Y-65334285D01*
X54149047Y-65486666D01*
X54149047Y-65677142D01*
X54110952Y-65829523D01*
X54072857Y-65905714D01*
X54034761Y-65943809D01*
X53958571Y-65981904D01*
X53882380Y-65981904D01*
X53806190Y-65943809D01*
X53768095Y-65905714D01*
X53730000Y-65829523D01*
X53691904Y-65677142D01*
X53691904Y-65486666D01*
X53730000Y-65334285D01*
X53768095Y-65258095D01*
X53806190Y-65220000D01*
X53882380Y-65181904D01*
X54644285Y-65181904D02*
X54720476Y-65181904D01*
X54796666Y-65220000D01*
X54834761Y-65258095D01*
X54872857Y-65334285D01*
X54910952Y-65486666D01*
X54910952Y-65677142D01*
X54872857Y-65829523D01*
X54834761Y-65905714D01*
X54796666Y-65943809D01*
X54720476Y-65981904D01*
X54644285Y-65981904D01*
X54568095Y-65943809D01*
X54530000Y-65905714D01*
X54491904Y-65829523D01*
X54453809Y-65677142D01*
X54453809Y-65486666D01*
X54491904Y-65334285D01*
X54530000Y-65258095D01*
X54568095Y-65220000D01*
X54644285Y-65181904D01*
X48823809Y-77683333D02*
X49204761Y-77683333D01*
X48747619Y-77911904D02*
X49014285Y-77111904D01*
X49280952Y-77911904D01*
X49433333Y-77111904D02*
X49890476Y-77111904D01*
X49661904Y-77911904D02*
X49661904Y-77111904D01*
X50157142Y-77911904D02*
X50157142Y-77378571D01*
X50157142Y-77454761D02*
X50195238Y-77416666D01*
X50271428Y-77378571D01*
X50385714Y-77378571D01*
X50461904Y-77416666D01*
X50499999Y-77492857D01*
X50499999Y-77911904D01*
X50499999Y-77492857D02*
X50538095Y-77416666D01*
X50614285Y-77378571D01*
X50728571Y-77378571D01*
X50804761Y-77416666D01*
X50842857Y-77492857D01*
X50842857Y-77911904D01*
X51528571Y-77873809D02*
X51452380Y-77911904D01*
X51299999Y-77911904D01*
X51223809Y-77873809D01*
X51185714Y-77797619D01*
X51185714Y-77492857D01*
X51223809Y-77416666D01*
X51299999Y-77378571D01*
X51452380Y-77378571D01*
X51528571Y-77416666D01*
X51566666Y-77492857D01*
X51566666Y-77569047D01*
X51185714Y-77645238D01*
X52252380Y-77378571D02*
X52252380Y-78026190D01*
X52214285Y-78102380D01*
X52176190Y-78140476D01*
X52099999Y-78178571D01*
X51985714Y-78178571D01*
X51909523Y-78140476D01*
X52252380Y-77873809D02*
X52176190Y-77911904D01*
X52023809Y-77911904D01*
X51947619Y-77873809D01*
X51909523Y-77835714D01*
X51871428Y-77759523D01*
X51871428Y-77530952D01*
X51909523Y-77454761D01*
X51947619Y-77416666D01*
X52023809Y-77378571D01*
X52176190Y-77378571D01*
X52252380Y-77416666D01*
X52976190Y-77911904D02*
X52976190Y-77492857D01*
X52938095Y-77416666D01*
X52861904Y-77378571D01*
X52709523Y-77378571D01*
X52633333Y-77416666D01*
X52976190Y-77873809D02*
X52899999Y-77911904D01*
X52709523Y-77911904D01*
X52633333Y-77873809D01*
X52595238Y-77797619D01*
X52595238Y-77721428D01*
X52633333Y-77645238D01*
X52709523Y-77607142D01*
X52899999Y-77607142D01*
X52976190Y-77569047D01*
X53280952Y-77111904D02*
X53776190Y-77111904D01*
X53509523Y-77416666D01*
X53623809Y-77416666D01*
X53699999Y-77454761D01*
X53738095Y-77492857D01*
X53776190Y-77569047D01*
X53776190Y-77759523D01*
X53738095Y-77835714D01*
X53699999Y-77873809D01*
X53623809Y-77911904D01*
X53395238Y-77911904D01*
X53319047Y-77873809D01*
X53280952Y-77835714D01*
X54080952Y-77188095D02*
X54119047Y-77150000D01*
X54195238Y-77111904D01*
X54385714Y-77111904D01*
X54461904Y-77150000D01*
X54500000Y-77188095D01*
X54538095Y-77264285D01*
X54538095Y-77340476D01*
X54500000Y-77454761D01*
X54042857Y-77911904D01*
X54538095Y-77911904D01*
X54995238Y-77454761D02*
X54919047Y-77416666D01*
X54880952Y-77378571D01*
X54842857Y-77302380D01*
X54842857Y-77264285D01*
X54880952Y-77188095D01*
X54919047Y-77150000D01*
X54995238Y-77111904D01*
X55147619Y-77111904D01*
X55223809Y-77150000D01*
X55261904Y-77188095D01*
X55300000Y-77264285D01*
X55300000Y-77302380D01*
X55261904Y-77378571D01*
X55223809Y-77416666D01*
X55147619Y-77454761D01*
X54995238Y-77454761D01*
X54919047Y-77492857D01*
X54880952Y-77530952D01*
X54842857Y-77607142D01*
X54842857Y-77759523D01*
X54880952Y-77835714D01*
X54919047Y-77873809D01*
X54995238Y-77911904D01*
X55147619Y-77911904D01*
X55223809Y-77873809D01*
X55261904Y-77835714D01*
X55300000Y-77759523D01*
X55300000Y-77607142D01*
X55261904Y-77530952D01*
X55223809Y-77492857D01*
X55147619Y-77454761D01*
X55642857Y-77911904D02*
X55642857Y-77111904D01*
X55947619Y-77111904D01*
X56023809Y-77150000D01*
X56061904Y-77188095D01*
X56100000Y-77264285D01*
X56100000Y-77378571D01*
X56061904Y-77454761D01*
X56023809Y-77492857D01*
X55947619Y-77530952D01*
X55642857Y-77530952D01*
X56442857Y-77607142D02*
X57052380Y-77607142D01*
X57395238Y-77683333D02*
X57776190Y-77683333D01*
X57319047Y-77911904D02*
X57585714Y-77111904D01*
X57852380Y-77911904D01*
X51757142Y-71861904D02*
X51757142Y-71061904D01*
X52595238Y-71785714D02*
X52557142Y-71823809D01*
X52442857Y-71861904D01*
X52366666Y-71861904D01*
X52252380Y-71823809D01*
X52176190Y-71747619D01*
X52138095Y-71671428D01*
X52100000Y-71519047D01*
X52100000Y-71404761D01*
X52138095Y-71252380D01*
X52176190Y-71176190D01*
X52252380Y-71100000D01*
X52366666Y-71061904D01*
X52442857Y-71061904D01*
X52557142Y-71100000D01*
X52595238Y-71138095D01*
X53052380Y-71404761D02*
X52976190Y-71366666D01*
X52938095Y-71328571D01*
X52900000Y-71252380D01*
X52900000Y-71214285D01*
X52938095Y-71138095D01*
X52976190Y-71100000D01*
X53052380Y-71061904D01*
X53204761Y-71061904D01*
X53280952Y-71100000D01*
X53319047Y-71138095D01*
X53357142Y-71214285D01*
X53357142Y-71252380D01*
X53319047Y-71328571D01*
X53280952Y-71366666D01*
X53204761Y-71404761D01*
X53052380Y-71404761D01*
X52976190Y-71442857D01*
X52938095Y-71480952D01*
X52900000Y-71557142D01*
X52900000Y-71709523D01*
X52938095Y-71785714D01*
X52976190Y-71823809D01*
X53052380Y-71861904D01*
X53204761Y-71861904D01*
X53280952Y-71823809D01*
X53319047Y-71785714D01*
X53357142Y-71709523D01*
X53357142Y-71557142D01*
X53319047Y-71480952D01*
X53280952Y-71442857D01*
X53204761Y-71404761D01*
X53852380Y-71061904D02*
X53928571Y-71061904D01*
X54004761Y-71100000D01*
X54042857Y-71138095D01*
X54080952Y-71214285D01*
X54119047Y-71366666D01*
X54119047Y-71557142D01*
X54080952Y-71709523D01*
X54042857Y-71785714D01*
X54004761Y-71823809D01*
X53928571Y-71861904D01*
X53852380Y-71861904D01*
X53776190Y-71823809D01*
X53738095Y-71785714D01*
X53700000Y-71709523D01*
X53661904Y-71557142D01*
X53661904Y-71366666D01*
X53700000Y-71214285D01*
X53738095Y-71138095D01*
X53776190Y-71100000D01*
X53852380Y-71061904D01*
X54614285Y-71061904D02*
X54690476Y-71061904D01*
X54766666Y-71100000D01*
X54804761Y-71138095D01*
X54842857Y-71214285D01*
X54880952Y-71366666D01*
X54880952Y-71557142D01*
X54842857Y-71709523D01*
X54804761Y-71785714D01*
X54766666Y-71823809D01*
X54690476Y-71861904D01*
X54614285Y-71861904D01*
X54538095Y-71823809D01*
X54500000Y-71785714D01*
X54461904Y-71709523D01*
X54423809Y-71557142D01*
X54423809Y-71366666D01*
X54461904Y-71214285D01*
X54500000Y-71138095D01*
X54538095Y-71100000D01*
X54614285Y-71061904D01*
%TO.C,C801*%
X48154761Y-55705714D02*
X48116666Y-55743809D01*
X48002380Y-55781904D01*
X47926190Y-55781904D01*
X47811904Y-55743809D01*
X47735714Y-55667619D01*
X47697619Y-55591428D01*
X47659523Y-55439047D01*
X47659523Y-55324761D01*
X47697619Y-55172380D01*
X47735714Y-55096190D01*
X47811904Y-55020000D01*
X47926190Y-54981904D01*
X48002380Y-54981904D01*
X48116666Y-55020000D01*
X48154761Y-55058095D01*
X48611904Y-55324761D02*
X48535714Y-55286666D01*
X48497619Y-55248571D01*
X48459523Y-55172380D01*
X48459523Y-55134285D01*
X48497619Y-55058095D01*
X48535714Y-55020000D01*
X48611904Y-54981904D01*
X48764285Y-54981904D01*
X48840476Y-55020000D01*
X48878571Y-55058095D01*
X48916666Y-55134285D01*
X48916666Y-55172380D01*
X48878571Y-55248571D01*
X48840476Y-55286666D01*
X48764285Y-55324761D01*
X48611904Y-55324761D01*
X48535714Y-55362857D01*
X48497619Y-55400952D01*
X48459523Y-55477142D01*
X48459523Y-55629523D01*
X48497619Y-55705714D01*
X48535714Y-55743809D01*
X48611904Y-55781904D01*
X48764285Y-55781904D01*
X48840476Y-55743809D01*
X48878571Y-55705714D01*
X48916666Y-55629523D01*
X48916666Y-55477142D01*
X48878571Y-55400952D01*
X48840476Y-55362857D01*
X48764285Y-55324761D01*
X49411904Y-54981904D02*
X49488095Y-54981904D01*
X49564285Y-55020000D01*
X49602380Y-55058095D01*
X49640476Y-55134285D01*
X49678571Y-55286666D01*
X49678571Y-55477142D01*
X49640476Y-55629523D01*
X49602380Y-55705714D01*
X49564285Y-55743809D01*
X49488095Y-55781904D01*
X49411904Y-55781904D01*
X49335714Y-55743809D01*
X49297619Y-55705714D01*
X49259523Y-55629523D01*
X49221428Y-55477142D01*
X49221428Y-55286666D01*
X49259523Y-55134285D01*
X49297619Y-55058095D01*
X49335714Y-55020000D01*
X49411904Y-54981904D01*
X50440476Y-55781904D02*
X49983333Y-55781904D01*
X50211904Y-55781904D02*
X50211904Y-54981904D01*
X50135714Y-55096190D01*
X50059523Y-55172380D01*
X49983333Y-55210476D01*
%TO.C,C800*%
X53004761Y-55735714D02*
X52966666Y-55773809D01*
X52852380Y-55811904D01*
X52776190Y-55811904D01*
X52661904Y-55773809D01*
X52585714Y-55697619D01*
X52547619Y-55621428D01*
X52509523Y-55469047D01*
X52509523Y-55354761D01*
X52547619Y-55202380D01*
X52585714Y-55126190D01*
X52661904Y-55050000D01*
X52776190Y-55011904D01*
X52852380Y-55011904D01*
X52966666Y-55050000D01*
X53004761Y-55088095D01*
X53461904Y-55354761D02*
X53385714Y-55316666D01*
X53347619Y-55278571D01*
X53309523Y-55202380D01*
X53309523Y-55164285D01*
X53347619Y-55088095D01*
X53385714Y-55050000D01*
X53461904Y-55011904D01*
X53614285Y-55011904D01*
X53690476Y-55050000D01*
X53728571Y-55088095D01*
X53766666Y-55164285D01*
X53766666Y-55202380D01*
X53728571Y-55278571D01*
X53690476Y-55316666D01*
X53614285Y-55354761D01*
X53461904Y-55354761D01*
X53385714Y-55392857D01*
X53347619Y-55430952D01*
X53309523Y-55507142D01*
X53309523Y-55659523D01*
X53347619Y-55735714D01*
X53385714Y-55773809D01*
X53461904Y-55811904D01*
X53614285Y-55811904D01*
X53690476Y-55773809D01*
X53728571Y-55735714D01*
X53766666Y-55659523D01*
X53766666Y-55507142D01*
X53728571Y-55430952D01*
X53690476Y-55392857D01*
X53614285Y-55354761D01*
X54261904Y-55011904D02*
X54338095Y-55011904D01*
X54414285Y-55050000D01*
X54452380Y-55088095D01*
X54490476Y-55164285D01*
X54528571Y-55316666D01*
X54528571Y-55507142D01*
X54490476Y-55659523D01*
X54452380Y-55735714D01*
X54414285Y-55773809D01*
X54338095Y-55811904D01*
X54261904Y-55811904D01*
X54185714Y-55773809D01*
X54147619Y-55735714D01*
X54109523Y-55659523D01*
X54071428Y-55507142D01*
X54071428Y-55316666D01*
X54109523Y-55164285D01*
X54147619Y-55088095D01*
X54185714Y-55050000D01*
X54261904Y-55011904D01*
X55023809Y-55011904D02*
X55100000Y-55011904D01*
X55176190Y-55050000D01*
X55214285Y-55088095D01*
X55252380Y-55164285D01*
X55290476Y-55316666D01*
X55290476Y-55507142D01*
X55252380Y-55659523D01*
X55214285Y-55735714D01*
X55176190Y-55773809D01*
X55100000Y-55811904D01*
X55023809Y-55811904D01*
X54947619Y-55773809D01*
X54909523Y-55735714D01*
X54871428Y-55659523D01*
X54833333Y-55507142D01*
X54833333Y-55316666D01*
X54871428Y-55164285D01*
X54909523Y-55088095D01*
X54947619Y-55050000D01*
X55023809Y-55011904D01*
%TO.C,CP002*%
X45527142Y-95585714D02*
X45574761Y-95633333D01*
X45622380Y-95776190D01*
X45622380Y-95871428D01*
X45574761Y-96014285D01*
X45479523Y-96109523D01*
X45384285Y-96157142D01*
X45193809Y-96204761D01*
X45050952Y-96204761D01*
X44860476Y-96157142D01*
X44765238Y-96109523D01*
X44670000Y-96014285D01*
X44622380Y-95871428D01*
X44622380Y-95776190D01*
X44670000Y-95633333D01*
X44717619Y-95585714D01*
X45622380Y-95157142D02*
X44622380Y-95157142D01*
X44622380Y-94776190D01*
X44670000Y-94680952D01*
X44717619Y-94633333D01*
X44812857Y-94585714D01*
X44955714Y-94585714D01*
X45050952Y-94633333D01*
X45098571Y-94680952D01*
X45146190Y-94776190D01*
X45146190Y-95157142D01*
X45527142Y-93585714D02*
X45574761Y-93633333D01*
X45622380Y-93776190D01*
X45622380Y-93871428D01*
X45574761Y-94014285D01*
X45479523Y-94109523D01*
X45384285Y-94157142D01*
X45193809Y-94204761D01*
X45050952Y-94204761D01*
X44860476Y-94157142D01*
X44765238Y-94109523D01*
X44670000Y-94014285D01*
X44622380Y-93871428D01*
X44622380Y-93776190D01*
X44670000Y-93633333D01*
X44717619Y-93585714D01*
X44955714Y-92728571D02*
X45622380Y-92728571D01*
X44574761Y-92966666D02*
X45289047Y-93204761D01*
X45289047Y-92585714D01*
X44622380Y-91776190D02*
X44622380Y-91966666D01*
X44670000Y-92061904D01*
X44717619Y-92109523D01*
X44860476Y-92204761D01*
X45050952Y-92252380D01*
X45431904Y-92252380D01*
X45527142Y-92204761D01*
X45574761Y-92157142D01*
X45622380Y-92061904D01*
X45622380Y-91871428D01*
X45574761Y-91776190D01*
X45527142Y-91728571D01*
X45431904Y-91680952D01*
X45193809Y-91680952D01*
X45098571Y-91728571D01*
X45050952Y-91776190D01*
X45003333Y-91871428D01*
X45003333Y-92061904D01*
X45050952Y-92157142D01*
X45098571Y-92204761D01*
X45193809Y-92252380D01*
X44955714Y-90823809D02*
X45622380Y-90823809D01*
X44574761Y-91061904D02*
X45289047Y-91300000D01*
X45289047Y-90680952D01*
X45241428Y-90300000D02*
X45241428Y-89538095D01*
X44717619Y-89109523D02*
X44670000Y-89061904D01*
X44622380Y-88966666D01*
X44622380Y-88728571D01*
X44670000Y-88633333D01*
X44717619Y-88585714D01*
X44812857Y-88538095D01*
X44908095Y-88538095D01*
X45050952Y-88585714D01*
X45622380Y-89157142D01*
X45622380Y-88538095D01*
X45622380Y-88109523D02*
X44622380Y-88109523D01*
X45336666Y-87776190D01*
X44622380Y-87442857D01*
X45622380Y-87442857D01*
X45622380Y-86966666D02*
X44622380Y-86966666D01*
X45622380Y-86490476D02*
X44622380Y-86490476D01*
X45622380Y-85919047D01*
X44622380Y-85919047D01*
X45622380Y-85442857D02*
X44622380Y-85442857D01*
D12*
%TO.C,R809*%
X61855000Y-93817064D02*
X61855000Y-93362936D01*
X63325000Y-93817064D02*
X63325000Y-93362936D01*
%TO.C,D810*%
X63605000Y-97775000D02*
X63605000Y-95505000D01*
X59720000Y-97775000D02*
X63605000Y-97775000D01*
X63605000Y-95505000D02*
X59720000Y-95505000D01*
%TO.C,C807*%
X48671252Y-95725000D02*
X48148748Y-95725000D01*
X48671252Y-97195000D02*
X48148748Y-97195000D01*
%TO.C,Y800*%
X54585000Y-58225000D02*
X48335000Y-58225000D01*
X54585000Y-63275000D02*
X48335000Y-63275000D01*
X48335000Y-58225000D02*
G75*
G03*
X48335000Y-63275000I0J-2525000D01*
G01*
X54585000Y-63275000D02*
G75*
G03*
X54585000Y-58225000I0J2525000D01*
G01*
%TO.C,R808*%
X52522936Y-45015000D02*
X52977064Y-45015000D01*
X52522936Y-46485000D02*
X52977064Y-46485000D01*
%TO.C,R804*%
X52977064Y-49835000D02*
X52522936Y-49835000D01*
X52977064Y-48365000D02*
X52522936Y-48365000D01*
%TO.C,Q800*%
X49710000Y-46140000D02*
X49710000Y-47450000D01*
X46990000Y-46140000D02*
X49710000Y-46140000D01*
X46990000Y-46140000D02*
X46990000Y-46370000D01*
X49710000Y-49550000D02*
X49710000Y-50860000D01*
X45850000Y-46370000D02*
X46990000Y-46370000D01*
X46990000Y-50860000D02*
X46990000Y-50630000D01*
X49710000Y-50860000D02*
X46990000Y-50860000D01*
%TO.C,J804*%
X44890000Y-43475000D02*
X44890000Y-30475000D01*
X61090000Y-30475000D02*
X44890000Y-30475000D01*
X61090000Y-43475000D02*
X61090000Y-30475000D01*
X61090000Y-43475000D02*
X44890000Y-43475000D01*
%TO.C,J800*%
X60855000Y-55155000D02*
X60855000Y-57755000D01*
X63455000Y-50015000D02*
X58255000Y-50015000D01*
X58255000Y-57755000D02*
X58255000Y-50015000D01*
X63455000Y-57755000D02*
X62125000Y-57755000D01*
X63455000Y-55155000D02*
X63455000Y-50015000D01*
X63455000Y-55155000D02*
X60855000Y-55155000D01*
X63455000Y-56425000D02*
X63455000Y-57755000D01*
X60855000Y-57755000D02*
X58255000Y-57755000D01*
D10*
%TO.C,IC803*%
X49325000Y-93875000D02*
X49325000Y-93200000D01*
X49325000Y-93875000D02*
X50000000Y-93875000D01*
X59675000Y-93875000D02*
X59675000Y-93200000D01*
X59675000Y-83525000D02*
X59675000Y-84200000D01*
X49325000Y-83525000D02*
X50000000Y-83525000D01*
X59675000Y-93875000D02*
X59000000Y-93875000D01*
X49325000Y-84100000D02*
X48050000Y-84100000D01*
X59675000Y-83525000D02*
X59000000Y-83525000D01*
X49325000Y-83525000D02*
X49325000Y-84100000D01*
%TO.C,IC800*%
X49675000Y-75125000D02*
X50000000Y-75125000D01*
X49675000Y-67875000D02*
X49675000Y-68100000D01*
X49675000Y-67875000D02*
X50000000Y-67875000D01*
X56925000Y-67875000D02*
X56600000Y-67875000D01*
X56925000Y-67875000D02*
X56925000Y-68200000D01*
X56925000Y-75125000D02*
X56925000Y-74800000D01*
X56925000Y-75125000D02*
X56600000Y-75125000D01*
X49675000Y-75125000D02*
X49675000Y-74800000D01*
X49675000Y-68100000D02*
X48250000Y-68100000D01*
D12*
%TO.C,C806*%
X46215000Y-71388748D02*
X46215000Y-71911252D01*
X47685000Y-71388748D02*
X47685000Y-71911252D01*
%TO.C,C802*%
X57161252Y-64415000D02*
X56638748Y-64415000D01*
X57161252Y-65885000D02*
X56638748Y-65885000D01*
%TO.C,C801*%
X48788748Y-56165000D02*
X49311252Y-56165000D01*
X48788748Y-57635000D02*
X49311252Y-57635000D01*
%TO.C,C800*%
X54161252Y-56165000D02*
X53638748Y-56165000D01*
X54161252Y-57635000D02*
X53638748Y-57635000D01*
%TO.C,CP002*%
X41342000Y-47904400D02*
X41342000Y-96224400D01*
X41342000Y-46634400D02*
X41342000Y-45304400D01*
X44002000Y-47904400D02*
X44002000Y-96224400D01*
X41342000Y-96224400D02*
X44002000Y-96224400D01*
X41342000Y-45304400D02*
X42672000Y-45304400D01*
X41342000Y-47904400D02*
X44002000Y-47904400D01*
%TO.C,J105*%
X44002000Y-37744400D02*
X44002000Y-42884400D01*
X41342000Y-37744400D02*
X44002000Y-37744400D01*
X41342000Y-35144400D02*
X42672000Y-35144400D01*
X41342000Y-36474400D02*
X41342000Y-35144400D01*
X41342000Y-37744400D02*
X41342000Y-42884400D01*
X41342000Y-42884400D02*
X44002000Y-42884400D01*
%TD*%
M02*
