%TF.GenerationSoftware,KiCad,Pcbnew,(6.0.7)*%
%TF.CreationDate,2023-01-02T00:51:12+00:00*%
%TF.ProjectId,CPC464-2MINIPS2,43504334-3634-42d3-924d-494e49505332,rev?*%
%TF.SameCoordinates,Original*%
%TF.FileFunction,Copper,L2,Bot*%
%TF.FilePolarity,Positive*%
%FSLAX46Y46*%
G04 Gerber Fmt 4.6, Leading zero omitted, Abs format (unit mm)*
G04 Created by KiCad (PCBNEW (6.0.7)) date 2023-01-02 00:51:12*
%MOMM*%
%LPD*%
G01*
G04 APERTURE LIST*
%TA.AperFunction,ComponentPad*%
%ADD10C,3.800000*%
%TD*%
%TA.AperFunction,ComponentPad*%
%ADD11C,1.500000*%
%TD*%
%TA.AperFunction,ComponentPad*%
%ADD12R,1.600000X1.600000*%
%TD*%
%TA.AperFunction,ComponentPad*%
%ADD13C,1.600000*%
%TD*%
%TA.AperFunction,ComponentPad*%
%ADD14O,4.000000X2.000000*%
%TD*%
%TA.AperFunction,ComponentPad*%
%ADD15O,2.000000X3.500000*%
%TD*%
%TA.AperFunction,ComponentPad*%
%ADD16R,1.700000X1.700000*%
%TD*%
%TA.AperFunction,ComponentPad*%
%ADD17O,1.700000X1.700000*%
%TD*%
%TA.AperFunction,ViaPad*%
%ADD18C,0.800000*%
%TD*%
%TA.AperFunction,Conductor*%
%ADD19C,0.750000*%
%TD*%
%TA.AperFunction,Conductor*%
%ADD20C,0.500000*%
%TD*%
%TA.AperFunction,Conductor*%
%ADD21C,0.250000*%
%TD*%
G04 APERTURE END LIST*
D10*
%TO.P,H9,1,1*%
%TO.N,GND*%
X60629800Y-46990000D03*
%TD*%
D11*
%TO.P,Y800,1,1*%
%TO.N,Net-(C800-Pad1)*%
X53900000Y-60750000D03*
%TO.P,Y800,2,2*%
%TO.N,Net-(C801-Pad1)*%
X49020000Y-60750000D03*
%TD*%
D12*
%TO.P,J804,1*%
%TO.N,PS2-DATA*%
X51690000Y-39075000D03*
D13*
%TO.P,J804,2*%
%TO.N,unconnected-(J804-Pad2)*%
X54290000Y-39075000D03*
%TO.P,J804,3*%
%TO.N,GND*%
X49590000Y-39075000D03*
%TO.P,J804,4*%
%TO.N,+5V*%
X56390000Y-39075000D03*
%TO.P,J804,5*%
%TO.N,PS2-CLK*%
X49590000Y-41875000D03*
%TO.P,J804,6*%
%TO.N,unconnected-(J804-Pad6)*%
X56390000Y-41875000D03*
D14*
%TO.P,J804,7*%
%TO.N,GND*%
X52990000Y-35425000D03*
D15*
X59840000Y-36225000D03*
X46140000Y-36225000D03*
%TD*%
D16*
%TO.P,J800,1,Pin_1*%
%TO.N,PS2-DATA*%
X62125000Y-56425000D03*
D17*
%TO.P,J800,2,Pin_2*%
%TO.N,+5V*%
X59585000Y-56425000D03*
%TO.P,J800,3,Pin_3*%
%TO.N,ADSCK*%
X62125000Y-53885000D03*
%TO.P,J800,4,Pin_4*%
%TO.N,ADMOSI*%
X59585000Y-53885000D03*
%TO.P,J800,5,Pin_5*%
%TO.N,ADRESET*%
X62125000Y-51345000D03*
%TO.P,J800,6,Pin_6*%
%TO.N,GND*%
X59585000Y-51345000D03*
%TD*%
D16*
%TO.P,CP002,1,Pin_1*%
%TO.N,/ROW7*%
X42672000Y-46634400D03*
D17*
%TO.P,CP002,2,Pin_2*%
%TO.N,/COL9*%
X42672000Y-49174400D03*
%TO.P,CP002,3,Pin_3*%
%TO.N,/ROW0*%
X42672000Y-51714400D03*
%TO.P,CP002,4,Pin_4*%
%TO.N,/ROW1*%
X42672000Y-54254400D03*
%TO.P,CP002,5,Pin_5*%
%TO.N,/ROW2*%
X42672000Y-56794400D03*
%TO.P,CP002,6,Pin_6*%
%TO.N,/ROW3*%
X42672000Y-59334400D03*
%TO.P,CP002,7,Pin_7*%
%TO.N,/ROW4*%
X42672000Y-61874400D03*
%TO.P,CP002,8,Pin_8*%
%TO.N,/ROW5*%
X42672000Y-64414400D03*
%TO.P,CP002,9,Pin_9*%
%TO.N,/ROW6*%
X42672000Y-66954400D03*
%TO.P,CP002,10,Pin_10*%
%TO.N,/ROW7*%
X42672000Y-69494400D03*
%TO.P,CP002,11,Pin_11*%
%TO.N,/COL0*%
X42672000Y-72034400D03*
%TO.P,CP002,12,Pin_12*%
%TO.N,/COL1*%
X42672000Y-74574400D03*
%TO.P,CP002,13,Pin_13*%
%TO.N,/COL2*%
X42672000Y-77114400D03*
%TO.P,CP002,14,Pin_14*%
%TO.N,/COL3*%
X42672000Y-79654400D03*
%TO.P,CP002,15,Pin_15*%
%TO.N,/COL4*%
X42672000Y-82194400D03*
%TO.P,CP002,16,Pin_16*%
%TO.N,/COL5*%
X42672000Y-84734400D03*
%TO.P,CP002,17,Pin_17*%
%TO.N,/COL6*%
X42672000Y-87274400D03*
%TO.P,CP002,18,Pin_18*%
%TO.N,/COL7*%
X42672000Y-89814400D03*
%TO.P,CP002,19,Pin_19*%
%TO.N,/COL8*%
X42672000Y-92354400D03*
%TO.P,CP002,20,Pin_20*%
%TO.N,unconnected-(CP002-Pad20)*%
X42672000Y-94894400D03*
%TD*%
D16*
%TO.P,J105,1,Pin_1*%
%TO.N,!RST*%
X42672000Y-36474400D03*
D17*
%TO.P,J105,2,Pin_2*%
%TO.N,+5V*%
X42672000Y-39014400D03*
%TO.P,J105,3,Pin_3*%
%TO.N,GND*%
X42672000Y-41554400D03*
%TD*%
D18*
%TO.N,GND*%
X61470000Y-96490000D03*
%TO.N,MTDATA*%
X51072400Y-69426500D03*
X56950100Y-77493200D03*
%TO.N,BREAK*%
X57657400Y-57051500D03*
X54624800Y-44787700D03*
%TO.N,ADSCK*%
X57221500Y-76383800D03*
X62642700Y-80270300D03*
%TO.N,ADMOSI*%
X55408300Y-73629300D03*
%TO.N,AX2*%
X49954300Y-80734300D03*
X56139200Y-87213000D03*
%TO.N,AY0*%
X51403400Y-78024400D03*
X56900000Y-92674900D03*
%TO.N,AY1*%
X49064100Y-79016900D03*
X57493400Y-87248000D03*
%TO.N,AY2*%
X49952900Y-77159100D03*
X53729100Y-81218800D03*
%TO.N,PS2-DATA*%
X56975700Y-75184600D03*
%TO.N,/COL5*%
X58806300Y-90350900D03*
%TO.N,/COL4*%
X58293000Y-89428800D03*
%TO.N,/COL3*%
X58303000Y-88397300D03*
%TO.N,/COL2*%
X58837800Y-87385400D03*
%TO.N,/COL1*%
X61559200Y-86815900D03*
%TO.N,/COL0*%
X59382400Y-83348300D03*
%TO.N,/ROW6*%
X44728200Y-85463100D03*
X51066800Y-93037000D03*
%TO.N,/ROW5*%
X46017800Y-85480600D03*
X52900000Y-92362800D03*
%TO.N,/ROW4*%
X54500000Y-93043500D03*
%TO.N,/ROW3*%
X55535100Y-79700700D03*
%TO.N,/ROW2*%
X46328700Y-74174600D03*
X56100000Y-80971100D03*
%TO.N,/ROW1*%
X57401600Y-84357400D03*
%TO.N,/ROW0*%
X62100000Y-83386800D03*
%TO.N,/COL9*%
X47449900Y-89656100D03*
%TO.N,ADRESET*%
X56176200Y-60783600D03*
X55964000Y-59097600D03*
X52620600Y-52254100D03*
%TO.N,Net-(C802-Pad1)*%
X61086800Y-71960600D03*
X57850000Y-67818200D03*
%TO.N,Net-(C801-Pad1)*%
X45884400Y-66899900D03*
%TO.N,GND*%
X61880500Y-71120000D03*
X53710000Y-96770000D03*
X50590000Y-97480000D03*
X50590000Y-96750000D03*
X53740000Y-97440000D03*
X56600000Y-53000000D03*
%TO.N,Net-(C800-Pad1)*%
X54077100Y-73581300D03*
%TD*%
D19*
%TO.N,GND*%
X58450000Y-97440000D02*
X53740000Y-97440000D01*
X61350000Y-97440000D02*
X58450000Y-97440000D01*
D20*
X61350000Y-96610000D02*
X61350000Y-97440000D01*
X61470000Y-96490000D02*
X61350000Y-96610000D01*
D19*
X63605000Y-97440000D02*
X61350000Y-97440000D01*
X63625000Y-97420000D02*
X63605000Y-97440000D01*
X63625000Y-70925000D02*
X63625000Y-97420000D01*
D21*
%TO.N,MTDATA*%
X56327000Y-77493200D02*
X56950100Y-77493200D01*
X51072400Y-72238600D02*
X56327000Y-77493200D01*
X51072400Y-69426500D02*
X51072400Y-72238600D01*
%TO.N,BREAK*%
X54624800Y-54018900D02*
X57657400Y-57051500D01*
X54624800Y-44787700D02*
X54624800Y-54018900D01*
%TO.N,ADSCK*%
X58756200Y-76383800D02*
X62642700Y-80270300D01*
X57221500Y-76383800D02*
X58756200Y-76383800D01*
%TO.N,ADMOSI*%
X59585000Y-53885000D02*
X59585000Y-55060100D01*
X59219700Y-55060100D02*
X59585000Y-55060100D01*
X58396200Y-55883600D02*
X59219700Y-55060100D01*
X58396200Y-57690900D02*
X58396200Y-55883600D01*
X56264400Y-59822700D02*
X58396200Y-57690900D01*
X56111400Y-59822700D02*
X56264400Y-59822700D01*
X55408300Y-60525800D02*
X56111400Y-59822700D01*
X55408300Y-73629300D02*
X55408300Y-60525800D01*
%TO.N,AX2*%
X49954300Y-81028100D02*
X49954300Y-80734300D01*
X56139200Y-87213000D02*
X49954300Y-81028100D01*
%TO.N,AY0*%
X57515000Y-92674900D02*
X56900000Y-92674900D01*
X59568700Y-90621200D02*
X57515000Y-92674900D01*
X59568700Y-85462100D02*
X59568700Y-90621200D01*
X57588500Y-83481900D02*
X59568700Y-85462100D01*
X56821800Y-83481900D02*
X57588500Y-83481900D01*
X54534700Y-81194800D02*
X56821800Y-83481900D01*
X54534700Y-80998900D02*
X54534700Y-81194800D01*
X51560200Y-78024400D02*
X54534700Y-80998900D01*
X51403400Y-78024400D02*
X51560200Y-78024400D01*
%TO.N,AY1*%
X57459600Y-87248000D02*
X57493400Y-87248000D01*
X52103800Y-81892200D02*
X57459600Y-87248000D01*
X52103800Y-81858400D02*
X52103800Y-81892200D01*
X49262300Y-79016900D02*
X52103800Y-81858400D01*
X49064100Y-79016900D02*
X49262300Y-79016900D01*
%TO.N,AY2*%
X53572300Y-81218800D02*
X53729100Y-81218800D01*
X49952900Y-77599400D02*
X53572300Y-81218800D01*
X49952900Y-77159100D02*
X49952900Y-77599400D01*
%TO.N,PS2-DATA*%
X51690000Y-39075000D02*
X51690000Y-40200100D01*
X62125000Y-56425000D02*
X62125000Y-57600100D01*
X53862000Y-74391600D02*
X56975700Y-74391600D01*
X52824800Y-73354400D02*
X53862000Y-74391600D01*
X52824800Y-58472000D02*
X52824800Y-73354400D01*
X51690000Y-57337200D02*
X52824800Y-58472000D01*
X51690000Y-40200100D02*
X51690000Y-57337200D01*
X56975700Y-62749400D02*
X62125000Y-57600100D01*
X56975700Y-74391600D02*
X56975700Y-62749400D01*
X56975700Y-74391600D02*
X56975700Y-75184600D01*
%TO.N,/COL5*%
X46631900Y-84734400D02*
X42672000Y-84734400D01*
X52248400Y-90350900D02*
X46631900Y-84734400D01*
X58806300Y-90350900D02*
X52248400Y-90350900D01*
%TO.N,/COL4*%
X42672000Y-82194400D02*
X43847100Y-82194400D01*
X56693000Y-89428800D02*
X58293000Y-89428800D01*
X49458600Y-82194400D02*
X56693000Y-89428800D01*
X43847100Y-82194400D02*
X49458600Y-82194400D01*
%TO.N,/COL3*%
X42672000Y-79654400D02*
X43847100Y-79654400D01*
X56298100Y-88397300D02*
X58303000Y-88397300D01*
X47555200Y-79654400D02*
X56298100Y-88397300D01*
X43847100Y-79654400D02*
X47555200Y-79654400D01*
%TO.N,/COL2*%
X42672000Y-77114400D02*
X43847100Y-77114400D01*
X56962000Y-85509600D02*
X58837800Y-87385400D01*
X56357800Y-85509600D02*
X56962000Y-85509600D01*
X52553900Y-81705700D02*
X56357800Y-85509600D01*
X52553900Y-81473600D02*
X52553900Y-81705700D01*
X48194700Y-77114400D02*
X52553900Y-81473600D01*
X43847100Y-77114400D02*
X48194700Y-77114400D01*
%TO.N,/COL1*%
X42672000Y-74574400D02*
X43847100Y-74574400D01*
X57695000Y-82951700D02*
X61559200Y-86815900D01*
X56991800Y-82951700D02*
X57695000Y-82951700D01*
X55084600Y-81044500D02*
X56991800Y-82951700D01*
X55084600Y-80912100D02*
X55084600Y-81044500D01*
X54359900Y-80187400D02*
X55084600Y-80912100D01*
X54359900Y-79955300D02*
X54359900Y-80187400D01*
X49671300Y-75266700D02*
X54359900Y-79955300D01*
X44539400Y-75266700D02*
X49671300Y-75266700D01*
X43847100Y-74574400D02*
X44539400Y-75266700D01*
%TO.N,/COL0*%
X59382400Y-82483700D02*
X59382400Y-83348300D01*
X48933100Y-72034400D02*
X59382400Y-82483700D01*
X42672000Y-72034400D02*
X48933100Y-72034400D01*
%TO.N,/ROW6*%
X51066700Y-91801600D02*
X44728200Y-85463100D01*
X51066700Y-93037000D02*
X51066700Y-91801600D01*
X51066800Y-93037000D02*
X51066700Y-93037000D01*
%TO.N,/ROW5*%
X52900000Y-92362800D02*
X46017800Y-85480600D01*
%TO.N,/ROW4*%
X42672000Y-61874400D02*
X42672000Y-63049500D01*
X54856600Y-93400100D02*
X54500000Y-93043500D01*
X57448700Y-93400100D02*
X54856600Y-93400100D01*
X62310600Y-88538200D02*
X57448700Y-93400100D01*
X62310600Y-84762500D02*
X62310600Y-88538200D01*
X43847100Y-66299000D02*
X62310600Y-84762500D01*
X43847100Y-63857300D02*
X43847100Y-66299000D01*
X43039300Y-63049500D02*
X43847100Y-63857300D01*
X42672000Y-63049500D02*
X43039300Y-63049500D01*
%TO.N,/ROW3*%
X42672000Y-59334400D02*
X42672000Y-60509500D01*
X49138800Y-73304400D02*
X55535100Y-79700700D01*
X42239200Y-73304400D02*
X49138800Y-73304400D01*
X41496300Y-72561500D02*
X42239200Y-73304400D01*
X41496300Y-61318000D02*
X41496300Y-72561500D01*
X42304800Y-60509500D02*
X41496300Y-61318000D01*
X42672000Y-60509500D02*
X42304800Y-60509500D01*
%TO.N,/ROW2*%
X55780100Y-80971100D02*
X56100000Y-80971100D01*
X54810000Y-80001000D02*
X55780100Y-80971100D01*
X54810000Y-79768800D02*
X54810000Y-80001000D01*
X49215800Y-74174600D02*
X54810000Y-79768800D01*
X46328700Y-74174600D02*
X49215800Y-74174600D01*
%TO.N,/ROW1*%
X42672000Y-54254400D02*
X42672000Y-55429500D01*
X55842200Y-84357400D02*
X57401600Y-84357400D01*
X53004000Y-81519200D02*
X55842200Y-84357400D01*
X53004000Y-81287100D02*
X53004000Y-81519200D01*
X47644900Y-75928000D02*
X53004000Y-81287100D01*
X42362200Y-75928000D02*
X47644900Y-75928000D01*
X41046200Y-74612000D02*
X42362200Y-75928000D01*
X41046200Y-56688000D02*
X41046200Y-74612000D01*
X42304700Y-55429500D02*
X41046200Y-56688000D01*
X42672000Y-55429500D02*
X42304700Y-55429500D01*
%TO.N,/ROW0*%
X42672000Y-51714400D02*
X42672000Y-52889500D01*
X42983500Y-52889500D02*
X42672000Y-52889500D01*
X50320800Y-60226800D02*
X42983500Y-52889500D01*
X50320800Y-72123600D02*
X50320800Y-60226800D01*
X61584000Y-83386800D02*
X50320800Y-72123600D01*
X62100000Y-83386800D02*
X61584000Y-83386800D01*
%TO.N,/COL9*%
X43703400Y-85909600D02*
X47449900Y-89656100D01*
X42179600Y-85909600D02*
X43703400Y-85909600D01*
X40567800Y-84297800D02*
X42179600Y-85909600D01*
X40567800Y-52086500D02*
X40567800Y-84297800D01*
X42304800Y-50349500D02*
X40567800Y-52086500D01*
X42672000Y-50349500D02*
X42304800Y-50349500D01*
X42672000Y-49174400D02*
X42672000Y-50349500D01*
%TO.N,ADRESET*%
X61759700Y-52520100D02*
X62125000Y-52520100D01*
X60760200Y-53519600D02*
X61759700Y-52520100D01*
X60760200Y-56919500D02*
X60760200Y-53519600D01*
X56896100Y-60783600D02*
X60760200Y-56919500D01*
X56176200Y-60783600D02*
X56896100Y-60783600D01*
X62125000Y-51345000D02*
X62125000Y-52520100D01*
X52620600Y-55754200D02*
X52620600Y-52254100D01*
X55964000Y-59097600D02*
X52620600Y-55754200D01*
%TO.N,Net-(C802-Pad1)*%
X57850000Y-68723800D02*
X57850000Y-67818200D01*
X61086800Y-71960600D02*
X57850000Y-68723800D01*
%TO.N,Net-(C801-Pad1)*%
X45884400Y-63885600D02*
X45884400Y-66899900D01*
X49020000Y-60750000D02*
X45884400Y-63885600D01*
D20*
%TO.N,GND*%
X63430000Y-71120000D02*
X63625000Y-70925000D01*
X61880500Y-71120000D02*
X63430000Y-71120000D01*
D19*
X53710000Y-97410000D02*
X53740000Y-97440000D01*
X53710000Y-96770000D02*
X53710000Y-97410000D01*
X50590000Y-97480000D02*
X50590000Y-96750000D01*
X63625000Y-49985200D02*
X63625000Y-70925000D01*
X60629800Y-46990000D02*
X63625000Y-49985200D01*
X57930000Y-53000000D02*
X59585000Y-51345000D01*
X56600000Y-53000000D02*
X57930000Y-53000000D01*
X60629800Y-50300200D02*
X59585000Y-51345000D01*
X60629800Y-46990000D02*
X60629800Y-50300200D01*
X60629800Y-37014800D02*
X59840000Y-36225000D01*
X60629800Y-46990000D02*
X60629800Y-37014800D01*
X53790000Y-36225000D02*
X52990000Y-35425000D01*
X59840000Y-36225000D02*
X53790000Y-36225000D01*
X46140000Y-36225000D02*
X49740000Y-36225000D01*
X52190000Y-36225000D02*
X52990000Y-35425000D01*
X49740000Y-36225000D02*
X52190000Y-36225000D01*
D21*
X49590000Y-36375000D02*
X49590000Y-39075000D01*
X49740000Y-36225000D02*
X49590000Y-36375000D01*
X44060800Y-40379300D02*
X46140000Y-38300100D01*
X42672000Y-40379300D02*
X44060800Y-40379300D01*
X42672000Y-41554400D02*
X42672000Y-40379300D01*
X46140000Y-36225000D02*
X46140000Y-38300100D01*
%TO.N,Net-(C800-Pad1)*%
X53900000Y-73404200D02*
X53900000Y-60750000D01*
X54077100Y-73581300D02*
X53900000Y-73404200D01*
%TD*%
%TA.AperFunction,Conductor*%
%TO.N,GND*%
G36*
X63433621Y-30957702D02*
G01*
X63480114Y-31011358D01*
X63491500Y-31063700D01*
X63491500Y-49112622D01*
X63471498Y-49180743D01*
X63417842Y-49227236D01*
X63365195Y-49238621D01*
X62478995Y-49236458D01*
X62023559Y-49235346D01*
X61955488Y-49215177D01*
X61909126Y-49161408D01*
X61899194Y-49091110D01*
X61928844Y-49026601D01*
X61949806Y-49007410D01*
X62131030Y-48875744D01*
X62139453Y-48864821D01*
X62132549Y-48851960D01*
X60642610Y-47362020D01*
X60628669Y-47354408D01*
X60626834Y-47354539D01*
X60620220Y-47358790D01*
X59126727Y-48852284D01*
X59120114Y-48864394D01*
X59128943Y-48876014D01*
X59300395Y-49000582D01*
X59343749Y-49056804D01*
X59349824Y-49127541D01*
X59316692Y-49190332D01*
X59254872Y-49225244D01*
X59226030Y-49228518D01*
X56192548Y-49221113D01*
X55383992Y-49219139D01*
X55315921Y-49198970D01*
X55269559Y-49145201D01*
X55258300Y-49093139D01*
X55258300Y-46993958D01*
X58217288Y-46993958D01*
X58235815Y-47288436D01*
X58236808Y-47296297D01*
X58292096Y-47586128D01*
X58294067Y-47593805D01*
X58385246Y-47874424D01*
X58388161Y-47881787D01*
X58513793Y-48148770D01*
X58517605Y-48155703D01*
X58675709Y-48404835D01*
X58680363Y-48411241D01*
X58745321Y-48489761D01*
X58757840Y-48498217D01*
X58768578Y-48492011D01*
X60257780Y-47002810D01*
X60264157Y-46991131D01*
X60994208Y-46991131D01*
X60994339Y-46992966D01*
X60998590Y-46999580D01*
X62489919Y-48490908D01*
X62503181Y-48498150D01*
X62513285Y-48490962D01*
X62579237Y-48411241D01*
X62583891Y-48404835D01*
X62741995Y-48155703D01*
X62745807Y-48148770D01*
X62871439Y-47881787D01*
X62874354Y-47874424D01*
X62965533Y-47593805D01*
X62967504Y-47586128D01*
X63022792Y-47296297D01*
X63023785Y-47288436D01*
X63042312Y-46993958D01*
X63042312Y-46986042D01*
X63023785Y-46691564D01*
X63022792Y-46683703D01*
X62967504Y-46393872D01*
X62965533Y-46386195D01*
X62874354Y-46105576D01*
X62871439Y-46098213D01*
X62745807Y-45831230D01*
X62741995Y-45824297D01*
X62583891Y-45575165D01*
X62579237Y-45568759D01*
X62514279Y-45490239D01*
X62501760Y-45481783D01*
X62491022Y-45487989D01*
X61001820Y-46977190D01*
X60994208Y-46991131D01*
X60264157Y-46991131D01*
X60265392Y-46988869D01*
X60265261Y-46987034D01*
X60261010Y-46980420D01*
X58769681Y-45489092D01*
X58756419Y-45481850D01*
X58746315Y-45489038D01*
X58680363Y-45568759D01*
X58675709Y-45575165D01*
X58517605Y-45824297D01*
X58513793Y-45831230D01*
X58388161Y-46098213D01*
X58385246Y-46105576D01*
X58294067Y-46386195D01*
X58292096Y-46393872D01*
X58236808Y-46683703D01*
X58235815Y-46691564D01*
X58217288Y-46986042D01*
X58217288Y-46993958D01*
X55258300Y-46993958D01*
X55258300Y-45490224D01*
X55278302Y-45422103D01*
X55290658Y-45405921D01*
X55363840Y-45324644D01*
X55459327Y-45159256D01*
X55473649Y-45115179D01*
X59120147Y-45115179D01*
X59127051Y-45128040D01*
X60616990Y-46617980D01*
X60630931Y-46625592D01*
X60632766Y-46625461D01*
X60639380Y-46621210D01*
X62132873Y-45127716D01*
X62139486Y-45115606D01*
X62130657Y-45103986D01*
X61925830Y-44955170D01*
X61919150Y-44950930D01*
X61660566Y-44808772D01*
X61653431Y-44805415D01*
X61379054Y-44696781D01*
X61371563Y-44694347D01*
X61085741Y-44620961D01*
X61077970Y-44619479D01*
X60785230Y-44582497D01*
X60777340Y-44582000D01*
X60482260Y-44582000D01*
X60474370Y-44582497D01*
X60181630Y-44619479D01*
X60173859Y-44620961D01*
X59888037Y-44694347D01*
X59880546Y-44696781D01*
X59606169Y-44805415D01*
X59599034Y-44808772D01*
X59340450Y-44950930D01*
X59333770Y-44955170D01*
X59128570Y-45104256D01*
X59120147Y-45115179D01*
X55473649Y-45115179D01*
X55518342Y-44977628D01*
X55520703Y-44955170D01*
X55537614Y-44794265D01*
X55538304Y-44787700D01*
X55520779Y-44620961D01*
X55519032Y-44604335D01*
X55519032Y-44604333D01*
X55518342Y-44597772D01*
X55459327Y-44416144D01*
X55363840Y-44250756D01*
X55236053Y-44108834D01*
X55081552Y-43996582D01*
X55075524Y-43993898D01*
X55075522Y-43993897D01*
X54913119Y-43921591D01*
X54913118Y-43921591D01*
X54907088Y-43918906D01*
X54813688Y-43899053D01*
X54726744Y-43880572D01*
X54726739Y-43880572D01*
X54720287Y-43879200D01*
X54529313Y-43879200D01*
X54522861Y-43880572D01*
X54522856Y-43880572D01*
X54435912Y-43899053D01*
X54342512Y-43918906D01*
X54336482Y-43921591D01*
X54336481Y-43921591D01*
X54174078Y-43993897D01*
X54174076Y-43993898D01*
X54168048Y-43996582D01*
X54013547Y-44108834D01*
X53885760Y-44250756D01*
X53790273Y-44416144D01*
X53731258Y-44597772D01*
X53730568Y-44604333D01*
X53730568Y-44604335D01*
X53728821Y-44620961D01*
X53711296Y-44787700D01*
X53711986Y-44794265D01*
X53728898Y-44955170D01*
X53731258Y-44977628D01*
X53790273Y-45159256D01*
X53885760Y-45324644D01*
X53958937Y-45405915D01*
X53989653Y-45469921D01*
X53991300Y-45490224D01*
X53991300Y-49089432D01*
X53971298Y-49157553D01*
X53917642Y-49204046D01*
X53864996Y-49215431D01*
X52449189Y-49211975D01*
X52381121Y-49191807D01*
X52334759Y-49138038D01*
X52323500Y-49085976D01*
X52323500Y-40509500D01*
X52343502Y-40441379D01*
X52397158Y-40394886D01*
X52449500Y-40383500D01*
X52538134Y-40383500D01*
X52600316Y-40376745D01*
X52736705Y-40325615D01*
X52853261Y-40238261D01*
X52940615Y-40121705D01*
X52991745Y-39985316D01*
X52998500Y-39923134D01*
X52998500Y-39911468D01*
X53018502Y-39843347D01*
X53072158Y-39796854D01*
X53142432Y-39786750D01*
X53207012Y-39816244D01*
X53227713Y-39839197D01*
X53283802Y-39919300D01*
X53445700Y-40081198D01*
X53450208Y-40084355D01*
X53450211Y-40084357D01*
X53491542Y-40113297D01*
X53633251Y-40212523D01*
X53638233Y-40214846D01*
X53638238Y-40214849D01*
X53834765Y-40306490D01*
X53840757Y-40309284D01*
X53846065Y-40310706D01*
X53846067Y-40310707D01*
X54056598Y-40367119D01*
X54056600Y-40367119D01*
X54061913Y-40368543D01*
X54290000Y-40388498D01*
X54518087Y-40368543D01*
X54523400Y-40367119D01*
X54523402Y-40367119D01*
X54733933Y-40310707D01*
X54733935Y-40310706D01*
X54739243Y-40309284D01*
X54745235Y-40306490D01*
X54941762Y-40214849D01*
X54941767Y-40214846D01*
X54946749Y-40212523D01*
X55088458Y-40113297D01*
X55129789Y-40084357D01*
X55129792Y-40084355D01*
X55134300Y-40081198D01*
X55250905Y-39964593D01*
X55313217Y-39930567D01*
X55384032Y-39935632D01*
X55429095Y-39964593D01*
X55545700Y-40081198D01*
X55550208Y-40084355D01*
X55550211Y-40084357D01*
X55591542Y-40113297D01*
X55733251Y-40212523D01*
X55738233Y-40214846D01*
X55738238Y-40214849D01*
X55934765Y-40306490D01*
X55940757Y-40309284D01*
X55946065Y-40310706D01*
X55946067Y-40310707D01*
X56105000Y-40353293D01*
X56165623Y-40390245D01*
X56196644Y-40454106D01*
X56188216Y-40524600D01*
X56143013Y-40579347D01*
X56105000Y-40596707D01*
X55946067Y-40639293D01*
X55946065Y-40639294D01*
X55940757Y-40640716D01*
X55935776Y-40643039D01*
X55935775Y-40643039D01*
X55738238Y-40735151D01*
X55738233Y-40735154D01*
X55733251Y-40737477D01*
X55628389Y-40810902D01*
X55550211Y-40865643D01*
X55550208Y-40865645D01*
X55545700Y-40868802D01*
X55383802Y-41030700D01*
X55252477Y-41218251D01*
X55250154Y-41223233D01*
X55250151Y-41223238D01*
X55163695Y-41408646D01*
X55155716Y-41425757D01*
X55096457Y-41646913D01*
X55076502Y-41875000D01*
X55096457Y-42103087D01*
X55097881Y-42108400D01*
X55097881Y-42108402D01*
X55140809Y-42268608D01*
X55155716Y-42324243D01*
X55158039Y-42329224D01*
X55158039Y-42329225D01*
X55250151Y-42526762D01*
X55250154Y-42526767D01*
X55252477Y-42531749D01*
X55383802Y-42719300D01*
X55545700Y-42881198D01*
X55550208Y-42884355D01*
X55550211Y-42884357D01*
X55628389Y-42939098D01*
X55733251Y-43012523D01*
X55738233Y-43014846D01*
X55738238Y-43014849D01*
X55935775Y-43106961D01*
X55940757Y-43109284D01*
X55946065Y-43110706D01*
X55946067Y-43110707D01*
X56156598Y-43167119D01*
X56156600Y-43167119D01*
X56161913Y-43168543D01*
X56390000Y-43188498D01*
X56618087Y-43168543D01*
X56623400Y-43167119D01*
X56623402Y-43167119D01*
X56833933Y-43110707D01*
X56833935Y-43110706D01*
X56839243Y-43109284D01*
X56844225Y-43106961D01*
X57041762Y-43014849D01*
X57041767Y-43014846D01*
X57046749Y-43012523D01*
X57151611Y-42939098D01*
X57229789Y-42884357D01*
X57229792Y-42884355D01*
X57234300Y-42881198D01*
X57396198Y-42719300D01*
X57527523Y-42531749D01*
X57529846Y-42526767D01*
X57529849Y-42526762D01*
X57621961Y-42329225D01*
X57621961Y-42329224D01*
X57624284Y-42324243D01*
X57639192Y-42268608D01*
X57682119Y-42108402D01*
X57682119Y-42108400D01*
X57683543Y-42103087D01*
X57703498Y-41875000D01*
X57683543Y-41646913D01*
X57624284Y-41425757D01*
X57616305Y-41408646D01*
X57529849Y-41223238D01*
X57529846Y-41223233D01*
X57527523Y-41218251D01*
X57396198Y-41030700D01*
X57234300Y-40868802D01*
X57229792Y-40865645D01*
X57229789Y-40865643D01*
X57151611Y-40810902D01*
X57046749Y-40737477D01*
X57041767Y-40735154D01*
X57041762Y-40735151D01*
X56844225Y-40643039D01*
X56844224Y-40643039D01*
X56839243Y-40640716D01*
X56833935Y-40639294D01*
X56833933Y-40639293D01*
X56675000Y-40596707D01*
X56614377Y-40559755D01*
X56583356Y-40495894D01*
X56591784Y-40425400D01*
X56636987Y-40370653D01*
X56675000Y-40353293D01*
X56833933Y-40310707D01*
X56833935Y-40310706D01*
X56839243Y-40309284D01*
X56845235Y-40306490D01*
X57041762Y-40214849D01*
X57041767Y-40214846D01*
X57046749Y-40212523D01*
X57188458Y-40113297D01*
X57229789Y-40084357D01*
X57229792Y-40084355D01*
X57234300Y-40081198D01*
X57396198Y-39919300D01*
X57527523Y-39731749D01*
X57529846Y-39726767D01*
X57529849Y-39726762D01*
X57621961Y-39529225D01*
X57621961Y-39529224D01*
X57624284Y-39524243D01*
X57683543Y-39303087D01*
X57703498Y-39075000D01*
X57683543Y-38846913D01*
X57624284Y-38625757D01*
X57603003Y-38580120D01*
X57529849Y-38423238D01*
X57529846Y-38423233D01*
X57527523Y-38418251D01*
X57396198Y-38230700D01*
X57234300Y-38068802D01*
X57229792Y-38065645D01*
X57229789Y-38065643D01*
X57078879Y-37959975D01*
X57046749Y-37937477D01*
X57041767Y-37935154D01*
X57041762Y-37935151D01*
X56844225Y-37843039D01*
X56844224Y-37843039D01*
X56839243Y-37840716D01*
X56833935Y-37839294D01*
X56833933Y-37839293D01*
X56623402Y-37782881D01*
X56623400Y-37782881D01*
X56618087Y-37781457D01*
X56390000Y-37761502D01*
X56161913Y-37781457D01*
X56156600Y-37782881D01*
X56156598Y-37782881D01*
X55946067Y-37839293D01*
X55946065Y-37839294D01*
X55940757Y-37840716D01*
X55935776Y-37843039D01*
X55935775Y-37843039D01*
X55738238Y-37935151D01*
X55738233Y-37935154D01*
X55733251Y-37937477D01*
X55701121Y-37959975D01*
X55550211Y-38065643D01*
X55550208Y-38065645D01*
X55545700Y-38068802D01*
X55429095Y-38185407D01*
X55366783Y-38219433D01*
X55295968Y-38214368D01*
X55250905Y-38185407D01*
X55134300Y-38068802D01*
X55129792Y-38065645D01*
X55129789Y-38065643D01*
X54978879Y-37959975D01*
X54946749Y-37937477D01*
X54941767Y-37935154D01*
X54941762Y-37935151D01*
X54744225Y-37843039D01*
X54744224Y-37843039D01*
X54739243Y-37840716D01*
X54733935Y-37839294D01*
X54733933Y-37839293D01*
X54523402Y-37782881D01*
X54523400Y-37782881D01*
X54518087Y-37781457D01*
X54290000Y-37761502D01*
X54061913Y-37781457D01*
X54056600Y-37782881D01*
X54056598Y-37782881D01*
X53846067Y-37839293D01*
X53846065Y-37839294D01*
X53840757Y-37840716D01*
X53835776Y-37843039D01*
X53835775Y-37843039D01*
X53638238Y-37935151D01*
X53638233Y-37935154D01*
X53633251Y-37937477D01*
X53601121Y-37959975D01*
X53450211Y-38065643D01*
X53450208Y-38065645D01*
X53445700Y-38068802D01*
X53283802Y-38230700D01*
X53280645Y-38235208D01*
X53280643Y-38235211D01*
X53227713Y-38310803D01*
X53172256Y-38355131D01*
X53101636Y-38362440D01*
X53038276Y-38330409D01*
X53002291Y-38269208D01*
X52998500Y-38238532D01*
X52998500Y-38226866D01*
X52991745Y-38164684D01*
X52940615Y-38028295D01*
X52853261Y-37911739D01*
X52736705Y-37824385D01*
X52600316Y-37773255D01*
X52538134Y-37766500D01*
X50841866Y-37766500D01*
X50779684Y-37773255D01*
X50643295Y-37824385D01*
X50526739Y-37911739D01*
X50521358Y-37918919D01*
X50521356Y-37918921D01*
X50490587Y-37959975D01*
X50433727Y-38002490D01*
X50362909Y-38007514D01*
X50317491Y-37987622D01*
X50251006Y-37941069D01*
X50241511Y-37935586D01*
X50044053Y-37843510D01*
X50033761Y-37839764D01*
X49823312Y-37783375D01*
X49812519Y-37781472D01*
X49595475Y-37762483D01*
X49584525Y-37762483D01*
X49367481Y-37781472D01*
X49356688Y-37783375D01*
X49146239Y-37839764D01*
X49135947Y-37843510D01*
X48938489Y-37935586D01*
X48928994Y-37941069D01*
X48876952Y-37977509D01*
X48868576Y-37987988D01*
X48875644Y-38001434D01*
X49860115Y-38985905D01*
X49894141Y-39048217D01*
X49889076Y-39119032D01*
X49860115Y-39164095D01*
X48874923Y-40149287D01*
X48868493Y-40161062D01*
X48877789Y-40173077D01*
X48928994Y-40208931D01*
X48938489Y-40214414D01*
X49135947Y-40306490D01*
X49146239Y-40310236D01*
X49305965Y-40353034D01*
X49366588Y-40389986D01*
X49397609Y-40453846D01*
X49389181Y-40524341D01*
X49343978Y-40579088D01*
X49305966Y-40596448D01*
X49179973Y-40630208D01*
X49140757Y-40640716D01*
X49135776Y-40643039D01*
X49135775Y-40643039D01*
X48938238Y-40735151D01*
X48938233Y-40735154D01*
X48933251Y-40737477D01*
X48828389Y-40810902D01*
X48750211Y-40865643D01*
X48750208Y-40865645D01*
X48745700Y-40868802D01*
X48583802Y-41030700D01*
X48452477Y-41218251D01*
X48450154Y-41223233D01*
X48450151Y-41223238D01*
X48363695Y-41408646D01*
X48355716Y-41425757D01*
X48296457Y-41646913D01*
X48276502Y-41875000D01*
X48296457Y-42103087D01*
X48297881Y-42108400D01*
X48297881Y-42108402D01*
X48340809Y-42268608D01*
X48355716Y-42324243D01*
X48358039Y-42329224D01*
X48358039Y-42329225D01*
X48450151Y-42526762D01*
X48450154Y-42526767D01*
X48452477Y-42531749D01*
X48583802Y-42719300D01*
X48745700Y-42881198D01*
X48750208Y-42884355D01*
X48750211Y-42884357D01*
X48828389Y-42939098D01*
X48933251Y-43012523D01*
X48938233Y-43014846D01*
X48938238Y-43014849D01*
X49135775Y-43106961D01*
X49140757Y-43109284D01*
X49146065Y-43110706D01*
X49146067Y-43110707D01*
X49356598Y-43167119D01*
X49356600Y-43167119D01*
X49361913Y-43168543D01*
X49590000Y-43188498D01*
X49818087Y-43168543D01*
X49823400Y-43167119D01*
X49823402Y-43167119D01*
X50033933Y-43110707D01*
X50033935Y-43110706D01*
X50039243Y-43109284D01*
X50044225Y-43106961D01*
X50241762Y-43014849D01*
X50241767Y-43014846D01*
X50246749Y-43012523D01*
X50351611Y-42939098D01*
X50429789Y-42884357D01*
X50429792Y-42884355D01*
X50434300Y-42881198D01*
X50596198Y-42719300D01*
X50727523Y-42531749D01*
X50729846Y-42526767D01*
X50729849Y-42526762D01*
X50816305Y-42341354D01*
X50863222Y-42288069D01*
X50931499Y-42268608D01*
X50999459Y-42289150D01*
X51045525Y-42343172D01*
X51056500Y-42394604D01*
X51056500Y-49082268D01*
X51036498Y-49150389D01*
X50982842Y-49196882D01*
X50930195Y-49208267D01*
X44152336Y-49191723D01*
X44084267Y-49171554D01*
X44037905Y-49117785D01*
X44027070Y-49076047D01*
X44017276Y-48956922D01*
X44016852Y-48951761D01*
X43962431Y-48735102D01*
X43873354Y-48530240D01*
X43752014Y-48342677D01*
X43748532Y-48338850D01*
X43604798Y-48180888D01*
X43573746Y-48117042D01*
X43582141Y-48046543D01*
X43627317Y-47991775D01*
X43653761Y-47978106D01*
X43760297Y-47938167D01*
X43768705Y-47935015D01*
X43885261Y-47847661D01*
X43972615Y-47731105D01*
X44023745Y-47594716D01*
X44030500Y-47532534D01*
X44030500Y-45736266D01*
X44023745Y-45674084D01*
X43972615Y-45537695D01*
X43885261Y-45421139D01*
X43768705Y-45333785D01*
X43632316Y-45282655D01*
X43570134Y-45275900D01*
X41773866Y-45275900D01*
X41711684Y-45282655D01*
X41575295Y-45333785D01*
X41458739Y-45421139D01*
X41371385Y-45537695D01*
X41320255Y-45674084D01*
X41313500Y-45736266D01*
X41313500Y-47532534D01*
X41320255Y-47594716D01*
X41371385Y-47731105D01*
X41458739Y-47847661D01*
X41575295Y-47935015D01*
X41583704Y-47938167D01*
X41583705Y-47938168D01*
X41692451Y-47978935D01*
X41749216Y-48021576D01*
X41773916Y-48088138D01*
X41758709Y-48157487D01*
X41739316Y-48183968D01*
X41612629Y-48316538D01*
X41486743Y-48501080D01*
X41392688Y-48703705D01*
X41332989Y-48918970D01*
X41332441Y-48924102D01*
X41332440Y-48924105D01*
X41316647Y-49071884D01*
X41289519Y-49137493D01*
X41231226Y-49178021D01*
X41191052Y-49184494D01*
X40972024Y-49183959D01*
X39927992Y-49181411D01*
X39859921Y-49161242D01*
X39813559Y-49107473D01*
X39802300Y-49055411D01*
X39802300Y-41822366D01*
X41340257Y-41822366D01*
X41370565Y-41956846D01*
X41373645Y-41966675D01*
X41453770Y-42164003D01*
X41458413Y-42173194D01*
X41569694Y-42354788D01*
X41575777Y-42363099D01*
X41715213Y-42524067D01*
X41722580Y-42531283D01*
X41886434Y-42667316D01*
X41894881Y-42673231D01*
X42078756Y-42780679D01*
X42088042Y-42785129D01*
X42287001Y-42861103D01*
X42296899Y-42863979D01*
X42400250Y-42885006D01*
X42414299Y-42883810D01*
X42418000Y-42873465D01*
X42418000Y-42872917D01*
X42926000Y-42872917D01*
X42930064Y-42886759D01*
X42943478Y-42888793D01*
X42950184Y-42887934D01*
X42960262Y-42885792D01*
X43164255Y-42824591D01*
X43173842Y-42820833D01*
X43365095Y-42727139D01*
X43373945Y-42721864D01*
X43547328Y-42598192D01*
X43555200Y-42591539D01*
X43706052Y-42441212D01*
X43712730Y-42433365D01*
X43837003Y-42260420D01*
X43842313Y-42251583D01*
X43936670Y-42060667D01*
X43940469Y-42051072D01*
X44002377Y-41847310D01*
X44004555Y-41837237D01*
X44005986Y-41826362D01*
X44003775Y-41812178D01*
X43990617Y-41808400D01*
X42944115Y-41808400D01*
X42928876Y-41812875D01*
X42927671Y-41814265D01*
X42926000Y-41821948D01*
X42926000Y-42872917D01*
X42418000Y-42872917D01*
X42418000Y-41826515D01*
X42413525Y-41811276D01*
X42412135Y-41810071D01*
X42404452Y-41808400D01*
X41355225Y-41808400D01*
X41341694Y-41812373D01*
X41340257Y-41822366D01*
X39802300Y-41822366D01*
X39802300Y-38981095D01*
X41309251Y-38981095D01*
X41309548Y-38986248D01*
X41309548Y-38986251D01*
X41321812Y-39198947D01*
X41322110Y-39204115D01*
X41323247Y-39209161D01*
X41323248Y-39209167D01*
X41343119Y-39297339D01*
X41371222Y-39422039D01*
X41455266Y-39629016D01*
X41457965Y-39633420D01*
X41552721Y-39788048D01*
X41571987Y-39819488D01*
X41718250Y-39988338D01*
X41794846Y-40051929D01*
X41878892Y-40121705D01*
X41890126Y-40131032D01*
X41962078Y-40173077D01*
X41963955Y-40174174D01*
X42012679Y-40225812D01*
X42025750Y-40295595D01*
X41999019Y-40361367D01*
X41958562Y-40394727D01*
X41950457Y-40398946D01*
X41941738Y-40404436D01*
X41771433Y-40532305D01*
X41763726Y-40539148D01*
X41616590Y-40693117D01*
X41610104Y-40701127D01*
X41490098Y-40877049D01*
X41485000Y-40886023D01*
X41395338Y-41079183D01*
X41391775Y-41088870D01*
X41336389Y-41288583D01*
X41337912Y-41297007D01*
X41350292Y-41300400D01*
X43990344Y-41300400D01*
X44003875Y-41296427D01*
X44005180Y-41287347D01*
X43963214Y-41120275D01*
X43959894Y-41110524D01*
X43874972Y-40915214D01*
X43870105Y-40906139D01*
X43754426Y-40727326D01*
X43748136Y-40719157D01*
X43604806Y-40561640D01*
X43597273Y-40554615D01*
X43430139Y-40422622D01*
X43421556Y-40416920D01*
X43384602Y-40396520D01*
X43334631Y-40346087D01*
X43319859Y-40276645D01*
X43344975Y-40210239D01*
X43372327Y-40183632D01*
X43420477Y-40149287D01*
X43551860Y-40055573D01*
X43710096Y-39897889D01*
X43769594Y-39815089D01*
X43837435Y-39720677D01*
X43840453Y-39716477D01*
X43935461Y-39524243D01*
X43937136Y-39520853D01*
X43937137Y-39520851D01*
X43939430Y-39516211D01*
X44001866Y-39310712D01*
X44002865Y-39307423D01*
X44002865Y-39307421D01*
X44004370Y-39302469D01*
X44033529Y-39080990D01*
X44033542Y-39080475D01*
X48277483Y-39080475D01*
X48296472Y-39297519D01*
X48298375Y-39308312D01*
X48354764Y-39518761D01*
X48358510Y-39529053D01*
X48450586Y-39726511D01*
X48456069Y-39736006D01*
X48492509Y-39788048D01*
X48502988Y-39796424D01*
X48516434Y-39789356D01*
X49217978Y-39087812D01*
X49225592Y-39073868D01*
X49225461Y-39072035D01*
X49221210Y-39065420D01*
X48515713Y-38359923D01*
X48503938Y-38353493D01*
X48491923Y-38362789D01*
X48456069Y-38413994D01*
X48450586Y-38423489D01*
X48358510Y-38620947D01*
X48354764Y-38631239D01*
X48298375Y-38841688D01*
X48296472Y-38852481D01*
X48277483Y-39069525D01*
X48277483Y-39080475D01*
X44033542Y-39080475D01*
X44033611Y-39077640D01*
X44035074Y-39017765D01*
X44035074Y-39017761D01*
X44035156Y-39014400D01*
X44016852Y-38791761D01*
X43962431Y-38575102D01*
X43873354Y-38370240D01*
X43819906Y-38287622D01*
X43754822Y-38187017D01*
X43754820Y-38187014D01*
X43752014Y-38182677D01*
X43735642Y-38164684D01*
X43604798Y-38020888D01*
X43573746Y-37957042D01*
X43582141Y-37886543D01*
X43627317Y-37831775D01*
X43653761Y-37818106D01*
X43760297Y-37778167D01*
X43768705Y-37775015D01*
X43885261Y-37687661D01*
X43972615Y-37571105D01*
X44023745Y-37434716D01*
X44030500Y-37372534D01*
X44030500Y-37033456D01*
X44632000Y-37033456D01*
X44632202Y-37038488D01*
X44646150Y-37211843D01*
X44647762Y-37221796D01*
X44703233Y-37447633D01*
X44706416Y-37457203D01*
X44797280Y-37671265D01*
X44801955Y-37680207D01*
X44925874Y-37876987D01*
X44931914Y-37885060D01*
X45085703Y-38059500D01*
X45092956Y-38066504D01*
X45272654Y-38214110D01*
X45280936Y-38219866D01*
X45481919Y-38336841D01*
X45491024Y-38341203D01*
X45708115Y-38424537D01*
X45717804Y-38427388D01*
X45868264Y-38458821D01*
X45882325Y-38457698D01*
X45886000Y-38447590D01*
X45886000Y-38445590D01*
X46394000Y-38445590D01*
X46398136Y-38459676D01*
X46411114Y-38461725D01*
X46428830Y-38459675D01*
X46438727Y-38457715D01*
X46662494Y-38394396D01*
X46671938Y-38390884D01*
X46882705Y-38292601D01*
X46891471Y-38287622D01*
X47083802Y-38156913D01*
X47091677Y-38150581D01*
X47260626Y-37990814D01*
X47267387Y-37983305D01*
X47408625Y-37798574D01*
X47414089Y-37790095D01*
X47523978Y-37585153D01*
X47528020Y-37575901D01*
X47603727Y-37356029D01*
X47606236Y-37346257D01*
X47646004Y-37116029D01*
X47646859Y-37108157D01*
X47647936Y-37084449D01*
X47648000Y-37081616D01*
X47648000Y-37033456D01*
X58332000Y-37033456D01*
X58332202Y-37038488D01*
X58346150Y-37211843D01*
X58347762Y-37221796D01*
X58403233Y-37447633D01*
X58406416Y-37457203D01*
X58497280Y-37671265D01*
X58501955Y-37680207D01*
X58625874Y-37876987D01*
X58631914Y-37885060D01*
X58785703Y-38059500D01*
X58792956Y-38066504D01*
X58972654Y-38214110D01*
X58980936Y-38219866D01*
X59181919Y-38336841D01*
X59191024Y-38341203D01*
X59408115Y-38424537D01*
X59417804Y-38427388D01*
X59568264Y-38458821D01*
X59582325Y-38457698D01*
X59586000Y-38447590D01*
X59586000Y-38445590D01*
X60094000Y-38445590D01*
X60098136Y-38459676D01*
X60111114Y-38461725D01*
X60128830Y-38459675D01*
X60138727Y-38457715D01*
X60362494Y-38394396D01*
X60371938Y-38390884D01*
X60582705Y-38292601D01*
X60591471Y-38287622D01*
X60783802Y-38156913D01*
X60791677Y-38150581D01*
X60960626Y-37990814D01*
X60967387Y-37983305D01*
X61108625Y-37798574D01*
X61114089Y-37790095D01*
X61223978Y-37585153D01*
X61228020Y-37575901D01*
X61303727Y-37356029D01*
X61306236Y-37346257D01*
X61346004Y-37116029D01*
X61346859Y-37108157D01*
X61347936Y-37084449D01*
X61348000Y-37081616D01*
X61348000Y-36497115D01*
X61343525Y-36481876D01*
X61342135Y-36480671D01*
X61334452Y-36479000D01*
X60112115Y-36479000D01*
X60096876Y-36483475D01*
X60095671Y-36484865D01*
X60094000Y-36492548D01*
X60094000Y-38445590D01*
X59586000Y-38445590D01*
X59586000Y-36497115D01*
X59581525Y-36481876D01*
X59580135Y-36480671D01*
X59572452Y-36479000D01*
X58350115Y-36479000D01*
X58334876Y-36483475D01*
X58333671Y-36484865D01*
X58332000Y-36492548D01*
X58332000Y-37033456D01*
X47648000Y-37033456D01*
X47648000Y-36497115D01*
X47643525Y-36481876D01*
X47642135Y-36480671D01*
X47634452Y-36479000D01*
X46412115Y-36479000D01*
X46396876Y-36483475D01*
X46395671Y-36484865D01*
X46394000Y-36492548D01*
X46394000Y-38445590D01*
X45886000Y-38445590D01*
X45886000Y-36497115D01*
X45881525Y-36481876D01*
X45880135Y-36480671D01*
X45872452Y-36479000D01*
X44650115Y-36479000D01*
X44634876Y-36483475D01*
X44633671Y-36484865D01*
X44632000Y-36492548D01*
X44632000Y-37033456D01*
X44030500Y-37033456D01*
X44030500Y-35952885D01*
X44632000Y-35952885D01*
X44636475Y-35968124D01*
X44637865Y-35969329D01*
X44645548Y-35971000D01*
X45867885Y-35971000D01*
X45883124Y-35966525D01*
X45884329Y-35965135D01*
X45886000Y-35957452D01*
X45886000Y-35952885D01*
X46394000Y-35952885D01*
X46398475Y-35968124D01*
X46399865Y-35969329D01*
X46407548Y-35971000D01*
X47629885Y-35971000D01*
X47645124Y-35966525D01*
X47646329Y-35965135D01*
X47648000Y-35957452D01*
X47648000Y-35696114D01*
X50503275Y-35696114D01*
X50505325Y-35713830D01*
X50507285Y-35723727D01*
X50570604Y-35947494D01*
X50574116Y-35956938D01*
X50672399Y-36167705D01*
X50677378Y-36176471D01*
X50808087Y-36368802D01*
X50814419Y-36376677D01*
X50974186Y-36545626D01*
X50981695Y-36552387D01*
X51166426Y-36693625D01*
X51174905Y-36699089D01*
X51379847Y-36808978D01*
X51389099Y-36813020D01*
X51608971Y-36888727D01*
X51618743Y-36891236D01*
X51848971Y-36931004D01*
X51856843Y-36931859D01*
X51880551Y-36932936D01*
X51883384Y-36933000D01*
X52717885Y-36933000D01*
X52733124Y-36928525D01*
X52734329Y-36927135D01*
X52736000Y-36919452D01*
X52736000Y-36914885D01*
X53244000Y-36914885D01*
X53248475Y-36930124D01*
X53249865Y-36931329D01*
X53257548Y-36933000D01*
X54048456Y-36933000D01*
X54053488Y-36932798D01*
X54226843Y-36918850D01*
X54236796Y-36917238D01*
X54462633Y-36861767D01*
X54472203Y-36858584D01*
X54686265Y-36767720D01*
X54695207Y-36763045D01*
X54891987Y-36639126D01*
X54900060Y-36633086D01*
X55074500Y-36479297D01*
X55081504Y-36472044D01*
X55229110Y-36292346D01*
X55234866Y-36284064D01*
X55351841Y-36083081D01*
X55356203Y-36073976D01*
X55402686Y-35952885D01*
X58332000Y-35952885D01*
X58336475Y-35968124D01*
X58337865Y-35969329D01*
X58345548Y-35971000D01*
X59567885Y-35971000D01*
X59583124Y-35966525D01*
X59584329Y-35965135D01*
X59586000Y-35957452D01*
X59586000Y-35952885D01*
X60094000Y-35952885D01*
X60098475Y-35968124D01*
X60099865Y-35969329D01*
X60107548Y-35971000D01*
X61329885Y-35971000D01*
X61345124Y-35966525D01*
X61346329Y-35965135D01*
X61348000Y-35957452D01*
X61348000Y-35416544D01*
X61347798Y-35411512D01*
X61333850Y-35238157D01*
X61332238Y-35228204D01*
X61276767Y-35002367D01*
X61273584Y-34992797D01*
X61182720Y-34778735D01*
X61178045Y-34769793D01*
X61054126Y-34573013D01*
X61048086Y-34564940D01*
X60894297Y-34390500D01*
X60887044Y-34383496D01*
X60707346Y-34235890D01*
X60699064Y-34230134D01*
X60498081Y-34113159D01*
X60488976Y-34108797D01*
X60271885Y-34025463D01*
X60262196Y-34022612D01*
X60111736Y-33991179D01*
X60097675Y-33992302D01*
X60094000Y-34002410D01*
X60094000Y-35952885D01*
X59586000Y-35952885D01*
X59586000Y-34004410D01*
X59581864Y-33990324D01*
X59568886Y-33988275D01*
X59551170Y-33990325D01*
X59541273Y-33992285D01*
X59317506Y-34055604D01*
X59308062Y-34059116D01*
X59097295Y-34157399D01*
X59088529Y-34162378D01*
X58896198Y-34293087D01*
X58888323Y-34299419D01*
X58719374Y-34459186D01*
X58712613Y-34466695D01*
X58571375Y-34651426D01*
X58565911Y-34659905D01*
X58456022Y-34864847D01*
X58451980Y-34874099D01*
X58376273Y-35093971D01*
X58373764Y-35103743D01*
X58333996Y-35333971D01*
X58333141Y-35341843D01*
X58332064Y-35365551D01*
X58332000Y-35368384D01*
X58332000Y-35952885D01*
X55402686Y-35952885D01*
X55439537Y-35856885D01*
X55442388Y-35847196D01*
X55473821Y-35696736D01*
X55472698Y-35682675D01*
X55462590Y-35679000D01*
X53262115Y-35679000D01*
X53246876Y-35683475D01*
X53245671Y-35684865D01*
X53244000Y-35692548D01*
X53244000Y-36914885D01*
X52736000Y-36914885D01*
X52736000Y-35697115D01*
X52731525Y-35681876D01*
X52730135Y-35680671D01*
X52722452Y-35679000D01*
X50519410Y-35679000D01*
X50505324Y-35683136D01*
X50503275Y-35696114D01*
X47648000Y-35696114D01*
X47648000Y-35416544D01*
X47647798Y-35411512D01*
X47633850Y-35238157D01*
X47632238Y-35228204D01*
X47613831Y-35153264D01*
X50506179Y-35153264D01*
X50507302Y-35167325D01*
X50517410Y-35171000D01*
X52717885Y-35171000D01*
X52733124Y-35166525D01*
X52734329Y-35165135D01*
X52736000Y-35157452D01*
X52736000Y-35152885D01*
X53244000Y-35152885D01*
X53248475Y-35168124D01*
X53249865Y-35169329D01*
X53257548Y-35171000D01*
X55460590Y-35171000D01*
X55474676Y-35166864D01*
X55476725Y-35153886D01*
X55474675Y-35136170D01*
X55472715Y-35126273D01*
X55409396Y-34902506D01*
X55405884Y-34893062D01*
X55307601Y-34682295D01*
X55302622Y-34673529D01*
X55171913Y-34481198D01*
X55165581Y-34473323D01*
X55005814Y-34304374D01*
X54998305Y-34297613D01*
X54813574Y-34156375D01*
X54805095Y-34150911D01*
X54600153Y-34041022D01*
X54590901Y-34036980D01*
X54371029Y-33961273D01*
X54361257Y-33958764D01*
X54131029Y-33918996D01*
X54123157Y-33918141D01*
X54099449Y-33917064D01*
X54096616Y-33917000D01*
X53262115Y-33917000D01*
X53246876Y-33921475D01*
X53245671Y-33922865D01*
X53244000Y-33930548D01*
X53244000Y-35152885D01*
X52736000Y-35152885D01*
X52736000Y-33935115D01*
X52731525Y-33919876D01*
X52730135Y-33918671D01*
X52722452Y-33917000D01*
X51931544Y-33917000D01*
X51926512Y-33917202D01*
X51753157Y-33931150D01*
X51743204Y-33932762D01*
X51517367Y-33988233D01*
X51507797Y-33991416D01*
X51293735Y-34082280D01*
X51284793Y-34086955D01*
X51088013Y-34210874D01*
X51079940Y-34216914D01*
X50905500Y-34370703D01*
X50898496Y-34377956D01*
X50750890Y-34557654D01*
X50745134Y-34565936D01*
X50628159Y-34766919D01*
X50623797Y-34776024D01*
X50540463Y-34993115D01*
X50537612Y-35002804D01*
X50506179Y-35153264D01*
X47613831Y-35153264D01*
X47576767Y-35002367D01*
X47573584Y-34992797D01*
X47482720Y-34778735D01*
X47478045Y-34769793D01*
X47354126Y-34573013D01*
X47348086Y-34564940D01*
X47194297Y-34390500D01*
X47187044Y-34383496D01*
X47007346Y-34235890D01*
X46999064Y-34230134D01*
X46798081Y-34113159D01*
X46788976Y-34108797D01*
X46571885Y-34025463D01*
X46562196Y-34022612D01*
X46411736Y-33991179D01*
X46397675Y-33992302D01*
X46394000Y-34002410D01*
X46394000Y-35952885D01*
X45886000Y-35952885D01*
X45886000Y-34004410D01*
X45881864Y-33990324D01*
X45868886Y-33988275D01*
X45851170Y-33990325D01*
X45841273Y-33992285D01*
X45617506Y-34055604D01*
X45608062Y-34059116D01*
X45397295Y-34157399D01*
X45388529Y-34162378D01*
X45196198Y-34293087D01*
X45188323Y-34299419D01*
X45019374Y-34459186D01*
X45012613Y-34466695D01*
X44871375Y-34651426D01*
X44865911Y-34659905D01*
X44756022Y-34864847D01*
X44751980Y-34874099D01*
X44676273Y-35093971D01*
X44673764Y-35103743D01*
X44633996Y-35333971D01*
X44633141Y-35341843D01*
X44632064Y-35365551D01*
X44632000Y-35368384D01*
X44632000Y-35952885D01*
X44030500Y-35952885D01*
X44030500Y-35576266D01*
X44023745Y-35514084D01*
X43972615Y-35377695D01*
X43885261Y-35261139D01*
X43768705Y-35173785D01*
X43632316Y-35122655D01*
X43570134Y-35115900D01*
X41773866Y-35115900D01*
X41711684Y-35122655D01*
X41575295Y-35173785D01*
X41458739Y-35261139D01*
X41371385Y-35377695D01*
X41320255Y-35514084D01*
X41313500Y-35576266D01*
X41313500Y-37372534D01*
X41320255Y-37434716D01*
X41371385Y-37571105D01*
X41458739Y-37687661D01*
X41575295Y-37775015D01*
X41583704Y-37778167D01*
X41583705Y-37778168D01*
X41692451Y-37818935D01*
X41749216Y-37861576D01*
X41773916Y-37928138D01*
X41758709Y-37997487D01*
X41739316Y-38023968D01*
X41618322Y-38150581D01*
X41612629Y-38156538D01*
X41609715Y-38160810D01*
X41609714Y-38160811D01*
X41566972Y-38223469D01*
X41486743Y-38341080D01*
X41392688Y-38543705D01*
X41332989Y-38758970D01*
X41309251Y-38981095D01*
X39802300Y-38981095D01*
X39802300Y-31063700D01*
X39822302Y-30995579D01*
X39875958Y-30949086D01*
X39928300Y-30937700D01*
X63365500Y-30937700D01*
X63433621Y-30957702D01*
G37*
%TD.AperFunction*%
%TD*%
M02*
