%TF.GenerationSoftware,KiCad,Pcbnew,(6.0.7)*%
%TF.CreationDate,2023-01-02T00:51:12+00:00*%
%TF.ProjectId,CPC464-2MINIPS2,43504334-3634-42d3-924d-494e49505332,rev?*%
%TF.SameCoordinates,Original*%
%TF.FileFunction,Soldermask,Bot*%
%TF.FilePolarity,Negative*%
%FSLAX46Y46*%
G04 Gerber Fmt 4.6, Leading zero omitted, Abs format (unit mm)*
G04 Created by KiCad (PCBNEW (6.0.7)) date 2023-01-02 00:51:12*
%MOMM*%
%LPD*%
G01*
G04 APERTURE LIST*
%ADD10C,3.800000*%
%ADD11C,1.500000*%
%ADD12R,1.600000X1.600000*%
%ADD13C,1.600000*%
%ADD14O,4.000000X2.000000*%
%ADD15O,2.000000X3.500000*%
%ADD16R,1.700000X1.700000*%
%ADD17O,1.700000X1.700000*%
G04 APERTURE END LIST*
D10*
%TO.C,H9*%
X60629800Y-46990000D03*
%TD*%
D11*
%TO.C,Y800*%
X53900000Y-60750000D03*
X49020000Y-60750000D03*
%TD*%
D12*
%TO.C,J804*%
X51690000Y-39075000D03*
D13*
X54290000Y-39075000D03*
X49590000Y-39075000D03*
X56390000Y-39075000D03*
X49590000Y-41875000D03*
X56390000Y-41875000D03*
D14*
X52990000Y-35425000D03*
D15*
X59840000Y-36225000D03*
X46140000Y-36225000D03*
%TD*%
D16*
%TO.C,J800*%
X62125000Y-56425000D03*
D17*
X59585000Y-56425000D03*
X62125000Y-53885000D03*
X59585000Y-53885000D03*
X62125000Y-51345000D03*
X59585000Y-51345000D03*
%TD*%
D16*
%TO.C,CP002*%
X42672000Y-46634400D03*
D17*
X42672000Y-49174400D03*
X42672000Y-51714400D03*
X42672000Y-54254400D03*
X42672000Y-56794400D03*
X42672000Y-59334400D03*
X42672000Y-61874400D03*
X42672000Y-64414400D03*
X42672000Y-66954400D03*
X42672000Y-69494400D03*
X42672000Y-72034400D03*
X42672000Y-74574400D03*
X42672000Y-77114400D03*
X42672000Y-79654400D03*
X42672000Y-82194400D03*
X42672000Y-84734400D03*
X42672000Y-87274400D03*
X42672000Y-89814400D03*
X42672000Y-92354400D03*
X42672000Y-94894400D03*
%TD*%
D16*
%TO.C,J105*%
X42672000Y-36474400D03*
D17*
X42672000Y-39014400D03*
X42672000Y-41554400D03*
%TD*%
M02*
