M48
; DRILL file {KiCad (6.0.7)} date Mon Jan  2 00:51:11 2023
; FORMAT={-:-/ absolute / inch / decimal}
; #@! TF.CreationDate,2023-01-02T00:51:11+00:00
; #@! TF.GenerationSoftware,Kicad,Pcbnew,(6.0.7)
; #@! TF.FileFunction,Plated,1,2,PTH
FMAT,2
INCH
; #@! TA.AperFunction,Plated,PTH,ViaDrill
T1C0.0157
; #@! TA.AperFunction,Plated,PTH,ComponentDrill
T2C0.0315
; #@! TA.AperFunction,Plated,PTH,ComponentDrill
T3C0.0394
; #@! TA.AperFunction,Plated,PTH,ComponentDrill
T4C0.0866
%
G90
G05
T1
X1.761Y-3.3647
X1.8065Y-2.6339
X1.8117Y-3.3654
X1.824Y-2.9203
X1.8681Y-3.5298
X1.9317Y-3.1109
X1.9666Y-3.0378
X1.9667Y-3.1785
X1.9917Y-3.8091
X1.9917Y-3.8378
X2.0105Y-3.6629
X2.0107Y-2.7333
X2.0238Y-3.0718
X2.0717Y-2.0572
X2.0827Y-3.6363
X2.1146Y-3.8098
X2.1153Y-3.1976
X2.1157Y-3.8362
X2.129Y-2.8969
X2.1457Y-3.6631
X2.1506Y-1.7633
X2.1814Y-2.8988
X2.1864Y-3.1378
X2.2033Y-2.3267
X2.2087Y-3.1878
X2.2102Y-3.4336
X2.2117Y-2.3931
X2.2283Y-2.0866
X2.2402Y-3.6486
X2.2421Y-3.0509
X2.2431Y-2.96
X2.2528Y-3.0072
X2.2599Y-3.3212
X2.2635Y-3.435
X2.27Y-2.2461
X2.2776Y-2.67
X2.295Y-3.5208
X2.2954Y-3.4802
X2.3152Y-3.5571
X2.3164Y-3.4404
X2.3379Y-3.2814
X2.405Y-2.8331
X2.4201Y-3.7988
X2.4236Y-3.4179
X2.4362Y-2.8
X2.4449Y-3.2829
X2.4662Y-3.1602
T2
X1.9299Y-2.3917
X1.9524Y-1.5384
X1.9524Y-1.6486
X2.035Y-1.5384
X2.122Y-2.3917
X2.1374Y-1.5384
X2.2201Y-1.5384
X2.2201Y-1.6486
T3
X1.68Y-1.436
X1.68Y-1.536
X1.68Y-1.636
X1.68Y-1.836
X1.68Y-1.936
X1.68Y-2.036
X1.68Y-2.136
X1.68Y-2.236
X1.68Y-2.336
X1.68Y-2.436
X1.68Y-2.536
X1.68Y-2.636
X1.68Y-2.736
X1.68Y-2.836
X1.68Y-2.936
X1.68Y-3.036
X1.68Y-3.136
X1.68Y-3.236
X1.68Y-3.336
X1.68Y-3.436
X1.68Y-3.536
X1.68Y-3.636
X1.68Y-3.736
X2.3459Y-2.0215
X2.3459Y-2.1215
X2.3459Y-2.2215
X2.4459Y-2.0215
X2.4459Y-2.1215
X2.4459Y-2.2215
T4
X2.387Y-1.85
T3
G00X1.8165Y-1.4557
M15
G01X1.8165Y-1.3967
M16
G05
G00X2.1256Y-1.3947
M15
G01X2.0469Y-1.3947
M16
G05
G00X2.3559Y-1.4557
M15
G01X2.3559Y-1.3967
M16
G05
T0
M30
