%TF.GenerationSoftware,KiCad,Pcbnew,(6.0.7)*%
%TF.CreationDate,2023-01-02T00:51:12+00:00*%
%TF.ProjectId,CPC464-2MINIPS2,43504334-3634-42d3-924d-494e49505332,rev?*%
%TF.SameCoordinates,Original*%
%TF.FileFunction,Copper,L1,Top*%
%TF.FilePolarity,Positive*%
%FSLAX46Y46*%
G04 Gerber Fmt 4.6, Leading zero omitted, Abs format (unit mm)*
G04 Created by KiCad (PCBNEW (6.0.7)) date 2023-01-02 00:51:12*
%MOMM*%
%LPD*%
G01*
G04 APERTURE LIST*
G04 Aperture macros list*
%AMRoundRect*
0 Rectangle with rounded corners*
0 $1 Rounding radius*
0 $2 $3 $4 $5 $6 $7 $8 $9 X,Y pos of 4 corners*
0 Add a 4 corners polygon primitive as box body*
4,1,4,$2,$3,$4,$5,$6,$7,$8,$9,$2,$3,0*
0 Add four circle primitives for the rounded corners*
1,1,$1+$1,$2,$3*
1,1,$1+$1,$4,$5*
1,1,$1+$1,$6,$7*
1,1,$1+$1,$8,$9*
0 Add four rect primitives between the rounded corners*
20,1,$1+$1,$2,$3,$4,$5,0*
20,1,$1+$1,$4,$5,$6,$7,0*
20,1,$1+$1,$6,$7,$8,$9,0*
20,1,$1+$1,$8,$9,$2,$3,0*%
%AMFreePoly0*
4,1,9,3.862500,-0.866500,0.737500,-0.866500,0.737500,-0.450000,-0.737500,-0.450000,-0.737500,0.450000,0.737500,0.450000,0.737500,0.866500,3.862500,0.866500,3.862500,-0.866500,3.862500,-0.866500,$1*%
G04 Aperture macros list end*
%TA.AperFunction,SMDPad,CuDef*%
%ADD10RoundRect,0.250000X0.450000X-0.262500X0.450000X0.262500X-0.450000X0.262500X-0.450000X-0.262500X0*%
%TD*%
%TA.AperFunction,SMDPad,CuDef*%
%ADD11RoundRect,0.250000X0.375000X0.625000X-0.375000X0.625000X-0.375000X-0.625000X0.375000X-0.625000X0*%
%TD*%
%TA.AperFunction,SMDPad,CuDef*%
%ADD12RoundRect,0.250000X0.250000X0.475000X-0.250000X0.475000X-0.250000X-0.475000X0.250000X-0.475000X0*%
%TD*%
%TA.AperFunction,ComponentPad*%
%ADD13C,3.800000*%
%TD*%
%TA.AperFunction,ComponentPad*%
%ADD14C,1.500000*%
%TD*%
%TA.AperFunction,SMDPad,CuDef*%
%ADD15RoundRect,0.250000X-0.262500X-0.450000X0.262500X-0.450000X0.262500X0.450000X-0.262500X0.450000X0*%
%TD*%
%TA.AperFunction,SMDPad,CuDef*%
%ADD16RoundRect,0.250000X0.262500X0.450000X-0.262500X0.450000X-0.262500X-0.450000X0.262500X-0.450000X0*%
%TD*%
%TA.AperFunction,SMDPad,CuDef*%
%ADD17R,1.300000X0.900000*%
%TD*%
%TA.AperFunction,SMDPad,CuDef*%
%ADD18FreePoly0,0.000000*%
%TD*%
%TA.AperFunction,ComponentPad*%
%ADD19R,1.600000X1.600000*%
%TD*%
%TA.AperFunction,ComponentPad*%
%ADD20C,1.600000*%
%TD*%
%TA.AperFunction,ComponentPad*%
%ADD21O,4.000000X2.000000*%
%TD*%
%TA.AperFunction,ComponentPad*%
%ADD22O,2.000000X3.500000*%
%TD*%
%TA.AperFunction,ComponentPad*%
%ADD23R,1.700000X1.700000*%
%TD*%
%TA.AperFunction,ComponentPad*%
%ADD24O,1.700000X1.700000*%
%TD*%
%TA.AperFunction,SMDPad,CuDef*%
%ADD25R,1.500000X0.550000*%
%TD*%
%TA.AperFunction,SMDPad,CuDef*%
%ADD26R,0.550000X1.500000*%
%TD*%
%TA.AperFunction,SMDPad,CuDef*%
%ADD27R,1.600000X0.550000*%
%TD*%
%TA.AperFunction,SMDPad,CuDef*%
%ADD28R,0.550000X1.600000*%
%TD*%
%TA.AperFunction,SMDPad,CuDef*%
%ADD29RoundRect,0.250000X-0.475000X0.250000X-0.475000X-0.250000X0.475000X-0.250000X0.475000X0.250000X0*%
%TD*%
%TA.AperFunction,SMDPad,CuDef*%
%ADD30RoundRect,0.250000X-0.250000X-0.475000X0.250000X-0.475000X0.250000X0.475000X-0.250000X0.475000X0*%
%TD*%
%TA.AperFunction,ViaPad*%
%ADD31C,0.800000*%
%TD*%
%TA.AperFunction,Conductor*%
%ADD32C,0.500000*%
%TD*%
%TA.AperFunction,Conductor*%
%ADD33C,0.750000*%
%TD*%
%TA.AperFunction,Conductor*%
%ADD34C,0.250000*%
%TD*%
G04 APERTURE END LIST*
D10*
%TO.P,R809,1*%
%TO.N,Net-(D810-Pad2)*%
X62590000Y-94502500D03*
%TO.P,R809,2*%
%TO.N,+5V*%
X62590000Y-92677500D03*
%TD*%
D11*
%TO.P,D810,1,K*%
%TO.N,GND*%
X62720000Y-96640000D03*
%TO.P,D810,2,A*%
%TO.N,Net-(D810-Pad2)*%
X59920000Y-96640000D03*
%TD*%
D12*
%TO.P,C807,1*%
%TO.N,GND*%
X49360000Y-96460000D03*
%TO.P,C807,2*%
%TO.N,+5V*%
X47460000Y-96460000D03*
%TD*%
D13*
%TO.P,H9,1,1*%
%TO.N,GND*%
X60629800Y-46990000D03*
%TD*%
D14*
%TO.P,Y800,1,1*%
%TO.N,Net-(C800-Pad1)*%
X53900000Y-60750000D03*
%TO.P,Y800,2,2*%
%TO.N,Net-(C801-Pad1)*%
X49020000Y-60750000D03*
%TD*%
D15*
%TO.P,R808,1*%
%TO.N,Net-(R808-Pad1)*%
X51837500Y-45750000D03*
%TO.P,R808,2*%
%TO.N,BREAK*%
X53662500Y-45750000D03*
%TD*%
D16*
%TO.P,R804,1*%
%TO.N,+5V*%
X53662500Y-49100000D03*
%TO.P,R804,2*%
%TO.N,ADRESET*%
X51837500Y-49100000D03*
%TD*%
D17*
%TO.P,Q800,1,B*%
%TO.N,Net-(R808-Pad1)*%
X46400000Y-47000000D03*
D18*
%TO.P,Q800,2,C*%
%TO.N,!RST*%
X46487500Y-48500000D03*
D17*
%TO.P,Q800,3,E*%
%TO.N,GND*%
X46400000Y-50000000D03*
%TD*%
D19*
%TO.P,J804,1*%
%TO.N,PS2-DATA*%
X51690000Y-39075000D03*
D20*
%TO.P,J804,2*%
%TO.N,unconnected-(J804-Pad2)*%
X54290000Y-39075000D03*
%TO.P,J804,3*%
%TO.N,GND*%
X49590000Y-39075000D03*
%TO.P,J804,4*%
%TO.N,+5V*%
X56390000Y-39075000D03*
%TO.P,J804,5*%
%TO.N,PS2-CLK*%
X49590000Y-41875000D03*
%TO.P,J804,6*%
%TO.N,unconnected-(J804-Pad6)*%
X56390000Y-41875000D03*
D21*
%TO.P,J804,7*%
%TO.N,GND*%
X52990000Y-35425000D03*
D22*
X59840000Y-36225000D03*
X46140000Y-36225000D03*
%TD*%
D23*
%TO.P,J800,1,Pin_1*%
%TO.N,PS2-DATA*%
X62125000Y-56425000D03*
D24*
%TO.P,J800,2,Pin_2*%
%TO.N,+5V*%
X59585000Y-56425000D03*
%TO.P,J800,3,Pin_3*%
%TO.N,ADSCK*%
X62125000Y-53885000D03*
%TO.P,J800,4,Pin_4*%
%TO.N,ADMOSI*%
X59585000Y-53885000D03*
%TO.P,J800,5,Pin_5*%
%TO.N,ADRESET*%
X62125000Y-51345000D03*
%TO.P,J800,6,Pin_6*%
%TO.N,GND*%
X59585000Y-51345000D03*
%TD*%
D25*
%TO.P,IC803,1,N/C*%
%TO.N,unconnected-(IC803-Pad1)*%
X48800000Y-84700000D03*
%TO.P,IC803,2,X14*%
%TO.N,/COL14*%
X48800000Y-85500000D03*
%TO.P,IC803,3,X15*%
%TO.N,/COL15*%
X48800000Y-86300000D03*
%TO.P,IC803,4,X6*%
%TO.N,/COL6*%
X48800000Y-87100000D03*
%TO.P,IC803,5,X7*%
%TO.N,/COL7*%
X48800000Y-87900000D03*
%TO.P,IC803,6,X8*%
%TO.N,/COL8*%
X48800000Y-88700000D03*
%TO.P,IC803,7,X9*%
%TO.N,/COL9*%
X48800000Y-89500000D03*
%TO.P,IC803,8,X10*%
%TO.N,/COL10*%
X48800000Y-90300000D03*
%TO.P,IC803,9,X11*%
%TO.N,/COL11*%
X48800000Y-91100000D03*
%TO.P,IC803,10,Y7*%
%TO.N,/ROW7*%
X48800000Y-91900000D03*
%TO.P,IC803,11,N/C*%
%TO.N,unconnected-(IC803-Pad11)*%
X48800000Y-92700000D03*
D26*
%TO.P,IC803,12,VSS*%
%TO.N,GND*%
X50500000Y-94400000D03*
%TO.P,IC803,13,Y6*%
%TO.N,/ROW6*%
X51300000Y-94400000D03*
%TO.P,IC803,14,STROBE*%
%TO.N,MTSTROBE*%
X52100000Y-94400000D03*
%TO.P,IC803,15,Y5*%
%TO.N,/ROW5*%
X52900000Y-94400000D03*
%TO.P,IC803,16,VEE*%
%TO.N,GND*%
X53700000Y-94400000D03*
%TO.P,IC803,17,Y4*%
%TO.N,/ROW4*%
X54500000Y-94400000D03*
%TO.P,IC803,18,AX1*%
%TO.N,AX1*%
X55300000Y-94400000D03*
%TO.P,IC803,19,AX2*%
%TO.N,AX2*%
X56100000Y-94400000D03*
%TO.P,IC803,20,AY0*%
%TO.N,AY0*%
X56900000Y-94400000D03*
%TO.P,IC803,21,AY1*%
%TO.N,AY1*%
X57700000Y-94400000D03*
%TO.P,IC803,22,N/C*%
%TO.N,unconnected-(IC803-Pad22)*%
X58500000Y-94400000D03*
D25*
%TO.P,IC803,23,N/C*%
%TO.N,unconnected-(IC803-Pad23)*%
X60200000Y-92700000D03*
%TO.P,IC803,24,X13*%
%TO.N,/COL13*%
X60200000Y-91900000D03*
%TO.P,IC803,25,X12*%
%TO.N,/COL12*%
X60200000Y-91100000D03*
%TO.P,IC803,26,X5*%
%TO.N,/COL5*%
X60200000Y-90300000D03*
%TO.P,IC803,27,X4*%
%TO.N,/COL4*%
X60200000Y-89500000D03*
%TO.P,IC803,28,X3*%
%TO.N,/COL3*%
X60200000Y-88700000D03*
%TO.P,IC803,29,X2*%
%TO.N,/COL2*%
X60200000Y-87900000D03*
%TO.P,IC803,30,X1*%
%TO.N,/COL1*%
X60200000Y-87100000D03*
%TO.P,IC803,31,X0*%
%TO.N,/COL0*%
X60200000Y-86300000D03*
%TO.P,IC803,32,Y0*%
%TO.N,/ROW0*%
X60200000Y-85500000D03*
%TO.P,IC803,33,N/C*%
%TO.N,unconnected-(IC803-Pad33)*%
X60200000Y-84700000D03*
D26*
%TO.P,IC803,34,CS*%
%TO.N,+5V*%
X58500000Y-83000000D03*
%TO.P,IC803,35,Y1*%
%TO.N,/ROW1*%
X57700000Y-83000000D03*
%TO.P,IC803,36,DATA*%
%TO.N,MTDATA*%
X56900000Y-83000000D03*
%TO.P,IC803,37,Y2*%
%TO.N,/ROW2*%
X56100000Y-83000000D03*
%TO.P,IC803,38,VCC*%
%TO.N,+5V*%
X55300000Y-83000000D03*
%TO.P,IC803,39,Y3*%
%TO.N,/ROW3*%
X54500000Y-83000000D03*
%TO.P,IC803,40,AY2*%
%TO.N,AY2*%
X53700000Y-83000000D03*
%TO.P,IC803,41,N/C*%
%TO.N,unconnected-(IC803-Pad41)*%
X52900000Y-83000000D03*
%TO.P,IC803,42,RESET*%
%TO.N,ADSCK*%
X52100000Y-83000000D03*
%TO.P,IC803,43,AX3*%
%TO.N,ADMOSI*%
X51300000Y-83000000D03*
%TO.P,IC803,44,AX0*%
%TO.N,AX0*%
X50500000Y-83000000D03*
%TD*%
D27*
%TO.P,IC800,1,PD3*%
%TO.N,PS2-CLK*%
X49050000Y-68700000D03*
%TO.P,IC800,2,PD4*%
%TO.N,MTSTROBE*%
X49050000Y-69500000D03*
%TO.P,IC800,3,GND*%
%TO.N,GND*%
X49050000Y-70300000D03*
%TO.P,IC800,4,VCC*%
%TO.N,+5V*%
X49050000Y-71100000D03*
%TO.P,IC800,5,GND*%
%TO.N,GND*%
X49050000Y-71900000D03*
%TO.P,IC800,6,VCC*%
%TO.N,+5V*%
X49050000Y-72700000D03*
%TO.P,IC800,7,XTAL1/PB6*%
%TO.N,Net-(C800-Pad1)*%
X49050000Y-73500000D03*
%TO.P,IC800,8,XTAL2/PB7*%
%TO.N,Net-(C801-Pad1)*%
X49050000Y-74300000D03*
D28*
%TO.P,IC800,9,PD5*%
%TO.N,AY2*%
X50500000Y-75750000D03*
%TO.P,IC800,10,PD6*%
%TO.N,AY1*%
X51300000Y-75750000D03*
%TO.P,IC800,11,PD7*%
%TO.N,AY0*%
X52100000Y-75750000D03*
%TO.P,IC800,12,PB0*%
%TO.N,AX2*%
X52900000Y-75750000D03*
%TO.P,IC800,13,PB1*%
%TO.N,AX1*%
X53700000Y-75750000D03*
%TO.P,IC800,14,PB2*%
%TO.N,AX0*%
X54500000Y-75750000D03*
%TO.P,IC800,15,PB3*%
%TO.N,ADMOSI*%
X55300000Y-75750000D03*
%TO.P,IC800,16,PB4*%
%TO.N,PS2-DATA*%
X56100000Y-75750000D03*
D27*
%TO.P,IC800,17,PB5*%
%TO.N,ADSCK*%
X57550000Y-74300000D03*
%TO.P,IC800,18,AVCC*%
%TO.N,+5V*%
X57550000Y-73500000D03*
%TO.P,IC800,19,ADC6*%
%TO.N,/AA6*%
X57550000Y-72700000D03*
%TO.P,IC800,20,AREF*%
%TO.N,Net-(C802-Pad1)*%
X57550000Y-71900000D03*
%TO.P,IC800,21,GND*%
%TO.N,GND*%
X57550000Y-71100000D03*
%TO.P,IC800,22,ADC7*%
%TO.N,/AA7*%
X57550000Y-70300000D03*
%TO.P,IC800,23,PC0*%
%TO.N,BREAK*%
X57550000Y-69500000D03*
%TO.P,IC800,24,PC1*%
%TO.N,/AA1*%
X57550000Y-68700000D03*
D28*
%TO.P,IC800,25,PC2*%
%TO.N,/AA2*%
X56100000Y-67250000D03*
%TO.P,IC800,26,PC3*%
%TO.N,/AA3*%
X55300000Y-67250000D03*
%TO.P,IC800,27,PC4*%
%TO.N,/AA4*%
X54500000Y-67250000D03*
%TO.P,IC800,28,PC5*%
%TO.N,/AA5*%
X53700000Y-67250000D03*
%TO.P,IC800,29,~{RESET}/PC6*%
%TO.N,ADRESET*%
X52900000Y-67250000D03*
%TO.P,IC800,30,PD0*%
%TO.N,/AD0*%
X52100000Y-67250000D03*
%TO.P,IC800,31,PD1*%
%TO.N,/AD1*%
X51300000Y-67250000D03*
%TO.P,IC800,32,PD2*%
%TO.N,MTDATA*%
X50500000Y-67250000D03*
%TD*%
D29*
%TO.P,C806,1*%
%TO.N,GND*%
X46950000Y-70700000D03*
%TO.P,C806,2*%
%TO.N,+5V*%
X46950000Y-72600000D03*
%TD*%
D12*
%TO.P,C802,1*%
%TO.N,Net-(C802-Pad1)*%
X57850000Y-65150000D03*
%TO.P,C802,2*%
%TO.N,GND*%
X55950000Y-65150000D03*
%TD*%
D30*
%TO.P,C801,2*%
%TO.N,GND*%
X50000000Y-56900000D03*
%TO.P,C801,1*%
%TO.N,Net-(C801-Pad1)*%
X48100000Y-56900000D03*
%TD*%
D12*
%TO.P,C800,1*%
%TO.N,Net-(C800-Pad1)*%
X54850000Y-56900000D03*
%TO.P,C800,2*%
%TO.N,GND*%
X52950000Y-56900000D03*
%TD*%
D23*
%TO.P,CP002,1,Pin_1*%
%TO.N,/ROW7*%
X42672000Y-46634400D03*
D24*
%TO.P,CP002,2,Pin_2*%
%TO.N,/COL9*%
X42672000Y-49174400D03*
%TO.P,CP002,3,Pin_3*%
%TO.N,/ROW0*%
X42672000Y-51714400D03*
%TO.P,CP002,4,Pin_4*%
%TO.N,/ROW1*%
X42672000Y-54254400D03*
%TO.P,CP002,5,Pin_5*%
%TO.N,/ROW2*%
X42672000Y-56794400D03*
%TO.P,CP002,6,Pin_6*%
%TO.N,/ROW3*%
X42672000Y-59334400D03*
%TO.P,CP002,7,Pin_7*%
%TO.N,/ROW4*%
X42672000Y-61874400D03*
%TO.P,CP002,8,Pin_8*%
%TO.N,/ROW5*%
X42672000Y-64414400D03*
%TO.P,CP002,9,Pin_9*%
%TO.N,/ROW6*%
X42672000Y-66954400D03*
%TO.P,CP002,10,Pin_10*%
%TO.N,/ROW7*%
X42672000Y-69494400D03*
%TO.P,CP002,11,Pin_11*%
%TO.N,/COL0*%
X42672000Y-72034400D03*
%TO.P,CP002,12,Pin_12*%
%TO.N,/COL1*%
X42672000Y-74574400D03*
%TO.P,CP002,13,Pin_13*%
%TO.N,/COL2*%
X42672000Y-77114400D03*
%TO.P,CP002,14,Pin_14*%
%TO.N,/COL3*%
X42672000Y-79654400D03*
%TO.P,CP002,15,Pin_15*%
%TO.N,/COL4*%
X42672000Y-82194400D03*
%TO.P,CP002,16,Pin_16*%
%TO.N,/COL5*%
X42672000Y-84734400D03*
%TO.P,CP002,17,Pin_17*%
%TO.N,/COL6*%
X42672000Y-87274400D03*
%TO.P,CP002,18,Pin_18*%
%TO.N,/COL7*%
X42672000Y-89814400D03*
%TO.P,CP002,19,Pin_19*%
%TO.N,/COL8*%
X42672000Y-92354400D03*
%TO.P,CP002,20,Pin_20*%
%TO.N,unconnected-(CP002-Pad20)*%
X42672000Y-94894400D03*
%TD*%
D23*
%TO.P,J105,1,Pin_1*%
%TO.N,!RST*%
X42672000Y-36474400D03*
D24*
%TO.P,J105,2,Pin_2*%
%TO.N,+5V*%
X42672000Y-39014400D03*
%TO.P,J105,3,Pin_3*%
%TO.N,GND*%
X42672000Y-41554400D03*
%TD*%
D31*
%TO.N,GND*%
X61470000Y-96490000D03*
%TO.N,MTDATA*%
X51072400Y-69426500D03*
X56950100Y-77493200D03*
%TO.N,BREAK*%
X57657400Y-57051500D03*
X54624800Y-44787700D03*
%TO.N,ADSCK*%
X57221500Y-76383800D03*
X62642700Y-80270300D03*
%TO.N,ADMOSI*%
X55408300Y-73629300D03*
%TO.N,AX2*%
X49954300Y-80734300D03*
X56139200Y-87213000D03*
%TO.N,AY0*%
X51403400Y-78024400D03*
X56900000Y-92674900D03*
%TO.N,AY1*%
X49064100Y-79016900D03*
X57493400Y-87248000D03*
%TO.N,AY2*%
X49952900Y-77159100D03*
X53729100Y-81218800D03*
%TO.N,PS2-DATA*%
X56975700Y-75184600D03*
%TO.N,/COL5*%
X58806300Y-90350900D03*
%TO.N,/COL4*%
X58293000Y-89428800D03*
%TO.N,/COL3*%
X58303000Y-88397300D03*
%TO.N,/COL2*%
X58837800Y-87385400D03*
%TO.N,/COL1*%
X61559200Y-86815900D03*
%TO.N,/COL0*%
X59382400Y-83348300D03*
%TO.N,/ROW6*%
X44728200Y-85463100D03*
X51066800Y-93037000D03*
%TO.N,/ROW5*%
X46017800Y-85480600D03*
X52900000Y-92362800D03*
%TO.N,/ROW4*%
X54500000Y-93043500D03*
%TO.N,/ROW3*%
X55535100Y-79700700D03*
%TO.N,/ROW2*%
X46328700Y-74174600D03*
X56100000Y-80971100D03*
%TO.N,/ROW1*%
X57401600Y-84357400D03*
%TO.N,/ROW0*%
X62100000Y-83386800D03*
%TO.N,/COL9*%
X47449900Y-89656100D03*
%TO.N,ADRESET*%
X56176200Y-60783600D03*
X55964000Y-59097600D03*
X52620600Y-52254100D03*
%TO.N,Net-(C802-Pad1)*%
X61086800Y-71960600D03*
X57850000Y-67818200D03*
%TO.N,Net-(C801-Pad1)*%
X45884400Y-66899900D03*
%TO.N,GND*%
X61880500Y-71120000D03*
X53710000Y-96770000D03*
X50590000Y-97480000D03*
X50590000Y-96750000D03*
X53740000Y-97440000D03*
X56600000Y-53000000D03*
%TO.N,Net-(C800-Pad1)*%
X54077100Y-73581300D03*
%TD*%
D32*
%TO.N,GND*%
X61620000Y-96640000D02*
X61470000Y-96490000D01*
X62720000Y-96640000D02*
X61620000Y-96640000D01*
%TO.N,Net-(D810-Pad2)*%
X62057500Y-94502500D02*
X59920000Y-96640000D01*
X62590000Y-94502500D02*
X62057500Y-94502500D01*
%TO.N,+5V*%
X62950000Y-92317500D02*
X62590000Y-92677500D01*
X62950000Y-82640000D02*
X62950000Y-92317500D01*
X60905000Y-80595000D02*
X62720000Y-78780000D01*
X58500000Y-83000000D02*
X60905000Y-80595000D01*
X60905000Y-80595000D02*
X62950000Y-82640000D01*
D33*
%TO.N,!RST*%
X42672000Y-35628000D02*
X42672000Y-36474400D01*
X45100000Y-33200000D02*
X42672000Y-35628000D01*
X59792400Y-33200000D02*
X45100000Y-33200000D01*
X61415000Y-34822600D02*
X59792400Y-33200000D01*
X61415000Y-40635000D02*
X61415000Y-34822600D01*
X61000000Y-41050000D02*
X61415000Y-40635000D01*
X61000000Y-42450000D02*
X61000000Y-41050000D01*
X56425000Y-47025000D02*
X61000000Y-42450000D01*
X52033300Y-47025000D02*
X56425000Y-47025000D01*
X50558300Y-48500000D02*
X52033300Y-47025000D01*
X46487500Y-48500000D02*
X50558300Y-48500000D01*
%TO.N,Net-(R808-Pad1)*%
X50587500Y-47000000D02*
X51837500Y-45750000D01*
X46400000Y-47000000D02*
X50587500Y-47000000D01*
D34*
%TO.N,MTDATA*%
X56900000Y-83000000D02*
X56900000Y-81924900D01*
X50500000Y-67250000D02*
X50500000Y-68375100D01*
X51072400Y-68947500D02*
X51072400Y-69426500D01*
X50500000Y-68375100D02*
X51072400Y-68947500D01*
X56950100Y-81874800D02*
X56950100Y-77493200D01*
X56900000Y-81924900D02*
X56950100Y-81874800D01*
%TO.N,BREAK*%
X54624800Y-44787700D02*
X53662500Y-45750000D01*
X57550000Y-69500000D02*
X58675100Y-69500000D01*
X58691300Y-58085400D02*
X57657400Y-57051500D01*
X58691300Y-69483800D02*
X58691300Y-58085400D01*
X58675100Y-69500000D02*
X58691300Y-69483800D01*
%TO.N,ADSCK*%
X62125000Y-53885000D02*
X62125000Y-55060100D01*
X62956000Y-55060100D02*
X62125000Y-55060100D01*
X63328500Y-55432600D02*
X62956000Y-55060100D01*
X63328500Y-79584500D02*
X63328500Y-55432600D01*
X62642700Y-80270300D02*
X63328500Y-79584500D01*
X58675100Y-74930200D02*
X57221500Y-76383800D01*
X58675100Y-74300000D02*
X58675100Y-74930200D01*
X57550000Y-74300000D02*
X58675100Y-74300000D01*
X52100000Y-83000000D02*
X52100000Y-81924900D01*
X52100000Y-81822600D02*
X52100000Y-81924900D01*
X55750100Y-78172500D02*
X52100000Y-81822600D01*
X55750100Y-77667400D02*
X55750100Y-78172500D01*
X57033700Y-76383800D02*
X55750100Y-77667400D01*
X57221500Y-76383800D02*
X57033700Y-76383800D01*
%TO.N,ADMOSI*%
X51300000Y-83000000D02*
X51300000Y-81924900D01*
X55300000Y-77924900D02*
X55300000Y-75750000D01*
X51300000Y-81924900D02*
X55300000Y-77924900D01*
X55300000Y-75750000D02*
X55300000Y-74624900D01*
X55408300Y-74516600D02*
X55408300Y-73629300D01*
X55300000Y-74624900D02*
X55408300Y-74516600D01*
%TO.N,AX0*%
X54500000Y-75750000D02*
X54500000Y-76875100D01*
X54500000Y-77924900D02*
X50500000Y-81924900D01*
X54500000Y-76875100D02*
X54500000Y-77924900D01*
X50500000Y-83000000D02*
X50500000Y-81924900D01*
%TO.N,AX1*%
X55300000Y-89361200D02*
X55300000Y-94400000D01*
X49875200Y-83936400D02*
X55300000Y-89361200D01*
X49875200Y-81856400D02*
X49875200Y-83936400D01*
X53700000Y-78031600D02*
X49875200Y-81856400D01*
X53700000Y-75750000D02*
X53700000Y-78031600D01*
%TO.N,AX2*%
X56100000Y-94400000D02*
X56100000Y-93324900D01*
X56100000Y-87252200D02*
X56139200Y-87213000D01*
X56100000Y-93324900D02*
X56100000Y-87252200D01*
X52900000Y-77788600D02*
X49954300Y-80734300D01*
X52900000Y-75750000D02*
X52900000Y-77788600D01*
%TO.N,AY0*%
X56900000Y-94400000D02*
X56900000Y-92674900D01*
X52100000Y-77327800D02*
X51403400Y-78024400D01*
X52100000Y-75750000D02*
X52100000Y-77327800D01*
%TO.N,AY1*%
X57700000Y-91150900D02*
X57700000Y-94400000D01*
X57493400Y-90944300D02*
X57700000Y-91150900D01*
X57493400Y-87248000D02*
X57493400Y-90944300D01*
X49158200Y-79016900D02*
X49064100Y-79016900D01*
X51300000Y-76875100D02*
X49158200Y-79016900D01*
X51300000Y-75750000D02*
X51300000Y-76875100D01*
%TO.N,AY2*%
X50500000Y-75750000D02*
X50500000Y-76875100D01*
X50236900Y-76875100D02*
X49952900Y-77159100D01*
X50500000Y-76875100D02*
X50236900Y-76875100D01*
X53700000Y-81247900D02*
X53729100Y-81218800D01*
X53700000Y-83000000D02*
X53700000Y-81247900D01*
%TO.N,MTSTROBE*%
X49050000Y-69500000D02*
X47924900Y-69500000D01*
X47466600Y-69041700D02*
X47924900Y-69500000D01*
X47466600Y-67420400D02*
X47466600Y-69041700D01*
X45424800Y-65378600D02*
X47466600Y-67420400D01*
X45424800Y-55429400D02*
X45424800Y-65378600D01*
X44542200Y-54546800D02*
X45424800Y-55429400D01*
X44542200Y-46340500D02*
X44542200Y-54546800D01*
X43660900Y-45459200D02*
X44542200Y-46340500D01*
X41687400Y-45459200D02*
X43660900Y-45459200D01*
X41035300Y-46111300D02*
X41687400Y-45459200D01*
X41035300Y-94984700D02*
X41035300Y-46111300D01*
X42132900Y-96082300D02*
X41035300Y-94984700D01*
X45271100Y-96082300D02*
X42132900Y-96082300D01*
X48028600Y-93324800D02*
X45271100Y-96082300D01*
X49680500Y-93324800D02*
X48028600Y-93324800D01*
X50710400Y-92294900D02*
X49680500Y-93324800D01*
X51429200Y-92294900D02*
X50710400Y-92294900D01*
X52100000Y-92965700D02*
X51429200Y-92294900D01*
X52100000Y-94400000D02*
X52100000Y-92965700D01*
%TO.N,PS2-CLK*%
X49050000Y-68700000D02*
X47924900Y-68700000D01*
X45424800Y-46040200D02*
X49590000Y-41875000D01*
X45424800Y-54567600D02*
X45424800Y-46040200D01*
X45874900Y-55017700D02*
X45424800Y-54567600D01*
X45874900Y-65192100D02*
X45874900Y-55017700D01*
X47924900Y-67242100D02*
X45874900Y-65192100D01*
X47924900Y-68700000D02*
X47924900Y-67242100D01*
%TO.N,PS2-DATA*%
X56665400Y-75184600D02*
X56975700Y-75184600D01*
X56100000Y-75750000D02*
X56665400Y-75184600D01*
%TO.N,/COL8*%
X47354600Y-88700000D02*
X48800000Y-88700000D01*
X43847100Y-92207500D02*
X47354600Y-88700000D01*
X43847100Y-92354400D02*
X43847100Y-92207500D01*
X42672000Y-92354400D02*
X43847100Y-92354400D01*
%TO.N,/COL7*%
X45761500Y-87900000D02*
X48800000Y-87900000D01*
X43847100Y-89814400D02*
X45761500Y-87900000D01*
X42672000Y-89814400D02*
X43847100Y-89814400D01*
%TO.N,/COL6*%
X47550500Y-87274400D02*
X47724900Y-87100000D01*
X42672000Y-87274400D02*
X47550500Y-87274400D01*
X48800000Y-87100000D02*
X47724900Y-87100000D01*
%TO.N,/COL5*%
X60200000Y-90300000D02*
X59124900Y-90300000D01*
X59074000Y-90350900D02*
X59124900Y-90300000D01*
X58806300Y-90350900D02*
X59074000Y-90350900D01*
%TO.N,/COL4*%
X58364200Y-89500000D02*
X58293000Y-89428800D01*
X60200000Y-89500000D02*
X58364200Y-89500000D01*
%TO.N,/COL3*%
X58605700Y-88700000D02*
X58303000Y-88397300D01*
X60200000Y-88700000D02*
X58605700Y-88700000D01*
%TO.N,/COL2*%
X60200000Y-87900000D02*
X59124900Y-87900000D01*
X59124900Y-87672500D02*
X59124900Y-87900000D01*
X58837800Y-87385400D02*
X59124900Y-87672500D01*
%TO.N,/COL1*%
X60200000Y-87100000D02*
X61275100Y-87100000D01*
X61275100Y-87100000D02*
X61559200Y-86815900D01*
%TO.N,/COL0*%
X60200000Y-86300000D02*
X59124900Y-86300000D01*
X59124900Y-83605800D02*
X59382400Y-83348300D01*
X59124900Y-86300000D02*
X59124900Y-83605800D01*
%TO.N,/ROW6*%
X51300000Y-93270200D02*
X51066800Y-93037000D01*
X51300000Y-94400000D02*
X51300000Y-93270200D01*
X43847100Y-84582000D02*
X44728200Y-85463100D01*
X43847100Y-68937300D02*
X43847100Y-84582000D01*
X43039300Y-68129500D02*
X43847100Y-68937300D01*
X42672000Y-68129500D02*
X43039300Y-68129500D01*
X42672000Y-66954400D02*
X42672000Y-68129500D01*
%TO.N,/ROW5*%
X52900000Y-92362800D02*
X52900000Y-94400000D01*
X42672000Y-64414400D02*
X42672000Y-65589500D01*
X43039200Y-65589500D02*
X42672000Y-65589500D01*
X44348200Y-66898500D02*
X43039200Y-65589500D01*
X44348200Y-83811000D02*
X44348200Y-66898500D01*
X46017800Y-85480600D02*
X44348200Y-83811000D01*
%TO.N,/ROW4*%
X54500000Y-94400000D02*
X54500000Y-93043500D01*
%TO.N,/ROW3*%
X54500000Y-83000000D02*
X54500000Y-81924900D01*
X54500000Y-80735800D02*
X55535100Y-79700700D01*
X54500000Y-81924900D02*
X54500000Y-80735800D01*
%TO.N,/ROW2*%
X56100000Y-83000000D02*
X56100000Y-80971100D01*
X42672000Y-56794400D02*
X42672000Y-57969500D01*
X44798400Y-72644300D02*
X46328700Y-74174600D01*
X44798400Y-59728700D02*
X44798400Y-72644300D01*
X43039200Y-57969500D02*
X44798400Y-59728700D01*
X42672000Y-57969500D02*
X43039200Y-57969500D01*
%TO.N,/ROW1*%
X57700000Y-83000000D02*
X57700000Y-84075100D01*
X57683900Y-84075100D02*
X57700000Y-84075100D01*
X57401600Y-84357400D02*
X57683900Y-84075100D01*
%TO.N,/ROW0*%
X60200000Y-85500000D02*
X61275100Y-85500000D01*
X62100000Y-84675100D02*
X62100000Y-83386800D01*
X61275100Y-85500000D02*
X62100000Y-84675100D01*
%TO.N,/COL9*%
X48800000Y-89500000D02*
X47724900Y-89500000D01*
X47568800Y-89656100D02*
X47724900Y-89500000D01*
X47449900Y-89656100D02*
X47568800Y-89656100D01*
D32*
%TO.N,+5V*%
X62720000Y-78780000D02*
X62720000Y-73550000D01*
X51820000Y-71100000D02*
X53420000Y-72700000D01*
X49050000Y-71100000D02*
X51820000Y-71100000D01*
X49050000Y-72700000D02*
X53420000Y-72700000D01*
X56530000Y-73500000D02*
X57550000Y-73500000D01*
X55730000Y-72700000D02*
X56530000Y-73500000D01*
X53420000Y-72700000D02*
X55730000Y-72700000D01*
D33*
X57760000Y-54770000D02*
X57760000Y-49860000D01*
X58090000Y-55100000D02*
X57760000Y-54770000D01*
X58260000Y-55100000D02*
X58090000Y-55100000D01*
X59585000Y-56425000D02*
X58260000Y-55100000D01*
X54422500Y-49860000D02*
X53662500Y-49100000D01*
X57760000Y-49860000D02*
X54422500Y-49860000D01*
X54845000Y-37530000D02*
X56390000Y-39075000D01*
X48960000Y-37530000D02*
X54845000Y-37530000D01*
X48960000Y-37760500D02*
X48960000Y-37530000D01*
X47706100Y-39014400D02*
X48960000Y-37760500D01*
X42672000Y-39014400D02*
X47706100Y-39014400D01*
D32*
X57550000Y-73500000D02*
X62670000Y-73500000D01*
X62730000Y-59570000D02*
X59585000Y-56425000D01*
X62730000Y-73500000D02*
X62730000Y-59570000D01*
X62670000Y-73500000D02*
X62730000Y-73500000D01*
D34*
X62670000Y-73500000D02*
X62720000Y-73550000D01*
D32*
X47050000Y-72700000D02*
X49050000Y-72700000D01*
X46950000Y-72600000D02*
X47050000Y-72700000D01*
X58500000Y-84940000D02*
X58500000Y-83000000D01*
X57340000Y-86100000D02*
X58500000Y-84940000D01*
X55880000Y-86100000D02*
X57340000Y-86100000D01*
X55300000Y-85520000D02*
X55880000Y-86100000D01*
X55300000Y-83000000D02*
X55300000Y-85520000D01*
D33*
X42672000Y-39014400D02*
X41484500Y-37826900D01*
X61270000Y-49860000D02*
X57760000Y-49860000D01*
X63200000Y-47930000D02*
X61270000Y-49860000D01*
X63200000Y-35230000D02*
X63200000Y-47930000D01*
X60220000Y-32250000D02*
X63200000Y-35230000D01*
X44370000Y-32250000D02*
X60220000Y-32250000D01*
X41247000Y-35373000D02*
X44370000Y-32250000D01*
X41247000Y-37589400D02*
X41247000Y-35373000D01*
X41484500Y-37826900D02*
X41247000Y-37589400D01*
D34*
X47360300Y-96559700D02*
X47460000Y-96460000D01*
X41964000Y-96559700D02*
X47360300Y-96559700D01*
X40528300Y-95124000D02*
X41964000Y-96559700D01*
X40528300Y-38783100D02*
X40528300Y-95124000D01*
X41484500Y-37826900D02*
X40528300Y-38783100D01*
%TO.N,ADRESET*%
X51837500Y-51471000D02*
X51837500Y-49100000D01*
X52620600Y-52254100D02*
X51837500Y-51471000D01*
X55964000Y-60783600D02*
X55964000Y-59097600D01*
X52900000Y-63847600D02*
X55964000Y-60783600D01*
X52900000Y-67250000D02*
X52900000Y-63847600D01*
X55964000Y-60783600D02*
X56176200Y-60783600D01*
%TO.N,/ROW7*%
X42672000Y-46634400D02*
X42672000Y-47809500D01*
X42672000Y-69494400D02*
X41496900Y-69494400D01*
X46210900Y-91900000D02*
X48800000Y-91900000D01*
X44570700Y-93540200D02*
X46210900Y-91900000D01*
X42194800Y-93540200D02*
X44570700Y-93540200D01*
X41496900Y-92842300D02*
X42194800Y-93540200D01*
X41496900Y-69494400D02*
X41496900Y-92842300D01*
X42304700Y-47809500D02*
X42672000Y-47809500D01*
X41496900Y-48617300D02*
X42304700Y-47809500D01*
X41496900Y-69494400D02*
X41496900Y-48617300D01*
%TO.N,Net-(C802-Pad1)*%
X57850000Y-65150000D02*
X57850000Y-67818200D01*
X61026200Y-71900000D02*
X61086800Y-71960600D01*
X57550000Y-71900000D02*
X61026200Y-71900000D01*
%TO.N,Net-(C801-Pad1)*%
X48100000Y-59830000D02*
X49020000Y-60750000D01*
X48100000Y-56900000D02*
X48100000Y-59830000D01*
X45884400Y-73073900D02*
X45884400Y-66899900D01*
X46236700Y-73426200D02*
X45884400Y-73073900D01*
X46803700Y-73426200D02*
X46236700Y-73426200D01*
X47677500Y-74300000D02*
X46803700Y-73426200D01*
X49050000Y-74300000D02*
X47677500Y-74300000D01*
D32*
%TO.N,GND*%
X61860500Y-71100000D02*
X57550000Y-71100000D01*
X61880500Y-71120000D02*
X61860500Y-71100000D01*
X56375000Y-71100000D02*
X57550000Y-71100000D01*
X55575000Y-70300000D02*
X56375000Y-71100000D01*
X49050000Y-70300000D02*
X55575000Y-70300000D01*
X53700000Y-96760000D02*
X53710000Y-96770000D01*
X53700000Y-94400000D02*
X53700000Y-96760000D01*
D33*
X50630000Y-97440000D02*
X50590000Y-97480000D01*
X53740000Y-97440000D02*
X50630000Y-97440000D01*
X46400000Y-53300000D02*
X46400000Y-50000000D01*
X50000000Y-56900000D02*
X46400000Y-53300000D01*
X50000000Y-56900000D02*
X52950000Y-56900000D01*
X53690000Y-96750000D02*
X53700000Y-96760000D01*
X50590000Y-96750000D02*
X53690000Y-96750000D01*
X53700000Y-96760000D02*
X53710000Y-96770000D01*
D32*
X49050000Y-70300000D02*
X47750000Y-70300000D01*
X47350000Y-70300000D02*
X46950000Y-70700000D01*
X47750000Y-70300000D02*
X47350000Y-70300000D01*
D34*
X47750000Y-71725100D02*
X47924900Y-71900000D01*
X47750000Y-70300000D02*
X47750000Y-71725100D01*
X49050000Y-71900000D02*
X47924900Y-71900000D01*
D32*
X50500000Y-94400000D02*
X50500000Y-95530000D01*
X50500000Y-96660000D02*
X50590000Y-96750000D01*
X50500000Y-95530000D02*
X50500000Y-96660000D01*
D34*
X50290000Y-95530000D02*
X49360000Y-96460000D01*
X50500000Y-95530000D02*
X50290000Y-95530000D01*
D33*
X52950000Y-56650000D02*
X55474800Y-54125200D01*
X52950000Y-56900000D02*
X52950000Y-56650000D01*
X55474800Y-54125200D02*
X56600000Y-53000000D01*
D34*
X56901400Y-64198600D02*
X55950000Y-65150000D01*
X56901400Y-55551800D02*
X56901400Y-64198600D01*
X55474800Y-54125200D02*
X56901400Y-55551800D01*
%TO.N,Net-(C800-Pad1)*%
X53900000Y-57850000D02*
X54850000Y-56900000D01*
X53900000Y-60750000D02*
X53900000Y-57850000D01*
X53995800Y-73500000D02*
X54077100Y-73581300D01*
X49050000Y-73500000D02*
X53995800Y-73500000D01*
%TD*%
%TA.AperFunction,Conductor*%
%TO.N,+5V*%
G36*
X63433621Y-30957702D02*
G01*
X63480114Y-31011358D01*
X63491500Y-31063700D01*
X63491500Y-49112597D01*
X63471498Y-49180718D01*
X63417842Y-49227211D01*
X63365193Y-49238597D01*
X62669424Y-49236899D01*
X62024441Y-49235324D01*
X61956370Y-49215155D01*
X61910008Y-49161386D01*
X61900076Y-49091088D01*
X61929726Y-49026579D01*
X61950688Y-49007388D01*
X62164867Y-48851778D01*
X62164869Y-48851777D01*
X62168071Y-48849450D01*
X62177991Y-48840135D01*
X62386105Y-48644703D01*
X62388992Y-48641992D01*
X62582170Y-48408480D01*
X62728786Y-48177451D01*
X62742434Y-48155945D01*
X62742434Y-48155944D01*
X62744558Y-48152598D01*
X62822884Y-47986145D01*
X62871905Y-47881971D01*
X62871907Y-47881967D01*
X62873594Y-47878381D01*
X62893738Y-47816386D01*
X62943288Y-47663886D01*
X62967245Y-47590154D01*
X63024033Y-47292462D01*
X63043062Y-46990000D01*
X63024033Y-46687538D01*
X62967245Y-46389846D01*
X62873594Y-46101619D01*
X62868712Y-46091243D01*
X62777575Y-45897568D01*
X62744558Y-45827402D01*
X62582170Y-45571520D01*
X62388992Y-45338008D01*
X62168071Y-45130550D01*
X61922890Y-44952416D01*
X61905061Y-44942614D01*
X61660786Y-44808322D01*
X61660785Y-44808321D01*
X61657317Y-44806415D01*
X61653648Y-44804962D01*
X61653643Y-44804960D01*
X61379209Y-44696304D01*
X61379208Y-44696304D01*
X61375539Y-44694851D01*
X61082000Y-44619484D01*
X60781330Y-44581500D01*
X60478270Y-44581500D01*
X60430968Y-44587476D01*
X60360880Y-44576169D01*
X60308029Y-44528763D01*
X60289198Y-44460309D01*
X60310364Y-44392541D01*
X60326084Y-44373374D01*
X61568546Y-43130912D01*
X61583574Y-43118075D01*
X61594434Y-43110185D01*
X61638886Y-43060816D01*
X61643427Y-43056031D01*
X61657472Y-43041986D01*
X61659559Y-43039409D01*
X61669969Y-43026554D01*
X61674253Y-43021538D01*
X61714283Y-42977080D01*
X61714287Y-42977075D01*
X61718704Y-42972169D01*
X61725411Y-42960552D01*
X61736609Y-42944259D01*
X61740891Y-42938971D01*
X61745047Y-42933839D01*
X61775213Y-42874637D01*
X61778346Y-42868867D01*
X61808260Y-42817055D01*
X61808262Y-42817050D01*
X61811564Y-42811331D01*
X61813605Y-42805051D01*
X61813608Y-42805043D01*
X61815708Y-42798579D01*
X61823272Y-42780317D01*
X61826363Y-42774251D01*
X61826366Y-42774242D01*
X61829362Y-42768363D01*
X61840902Y-42725296D01*
X61846556Y-42704196D01*
X61848422Y-42697894D01*
X61868954Y-42634702D01*
X61870355Y-42621372D01*
X61873958Y-42601929D01*
X61877430Y-42588971D01*
X61880907Y-42522628D01*
X61881424Y-42516059D01*
X61883156Y-42499577D01*
X61883500Y-42496306D01*
X61883500Y-42476445D01*
X61883673Y-42469850D01*
X61886805Y-42410098D01*
X61886805Y-42410094D01*
X61887150Y-42403507D01*
X61885051Y-42390253D01*
X61883500Y-42370544D01*
X61883500Y-41468147D01*
X61903502Y-41400026D01*
X61920405Y-41379052D01*
X61983542Y-41315915D01*
X61998577Y-41303074D01*
X62004084Y-41299073D01*
X62004090Y-41299068D01*
X62009434Y-41295185D01*
X62053894Y-41245807D01*
X62058435Y-41241022D01*
X62072472Y-41226985D01*
X62084969Y-41211553D01*
X62089253Y-41206538D01*
X62129283Y-41162080D01*
X62129287Y-41162075D01*
X62133704Y-41157169D01*
X62140412Y-41145551D01*
X62151607Y-41129263D01*
X62155890Y-41123974D01*
X62155891Y-41123973D01*
X62160048Y-41118839D01*
X62190214Y-41059634D01*
X62193337Y-41053881D01*
X62226564Y-40996331D01*
X62228606Y-40990047D01*
X62228608Y-40990042D01*
X62230708Y-40983579D01*
X62238272Y-40965317D01*
X62241363Y-40959251D01*
X62241366Y-40959242D01*
X62244362Y-40953363D01*
X62261556Y-40889196D01*
X62263422Y-40882894D01*
X62283954Y-40819702D01*
X62285355Y-40806372D01*
X62288958Y-40786929D01*
X62292430Y-40773971D01*
X62294178Y-40740634D01*
X62295119Y-40722677D01*
X62295907Y-40707628D01*
X62296424Y-40701059D01*
X62298156Y-40684577D01*
X62298500Y-40681306D01*
X62298500Y-40661445D01*
X62298673Y-40654850D01*
X62301805Y-40595098D01*
X62301805Y-40595094D01*
X62302150Y-40588507D01*
X62300051Y-40575253D01*
X62298500Y-40555544D01*
X62298500Y-34902057D01*
X62300051Y-34882345D01*
X62301118Y-34875608D01*
X62302150Y-34869093D01*
X62298673Y-34802750D01*
X62298500Y-34796155D01*
X62298500Y-34776294D01*
X62296423Y-34756531D01*
X62295907Y-34749967D01*
X62292776Y-34690223D01*
X62292775Y-34690219D01*
X62292430Y-34683629D01*
X62288958Y-34670671D01*
X62285355Y-34651228D01*
X62284644Y-34644466D01*
X62283954Y-34637898D01*
X62263422Y-34574706D01*
X62261556Y-34568404D01*
X62246071Y-34510615D01*
X62244362Y-34504237D01*
X62241366Y-34498358D01*
X62241363Y-34498349D01*
X62238272Y-34492283D01*
X62230708Y-34474021D01*
X62228608Y-34467557D01*
X62228605Y-34467549D01*
X62226564Y-34461269D01*
X62223262Y-34455550D01*
X62223260Y-34455545D01*
X62193346Y-34403733D01*
X62190213Y-34397963D01*
X62160047Y-34338761D01*
X62151609Y-34328341D01*
X62140411Y-34312048D01*
X62140209Y-34311697D01*
X62133704Y-34300431D01*
X62129287Y-34295525D01*
X62129283Y-34295520D01*
X62089253Y-34251062D01*
X62084969Y-34246046D01*
X62074559Y-34233191D01*
X62074556Y-34233188D01*
X62072472Y-34230614D01*
X62058427Y-34216569D01*
X62053886Y-34211784D01*
X62013856Y-34167326D01*
X62013855Y-34167325D01*
X62009434Y-34162415D01*
X61998574Y-34154525D01*
X61983546Y-34141688D01*
X60473312Y-32631454D01*
X60460472Y-32616422D01*
X60452585Y-32605566D01*
X60403216Y-32561114D01*
X60398431Y-32556573D01*
X60384386Y-32542528D01*
X60381809Y-32540441D01*
X60368954Y-32530031D01*
X60363938Y-32525747D01*
X60319480Y-32485717D01*
X60319475Y-32485713D01*
X60314569Y-32481296D01*
X60302952Y-32474589D01*
X60286659Y-32463391D01*
X60281371Y-32459109D01*
X60276239Y-32454953D01*
X60217037Y-32424787D01*
X60211267Y-32421654D01*
X60159455Y-32391740D01*
X60159450Y-32391738D01*
X60153731Y-32388436D01*
X60147451Y-32386395D01*
X60147443Y-32386392D01*
X60140979Y-32384292D01*
X60122717Y-32376728D01*
X60116651Y-32373637D01*
X60116642Y-32373634D01*
X60110763Y-32370638D01*
X60046607Y-32353447D01*
X60046596Y-32353444D01*
X60040294Y-32351578D01*
X59977102Y-32331046D01*
X59963772Y-32329645D01*
X59944329Y-32326042D01*
X59931371Y-32322570D01*
X59924781Y-32322225D01*
X59924777Y-32322224D01*
X59880827Y-32319921D01*
X59865028Y-32319093D01*
X59858469Y-32318577D01*
X59838706Y-32316500D01*
X59818845Y-32316500D01*
X59812250Y-32316327D01*
X59752498Y-32313195D01*
X59752494Y-32313195D01*
X59745907Y-32312850D01*
X59732653Y-32314949D01*
X59712944Y-32316500D01*
X45179457Y-32316500D01*
X45159745Y-32314949D01*
X45153008Y-32313882D01*
X45153009Y-32313882D01*
X45146493Y-32312850D01*
X45139906Y-32313195D01*
X45139902Y-32313195D01*
X45080150Y-32316327D01*
X45073555Y-32316500D01*
X45053694Y-32316500D01*
X45033931Y-32318577D01*
X45027372Y-32319093D01*
X44985733Y-32321275D01*
X44967629Y-32322224D01*
X44967628Y-32322224D01*
X44961029Y-32322570D01*
X44954645Y-32324281D01*
X44954643Y-32324281D01*
X44948074Y-32326041D01*
X44928639Y-32329643D01*
X44921869Y-32330355D01*
X44921865Y-32330356D01*
X44915298Y-32331046D01*
X44852092Y-32351582D01*
X44845845Y-32353433D01*
X44781638Y-32370638D01*
X44775763Y-32373631D01*
X44775756Y-32373634D01*
X44769686Y-32376727D01*
X44751431Y-32384288D01*
X44744955Y-32386393D01*
X44744951Y-32386395D01*
X44738669Y-32388436D01*
X44732954Y-32391735D01*
X44732944Y-32391740D01*
X44681139Y-32421651D01*
X44675367Y-32424786D01*
X44616161Y-32454952D01*
X44611027Y-32459109D01*
X44611026Y-32459110D01*
X44605737Y-32463393D01*
X44589449Y-32474588D01*
X44577831Y-32481296D01*
X44572925Y-32485713D01*
X44572920Y-32485717D01*
X44528462Y-32525747D01*
X44523447Y-32530031D01*
X44515369Y-32536573D01*
X44508015Y-32542528D01*
X44493979Y-32556564D01*
X44489194Y-32561105D01*
X44439815Y-32605566D01*
X44435935Y-32610906D01*
X44435928Y-32610914D01*
X44431927Y-32616422D01*
X44419086Y-32631457D01*
X42103454Y-34947088D01*
X42088426Y-34959925D01*
X42077566Y-34967815D01*
X42073145Y-34972725D01*
X42073144Y-34972726D01*
X42033114Y-35017184D01*
X42028573Y-35021969D01*
X42014528Y-35036014D01*
X42012444Y-35038588D01*
X42012441Y-35038591D01*
X42002031Y-35051446D01*
X41997748Y-35056461D01*
X41981768Y-35074209D01*
X41921323Y-35111450D01*
X41888131Y-35115900D01*
X41773866Y-35115900D01*
X41711684Y-35122655D01*
X41575295Y-35173785D01*
X41458739Y-35261139D01*
X41371385Y-35377695D01*
X41320255Y-35514084D01*
X41313500Y-35576266D01*
X41313500Y-37372534D01*
X41320255Y-37434716D01*
X41371385Y-37571105D01*
X41458739Y-37687661D01*
X41575295Y-37775015D01*
X41583704Y-37778167D01*
X41583705Y-37778168D01*
X41692960Y-37819126D01*
X41749725Y-37861767D01*
X41774425Y-37928329D01*
X41759218Y-37997678D01*
X41739825Y-38024159D01*
X41616590Y-38153117D01*
X41610104Y-38161127D01*
X41490098Y-38337049D01*
X41485000Y-38346023D01*
X41395338Y-38539183D01*
X41391775Y-38548870D01*
X41336389Y-38748583D01*
X41337912Y-38757007D01*
X41350292Y-38760400D01*
X43990344Y-38760400D01*
X44003875Y-38756427D01*
X44005180Y-38747347D01*
X43963214Y-38580275D01*
X43959894Y-38570524D01*
X43874972Y-38375214D01*
X43870105Y-38366139D01*
X43754426Y-38187326D01*
X43748136Y-38179157D01*
X43604293Y-38021077D01*
X43573241Y-37957231D01*
X43581635Y-37886733D01*
X43626812Y-37831964D01*
X43653256Y-37818295D01*
X43760297Y-37778167D01*
X43768705Y-37775015D01*
X43885261Y-37687661D01*
X43972615Y-37571105D01*
X44023745Y-37434716D01*
X44030500Y-37372534D01*
X44030500Y-35576266D01*
X44030883Y-35576266D01*
X44046709Y-35509124D01*
X44067142Y-35482316D01*
X44439901Y-35109557D01*
X44502213Y-35075531D01*
X44573028Y-35080596D01*
X44629864Y-35123143D01*
X44654675Y-35189663D01*
X44653158Y-35220094D01*
X44632821Y-35337836D01*
X44631500Y-35366925D01*
X44631500Y-37036001D01*
X44631702Y-37038509D01*
X44631702Y-37038514D01*
X44637943Y-37116074D01*
X44646060Y-37216965D01*
X44703963Y-37452706D01*
X44798812Y-37676156D01*
X44801510Y-37680440D01*
X44902442Y-37840716D01*
X44928167Y-37881567D01*
X44950023Y-37906358D01*
X45085350Y-38059858D01*
X45085353Y-38059861D01*
X45088698Y-38063655D01*
X45092606Y-38066865D01*
X45092607Y-38066866D01*
X45221258Y-38172540D01*
X45276278Y-38217734D01*
X45364719Y-38269208D01*
X45481281Y-38337049D01*
X45486078Y-38339841D01*
X45490801Y-38341654D01*
X45707978Y-38425020D01*
X45707982Y-38425021D01*
X45712702Y-38426833D01*
X45717652Y-38427867D01*
X45717655Y-38427868D01*
X45945369Y-38475440D01*
X45945373Y-38475440D01*
X45950320Y-38476474D01*
X46192817Y-38487486D01*
X46197837Y-38486905D01*
X46197841Y-38486905D01*
X46428929Y-38460167D01*
X46428933Y-38460166D01*
X46433956Y-38459585D01*
X46438820Y-38458209D01*
X46438823Y-38458208D01*
X46662669Y-38394866D01*
X46662668Y-38394866D01*
X46667532Y-38393490D01*
X46672108Y-38391356D01*
X46672114Y-38391354D01*
X46882954Y-38293038D01*
X46882958Y-38293036D01*
X46887536Y-38290901D01*
X47088307Y-38154456D01*
X47264681Y-37987668D01*
X47304501Y-37935586D01*
X47409047Y-37798846D01*
X47409050Y-37798842D01*
X47412120Y-37794826D01*
X47421053Y-37778167D01*
X47524439Y-37585352D01*
X47526831Y-37580891D01*
X47605862Y-37351369D01*
X47647179Y-37112164D01*
X47648500Y-37083075D01*
X47648500Y-35413999D01*
X47645001Y-35370509D01*
X47634346Y-35238076D01*
X47634345Y-35238071D01*
X47633940Y-35233035D01*
X47607694Y-35126177D01*
X47577244Y-35002208D01*
X47576037Y-34997294D01*
X47565609Y-34972726D01*
X47483165Y-34778502D01*
X47481188Y-34773844D01*
X47395578Y-34637898D01*
X47354528Y-34572712D01*
X47354526Y-34572709D01*
X47351833Y-34568433D01*
X47267712Y-34473016D01*
X47194650Y-34390142D01*
X47194647Y-34390139D01*
X47191302Y-34386345D01*
X47094541Y-34306865D01*
X47054598Y-34248170D01*
X47052728Y-34177198D01*
X47089525Y-34116482D01*
X47153307Y-34085298D01*
X47174517Y-34083500D01*
X50897062Y-34083500D01*
X50965183Y-34103502D01*
X51011676Y-34157158D01*
X51021780Y-34227432D01*
X50992286Y-34292012D01*
X50980398Y-34304004D01*
X50901345Y-34373698D01*
X50898135Y-34377606D01*
X50898134Y-34377607D01*
X50788881Y-34510615D01*
X50747266Y-34561278D01*
X50625159Y-34771078D01*
X50623346Y-34775801D01*
X50552667Y-34959929D01*
X50538167Y-34997702D01*
X50537133Y-35002652D01*
X50537132Y-35002655D01*
X50515578Y-35105831D01*
X50488526Y-35235320D01*
X50477514Y-35477817D01*
X50478095Y-35482837D01*
X50478095Y-35482841D01*
X50493923Y-35619631D01*
X50505415Y-35718956D01*
X50506791Y-35723820D01*
X50506792Y-35723823D01*
X50552476Y-35885266D01*
X50571510Y-35952532D01*
X50573644Y-35957108D01*
X50573646Y-35957114D01*
X50630446Y-36078922D01*
X50674099Y-36172536D01*
X50810544Y-36373307D01*
X50977332Y-36549681D01*
X50981358Y-36552759D01*
X50981359Y-36552760D01*
X51166154Y-36694047D01*
X51166158Y-36694050D01*
X51170174Y-36697120D01*
X51384109Y-36811831D01*
X51613631Y-36890862D01*
X51712978Y-36908022D01*
X51848926Y-36931504D01*
X51848932Y-36931505D01*
X51852836Y-36932179D01*
X51856797Y-36932359D01*
X51856798Y-36932359D01*
X51880506Y-36933436D01*
X51880525Y-36933436D01*
X51881925Y-36933500D01*
X54051001Y-36933500D01*
X54053509Y-36933298D01*
X54053514Y-36933298D01*
X54226924Y-36919346D01*
X54226929Y-36919345D01*
X54231965Y-36918940D01*
X54236873Y-36917734D01*
X54236876Y-36917734D01*
X54462792Y-36862244D01*
X54467706Y-36861037D01*
X54472358Y-36859062D01*
X54472362Y-36859061D01*
X54686498Y-36768165D01*
X54691156Y-36766188D01*
X54797037Y-36699511D01*
X54892288Y-36639528D01*
X54892291Y-36639526D01*
X54896567Y-36636833D01*
X54995422Y-36549681D01*
X55074858Y-36479650D01*
X55074861Y-36479647D01*
X55078655Y-36476302D01*
X55232734Y-36288722D01*
X55354841Y-36078922D01*
X55441833Y-35852298D01*
X55491474Y-35614680D01*
X55502486Y-35372183D01*
X55501878Y-35366925D01*
X55475167Y-35136071D01*
X55475166Y-35136067D01*
X55474585Y-35131044D01*
X55469041Y-35111450D01*
X55409866Y-34902331D01*
X55408490Y-34897468D01*
X55406356Y-34892892D01*
X55406354Y-34892886D01*
X55308038Y-34682046D01*
X55308036Y-34682042D01*
X55305901Y-34677464D01*
X55169456Y-34476693D01*
X55002668Y-34300319D01*
X55003166Y-34299848D01*
X54967952Y-34242694D01*
X54969301Y-34171711D01*
X55008813Y-34112725D01*
X55073943Y-34084464D01*
X55089501Y-34083500D01*
X58799299Y-34083500D01*
X58867420Y-34103502D01*
X58913913Y-34157158D01*
X58924017Y-34227432D01*
X58894523Y-34292012D01*
X58885876Y-34301045D01*
X58715319Y-34462332D01*
X58712241Y-34466358D01*
X58712240Y-34466359D01*
X58570953Y-34651154D01*
X58570950Y-34651158D01*
X58567880Y-34655174D01*
X58565490Y-34659632D01*
X58565489Y-34659633D01*
X58549087Y-34690223D01*
X58453169Y-34869109D01*
X58374138Y-35098631D01*
X58367671Y-35136071D01*
X58346069Y-35261139D01*
X58332821Y-35337836D01*
X58331500Y-35366925D01*
X58331500Y-37036001D01*
X58331702Y-37038509D01*
X58331702Y-37038514D01*
X58337943Y-37116074D01*
X58346060Y-37216965D01*
X58403963Y-37452706D01*
X58498812Y-37676156D01*
X58501510Y-37680440D01*
X58602442Y-37840716D01*
X58628167Y-37881567D01*
X58650023Y-37906358D01*
X58785350Y-38059858D01*
X58785353Y-38059861D01*
X58788698Y-38063655D01*
X58792606Y-38066865D01*
X58792607Y-38066866D01*
X58921258Y-38172540D01*
X58976278Y-38217734D01*
X59064719Y-38269208D01*
X59181281Y-38337049D01*
X59186078Y-38339841D01*
X59190801Y-38341654D01*
X59407978Y-38425020D01*
X59407982Y-38425021D01*
X59412702Y-38426833D01*
X59417652Y-38427867D01*
X59417655Y-38427868D01*
X59645369Y-38475440D01*
X59645373Y-38475440D01*
X59650320Y-38476474D01*
X59892817Y-38487486D01*
X59897837Y-38486905D01*
X59897841Y-38486905D01*
X60128929Y-38460167D01*
X60128933Y-38460166D01*
X60133956Y-38459585D01*
X60138820Y-38458209D01*
X60138823Y-38458208D01*
X60367532Y-38393490D01*
X60367910Y-38394828D01*
X60432386Y-38390270D01*
X60494670Y-38424347D01*
X60528643Y-38486688D01*
X60531500Y-38513368D01*
X60531500Y-40216852D01*
X60511498Y-40284973D01*
X60494595Y-40305947D01*
X60431454Y-40369088D01*
X60416426Y-40381925D01*
X60405566Y-40389815D01*
X60401145Y-40394725D01*
X60401144Y-40394726D01*
X60361114Y-40439184D01*
X60356573Y-40443969D01*
X60342528Y-40458014D01*
X60340444Y-40460588D01*
X60340441Y-40460591D01*
X60330031Y-40473446D01*
X60325747Y-40478462D01*
X60285717Y-40522920D01*
X60285713Y-40522925D01*
X60281296Y-40527831D01*
X60277137Y-40535035D01*
X60274589Y-40539448D01*
X60263391Y-40555741D01*
X60254953Y-40566161D01*
X60224787Y-40625363D01*
X60221654Y-40631133D01*
X60191740Y-40682945D01*
X60191738Y-40682950D01*
X60188436Y-40688669D01*
X60186395Y-40694949D01*
X60186392Y-40694957D01*
X60184292Y-40701421D01*
X60176728Y-40719683D01*
X60173637Y-40725749D01*
X60173634Y-40725758D01*
X60170638Y-40731637D01*
X60168929Y-40738015D01*
X60153444Y-40795804D01*
X60151578Y-40802106D01*
X60131046Y-40865298D01*
X60130356Y-40871866D01*
X60129645Y-40878628D01*
X60126042Y-40898071D01*
X60122570Y-40911029D01*
X60119725Y-40965317D01*
X60119093Y-40977367D01*
X60118577Y-40983931D01*
X60116500Y-41003694D01*
X60116500Y-41023555D01*
X60116327Y-41030150D01*
X60113259Y-41088697D01*
X60112850Y-41096493D01*
X60113882Y-41103007D01*
X60114949Y-41109744D01*
X60116500Y-41129456D01*
X60116500Y-42031852D01*
X60096498Y-42099973D01*
X60079595Y-42120947D01*
X56095947Y-46104595D01*
X56033635Y-46138621D01*
X56006852Y-46141500D01*
X54809500Y-46141500D01*
X54741379Y-46121498D01*
X54694886Y-46067842D01*
X54683500Y-46015500D01*
X54683500Y-45806052D01*
X54703502Y-45737931D01*
X54757158Y-45691438D01*
X54783299Y-45682806D01*
X54907088Y-45656494D01*
X54960636Y-45632653D01*
X55075522Y-45581503D01*
X55075524Y-45581502D01*
X55081552Y-45578818D01*
X55095794Y-45568471D01*
X55160385Y-45521542D01*
X55236053Y-45466566D01*
X55363840Y-45324644D01*
X55459327Y-45159256D01*
X55518342Y-44977628D01*
X55521181Y-44950622D01*
X55537614Y-44794265D01*
X55538304Y-44787700D01*
X55529703Y-44705866D01*
X55519032Y-44604335D01*
X55519032Y-44604333D01*
X55518342Y-44597772D01*
X55459327Y-44416144D01*
X55363840Y-44250756D01*
X55236053Y-44108834D01*
X55081552Y-43996582D01*
X55075524Y-43993898D01*
X55075522Y-43993897D01*
X54913119Y-43921591D01*
X54913118Y-43921591D01*
X54907088Y-43918906D01*
X54813688Y-43899053D01*
X54726744Y-43880572D01*
X54726739Y-43880572D01*
X54720287Y-43879200D01*
X54529313Y-43879200D01*
X54522861Y-43880572D01*
X54522856Y-43880572D01*
X54435912Y-43899053D01*
X54342512Y-43918906D01*
X54336482Y-43921591D01*
X54336481Y-43921591D01*
X54174078Y-43993897D01*
X54174076Y-43993898D01*
X54168048Y-43996582D01*
X54013547Y-44108834D01*
X53885760Y-44250756D01*
X53790273Y-44416144D01*
X53788232Y-44422426D01*
X53777831Y-44454437D01*
X53737757Y-44513042D01*
X53672360Y-44540679D01*
X53657998Y-44541500D01*
X53349600Y-44541500D01*
X53346354Y-44541837D01*
X53346350Y-44541837D01*
X53250692Y-44551762D01*
X53250688Y-44551763D01*
X53243834Y-44552474D01*
X53237298Y-44554655D01*
X53237296Y-44554655D01*
X53126877Y-44591494D01*
X53076054Y-44608450D01*
X52925652Y-44701522D01*
X52920479Y-44706704D01*
X52839216Y-44788109D01*
X52776934Y-44822188D01*
X52706114Y-44817185D01*
X52661025Y-44788264D01*
X52578483Y-44705866D01*
X52573303Y-44700695D01*
X52566180Y-44696304D01*
X52428968Y-44611725D01*
X52428966Y-44611724D01*
X52422738Y-44607885D01*
X52262254Y-44554655D01*
X52261389Y-44554368D01*
X52261387Y-44554368D01*
X52254861Y-44552203D01*
X52248025Y-44551503D01*
X52248022Y-44551502D01*
X52204969Y-44547091D01*
X52150400Y-44541500D01*
X51524600Y-44541500D01*
X51521354Y-44541837D01*
X51521350Y-44541837D01*
X51425692Y-44551762D01*
X51425688Y-44551763D01*
X51418834Y-44552474D01*
X51412298Y-44554655D01*
X51412296Y-44554655D01*
X51301877Y-44591494D01*
X51251054Y-44608450D01*
X51100652Y-44701522D01*
X50975695Y-44826697D01*
X50971855Y-44832927D01*
X50971854Y-44832928D01*
X50887991Y-44968979D01*
X50882885Y-44977262D01*
X50827203Y-45145139D01*
X50826503Y-45151975D01*
X50826502Y-45151978D01*
X50825170Y-45164979D01*
X50816500Y-45249600D01*
X50816500Y-45469352D01*
X50796498Y-45537473D01*
X50779595Y-45558447D01*
X50258447Y-46079595D01*
X50196135Y-46113621D01*
X50169352Y-46116500D01*
X47357550Y-46116500D01*
X47299842Y-46101736D01*
X47296705Y-46099385D01*
X47160316Y-46048255D01*
X47098134Y-46041500D01*
X46623594Y-46041500D01*
X46555473Y-46021498D01*
X46508980Y-45967842D01*
X46498876Y-45897568D01*
X46528370Y-45832988D01*
X46534499Y-45826405D01*
X49176752Y-43184152D01*
X49239064Y-43150126D01*
X49298459Y-43151541D01*
X49356591Y-43167118D01*
X49356602Y-43167120D01*
X49361913Y-43168543D01*
X49590000Y-43188498D01*
X49818087Y-43168543D01*
X49823400Y-43167119D01*
X49823402Y-43167119D01*
X50033933Y-43110707D01*
X50033935Y-43110706D01*
X50039243Y-43109284D01*
X50148438Y-43058366D01*
X50241762Y-43014849D01*
X50241767Y-43014846D01*
X50246749Y-43012523D01*
X50359121Y-42933839D01*
X50429789Y-42884357D01*
X50429792Y-42884355D01*
X50434300Y-42881198D01*
X50596198Y-42719300D01*
X50609004Y-42701012D01*
X50678386Y-42601923D01*
X50727523Y-42531749D01*
X50729846Y-42526767D01*
X50729849Y-42526762D01*
X50821961Y-42329225D01*
X50821961Y-42329224D01*
X50824284Y-42324243D01*
X50866541Y-42166541D01*
X50882119Y-42108402D01*
X50882120Y-42108398D01*
X50883543Y-42103087D01*
X50903498Y-41875000D01*
X55076502Y-41875000D01*
X55096457Y-42103087D01*
X55097880Y-42108398D01*
X55097881Y-42108402D01*
X55113460Y-42166541D01*
X55155716Y-42324243D01*
X55158039Y-42329224D01*
X55158039Y-42329225D01*
X55250151Y-42526762D01*
X55250154Y-42526767D01*
X55252477Y-42531749D01*
X55301614Y-42601923D01*
X55370997Y-42701012D01*
X55383802Y-42719300D01*
X55545700Y-42881198D01*
X55550208Y-42884355D01*
X55550211Y-42884357D01*
X55620879Y-42933839D01*
X55733251Y-43012523D01*
X55738233Y-43014846D01*
X55738238Y-43014849D01*
X55831562Y-43058366D01*
X55940757Y-43109284D01*
X55946065Y-43110706D01*
X55946067Y-43110707D01*
X56156598Y-43167119D01*
X56156600Y-43167119D01*
X56161913Y-43168543D01*
X56390000Y-43188498D01*
X56618087Y-43168543D01*
X56623400Y-43167119D01*
X56623402Y-43167119D01*
X56833933Y-43110707D01*
X56833935Y-43110706D01*
X56839243Y-43109284D01*
X56948438Y-43058366D01*
X57041762Y-43014849D01*
X57041767Y-43014846D01*
X57046749Y-43012523D01*
X57159121Y-42933839D01*
X57229789Y-42884357D01*
X57229792Y-42884355D01*
X57234300Y-42881198D01*
X57396198Y-42719300D01*
X57409004Y-42701012D01*
X57478386Y-42601923D01*
X57527523Y-42531749D01*
X57529846Y-42526767D01*
X57529849Y-42526762D01*
X57621961Y-42329225D01*
X57621961Y-42329224D01*
X57624284Y-42324243D01*
X57666541Y-42166541D01*
X57682119Y-42108402D01*
X57682120Y-42108398D01*
X57683543Y-42103087D01*
X57703498Y-41875000D01*
X57683543Y-41646913D01*
X57657855Y-41551046D01*
X57625707Y-41431067D01*
X57625706Y-41431065D01*
X57624284Y-41425757D01*
X57582860Y-41336922D01*
X57529849Y-41223238D01*
X57529846Y-41223233D01*
X57527523Y-41218251D01*
X57453792Y-41112952D01*
X57399357Y-41035211D01*
X57399355Y-41035208D01*
X57396198Y-41030700D01*
X57234300Y-40868802D01*
X57229792Y-40865645D01*
X57229789Y-40865643D01*
X57139077Y-40802126D01*
X57046749Y-40737477D01*
X57041767Y-40735154D01*
X57041762Y-40735151D01*
X56844225Y-40643039D01*
X56844224Y-40643039D01*
X56839243Y-40640716D01*
X56792839Y-40628282D01*
X56674034Y-40596448D01*
X56613412Y-40559496D01*
X56582390Y-40495635D01*
X56590819Y-40425141D01*
X56636022Y-40370394D01*
X56674035Y-40353034D01*
X56833761Y-40310236D01*
X56844053Y-40306490D01*
X57041511Y-40214414D01*
X57051006Y-40208931D01*
X57103048Y-40172491D01*
X57111424Y-40162012D01*
X57104356Y-40148566D01*
X56402812Y-39447022D01*
X56388868Y-39439408D01*
X56387035Y-39439539D01*
X56380420Y-39443790D01*
X55674923Y-40149287D01*
X55668493Y-40161062D01*
X55677789Y-40173077D01*
X55728994Y-40208931D01*
X55738489Y-40214414D01*
X55935947Y-40306490D01*
X55946239Y-40310236D01*
X56105965Y-40353034D01*
X56166588Y-40389986D01*
X56197609Y-40453846D01*
X56189181Y-40524341D01*
X56143978Y-40579088D01*
X56105966Y-40596448D01*
X55987161Y-40628282D01*
X55940757Y-40640716D01*
X55935776Y-40643039D01*
X55935775Y-40643039D01*
X55738238Y-40735151D01*
X55738233Y-40735154D01*
X55733251Y-40737477D01*
X55640923Y-40802126D01*
X55550211Y-40865643D01*
X55550208Y-40865645D01*
X55545700Y-40868802D01*
X55383802Y-41030700D01*
X55380645Y-41035208D01*
X55380643Y-41035211D01*
X55326208Y-41112952D01*
X55252477Y-41218251D01*
X55250154Y-41223233D01*
X55250151Y-41223238D01*
X55197140Y-41336922D01*
X55155716Y-41425757D01*
X55154294Y-41431065D01*
X55154293Y-41431067D01*
X55122145Y-41551046D01*
X55096457Y-41646913D01*
X55076502Y-41875000D01*
X50903498Y-41875000D01*
X50883543Y-41646913D01*
X50857855Y-41551046D01*
X50825707Y-41431067D01*
X50825706Y-41431065D01*
X50824284Y-41425757D01*
X50782860Y-41336922D01*
X50729849Y-41223238D01*
X50729846Y-41223233D01*
X50727523Y-41218251D01*
X50653792Y-41112952D01*
X50599357Y-41035211D01*
X50599355Y-41035208D01*
X50596198Y-41030700D01*
X50434300Y-40868802D01*
X50429792Y-40865645D01*
X50429789Y-40865643D01*
X50339077Y-40802126D01*
X50246749Y-40737477D01*
X50241767Y-40735154D01*
X50241762Y-40735151D01*
X50044225Y-40643039D01*
X50044224Y-40643039D01*
X50039243Y-40640716D01*
X50033935Y-40639294D01*
X50033933Y-40639293D01*
X49875000Y-40596707D01*
X49814377Y-40559755D01*
X49783356Y-40495894D01*
X49791784Y-40425400D01*
X49836987Y-40370653D01*
X49875000Y-40353293D01*
X50033933Y-40310707D01*
X50033935Y-40310706D01*
X50039243Y-40309284D01*
X50045235Y-40306490D01*
X50241762Y-40214849D01*
X50241767Y-40214846D01*
X50246749Y-40212523D01*
X50317792Y-40162778D01*
X50385066Y-40140090D01*
X50453927Y-40157375D01*
X50490886Y-40190422D01*
X50526739Y-40238261D01*
X50643295Y-40325615D01*
X50779684Y-40376745D01*
X50841866Y-40383500D01*
X52538134Y-40383500D01*
X52600316Y-40376745D01*
X52736705Y-40325615D01*
X52853261Y-40238261D01*
X52940615Y-40121705D01*
X52991745Y-39985316D01*
X52998500Y-39923134D01*
X52998500Y-39911468D01*
X53018502Y-39843347D01*
X53072158Y-39796854D01*
X53142432Y-39786750D01*
X53207012Y-39816244D01*
X53227713Y-39839197D01*
X53271137Y-39901212D01*
X53283802Y-39919300D01*
X53445700Y-40081198D01*
X53450208Y-40084355D01*
X53450211Y-40084357D01*
X53453700Y-40086800D01*
X53633251Y-40212523D01*
X53638233Y-40214846D01*
X53638238Y-40214849D01*
X53834765Y-40306490D01*
X53840757Y-40309284D01*
X53846065Y-40310706D01*
X53846067Y-40310707D01*
X54056598Y-40367119D01*
X54056600Y-40367119D01*
X54061913Y-40368543D01*
X54290000Y-40388498D01*
X54518087Y-40368543D01*
X54523400Y-40367119D01*
X54523402Y-40367119D01*
X54733933Y-40310707D01*
X54733935Y-40310706D01*
X54739243Y-40309284D01*
X54745235Y-40306490D01*
X54941762Y-40214849D01*
X54941767Y-40214846D01*
X54946749Y-40212523D01*
X55126300Y-40086800D01*
X55129789Y-40084357D01*
X55129792Y-40084355D01*
X55134300Y-40081198D01*
X55296198Y-39919300D01*
X55308864Y-39901212D01*
X55424366Y-39736257D01*
X55427523Y-39731749D01*
X55429846Y-39726767D01*
X55429849Y-39726762D01*
X55464864Y-39651671D01*
X55489964Y-39615826D01*
X56017978Y-39087812D01*
X56024356Y-39076132D01*
X56754408Y-39076132D01*
X56754539Y-39077965D01*
X56758790Y-39084580D01*
X57464287Y-39790077D01*
X57476062Y-39796507D01*
X57488077Y-39787211D01*
X57523931Y-39736006D01*
X57529414Y-39726511D01*
X57621490Y-39529053D01*
X57625236Y-39518761D01*
X57681625Y-39308312D01*
X57683528Y-39297519D01*
X57702517Y-39080475D01*
X57702517Y-39069525D01*
X57683528Y-38852481D01*
X57681625Y-38841688D01*
X57625236Y-38631239D01*
X57621490Y-38620947D01*
X57529414Y-38423489D01*
X57523931Y-38413994D01*
X57487491Y-38361952D01*
X57477012Y-38353576D01*
X57463566Y-38360644D01*
X56762022Y-39062188D01*
X56754408Y-39076132D01*
X56024356Y-39076132D01*
X56025592Y-39073868D01*
X56025461Y-39072035D01*
X56021210Y-39065420D01*
X55489964Y-38534174D01*
X55464864Y-38498329D01*
X55429849Y-38423238D01*
X55429846Y-38423233D01*
X55427523Y-38418251D01*
X55296198Y-38230700D01*
X55134300Y-38068802D01*
X55129792Y-38065645D01*
X55129789Y-38065643D01*
X55018886Y-37987988D01*
X55668576Y-37987988D01*
X55675644Y-38001434D01*
X56377188Y-38702978D01*
X56391132Y-38710592D01*
X56392965Y-38710461D01*
X56399580Y-38706210D01*
X57105077Y-38000713D01*
X57111507Y-37988938D01*
X57102211Y-37976923D01*
X57051006Y-37941069D01*
X57041511Y-37935586D01*
X56844053Y-37843510D01*
X56833761Y-37839764D01*
X56623312Y-37783375D01*
X56612519Y-37781472D01*
X56395475Y-37762483D01*
X56384525Y-37762483D01*
X56167481Y-37781472D01*
X56156688Y-37783375D01*
X55946239Y-37839764D01*
X55935947Y-37843510D01*
X55738489Y-37935586D01*
X55728994Y-37941069D01*
X55676952Y-37977509D01*
X55668576Y-37987988D01*
X55018886Y-37987988D01*
X55003920Y-37977509D01*
X54946749Y-37937477D01*
X54941767Y-37935154D01*
X54941762Y-37935151D01*
X54744225Y-37843039D01*
X54744224Y-37843039D01*
X54739243Y-37840716D01*
X54733935Y-37839294D01*
X54733933Y-37839293D01*
X54523402Y-37782881D01*
X54523400Y-37782881D01*
X54518087Y-37781457D01*
X54290000Y-37761502D01*
X54061913Y-37781457D01*
X54056600Y-37782881D01*
X54056598Y-37782881D01*
X53846067Y-37839293D01*
X53846065Y-37839294D01*
X53840757Y-37840716D01*
X53835776Y-37843039D01*
X53835775Y-37843039D01*
X53638238Y-37935151D01*
X53638233Y-37935154D01*
X53633251Y-37937477D01*
X53576080Y-37977509D01*
X53450211Y-38065643D01*
X53450208Y-38065645D01*
X53445700Y-38068802D01*
X53283802Y-38230700D01*
X53280645Y-38235208D01*
X53280643Y-38235211D01*
X53227713Y-38310803D01*
X53172256Y-38355131D01*
X53101636Y-38362440D01*
X53038276Y-38330409D01*
X53002291Y-38269208D01*
X52998500Y-38238532D01*
X52998500Y-38226866D01*
X52991745Y-38164684D01*
X52940615Y-38028295D01*
X52853261Y-37911739D01*
X52736705Y-37824385D01*
X52600316Y-37773255D01*
X52538134Y-37766500D01*
X50841866Y-37766500D01*
X50779684Y-37773255D01*
X50643295Y-37824385D01*
X50526739Y-37911739D01*
X50490887Y-37959576D01*
X50434030Y-38002089D01*
X50363212Y-38007115D01*
X50317792Y-37987222D01*
X50312678Y-37983641D01*
X50246749Y-37937477D01*
X50241767Y-37935154D01*
X50241762Y-37935151D01*
X50044225Y-37843039D01*
X50044224Y-37843039D01*
X50039243Y-37840716D01*
X50033935Y-37839294D01*
X50033933Y-37839293D01*
X49823402Y-37782881D01*
X49823400Y-37782881D01*
X49818087Y-37781457D01*
X49590000Y-37761502D01*
X49361913Y-37781457D01*
X49356600Y-37782881D01*
X49356598Y-37782881D01*
X49146067Y-37839293D01*
X49146065Y-37839294D01*
X49140757Y-37840716D01*
X49135776Y-37843039D01*
X49135775Y-37843039D01*
X48938238Y-37935151D01*
X48938233Y-37935154D01*
X48933251Y-37937477D01*
X48876080Y-37977509D01*
X48750211Y-38065643D01*
X48750208Y-38065645D01*
X48745700Y-38068802D01*
X48583802Y-38230700D01*
X48452477Y-38418251D01*
X48450154Y-38423233D01*
X48450151Y-38423238D01*
X48381471Y-38570524D01*
X48355716Y-38625757D01*
X48354294Y-38631065D01*
X48354293Y-38631067D01*
X48320703Y-38756427D01*
X48296457Y-38846913D01*
X48276502Y-39075000D01*
X48296457Y-39303087D01*
X48297881Y-39308400D01*
X48297881Y-39308402D01*
X48335025Y-39447022D01*
X48355716Y-39524243D01*
X48358039Y-39529224D01*
X48358039Y-39529225D01*
X48450151Y-39726762D01*
X48450154Y-39726767D01*
X48452477Y-39731749D01*
X48455634Y-39736257D01*
X48571137Y-39901212D01*
X48583802Y-39919300D01*
X48745700Y-40081198D01*
X48750208Y-40084355D01*
X48750211Y-40084357D01*
X48753700Y-40086800D01*
X48933251Y-40212523D01*
X48938233Y-40214846D01*
X48938238Y-40214849D01*
X49134765Y-40306490D01*
X49140757Y-40309284D01*
X49146065Y-40310706D01*
X49146067Y-40310707D01*
X49305000Y-40353293D01*
X49365623Y-40390245D01*
X49396644Y-40454106D01*
X49388216Y-40524600D01*
X49343013Y-40579347D01*
X49305000Y-40596707D01*
X49146067Y-40639293D01*
X49146065Y-40639294D01*
X49140757Y-40640716D01*
X49135776Y-40643039D01*
X49135775Y-40643039D01*
X48938238Y-40735151D01*
X48938233Y-40735154D01*
X48933251Y-40737477D01*
X48840923Y-40802126D01*
X48750211Y-40865643D01*
X48750208Y-40865645D01*
X48745700Y-40868802D01*
X48583802Y-41030700D01*
X48580645Y-41035208D01*
X48580643Y-41035211D01*
X48526208Y-41112952D01*
X48452477Y-41218251D01*
X48450154Y-41223233D01*
X48450151Y-41223238D01*
X48397140Y-41336922D01*
X48355716Y-41425757D01*
X48354294Y-41431065D01*
X48354293Y-41431067D01*
X48322145Y-41551046D01*
X48296457Y-41646913D01*
X48276502Y-41875000D01*
X48296457Y-42103087D01*
X48313460Y-42166541D01*
X48311770Y-42237518D01*
X48280848Y-42288247D01*
X45032547Y-45536548D01*
X45024261Y-45544088D01*
X45017782Y-45548200D01*
X45012357Y-45553977D01*
X44971157Y-45597851D01*
X44968402Y-45600693D01*
X44948665Y-45620430D01*
X44946186Y-45623627D01*
X44938476Y-45632653D01*
X44926640Y-45645256D01*
X44865426Y-45681219D01*
X44794486Y-45678378D01*
X44745699Y-45648094D01*
X44164552Y-45066947D01*
X44157012Y-45058661D01*
X44152900Y-45052182D01*
X44103248Y-45005556D01*
X44100407Y-45002802D01*
X44080670Y-44983065D01*
X44077473Y-44980585D01*
X44068451Y-44972880D01*
X44064297Y-44968979D01*
X44036221Y-44942614D01*
X44029275Y-44938795D01*
X44029272Y-44938793D01*
X44018466Y-44932852D01*
X44001947Y-44922001D01*
X44001483Y-44921641D01*
X43985941Y-44909586D01*
X43978672Y-44906441D01*
X43978668Y-44906438D01*
X43945363Y-44892026D01*
X43934713Y-44886809D01*
X43895960Y-44865505D01*
X43876337Y-44860467D01*
X43857634Y-44854063D01*
X43846320Y-44849167D01*
X43846319Y-44849167D01*
X43839045Y-44846019D01*
X43831222Y-44844780D01*
X43831212Y-44844777D01*
X43795376Y-44839101D01*
X43783756Y-44836695D01*
X43748611Y-44827672D01*
X43748610Y-44827672D01*
X43740930Y-44825700D01*
X43720676Y-44825700D01*
X43700965Y-44824149D01*
X43688786Y-44822220D01*
X43680957Y-44820980D01*
X43651686Y-44823747D01*
X43636939Y-44825141D01*
X43625081Y-44825700D01*
X41766168Y-44825700D01*
X41754985Y-44825173D01*
X41747492Y-44823498D01*
X41739566Y-44823747D01*
X41739565Y-44823747D01*
X41679402Y-44825638D01*
X41675444Y-44825700D01*
X41647544Y-44825700D01*
X41643554Y-44826204D01*
X41631720Y-44827136D01*
X41587511Y-44828526D01*
X41579895Y-44830739D01*
X41579893Y-44830739D01*
X41568052Y-44834179D01*
X41548693Y-44838188D01*
X41547383Y-44838354D01*
X41528603Y-44840726D01*
X41521237Y-44843642D01*
X41521231Y-44843644D01*
X41487498Y-44857000D01*
X41476268Y-44860845D01*
X41460228Y-44865505D01*
X41433807Y-44873181D01*
X41426984Y-44877216D01*
X41416366Y-44883495D01*
X41398613Y-44892192D01*
X41390968Y-44895219D01*
X41379783Y-44899648D01*
X41366105Y-44909586D01*
X41344012Y-44925637D01*
X41334095Y-44932151D01*
X41296038Y-44954658D01*
X41281717Y-44968979D01*
X41266684Y-44981819D01*
X41250293Y-44993728D01*
X41223916Y-45025613D01*
X41222112Y-45027793D01*
X41214122Y-45036574D01*
X40643042Y-45607653D01*
X40634763Y-45615187D01*
X40628282Y-45619300D01*
X40585481Y-45664879D01*
X40581657Y-45668951D01*
X40578902Y-45671793D01*
X40559165Y-45691530D01*
X40556685Y-45694727D01*
X40548982Y-45703747D01*
X40518714Y-45735979D01*
X40514895Y-45742925D01*
X40514893Y-45742928D01*
X40508952Y-45753734D01*
X40498101Y-45770253D01*
X40485686Y-45786259D01*
X40482541Y-45793528D01*
X40482538Y-45793532D01*
X40468126Y-45826837D01*
X40462909Y-45837487D01*
X40441605Y-45876240D01*
X40439634Y-45883915D01*
X40439634Y-45883916D01*
X40436567Y-45895862D01*
X40430163Y-45914566D01*
X40422119Y-45933155D01*
X40420880Y-45940978D01*
X40420877Y-45940988D01*
X40415201Y-45976824D01*
X40412795Y-45988444D01*
X40401800Y-46031270D01*
X40401800Y-46051524D01*
X40400249Y-46071234D01*
X40397080Y-46091243D01*
X40397826Y-46099135D01*
X40401241Y-46135261D01*
X40401800Y-46147119D01*
X40401800Y-49056235D01*
X40381798Y-49124356D01*
X40328142Y-49170849D01*
X40275494Y-49182235D01*
X39927991Y-49181386D01*
X39859921Y-49161218D01*
X39813559Y-49107449D01*
X39802300Y-49055387D01*
X39802300Y-41521095D01*
X41309251Y-41521095D01*
X41309548Y-41526248D01*
X41309548Y-41526251D01*
X41315011Y-41620990D01*
X41322110Y-41744115D01*
X41323247Y-41749161D01*
X41323248Y-41749167D01*
X41343119Y-41837339D01*
X41371222Y-41962039D01*
X41455266Y-42169016D01*
X41571987Y-42359488D01*
X41718250Y-42528338D01*
X41890126Y-42671032D01*
X42083000Y-42783738D01*
X42087825Y-42785580D01*
X42087826Y-42785581D01*
X42138792Y-42805043D01*
X42291692Y-42863430D01*
X42296760Y-42864461D01*
X42296763Y-42864462D01*
X42379024Y-42881198D01*
X42510597Y-42907967D01*
X42515772Y-42908157D01*
X42515774Y-42908157D01*
X42728673Y-42915964D01*
X42728677Y-42915964D01*
X42733837Y-42916153D01*
X42738957Y-42915497D01*
X42738959Y-42915497D01*
X42950288Y-42888425D01*
X42950289Y-42888425D01*
X42955416Y-42887768D01*
X42960366Y-42886283D01*
X43164429Y-42825061D01*
X43164434Y-42825059D01*
X43169384Y-42823574D01*
X43369994Y-42725296D01*
X43551860Y-42595573D01*
X43710096Y-42437889D01*
X43769594Y-42355089D01*
X43837435Y-42260677D01*
X43840453Y-42256477D01*
X43850175Y-42236807D01*
X43937136Y-42060853D01*
X43937137Y-42060851D01*
X43939430Y-42056211D01*
X44004370Y-41842469D01*
X44033529Y-41620990D01*
X44035156Y-41554400D01*
X44016852Y-41331761D01*
X43962431Y-41115102D01*
X43873354Y-40910240D01*
X43801382Y-40798988D01*
X43754822Y-40727017D01*
X43754820Y-40727014D01*
X43752014Y-40722677D01*
X43601670Y-40557451D01*
X43597619Y-40554252D01*
X43597615Y-40554248D01*
X43430414Y-40422200D01*
X43430410Y-40422198D01*
X43426359Y-40418998D01*
X43384569Y-40395929D01*
X43334598Y-40345497D01*
X43319826Y-40276054D01*
X43344942Y-40209648D01*
X43372294Y-40183041D01*
X43547328Y-40058192D01*
X43555200Y-40051539D01*
X43706052Y-39901212D01*
X43712730Y-39893365D01*
X43837003Y-39720420D01*
X43842313Y-39711583D01*
X43936670Y-39520667D01*
X43940469Y-39511072D01*
X44002377Y-39307310D01*
X44004555Y-39297237D01*
X44005986Y-39286362D01*
X44003775Y-39272178D01*
X43990617Y-39268400D01*
X41355225Y-39268400D01*
X41341694Y-39272373D01*
X41340257Y-39282366D01*
X41370565Y-39416846D01*
X41373645Y-39426675D01*
X41453770Y-39624003D01*
X41458413Y-39633194D01*
X41569694Y-39814788D01*
X41575777Y-39823099D01*
X41715213Y-39984067D01*
X41722580Y-39991283D01*
X41886434Y-40127316D01*
X41894881Y-40133231D01*
X41963969Y-40173603D01*
X42012693Y-40225242D01*
X42025764Y-40295025D01*
X41999033Y-40360796D01*
X41958584Y-40394152D01*
X41945607Y-40400907D01*
X41941474Y-40404010D01*
X41941471Y-40404012D01*
X41771100Y-40531930D01*
X41766965Y-40535035D01*
X41763393Y-40538773D01*
X41649313Y-40658151D01*
X41612629Y-40696538D01*
X41609715Y-40700810D01*
X41609714Y-40700811D01*
X41544914Y-40795804D01*
X41486743Y-40881080D01*
X41450457Y-40959251D01*
X41405220Y-41056708D01*
X41392688Y-41083705D01*
X41332989Y-41298970D01*
X41309251Y-41521095D01*
X39802300Y-41521095D01*
X39802300Y-31063700D01*
X39822302Y-30995579D01*
X39875958Y-30949086D01*
X39928300Y-30937700D01*
X63365500Y-30937700D01*
X63433621Y-30957702D01*
G37*
%TD.AperFunction*%
%TA.AperFunction,Conductor*%
G36*
X58147926Y-46655698D02*
G01*
X58204762Y-46698245D01*
X58229573Y-46764765D01*
X58229645Y-46781665D01*
X58216538Y-46990000D01*
X58235567Y-47292462D01*
X58292355Y-47590154D01*
X58316312Y-47663886D01*
X58365863Y-47816386D01*
X58386006Y-47878381D01*
X58387693Y-47881967D01*
X58387695Y-47881971D01*
X58436716Y-47986145D01*
X58515042Y-48152598D01*
X58517166Y-48155944D01*
X58517166Y-48155945D01*
X58530814Y-48177451D01*
X58677430Y-48408480D01*
X58870608Y-48641992D01*
X58873495Y-48644703D01*
X59081610Y-48840135D01*
X59091529Y-48849450D01*
X59094731Y-48851777D01*
X59094733Y-48851778D01*
X59299508Y-49000555D01*
X59342862Y-49056777D01*
X59348937Y-49127513D01*
X59315806Y-49190305D01*
X59253986Y-49225216D01*
X59225139Y-49228491D01*
X53408500Y-49214293D01*
X53408500Y-48972000D01*
X53428502Y-48903879D01*
X53482158Y-48857386D01*
X53534500Y-48846000D01*
X54664884Y-48846000D01*
X54680123Y-48841525D01*
X54681328Y-48840135D01*
X54682999Y-48832452D01*
X54682999Y-48602905D01*
X54682662Y-48596386D01*
X54672743Y-48500794D01*
X54669851Y-48487400D01*
X54618412Y-48333216D01*
X54612239Y-48320038D01*
X54526937Y-48182193D01*
X54517901Y-48170792D01*
X54470700Y-48123673D01*
X54436621Y-48061390D01*
X54441624Y-47990570D01*
X54484121Y-47933697D01*
X54550620Y-47908829D01*
X54559718Y-47908500D01*
X56345543Y-47908500D01*
X56365255Y-47910051D01*
X56378507Y-47912150D01*
X56385094Y-47911805D01*
X56385098Y-47911805D01*
X56444850Y-47908673D01*
X56451445Y-47908500D01*
X56471306Y-47908500D01*
X56491069Y-47906423D01*
X56497628Y-47905907D01*
X56513427Y-47905079D01*
X56557377Y-47902776D01*
X56557381Y-47902775D01*
X56563971Y-47902430D01*
X56576929Y-47898958D01*
X56596372Y-47895355D01*
X56596795Y-47895311D01*
X56609702Y-47893954D01*
X56672894Y-47873422D01*
X56679196Y-47871556D01*
X56736985Y-47856071D01*
X56743363Y-47854362D01*
X56749242Y-47851366D01*
X56749251Y-47851363D01*
X56755317Y-47848272D01*
X56773579Y-47840708D01*
X56780043Y-47838608D01*
X56780051Y-47838605D01*
X56786331Y-47836564D01*
X56792050Y-47833262D01*
X56792055Y-47833260D01*
X56843867Y-47803346D01*
X56849637Y-47800213D01*
X56908839Y-47770047D01*
X56919259Y-47761609D01*
X56935552Y-47750411D01*
X56935903Y-47750209D01*
X56947169Y-47743704D01*
X56952075Y-47739287D01*
X56952080Y-47739283D01*
X56996538Y-47699253D01*
X57001554Y-47694969D01*
X57014409Y-47684559D01*
X57014412Y-47684556D01*
X57016986Y-47682472D01*
X57031031Y-47668427D01*
X57035816Y-47663886D01*
X57080274Y-47623856D01*
X57080275Y-47623855D01*
X57085185Y-47619434D01*
X57093075Y-47608574D01*
X57105912Y-47593546D01*
X58014799Y-46684659D01*
X58077111Y-46650633D01*
X58147926Y-46655698D01*
G37*
%TD.AperFunction*%
%TD*%
M02*
