%TF.GenerationSoftware,KiCad,Pcbnew,(6.0.7)*%
%TF.CreationDate,2022-12-21T02:17:17+00:00*%
%TF.ProjectId,CPC464-2MINIDOCK,43504334-3634-42d3-924d-494e49444f43,rev?*%
%TF.SameCoordinates,Original*%
%TF.FileFunction,Legend,Top*%
%TF.FilePolarity,Positive*%
%FSLAX46Y46*%
G04 Gerber Fmt 4.6, Leading zero omitted, Abs format (unit mm)*
G04 Created by KiCad (PCBNEW (6.0.7)) date 2022-12-21 02:17:17*
%MOMM*%
%LPD*%
G01*
G04 APERTURE LIST*
%ADD10C,0.225000*%
%ADD11C,0.150000*%
%ADD12C,0.120000*%
G04 APERTURE END LIST*
D10*
X99821409Y-104725790D02*
X99773790Y-104678171D01*
X99678552Y-104630552D01*
X99583314Y-104630552D01*
X99488076Y-104678171D01*
X99440457Y-104725790D01*
X99392838Y-104821028D01*
X99392838Y-104916266D01*
X99440457Y-105011504D01*
X99488076Y-105059123D01*
X99583314Y-105106742D01*
X99678552Y-105106742D01*
X99773790Y-105059123D01*
X99821409Y-105011504D01*
X99821409Y-104630552D02*
X99821409Y-105011504D01*
X99869028Y-105059123D01*
X99916647Y-105059123D01*
X100011885Y-105011504D01*
X100059504Y-104916266D01*
X100059504Y-104678171D01*
X99964266Y-104535314D01*
X99821409Y-104440076D01*
X99630933Y-104392457D01*
X99440457Y-104440076D01*
X99297600Y-104535314D01*
X99202361Y-104678171D01*
X99154742Y-104868647D01*
X99202361Y-105059123D01*
X99297600Y-105201980D01*
X99440457Y-105297219D01*
X99630933Y-105344838D01*
X99821409Y-105297219D01*
X99964266Y-105201980D01*
X100916647Y-104535314D02*
X100916647Y-105344838D01*
X100869028Y-105440076D01*
X100821409Y-105487695D01*
X100726171Y-105535314D01*
X100583314Y-105535314D01*
X100488076Y-105487695D01*
X100916647Y-105154361D02*
X100821409Y-105201980D01*
X100630933Y-105201980D01*
X100535695Y-105154361D01*
X100488076Y-105106742D01*
X100440457Y-105011504D01*
X100440457Y-104725790D01*
X100488076Y-104630552D01*
X100535695Y-104582933D01*
X100630933Y-104535314D01*
X100821409Y-104535314D01*
X100916647Y-104582933D01*
X101392838Y-105201980D02*
X101392838Y-104535314D01*
X101392838Y-104725790D02*
X101440457Y-104630552D01*
X101488076Y-104582933D01*
X101583314Y-104535314D01*
X101678552Y-104535314D01*
X102440457Y-105201980D02*
X102440457Y-104678171D01*
X102392838Y-104582933D01*
X102297600Y-104535314D01*
X102107123Y-104535314D01*
X102011885Y-104582933D01*
X102440457Y-105154361D02*
X102345219Y-105201980D01*
X102107123Y-105201980D01*
X102011885Y-105154361D01*
X101964266Y-105059123D01*
X101964266Y-104963885D01*
X102011885Y-104868647D01*
X102107123Y-104821028D01*
X102345219Y-104821028D01*
X102440457Y-104773409D01*
X102916647Y-104535314D02*
X102916647Y-105201980D01*
X102916647Y-104630552D02*
X102964266Y-104582933D01*
X103059504Y-104535314D01*
X103202361Y-104535314D01*
X103297600Y-104582933D01*
X103345219Y-104678171D01*
X103345219Y-105201980D01*
X104249980Y-105201980D02*
X104249980Y-104201980D01*
X104249980Y-105154361D02*
X104154742Y-105201980D01*
X103964266Y-105201980D01*
X103869028Y-105154361D01*
X103821409Y-105106742D01*
X103773790Y-105011504D01*
X103773790Y-104725790D01*
X103821409Y-104630552D01*
X103869028Y-104582933D01*
X103964266Y-104535314D01*
X104154742Y-104535314D01*
X104249980Y-104582933D01*
X104869028Y-105201980D02*
X104773790Y-105154361D01*
X104726171Y-105106742D01*
X104678552Y-105011504D01*
X104678552Y-104725790D01*
X104726171Y-104630552D01*
X104773790Y-104582933D01*
X104869028Y-104535314D01*
X105011885Y-104535314D01*
X105107123Y-104582933D01*
X105154742Y-104630552D01*
X105202361Y-104725790D01*
X105202361Y-105011504D01*
X105154742Y-105106742D01*
X105107123Y-105154361D01*
X105011885Y-105201980D01*
X104869028Y-105201980D01*
X105773790Y-105201980D02*
X105678552Y-105154361D01*
X105630933Y-105059123D01*
X105630933Y-104201980D01*
X106583314Y-105201980D02*
X106583314Y-104201980D01*
X106583314Y-105154361D02*
X106488076Y-105201980D01*
X106297600Y-105201980D01*
X106202361Y-105154361D01*
X106154742Y-105106742D01*
X106107123Y-105011504D01*
X106107123Y-104725790D01*
X106154742Y-104630552D01*
X106202361Y-104582933D01*
X106297600Y-104535314D01*
X106488076Y-104535314D01*
X106583314Y-104582933D01*
X107059504Y-105201980D02*
X107059504Y-104535314D01*
X107059504Y-104201980D02*
X107011885Y-104249600D01*
X107059504Y-104297219D01*
X107107123Y-104249600D01*
X107059504Y-104201980D01*
X107059504Y-104297219D01*
X107964266Y-105201980D02*
X107964266Y-104678171D01*
X107916647Y-104582933D01*
X107821409Y-104535314D01*
X107630933Y-104535314D01*
X107535695Y-104582933D01*
X107964266Y-105154361D02*
X107869028Y-105201980D01*
X107630933Y-105201980D01*
X107535695Y-105154361D01*
X107488076Y-105059123D01*
X107488076Y-104963885D01*
X107535695Y-104868647D01*
X107630933Y-104821028D01*
X107869028Y-104821028D01*
X107964266Y-104773409D01*
X108440457Y-104535314D02*
X108440457Y-105201980D01*
X108440457Y-104630552D02*
X108488076Y-104582933D01*
X108583314Y-104535314D01*
X108726171Y-104535314D01*
X108821409Y-104582933D01*
X108869028Y-104678171D01*
X108869028Y-105201980D01*
X110630933Y-105201980D02*
X110059504Y-105201980D01*
X110345219Y-105201980D02*
X110345219Y-104201980D01*
X110249980Y-104344838D01*
X110154742Y-104440076D01*
X110059504Y-104487695D01*
X111011885Y-104297219D02*
X111059504Y-104249600D01*
X111154742Y-104201980D01*
X111392838Y-104201980D01*
X111488076Y-104249600D01*
X111535695Y-104297219D01*
X111583314Y-104392457D01*
X111583314Y-104487695D01*
X111535695Y-104630552D01*
X110964266Y-105201980D01*
X111583314Y-105201980D01*
X112726171Y-104154361D02*
X111869028Y-105440076D01*
X113011885Y-104297219D02*
X113059504Y-104249600D01*
X113154742Y-104201980D01*
X113392838Y-104201980D01*
X113488076Y-104249600D01*
X113535695Y-104297219D01*
X113583314Y-104392457D01*
X113583314Y-104487695D01*
X113535695Y-104630552D01*
X112964266Y-105201980D01*
X113583314Y-105201980D01*
X114202361Y-104201980D02*
X114297600Y-104201980D01*
X114392838Y-104249600D01*
X114440457Y-104297219D01*
X114488076Y-104392457D01*
X114535695Y-104582933D01*
X114535695Y-104821028D01*
X114488076Y-105011504D01*
X114440457Y-105106742D01*
X114392838Y-105154361D01*
X114297600Y-105201980D01*
X114202361Y-105201980D01*
X114107123Y-105154361D01*
X114059504Y-105106742D01*
X114011885Y-105011504D01*
X113964266Y-104821028D01*
X113964266Y-104582933D01*
X114011885Y-104392457D01*
X114059504Y-104297219D01*
X114107123Y-104249600D01*
X114202361Y-104201980D01*
X114916647Y-104297219D02*
X114964266Y-104249600D01*
X115059504Y-104201980D01*
X115297600Y-104201980D01*
X115392838Y-104249600D01*
X115440457Y-104297219D01*
X115488076Y-104392457D01*
X115488076Y-104487695D01*
X115440457Y-104630552D01*
X114869028Y-105201980D01*
X115488076Y-105201980D01*
X115869028Y-104297219D02*
X115916647Y-104249600D01*
X116011885Y-104201980D01*
X116249980Y-104201980D01*
X116345219Y-104249600D01*
X116392838Y-104297219D01*
X116440457Y-104392457D01*
X116440457Y-104487695D01*
X116392838Y-104630552D01*
X115821409Y-105201980D01*
X116440457Y-105201980D01*
X35538828Y-105157542D02*
X35491209Y-105205161D01*
X35348352Y-105252780D01*
X35253114Y-105252780D01*
X35110257Y-105205161D01*
X35015019Y-105109923D01*
X34967400Y-105014685D01*
X34919780Y-104824209D01*
X34919780Y-104681352D01*
X34967400Y-104490876D01*
X35015019Y-104395638D01*
X35110257Y-104300400D01*
X35253114Y-104252780D01*
X35348352Y-104252780D01*
X35491209Y-104300400D01*
X35538828Y-104348019D01*
X35967400Y-105252780D02*
X35967400Y-104252780D01*
X36348352Y-104252780D01*
X36443590Y-104300400D01*
X36491209Y-104348019D01*
X36538828Y-104443257D01*
X36538828Y-104586114D01*
X36491209Y-104681352D01*
X36443590Y-104728971D01*
X36348352Y-104776590D01*
X35967400Y-104776590D01*
X37538828Y-105157542D02*
X37491209Y-105205161D01*
X37348352Y-105252780D01*
X37253114Y-105252780D01*
X37110257Y-105205161D01*
X37015019Y-105109923D01*
X36967400Y-105014685D01*
X36919780Y-104824209D01*
X36919780Y-104681352D01*
X36967400Y-104490876D01*
X37015019Y-104395638D01*
X37110257Y-104300400D01*
X37253114Y-104252780D01*
X37348352Y-104252780D01*
X37491209Y-104300400D01*
X37538828Y-104348019D01*
X38395971Y-104586114D02*
X38395971Y-105252780D01*
X38157876Y-104205161D02*
X37919780Y-104919447D01*
X38538828Y-104919447D01*
X39348352Y-104252780D02*
X39157876Y-104252780D01*
X39062638Y-104300400D01*
X39015019Y-104348019D01*
X38919780Y-104490876D01*
X38872161Y-104681352D01*
X38872161Y-105062304D01*
X38919780Y-105157542D01*
X38967400Y-105205161D01*
X39062638Y-105252780D01*
X39253114Y-105252780D01*
X39348352Y-105205161D01*
X39395971Y-105157542D01*
X39443590Y-105062304D01*
X39443590Y-104824209D01*
X39395971Y-104728971D01*
X39348352Y-104681352D01*
X39253114Y-104633733D01*
X39062638Y-104633733D01*
X38967400Y-104681352D01*
X38919780Y-104728971D01*
X38872161Y-104824209D01*
X40300733Y-104586114D02*
X40300733Y-105252780D01*
X40062638Y-104205161D02*
X39824542Y-104919447D01*
X40443590Y-104919447D01*
X40824542Y-104871828D02*
X41586447Y-104871828D01*
X42015019Y-104348019D02*
X42062638Y-104300400D01*
X42157876Y-104252780D01*
X42395971Y-104252780D01*
X42491209Y-104300400D01*
X42538828Y-104348019D01*
X42586447Y-104443257D01*
X42586447Y-104538495D01*
X42538828Y-104681352D01*
X41967400Y-105252780D01*
X42586447Y-105252780D01*
X43015019Y-105252780D02*
X43015019Y-104252780D01*
X43348352Y-104967066D01*
X43681685Y-104252780D01*
X43681685Y-105252780D01*
X44157876Y-105252780D02*
X44157876Y-104252780D01*
X44634066Y-105252780D02*
X44634066Y-104252780D01*
X45205495Y-105252780D01*
X45205495Y-104252780D01*
X45681685Y-105252780D02*
X45681685Y-104252780D01*
X46919780Y-105252780D02*
X46919780Y-104252780D01*
X47157876Y-104252780D01*
X47300733Y-104300400D01*
X47395971Y-104395638D01*
X47443590Y-104490876D01*
X47491209Y-104681352D01*
X47491209Y-104824209D01*
X47443590Y-105014685D01*
X47395971Y-105109923D01*
X47300733Y-105205161D01*
X47157876Y-105252780D01*
X46919780Y-105252780D01*
X48110257Y-104252780D02*
X48300733Y-104252780D01*
X48395971Y-104300400D01*
X48491209Y-104395638D01*
X48538828Y-104586114D01*
X48538828Y-104919447D01*
X48491209Y-105109923D01*
X48395971Y-105205161D01*
X48300733Y-105252780D01*
X48110257Y-105252780D01*
X48015019Y-105205161D01*
X47919780Y-105109923D01*
X47872161Y-104919447D01*
X47872161Y-104586114D01*
X47919780Y-104395638D01*
X48015019Y-104300400D01*
X48110257Y-104252780D01*
X49538828Y-105157542D02*
X49491209Y-105205161D01*
X49348352Y-105252780D01*
X49253114Y-105252780D01*
X49110257Y-105205161D01*
X49015019Y-105109923D01*
X48967400Y-105014685D01*
X48919780Y-104824209D01*
X48919780Y-104681352D01*
X48967400Y-104490876D01*
X49015019Y-104395638D01*
X49110257Y-104300400D01*
X49253114Y-104252780D01*
X49348352Y-104252780D01*
X49491209Y-104300400D01*
X49538828Y-104348019D01*
X49967400Y-105252780D02*
X49967400Y-104252780D01*
X50538828Y-105252780D02*
X50110257Y-104681352D01*
X50538828Y-104252780D02*
X49967400Y-104824209D01*
X51634066Y-104586114D02*
X51872161Y-105252780D01*
X52110257Y-104586114D01*
X52681685Y-104252780D02*
X52776923Y-104252780D01*
X52872161Y-104300400D01*
X52919780Y-104348019D01*
X52967399Y-104443257D01*
X53015019Y-104633733D01*
X53015019Y-104871828D01*
X52967399Y-105062304D01*
X52919780Y-105157542D01*
X52872161Y-105205161D01*
X52776923Y-105252780D01*
X52681685Y-105252780D01*
X52586447Y-105205161D01*
X52538828Y-105157542D01*
X52491209Y-105062304D01*
X52443590Y-104871828D01*
X52443590Y-104633733D01*
X52491209Y-104443257D01*
X52538828Y-104348019D01*
X52586447Y-104300400D01*
X52681685Y-104252780D01*
D11*
%TO.C,J1*%
X115690880Y-27321933D02*
X116405166Y-27321933D01*
X116548023Y-27369552D01*
X116643261Y-27464790D01*
X116690880Y-27607647D01*
X116690880Y-27702885D01*
X116690880Y-26321933D02*
X116690880Y-26893361D01*
X116690880Y-26607647D02*
X115690880Y-26607647D01*
X115833738Y-26702885D01*
X115928976Y-26798123D01*
X115976595Y-26893361D01*
%TO.C,C692*%
X119725552Y-98776342D02*
X119677933Y-98823961D01*
X119535076Y-98871580D01*
X119439838Y-98871580D01*
X119296980Y-98823961D01*
X119201742Y-98728723D01*
X119154123Y-98633485D01*
X119106504Y-98443009D01*
X119106504Y-98300152D01*
X119154123Y-98109676D01*
X119201742Y-98014438D01*
X119296980Y-97919200D01*
X119439838Y-97871580D01*
X119535076Y-97871580D01*
X119677933Y-97919200D01*
X119725552Y-97966819D01*
X120582695Y-97871580D02*
X120392219Y-97871580D01*
X120296980Y-97919200D01*
X120249361Y-97966819D01*
X120154123Y-98109676D01*
X120106504Y-98300152D01*
X120106504Y-98681104D01*
X120154123Y-98776342D01*
X120201742Y-98823961D01*
X120296980Y-98871580D01*
X120487457Y-98871580D01*
X120582695Y-98823961D01*
X120630314Y-98776342D01*
X120677933Y-98681104D01*
X120677933Y-98443009D01*
X120630314Y-98347771D01*
X120582695Y-98300152D01*
X120487457Y-98252533D01*
X120296980Y-98252533D01*
X120201742Y-98300152D01*
X120154123Y-98347771D01*
X120106504Y-98443009D01*
X121154123Y-98871580D02*
X121344600Y-98871580D01*
X121439838Y-98823961D01*
X121487457Y-98776342D01*
X121582695Y-98633485D01*
X121630314Y-98443009D01*
X121630314Y-98062057D01*
X121582695Y-97966819D01*
X121535076Y-97919200D01*
X121439838Y-97871580D01*
X121249361Y-97871580D01*
X121154123Y-97919200D01*
X121106504Y-97966819D01*
X121058885Y-98062057D01*
X121058885Y-98300152D01*
X121106504Y-98395390D01*
X121154123Y-98443009D01*
X121249361Y-98490628D01*
X121439838Y-98490628D01*
X121535076Y-98443009D01*
X121582695Y-98395390D01*
X121630314Y-98300152D01*
X122011266Y-97966819D02*
X122058885Y-97919200D01*
X122154123Y-97871580D01*
X122392219Y-97871580D01*
X122487457Y-97919200D01*
X122535076Y-97966819D01*
X122582695Y-98062057D01*
X122582695Y-98157295D01*
X122535076Y-98300152D01*
X121963647Y-98871580D01*
X122582695Y-98871580D01*
%TO.C,C691*%
X119725552Y-74290742D02*
X119677933Y-74338361D01*
X119535076Y-74385980D01*
X119439838Y-74385980D01*
X119296980Y-74338361D01*
X119201742Y-74243123D01*
X119154123Y-74147885D01*
X119106504Y-73957409D01*
X119106504Y-73814552D01*
X119154123Y-73624076D01*
X119201742Y-73528838D01*
X119296980Y-73433600D01*
X119439838Y-73385980D01*
X119535076Y-73385980D01*
X119677933Y-73433600D01*
X119725552Y-73481219D01*
X120582695Y-73385980D02*
X120392219Y-73385980D01*
X120296980Y-73433600D01*
X120249361Y-73481219D01*
X120154123Y-73624076D01*
X120106504Y-73814552D01*
X120106504Y-74195504D01*
X120154123Y-74290742D01*
X120201742Y-74338361D01*
X120296980Y-74385980D01*
X120487457Y-74385980D01*
X120582695Y-74338361D01*
X120630314Y-74290742D01*
X120677933Y-74195504D01*
X120677933Y-73957409D01*
X120630314Y-73862171D01*
X120582695Y-73814552D01*
X120487457Y-73766933D01*
X120296980Y-73766933D01*
X120201742Y-73814552D01*
X120154123Y-73862171D01*
X120106504Y-73957409D01*
X121154123Y-74385980D02*
X121344600Y-74385980D01*
X121439838Y-74338361D01*
X121487457Y-74290742D01*
X121582695Y-74147885D01*
X121630314Y-73957409D01*
X121630314Y-73576457D01*
X121582695Y-73481219D01*
X121535076Y-73433600D01*
X121439838Y-73385980D01*
X121249361Y-73385980D01*
X121154123Y-73433600D01*
X121106504Y-73481219D01*
X121058885Y-73576457D01*
X121058885Y-73814552D01*
X121106504Y-73909790D01*
X121154123Y-73957409D01*
X121249361Y-74005028D01*
X121439838Y-74005028D01*
X121535076Y-73957409D01*
X121582695Y-73909790D01*
X121630314Y-73814552D01*
X122582695Y-74385980D02*
X122011266Y-74385980D01*
X122296980Y-74385980D02*
X122296980Y-73385980D01*
X122201742Y-73528838D01*
X122106504Y-73624076D01*
X122011266Y-73671695D01*
%TO.C,C690*%
X119725552Y-52141942D02*
X119677933Y-52189561D01*
X119535076Y-52237180D01*
X119439838Y-52237180D01*
X119296980Y-52189561D01*
X119201742Y-52094323D01*
X119154123Y-51999085D01*
X119106504Y-51808609D01*
X119106504Y-51665752D01*
X119154123Y-51475276D01*
X119201742Y-51380038D01*
X119296980Y-51284800D01*
X119439838Y-51237180D01*
X119535076Y-51237180D01*
X119677933Y-51284800D01*
X119725552Y-51332419D01*
X120582695Y-51237180D02*
X120392219Y-51237180D01*
X120296980Y-51284800D01*
X120249361Y-51332419D01*
X120154123Y-51475276D01*
X120106504Y-51665752D01*
X120106504Y-52046704D01*
X120154123Y-52141942D01*
X120201742Y-52189561D01*
X120296980Y-52237180D01*
X120487457Y-52237180D01*
X120582695Y-52189561D01*
X120630314Y-52141942D01*
X120677933Y-52046704D01*
X120677933Y-51808609D01*
X120630314Y-51713371D01*
X120582695Y-51665752D01*
X120487457Y-51618133D01*
X120296980Y-51618133D01*
X120201742Y-51665752D01*
X120154123Y-51713371D01*
X120106504Y-51808609D01*
X121154123Y-52237180D02*
X121344600Y-52237180D01*
X121439838Y-52189561D01*
X121487457Y-52141942D01*
X121582695Y-51999085D01*
X121630314Y-51808609D01*
X121630314Y-51427657D01*
X121582695Y-51332419D01*
X121535076Y-51284800D01*
X121439838Y-51237180D01*
X121249361Y-51237180D01*
X121154123Y-51284800D01*
X121106504Y-51332419D01*
X121058885Y-51427657D01*
X121058885Y-51665752D01*
X121106504Y-51760990D01*
X121154123Y-51808609D01*
X121249361Y-51856228D01*
X121439838Y-51856228D01*
X121535076Y-51808609D01*
X121582695Y-51760990D01*
X121630314Y-51665752D01*
X122249361Y-51237180D02*
X122344600Y-51237180D01*
X122439838Y-51284800D01*
X122487457Y-51332419D01*
X122535076Y-51427657D01*
X122582695Y-51618133D01*
X122582695Y-51856228D01*
X122535076Y-52046704D01*
X122487457Y-52141942D01*
X122439838Y-52189561D01*
X122344600Y-52237180D01*
X122249361Y-52237180D01*
X122154123Y-52189561D01*
X122106504Y-52141942D01*
X122058885Y-52046704D01*
X122011266Y-51856228D01*
X122011266Y-51618133D01*
X122058885Y-51427657D01*
X122106504Y-51332419D01*
X122154123Y-51284800D01*
X122249361Y-51237180D01*
%TO.C,CE696*%
X43130742Y-94352228D02*
X43178361Y-94399847D01*
X43225980Y-94542704D01*
X43225980Y-94637942D01*
X43178361Y-94780800D01*
X43083123Y-94876038D01*
X42987885Y-94923657D01*
X42797409Y-94971276D01*
X42654552Y-94971276D01*
X42464076Y-94923657D01*
X42368838Y-94876038D01*
X42273600Y-94780800D01*
X42225980Y-94637942D01*
X42225980Y-94542704D01*
X42273600Y-94399847D01*
X42321219Y-94352228D01*
X42702171Y-93923657D02*
X42702171Y-93590323D01*
X43225980Y-93447466D02*
X43225980Y-93923657D01*
X42225980Y-93923657D01*
X42225980Y-93447466D01*
X42225980Y-92590323D02*
X42225980Y-92780800D01*
X42273600Y-92876038D01*
X42321219Y-92923657D01*
X42464076Y-93018895D01*
X42654552Y-93066514D01*
X43035504Y-93066514D01*
X43130742Y-93018895D01*
X43178361Y-92971276D01*
X43225980Y-92876038D01*
X43225980Y-92685561D01*
X43178361Y-92590323D01*
X43130742Y-92542704D01*
X43035504Y-92495085D01*
X42797409Y-92495085D01*
X42702171Y-92542704D01*
X42654552Y-92590323D01*
X42606933Y-92685561D01*
X42606933Y-92876038D01*
X42654552Y-92971276D01*
X42702171Y-93018895D01*
X42797409Y-93066514D01*
X43225980Y-92018895D02*
X43225980Y-91828419D01*
X43178361Y-91733180D01*
X43130742Y-91685561D01*
X42987885Y-91590323D01*
X42797409Y-91542704D01*
X42416457Y-91542704D01*
X42321219Y-91590323D01*
X42273600Y-91637942D01*
X42225980Y-91733180D01*
X42225980Y-91923657D01*
X42273600Y-92018895D01*
X42321219Y-92066514D01*
X42416457Y-92114133D01*
X42654552Y-92114133D01*
X42749790Y-92066514D01*
X42797409Y-92018895D01*
X42845028Y-91923657D01*
X42845028Y-91733180D01*
X42797409Y-91637942D01*
X42749790Y-91590323D01*
X42654552Y-91542704D01*
X42225980Y-90685561D02*
X42225980Y-90876038D01*
X42273600Y-90971276D01*
X42321219Y-91018895D01*
X42464076Y-91114133D01*
X42654552Y-91161752D01*
X43035504Y-91161752D01*
X43130742Y-91114133D01*
X43178361Y-91066514D01*
X43225980Y-90971276D01*
X43225980Y-90780800D01*
X43178361Y-90685561D01*
X43130742Y-90637942D01*
X43035504Y-90590323D01*
X42797409Y-90590323D01*
X42702171Y-90637942D01*
X42654552Y-90685561D01*
X42606933Y-90780800D01*
X42606933Y-90971276D01*
X42654552Y-91066514D01*
X42702171Y-91114133D01*
X42797409Y-91161752D01*
X114166609Y-95320476D02*
X114204704Y-95206190D01*
X114204704Y-95015714D01*
X114166609Y-94939523D01*
X114128514Y-94901428D01*
X114052323Y-94863333D01*
X113976133Y-94863333D01*
X113899942Y-94901428D01*
X113861847Y-94939523D01*
X113823752Y-95015714D01*
X113785657Y-95168095D01*
X113747561Y-95244285D01*
X113709466Y-95282380D01*
X113633276Y-95320476D01*
X113557085Y-95320476D01*
X113480895Y-95282380D01*
X113442800Y-95244285D01*
X113404704Y-95168095D01*
X113404704Y-94977619D01*
X113442800Y-94863333D01*
X113404704Y-94634761D02*
X113404704Y-94177619D01*
X114204704Y-94406190D02*
X113404704Y-94406190D01*
X114204704Y-93453809D02*
X113823752Y-93720476D01*
X114204704Y-93910952D02*
X113404704Y-93910952D01*
X113404704Y-93606190D01*
X113442800Y-93530000D01*
X113480895Y-93491904D01*
X113557085Y-93453809D01*
X113671371Y-93453809D01*
X113747561Y-93491904D01*
X113785657Y-93530000D01*
X113823752Y-93606190D01*
X113823752Y-93910952D01*
X113976133Y-93149047D02*
X113976133Y-92768095D01*
X114204704Y-93225238D02*
X113404704Y-92958571D01*
X114204704Y-92691904D01*
X114204704Y-92425238D02*
X113404704Y-92425238D01*
X113442800Y-91625238D02*
X113404704Y-91701428D01*
X113404704Y-91815714D01*
X113442800Y-91930000D01*
X113518990Y-92006190D01*
X113595180Y-92044285D01*
X113747561Y-92082380D01*
X113861847Y-92082380D01*
X114014228Y-92044285D01*
X114090419Y-92006190D01*
X114166609Y-91930000D01*
X114204704Y-91815714D01*
X114204704Y-91739523D01*
X114166609Y-91625238D01*
X114128514Y-91587142D01*
X113861847Y-91587142D01*
X113861847Y-91739523D01*
X114204704Y-91244285D02*
X113404704Y-91244285D01*
X113785657Y-91244285D02*
X113785657Y-90787142D01*
X114204704Y-90787142D02*
X113404704Y-90787142D01*
X113404704Y-90520476D02*
X113404704Y-90063333D01*
X114204704Y-90291904D02*
X113404704Y-90291904D01*
%TO.C,CE695*%
X43156142Y-87352228D02*
X43203761Y-87399847D01*
X43251380Y-87542704D01*
X43251380Y-87637942D01*
X43203761Y-87780800D01*
X43108523Y-87876038D01*
X43013285Y-87923657D01*
X42822809Y-87971276D01*
X42679952Y-87971276D01*
X42489476Y-87923657D01*
X42394238Y-87876038D01*
X42299000Y-87780800D01*
X42251380Y-87637942D01*
X42251380Y-87542704D01*
X42299000Y-87399847D01*
X42346619Y-87352228D01*
X42727571Y-86923657D02*
X42727571Y-86590323D01*
X43251380Y-86447466D02*
X43251380Y-86923657D01*
X42251380Y-86923657D01*
X42251380Y-86447466D01*
X42251380Y-85590323D02*
X42251380Y-85780800D01*
X42299000Y-85876038D01*
X42346619Y-85923657D01*
X42489476Y-86018895D01*
X42679952Y-86066514D01*
X43060904Y-86066514D01*
X43156142Y-86018895D01*
X43203761Y-85971276D01*
X43251380Y-85876038D01*
X43251380Y-85685561D01*
X43203761Y-85590323D01*
X43156142Y-85542704D01*
X43060904Y-85495085D01*
X42822809Y-85495085D01*
X42727571Y-85542704D01*
X42679952Y-85590323D01*
X42632333Y-85685561D01*
X42632333Y-85876038D01*
X42679952Y-85971276D01*
X42727571Y-86018895D01*
X42822809Y-86066514D01*
X43251380Y-85018895D02*
X43251380Y-84828419D01*
X43203761Y-84733180D01*
X43156142Y-84685561D01*
X43013285Y-84590323D01*
X42822809Y-84542704D01*
X42441857Y-84542704D01*
X42346619Y-84590323D01*
X42299000Y-84637942D01*
X42251380Y-84733180D01*
X42251380Y-84923657D01*
X42299000Y-85018895D01*
X42346619Y-85066514D01*
X42441857Y-85114133D01*
X42679952Y-85114133D01*
X42775190Y-85066514D01*
X42822809Y-85018895D01*
X42870428Y-84923657D01*
X42870428Y-84733180D01*
X42822809Y-84637942D01*
X42775190Y-84590323D01*
X42679952Y-84542704D01*
X42251380Y-83637942D02*
X42251380Y-84114133D01*
X42727571Y-84161752D01*
X42679952Y-84114133D01*
X42632333Y-84018895D01*
X42632333Y-83780800D01*
X42679952Y-83685561D01*
X42727571Y-83637942D01*
X42822809Y-83590323D01*
X43060904Y-83590323D01*
X43156142Y-83637942D01*
X43203761Y-83685561D01*
X43251380Y-83780800D01*
X43251380Y-84018895D01*
X43203761Y-84114133D01*
X43156142Y-84161752D01*
X114230104Y-88320476D02*
X113430104Y-88320476D01*
X114230104Y-87939523D02*
X113430104Y-87939523D01*
X114230104Y-87482380D01*
X113430104Y-87482380D01*
X113430104Y-87215714D02*
X114230104Y-86949047D01*
X113430104Y-86682380D01*
X113811057Y-86415714D02*
X113811057Y-86149047D01*
X114230104Y-86034761D02*
X114230104Y-86415714D01*
X113430104Y-86415714D01*
X113430104Y-86034761D01*
X114230104Y-85234761D02*
X113849152Y-85501428D01*
X114230104Y-85691904D02*
X113430104Y-85691904D01*
X113430104Y-85387142D01*
X113468200Y-85310952D01*
X113506295Y-85272857D01*
X113582485Y-85234761D01*
X113696771Y-85234761D01*
X113772961Y-85272857D01*
X113811057Y-85310952D01*
X113849152Y-85387142D01*
X113849152Y-85691904D01*
X113430104Y-85006190D02*
X113430104Y-84549047D01*
X114230104Y-84777619D02*
X113430104Y-84777619D01*
X113811057Y-84282380D02*
X113811057Y-84015714D01*
X114230104Y-83901428D02*
X114230104Y-84282380D01*
X113430104Y-84282380D01*
X113430104Y-83901428D01*
X114230104Y-83558571D02*
X113430104Y-83558571D01*
X113430104Y-83368095D01*
X113468200Y-83253809D01*
X113544390Y-83177619D01*
X113620580Y-83139523D01*
X113772961Y-83101428D01*
X113887247Y-83101428D01*
X114039628Y-83139523D01*
X114115819Y-83177619D01*
X114192009Y-83253809D01*
X114230104Y-83368095D01*
X114230104Y-83558571D01*
%TO.C,CE694*%
X43257742Y-72352228D02*
X43305361Y-72399847D01*
X43352980Y-72542704D01*
X43352980Y-72637942D01*
X43305361Y-72780800D01*
X43210123Y-72876038D01*
X43114885Y-72923657D01*
X42924409Y-72971276D01*
X42781552Y-72971276D01*
X42591076Y-72923657D01*
X42495838Y-72876038D01*
X42400600Y-72780800D01*
X42352980Y-72637942D01*
X42352980Y-72542704D01*
X42400600Y-72399847D01*
X42448219Y-72352228D01*
X42829171Y-71923657D02*
X42829171Y-71590323D01*
X43352980Y-71447466D02*
X43352980Y-71923657D01*
X42352980Y-71923657D01*
X42352980Y-71447466D01*
X42352980Y-70590323D02*
X42352980Y-70780800D01*
X42400600Y-70876038D01*
X42448219Y-70923657D01*
X42591076Y-71018895D01*
X42781552Y-71066514D01*
X43162504Y-71066514D01*
X43257742Y-71018895D01*
X43305361Y-70971276D01*
X43352980Y-70876038D01*
X43352980Y-70685561D01*
X43305361Y-70590323D01*
X43257742Y-70542704D01*
X43162504Y-70495085D01*
X42924409Y-70495085D01*
X42829171Y-70542704D01*
X42781552Y-70590323D01*
X42733933Y-70685561D01*
X42733933Y-70876038D01*
X42781552Y-70971276D01*
X42829171Y-71018895D01*
X42924409Y-71066514D01*
X43352980Y-70018895D02*
X43352980Y-69828419D01*
X43305361Y-69733180D01*
X43257742Y-69685561D01*
X43114885Y-69590323D01*
X42924409Y-69542704D01*
X42543457Y-69542704D01*
X42448219Y-69590323D01*
X42400600Y-69637942D01*
X42352980Y-69733180D01*
X42352980Y-69923657D01*
X42400600Y-70018895D01*
X42448219Y-70066514D01*
X42543457Y-70114133D01*
X42781552Y-70114133D01*
X42876790Y-70066514D01*
X42924409Y-70018895D01*
X42972028Y-69923657D01*
X42972028Y-69733180D01*
X42924409Y-69637942D01*
X42876790Y-69590323D01*
X42781552Y-69542704D01*
X42686314Y-68685561D02*
X43352980Y-68685561D01*
X42305361Y-68923657D02*
X43019647Y-69161752D01*
X43019647Y-68542704D01*
X114293609Y-73320476D02*
X114331704Y-73206190D01*
X114331704Y-73015714D01*
X114293609Y-72939523D01*
X114255514Y-72901428D01*
X114179323Y-72863333D01*
X114103133Y-72863333D01*
X114026942Y-72901428D01*
X113988847Y-72939523D01*
X113950752Y-73015714D01*
X113912657Y-73168095D01*
X113874561Y-73244285D01*
X113836466Y-73282380D01*
X113760276Y-73320476D01*
X113684085Y-73320476D01*
X113607895Y-73282380D01*
X113569800Y-73244285D01*
X113531704Y-73168095D01*
X113531704Y-72977619D01*
X113569800Y-72863333D01*
X113531704Y-72634761D02*
X113531704Y-72177619D01*
X114331704Y-72406190D02*
X113531704Y-72406190D01*
X114331704Y-71453809D02*
X113950752Y-71720476D01*
X114331704Y-71910952D02*
X113531704Y-71910952D01*
X113531704Y-71606190D01*
X113569800Y-71530000D01*
X113607895Y-71491904D01*
X113684085Y-71453809D01*
X113798371Y-71453809D01*
X113874561Y-71491904D01*
X113912657Y-71530000D01*
X113950752Y-71606190D01*
X113950752Y-71910952D01*
X114103133Y-71149047D02*
X114103133Y-70768095D01*
X114331704Y-71225238D02*
X113531704Y-70958571D01*
X114331704Y-70691904D01*
X114331704Y-70425238D02*
X113531704Y-70425238D01*
X113569800Y-69625238D02*
X113531704Y-69701428D01*
X113531704Y-69815714D01*
X113569800Y-69930000D01*
X113645990Y-70006190D01*
X113722180Y-70044285D01*
X113874561Y-70082380D01*
X113988847Y-70082380D01*
X114141228Y-70044285D01*
X114217419Y-70006190D01*
X114293609Y-69930000D01*
X114331704Y-69815714D01*
X114331704Y-69739523D01*
X114293609Y-69625238D01*
X114255514Y-69587142D01*
X113988847Y-69587142D01*
X113988847Y-69739523D01*
X114331704Y-69244285D02*
X113531704Y-69244285D01*
X113912657Y-69244285D02*
X113912657Y-68787142D01*
X114331704Y-68787142D02*
X113531704Y-68787142D01*
X113531704Y-68520476D02*
X113531704Y-68063333D01*
X114331704Y-68291904D02*
X113531704Y-68291904D01*
%TO.C,CE693*%
X43257742Y-65352228D02*
X43305361Y-65399847D01*
X43352980Y-65542704D01*
X43352980Y-65637942D01*
X43305361Y-65780800D01*
X43210123Y-65876038D01*
X43114885Y-65923657D01*
X42924409Y-65971276D01*
X42781552Y-65971276D01*
X42591076Y-65923657D01*
X42495838Y-65876038D01*
X42400600Y-65780800D01*
X42352980Y-65637942D01*
X42352980Y-65542704D01*
X42400600Y-65399847D01*
X42448219Y-65352228D01*
X42829171Y-64923657D02*
X42829171Y-64590323D01*
X43352980Y-64447466D02*
X43352980Y-64923657D01*
X42352980Y-64923657D01*
X42352980Y-64447466D01*
X42352980Y-63590323D02*
X42352980Y-63780800D01*
X42400600Y-63876038D01*
X42448219Y-63923657D01*
X42591076Y-64018895D01*
X42781552Y-64066514D01*
X43162504Y-64066514D01*
X43257742Y-64018895D01*
X43305361Y-63971276D01*
X43352980Y-63876038D01*
X43352980Y-63685561D01*
X43305361Y-63590323D01*
X43257742Y-63542704D01*
X43162504Y-63495085D01*
X42924409Y-63495085D01*
X42829171Y-63542704D01*
X42781552Y-63590323D01*
X42733933Y-63685561D01*
X42733933Y-63876038D01*
X42781552Y-63971276D01*
X42829171Y-64018895D01*
X42924409Y-64066514D01*
X43352980Y-63018895D02*
X43352980Y-62828419D01*
X43305361Y-62733180D01*
X43257742Y-62685561D01*
X43114885Y-62590323D01*
X42924409Y-62542704D01*
X42543457Y-62542704D01*
X42448219Y-62590323D01*
X42400600Y-62637942D01*
X42352980Y-62733180D01*
X42352980Y-62923657D01*
X42400600Y-63018895D01*
X42448219Y-63066514D01*
X42543457Y-63114133D01*
X42781552Y-63114133D01*
X42876790Y-63066514D01*
X42924409Y-63018895D01*
X42972028Y-62923657D01*
X42972028Y-62733180D01*
X42924409Y-62637942D01*
X42876790Y-62590323D01*
X42781552Y-62542704D01*
X42352980Y-62209371D02*
X42352980Y-61590323D01*
X42733933Y-61923657D01*
X42733933Y-61780800D01*
X42781552Y-61685561D01*
X42829171Y-61637942D01*
X42924409Y-61590323D01*
X43162504Y-61590323D01*
X43257742Y-61637942D01*
X43305361Y-61685561D01*
X43352980Y-61780800D01*
X43352980Y-62066514D01*
X43305361Y-62161752D01*
X43257742Y-62209371D01*
X114331704Y-66320476D02*
X113531704Y-66320476D01*
X114331704Y-65939523D02*
X113531704Y-65939523D01*
X114331704Y-65482380D01*
X113531704Y-65482380D01*
X113531704Y-65215714D02*
X114331704Y-64949047D01*
X113531704Y-64682380D01*
X113912657Y-64415714D02*
X113912657Y-64149047D01*
X114331704Y-64034761D02*
X114331704Y-64415714D01*
X113531704Y-64415714D01*
X113531704Y-64034761D01*
X114331704Y-63234761D02*
X113950752Y-63501428D01*
X114331704Y-63691904D02*
X113531704Y-63691904D01*
X113531704Y-63387142D01*
X113569800Y-63310952D01*
X113607895Y-63272857D01*
X113684085Y-63234761D01*
X113798371Y-63234761D01*
X113874561Y-63272857D01*
X113912657Y-63310952D01*
X113950752Y-63387142D01*
X113950752Y-63691904D01*
X113531704Y-63006190D02*
X113531704Y-62549047D01*
X114331704Y-62777619D02*
X113531704Y-62777619D01*
X113912657Y-62282380D02*
X113912657Y-62015714D01*
X114331704Y-61901428D02*
X114331704Y-62282380D01*
X113531704Y-62282380D01*
X113531704Y-61901428D01*
X114331704Y-61558571D02*
X113531704Y-61558571D01*
X113531704Y-61368095D01*
X113569800Y-61253809D01*
X113645990Y-61177619D01*
X113722180Y-61139523D01*
X113874561Y-61101428D01*
X113988847Y-61101428D01*
X114141228Y-61139523D01*
X114217419Y-61177619D01*
X114293609Y-61253809D01*
X114331704Y-61368095D01*
X114331704Y-61558571D01*
%TO.C,CE692*%
X43308542Y-50352228D02*
X43356161Y-50399847D01*
X43403780Y-50542704D01*
X43403780Y-50637942D01*
X43356161Y-50780800D01*
X43260923Y-50876038D01*
X43165685Y-50923657D01*
X42975209Y-50971276D01*
X42832352Y-50971276D01*
X42641876Y-50923657D01*
X42546638Y-50876038D01*
X42451400Y-50780800D01*
X42403780Y-50637942D01*
X42403780Y-50542704D01*
X42451400Y-50399847D01*
X42499019Y-50352228D01*
X42879971Y-49923657D02*
X42879971Y-49590323D01*
X43403780Y-49447466D02*
X43403780Y-49923657D01*
X42403780Y-49923657D01*
X42403780Y-49447466D01*
X42403780Y-48590323D02*
X42403780Y-48780800D01*
X42451400Y-48876038D01*
X42499019Y-48923657D01*
X42641876Y-49018895D01*
X42832352Y-49066514D01*
X43213304Y-49066514D01*
X43308542Y-49018895D01*
X43356161Y-48971276D01*
X43403780Y-48876038D01*
X43403780Y-48685561D01*
X43356161Y-48590323D01*
X43308542Y-48542704D01*
X43213304Y-48495085D01*
X42975209Y-48495085D01*
X42879971Y-48542704D01*
X42832352Y-48590323D01*
X42784733Y-48685561D01*
X42784733Y-48876038D01*
X42832352Y-48971276D01*
X42879971Y-49018895D01*
X42975209Y-49066514D01*
X43403780Y-48018895D02*
X43403780Y-47828419D01*
X43356161Y-47733180D01*
X43308542Y-47685561D01*
X43165685Y-47590323D01*
X42975209Y-47542704D01*
X42594257Y-47542704D01*
X42499019Y-47590323D01*
X42451400Y-47637942D01*
X42403780Y-47733180D01*
X42403780Y-47923657D01*
X42451400Y-48018895D01*
X42499019Y-48066514D01*
X42594257Y-48114133D01*
X42832352Y-48114133D01*
X42927590Y-48066514D01*
X42975209Y-48018895D01*
X43022828Y-47923657D01*
X43022828Y-47733180D01*
X42975209Y-47637942D01*
X42927590Y-47590323D01*
X42832352Y-47542704D01*
X42499019Y-47161752D02*
X42451400Y-47114133D01*
X42403780Y-47018895D01*
X42403780Y-46780800D01*
X42451400Y-46685561D01*
X42499019Y-46637942D01*
X42594257Y-46590323D01*
X42689495Y-46590323D01*
X42832352Y-46637942D01*
X43403780Y-47209371D01*
X43403780Y-46590323D01*
X114344409Y-51320476D02*
X114382504Y-51206190D01*
X114382504Y-51015714D01*
X114344409Y-50939523D01*
X114306314Y-50901428D01*
X114230123Y-50863333D01*
X114153933Y-50863333D01*
X114077742Y-50901428D01*
X114039647Y-50939523D01*
X114001552Y-51015714D01*
X113963457Y-51168095D01*
X113925361Y-51244285D01*
X113887266Y-51282380D01*
X113811076Y-51320476D01*
X113734885Y-51320476D01*
X113658695Y-51282380D01*
X113620600Y-51244285D01*
X113582504Y-51168095D01*
X113582504Y-50977619D01*
X113620600Y-50863333D01*
X113582504Y-50634761D02*
X113582504Y-50177619D01*
X114382504Y-50406190D02*
X113582504Y-50406190D01*
X114382504Y-49453809D02*
X114001552Y-49720476D01*
X114382504Y-49910952D02*
X113582504Y-49910952D01*
X113582504Y-49606190D01*
X113620600Y-49530000D01*
X113658695Y-49491904D01*
X113734885Y-49453809D01*
X113849171Y-49453809D01*
X113925361Y-49491904D01*
X113963457Y-49530000D01*
X114001552Y-49606190D01*
X114001552Y-49910952D01*
X114153933Y-49149047D02*
X114153933Y-48768095D01*
X114382504Y-49225238D02*
X113582504Y-48958571D01*
X114382504Y-48691904D01*
X114382504Y-48425238D02*
X113582504Y-48425238D01*
X113620600Y-47625238D02*
X113582504Y-47701428D01*
X113582504Y-47815714D01*
X113620600Y-47930000D01*
X113696790Y-48006190D01*
X113772980Y-48044285D01*
X113925361Y-48082380D01*
X114039647Y-48082380D01*
X114192028Y-48044285D01*
X114268219Y-48006190D01*
X114344409Y-47930000D01*
X114382504Y-47815714D01*
X114382504Y-47739523D01*
X114344409Y-47625238D01*
X114306314Y-47587142D01*
X114039647Y-47587142D01*
X114039647Y-47739523D01*
X114382504Y-47244285D02*
X113582504Y-47244285D01*
X113963457Y-47244285D02*
X113963457Y-46787142D01*
X114382504Y-46787142D02*
X113582504Y-46787142D01*
X113582504Y-46520476D02*
X113582504Y-46063333D01*
X114382504Y-46291904D02*
X113582504Y-46291904D01*
%TO.C,CE691*%
X41932942Y-39738128D02*
X41980561Y-39785747D01*
X42028180Y-39928604D01*
X42028180Y-40023842D01*
X41980561Y-40166700D01*
X41885323Y-40261938D01*
X41790085Y-40309557D01*
X41599609Y-40357176D01*
X41456752Y-40357176D01*
X41266276Y-40309557D01*
X41171038Y-40261938D01*
X41075800Y-40166700D01*
X41028180Y-40023842D01*
X41028180Y-39928604D01*
X41075800Y-39785747D01*
X41123419Y-39738128D01*
X41504371Y-39309557D02*
X41504371Y-38976223D01*
X42028180Y-38833366D02*
X42028180Y-39309557D01*
X41028180Y-39309557D01*
X41028180Y-38833366D01*
X41028180Y-37976223D02*
X41028180Y-38166700D01*
X41075800Y-38261938D01*
X41123419Y-38309557D01*
X41266276Y-38404795D01*
X41456752Y-38452414D01*
X41837704Y-38452414D01*
X41932942Y-38404795D01*
X41980561Y-38357176D01*
X42028180Y-38261938D01*
X42028180Y-38071461D01*
X41980561Y-37976223D01*
X41932942Y-37928604D01*
X41837704Y-37880985D01*
X41599609Y-37880985D01*
X41504371Y-37928604D01*
X41456752Y-37976223D01*
X41409133Y-38071461D01*
X41409133Y-38261938D01*
X41456752Y-38357176D01*
X41504371Y-38404795D01*
X41599609Y-38452414D01*
X42028180Y-37404795D02*
X42028180Y-37214319D01*
X41980561Y-37119080D01*
X41932942Y-37071461D01*
X41790085Y-36976223D01*
X41599609Y-36928604D01*
X41218657Y-36928604D01*
X41123419Y-36976223D01*
X41075800Y-37023842D01*
X41028180Y-37119080D01*
X41028180Y-37309557D01*
X41075800Y-37404795D01*
X41123419Y-37452414D01*
X41218657Y-37500033D01*
X41456752Y-37500033D01*
X41551990Y-37452414D01*
X41599609Y-37404795D01*
X41647228Y-37309557D01*
X41647228Y-37119080D01*
X41599609Y-37023842D01*
X41551990Y-36976223D01*
X41456752Y-36928604D01*
X42028180Y-35976223D02*
X42028180Y-36547652D01*
X42028180Y-36261938D02*
X41028180Y-36261938D01*
X41171038Y-36357176D01*
X41266276Y-36452414D01*
X41313895Y-36547652D01*
X94197114Y-43384880D02*
X93720923Y-43384880D01*
X93673304Y-43861071D01*
X93720923Y-43813452D01*
X93816161Y-43765833D01*
X94054257Y-43765833D01*
X94149495Y-43813452D01*
X94197114Y-43861071D01*
X94244733Y-43956309D01*
X94244733Y-44194404D01*
X94197114Y-44289642D01*
X94149495Y-44337261D01*
X94054257Y-44384880D01*
X93816161Y-44384880D01*
X93720923Y-44337261D01*
X93673304Y-44289642D01*
X94863780Y-43384880D02*
X94959019Y-43384880D01*
X95054257Y-43432500D01*
X95101876Y-43480119D01*
X95149495Y-43575357D01*
X95197114Y-43765833D01*
X95197114Y-44003928D01*
X95149495Y-44194404D01*
X95101876Y-44289642D01*
X95054257Y-44337261D01*
X94959019Y-44384880D01*
X94863780Y-44384880D01*
X94768542Y-44337261D01*
X94720923Y-44289642D01*
X94673304Y-44194404D01*
X94625685Y-44003928D01*
X94625685Y-43765833D01*
X94673304Y-43575357D01*
X94720923Y-43480119D01*
X94768542Y-43432500D01*
X94863780Y-43384880D01*
X95625685Y-44384880D02*
X95625685Y-43384880D01*
X96006638Y-43384880D01*
X96101876Y-43432500D01*
X96149495Y-43480119D01*
X96197114Y-43575357D01*
X96197114Y-43718214D01*
X96149495Y-43813452D01*
X96101876Y-43861071D01*
X96006638Y-43908690D01*
X95625685Y-43908690D01*
X96625685Y-44384880D02*
X96625685Y-43718214D01*
X96625685Y-43384880D02*
X96578066Y-43432500D01*
X96625685Y-43480119D01*
X96673304Y-43432500D01*
X96625685Y-43384880D01*
X96625685Y-43480119D01*
X97101876Y-43718214D02*
X97101876Y-44384880D01*
X97101876Y-43813452D02*
X97149495Y-43765833D01*
X97244733Y-43718214D01*
X97387590Y-43718214D01*
X97482828Y-43765833D01*
X97530447Y-43861071D01*
X97530447Y-44384880D01*
X98768542Y-43861071D02*
X99101876Y-43861071D01*
X99244733Y-44384880D02*
X98768542Y-44384880D01*
X98768542Y-43384880D01*
X99244733Y-43384880D01*
X99578066Y-44384880D02*
X100101876Y-43718214D01*
X99578066Y-43718214D02*
X100101876Y-44384880D01*
X100482828Y-43718214D02*
X100482828Y-44718214D01*
X100482828Y-43765833D02*
X100578066Y-43718214D01*
X100768542Y-43718214D01*
X100863780Y-43765833D01*
X100911400Y-43813452D01*
X100959019Y-43908690D01*
X100959019Y-44194404D01*
X100911400Y-44289642D01*
X100863780Y-44337261D01*
X100768542Y-44384880D01*
X100578066Y-44384880D01*
X100482828Y-44337261D01*
X101816161Y-44384880D02*
X101816161Y-43861071D01*
X101768542Y-43765833D01*
X101673304Y-43718214D01*
X101482828Y-43718214D01*
X101387590Y-43765833D01*
X101816161Y-44337261D02*
X101720923Y-44384880D01*
X101482828Y-44384880D01*
X101387590Y-44337261D01*
X101339971Y-44242023D01*
X101339971Y-44146785D01*
X101387590Y-44051547D01*
X101482828Y-44003928D01*
X101720923Y-44003928D01*
X101816161Y-43956309D01*
X102292352Y-43718214D02*
X102292352Y-44384880D01*
X102292352Y-43813452D02*
X102339971Y-43765833D01*
X102435209Y-43718214D01*
X102578066Y-43718214D01*
X102673304Y-43765833D01*
X102720923Y-43861071D01*
X102720923Y-44384880D01*
X103149495Y-44337261D02*
X103244733Y-44384880D01*
X103435209Y-44384880D01*
X103530447Y-44337261D01*
X103578066Y-44242023D01*
X103578066Y-44194404D01*
X103530447Y-44099166D01*
X103435209Y-44051547D01*
X103292352Y-44051547D01*
X103197114Y-44003928D01*
X103149495Y-43908690D01*
X103149495Y-43861071D01*
X103197114Y-43765833D01*
X103292352Y-43718214D01*
X103435209Y-43718214D01*
X103530447Y-43765833D01*
X104006638Y-44384880D02*
X104006638Y-43718214D01*
X104006638Y-43384880D02*
X103959019Y-43432500D01*
X104006638Y-43480119D01*
X104054257Y-43432500D01*
X104006638Y-43384880D01*
X104006638Y-43480119D01*
X104625685Y-44384880D02*
X104530447Y-44337261D01*
X104482828Y-44289642D01*
X104435209Y-44194404D01*
X104435209Y-43908690D01*
X104482828Y-43813452D01*
X104530447Y-43765833D01*
X104625685Y-43718214D01*
X104768542Y-43718214D01*
X104863780Y-43765833D01*
X104911400Y-43813452D01*
X104959019Y-43908690D01*
X104959019Y-44194404D01*
X104911400Y-44289642D01*
X104863780Y-44337261D01*
X104768542Y-44384880D01*
X104625685Y-44384880D01*
X105387590Y-43718214D02*
X105387590Y-44384880D01*
X105387590Y-43813452D02*
X105435209Y-43765833D01*
X105530447Y-43718214D01*
X105673304Y-43718214D01*
X105768542Y-43765833D01*
X105816161Y-43861071D01*
X105816161Y-44384880D01*
X107625685Y-44289642D02*
X107578066Y-44337261D01*
X107435209Y-44384880D01*
X107339971Y-44384880D01*
X107197114Y-44337261D01*
X107101876Y-44242023D01*
X107054257Y-44146785D01*
X107006638Y-43956309D01*
X107006638Y-43813452D01*
X107054257Y-43622976D01*
X107101876Y-43527738D01*
X107197114Y-43432500D01*
X107339971Y-43384880D01*
X107435209Y-43384880D01*
X107578066Y-43432500D01*
X107625685Y-43480119D01*
X108197114Y-44384880D02*
X108101876Y-44337261D01*
X108054257Y-44289642D01*
X108006638Y-44194404D01*
X108006638Y-43908690D01*
X108054257Y-43813452D01*
X108101876Y-43765833D01*
X108197114Y-43718214D01*
X108339971Y-43718214D01*
X108435209Y-43765833D01*
X108482828Y-43813452D01*
X108530447Y-43908690D01*
X108530447Y-44194404D01*
X108482828Y-44289642D01*
X108435209Y-44337261D01*
X108339971Y-44384880D01*
X108197114Y-44384880D01*
X108959019Y-43718214D02*
X108959019Y-44384880D01*
X108959019Y-43813452D02*
X109006638Y-43765833D01*
X109101876Y-43718214D01*
X109244733Y-43718214D01*
X109339971Y-43765833D01*
X109387590Y-43861071D01*
X109387590Y-44384880D01*
X109863780Y-43718214D02*
X109863780Y-44384880D01*
X109863780Y-43813452D02*
X109911400Y-43765833D01*
X110006638Y-43718214D01*
X110149495Y-43718214D01*
X110244733Y-43765833D01*
X110292352Y-43861071D01*
X110292352Y-44384880D01*
X111149495Y-44337261D02*
X111054257Y-44384880D01*
X110863780Y-44384880D01*
X110768542Y-44337261D01*
X110720923Y-44242023D01*
X110720923Y-43861071D01*
X110768542Y-43765833D01*
X110863780Y-43718214D01*
X111054257Y-43718214D01*
X111149495Y-43765833D01*
X111197114Y-43861071D01*
X111197114Y-43956309D01*
X110720923Y-44051547D01*
X112054257Y-44337261D02*
X111959019Y-44384880D01*
X111768542Y-44384880D01*
X111673304Y-44337261D01*
X111625685Y-44289642D01*
X111578066Y-44194404D01*
X111578066Y-43908690D01*
X111625685Y-43813452D01*
X111673304Y-43765833D01*
X111768542Y-43718214D01*
X111959019Y-43718214D01*
X112054257Y-43765833D01*
X112339971Y-43718214D02*
X112720923Y-43718214D01*
X112482828Y-43384880D02*
X112482828Y-44242023D01*
X112530447Y-44337261D01*
X112625685Y-44384880D01*
X112720923Y-44384880D01*
X113197114Y-44384880D02*
X113101876Y-44337261D01*
X113054257Y-44289642D01*
X113006638Y-44194404D01*
X113006638Y-43908690D01*
X113054257Y-43813452D01*
X113101876Y-43765833D01*
X113197114Y-43718214D01*
X113339971Y-43718214D01*
X113435209Y-43765833D01*
X113482828Y-43813452D01*
X113530447Y-43908690D01*
X113530447Y-44194404D01*
X113482828Y-44289642D01*
X113435209Y-44337261D01*
X113339971Y-44384880D01*
X113197114Y-44384880D01*
X113959019Y-44384880D02*
X113959019Y-43718214D01*
X113959019Y-43908690D02*
X114006638Y-43813452D01*
X114054257Y-43765833D01*
X114149495Y-43718214D01*
X114244733Y-43718214D01*
%TO.C,CE690*%
X41932942Y-28190628D02*
X41980561Y-28238247D01*
X42028180Y-28381104D01*
X42028180Y-28476342D01*
X41980561Y-28619200D01*
X41885323Y-28714438D01*
X41790085Y-28762057D01*
X41599609Y-28809676D01*
X41456752Y-28809676D01*
X41266276Y-28762057D01*
X41171038Y-28714438D01*
X41075800Y-28619200D01*
X41028180Y-28476342D01*
X41028180Y-28381104D01*
X41075800Y-28238247D01*
X41123419Y-28190628D01*
X41504371Y-27762057D02*
X41504371Y-27428723D01*
X42028180Y-27285866D02*
X42028180Y-27762057D01*
X41028180Y-27762057D01*
X41028180Y-27285866D01*
X41028180Y-26428723D02*
X41028180Y-26619200D01*
X41075800Y-26714438D01*
X41123419Y-26762057D01*
X41266276Y-26857295D01*
X41456752Y-26904914D01*
X41837704Y-26904914D01*
X41932942Y-26857295D01*
X41980561Y-26809676D01*
X42028180Y-26714438D01*
X42028180Y-26523961D01*
X41980561Y-26428723D01*
X41932942Y-26381104D01*
X41837704Y-26333485D01*
X41599609Y-26333485D01*
X41504371Y-26381104D01*
X41456752Y-26428723D01*
X41409133Y-26523961D01*
X41409133Y-26714438D01*
X41456752Y-26809676D01*
X41504371Y-26857295D01*
X41599609Y-26904914D01*
X42028180Y-25857295D02*
X42028180Y-25666819D01*
X41980561Y-25571580D01*
X41932942Y-25523961D01*
X41790085Y-25428723D01*
X41599609Y-25381104D01*
X41218657Y-25381104D01*
X41123419Y-25428723D01*
X41075800Y-25476342D01*
X41028180Y-25571580D01*
X41028180Y-25762057D01*
X41075800Y-25857295D01*
X41123419Y-25904914D01*
X41218657Y-25952533D01*
X41456752Y-25952533D01*
X41551990Y-25904914D01*
X41599609Y-25857295D01*
X41647228Y-25762057D01*
X41647228Y-25571580D01*
X41599609Y-25476342D01*
X41551990Y-25428723D01*
X41456752Y-25381104D01*
X41028180Y-24762057D02*
X41028180Y-24666819D01*
X41075800Y-24571580D01*
X41123419Y-24523961D01*
X41218657Y-24476342D01*
X41409133Y-24428723D01*
X41647228Y-24428723D01*
X41837704Y-24476342D01*
X41932942Y-24523961D01*
X41980561Y-24571580D01*
X42028180Y-24666819D01*
X42028180Y-24762057D01*
X41980561Y-24857295D01*
X41932942Y-24904914D01*
X41837704Y-24952533D01*
X41647228Y-25000152D01*
X41409133Y-25000152D01*
X41218657Y-24952533D01*
X41123419Y-24904914D01*
X41075800Y-24857295D01*
X41028180Y-24762057D01*
X94197114Y-31837380D02*
X93720923Y-31837380D01*
X93673304Y-32313571D01*
X93720923Y-32265952D01*
X93816161Y-32218333D01*
X94054257Y-32218333D01*
X94149495Y-32265952D01*
X94197114Y-32313571D01*
X94244733Y-32408809D01*
X94244733Y-32646904D01*
X94197114Y-32742142D01*
X94149495Y-32789761D01*
X94054257Y-32837380D01*
X93816161Y-32837380D01*
X93720923Y-32789761D01*
X93673304Y-32742142D01*
X94863780Y-31837380D02*
X94959019Y-31837380D01*
X95054257Y-31885000D01*
X95101876Y-31932619D01*
X95149495Y-32027857D01*
X95197114Y-32218333D01*
X95197114Y-32456428D01*
X95149495Y-32646904D01*
X95101876Y-32742142D01*
X95054257Y-32789761D01*
X94959019Y-32837380D01*
X94863780Y-32837380D01*
X94768542Y-32789761D01*
X94720923Y-32742142D01*
X94673304Y-32646904D01*
X94625685Y-32456428D01*
X94625685Y-32218333D01*
X94673304Y-32027857D01*
X94720923Y-31932619D01*
X94768542Y-31885000D01*
X94863780Y-31837380D01*
X95625685Y-32837380D02*
X95625685Y-31837380D01*
X96006638Y-31837380D01*
X96101876Y-31885000D01*
X96149495Y-31932619D01*
X96197114Y-32027857D01*
X96197114Y-32170714D01*
X96149495Y-32265952D01*
X96101876Y-32313571D01*
X96006638Y-32361190D01*
X95625685Y-32361190D01*
X96625685Y-32837380D02*
X96625685Y-32170714D01*
X96625685Y-31837380D02*
X96578066Y-31885000D01*
X96625685Y-31932619D01*
X96673304Y-31885000D01*
X96625685Y-31837380D01*
X96625685Y-31932619D01*
X97101876Y-32170714D02*
X97101876Y-32837380D01*
X97101876Y-32265952D02*
X97149495Y-32218333D01*
X97244733Y-32170714D01*
X97387590Y-32170714D01*
X97482828Y-32218333D01*
X97530447Y-32313571D01*
X97530447Y-32837380D01*
X98768542Y-32313571D02*
X99101876Y-32313571D01*
X99244733Y-32837380D02*
X98768542Y-32837380D01*
X98768542Y-31837380D01*
X99244733Y-31837380D01*
X99578066Y-32837380D02*
X100101876Y-32170714D01*
X99578066Y-32170714D02*
X100101876Y-32837380D01*
X100482828Y-32170714D02*
X100482828Y-33170714D01*
X100482828Y-32218333D02*
X100578066Y-32170714D01*
X100768542Y-32170714D01*
X100863780Y-32218333D01*
X100911400Y-32265952D01*
X100959019Y-32361190D01*
X100959019Y-32646904D01*
X100911400Y-32742142D01*
X100863780Y-32789761D01*
X100768542Y-32837380D01*
X100578066Y-32837380D01*
X100482828Y-32789761D01*
X101816161Y-32837380D02*
X101816161Y-32313571D01*
X101768542Y-32218333D01*
X101673304Y-32170714D01*
X101482828Y-32170714D01*
X101387590Y-32218333D01*
X101816161Y-32789761D02*
X101720923Y-32837380D01*
X101482828Y-32837380D01*
X101387590Y-32789761D01*
X101339971Y-32694523D01*
X101339971Y-32599285D01*
X101387590Y-32504047D01*
X101482828Y-32456428D01*
X101720923Y-32456428D01*
X101816161Y-32408809D01*
X102292352Y-32170714D02*
X102292352Y-32837380D01*
X102292352Y-32265952D02*
X102339971Y-32218333D01*
X102435209Y-32170714D01*
X102578066Y-32170714D01*
X102673304Y-32218333D01*
X102720923Y-32313571D01*
X102720923Y-32837380D01*
X103149495Y-32789761D02*
X103244733Y-32837380D01*
X103435209Y-32837380D01*
X103530447Y-32789761D01*
X103578066Y-32694523D01*
X103578066Y-32646904D01*
X103530447Y-32551666D01*
X103435209Y-32504047D01*
X103292352Y-32504047D01*
X103197114Y-32456428D01*
X103149495Y-32361190D01*
X103149495Y-32313571D01*
X103197114Y-32218333D01*
X103292352Y-32170714D01*
X103435209Y-32170714D01*
X103530447Y-32218333D01*
X104006638Y-32837380D02*
X104006638Y-32170714D01*
X104006638Y-31837380D02*
X103959019Y-31885000D01*
X104006638Y-31932619D01*
X104054257Y-31885000D01*
X104006638Y-31837380D01*
X104006638Y-31932619D01*
X104625685Y-32837380D02*
X104530447Y-32789761D01*
X104482828Y-32742142D01*
X104435209Y-32646904D01*
X104435209Y-32361190D01*
X104482828Y-32265952D01*
X104530447Y-32218333D01*
X104625685Y-32170714D01*
X104768542Y-32170714D01*
X104863780Y-32218333D01*
X104911400Y-32265952D01*
X104959019Y-32361190D01*
X104959019Y-32646904D01*
X104911400Y-32742142D01*
X104863780Y-32789761D01*
X104768542Y-32837380D01*
X104625685Y-32837380D01*
X105387590Y-32170714D02*
X105387590Y-32837380D01*
X105387590Y-32265952D02*
X105435209Y-32218333D01*
X105530447Y-32170714D01*
X105673304Y-32170714D01*
X105768542Y-32218333D01*
X105816161Y-32313571D01*
X105816161Y-32837380D01*
X107625685Y-32742142D02*
X107578066Y-32789761D01*
X107435209Y-32837380D01*
X107339971Y-32837380D01*
X107197114Y-32789761D01*
X107101876Y-32694523D01*
X107054257Y-32599285D01*
X107006638Y-32408809D01*
X107006638Y-32265952D01*
X107054257Y-32075476D01*
X107101876Y-31980238D01*
X107197114Y-31885000D01*
X107339971Y-31837380D01*
X107435209Y-31837380D01*
X107578066Y-31885000D01*
X107625685Y-31932619D01*
X108197114Y-32837380D02*
X108101876Y-32789761D01*
X108054257Y-32742142D01*
X108006638Y-32646904D01*
X108006638Y-32361190D01*
X108054257Y-32265952D01*
X108101876Y-32218333D01*
X108197114Y-32170714D01*
X108339971Y-32170714D01*
X108435209Y-32218333D01*
X108482828Y-32265952D01*
X108530447Y-32361190D01*
X108530447Y-32646904D01*
X108482828Y-32742142D01*
X108435209Y-32789761D01*
X108339971Y-32837380D01*
X108197114Y-32837380D01*
X108959019Y-32170714D02*
X108959019Y-32837380D01*
X108959019Y-32265952D02*
X109006638Y-32218333D01*
X109101876Y-32170714D01*
X109244733Y-32170714D01*
X109339971Y-32218333D01*
X109387590Y-32313571D01*
X109387590Y-32837380D01*
X109863780Y-32170714D02*
X109863780Y-32837380D01*
X109863780Y-32265952D02*
X109911400Y-32218333D01*
X110006638Y-32170714D01*
X110149495Y-32170714D01*
X110244733Y-32218333D01*
X110292352Y-32313571D01*
X110292352Y-32837380D01*
X111149495Y-32789761D02*
X111054257Y-32837380D01*
X110863780Y-32837380D01*
X110768542Y-32789761D01*
X110720923Y-32694523D01*
X110720923Y-32313571D01*
X110768542Y-32218333D01*
X110863780Y-32170714D01*
X111054257Y-32170714D01*
X111149495Y-32218333D01*
X111197114Y-32313571D01*
X111197114Y-32408809D01*
X110720923Y-32504047D01*
X112054257Y-32789761D02*
X111959019Y-32837380D01*
X111768542Y-32837380D01*
X111673304Y-32789761D01*
X111625685Y-32742142D01*
X111578066Y-32646904D01*
X111578066Y-32361190D01*
X111625685Y-32265952D01*
X111673304Y-32218333D01*
X111768542Y-32170714D01*
X111959019Y-32170714D01*
X112054257Y-32218333D01*
X112339971Y-32170714D02*
X112720923Y-32170714D01*
X112482828Y-31837380D02*
X112482828Y-32694523D01*
X112530447Y-32789761D01*
X112625685Y-32837380D01*
X112720923Y-32837380D01*
X113197114Y-32837380D02*
X113101876Y-32789761D01*
X113054257Y-32742142D01*
X113006638Y-32646904D01*
X113006638Y-32361190D01*
X113054257Y-32265952D01*
X113101876Y-32218333D01*
X113197114Y-32170714D01*
X113339971Y-32170714D01*
X113435209Y-32218333D01*
X113482828Y-32265952D01*
X113530447Y-32361190D01*
X113530447Y-32646904D01*
X113482828Y-32742142D01*
X113435209Y-32789761D01*
X113339971Y-32837380D01*
X113197114Y-32837380D01*
X113959019Y-32837380D02*
X113959019Y-32170714D01*
X113959019Y-32361190D02*
X114006638Y-32265952D01*
X114054257Y-32218333D01*
X114149495Y-32170714D01*
X114244733Y-32170714D01*
%TO.C,R690*%
X83126314Y-105869980D02*
X82554885Y-105869980D01*
X82840600Y-105869980D02*
X82840600Y-104869980D01*
X82745361Y-105012838D01*
X82650123Y-105108076D01*
X82554885Y-105155695D01*
X83554885Y-105869980D02*
X83554885Y-104869980D01*
X84126314Y-105869980D02*
X83697742Y-105298552D01*
X84126314Y-104869980D02*
X83554885Y-105441409D01*
%TO.C,D690*%
X74903476Y-105955180D02*
X74903476Y-104955180D01*
X75284428Y-104955180D01*
X75379666Y-105002800D01*
X75427285Y-105050419D01*
X75474904Y-105145657D01*
X75474904Y-105288514D01*
X75427285Y-105383752D01*
X75379666Y-105431371D01*
X75284428Y-105478990D01*
X74903476Y-105478990D01*
X76093952Y-104955180D02*
X76284428Y-104955180D01*
X76379666Y-105002800D01*
X76474904Y-105098038D01*
X76522523Y-105288514D01*
X76522523Y-105621847D01*
X76474904Y-105812323D01*
X76379666Y-105907561D01*
X76284428Y-105955180D01*
X76093952Y-105955180D01*
X75998714Y-105907561D01*
X75903476Y-105812323D01*
X75855857Y-105621847D01*
X75855857Y-105288514D01*
X75903476Y-105098038D01*
X75998714Y-105002800D01*
X76093952Y-104955180D01*
X76855857Y-104955180D02*
X77093952Y-105955180D01*
X77284428Y-105240895D01*
X77474904Y-105955180D01*
X77713000Y-104955180D01*
X78093952Y-105431371D02*
X78427285Y-105431371D01*
X78570142Y-105955180D02*
X78093952Y-105955180D01*
X78093952Y-104955180D01*
X78570142Y-104955180D01*
X79570142Y-105955180D02*
X79236809Y-105478990D01*
X78998714Y-105955180D02*
X78998714Y-104955180D01*
X79379666Y-104955180D01*
X79474904Y-105002800D01*
X79522523Y-105050419D01*
X79570142Y-105145657D01*
X79570142Y-105288514D01*
X79522523Y-105383752D01*
X79474904Y-105431371D01*
X79379666Y-105478990D01*
X78998714Y-105478990D01*
D12*
%TO.C,J1*%
X126588500Y-21638600D02*
X126588500Y-36338600D01*
X117388500Y-21638600D02*
X126588500Y-21638600D01*
X117388500Y-36338600D02*
X117388500Y-34438600D01*
X120088500Y-36338600D02*
X117388500Y-36338600D01*
X126588500Y-36338600D02*
X123988500Y-36338600D01*
X117388500Y-30438600D02*
X117388500Y-21638600D01*
X125738500Y-36538600D02*
X126788500Y-36538600D01*
X126788500Y-35488600D02*
X126788500Y-36538600D01*
%TO.C,C692*%
X122845600Y-103859200D02*
X122845600Y-105367200D01*
X122325600Y-103859200D02*
X122325600Y-105695200D01*
X121925600Y-99772200D02*
X121925600Y-101779200D01*
X123485600Y-100929200D02*
X123485600Y-104709200D01*
X121645600Y-99688200D02*
X121645600Y-101779200D01*
X120924600Y-99589200D02*
X120924600Y-106049200D01*
X121725600Y-103859200D02*
X121725600Y-105929200D01*
X121845600Y-103859200D02*
X121845600Y-105893200D01*
X120884600Y-99589200D02*
X120884600Y-106049200D01*
X123525600Y-100985200D02*
X123525600Y-104653200D01*
X123405600Y-100824200D02*
X123405600Y-104814200D01*
X121404600Y-103859200D02*
X121404600Y-106001200D01*
X122445600Y-103859200D02*
X122445600Y-105631200D01*
X122365600Y-99963200D02*
X122365600Y-101779200D01*
X123125600Y-100514200D02*
X123125600Y-101779200D01*
X121404600Y-99637200D02*
X121404600Y-101779200D01*
X124005600Y-102017200D02*
X124005600Y-103621200D01*
X120964600Y-99591200D02*
X120964600Y-106047200D01*
X122485600Y-103859200D02*
X122485600Y-105609200D01*
X117344359Y-100980200D02*
X117974359Y-100980200D01*
X122565600Y-103859200D02*
X122565600Y-105561200D01*
X124085600Y-102417200D02*
X124085600Y-103221200D01*
X121484600Y-103859200D02*
X121484600Y-105986200D01*
X122085600Y-103859200D02*
X122085600Y-105805200D01*
X122445600Y-100007200D02*
X122445600Y-101779200D01*
X122605600Y-103859200D02*
X122605600Y-105535200D01*
X121364600Y-103859200D02*
X121364600Y-106008200D01*
X123725600Y-101310200D02*
X123725600Y-104328200D01*
X123205600Y-100595200D02*
X123205600Y-105043200D01*
X122005600Y-103859200D02*
X122005600Y-105837200D01*
X122925600Y-100335200D02*
X122925600Y-101779200D01*
X123645600Y-101169200D02*
X123645600Y-104469200D01*
X121444600Y-103859200D02*
X121444600Y-105994200D01*
X121124600Y-103859200D02*
X121124600Y-106037200D01*
X122685600Y-100155200D02*
X122685600Y-101779200D01*
X123765600Y-101387200D02*
X123765600Y-104251200D01*
X121284600Y-99618200D02*
X121284600Y-101779200D01*
X122405600Y-99985200D02*
X122405600Y-101779200D01*
X121645600Y-103859200D02*
X121645600Y-105950200D01*
X121084600Y-99597200D02*
X121084600Y-101779200D01*
X123005600Y-100403200D02*
X123005600Y-101779200D01*
X122645600Y-100129200D02*
X122645600Y-101779200D01*
X123565600Y-101043200D02*
X123565600Y-104595200D01*
X122725600Y-103859200D02*
X122725600Y-105455200D01*
X124045600Y-102186200D02*
X124045600Y-103452200D01*
X123125600Y-103859200D02*
X123125600Y-105124200D01*
X122805600Y-103859200D02*
X122805600Y-105397200D01*
X121164600Y-103859200D02*
X121164600Y-106034200D01*
X122125600Y-99849200D02*
X122125600Y-101779200D01*
X121164600Y-99604200D02*
X121164600Y-101779200D01*
X122485600Y-100029200D02*
X122485600Y-101779200D01*
X122165600Y-99867200D02*
X122165600Y-101779200D01*
X122525600Y-103859200D02*
X122525600Y-105585200D01*
X123285600Y-100682200D02*
X123285600Y-104956200D01*
X122765600Y-100212200D02*
X122765600Y-101779200D01*
X121605600Y-103859200D02*
X121605600Y-105960200D01*
X122125600Y-103859200D02*
X122125600Y-105789200D01*
X122245600Y-103859200D02*
X122245600Y-105735200D01*
X123365600Y-100775200D02*
X123365600Y-104863200D01*
X123325600Y-100727200D02*
X123325600Y-104911200D01*
X122165600Y-103859200D02*
X122165600Y-105771200D01*
X123085600Y-100476200D02*
X123085600Y-101779200D01*
X121805600Y-103859200D02*
X121805600Y-105905200D01*
X123805600Y-101469200D02*
X123805600Y-104169200D01*
X121565600Y-99669200D02*
X121565600Y-101779200D01*
X122205600Y-99885200D02*
X122205600Y-101779200D01*
X123085600Y-103859200D02*
X123085600Y-105162200D01*
X122005600Y-99801200D02*
X122005600Y-101779200D01*
X122365600Y-103859200D02*
X122365600Y-105675200D01*
X121324600Y-103859200D02*
X121324600Y-106014200D01*
X121725600Y-99709200D02*
X121725600Y-101779200D01*
X122765600Y-103859200D02*
X122765600Y-105426200D01*
X123005600Y-103859200D02*
X123005600Y-105235200D01*
X121965600Y-99786200D02*
X121965600Y-101779200D01*
X121565600Y-103859200D02*
X121565600Y-105969200D01*
X117659359Y-100665200D02*
X117659359Y-101295200D01*
X122405600Y-103859200D02*
X122405600Y-105653200D01*
X123605600Y-101105200D02*
X123605600Y-104533200D01*
X123045600Y-100439200D02*
X123045600Y-101779200D01*
X123685600Y-101238200D02*
X123685600Y-104400200D01*
X121444600Y-99644200D02*
X121444600Y-101779200D01*
X123925600Y-101760200D02*
X123925600Y-103878200D01*
X123965600Y-101879200D02*
X123965600Y-103759200D01*
X121284600Y-103859200D02*
X121284600Y-106020200D01*
X122285600Y-99923200D02*
X122285600Y-101779200D01*
X121885600Y-103859200D02*
X121885600Y-105880200D01*
X121364600Y-99630200D02*
X121364600Y-101779200D01*
X121524600Y-99660200D02*
X121524600Y-101779200D01*
X121765600Y-99721200D02*
X121765600Y-101779200D01*
X120844600Y-99589200D02*
X120844600Y-106049200D01*
X121685600Y-103859200D02*
X121685600Y-105940200D01*
X122525600Y-100053200D02*
X122525600Y-101779200D01*
X121685600Y-99698200D02*
X121685600Y-101779200D01*
X121965600Y-103859200D02*
X121965600Y-105852200D01*
X121605600Y-99678200D02*
X121605600Y-101779200D01*
X121124600Y-99601200D02*
X121124600Y-101779200D01*
X122965600Y-100369200D02*
X122965600Y-101779200D01*
X123165600Y-100554200D02*
X123165600Y-105084200D01*
X122285600Y-103859200D02*
X122285600Y-105715200D01*
X122805600Y-100241200D02*
X122805600Y-101779200D01*
X121084600Y-103859200D02*
X121084600Y-106041200D01*
X121805600Y-99733200D02*
X121805600Y-101779200D01*
X121765600Y-103859200D02*
X121765600Y-105917200D01*
X123885600Y-101654200D02*
X123885600Y-103984200D01*
X122725600Y-100183200D02*
X122725600Y-101779200D01*
X122885600Y-103859200D02*
X122885600Y-105335200D01*
X121925600Y-103859200D02*
X121925600Y-105866200D01*
X123245600Y-100637200D02*
X123245600Y-105001200D01*
X123445600Y-100875200D02*
X123445600Y-104763200D01*
X123845600Y-101557200D02*
X123845600Y-104081200D01*
X121244600Y-103859200D02*
X121244600Y-106025200D01*
X123045600Y-103859200D02*
X123045600Y-105199200D01*
X122565600Y-100077200D02*
X122565600Y-101779200D01*
X121484600Y-99652200D02*
X121484600Y-101779200D01*
X122205600Y-103859200D02*
X122205600Y-105753200D01*
X121004600Y-99592200D02*
X121004600Y-106046200D01*
X122925600Y-103859200D02*
X122925600Y-105303200D01*
X122645600Y-103859200D02*
X122645600Y-105509200D01*
X122845600Y-100271200D02*
X122845600Y-101779200D01*
X121204600Y-103859200D02*
X121204600Y-106030200D01*
X122325600Y-99943200D02*
X122325600Y-101779200D01*
X122685600Y-103859200D02*
X122685600Y-105483200D01*
X121244600Y-99613200D02*
X121244600Y-101779200D01*
X122885600Y-100303200D02*
X122885600Y-101779200D01*
X122085600Y-99833200D02*
X122085600Y-101779200D01*
X121845600Y-99745200D02*
X121845600Y-101779200D01*
X121885600Y-99758200D02*
X121885600Y-101779200D01*
X121204600Y-99608200D02*
X121204600Y-101779200D01*
X122045600Y-99817200D02*
X122045600Y-101779200D01*
X122045600Y-103859200D02*
X122045600Y-105821200D01*
X121324600Y-99624200D02*
X121324600Y-101779200D01*
X122245600Y-99903200D02*
X122245600Y-101779200D01*
X121524600Y-103859200D02*
X121524600Y-105978200D01*
X122965600Y-103859200D02*
X122965600Y-105269200D01*
X122605600Y-100103200D02*
X122605600Y-101779200D01*
X121044600Y-99595200D02*
X121044600Y-106043200D01*
X124114600Y-102819200D02*
G75*
G03*
X124114600Y-102819200I-3270000J0D01*
G01*
%TO.C,C691*%
X122845600Y-79373600D02*
X122845600Y-80881600D01*
X122325600Y-79373600D02*
X122325600Y-81209600D01*
X121925600Y-75286600D02*
X121925600Y-77293600D01*
X123485600Y-76443600D02*
X123485600Y-80223600D01*
X121645600Y-75202600D02*
X121645600Y-77293600D01*
X120924600Y-75103600D02*
X120924600Y-81563600D01*
X121725600Y-79373600D02*
X121725600Y-81443600D01*
X121845600Y-79373600D02*
X121845600Y-81407600D01*
X120884600Y-75103600D02*
X120884600Y-81563600D01*
X123525600Y-76499600D02*
X123525600Y-80167600D01*
X123405600Y-76338600D02*
X123405600Y-80328600D01*
X121404600Y-79373600D02*
X121404600Y-81515600D01*
X122445600Y-79373600D02*
X122445600Y-81145600D01*
X122365600Y-75477600D02*
X122365600Y-77293600D01*
X123125600Y-76028600D02*
X123125600Y-77293600D01*
X121404600Y-75151600D02*
X121404600Y-77293600D01*
X124005600Y-77531600D02*
X124005600Y-79135600D01*
X120964600Y-75105600D02*
X120964600Y-81561600D01*
X122485600Y-79373600D02*
X122485600Y-81123600D01*
X117344359Y-76494600D02*
X117974359Y-76494600D01*
X122565600Y-79373600D02*
X122565600Y-81075600D01*
X124085600Y-77931600D02*
X124085600Y-78735600D01*
X121484600Y-79373600D02*
X121484600Y-81500600D01*
X122085600Y-79373600D02*
X122085600Y-81319600D01*
X122445600Y-75521600D02*
X122445600Y-77293600D01*
X122605600Y-79373600D02*
X122605600Y-81049600D01*
X121364600Y-79373600D02*
X121364600Y-81522600D01*
X123725600Y-76824600D02*
X123725600Y-79842600D01*
X123205600Y-76109600D02*
X123205600Y-80557600D01*
X122005600Y-79373600D02*
X122005600Y-81351600D01*
X122925600Y-75849600D02*
X122925600Y-77293600D01*
X123645600Y-76683600D02*
X123645600Y-79983600D01*
X121444600Y-79373600D02*
X121444600Y-81508600D01*
X121124600Y-79373600D02*
X121124600Y-81551600D01*
X122685600Y-75669600D02*
X122685600Y-77293600D01*
X123765600Y-76901600D02*
X123765600Y-79765600D01*
X121284600Y-75132600D02*
X121284600Y-77293600D01*
X122405600Y-75499600D02*
X122405600Y-77293600D01*
X121645600Y-79373600D02*
X121645600Y-81464600D01*
X121084600Y-75111600D02*
X121084600Y-77293600D01*
X123005600Y-75917600D02*
X123005600Y-77293600D01*
X122645600Y-75643600D02*
X122645600Y-77293600D01*
X123565600Y-76557600D02*
X123565600Y-80109600D01*
X122725600Y-79373600D02*
X122725600Y-80969600D01*
X124045600Y-77700600D02*
X124045600Y-78966600D01*
X123125600Y-79373600D02*
X123125600Y-80638600D01*
X122805600Y-79373600D02*
X122805600Y-80911600D01*
X121164600Y-79373600D02*
X121164600Y-81548600D01*
X122125600Y-75363600D02*
X122125600Y-77293600D01*
X121164600Y-75118600D02*
X121164600Y-77293600D01*
X122485600Y-75543600D02*
X122485600Y-77293600D01*
X122165600Y-75381600D02*
X122165600Y-77293600D01*
X122525600Y-79373600D02*
X122525600Y-81099600D01*
X123285600Y-76196600D02*
X123285600Y-80470600D01*
X122765600Y-75726600D02*
X122765600Y-77293600D01*
X121605600Y-79373600D02*
X121605600Y-81474600D01*
X122125600Y-79373600D02*
X122125600Y-81303600D01*
X122245600Y-79373600D02*
X122245600Y-81249600D01*
X123365600Y-76289600D02*
X123365600Y-80377600D01*
X123325600Y-76241600D02*
X123325600Y-80425600D01*
X122165600Y-79373600D02*
X122165600Y-81285600D01*
X123085600Y-75990600D02*
X123085600Y-77293600D01*
X121805600Y-79373600D02*
X121805600Y-81419600D01*
X123805600Y-76983600D02*
X123805600Y-79683600D01*
X121565600Y-75183600D02*
X121565600Y-77293600D01*
X122205600Y-75399600D02*
X122205600Y-77293600D01*
X123085600Y-79373600D02*
X123085600Y-80676600D01*
X122005600Y-75315600D02*
X122005600Y-77293600D01*
X122365600Y-79373600D02*
X122365600Y-81189600D01*
X121324600Y-79373600D02*
X121324600Y-81528600D01*
X121725600Y-75223600D02*
X121725600Y-77293600D01*
X122765600Y-79373600D02*
X122765600Y-80940600D01*
X123005600Y-79373600D02*
X123005600Y-80749600D01*
X121965600Y-75300600D02*
X121965600Y-77293600D01*
X121565600Y-79373600D02*
X121565600Y-81483600D01*
X117659359Y-76179600D02*
X117659359Y-76809600D01*
X122405600Y-79373600D02*
X122405600Y-81167600D01*
X123605600Y-76619600D02*
X123605600Y-80047600D01*
X123045600Y-75953600D02*
X123045600Y-77293600D01*
X123685600Y-76752600D02*
X123685600Y-79914600D01*
X121444600Y-75158600D02*
X121444600Y-77293600D01*
X123925600Y-77274600D02*
X123925600Y-79392600D01*
X123965600Y-77393600D02*
X123965600Y-79273600D01*
X121284600Y-79373600D02*
X121284600Y-81534600D01*
X122285600Y-75437600D02*
X122285600Y-77293600D01*
X121885600Y-79373600D02*
X121885600Y-81394600D01*
X121364600Y-75144600D02*
X121364600Y-77293600D01*
X121524600Y-75174600D02*
X121524600Y-77293600D01*
X121765600Y-75235600D02*
X121765600Y-77293600D01*
X120844600Y-75103600D02*
X120844600Y-81563600D01*
X121685600Y-79373600D02*
X121685600Y-81454600D01*
X122525600Y-75567600D02*
X122525600Y-77293600D01*
X121685600Y-75212600D02*
X121685600Y-77293600D01*
X121965600Y-79373600D02*
X121965600Y-81366600D01*
X121605600Y-75192600D02*
X121605600Y-77293600D01*
X121124600Y-75115600D02*
X121124600Y-77293600D01*
X122965600Y-75883600D02*
X122965600Y-77293600D01*
X123165600Y-76068600D02*
X123165600Y-80598600D01*
X122285600Y-79373600D02*
X122285600Y-81229600D01*
X122805600Y-75755600D02*
X122805600Y-77293600D01*
X121084600Y-79373600D02*
X121084600Y-81555600D01*
X121805600Y-75247600D02*
X121805600Y-77293600D01*
X121765600Y-79373600D02*
X121765600Y-81431600D01*
X123885600Y-77168600D02*
X123885600Y-79498600D01*
X122725600Y-75697600D02*
X122725600Y-77293600D01*
X122885600Y-79373600D02*
X122885600Y-80849600D01*
X121925600Y-79373600D02*
X121925600Y-81380600D01*
X123245600Y-76151600D02*
X123245600Y-80515600D01*
X123445600Y-76389600D02*
X123445600Y-80277600D01*
X123845600Y-77071600D02*
X123845600Y-79595600D01*
X121244600Y-79373600D02*
X121244600Y-81539600D01*
X123045600Y-79373600D02*
X123045600Y-80713600D01*
X122565600Y-75591600D02*
X122565600Y-77293600D01*
X121484600Y-75166600D02*
X121484600Y-77293600D01*
X122205600Y-79373600D02*
X122205600Y-81267600D01*
X121004600Y-75106600D02*
X121004600Y-81560600D01*
X122925600Y-79373600D02*
X122925600Y-80817600D01*
X122645600Y-79373600D02*
X122645600Y-81023600D01*
X122845600Y-75785600D02*
X122845600Y-77293600D01*
X121204600Y-79373600D02*
X121204600Y-81544600D01*
X122325600Y-75457600D02*
X122325600Y-77293600D01*
X122685600Y-79373600D02*
X122685600Y-80997600D01*
X121244600Y-75127600D02*
X121244600Y-77293600D01*
X122885600Y-75817600D02*
X122885600Y-77293600D01*
X122085600Y-75347600D02*
X122085600Y-77293600D01*
X121845600Y-75259600D02*
X121845600Y-77293600D01*
X121885600Y-75272600D02*
X121885600Y-77293600D01*
X121204600Y-75122600D02*
X121204600Y-77293600D01*
X122045600Y-75331600D02*
X122045600Y-77293600D01*
X122045600Y-79373600D02*
X122045600Y-81335600D01*
X121324600Y-75138600D02*
X121324600Y-77293600D01*
X122245600Y-75417600D02*
X122245600Y-77293600D01*
X121524600Y-79373600D02*
X121524600Y-81492600D01*
X122965600Y-79373600D02*
X122965600Y-80783600D01*
X122605600Y-75617600D02*
X122605600Y-77293600D01*
X121044600Y-75109600D02*
X121044600Y-81557600D01*
X124114600Y-78333600D02*
G75*
G03*
X124114600Y-78333600I-3270000J0D01*
G01*
%TO.C,C690*%
X122845600Y-57224800D02*
X122845600Y-58732800D01*
X122325600Y-57224800D02*
X122325600Y-59060800D01*
X121925600Y-53137800D02*
X121925600Y-55144800D01*
X123485600Y-54294800D02*
X123485600Y-58074800D01*
X121645600Y-53053800D02*
X121645600Y-55144800D01*
X120924600Y-52954800D02*
X120924600Y-59414800D01*
X121725600Y-57224800D02*
X121725600Y-59294800D01*
X121845600Y-57224800D02*
X121845600Y-59258800D01*
X120884600Y-52954800D02*
X120884600Y-59414800D01*
X123525600Y-54350800D02*
X123525600Y-58018800D01*
X123405600Y-54189800D02*
X123405600Y-58179800D01*
X121404600Y-57224800D02*
X121404600Y-59366800D01*
X122445600Y-57224800D02*
X122445600Y-58996800D01*
X122365600Y-53328800D02*
X122365600Y-55144800D01*
X123125600Y-53879800D02*
X123125600Y-55144800D01*
X121404600Y-53002800D02*
X121404600Y-55144800D01*
X124005600Y-55382800D02*
X124005600Y-56986800D01*
X120964600Y-52956800D02*
X120964600Y-59412800D01*
X122485600Y-57224800D02*
X122485600Y-58974800D01*
X117344359Y-54345800D02*
X117974359Y-54345800D01*
X122565600Y-57224800D02*
X122565600Y-58926800D01*
X124085600Y-55782800D02*
X124085600Y-56586800D01*
X121484600Y-57224800D02*
X121484600Y-59351800D01*
X122085600Y-57224800D02*
X122085600Y-59170800D01*
X122445600Y-53372800D02*
X122445600Y-55144800D01*
X122605600Y-57224800D02*
X122605600Y-58900800D01*
X121364600Y-57224800D02*
X121364600Y-59373800D01*
X123725600Y-54675800D02*
X123725600Y-57693800D01*
X123205600Y-53960800D02*
X123205600Y-58408800D01*
X122005600Y-57224800D02*
X122005600Y-59202800D01*
X122925600Y-53700800D02*
X122925600Y-55144800D01*
X123645600Y-54534800D02*
X123645600Y-57834800D01*
X121444600Y-57224800D02*
X121444600Y-59359800D01*
X121124600Y-57224800D02*
X121124600Y-59402800D01*
X122685600Y-53520800D02*
X122685600Y-55144800D01*
X123765600Y-54752800D02*
X123765600Y-57616800D01*
X121284600Y-52983800D02*
X121284600Y-55144800D01*
X122405600Y-53350800D02*
X122405600Y-55144800D01*
X121645600Y-57224800D02*
X121645600Y-59315800D01*
X121084600Y-52962800D02*
X121084600Y-55144800D01*
X123005600Y-53768800D02*
X123005600Y-55144800D01*
X122645600Y-53494800D02*
X122645600Y-55144800D01*
X123565600Y-54408800D02*
X123565600Y-57960800D01*
X122725600Y-57224800D02*
X122725600Y-58820800D01*
X124045600Y-55551800D02*
X124045600Y-56817800D01*
X123125600Y-57224800D02*
X123125600Y-58489800D01*
X122805600Y-57224800D02*
X122805600Y-58762800D01*
X121164600Y-57224800D02*
X121164600Y-59399800D01*
X122125600Y-53214800D02*
X122125600Y-55144800D01*
X121164600Y-52969800D02*
X121164600Y-55144800D01*
X122485600Y-53394800D02*
X122485600Y-55144800D01*
X122165600Y-53232800D02*
X122165600Y-55144800D01*
X122525600Y-57224800D02*
X122525600Y-58950800D01*
X123285600Y-54047800D02*
X123285600Y-58321800D01*
X122765600Y-53577800D02*
X122765600Y-55144800D01*
X121605600Y-57224800D02*
X121605600Y-59325800D01*
X122125600Y-57224800D02*
X122125600Y-59154800D01*
X122245600Y-57224800D02*
X122245600Y-59100800D01*
X123365600Y-54140800D02*
X123365600Y-58228800D01*
X123325600Y-54092800D02*
X123325600Y-58276800D01*
X122165600Y-57224800D02*
X122165600Y-59136800D01*
X123085600Y-53841800D02*
X123085600Y-55144800D01*
X121805600Y-57224800D02*
X121805600Y-59270800D01*
X123805600Y-54834800D02*
X123805600Y-57534800D01*
X121565600Y-53034800D02*
X121565600Y-55144800D01*
X122205600Y-53250800D02*
X122205600Y-55144800D01*
X123085600Y-57224800D02*
X123085600Y-58527800D01*
X122005600Y-53166800D02*
X122005600Y-55144800D01*
X122365600Y-57224800D02*
X122365600Y-59040800D01*
X121324600Y-57224800D02*
X121324600Y-59379800D01*
X121725600Y-53074800D02*
X121725600Y-55144800D01*
X122765600Y-57224800D02*
X122765600Y-58791800D01*
X123005600Y-57224800D02*
X123005600Y-58600800D01*
X121965600Y-53151800D02*
X121965600Y-55144800D01*
X121565600Y-57224800D02*
X121565600Y-59334800D01*
X117659359Y-54030800D02*
X117659359Y-54660800D01*
X122405600Y-57224800D02*
X122405600Y-59018800D01*
X123605600Y-54470800D02*
X123605600Y-57898800D01*
X123045600Y-53804800D02*
X123045600Y-55144800D01*
X123685600Y-54603800D02*
X123685600Y-57765800D01*
X121444600Y-53009800D02*
X121444600Y-55144800D01*
X123925600Y-55125800D02*
X123925600Y-57243800D01*
X123965600Y-55244800D02*
X123965600Y-57124800D01*
X121284600Y-57224800D02*
X121284600Y-59385800D01*
X122285600Y-53288800D02*
X122285600Y-55144800D01*
X121885600Y-57224800D02*
X121885600Y-59245800D01*
X121364600Y-52995800D02*
X121364600Y-55144800D01*
X121524600Y-53025800D02*
X121524600Y-55144800D01*
X121765600Y-53086800D02*
X121765600Y-55144800D01*
X120844600Y-52954800D02*
X120844600Y-59414800D01*
X121685600Y-57224800D02*
X121685600Y-59305800D01*
X122525600Y-53418800D02*
X122525600Y-55144800D01*
X121685600Y-53063800D02*
X121685600Y-55144800D01*
X121965600Y-57224800D02*
X121965600Y-59217800D01*
X121605600Y-53043800D02*
X121605600Y-55144800D01*
X121124600Y-52966800D02*
X121124600Y-55144800D01*
X122965600Y-53734800D02*
X122965600Y-55144800D01*
X123165600Y-53919800D02*
X123165600Y-58449800D01*
X122285600Y-57224800D02*
X122285600Y-59080800D01*
X122805600Y-53606800D02*
X122805600Y-55144800D01*
X121084600Y-57224800D02*
X121084600Y-59406800D01*
X121805600Y-53098800D02*
X121805600Y-55144800D01*
X121765600Y-57224800D02*
X121765600Y-59282800D01*
X123885600Y-55019800D02*
X123885600Y-57349800D01*
X122725600Y-53548800D02*
X122725600Y-55144800D01*
X122885600Y-57224800D02*
X122885600Y-58700800D01*
X121925600Y-57224800D02*
X121925600Y-59231800D01*
X123245600Y-54002800D02*
X123245600Y-58366800D01*
X123445600Y-54240800D02*
X123445600Y-58128800D01*
X123845600Y-54922800D02*
X123845600Y-57446800D01*
X121244600Y-57224800D02*
X121244600Y-59390800D01*
X123045600Y-57224800D02*
X123045600Y-58564800D01*
X122565600Y-53442800D02*
X122565600Y-55144800D01*
X121484600Y-53017800D02*
X121484600Y-55144800D01*
X122205600Y-57224800D02*
X122205600Y-59118800D01*
X121004600Y-52957800D02*
X121004600Y-59411800D01*
X122925600Y-57224800D02*
X122925600Y-58668800D01*
X122645600Y-57224800D02*
X122645600Y-58874800D01*
X122845600Y-53636800D02*
X122845600Y-55144800D01*
X121204600Y-57224800D02*
X121204600Y-59395800D01*
X122325600Y-53308800D02*
X122325600Y-55144800D01*
X122685600Y-57224800D02*
X122685600Y-58848800D01*
X121244600Y-52978800D02*
X121244600Y-55144800D01*
X122885600Y-53668800D02*
X122885600Y-55144800D01*
X122085600Y-53198800D02*
X122085600Y-55144800D01*
X121845600Y-53110800D02*
X121845600Y-55144800D01*
X121885600Y-53123800D02*
X121885600Y-55144800D01*
X121204600Y-52973800D02*
X121204600Y-55144800D01*
X122045600Y-53182800D02*
X122045600Y-55144800D01*
X122045600Y-57224800D02*
X122045600Y-59186800D01*
X121324600Y-52989800D02*
X121324600Y-55144800D01*
X122245600Y-53268800D02*
X122245600Y-55144800D01*
X121524600Y-57224800D02*
X121524600Y-59343800D01*
X122965600Y-57224800D02*
X122965600Y-58634800D01*
X122605600Y-53468800D02*
X122605600Y-55144800D01*
X121044600Y-52960800D02*
X121044600Y-59408800D01*
X124114600Y-56184800D02*
G75*
G03*
X124114600Y-56184800I-3270000J0D01*
G01*
%TO.C,CE696*%
X80028000Y-95980000D02*
X75928000Y-95980000D01*
X112368000Y-95980000D02*
X80028000Y-95980000D01*
X43588000Y-95980000D02*
X43588000Y-89480000D01*
X80028000Y-95980000D02*
X80028000Y-95980000D01*
X75928000Y-95980000D02*
X43588000Y-95980000D01*
X43588000Y-89480000D02*
X112368000Y-89480000D01*
X112368000Y-89480000D02*
X112368000Y-95980000D01*
%TO.C,CE695*%
X80053400Y-88980000D02*
X75953400Y-88980000D01*
X112393400Y-88980000D02*
X80053400Y-88980000D01*
X43613400Y-88980000D02*
X43613400Y-82480000D01*
X80053400Y-88980000D02*
X80053400Y-88980000D01*
X75953400Y-88980000D02*
X43613400Y-88980000D01*
X43613400Y-82480000D02*
X112393400Y-82480000D01*
X112393400Y-82480000D02*
X112393400Y-88980000D01*
%TO.C,CE694*%
X112495000Y-67480000D02*
X112495000Y-73980000D01*
X43715000Y-67480000D02*
X112495000Y-67480000D01*
X76055000Y-73980000D02*
X43715000Y-73980000D01*
X80155000Y-73980000D02*
X80155000Y-73980000D01*
X43715000Y-73980000D02*
X43715000Y-67480000D01*
X112495000Y-73980000D02*
X80155000Y-73980000D01*
X80155000Y-73980000D02*
X76055000Y-73980000D01*
%TO.C,CE693*%
X80155000Y-66980000D02*
X76055000Y-66980000D01*
X112495000Y-66980000D02*
X80155000Y-66980000D01*
X43715000Y-66980000D02*
X43715000Y-60480000D01*
X80155000Y-66980000D02*
X80155000Y-66980000D01*
X76055000Y-66980000D02*
X43715000Y-66980000D01*
X43715000Y-60480000D02*
X112495000Y-60480000D01*
X112495000Y-60480000D02*
X112495000Y-66980000D01*
%TO.C,CE692*%
X80205800Y-51980000D02*
X76105800Y-51980000D01*
X112545800Y-51980000D02*
X80205800Y-51980000D01*
X43765800Y-51980000D02*
X43765800Y-45480000D01*
X80205800Y-51980000D02*
X80205800Y-51980000D01*
X76105800Y-51980000D02*
X43765800Y-51980000D01*
X43765800Y-45480000D02*
X112545800Y-45480000D01*
X112545800Y-45480000D02*
X112545800Y-51980000D01*
%TO.C,CE691*%
X113845800Y-42726700D02*
X42465800Y-42726700D01*
X80205800Y-41416700D02*
X76105800Y-41416700D01*
X112545800Y-41416700D02*
X80205800Y-41416700D01*
X43765800Y-41416700D02*
X43765800Y-34916700D01*
X80205800Y-41416700D02*
X80205800Y-41416700D01*
X47675800Y-43116700D02*
X47175800Y-44116700D01*
X76105800Y-41416700D02*
X43765800Y-41416700D01*
X43765800Y-34916700D02*
X112545800Y-34916700D01*
X42465800Y-33606700D02*
X113845800Y-33606700D01*
X42465800Y-42726700D02*
X42465800Y-33606700D01*
X112545800Y-34916700D02*
X112545800Y-41416700D01*
X48175800Y-44116700D02*
X47675800Y-43116700D01*
X47175800Y-44116700D02*
X48175800Y-44116700D01*
X113845800Y-33606700D02*
X113845800Y-42726700D01*
%TO.C,CE690*%
X113845800Y-31179200D02*
X42465800Y-31179200D01*
X80205800Y-29869200D02*
X76105800Y-29869200D01*
X112545800Y-29869200D02*
X80205800Y-29869200D01*
X43765800Y-29869200D02*
X43765800Y-23369200D01*
X80205800Y-29869200D02*
X80205800Y-29869200D01*
X47675800Y-31569200D02*
X47175800Y-32569200D01*
X76105800Y-29869200D02*
X43765800Y-29869200D01*
X43765800Y-23369200D02*
X112545800Y-23369200D01*
X42465800Y-22059200D02*
X113845800Y-22059200D01*
X42465800Y-31179200D02*
X42465800Y-22059200D01*
X112545800Y-23369200D02*
X112545800Y-29869200D01*
X48175800Y-32569200D02*
X47675800Y-31569200D01*
X47175800Y-32569200D02*
X48175800Y-32569200D01*
X113845800Y-22059200D02*
X113845800Y-31179200D01*
%TO.C,R690*%
X83113536Y-103032600D02*
X83567664Y-103032600D01*
X83113536Y-104502600D02*
X83567664Y-104502600D01*
%TO.C,D690*%
X74928000Y-102547800D02*
X74928000Y-104817800D01*
X78813000Y-102547800D02*
X74928000Y-102547800D01*
X74928000Y-104817800D02*
X78813000Y-104817800D01*
%TD*%
M02*
