%TF.GenerationSoftware,KiCad,Pcbnew,(6.0.7)*%
%TF.CreationDate,2022-12-21T02:17:17+00:00*%
%TF.ProjectId,CPC464-2MINIDOCK,43504334-3634-42d3-924d-494e49444f43,rev?*%
%TF.SameCoordinates,Original*%
%TF.FileFunction,Legend,Bot*%
%TF.FilePolarity,Positive*%
%FSLAX46Y46*%
G04 Gerber Fmt 4.6, Leading zero omitted, Abs format (unit mm)*
G04 Created by KiCad (PCBNEW (6.0.7)) date 2022-12-21 02:17:17*
%MOMM*%
%LPD*%
G01*
G04 APERTURE LIST*
%ADD10C,0.250000*%
G04 APERTURE END LIST*
D10*
X67142876Y-104201980D02*
X66571447Y-104201980D01*
X66857161Y-105201980D02*
X66857161Y-104201980D01*
X66238114Y-105201980D02*
X66238114Y-104201980D01*
X65809542Y-105201980D02*
X65809542Y-104678171D01*
X65857161Y-104582933D01*
X65952400Y-104535314D01*
X66095257Y-104535314D01*
X66190495Y-104582933D01*
X66238114Y-104630552D01*
X64904780Y-105201980D02*
X64904780Y-104678171D01*
X64952400Y-104582933D01*
X65047638Y-104535314D01*
X65238114Y-104535314D01*
X65333352Y-104582933D01*
X64904780Y-105154361D02*
X65000019Y-105201980D01*
X65238114Y-105201980D01*
X65333352Y-105154361D01*
X65380971Y-105059123D01*
X65380971Y-104963885D01*
X65333352Y-104868647D01*
X65238114Y-104821028D01*
X65000019Y-104821028D01*
X64904780Y-104773409D01*
X64428590Y-104535314D02*
X64428590Y-105201980D01*
X64428590Y-104630552D02*
X64380971Y-104582933D01*
X64285733Y-104535314D01*
X64142876Y-104535314D01*
X64047638Y-104582933D01*
X64000019Y-104678171D01*
X64000019Y-105201980D01*
X63523828Y-105201980D02*
X63523828Y-104201980D01*
X63428590Y-104821028D02*
X63142876Y-105201980D01*
X63142876Y-104535314D02*
X63523828Y-104916266D01*
X62761923Y-105154361D02*
X62666685Y-105201980D01*
X62476209Y-105201980D01*
X62380971Y-105154361D01*
X62333352Y-105059123D01*
X62333352Y-105011504D01*
X62380971Y-104916266D01*
X62476209Y-104868647D01*
X62619066Y-104868647D01*
X62714304Y-104821028D01*
X62761923Y-104725790D01*
X62761923Y-104678171D01*
X62714304Y-104582933D01*
X62619066Y-104535314D01*
X62476209Y-104535314D01*
X62380971Y-104582933D01*
X61285733Y-104535314D02*
X60904780Y-104535314D01*
X61142876Y-104201980D02*
X61142876Y-105059123D01*
X61095257Y-105154361D01*
X61000019Y-105201980D01*
X60904780Y-105201980D01*
X60428590Y-105201980D02*
X60523828Y-105154361D01*
X60571447Y-105106742D01*
X60619066Y-105011504D01*
X60619066Y-104725790D01*
X60571447Y-104630552D01*
X60523828Y-104582933D01*
X60428590Y-104535314D01*
X60285733Y-104535314D01*
X60190495Y-104582933D01*
X60142876Y-104630552D01*
X60095257Y-104725790D01*
X60095257Y-105011504D01*
X60142876Y-105106742D01*
X60190495Y-105154361D01*
X60285733Y-105201980D01*
X60428590Y-105201980D01*
X58333352Y-105201980D02*
X58666685Y-104725790D01*
X58904780Y-105201980D02*
X58904780Y-104201980D01*
X58523828Y-104201980D01*
X58428590Y-104249600D01*
X58380971Y-104297219D01*
X58333352Y-104392457D01*
X58333352Y-104535314D01*
X58380971Y-104630552D01*
X58428590Y-104678171D01*
X58523828Y-104725790D01*
X58904780Y-104725790D01*
X57761923Y-105201980D02*
X57857161Y-105154361D01*
X57904780Y-105106742D01*
X57952400Y-105011504D01*
X57952400Y-104725790D01*
X57904780Y-104630552D01*
X57857161Y-104582933D01*
X57761923Y-104535314D01*
X57619066Y-104535314D01*
X57523828Y-104582933D01*
X57476209Y-104630552D01*
X57428590Y-104725790D01*
X57428590Y-105011504D01*
X57476209Y-105106742D01*
X57523828Y-105154361D01*
X57619066Y-105201980D01*
X57761923Y-105201980D01*
X57000019Y-105201980D02*
X57000019Y-104201980D01*
X57000019Y-104582933D02*
X56904780Y-104535314D01*
X56714304Y-104535314D01*
X56619066Y-104582933D01*
X56571447Y-104630552D01*
X56523828Y-104725790D01*
X56523828Y-105011504D01*
X56571447Y-105106742D01*
X56619066Y-105154361D01*
X56714304Y-105201980D01*
X56904780Y-105201980D01*
X57000019Y-105154361D01*
X55380971Y-104201980D02*
X55380971Y-104392457D01*
X55000019Y-104201980D02*
X55000019Y-104392457D01*
X54571447Y-105201980D02*
X54571447Y-104201980D01*
X54190495Y-104201980D01*
X54095257Y-104249600D01*
X54047638Y-104297219D01*
X54000019Y-104392457D01*
X54000019Y-104535314D01*
X54047638Y-104630552D01*
X54095257Y-104678171D01*
X54190495Y-104725790D01*
X54571447Y-104725790D01*
X53190495Y-105154361D02*
X53285733Y-105201980D01*
X53476209Y-105201980D01*
X53571447Y-105154361D01*
X53619066Y-105059123D01*
X53619066Y-104678171D01*
X53571447Y-104582933D01*
X53476209Y-104535314D01*
X53285733Y-104535314D01*
X53190495Y-104582933D01*
X53142876Y-104678171D01*
X53142876Y-104773409D01*
X53619066Y-104868647D01*
X52333352Y-105154361D02*
X52428590Y-105201980D01*
X52619066Y-105201980D01*
X52714304Y-105154361D01*
X52761923Y-105059123D01*
X52761923Y-104678171D01*
X52714304Y-104582933D01*
X52619066Y-104535314D01*
X52428590Y-104535314D01*
X52333352Y-104582933D01*
X52285733Y-104678171D01*
X52285733Y-104773409D01*
X52761923Y-104868647D01*
X51857161Y-104535314D02*
X51857161Y-105535314D01*
X51857161Y-104582933D02*
X51761923Y-104535314D01*
X51571447Y-104535314D01*
X51476209Y-104582933D01*
X51428590Y-104630552D01*
X51380971Y-104725790D01*
X51380971Y-105011504D01*
X51428590Y-105106742D01*
X51476209Y-105154361D01*
X51571447Y-105201980D01*
X51761923Y-105201980D01*
X51857161Y-105154361D01*
X50809542Y-105201980D02*
X50904780Y-105154361D01*
X50952400Y-105106742D01*
X51000019Y-105011504D01*
X51000019Y-104725790D01*
X50952400Y-104630552D01*
X50904780Y-104582933D01*
X50809542Y-104535314D01*
X50666685Y-104535314D01*
X50571447Y-104582933D01*
X50523828Y-104630552D01*
X50476209Y-104725790D01*
X50476209Y-105011504D01*
X50523828Y-105106742D01*
X50571447Y-105154361D01*
X50666685Y-105201980D01*
X50809542Y-105201980D01*
X50095257Y-104201980D02*
X50095257Y-104392457D01*
X49714304Y-104201980D02*
X49714304Y-104392457D01*
X48666685Y-104201980D02*
X48095257Y-104201980D01*
X48380971Y-105201980D02*
X48380971Y-104201980D01*
X47333352Y-105201980D02*
X47333352Y-104678171D01*
X47380971Y-104582933D01*
X47476209Y-104535314D01*
X47666685Y-104535314D01*
X47761923Y-104582933D01*
X47333352Y-105154361D02*
X47428590Y-105201980D01*
X47666685Y-105201980D01*
X47761923Y-105154361D01*
X47809542Y-105059123D01*
X47809542Y-104963885D01*
X47761923Y-104868647D01*
X47666685Y-104821028D01*
X47428590Y-104821028D01*
X47333352Y-104773409D01*
X46952400Y-104535314D02*
X46714304Y-105201980D01*
X46476209Y-104535314D02*
X46714304Y-105201980D01*
X46809542Y-105440076D01*
X46857161Y-105487695D01*
X46952400Y-105535314D01*
X45952400Y-105201980D02*
X46047638Y-105154361D01*
X46095257Y-105059123D01*
X46095257Y-104201980D01*
X45428590Y-105201980D02*
X45523828Y-105154361D01*
X45571447Y-105106742D01*
X45619066Y-105011504D01*
X45619066Y-104725790D01*
X45571447Y-104630552D01*
X45523828Y-104582933D01*
X45428590Y-104535314D01*
X45285733Y-104535314D01*
X45190495Y-104582933D01*
X45142876Y-104630552D01*
X45095257Y-104725790D01*
X45095257Y-105011504D01*
X45142876Y-105106742D01*
X45190495Y-105154361D01*
X45285733Y-105201980D01*
X45428590Y-105201980D01*
X44666685Y-105201980D02*
X44666685Y-104535314D01*
X44666685Y-104725790D02*
X44619066Y-104630552D01*
X44571447Y-104582933D01*
X44476209Y-104535314D01*
X44380971Y-104535314D01*
X42857161Y-105201980D02*
X42857161Y-104678171D01*
X42904780Y-104582933D01*
X43000019Y-104535314D01*
X43190495Y-104535314D01*
X43285733Y-104582933D01*
X42857161Y-105154361D02*
X42952400Y-105201980D01*
X43190495Y-105201980D01*
X43285733Y-105154361D01*
X43333352Y-105059123D01*
X43333352Y-104963885D01*
X43285733Y-104868647D01*
X43190495Y-104821028D01*
X42952400Y-104821028D01*
X42857161Y-104773409D01*
X42380971Y-104535314D02*
X42380971Y-105201980D01*
X42380971Y-104630552D02*
X42333352Y-104582933D01*
X42238114Y-104535314D01*
X42095257Y-104535314D01*
X42000019Y-104582933D01*
X41952400Y-104678171D01*
X41952400Y-105201980D01*
X41047638Y-105201980D02*
X41047638Y-104201980D01*
X41047638Y-105154361D02*
X41142876Y-105201980D01*
X41333352Y-105201980D01*
X41428590Y-105154361D01*
X41476209Y-105106742D01*
X41523828Y-105011504D01*
X41523828Y-104725790D01*
X41476209Y-104630552D01*
X41428590Y-104582933D01*
X41333352Y-104535314D01*
X41142876Y-104535314D01*
X41047638Y-104582933D01*
X39238114Y-105106742D02*
X39285733Y-105154361D01*
X39428590Y-105201980D01*
X39523828Y-105201980D01*
X39666685Y-105154361D01*
X39761923Y-105059123D01*
X39809542Y-104963885D01*
X39857161Y-104773409D01*
X39857161Y-104630552D01*
X39809542Y-104440076D01*
X39761923Y-104344838D01*
X39666685Y-104249600D01*
X39523828Y-104201980D01*
X39428590Y-104201980D01*
X39285733Y-104249600D01*
X39238114Y-104297219D01*
X38809542Y-105201980D02*
X38809542Y-104201980D01*
X38380971Y-105201980D02*
X38380971Y-104678171D01*
X38428590Y-104582933D01*
X38523828Y-104535314D01*
X38666685Y-104535314D01*
X38761923Y-104582933D01*
X38809542Y-104630552D01*
X37904780Y-105201980D02*
X37904780Y-104535314D01*
X37904780Y-104725790D02*
X37857161Y-104630552D01*
X37809542Y-104582933D01*
X37714304Y-104535314D01*
X37619066Y-104535314D01*
X37285733Y-105201980D02*
X37285733Y-104535314D01*
X37285733Y-104201980D02*
X37333352Y-104249600D01*
X37285733Y-104297219D01*
X37238114Y-104249600D01*
X37285733Y-104201980D01*
X37285733Y-104297219D01*
X36857161Y-105154361D02*
X36761923Y-105201980D01*
X36571447Y-105201980D01*
X36476209Y-105154361D01*
X36428590Y-105059123D01*
X36428590Y-105011504D01*
X36476209Y-104916266D01*
X36571447Y-104868647D01*
X36714304Y-104868647D01*
X36809542Y-104821028D01*
X36857161Y-104725790D01*
X36857161Y-104678171D01*
X36809542Y-104582933D01*
X36714304Y-104535314D01*
X36571447Y-104535314D01*
X36476209Y-104582933D01*
X36047638Y-105154361D02*
X35952400Y-105201980D01*
X35761923Y-105201980D01*
X35666685Y-105154361D01*
X35619066Y-105059123D01*
X35619066Y-105011504D01*
X35666685Y-104916266D01*
X35761923Y-104868647D01*
X35904780Y-104868647D01*
X36000019Y-104821028D01*
X36047638Y-104725790D01*
X36047638Y-104678171D01*
X36000019Y-104582933D01*
X35904780Y-104535314D01*
X35761923Y-104535314D01*
X35666685Y-104582933D01*
X35285733Y-104535314D02*
X35047638Y-105201980D01*
X34809542Y-104535314D02*
X35047638Y-105201980D01*
X35142876Y-105440076D01*
X35190495Y-105487695D01*
X35285733Y-105535314D01*
M02*
