%TF.GenerationSoftware,KiCad,Pcbnew,(6.0.7)*%
%TF.CreationDate,2022-12-21T02:17:17+00:00*%
%TF.ProjectId,CPC464-2MINIDOCK,43504334-3634-42d3-924d-494e49444f43,rev?*%
%TF.SameCoordinates,Original*%
%TF.FileFunction,Soldermask,Top*%
%TF.FilePolarity,Negative*%
%FSLAX46Y46*%
G04 Gerber Fmt 4.6, Leading zero omitted, Abs format (unit mm)*
G04 Created by KiCad (PCBNEW (6.0.7)) date 2022-12-21 02:17:17*
%MOMM*%
%LPD*%
G01*
G04 APERTURE LIST*
G04 Aperture macros list*
%AMRoundRect*
0 Rectangle with rounded corners*
0 $1 Rounding radius*
0 $2 $3 $4 $5 $6 $7 $8 $9 X,Y pos of 4 corners*
0 Add a 4 corners polygon primitive as box body*
4,1,4,$2,$3,$4,$5,$6,$7,$8,$9,$2,$3,0*
0 Add four circle primitives for the rounded corners*
1,1,$1+$1,$2,$3*
1,1,$1+$1,$4,$5*
1,1,$1+$1,$6,$7*
1,1,$1+$1,$8,$9*
0 Add four rect primitives between the rounded corners*
20,1,$1+$1,$2,$3,$4,$5,0*
20,1,$1+$1,$4,$5,$6,$7,0*
20,1,$1+$1,$6,$7,$8,$9,0*
20,1,$1+$1,$8,$9,$2,$3,0*%
G04 Aperture macros list end*
%ADD10R,3.500000X3.500000*%
%ADD11RoundRect,0.750000X-1.000000X0.750000X-1.000000X-0.750000X1.000000X-0.750000X1.000000X0.750000X0*%
%ADD12RoundRect,0.875000X-0.875000X0.875000X-0.875000X-0.875000X0.875000X-0.875000X0.875000X0.875000X0*%
%ADD13R,1.600000X1.600000*%
%ADD14C,1.600000*%
%ADD15RoundRect,0.250000X0.600000X-0.600000X0.600000X0.600000X-0.600000X0.600000X-0.600000X-0.600000X0*%
%ADD16C,1.700000*%
%ADD17RoundRect,0.250000X-0.262500X-0.450000X0.262500X-0.450000X0.262500X0.450000X-0.262500X0.450000X0*%
%ADD18RoundRect,0.250000X-0.375000X-0.625000X0.375000X-0.625000X0.375000X0.625000X-0.375000X0.625000X0*%
%ADD19C,4.500000*%
G04 APERTURE END LIST*
D10*
%TO.C,J1*%
X121988500Y-35438600D03*
D11*
X121988500Y-29438600D03*
D12*
X117288500Y-32438600D03*
%TD*%
D13*
%TO.C,C692*%
X119594600Y-102819200D03*
D14*
X122094600Y-102819200D03*
%TD*%
D13*
%TO.C,C691*%
X119594600Y-78333600D03*
D14*
X122094600Y-78333600D03*
%TD*%
D13*
%TO.C,C690*%
X119594600Y-56184800D03*
D14*
X122094600Y-56184800D03*
%TD*%
D15*
%TO.C,CE696*%
X47498000Y-94000000D03*
D16*
X47498000Y-91460000D03*
X50038000Y-94000000D03*
X50038000Y-91460000D03*
X52578000Y-94000000D03*
X52578000Y-91460000D03*
X55118000Y-94000000D03*
X55118000Y-91460000D03*
X57658000Y-94000000D03*
X57658000Y-91460000D03*
X60198000Y-94000000D03*
X60198000Y-91460000D03*
X62738000Y-94000000D03*
X62738000Y-91460000D03*
X65278000Y-94000000D03*
X65278000Y-91460000D03*
X67818000Y-94000000D03*
X67818000Y-91460000D03*
X70358000Y-94000000D03*
X70358000Y-91460000D03*
X72898000Y-94000000D03*
X72898000Y-91460000D03*
X75438000Y-94000000D03*
X75438000Y-91460000D03*
X77978000Y-94000000D03*
X77978000Y-91460000D03*
X80518000Y-94000000D03*
X80518000Y-91460000D03*
X83058000Y-94000000D03*
X83058000Y-91460000D03*
X85598000Y-94000000D03*
X85598000Y-91460000D03*
X88138000Y-94000000D03*
X88138000Y-91460000D03*
X90678000Y-94000000D03*
X90678000Y-91460000D03*
X93218000Y-94000000D03*
X93218000Y-91460000D03*
X95758000Y-94000000D03*
X95758000Y-91460000D03*
X98298000Y-94000000D03*
X98298000Y-91460000D03*
X100838000Y-94000000D03*
X100838000Y-91460000D03*
X103378000Y-94000000D03*
X103378000Y-91460000D03*
X105918000Y-94000000D03*
X105918000Y-91460000D03*
X108458000Y-94000000D03*
X108458000Y-91460000D03*
%TD*%
D15*
%TO.C,CE695*%
X47523400Y-84460000D03*
D16*
X47523400Y-87000000D03*
X50063400Y-84460000D03*
X50063400Y-87000000D03*
X52603400Y-84460000D03*
X52603400Y-87000000D03*
X55143400Y-84460000D03*
X55143400Y-87000000D03*
X57683400Y-84460000D03*
X57683400Y-87000000D03*
X60223400Y-84460000D03*
X60223400Y-87000000D03*
X62763400Y-84460000D03*
X62763400Y-87000000D03*
X65303400Y-84460000D03*
X65303400Y-87000000D03*
X67843400Y-84460000D03*
X67843400Y-87000000D03*
X70383400Y-84460000D03*
X70383400Y-87000000D03*
X72923400Y-84460000D03*
X72923400Y-87000000D03*
X75463400Y-84460000D03*
X75463400Y-87000000D03*
X78003400Y-84460000D03*
X78003400Y-87000000D03*
X80543400Y-84460000D03*
X80543400Y-87000000D03*
X83083400Y-84460000D03*
X83083400Y-87000000D03*
X85623400Y-84460000D03*
X85623400Y-87000000D03*
X88163400Y-84460000D03*
X88163400Y-87000000D03*
X90703400Y-84460000D03*
X90703400Y-87000000D03*
X93243400Y-84460000D03*
X93243400Y-87000000D03*
X95783400Y-84460000D03*
X95783400Y-87000000D03*
X98323400Y-84460000D03*
X98323400Y-87000000D03*
X100863400Y-84460000D03*
X100863400Y-87000000D03*
X103403400Y-84460000D03*
X103403400Y-87000000D03*
X105943400Y-84460000D03*
X105943400Y-87000000D03*
X108483400Y-84460000D03*
X108483400Y-87000000D03*
%TD*%
%TO.C,CE694*%
X108585000Y-69460000D03*
X108585000Y-72000000D03*
X106045000Y-69460000D03*
X106045000Y-72000000D03*
X103505000Y-69460000D03*
X103505000Y-72000000D03*
X100965000Y-69460000D03*
X100965000Y-72000000D03*
X98425000Y-69460000D03*
X98425000Y-72000000D03*
X95885000Y-69460000D03*
X95885000Y-72000000D03*
X93345000Y-69460000D03*
X93345000Y-72000000D03*
X90805000Y-69460000D03*
X90805000Y-72000000D03*
X88265000Y-69460000D03*
X88265000Y-72000000D03*
X85725000Y-69460000D03*
X85725000Y-72000000D03*
X83185000Y-69460000D03*
X83185000Y-72000000D03*
X80645000Y-69460000D03*
X80645000Y-72000000D03*
X78105000Y-69460000D03*
X78105000Y-72000000D03*
X75565000Y-69460000D03*
X75565000Y-72000000D03*
X73025000Y-69460000D03*
X73025000Y-72000000D03*
X70485000Y-69460000D03*
X70485000Y-72000000D03*
X67945000Y-69460000D03*
X67945000Y-72000000D03*
X65405000Y-69460000D03*
X65405000Y-72000000D03*
X62865000Y-69460000D03*
X62865000Y-72000000D03*
X60325000Y-69460000D03*
X60325000Y-72000000D03*
X57785000Y-69460000D03*
X57785000Y-72000000D03*
X55245000Y-69460000D03*
X55245000Y-72000000D03*
X52705000Y-69460000D03*
X52705000Y-72000000D03*
X50165000Y-69460000D03*
X50165000Y-72000000D03*
X47625000Y-69460000D03*
D15*
X47625000Y-72000000D03*
%TD*%
%TO.C,CE693*%
X47625000Y-62460000D03*
D16*
X47625000Y-65000000D03*
X50165000Y-62460000D03*
X50165000Y-65000000D03*
X52705000Y-62460000D03*
X52705000Y-65000000D03*
X55245000Y-62460000D03*
X55245000Y-65000000D03*
X57785000Y-62460000D03*
X57785000Y-65000000D03*
X60325000Y-62460000D03*
X60325000Y-65000000D03*
X62865000Y-62460000D03*
X62865000Y-65000000D03*
X65405000Y-62460000D03*
X65405000Y-65000000D03*
X67945000Y-62460000D03*
X67945000Y-65000000D03*
X70485000Y-62460000D03*
X70485000Y-65000000D03*
X73025000Y-62460000D03*
X73025000Y-65000000D03*
X75565000Y-62460000D03*
X75565000Y-65000000D03*
X78105000Y-62460000D03*
X78105000Y-65000000D03*
X80645000Y-62460000D03*
X80645000Y-65000000D03*
X83185000Y-62460000D03*
X83185000Y-65000000D03*
X85725000Y-62460000D03*
X85725000Y-65000000D03*
X88265000Y-62460000D03*
X88265000Y-65000000D03*
X90805000Y-62460000D03*
X90805000Y-65000000D03*
X93345000Y-62460000D03*
X93345000Y-65000000D03*
X95885000Y-62460000D03*
X95885000Y-65000000D03*
X98425000Y-62460000D03*
X98425000Y-65000000D03*
X100965000Y-62460000D03*
X100965000Y-65000000D03*
X103505000Y-62460000D03*
X103505000Y-65000000D03*
X106045000Y-62460000D03*
X106045000Y-65000000D03*
X108585000Y-62460000D03*
X108585000Y-65000000D03*
%TD*%
D15*
%TO.C,CE692*%
X47675800Y-50000000D03*
D16*
X47675800Y-47460000D03*
X50215800Y-50000000D03*
X50215800Y-47460000D03*
X52755800Y-50000000D03*
X52755800Y-47460000D03*
X55295800Y-50000000D03*
X55295800Y-47460000D03*
X57835800Y-50000000D03*
X57835800Y-47460000D03*
X60375800Y-50000000D03*
X60375800Y-47460000D03*
X62915800Y-50000000D03*
X62915800Y-47460000D03*
X65455800Y-50000000D03*
X65455800Y-47460000D03*
X67995800Y-50000000D03*
X67995800Y-47460000D03*
X70535800Y-50000000D03*
X70535800Y-47460000D03*
X73075800Y-50000000D03*
X73075800Y-47460000D03*
X75615800Y-50000000D03*
X75615800Y-47460000D03*
X78155800Y-50000000D03*
X78155800Y-47460000D03*
X80695800Y-50000000D03*
X80695800Y-47460000D03*
X83235800Y-50000000D03*
X83235800Y-47460000D03*
X85775800Y-50000000D03*
X85775800Y-47460000D03*
X88315800Y-50000000D03*
X88315800Y-47460000D03*
X90855800Y-50000000D03*
X90855800Y-47460000D03*
X93395800Y-50000000D03*
X93395800Y-47460000D03*
X95935800Y-50000000D03*
X95935800Y-47460000D03*
X98475800Y-50000000D03*
X98475800Y-47460000D03*
X101015800Y-50000000D03*
X101015800Y-47460000D03*
X103555800Y-50000000D03*
X103555800Y-47460000D03*
X106095800Y-50000000D03*
X106095800Y-47460000D03*
X108635800Y-50000000D03*
X108635800Y-47460000D03*
%TD*%
D15*
%TO.C,CE691*%
X47675800Y-39436700D03*
D16*
X47675800Y-36896700D03*
X50215800Y-39436700D03*
X50215800Y-36896700D03*
X52755800Y-39436700D03*
X52755800Y-36896700D03*
X55295800Y-39436700D03*
X55295800Y-36896700D03*
X57835800Y-39436700D03*
X57835800Y-36896700D03*
X60375800Y-39436700D03*
X60375800Y-36896700D03*
X62915800Y-39436700D03*
X62915800Y-36896700D03*
X65455800Y-39436700D03*
X65455800Y-36896700D03*
X67995800Y-39436700D03*
X67995800Y-36896700D03*
X70535800Y-39436700D03*
X70535800Y-36896700D03*
X73075800Y-39436700D03*
X73075800Y-36896700D03*
X75615800Y-39436700D03*
X75615800Y-36896700D03*
X78155800Y-39436700D03*
X78155800Y-36896700D03*
X80695800Y-39436700D03*
X80695800Y-36896700D03*
X83235800Y-39436700D03*
X83235800Y-36896700D03*
X85775800Y-39436700D03*
X85775800Y-36896700D03*
X88315800Y-39436700D03*
X88315800Y-36896700D03*
X90855800Y-39436700D03*
X90855800Y-36896700D03*
X93395800Y-39436700D03*
X93395800Y-36896700D03*
X95935800Y-39436700D03*
X95935800Y-36896700D03*
X98475800Y-39436700D03*
X98475800Y-36896700D03*
X101015800Y-39436700D03*
X101015800Y-36896700D03*
X103555800Y-39436700D03*
X103555800Y-36896700D03*
X106095800Y-39436700D03*
X106095800Y-36896700D03*
X108635800Y-39436700D03*
X108635800Y-36896700D03*
%TD*%
D15*
%TO.C,CE690*%
X47675800Y-27889200D03*
D16*
X47675800Y-25349200D03*
X50215800Y-27889200D03*
X50215800Y-25349200D03*
X52755800Y-27889200D03*
X52755800Y-25349200D03*
X55295800Y-27889200D03*
X55295800Y-25349200D03*
X57835800Y-27889200D03*
X57835800Y-25349200D03*
X60375800Y-27889200D03*
X60375800Y-25349200D03*
X62915800Y-27889200D03*
X62915800Y-25349200D03*
X65455800Y-27889200D03*
X65455800Y-25349200D03*
X67995800Y-27889200D03*
X67995800Y-25349200D03*
X70535800Y-27889200D03*
X70535800Y-25349200D03*
X73075800Y-27889200D03*
X73075800Y-25349200D03*
X75615800Y-27889200D03*
X75615800Y-25349200D03*
X78155800Y-27889200D03*
X78155800Y-25349200D03*
X80695800Y-27889200D03*
X80695800Y-25349200D03*
X83235800Y-27889200D03*
X83235800Y-25349200D03*
X85775800Y-27889200D03*
X85775800Y-25349200D03*
X88315800Y-27889200D03*
X88315800Y-25349200D03*
X90855800Y-27889200D03*
X90855800Y-25349200D03*
X93395800Y-27889200D03*
X93395800Y-25349200D03*
X95935800Y-27889200D03*
X95935800Y-25349200D03*
X98475800Y-27889200D03*
X98475800Y-25349200D03*
X101015800Y-27889200D03*
X101015800Y-25349200D03*
X103555800Y-27889200D03*
X103555800Y-25349200D03*
X106095800Y-27889200D03*
X106095800Y-25349200D03*
X108635800Y-27889200D03*
X108635800Y-25349200D03*
%TD*%
D17*
%TO.C,R690*%
X82428100Y-103767600D03*
X84253100Y-103767600D03*
%TD*%
D18*
%TO.C,D690*%
X75813000Y-103682800D03*
X78613000Y-103682800D03*
%TD*%
D19*
%TO.C,H7*%
X81706800Y-76779200D03*
%TD*%
%TO.C,H1*%
X38272800Y-25979200D03*
%TD*%
M02*
