%TF.GenerationSoftware,KiCad,Pcbnew,(6.0.7)*%
%TF.CreationDate,2022-12-21T02:17:17+00:00*%
%TF.ProjectId,CPC464-2MINIDOCK,43504334-3634-42d3-924d-494e49444f43,rev?*%
%TF.SameCoordinates,Original*%
%TF.FileFunction,Copper,L2,Bot*%
%TF.FilePolarity,Positive*%
%FSLAX46Y46*%
G04 Gerber Fmt 4.6, Leading zero omitted, Abs format (unit mm)*
G04 Created by KiCad (PCBNEW (6.0.7)) date 2022-12-21 02:17:17*
%MOMM*%
%LPD*%
G01*
G04 APERTURE LIST*
G04 Aperture macros list*
%AMRoundRect*
0 Rectangle with rounded corners*
0 $1 Rounding radius*
0 $2 $3 $4 $5 $6 $7 $8 $9 X,Y pos of 4 corners*
0 Add a 4 corners polygon primitive as box body*
4,1,4,$2,$3,$4,$5,$6,$7,$8,$9,$2,$3,0*
0 Add four circle primitives for the rounded corners*
1,1,$1+$1,$2,$3*
1,1,$1+$1,$4,$5*
1,1,$1+$1,$6,$7*
1,1,$1+$1,$8,$9*
0 Add four rect primitives between the rounded corners*
20,1,$1+$1,$2,$3,$4,$5,0*
20,1,$1+$1,$4,$5,$6,$7,0*
20,1,$1+$1,$6,$7,$8,$9,0*
20,1,$1+$1,$8,$9,$2,$3,0*%
G04 Aperture macros list end*
%TA.AperFunction,ComponentPad*%
%ADD10R,3.500000X3.500000*%
%TD*%
%TA.AperFunction,ComponentPad*%
%ADD11RoundRect,0.750000X-1.000000X0.750000X-1.000000X-0.750000X1.000000X-0.750000X1.000000X0.750000X0*%
%TD*%
%TA.AperFunction,ComponentPad*%
%ADD12RoundRect,0.875000X-0.875000X0.875000X-0.875000X-0.875000X0.875000X-0.875000X0.875000X0.875000X0*%
%TD*%
%TA.AperFunction,ComponentPad*%
%ADD13R,1.600000X1.600000*%
%TD*%
%TA.AperFunction,ComponentPad*%
%ADD14C,1.600000*%
%TD*%
%TA.AperFunction,ComponentPad*%
%ADD15RoundRect,0.250000X0.600000X-0.600000X0.600000X0.600000X-0.600000X0.600000X-0.600000X-0.600000X0*%
%TD*%
%TA.AperFunction,ComponentPad*%
%ADD16C,1.700000*%
%TD*%
%TA.AperFunction,ComponentPad*%
%ADD17C,4.500000*%
%TD*%
%TA.AperFunction,ViaPad*%
%ADD18C,0.800000*%
%TD*%
%TA.AperFunction,Conductor*%
%ADD19C,0.250000*%
%TD*%
%TA.AperFunction,Conductor*%
%ADD20C,2.160000*%
%TD*%
%TA.AperFunction,Conductor*%
%ADD21C,1.620000*%
%TD*%
G04 APERTURE END LIST*
D10*
%TO.P,J1,1*%
%TO.N,+5V*%
X121988500Y-35438600D03*
D11*
%TO.P,J1,2*%
%TO.N,GND*%
X121988500Y-29438600D03*
D12*
%TO.P,J1,3*%
X117288500Y-32438600D03*
%TD*%
D13*
%TO.P,C692,1*%
%TO.N,+5V*%
X119594600Y-102819200D03*
D14*
%TO.P,C692,2*%
%TO.N,GND*%
X122094600Y-102819200D03*
%TD*%
D13*
%TO.P,C691,1*%
%TO.N,+5V*%
X119594600Y-78333600D03*
D14*
%TO.P,C691,2*%
%TO.N,GND*%
X122094600Y-78333600D03*
%TD*%
D13*
%TO.P,C690,1*%
%TO.N,+5V*%
X119594600Y-56184800D03*
D14*
%TO.P,C690,2*%
%TO.N,GND*%
X122094600Y-56184800D03*
%TD*%
D15*
%TO.P,CE696,1,Pin_1*%
%TO.N,SOUND*%
X47498000Y-94000000D03*
D16*
%TO.P,CE696,2,Pin_2*%
%TO.N,GND*%
X47498000Y-91460000D03*
%TO.P,CE696,3,Pin_3*%
%TO.N,/A15*%
X50038000Y-94000000D03*
%TO.P,CE696,4,Pin_4*%
%TO.N,/A14*%
X50038000Y-91460000D03*
%TO.P,CE696,5,Pin_5*%
%TO.N,/A13*%
X52578000Y-94000000D03*
%TO.P,CE696,6,Pin_6*%
%TO.N,/A12*%
X52578000Y-91460000D03*
%TO.P,CE696,7,Pin_7*%
%TO.N,/A11*%
X55118000Y-94000000D03*
%TO.P,CE696,8,Pin_8*%
%TO.N,/A10*%
X55118000Y-91460000D03*
%TO.P,CE696,9,Pin_9*%
%TO.N,/A9*%
X57658000Y-94000000D03*
%TO.P,CE696,10,Pin_10*%
%TO.N,/A8*%
X57658000Y-91460000D03*
%TO.P,CE696,11,Pin_11*%
%TO.N,/A7*%
X60198000Y-94000000D03*
%TO.P,CE696,12,Pin_12*%
%TO.N,/A6*%
X60198000Y-91460000D03*
%TO.P,CE696,13,Pin_13*%
%TO.N,/A5*%
X62738000Y-94000000D03*
%TO.P,CE696,14,Pin_14*%
%TO.N,/A4*%
X62738000Y-91460000D03*
%TO.P,CE696,15,Pin_15*%
%TO.N,/A3*%
X65278000Y-94000000D03*
%TO.P,CE696,16,Pin_16*%
%TO.N,/A2*%
X65278000Y-91460000D03*
%TO.P,CE696,17,Pin_17*%
%TO.N,/A1*%
X67818000Y-94000000D03*
%TO.P,CE696,18,Pin_18*%
%TO.N,/A0*%
X67818000Y-91460000D03*
%TO.P,CE696,19,Pin_19*%
%TO.N,/D7*%
X70358000Y-94000000D03*
%TO.P,CE696,20,Pin_20*%
%TO.N,/D6*%
X70358000Y-91460000D03*
%TO.P,CE696,21,Pin_21*%
%TO.N,/D5*%
X72898000Y-94000000D03*
%TO.P,CE696,22,Pin_22*%
%TO.N,/D4*%
X72898000Y-91460000D03*
%TO.P,CE696,23,Pin_23*%
%TO.N,/D3*%
X75438000Y-94000000D03*
%TO.P,CE696,24,Pin_24*%
%TO.N,/D2*%
X75438000Y-91460000D03*
%TO.P,CE696,25,Pin_25*%
%TO.N,/D1*%
X77978000Y-94000000D03*
%TO.P,CE696,26,Pin_26*%
%TO.N,/D0*%
X77978000Y-91460000D03*
%TO.P,CE696,27,Pin_27*%
%TO.N,+5V*%
X80518000Y-94000000D03*
%TO.P,CE696,28,Pin_28*%
%TO.N,MREQ*%
X80518000Y-91460000D03*
%TO.P,CE696,29,Pin_29*%
%TO.N,M1*%
X83058000Y-94000000D03*
%TO.P,CE696,30,Pin_30*%
%TO.N,RFSH*%
X83058000Y-91460000D03*
%TO.P,CE696,31,Pin_31*%
%TO.N,IORQ*%
X85598000Y-94000000D03*
%TO.P,CE696,32,Pin_32*%
%TO.N,RD*%
X85598000Y-91460000D03*
%TO.P,CE696,33,Pin_33*%
%TO.N,WR*%
X88138000Y-94000000D03*
%TO.P,CE696,34,Pin_34*%
%TO.N,HALT*%
X88138000Y-91460000D03*
%TO.P,CE696,35,Pin_35*%
%TO.N,INT*%
X90678000Y-94000000D03*
%TO.P,CE696,36,Pin_36*%
%TO.N,NMI*%
X90678000Y-91460000D03*
%TO.P,CE696,37,Pin_37*%
%TO.N,BUSRQ*%
X93218000Y-94000000D03*
%TO.P,CE696,38,Pin_38*%
%TO.N,BUSAK*%
X93218000Y-91460000D03*
%TO.P,CE696,39,Pin_39*%
%TO.N,READY*%
X95758000Y-94000000D03*
%TO.P,CE696,40,Pin_40*%
%TO.N,BUS*%
X95758000Y-91460000D03*
%TO.P,CE696,41,Pin_41*%
%TO.N,RESET*%
X98298000Y-94000000D03*
%TO.P,CE696,42,Pin_42*%
%TO.N,ROMEN*%
X98298000Y-91460000D03*
%TO.P,CE696,43,Pin_43*%
%TO.N,ROMDIS*%
X100838000Y-94000000D03*
%TO.P,CE696,44,Pin_44*%
%TO.N,RAMRD*%
X100838000Y-91460000D03*
%TO.P,CE696,45,Pin_45*%
%TO.N,RAMDIS*%
X103378000Y-94000000D03*
%TO.P,CE696,46,Pin_46*%
%TO.N,CURSOR*%
X103378000Y-91460000D03*
%TO.P,CE696,47,Pin_47*%
%TO.N,LPEN*%
X105918000Y-94000000D03*
%TO.P,CE696,48,Pin_48*%
%TO.N,EXP*%
X105918000Y-91460000D03*
%TO.P,CE696,49,Pin_49*%
%TO.N,GND*%
X108458000Y-94000000D03*
%TO.P,CE696,50,Pin_50*%
%TO.N,A100*%
X108458000Y-91460000D03*
%TD*%
D15*
%TO.P,CE695,1,Pin_1*%
%TO.N,SOUND*%
X47523400Y-84460000D03*
D16*
%TO.P,CE695,2,Pin_2*%
%TO.N,GND*%
X47523400Y-87000000D03*
%TO.P,CE695,3,Pin_3*%
%TO.N,/A15*%
X50063400Y-84460000D03*
%TO.P,CE695,4,Pin_4*%
%TO.N,/A14*%
X50063400Y-87000000D03*
%TO.P,CE695,5,Pin_5*%
%TO.N,/A13*%
X52603400Y-84460000D03*
%TO.P,CE695,6,Pin_6*%
%TO.N,/A12*%
X52603400Y-87000000D03*
%TO.P,CE695,7,Pin_7*%
%TO.N,/A11*%
X55143400Y-84460000D03*
%TO.P,CE695,8,Pin_8*%
%TO.N,/A10*%
X55143400Y-87000000D03*
%TO.P,CE695,9,Pin_9*%
%TO.N,/A9*%
X57683400Y-84460000D03*
%TO.P,CE695,10,Pin_10*%
%TO.N,/A8*%
X57683400Y-87000000D03*
%TO.P,CE695,11,Pin_11*%
%TO.N,/A7*%
X60223400Y-84460000D03*
%TO.P,CE695,12,Pin_12*%
%TO.N,/A6*%
X60223400Y-87000000D03*
%TO.P,CE695,13,Pin_13*%
%TO.N,/A5*%
X62763400Y-84460000D03*
%TO.P,CE695,14,Pin_14*%
%TO.N,/A4*%
X62763400Y-87000000D03*
%TO.P,CE695,15,Pin_15*%
%TO.N,/A3*%
X65303400Y-84460000D03*
%TO.P,CE695,16,Pin_16*%
%TO.N,/A2*%
X65303400Y-87000000D03*
%TO.P,CE695,17,Pin_17*%
%TO.N,/A1*%
X67843400Y-84460000D03*
%TO.P,CE695,18,Pin_18*%
%TO.N,/A0*%
X67843400Y-87000000D03*
%TO.P,CE695,19,Pin_19*%
%TO.N,/D7*%
X70383400Y-84460000D03*
%TO.P,CE695,20,Pin_20*%
%TO.N,/D6*%
X70383400Y-87000000D03*
%TO.P,CE695,21,Pin_21*%
%TO.N,/D5*%
X72923400Y-84460000D03*
%TO.P,CE695,22,Pin_22*%
%TO.N,/D4*%
X72923400Y-87000000D03*
%TO.P,CE695,23,Pin_23*%
%TO.N,/D3*%
X75463400Y-84460000D03*
%TO.P,CE695,24,Pin_24*%
%TO.N,/D2*%
X75463400Y-87000000D03*
%TO.P,CE695,25,Pin_25*%
%TO.N,/D1*%
X78003400Y-84460000D03*
%TO.P,CE695,26,Pin_26*%
%TO.N,/D0*%
X78003400Y-87000000D03*
%TO.P,CE695,27,Pin_27*%
%TO.N,+5V*%
X80543400Y-84460000D03*
%TO.P,CE695,28,Pin_28*%
%TO.N,MREQ*%
X80543400Y-87000000D03*
%TO.P,CE695,29,Pin_29*%
%TO.N,M1*%
X83083400Y-84460000D03*
%TO.P,CE695,30,Pin_30*%
%TO.N,RFSH*%
X83083400Y-87000000D03*
%TO.P,CE695,31,Pin_31*%
%TO.N,IORQ*%
X85623400Y-84460000D03*
%TO.P,CE695,32,Pin_32*%
%TO.N,RD*%
X85623400Y-87000000D03*
%TO.P,CE695,33,Pin_33*%
%TO.N,WR*%
X88163400Y-84460000D03*
%TO.P,CE695,34,Pin_34*%
%TO.N,HALT*%
X88163400Y-87000000D03*
%TO.P,CE695,35,Pin_35*%
%TO.N,INT*%
X90703400Y-84460000D03*
%TO.P,CE695,36,Pin_36*%
%TO.N,NMI*%
X90703400Y-87000000D03*
%TO.P,CE695,37,Pin_37*%
%TO.N,BUSRQ*%
X93243400Y-84460000D03*
%TO.P,CE695,38,Pin_38*%
%TO.N,BUSAK*%
X93243400Y-87000000D03*
%TO.P,CE695,39,Pin_39*%
%TO.N,READY*%
X95783400Y-84460000D03*
%TO.P,CE695,40,Pin_40*%
%TO.N,BUS*%
X95783400Y-87000000D03*
%TO.P,CE695,41,Pin_41*%
%TO.N,RESET*%
X98323400Y-84460000D03*
%TO.P,CE695,42,Pin_42*%
%TO.N,ROMEN*%
X98323400Y-87000000D03*
%TO.P,CE695,43,Pin_43*%
%TO.N,ROMDIS*%
X100863400Y-84460000D03*
%TO.P,CE695,44,Pin_44*%
%TO.N,RAMRD*%
X100863400Y-87000000D03*
%TO.P,CE695,45,Pin_45*%
%TO.N,RAMDIS*%
X103403400Y-84460000D03*
%TO.P,CE695,46,Pin_46*%
%TO.N,CURSOR*%
X103403400Y-87000000D03*
%TO.P,CE695,47,Pin_47*%
%TO.N,LPEN*%
X105943400Y-84460000D03*
%TO.P,CE695,48,Pin_48*%
%TO.N,EXP*%
X105943400Y-87000000D03*
%TO.P,CE695,49,Pin_49*%
%TO.N,GND*%
X108483400Y-84460000D03*
%TO.P,CE695,50,Pin_50*%
%TO.N,A100*%
X108483400Y-87000000D03*
%TD*%
%TO.P,CE694,50,Pin_50*%
%TO.N,A100*%
X108585000Y-69460000D03*
%TO.P,CE694,49,Pin_49*%
%TO.N,GND*%
X108585000Y-72000000D03*
%TO.P,CE694,48,Pin_48*%
%TO.N,EXP*%
X106045000Y-69460000D03*
%TO.P,CE694,47,Pin_47*%
%TO.N,LPEN*%
X106045000Y-72000000D03*
%TO.P,CE694,46,Pin_46*%
%TO.N,CURSOR*%
X103505000Y-69460000D03*
%TO.P,CE694,45,Pin_45*%
%TO.N,RAMDIS*%
X103505000Y-72000000D03*
%TO.P,CE694,44,Pin_44*%
%TO.N,RAMRD*%
X100965000Y-69460000D03*
%TO.P,CE694,43,Pin_43*%
%TO.N,ROMDIS*%
X100965000Y-72000000D03*
%TO.P,CE694,42,Pin_42*%
%TO.N,ROMEN*%
X98425000Y-69460000D03*
%TO.P,CE694,41,Pin_41*%
%TO.N,RESET*%
X98425000Y-72000000D03*
%TO.P,CE694,40,Pin_40*%
%TO.N,BUS*%
X95885000Y-69460000D03*
%TO.P,CE694,39,Pin_39*%
%TO.N,READY*%
X95885000Y-72000000D03*
%TO.P,CE694,38,Pin_38*%
%TO.N,BUSAK*%
X93345000Y-69460000D03*
%TO.P,CE694,37,Pin_37*%
%TO.N,BUSRQ*%
X93345000Y-72000000D03*
%TO.P,CE694,36,Pin_36*%
%TO.N,NMI*%
X90805000Y-69460000D03*
%TO.P,CE694,35,Pin_35*%
%TO.N,INT*%
X90805000Y-72000000D03*
%TO.P,CE694,34,Pin_34*%
%TO.N,HALT*%
X88265000Y-69460000D03*
%TO.P,CE694,33,Pin_33*%
%TO.N,WR*%
X88265000Y-72000000D03*
%TO.P,CE694,32,Pin_32*%
%TO.N,RD*%
X85725000Y-69460000D03*
%TO.P,CE694,31,Pin_31*%
%TO.N,IORQ*%
X85725000Y-72000000D03*
%TO.P,CE694,30,Pin_30*%
%TO.N,RFSH*%
X83185000Y-69460000D03*
%TO.P,CE694,29,Pin_29*%
%TO.N,M1*%
X83185000Y-72000000D03*
%TO.P,CE694,28,Pin_28*%
%TO.N,MREQ*%
X80645000Y-69460000D03*
%TO.P,CE694,27,Pin_27*%
%TO.N,+5V*%
X80645000Y-72000000D03*
%TO.P,CE694,26,Pin_26*%
%TO.N,/D0*%
X78105000Y-69460000D03*
%TO.P,CE694,25,Pin_25*%
%TO.N,/D1*%
X78105000Y-72000000D03*
%TO.P,CE694,24,Pin_24*%
%TO.N,/D2*%
X75565000Y-69460000D03*
%TO.P,CE694,23,Pin_23*%
%TO.N,/D3*%
X75565000Y-72000000D03*
%TO.P,CE694,22,Pin_22*%
%TO.N,/D4*%
X73025000Y-69460000D03*
%TO.P,CE694,21,Pin_21*%
%TO.N,/D5*%
X73025000Y-72000000D03*
%TO.P,CE694,20,Pin_20*%
%TO.N,/D6*%
X70485000Y-69460000D03*
%TO.P,CE694,19,Pin_19*%
%TO.N,/D7*%
X70485000Y-72000000D03*
%TO.P,CE694,18,Pin_18*%
%TO.N,/A0*%
X67945000Y-69460000D03*
%TO.P,CE694,17,Pin_17*%
%TO.N,/A1*%
X67945000Y-72000000D03*
%TO.P,CE694,16,Pin_16*%
%TO.N,/A2*%
X65405000Y-69460000D03*
%TO.P,CE694,15,Pin_15*%
%TO.N,/A3*%
X65405000Y-72000000D03*
%TO.P,CE694,14,Pin_14*%
%TO.N,/A4*%
X62865000Y-69460000D03*
%TO.P,CE694,13,Pin_13*%
%TO.N,/A5*%
X62865000Y-72000000D03*
%TO.P,CE694,12,Pin_12*%
%TO.N,/A6*%
X60325000Y-69460000D03*
%TO.P,CE694,11,Pin_11*%
%TO.N,/A7*%
X60325000Y-72000000D03*
%TO.P,CE694,10,Pin_10*%
%TO.N,/A8*%
X57785000Y-69460000D03*
%TO.P,CE694,9,Pin_9*%
%TO.N,/A9*%
X57785000Y-72000000D03*
%TO.P,CE694,8,Pin_8*%
%TO.N,/A10*%
X55245000Y-69460000D03*
%TO.P,CE694,7,Pin_7*%
%TO.N,/A11*%
X55245000Y-72000000D03*
%TO.P,CE694,6,Pin_6*%
%TO.N,/A12*%
X52705000Y-69460000D03*
%TO.P,CE694,5,Pin_5*%
%TO.N,/A13*%
X52705000Y-72000000D03*
%TO.P,CE694,4,Pin_4*%
%TO.N,/A14*%
X50165000Y-69460000D03*
%TO.P,CE694,3,Pin_3*%
%TO.N,/A15*%
X50165000Y-72000000D03*
%TO.P,CE694,2,Pin_2*%
%TO.N,GND*%
X47625000Y-69460000D03*
D15*
%TO.P,CE694,1,Pin_1*%
%TO.N,SOUND*%
X47625000Y-72000000D03*
%TD*%
%TO.P,CE693,1,Pin_1*%
%TO.N,SOUND*%
X47625000Y-62460000D03*
D16*
%TO.P,CE693,2,Pin_2*%
%TO.N,GND*%
X47625000Y-65000000D03*
%TO.P,CE693,3,Pin_3*%
%TO.N,/A15*%
X50165000Y-62460000D03*
%TO.P,CE693,4,Pin_4*%
%TO.N,/A14*%
X50165000Y-65000000D03*
%TO.P,CE693,5,Pin_5*%
%TO.N,/A13*%
X52705000Y-62460000D03*
%TO.P,CE693,6,Pin_6*%
%TO.N,/A12*%
X52705000Y-65000000D03*
%TO.P,CE693,7,Pin_7*%
%TO.N,/A11*%
X55245000Y-62460000D03*
%TO.P,CE693,8,Pin_8*%
%TO.N,/A10*%
X55245000Y-65000000D03*
%TO.P,CE693,9,Pin_9*%
%TO.N,/A9*%
X57785000Y-62460000D03*
%TO.P,CE693,10,Pin_10*%
%TO.N,/A8*%
X57785000Y-65000000D03*
%TO.P,CE693,11,Pin_11*%
%TO.N,/A7*%
X60325000Y-62460000D03*
%TO.P,CE693,12,Pin_12*%
%TO.N,/A6*%
X60325000Y-65000000D03*
%TO.P,CE693,13,Pin_13*%
%TO.N,/A5*%
X62865000Y-62460000D03*
%TO.P,CE693,14,Pin_14*%
%TO.N,/A4*%
X62865000Y-65000000D03*
%TO.P,CE693,15,Pin_15*%
%TO.N,/A3*%
X65405000Y-62460000D03*
%TO.P,CE693,16,Pin_16*%
%TO.N,/A2*%
X65405000Y-65000000D03*
%TO.P,CE693,17,Pin_17*%
%TO.N,/A1*%
X67945000Y-62460000D03*
%TO.P,CE693,18,Pin_18*%
%TO.N,/A0*%
X67945000Y-65000000D03*
%TO.P,CE693,19,Pin_19*%
%TO.N,/D7*%
X70485000Y-62460000D03*
%TO.P,CE693,20,Pin_20*%
%TO.N,/D6*%
X70485000Y-65000000D03*
%TO.P,CE693,21,Pin_21*%
%TO.N,/D5*%
X73025000Y-62460000D03*
%TO.P,CE693,22,Pin_22*%
%TO.N,/D4*%
X73025000Y-65000000D03*
%TO.P,CE693,23,Pin_23*%
%TO.N,/D3*%
X75565000Y-62460000D03*
%TO.P,CE693,24,Pin_24*%
%TO.N,/D2*%
X75565000Y-65000000D03*
%TO.P,CE693,25,Pin_25*%
%TO.N,/D1*%
X78105000Y-62460000D03*
%TO.P,CE693,26,Pin_26*%
%TO.N,/D0*%
X78105000Y-65000000D03*
%TO.P,CE693,27,Pin_27*%
%TO.N,+5V*%
X80645000Y-62460000D03*
%TO.P,CE693,28,Pin_28*%
%TO.N,MREQ*%
X80645000Y-65000000D03*
%TO.P,CE693,29,Pin_29*%
%TO.N,M1*%
X83185000Y-62460000D03*
%TO.P,CE693,30,Pin_30*%
%TO.N,RFSH*%
X83185000Y-65000000D03*
%TO.P,CE693,31,Pin_31*%
%TO.N,IORQ*%
X85725000Y-62460000D03*
%TO.P,CE693,32,Pin_32*%
%TO.N,RD*%
X85725000Y-65000000D03*
%TO.P,CE693,33,Pin_33*%
%TO.N,WR*%
X88265000Y-62460000D03*
%TO.P,CE693,34,Pin_34*%
%TO.N,HALT*%
X88265000Y-65000000D03*
%TO.P,CE693,35,Pin_35*%
%TO.N,INT*%
X90805000Y-62460000D03*
%TO.P,CE693,36,Pin_36*%
%TO.N,NMI*%
X90805000Y-65000000D03*
%TO.P,CE693,37,Pin_37*%
%TO.N,BUSRQ*%
X93345000Y-62460000D03*
%TO.P,CE693,38,Pin_38*%
%TO.N,BUSAK*%
X93345000Y-65000000D03*
%TO.P,CE693,39,Pin_39*%
%TO.N,READY*%
X95885000Y-62460000D03*
%TO.P,CE693,40,Pin_40*%
%TO.N,BUS*%
X95885000Y-65000000D03*
%TO.P,CE693,41,Pin_41*%
%TO.N,RESET*%
X98425000Y-62460000D03*
%TO.P,CE693,42,Pin_42*%
%TO.N,ROMEN*%
X98425000Y-65000000D03*
%TO.P,CE693,43,Pin_43*%
%TO.N,ROMDIS*%
X100965000Y-62460000D03*
%TO.P,CE693,44,Pin_44*%
%TO.N,RAMRD*%
X100965000Y-65000000D03*
%TO.P,CE693,45,Pin_45*%
%TO.N,RAMDIS*%
X103505000Y-62460000D03*
%TO.P,CE693,46,Pin_46*%
%TO.N,CURSOR*%
X103505000Y-65000000D03*
%TO.P,CE693,47,Pin_47*%
%TO.N,LPEN*%
X106045000Y-62460000D03*
%TO.P,CE693,48,Pin_48*%
%TO.N,EXP*%
X106045000Y-65000000D03*
%TO.P,CE693,49,Pin_49*%
%TO.N,GND*%
X108585000Y-62460000D03*
%TO.P,CE693,50,Pin_50*%
%TO.N,A100*%
X108585000Y-65000000D03*
%TD*%
D15*
%TO.P,CE692,1,Pin_1*%
%TO.N,SOUND*%
X47675800Y-50000000D03*
D16*
%TO.P,CE692,2,Pin_2*%
%TO.N,GND*%
X47675800Y-47460000D03*
%TO.P,CE692,3,Pin_3*%
%TO.N,/A15*%
X50215800Y-50000000D03*
%TO.P,CE692,4,Pin_4*%
%TO.N,/A14*%
X50215800Y-47460000D03*
%TO.P,CE692,5,Pin_5*%
%TO.N,/A13*%
X52755800Y-50000000D03*
%TO.P,CE692,6,Pin_6*%
%TO.N,/A12*%
X52755800Y-47460000D03*
%TO.P,CE692,7,Pin_7*%
%TO.N,/A11*%
X55295800Y-50000000D03*
%TO.P,CE692,8,Pin_8*%
%TO.N,/A10*%
X55295800Y-47460000D03*
%TO.P,CE692,9,Pin_9*%
%TO.N,/A9*%
X57835800Y-50000000D03*
%TO.P,CE692,10,Pin_10*%
%TO.N,/A8*%
X57835800Y-47460000D03*
%TO.P,CE692,11,Pin_11*%
%TO.N,/A7*%
X60375800Y-50000000D03*
%TO.P,CE692,12,Pin_12*%
%TO.N,/A6*%
X60375800Y-47460000D03*
%TO.P,CE692,13,Pin_13*%
%TO.N,/A5*%
X62915800Y-50000000D03*
%TO.P,CE692,14,Pin_14*%
%TO.N,/A4*%
X62915800Y-47460000D03*
%TO.P,CE692,15,Pin_15*%
%TO.N,/A3*%
X65455800Y-50000000D03*
%TO.P,CE692,16,Pin_16*%
%TO.N,/A2*%
X65455800Y-47460000D03*
%TO.P,CE692,17,Pin_17*%
%TO.N,/A1*%
X67995800Y-50000000D03*
%TO.P,CE692,18,Pin_18*%
%TO.N,/A0*%
X67995800Y-47460000D03*
%TO.P,CE692,19,Pin_19*%
%TO.N,/D7*%
X70535800Y-50000000D03*
%TO.P,CE692,20,Pin_20*%
%TO.N,/D6*%
X70535800Y-47460000D03*
%TO.P,CE692,21,Pin_21*%
%TO.N,/D5*%
X73075800Y-50000000D03*
%TO.P,CE692,22,Pin_22*%
%TO.N,/D4*%
X73075800Y-47460000D03*
%TO.P,CE692,23,Pin_23*%
%TO.N,/D3*%
X75615800Y-50000000D03*
%TO.P,CE692,24,Pin_24*%
%TO.N,/D2*%
X75615800Y-47460000D03*
%TO.P,CE692,25,Pin_25*%
%TO.N,/D1*%
X78155800Y-50000000D03*
%TO.P,CE692,26,Pin_26*%
%TO.N,/D0*%
X78155800Y-47460000D03*
%TO.P,CE692,27,Pin_27*%
%TO.N,+5V*%
X80695800Y-50000000D03*
%TO.P,CE692,28,Pin_28*%
%TO.N,MREQ*%
X80695800Y-47460000D03*
%TO.P,CE692,29,Pin_29*%
%TO.N,M1*%
X83235800Y-50000000D03*
%TO.P,CE692,30,Pin_30*%
%TO.N,RFSH*%
X83235800Y-47460000D03*
%TO.P,CE692,31,Pin_31*%
%TO.N,IORQ*%
X85775800Y-50000000D03*
%TO.P,CE692,32,Pin_32*%
%TO.N,RD*%
X85775800Y-47460000D03*
%TO.P,CE692,33,Pin_33*%
%TO.N,WR*%
X88315800Y-50000000D03*
%TO.P,CE692,34,Pin_34*%
%TO.N,HALT*%
X88315800Y-47460000D03*
%TO.P,CE692,35,Pin_35*%
%TO.N,INT*%
X90855800Y-50000000D03*
%TO.P,CE692,36,Pin_36*%
%TO.N,NMI*%
X90855800Y-47460000D03*
%TO.P,CE692,37,Pin_37*%
%TO.N,BUSRQ*%
X93395800Y-50000000D03*
%TO.P,CE692,38,Pin_38*%
%TO.N,BUSAK*%
X93395800Y-47460000D03*
%TO.P,CE692,39,Pin_39*%
%TO.N,READY*%
X95935800Y-50000000D03*
%TO.P,CE692,40,Pin_40*%
%TO.N,BUS*%
X95935800Y-47460000D03*
%TO.P,CE692,41,Pin_41*%
%TO.N,RESET*%
X98475800Y-50000000D03*
%TO.P,CE692,42,Pin_42*%
%TO.N,ROMEN*%
X98475800Y-47460000D03*
%TO.P,CE692,43,Pin_43*%
%TO.N,ROMDIS*%
X101015800Y-50000000D03*
%TO.P,CE692,44,Pin_44*%
%TO.N,RAMRD*%
X101015800Y-47460000D03*
%TO.P,CE692,45,Pin_45*%
%TO.N,RAMDIS*%
X103555800Y-50000000D03*
%TO.P,CE692,46,Pin_46*%
%TO.N,CURSOR*%
X103555800Y-47460000D03*
%TO.P,CE692,47,Pin_47*%
%TO.N,LPEN*%
X106095800Y-50000000D03*
%TO.P,CE692,48,Pin_48*%
%TO.N,EXP*%
X106095800Y-47460000D03*
%TO.P,CE692,49,Pin_49*%
%TO.N,GND*%
X108635800Y-50000000D03*
%TO.P,CE692,50,Pin_50*%
%TO.N,A100*%
X108635800Y-47460000D03*
%TD*%
D15*
%TO.P,CE691,1,Pin_1*%
%TO.N,SOUND*%
X47675800Y-39436700D03*
D16*
%TO.P,CE691,2,Pin_2*%
%TO.N,GND*%
X47675800Y-36896700D03*
%TO.P,CE691,3,Pin_3*%
%TO.N,/A15*%
X50215800Y-39436700D03*
%TO.P,CE691,4,Pin_4*%
%TO.N,/A14*%
X50215800Y-36896700D03*
%TO.P,CE691,5,Pin_5*%
%TO.N,/A13*%
X52755800Y-39436700D03*
%TO.P,CE691,6,Pin_6*%
%TO.N,/A12*%
X52755800Y-36896700D03*
%TO.P,CE691,7,Pin_7*%
%TO.N,/A11*%
X55295800Y-39436700D03*
%TO.P,CE691,8,Pin_8*%
%TO.N,/A10*%
X55295800Y-36896700D03*
%TO.P,CE691,9,Pin_9*%
%TO.N,/A9*%
X57835800Y-39436700D03*
%TO.P,CE691,10,Pin_10*%
%TO.N,/A8*%
X57835800Y-36896700D03*
%TO.P,CE691,11,Pin_11*%
%TO.N,/A7*%
X60375800Y-39436700D03*
%TO.P,CE691,12,Pin_12*%
%TO.N,/A6*%
X60375800Y-36896700D03*
%TO.P,CE691,13,Pin_13*%
%TO.N,/A5*%
X62915800Y-39436700D03*
%TO.P,CE691,14,Pin_14*%
%TO.N,/A4*%
X62915800Y-36896700D03*
%TO.P,CE691,15,Pin_15*%
%TO.N,/A3*%
X65455800Y-39436700D03*
%TO.P,CE691,16,Pin_16*%
%TO.N,/A2*%
X65455800Y-36896700D03*
%TO.P,CE691,17,Pin_17*%
%TO.N,/A1*%
X67995800Y-39436700D03*
%TO.P,CE691,18,Pin_18*%
%TO.N,/A0*%
X67995800Y-36896700D03*
%TO.P,CE691,19,Pin_19*%
%TO.N,/D7*%
X70535800Y-39436700D03*
%TO.P,CE691,20,Pin_20*%
%TO.N,/D6*%
X70535800Y-36896700D03*
%TO.P,CE691,21,Pin_21*%
%TO.N,/D5*%
X73075800Y-39436700D03*
%TO.P,CE691,22,Pin_22*%
%TO.N,/D4*%
X73075800Y-36896700D03*
%TO.P,CE691,23,Pin_23*%
%TO.N,/D3*%
X75615800Y-39436700D03*
%TO.P,CE691,24,Pin_24*%
%TO.N,/D2*%
X75615800Y-36896700D03*
%TO.P,CE691,25,Pin_25*%
%TO.N,/D1*%
X78155800Y-39436700D03*
%TO.P,CE691,26,Pin_26*%
%TO.N,/D0*%
X78155800Y-36896700D03*
%TO.P,CE691,27,Pin_27*%
%TO.N,+5V*%
X80695800Y-39436700D03*
%TO.P,CE691,28,Pin_28*%
%TO.N,MREQ*%
X80695800Y-36896700D03*
%TO.P,CE691,29,Pin_29*%
%TO.N,M1*%
X83235800Y-39436700D03*
%TO.P,CE691,30,Pin_30*%
%TO.N,RFSH*%
X83235800Y-36896700D03*
%TO.P,CE691,31,Pin_31*%
%TO.N,IORQ*%
X85775800Y-39436700D03*
%TO.P,CE691,32,Pin_32*%
%TO.N,RD*%
X85775800Y-36896700D03*
%TO.P,CE691,33,Pin_33*%
%TO.N,WR*%
X88315800Y-39436700D03*
%TO.P,CE691,34,Pin_34*%
%TO.N,HALT*%
X88315800Y-36896700D03*
%TO.P,CE691,35,Pin_35*%
%TO.N,INT*%
X90855800Y-39436700D03*
%TO.P,CE691,36,Pin_36*%
%TO.N,NMI*%
X90855800Y-36896700D03*
%TO.P,CE691,37,Pin_37*%
%TO.N,BUSRQ*%
X93395800Y-39436700D03*
%TO.P,CE691,38,Pin_38*%
%TO.N,BUSAK*%
X93395800Y-36896700D03*
%TO.P,CE691,39,Pin_39*%
%TO.N,READY*%
X95935800Y-39436700D03*
%TO.P,CE691,40,Pin_40*%
%TO.N,BUS*%
X95935800Y-36896700D03*
%TO.P,CE691,41,Pin_41*%
%TO.N,RESET*%
X98475800Y-39436700D03*
%TO.P,CE691,42,Pin_42*%
%TO.N,ROMEN*%
X98475800Y-36896700D03*
%TO.P,CE691,43,Pin_43*%
%TO.N,ROMDIS*%
X101015800Y-39436700D03*
%TO.P,CE691,44,Pin_44*%
%TO.N,RAMRD*%
X101015800Y-36896700D03*
%TO.P,CE691,45,Pin_45*%
%TO.N,RAMDIS*%
X103555800Y-39436700D03*
%TO.P,CE691,46,Pin_46*%
%TO.N,CURSOR*%
X103555800Y-36896700D03*
%TO.P,CE691,47,Pin_47*%
%TO.N,LPEN*%
X106095800Y-39436700D03*
%TO.P,CE691,48,Pin_48*%
%TO.N,EXP*%
X106095800Y-36896700D03*
%TO.P,CE691,49,Pin_49*%
%TO.N,GND*%
X108635800Y-39436700D03*
%TO.P,CE691,50,Pin_50*%
%TO.N,A100*%
X108635800Y-36896700D03*
%TD*%
D15*
%TO.P,CE690,1,Pin_1*%
%TO.N,SOUND*%
X47675800Y-27889200D03*
D16*
%TO.P,CE690,2,Pin_2*%
%TO.N,GND*%
X47675800Y-25349200D03*
%TO.P,CE690,3,Pin_3*%
%TO.N,/A15*%
X50215800Y-27889200D03*
%TO.P,CE690,4,Pin_4*%
%TO.N,/A14*%
X50215800Y-25349200D03*
%TO.P,CE690,5,Pin_5*%
%TO.N,/A13*%
X52755800Y-27889200D03*
%TO.P,CE690,6,Pin_6*%
%TO.N,/A12*%
X52755800Y-25349200D03*
%TO.P,CE690,7,Pin_7*%
%TO.N,/A11*%
X55295800Y-27889200D03*
%TO.P,CE690,8,Pin_8*%
%TO.N,/A10*%
X55295800Y-25349200D03*
%TO.P,CE690,9,Pin_9*%
%TO.N,/A9*%
X57835800Y-27889200D03*
%TO.P,CE690,10,Pin_10*%
%TO.N,/A8*%
X57835800Y-25349200D03*
%TO.P,CE690,11,Pin_11*%
%TO.N,/A7*%
X60375800Y-27889200D03*
%TO.P,CE690,12,Pin_12*%
%TO.N,/A6*%
X60375800Y-25349200D03*
%TO.P,CE690,13,Pin_13*%
%TO.N,/A5*%
X62915800Y-27889200D03*
%TO.P,CE690,14,Pin_14*%
%TO.N,/A4*%
X62915800Y-25349200D03*
%TO.P,CE690,15,Pin_15*%
%TO.N,/A3*%
X65455800Y-27889200D03*
%TO.P,CE690,16,Pin_16*%
%TO.N,/A2*%
X65455800Y-25349200D03*
%TO.P,CE690,17,Pin_17*%
%TO.N,/A1*%
X67995800Y-27889200D03*
%TO.P,CE690,18,Pin_18*%
%TO.N,/A0*%
X67995800Y-25349200D03*
%TO.P,CE690,19,Pin_19*%
%TO.N,/D7*%
X70535800Y-27889200D03*
%TO.P,CE690,20,Pin_20*%
%TO.N,/D6*%
X70535800Y-25349200D03*
%TO.P,CE690,21,Pin_21*%
%TO.N,/D5*%
X73075800Y-27889200D03*
%TO.P,CE690,22,Pin_22*%
%TO.N,/D4*%
X73075800Y-25349200D03*
%TO.P,CE690,23,Pin_23*%
%TO.N,/D3*%
X75615800Y-27889200D03*
%TO.P,CE690,24,Pin_24*%
%TO.N,/D2*%
X75615800Y-25349200D03*
%TO.P,CE690,25,Pin_25*%
%TO.N,/D1*%
X78155800Y-27889200D03*
%TO.P,CE690,26,Pin_26*%
%TO.N,/D0*%
X78155800Y-25349200D03*
%TO.P,CE690,27,Pin_27*%
%TO.N,+5V*%
X80695800Y-27889200D03*
%TO.P,CE690,28,Pin_28*%
%TO.N,MREQ*%
X80695800Y-25349200D03*
%TO.P,CE690,29,Pin_29*%
%TO.N,M1*%
X83235800Y-27889200D03*
%TO.P,CE690,30,Pin_30*%
%TO.N,RFSH*%
X83235800Y-25349200D03*
%TO.P,CE690,31,Pin_31*%
%TO.N,IORQ*%
X85775800Y-27889200D03*
%TO.P,CE690,32,Pin_32*%
%TO.N,RD*%
X85775800Y-25349200D03*
%TO.P,CE690,33,Pin_33*%
%TO.N,WR*%
X88315800Y-27889200D03*
%TO.P,CE690,34,Pin_34*%
%TO.N,HALT*%
X88315800Y-25349200D03*
%TO.P,CE690,35,Pin_35*%
%TO.N,INT*%
X90855800Y-27889200D03*
%TO.P,CE690,36,Pin_36*%
%TO.N,NMI*%
X90855800Y-25349200D03*
%TO.P,CE690,37,Pin_37*%
%TO.N,BUSRQ*%
X93395800Y-27889200D03*
%TO.P,CE690,38,Pin_38*%
%TO.N,BUSAK*%
X93395800Y-25349200D03*
%TO.P,CE690,39,Pin_39*%
%TO.N,READY*%
X95935800Y-27889200D03*
%TO.P,CE690,40,Pin_40*%
%TO.N,BUS*%
X95935800Y-25349200D03*
%TO.P,CE690,41,Pin_41*%
%TO.N,RESET*%
X98475800Y-27889200D03*
%TO.P,CE690,42,Pin_42*%
%TO.N,ROMEN*%
X98475800Y-25349200D03*
%TO.P,CE690,43,Pin_43*%
%TO.N,ROMDIS*%
X101015800Y-27889200D03*
%TO.P,CE690,44,Pin_44*%
%TO.N,RAMRD*%
X101015800Y-25349200D03*
%TO.P,CE690,45,Pin_45*%
%TO.N,RAMDIS*%
X103555800Y-27889200D03*
%TO.P,CE690,46,Pin_46*%
%TO.N,CURSOR*%
X103555800Y-25349200D03*
%TO.P,CE690,47,Pin_47*%
%TO.N,LPEN*%
X106095800Y-27889200D03*
%TO.P,CE690,48,Pin_48*%
%TO.N,EXP*%
X106095800Y-25349200D03*
%TO.P,CE690,49,Pin_49*%
%TO.N,GND*%
X108635800Y-27889200D03*
%TO.P,CE690,50,Pin_50*%
%TO.N,A100*%
X108635800Y-25349200D03*
%TD*%
D17*
%TO.P,H7,1,1*%
%TO.N,GND*%
X81706800Y-76779200D03*
%TD*%
%TO.P,H1,1,1*%
%TO.N,GND*%
X38272800Y-25979200D03*
%TD*%
D18*
%TO.N,A100*%
X107365800Y-60757700D03*
X107365800Y-51137600D03*
X94655800Y-34143700D03*
X109424200Y-77563000D03*
X109424200Y-82702200D03*
X108635800Y-41148600D03*
%TO.N,CURSOR*%
X103555800Y-41043800D03*
X104095500Y-30389500D03*
X109432200Y-52370000D03*
X109432200Y-58565100D03*
%TO.N,BUSRQ*%
X92220700Y-29477000D03*
%TO.N,INT*%
X90855800Y-35445700D03*
%TO.N,HALT*%
X87856400Y-29344100D03*
%TO.N,GND*%
X39872600Y-91460000D03*
%TD*%
D19*
%TO.N,A100*%
X108458000Y-87025400D02*
X108458000Y-91460000D01*
X108483400Y-87000000D02*
X108458000Y-87025400D01*
X108585000Y-69460000D02*
X108585000Y-65000000D01*
X107365800Y-51137600D02*
X107365800Y-60757700D01*
X109424200Y-77563000D02*
X109424200Y-82702200D01*
X94655800Y-24952400D02*
X94655800Y-34143700D01*
X95445400Y-24162800D02*
X94655800Y-24952400D01*
X107449400Y-24162800D02*
X95445400Y-24162800D01*
X108635800Y-25349200D02*
X107449400Y-24162800D01*
X108635800Y-47460000D02*
X108635800Y-41148600D01*
%TO.N,EXP*%
X106095800Y-47460000D02*
X105547700Y-47460000D01*
X105547700Y-48008100D02*
X105547700Y-47460000D01*
X104826000Y-48729800D02*
X105547700Y-48008100D01*
X104826000Y-62920300D02*
X104826000Y-48729800D01*
X106045000Y-64139300D02*
X104826000Y-62920300D01*
X106045000Y-65000000D02*
X106045000Y-64139300D01*
X106095800Y-37654100D02*
X106095800Y-36896700D01*
X104886900Y-38863000D02*
X106095800Y-37654100D01*
X104886900Y-40131100D02*
X104886900Y-38863000D01*
X105547700Y-40791900D02*
X104886900Y-40131100D01*
X105547700Y-47460000D02*
X105547700Y-40791900D01*
X106045000Y-65000000D02*
X106045000Y-69460000D01*
X104768200Y-85824800D02*
X105943400Y-87000000D01*
X104768200Y-71585200D02*
X104768200Y-85824800D01*
X106045000Y-70308400D02*
X104768200Y-71585200D01*
X106045000Y-69460000D02*
X106045000Y-70308400D01*
X106095800Y-29789200D02*
X106095800Y-36896700D01*
X104920600Y-28614000D02*
X106095800Y-29789200D01*
X104920600Y-26524400D02*
X104920600Y-28614000D01*
X106095800Y-25349200D02*
X104920600Y-26524400D01*
%TO.N,LPEN*%
X106095800Y-62409200D02*
X106095800Y-50000000D01*
X106045000Y-62460000D02*
X106095800Y-62409200D01*
X107298300Y-40639200D02*
X106095800Y-39436700D01*
X107298300Y-48797500D02*
X107298300Y-40639200D01*
X106095800Y-50000000D02*
X107298300Y-48797500D01*
X105943400Y-72101600D02*
X105943400Y-84460000D01*
X106045000Y-72000000D02*
X105943400Y-72101600D01*
X107120400Y-92797600D02*
X105918000Y-94000000D01*
X107120400Y-85637000D02*
X107120400Y-92797600D01*
X105943400Y-84460000D02*
X107120400Y-85637000D01*
X107274800Y-38257700D02*
X106095800Y-39436700D01*
X107274800Y-29068200D02*
X107274800Y-38257700D01*
X106095800Y-27889200D02*
X107274800Y-29068200D01*
%TO.N,CURSOR*%
X103378000Y-87025400D02*
X103403400Y-87000000D01*
X103378000Y-91460000D02*
X103378000Y-87025400D01*
X102205400Y-70759600D02*
X103505000Y-69460000D01*
X102205400Y-85802000D02*
X102205400Y-70759600D01*
X103403400Y-87000000D02*
X102205400Y-85802000D01*
X103555800Y-47460000D02*
X103555800Y-41043800D01*
X103505000Y-69460000D02*
X103505000Y-65000000D01*
X103555800Y-30929200D02*
X103555800Y-36896700D01*
X104095500Y-30389500D02*
X103555800Y-30929200D01*
X109432200Y-52370000D02*
X109432200Y-58565100D01*
%TO.N,RAMDIS*%
X103555800Y-62409200D02*
X103555800Y-50000000D01*
X103505000Y-62460000D02*
X103555800Y-62409200D01*
X103555800Y-49242600D02*
X103555800Y-50000000D01*
X104774600Y-48023800D02*
X103555800Y-49242600D01*
X104774600Y-40655500D02*
X104774600Y-48023800D01*
X103555800Y-39436700D02*
X104774600Y-40655500D01*
X104717900Y-70787100D02*
X103505000Y-72000000D01*
X104717900Y-63672900D02*
X104717900Y-70787100D01*
X103505000Y-62460000D02*
X104717900Y-63672900D01*
X103403400Y-72101600D02*
X103403400Y-84460000D01*
X103505000Y-72000000D02*
X103403400Y-72101600D01*
X104648000Y-92730000D02*
X103378000Y-94000000D01*
X104648000Y-86341300D02*
X104648000Y-92730000D01*
X103403400Y-85096700D02*
X104648000Y-86341300D01*
X103403400Y-84460000D02*
X103403400Y-85096700D01*
X104820600Y-38171900D02*
X103555800Y-39436700D01*
X104820600Y-29154000D02*
X104820600Y-38171900D01*
X103555800Y-27889200D02*
X104820600Y-29154000D01*
%TO.N,RAMRD*%
X100838000Y-87025400D02*
X100838000Y-91460000D01*
X100863400Y-87000000D02*
X100838000Y-87025400D01*
X99677600Y-70747400D02*
X100965000Y-69460000D01*
X99677600Y-85814200D02*
X99677600Y-70747400D01*
X100863400Y-87000000D02*
X99677600Y-85814200D01*
X100965000Y-69460000D02*
X100965000Y-65000000D01*
X102206200Y-46269600D02*
X101015800Y-47460000D01*
X102206200Y-38087100D02*
X102206200Y-46269600D01*
X101015800Y-36896700D02*
X102206200Y-38087100D01*
X102194900Y-63770100D02*
X100965000Y-65000000D01*
X102194900Y-48639100D02*
X102194900Y-63770100D01*
X101015800Y-47460000D02*
X102194900Y-48639100D01*
X102202800Y-35709700D02*
X101015800Y-36896700D01*
X102202800Y-26536200D02*
X102202800Y-35709700D01*
X101015800Y-25349200D02*
X102202800Y-26536200D01*
%TO.N,ROMDIS*%
X100965000Y-50050800D02*
X101015800Y-50000000D01*
X100965000Y-62460000D02*
X100965000Y-50050800D01*
X101015800Y-40073300D02*
X101015800Y-39436700D01*
X99835700Y-41253400D02*
X101015800Y-40073300D01*
X99835700Y-48819900D02*
X99835700Y-41253400D01*
X101015800Y-50000000D02*
X99835700Y-48819900D01*
X100863400Y-85217400D02*
X100863400Y-84460000D01*
X102071500Y-86425500D02*
X100863400Y-85217400D01*
X102071500Y-92766500D02*
X102071500Y-86425500D01*
X100838000Y-94000000D02*
X102071500Y-92766500D01*
X100863400Y-72101600D02*
X100863400Y-84460000D01*
X100965000Y-72000000D02*
X100863400Y-72101600D01*
X101015800Y-38800000D02*
X101015800Y-39436700D01*
X99825200Y-37609400D02*
X101015800Y-38800000D01*
X99825200Y-29079800D02*
X99825200Y-37609400D01*
X101015800Y-27889200D02*
X99825200Y-29079800D01*
%TO.N,ROMEN*%
X98425000Y-69460000D02*
X98425000Y-65000000D01*
X98475800Y-48100000D02*
X98475800Y-47460000D01*
X99651000Y-49275200D02*
X98475800Y-48100000D01*
X99651000Y-63774000D02*
X99651000Y-49275200D01*
X98425000Y-65000000D02*
X99651000Y-63774000D01*
X99703700Y-38124600D02*
X98475800Y-36896700D01*
X99703700Y-40430600D02*
X99703700Y-38124600D01*
X98475800Y-41658500D02*
X99703700Y-40430600D01*
X98475800Y-47460000D02*
X98475800Y-41658500D01*
X98298000Y-87025400D02*
X98298000Y-91460000D01*
X98323400Y-87000000D02*
X98298000Y-87025400D01*
X97137600Y-70747400D02*
X98425000Y-69460000D01*
X97137600Y-85814200D02*
X97137600Y-70747400D01*
X98323400Y-87000000D02*
X97137600Y-85814200D01*
X98475800Y-29614900D02*
X98475800Y-36896700D01*
X99660600Y-28430100D02*
X98475800Y-29614900D01*
X99660600Y-26534000D02*
X99660600Y-28430100D01*
X98475800Y-25349200D02*
X99660600Y-26534000D01*
%TO.N,RESET*%
X98475800Y-40073300D02*
X98475800Y-39436700D01*
X97295700Y-41253400D02*
X98475800Y-40073300D01*
X97295700Y-48819900D02*
X97295700Y-41253400D01*
X98475800Y-50000000D02*
X97295700Y-48819900D01*
X98425000Y-50050800D02*
X98475800Y-50000000D01*
X98425000Y-62460000D02*
X98425000Y-50050800D01*
X98323400Y-85217400D02*
X98323400Y-84460000D01*
X99532000Y-86426000D02*
X98323400Y-85217400D01*
X99532000Y-92766000D02*
X99532000Y-86426000D01*
X98298000Y-94000000D02*
X99532000Y-92766000D01*
X98475800Y-28525800D02*
X98475800Y-27889200D01*
X97266900Y-29734700D02*
X98475800Y-28525800D01*
X97266900Y-37587800D02*
X97266900Y-29734700D01*
X98475800Y-38796700D02*
X97266900Y-37587800D01*
X98475800Y-39436700D02*
X98475800Y-38796700D01*
X98323400Y-72101600D02*
X98323400Y-84460000D01*
X98425000Y-72000000D02*
X98323400Y-72101600D01*
%TO.N,BUS*%
X95885000Y-69460000D02*
X95885000Y-65000000D01*
X95935800Y-48217300D02*
X95935800Y-47460000D01*
X97144700Y-49426200D02*
X95935800Y-48217300D01*
X97144700Y-63740300D02*
X97144700Y-49426200D01*
X95885000Y-65000000D02*
X97144700Y-63740300D01*
X95935800Y-41658500D02*
X95935800Y-47460000D01*
X97163700Y-40430600D02*
X95935800Y-41658500D01*
X97163700Y-38124600D02*
X97163700Y-40430600D01*
X95935800Y-36896700D02*
X97163700Y-38124600D01*
X95758000Y-87025400D02*
X95758000Y-91460000D01*
X95783400Y-87000000D02*
X95758000Y-87025400D01*
X94597600Y-70747400D02*
X95885000Y-69460000D01*
X94597600Y-85814200D02*
X94597600Y-70747400D01*
X95783400Y-87000000D02*
X94597600Y-85814200D01*
X95935800Y-30111000D02*
X95935800Y-36896700D01*
X97134900Y-28911900D02*
X95935800Y-30111000D01*
X97134900Y-26548300D02*
X97134900Y-28911900D01*
X95935800Y-25349200D02*
X97134900Y-26548300D01*
%TO.N,READY*%
X95885000Y-50050800D02*
X95935800Y-50000000D01*
X95885000Y-62460000D02*
X95885000Y-50050800D01*
X95935800Y-40073300D02*
X95935800Y-39436700D01*
X94755700Y-41253400D02*
X95935800Y-40073300D01*
X94755700Y-48819900D02*
X94755700Y-41253400D01*
X95935800Y-50000000D02*
X94755700Y-48819900D01*
X95783400Y-85217400D02*
X95783400Y-84460000D01*
X96992000Y-86426000D02*
X95783400Y-85217400D01*
X96992000Y-92766000D02*
X96992000Y-86426000D01*
X95758000Y-94000000D02*
X96992000Y-92766000D01*
X95783400Y-72101600D02*
X95783400Y-84460000D01*
X95885000Y-72000000D02*
X95783400Y-72101600D01*
X95935800Y-38796700D02*
X95935800Y-39436700D01*
X94760600Y-37621500D02*
X95935800Y-38796700D01*
X94760600Y-35535000D02*
X94760600Y-37621500D01*
X95485600Y-34810000D02*
X94760600Y-35535000D01*
X95485600Y-28339400D02*
X95485600Y-34810000D01*
X95935800Y-27889200D02*
X95485600Y-28339400D01*
%TO.N,BUSAK*%
X93345000Y-69460000D02*
X93345000Y-65000000D01*
X93395800Y-48100000D02*
X93395800Y-47460000D01*
X94571000Y-49275200D02*
X93395800Y-48100000D01*
X94571000Y-63774000D02*
X94571000Y-49275200D01*
X93345000Y-65000000D02*
X94571000Y-63774000D01*
X94623700Y-38124600D02*
X93395800Y-36896700D01*
X94623700Y-40430600D02*
X94623700Y-38124600D01*
X93395800Y-41658500D02*
X94623700Y-40430600D01*
X93395800Y-47460000D02*
X93395800Y-41658500D01*
X93218000Y-87025400D02*
X93218000Y-91460000D01*
X93243400Y-87000000D02*
X93218000Y-87025400D01*
X92057600Y-70747400D02*
X93345000Y-69460000D01*
X92057600Y-85814200D02*
X92057600Y-70747400D01*
X93243400Y-87000000D02*
X92057600Y-85814200D01*
X93395800Y-29616700D02*
X93395800Y-36896700D01*
X92217400Y-28438300D02*
X93395800Y-29616700D01*
X92217400Y-26527600D02*
X92217400Y-28438300D01*
X93395800Y-25349200D02*
X92217400Y-26527600D01*
%TO.N,BUSRQ*%
X93345000Y-50050800D02*
X93395800Y-50000000D01*
X93345000Y-62460000D02*
X93345000Y-50050800D01*
X93243400Y-85217400D02*
X93243400Y-84460000D01*
X94452000Y-86426000D02*
X93243400Y-85217400D01*
X94452000Y-92766000D02*
X94452000Y-86426000D01*
X93218000Y-94000000D02*
X94452000Y-92766000D01*
X93243400Y-72101600D02*
X93243400Y-84460000D01*
X93345000Y-72000000D02*
X93243400Y-72101600D01*
X93395800Y-40336900D02*
X93395800Y-39436700D01*
X92215700Y-41517000D02*
X93395800Y-40336900D01*
X92215700Y-48819900D02*
X92215700Y-41517000D01*
X93395800Y-50000000D02*
X92215700Y-48819900D01*
X92220700Y-37621600D02*
X92220700Y-29477000D01*
X93395800Y-38796700D02*
X92220700Y-37621600D01*
X93395800Y-39436700D02*
X93395800Y-38796700D01*
%TO.N,NMI*%
X90805000Y-69460000D02*
X90805000Y-65000000D01*
X90678000Y-87025400D02*
X90678000Y-91460000D01*
X90703400Y-87000000D02*
X90678000Y-87025400D01*
X89517600Y-70747400D02*
X90805000Y-69460000D01*
X89517600Y-85814200D02*
X89517600Y-70747400D01*
X90703400Y-87000000D02*
X89517600Y-85814200D01*
X90855800Y-48100000D02*
X90855800Y-47460000D01*
X92031000Y-49275200D02*
X90855800Y-48100000D01*
X92031000Y-63774000D02*
X92031000Y-49275200D01*
X90805000Y-65000000D02*
X92031000Y-63774000D01*
X92031000Y-38071900D02*
X90855800Y-36896700D01*
X92031000Y-40801400D02*
X92031000Y-38071900D01*
X90855800Y-41976600D02*
X92031000Y-40801400D01*
X90855800Y-47460000D02*
X90855800Y-41976600D01*
X89679600Y-35720500D02*
X90855800Y-36896700D01*
X89679600Y-26525400D02*
X89679600Y-35720500D01*
X90855800Y-25349200D02*
X89679600Y-26525400D01*
%TO.N,INT*%
X90805000Y-50050800D02*
X90855800Y-50000000D01*
X90805000Y-62460000D02*
X90805000Y-50050800D01*
X90855800Y-40073300D02*
X90855800Y-39436700D01*
X89675700Y-41253400D02*
X90855800Y-40073300D01*
X89675700Y-48819900D02*
X89675700Y-41253400D01*
X90855800Y-50000000D02*
X89675700Y-48819900D01*
X90703400Y-85217400D02*
X90703400Y-84460000D01*
X91912000Y-86426000D02*
X90703400Y-85217400D01*
X91912000Y-92766000D02*
X91912000Y-86426000D01*
X90678000Y-94000000D02*
X91912000Y-92766000D01*
X90703400Y-72101600D02*
X90703400Y-84460000D01*
X90805000Y-72000000D02*
X90703400Y-72101600D01*
X90855800Y-27889200D02*
X90855800Y-35445700D01*
%TO.N,HALT*%
X88315800Y-48100000D02*
X88315800Y-47460000D01*
X89491000Y-49275200D02*
X88315800Y-48100000D01*
X89491000Y-63774000D02*
X89491000Y-49275200D01*
X88265000Y-65000000D02*
X89491000Y-63774000D01*
X88138000Y-87025400D02*
X88138000Y-91460000D01*
X88163400Y-87000000D02*
X88138000Y-87025400D01*
X89543700Y-38124600D02*
X88315800Y-36896700D01*
X89543700Y-40430600D02*
X89543700Y-38124600D01*
X88315800Y-41658500D02*
X89543700Y-40430600D01*
X88315800Y-47460000D02*
X88315800Y-41658500D01*
X88265000Y-65000000D02*
X88265000Y-69460000D01*
X86977400Y-85814000D02*
X88163400Y-87000000D01*
X86977400Y-70747600D02*
X86977400Y-85814000D01*
X88265000Y-69460000D02*
X86977400Y-70747600D01*
X87856400Y-36437300D02*
X87856400Y-29344100D01*
X88315800Y-36896700D02*
X87856400Y-36437300D01*
%TO.N,WR*%
X88315800Y-40073300D02*
X88315800Y-39436700D01*
X87135700Y-41253400D02*
X88315800Y-40073300D01*
X87135700Y-48819900D02*
X87135700Y-41253400D01*
X88315800Y-50000000D02*
X87135700Y-48819900D01*
X88265000Y-50050800D02*
X88315800Y-50000000D01*
X88265000Y-62460000D02*
X88265000Y-50050800D01*
X88163400Y-85217400D02*
X88163400Y-84460000D01*
X89372000Y-86426000D02*
X88163400Y-85217400D01*
X89372000Y-92766000D02*
X89372000Y-86426000D01*
X88138000Y-94000000D02*
X89372000Y-92766000D01*
X88163400Y-72101600D02*
X88163400Y-84460000D01*
X88265000Y-72000000D02*
X88163400Y-72101600D01*
X88315800Y-38796700D02*
X88315800Y-39436700D01*
X87106900Y-37587800D02*
X88315800Y-38796700D01*
X87106900Y-29013900D02*
X87106900Y-37587800D01*
X88231600Y-27889200D02*
X87106900Y-29013900D01*
X88315800Y-27889200D02*
X88231600Y-27889200D01*
%TO.N,RD*%
X84585200Y-26539800D02*
X85775800Y-25349200D01*
X84585200Y-28601900D02*
X84585200Y-26539800D01*
X85775800Y-29792500D02*
X84585200Y-28601900D01*
X85775800Y-36896700D02*
X85775800Y-29792500D01*
X85598000Y-87025400D02*
X85623400Y-87000000D01*
X85598000Y-91460000D02*
X85598000Y-87025400D01*
X85725000Y-65000000D02*
X85725000Y-69460000D01*
X85775800Y-41658500D02*
X85775800Y-47460000D01*
X87003700Y-40430600D02*
X85775800Y-41658500D01*
X87003700Y-38124600D02*
X87003700Y-40430600D01*
X85775800Y-36896700D02*
X87003700Y-38124600D01*
X86995000Y-63730000D02*
X85725000Y-65000000D01*
X86995000Y-49315900D02*
X86995000Y-63730000D01*
X85775800Y-48096700D02*
X86995000Y-49315900D01*
X85775800Y-47460000D02*
X85775800Y-48096700D01*
%TO.N,IORQ*%
X85775800Y-62409200D02*
X85775800Y-50000000D01*
X85725000Y-62460000D02*
X85775800Y-62409200D01*
X84407400Y-85676000D02*
X85623400Y-84460000D01*
X84407400Y-92809400D02*
X84407400Y-85676000D01*
X85598000Y-94000000D02*
X84407400Y-92809400D01*
X85725000Y-84358400D02*
X85725000Y-72000000D01*
X85623400Y-84460000D02*
X85725000Y-84358400D01*
%TO.N,RFSH*%
X83185000Y-69460000D02*
X83185000Y-65000000D01*
X83058000Y-87025400D02*
X83083400Y-87000000D01*
X83058000Y-91460000D02*
X83058000Y-87025400D01*
X81994400Y-70650600D02*
X83185000Y-69460000D01*
X81994400Y-72743700D02*
X81994400Y-70650600D01*
X84775700Y-75525000D02*
X81994400Y-72743700D01*
X84775700Y-78539000D02*
X84775700Y-75525000D01*
X81868300Y-81446400D02*
X84775700Y-78539000D01*
X81868300Y-85784900D02*
X81868300Y-81446400D01*
X83083400Y-87000000D02*
X81868300Y-85784900D01*
X82045200Y-38087300D02*
X83235800Y-36896700D01*
X82045200Y-46269400D02*
X82045200Y-38087300D01*
X83235800Y-47460000D02*
X82045200Y-46269400D01*
X82009800Y-63824800D02*
X83185000Y-65000000D01*
X82009800Y-48686000D02*
X82009800Y-63824800D01*
X83235800Y-47460000D02*
X82009800Y-48686000D01*
X82060600Y-35721500D02*
X83235800Y-36896700D01*
X82060600Y-26524400D02*
X82060600Y-35721500D01*
X83235800Y-25349200D02*
X82060600Y-26524400D01*
%TO.N,M1*%
X83235800Y-62460000D02*
X83185000Y-62460000D01*
X83235800Y-62460000D02*
X83235800Y-50000000D01*
X84402500Y-63626700D02*
X83235800Y-62460000D01*
X84402500Y-70782500D02*
X84402500Y-63626700D01*
X83185000Y-72000000D02*
X84402500Y-70782500D01*
X85225800Y-74040800D02*
X83185000Y-72000000D01*
X85225800Y-82317600D02*
X85225800Y-74040800D01*
X83083400Y-84460000D02*
X85225800Y-82317600D01*
X84415900Y-38256600D02*
X83235800Y-39436700D01*
X84415900Y-29069300D02*
X84415900Y-38256600D01*
X83235800Y-27889200D02*
X84415900Y-29069300D01*
X84425300Y-48810500D02*
X83235800Y-50000000D01*
X84425300Y-40626200D02*
X84425300Y-48810500D01*
X83235800Y-39436700D02*
X84425300Y-40626200D01*
%TO.N,MREQ*%
X80645000Y-69460000D02*
X80645000Y-65000000D01*
X79487400Y-38105100D02*
X80695800Y-36896700D01*
X79487400Y-40131600D02*
X79487400Y-38105100D01*
X80695800Y-41340000D02*
X79487400Y-40131600D01*
X80695800Y-47460000D02*
X80695800Y-41340000D01*
X80518000Y-87025400D02*
X80518000Y-91460000D01*
X80543400Y-87000000D02*
X80518000Y-87025400D01*
X80645000Y-70217400D02*
X80645000Y-69460000D01*
X79437800Y-71424600D02*
X80645000Y-70217400D01*
X79437800Y-72454600D02*
X79437800Y-71424600D01*
X80934500Y-73951300D02*
X79437800Y-72454600D01*
X82565500Y-73951300D02*
X80934500Y-73951300D01*
X84325600Y-75711400D02*
X82565500Y-73951300D01*
X84325600Y-78314000D02*
X84325600Y-75711400D01*
X79352000Y-83287600D02*
X84325600Y-78314000D01*
X79352000Y-85808600D02*
X79352000Y-83287600D01*
X80543400Y-87000000D02*
X79352000Y-85808600D01*
X79520600Y-35721500D02*
X80695800Y-36896700D01*
X79520600Y-26524400D02*
X79520600Y-35721500D01*
X80695800Y-25349200D02*
X79520600Y-26524400D01*
%TO.N,/D0*%
X78105000Y-69460000D02*
X78105000Y-65000000D01*
X77978000Y-87025400D02*
X77978000Y-91460000D01*
X78003400Y-87000000D02*
X77978000Y-87025400D01*
X78155800Y-48217400D02*
X78155800Y-47460000D01*
X76885800Y-49487400D02*
X78155800Y-48217400D01*
X76885800Y-63780800D02*
X76885800Y-49487400D01*
X78105000Y-65000000D02*
X76885800Y-63780800D01*
X76980100Y-35721000D02*
X78155800Y-36896700D01*
X76980100Y-26524900D02*
X76980100Y-35721000D01*
X78155800Y-25349200D02*
X76980100Y-26524900D01*
X78155800Y-41098600D02*
X78155800Y-47460000D01*
X76980600Y-39923400D02*
X78155800Y-41098600D01*
X76980600Y-38071900D02*
X76980600Y-39923400D01*
X78155800Y-36896700D02*
X76980600Y-38071900D01*
%TO.N,/D1*%
X76787400Y-92809400D02*
X77978000Y-94000000D01*
X76787400Y-85676000D02*
X76787400Y-92809400D01*
X78003400Y-84460000D02*
X76787400Y-85676000D01*
X78105000Y-50050800D02*
X78105000Y-62460000D01*
X78155800Y-50000000D02*
X78105000Y-50050800D01*
X79346400Y-48809400D02*
X78155800Y-50000000D01*
X79346400Y-40627300D02*
X79346400Y-48809400D01*
X78155800Y-39436700D02*
X79346400Y-40627300D01*
%TO.N,/D2*%
X75565000Y-69460000D02*
X75565000Y-65000000D01*
X74425200Y-26539800D02*
X75615800Y-25349200D01*
X74425200Y-28601900D02*
X74425200Y-26539800D01*
X75615800Y-29792500D02*
X74425200Y-28601900D01*
X75615800Y-36896700D02*
X75615800Y-29792500D01*
X75438000Y-87025400D02*
X75438000Y-91460000D01*
X75463400Y-87000000D02*
X75438000Y-87025400D01*
%TO.N,/D3*%
X74247400Y-92809400D02*
X75438000Y-94000000D01*
X74247400Y-85676000D02*
X74247400Y-92809400D01*
X75463400Y-84460000D02*
X74247400Y-85676000D01*
X76755600Y-70809400D02*
X75565000Y-72000000D01*
X76755600Y-64287300D02*
X76755600Y-70809400D01*
X75565000Y-63096700D02*
X76755600Y-64287300D01*
X75565000Y-62460000D02*
X75565000Y-63096700D01*
X75565000Y-50050800D02*
X75565000Y-62460000D01*
X75615800Y-50000000D02*
X75565000Y-50050800D01*
X76793200Y-48822600D02*
X75615800Y-50000000D01*
X76793200Y-40614100D02*
X76793200Y-48822600D01*
X75615800Y-39436700D02*
X76793200Y-40614100D01*
%TO.N,/D4*%
X73025000Y-69460000D02*
X73025000Y-65000000D01*
X73075800Y-48217400D02*
X73075800Y-47460000D01*
X71805800Y-49487400D02*
X73075800Y-48217400D01*
X71805800Y-63780800D02*
X71805800Y-49487400D01*
X73025000Y-65000000D02*
X71805800Y-63780800D01*
X72898000Y-87025400D02*
X72898000Y-91460000D01*
X72923400Y-87000000D02*
X72898000Y-87025400D01*
X71885200Y-26539800D02*
X73075800Y-25349200D01*
X71885200Y-28601900D02*
X71885200Y-26539800D01*
X73075800Y-29792500D02*
X71885200Y-28601900D01*
X73075800Y-36896700D02*
X73075800Y-29792500D01*
%TO.N,/D5*%
X71707400Y-92809400D02*
X72898000Y-94000000D01*
X71707400Y-85676000D02*
X71707400Y-92809400D01*
X72923400Y-84460000D02*
X71707400Y-85676000D01*
X74266600Y-48809200D02*
X73075800Y-50000000D01*
X74266600Y-40627500D02*
X74266600Y-48809200D01*
X73075800Y-39436700D02*
X74266600Y-40627500D01*
X74255900Y-38256600D02*
X73075800Y-39436700D01*
X74255900Y-29069300D02*
X74255900Y-38256600D01*
X73075800Y-27889200D02*
X74255900Y-29069300D01*
X73025000Y-50050800D02*
X73025000Y-62460000D01*
X73075800Y-50000000D02*
X73025000Y-50050800D01*
X74215600Y-70809400D02*
X73025000Y-72000000D01*
X74215600Y-63650600D02*
X74215600Y-70809400D01*
X73025000Y-62460000D02*
X74215600Y-63650600D01*
%TO.N,/D6*%
X70485000Y-69460000D02*
X70485000Y-65000000D01*
X70535800Y-48217400D02*
X70535800Y-47460000D01*
X69265800Y-49487400D02*
X70535800Y-48217400D01*
X69265800Y-63780800D02*
X69265800Y-49487400D01*
X70485000Y-65000000D02*
X69265800Y-63780800D01*
X70358000Y-87025400D02*
X70358000Y-91460000D01*
X70383400Y-87000000D02*
X70358000Y-87025400D01*
X69345200Y-26539800D02*
X70535800Y-25349200D01*
X69345200Y-28601900D02*
X69345200Y-26539800D01*
X70535800Y-29792500D02*
X69345200Y-28601900D01*
X70535800Y-36896700D02*
X70535800Y-29792500D01*
%TO.N,/D7*%
X69167400Y-92809400D02*
X70358000Y-94000000D01*
X69167400Y-85676000D02*
X69167400Y-92809400D01*
X70383400Y-84460000D02*
X69167400Y-85676000D01*
X71715900Y-38256600D02*
X70535800Y-39436700D01*
X71715900Y-29069300D02*
X71715900Y-38256600D01*
X70535800Y-27889200D02*
X71715900Y-29069300D01*
X71675600Y-70809400D02*
X70485000Y-72000000D01*
X71675600Y-64287300D02*
X71675600Y-70809400D01*
X70485000Y-63096700D02*
X71675600Y-64287300D01*
X70485000Y-62460000D02*
X70485000Y-63096700D01*
X71726400Y-48809400D02*
X70535800Y-50000000D01*
X71726400Y-40627300D02*
X71726400Y-48809400D01*
X70535800Y-39436700D02*
X71726400Y-40627300D01*
X70485000Y-50050800D02*
X70485000Y-62460000D01*
X70535800Y-50000000D02*
X70485000Y-50050800D01*
%TO.N,/A0*%
X67945000Y-69460000D02*
X67945000Y-65000000D01*
X67995800Y-48217400D02*
X67995800Y-47460000D01*
X66725800Y-49487400D02*
X67995800Y-48217400D01*
X66725800Y-63780800D02*
X66725800Y-49487400D01*
X67945000Y-65000000D02*
X66725800Y-63780800D01*
X67818000Y-87025400D02*
X67818000Y-91460000D01*
X67843400Y-87000000D02*
X67818000Y-87025400D01*
X66805200Y-26539800D02*
X67995800Y-25349200D01*
X66805200Y-28601900D02*
X66805200Y-26539800D01*
X67995800Y-29792500D02*
X66805200Y-28601900D01*
X67995800Y-36896700D02*
X67995800Y-29792500D01*
%TO.N,/A1*%
X66627400Y-92809400D02*
X67818000Y-94000000D01*
X66627400Y-85676000D02*
X66627400Y-92809400D01*
X67843400Y-84460000D02*
X66627400Y-85676000D01*
X69186400Y-48809400D02*
X67995800Y-50000000D01*
X69186400Y-40627300D02*
X69186400Y-48809400D01*
X67995800Y-39436700D02*
X69186400Y-40627300D01*
X69175900Y-38256600D02*
X67995800Y-39436700D01*
X69175900Y-29069300D02*
X69175900Y-38256600D01*
X67995800Y-27889200D02*
X69175900Y-29069300D01*
X67945000Y-50050800D02*
X67945000Y-62460000D01*
X67995800Y-50000000D02*
X67945000Y-50050800D01*
X69135600Y-70809400D02*
X67945000Y-72000000D01*
X69135600Y-64287300D02*
X69135600Y-70809400D01*
X67945000Y-63096700D02*
X69135600Y-64287300D01*
X67945000Y-62460000D02*
X67945000Y-63096700D01*
%TO.N,/A2*%
X65405000Y-69460000D02*
X65405000Y-65000000D01*
X65455800Y-48217400D02*
X65455800Y-47460000D01*
X64185800Y-49487400D02*
X65455800Y-48217400D01*
X64185800Y-63780800D02*
X64185800Y-49487400D01*
X65405000Y-65000000D02*
X64185800Y-63780800D01*
X65278000Y-87025400D02*
X65278000Y-91460000D01*
X65303400Y-87000000D02*
X65278000Y-87025400D01*
X64265200Y-26539800D02*
X65455800Y-25349200D01*
X64265200Y-28601900D02*
X64265200Y-26539800D01*
X65455800Y-29792500D02*
X64265200Y-28601900D01*
X65455800Y-36896700D02*
X65455800Y-29792500D01*
%TO.N,/A3*%
X64087400Y-92809400D02*
X65278000Y-94000000D01*
X64087400Y-85676000D02*
X64087400Y-92809400D01*
X65303400Y-84460000D02*
X64087400Y-85676000D01*
X66646400Y-48809400D02*
X65455800Y-50000000D01*
X66646400Y-40627300D02*
X66646400Y-48809400D01*
X65455800Y-39436700D02*
X66646400Y-40627300D01*
X66635900Y-38256600D02*
X65455800Y-39436700D01*
X66635900Y-29069300D02*
X66635900Y-38256600D01*
X65455800Y-27889200D02*
X66635900Y-29069300D01*
X65405000Y-50050800D02*
X65405000Y-62460000D01*
X65455800Y-50000000D02*
X65405000Y-50050800D01*
X66595600Y-70809400D02*
X65405000Y-72000000D01*
X66595600Y-64287300D02*
X66595600Y-70809400D01*
X65405000Y-63096700D02*
X66595600Y-64287300D01*
X65405000Y-62460000D02*
X65405000Y-63096700D01*
%TO.N,/A4*%
X62865000Y-69460000D02*
X62865000Y-65000000D01*
X62915800Y-48217400D02*
X62915800Y-47460000D01*
X61645800Y-49487400D02*
X62915800Y-48217400D01*
X61645800Y-63780800D02*
X61645800Y-49487400D01*
X62865000Y-65000000D02*
X61645800Y-63780800D01*
X62738000Y-87025400D02*
X62738000Y-91460000D01*
X62763400Y-87000000D02*
X62738000Y-87025400D01*
X61725200Y-26539800D02*
X62915800Y-25349200D01*
X61725200Y-28601900D02*
X61725200Y-26539800D01*
X62915800Y-29792500D02*
X61725200Y-28601900D01*
X62915800Y-36896700D02*
X62915800Y-29792500D01*
%TO.N,/A5*%
X64106400Y-48809400D02*
X62915800Y-50000000D01*
X64106400Y-40627300D02*
X64106400Y-48809400D01*
X62915800Y-39436700D02*
X64106400Y-40627300D01*
X64095900Y-38256600D02*
X62915800Y-39436700D01*
X64095900Y-29069300D02*
X64095900Y-38256600D01*
X62915800Y-27889200D02*
X64095900Y-29069300D01*
X62865000Y-50050800D02*
X62865000Y-62460000D01*
X62915800Y-50000000D02*
X62865000Y-50050800D01*
X64055600Y-70809400D02*
X62865000Y-72000000D01*
X64055600Y-64287300D02*
X64055600Y-70809400D01*
X62865000Y-63096700D02*
X64055600Y-64287300D01*
X62865000Y-62460000D02*
X62865000Y-63096700D01*
X61547400Y-85676000D02*
X62763400Y-84460000D01*
X61547400Y-92809400D02*
X61547400Y-85676000D01*
X62738000Y-94000000D02*
X61547400Y-92809400D01*
%TO.N,/A6*%
X60325000Y-69460000D02*
X60325000Y-65000000D01*
X59185200Y-26539800D02*
X60375800Y-25349200D01*
X59185200Y-28601900D02*
X59185200Y-26539800D01*
X60375800Y-29792500D02*
X59185200Y-28601900D01*
X60375800Y-36896700D02*
X60375800Y-29792500D01*
X60198000Y-87025400D02*
X60198000Y-91460000D01*
X60223400Y-87000000D02*
X60198000Y-87025400D01*
%TO.N,/A7*%
X59007400Y-92809400D02*
X60198000Y-94000000D01*
X59007400Y-85676000D02*
X59007400Y-92809400D01*
X60223400Y-84460000D02*
X59007400Y-85676000D01*
X61555900Y-38256600D02*
X60375800Y-39436700D01*
X61555900Y-29069300D02*
X61555900Y-38256600D01*
X60375800Y-27889200D02*
X61555900Y-29069300D01*
X61515600Y-70809400D02*
X60325000Y-72000000D01*
X61515600Y-64287300D02*
X61515600Y-70809400D01*
X60325000Y-63096700D02*
X61515600Y-64287300D01*
X60325000Y-62460000D02*
X60325000Y-63096700D01*
X61566400Y-48809400D02*
X60375800Y-50000000D01*
X61566400Y-40627300D02*
X61566400Y-48809400D01*
X60375800Y-39436700D02*
X61566400Y-40627300D01*
X60325000Y-50050800D02*
X60325000Y-62460000D01*
X60375800Y-50000000D02*
X60325000Y-50050800D01*
%TO.N,/A8*%
X57785000Y-69460000D02*
X57785000Y-65000000D01*
X57835800Y-48217400D02*
X57835800Y-47460000D01*
X56565800Y-49487400D02*
X57835800Y-48217400D01*
X56565800Y-63780800D02*
X56565800Y-49487400D01*
X57785000Y-65000000D02*
X56565800Y-63780800D01*
X57658000Y-87025400D02*
X57658000Y-91460000D01*
X57683400Y-87000000D02*
X57658000Y-87025400D01*
X56645200Y-26539800D02*
X57835800Y-25349200D01*
X56645200Y-28601900D02*
X56645200Y-26539800D01*
X57835800Y-29792500D02*
X56645200Y-28601900D01*
X57835800Y-36896700D02*
X57835800Y-29792500D01*
%TO.N,/A9*%
X56467400Y-92809400D02*
X57658000Y-94000000D01*
X56467400Y-85676000D02*
X56467400Y-92809400D01*
X57683400Y-84460000D02*
X56467400Y-85676000D01*
X59026400Y-48809400D02*
X57835800Y-50000000D01*
X59026400Y-40627300D02*
X59026400Y-48809400D01*
X57835800Y-39436700D02*
X59026400Y-40627300D01*
X59015900Y-38256600D02*
X57835800Y-39436700D01*
X59015900Y-29069300D02*
X59015900Y-38256600D01*
X57835800Y-27889200D02*
X59015900Y-29069300D01*
X57785000Y-50050800D02*
X57785000Y-62460000D01*
X57835800Y-50000000D02*
X57785000Y-50050800D01*
X58975600Y-70809400D02*
X57785000Y-72000000D01*
X58975600Y-63650600D02*
X58975600Y-70809400D01*
X57785000Y-62460000D02*
X58975600Y-63650600D01*
%TO.N,/A10*%
X55245000Y-69460000D02*
X55245000Y-65000000D01*
X54105200Y-26539800D02*
X55295800Y-25349200D01*
X54105200Y-28601900D02*
X54105200Y-26539800D01*
X55295800Y-29792500D02*
X54105200Y-28601900D01*
X55295800Y-36896700D02*
X55295800Y-29792500D01*
X54067700Y-63822700D02*
X55245000Y-65000000D01*
X54067700Y-48688100D02*
X54067700Y-63822700D01*
X55295800Y-47460000D02*
X54067700Y-48688100D01*
%TO.N,/A11*%
X53927400Y-92809400D02*
X55118000Y-94000000D01*
X53927400Y-85676000D02*
X53927400Y-92809400D01*
X55143400Y-84460000D02*
X53927400Y-85676000D01*
X56486400Y-48809400D02*
X55295800Y-50000000D01*
X56486400Y-40627300D02*
X56486400Y-48809400D01*
X55295800Y-39436700D02*
X56486400Y-40627300D01*
X56475900Y-38256600D02*
X55295800Y-39436700D01*
X56475900Y-29069300D02*
X56475900Y-38256600D01*
X55295800Y-27889200D02*
X56475900Y-29069300D01*
X55245000Y-50050800D02*
X55245000Y-62460000D01*
X55295800Y-50000000D02*
X55245000Y-50050800D01*
X56435600Y-70809400D02*
X55245000Y-72000000D01*
X56435600Y-64287300D02*
X56435600Y-70809400D01*
X55245000Y-63096700D02*
X56435600Y-64287300D01*
X55245000Y-62460000D02*
X55245000Y-63096700D01*
%TO.N,/A12*%
X52705000Y-69460000D02*
X52705000Y-65000000D01*
X52755800Y-48217400D02*
X52755800Y-47460000D01*
X51485800Y-49487400D02*
X52755800Y-48217400D01*
X51485800Y-63780800D02*
X51485800Y-49487400D01*
X52705000Y-65000000D02*
X51485800Y-63780800D01*
X52578000Y-87025400D02*
X52578000Y-91460000D01*
X52603400Y-87000000D02*
X52578000Y-87025400D01*
X51565200Y-26539800D02*
X52755800Y-25349200D01*
X51565200Y-28601900D02*
X51565200Y-26539800D01*
X52755800Y-29792500D02*
X51565200Y-28601900D01*
X52755800Y-36896700D02*
X52755800Y-29792500D01*
%TO.N,/A13*%
X53935900Y-38256600D02*
X52755800Y-39436700D01*
X53935900Y-29069300D02*
X53935900Y-38256600D01*
X52755800Y-27889200D02*
X53935900Y-29069300D01*
X52705000Y-50050800D02*
X52705000Y-62460000D01*
X52755800Y-50000000D02*
X52705000Y-50050800D01*
X53895600Y-70809400D02*
X52705000Y-72000000D01*
X53895600Y-64287300D02*
X53895600Y-70809400D01*
X52705000Y-63096700D02*
X53895600Y-64287300D01*
X52705000Y-62460000D02*
X52705000Y-63096700D01*
%TO.N,/A14*%
X50165000Y-69460000D02*
X50165000Y-65000000D01*
%TO.N,/A15*%
X51274900Y-85671500D02*
X50063400Y-84460000D01*
X51274900Y-92763100D02*
X51274900Y-85671500D01*
X50038000Y-94000000D02*
X51274900Y-92763100D01*
X51406400Y-48809400D02*
X50215800Y-50000000D01*
X51406400Y-40627300D02*
X51406400Y-48809400D01*
X50215800Y-39436700D02*
X51406400Y-40627300D01*
X51395900Y-38256600D02*
X50215800Y-39436700D01*
X51395900Y-29069300D02*
X51395900Y-38256600D01*
X50215800Y-27889200D02*
X51395900Y-29069300D01*
X50165000Y-50050800D02*
X50165000Y-62460000D01*
X50215800Y-50000000D02*
X50165000Y-50050800D01*
X51355600Y-70809400D02*
X50165000Y-72000000D01*
X51355600Y-64287300D02*
X51355600Y-70809400D01*
X50165000Y-63096700D02*
X51355600Y-64287300D01*
X50165000Y-62460000D02*
X50165000Y-63096700D01*
%TO.N,SOUND*%
X47675800Y-62409200D02*
X47675800Y-50000000D01*
X47625000Y-62460000D02*
X47675800Y-62409200D01*
D20*
%TO.N,GND*%
X40086200Y-76779200D02*
X81706800Y-76779200D01*
X38272800Y-78592600D02*
X40086200Y-76779200D01*
X38272800Y-78592600D02*
X38272800Y-86990000D01*
X38272800Y-69321600D02*
X38272800Y-78592600D01*
X117288000Y-75878500D02*
X117288000Y-84006500D01*
X117288000Y-72432100D02*
X117288000Y-75878500D01*
X38693700Y-36896700D02*
X38272800Y-37317600D01*
X47675800Y-36896700D02*
X38693700Y-36896700D01*
X38849400Y-47460000D02*
X38272800Y-46883400D01*
X47675800Y-47460000D02*
X38849400Y-47460000D01*
X38411200Y-69460000D02*
X38272800Y-69321600D01*
X47625000Y-69460000D02*
X38411200Y-69460000D01*
X38282800Y-87000000D02*
X38272800Y-86990000D01*
X47523400Y-87000000D02*
X38282800Y-87000000D01*
X39872600Y-91460000D02*
X47498000Y-91460000D01*
X38272800Y-89860200D02*
X39872600Y-91460000D01*
X38272800Y-86990000D02*
X38272800Y-89860200D01*
X47675800Y-22851000D02*
X47413600Y-22588800D01*
X47675800Y-25349200D02*
X47675800Y-22851000D01*
X41663200Y-22588800D02*
X38272800Y-25979200D01*
X47413600Y-22588800D02*
X41663200Y-22588800D01*
X117288000Y-39310500D02*
X117288000Y-49648300D01*
X117288000Y-32438600D02*
X117288000Y-39310500D01*
X116841000Y-62460000D02*
X117288000Y-62907100D01*
X108585000Y-62460000D02*
X116841000Y-62460000D01*
X117288000Y-62907100D02*
X117288000Y-72432100D01*
X116856000Y-72000000D02*
X117288000Y-72432100D01*
X108585000Y-72000000D02*
X116856000Y-72000000D01*
X116835000Y-84460000D02*
X117288000Y-84006500D01*
X108483400Y-84460000D02*
X116835000Y-84460000D01*
X117288000Y-32438600D02*
X117288500Y-32438600D01*
X117288000Y-84006500D02*
X117288000Y-92007500D01*
X115296000Y-94000000D02*
X108458000Y-94000000D01*
X117288000Y-92007500D02*
X115296000Y-94000000D01*
X38380800Y-65000000D02*
X38272800Y-64892000D01*
X47625000Y-65000000D02*
X38380800Y-65000000D01*
X38272800Y-64892000D02*
X38272800Y-69321600D01*
X38272800Y-46883400D02*
X38272800Y-64892000D01*
X38272800Y-25979200D02*
X38272800Y-37317600D01*
X38272800Y-37317600D02*
X38272800Y-46883400D01*
X117288000Y-49648300D02*
X117288000Y-54194900D01*
X117288000Y-54194900D02*
X117288000Y-62907100D01*
X117162000Y-39436700D02*
X117288000Y-39310500D01*
X108636000Y-39436700D02*
X117162000Y-39436700D01*
D19*
X108636000Y-39436700D02*
X108635800Y-39436700D01*
D20*
X116937000Y-50000000D02*
X117288000Y-49648300D01*
X108636000Y-50000000D02*
X116937000Y-50000000D01*
D19*
X108636000Y-50000000D02*
X108635800Y-50000000D01*
D21*
X122095000Y-56184800D02*
X122095000Y-55619100D01*
X121236000Y-54194900D02*
X117288000Y-54194900D01*
X122095000Y-55053400D02*
X121236000Y-54194900D01*
X122095000Y-55619100D02*
X122095000Y-55053400D01*
D19*
X122094600Y-55619500D02*
X122094600Y-56184800D01*
X122095000Y-55619100D02*
X122094600Y-55619500D01*
D21*
X122095000Y-78333600D02*
X122095000Y-77767900D01*
X117339000Y-75827700D02*
X117288000Y-75878500D01*
X120720000Y-75827700D02*
X117339000Y-75827700D01*
X122095000Y-77202200D02*
X120720000Y-75827700D01*
X122095000Y-77767900D02*
X122095000Y-77202200D01*
D19*
X122094600Y-77768300D02*
X122094600Y-78333600D01*
X122095000Y-77767900D02*
X122094600Y-77768300D01*
D21*
X122095000Y-102819000D02*
X122095000Y-99816300D01*
X122095000Y-96813600D02*
X117288000Y-92007500D01*
X122095000Y-99816300D02*
X122095000Y-96813600D01*
D19*
X122094600Y-99816700D02*
X122094600Y-102819200D01*
X122095000Y-99816300D02*
X122094600Y-99816700D01*
D20*
X118988000Y-32438600D02*
X120488000Y-30938600D01*
X117288500Y-32438600D02*
X118988000Y-32438600D01*
X115139000Y-22588800D02*
X47413600Y-22588800D01*
X121988000Y-29438600D02*
X115139000Y-22588800D01*
X120488000Y-30938600D02*
X121988000Y-29438600D01*
D19*
X120488500Y-30938600D02*
X121988500Y-29438600D01*
X120488000Y-30938600D02*
X120488500Y-30938600D01*
X110910500Y-30163900D02*
X108635800Y-27889200D01*
D20*
X113185000Y-32438600D02*
X110910500Y-30163900D01*
X117288000Y-32438600D02*
X113185000Y-32438600D01*
X110910500Y-30163900D02*
X108636000Y-27889200D01*
%TD*%
%TA.AperFunction,Conductor*%
%TO.N,GND*%
G36*
X126301621Y-22037302D02*
G01*
X126348114Y-22090958D01*
X126359500Y-22143300D01*
X126359500Y-105874300D01*
X126339498Y-105942421D01*
X126285842Y-105988914D01*
X126233500Y-106000300D01*
X34132100Y-106000300D01*
X34063979Y-105980298D01*
X34017486Y-105926642D01*
X34006100Y-105874300D01*
X34006100Y-103667334D01*
X118286100Y-103667334D01*
X118292855Y-103729516D01*
X118343985Y-103865905D01*
X118431339Y-103982461D01*
X118547895Y-104069815D01*
X118684284Y-104120945D01*
X118746466Y-104127700D01*
X120442734Y-104127700D01*
X120504916Y-104120945D01*
X120641305Y-104069815D01*
X120757861Y-103982461D01*
X120815719Y-103905262D01*
X121373093Y-103905262D01*
X121382389Y-103917277D01*
X121433594Y-103953131D01*
X121443089Y-103958614D01*
X121640547Y-104050690D01*
X121650839Y-104054436D01*
X121861288Y-104110825D01*
X121872081Y-104112728D01*
X122089125Y-104131717D01*
X122100075Y-104131717D01*
X122317119Y-104112728D01*
X122327912Y-104110825D01*
X122538361Y-104054436D01*
X122548653Y-104050690D01*
X122746111Y-103958614D01*
X122755606Y-103953131D01*
X122807648Y-103916691D01*
X122816024Y-103906212D01*
X122808956Y-103892766D01*
X122107412Y-103191222D01*
X122093468Y-103183608D01*
X122091635Y-103183739D01*
X122085020Y-103187990D01*
X121379523Y-103893487D01*
X121373093Y-103905262D01*
X120815719Y-103905262D01*
X120845215Y-103865905D01*
X120896345Y-103729516D01*
X120903100Y-103667334D01*
X120903100Y-103664015D01*
X120926753Y-103597090D01*
X120972756Y-103561396D01*
X120971741Y-103559466D01*
X120982600Y-103553758D01*
X120982845Y-103553568D01*
X120983003Y-103553547D01*
X121021034Y-103533556D01*
X121722578Y-102832012D01*
X121728956Y-102820332D01*
X122459008Y-102820332D01*
X122459139Y-102822165D01*
X122463390Y-102828780D01*
X123168887Y-103534277D01*
X123180662Y-103540707D01*
X123192677Y-103531411D01*
X123228531Y-103480206D01*
X123234014Y-103470711D01*
X123326090Y-103273253D01*
X123329836Y-103262961D01*
X123386225Y-103052512D01*
X123388128Y-103041719D01*
X123407117Y-102824675D01*
X123407117Y-102813725D01*
X123388128Y-102596681D01*
X123386225Y-102585888D01*
X123329836Y-102375439D01*
X123326090Y-102365147D01*
X123234014Y-102167689D01*
X123228531Y-102158194D01*
X123192091Y-102106152D01*
X123181612Y-102097776D01*
X123168166Y-102104844D01*
X122466622Y-102806388D01*
X122459008Y-102820332D01*
X121728956Y-102820332D01*
X121730192Y-102818068D01*
X121730061Y-102816235D01*
X121725810Y-102809620D01*
X121020313Y-102104123D01*
X120978571Y-102081329D01*
X120968571Y-102079153D01*
X120918373Y-102028947D01*
X120903149Y-101975386D01*
X120903100Y-101974481D01*
X120903100Y-101971066D01*
X120896345Y-101908884D01*
X120845215Y-101772495D01*
X120815007Y-101732188D01*
X121373176Y-101732188D01*
X121380244Y-101745634D01*
X122081788Y-102447178D01*
X122095732Y-102454792D01*
X122097565Y-102454661D01*
X122104180Y-102450410D01*
X122809677Y-101744913D01*
X122816107Y-101733138D01*
X122806811Y-101721123D01*
X122755606Y-101685269D01*
X122746111Y-101679786D01*
X122548653Y-101587710D01*
X122538361Y-101583964D01*
X122327912Y-101527575D01*
X122317119Y-101525672D01*
X122100075Y-101506683D01*
X122089125Y-101506683D01*
X121872081Y-101525672D01*
X121861288Y-101527575D01*
X121650839Y-101583964D01*
X121640547Y-101587710D01*
X121443089Y-101679786D01*
X121433594Y-101685269D01*
X121381552Y-101721709D01*
X121373176Y-101732188D01*
X120815007Y-101732188D01*
X120757861Y-101655939D01*
X120641305Y-101568585D01*
X120504916Y-101517455D01*
X120442734Y-101510700D01*
X118746466Y-101510700D01*
X118684284Y-101517455D01*
X118547895Y-101568585D01*
X118431339Y-101655939D01*
X118343985Y-101772495D01*
X118292855Y-101908884D01*
X118286100Y-101971066D01*
X118286100Y-103667334D01*
X34006100Y-103667334D01*
X34006100Y-94650400D01*
X46139500Y-94650400D01*
X46139837Y-94653646D01*
X46139837Y-94653650D01*
X46144961Y-94703028D01*
X46150474Y-94756166D01*
X46152655Y-94762702D01*
X46152655Y-94762704D01*
X46196728Y-94894806D01*
X46206450Y-94923946D01*
X46299522Y-95074348D01*
X46424697Y-95199305D01*
X46430927Y-95203145D01*
X46430928Y-95203146D01*
X46568090Y-95287694D01*
X46575262Y-95292115D01*
X46627915Y-95309579D01*
X46736611Y-95345632D01*
X46736613Y-95345632D01*
X46743139Y-95347797D01*
X46749975Y-95348497D01*
X46749978Y-95348498D01*
X46784531Y-95352038D01*
X46847600Y-95358500D01*
X48148400Y-95358500D01*
X48151646Y-95358163D01*
X48151650Y-95358163D01*
X48247308Y-95348238D01*
X48247312Y-95348237D01*
X48254166Y-95347526D01*
X48260702Y-95345345D01*
X48260704Y-95345345D01*
X48392806Y-95301272D01*
X48421946Y-95291550D01*
X48572348Y-95198478D01*
X48697305Y-95073303D01*
X48790115Y-94922738D01*
X48792418Y-94915795D01*
X48794763Y-94910766D01*
X48841680Y-94857481D01*
X48909958Y-94838021D01*
X48977918Y-94858564D01*
X49004194Y-94881520D01*
X49080860Y-94970025D01*
X49084250Y-94973938D01*
X49256126Y-95116632D01*
X49449000Y-95229338D01*
X49657692Y-95309030D01*
X49662760Y-95310061D01*
X49662763Y-95310062D01*
X49767604Y-95331392D01*
X49876597Y-95353567D01*
X49881772Y-95353757D01*
X49881774Y-95353757D01*
X50094673Y-95361564D01*
X50094677Y-95361564D01*
X50099837Y-95361753D01*
X50104957Y-95361097D01*
X50104959Y-95361097D01*
X50316288Y-95334025D01*
X50316289Y-95334025D01*
X50321416Y-95333368D01*
X50326366Y-95331883D01*
X50530429Y-95270661D01*
X50530434Y-95270659D01*
X50535384Y-95269174D01*
X50735994Y-95170896D01*
X50917860Y-95041173D01*
X51076096Y-94883489D01*
X51206453Y-94702077D01*
X51207776Y-94703028D01*
X51254645Y-94659857D01*
X51324580Y-94647625D01*
X51390026Y-94675144D01*
X51417875Y-94706994D01*
X51477987Y-94805088D01*
X51624250Y-94973938D01*
X51796126Y-95116632D01*
X51989000Y-95229338D01*
X52197692Y-95309030D01*
X52202760Y-95310061D01*
X52202763Y-95310062D01*
X52307604Y-95331392D01*
X52416597Y-95353567D01*
X52421772Y-95353757D01*
X52421774Y-95353757D01*
X52634673Y-95361564D01*
X52634677Y-95361564D01*
X52639837Y-95361753D01*
X52644957Y-95361097D01*
X52644959Y-95361097D01*
X52856288Y-95334025D01*
X52856289Y-95334025D01*
X52861416Y-95333368D01*
X52866366Y-95331883D01*
X53070429Y-95270661D01*
X53070434Y-95270659D01*
X53075384Y-95269174D01*
X53275994Y-95170896D01*
X53457860Y-95041173D01*
X53616096Y-94883489D01*
X53746453Y-94702077D01*
X53747776Y-94703028D01*
X53794645Y-94659857D01*
X53864580Y-94647625D01*
X53930026Y-94675144D01*
X53957875Y-94706994D01*
X54017987Y-94805088D01*
X54164250Y-94973938D01*
X54336126Y-95116632D01*
X54529000Y-95229338D01*
X54737692Y-95309030D01*
X54742760Y-95310061D01*
X54742763Y-95310062D01*
X54847604Y-95331392D01*
X54956597Y-95353567D01*
X54961772Y-95353757D01*
X54961774Y-95353757D01*
X55174673Y-95361564D01*
X55174677Y-95361564D01*
X55179837Y-95361753D01*
X55184957Y-95361097D01*
X55184959Y-95361097D01*
X55396288Y-95334025D01*
X55396289Y-95334025D01*
X55401416Y-95333368D01*
X55406366Y-95331883D01*
X55610429Y-95270661D01*
X55610434Y-95270659D01*
X55615384Y-95269174D01*
X55815994Y-95170896D01*
X55997860Y-95041173D01*
X56156096Y-94883489D01*
X56286453Y-94702077D01*
X56287776Y-94703028D01*
X56334645Y-94659857D01*
X56404580Y-94647625D01*
X56470026Y-94675144D01*
X56497875Y-94706994D01*
X56557987Y-94805088D01*
X56704250Y-94973938D01*
X56876126Y-95116632D01*
X57069000Y-95229338D01*
X57277692Y-95309030D01*
X57282760Y-95310061D01*
X57282763Y-95310062D01*
X57387604Y-95331392D01*
X57496597Y-95353567D01*
X57501772Y-95353757D01*
X57501774Y-95353757D01*
X57714673Y-95361564D01*
X57714677Y-95361564D01*
X57719837Y-95361753D01*
X57724957Y-95361097D01*
X57724959Y-95361097D01*
X57936288Y-95334025D01*
X57936289Y-95334025D01*
X57941416Y-95333368D01*
X57946366Y-95331883D01*
X58150429Y-95270661D01*
X58150434Y-95270659D01*
X58155384Y-95269174D01*
X58355994Y-95170896D01*
X58537860Y-95041173D01*
X58696096Y-94883489D01*
X58826453Y-94702077D01*
X58827776Y-94703028D01*
X58874645Y-94659857D01*
X58944580Y-94647625D01*
X59010026Y-94675144D01*
X59037875Y-94706994D01*
X59097987Y-94805088D01*
X59244250Y-94973938D01*
X59416126Y-95116632D01*
X59609000Y-95229338D01*
X59817692Y-95309030D01*
X59822760Y-95310061D01*
X59822763Y-95310062D01*
X59927604Y-95331392D01*
X60036597Y-95353567D01*
X60041772Y-95353757D01*
X60041774Y-95353757D01*
X60254673Y-95361564D01*
X60254677Y-95361564D01*
X60259837Y-95361753D01*
X60264957Y-95361097D01*
X60264959Y-95361097D01*
X60476288Y-95334025D01*
X60476289Y-95334025D01*
X60481416Y-95333368D01*
X60486366Y-95331883D01*
X60690429Y-95270661D01*
X60690434Y-95270659D01*
X60695384Y-95269174D01*
X60895994Y-95170896D01*
X61077860Y-95041173D01*
X61236096Y-94883489D01*
X61366453Y-94702077D01*
X61367776Y-94703028D01*
X61414645Y-94659857D01*
X61484580Y-94647625D01*
X61550026Y-94675144D01*
X61577875Y-94706994D01*
X61637987Y-94805088D01*
X61784250Y-94973938D01*
X61956126Y-95116632D01*
X62149000Y-95229338D01*
X62357692Y-95309030D01*
X62362760Y-95310061D01*
X62362763Y-95310062D01*
X62467604Y-95331392D01*
X62576597Y-95353567D01*
X62581772Y-95353757D01*
X62581774Y-95353757D01*
X62794673Y-95361564D01*
X62794677Y-95361564D01*
X62799837Y-95361753D01*
X62804957Y-95361097D01*
X62804959Y-95361097D01*
X63016288Y-95334025D01*
X63016289Y-95334025D01*
X63021416Y-95333368D01*
X63026366Y-95331883D01*
X63230429Y-95270661D01*
X63230434Y-95270659D01*
X63235384Y-95269174D01*
X63435994Y-95170896D01*
X63617860Y-95041173D01*
X63776096Y-94883489D01*
X63906453Y-94702077D01*
X63907776Y-94703028D01*
X63954645Y-94659857D01*
X64024580Y-94647625D01*
X64090026Y-94675144D01*
X64117875Y-94706994D01*
X64177987Y-94805088D01*
X64324250Y-94973938D01*
X64496126Y-95116632D01*
X64689000Y-95229338D01*
X64897692Y-95309030D01*
X64902760Y-95310061D01*
X64902763Y-95310062D01*
X65007604Y-95331392D01*
X65116597Y-95353567D01*
X65121772Y-95353757D01*
X65121774Y-95353757D01*
X65334673Y-95361564D01*
X65334677Y-95361564D01*
X65339837Y-95361753D01*
X65344957Y-95361097D01*
X65344959Y-95361097D01*
X65556288Y-95334025D01*
X65556289Y-95334025D01*
X65561416Y-95333368D01*
X65566366Y-95331883D01*
X65770429Y-95270661D01*
X65770434Y-95270659D01*
X65775384Y-95269174D01*
X65975994Y-95170896D01*
X66157860Y-95041173D01*
X66316096Y-94883489D01*
X66446453Y-94702077D01*
X66447776Y-94703028D01*
X66494645Y-94659857D01*
X66564580Y-94647625D01*
X66630026Y-94675144D01*
X66657875Y-94706994D01*
X66717987Y-94805088D01*
X66864250Y-94973938D01*
X67036126Y-95116632D01*
X67229000Y-95229338D01*
X67437692Y-95309030D01*
X67442760Y-95310061D01*
X67442763Y-95310062D01*
X67547604Y-95331392D01*
X67656597Y-95353567D01*
X67661772Y-95353757D01*
X67661774Y-95353757D01*
X67874673Y-95361564D01*
X67874677Y-95361564D01*
X67879837Y-95361753D01*
X67884957Y-95361097D01*
X67884959Y-95361097D01*
X68096288Y-95334025D01*
X68096289Y-95334025D01*
X68101416Y-95333368D01*
X68106366Y-95331883D01*
X68310429Y-95270661D01*
X68310434Y-95270659D01*
X68315384Y-95269174D01*
X68515994Y-95170896D01*
X68697860Y-95041173D01*
X68856096Y-94883489D01*
X68986453Y-94702077D01*
X68987776Y-94703028D01*
X69034645Y-94659857D01*
X69104580Y-94647625D01*
X69170026Y-94675144D01*
X69197875Y-94706994D01*
X69257987Y-94805088D01*
X69404250Y-94973938D01*
X69576126Y-95116632D01*
X69769000Y-95229338D01*
X69977692Y-95309030D01*
X69982760Y-95310061D01*
X69982763Y-95310062D01*
X70087604Y-95331392D01*
X70196597Y-95353567D01*
X70201772Y-95353757D01*
X70201774Y-95353757D01*
X70414673Y-95361564D01*
X70414677Y-95361564D01*
X70419837Y-95361753D01*
X70424957Y-95361097D01*
X70424959Y-95361097D01*
X70636288Y-95334025D01*
X70636289Y-95334025D01*
X70641416Y-95333368D01*
X70646366Y-95331883D01*
X70850429Y-95270661D01*
X70850434Y-95270659D01*
X70855384Y-95269174D01*
X71055994Y-95170896D01*
X71237860Y-95041173D01*
X71396096Y-94883489D01*
X71526453Y-94702077D01*
X71527776Y-94703028D01*
X71574645Y-94659857D01*
X71644580Y-94647625D01*
X71710026Y-94675144D01*
X71737875Y-94706994D01*
X71797987Y-94805088D01*
X71944250Y-94973938D01*
X72116126Y-95116632D01*
X72309000Y-95229338D01*
X72517692Y-95309030D01*
X72522760Y-95310061D01*
X72522763Y-95310062D01*
X72627604Y-95331392D01*
X72736597Y-95353567D01*
X72741772Y-95353757D01*
X72741774Y-95353757D01*
X72954673Y-95361564D01*
X72954677Y-95361564D01*
X72959837Y-95361753D01*
X72964957Y-95361097D01*
X72964959Y-95361097D01*
X73176288Y-95334025D01*
X73176289Y-95334025D01*
X73181416Y-95333368D01*
X73186366Y-95331883D01*
X73390429Y-95270661D01*
X73390434Y-95270659D01*
X73395384Y-95269174D01*
X73595994Y-95170896D01*
X73777860Y-95041173D01*
X73936096Y-94883489D01*
X74066453Y-94702077D01*
X74067776Y-94703028D01*
X74114645Y-94659857D01*
X74184580Y-94647625D01*
X74250026Y-94675144D01*
X74277875Y-94706994D01*
X74337987Y-94805088D01*
X74484250Y-94973938D01*
X74656126Y-95116632D01*
X74849000Y-95229338D01*
X75057692Y-95309030D01*
X75062760Y-95310061D01*
X75062763Y-95310062D01*
X75167604Y-95331392D01*
X75276597Y-95353567D01*
X75281772Y-95353757D01*
X75281774Y-95353757D01*
X75494673Y-95361564D01*
X75494677Y-95361564D01*
X75499837Y-95361753D01*
X75504957Y-95361097D01*
X75504959Y-95361097D01*
X75716288Y-95334025D01*
X75716289Y-95334025D01*
X75721416Y-95333368D01*
X75726366Y-95331883D01*
X75930429Y-95270661D01*
X75930434Y-95270659D01*
X75935384Y-95269174D01*
X76135994Y-95170896D01*
X76317860Y-95041173D01*
X76476096Y-94883489D01*
X76606453Y-94702077D01*
X76607776Y-94703028D01*
X76654645Y-94659857D01*
X76724580Y-94647625D01*
X76790026Y-94675144D01*
X76817875Y-94706994D01*
X76877987Y-94805088D01*
X77024250Y-94973938D01*
X77196126Y-95116632D01*
X77389000Y-95229338D01*
X77597692Y-95309030D01*
X77602760Y-95310061D01*
X77602763Y-95310062D01*
X77707604Y-95331392D01*
X77816597Y-95353567D01*
X77821772Y-95353757D01*
X77821774Y-95353757D01*
X78034673Y-95361564D01*
X78034677Y-95361564D01*
X78039837Y-95361753D01*
X78044957Y-95361097D01*
X78044959Y-95361097D01*
X78256288Y-95334025D01*
X78256289Y-95334025D01*
X78261416Y-95333368D01*
X78266366Y-95331883D01*
X78470429Y-95270661D01*
X78470434Y-95270659D01*
X78475384Y-95269174D01*
X78675994Y-95170896D01*
X78857860Y-95041173D01*
X79016096Y-94883489D01*
X79146453Y-94702077D01*
X79147776Y-94703028D01*
X79194645Y-94659857D01*
X79264580Y-94647625D01*
X79330026Y-94675144D01*
X79357875Y-94706994D01*
X79417987Y-94805088D01*
X79564250Y-94973938D01*
X79736126Y-95116632D01*
X79929000Y-95229338D01*
X80137692Y-95309030D01*
X80142760Y-95310061D01*
X80142763Y-95310062D01*
X80247604Y-95331392D01*
X80356597Y-95353567D01*
X80361772Y-95353757D01*
X80361774Y-95353757D01*
X80574673Y-95361564D01*
X80574677Y-95361564D01*
X80579837Y-95361753D01*
X80584957Y-95361097D01*
X80584959Y-95361097D01*
X80796288Y-95334025D01*
X80796289Y-95334025D01*
X80801416Y-95333368D01*
X80806366Y-95331883D01*
X81010429Y-95270661D01*
X81010434Y-95270659D01*
X81015384Y-95269174D01*
X81215994Y-95170896D01*
X81397860Y-95041173D01*
X81556096Y-94883489D01*
X81686453Y-94702077D01*
X81687776Y-94703028D01*
X81734645Y-94659857D01*
X81804580Y-94647625D01*
X81870026Y-94675144D01*
X81897875Y-94706994D01*
X81957987Y-94805088D01*
X82104250Y-94973938D01*
X82276126Y-95116632D01*
X82469000Y-95229338D01*
X82677692Y-95309030D01*
X82682760Y-95310061D01*
X82682763Y-95310062D01*
X82787604Y-95331392D01*
X82896597Y-95353567D01*
X82901772Y-95353757D01*
X82901774Y-95353757D01*
X83114673Y-95361564D01*
X83114677Y-95361564D01*
X83119837Y-95361753D01*
X83124957Y-95361097D01*
X83124959Y-95361097D01*
X83336288Y-95334025D01*
X83336289Y-95334025D01*
X83341416Y-95333368D01*
X83346366Y-95331883D01*
X83550429Y-95270661D01*
X83550434Y-95270659D01*
X83555384Y-95269174D01*
X83755994Y-95170896D01*
X83937860Y-95041173D01*
X84096096Y-94883489D01*
X84226453Y-94702077D01*
X84227776Y-94703028D01*
X84274645Y-94659857D01*
X84344580Y-94647625D01*
X84410026Y-94675144D01*
X84437875Y-94706994D01*
X84497987Y-94805088D01*
X84644250Y-94973938D01*
X84816126Y-95116632D01*
X85009000Y-95229338D01*
X85217692Y-95309030D01*
X85222760Y-95310061D01*
X85222763Y-95310062D01*
X85327604Y-95331392D01*
X85436597Y-95353567D01*
X85441772Y-95353757D01*
X85441774Y-95353757D01*
X85654673Y-95361564D01*
X85654677Y-95361564D01*
X85659837Y-95361753D01*
X85664957Y-95361097D01*
X85664959Y-95361097D01*
X85876288Y-95334025D01*
X85876289Y-95334025D01*
X85881416Y-95333368D01*
X85886366Y-95331883D01*
X86090429Y-95270661D01*
X86090434Y-95270659D01*
X86095384Y-95269174D01*
X86295994Y-95170896D01*
X86477860Y-95041173D01*
X86636096Y-94883489D01*
X86766453Y-94702077D01*
X86767776Y-94703028D01*
X86814645Y-94659857D01*
X86884580Y-94647625D01*
X86950026Y-94675144D01*
X86977875Y-94706994D01*
X87037987Y-94805088D01*
X87184250Y-94973938D01*
X87356126Y-95116632D01*
X87549000Y-95229338D01*
X87757692Y-95309030D01*
X87762760Y-95310061D01*
X87762763Y-95310062D01*
X87867604Y-95331392D01*
X87976597Y-95353567D01*
X87981772Y-95353757D01*
X87981774Y-95353757D01*
X88194673Y-95361564D01*
X88194677Y-95361564D01*
X88199837Y-95361753D01*
X88204957Y-95361097D01*
X88204959Y-95361097D01*
X88416288Y-95334025D01*
X88416289Y-95334025D01*
X88421416Y-95333368D01*
X88426366Y-95331883D01*
X88630429Y-95270661D01*
X88630434Y-95270659D01*
X88635384Y-95269174D01*
X88835994Y-95170896D01*
X89017860Y-95041173D01*
X89176096Y-94883489D01*
X89306453Y-94702077D01*
X89307776Y-94703028D01*
X89354645Y-94659857D01*
X89424580Y-94647625D01*
X89490026Y-94675144D01*
X89517875Y-94706994D01*
X89577987Y-94805088D01*
X89724250Y-94973938D01*
X89896126Y-95116632D01*
X90089000Y-95229338D01*
X90297692Y-95309030D01*
X90302760Y-95310061D01*
X90302763Y-95310062D01*
X90407604Y-95331392D01*
X90516597Y-95353567D01*
X90521772Y-95353757D01*
X90521774Y-95353757D01*
X90734673Y-95361564D01*
X90734677Y-95361564D01*
X90739837Y-95361753D01*
X90744957Y-95361097D01*
X90744959Y-95361097D01*
X90956288Y-95334025D01*
X90956289Y-95334025D01*
X90961416Y-95333368D01*
X90966366Y-95331883D01*
X91170429Y-95270661D01*
X91170434Y-95270659D01*
X91175384Y-95269174D01*
X91375994Y-95170896D01*
X91557860Y-95041173D01*
X91716096Y-94883489D01*
X91846453Y-94702077D01*
X91847776Y-94703028D01*
X91894645Y-94659857D01*
X91964580Y-94647625D01*
X92030026Y-94675144D01*
X92057875Y-94706994D01*
X92117987Y-94805088D01*
X92264250Y-94973938D01*
X92436126Y-95116632D01*
X92629000Y-95229338D01*
X92837692Y-95309030D01*
X92842760Y-95310061D01*
X92842763Y-95310062D01*
X92947604Y-95331392D01*
X93056597Y-95353567D01*
X93061772Y-95353757D01*
X93061774Y-95353757D01*
X93274673Y-95361564D01*
X93274677Y-95361564D01*
X93279837Y-95361753D01*
X93284957Y-95361097D01*
X93284959Y-95361097D01*
X93496288Y-95334025D01*
X93496289Y-95334025D01*
X93501416Y-95333368D01*
X93506366Y-95331883D01*
X93710429Y-95270661D01*
X93710434Y-95270659D01*
X93715384Y-95269174D01*
X93915994Y-95170896D01*
X94097860Y-95041173D01*
X94256096Y-94883489D01*
X94386453Y-94702077D01*
X94387776Y-94703028D01*
X94434645Y-94659857D01*
X94504580Y-94647625D01*
X94570026Y-94675144D01*
X94597875Y-94706994D01*
X94657987Y-94805088D01*
X94804250Y-94973938D01*
X94976126Y-95116632D01*
X95169000Y-95229338D01*
X95377692Y-95309030D01*
X95382760Y-95310061D01*
X95382763Y-95310062D01*
X95487604Y-95331392D01*
X95596597Y-95353567D01*
X95601772Y-95353757D01*
X95601774Y-95353757D01*
X95814673Y-95361564D01*
X95814677Y-95361564D01*
X95819837Y-95361753D01*
X95824957Y-95361097D01*
X95824959Y-95361097D01*
X96036288Y-95334025D01*
X96036289Y-95334025D01*
X96041416Y-95333368D01*
X96046366Y-95331883D01*
X96250429Y-95270661D01*
X96250434Y-95270659D01*
X96255384Y-95269174D01*
X96455994Y-95170896D01*
X96637860Y-95041173D01*
X96796096Y-94883489D01*
X96926453Y-94702077D01*
X96927776Y-94703028D01*
X96974645Y-94659857D01*
X97044580Y-94647625D01*
X97110026Y-94675144D01*
X97137875Y-94706994D01*
X97197987Y-94805088D01*
X97344250Y-94973938D01*
X97516126Y-95116632D01*
X97709000Y-95229338D01*
X97917692Y-95309030D01*
X97922760Y-95310061D01*
X97922763Y-95310062D01*
X98027604Y-95331392D01*
X98136597Y-95353567D01*
X98141772Y-95353757D01*
X98141774Y-95353757D01*
X98354673Y-95361564D01*
X98354677Y-95361564D01*
X98359837Y-95361753D01*
X98364957Y-95361097D01*
X98364959Y-95361097D01*
X98576288Y-95334025D01*
X98576289Y-95334025D01*
X98581416Y-95333368D01*
X98586366Y-95331883D01*
X98790429Y-95270661D01*
X98790434Y-95270659D01*
X98795384Y-95269174D01*
X98995994Y-95170896D01*
X99177860Y-95041173D01*
X99336096Y-94883489D01*
X99466453Y-94702077D01*
X99467776Y-94703028D01*
X99514645Y-94659857D01*
X99584580Y-94647625D01*
X99650026Y-94675144D01*
X99677875Y-94706994D01*
X99737987Y-94805088D01*
X99884250Y-94973938D01*
X100056126Y-95116632D01*
X100249000Y-95229338D01*
X100457692Y-95309030D01*
X100462760Y-95310061D01*
X100462763Y-95310062D01*
X100567604Y-95331392D01*
X100676597Y-95353567D01*
X100681772Y-95353757D01*
X100681774Y-95353757D01*
X100894673Y-95361564D01*
X100894677Y-95361564D01*
X100899837Y-95361753D01*
X100904957Y-95361097D01*
X100904959Y-95361097D01*
X101116288Y-95334025D01*
X101116289Y-95334025D01*
X101121416Y-95333368D01*
X101126366Y-95331883D01*
X101330429Y-95270661D01*
X101330434Y-95270659D01*
X101335384Y-95269174D01*
X101535994Y-95170896D01*
X101717860Y-95041173D01*
X101876096Y-94883489D01*
X102006453Y-94702077D01*
X102007776Y-94703028D01*
X102054645Y-94659857D01*
X102124580Y-94647625D01*
X102190026Y-94675144D01*
X102217875Y-94706994D01*
X102277987Y-94805088D01*
X102424250Y-94973938D01*
X102596126Y-95116632D01*
X102789000Y-95229338D01*
X102997692Y-95309030D01*
X103002760Y-95310061D01*
X103002763Y-95310062D01*
X103107604Y-95331392D01*
X103216597Y-95353567D01*
X103221772Y-95353757D01*
X103221774Y-95353757D01*
X103434673Y-95361564D01*
X103434677Y-95361564D01*
X103439837Y-95361753D01*
X103444957Y-95361097D01*
X103444959Y-95361097D01*
X103656288Y-95334025D01*
X103656289Y-95334025D01*
X103661416Y-95333368D01*
X103666366Y-95331883D01*
X103870429Y-95270661D01*
X103870434Y-95270659D01*
X103875384Y-95269174D01*
X104075994Y-95170896D01*
X104257860Y-95041173D01*
X104416096Y-94883489D01*
X104546453Y-94702077D01*
X104547776Y-94703028D01*
X104594645Y-94659857D01*
X104664580Y-94647625D01*
X104730026Y-94675144D01*
X104757875Y-94706994D01*
X104817987Y-94805088D01*
X104964250Y-94973938D01*
X105136126Y-95116632D01*
X105329000Y-95229338D01*
X105537692Y-95309030D01*
X105542760Y-95310061D01*
X105542763Y-95310062D01*
X105647604Y-95331392D01*
X105756597Y-95353567D01*
X105761772Y-95353757D01*
X105761774Y-95353757D01*
X105974673Y-95361564D01*
X105974677Y-95361564D01*
X105979837Y-95361753D01*
X105984957Y-95361097D01*
X105984959Y-95361097D01*
X106196288Y-95334025D01*
X106196289Y-95334025D01*
X106201416Y-95333368D01*
X106206366Y-95331883D01*
X106410429Y-95270661D01*
X106410434Y-95270659D01*
X106415384Y-95269174D01*
X106615994Y-95170896D01*
X106680544Y-95124853D01*
X107697977Y-95124853D01*
X107703258Y-95131907D01*
X107864756Y-95226279D01*
X107874042Y-95230729D01*
X108073001Y-95306703D01*
X108082899Y-95309579D01*
X108291595Y-95352038D01*
X108301823Y-95353257D01*
X108514650Y-95361062D01*
X108524936Y-95360595D01*
X108736185Y-95333534D01*
X108746262Y-95331392D01*
X108950255Y-95270191D01*
X108959842Y-95266433D01*
X109151098Y-95172738D01*
X109159944Y-95167465D01*
X109207247Y-95133723D01*
X109215648Y-95123023D01*
X109208660Y-95109870D01*
X108470812Y-94372022D01*
X108456868Y-94364408D01*
X108455035Y-94364539D01*
X108448420Y-94368790D01*
X107704737Y-95112473D01*
X107697977Y-95124853D01*
X106680544Y-95124853D01*
X106797860Y-95041173D01*
X106956096Y-94883489D01*
X107086453Y-94702077D01*
X107087640Y-94702930D01*
X107134960Y-94659362D01*
X107204897Y-94647145D01*
X107270338Y-94674678D01*
X107298166Y-94706512D01*
X107324459Y-94749419D01*
X107334916Y-94758880D01*
X107343694Y-94755096D01*
X108097658Y-94001132D01*
X108822408Y-94001132D01*
X108822539Y-94002965D01*
X108826790Y-94009580D01*
X109568474Y-94751264D01*
X109580484Y-94757823D01*
X109592223Y-94748855D01*
X109623004Y-94706019D01*
X109628315Y-94697180D01*
X109722670Y-94506267D01*
X109726469Y-94496672D01*
X109788376Y-94292915D01*
X109790555Y-94282834D01*
X109818590Y-94069887D01*
X109819109Y-94063212D01*
X109820572Y-94003364D01*
X109820378Y-93996646D01*
X109802781Y-93782604D01*
X109801096Y-93772424D01*
X109749214Y-93565875D01*
X109745894Y-93556124D01*
X109660972Y-93360814D01*
X109656105Y-93351739D01*
X109591063Y-93251197D01*
X109580377Y-93241995D01*
X109570812Y-93246398D01*
X108830022Y-93987188D01*
X108822408Y-94001132D01*
X108097658Y-94001132D01*
X109211389Y-92887401D01*
X109218410Y-92874544D01*
X109211611Y-92865213D01*
X109207559Y-92862521D01*
X109170602Y-92842120D01*
X109120631Y-92791687D01*
X109105859Y-92722245D01*
X109130975Y-92655839D01*
X109158327Y-92629232D01*
X109181797Y-92612491D01*
X109337860Y-92501173D01*
X109496096Y-92343489D01*
X109626453Y-92162077D01*
X109647320Y-92119857D01*
X109723136Y-91966453D01*
X109723137Y-91966451D01*
X109725430Y-91961811D01*
X109790370Y-91748069D01*
X109819529Y-91526590D01*
X109821156Y-91460000D01*
X109802852Y-91237361D01*
X109748431Y-91020702D01*
X109659354Y-90815840D01*
X109538014Y-90628277D01*
X109387670Y-90463051D01*
X109383619Y-90459852D01*
X109383615Y-90459848D01*
X109216414Y-90327800D01*
X109216410Y-90327798D01*
X109212359Y-90324598D01*
X109207835Y-90322101D01*
X109207831Y-90322098D01*
X109156608Y-90293822D01*
X109106636Y-90243390D01*
X109091500Y-90183513D01*
X109091500Y-88293515D01*
X109111502Y-88225394D01*
X109162068Y-88180364D01*
X109173901Y-88174567D01*
X109176753Y-88173170D01*
X109176757Y-88173168D01*
X109181394Y-88170896D01*
X109185598Y-88167898D01*
X109185602Y-88167895D01*
X109262103Y-88113327D01*
X109363260Y-88041173D01*
X109521496Y-87883489D01*
X109651853Y-87702077D01*
X109672720Y-87659857D01*
X109748536Y-87506453D01*
X109748537Y-87506451D01*
X109750830Y-87501811D01*
X109815770Y-87288069D01*
X109844929Y-87066590D01*
X109846556Y-87000000D01*
X109828252Y-86777361D01*
X109773831Y-86560702D01*
X109684754Y-86355840D01*
X109563414Y-86168277D01*
X109413070Y-86003051D01*
X109409019Y-85999852D01*
X109409015Y-85999848D01*
X109241814Y-85867800D01*
X109241810Y-85867798D01*
X109237759Y-85864598D01*
X109195969Y-85841529D01*
X109145998Y-85791097D01*
X109131226Y-85721654D01*
X109156342Y-85655248D01*
X109183693Y-85628642D01*
X109232647Y-85593723D01*
X109241048Y-85583023D01*
X109234060Y-85569870D01*
X107373249Y-83709059D01*
X107361713Y-83702759D01*
X107349431Y-83712382D01*
X107316899Y-83760072D01*
X107261987Y-83805075D01*
X107191463Y-83813246D01*
X107127716Y-83781992D01*
X107107018Y-83757508D01*
X107026222Y-83632617D01*
X107026220Y-83632614D01*
X107023414Y-83628277D01*
X106873070Y-83463051D01*
X106869019Y-83459852D01*
X106869015Y-83459848D01*
X106712738Y-83336427D01*
X107724623Y-83336427D01*
X107731368Y-83348758D01*
X109593874Y-85211264D01*
X109605884Y-85217823D01*
X109617623Y-85208855D01*
X109648404Y-85166019D01*
X109653715Y-85157180D01*
X109748070Y-84966267D01*
X109751869Y-84956672D01*
X109813776Y-84752915D01*
X109815955Y-84742834D01*
X109843990Y-84529887D01*
X109844509Y-84523212D01*
X109845972Y-84463364D01*
X109845778Y-84456646D01*
X109828181Y-84242604D01*
X109826496Y-84232424D01*
X109774614Y-84025875D01*
X109771294Y-84016124D01*
X109686372Y-83820814D01*
X109681506Y-83811739D01*
X109645795Y-83756539D01*
X109625588Y-83688479D01*
X109645384Y-83620298D01*
X109698899Y-83573644D01*
X109704708Y-83571372D01*
X109706488Y-83570994D01*
X109712354Y-83568382D01*
X109712365Y-83568378D01*
X109874922Y-83496003D01*
X109874924Y-83496002D01*
X109880952Y-83493318D01*
X109917355Y-83466870D01*
X110019126Y-83392928D01*
X110035453Y-83381066D01*
X110099406Y-83310039D01*
X110158821Y-83244052D01*
X110158822Y-83244051D01*
X110163240Y-83239144D01*
X110241941Y-83102831D01*
X110255423Y-83079479D01*
X110255424Y-83079478D01*
X110258727Y-83073756D01*
X110317742Y-82892128D01*
X110337704Y-82702200D01*
X110317742Y-82512272D01*
X110258727Y-82330644D01*
X110163240Y-82165256D01*
X110090063Y-82083985D01*
X110059347Y-82019979D01*
X110057700Y-81999676D01*
X110057700Y-79181734D01*
X118286100Y-79181734D01*
X118292855Y-79243916D01*
X118343985Y-79380305D01*
X118431339Y-79496861D01*
X118547895Y-79584215D01*
X118684284Y-79635345D01*
X118746466Y-79642100D01*
X120442734Y-79642100D01*
X120504916Y-79635345D01*
X120641305Y-79584215D01*
X120757861Y-79496861D01*
X120815719Y-79419662D01*
X121373093Y-79419662D01*
X121382389Y-79431677D01*
X121433594Y-79467531D01*
X121443089Y-79473014D01*
X121640547Y-79565090D01*
X121650839Y-79568836D01*
X121861288Y-79625225D01*
X121872081Y-79627128D01*
X122089125Y-79646117D01*
X122100075Y-79646117D01*
X122317119Y-79627128D01*
X122327912Y-79625225D01*
X122538361Y-79568836D01*
X122548653Y-79565090D01*
X122746111Y-79473014D01*
X122755606Y-79467531D01*
X122807648Y-79431091D01*
X122816024Y-79420612D01*
X122808956Y-79407166D01*
X122107412Y-78705622D01*
X122093468Y-78698008D01*
X122091635Y-78698139D01*
X122085020Y-78702390D01*
X121379523Y-79407887D01*
X121373093Y-79419662D01*
X120815719Y-79419662D01*
X120845215Y-79380305D01*
X120896345Y-79243916D01*
X120903100Y-79181734D01*
X120903100Y-79178415D01*
X120926753Y-79111490D01*
X120972756Y-79075796D01*
X120971741Y-79073866D01*
X120982600Y-79068158D01*
X120982845Y-79067968D01*
X120983003Y-79067947D01*
X121021034Y-79047956D01*
X121722578Y-78346412D01*
X121728956Y-78334732D01*
X122459008Y-78334732D01*
X122459139Y-78336565D01*
X122463390Y-78343180D01*
X123168887Y-79048677D01*
X123180662Y-79055107D01*
X123192677Y-79045811D01*
X123228531Y-78994606D01*
X123234014Y-78985111D01*
X123326090Y-78787653D01*
X123329836Y-78777361D01*
X123386225Y-78566912D01*
X123388128Y-78556119D01*
X123407117Y-78339075D01*
X123407117Y-78328125D01*
X123388128Y-78111081D01*
X123386225Y-78100288D01*
X123329836Y-77889839D01*
X123326090Y-77879547D01*
X123234014Y-77682089D01*
X123228531Y-77672594D01*
X123192091Y-77620552D01*
X123181612Y-77612176D01*
X123168166Y-77619244D01*
X122466622Y-78320788D01*
X122459008Y-78334732D01*
X121728956Y-78334732D01*
X121730192Y-78332468D01*
X121730061Y-78330635D01*
X121725810Y-78324020D01*
X121020313Y-77618523D01*
X120978571Y-77595729D01*
X120968571Y-77593553D01*
X120918373Y-77543347D01*
X120903149Y-77489786D01*
X120903100Y-77488881D01*
X120903100Y-77485466D01*
X120896345Y-77423284D01*
X120845215Y-77286895D01*
X120815007Y-77246588D01*
X121373176Y-77246588D01*
X121380244Y-77260034D01*
X122081788Y-77961578D01*
X122095732Y-77969192D01*
X122097565Y-77969061D01*
X122104180Y-77964810D01*
X122809677Y-77259313D01*
X122816107Y-77247538D01*
X122806811Y-77235523D01*
X122755606Y-77199669D01*
X122746111Y-77194186D01*
X122548653Y-77102110D01*
X122538361Y-77098364D01*
X122327912Y-77041975D01*
X122317119Y-77040072D01*
X122100075Y-77021083D01*
X122089125Y-77021083D01*
X121872081Y-77040072D01*
X121861288Y-77041975D01*
X121650839Y-77098364D01*
X121640547Y-77102110D01*
X121443089Y-77194186D01*
X121433594Y-77199669D01*
X121381552Y-77236109D01*
X121373176Y-77246588D01*
X120815007Y-77246588D01*
X120757861Y-77170339D01*
X120641305Y-77082985D01*
X120504916Y-77031855D01*
X120442734Y-77025100D01*
X118746466Y-77025100D01*
X118684284Y-77031855D01*
X118547895Y-77082985D01*
X118431339Y-77170339D01*
X118343985Y-77286895D01*
X118292855Y-77423284D01*
X118286100Y-77485466D01*
X118286100Y-79181734D01*
X110057700Y-79181734D01*
X110057700Y-78265524D01*
X110077702Y-78197403D01*
X110090058Y-78181221D01*
X110163240Y-78099944D01*
X110238730Y-77969192D01*
X110255423Y-77940279D01*
X110255424Y-77940278D01*
X110258727Y-77934556D01*
X110317742Y-77752928D01*
X110325188Y-77682089D01*
X110337014Y-77569565D01*
X110337704Y-77563000D01*
X110323845Y-77431140D01*
X110318432Y-77379635D01*
X110318432Y-77379633D01*
X110317742Y-77373072D01*
X110258727Y-77191444D01*
X110250688Y-77177519D01*
X110171332Y-77040072D01*
X110163240Y-77026056D01*
X110035453Y-76884134D01*
X109936357Y-76812136D01*
X109886294Y-76775763D01*
X109886293Y-76775762D01*
X109880952Y-76771882D01*
X109874924Y-76769198D01*
X109874922Y-76769197D01*
X109712519Y-76696891D01*
X109712518Y-76696891D01*
X109706488Y-76694206D01*
X109613088Y-76674353D01*
X109526144Y-76655872D01*
X109526139Y-76655872D01*
X109519687Y-76654500D01*
X109328713Y-76654500D01*
X109322261Y-76655872D01*
X109322256Y-76655872D01*
X109235312Y-76674353D01*
X109141912Y-76694206D01*
X109135882Y-76696891D01*
X109135881Y-76696891D01*
X108973478Y-76769197D01*
X108973476Y-76769198D01*
X108967448Y-76771882D01*
X108962107Y-76775762D01*
X108962106Y-76775763D01*
X108912043Y-76812136D01*
X108812947Y-76884134D01*
X108685160Y-77026056D01*
X108677068Y-77040072D01*
X108597713Y-77177519D01*
X108589673Y-77191444D01*
X108530658Y-77373072D01*
X108529968Y-77379633D01*
X108529968Y-77379635D01*
X108524555Y-77431140D01*
X108510696Y-77563000D01*
X108511386Y-77569565D01*
X108523213Y-77682089D01*
X108530658Y-77752928D01*
X108589673Y-77934556D01*
X108592976Y-77940278D01*
X108592977Y-77940279D01*
X108609670Y-77969192D01*
X108685160Y-78099944D01*
X108758337Y-78181215D01*
X108789053Y-78245221D01*
X108790700Y-78265524D01*
X108790700Y-81999676D01*
X108770698Y-82067797D01*
X108758342Y-82083979D01*
X108685160Y-82165256D01*
X108589673Y-82330644D01*
X108530658Y-82512272D01*
X108510696Y-82702200D01*
X108530658Y-82892128D01*
X108539464Y-82919228D01*
X108544968Y-82936168D01*
X108546996Y-83007136D01*
X108510333Y-83067934D01*
X108446621Y-83099259D01*
X108423594Y-83101096D01*
X108393515Y-83100728D01*
X108383232Y-83101448D01*
X108172721Y-83133661D01*
X108162693Y-83136050D01*
X107960268Y-83202212D01*
X107950759Y-83206209D01*
X107761866Y-83304540D01*
X107753134Y-83310039D01*
X107733077Y-83325099D01*
X107724623Y-83336427D01*
X106712738Y-83336427D01*
X106701814Y-83327800D01*
X106701810Y-83327798D01*
X106697759Y-83324598D01*
X106693235Y-83322101D01*
X106693231Y-83322098D01*
X106642008Y-83293822D01*
X106592036Y-83243390D01*
X106576900Y-83183513D01*
X106576900Y-73330845D01*
X106596902Y-73262724D01*
X106647466Y-73217695D01*
X106742994Y-73170896D01*
X106747200Y-73167896D01*
X106747202Y-73167895D01*
X106807544Y-73124853D01*
X107824977Y-73124853D01*
X107830258Y-73131907D01*
X107991756Y-73226279D01*
X108001042Y-73230729D01*
X108200001Y-73306703D01*
X108209899Y-73309579D01*
X108418595Y-73352038D01*
X108428823Y-73353257D01*
X108641650Y-73361062D01*
X108651936Y-73360595D01*
X108863185Y-73333534D01*
X108873262Y-73331392D01*
X109077255Y-73270191D01*
X109086842Y-73266433D01*
X109278098Y-73172738D01*
X109286944Y-73167465D01*
X109334247Y-73133723D01*
X109342648Y-73123023D01*
X109335660Y-73109870D01*
X108597812Y-72372022D01*
X108583868Y-72364408D01*
X108582035Y-72364539D01*
X108575420Y-72368790D01*
X107831737Y-73112473D01*
X107824977Y-73124853D01*
X106807544Y-73124853D01*
X106823703Y-73113327D01*
X106924860Y-73041173D01*
X107083096Y-72883489D01*
X107213453Y-72702077D01*
X107214640Y-72702930D01*
X107261960Y-72659362D01*
X107331897Y-72647145D01*
X107397338Y-72674678D01*
X107425166Y-72706512D01*
X107451459Y-72749419D01*
X107461916Y-72758880D01*
X107470694Y-72755096D01*
X108212978Y-72012812D01*
X108219356Y-72001132D01*
X108949408Y-72001132D01*
X108949539Y-72002965D01*
X108953790Y-72009580D01*
X109695474Y-72751264D01*
X109707484Y-72757823D01*
X109719223Y-72748855D01*
X109750004Y-72706019D01*
X109755315Y-72697180D01*
X109849670Y-72506267D01*
X109853469Y-72496672D01*
X109915376Y-72292915D01*
X109917555Y-72282834D01*
X109945590Y-72069887D01*
X109946109Y-72063212D01*
X109947572Y-72003364D01*
X109947378Y-71996646D01*
X109929781Y-71782604D01*
X109928096Y-71772424D01*
X109876214Y-71565875D01*
X109872894Y-71556124D01*
X109787972Y-71360814D01*
X109783105Y-71351739D01*
X109718063Y-71251197D01*
X109707377Y-71241995D01*
X109697812Y-71246398D01*
X108957022Y-71987188D01*
X108949408Y-72001132D01*
X108219356Y-72001132D01*
X108220592Y-71998868D01*
X108220461Y-71997035D01*
X108216210Y-71990420D01*
X107474849Y-71249059D01*
X107463313Y-71242759D01*
X107451031Y-71252382D01*
X107418499Y-71300072D01*
X107363587Y-71345075D01*
X107293063Y-71353246D01*
X107229316Y-71321992D01*
X107208618Y-71297508D01*
X107127822Y-71172617D01*
X107127820Y-71172614D01*
X107125014Y-71168277D01*
X106974670Y-71003051D01*
X106970619Y-70999852D01*
X106970615Y-70999848D01*
X106803414Y-70867800D01*
X106803410Y-70867798D01*
X106799359Y-70864598D01*
X106758053Y-70841796D01*
X106708084Y-70791364D01*
X106693312Y-70721921D01*
X106718428Y-70655516D01*
X106745780Y-70628909D01*
X106789603Y-70597650D01*
X106924860Y-70501173D01*
X107083096Y-70343489D01*
X107213453Y-70162077D01*
X107214776Y-70163028D01*
X107261645Y-70119857D01*
X107331580Y-70107625D01*
X107397026Y-70135144D01*
X107424875Y-70166994D01*
X107484987Y-70265088D01*
X107631250Y-70433938D01*
X107803126Y-70576632D01*
X107867312Y-70614139D01*
X107876955Y-70619774D01*
X107925679Y-70671412D01*
X107938750Y-70741195D01*
X107912019Y-70806967D01*
X107871562Y-70840327D01*
X107863460Y-70844544D01*
X107854734Y-70850039D01*
X107834677Y-70865099D01*
X107826223Y-70876427D01*
X107832968Y-70888758D01*
X108572188Y-71627978D01*
X108586132Y-71635592D01*
X108587965Y-71635461D01*
X108594580Y-71631210D01*
X109338389Y-70887401D01*
X109345410Y-70874544D01*
X109338611Y-70865213D01*
X109334559Y-70862521D01*
X109297602Y-70842120D01*
X109247631Y-70791687D01*
X109232859Y-70722245D01*
X109257975Y-70655839D01*
X109285327Y-70629232D01*
X109308797Y-70612491D01*
X109464860Y-70501173D01*
X109623096Y-70343489D01*
X109753453Y-70162077D01*
X109774320Y-70119857D01*
X109850136Y-69966453D01*
X109850137Y-69966451D01*
X109852430Y-69961811D01*
X109917370Y-69748069D01*
X109946529Y-69526590D01*
X109948156Y-69460000D01*
X109929852Y-69237361D01*
X109875431Y-69020702D01*
X109786354Y-68815840D01*
X109665014Y-68628277D01*
X109514670Y-68463051D01*
X109510619Y-68459852D01*
X109510615Y-68459848D01*
X109343414Y-68327800D01*
X109343410Y-68327798D01*
X109339359Y-68324598D01*
X109334835Y-68322101D01*
X109334831Y-68322098D01*
X109283608Y-68293822D01*
X109233636Y-68243390D01*
X109218500Y-68183513D01*
X109218500Y-66280427D01*
X109238502Y-66212306D01*
X109279618Y-66172550D01*
X109282994Y-66170896D01*
X109464860Y-66041173D01*
X109623096Y-65883489D01*
X109753453Y-65702077D01*
X109774320Y-65659857D01*
X109850136Y-65506453D01*
X109850137Y-65506451D01*
X109852430Y-65501811D01*
X109917370Y-65288069D01*
X109946529Y-65066590D01*
X109948156Y-65000000D01*
X109929852Y-64777361D01*
X109875431Y-64560702D01*
X109786354Y-64355840D01*
X109665014Y-64168277D01*
X109514670Y-64003051D01*
X109510619Y-63999852D01*
X109510615Y-63999848D01*
X109343414Y-63867800D01*
X109343410Y-63867798D01*
X109339359Y-63864598D01*
X109297569Y-63841529D01*
X109247598Y-63791097D01*
X109232826Y-63721654D01*
X109257942Y-63655248D01*
X109285293Y-63628642D01*
X109334247Y-63593723D01*
X109342648Y-63583023D01*
X109335660Y-63569870D01*
X108597812Y-62832022D01*
X108583868Y-62824408D01*
X108582035Y-62824539D01*
X108575420Y-62828790D01*
X107831737Y-63572473D01*
X107824977Y-63584853D01*
X107830258Y-63591907D01*
X107876969Y-63619203D01*
X107925693Y-63670841D01*
X107938764Y-63740624D01*
X107912033Y-63806396D01*
X107871584Y-63839752D01*
X107858607Y-63846507D01*
X107854474Y-63849610D01*
X107854471Y-63849612D01*
X107684100Y-63977530D01*
X107679965Y-63980635D01*
X107525629Y-64142138D01*
X107418201Y-64299621D01*
X107363293Y-64344621D01*
X107292768Y-64352792D01*
X107229021Y-64321538D01*
X107208324Y-64297054D01*
X107127822Y-64172617D01*
X107127820Y-64172614D01*
X107125014Y-64168277D01*
X106974670Y-64003051D01*
X106970619Y-63999852D01*
X106970615Y-63999848D01*
X106803414Y-63867800D01*
X106803410Y-63867798D01*
X106799359Y-63864598D01*
X106758053Y-63841796D01*
X106708084Y-63791364D01*
X106693312Y-63721921D01*
X106718428Y-63655516D01*
X106745780Y-63628909D01*
X106810110Y-63583023D01*
X106924860Y-63501173D01*
X107083096Y-63343489D01*
X107213453Y-63162077D01*
X107214640Y-63162930D01*
X107261960Y-63119362D01*
X107331897Y-63107145D01*
X107397338Y-63134678D01*
X107425166Y-63166512D01*
X107451459Y-63209419D01*
X107461916Y-63218880D01*
X107470694Y-63215096D01*
X108224658Y-62461132D01*
X108949408Y-62461132D01*
X108949539Y-62462965D01*
X108953790Y-62469580D01*
X109695474Y-63211264D01*
X109707484Y-63217823D01*
X109719223Y-63208855D01*
X109750004Y-63166019D01*
X109755315Y-63157180D01*
X109849670Y-62966267D01*
X109853469Y-62956672D01*
X109915376Y-62752915D01*
X109917555Y-62742834D01*
X109945590Y-62529887D01*
X109946109Y-62523212D01*
X109947572Y-62463364D01*
X109947378Y-62456646D01*
X109929781Y-62242604D01*
X109928096Y-62232424D01*
X109876214Y-62025875D01*
X109872894Y-62016124D01*
X109787972Y-61820814D01*
X109783105Y-61811739D01*
X109718063Y-61711197D01*
X109707377Y-61701995D01*
X109697812Y-61706398D01*
X108957022Y-62447188D01*
X108949408Y-62461132D01*
X108224658Y-62461132D01*
X109338389Y-61347401D01*
X109345410Y-61334544D01*
X109338611Y-61325213D01*
X109334554Y-61322518D01*
X109148117Y-61219599D01*
X109138705Y-61215369D01*
X108937959Y-61144280D01*
X108927989Y-61141646D01*
X108718327Y-61104301D01*
X108708073Y-61103331D01*
X108495116Y-61100728D01*
X108484834Y-61101447D01*
X108397009Y-61114887D01*
X108326646Y-61105420D01*
X108272572Y-61059414D01*
X108251954Y-60991477D01*
X108256712Y-60960533D01*
X108255929Y-60960366D01*
X108257303Y-60953905D01*
X108259342Y-60947628D01*
X108279304Y-60757700D01*
X108259342Y-60567772D01*
X108200327Y-60386144D01*
X108104840Y-60220756D01*
X108031663Y-60139485D01*
X108000947Y-60075479D01*
X107999300Y-60055176D01*
X107999300Y-51840124D01*
X108019302Y-51772003D01*
X108031658Y-51755821D01*
X108104840Y-51674544D01*
X108200327Y-51509156D01*
X108230145Y-51417387D01*
X108270217Y-51358782D01*
X108335614Y-51331145D01*
X108375098Y-51332854D01*
X108469385Y-51352037D01*
X108479623Y-51353257D01*
X108692450Y-51361062D01*
X108702736Y-51360595D01*
X108919112Y-51332877D01*
X108919267Y-51334084D01*
X108984268Y-51339053D01*
X109040896Y-51381876D01*
X109065381Y-51448517D01*
X109049951Y-51517817D01*
X108999505Y-51567773D01*
X108990924Y-51571992D01*
X108975448Y-51578882D01*
X108820947Y-51691134D01*
X108693160Y-51833056D01*
X108597673Y-51998444D01*
X108538658Y-52180072D01*
X108518696Y-52370000D01*
X108538658Y-52559928D01*
X108597673Y-52741556D01*
X108693160Y-52906944D01*
X108766337Y-52988215D01*
X108797053Y-53052221D01*
X108798700Y-53072524D01*
X108798700Y-57862576D01*
X108778698Y-57930697D01*
X108766342Y-57946879D01*
X108693160Y-58028156D01*
X108597673Y-58193544D01*
X108538658Y-58375172D01*
X108518696Y-58565100D01*
X108538658Y-58755028D01*
X108597673Y-58936656D01*
X108693160Y-59102044D01*
X108820947Y-59243966D01*
X108975448Y-59356218D01*
X108981476Y-59358902D01*
X108981478Y-59358903D01*
X109143881Y-59431209D01*
X109149912Y-59433894D01*
X109243312Y-59453747D01*
X109330256Y-59472228D01*
X109330261Y-59472228D01*
X109336713Y-59473600D01*
X109527687Y-59473600D01*
X109534139Y-59472228D01*
X109534144Y-59472228D01*
X109621088Y-59453747D01*
X109714488Y-59433894D01*
X109720519Y-59431209D01*
X109882922Y-59358903D01*
X109882924Y-59358902D01*
X109888952Y-59356218D01*
X110043453Y-59243966D01*
X110171240Y-59102044D01*
X110266727Y-58936656D01*
X110325742Y-58755028D01*
X110345704Y-58565100D01*
X110325742Y-58375172D01*
X110266727Y-58193544D01*
X110171240Y-58028156D01*
X110098063Y-57946885D01*
X110067347Y-57882879D01*
X110065700Y-57862576D01*
X110065700Y-57032934D01*
X118286100Y-57032934D01*
X118292855Y-57095116D01*
X118343985Y-57231505D01*
X118431339Y-57348061D01*
X118547895Y-57435415D01*
X118684284Y-57486545D01*
X118746466Y-57493300D01*
X120442734Y-57493300D01*
X120504916Y-57486545D01*
X120641305Y-57435415D01*
X120757861Y-57348061D01*
X120815719Y-57270862D01*
X121373093Y-57270862D01*
X121382389Y-57282877D01*
X121433594Y-57318731D01*
X121443089Y-57324214D01*
X121640547Y-57416290D01*
X121650839Y-57420036D01*
X121861288Y-57476425D01*
X121872081Y-57478328D01*
X122089125Y-57497317D01*
X122100075Y-57497317D01*
X122317119Y-57478328D01*
X122327912Y-57476425D01*
X122538361Y-57420036D01*
X122548653Y-57416290D01*
X122746111Y-57324214D01*
X122755606Y-57318731D01*
X122807648Y-57282291D01*
X122816024Y-57271812D01*
X122808956Y-57258366D01*
X122107412Y-56556822D01*
X122093468Y-56549208D01*
X122091635Y-56549339D01*
X122085020Y-56553590D01*
X121379523Y-57259087D01*
X121373093Y-57270862D01*
X120815719Y-57270862D01*
X120845215Y-57231505D01*
X120896345Y-57095116D01*
X120903100Y-57032934D01*
X120903100Y-57029615D01*
X120926753Y-56962690D01*
X120972756Y-56926996D01*
X120971741Y-56925066D01*
X120982600Y-56919358D01*
X120982845Y-56919168D01*
X120983003Y-56919147D01*
X121021034Y-56899156D01*
X121722578Y-56197612D01*
X121728956Y-56185932D01*
X122459008Y-56185932D01*
X122459139Y-56187765D01*
X122463390Y-56194380D01*
X123168887Y-56899877D01*
X123180662Y-56906307D01*
X123192677Y-56897011D01*
X123228531Y-56845806D01*
X123234014Y-56836311D01*
X123326090Y-56638853D01*
X123329836Y-56628561D01*
X123386225Y-56418112D01*
X123388128Y-56407319D01*
X123407117Y-56190275D01*
X123407117Y-56179325D01*
X123388128Y-55962281D01*
X123386225Y-55951488D01*
X123329836Y-55741039D01*
X123326090Y-55730747D01*
X123234014Y-55533289D01*
X123228531Y-55523794D01*
X123192091Y-55471752D01*
X123181612Y-55463376D01*
X123168166Y-55470444D01*
X122466622Y-56171988D01*
X122459008Y-56185932D01*
X121728956Y-56185932D01*
X121730192Y-56183668D01*
X121730061Y-56181835D01*
X121725810Y-56175220D01*
X121020313Y-55469723D01*
X120978571Y-55446929D01*
X120968571Y-55444753D01*
X120918373Y-55394547D01*
X120903149Y-55340986D01*
X120903100Y-55340081D01*
X120903100Y-55336666D01*
X120896345Y-55274484D01*
X120845215Y-55138095D01*
X120815007Y-55097788D01*
X121373176Y-55097788D01*
X121380244Y-55111234D01*
X122081788Y-55812778D01*
X122095732Y-55820392D01*
X122097565Y-55820261D01*
X122104180Y-55816010D01*
X122809677Y-55110513D01*
X122816107Y-55098738D01*
X122806811Y-55086723D01*
X122755606Y-55050869D01*
X122746111Y-55045386D01*
X122548653Y-54953310D01*
X122538361Y-54949564D01*
X122327912Y-54893175D01*
X122317119Y-54891272D01*
X122100075Y-54872283D01*
X122089125Y-54872283D01*
X121872081Y-54891272D01*
X121861288Y-54893175D01*
X121650839Y-54949564D01*
X121640547Y-54953310D01*
X121443089Y-55045386D01*
X121433594Y-55050869D01*
X121381552Y-55087309D01*
X121373176Y-55097788D01*
X120815007Y-55097788D01*
X120757861Y-55021539D01*
X120641305Y-54934185D01*
X120504916Y-54883055D01*
X120442734Y-54876300D01*
X118746466Y-54876300D01*
X118684284Y-54883055D01*
X118547895Y-54934185D01*
X118431339Y-55021539D01*
X118343985Y-55138095D01*
X118292855Y-55274484D01*
X118286100Y-55336666D01*
X118286100Y-57032934D01*
X110065700Y-57032934D01*
X110065700Y-53072524D01*
X110085702Y-53004403D01*
X110098058Y-52988221D01*
X110171240Y-52906944D01*
X110266727Y-52741556D01*
X110325742Y-52559928D01*
X110345704Y-52370000D01*
X110325742Y-52180072D01*
X110266727Y-51998444D01*
X110171240Y-51833056D01*
X110043453Y-51691134D01*
X109888952Y-51578882D01*
X109882924Y-51576198D01*
X109882922Y-51576197D01*
X109720519Y-51503891D01*
X109720518Y-51503891D01*
X109714488Y-51501206D01*
X109621088Y-51481353D01*
X109534144Y-51462872D01*
X109534139Y-51462872D01*
X109527687Y-51461500D01*
X109336713Y-51461500D01*
X109330261Y-51462872D01*
X109330256Y-51462872D01*
X109278291Y-51473918D01*
X109207500Y-51468516D01*
X109150868Y-51425699D01*
X109126374Y-51359061D01*
X109141795Y-51289760D01*
X109196662Y-51237520D01*
X109328893Y-51172741D01*
X109337744Y-51167465D01*
X109385047Y-51133723D01*
X109393448Y-51123023D01*
X109386460Y-51109870D01*
X108365685Y-50089095D01*
X108331659Y-50026783D01*
X108333494Y-50001132D01*
X109000208Y-50001132D01*
X109000339Y-50002965D01*
X109004590Y-50009580D01*
X109746274Y-50751264D01*
X109758284Y-50757823D01*
X109770023Y-50748855D01*
X109800804Y-50706019D01*
X109806115Y-50697180D01*
X109900470Y-50506267D01*
X109904269Y-50496672D01*
X109966176Y-50292915D01*
X109968355Y-50282834D01*
X109996390Y-50069887D01*
X109996909Y-50063212D01*
X109998372Y-50003364D01*
X109998178Y-49996646D01*
X109980581Y-49782604D01*
X109978896Y-49772424D01*
X109927014Y-49565875D01*
X109923694Y-49556124D01*
X109838772Y-49360814D01*
X109833905Y-49351739D01*
X109768863Y-49251197D01*
X109758177Y-49241995D01*
X109748612Y-49246398D01*
X109007822Y-49987188D01*
X109000208Y-50001132D01*
X108333494Y-50001132D01*
X108336724Y-49955968D01*
X108365685Y-49910905D01*
X109389189Y-48887401D01*
X109396210Y-48874544D01*
X109389411Y-48865213D01*
X109385359Y-48862521D01*
X109348402Y-48842120D01*
X109298431Y-48791687D01*
X109283659Y-48722245D01*
X109308775Y-48655839D01*
X109336127Y-48629232D01*
X109365243Y-48608464D01*
X109515660Y-48501173D01*
X109673896Y-48343489D01*
X109804253Y-48162077D01*
X109825368Y-48119355D01*
X109900936Y-47966453D01*
X109900937Y-47966451D01*
X109903230Y-47961811D01*
X109968170Y-47748069D01*
X109997329Y-47526590D01*
X109998956Y-47460000D01*
X109980652Y-47237361D01*
X109926231Y-47020702D01*
X109837154Y-46815840D01*
X109715814Y-46628277D01*
X109565470Y-46463051D01*
X109561419Y-46459852D01*
X109561415Y-46459848D01*
X109394214Y-46327800D01*
X109394210Y-46327798D01*
X109390159Y-46324598D01*
X109385635Y-46322101D01*
X109385631Y-46322098D01*
X109334408Y-46293822D01*
X109284436Y-46243390D01*
X109269300Y-46183513D01*
X109269300Y-41851124D01*
X109289302Y-41783003D01*
X109301658Y-41766821D01*
X109374840Y-41685544D01*
X109470327Y-41520156D01*
X109529342Y-41338528D01*
X109534417Y-41290247D01*
X109548614Y-41155165D01*
X109549304Y-41148600D01*
X109529342Y-40958672D01*
X109470327Y-40777044D01*
X109466679Y-40770725D01*
X109407776Y-40668702D01*
X109391456Y-40593826D01*
X109394498Y-40561701D01*
X109386460Y-40546570D01*
X108365685Y-39525795D01*
X108331659Y-39463483D01*
X108333494Y-39437832D01*
X109000208Y-39437832D01*
X109000339Y-39439665D01*
X109004590Y-39446280D01*
X109746274Y-40187964D01*
X109758284Y-40194523D01*
X109770023Y-40185555D01*
X109800804Y-40142719D01*
X109806115Y-40133880D01*
X109900470Y-39942967D01*
X109904269Y-39933372D01*
X109966176Y-39729615D01*
X109968355Y-39719534D01*
X109996390Y-39506587D01*
X109996909Y-39499912D01*
X109998372Y-39440064D01*
X109998178Y-39433346D01*
X109980581Y-39219304D01*
X109978896Y-39209124D01*
X109927014Y-39002575D01*
X109923694Y-38992824D01*
X109838772Y-38797514D01*
X109833905Y-38788439D01*
X109768863Y-38687897D01*
X109758177Y-38678695D01*
X109748612Y-38683098D01*
X109007822Y-39423888D01*
X109000208Y-39437832D01*
X108333494Y-39437832D01*
X108336724Y-39392668D01*
X108365685Y-39347605D01*
X109389189Y-38324101D01*
X109396210Y-38311244D01*
X109389411Y-38301913D01*
X109385359Y-38299221D01*
X109348402Y-38278820D01*
X109298431Y-38228387D01*
X109283659Y-38158945D01*
X109308775Y-38092539D01*
X109336127Y-38065932D01*
X109365325Y-38045105D01*
X109515660Y-37937873D01*
X109673896Y-37780189D01*
X109804253Y-37598777D01*
X109825368Y-37556055D01*
X109900936Y-37403153D01*
X109900937Y-37403151D01*
X109903230Y-37398511D01*
X109968170Y-37184769D01*
X109997329Y-36963290D01*
X109998956Y-36896700D01*
X109980652Y-36674061D01*
X109926231Y-36457402D01*
X109837154Y-36252540D01*
X109715814Y-36064977D01*
X109565470Y-35899751D01*
X109561419Y-35896552D01*
X109561415Y-35896548D01*
X109394214Y-35764500D01*
X109394210Y-35764498D01*
X109390159Y-35761298D01*
X109367101Y-35748569D01*
X109269788Y-35694850D01*
X109194589Y-35653338D01*
X109189720Y-35651614D01*
X109189716Y-35651612D01*
X108988887Y-35580495D01*
X108988883Y-35580494D01*
X108984012Y-35578769D01*
X108978919Y-35577862D01*
X108978916Y-35577861D01*
X108769173Y-35540500D01*
X108769167Y-35540499D01*
X108764084Y-35539594D01*
X108690252Y-35538692D01*
X108545881Y-35536928D01*
X108545879Y-35536928D01*
X108540711Y-35536865D01*
X108319891Y-35570655D01*
X108107556Y-35640057D01*
X108092477Y-35647907D01*
X108022820Y-35661618D01*
X107956805Y-35635493D01*
X107915394Y-35577824D01*
X107908300Y-35536142D01*
X107908300Y-33404231D01*
X115030500Y-33404231D01*
X115030591Y-33407616D01*
X115033382Y-33459145D01*
X115034455Y-33467789D01*
X115077580Y-33688618D01*
X115080494Y-33698846D01*
X115159864Y-33908340D01*
X115164462Y-33917938D01*
X115277993Y-34111060D01*
X115284146Y-34119749D01*
X115428601Y-34290992D01*
X115436108Y-34298499D01*
X115607351Y-34442954D01*
X115616040Y-34449107D01*
X115809162Y-34562638D01*
X115818760Y-34567236D01*
X116028254Y-34646606D01*
X116038482Y-34649520D01*
X116259311Y-34692645D01*
X116267955Y-34693718D01*
X116319484Y-34696509D01*
X116322869Y-34696600D01*
X117016385Y-34696600D01*
X117031624Y-34692125D01*
X117032829Y-34690735D01*
X117034500Y-34683052D01*
X117034500Y-34678485D01*
X117542500Y-34678485D01*
X117546975Y-34693724D01*
X117548365Y-34694929D01*
X117556048Y-34696600D01*
X118254131Y-34696600D01*
X118257516Y-34696509D01*
X118309045Y-34693718D01*
X118317689Y-34692645D01*
X118538518Y-34649520D01*
X118548746Y-34646606D01*
X118758240Y-34567236D01*
X118767838Y-34562638D01*
X118960960Y-34449107D01*
X118969649Y-34442954D01*
X119140892Y-34298499D01*
X119148399Y-34290992D01*
X119292854Y-34119749D01*
X119299007Y-34111060D01*
X119412538Y-33917938D01*
X119417136Y-33908340D01*
X119486173Y-33726120D01*
X119529012Y-33669504D01*
X119595659Y-33645036D01*
X119664955Y-33660485D01*
X119714897Y-33710945D01*
X119730000Y-33770760D01*
X119730000Y-37236734D01*
X119736755Y-37298916D01*
X119787885Y-37435305D01*
X119875239Y-37551861D01*
X119991795Y-37639215D01*
X120128184Y-37690345D01*
X120190366Y-37697100D01*
X123786634Y-37697100D01*
X123848816Y-37690345D01*
X123985205Y-37639215D01*
X124101761Y-37551861D01*
X124189115Y-37435305D01*
X124240245Y-37298916D01*
X124247000Y-37236734D01*
X124247000Y-33640466D01*
X124240245Y-33578284D01*
X124189115Y-33441895D01*
X124101761Y-33325339D01*
X123985205Y-33237985D01*
X123848816Y-33186855D01*
X123786634Y-33180100D01*
X120190366Y-33180100D01*
X120128184Y-33186855D01*
X119991795Y-33237985D01*
X119875239Y-33325339D01*
X119869858Y-33332519D01*
X119793271Y-33434709D01*
X119787885Y-33441895D01*
X119784734Y-33450300D01*
X119783020Y-33453431D01*
X119732762Y-33503577D01*
X119663371Y-33518591D01*
X119596878Y-33493706D01*
X119554395Y-33436822D01*
X119546500Y-33392922D01*
X119546500Y-32710715D01*
X119542025Y-32695476D01*
X119540635Y-32694271D01*
X119532952Y-32692600D01*
X117560615Y-32692600D01*
X117545376Y-32697075D01*
X117544171Y-32698465D01*
X117542500Y-32706148D01*
X117542500Y-34678485D01*
X117034500Y-34678485D01*
X117034500Y-32710715D01*
X117030025Y-32695476D01*
X117028635Y-32694271D01*
X117020952Y-32692600D01*
X115048615Y-32692600D01*
X115033376Y-32697075D01*
X115032171Y-32698465D01*
X115030500Y-32706148D01*
X115030500Y-33404231D01*
X107908300Y-33404231D01*
X107908300Y-32166485D01*
X115030500Y-32166485D01*
X115034975Y-32181724D01*
X115036365Y-32182929D01*
X115044048Y-32184600D01*
X117016385Y-32184600D01*
X117031624Y-32180125D01*
X117032829Y-32178735D01*
X117034500Y-32171052D01*
X117034500Y-32166485D01*
X117542500Y-32166485D01*
X117546975Y-32181724D01*
X117548365Y-32182929D01*
X117556048Y-32184600D01*
X119528385Y-32184600D01*
X119543624Y-32180125D01*
X119544829Y-32178735D01*
X119546500Y-32171052D01*
X119546500Y-31472970D01*
X119546409Y-31469584D01*
X119543618Y-31418055D01*
X119542545Y-31409411D01*
X119499420Y-31188582D01*
X119496506Y-31178354D01*
X119417136Y-30968860D01*
X119412538Y-30959262D01*
X119299007Y-30766140D01*
X119292854Y-30757451D01*
X119148399Y-30586208D01*
X119140892Y-30578701D01*
X118969649Y-30434246D01*
X118960960Y-30428093D01*
X118767838Y-30314562D01*
X118758240Y-30309964D01*
X118596169Y-30248561D01*
X119730501Y-30248561D01*
X119730709Y-30253671D01*
X119741582Y-30387367D01*
X119743352Y-30397920D01*
X119796467Y-30604785D01*
X119800201Y-30615331D01*
X119889010Y-30809305D01*
X119894546Y-30819012D01*
X120016303Y-30994197D01*
X120023476Y-31002776D01*
X120174324Y-31153624D01*
X120182903Y-31160797D01*
X120358088Y-31282554D01*
X120367795Y-31288090D01*
X120561769Y-31376899D01*
X120572315Y-31380633D01*
X120779179Y-31433747D01*
X120789734Y-31435518D01*
X120923430Y-31446393D01*
X120928536Y-31446600D01*
X121716385Y-31446600D01*
X121731624Y-31442125D01*
X121732829Y-31440735D01*
X121734500Y-31433052D01*
X121734500Y-31428484D01*
X122242500Y-31428484D01*
X122246975Y-31443723D01*
X122248365Y-31444928D01*
X122256048Y-31446599D01*
X123048461Y-31446599D01*
X123053571Y-31446391D01*
X123187267Y-31435518D01*
X123197820Y-31433748D01*
X123404685Y-31380633D01*
X123415231Y-31376899D01*
X123609205Y-31288090D01*
X123618912Y-31282554D01*
X123794097Y-31160797D01*
X123802676Y-31153624D01*
X123953524Y-31002776D01*
X123960697Y-30994197D01*
X124082454Y-30819012D01*
X124087990Y-30809305D01*
X124176799Y-30615331D01*
X124180533Y-30604785D01*
X124233647Y-30397921D01*
X124235418Y-30387366D01*
X124246293Y-30253670D01*
X124246500Y-30248564D01*
X124246500Y-29710715D01*
X124242025Y-29695476D01*
X124240635Y-29694271D01*
X124232952Y-29692600D01*
X122260615Y-29692600D01*
X122245376Y-29697075D01*
X122244171Y-29698465D01*
X122242500Y-29706148D01*
X122242500Y-31428484D01*
X121734500Y-31428484D01*
X121734500Y-29710715D01*
X121730025Y-29695476D01*
X121728635Y-29694271D01*
X121720952Y-29692600D01*
X119748616Y-29692600D01*
X119733377Y-29697075D01*
X119732172Y-29698465D01*
X119730501Y-29706148D01*
X119730501Y-30248561D01*
X118596169Y-30248561D01*
X118548746Y-30230594D01*
X118538518Y-30227680D01*
X118317689Y-30184555D01*
X118309045Y-30183482D01*
X118257516Y-30180691D01*
X118254130Y-30180600D01*
X117560615Y-30180600D01*
X117545376Y-30185075D01*
X117544171Y-30186465D01*
X117542500Y-30194148D01*
X117542500Y-32166485D01*
X117034500Y-32166485D01*
X117034500Y-30198715D01*
X117030025Y-30183476D01*
X117028635Y-30182271D01*
X117020952Y-30180600D01*
X116322870Y-30180600D01*
X116319484Y-30180691D01*
X116267955Y-30183482D01*
X116259311Y-30184555D01*
X116038482Y-30227680D01*
X116028254Y-30230594D01*
X115818760Y-30309964D01*
X115809162Y-30314562D01*
X115616040Y-30428093D01*
X115607351Y-30434246D01*
X115436108Y-30578701D01*
X115428601Y-30586208D01*
X115284146Y-30757451D01*
X115277993Y-30766140D01*
X115164462Y-30959262D01*
X115159864Y-30968860D01*
X115080494Y-31178354D01*
X115077580Y-31188582D01*
X115034455Y-31409411D01*
X115033382Y-31418055D01*
X115030591Y-31469584D01*
X115030500Y-31472970D01*
X115030500Y-32166485D01*
X107908300Y-32166485D01*
X107908300Y-29248104D01*
X107928302Y-29179983D01*
X107981958Y-29133490D01*
X108052232Y-29123386D01*
X108079249Y-29130394D01*
X108250801Y-29195903D01*
X108260699Y-29198779D01*
X108469395Y-29241238D01*
X108479623Y-29242457D01*
X108692450Y-29250262D01*
X108702736Y-29249795D01*
X108913985Y-29222734D01*
X108924062Y-29220592D01*
X109104410Y-29166485D01*
X119730500Y-29166485D01*
X119734975Y-29181724D01*
X119736365Y-29182929D01*
X119744048Y-29184600D01*
X121716385Y-29184600D01*
X121731624Y-29180125D01*
X121732829Y-29178735D01*
X121734500Y-29171052D01*
X121734500Y-29166485D01*
X122242500Y-29166485D01*
X122246975Y-29181724D01*
X122248365Y-29182929D01*
X122256048Y-29184600D01*
X124228384Y-29184600D01*
X124243623Y-29180125D01*
X124244828Y-29178735D01*
X124246499Y-29171052D01*
X124246499Y-28628639D01*
X124246291Y-28623529D01*
X124235418Y-28489833D01*
X124233648Y-28479280D01*
X124180533Y-28272415D01*
X124176799Y-28261869D01*
X124087990Y-28067895D01*
X124082454Y-28058188D01*
X123960697Y-27883003D01*
X123953524Y-27874424D01*
X123802676Y-27723576D01*
X123794097Y-27716403D01*
X123618912Y-27594646D01*
X123609205Y-27589110D01*
X123415231Y-27500301D01*
X123404685Y-27496567D01*
X123197821Y-27443453D01*
X123187266Y-27441682D01*
X123053570Y-27430807D01*
X123048464Y-27430600D01*
X122260615Y-27430600D01*
X122245376Y-27435075D01*
X122244171Y-27436465D01*
X122242500Y-27444148D01*
X122242500Y-29166485D01*
X121734500Y-29166485D01*
X121734500Y-27448716D01*
X121730025Y-27433477D01*
X121728635Y-27432272D01*
X121720952Y-27430601D01*
X120928539Y-27430601D01*
X120923429Y-27430809D01*
X120789733Y-27441682D01*
X120779180Y-27443452D01*
X120572315Y-27496567D01*
X120561769Y-27500301D01*
X120367795Y-27589110D01*
X120358088Y-27594646D01*
X120182903Y-27716403D01*
X120174324Y-27723576D01*
X120023476Y-27874424D01*
X120016303Y-27883003D01*
X119894546Y-28058188D01*
X119889010Y-28067895D01*
X119800201Y-28261869D01*
X119796467Y-28272415D01*
X119743353Y-28479279D01*
X119741582Y-28489834D01*
X119730707Y-28623530D01*
X119730500Y-28628636D01*
X119730500Y-29166485D01*
X109104410Y-29166485D01*
X109128055Y-29159391D01*
X109137642Y-29155633D01*
X109328898Y-29061938D01*
X109337744Y-29056665D01*
X109385047Y-29022923D01*
X109393448Y-29012223D01*
X109386460Y-28999070D01*
X108277722Y-27890332D01*
X109000208Y-27890332D01*
X109000339Y-27892165D01*
X109004590Y-27898780D01*
X109746274Y-28640464D01*
X109758284Y-28647023D01*
X109770023Y-28638055D01*
X109800804Y-28595219D01*
X109806115Y-28586380D01*
X109900470Y-28395467D01*
X109904269Y-28385872D01*
X109966176Y-28182115D01*
X109968355Y-28172034D01*
X109996390Y-27959087D01*
X109996909Y-27952412D01*
X109998372Y-27892564D01*
X109998178Y-27885846D01*
X109980581Y-27671804D01*
X109978896Y-27661624D01*
X109927014Y-27455075D01*
X109923694Y-27445324D01*
X109838772Y-27250014D01*
X109833905Y-27240939D01*
X109768863Y-27140397D01*
X109758177Y-27131195D01*
X109748612Y-27135598D01*
X109007822Y-27876388D01*
X109000208Y-27890332D01*
X108277722Y-27890332D01*
X107525649Y-27138259D01*
X107514113Y-27131959D01*
X107501831Y-27141582D01*
X107469299Y-27189272D01*
X107414387Y-27234275D01*
X107343863Y-27242446D01*
X107280116Y-27211192D01*
X107259418Y-27186708D01*
X107178622Y-27061817D01*
X107178620Y-27061814D01*
X107175814Y-27057477D01*
X107025470Y-26892251D01*
X107021419Y-26889052D01*
X107021415Y-26889048D01*
X106854214Y-26757000D01*
X106854210Y-26756998D01*
X106850159Y-26753798D01*
X106808853Y-26730996D01*
X106758884Y-26680564D01*
X106744112Y-26611121D01*
X106769228Y-26544716D01*
X106796580Y-26518109D01*
X106840403Y-26486850D01*
X106975660Y-26390373D01*
X107133896Y-26232689D01*
X107264253Y-26051277D01*
X107265576Y-26052228D01*
X107312445Y-26009057D01*
X107382380Y-25996825D01*
X107447826Y-26024344D01*
X107475675Y-26056194D01*
X107535787Y-26154288D01*
X107682050Y-26323138D01*
X107853926Y-26465832D01*
X107912042Y-26499792D01*
X107927755Y-26508974D01*
X107976479Y-26560612D01*
X107989550Y-26630395D01*
X107962819Y-26696167D01*
X107922362Y-26729527D01*
X107914260Y-26733744D01*
X107905534Y-26739239D01*
X107885477Y-26754299D01*
X107877023Y-26765627D01*
X107883768Y-26777958D01*
X108622988Y-27517178D01*
X108636932Y-27524792D01*
X108638765Y-27524661D01*
X108645380Y-27520410D01*
X109389189Y-26776601D01*
X109396210Y-26763744D01*
X109389411Y-26754413D01*
X109385359Y-26751721D01*
X109348402Y-26731320D01*
X109298431Y-26680887D01*
X109283659Y-26611445D01*
X109308775Y-26545039D01*
X109336127Y-26518432D01*
X109363208Y-26499115D01*
X109515660Y-26390373D01*
X109673896Y-26232689D01*
X109804253Y-26051277D01*
X109810173Y-26039300D01*
X109900936Y-25855653D01*
X109900937Y-25855651D01*
X109903230Y-25851011D01*
X109968170Y-25637269D01*
X109997329Y-25415790D01*
X109998956Y-25349200D01*
X109980652Y-25126561D01*
X109926231Y-24909902D01*
X109837154Y-24705040D01*
X109715814Y-24517477D01*
X109565470Y-24352251D01*
X109561419Y-24349052D01*
X109561415Y-24349048D01*
X109394214Y-24217000D01*
X109394210Y-24216998D01*
X109390159Y-24213798D01*
X109194589Y-24105838D01*
X109189720Y-24104114D01*
X109189716Y-24104112D01*
X108988887Y-24032995D01*
X108988883Y-24032994D01*
X108984012Y-24031269D01*
X108978919Y-24030362D01*
X108978916Y-24030361D01*
X108769173Y-23993000D01*
X108769167Y-23992999D01*
X108764084Y-23992094D01*
X108690252Y-23991192D01*
X108545881Y-23989428D01*
X108545879Y-23989428D01*
X108540711Y-23989365D01*
X108319891Y-24023155D01*
X108307332Y-24027260D01*
X108236368Y-24029410D01*
X108179094Y-23996589D01*
X107953052Y-23770547D01*
X107945512Y-23762261D01*
X107941400Y-23755782D01*
X107891748Y-23709156D01*
X107888907Y-23706402D01*
X107869170Y-23686665D01*
X107865973Y-23684185D01*
X107856951Y-23676480D01*
X107843522Y-23663869D01*
X107824721Y-23646214D01*
X107817775Y-23642395D01*
X107817772Y-23642393D01*
X107806966Y-23636452D01*
X107790447Y-23625601D01*
X107789983Y-23625241D01*
X107774441Y-23613186D01*
X107767172Y-23610041D01*
X107767168Y-23610038D01*
X107733863Y-23595626D01*
X107723213Y-23590409D01*
X107684460Y-23569105D01*
X107664837Y-23564067D01*
X107646134Y-23557663D01*
X107634820Y-23552767D01*
X107634819Y-23552767D01*
X107627545Y-23549619D01*
X107619722Y-23548380D01*
X107619712Y-23548377D01*
X107583876Y-23542701D01*
X107572256Y-23540295D01*
X107537111Y-23531272D01*
X107537110Y-23531272D01*
X107529430Y-23529300D01*
X107509176Y-23529300D01*
X107489465Y-23527749D01*
X107477286Y-23525820D01*
X107469457Y-23524580D01*
X107440186Y-23527347D01*
X107425439Y-23528741D01*
X107413581Y-23529300D01*
X95524167Y-23529300D01*
X95512984Y-23528773D01*
X95505491Y-23527098D01*
X95497565Y-23527347D01*
X95497564Y-23527347D01*
X95437414Y-23529238D01*
X95433455Y-23529300D01*
X95405544Y-23529300D01*
X95401610Y-23529797D01*
X95401609Y-23529797D01*
X95401544Y-23529805D01*
X95389707Y-23530738D01*
X95357449Y-23531752D01*
X95353430Y-23531878D01*
X95345511Y-23532127D01*
X95326057Y-23537779D01*
X95306700Y-23541787D01*
X95294470Y-23543332D01*
X95294469Y-23543332D01*
X95286603Y-23544326D01*
X95279232Y-23547245D01*
X95279230Y-23547245D01*
X95245488Y-23560604D01*
X95234258Y-23564449D01*
X95199417Y-23574571D01*
X95199416Y-23574571D01*
X95191807Y-23576782D01*
X95184988Y-23580815D01*
X95184983Y-23580817D01*
X95174372Y-23587093D01*
X95156624Y-23595788D01*
X95137783Y-23603248D01*
X95131367Y-23607910D01*
X95131366Y-23607910D01*
X95102013Y-23629236D01*
X95092093Y-23635752D01*
X95060865Y-23654220D01*
X95060862Y-23654222D01*
X95054038Y-23658258D01*
X95039717Y-23672579D01*
X95024684Y-23685419D01*
X95008293Y-23697328D01*
X95003242Y-23703433D01*
X95003237Y-23703438D01*
X94980101Y-23731404D01*
X94972113Y-23740182D01*
X94424030Y-24288265D01*
X94361718Y-24322291D01*
X94290903Y-24317226D01*
X94256843Y-24298052D01*
X94154214Y-24217000D01*
X94154210Y-24216998D01*
X94150159Y-24213798D01*
X93954589Y-24105838D01*
X93949720Y-24104114D01*
X93949716Y-24104112D01*
X93748887Y-24032995D01*
X93748883Y-24032994D01*
X93744012Y-24031269D01*
X93738919Y-24030362D01*
X93738916Y-24030361D01*
X93529173Y-23993000D01*
X93529167Y-23992999D01*
X93524084Y-23992094D01*
X93450252Y-23991192D01*
X93305881Y-23989428D01*
X93305879Y-23989428D01*
X93300711Y-23989365D01*
X93079891Y-24023155D01*
X92867556Y-24092557D01*
X92669407Y-24195707D01*
X92665274Y-24198810D01*
X92665271Y-24198812D01*
X92494900Y-24326730D01*
X92490765Y-24329835D01*
X92336429Y-24491338D01*
X92229001Y-24648821D01*
X92174093Y-24693821D01*
X92103568Y-24701992D01*
X92039821Y-24670738D01*
X92019124Y-24646254D01*
X91938622Y-24521817D01*
X91938620Y-24521814D01*
X91935814Y-24517477D01*
X91785470Y-24352251D01*
X91781419Y-24349052D01*
X91781415Y-24349048D01*
X91614214Y-24217000D01*
X91614210Y-24216998D01*
X91610159Y-24213798D01*
X91414589Y-24105838D01*
X91409720Y-24104114D01*
X91409716Y-24104112D01*
X91208887Y-24032995D01*
X91208883Y-24032994D01*
X91204012Y-24031269D01*
X91198919Y-24030362D01*
X91198916Y-24030361D01*
X90989173Y-23993000D01*
X90989167Y-23992999D01*
X90984084Y-23992094D01*
X90910252Y-23991192D01*
X90765881Y-23989428D01*
X90765879Y-23989428D01*
X90760711Y-23989365D01*
X90539891Y-24023155D01*
X90327556Y-24092557D01*
X90129407Y-24195707D01*
X90125274Y-24198810D01*
X90125271Y-24198812D01*
X89954900Y-24326730D01*
X89950765Y-24329835D01*
X89796429Y-24491338D01*
X89689001Y-24648821D01*
X89634093Y-24693821D01*
X89563568Y-24701992D01*
X89499821Y-24670738D01*
X89479124Y-24646254D01*
X89398622Y-24521817D01*
X89398620Y-24521814D01*
X89395814Y-24517477D01*
X89245470Y-24352251D01*
X89241419Y-24349052D01*
X89241415Y-24349048D01*
X89074214Y-24217000D01*
X89074210Y-24216998D01*
X89070159Y-24213798D01*
X88874589Y-24105838D01*
X88869720Y-24104114D01*
X88869716Y-24104112D01*
X88668887Y-24032995D01*
X88668883Y-24032994D01*
X88664012Y-24031269D01*
X88658919Y-24030362D01*
X88658916Y-24030361D01*
X88449173Y-23993000D01*
X88449167Y-23992999D01*
X88444084Y-23992094D01*
X88370252Y-23991192D01*
X88225881Y-23989428D01*
X88225879Y-23989428D01*
X88220711Y-23989365D01*
X87999891Y-24023155D01*
X87787556Y-24092557D01*
X87589407Y-24195707D01*
X87585274Y-24198810D01*
X87585271Y-24198812D01*
X87414900Y-24326730D01*
X87410765Y-24329835D01*
X87256429Y-24491338D01*
X87149001Y-24648821D01*
X87094093Y-24693821D01*
X87023568Y-24701992D01*
X86959821Y-24670738D01*
X86939124Y-24646254D01*
X86858622Y-24521817D01*
X86858620Y-24521814D01*
X86855814Y-24517477D01*
X86705470Y-24352251D01*
X86701419Y-24349052D01*
X86701415Y-24349048D01*
X86534214Y-24217000D01*
X86534210Y-24216998D01*
X86530159Y-24213798D01*
X86334589Y-24105838D01*
X86329720Y-24104114D01*
X86329716Y-24104112D01*
X86128887Y-24032995D01*
X86128883Y-24032994D01*
X86124012Y-24031269D01*
X86118919Y-24030362D01*
X86118916Y-24030361D01*
X85909173Y-23993000D01*
X85909167Y-23992999D01*
X85904084Y-23992094D01*
X85830252Y-23991192D01*
X85685881Y-23989428D01*
X85685879Y-23989428D01*
X85680711Y-23989365D01*
X85459891Y-24023155D01*
X85247556Y-24092557D01*
X85049407Y-24195707D01*
X85045274Y-24198810D01*
X85045271Y-24198812D01*
X84874900Y-24326730D01*
X84870765Y-24329835D01*
X84716429Y-24491338D01*
X84609001Y-24648821D01*
X84554093Y-24693821D01*
X84483568Y-24701992D01*
X84419821Y-24670738D01*
X84399124Y-24646254D01*
X84318622Y-24521817D01*
X84318620Y-24521814D01*
X84315814Y-24517477D01*
X84165470Y-24352251D01*
X84161419Y-24349052D01*
X84161415Y-24349048D01*
X83994214Y-24217000D01*
X83994210Y-24216998D01*
X83990159Y-24213798D01*
X83794589Y-24105838D01*
X83789720Y-24104114D01*
X83789716Y-24104112D01*
X83588887Y-24032995D01*
X83588883Y-24032994D01*
X83584012Y-24031269D01*
X83578919Y-24030362D01*
X83578916Y-24030361D01*
X83369173Y-23993000D01*
X83369167Y-23992999D01*
X83364084Y-23992094D01*
X83290252Y-23991192D01*
X83145881Y-23989428D01*
X83145879Y-23989428D01*
X83140711Y-23989365D01*
X82919891Y-24023155D01*
X82707556Y-24092557D01*
X82509407Y-24195707D01*
X82505274Y-24198810D01*
X82505271Y-24198812D01*
X82334900Y-24326730D01*
X82330765Y-24329835D01*
X82176429Y-24491338D01*
X82069001Y-24648821D01*
X82014093Y-24693821D01*
X81943568Y-24701992D01*
X81879821Y-24670738D01*
X81859124Y-24646254D01*
X81778622Y-24521817D01*
X81778620Y-24521814D01*
X81775814Y-24517477D01*
X81625470Y-24352251D01*
X81621419Y-24349052D01*
X81621415Y-24349048D01*
X81454214Y-24217000D01*
X81454210Y-24216998D01*
X81450159Y-24213798D01*
X81254589Y-24105838D01*
X81249720Y-24104114D01*
X81249716Y-24104112D01*
X81048887Y-24032995D01*
X81048883Y-24032994D01*
X81044012Y-24031269D01*
X81038919Y-24030362D01*
X81038916Y-24030361D01*
X80829173Y-23993000D01*
X80829167Y-23992999D01*
X80824084Y-23992094D01*
X80750252Y-23991192D01*
X80605881Y-23989428D01*
X80605879Y-23989428D01*
X80600711Y-23989365D01*
X80379891Y-24023155D01*
X80167556Y-24092557D01*
X79969407Y-24195707D01*
X79965274Y-24198810D01*
X79965271Y-24198812D01*
X79794900Y-24326730D01*
X79790765Y-24329835D01*
X79636429Y-24491338D01*
X79529001Y-24648821D01*
X79474093Y-24693821D01*
X79403568Y-24701992D01*
X79339821Y-24670738D01*
X79319124Y-24646254D01*
X79238622Y-24521817D01*
X79238620Y-24521814D01*
X79235814Y-24517477D01*
X79085470Y-24352251D01*
X79081419Y-24349052D01*
X79081415Y-24349048D01*
X78914214Y-24217000D01*
X78914210Y-24216998D01*
X78910159Y-24213798D01*
X78714589Y-24105838D01*
X78709720Y-24104114D01*
X78709716Y-24104112D01*
X78508887Y-24032995D01*
X78508883Y-24032994D01*
X78504012Y-24031269D01*
X78498919Y-24030362D01*
X78498916Y-24030361D01*
X78289173Y-23993000D01*
X78289167Y-23992999D01*
X78284084Y-23992094D01*
X78210252Y-23991192D01*
X78065881Y-23989428D01*
X78065879Y-23989428D01*
X78060711Y-23989365D01*
X77839891Y-24023155D01*
X77627556Y-24092557D01*
X77429407Y-24195707D01*
X77425274Y-24198810D01*
X77425271Y-24198812D01*
X77254900Y-24326730D01*
X77250765Y-24329835D01*
X77096429Y-24491338D01*
X76989001Y-24648821D01*
X76934093Y-24693821D01*
X76863568Y-24701992D01*
X76799821Y-24670738D01*
X76779124Y-24646254D01*
X76698622Y-24521817D01*
X76698620Y-24521814D01*
X76695814Y-24517477D01*
X76545470Y-24352251D01*
X76541419Y-24349052D01*
X76541415Y-24349048D01*
X76374214Y-24217000D01*
X76374210Y-24216998D01*
X76370159Y-24213798D01*
X76174589Y-24105838D01*
X76169720Y-24104114D01*
X76169716Y-24104112D01*
X75968887Y-24032995D01*
X75968883Y-24032994D01*
X75964012Y-24031269D01*
X75958919Y-24030362D01*
X75958916Y-24030361D01*
X75749173Y-23993000D01*
X75749167Y-23992999D01*
X75744084Y-23992094D01*
X75670252Y-23991192D01*
X75525881Y-23989428D01*
X75525879Y-23989428D01*
X75520711Y-23989365D01*
X75299891Y-24023155D01*
X75087556Y-24092557D01*
X74889407Y-24195707D01*
X74885274Y-24198810D01*
X74885271Y-24198812D01*
X74714900Y-24326730D01*
X74710765Y-24329835D01*
X74556429Y-24491338D01*
X74449001Y-24648821D01*
X74394093Y-24693821D01*
X74323568Y-24701992D01*
X74259821Y-24670738D01*
X74239124Y-24646254D01*
X74158622Y-24521817D01*
X74158620Y-24521814D01*
X74155814Y-24517477D01*
X74005470Y-24352251D01*
X74001419Y-24349052D01*
X74001415Y-24349048D01*
X73834214Y-24217000D01*
X73834210Y-24216998D01*
X73830159Y-24213798D01*
X73634589Y-24105838D01*
X73629720Y-24104114D01*
X73629716Y-24104112D01*
X73428887Y-24032995D01*
X73428883Y-24032994D01*
X73424012Y-24031269D01*
X73418919Y-24030362D01*
X73418916Y-24030361D01*
X73209173Y-23993000D01*
X73209167Y-23992999D01*
X73204084Y-23992094D01*
X73130252Y-23991192D01*
X72985881Y-23989428D01*
X72985879Y-23989428D01*
X72980711Y-23989365D01*
X72759891Y-24023155D01*
X72547556Y-24092557D01*
X72349407Y-24195707D01*
X72345274Y-24198810D01*
X72345271Y-24198812D01*
X72174900Y-24326730D01*
X72170765Y-24329835D01*
X72016429Y-24491338D01*
X71909001Y-24648821D01*
X71854093Y-24693821D01*
X71783568Y-24701992D01*
X71719821Y-24670738D01*
X71699124Y-24646254D01*
X71618622Y-24521817D01*
X71618620Y-24521814D01*
X71615814Y-24517477D01*
X71465470Y-24352251D01*
X71461419Y-24349052D01*
X71461415Y-24349048D01*
X71294214Y-24217000D01*
X71294210Y-24216998D01*
X71290159Y-24213798D01*
X71094589Y-24105838D01*
X71089720Y-24104114D01*
X71089716Y-24104112D01*
X70888887Y-24032995D01*
X70888883Y-24032994D01*
X70884012Y-24031269D01*
X70878919Y-24030362D01*
X70878916Y-24030361D01*
X70669173Y-23993000D01*
X70669167Y-23992999D01*
X70664084Y-23992094D01*
X70590252Y-23991192D01*
X70445881Y-23989428D01*
X70445879Y-23989428D01*
X70440711Y-23989365D01*
X70219891Y-24023155D01*
X70007556Y-24092557D01*
X69809407Y-24195707D01*
X69805274Y-24198810D01*
X69805271Y-24198812D01*
X69634900Y-24326730D01*
X69630765Y-24329835D01*
X69476429Y-24491338D01*
X69369001Y-24648821D01*
X69314093Y-24693821D01*
X69243568Y-24701992D01*
X69179821Y-24670738D01*
X69159124Y-24646254D01*
X69078622Y-24521817D01*
X69078620Y-24521814D01*
X69075814Y-24517477D01*
X68925470Y-24352251D01*
X68921419Y-24349052D01*
X68921415Y-24349048D01*
X68754214Y-24217000D01*
X68754210Y-24216998D01*
X68750159Y-24213798D01*
X68554589Y-24105838D01*
X68549720Y-24104114D01*
X68549716Y-24104112D01*
X68348887Y-24032995D01*
X68348883Y-24032994D01*
X68344012Y-24031269D01*
X68338919Y-24030362D01*
X68338916Y-24030361D01*
X68129173Y-23993000D01*
X68129167Y-23992999D01*
X68124084Y-23992094D01*
X68050252Y-23991192D01*
X67905881Y-23989428D01*
X67905879Y-23989428D01*
X67900711Y-23989365D01*
X67679891Y-24023155D01*
X67467556Y-24092557D01*
X67269407Y-24195707D01*
X67265274Y-24198810D01*
X67265271Y-24198812D01*
X67094900Y-24326730D01*
X67090765Y-24329835D01*
X66936429Y-24491338D01*
X66829001Y-24648821D01*
X66774093Y-24693821D01*
X66703568Y-24701992D01*
X66639821Y-24670738D01*
X66619124Y-24646254D01*
X66538622Y-24521817D01*
X66538620Y-24521814D01*
X66535814Y-24517477D01*
X66385470Y-24352251D01*
X66381419Y-24349052D01*
X66381415Y-24349048D01*
X66214214Y-24217000D01*
X66214210Y-24216998D01*
X66210159Y-24213798D01*
X66014589Y-24105838D01*
X66009720Y-24104114D01*
X66009716Y-24104112D01*
X65808887Y-24032995D01*
X65808883Y-24032994D01*
X65804012Y-24031269D01*
X65798919Y-24030362D01*
X65798916Y-24030361D01*
X65589173Y-23993000D01*
X65589167Y-23992999D01*
X65584084Y-23992094D01*
X65510252Y-23991192D01*
X65365881Y-23989428D01*
X65365879Y-23989428D01*
X65360711Y-23989365D01*
X65139891Y-24023155D01*
X64927556Y-24092557D01*
X64729407Y-24195707D01*
X64725274Y-24198810D01*
X64725271Y-24198812D01*
X64554900Y-24326730D01*
X64550765Y-24329835D01*
X64396429Y-24491338D01*
X64289001Y-24648821D01*
X64234093Y-24693821D01*
X64163568Y-24701992D01*
X64099821Y-24670738D01*
X64079124Y-24646254D01*
X63998622Y-24521817D01*
X63998620Y-24521814D01*
X63995814Y-24517477D01*
X63845470Y-24352251D01*
X63841419Y-24349052D01*
X63841415Y-24349048D01*
X63674214Y-24217000D01*
X63674210Y-24216998D01*
X63670159Y-24213798D01*
X63474589Y-24105838D01*
X63469720Y-24104114D01*
X63469716Y-24104112D01*
X63268887Y-24032995D01*
X63268883Y-24032994D01*
X63264012Y-24031269D01*
X63258919Y-24030362D01*
X63258916Y-24030361D01*
X63049173Y-23993000D01*
X63049167Y-23992999D01*
X63044084Y-23992094D01*
X62970252Y-23991192D01*
X62825881Y-23989428D01*
X62825879Y-23989428D01*
X62820711Y-23989365D01*
X62599891Y-24023155D01*
X62387556Y-24092557D01*
X62189407Y-24195707D01*
X62185274Y-24198810D01*
X62185271Y-24198812D01*
X62014900Y-24326730D01*
X62010765Y-24329835D01*
X61856429Y-24491338D01*
X61749001Y-24648821D01*
X61694093Y-24693821D01*
X61623568Y-24701992D01*
X61559821Y-24670738D01*
X61539124Y-24646254D01*
X61458622Y-24521817D01*
X61458620Y-24521814D01*
X61455814Y-24517477D01*
X61305470Y-24352251D01*
X61301419Y-24349052D01*
X61301415Y-24349048D01*
X61134214Y-24217000D01*
X61134210Y-24216998D01*
X61130159Y-24213798D01*
X60934589Y-24105838D01*
X60929720Y-24104114D01*
X60929716Y-24104112D01*
X60728887Y-24032995D01*
X60728883Y-24032994D01*
X60724012Y-24031269D01*
X60718919Y-24030362D01*
X60718916Y-24030361D01*
X60509173Y-23993000D01*
X60509167Y-23992999D01*
X60504084Y-23992094D01*
X60430252Y-23991192D01*
X60285881Y-23989428D01*
X60285879Y-23989428D01*
X60280711Y-23989365D01*
X60059891Y-24023155D01*
X59847556Y-24092557D01*
X59649407Y-24195707D01*
X59645274Y-24198810D01*
X59645271Y-24198812D01*
X59474900Y-24326730D01*
X59470765Y-24329835D01*
X59316429Y-24491338D01*
X59209001Y-24648821D01*
X59154093Y-24693821D01*
X59083568Y-24701992D01*
X59019821Y-24670738D01*
X58999124Y-24646254D01*
X58918622Y-24521817D01*
X58918620Y-24521814D01*
X58915814Y-24517477D01*
X58765470Y-24352251D01*
X58761419Y-24349052D01*
X58761415Y-24349048D01*
X58594214Y-24217000D01*
X58594210Y-24216998D01*
X58590159Y-24213798D01*
X58394589Y-24105838D01*
X58389720Y-24104114D01*
X58389716Y-24104112D01*
X58188887Y-24032995D01*
X58188883Y-24032994D01*
X58184012Y-24031269D01*
X58178919Y-24030362D01*
X58178916Y-24030361D01*
X57969173Y-23993000D01*
X57969167Y-23992999D01*
X57964084Y-23992094D01*
X57890252Y-23991192D01*
X57745881Y-23989428D01*
X57745879Y-23989428D01*
X57740711Y-23989365D01*
X57519891Y-24023155D01*
X57307556Y-24092557D01*
X57109407Y-24195707D01*
X57105274Y-24198810D01*
X57105271Y-24198812D01*
X56934900Y-24326730D01*
X56930765Y-24329835D01*
X56776429Y-24491338D01*
X56669001Y-24648821D01*
X56614093Y-24693821D01*
X56543568Y-24701992D01*
X56479821Y-24670738D01*
X56459124Y-24646254D01*
X56378622Y-24521817D01*
X56378620Y-24521814D01*
X56375814Y-24517477D01*
X56225470Y-24352251D01*
X56221419Y-24349052D01*
X56221415Y-24349048D01*
X56054214Y-24217000D01*
X56054210Y-24216998D01*
X56050159Y-24213798D01*
X55854589Y-24105838D01*
X55849720Y-24104114D01*
X55849716Y-24104112D01*
X55648887Y-24032995D01*
X55648883Y-24032994D01*
X55644012Y-24031269D01*
X55638919Y-24030362D01*
X55638916Y-24030361D01*
X55429173Y-23993000D01*
X55429167Y-23992999D01*
X55424084Y-23992094D01*
X55350252Y-23991192D01*
X55205881Y-23989428D01*
X55205879Y-23989428D01*
X55200711Y-23989365D01*
X54979891Y-24023155D01*
X54767556Y-24092557D01*
X54569407Y-24195707D01*
X54565274Y-24198810D01*
X54565271Y-24198812D01*
X54394900Y-24326730D01*
X54390765Y-24329835D01*
X54236429Y-24491338D01*
X54129001Y-24648821D01*
X54074093Y-24693821D01*
X54003568Y-24701992D01*
X53939821Y-24670738D01*
X53919124Y-24646254D01*
X53838622Y-24521817D01*
X53838620Y-24521814D01*
X53835814Y-24517477D01*
X53685470Y-24352251D01*
X53681419Y-24349052D01*
X53681415Y-24349048D01*
X53514214Y-24217000D01*
X53514210Y-24216998D01*
X53510159Y-24213798D01*
X53314589Y-24105838D01*
X53309720Y-24104114D01*
X53309716Y-24104112D01*
X53108887Y-24032995D01*
X53108883Y-24032994D01*
X53104012Y-24031269D01*
X53098919Y-24030362D01*
X53098916Y-24030361D01*
X52889173Y-23993000D01*
X52889167Y-23992999D01*
X52884084Y-23992094D01*
X52810252Y-23991192D01*
X52665881Y-23989428D01*
X52665879Y-23989428D01*
X52660711Y-23989365D01*
X52439891Y-24023155D01*
X52227556Y-24092557D01*
X52029407Y-24195707D01*
X52025274Y-24198810D01*
X52025271Y-24198812D01*
X51854900Y-24326730D01*
X51850765Y-24329835D01*
X51696429Y-24491338D01*
X51589001Y-24648821D01*
X51534093Y-24693821D01*
X51463568Y-24701992D01*
X51399821Y-24670738D01*
X51379124Y-24646254D01*
X51298622Y-24521817D01*
X51298620Y-24521814D01*
X51295814Y-24517477D01*
X51145470Y-24352251D01*
X51141419Y-24349052D01*
X51141415Y-24349048D01*
X50974214Y-24217000D01*
X50974210Y-24216998D01*
X50970159Y-24213798D01*
X50774589Y-24105838D01*
X50769720Y-24104114D01*
X50769716Y-24104112D01*
X50568887Y-24032995D01*
X50568883Y-24032994D01*
X50564012Y-24031269D01*
X50558919Y-24030362D01*
X50558916Y-24030361D01*
X50349173Y-23993000D01*
X50349167Y-23992999D01*
X50344084Y-23992094D01*
X50270252Y-23991192D01*
X50125881Y-23989428D01*
X50125879Y-23989428D01*
X50120711Y-23989365D01*
X49899891Y-24023155D01*
X49687556Y-24092557D01*
X49489407Y-24195707D01*
X49485274Y-24198810D01*
X49485271Y-24198812D01*
X49314900Y-24326730D01*
X49310765Y-24329835D01*
X49156429Y-24491338D01*
X49049004Y-24648818D01*
X49048698Y-24649266D01*
X48993787Y-24694269D01*
X48923262Y-24702440D01*
X48859515Y-24671186D01*
X48838817Y-24646701D01*
X48808862Y-24600397D01*
X48798177Y-24591195D01*
X48788612Y-24595598D01*
X48047822Y-25336388D01*
X48040208Y-25350332D01*
X48040339Y-25352165D01*
X48044590Y-25358780D01*
X48786274Y-26100464D01*
X48798284Y-26107023D01*
X48810023Y-26098055D01*
X48843822Y-26051019D01*
X48845077Y-26051921D01*
X48892191Y-26008555D01*
X48962130Y-25996348D01*
X49027567Y-26023891D01*
X49055380Y-26055713D01*
X49113087Y-26149883D01*
X49113091Y-26149888D01*
X49115787Y-26154288D01*
X49262050Y-26323138D01*
X49433926Y-26465832D01*
X49490883Y-26499115D01*
X49507245Y-26508676D01*
X49555969Y-26560314D01*
X49569040Y-26630097D01*
X49542309Y-26695869D01*
X49501855Y-26729227D01*
X49489407Y-26735707D01*
X49485274Y-26738810D01*
X49485271Y-26738812D01*
X49314900Y-26866730D01*
X49310765Y-26869835D01*
X49219581Y-26965254D01*
X49176827Y-27009993D01*
X49115303Y-27045423D01*
X49044390Y-27041966D01*
X48986604Y-27000720D01*
X48971633Y-26976394D01*
X48969665Y-26972194D01*
X48967350Y-26965254D01*
X48874278Y-26814852D01*
X48749103Y-26689895D01*
X48738268Y-26683216D01*
X48604768Y-26600925D01*
X48604766Y-26600924D01*
X48598538Y-26597085D01*
X48542620Y-26578538D01*
X48523440Y-26572176D01*
X48465080Y-26531745D01*
X48454529Y-26506346D01*
X48452224Y-26507570D01*
X48426460Y-26459070D01*
X47688612Y-25721222D01*
X47674668Y-25713608D01*
X47672835Y-25713739D01*
X47666220Y-25717990D01*
X46922537Y-26461673D01*
X46899785Y-26503339D01*
X46897577Y-26513487D01*
X46847374Y-26563688D01*
X46826867Y-26572624D01*
X46751854Y-26597650D01*
X46601452Y-26690722D01*
X46476495Y-26815897D01*
X46472655Y-26822127D01*
X46472654Y-26822128D01*
X46388266Y-26959031D01*
X46383685Y-26966462D01*
X46328003Y-27134339D01*
X46317300Y-27238800D01*
X46317300Y-28539600D01*
X46317637Y-28542846D01*
X46317637Y-28542850D01*
X46322154Y-28586380D01*
X46328274Y-28645366D01*
X46330455Y-28651902D01*
X46330455Y-28651904D01*
X46374528Y-28784006D01*
X46384250Y-28813146D01*
X46477322Y-28963548D01*
X46602497Y-29088505D01*
X46608727Y-29092345D01*
X46608728Y-29092346D01*
X46745890Y-29176894D01*
X46753062Y-29181315D01*
X46805715Y-29198779D01*
X46914411Y-29234832D01*
X46914413Y-29234832D01*
X46920939Y-29236997D01*
X46927775Y-29237697D01*
X46927778Y-29237698D01*
X46962331Y-29241238D01*
X47025400Y-29247700D01*
X48326200Y-29247700D01*
X48329446Y-29247363D01*
X48329450Y-29247363D01*
X48425108Y-29237438D01*
X48425112Y-29237437D01*
X48431966Y-29236726D01*
X48438502Y-29234545D01*
X48438504Y-29234545D01*
X48588206Y-29184600D01*
X48599746Y-29180750D01*
X48750148Y-29087678D01*
X48875105Y-28962503D01*
X48907837Y-28909403D01*
X48964076Y-28818166D01*
X48967915Y-28811938D01*
X48970218Y-28804995D01*
X48972563Y-28799966D01*
X49019480Y-28746681D01*
X49087758Y-28727221D01*
X49155718Y-28747764D01*
X49181994Y-28770720D01*
X49258660Y-28859225D01*
X49262050Y-28863138D01*
X49433926Y-29005832D01*
X49626800Y-29118538D01*
X49631625Y-29120380D01*
X49631626Y-29120381D01*
X49678138Y-29138142D01*
X49835492Y-29198230D01*
X49840560Y-29199261D01*
X49840563Y-29199262D01*
X49945404Y-29220592D01*
X50054397Y-29242767D01*
X50059572Y-29242957D01*
X50059574Y-29242957D01*
X50272473Y-29250764D01*
X50272477Y-29250764D01*
X50277637Y-29250953D01*
X50282757Y-29250297D01*
X50282759Y-29250297D01*
X50494088Y-29223225D01*
X50494089Y-29223225D01*
X50499216Y-29222568D01*
X50504167Y-29221083D01*
X50504170Y-29221082D01*
X50545629Y-29208644D01*
X50616625Y-29208228D01*
X50670931Y-29240235D01*
X50725495Y-29294799D01*
X50759521Y-29357111D01*
X50762400Y-29383894D01*
X50762400Y-35470736D01*
X50742398Y-35538857D01*
X50688742Y-35585350D01*
X50618468Y-35595454D01*
X50594339Y-35589508D01*
X50568894Y-35580497D01*
X50568885Y-35580495D01*
X50564012Y-35578769D01*
X50558919Y-35577862D01*
X50558916Y-35577861D01*
X50349173Y-35540500D01*
X50349167Y-35540499D01*
X50344084Y-35539594D01*
X50270252Y-35538692D01*
X50125881Y-35536928D01*
X50125879Y-35536928D01*
X50120711Y-35536865D01*
X49899891Y-35570655D01*
X49687556Y-35640057D01*
X49648460Y-35660409D01*
X49511977Y-35731458D01*
X49489407Y-35743207D01*
X49485274Y-35746310D01*
X49485271Y-35746312D01*
X49314900Y-35874230D01*
X49310765Y-35877335D01*
X49156429Y-36038838D01*
X49083493Y-36145759D01*
X49048698Y-36196766D01*
X48993787Y-36241769D01*
X48923262Y-36249940D01*
X48859515Y-36218686D01*
X48838817Y-36194201D01*
X48808862Y-36147897D01*
X48798177Y-36138695D01*
X48788612Y-36143098D01*
X48047822Y-36883888D01*
X48040208Y-36897832D01*
X48040339Y-36899665D01*
X48044590Y-36906280D01*
X48786274Y-37647964D01*
X48798284Y-37654523D01*
X48810023Y-37645555D01*
X48843822Y-37598519D01*
X48845077Y-37599421D01*
X48892191Y-37556055D01*
X48962130Y-37543848D01*
X49027567Y-37571391D01*
X49055380Y-37603213D01*
X49113087Y-37697383D01*
X49113091Y-37697388D01*
X49115787Y-37701788D01*
X49262050Y-37870638D01*
X49433926Y-38013332D01*
X49488299Y-38045105D01*
X49507245Y-38056176D01*
X49555969Y-38107814D01*
X49569040Y-38177597D01*
X49542309Y-38243369D01*
X49501855Y-38276727D01*
X49489407Y-38283207D01*
X49485274Y-38286310D01*
X49485271Y-38286312D01*
X49352085Y-38386311D01*
X49310765Y-38417335D01*
X49219581Y-38512754D01*
X49176827Y-38557493D01*
X49115303Y-38592923D01*
X49044390Y-38589466D01*
X48986604Y-38548220D01*
X48971633Y-38523894D01*
X48969665Y-38519694D01*
X48967350Y-38512754D01*
X48874278Y-38362352D01*
X48749103Y-38237395D01*
X48742872Y-38233554D01*
X48604768Y-38148425D01*
X48604766Y-38148424D01*
X48598538Y-38144585D01*
X48542620Y-38126038D01*
X48523440Y-38119676D01*
X48465080Y-38079245D01*
X48454529Y-38053846D01*
X48452224Y-38055070D01*
X48426460Y-38006570D01*
X47688612Y-37268722D01*
X47674668Y-37261108D01*
X47672835Y-37261239D01*
X47666220Y-37265490D01*
X46922537Y-38009173D01*
X46899785Y-38050839D01*
X46897577Y-38060987D01*
X46847374Y-38111188D01*
X46826867Y-38120124D01*
X46751854Y-38145150D01*
X46601452Y-38238222D01*
X46476495Y-38363397D01*
X46472655Y-38369627D01*
X46472654Y-38369628D01*
X46388266Y-38506531D01*
X46383685Y-38513962D01*
X46328003Y-38681839D01*
X46327303Y-38688675D01*
X46327302Y-38688678D01*
X46322891Y-38731731D01*
X46317300Y-38786300D01*
X46317300Y-40087100D01*
X46317637Y-40090346D01*
X46317637Y-40090350D01*
X46322761Y-40139728D01*
X46328274Y-40192866D01*
X46330455Y-40199402D01*
X46330455Y-40199404D01*
X46374528Y-40331506D01*
X46384250Y-40360646D01*
X46477322Y-40511048D01*
X46602497Y-40636005D01*
X46608727Y-40639845D01*
X46608728Y-40639846D01*
X46745890Y-40724394D01*
X46753062Y-40728815D01*
X46807162Y-40746759D01*
X46914411Y-40782332D01*
X46914413Y-40782332D01*
X46920939Y-40784497D01*
X46927775Y-40785197D01*
X46927778Y-40785198D01*
X46967172Y-40789234D01*
X47025400Y-40795200D01*
X48326200Y-40795200D01*
X48329446Y-40794863D01*
X48329450Y-40794863D01*
X48425108Y-40784938D01*
X48425112Y-40784937D01*
X48431966Y-40784226D01*
X48438502Y-40782045D01*
X48438504Y-40782045D01*
X48588422Y-40732028D01*
X48599746Y-40728250D01*
X48750148Y-40635178D01*
X48875105Y-40510003D01*
X48967915Y-40359438D01*
X48970218Y-40352495D01*
X48972563Y-40347466D01*
X49019480Y-40294181D01*
X49087758Y-40274721D01*
X49155718Y-40295264D01*
X49181994Y-40318220D01*
X49240367Y-40385607D01*
X49262050Y-40410638D01*
X49433926Y-40553332D01*
X49626800Y-40666038D01*
X49631625Y-40667880D01*
X49631626Y-40667881D01*
X49654765Y-40676717D01*
X49835492Y-40745730D01*
X49840560Y-40746761D01*
X49840563Y-40746762D01*
X49935726Y-40766123D01*
X50054397Y-40790267D01*
X50059572Y-40790457D01*
X50059574Y-40790457D01*
X50272473Y-40798264D01*
X50272477Y-40798264D01*
X50277637Y-40798453D01*
X50282757Y-40797797D01*
X50282759Y-40797797D01*
X50494088Y-40770725D01*
X50494089Y-40770725D01*
X50499216Y-40770068D01*
X50504167Y-40768583D01*
X50504170Y-40768582D01*
X50545629Y-40756144D01*
X50616625Y-40755728D01*
X50670931Y-40787735D01*
X50735995Y-40852799D01*
X50770021Y-40915111D01*
X50772900Y-40941894D01*
X50772900Y-46037754D01*
X50752898Y-46105875D01*
X50699242Y-46152368D01*
X50628968Y-46162472D01*
X50604840Y-46156527D01*
X50568887Y-46143795D01*
X50568883Y-46143794D01*
X50564012Y-46142069D01*
X50558919Y-46141162D01*
X50558916Y-46141161D01*
X50349173Y-46103800D01*
X50349167Y-46103799D01*
X50344084Y-46102894D01*
X50270252Y-46101992D01*
X50125881Y-46100228D01*
X50125879Y-46100228D01*
X50120711Y-46100165D01*
X49899891Y-46133955D01*
X49687556Y-46203357D01*
X49651215Y-46222275D01*
X49498801Y-46301617D01*
X49489407Y-46306507D01*
X49485274Y-46309610D01*
X49485271Y-46309612D01*
X49314900Y-46437530D01*
X49310765Y-46440635D01*
X49156429Y-46602138D01*
X49049004Y-46759618D01*
X49048698Y-46760066D01*
X48993787Y-46805069D01*
X48923262Y-46813240D01*
X48859515Y-46781986D01*
X48838817Y-46757501D01*
X48808862Y-46711197D01*
X48798177Y-46701995D01*
X48788612Y-46706398D01*
X48047822Y-47447188D01*
X48040208Y-47461132D01*
X48040339Y-47462965D01*
X48044590Y-47469580D01*
X48786274Y-48211264D01*
X48798284Y-48217823D01*
X48810023Y-48208855D01*
X48843822Y-48161819D01*
X48845077Y-48162721D01*
X48892191Y-48119355D01*
X48962130Y-48107148D01*
X49027567Y-48134691D01*
X49055380Y-48166513D01*
X49113087Y-48260683D01*
X49113091Y-48260688D01*
X49115787Y-48265088D01*
X49262050Y-48433938D01*
X49433926Y-48576632D01*
X49488400Y-48608464D01*
X49507245Y-48619476D01*
X49555969Y-48671114D01*
X49569040Y-48740897D01*
X49542309Y-48806669D01*
X49501855Y-48840027D01*
X49489407Y-48846507D01*
X49485274Y-48849610D01*
X49485271Y-48849612D01*
X49317411Y-48975645D01*
X49310765Y-48980635D01*
X49219581Y-49076054D01*
X49176827Y-49120793D01*
X49115303Y-49156223D01*
X49044390Y-49152766D01*
X48986604Y-49111520D01*
X48971633Y-49087194D01*
X48969665Y-49082994D01*
X48967350Y-49076054D01*
X48874278Y-48925652D01*
X48749103Y-48800695D01*
X48742872Y-48796854D01*
X48604768Y-48711725D01*
X48604766Y-48711724D01*
X48598538Y-48707885D01*
X48542620Y-48689338D01*
X48523440Y-48682976D01*
X48465080Y-48642545D01*
X48454529Y-48617146D01*
X48452224Y-48618370D01*
X48426460Y-48569870D01*
X47688612Y-47832022D01*
X47674668Y-47824408D01*
X47672835Y-47824539D01*
X47666220Y-47828790D01*
X46922537Y-48572473D01*
X46899785Y-48614139D01*
X46897577Y-48624287D01*
X46847374Y-48674488D01*
X46826867Y-48683424D01*
X46751854Y-48708450D01*
X46601452Y-48801522D01*
X46476495Y-48926697D01*
X46472655Y-48932927D01*
X46472654Y-48932928D01*
X46388266Y-49069831D01*
X46383685Y-49077262D01*
X46328003Y-49245139D01*
X46317300Y-49349600D01*
X46317300Y-50650400D01*
X46317637Y-50653646D01*
X46317637Y-50653650D01*
X46322761Y-50703028D01*
X46328274Y-50756166D01*
X46330455Y-50762702D01*
X46330455Y-50762704D01*
X46374528Y-50894806D01*
X46384250Y-50923946D01*
X46477322Y-51074348D01*
X46602497Y-51199305D01*
X46608727Y-51203145D01*
X46608728Y-51203146D01*
X46745890Y-51287694D01*
X46753062Y-51292115D01*
X46807171Y-51310062D01*
X46914411Y-51345632D01*
X46914413Y-51345632D01*
X46920939Y-51347797D01*
X46927780Y-51348498D01*
X46927785Y-51348499D01*
X46929149Y-51348639D01*
X46929936Y-51348960D01*
X46934510Y-51349941D01*
X46934335Y-51350757D01*
X46994875Y-51375483D01*
X47035654Y-51433600D01*
X47042300Y-51473982D01*
X47042300Y-60980873D01*
X47022298Y-61048994D01*
X46968642Y-61095487D01*
X46929304Y-61106200D01*
X46916476Y-61107531D01*
X46875693Y-61111762D01*
X46875690Y-61111763D01*
X46868834Y-61112474D01*
X46862298Y-61114655D01*
X46862296Y-61114655D01*
X46799631Y-61135562D01*
X46701054Y-61168450D01*
X46550652Y-61261522D01*
X46425695Y-61386697D01*
X46421855Y-61392927D01*
X46421854Y-61392928D01*
X46337466Y-61529831D01*
X46332885Y-61537262D01*
X46277203Y-61705139D01*
X46266500Y-61809600D01*
X46266500Y-63110400D01*
X46266837Y-63113646D01*
X46266837Y-63113650D01*
X46271961Y-63163028D01*
X46277474Y-63216166D01*
X46279655Y-63222702D01*
X46279655Y-63222704D01*
X46323728Y-63354806D01*
X46333450Y-63383946D01*
X46426522Y-63534348D01*
X46551697Y-63659305D01*
X46557927Y-63663145D01*
X46557928Y-63663146D01*
X46695090Y-63747694D01*
X46702262Y-63752115D01*
X46715899Y-63756638D01*
X46777219Y-63776977D01*
X46835579Y-63817407D01*
X46846299Y-63843211D01*
X46847650Y-63842472D01*
X46872968Y-63888758D01*
X47612188Y-64627978D01*
X47626132Y-64635592D01*
X47627965Y-64635461D01*
X47634580Y-64631210D01*
X48378389Y-63887401D01*
X48401183Y-63845659D01*
X48403357Y-63835666D01*
X48453561Y-63785466D01*
X48474066Y-63776532D01*
X48539031Y-63754858D01*
X48548946Y-63751550D01*
X48699348Y-63658478D01*
X48824305Y-63533303D01*
X48917115Y-63382738D01*
X48919418Y-63375795D01*
X48921763Y-63370766D01*
X48968680Y-63317481D01*
X49036958Y-63298021D01*
X49104918Y-63318564D01*
X49131194Y-63341520D01*
X49207860Y-63430025D01*
X49211250Y-63433938D01*
X49383126Y-63576632D01*
X49394063Y-63583023D01*
X49456445Y-63619476D01*
X49505169Y-63671114D01*
X49518240Y-63740897D01*
X49491509Y-63806669D01*
X49451055Y-63840027D01*
X49444939Y-63843211D01*
X49438607Y-63846507D01*
X49434474Y-63849610D01*
X49434471Y-63849612D01*
X49264100Y-63977530D01*
X49259965Y-63980635D01*
X49105629Y-64142138D01*
X48998204Y-64299618D01*
X48997898Y-64300066D01*
X48942987Y-64345069D01*
X48872462Y-64353240D01*
X48808715Y-64321986D01*
X48788017Y-64297501D01*
X48758062Y-64251197D01*
X48747377Y-64241995D01*
X48737812Y-64246398D01*
X47997022Y-64987188D01*
X47989408Y-65001132D01*
X47989539Y-65002965D01*
X47993790Y-65009580D01*
X48735474Y-65751264D01*
X48747484Y-65757823D01*
X48759223Y-65748855D01*
X48793022Y-65701819D01*
X48794277Y-65702721D01*
X48841391Y-65659355D01*
X48911330Y-65647148D01*
X48976767Y-65674691D01*
X49004580Y-65706513D01*
X49062287Y-65800683D01*
X49062291Y-65800688D01*
X49064987Y-65805088D01*
X49211250Y-65973938D01*
X49383126Y-66116632D01*
X49469070Y-66166853D01*
X49517794Y-66218491D01*
X49531500Y-66275641D01*
X49531500Y-68181692D01*
X49511498Y-68249813D01*
X49463683Y-68293453D01*
X49438607Y-68306507D01*
X49434474Y-68309610D01*
X49434471Y-68309612D01*
X49264100Y-68437530D01*
X49259965Y-68440635D01*
X49105629Y-68602138D01*
X48998204Y-68759618D01*
X48997898Y-68760066D01*
X48942987Y-68805069D01*
X48872462Y-68813240D01*
X48808715Y-68781986D01*
X48788017Y-68757501D01*
X48758062Y-68711197D01*
X48747377Y-68701995D01*
X48737812Y-68706398D01*
X47997022Y-69447188D01*
X47989408Y-69461132D01*
X47989539Y-69462965D01*
X47993790Y-69469580D01*
X48735474Y-70211264D01*
X48747484Y-70217823D01*
X48759223Y-70208855D01*
X48793022Y-70161819D01*
X48794277Y-70162721D01*
X48841391Y-70119355D01*
X48911330Y-70107148D01*
X48976767Y-70134691D01*
X49004580Y-70166513D01*
X49062287Y-70260683D01*
X49062291Y-70260688D01*
X49064987Y-70265088D01*
X49211250Y-70433938D01*
X49383126Y-70576632D01*
X49447312Y-70614139D01*
X49456445Y-70619476D01*
X49505169Y-70671114D01*
X49518240Y-70740897D01*
X49491509Y-70806669D01*
X49451055Y-70840027D01*
X49438607Y-70846507D01*
X49434474Y-70849610D01*
X49434471Y-70849612D01*
X49272414Y-70971288D01*
X49259965Y-70980635D01*
X49168781Y-71076054D01*
X49126027Y-71120793D01*
X49064503Y-71156223D01*
X48993590Y-71152766D01*
X48935804Y-71111520D01*
X48920833Y-71087194D01*
X48918865Y-71082994D01*
X48916550Y-71076054D01*
X48823478Y-70925652D01*
X48698303Y-70800695D01*
X48692072Y-70796854D01*
X48553968Y-70711725D01*
X48553966Y-70711724D01*
X48547738Y-70707885D01*
X48491820Y-70689338D01*
X48472640Y-70682976D01*
X48414280Y-70642545D01*
X48403729Y-70617146D01*
X48401424Y-70618370D01*
X48375660Y-70569870D01*
X47637812Y-69832022D01*
X47623868Y-69824408D01*
X47622035Y-69824539D01*
X47615420Y-69828790D01*
X46871737Y-70572473D01*
X46848985Y-70614139D01*
X46846777Y-70624287D01*
X46796574Y-70674488D01*
X46776067Y-70683424D01*
X46701054Y-70708450D01*
X46550652Y-70801522D01*
X46425695Y-70926697D01*
X46421855Y-70932927D01*
X46421854Y-70932928D01*
X46337466Y-71069831D01*
X46332885Y-71077262D01*
X46277203Y-71245139D01*
X46266500Y-71349600D01*
X46266500Y-72650400D01*
X46266837Y-72653646D01*
X46266837Y-72653650D01*
X46271961Y-72703028D01*
X46277474Y-72756166D01*
X46279655Y-72762702D01*
X46279655Y-72762704D01*
X46323728Y-72894806D01*
X46333450Y-72923946D01*
X46426522Y-73074348D01*
X46551697Y-73199305D01*
X46557927Y-73203145D01*
X46557928Y-73203146D01*
X46695090Y-73287694D01*
X46702262Y-73292115D01*
X46754915Y-73309579D01*
X46863611Y-73345632D01*
X46863613Y-73345632D01*
X46870139Y-73347797D01*
X46876975Y-73348497D01*
X46876978Y-73348498D01*
X46911531Y-73352038D01*
X46974600Y-73358500D01*
X48275400Y-73358500D01*
X48278646Y-73358163D01*
X48278650Y-73358163D01*
X48374308Y-73348238D01*
X48374312Y-73348237D01*
X48381166Y-73347526D01*
X48387702Y-73345345D01*
X48387704Y-73345345D01*
X48530162Y-73297817D01*
X48548946Y-73291550D01*
X48699348Y-73198478D01*
X48824305Y-73073303D01*
X48917115Y-72922738D01*
X48919418Y-72915795D01*
X48921763Y-72910766D01*
X48968680Y-72857481D01*
X49036958Y-72838021D01*
X49104918Y-72858564D01*
X49131194Y-72881520D01*
X49207400Y-72969494D01*
X49211250Y-72973938D01*
X49383126Y-73116632D01*
X49576000Y-73229338D01*
X49784692Y-73309030D01*
X49789760Y-73310061D01*
X49789763Y-73310062D01*
X49891208Y-73330701D01*
X50003597Y-73353567D01*
X50008772Y-73353757D01*
X50008774Y-73353757D01*
X50221673Y-73361564D01*
X50221677Y-73361564D01*
X50226837Y-73361753D01*
X50231957Y-73361097D01*
X50231959Y-73361097D01*
X50443288Y-73334025D01*
X50443289Y-73334025D01*
X50448416Y-73333368D01*
X50453366Y-73331883D01*
X50657429Y-73270661D01*
X50657434Y-73270659D01*
X50662384Y-73269174D01*
X50862994Y-73170896D01*
X51044860Y-73041173D01*
X51203096Y-72883489D01*
X51333453Y-72702077D01*
X51334776Y-72703028D01*
X51381645Y-72659857D01*
X51451580Y-72647625D01*
X51517026Y-72675144D01*
X51544875Y-72706994D01*
X51604987Y-72805088D01*
X51751250Y-72973938D01*
X51923126Y-73116632D01*
X52116000Y-73229338D01*
X52324692Y-73309030D01*
X52329760Y-73310061D01*
X52329763Y-73310062D01*
X52431208Y-73330701D01*
X52543597Y-73353567D01*
X52548772Y-73353757D01*
X52548774Y-73353757D01*
X52761673Y-73361564D01*
X52761677Y-73361564D01*
X52766837Y-73361753D01*
X52771957Y-73361097D01*
X52771959Y-73361097D01*
X52983288Y-73334025D01*
X52983289Y-73334025D01*
X52988416Y-73333368D01*
X52993366Y-73331883D01*
X53197429Y-73270661D01*
X53197434Y-73270659D01*
X53202384Y-73269174D01*
X53402994Y-73170896D01*
X53584860Y-73041173D01*
X53743096Y-72883489D01*
X53873453Y-72702077D01*
X53874776Y-72703028D01*
X53921645Y-72659857D01*
X53991580Y-72647625D01*
X54057026Y-72675144D01*
X54084875Y-72706994D01*
X54144987Y-72805088D01*
X54291250Y-72973938D01*
X54463126Y-73116632D01*
X54656000Y-73229338D01*
X54864692Y-73309030D01*
X54869760Y-73310061D01*
X54869763Y-73310062D01*
X54971208Y-73330701D01*
X55083597Y-73353567D01*
X55088772Y-73353757D01*
X55088774Y-73353757D01*
X55301673Y-73361564D01*
X55301677Y-73361564D01*
X55306837Y-73361753D01*
X55311957Y-73361097D01*
X55311959Y-73361097D01*
X55523288Y-73334025D01*
X55523289Y-73334025D01*
X55528416Y-73333368D01*
X55533366Y-73331883D01*
X55737429Y-73270661D01*
X55737434Y-73270659D01*
X55742384Y-73269174D01*
X55942994Y-73170896D01*
X56124860Y-73041173D01*
X56283096Y-72883489D01*
X56413453Y-72702077D01*
X56414776Y-72703028D01*
X56461645Y-72659857D01*
X56531580Y-72647625D01*
X56597026Y-72675144D01*
X56624875Y-72706994D01*
X56684987Y-72805088D01*
X56831250Y-72973938D01*
X57003126Y-73116632D01*
X57196000Y-73229338D01*
X57404692Y-73309030D01*
X57409760Y-73310061D01*
X57409763Y-73310062D01*
X57511208Y-73330701D01*
X57623597Y-73353567D01*
X57628772Y-73353757D01*
X57628774Y-73353757D01*
X57841673Y-73361564D01*
X57841677Y-73361564D01*
X57846837Y-73361753D01*
X57851957Y-73361097D01*
X57851959Y-73361097D01*
X58063288Y-73334025D01*
X58063289Y-73334025D01*
X58068416Y-73333368D01*
X58073366Y-73331883D01*
X58277429Y-73270661D01*
X58277434Y-73270659D01*
X58282384Y-73269174D01*
X58482994Y-73170896D01*
X58664860Y-73041173D01*
X58823096Y-72883489D01*
X58953453Y-72702077D01*
X58954776Y-72703028D01*
X59001645Y-72659857D01*
X59071580Y-72647625D01*
X59137026Y-72675144D01*
X59164875Y-72706994D01*
X59224987Y-72805088D01*
X59371250Y-72973938D01*
X59543126Y-73116632D01*
X59736000Y-73229338D01*
X59944692Y-73309030D01*
X59949760Y-73310061D01*
X59949763Y-73310062D01*
X60051208Y-73330701D01*
X60163597Y-73353567D01*
X60168772Y-73353757D01*
X60168774Y-73353757D01*
X60381673Y-73361564D01*
X60381677Y-73361564D01*
X60386837Y-73361753D01*
X60391957Y-73361097D01*
X60391959Y-73361097D01*
X60603288Y-73334025D01*
X60603289Y-73334025D01*
X60608416Y-73333368D01*
X60613366Y-73331883D01*
X60817429Y-73270661D01*
X60817434Y-73270659D01*
X60822384Y-73269174D01*
X61022994Y-73170896D01*
X61204860Y-73041173D01*
X61363096Y-72883489D01*
X61493453Y-72702077D01*
X61494776Y-72703028D01*
X61541645Y-72659857D01*
X61611580Y-72647625D01*
X61677026Y-72675144D01*
X61704875Y-72706994D01*
X61764987Y-72805088D01*
X61911250Y-72973938D01*
X62083126Y-73116632D01*
X62276000Y-73229338D01*
X62484692Y-73309030D01*
X62489760Y-73310061D01*
X62489763Y-73310062D01*
X62591208Y-73330701D01*
X62703597Y-73353567D01*
X62708772Y-73353757D01*
X62708774Y-73353757D01*
X62921673Y-73361564D01*
X62921677Y-73361564D01*
X62926837Y-73361753D01*
X62931957Y-73361097D01*
X62931959Y-73361097D01*
X63143288Y-73334025D01*
X63143289Y-73334025D01*
X63148416Y-73333368D01*
X63153366Y-73331883D01*
X63357429Y-73270661D01*
X63357434Y-73270659D01*
X63362384Y-73269174D01*
X63562994Y-73170896D01*
X63744860Y-73041173D01*
X63903096Y-72883489D01*
X64033453Y-72702077D01*
X64034776Y-72703028D01*
X64081645Y-72659857D01*
X64151580Y-72647625D01*
X64217026Y-72675144D01*
X64244875Y-72706994D01*
X64304987Y-72805088D01*
X64451250Y-72973938D01*
X64623126Y-73116632D01*
X64816000Y-73229338D01*
X65024692Y-73309030D01*
X65029760Y-73310061D01*
X65029763Y-73310062D01*
X65131208Y-73330701D01*
X65243597Y-73353567D01*
X65248772Y-73353757D01*
X65248774Y-73353757D01*
X65461673Y-73361564D01*
X65461677Y-73361564D01*
X65466837Y-73361753D01*
X65471957Y-73361097D01*
X65471959Y-73361097D01*
X65683288Y-73334025D01*
X65683289Y-73334025D01*
X65688416Y-73333368D01*
X65693366Y-73331883D01*
X65897429Y-73270661D01*
X65897434Y-73270659D01*
X65902384Y-73269174D01*
X66102994Y-73170896D01*
X66284860Y-73041173D01*
X66443096Y-72883489D01*
X66573453Y-72702077D01*
X66574776Y-72703028D01*
X66621645Y-72659857D01*
X66691580Y-72647625D01*
X66757026Y-72675144D01*
X66784875Y-72706994D01*
X66844987Y-72805088D01*
X66991250Y-72973938D01*
X67163126Y-73116632D01*
X67356000Y-73229338D01*
X67564692Y-73309030D01*
X67569760Y-73310061D01*
X67569763Y-73310062D01*
X67671208Y-73330701D01*
X67783597Y-73353567D01*
X67788772Y-73353757D01*
X67788774Y-73353757D01*
X68001673Y-73361564D01*
X68001677Y-73361564D01*
X68006837Y-73361753D01*
X68011957Y-73361097D01*
X68011959Y-73361097D01*
X68223288Y-73334025D01*
X68223289Y-73334025D01*
X68228416Y-73333368D01*
X68233366Y-73331883D01*
X68437429Y-73270661D01*
X68437434Y-73270659D01*
X68442384Y-73269174D01*
X68642994Y-73170896D01*
X68824860Y-73041173D01*
X68983096Y-72883489D01*
X69113453Y-72702077D01*
X69114776Y-72703028D01*
X69161645Y-72659857D01*
X69231580Y-72647625D01*
X69297026Y-72675144D01*
X69324875Y-72706994D01*
X69384987Y-72805088D01*
X69531250Y-72973938D01*
X69703126Y-73116632D01*
X69896000Y-73229338D01*
X70104692Y-73309030D01*
X70109760Y-73310061D01*
X70109763Y-73310062D01*
X70211208Y-73330701D01*
X70323597Y-73353567D01*
X70328772Y-73353757D01*
X70328774Y-73353757D01*
X70541673Y-73361564D01*
X70541677Y-73361564D01*
X70546837Y-73361753D01*
X70551957Y-73361097D01*
X70551959Y-73361097D01*
X70763288Y-73334025D01*
X70763289Y-73334025D01*
X70768416Y-73333368D01*
X70773366Y-73331883D01*
X70977429Y-73270661D01*
X70977434Y-73270659D01*
X70982384Y-73269174D01*
X71182994Y-73170896D01*
X71364860Y-73041173D01*
X71523096Y-72883489D01*
X71653453Y-72702077D01*
X71654776Y-72703028D01*
X71701645Y-72659857D01*
X71771580Y-72647625D01*
X71837026Y-72675144D01*
X71864875Y-72706994D01*
X71924987Y-72805088D01*
X72071250Y-72973938D01*
X72243126Y-73116632D01*
X72436000Y-73229338D01*
X72644692Y-73309030D01*
X72649760Y-73310061D01*
X72649763Y-73310062D01*
X72751208Y-73330701D01*
X72863597Y-73353567D01*
X72868772Y-73353757D01*
X72868774Y-73353757D01*
X73081673Y-73361564D01*
X73081677Y-73361564D01*
X73086837Y-73361753D01*
X73091957Y-73361097D01*
X73091959Y-73361097D01*
X73303288Y-73334025D01*
X73303289Y-73334025D01*
X73308416Y-73333368D01*
X73313366Y-73331883D01*
X73517429Y-73270661D01*
X73517434Y-73270659D01*
X73522384Y-73269174D01*
X73722994Y-73170896D01*
X73904860Y-73041173D01*
X74063096Y-72883489D01*
X74193453Y-72702077D01*
X74194776Y-72703028D01*
X74241645Y-72659857D01*
X74311580Y-72647625D01*
X74377026Y-72675144D01*
X74404875Y-72706994D01*
X74464987Y-72805088D01*
X74611250Y-72973938D01*
X74783126Y-73116632D01*
X74976000Y-73229338D01*
X75184692Y-73309030D01*
X75189760Y-73310061D01*
X75189763Y-73310062D01*
X75291208Y-73330701D01*
X75403597Y-73353567D01*
X75408772Y-73353757D01*
X75408774Y-73353757D01*
X75621673Y-73361564D01*
X75621677Y-73361564D01*
X75626837Y-73361753D01*
X75631957Y-73361097D01*
X75631959Y-73361097D01*
X75843288Y-73334025D01*
X75843289Y-73334025D01*
X75848416Y-73333368D01*
X75853366Y-73331883D01*
X76057429Y-73270661D01*
X76057434Y-73270659D01*
X76062384Y-73269174D01*
X76262994Y-73170896D01*
X76444860Y-73041173D01*
X76603096Y-72883489D01*
X76733453Y-72702077D01*
X76734776Y-72703028D01*
X76781645Y-72659857D01*
X76851580Y-72647625D01*
X76917026Y-72675144D01*
X76944875Y-72706994D01*
X77004987Y-72805088D01*
X77151250Y-72973938D01*
X77323126Y-73116632D01*
X77516000Y-73229338D01*
X77724692Y-73309030D01*
X77729760Y-73310061D01*
X77729763Y-73310062D01*
X77831208Y-73330701D01*
X77943597Y-73353567D01*
X77948772Y-73353757D01*
X77948774Y-73353757D01*
X78161673Y-73361564D01*
X78161677Y-73361564D01*
X78166837Y-73361753D01*
X78171957Y-73361097D01*
X78171959Y-73361097D01*
X78383288Y-73334025D01*
X78383289Y-73334025D01*
X78388416Y-73333368D01*
X78393366Y-73331883D01*
X78597429Y-73270661D01*
X78597434Y-73270659D01*
X78602384Y-73269174D01*
X78802994Y-73170896D01*
X78981845Y-73043324D01*
X79048915Y-73020052D01*
X79117923Y-73036735D01*
X79144105Y-73056809D01*
X80307224Y-74219928D01*
X80341250Y-74282240D01*
X80336185Y-74353055D01*
X80293638Y-74409891D01*
X80282552Y-74417308D01*
X80156996Y-74492006D01*
X80150745Y-74496253D01*
X79957533Y-74645315D01*
X79949067Y-74656973D01*
X79955671Y-74668861D01*
X81976915Y-76690105D01*
X82010941Y-76752417D01*
X82005876Y-76823232D01*
X81976915Y-76868295D01*
X79957057Y-78888153D01*
X79949942Y-78901182D01*
X79957468Y-78911615D01*
X80103263Y-79029048D01*
X80109448Y-79033444D01*
X80385163Y-79205395D01*
X80391834Y-79209017D01*
X80686214Y-79346602D01*
X80693268Y-79349395D01*
X81002057Y-79450620D01*
X81009370Y-79452539D01*
X81328098Y-79515938D01*
X81335589Y-79516964D01*
X81659623Y-79541613D01*
X81667186Y-79541731D01*
X81902786Y-79531239D01*
X81971729Y-79548190D01*
X82020563Y-79599724D01*
X82033784Y-79669479D01*
X82007193Y-79735308D01*
X81997487Y-79746209D01*
X78959747Y-82783948D01*
X78951461Y-82791488D01*
X78944982Y-82795600D01*
X78939557Y-82801377D01*
X78898357Y-82845251D01*
X78895602Y-82848093D01*
X78875865Y-82867830D01*
X78873385Y-82871027D01*
X78865682Y-82880047D01*
X78835414Y-82912279D01*
X78831595Y-82919225D01*
X78831593Y-82919228D01*
X78825652Y-82930034D01*
X78814801Y-82946553D01*
X78802386Y-82962559D01*
X78799241Y-82969828D01*
X78799238Y-82969832D01*
X78784826Y-83003137D01*
X78779609Y-83013787D01*
X78758305Y-83052540D01*
X78756334Y-83060215D01*
X78756334Y-83060216D01*
X78753267Y-83072162D01*
X78746863Y-83090866D01*
X78742116Y-83101837D01*
X78738819Y-83109455D01*
X78737579Y-83117281D01*
X78737578Y-83117286D01*
X78736944Y-83121288D01*
X78735578Y-83124169D01*
X78735366Y-83124899D01*
X78735248Y-83124865D01*
X78706529Y-83185439D01*
X78646260Y-83222964D01*
X78575270Y-83221947D01*
X78564302Y-83217804D01*
X78562189Y-83216638D01*
X78435358Y-83171725D01*
X78356487Y-83143795D01*
X78356483Y-83143794D01*
X78351612Y-83142069D01*
X78346519Y-83141162D01*
X78346516Y-83141161D01*
X78136773Y-83103800D01*
X78136767Y-83103799D01*
X78131684Y-83102894D01*
X78057852Y-83101992D01*
X77913481Y-83100228D01*
X77913479Y-83100228D01*
X77908311Y-83100165D01*
X77687491Y-83133955D01*
X77475156Y-83203357D01*
X77444843Y-83219137D01*
X77301375Y-83293822D01*
X77277007Y-83306507D01*
X77272874Y-83309610D01*
X77272871Y-83309612D01*
X77102500Y-83437530D01*
X77098365Y-83440635D01*
X77094793Y-83444373D01*
X76971259Y-83573644D01*
X76944029Y-83602138D01*
X76836601Y-83759621D01*
X76781693Y-83804621D01*
X76711168Y-83812792D01*
X76647421Y-83781538D01*
X76626724Y-83757054D01*
X76546222Y-83632617D01*
X76546220Y-83632614D01*
X76543414Y-83628277D01*
X76393070Y-83463051D01*
X76389019Y-83459852D01*
X76389015Y-83459848D01*
X76221814Y-83327800D01*
X76221810Y-83327798D01*
X76217759Y-83324598D01*
X76213231Y-83322098D01*
X76154800Y-83289843D01*
X76022189Y-83216638D01*
X76017320Y-83214914D01*
X76017316Y-83214912D01*
X75816487Y-83143795D01*
X75816483Y-83143794D01*
X75811612Y-83142069D01*
X75806519Y-83141162D01*
X75806516Y-83141161D01*
X75596773Y-83103800D01*
X75596767Y-83103799D01*
X75591684Y-83102894D01*
X75517852Y-83101992D01*
X75373481Y-83100228D01*
X75373479Y-83100228D01*
X75368311Y-83100165D01*
X75147491Y-83133955D01*
X74935156Y-83203357D01*
X74904843Y-83219137D01*
X74761375Y-83293822D01*
X74737007Y-83306507D01*
X74732874Y-83309610D01*
X74732871Y-83309612D01*
X74562500Y-83437530D01*
X74558365Y-83440635D01*
X74554793Y-83444373D01*
X74431259Y-83573644D01*
X74404029Y-83602138D01*
X74296601Y-83759621D01*
X74241693Y-83804621D01*
X74171168Y-83812792D01*
X74107421Y-83781538D01*
X74086724Y-83757054D01*
X74006222Y-83632617D01*
X74006220Y-83632614D01*
X74003414Y-83628277D01*
X73853070Y-83463051D01*
X73849019Y-83459852D01*
X73849015Y-83459848D01*
X73681814Y-83327800D01*
X73681810Y-83327798D01*
X73677759Y-83324598D01*
X73673231Y-83322098D01*
X73614800Y-83289843D01*
X73482189Y-83216638D01*
X73477320Y-83214914D01*
X73477316Y-83214912D01*
X73276487Y-83143795D01*
X73276483Y-83143794D01*
X73271612Y-83142069D01*
X73266519Y-83141162D01*
X73266516Y-83141161D01*
X73056773Y-83103800D01*
X73056767Y-83103799D01*
X73051684Y-83102894D01*
X72977852Y-83101992D01*
X72833481Y-83100228D01*
X72833479Y-83100228D01*
X72828311Y-83100165D01*
X72607491Y-83133955D01*
X72395156Y-83203357D01*
X72364843Y-83219137D01*
X72221375Y-83293822D01*
X72197007Y-83306507D01*
X72192874Y-83309610D01*
X72192871Y-83309612D01*
X72022500Y-83437530D01*
X72018365Y-83440635D01*
X72014793Y-83444373D01*
X71891259Y-83573644D01*
X71864029Y-83602138D01*
X71756601Y-83759621D01*
X71701693Y-83804621D01*
X71631168Y-83812792D01*
X71567421Y-83781538D01*
X71546724Y-83757054D01*
X71466222Y-83632617D01*
X71466220Y-83632614D01*
X71463414Y-83628277D01*
X71313070Y-83463051D01*
X71309019Y-83459852D01*
X71309015Y-83459848D01*
X71141814Y-83327800D01*
X71141810Y-83327798D01*
X71137759Y-83324598D01*
X71133231Y-83322098D01*
X71074800Y-83289843D01*
X70942189Y-83216638D01*
X70937320Y-83214914D01*
X70937316Y-83214912D01*
X70736487Y-83143795D01*
X70736483Y-83143794D01*
X70731612Y-83142069D01*
X70726519Y-83141162D01*
X70726516Y-83141161D01*
X70516773Y-83103800D01*
X70516767Y-83103799D01*
X70511684Y-83102894D01*
X70437852Y-83101992D01*
X70293481Y-83100228D01*
X70293479Y-83100228D01*
X70288311Y-83100165D01*
X70067491Y-83133955D01*
X69855156Y-83203357D01*
X69824843Y-83219137D01*
X69681375Y-83293822D01*
X69657007Y-83306507D01*
X69652874Y-83309610D01*
X69652871Y-83309612D01*
X69482500Y-83437530D01*
X69478365Y-83440635D01*
X69474793Y-83444373D01*
X69351259Y-83573644D01*
X69324029Y-83602138D01*
X69216601Y-83759621D01*
X69161693Y-83804621D01*
X69091168Y-83812792D01*
X69027421Y-83781538D01*
X69006724Y-83757054D01*
X68926222Y-83632617D01*
X68926220Y-83632614D01*
X68923414Y-83628277D01*
X68773070Y-83463051D01*
X68769019Y-83459852D01*
X68769015Y-83459848D01*
X68601814Y-83327800D01*
X68601810Y-83327798D01*
X68597759Y-83324598D01*
X68593231Y-83322098D01*
X68534800Y-83289843D01*
X68402189Y-83216638D01*
X68397320Y-83214914D01*
X68397316Y-83214912D01*
X68196487Y-83143795D01*
X68196483Y-83143794D01*
X68191612Y-83142069D01*
X68186519Y-83141162D01*
X68186516Y-83141161D01*
X67976773Y-83103800D01*
X67976767Y-83103799D01*
X67971684Y-83102894D01*
X67897852Y-83101992D01*
X67753481Y-83100228D01*
X67753479Y-83100228D01*
X67748311Y-83100165D01*
X67527491Y-83133955D01*
X67315156Y-83203357D01*
X67284843Y-83219137D01*
X67141375Y-83293822D01*
X67117007Y-83306507D01*
X67112874Y-83309610D01*
X67112871Y-83309612D01*
X66942500Y-83437530D01*
X66938365Y-83440635D01*
X66934793Y-83444373D01*
X66811259Y-83573644D01*
X66784029Y-83602138D01*
X66676601Y-83759621D01*
X66621693Y-83804621D01*
X66551168Y-83812792D01*
X66487421Y-83781538D01*
X66466724Y-83757054D01*
X66386222Y-83632617D01*
X66386220Y-83632614D01*
X66383414Y-83628277D01*
X66233070Y-83463051D01*
X66229019Y-83459852D01*
X66229015Y-83459848D01*
X66061814Y-83327800D01*
X66061810Y-83327798D01*
X66057759Y-83324598D01*
X66053231Y-83322098D01*
X65994800Y-83289843D01*
X65862189Y-83216638D01*
X65857320Y-83214914D01*
X65857316Y-83214912D01*
X65656487Y-83143795D01*
X65656483Y-83143794D01*
X65651612Y-83142069D01*
X65646519Y-83141162D01*
X65646516Y-83141161D01*
X65436773Y-83103800D01*
X65436767Y-83103799D01*
X65431684Y-83102894D01*
X65357852Y-83101992D01*
X65213481Y-83100228D01*
X65213479Y-83100228D01*
X65208311Y-83100165D01*
X64987491Y-83133955D01*
X64775156Y-83203357D01*
X64744843Y-83219137D01*
X64601375Y-83293822D01*
X64577007Y-83306507D01*
X64572874Y-83309610D01*
X64572871Y-83309612D01*
X64402500Y-83437530D01*
X64398365Y-83440635D01*
X64394793Y-83444373D01*
X64271259Y-83573644D01*
X64244029Y-83602138D01*
X64136601Y-83759621D01*
X64081693Y-83804621D01*
X64011168Y-83812792D01*
X63947421Y-83781538D01*
X63926724Y-83757054D01*
X63846222Y-83632617D01*
X63846220Y-83632614D01*
X63843414Y-83628277D01*
X63693070Y-83463051D01*
X63689019Y-83459852D01*
X63689015Y-83459848D01*
X63521814Y-83327800D01*
X63521810Y-83327798D01*
X63517759Y-83324598D01*
X63513231Y-83322098D01*
X63454800Y-83289843D01*
X63322189Y-83216638D01*
X63317320Y-83214914D01*
X63317316Y-83214912D01*
X63116487Y-83143795D01*
X63116483Y-83143794D01*
X63111612Y-83142069D01*
X63106519Y-83141162D01*
X63106516Y-83141161D01*
X62896773Y-83103800D01*
X62896767Y-83103799D01*
X62891684Y-83102894D01*
X62817852Y-83101992D01*
X62673481Y-83100228D01*
X62673479Y-83100228D01*
X62668311Y-83100165D01*
X62447491Y-83133955D01*
X62235156Y-83203357D01*
X62204843Y-83219137D01*
X62061375Y-83293822D01*
X62037007Y-83306507D01*
X62032874Y-83309610D01*
X62032871Y-83309612D01*
X61862500Y-83437530D01*
X61858365Y-83440635D01*
X61854793Y-83444373D01*
X61731259Y-83573644D01*
X61704029Y-83602138D01*
X61596601Y-83759621D01*
X61541693Y-83804621D01*
X61471168Y-83812792D01*
X61407421Y-83781538D01*
X61386724Y-83757054D01*
X61306222Y-83632617D01*
X61306220Y-83632614D01*
X61303414Y-83628277D01*
X61153070Y-83463051D01*
X61149019Y-83459852D01*
X61149015Y-83459848D01*
X60981814Y-83327800D01*
X60981810Y-83327798D01*
X60977759Y-83324598D01*
X60973231Y-83322098D01*
X60914800Y-83289843D01*
X60782189Y-83216638D01*
X60777320Y-83214914D01*
X60777316Y-83214912D01*
X60576487Y-83143795D01*
X60576483Y-83143794D01*
X60571612Y-83142069D01*
X60566519Y-83141162D01*
X60566516Y-83141161D01*
X60356773Y-83103800D01*
X60356767Y-83103799D01*
X60351684Y-83102894D01*
X60277852Y-83101992D01*
X60133481Y-83100228D01*
X60133479Y-83100228D01*
X60128311Y-83100165D01*
X59907491Y-83133955D01*
X59695156Y-83203357D01*
X59664843Y-83219137D01*
X59521375Y-83293822D01*
X59497007Y-83306507D01*
X59492874Y-83309610D01*
X59492871Y-83309612D01*
X59322500Y-83437530D01*
X59318365Y-83440635D01*
X59314793Y-83444373D01*
X59191259Y-83573644D01*
X59164029Y-83602138D01*
X59056601Y-83759621D01*
X59001693Y-83804621D01*
X58931168Y-83812792D01*
X58867421Y-83781538D01*
X58846724Y-83757054D01*
X58766222Y-83632617D01*
X58766220Y-83632614D01*
X58763414Y-83628277D01*
X58613070Y-83463051D01*
X58609019Y-83459852D01*
X58609015Y-83459848D01*
X58441814Y-83327800D01*
X58441810Y-83327798D01*
X58437759Y-83324598D01*
X58433231Y-83322098D01*
X58374800Y-83289843D01*
X58242189Y-83216638D01*
X58237320Y-83214914D01*
X58237316Y-83214912D01*
X58036487Y-83143795D01*
X58036483Y-83143794D01*
X58031612Y-83142069D01*
X58026519Y-83141162D01*
X58026516Y-83141161D01*
X57816773Y-83103800D01*
X57816767Y-83103799D01*
X57811684Y-83102894D01*
X57737852Y-83101992D01*
X57593481Y-83100228D01*
X57593479Y-83100228D01*
X57588311Y-83100165D01*
X57367491Y-83133955D01*
X57155156Y-83203357D01*
X57124843Y-83219137D01*
X56981375Y-83293822D01*
X56957007Y-83306507D01*
X56952874Y-83309610D01*
X56952871Y-83309612D01*
X56782500Y-83437530D01*
X56778365Y-83440635D01*
X56774793Y-83444373D01*
X56651259Y-83573644D01*
X56624029Y-83602138D01*
X56516601Y-83759621D01*
X56461693Y-83804621D01*
X56391168Y-83812792D01*
X56327421Y-83781538D01*
X56306724Y-83757054D01*
X56226222Y-83632617D01*
X56226220Y-83632614D01*
X56223414Y-83628277D01*
X56073070Y-83463051D01*
X56069019Y-83459852D01*
X56069015Y-83459848D01*
X55901814Y-83327800D01*
X55901810Y-83327798D01*
X55897759Y-83324598D01*
X55893231Y-83322098D01*
X55834800Y-83289843D01*
X55702189Y-83216638D01*
X55697320Y-83214914D01*
X55697316Y-83214912D01*
X55496487Y-83143795D01*
X55496483Y-83143794D01*
X55491612Y-83142069D01*
X55486519Y-83141162D01*
X55486516Y-83141161D01*
X55276773Y-83103800D01*
X55276767Y-83103799D01*
X55271684Y-83102894D01*
X55197852Y-83101992D01*
X55053481Y-83100228D01*
X55053479Y-83100228D01*
X55048311Y-83100165D01*
X54827491Y-83133955D01*
X54615156Y-83203357D01*
X54584843Y-83219137D01*
X54441375Y-83293822D01*
X54417007Y-83306507D01*
X54412874Y-83309610D01*
X54412871Y-83309612D01*
X54242500Y-83437530D01*
X54238365Y-83440635D01*
X54234793Y-83444373D01*
X54111259Y-83573644D01*
X54084029Y-83602138D01*
X53976601Y-83759621D01*
X53921693Y-83804621D01*
X53851168Y-83812792D01*
X53787421Y-83781538D01*
X53766724Y-83757054D01*
X53686222Y-83632617D01*
X53686220Y-83632614D01*
X53683414Y-83628277D01*
X53533070Y-83463051D01*
X53529019Y-83459852D01*
X53529015Y-83459848D01*
X53361814Y-83327800D01*
X53361810Y-83327798D01*
X53357759Y-83324598D01*
X53353231Y-83322098D01*
X53294800Y-83289843D01*
X53162189Y-83216638D01*
X53157320Y-83214914D01*
X53157316Y-83214912D01*
X52956487Y-83143795D01*
X52956483Y-83143794D01*
X52951612Y-83142069D01*
X52946519Y-83141162D01*
X52946516Y-83141161D01*
X52736773Y-83103800D01*
X52736767Y-83103799D01*
X52731684Y-83102894D01*
X52657852Y-83101992D01*
X52513481Y-83100228D01*
X52513479Y-83100228D01*
X52508311Y-83100165D01*
X52287491Y-83133955D01*
X52075156Y-83203357D01*
X52044843Y-83219137D01*
X51901375Y-83293822D01*
X51877007Y-83306507D01*
X51872874Y-83309610D01*
X51872871Y-83309612D01*
X51702500Y-83437530D01*
X51698365Y-83440635D01*
X51694793Y-83444373D01*
X51571259Y-83573644D01*
X51544029Y-83602138D01*
X51436601Y-83759621D01*
X51381693Y-83804621D01*
X51311168Y-83812792D01*
X51247421Y-83781538D01*
X51226724Y-83757054D01*
X51146222Y-83632617D01*
X51146220Y-83632614D01*
X51143414Y-83628277D01*
X50993070Y-83463051D01*
X50989019Y-83459852D01*
X50989015Y-83459848D01*
X50821814Y-83327800D01*
X50821810Y-83327798D01*
X50817759Y-83324598D01*
X50813231Y-83322098D01*
X50754800Y-83289843D01*
X50622189Y-83216638D01*
X50617320Y-83214914D01*
X50617316Y-83214912D01*
X50416487Y-83143795D01*
X50416483Y-83143794D01*
X50411612Y-83142069D01*
X50406519Y-83141162D01*
X50406516Y-83141161D01*
X50196773Y-83103800D01*
X50196767Y-83103799D01*
X50191684Y-83102894D01*
X50117852Y-83101992D01*
X49973481Y-83100228D01*
X49973479Y-83100228D01*
X49968311Y-83100165D01*
X49747491Y-83133955D01*
X49535156Y-83203357D01*
X49504843Y-83219137D01*
X49361375Y-83293822D01*
X49337007Y-83306507D01*
X49332874Y-83309610D01*
X49332871Y-83309612D01*
X49162500Y-83437530D01*
X49158365Y-83440635D01*
X49067181Y-83536054D01*
X49024427Y-83580793D01*
X48962903Y-83616223D01*
X48891990Y-83612766D01*
X48834204Y-83571520D01*
X48819233Y-83547194D01*
X48817265Y-83542994D01*
X48814950Y-83536054D01*
X48721878Y-83385652D01*
X48596703Y-83260695D01*
X48548743Y-83231132D01*
X48452368Y-83171725D01*
X48452366Y-83171724D01*
X48446138Y-83167885D01*
X48339196Y-83132414D01*
X48284789Y-83114368D01*
X48284787Y-83114368D01*
X48278261Y-83112203D01*
X48271425Y-83111503D01*
X48271422Y-83111502D01*
X48225040Y-83106750D01*
X48173800Y-83101500D01*
X46873000Y-83101500D01*
X46869754Y-83101837D01*
X46869750Y-83101837D01*
X46774092Y-83111762D01*
X46774088Y-83111763D01*
X46767234Y-83112474D01*
X46760698Y-83114655D01*
X46760696Y-83114655D01*
X46698034Y-83135561D01*
X46599454Y-83168450D01*
X46449052Y-83261522D01*
X46443879Y-83266704D01*
X46386086Y-83324598D01*
X46324095Y-83386697D01*
X46320255Y-83392927D01*
X46320254Y-83392928D01*
X46235866Y-83529831D01*
X46231285Y-83537262D01*
X46175603Y-83705139D01*
X46164900Y-83809600D01*
X46164900Y-85110400D01*
X46165237Y-85113646D01*
X46165237Y-85113650D01*
X46174186Y-85199893D01*
X46175874Y-85216166D01*
X46178055Y-85222702D01*
X46178055Y-85222704D01*
X46222128Y-85354806D01*
X46231850Y-85383946D01*
X46324922Y-85534348D01*
X46450097Y-85659305D01*
X46456327Y-85663145D01*
X46456328Y-85663146D01*
X46593490Y-85747694D01*
X46600662Y-85752115D01*
X46614299Y-85756638D01*
X46675619Y-85776977D01*
X46733979Y-85817407D01*
X46744699Y-85843211D01*
X46746050Y-85842472D01*
X46771368Y-85888758D01*
X47510588Y-86627978D01*
X47524532Y-86635592D01*
X47526365Y-86635461D01*
X47532980Y-86631210D01*
X48276789Y-85887401D01*
X48299583Y-85845659D01*
X48301757Y-85835666D01*
X48351961Y-85785466D01*
X48372466Y-85776532D01*
X48432095Y-85756638D01*
X48447346Y-85751550D01*
X48597748Y-85658478D01*
X48722705Y-85533303D01*
X48815515Y-85382738D01*
X48817818Y-85375795D01*
X48820163Y-85370766D01*
X48867080Y-85317481D01*
X48935358Y-85298021D01*
X49003318Y-85318564D01*
X49029594Y-85341520D01*
X49106260Y-85430025D01*
X49109650Y-85433938D01*
X49281526Y-85576632D01*
X49310774Y-85593723D01*
X49354845Y-85619476D01*
X49403569Y-85671114D01*
X49416640Y-85740897D01*
X49389909Y-85806669D01*
X49349455Y-85840027D01*
X49343339Y-85843211D01*
X49337007Y-85846507D01*
X49332874Y-85849610D01*
X49332871Y-85849612D01*
X49162500Y-85977530D01*
X49158365Y-85980635D01*
X49004029Y-86142138D01*
X48931093Y-86249059D01*
X48896298Y-86300066D01*
X48841387Y-86345069D01*
X48770862Y-86353240D01*
X48707115Y-86321986D01*
X48686417Y-86297501D01*
X48656462Y-86251197D01*
X48645777Y-86241995D01*
X48636212Y-86246398D01*
X47895422Y-86987188D01*
X47887808Y-87001132D01*
X47887939Y-87002965D01*
X47892190Y-87009580D01*
X48633874Y-87751264D01*
X48645884Y-87757823D01*
X48657623Y-87748855D01*
X48691422Y-87701819D01*
X48692677Y-87702721D01*
X48739791Y-87659355D01*
X48809730Y-87647148D01*
X48875167Y-87674691D01*
X48902980Y-87706513D01*
X48960687Y-87800683D01*
X48960691Y-87800688D01*
X48963387Y-87805088D01*
X49109650Y-87973938D01*
X49281526Y-88116632D01*
X49474400Y-88229338D01*
X49479225Y-88231180D01*
X49479226Y-88231181D01*
X49519557Y-88246582D01*
X49683092Y-88309030D01*
X49688160Y-88310061D01*
X49688163Y-88310062D01*
X49793004Y-88331392D01*
X49901997Y-88353567D01*
X49907172Y-88353757D01*
X49907174Y-88353757D01*
X50120073Y-88361564D01*
X50120077Y-88361564D01*
X50125237Y-88361753D01*
X50130357Y-88361097D01*
X50130359Y-88361097D01*
X50341688Y-88334025D01*
X50341689Y-88334025D01*
X50346816Y-88333368D01*
X50353403Y-88331392D01*
X50479192Y-88293653D01*
X50550188Y-88293237D01*
X50610138Y-88331269D01*
X50640010Y-88395675D01*
X50641400Y-88414339D01*
X50641400Y-90054150D01*
X50621398Y-90122271D01*
X50567742Y-90168764D01*
X50497468Y-90178868D01*
X50473344Y-90172924D01*
X50425409Y-90155949D01*
X50391087Y-90143795D01*
X50391083Y-90143794D01*
X50386212Y-90142069D01*
X50381119Y-90141162D01*
X50381116Y-90141161D01*
X50171373Y-90103800D01*
X50171367Y-90103799D01*
X50166284Y-90102894D01*
X50092452Y-90101992D01*
X49948081Y-90100228D01*
X49948079Y-90100228D01*
X49942911Y-90100165D01*
X49722091Y-90133955D01*
X49509756Y-90203357D01*
X49473521Y-90222220D01*
X49335975Y-90293822D01*
X49311607Y-90306507D01*
X49307474Y-90309610D01*
X49307471Y-90309612D01*
X49137100Y-90437530D01*
X49132965Y-90440635D01*
X48978629Y-90602138D01*
X48871204Y-90759618D01*
X48870898Y-90760066D01*
X48815987Y-90805069D01*
X48745462Y-90813240D01*
X48681715Y-90781986D01*
X48661017Y-90757501D01*
X48631062Y-90711197D01*
X48620377Y-90701995D01*
X48610812Y-90706398D01*
X47870022Y-91447188D01*
X47862408Y-91461132D01*
X47862539Y-91462965D01*
X47866790Y-91469580D01*
X48608474Y-92211264D01*
X48620484Y-92217823D01*
X48632223Y-92208855D01*
X48666022Y-92161819D01*
X48667277Y-92162721D01*
X48714391Y-92119355D01*
X48784330Y-92107148D01*
X48849767Y-92134691D01*
X48877580Y-92166513D01*
X48935287Y-92260683D01*
X48935291Y-92260688D01*
X48937987Y-92265088D01*
X49084250Y-92433938D01*
X49256126Y-92576632D01*
X49320312Y-92614139D01*
X49329445Y-92619476D01*
X49378169Y-92671114D01*
X49391240Y-92740897D01*
X49364509Y-92806669D01*
X49324055Y-92840027D01*
X49311607Y-92846507D01*
X49307474Y-92849610D01*
X49307471Y-92849612D01*
X49137100Y-92977530D01*
X49132965Y-92980635D01*
X49041243Y-93076617D01*
X48999027Y-93120793D01*
X48937503Y-93156223D01*
X48866590Y-93152766D01*
X48808804Y-93111520D01*
X48793833Y-93087194D01*
X48791865Y-93082994D01*
X48789550Y-93076054D01*
X48696478Y-92925652D01*
X48571303Y-92800695D01*
X48565072Y-92796854D01*
X48426968Y-92711725D01*
X48426966Y-92711724D01*
X48420738Y-92707885D01*
X48364820Y-92689338D01*
X48345640Y-92682976D01*
X48287280Y-92642545D01*
X48276729Y-92617146D01*
X48274424Y-92618370D01*
X48248660Y-92569870D01*
X47510812Y-91832022D01*
X47496868Y-91824408D01*
X47495035Y-91824539D01*
X47488420Y-91828790D01*
X46744737Y-92572473D01*
X46721985Y-92614139D01*
X46719777Y-92624287D01*
X46669574Y-92674488D01*
X46649067Y-92683424D01*
X46574054Y-92708450D01*
X46423652Y-92801522D01*
X46298695Y-92926697D01*
X46294855Y-92932927D01*
X46294854Y-92932928D01*
X46210466Y-93069831D01*
X46205885Y-93077262D01*
X46190834Y-93122641D01*
X46159414Y-93217370D01*
X46150203Y-93245139D01*
X46139500Y-93349600D01*
X46139500Y-94650400D01*
X34006100Y-94650400D01*
X34006100Y-91431863D01*
X46136050Y-91431863D01*
X46148309Y-91644477D01*
X46149745Y-91654697D01*
X46196565Y-91862446D01*
X46199645Y-91872275D01*
X46279770Y-92069603D01*
X46284413Y-92078794D01*
X46364460Y-92209420D01*
X46374916Y-92218880D01*
X46383694Y-92215096D01*
X47125978Y-91472812D01*
X47133592Y-91458868D01*
X47133461Y-91457035D01*
X47129210Y-91450420D01*
X46387849Y-90709059D01*
X46376313Y-90702759D01*
X46364031Y-90712382D01*
X46316089Y-90782662D01*
X46311004Y-90791613D01*
X46221338Y-90984783D01*
X46217775Y-90994470D01*
X46160864Y-91199681D01*
X46158933Y-91209800D01*
X46136302Y-91421574D01*
X46136050Y-91431863D01*
X34006100Y-91431863D01*
X34006100Y-90336427D01*
X46739223Y-90336427D01*
X46745968Y-90348758D01*
X47485188Y-91087978D01*
X47499132Y-91095592D01*
X47500965Y-91095461D01*
X47507580Y-91091210D01*
X48251389Y-90347401D01*
X48258410Y-90334544D01*
X48251611Y-90325213D01*
X48247554Y-90322518D01*
X48061117Y-90219599D01*
X48051705Y-90215369D01*
X47850959Y-90144280D01*
X47840989Y-90141646D01*
X47631327Y-90104301D01*
X47621073Y-90103331D01*
X47408116Y-90100728D01*
X47397832Y-90101448D01*
X47187321Y-90133661D01*
X47177293Y-90136050D01*
X46974868Y-90202212D01*
X46965359Y-90206209D01*
X46776466Y-90304540D01*
X46767734Y-90310039D01*
X46747677Y-90325099D01*
X46739223Y-90336427D01*
X34006100Y-90336427D01*
X34006100Y-88124853D01*
X46763377Y-88124853D01*
X46768658Y-88131907D01*
X46930156Y-88226279D01*
X46939442Y-88230729D01*
X47138401Y-88306703D01*
X47148299Y-88309579D01*
X47356995Y-88352038D01*
X47367223Y-88353257D01*
X47580050Y-88361062D01*
X47590336Y-88360595D01*
X47801585Y-88333534D01*
X47811662Y-88331392D01*
X48015655Y-88270191D01*
X48025242Y-88266433D01*
X48216498Y-88172738D01*
X48225344Y-88167465D01*
X48272647Y-88133723D01*
X48281048Y-88123023D01*
X48274060Y-88109870D01*
X47536212Y-87372022D01*
X47522268Y-87364408D01*
X47520435Y-87364539D01*
X47513820Y-87368790D01*
X46770137Y-88112473D01*
X46763377Y-88124853D01*
X34006100Y-88124853D01*
X34006100Y-86971863D01*
X46161450Y-86971863D01*
X46173709Y-87184477D01*
X46175145Y-87194697D01*
X46221965Y-87402446D01*
X46225045Y-87412275D01*
X46305170Y-87609603D01*
X46309813Y-87618794D01*
X46389860Y-87749420D01*
X46400316Y-87758880D01*
X46409094Y-87755096D01*
X47151378Y-87012812D01*
X47158992Y-86998868D01*
X47158861Y-86997035D01*
X47154610Y-86990420D01*
X46413249Y-86249059D01*
X46401713Y-86242759D01*
X46389431Y-86252382D01*
X46341489Y-86322662D01*
X46336404Y-86331613D01*
X46246738Y-86524783D01*
X46243175Y-86534470D01*
X46186264Y-86739681D01*
X46184333Y-86749800D01*
X46161702Y-86961574D01*
X46161450Y-86971863D01*
X34006100Y-86971863D01*
X34006100Y-76754058D01*
X78944099Y-76754058D01*
X78960256Y-77078610D01*
X78961087Y-77086139D01*
X79016118Y-77406398D01*
X79017851Y-77413785D01*
X79110956Y-77725109D01*
X79113559Y-77732222D01*
X79243395Y-78030113D01*
X79246837Y-78036869D01*
X79411520Y-78317003D01*
X79415743Y-78323288D01*
X79572592Y-78528808D01*
X79584116Y-78537269D01*
X79596182Y-78530608D01*
X81334778Y-76792012D01*
X81342392Y-76778068D01*
X81342261Y-76776235D01*
X81338010Y-76769620D01*
X79597664Y-75029274D01*
X79584729Y-75022211D01*
X79574167Y-75029871D01*
X79448585Y-75187468D01*
X79444228Y-75193667D01*
X79273713Y-75470294D01*
X79270133Y-75476970D01*
X79134087Y-75772078D01*
X79131337Y-75779129D01*
X79031727Y-76088451D01*
X79029844Y-76095784D01*
X78968116Y-76414832D01*
X78967129Y-76422332D01*
X78944178Y-76746477D01*
X78944099Y-76754058D01*
X34006100Y-76754058D01*
X34006100Y-69431863D01*
X46263050Y-69431863D01*
X46275309Y-69644477D01*
X46276745Y-69654697D01*
X46323565Y-69862446D01*
X46326645Y-69872275D01*
X46406770Y-70069603D01*
X46411413Y-70078794D01*
X46491460Y-70209420D01*
X46501916Y-70218880D01*
X46510694Y-70215096D01*
X47252978Y-69472812D01*
X47260592Y-69458868D01*
X47260461Y-69457035D01*
X47256210Y-69450420D01*
X46514849Y-68709059D01*
X46503313Y-68702759D01*
X46491031Y-68712382D01*
X46443089Y-68782662D01*
X46438004Y-68791613D01*
X46348338Y-68984783D01*
X46344775Y-68994470D01*
X46287864Y-69199681D01*
X46285933Y-69209800D01*
X46263302Y-69421574D01*
X46263050Y-69431863D01*
X34006100Y-69431863D01*
X34006100Y-68336427D01*
X46866223Y-68336427D01*
X46872968Y-68348758D01*
X47612188Y-69087978D01*
X47626132Y-69095592D01*
X47627965Y-69095461D01*
X47634580Y-69091210D01*
X48378389Y-68347401D01*
X48385410Y-68334544D01*
X48378611Y-68325213D01*
X48374554Y-68322518D01*
X48188117Y-68219599D01*
X48178705Y-68215369D01*
X47977959Y-68144280D01*
X47967989Y-68141646D01*
X47758327Y-68104301D01*
X47748073Y-68103331D01*
X47535116Y-68100728D01*
X47524832Y-68101448D01*
X47314321Y-68133661D01*
X47304293Y-68136050D01*
X47101868Y-68202212D01*
X47092359Y-68206209D01*
X46903466Y-68304540D01*
X46894734Y-68310039D01*
X46874677Y-68325099D01*
X46866223Y-68336427D01*
X34006100Y-68336427D01*
X34006100Y-66124853D01*
X46864977Y-66124853D01*
X46870258Y-66131907D01*
X47031756Y-66226279D01*
X47041042Y-66230729D01*
X47240001Y-66306703D01*
X47249899Y-66309579D01*
X47458595Y-66352038D01*
X47468823Y-66353257D01*
X47681650Y-66361062D01*
X47691936Y-66360595D01*
X47903185Y-66333534D01*
X47913262Y-66331392D01*
X48117255Y-66270191D01*
X48126842Y-66266433D01*
X48318098Y-66172738D01*
X48326944Y-66167465D01*
X48374247Y-66133723D01*
X48382648Y-66123023D01*
X48375660Y-66109870D01*
X47637812Y-65372022D01*
X47623868Y-65364408D01*
X47622035Y-65364539D01*
X47615420Y-65368790D01*
X46871737Y-66112473D01*
X46864977Y-66124853D01*
X34006100Y-66124853D01*
X34006100Y-64971863D01*
X46263050Y-64971863D01*
X46275309Y-65184477D01*
X46276745Y-65194697D01*
X46323565Y-65402446D01*
X46326645Y-65412275D01*
X46406770Y-65609603D01*
X46411413Y-65618794D01*
X46491460Y-65749420D01*
X46501916Y-65758880D01*
X46510694Y-65755096D01*
X47252978Y-65012812D01*
X47260592Y-64998868D01*
X47260461Y-64997035D01*
X47256210Y-64990420D01*
X46514849Y-64249059D01*
X46503313Y-64242759D01*
X46491031Y-64252382D01*
X46443089Y-64322662D01*
X46438004Y-64331613D01*
X46348338Y-64524783D01*
X46344775Y-64534470D01*
X46287864Y-64739681D01*
X46285933Y-64749800D01*
X46263302Y-64961574D01*
X46263050Y-64971863D01*
X34006100Y-64971863D01*
X34006100Y-47431863D01*
X46313850Y-47431863D01*
X46326109Y-47644477D01*
X46327545Y-47654697D01*
X46374365Y-47862446D01*
X46377445Y-47872275D01*
X46457570Y-48069603D01*
X46462213Y-48078794D01*
X46542260Y-48209420D01*
X46552716Y-48218880D01*
X46561494Y-48215096D01*
X47303778Y-47472812D01*
X47311392Y-47458868D01*
X47311261Y-47457035D01*
X47307010Y-47450420D01*
X46565649Y-46709059D01*
X46554113Y-46702759D01*
X46541831Y-46712382D01*
X46493889Y-46782662D01*
X46488804Y-46791613D01*
X46399138Y-46984783D01*
X46395575Y-46994470D01*
X46338664Y-47199681D01*
X46336733Y-47209800D01*
X46314102Y-47421574D01*
X46313850Y-47431863D01*
X34006100Y-47431863D01*
X34006100Y-46336427D01*
X46917023Y-46336427D01*
X46923768Y-46348758D01*
X47662988Y-47087978D01*
X47676932Y-47095592D01*
X47678765Y-47095461D01*
X47685380Y-47091210D01*
X48429189Y-46347401D01*
X48436210Y-46334544D01*
X48429411Y-46325213D01*
X48425354Y-46322518D01*
X48238917Y-46219599D01*
X48229505Y-46215369D01*
X48028759Y-46144280D01*
X48018789Y-46141646D01*
X47809127Y-46104301D01*
X47798873Y-46103331D01*
X47585916Y-46100728D01*
X47575632Y-46101448D01*
X47365121Y-46133661D01*
X47355093Y-46136050D01*
X47152668Y-46202212D01*
X47143159Y-46206209D01*
X46954266Y-46304540D01*
X46945534Y-46310039D01*
X46925477Y-46325099D01*
X46917023Y-46336427D01*
X34006100Y-46336427D01*
X34006100Y-36868563D01*
X46313850Y-36868563D01*
X46326109Y-37081177D01*
X46327545Y-37091397D01*
X46374365Y-37299146D01*
X46377445Y-37308975D01*
X46457570Y-37506303D01*
X46462213Y-37515494D01*
X46542260Y-37646120D01*
X46552716Y-37655580D01*
X46561494Y-37651796D01*
X47303778Y-36909512D01*
X47311392Y-36895568D01*
X47311261Y-36893735D01*
X47307010Y-36887120D01*
X46565649Y-36145759D01*
X46554113Y-36139459D01*
X46541831Y-36149082D01*
X46493889Y-36219362D01*
X46488804Y-36228313D01*
X46399138Y-36421483D01*
X46395575Y-36431170D01*
X46338664Y-36636381D01*
X46336733Y-36646500D01*
X46314102Y-36858274D01*
X46313850Y-36868563D01*
X34006100Y-36868563D01*
X34006100Y-35773127D01*
X46917023Y-35773127D01*
X46923768Y-35785458D01*
X47662988Y-36524678D01*
X47676932Y-36532292D01*
X47678765Y-36532161D01*
X47685380Y-36527910D01*
X48429189Y-35784101D01*
X48436210Y-35771244D01*
X48429411Y-35761913D01*
X48425354Y-35759218D01*
X48238917Y-35656299D01*
X48229505Y-35652069D01*
X48028759Y-35580980D01*
X48018789Y-35578346D01*
X47809127Y-35541001D01*
X47798873Y-35540031D01*
X47585916Y-35537428D01*
X47575632Y-35538148D01*
X47365121Y-35570361D01*
X47355093Y-35572750D01*
X47152668Y-35638912D01*
X47143159Y-35642909D01*
X46954266Y-35741240D01*
X46945534Y-35746739D01*
X46925477Y-35761799D01*
X46917023Y-35773127D01*
X34006100Y-35773127D01*
X34006100Y-28101182D01*
X36515942Y-28101182D01*
X36523468Y-28111615D01*
X36669263Y-28229048D01*
X36675448Y-28233444D01*
X36951163Y-28405395D01*
X36957834Y-28409017D01*
X37252214Y-28546602D01*
X37259268Y-28549395D01*
X37568057Y-28650620D01*
X37575370Y-28652539D01*
X37894098Y-28715938D01*
X37901589Y-28716964D01*
X38225623Y-28741613D01*
X38233186Y-28741731D01*
X38557821Y-28727274D01*
X38565362Y-28726482D01*
X38885915Y-28673126D01*
X38893279Y-28671440D01*
X39205115Y-28579957D01*
X39212224Y-28577398D01*
X39510803Y-28449119D01*
X39517570Y-28445715D01*
X39798564Y-28282501D01*
X39804871Y-28278311D01*
X40022805Y-28113788D01*
X40031261Y-28102397D01*
X40024543Y-28090153D01*
X38285612Y-26351222D01*
X38271668Y-26343608D01*
X38269835Y-26343739D01*
X38263220Y-26347990D01*
X36523057Y-28088153D01*
X36515942Y-28101182D01*
X34006100Y-28101182D01*
X34006100Y-25954058D01*
X35510099Y-25954058D01*
X35526256Y-26278610D01*
X35527087Y-26286139D01*
X35582118Y-26606398D01*
X35583851Y-26613785D01*
X35676956Y-26925109D01*
X35679559Y-26932222D01*
X35809395Y-27230113D01*
X35812837Y-27236869D01*
X35977520Y-27517003D01*
X35981743Y-27523288D01*
X36138592Y-27728808D01*
X36150116Y-27737269D01*
X36162182Y-27730608D01*
X37900778Y-25992012D01*
X37907156Y-25980332D01*
X38637208Y-25980332D01*
X38637339Y-25982165D01*
X38641590Y-25988780D01*
X40381625Y-27728815D01*
X40394748Y-27735981D01*
X40405050Y-27728591D01*
X40514229Y-27594485D01*
X40518642Y-27588344D01*
X40692048Y-27313512D01*
X40695695Y-27306877D01*
X40834825Y-27013211D01*
X40837650Y-27006184D01*
X40940496Y-26697915D01*
X40942450Y-26690624D01*
X41007516Y-26372233D01*
X41008584Y-26364729D01*
X41035053Y-26039300D01*
X41035258Y-26034825D01*
X41035818Y-25981421D01*
X41035708Y-25976989D01*
X41016057Y-25651035D01*
X41015149Y-25643533D01*
X40956767Y-25323863D01*
X40956079Y-25321063D01*
X46313850Y-25321063D01*
X46326109Y-25533677D01*
X46327545Y-25543897D01*
X46374365Y-25751646D01*
X46377445Y-25761475D01*
X46457570Y-25958803D01*
X46462213Y-25967994D01*
X46542260Y-26098620D01*
X46552716Y-26108080D01*
X46561494Y-26104296D01*
X47303778Y-25362012D01*
X47311392Y-25348068D01*
X47311261Y-25346235D01*
X47307010Y-25339620D01*
X46565649Y-24598259D01*
X46554113Y-24591959D01*
X46541831Y-24601582D01*
X46493889Y-24671862D01*
X46488804Y-24680813D01*
X46399138Y-24873983D01*
X46395575Y-24883670D01*
X46338664Y-25088881D01*
X46336733Y-25099000D01*
X46314102Y-25310774D01*
X46313850Y-25321063D01*
X40956079Y-25321063D01*
X40954954Y-25316484D01*
X40858597Y-25006166D01*
X40855916Y-24999069D01*
X40722972Y-24702563D01*
X40719455Y-24695836D01*
X40551854Y-24417452D01*
X40547557Y-24411199D01*
X40406417Y-24230222D01*
X40400019Y-24225627D01*
X46917023Y-24225627D01*
X46923768Y-24237958D01*
X47662988Y-24977178D01*
X47676932Y-24984792D01*
X47678765Y-24984661D01*
X47685380Y-24980410D01*
X48429189Y-24236601D01*
X48436210Y-24223744D01*
X48429411Y-24214413D01*
X48425354Y-24211718D01*
X48238917Y-24108799D01*
X48229505Y-24104569D01*
X48028759Y-24033480D01*
X48018789Y-24030846D01*
X47809127Y-23993501D01*
X47798873Y-23992531D01*
X47585916Y-23989928D01*
X47575632Y-23990648D01*
X47365121Y-24022861D01*
X47355093Y-24025250D01*
X47152668Y-24091412D01*
X47143159Y-24095409D01*
X46954266Y-24193740D01*
X46945534Y-24199239D01*
X46925477Y-24214299D01*
X46917023Y-24225627D01*
X40400019Y-24225627D01*
X40394623Y-24221751D01*
X40382913Y-24228297D01*
X38644822Y-25966388D01*
X38637208Y-25980332D01*
X37907156Y-25980332D01*
X37908392Y-25978068D01*
X37908261Y-25976235D01*
X37904010Y-25969620D01*
X36163664Y-24229274D01*
X36150729Y-24222211D01*
X36140167Y-24229871D01*
X36014585Y-24387468D01*
X36010228Y-24393667D01*
X35839713Y-24670294D01*
X35836133Y-24676970D01*
X35700087Y-24972078D01*
X35697337Y-24979129D01*
X35597727Y-25288451D01*
X35595844Y-25295784D01*
X35534116Y-25614832D01*
X35533129Y-25622332D01*
X35510178Y-25946477D01*
X35510099Y-25954058D01*
X34006100Y-25954058D01*
X34006100Y-23856973D01*
X36515067Y-23856973D01*
X36521671Y-23868861D01*
X38259988Y-25607178D01*
X38273932Y-25614792D01*
X38275765Y-25614661D01*
X38282380Y-25610410D01*
X40022962Y-23869828D01*
X40029974Y-23856987D01*
X40022179Y-23846298D01*
X39852686Y-23712681D01*
X39846463Y-23708356D01*
X39568940Y-23539288D01*
X39562265Y-23535753D01*
X39266437Y-23401249D01*
X39259367Y-23398535D01*
X38949540Y-23300550D01*
X38942189Y-23298703D01*
X38622824Y-23238646D01*
X38615315Y-23237698D01*
X38291051Y-23216445D01*
X38283486Y-23216405D01*
X37959007Y-23234262D01*
X37951493Y-23235131D01*
X37631513Y-23291841D01*
X37624157Y-23293606D01*
X37313303Y-23388347D01*
X37306209Y-23390986D01*
X37009007Y-23522378D01*
X37002270Y-23525855D01*
X36722996Y-23692005D01*
X36716745Y-23696253D01*
X36523533Y-23845315D01*
X36515067Y-23856973D01*
X34006100Y-23856973D01*
X34006100Y-22143300D01*
X34026102Y-22075179D01*
X34079758Y-22028686D01*
X34132100Y-22017300D01*
X126233500Y-22017300D01*
X126301621Y-22037302D01*
G37*
%TD.AperFunction*%
%TD*%
M02*
