M48
; DRILL file {KiCad (6.0.7)} date Wed Dec 21 02:17:15 2022
; FORMAT={-:-/ absolute / inch / decimal}
; #@! TF.CreationDate,2022-12-21T02:17:15+00:00
; #@! TF.GenerationSoftware,Kicad,Pcbnew,(6.0.7)
; #@! TF.FileFunction,Plated,1,2,PTH
FMAT,2
INCH
; #@! TA.AperFunction,Plated,PTH,ViaDrill
T1C0.0157
; #@! TA.AperFunction,Plated,PTH,ComponentDrill
T2C0.0315
; #@! TA.AperFunction,Plated,PTH,ComponentDrill
T3C0.0394
; #@! TA.AperFunction,Plated,PTH,ComponentDrill
T4C0.1063
%
G90
G05
T1
X1.5698Y-3.6008
X3.4589Y-1.1553
X3.577Y-1.3955
X3.6307Y-1.1605
X3.7266Y-1.3442
X4.077Y-1.6159
X4.0982Y-1.1964
X4.227Y-2.0133
X4.227Y-2.392
X4.277Y-1.62
X4.308Y-3.0537
X4.308Y-3.256
X4.3084Y-2.0618
X4.3084Y-2.3057
T2
X4.7084Y-2.212
X4.7084Y-3.084
X4.7084Y-4.048
X4.8069Y-2.212
X4.8069Y-3.084
X4.8069Y-4.048
T3
X1.87Y-3.6008
X1.87Y-3.7008
X1.871Y-3.3252
X1.871Y-3.4252
X1.875Y-2.4591
X1.875Y-2.5591
X1.875Y-2.7346
X1.875Y-2.8346
X1.877Y-0.998
X1.877Y-1.098
X1.877Y-1.4526
X1.877Y-1.5526
X1.877Y-1.8685
X1.877Y-1.9685
X1.97Y-3.6008
X1.97Y-3.7008
X1.971Y-3.3252
X1.971Y-3.4252
X1.975Y-2.4591
X1.975Y-2.5591
X1.975Y-2.7346
X1.975Y-2.8346
X1.977Y-0.998
X1.977Y-1.098
X1.977Y-1.4526
X1.977Y-1.5526
X1.977Y-1.8685
X1.977Y-1.9685
X2.07Y-3.6008
X2.07Y-3.7008
X2.071Y-3.3252
X2.071Y-3.4252
X2.075Y-2.4591
X2.075Y-2.5591
X2.075Y-2.7346
X2.075Y-2.8346
X2.077Y-0.998
X2.077Y-1.098
X2.077Y-1.4526
X2.077Y-1.5526
X2.077Y-1.8685
X2.077Y-1.9685
X2.17Y-3.6008
X2.17Y-3.7008
X2.171Y-3.3252
X2.171Y-3.4252
X2.175Y-2.4591
X2.175Y-2.5591
X2.175Y-2.7346
X2.175Y-2.8346
X2.177Y-0.998
X2.177Y-1.098
X2.177Y-1.4526
X2.177Y-1.5526
X2.177Y-1.8685
X2.177Y-1.9685
X2.27Y-3.6008
X2.27Y-3.7008
X2.271Y-3.3252
X2.271Y-3.4252
X2.275Y-2.4591
X2.275Y-2.5591
X2.275Y-2.7346
X2.275Y-2.8346
X2.277Y-0.998
X2.277Y-1.098
X2.277Y-1.4526
X2.277Y-1.5526
X2.277Y-1.8685
X2.277Y-1.9685
X2.37Y-3.6008
X2.37Y-3.7008
X2.371Y-3.3252
X2.371Y-3.4252
X2.375Y-2.4591
X2.375Y-2.5591
X2.375Y-2.7346
X2.375Y-2.8346
X2.377Y-0.998
X2.377Y-1.098
X2.377Y-1.4526
X2.377Y-1.5526
X2.377Y-1.8685
X2.377Y-1.9685
X2.47Y-3.6008
X2.47Y-3.7008
X2.471Y-3.3252
X2.471Y-3.4252
X2.475Y-2.4591
X2.475Y-2.5591
X2.475Y-2.7346
X2.475Y-2.8346
X2.477Y-0.998
X2.477Y-1.098
X2.477Y-1.4526
X2.477Y-1.5526
X2.477Y-1.8685
X2.477Y-1.9685
X2.57Y-3.6008
X2.57Y-3.7008
X2.571Y-3.3252
X2.571Y-3.4252
X2.575Y-2.4591
X2.575Y-2.5591
X2.575Y-2.7346
X2.575Y-2.8346
X2.577Y-0.998
X2.577Y-1.098
X2.577Y-1.4526
X2.577Y-1.5526
X2.577Y-1.8685
X2.577Y-1.9685
X2.67Y-3.6008
X2.67Y-3.7008
X2.671Y-3.3252
X2.671Y-3.4252
X2.675Y-2.4591
X2.675Y-2.5591
X2.675Y-2.7346
X2.675Y-2.8346
X2.677Y-0.998
X2.677Y-1.098
X2.677Y-1.4526
X2.677Y-1.5526
X2.677Y-1.8685
X2.677Y-1.9685
X2.77Y-3.6008
X2.77Y-3.7008
X2.771Y-3.3252
X2.771Y-3.4252
X2.775Y-2.4591
X2.775Y-2.5591
X2.775Y-2.7346
X2.775Y-2.8346
X2.777Y-0.998
X2.777Y-1.098
X2.777Y-1.4526
X2.777Y-1.5526
X2.777Y-1.8685
X2.777Y-1.9685
X2.87Y-3.6008
X2.87Y-3.7008
X2.871Y-3.3252
X2.871Y-3.4252
X2.875Y-2.4591
X2.875Y-2.5591
X2.875Y-2.7346
X2.875Y-2.8346
X2.877Y-0.998
X2.877Y-1.098
X2.877Y-1.4526
X2.877Y-1.5526
X2.877Y-1.8685
X2.877Y-1.9685
X2.97Y-3.6008
X2.97Y-3.7008
X2.971Y-3.3252
X2.971Y-3.4252
X2.975Y-2.4591
X2.975Y-2.5591
X2.975Y-2.7346
X2.975Y-2.8346
X2.977Y-0.998
X2.977Y-1.098
X2.977Y-1.4526
X2.977Y-1.5526
X2.977Y-1.8685
X2.977Y-1.9685
X3.07Y-3.6008
X3.07Y-3.7008
X3.071Y-3.3252
X3.071Y-3.4252
X3.075Y-2.4591
X3.075Y-2.5591
X3.075Y-2.7346
X3.075Y-2.8346
X3.077Y-0.998
X3.077Y-1.098
X3.077Y-1.4526
X3.077Y-1.5526
X3.077Y-1.8685
X3.077Y-1.9685
X3.17Y-3.6008
X3.17Y-3.7008
X3.171Y-3.3252
X3.171Y-3.4252
X3.175Y-2.4591
X3.175Y-2.5591
X3.175Y-2.7346
X3.175Y-2.8346
X3.177Y-0.998
X3.177Y-1.098
X3.177Y-1.4526
X3.177Y-1.5526
X3.177Y-1.8685
X3.177Y-1.9685
X3.27Y-3.6008
X3.27Y-3.7008
X3.271Y-3.3252
X3.271Y-3.4252
X3.275Y-2.4591
X3.275Y-2.5591
X3.275Y-2.7346
X3.275Y-2.8346
X3.277Y-0.998
X3.277Y-1.098
X3.277Y-1.4526
X3.277Y-1.5526
X3.277Y-1.8685
X3.277Y-1.9685
X3.37Y-3.6008
X3.37Y-3.7008
X3.371Y-3.3252
X3.371Y-3.4252
X3.375Y-2.4591
X3.375Y-2.5591
X3.375Y-2.7346
X3.375Y-2.8346
X3.377Y-0.998
X3.377Y-1.098
X3.377Y-1.4526
X3.377Y-1.5526
X3.377Y-1.8685
X3.377Y-1.9685
X3.47Y-3.6008
X3.47Y-3.7008
X3.471Y-3.3252
X3.471Y-3.4252
X3.475Y-2.4591
X3.475Y-2.5591
X3.475Y-2.7346
X3.475Y-2.8346
X3.477Y-0.998
X3.477Y-1.098
X3.477Y-1.4526
X3.477Y-1.5526
X3.477Y-1.8685
X3.477Y-1.9685
X3.57Y-3.6008
X3.57Y-3.7008
X3.571Y-3.3252
X3.571Y-3.4252
X3.575Y-2.4591
X3.575Y-2.5591
X3.575Y-2.7346
X3.575Y-2.8346
X3.577Y-0.998
X3.577Y-1.098
X3.577Y-1.4526
X3.577Y-1.5526
X3.577Y-1.8685
X3.577Y-1.9685
X3.67Y-3.6008
X3.67Y-3.7008
X3.671Y-3.3252
X3.671Y-3.4252
X3.675Y-2.4591
X3.675Y-2.5591
X3.675Y-2.7346
X3.675Y-2.8346
X3.677Y-0.998
X3.677Y-1.098
X3.677Y-1.4526
X3.677Y-1.5526
X3.677Y-1.8685
X3.677Y-1.9685
X3.77Y-3.6008
X3.77Y-3.7008
X3.771Y-3.3252
X3.771Y-3.4252
X3.775Y-2.4591
X3.775Y-2.5591
X3.775Y-2.7346
X3.775Y-2.8346
X3.777Y-0.998
X3.777Y-1.098
X3.777Y-1.4526
X3.777Y-1.5526
X3.777Y-1.8685
X3.777Y-1.9685
X3.87Y-3.6008
X3.87Y-3.7008
X3.871Y-3.3252
X3.871Y-3.4252
X3.875Y-2.4591
X3.875Y-2.5591
X3.875Y-2.7346
X3.875Y-2.8346
X3.877Y-0.998
X3.877Y-1.098
X3.877Y-1.4526
X3.877Y-1.5526
X3.877Y-1.8685
X3.877Y-1.9685
X3.97Y-3.6008
X3.97Y-3.7008
X3.971Y-3.3252
X3.971Y-3.4252
X3.975Y-2.4591
X3.975Y-2.5591
X3.975Y-2.7346
X3.975Y-2.8346
X3.977Y-0.998
X3.977Y-1.098
X3.977Y-1.4526
X3.977Y-1.5526
X3.977Y-1.8685
X3.977Y-1.9685
X4.07Y-3.6008
X4.07Y-3.7008
X4.071Y-3.3252
X4.071Y-3.4252
X4.075Y-2.4591
X4.075Y-2.5591
X4.075Y-2.7346
X4.075Y-2.8346
X4.077Y-0.998
X4.077Y-1.098
X4.077Y-1.4526
X4.077Y-1.5526
X4.077Y-1.8685
X4.077Y-1.9685
X4.17Y-3.6008
X4.17Y-3.7008
X4.171Y-3.3252
X4.171Y-3.4252
X4.175Y-2.4591
X4.175Y-2.5591
X4.175Y-2.7346
X4.175Y-2.8346
X4.177Y-0.998
X4.177Y-1.098
X4.177Y-1.4526
X4.177Y-1.5526
X4.177Y-1.8685
X4.177Y-1.9685
X4.27Y-3.6008
X4.27Y-3.7008
X4.271Y-3.3252
X4.271Y-3.4252
X4.275Y-2.4591
X4.275Y-2.5591
X4.275Y-2.7346
X4.275Y-2.8346
X4.277Y-0.998
X4.277Y-1.098
X4.277Y-1.4526
X4.277Y-1.5526
X4.277Y-1.8685
X4.277Y-1.9685
T4
X1.5068Y-1.0228
X3.2168Y-3.0228
T3
G00X4.6177Y-1.2377
M15
G01X4.6177Y-1.3165
M16
G05
G00X4.8421Y-1.159
M15
G01X4.7633Y-1.159
M16
G05
G00X4.8421Y-1.3952
M15
G01X4.7633Y-1.3952
M16
G05
T0
M30
